%TF.GenerationSoftware,KiCad,Pcbnew,5.1.6-1.fc32*%
%TF.CreationDate,2020-07-10T21:32:06-03:00*%
%TF.ProjectId,pc104-adapter-top,70633130-342d-4616-9461-707465722d74,v1.0*%
%TF.SameCoordinates,Original*%
%TF.FileFunction,Copper,L4,Bot*%
%TF.FilePolarity,Positive*%
%FSLAX46Y46*%
G04 Gerber Fmt 4.6, Leading zero omitted, Abs format (unit mm)*
G04 Created by KiCad (PCBNEW 5.1.6-1.fc32) date 2020-07-10 21:32:06*
%MOMM*%
%LPD*%
G01*
G04 APERTURE LIST*
%TA.AperFunction,ViaPad*%
%ADD10C,1.620000*%
%TD*%
%TA.AperFunction,ComponentPad*%
%ADD11C,5.500000*%
%TD*%
%TA.AperFunction,ViaPad*%
%ADD12C,0.800000*%
%TD*%
%TA.AperFunction,Conductor*%
%ADD13C,0.250000*%
%TD*%
%TA.AperFunction,Conductor*%
%ADD14C,0.254000*%
%TD*%
G04 APERTURE END LIST*
D10*
%TO.N,/A52*%
%TO.C,J9*%
X168050000Y-80436000D03*
%TO.N,/A51*%
X168050000Y-82976000D03*
%TO.N,/A50*%
X165510000Y-80436000D03*
%TO.N,/A49*%
X165510000Y-82976000D03*
%TO.N,/A48*%
X162970000Y-80436000D03*
%TO.N,/A47*%
X162970000Y-82976000D03*
%TO.N,/A46*%
X160430000Y-80436000D03*
%TO.N,/A45*%
X160430000Y-82976000D03*
%TO.N,/A44*%
X157890000Y-80436000D03*
%TO.N,/A43*%
X157890000Y-82976000D03*
%TO.N,/A42*%
X155350000Y-80436000D03*
%TO.N,/A41*%
X155350000Y-82976000D03*
%TO.N,/A40*%
X152810000Y-80436000D03*
%TO.N,/A39*%
X152810000Y-82976000D03*
%TO.N,/A38*%
X150270000Y-80436000D03*
%TO.N,/A37*%
X150270000Y-82976000D03*
%TO.N,/A36*%
X147730000Y-80436000D03*
%TO.N,/A35*%
X147730000Y-82976000D03*
%TO.N,/A34*%
X145190000Y-80436000D03*
%TO.N,/A33*%
X145190000Y-82976000D03*
%TO.N,/A32*%
X142650000Y-80436000D03*
%TO.N,/A31*%
X142650000Y-82976000D03*
%TO.N,/A30*%
X140110000Y-80436000D03*
%TO.N,/A29*%
X140110000Y-82976000D03*
%TO.N,/A28*%
X137570000Y-80436000D03*
%TO.N,/A27*%
X137570000Y-82976000D03*
%TO.N,/A26*%
X135030000Y-80436000D03*
%TO.N,/A25*%
X135030000Y-82976000D03*
%TO.N,/A24*%
X132490000Y-80436000D03*
%TO.N,/A23*%
X132490000Y-82976000D03*
%TO.N,/A22*%
X129950000Y-80436000D03*
%TO.N,/A21*%
X129950000Y-82976000D03*
%TO.N,/A20*%
X127410000Y-80436000D03*
%TO.N,/A19*%
X127410000Y-82976000D03*
%TO.N,/A18*%
X124870000Y-80436000D03*
%TO.N,/A17*%
X124870000Y-82976000D03*
%TO.N,/A16*%
X122330000Y-80436000D03*
%TO.N,/A15*%
X122330000Y-82976000D03*
%TO.N,/A14*%
X119790000Y-80436000D03*
%TO.N,/A13*%
X119790000Y-82976000D03*
%TO.N,/A12*%
X117250000Y-80436000D03*
%TO.N,/A11*%
X117250000Y-82976000D03*
%TO.N,/A10*%
X114710000Y-80436000D03*
%TO.N,/A9*%
X114710000Y-82976000D03*
%TO.N,/A8*%
X112170000Y-80436000D03*
%TO.N,/A7*%
X112170000Y-82976000D03*
%TO.N,/A6*%
X109630000Y-80436000D03*
%TO.N,/A5*%
X109630000Y-82976000D03*
%TO.N,/A4*%
X107090000Y-80436000D03*
%TO.N,/A3*%
X107090000Y-82976000D03*
%TO.N,/A2*%
X104550000Y-80436000D03*
%TO.N,/A1*%
X104550000Y-82976000D03*
%TD*%
%TO.N,/B52*%
%TO.C,J10*%
X168050000Y-85516000D03*
%TO.N,/B51*%
X168050000Y-88056000D03*
%TO.N,/B50*%
X165510000Y-85516000D03*
%TO.N,/B49*%
X165510000Y-88056000D03*
%TO.N,/B48*%
X162970000Y-85516000D03*
%TO.N,/B47*%
X162970000Y-88056000D03*
%TO.N,/B46*%
X160430000Y-85516000D03*
%TO.N,/B45*%
X160430000Y-88056000D03*
%TO.N,/B44*%
X157890000Y-85516000D03*
%TO.N,/B43*%
X157890000Y-88056000D03*
%TO.N,/B42*%
X155350000Y-85516000D03*
%TO.N,/B41*%
X155350000Y-88056000D03*
%TO.N,/B40*%
X152810000Y-85516000D03*
%TO.N,/B39*%
X152810000Y-88056000D03*
%TO.N,/B38*%
X150270000Y-85516000D03*
%TO.N,/B37*%
X150270000Y-88056000D03*
%TO.N,/B36*%
X147730000Y-85516000D03*
%TO.N,/B35*%
X147730000Y-88056000D03*
%TO.N,/B34*%
X145190000Y-85516000D03*
%TO.N,/B33*%
X145190000Y-88056000D03*
%TO.N,/B32*%
X142650000Y-85516000D03*
%TO.N,/B31*%
X142650000Y-88056000D03*
%TO.N,/B30*%
X140110000Y-85516000D03*
%TO.N,/B29*%
X140110000Y-88056000D03*
%TO.N,/B28*%
X137570000Y-85516000D03*
%TO.N,/B27*%
X137570000Y-88056000D03*
%TO.N,/B26*%
X135030000Y-85516000D03*
%TO.N,/B25*%
X135030000Y-88056000D03*
%TO.N,/B24*%
X132490000Y-85516000D03*
%TO.N,/B23*%
X132490000Y-88056000D03*
%TO.N,/B22*%
X129950000Y-85516000D03*
%TO.N,/B21*%
X129950000Y-88056000D03*
%TO.N,/B20*%
X127410000Y-85516000D03*
%TO.N,/B19*%
X127410000Y-88056000D03*
%TO.N,/B18*%
X124870000Y-85516000D03*
%TO.N,/B17*%
X124870000Y-88056000D03*
%TO.N,/B16*%
X122330000Y-85516000D03*
%TO.N,/B15*%
X122330000Y-88056000D03*
%TO.N,/B14*%
X119790000Y-85516000D03*
%TO.N,/B13*%
X119790000Y-88056000D03*
%TO.N,/B12*%
X117250000Y-85516000D03*
%TO.N,/B11*%
X117250000Y-88056000D03*
%TO.N,/B10*%
X114710000Y-85516000D03*
%TO.N,/B9*%
X114710000Y-88056000D03*
%TO.N,/B8*%
X112170000Y-85516000D03*
%TO.N,/B7*%
X112170000Y-88056000D03*
%TO.N,/B6*%
X109630000Y-85516000D03*
%TO.N,/B5*%
X109630000Y-88056000D03*
%TO.N,/B4*%
X107090000Y-85516000D03*
%TO.N,/B3*%
X107090000Y-88056000D03*
%TO.N,/B2*%
X104550000Y-85516000D03*
%TO.N,/B1*%
X104550000Y-88056000D03*
%TD*%
%TO.P,J8,MP*%
%TO.N,N/C*%
%TA.AperFunction,SMDPad,CuDef*%
G36*
G01*
X162100000Y-96450000D02*
X162100000Y-98950000D01*
G75*
G02*
X161850000Y-99200000I-250000J0D01*
G01*
X160250000Y-99200000D01*
G75*
G02*
X160000000Y-98950000I0J250000D01*
G01*
X160000000Y-96450000D01*
G75*
G02*
X160250000Y-96200000I250000J0D01*
G01*
X161850000Y-96200000D01*
G75*
G02*
X162100000Y-96450000I0J-250000D01*
G01*
G37*
%TD.AperFunction*%
%TA.AperFunction,SMDPad,CuDef*%
G36*
G01*
X182200000Y-96450000D02*
X182200000Y-98950000D01*
G75*
G02*
X181950000Y-99200000I-250000J0D01*
G01*
X180350000Y-99200000D01*
G75*
G02*
X180100000Y-98950000I0J250000D01*
G01*
X180100000Y-96450000D01*
G75*
G02*
X180350000Y-96200000I250000J0D01*
G01*
X181950000Y-96200000D01*
G75*
G02*
X182200000Y-96450000I0J-250000D01*
G01*
G37*
%TD.AperFunction*%
%TO.P,J8,13*%
%TO.N,/B40*%
%TA.AperFunction,SMDPad,CuDef*%
G36*
G01*
X164000000Y-94500000D02*
X164000000Y-95400000D01*
G75*
G02*
X163800000Y-95600000I-200000J0D01*
G01*
X163400000Y-95600000D01*
G75*
G02*
X163200000Y-95400000I0J200000D01*
G01*
X163200000Y-94500000D01*
G75*
G02*
X163400000Y-94300000I200000J0D01*
G01*
X163800000Y-94300000D01*
G75*
G02*
X164000000Y-94500000I0J-200000D01*
G01*
G37*
%TD.AperFunction*%
%TO.P,J8,12*%
%TO.N,/B41*%
%TA.AperFunction,SMDPad,CuDef*%
G36*
G01*
X165250000Y-94500000D02*
X165250000Y-95400000D01*
G75*
G02*
X165050000Y-95600000I-200000J0D01*
G01*
X164650000Y-95600000D01*
G75*
G02*
X164450000Y-95400000I0J200000D01*
G01*
X164450000Y-94500000D01*
G75*
G02*
X164650000Y-94300000I200000J0D01*
G01*
X165050000Y-94300000D01*
G75*
G02*
X165250000Y-94500000I0J-200000D01*
G01*
G37*
%TD.AperFunction*%
%TO.P,J8,11*%
%TO.N,/B42*%
%TA.AperFunction,SMDPad,CuDef*%
G36*
G01*
X166500000Y-94500000D02*
X166500000Y-95400000D01*
G75*
G02*
X166300000Y-95600000I-200000J0D01*
G01*
X165900000Y-95600000D01*
G75*
G02*
X165700000Y-95400000I0J200000D01*
G01*
X165700000Y-94500000D01*
G75*
G02*
X165900000Y-94300000I200000J0D01*
G01*
X166300000Y-94300000D01*
G75*
G02*
X166500000Y-94500000I0J-200000D01*
G01*
G37*
%TD.AperFunction*%
%TO.P,J8,10*%
%TO.N,/B43*%
%TA.AperFunction,SMDPad,CuDef*%
G36*
G01*
X167750000Y-94500000D02*
X167750000Y-95400000D01*
G75*
G02*
X167550000Y-95600000I-200000J0D01*
G01*
X167150000Y-95600000D01*
G75*
G02*
X166950000Y-95400000I0J200000D01*
G01*
X166950000Y-94500000D01*
G75*
G02*
X167150000Y-94300000I200000J0D01*
G01*
X167550000Y-94300000D01*
G75*
G02*
X167750000Y-94500000I0J-200000D01*
G01*
G37*
%TD.AperFunction*%
%TO.P,J8,9*%
%TO.N,/B44*%
%TA.AperFunction,SMDPad,CuDef*%
G36*
G01*
X169000000Y-94500000D02*
X169000000Y-95400000D01*
G75*
G02*
X168800000Y-95600000I-200000J0D01*
G01*
X168400000Y-95600000D01*
G75*
G02*
X168200000Y-95400000I0J200000D01*
G01*
X168200000Y-94500000D01*
G75*
G02*
X168400000Y-94300000I200000J0D01*
G01*
X168800000Y-94300000D01*
G75*
G02*
X169000000Y-94500000I0J-200000D01*
G01*
G37*
%TD.AperFunction*%
%TO.P,J8,8*%
%TO.N,/B45*%
%TA.AperFunction,SMDPad,CuDef*%
G36*
G01*
X170250000Y-94500000D02*
X170250000Y-95400000D01*
G75*
G02*
X170050000Y-95600000I-200000J0D01*
G01*
X169650000Y-95600000D01*
G75*
G02*
X169450000Y-95400000I0J200000D01*
G01*
X169450000Y-94500000D01*
G75*
G02*
X169650000Y-94300000I200000J0D01*
G01*
X170050000Y-94300000D01*
G75*
G02*
X170250000Y-94500000I0J-200000D01*
G01*
G37*
%TD.AperFunction*%
%TO.P,J8,7*%
%TO.N,/B46*%
%TA.AperFunction,SMDPad,CuDef*%
G36*
G01*
X171500000Y-94500000D02*
X171500000Y-95400000D01*
G75*
G02*
X171300000Y-95600000I-200000J0D01*
G01*
X170900000Y-95600000D01*
G75*
G02*
X170700000Y-95400000I0J200000D01*
G01*
X170700000Y-94500000D01*
G75*
G02*
X170900000Y-94300000I200000J0D01*
G01*
X171300000Y-94300000D01*
G75*
G02*
X171500000Y-94500000I0J-200000D01*
G01*
G37*
%TD.AperFunction*%
%TO.P,J8,6*%
%TO.N,/B47*%
%TA.AperFunction,SMDPad,CuDef*%
G36*
G01*
X172750000Y-94500000D02*
X172750000Y-95400000D01*
G75*
G02*
X172550000Y-95600000I-200000J0D01*
G01*
X172150000Y-95600000D01*
G75*
G02*
X171950000Y-95400000I0J200000D01*
G01*
X171950000Y-94500000D01*
G75*
G02*
X172150000Y-94300000I200000J0D01*
G01*
X172550000Y-94300000D01*
G75*
G02*
X172750000Y-94500000I0J-200000D01*
G01*
G37*
%TD.AperFunction*%
%TO.P,J8,5*%
%TO.N,/B48*%
%TA.AperFunction,SMDPad,CuDef*%
G36*
G01*
X174000000Y-94500000D02*
X174000000Y-95400000D01*
G75*
G02*
X173800000Y-95600000I-200000J0D01*
G01*
X173400000Y-95600000D01*
G75*
G02*
X173200000Y-95400000I0J200000D01*
G01*
X173200000Y-94500000D01*
G75*
G02*
X173400000Y-94300000I200000J0D01*
G01*
X173800000Y-94300000D01*
G75*
G02*
X174000000Y-94500000I0J-200000D01*
G01*
G37*
%TD.AperFunction*%
%TO.P,J8,4*%
%TO.N,/B49*%
%TA.AperFunction,SMDPad,CuDef*%
G36*
G01*
X175250000Y-94500000D02*
X175250000Y-95400000D01*
G75*
G02*
X175050000Y-95600000I-200000J0D01*
G01*
X174650000Y-95600000D01*
G75*
G02*
X174450000Y-95400000I0J200000D01*
G01*
X174450000Y-94500000D01*
G75*
G02*
X174650000Y-94300000I200000J0D01*
G01*
X175050000Y-94300000D01*
G75*
G02*
X175250000Y-94500000I0J-200000D01*
G01*
G37*
%TD.AperFunction*%
%TO.P,J8,3*%
%TO.N,/B50*%
%TA.AperFunction,SMDPad,CuDef*%
G36*
G01*
X176500000Y-94500000D02*
X176500000Y-95400000D01*
G75*
G02*
X176300000Y-95600000I-200000J0D01*
G01*
X175900000Y-95600000D01*
G75*
G02*
X175700000Y-95400000I0J200000D01*
G01*
X175700000Y-94500000D01*
G75*
G02*
X175900000Y-94300000I200000J0D01*
G01*
X176300000Y-94300000D01*
G75*
G02*
X176500000Y-94500000I0J-200000D01*
G01*
G37*
%TD.AperFunction*%
%TO.P,J8,2*%
%TO.N,/B51*%
%TA.AperFunction,SMDPad,CuDef*%
G36*
G01*
X177750000Y-94500000D02*
X177750000Y-95400000D01*
G75*
G02*
X177550000Y-95600000I-200000J0D01*
G01*
X177150000Y-95600000D01*
G75*
G02*
X176950000Y-95400000I0J200000D01*
G01*
X176950000Y-94500000D01*
G75*
G02*
X177150000Y-94300000I200000J0D01*
G01*
X177550000Y-94300000D01*
G75*
G02*
X177750000Y-94500000I0J-200000D01*
G01*
G37*
%TD.AperFunction*%
%TO.P,J8,1*%
%TO.N,/B52*%
%TA.AperFunction,SMDPad,CuDef*%
G36*
G01*
X179000000Y-94500000D02*
X179000000Y-95400000D01*
G75*
G02*
X178800000Y-95600000I-200000J0D01*
G01*
X178400000Y-95600000D01*
G75*
G02*
X178200000Y-95400000I0J200000D01*
G01*
X178200000Y-94500000D01*
G75*
G02*
X178400000Y-94300000I200000J0D01*
G01*
X178800000Y-94300000D01*
G75*
G02*
X179000000Y-94500000I0J-200000D01*
G01*
G37*
%TD.AperFunction*%
%TD*%
%TO.P,J7,MP*%
%TO.N,N/C*%
%TA.AperFunction,SMDPad,CuDef*%
G36*
G01*
X138900000Y-96450000D02*
X138900000Y-98950000D01*
G75*
G02*
X138650000Y-99200000I-250000J0D01*
G01*
X137050000Y-99200000D01*
G75*
G02*
X136800000Y-98950000I0J250000D01*
G01*
X136800000Y-96450000D01*
G75*
G02*
X137050000Y-96200000I250000J0D01*
G01*
X138650000Y-96200000D01*
G75*
G02*
X138900000Y-96450000I0J-250000D01*
G01*
G37*
%TD.AperFunction*%
%TA.AperFunction,SMDPad,CuDef*%
G36*
G01*
X159000000Y-96450000D02*
X159000000Y-98950000D01*
G75*
G02*
X158750000Y-99200000I-250000J0D01*
G01*
X157150000Y-99200000D01*
G75*
G02*
X156900000Y-98950000I0J250000D01*
G01*
X156900000Y-96450000D01*
G75*
G02*
X157150000Y-96200000I250000J0D01*
G01*
X158750000Y-96200000D01*
G75*
G02*
X159000000Y-96450000I0J-250000D01*
G01*
G37*
%TD.AperFunction*%
%TO.P,J7,13*%
%TO.N,/B27*%
%TA.AperFunction,SMDPad,CuDef*%
G36*
G01*
X140800000Y-94500000D02*
X140800000Y-95400000D01*
G75*
G02*
X140600000Y-95600000I-200000J0D01*
G01*
X140200000Y-95600000D01*
G75*
G02*
X140000000Y-95400000I0J200000D01*
G01*
X140000000Y-94500000D01*
G75*
G02*
X140200000Y-94300000I200000J0D01*
G01*
X140600000Y-94300000D01*
G75*
G02*
X140800000Y-94500000I0J-200000D01*
G01*
G37*
%TD.AperFunction*%
%TO.P,J7,12*%
%TO.N,/B28*%
%TA.AperFunction,SMDPad,CuDef*%
G36*
G01*
X142050000Y-94500000D02*
X142050000Y-95400000D01*
G75*
G02*
X141850000Y-95600000I-200000J0D01*
G01*
X141450000Y-95600000D01*
G75*
G02*
X141250000Y-95400000I0J200000D01*
G01*
X141250000Y-94500000D01*
G75*
G02*
X141450000Y-94300000I200000J0D01*
G01*
X141850000Y-94300000D01*
G75*
G02*
X142050000Y-94500000I0J-200000D01*
G01*
G37*
%TD.AperFunction*%
%TO.P,J7,11*%
%TO.N,/B29*%
%TA.AperFunction,SMDPad,CuDef*%
G36*
G01*
X143300000Y-94500000D02*
X143300000Y-95400000D01*
G75*
G02*
X143100000Y-95600000I-200000J0D01*
G01*
X142700000Y-95600000D01*
G75*
G02*
X142500000Y-95400000I0J200000D01*
G01*
X142500000Y-94500000D01*
G75*
G02*
X142700000Y-94300000I200000J0D01*
G01*
X143100000Y-94300000D01*
G75*
G02*
X143300000Y-94500000I0J-200000D01*
G01*
G37*
%TD.AperFunction*%
%TO.P,J7,10*%
%TO.N,/B30*%
%TA.AperFunction,SMDPad,CuDef*%
G36*
G01*
X144550000Y-94500000D02*
X144550000Y-95400000D01*
G75*
G02*
X144350000Y-95600000I-200000J0D01*
G01*
X143950000Y-95600000D01*
G75*
G02*
X143750000Y-95400000I0J200000D01*
G01*
X143750000Y-94500000D01*
G75*
G02*
X143950000Y-94300000I200000J0D01*
G01*
X144350000Y-94300000D01*
G75*
G02*
X144550000Y-94500000I0J-200000D01*
G01*
G37*
%TD.AperFunction*%
%TO.P,J7,9*%
%TO.N,/B31*%
%TA.AperFunction,SMDPad,CuDef*%
G36*
G01*
X145800000Y-94500000D02*
X145800000Y-95400000D01*
G75*
G02*
X145600000Y-95600000I-200000J0D01*
G01*
X145200000Y-95600000D01*
G75*
G02*
X145000000Y-95400000I0J200000D01*
G01*
X145000000Y-94500000D01*
G75*
G02*
X145200000Y-94300000I200000J0D01*
G01*
X145600000Y-94300000D01*
G75*
G02*
X145800000Y-94500000I0J-200000D01*
G01*
G37*
%TD.AperFunction*%
%TO.P,J7,8*%
%TO.N,/B32*%
%TA.AperFunction,SMDPad,CuDef*%
G36*
G01*
X147050000Y-94500000D02*
X147050000Y-95400000D01*
G75*
G02*
X146850000Y-95600000I-200000J0D01*
G01*
X146450000Y-95600000D01*
G75*
G02*
X146250000Y-95400000I0J200000D01*
G01*
X146250000Y-94500000D01*
G75*
G02*
X146450000Y-94300000I200000J0D01*
G01*
X146850000Y-94300000D01*
G75*
G02*
X147050000Y-94500000I0J-200000D01*
G01*
G37*
%TD.AperFunction*%
%TO.P,J7,7*%
%TO.N,/B33*%
%TA.AperFunction,SMDPad,CuDef*%
G36*
G01*
X148300000Y-94500000D02*
X148300000Y-95400000D01*
G75*
G02*
X148100000Y-95600000I-200000J0D01*
G01*
X147700000Y-95600000D01*
G75*
G02*
X147500000Y-95400000I0J200000D01*
G01*
X147500000Y-94500000D01*
G75*
G02*
X147700000Y-94300000I200000J0D01*
G01*
X148100000Y-94300000D01*
G75*
G02*
X148300000Y-94500000I0J-200000D01*
G01*
G37*
%TD.AperFunction*%
%TO.P,J7,6*%
%TO.N,/B34*%
%TA.AperFunction,SMDPad,CuDef*%
G36*
G01*
X149550000Y-94500000D02*
X149550000Y-95400000D01*
G75*
G02*
X149350000Y-95600000I-200000J0D01*
G01*
X148950000Y-95600000D01*
G75*
G02*
X148750000Y-95400000I0J200000D01*
G01*
X148750000Y-94500000D01*
G75*
G02*
X148950000Y-94300000I200000J0D01*
G01*
X149350000Y-94300000D01*
G75*
G02*
X149550000Y-94500000I0J-200000D01*
G01*
G37*
%TD.AperFunction*%
%TO.P,J7,5*%
%TO.N,/B35*%
%TA.AperFunction,SMDPad,CuDef*%
G36*
G01*
X150800000Y-94500000D02*
X150800000Y-95400000D01*
G75*
G02*
X150600000Y-95600000I-200000J0D01*
G01*
X150200000Y-95600000D01*
G75*
G02*
X150000000Y-95400000I0J200000D01*
G01*
X150000000Y-94500000D01*
G75*
G02*
X150200000Y-94300000I200000J0D01*
G01*
X150600000Y-94300000D01*
G75*
G02*
X150800000Y-94500000I0J-200000D01*
G01*
G37*
%TD.AperFunction*%
%TO.P,J7,4*%
%TO.N,/B36*%
%TA.AperFunction,SMDPad,CuDef*%
G36*
G01*
X152050000Y-94500000D02*
X152050000Y-95400000D01*
G75*
G02*
X151850000Y-95600000I-200000J0D01*
G01*
X151450000Y-95600000D01*
G75*
G02*
X151250000Y-95400000I0J200000D01*
G01*
X151250000Y-94500000D01*
G75*
G02*
X151450000Y-94300000I200000J0D01*
G01*
X151850000Y-94300000D01*
G75*
G02*
X152050000Y-94500000I0J-200000D01*
G01*
G37*
%TD.AperFunction*%
%TO.P,J7,3*%
%TO.N,/B37*%
%TA.AperFunction,SMDPad,CuDef*%
G36*
G01*
X153300000Y-94500000D02*
X153300000Y-95400000D01*
G75*
G02*
X153100000Y-95600000I-200000J0D01*
G01*
X152700000Y-95600000D01*
G75*
G02*
X152500000Y-95400000I0J200000D01*
G01*
X152500000Y-94500000D01*
G75*
G02*
X152700000Y-94300000I200000J0D01*
G01*
X153100000Y-94300000D01*
G75*
G02*
X153300000Y-94500000I0J-200000D01*
G01*
G37*
%TD.AperFunction*%
%TO.P,J7,2*%
%TO.N,/B38*%
%TA.AperFunction,SMDPad,CuDef*%
G36*
G01*
X154550000Y-94500000D02*
X154550000Y-95400000D01*
G75*
G02*
X154350000Y-95600000I-200000J0D01*
G01*
X153950000Y-95600000D01*
G75*
G02*
X153750000Y-95400000I0J200000D01*
G01*
X153750000Y-94500000D01*
G75*
G02*
X153950000Y-94300000I200000J0D01*
G01*
X154350000Y-94300000D01*
G75*
G02*
X154550000Y-94500000I0J-200000D01*
G01*
G37*
%TD.AperFunction*%
%TO.P,J7,1*%
%TO.N,/B39*%
%TA.AperFunction,SMDPad,CuDef*%
G36*
G01*
X155800000Y-94500000D02*
X155800000Y-95400000D01*
G75*
G02*
X155600000Y-95600000I-200000J0D01*
G01*
X155200000Y-95600000D01*
G75*
G02*
X155000000Y-95400000I0J200000D01*
G01*
X155000000Y-94500000D01*
G75*
G02*
X155200000Y-94300000I200000J0D01*
G01*
X155600000Y-94300000D01*
G75*
G02*
X155800000Y-94500000I0J-200000D01*
G01*
G37*
%TD.AperFunction*%
%TD*%
%TO.P,J6,MP*%
%TO.N,N/C*%
%TA.AperFunction,SMDPad,CuDef*%
G36*
G01*
X115700000Y-96450000D02*
X115700000Y-98950000D01*
G75*
G02*
X115450000Y-99200000I-250000J0D01*
G01*
X113850000Y-99200000D01*
G75*
G02*
X113600000Y-98950000I0J250000D01*
G01*
X113600000Y-96450000D01*
G75*
G02*
X113850000Y-96200000I250000J0D01*
G01*
X115450000Y-96200000D01*
G75*
G02*
X115700000Y-96450000I0J-250000D01*
G01*
G37*
%TD.AperFunction*%
%TA.AperFunction,SMDPad,CuDef*%
G36*
G01*
X135800000Y-96450000D02*
X135800000Y-98950000D01*
G75*
G02*
X135550000Y-99200000I-250000J0D01*
G01*
X133950000Y-99200000D01*
G75*
G02*
X133700000Y-98950000I0J250000D01*
G01*
X133700000Y-96450000D01*
G75*
G02*
X133950000Y-96200000I250000J0D01*
G01*
X135550000Y-96200000D01*
G75*
G02*
X135800000Y-96450000I0J-250000D01*
G01*
G37*
%TD.AperFunction*%
%TO.P,J6,13*%
%TO.N,/B14*%
%TA.AperFunction,SMDPad,CuDef*%
G36*
G01*
X117600000Y-94500000D02*
X117600000Y-95400000D01*
G75*
G02*
X117400000Y-95600000I-200000J0D01*
G01*
X117000000Y-95600000D01*
G75*
G02*
X116800000Y-95400000I0J200000D01*
G01*
X116800000Y-94500000D01*
G75*
G02*
X117000000Y-94300000I200000J0D01*
G01*
X117400000Y-94300000D01*
G75*
G02*
X117600000Y-94500000I0J-200000D01*
G01*
G37*
%TD.AperFunction*%
%TO.P,J6,12*%
%TO.N,/B15*%
%TA.AperFunction,SMDPad,CuDef*%
G36*
G01*
X118850000Y-94500000D02*
X118850000Y-95400000D01*
G75*
G02*
X118650000Y-95600000I-200000J0D01*
G01*
X118250000Y-95600000D01*
G75*
G02*
X118050000Y-95400000I0J200000D01*
G01*
X118050000Y-94500000D01*
G75*
G02*
X118250000Y-94300000I200000J0D01*
G01*
X118650000Y-94300000D01*
G75*
G02*
X118850000Y-94500000I0J-200000D01*
G01*
G37*
%TD.AperFunction*%
%TO.P,J6,11*%
%TO.N,/B16*%
%TA.AperFunction,SMDPad,CuDef*%
G36*
G01*
X120100000Y-94500000D02*
X120100000Y-95400000D01*
G75*
G02*
X119900000Y-95600000I-200000J0D01*
G01*
X119500000Y-95600000D01*
G75*
G02*
X119300000Y-95400000I0J200000D01*
G01*
X119300000Y-94500000D01*
G75*
G02*
X119500000Y-94300000I200000J0D01*
G01*
X119900000Y-94300000D01*
G75*
G02*
X120100000Y-94500000I0J-200000D01*
G01*
G37*
%TD.AperFunction*%
%TO.P,J6,10*%
%TO.N,/B17*%
%TA.AperFunction,SMDPad,CuDef*%
G36*
G01*
X121350000Y-94500000D02*
X121350000Y-95400000D01*
G75*
G02*
X121150000Y-95600000I-200000J0D01*
G01*
X120750000Y-95600000D01*
G75*
G02*
X120550000Y-95400000I0J200000D01*
G01*
X120550000Y-94500000D01*
G75*
G02*
X120750000Y-94300000I200000J0D01*
G01*
X121150000Y-94300000D01*
G75*
G02*
X121350000Y-94500000I0J-200000D01*
G01*
G37*
%TD.AperFunction*%
%TO.P,J6,9*%
%TO.N,/B18*%
%TA.AperFunction,SMDPad,CuDef*%
G36*
G01*
X122600000Y-94500000D02*
X122600000Y-95400000D01*
G75*
G02*
X122400000Y-95600000I-200000J0D01*
G01*
X122000000Y-95600000D01*
G75*
G02*
X121800000Y-95400000I0J200000D01*
G01*
X121800000Y-94500000D01*
G75*
G02*
X122000000Y-94300000I200000J0D01*
G01*
X122400000Y-94300000D01*
G75*
G02*
X122600000Y-94500000I0J-200000D01*
G01*
G37*
%TD.AperFunction*%
%TO.P,J6,8*%
%TO.N,/B19*%
%TA.AperFunction,SMDPad,CuDef*%
G36*
G01*
X123850000Y-94500000D02*
X123850000Y-95400000D01*
G75*
G02*
X123650000Y-95600000I-200000J0D01*
G01*
X123250000Y-95600000D01*
G75*
G02*
X123050000Y-95400000I0J200000D01*
G01*
X123050000Y-94500000D01*
G75*
G02*
X123250000Y-94300000I200000J0D01*
G01*
X123650000Y-94300000D01*
G75*
G02*
X123850000Y-94500000I0J-200000D01*
G01*
G37*
%TD.AperFunction*%
%TO.P,J6,7*%
%TO.N,/B20*%
%TA.AperFunction,SMDPad,CuDef*%
G36*
G01*
X125100000Y-94500000D02*
X125100000Y-95400000D01*
G75*
G02*
X124900000Y-95600000I-200000J0D01*
G01*
X124500000Y-95600000D01*
G75*
G02*
X124300000Y-95400000I0J200000D01*
G01*
X124300000Y-94500000D01*
G75*
G02*
X124500000Y-94300000I200000J0D01*
G01*
X124900000Y-94300000D01*
G75*
G02*
X125100000Y-94500000I0J-200000D01*
G01*
G37*
%TD.AperFunction*%
%TO.P,J6,6*%
%TO.N,/B21*%
%TA.AperFunction,SMDPad,CuDef*%
G36*
G01*
X126350000Y-94500000D02*
X126350000Y-95400000D01*
G75*
G02*
X126150000Y-95600000I-200000J0D01*
G01*
X125750000Y-95600000D01*
G75*
G02*
X125550000Y-95400000I0J200000D01*
G01*
X125550000Y-94500000D01*
G75*
G02*
X125750000Y-94300000I200000J0D01*
G01*
X126150000Y-94300000D01*
G75*
G02*
X126350000Y-94500000I0J-200000D01*
G01*
G37*
%TD.AperFunction*%
%TO.P,J6,5*%
%TO.N,/B22*%
%TA.AperFunction,SMDPad,CuDef*%
G36*
G01*
X127600000Y-94500000D02*
X127600000Y-95400000D01*
G75*
G02*
X127400000Y-95600000I-200000J0D01*
G01*
X127000000Y-95600000D01*
G75*
G02*
X126800000Y-95400000I0J200000D01*
G01*
X126800000Y-94500000D01*
G75*
G02*
X127000000Y-94300000I200000J0D01*
G01*
X127400000Y-94300000D01*
G75*
G02*
X127600000Y-94500000I0J-200000D01*
G01*
G37*
%TD.AperFunction*%
%TO.P,J6,4*%
%TO.N,/B23*%
%TA.AperFunction,SMDPad,CuDef*%
G36*
G01*
X128850000Y-94500000D02*
X128850000Y-95400000D01*
G75*
G02*
X128650000Y-95600000I-200000J0D01*
G01*
X128250000Y-95600000D01*
G75*
G02*
X128050000Y-95400000I0J200000D01*
G01*
X128050000Y-94500000D01*
G75*
G02*
X128250000Y-94300000I200000J0D01*
G01*
X128650000Y-94300000D01*
G75*
G02*
X128850000Y-94500000I0J-200000D01*
G01*
G37*
%TD.AperFunction*%
%TO.P,J6,3*%
%TO.N,/B24*%
%TA.AperFunction,SMDPad,CuDef*%
G36*
G01*
X130100000Y-94500000D02*
X130100000Y-95400000D01*
G75*
G02*
X129900000Y-95600000I-200000J0D01*
G01*
X129500000Y-95600000D01*
G75*
G02*
X129300000Y-95400000I0J200000D01*
G01*
X129300000Y-94500000D01*
G75*
G02*
X129500000Y-94300000I200000J0D01*
G01*
X129900000Y-94300000D01*
G75*
G02*
X130100000Y-94500000I0J-200000D01*
G01*
G37*
%TD.AperFunction*%
%TO.P,J6,2*%
%TO.N,/B25*%
%TA.AperFunction,SMDPad,CuDef*%
G36*
G01*
X131350000Y-94500000D02*
X131350000Y-95400000D01*
G75*
G02*
X131150000Y-95600000I-200000J0D01*
G01*
X130750000Y-95600000D01*
G75*
G02*
X130550000Y-95400000I0J200000D01*
G01*
X130550000Y-94500000D01*
G75*
G02*
X130750000Y-94300000I200000J0D01*
G01*
X131150000Y-94300000D01*
G75*
G02*
X131350000Y-94500000I0J-200000D01*
G01*
G37*
%TD.AperFunction*%
%TO.P,J6,1*%
%TO.N,/B26*%
%TA.AperFunction,SMDPad,CuDef*%
G36*
G01*
X132600000Y-94500000D02*
X132600000Y-95400000D01*
G75*
G02*
X132400000Y-95600000I-200000J0D01*
G01*
X132000000Y-95600000D01*
G75*
G02*
X131800000Y-95400000I0J200000D01*
G01*
X131800000Y-94500000D01*
G75*
G02*
X132000000Y-94300000I200000J0D01*
G01*
X132400000Y-94300000D01*
G75*
G02*
X132600000Y-94500000I0J-200000D01*
G01*
G37*
%TD.AperFunction*%
%TD*%
%TO.P,J5,MP*%
%TO.N,N/C*%
%TA.AperFunction,SMDPad,CuDef*%
G36*
G01*
X92500000Y-96450000D02*
X92500000Y-98950000D01*
G75*
G02*
X92250000Y-99200000I-250000J0D01*
G01*
X90650000Y-99200000D01*
G75*
G02*
X90400000Y-98950000I0J250000D01*
G01*
X90400000Y-96450000D01*
G75*
G02*
X90650000Y-96200000I250000J0D01*
G01*
X92250000Y-96200000D01*
G75*
G02*
X92500000Y-96450000I0J-250000D01*
G01*
G37*
%TD.AperFunction*%
%TA.AperFunction,SMDPad,CuDef*%
G36*
G01*
X112600000Y-96450000D02*
X112600000Y-98950000D01*
G75*
G02*
X112350000Y-99200000I-250000J0D01*
G01*
X110750000Y-99200000D01*
G75*
G02*
X110500000Y-98950000I0J250000D01*
G01*
X110500000Y-96450000D01*
G75*
G02*
X110750000Y-96200000I250000J0D01*
G01*
X112350000Y-96200000D01*
G75*
G02*
X112600000Y-96450000I0J-250000D01*
G01*
G37*
%TD.AperFunction*%
%TO.P,J5,13*%
%TO.N,/B1*%
%TA.AperFunction,SMDPad,CuDef*%
G36*
G01*
X94400000Y-94500000D02*
X94400000Y-95400000D01*
G75*
G02*
X94200000Y-95600000I-200000J0D01*
G01*
X93800000Y-95600000D01*
G75*
G02*
X93600000Y-95400000I0J200000D01*
G01*
X93600000Y-94500000D01*
G75*
G02*
X93800000Y-94300000I200000J0D01*
G01*
X94200000Y-94300000D01*
G75*
G02*
X94400000Y-94500000I0J-200000D01*
G01*
G37*
%TD.AperFunction*%
%TO.P,J5,12*%
%TO.N,/B2*%
%TA.AperFunction,SMDPad,CuDef*%
G36*
G01*
X95650000Y-94500000D02*
X95650000Y-95400000D01*
G75*
G02*
X95450000Y-95600000I-200000J0D01*
G01*
X95050000Y-95600000D01*
G75*
G02*
X94850000Y-95400000I0J200000D01*
G01*
X94850000Y-94500000D01*
G75*
G02*
X95050000Y-94300000I200000J0D01*
G01*
X95450000Y-94300000D01*
G75*
G02*
X95650000Y-94500000I0J-200000D01*
G01*
G37*
%TD.AperFunction*%
%TO.P,J5,11*%
%TO.N,/B3*%
%TA.AperFunction,SMDPad,CuDef*%
G36*
G01*
X96900000Y-94500000D02*
X96900000Y-95400000D01*
G75*
G02*
X96700000Y-95600000I-200000J0D01*
G01*
X96300000Y-95600000D01*
G75*
G02*
X96100000Y-95400000I0J200000D01*
G01*
X96100000Y-94500000D01*
G75*
G02*
X96300000Y-94300000I200000J0D01*
G01*
X96700000Y-94300000D01*
G75*
G02*
X96900000Y-94500000I0J-200000D01*
G01*
G37*
%TD.AperFunction*%
%TO.P,J5,10*%
%TO.N,/B4*%
%TA.AperFunction,SMDPad,CuDef*%
G36*
G01*
X98150000Y-94500000D02*
X98150000Y-95400000D01*
G75*
G02*
X97950000Y-95600000I-200000J0D01*
G01*
X97550000Y-95600000D01*
G75*
G02*
X97350000Y-95400000I0J200000D01*
G01*
X97350000Y-94500000D01*
G75*
G02*
X97550000Y-94300000I200000J0D01*
G01*
X97950000Y-94300000D01*
G75*
G02*
X98150000Y-94500000I0J-200000D01*
G01*
G37*
%TD.AperFunction*%
%TO.P,J5,9*%
%TO.N,/B5*%
%TA.AperFunction,SMDPad,CuDef*%
G36*
G01*
X99400000Y-94500000D02*
X99400000Y-95400000D01*
G75*
G02*
X99200000Y-95600000I-200000J0D01*
G01*
X98800000Y-95600000D01*
G75*
G02*
X98600000Y-95400000I0J200000D01*
G01*
X98600000Y-94500000D01*
G75*
G02*
X98800000Y-94300000I200000J0D01*
G01*
X99200000Y-94300000D01*
G75*
G02*
X99400000Y-94500000I0J-200000D01*
G01*
G37*
%TD.AperFunction*%
%TO.P,J5,8*%
%TO.N,/B6*%
%TA.AperFunction,SMDPad,CuDef*%
G36*
G01*
X100650000Y-94500000D02*
X100650000Y-95400000D01*
G75*
G02*
X100450000Y-95600000I-200000J0D01*
G01*
X100050000Y-95600000D01*
G75*
G02*
X99850000Y-95400000I0J200000D01*
G01*
X99850000Y-94500000D01*
G75*
G02*
X100050000Y-94300000I200000J0D01*
G01*
X100450000Y-94300000D01*
G75*
G02*
X100650000Y-94500000I0J-200000D01*
G01*
G37*
%TD.AperFunction*%
%TO.P,J5,7*%
%TO.N,/B7*%
%TA.AperFunction,SMDPad,CuDef*%
G36*
G01*
X101900000Y-94500000D02*
X101900000Y-95400000D01*
G75*
G02*
X101700000Y-95600000I-200000J0D01*
G01*
X101300000Y-95600000D01*
G75*
G02*
X101100000Y-95400000I0J200000D01*
G01*
X101100000Y-94500000D01*
G75*
G02*
X101300000Y-94300000I200000J0D01*
G01*
X101700000Y-94300000D01*
G75*
G02*
X101900000Y-94500000I0J-200000D01*
G01*
G37*
%TD.AperFunction*%
%TO.P,J5,6*%
%TO.N,/B8*%
%TA.AperFunction,SMDPad,CuDef*%
G36*
G01*
X103150000Y-94500000D02*
X103150000Y-95400000D01*
G75*
G02*
X102950000Y-95600000I-200000J0D01*
G01*
X102550000Y-95600000D01*
G75*
G02*
X102350000Y-95400000I0J200000D01*
G01*
X102350000Y-94500000D01*
G75*
G02*
X102550000Y-94300000I200000J0D01*
G01*
X102950000Y-94300000D01*
G75*
G02*
X103150000Y-94500000I0J-200000D01*
G01*
G37*
%TD.AperFunction*%
%TO.P,J5,5*%
%TO.N,/B9*%
%TA.AperFunction,SMDPad,CuDef*%
G36*
G01*
X104400000Y-94500000D02*
X104400000Y-95400000D01*
G75*
G02*
X104200000Y-95600000I-200000J0D01*
G01*
X103800000Y-95600000D01*
G75*
G02*
X103600000Y-95400000I0J200000D01*
G01*
X103600000Y-94500000D01*
G75*
G02*
X103800000Y-94300000I200000J0D01*
G01*
X104200000Y-94300000D01*
G75*
G02*
X104400000Y-94500000I0J-200000D01*
G01*
G37*
%TD.AperFunction*%
%TO.P,J5,4*%
%TO.N,/B10*%
%TA.AperFunction,SMDPad,CuDef*%
G36*
G01*
X105650000Y-94500000D02*
X105650000Y-95400000D01*
G75*
G02*
X105450000Y-95600000I-200000J0D01*
G01*
X105050000Y-95600000D01*
G75*
G02*
X104850000Y-95400000I0J200000D01*
G01*
X104850000Y-94500000D01*
G75*
G02*
X105050000Y-94300000I200000J0D01*
G01*
X105450000Y-94300000D01*
G75*
G02*
X105650000Y-94500000I0J-200000D01*
G01*
G37*
%TD.AperFunction*%
%TO.P,J5,3*%
%TO.N,/B11*%
%TA.AperFunction,SMDPad,CuDef*%
G36*
G01*
X106900000Y-94500000D02*
X106900000Y-95400000D01*
G75*
G02*
X106700000Y-95600000I-200000J0D01*
G01*
X106300000Y-95600000D01*
G75*
G02*
X106100000Y-95400000I0J200000D01*
G01*
X106100000Y-94500000D01*
G75*
G02*
X106300000Y-94300000I200000J0D01*
G01*
X106700000Y-94300000D01*
G75*
G02*
X106900000Y-94500000I0J-200000D01*
G01*
G37*
%TD.AperFunction*%
%TO.P,J5,2*%
%TO.N,/B12*%
%TA.AperFunction,SMDPad,CuDef*%
G36*
G01*
X108150000Y-94500000D02*
X108150000Y-95400000D01*
G75*
G02*
X107950000Y-95600000I-200000J0D01*
G01*
X107550000Y-95600000D01*
G75*
G02*
X107350000Y-95400000I0J200000D01*
G01*
X107350000Y-94500000D01*
G75*
G02*
X107550000Y-94300000I200000J0D01*
G01*
X107950000Y-94300000D01*
G75*
G02*
X108150000Y-94500000I0J-200000D01*
G01*
G37*
%TD.AperFunction*%
%TO.P,J5,1*%
%TO.N,/B13*%
%TA.AperFunction,SMDPad,CuDef*%
G36*
G01*
X109400000Y-94500000D02*
X109400000Y-95400000D01*
G75*
G02*
X109200000Y-95600000I-200000J0D01*
G01*
X108800000Y-95600000D01*
G75*
G02*
X108600000Y-95400000I0J200000D01*
G01*
X108600000Y-94500000D01*
G75*
G02*
X108800000Y-94300000I200000J0D01*
G01*
X109200000Y-94300000D01*
G75*
G02*
X109400000Y-94500000I0J-200000D01*
G01*
G37*
%TD.AperFunction*%
%TD*%
%TO.P,J4,MP*%
%TO.N,N/C*%
%TA.AperFunction,SMDPad,CuDef*%
G36*
G01*
X162100000Y-106450000D02*
X162100000Y-108950000D01*
G75*
G02*
X161850000Y-109200000I-250000J0D01*
G01*
X160250000Y-109200000D01*
G75*
G02*
X160000000Y-108950000I0J250000D01*
G01*
X160000000Y-106450000D01*
G75*
G02*
X160250000Y-106200000I250000J0D01*
G01*
X161850000Y-106200000D01*
G75*
G02*
X162100000Y-106450000I0J-250000D01*
G01*
G37*
%TD.AperFunction*%
%TA.AperFunction,SMDPad,CuDef*%
G36*
G01*
X182200000Y-106450000D02*
X182200000Y-108950000D01*
G75*
G02*
X181950000Y-109200000I-250000J0D01*
G01*
X180350000Y-109200000D01*
G75*
G02*
X180100000Y-108950000I0J250000D01*
G01*
X180100000Y-106450000D01*
G75*
G02*
X180350000Y-106200000I250000J0D01*
G01*
X181950000Y-106200000D01*
G75*
G02*
X182200000Y-106450000I0J-250000D01*
G01*
G37*
%TD.AperFunction*%
%TO.P,J4,13*%
%TO.N,/A40*%
%TA.AperFunction,SMDPad,CuDef*%
G36*
G01*
X164000000Y-104500000D02*
X164000000Y-105400000D01*
G75*
G02*
X163800000Y-105600000I-200000J0D01*
G01*
X163400000Y-105600000D01*
G75*
G02*
X163200000Y-105400000I0J200000D01*
G01*
X163200000Y-104500000D01*
G75*
G02*
X163400000Y-104300000I200000J0D01*
G01*
X163800000Y-104300000D01*
G75*
G02*
X164000000Y-104500000I0J-200000D01*
G01*
G37*
%TD.AperFunction*%
%TO.P,J4,12*%
%TO.N,/A41*%
%TA.AperFunction,SMDPad,CuDef*%
G36*
G01*
X165250000Y-104500000D02*
X165250000Y-105400000D01*
G75*
G02*
X165050000Y-105600000I-200000J0D01*
G01*
X164650000Y-105600000D01*
G75*
G02*
X164450000Y-105400000I0J200000D01*
G01*
X164450000Y-104500000D01*
G75*
G02*
X164650000Y-104300000I200000J0D01*
G01*
X165050000Y-104300000D01*
G75*
G02*
X165250000Y-104500000I0J-200000D01*
G01*
G37*
%TD.AperFunction*%
%TO.P,J4,11*%
%TO.N,/A42*%
%TA.AperFunction,SMDPad,CuDef*%
G36*
G01*
X166500000Y-104500000D02*
X166500000Y-105400000D01*
G75*
G02*
X166300000Y-105600000I-200000J0D01*
G01*
X165900000Y-105600000D01*
G75*
G02*
X165700000Y-105400000I0J200000D01*
G01*
X165700000Y-104500000D01*
G75*
G02*
X165900000Y-104300000I200000J0D01*
G01*
X166300000Y-104300000D01*
G75*
G02*
X166500000Y-104500000I0J-200000D01*
G01*
G37*
%TD.AperFunction*%
%TO.P,J4,10*%
%TO.N,/A43*%
%TA.AperFunction,SMDPad,CuDef*%
G36*
G01*
X167750000Y-104500000D02*
X167750000Y-105400000D01*
G75*
G02*
X167550000Y-105600000I-200000J0D01*
G01*
X167150000Y-105600000D01*
G75*
G02*
X166950000Y-105400000I0J200000D01*
G01*
X166950000Y-104500000D01*
G75*
G02*
X167150000Y-104300000I200000J0D01*
G01*
X167550000Y-104300000D01*
G75*
G02*
X167750000Y-104500000I0J-200000D01*
G01*
G37*
%TD.AperFunction*%
%TO.P,J4,9*%
%TO.N,/A44*%
%TA.AperFunction,SMDPad,CuDef*%
G36*
G01*
X169000000Y-104500000D02*
X169000000Y-105400000D01*
G75*
G02*
X168800000Y-105600000I-200000J0D01*
G01*
X168400000Y-105600000D01*
G75*
G02*
X168200000Y-105400000I0J200000D01*
G01*
X168200000Y-104500000D01*
G75*
G02*
X168400000Y-104300000I200000J0D01*
G01*
X168800000Y-104300000D01*
G75*
G02*
X169000000Y-104500000I0J-200000D01*
G01*
G37*
%TD.AperFunction*%
%TO.P,J4,8*%
%TO.N,/A45*%
%TA.AperFunction,SMDPad,CuDef*%
G36*
G01*
X170250000Y-104500000D02*
X170250000Y-105400000D01*
G75*
G02*
X170050000Y-105600000I-200000J0D01*
G01*
X169650000Y-105600000D01*
G75*
G02*
X169450000Y-105400000I0J200000D01*
G01*
X169450000Y-104500000D01*
G75*
G02*
X169650000Y-104300000I200000J0D01*
G01*
X170050000Y-104300000D01*
G75*
G02*
X170250000Y-104500000I0J-200000D01*
G01*
G37*
%TD.AperFunction*%
%TO.P,J4,7*%
%TO.N,/A46*%
%TA.AperFunction,SMDPad,CuDef*%
G36*
G01*
X171500000Y-104500000D02*
X171500000Y-105400000D01*
G75*
G02*
X171300000Y-105600000I-200000J0D01*
G01*
X170900000Y-105600000D01*
G75*
G02*
X170700000Y-105400000I0J200000D01*
G01*
X170700000Y-104500000D01*
G75*
G02*
X170900000Y-104300000I200000J0D01*
G01*
X171300000Y-104300000D01*
G75*
G02*
X171500000Y-104500000I0J-200000D01*
G01*
G37*
%TD.AperFunction*%
%TO.P,J4,6*%
%TO.N,/A47*%
%TA.AperFunction,SMDPad,CuDef*%
G36*
G01*
X172750000Y-104500000D02*
X172750000Y-105400000D01*
G75*
G02*
X172550000Y-105600000I-200000J0D01*
G01*
X172150000Y-105600000D01*
G75*
G02*
X171950000Y-105400000I0J200000D01*
G01*
X171950000Y-104500000D01*
G75*
G02*
X172150000Y-104300000I200000J0D01*
G01*
X172550000Y-104300000D01*
G75*
G02*
X172750000Y-104500000I0J-200000D01*
G01*
G37*
%TD.AperFunction*%
%TO.P,J4,5*%
%TO.N,/A48*%
%TA.AperFunction,SMDPad,CuDef*%
G36*
G01*
X174000000Y-104500000D02*
X174000000Y-105400000D01*
G75*
G02*
X173800000Y-105600000I-200000J0D01*
G01*
X173400000Y-105600000D01*
G75*
G02*
X173200000Y-105400000I0J200000D01*
G01*
X173200000Y-104500000D01*
G75*
G02*
X173400000Y-104300000I200000J0D01*
G01*
X173800000Y-104300000D01*
G75*
G02*
X174000000Y-104500000I0J-200000D01*
G01*
G37*
%TD.AperFunction*%
%TO.P,J4,4*%
%TO.N,/A49*%
%TA.AperFunction,SMDPad,CuDef*%
G36*
G01*
X175250000Y-104500000D02*
X175250000Y-105400000D01*
G75*
G02*
X175050000Y-105600000I-200000J0D01*
G01*
X174650000Y-105600000D01*
G75*
G02*
X174450000Y-105400000I0J200000D01*
G01*
X174450000Y-104500000D01*
G75*
G02*
X174650000Y-104300000I200000J0D01*
G01*
X175050000Y-104300000D01*
G75*
G02*
X175250000Y-104500000I0J-200000D01*
G01*
G37*
%TD.AperFunction*%
%TO.P,J4,3*%
%TO.N,/A50*%
%TA.AperFunction,SMDPad,CuDef*%
G36*
G01*
X176500000Y-104500000D02*
X176500000Y-105400000D01*
G75*
G02*
X176300000Y-105600000I-200000J0D01*
G01*
X175900000Y-105600000D01*
G75*
G02*
X175700000Y-105400000I0J200000D01*
G01*
X175700000Y-104500000D01*
G75*
G02*
X175900000Y-104300000I200000J0D01*
G01*
X176300000Y-104300000D01*
G75*
G02*
X176500000Y-104500000I0J-200000D01*
G01*
G37*
%TD.AperFunction*%
%TO.P,J4,2*%
%TO.N,/A51*%
%TA.AperFunction,SMDPad,CuDef*%
G36*
G01*
X177750000Y-104500000D02*
X177750000Y-105400000D01*
G75*
G02*
X177550000Y-105600000I-200000J0D01*
G01*
X177150000Y-105600000D01*
G75*
G02*
X176950000Y-105400000I0J200000D01*
G01*
X176950000Y-104500000D01*
G75*
G02*
X177150000Y-104300000I200000J0D01*
G01*
X177550000Y-104300000D01*
G75*
G02*
X177750000Y-104500000I0J-200000D01*
G01*
G37*
%TD.AperFunction*%
%TO.P,J4,1*%
%TO.N,/A52*%
%TA.AperFunction,SMDPad,CuDef*%
G36*
G01*
X179000000Y-104500000D02*
X179000000Y-105400000D01*
G75*
G02*
X178800000Y-105600000I-200000J0D01*
G01*
X178400000Y-105600000D01*
G75*
G02*
X178200000Y-105400000I0J200000D01*
G01*
X178200000Y-104500000D01*
G75*
G02*
X178400000Y-104300000I200000J0D01*
G01*
X178800000Y-104300000D01*
G75*
G02*
X179000000Y-104500000I0J-200000D01*
G01*
G37*
%TD.AperFunction*%
%TD*%
%TO.P,J3,MP*%
%TO.N,N/C*%
%TA.AperFunction,SMDPad,CuDef*%
G36*
G01*
X138900000Y-106450000D02*
X138900000Y-108950000D01*
G75*
G02*
X138650000Y-109200000I-250000J0D01*
G01*
X137050000Y-109200000D01*
G75*
G02*
X136800000Y-108950000I0J250000D01*
G01*
X136800000Y-106450000D01*
G75*
G02*
X137050000Y-106200000I250000J0D01*
G01*
X138650000Y-106200000D01*
G75*
G02*
X138900000Y-106450000I0J-250000D01*
G01*
G37*
%TD.AperFunction*%
%TA.AperFunction,SMDPad,CuDef*%
G36*
G01*
X159000000Y-106450000D02*
X159000000Y-108950000D01*
G75*
G02*
X158750000Y-109200000I-250000J0D01*
G01*
X157150000Y-109200000D01*
G75*
G02*
X156900000Y-108950000I0J250000D01*
G01*
X156900000Y-106450000D01*
G75*
G02*
X157150000Y-106200000I250000J0D01*
G01*
X158750000Y-106200000D01*
G75*
G02*
X159000000Y-106450000I0J-250000D01*
G01*
G37*
%TD.AperFunction*%
%TO.P,J3,13*%
%TO.N,/A27*%
%TA.AperFunction,SMDPad,CuDef*%
G36*
G01*
X140800000Y-104500000D02*
X140800000Y-105400000D01*
G75*
G02*
X140600000Y-105600000I-200000J0D01*
G01*
X140200000Y-105600000D01*
G75*
G02*
X140000000Y-105400000I0J200000D01*
G01*
X140000000Y-104500000D01*
G75*
G02*
X140200000Y-104300000I200000J0D01*
G01*
X140600000Y-104300000D01*
G75*
G02*
X140800000Y-104500000I0J-200000D01*
G01*
G37*
%TD.AperFunction*%
%TO.P,J3,12*%
%TO.N,/A28*%
%TA.AperFunction,SMDPad,CuDef*%
G36*
G01*
X142050000Y-104500000D02*
X142050000Y-105400000D01*
G75*
G02*
X141850000Y-105600000I-200000J0D01*
G01*
X141450000Y-105600000D01*
G75*
G02*
X141250000Y-105400000I0J200000D01*
G01*
X141250000Y-104500000D01*
G75*
G02*
X141450000Y-104300000I200000J0D01*
G01*
X141850000Y-104300000D01*
G75*
G02*
X142050000Y-104500000I0J-200000D01*
G01*
G37*
%TD.AperFunction*%
%TO.P,J3,11*%
%TO.N,/A29*%
%TA.AperFunction,SMDPad,CuDef*%
G36*
G01*
X143300000Y-104500000D02*
X143300000Y-105400000D01*
G75*
G02*
X143100000Y-105600000I-200000J0D01*
G01*
X142700000Y-105600000D01*
G75*
G02*
X142500000Y-105400000I0J200000D01*
G01*
X142500000Y-104500000D01*
G75*
G02*
X142700000Y-104300000I200000J0D01*
G01*
X143100000Y-104300000D01*
G75*
G02*
X143300000Y-104500000I0J-200000D01*
G01*
G37*
%TD.AperFunction*%
%TO.P,J3,10*%
%TO.N,/A30*%
%TA.AperFunction,SMDPad,CuDef*%
G36*
G01*
X144550000Y-104500000D02*
X144550000Y-105400000D01*
G75*
G02*
X144350000Y-105600000I-200000J0D01*
G01*
X143950000Y-105600000D01*
G75*
G02*
X143750000Y-105400000I0J200000D01*
G01*
X143750000Y-104500000D01*
G75*
G02*
X143950000Y-104300000I200000J0D01*
G01*
X144350000Y-104300000D01*
G75*
G02*
X144550000Y-104500000I0J-200000D01*
G01*
G37*
%TD.AperFunction*%
%TO.P,J3,9*%
%TO.N,/A31*%
%TA.AperFunction,SMDPad,CuDef*%
G36*
G01*
X145800000Y-104500000D02*
X145800000Y-105400000D01*
G75*
G02*
X145600000Y-105600000I-200000J0D01*
G01*
X145200000Y-105600000D01*
G75*
G02*
X145000000Y-105400000I0J200000D01*
G01*
X145000000Y-104500000D01*
G75*
G02*
X145200000Y-104300000I200000J0D01*
G01*
X145600000Y-104300000D01*
G75*
G02*
X145800000Y-104500000I0J-200000D01*
G01*
G37*
%TD.AperFunction*%
%TO.P,J3,8*%
%TO.N,/A32*%
%TA.AperFunction,SMDPad,CuDef*%
G36*
G01*
X147050000Y-104500000D02*
X147050000Y-105400000D01*
G75*
G02*
X146850000Y-105600000I-200000J0D01*
G01*
X146450000Y-105600000D01*
G75*
G02*
X146250000Y-105400000I0J200000D01*
G01*
X146250000Y-104500000D01*
G75*
G02*
X146450000Y-104300000I200000J0D01*
G01*
X146850000Y-104300000D01*
G75*
G02*
X147050000Y-104500000I0J-200000D01*
G01*
G37*
%TD.AperFunction*%
%TO.P,J3,7*%
%TO.N,/A33*%
%TA.AperFunction,SMDPad,CuDef*%
G36*
G01*
X148300000Y-104500000D02*
X148300000Y-105400000D01*
G75*
G02*
X148100000Y-105600000I-200000J0D01*
G01*
X147700000Y-105600000D01*
G75*
G02*
X147500000Y-105400000I0J200000D01*
G01*
X147500000Y-104500000D01*
G75*
G02*
X147700000Y-104300000I200000J0D01*
G01*
X148100000Y-104300000D01*
G75*
G02*
X148300000Y-104500000I0J-200000D01*
G01*
G37*
%TD.AperFunction*%
%TO.P,J3,6*%
%TO.N,/A34*%
%TA.AperFunction,SMDPad,CuDef*%
G36*
G01*
X149550000Y-104500000D02*
X149550000Y-105400000D01*
G75*
G02*
X149350000Y-105600000I-200000J0D01*
G01*
X148950000Y-105600000D01*
G75*
G02*
X148750000Y-105400000I0J200000D01*
G01*
X148750000Y-104500000D01*
G75*
G02*
X148950000Y-104300000I200000J0D01*
G01*
X149350000Y-104300000D01*
G75*
G02*
X149550000Y-104500000I0J-200000D01*
G01*
G37*
%TD.AperFunction*%
%TO.P,J3,5*%
%TO.N,/A35*%
%TA.AperFunction,SMDPad,CuDef*%
G36*
G01*
X150800000Y-104500000D02*
X150800000Y-105400000D01*
G75*
G02*
X150600000Y-105600000I-200000J0D01*
G01*
X150200000Y-105600000D01*
G75*
G02*
X150000000Y-105400000I0J200000D01*
G01*
X150000000Y-104500000D01*
G75*
G02*
X150200000Y-104300000I200000J0D01*
G01*
X150600000Y-104300000D01*
G75*
G02*
X150800000Y-104500000I0J-200000D01*
G01*
G37*
%TD.AperFunction*%
%TO.P,J3,4*%
%TO.N,/A36*%
%TA.AperFunction,SMDPad,CuDef*%
G36*
G01*
X152050000Y-104500000D02*
X152050000Y-105400000D01*
G75*
G02*
X151850000Y-105600000I-200000J0D01*
G01*
X151450000Y-105600000D01*
G75*
G02*
X151250000Y-105400000I0J200000D01*
G01*
X151250000Y-104500000D01*
G75*
G02*
X151450000Y-104300000I200000J0D01*
G01*
X151850000Y-104300000D01*
G75*
G02*
X152050000Y-104500000I0J-200000D01*
G01*
G37*
%TD.AperFunction*%
%TO.P,J3,3*%
%TO.N,/A37*%
%TA.AperFunction,SMDPad,CuDef*%
G36*
G01*
X153300000Y-104500000D02*
X153300000Y-105400000D01*
G75*
G02*
X153100000Y-105600000I-200000J0D01*
G01*
X152700000Y-105600000D01*
G75*
G02*
X152500000Y-105400000I0J200000D01*
G01*
X152500000Y-104500000D01*
G75*
G02*
X152700000Y-104300000I200000J0D01*
G01*
X153100000Y-104300000D01*
G75*
G02*
X153300000Y-104500000I0J-200000D01*
G01*
G37*
%TD.AperFunction*%
%TO.P,J3,2*%
%TO.N,/A38*%
%TA.AperFunction,SMDPad,CuDef*%
G36*
G01*
X154550000Y-104500000D02*
X154550000Y-105400000D01*
G75*
G02*
X154350000Y-105600000I-200000J0D01*
G01*
X153950000Y-105600000D01*
G75*
G02*
X153750000Y-105400000I0J200000D01*
G01*
X153750000Y-104500000D01*
G75*
G02*
X153950000Y-104300000I200000J0D01*
G01*
X154350000Y-104300000D01*
G75*
G02*
X154550000Y-104500000I0J-200000D01*
G01*
G37*
%TD.AperFunction*%
%TO.P,J3,1*%
%TO.N,/A39*%
%TA.AperFunction,SMDPad,CuDef*%
G36*
G01*
X155800000Y-104500000D02*
X155800000Y-105400000D01*
G75*
G02*
X155600000Y-105600000I-200000J0D01*
G01*
X155200000Y-105600000D01*
G75*
G02*
X155000000Y-105400000I0J200000D01*
G01*
X155000000Y-104500000D01*
G75*
G02*
X155200000Y-104300000I200000J0D01*
G01*
X155600000Y-104300000D01*
G75*
G02*
X155800000Y-104500000I0J-200000D01*
G01*
G37*
%TD.AperFunction*%
%TD*%
%TO.P,J2,MP*%
%TO.N,N/C*%
%TA.AperFunction,SMDPad,CuDef*%
G36*
G01*
X115700000Y-106450000D02*
X115700000Y-108950000D01*
G75*
G02*
X115450000Y-109200000I-250000J0D01*
G01*
X113850000Y-109200000D01*
G75*
G02*
X113600000Y-108950000I0J250000D01*
G01*
X113600000Y-106450000D01*
G75*
G02*
X113850000Y-106200000I250000J0D01*
G01*
X115450000Y-106200000D01*
G75*
G02*
X115700000Y-106450000I0J-250000D01*
G01*
G37*
%TD.AperFunction*%
%TA.AperFunction,SMDPad,CuDef*%
G36*
G01*
X135800000Y-106450000D02*
X135800000Y-108950000D01*
G75*
G02*
X135550000Y-109200000I-250000J0D01*
G01*
X133950000Y-109200000D01*
G75*
G02*
X133700000Y-108950000I0J250000D01*
G01*
X133700000Y-106450000D01*
G75*
G02*
X133950000Y-106200000I250000J0D01*
G01*
X135550000Y-106200000D01*
G75*
G02*
X135800000Y-106450000I0J-250000D01*
G01*
G37*
%TD.AperFunction*%
%TO.P,J2,13*%
%TO.N,/A14*%
%TA.AperFunction,SMDPad,CuDef*%
G36*
G01*
X117600000Y-104500000D02*
X117600000Y-105400000D01*
G75*
G02*
X117400000Y-105600000I-200000J0D01*
G01*
X117000000Y-105600000D01*
G75*
G02*
X116800000Y-105400000I0J200000D01*
G01*
X116800000Y-104500000D01*
G75*
G02*
X117000000Y-104300000I200000J0D01*
G01*
X117400000Y-104300000D01*
G75*
G02*
X117600000Y-104500000I0J-200000D01*
G01*
G37*
%TD.AperFunction*%
%TO.P,J2,12*%
%TO.N,/A15*%
%TA.AperFunction,SMDPad,CuDef*%
G36*
G01*
X118850000Y-104500000D02*
X118850000Y-105400000D01*
G75*
G02*
X118650000Y-105600000I-200000J0D01*
G01*
X118250000Y-105600000D01*
G75*
G02*
X118050000Y-105400000I0J200000D01*
G01*
X118050000Y-104500000D01*
G75*
G02*
X118250000Y-104300000I200000J0D01*
G01*
X118650000Y-104300000D01*
G75*
G02*
X118850000Y-104500000I0J-200000D01*
G01*
G37*
%TD.AperFunction*%
%TO.P,J2,11*%
%TO.N,/A16*%
%TA.AperFunction,SMDPad,CuDef*%
G36*
G01*
X120100000Y-104500000D02*
X120100000Y-105400000D01*
G75*
G02*
X119900000Y-105600000I-200000J0D01*
G01*
X119500000Y-105600000D01*
G75*
G02*
X119300000Y-105400000I0J200000D01*
G01*
X119300000Y-104500000D01*
G75*
G02*
X119500000Y-104300000I200000J0D01*
G01*
X119900000Y-104300000D01*
G75*
G02*
X120100000Y-104500000I0J-200000D01*
G01*
G37*
%TD.AperFunction*%
%TO.P,J2,10*%
%TO.N,/A17*%
%TA.AperFunction,SMDPad,CuDef*%
G36*
G01*
X121350000Y-104500000D02*
X121350000Y-105400000D01*
G75*
G02*
X121150000Y-105600000I-200000J0D01*
G01*
X120750000Y-105600000D01*
G75*
G02*
X120550000Y-105400000I0J200000D01*
G01*
X120550000Y-104500000D01*
G75*
G02*
X120750000Y-104300000I200000J0D01*
G01*
X121150000Y-104300000D01*
G75*
G02*
X121350000Y-104500000I0J-200000D01*
G01*
G37*
%TD.AperFunction*%
%TO.P,J2,9*%
%TO.N,/A18*%
%TA.AperFunction,SMDPad,CuDef*%
G36*
G01*
X122600000Y-104500000D02*
X122600000Y-105400000D01*
G75*
G02*
X122400000Y-105600000I-200000J0D01*
G01*
X122000000Y-105600000D01*
G75*
G02*
X121800000Y-105400000I0J200000D01*
G01*
X121800000Y-104500000D01*
G75*
G02*
X122000000Y-104300000I200000J0D01*
G01*
X122400000Y-104300000D01*
G75*
G02*
X122600000Y-104500000I0J-200000D01*
G01*
G37*
%TD.AperFunction*%
%TO.P,J2,8*%
%TO.N,/A19*%
%TA.AperFunction,SMDPad,CuDef*%
G36*
G01*
X123850000Y-104500000D02*
X123850000Y-105400000D01*
G75*
G02*
X123650000Y-105600000I-200000J0D01*
G01*
X123250000Y-105600000D01*
G75*
G02*
X123050000Y-105400000I0J200000D01*
G01*
X123050000Y-104500000D01*
G75*
G02*
X123250000Y-104300000I200000J0D01*
G01*
X123650000Y-104300000D01*
G75*
G02*
X123850000Y-104500000I0J-200000D01*
G01*
G37*
%TD.AperFunction*%
%TO.P,J2,7*%
%TO.N,/A20*%
%TA.AperFunction,SMDPad,CuDef*%
G36*
G01*
X125100000Y-104500000D02*
X125100000Y-105400000D01*
G75*
G02*
X124900000Y-105600000I-200000J0D01*
G01*
X124500000Y-105600000D01*
G75*
G02*
X124300000Y-105400000I0J200000D01*
G01*
X124300000Y-104500000D01*
G75*
G02*
X124500000Y-104300000I200000J0D01*
G01*
X124900000Y-104300000D01*
G75*
G02*
X125100000Y-104500000I0J-200000D01*
G01*
G37*
%TD.AperFunction*%
%TO.P,J2,6*%
%TO.N,/A21*%
%TA.AperFunction,SMDPad,CuDef*%
G36*
G01*
X126350000Y-104500000D02*
X126350000Y-105400000D01*
G75*
G02*
X126150000Y-105600000I-200000J0D01*
G01*
X125750000Y-105600000D01*
G75*
G02*
X125550000Y-105400000I0J200000D01*
G01*
X125550000Y-104500000D01*
G75*
G02*
X125750000Y-104300000I200000J0D01*
G01*
X126150000Y-104300000D01*
G75*
G02*
X126350000Y-104500000I0J-200000D01*
G01*
G37*
%TD.AperFunction*%
%TO.P,J2,5*%
%TO.N,/A22*%
%TA.AperFunction,SMDPad,CuDef*%
G36*
G01*
X127600000Y-104500000D02*
X127600000Y-105400000D01*
G75*
G02*
X127400000Y-105600000I-200000J0D01*
G01*
X127000000Y-105600000D01*
G75*
G02*
X126800000Y-105400000I0J200000D01*
G01*
X126800000Y-104500000D01*
G75*
G02*
X127000000Y-104300000I200000J0D01*
G01*
X127400000Y-104300000D01*
G75*
G02*
X127600000Y-104500000I0J-200000D01*
G01*
G37*
%TD.AperFunction*%
%TO.P,J2,4*%
%TO.N,/A23*%
%TA.AperFunction,SMDPad,CuDef*%
G36*
G01*
X128850000Y-104500000D02*
X128850000Y-105400000D01*
G75*
G02*
X128650000Y-105600000I-200000J0D01*
G01*
X128250000Y-105600000D01*
G75*
G02*
X128050000Y-105400000I0J200000D01*
G01*
X128050000Y-104500000D01*
G75*
G02*
X128250000Y-104300000I200000J0D01*
G01*
X128650000Y-104300000D01*
G75*
G02*
X128850000Y-104500000I0J-200000D01*
G01*
G37*
%TD.AperFunction*%
%TO.P,J2,3*%
%TO.N,/A24*%
%TA.AperFunction,SMDPad,CuDef*%
G36*
G01*
X130100000Y-104500000D02*
X130100000Y-105400000D01*
G75*
G02*
X129900000Y-105600000I-200000J0D01*
G01*
X129500000Y-105600000D01*
G75*
G02*
X129300000Y-105400000I0J200000D01*
G01*
X129300000Y-104500000D01*
G75*
G02*
X129500000Y-104300000I200000J0D01*
G01*
X129900000Y-104300000D01*
G75*
G02*
X130100000Y-104500000I0J-200000D01*
G01*
G37*
%TD.AperFunction*%
%TO.P,J2,2*%
%TO.N,/A25*%
%TA.AperFunction,SMDPad,CuDef*%
G36*
G01*
X131350000Y-104500000D02*
X131350000Y-105400000D01*
G75*
G02*
X131150000Y-105600000I-200000J0D01*
G01*
X130750000Y-105600000D01*
G75*
G02*
X130550000Y-105400000I0J200000D01*
G01*
X130550000Y-104500000D01*
G75*
G02*
X130750000Y-104300000I200000J0D01*
G01*
X131150000Y-104300000D01*
G75*
G02*
X131350000Y-104500000I0J-200000D01*
G01*
G37*
%TD.AperFunction*%
%TO.P,J2,1*%
%TO.N,/A26*%
%TA.AperFunction,SMDPad,CuDef*%
G36*
G01*
X132600000Y-104500000D02*
X132600000Y-105400000D01*
G75*
G02*
X132400000Y-105600000I-200000J0D01*
G01*
X132000000Y-105600000D01*
G75*
G02*
X131800000Y-105400000I0J200000D01*
G01*
X131800000Y-104500000D01*
G75*
G02*
X132000000Y-104300000I200000J0D01*
G01*
X132400000Y-104300000D01*
G75*
G02*
X132600000Y-104500000I0J-200000D01*
G01*
G37*
%TD.AperFunction*%
%TD*%
%TO.P,J1,MP*%
%TO.N,N/C*%
%TA.AperFunction,SMDPad,CuDef*%
G36*
G01*
X92500000Y-106450000D02*
X92500000Y-108950000D01*
G75*
G02*
X92250000Y-109200000I-250000J0D01*
G01*
X90650000Y-109200000D01*
G75*
G02*
X90400000Y-108950000I0J250000D01*
G01*
X90400000Y-106450000D01*
G75*
G02*
X90650000Y-106200000I250000J0D01*
G01*
X92250000Y-106200000D01*
G75*
G02*
X92500000Y-106450000I0J-250000D01*
G01*
G37*
%TD.AperFunction*%
%TA.AperFunction,SMDPad,CuDef*%
G36*
G01*
X112600000Y-106450000D02*
X112600000Y-108950000D01*
G75*
G02*
X112350000Y-109200000I-250000J0D01*
G01*
X110750000Y-109200000D01*
G75*
G02*
X110500000Y-108950000I0J250000D01*
G01*
X110500000Y-106450000D01*
G75*
G02*
X110750000Y-106200000I250000J0D01*
G01*
X112350000Y-106200000D01*
G75*
G02*
X112600000Y-106450000I0J-250000D01*
G01*
G37*
%TD.AperFunction*%
%TO.P,J1,13*%
%TO.N,/A1*%
%TA.AperFunction,SMDPad,CuDef*%
G36*
G01*
X94400000Y-104500000D02*
X94400000Y-105400000D01*
G75*
G02*
X94200000Y-105600000I-200000J0D01*
G01*
X93800000Y-105600000D01*
G75*
G02*
X93600000Y-105400000I0J200000D01*
G01*
X93600000Y-104500000D01*
G75*
G02*
X93800000Y-104300000I200000J0D01*
G01*
X94200000Y-104300000D01*
G75*
G02*
X94400000Y-104500000I0J-200000D01*
G01*
G37*
%TD.AperFunction*%
%TO.P,J1,12*%
%TO.N,/A2*%
%TA.AperFunction,SMDPad,CuDef*%
G36*
G01*
X95650000Y-104500000D02*
X95650000Y-105400000D01*
G75*
G02*
X95450000Y-105600000I-200000J0D01*
G01*
X95050000Y-105600000D01*
G75*
G02*
X94850000Y-105400000I0J200000D01*
G01*
X94850000Y-104500000D01*
G75*
G02*
X95050000Y-104300000I200000J0D01*
G01*
X95450000Y-104300000D01*
G75*
G02*
X95650000Y-104500000I0J-200000D01*
G01*
G37*
%TD.AperFunction*%
%TO.P,J1,11*%
%TO.N,/A3*%
%TA.AperFunction,SMDPad,CuDef*%
G36*
G01*
X96900000Y-104500000D02*
X96900000Y-105400000D01*
G75*
G02*
X96700000Y-105600000I-200000J0D01*
G01*
X96300000Y-105600000D01*
G75*
G02*
X96100000Y-105400000I0J200000D01*
G01*
X96100000Y-104500000D01*
G75*
G02*
X96300000Y-104300000I200000J0D01*
G01*
X96700000Y-104300000D01*
G75*
G02*
X96900000Y-104500000I0J-200000D01*
G01*
G37*
%TD.AperFunction*%
%TO.P,J1,10*%
%TO.N,/A4*%
%TA.AperFunction,SMDPad,CuDef*%
G36*
G01*
X98150000Y-104500000D02*
X98150000Y-105400000D01*
G75*
G02*
X97950000Y-105600000I-200000J0D01*
G01*
X97550000Y-105600000D01*
G75*
G02*
X97350000Y-105400000I0J200000D01*
G01*
X97350000Y-104500000D01*
G75*
G02*
X97550000Y-104300000I200000J0D01*
G01*
X97950000Y-104300000D01*
G75*
G02*
X98150000Y-104500000I0J-200000D01*
G01*
G37*
%TD.AperFunction*%
%TO.P,J1,9*%
%TO.N,/A5*%
%TA.AperFunction,SMDPad,CuDef*%
G36*
G01*
X99400000Y-104500000D02*
X99400000Y-105400000D01*
G75*
G02*
X99200000Y-105600000I-200000J0D01*
G01*
X98800000Y-105600000D01*
G75*
G02*
X98600000Y-105400000I0J200000D01*
G01*
X98600000Y-104500000D01*
G75*
G02*
X98800000Y-104300000I200000J0D01*
G01*
X99200000Y-104300000D01*
G75*
G02*
X99400000Y-104500000I0J-200000D01*
G01*
G37*
%TD.AperFunction*%
%TO.P,J1,8*%
%TO.N,/A6*%
%TA.AperFunction,SMDPad,CuDef*%
G36*
G01*
X100650000Y-104500000D02*
X100650000Y-105400000D01*
G75*
G02*
X100450000Y-105600000I-200000J0D01*
G01*
X100050000Y-105600000D01*
G75*
G02*
X99850000Y-105400000I0J200000D01*
G01*
X99850000Y-104500000D01*
G75*
G02*
X100050000Y-104300000I200000J0D01*
G01*
X100450000Y-104300000D01*
G75*
G02*
X100650000Y-104500000I0J-200000D01*
G01*
G37*
%TD.AperFunction*%
%TO.P,J1,7*%
%TO.N,/A7*%
%TA.AperFunction,SMDPad,CuDef*%
G36*
G01*
X101900000Y-104500000D02*
X101900000Y-105400000D01*
G75*
G02*
X101700000Y-105600000I-200000J0D01*
G01*
X101300000Y-105600000D01*
G75*
G02*
X101100000Y-105400000I0J200000D01*
G01*
X101100000Y-104500000D01*
G75*
G02*
X101300000Y-104300000I200000J0D01*
G01*
X101700000Y-104300000D01*
G75*
G02*
X101900000Y-104500000I0J-200000D01*
G01*
G37*
%TD.AperFunction*%
%TO.P,J1,6*%
%TO.N,/A8*%
%TA.AperFunction,SMDPad,CuDef*%
G36*
G01*
X103150000Y-104500000D02*
X103150000Y-105400000D01*
G75*
G02*
X102950000Y-105600000I-200000J0D01*
G01*
X102550000Y-105600000D01*
G75*
G02*
X102350000Y-105400000I0J200000D01*
G01*
X102350000Y-104500000D01*
G75*
G02*
X102550000Y-104300000I200000J0D01*
G01*
X102950000Y-104300000D01*
G75*
G02*
X103150000Y-104500000I0J-200000D01*
G01*
G37*
%TD.AperFunction*%
%TO.P,J1,5*%
%TO.N,/A9*%
%TA.AperFunction,SMDPad,CuDef*%
G36*
G01*
X104400000Y-104500000D02*
X104400000Y-105400000D01*
G75*
G02*
X104200000Y-105600000I-200000J0D01*
G01*
X103800000Y-105600000D01*
G75*
G02*
X103600000Y-105400000I0J200000D01*
G01*
X103600000Y-104500000D01*
G75*
G02*
X103800000Y-104300000I200000J0D01*
G01*
X104200000Y-104300000D01*
G75*
G02*
X104400000Y-104500000I0J-200000D01*
G01*
G37*
%TD.AperFunction*%
%TO.P,J1,4*%
%TO.N,/A10*%
%TA.AperFunction,SMDPad,CuDef*%
G36*
G01*
X105650000Y-104500000D02*
X105650000Y-105400000D01*
G75*
G02*
X105450000Y-105600000I-200000J0D01*
G01*
X105050000Y-105600000D01*
G75*
G02*
X104850000Y-105400000I0J200000D01*
G01*
X104850000Y-104500000D01*
G75*
G02*
X105050000Y-104300000I200000J0D01*
G01*
X105450000Y-104300000D01*
G75*
G02*
X105650000Y-104500000I0J-200000D01*
G01*
G37*
%TD.AperFunction*%
%TO.P,J1,3*%
%TO.N,/A11*%
%TA.AperFunction,SMDPad,CuDef*%
G36*
G01*
X106900000Y-104500000D02*
X106900000Y-105400000D01*
G75*
G02*
X106700000Y-105600000I-200000J0D01*
G01*
X106300000Y-105600000D01*
G75*
G02*
X106100000Y-105400000I0J200000D01*
G01*
X106100000Y-104500000D01*
G75*
G02*
X106300000Y-104300000I200000J0D01*
G01*
X106700000Y-104300000D01*
G75*
G02*
X106900000Y-104500000I0J-200000D01*
G01*
G37*
%TD.AperFunction*%
%TO.P,J1,2*%
%TO.N,/A12*%
%TA.AperFunction,SMDPad,CuDef*%
G36*
G01*
X108150000Y-104500000D02*
X108150000Y-105400000D01*
G75*
G02*
X107950000Y-105600000I-200000J0D01*
G01*
X107550000Y-105600000D01*
G75*
G02*
X107350000Y-105400000I0J200000D01*
G01*
X107350000Y-104500000D01*
G75*
G02*
X107550000Y-104300000I200000J0D01*
G01*
X107950000Y-104300000D01*
G75*
G02*
X108150000Y-104500000I0J-200000D01*
G01*
G37*
%TD.AperFunction*%
%TO.P,J1,1*%
%TO.N,/A13*%
%TA.AperFunction,SMDPad,CuDef*%
G36*
G01*
X109400000Y-104500000D02*
X109400000Y-105400000D01*
G75*
G02*
X109200000Y-105600000I-200000J0D01*
G01*
X108800000Y-105600000D01*
G75*
G02*
X108600000Y-105400000I0J200000D01*
G01*
X108600000Y-104500000D01*
G75*
G02*
X108800000Y-104300000I200000J0D01*
G01*
X109200000Y-104300000D01*
G75*
G02*
X109400000Y-104500000I0J-200000D01*
G01*
G37*
%TD.AperFunction*%
%TD*%
D11*
%TO.P,H2,1*%
%TO.N,GND*%
X173140000Y-80436000D03*
%TD*%
%TO.P,H1,1*%
%TO.N,GND*%
X99460000Y-80436000D03*
%TD*%
D12*
%TO.N,/A13*%
X109000000Y-107000000D03*
%TO.N,/A12*%
X107750000Y-107000000D03*
%TO.N,/A11*%
X106500000Y-107000000D03*
%TO.N,/A10*%
X105250000Y-107000000D03*
%TO.N,/A9*%
X104000000Y-107000000D03*
%TO.N,/A8*%
X102750000Y-107000000D03*
%TO.N,/A7*%
X101500000Y-107000000D03*
%TO.N,/A6*%
X100250000Y-107000000D03*
%TO.N,/A5*%
X99000000Y-107000000D03*
%TO.N,/A4*%
X97750000Y-107000000D03*
%TO.N,/A3*%
X96500000Y-107000000D03*
%TO.N,/A2*%
X95250000Y-107000000D03*
%TO.N,/A1*%
X94000000Y-107000000D03*
%TO.N,/A26*%
X132200000Y-107000000D03*
%TO.N,/A25*%
X130950000Y-107000000D03*
%TO.N,/A24*%
X129700000Y-107000000D03*
%TO.N,/A23*%
X128450000Y-107000000D03*
%TO.N,/A22*%
X127200000Y-107000000D03*
%TO.N,/A21*%
X125950000Y-107000000D03*
%TO.N,/A20*%
X124700000Y-107000000D03*
%TO.N,/A19*%
X123450000Y-107000000D03*
%TO.N,/A18*%
X122200000Y-107000000D03*
%TO.N,/A17*%
X120950000Y-107000000D03*
%TO.N,/A16*%
X119700000Y-107000000D03*
%TO.N,/A15*%
X118450000Y-107000000D03*
%TO.N,/A14*%
X117200000Y-107000000D03*
%TO.N,/A39*%
X155400000Y-107000000D03*
%TO.N,/A38*%
X154150000Y-107000000D03*
%TO.N,/A37*%
X152900000Y-107000000D03*
%TO.N,/A36*%
X151650000Y-107000000D03*
%TO.N,/A35*%
X150400000Y-107000000D03*
%TO.N,/A34*%
X149150000Y-107000000D03*
%TO.N,/A33*%
X147900000Y-107000000D03*
%TO.N,/A32*%
X146650000Y-107000000D03*
%TO.N,/A31*%
X145400000Y-107000000D03*
%TO.N,/A30*%
X144150000Y-107000000D03*
%TO.N,/A29*%
X142900000Y-107000000D03*
%TO.N,/A28*%
X141650000Y-107000000D03*
%TO.N,/A27*%
X140400000Y-107000000D03*
%TO.N,/A52*%
X178600000Y-107000000D03*
%TO.N,/A51*%
X177350000Y-107000000D03*
%TO.N,/A50*%
X176100000Y-107000000D03*
%TO.N,/A49*%
X174850000Y-107000000D03*
%TO.N,/A48*%
X173600000Y-107000000D03*
%TO.N,/A47*%
X172350000Y-107000000D03*
%TO.N,/A46*%
X171100000Y-107000000D03*
%TO.N,/A45*%
X169850000Y-107000000D03*
%TO.N,/A44*%
X168600000Y-107000000D03*
%TO.N,/A43*%
X167350000Y-107000000D03*
%TO.N,/A42*%
X166100000Y-107000000D03*
%TO.N,/A41*%
X164850000Y-107000000D03*
%TO.N,/A40*%
X163600000Y-107000000D03*
%TD*%
D13*
%TO.N,/A13*%
X109000000Y-107000000D02*
X109000000Y-104950000D01*
%TO.N,/A12*%
X107750000Y-107000000D02*
X107750000Y-104950000D01*
%TO.N,/A11*%
X106500000Y-107000000D02*
X106500000Y-104950000D01*
%TO.N,/A10*%
X105250000Y-107000000D02*
X105250000Y-104950000D01*
%TO.N,/A9*%
X104000000Y-107000000D02*
X104000000Y-104950000D01*
%TO.N,/A8*%
X102750000Y-107000000D02*
X102750000Y-104950000D01*
%TO.N,/A7*%
X101500000Y-107000000D02*
X101500000Y-104950000D01*
%TO.N,/A6*%
X100250000Y-107000000D02*
X100250000Y-104950000D01*
%TO.N,/A5*%
X99000000Y-107000000D02*
X99000000Y-104950000D01*
%TO.N,/A4*%
X97750000Y-107000000D02*
X97750000Y-104950000D01*
%TO.N,/A3*%
X96500000Y-107000000D02*
X96500000Y-104950000D01*
%TO.N,/A2*%
X95250000Y-107000000D02*
X95250000Y-104950000D01*
%TO.N,/A1*%
X94000000Y-107000000D02*
X94000000Y-104950000D01*
%TO.N,/A26*%
X132200000Y-107000000D02*
X132200000Y-104950000D01*
%TO.N,/A25*%
X130950000Y-107000000D02*
X130950000Y-104950000D01*
%TO.N,/A24*%
X129700000Y-107000000D02*
X129700000Y-104950000D01*
%TO.N,/A23*%
X128450000Y-107000000D02*
X128450000Y-104950000D01*
%TO.N,/A22*%
X127200000Y-107000000D02*
X127200000Y-104950000D01*
%TO.N,/A21*%
X125950000Y-107000000D02*
X125950000Y-104950000D01*
%TO.N,/A20*%
X124700000Y-107000000D02*
X124700000Y-104950000D01*
%TO.N,/A19*%
X123450000Y-107000000D02*
X123450000Y-104950000D01*
%TO.N,/A18*%
X122200000Y-107000000D02*
X122200000Y-104950000D01*
%TO.N,/A17*%
X120950000Y-107000000D02*
X120950000Y-104950000D01*
%TO.N,/A16*%
X119700000Y-107000000D02*
X119700000Y-104950000D01*
%TO.N,/A15*%
X118450000Y-107000000D02*
X118450000Y-104950000D01*
%TO.N,/A14*%
X117200000Y-107000000D02*
X117200000Y-104950000D01*
%TO.N,/A39*%
X155400000Y-107000000D02*
X155400000Y-104950000D01*
%TO.N,/A38*%
X154150000Y-107000000D02*
X154150000Y-104950000D01*
%TO.N,/A37*%
X152900000Y-107000000D02*
X152900000Y-104950000D01*
%TO.N,/A36*%
X151650000Y-107000000D02*
X151650000Y-104950000D01*
%TO.N,/A35*%
X150400000Y-107000000D02*
X150400000Y-104950000D01*
%TO.N,/A34*%
X149150000Y-107000000D02*
X149150000Y-104950000D01*
%TO.N,/A33*%
X147900000Y-107000000D02*
X147900000Y-104950000D01*
%TO.N,/A32*%
X146650000Y-107000000D02*
X146650000Y-104950000D01*
%TO.N,/A31*%
X145400000Y-107000000D02*
X145400000Y-104950000D01*
%TO.N,/A30*%
X144150000Y-107000000D02*
X144150000Y-104950000D01*
%TO.N,/A29*%
X142900000Y-107000000D02*
X142900000Y-104950000D01*
%TO.N,/A28*%
X141650000Y-107000000D02*
X141650000Y-104950000D01*
%TO.N,/A27*%
X140400000Y-107000000D02*
X140400000Y-104950000D01*
%TO.N,/A52*%
X178600000Y-107000000D02*
X178600000Y-104950000D01*
%TO.N,/A51*%
X177350000Y-107000000D02*
X177350000Y-104950000D01*
%TO.N,/A50*%
X176100000Y-107000000D02*
X176100000Y-104950000D01*
%TO.N,/A49*%
X174850000Y-107000000D02*
X174850000Y-104950000D01*
%TO.N,/A48*%
X173600000Y-107000000D02*
X173600000Y-104950000D01*
%TO.N,/A47*%
X172350000Y-107000000D02*
X172350000Y-104950000D01*
%TO.N,/A46*%
X171100000Y-107000000D02*
X171100000Y-104950000D01*
%TO.N,/A45*%
X169850000Y-107000000D02*
X169850000Y-104950000D01*
%TO.N,/A44*%
X168600000Y-107000000D02*
X168600000Y-104950000D01*
%TO.N,/A43*%
X167350000Y-107000000D02*
X167350000Y-104950000D01*
%TO.N,/A42*%
X166100000Y-107000000D02*
X166100000Y-104950000D01*
%TO.N,/A41*%
X164850000Y-107000000D02*
X164850000Y-104950000D01*
%TO.N,/A40*%
X163600000Y-107000000D02*
X163600000Y-104950000D01*
%TO.N,/B13*%
X119790000Y-89201512D02*
X119790000Y-88056000D01*
X114041512Y-94950000D02*
X119790000Y-89201512D01*
X109000000Y-94950000D02*
X114041512Y-94950000D01*
%TO.N,/B12*%
X108199908Y-93850092D02*
X113549908Y-93850092D01*
X107750000Y-94300000D02*
X108199908Y-93850092D01*
X107750000Y-94950000D02*
X107750000Y-94300000D01*
X113549908Y-93850092D02*
X118550000Y-88850000D01*
X118550000Y-86816000D02*
X117250000Y-85516000D01*
X118550000Y-88850000D02*
X118550000Y-86816000D01*
%TO.N,/B11*%
X106500000Y-94950000D02*
X106500000Y-94150084D01*
X117250000Y-89201512D02*
X117250000Y-88056000D01*
X113051429Y-93400083D02*
X117250000Y-89201512D01*
X107250000Y-93400084D02*
X113051429Y-93400083D01*
X106500000Y-94150084D02*
X107250000Y-93400084D01*
%TO.N,/B10*%
X105250000Y-94950000D02*
X105250000Y-93686410D01*
X105250000Y-93686410D02*
X105986336Y-92950074D01*
X105986336Y-92950074D02*
X111849926Y-92950074D01*
X111849926Y-92950074D02*
X116000000Y-88800000D01*
X116000000Y-86806000D02*
X114710000Y-85516000D01*
X116000000Y-88800000D02*
X116000000Y-86806000D01*
%TO.N,/B9*%
X104000000Y-94300000D02*
X105799934Y-92500066D01*
X104000000Y-94950000D02*
X104000000Y-94300000D01*
X111411447Y-92500065D02*
X114710000Y-89201512D01*
X114710000Y-89201512D02*
X114710000Y-88056000D01*
X105799934Y-92500066D02*
X111411447Y-92500065D01*
%TO.N,/B8*%
X102750000Y-94950000D02*
X102750000Y-92772859D01*
X102750000Y-92772859D02*
X103472803Y-92050056D01*
X103472803Y-92050056D02*
X110199944Y-92050056D01*
X110199944Y-92050056D02*
X113450000Y-88800000D01*
X113450000Y-86796000D02*
X112170000Y-85516000D01*
X113450000Y-88800000D02*
X113450000Y-86796000D01*
%TO.N,/B7*%
X112170000Y-88416410D02*
X112170000Y-88056000D01*
X108986363Y-91600047D02*
X112170000Y-88416410D01*
X103286401Y-91600048D02*
X108986363Y-91600047D01*
X101500000Y-93386449D02*
X103286401Y-91600048D01*
X101500000Y-94950000D02*
X101500000Y-93386449D01*
%TO.N,/B6*%
X100250000Y-94950000D02*
X100250000Y-94000039D01*
X103100001Y-91150038D02*
X108799962Y-91150038D01*
X100250000Y-94000039D02*
X103100001Y-91150038D01*
X108799962Y-91150038D02*
X110900000Y-89050000D01*
X110900000Y-86786000D02*
X109630000Y-85516000D01*
X110900000Y-89050000D02*
X110900000Y-86786000D01*
%TO.N,/B5*%
X99000000Y-94950000D02*
X99000000Y-91845640D01*
X99000000Y-91845640D02*
X100145610Y-90700030D01*
X109630000Y-89201512D02*
X109630000Y-88056000D01*
X108131483Y-90700029D02*
X109630000Y-89201512D01*
X100145610Y-90700030D02*
X108131483Y-90700029D01*
%TO.N,/B4*%
X97750000Y-94950000D02*
X97750000Y-92459230D01*
X97750000Y-92459230D02*
X99959210Y-90250020D01*
X99959210Y-90250020D02*
X106899980Y-90250020D01*
X106899980Y-90250020D02*
X108350000Y-88800000D01*
X108350000Y-86776000D02*
X107090000Y-85516000D01*
X108350000Y-88800000D02*
X108350000Y-86776000D01*
%TO.N,/B3*%
X96500000Y-94950000D02*
X96500000Y-93072820D01*
X105345990Y-89800010D02*
X107090000Y-88056000D01*
X99772810Y-89800010D02*
X105345990Y-89800010D01*
X96500000Y-93072820D02*
X99772810Y-89800010D01*
%TO.N,/B2*%
X95250000Y-94950000D02*
X95250000Y-94300000D01*
X105100000Y-89350000D02*
X105800000Y-88650000D01*
X99586410Y-89350000D02*
X105100000Y-89350000D01*
X105800000Y-86766000D02*
X104550000Y-85516000D01*
X95250000Y-93686410D02*
X99586410Y-89350000D01*
X105800000Y-88650000D02*
X105800000Y-86766000D01*
X95250000Y-94950000D02*
X95250000Y-93686410D01*
%TO.N,/B1*%
X100244000Y-88056000D02*
X104550000Y-88056000D01*
X94000000Y-94300000D02*
X100244000Y-88056000D01*
X94000000Y-94950000D02*
X94000000Y-94300000D01*
%TO.N,/B26*%
X132200000Y-94950000D02*
X132200000Y-93050000D01*
X132200000Y-93050000D02*
X136300000Y-88950000D01*
X136300000Y-86786000D02*
X135030000Y-85516000D01*
X136300000Y-88950000D02*
X136300000Y-86786000D01*
%TO.N,/B25*%
X135030000Y-88106410D02*
X135030000Y-88056000D01*
X130950000Y-92186410D02*
X135030000Y-88106410D01*
X130950000Y-94950000D02*
X130950000Y-92186410D01*
%TO.N,/B24*%
X129700000Y-92800000D02*
X129700000Y-94950000D01*
X133750000Y-88750000D02*
X129700000Y-92800000D01*
X133750000Y-86776000D02*
X133750000Y-88750000D01*
X132490000Y-85516000D02*
X133750000Y-86776000D01*
%TO.N,/B23*%
X128450000Y-92096000D02*
X132490000Y-88056000D01*
X128450000Y-94950000D02*
X128450000Y-92096000D01*
%TO.N,/B22*%
X127200000Y-92700000D02*
X127200000Y-94950000D01*
X131200000Y-88700000D02*
X127200000Y-92700000D01*
X131200000Y-86766000D02*
X131200000Y-88700000D01*
X129950000Y-85516000D02*
X131200000Y-86766000D01*
%TO.N,/B21*%
X129950000Y-88309230D02*
X129950000Y-88056000D01*
X125950000Y-92309230D02*
X129950000Y-88309230D01*
X125950000Y-94950000D02*
X125950000Y-92309230D01*
%TO.N,/B20*%
X124700000Y-92922820D02*
X128650000Y-88972820D01*
X124700000Y-94950000D02*
X124700000Y-92922820D01*
X128650000Y-86756000D02*
X127410000Y-85516000D01*
X128650000Y-88972820D02*
X128650000Y-86756000D01*
%TO.N,/B19*%
X127410000Y-89576410D02*
X127410000Y-88056000D01*
X123450000Y-93536410D02*
X127410000Y-89576410D01*
X123450000Y-94950000D02*
X123450000Y-93536410D01*
%TO.N,/B18*%
X122200000Y-94950000D02*
X122200000Y-94150000D01*
X122200000Y-94150000D02*
X126150000Y-90200000D01*
X126150000Y-86796000D02*
X124870000Y-85516000D01*
X126150000Y-90200000D02*
X126150000Y-86796000D01*
%TO.N,/B17*%
X124870000Y-89201512D02*
X124870000Y-88056000D01*
X120950000Y-93121512D02*
X124870000Y-89201512D01*
X120950000Y-94950000D02*
X120950000Y-93121512D01*
%TO.N,/B16*%
X119700000Y-92700000D02*
X119700000Y-94950000D01*
X123600000Y-88800000D02*
X119700000Y-92700000D01*
X123600000Y-86786000D02*
X123600000Y-88800000D01*
X122330000Y-85516000D02*
X123600000Y-86786000D01*
%TO.N,/B15*%
X122330000Y-88056410D02*
X122330000Y-88056000D01*
X118450000Y-91936410D02*
X122330000Y-88056410D01*
X118450000Y-94950000D02*
X118450000Y-91936410D01*
%TO.N,/B14*%
X117200000Y-92550000D02*
X117200000Y-94950000D01*
X121050000Y-88700000D02*
X117200000Y-92550000D01*
X121050000Y-86776000D02*
X121050000Y-88700000D01*
X119790000Y-85516000D02*
X121050000Y-86776000D01*
%TO.N,/B39*%
X155400000Y-90686410D02*
X152810000Y-88096410D01*
X152810000Y-88096410D02*
X152810000Y-88056000D01*
X155400000Y-94950000D02*
X155400000Y-90686410D01*
%TO.N,/B38*%
X154150000Y-94950000D02*
X154150000Y-91250000D01*
X154150000Y-91250000D02*
X151550000Y-88650000D01*
X151550000Y-86796000D02*
X150270000Y-85516000D01*
X151550000Y-88650000D02*
X151550000Y-86796000D01*
%TO.N,/B37*%
X152900000Y-90686000D02*
X150270000Y-88056000D01*
X152900000Y-94950000D02*
X152900000Y-90686000D01*
%TO.N,/B36*%
X151650000Y-94950000D02*
X151650000Y-91300000D01*
X151650000Y-91300000D02*
X149000000Y-88650000D01*
X149000000Y-86786000D02*
X147730000Y-85516000D01*
X149000000Y-88650000D02*
X149000000Y-86786000D01*
%TO.N,/B35*%
X150400000Y-90726000D02*
X147730000Y-88056000D01*
X150400000Y-94950000D02*
X150400000Y-90726000D01*
%TO.N,/B34*%
X149150000Y-94950000D02*
X149150000Y-91350000D01*
X149150000Y-91350000D02*
X146450000Y-88650000D01*
X146450000Y-86776000D02*
X145190000Y-85516000D01*
X146450000Y-88650000D02*
X146450000Y-86776000D01*
%TO.N,/B33*%
X147900000Y-90766000D02*
X145190000Y-88056000D01*
X147900000Y-94950000D02*
X147900000Y-90766000D01*
%TO.N,/B32*%
X146650000Y-94950000D02*
X146650000Y-91350000D01*
X146650000Y-91350000D02*
X143900000Y-88600000D01*
X143900000Y-86766000D02*
X142650000Y-85516000D01*
X143900000Y-88600000D02*
X143900000Y-86766000D01*
%TO.N,/B31*%
X145400000Y-90806000D02*
X142650000Y-88056000D01*
X145400000Y-94950000D02*
X145400000Y-90806000D01*
%TO.N,/B30*%
X144150000Y-94950000D02*
X144150000Y-91450000D01*
X144150000Y-91450000D02*
X141400000Y-88700000D01*
X141400000Y-86806000D02*
X140110000Y-85516000D01*
X141400000Y-88700000D02*
X141400000Y-86806000D01*
%TO.N,/B29*%
X142900000Y-90846000D02*
X140110000Y-88056000D01*
X142900000Y-94950000D02*
X142900000Y-90846000D01*
%TO.N,/B28*%
X141650000Y-94950000D02*
X141650000Y-91500000D01*
X141650000Y-91500000D02*
X138850000Y-88700000D01*
X138850000Y-86796000D02*
X137570000Y-85516000D01*
X138850000Y-88700000D02*
X138850000Y-86796000D01*
%TO.N,/B27*%
X137570000Y-92120000D02*
X137570000Y-88056000D01*
X140400000Y-94950000D02*
X137570000Y-92120000D01*
%TO.N,/B52*%
X169816000Y-85516000D02*
X168050000Y-85516000D01*
X178600000Y-94300000D02*
X169816000Y-85516000D01*
X178600000Y-94950000D02*
X178600000Y-94300000D01*
%TO.N,/B51*%
X171106000Y-88056000D02*
X168050000Y-88056000D01*
X177350000Y-94300000D02*
X171106000Y-88056000D01*
X177350000Y-94950000D02*
X177350000Y-94300000D01*
%TO.N,/B50*%
X176100000Y-94300000D02*
X171150000Y-89350000D01*
X176100000Y-94950000D02*
X176100000Y-94300000D01*
X171150000Y-89350000D02*
X167400000Y-89350000D01*
X167400000Y-89350000D02*
X166800000Y-88750000D01*
X166800000Y-86806000D02*
X165510000Y-85516000D01*
X166800000Y-88750000D02*
X166800000Y-86806000D01*
%TO.N,/B49*%
X174850000Y-94950000D02*
X174850000Y-93686410D01*
X174850000Y-93686410D02*
X170963600Y-89800010D01*
X165510000Y-89201512D02*
X165510000Y-88056000D01*
X166108497Y-89800009D02*
X165510000Y-89201512D01*
X170963600Y-89800010D02*
X166108497Y-89800009D01*
%TO.N,/B48*%
X173600000Y-94950000D02*
X173600000Y-93072820D01*
X173600000Y-93072820D02*
X170777199Y-90250019D01*
X170777199Y-90250019D02*
X165700019Y-90250019D01*
X165700019Y-90250019D02*
X164250000Y-88800000D01*
X164250000Y-86796000D02*
X162970000Y-85516000D01*
X164250000Y-88800000D02*
X164250000Y-86796000D01*
%TO.N,/B47*%
X162970000Y-89201512D02*
X162970000Y-88056000D01*
X164468517Y-90700029D02*
X162970000Y-89201512D01*
X170590799Y-90700029D02*
X164468517Y-90700029D01*
X172350000Y-92459230D02*
X170590799Y-90700029D01*
X172350000Y-94950000D02*
X172350000Y-92459230D01*
%TO.N,/B46*%
X161700000Y-86786000D02*
X160430000Y-85516000D01*
X161700000Y-88850000D02*
X161700000Y-86786000D01*
X164000039Y-91150039D02*
X161700000Y-88850000D01*
X170404399Y-91150039D02*
X164000039Y-91150039D01*
X171100000Y-91845640D02*
X170404399Y-91150039D01*
X171100000Y-94950000D02*
X171100000Y-91845640D01*
%TO.N,/B45*%
X169850000Y-94950000D02*
X169850000Y-94050049D01*
X160430000Y-88216410D02*
X160430000Y-88056000D01*
X167400000Y-91600049D02*
X163813638Y-91600048D01*
X163813638Y-91600048D02*
X160430000Y-88216410D01*
X169850000Y-94050049D02*
X167400000Y-91600049D01*
%TO.N,/B44*%
X159150000Y-88750000D02*
X159150000Y-86776000D01*
X162450058Y-92050058D02*
X159150000Y-88750000D01*
X159150000Y-86776000D02*
X157890000Y-85516000D01*
X167213599Y-92050058D02*
X162450058Y-92050058D01*
X168600000Y-93436459D02*
X167213599Y-92050058D01*
X168600000Y-94950000D02*
X168600000Y-93436459D01*
%TO.N,/B43*%
X167350000Y-94950000D02*
X167350000Y-92822869D01*
X167350000Y-92822869D02*
X167027199Y-92500068D01*
X157890000Y-88126410D02*
X157890000Y-88056000D01*
X162263657Y-92500067D02*
X157890000Y-88126410D01*
X167027199Y-92500068D02*
X162263657Y-92500067D01*
%TO.N,/B42*%
X166100000Y-94300000D02*
X164750077Y-92950077D01*
X166100000Y-94950000D02*
X166100000Y-94300000D01*
X164750077Y-92950077D02*
X160950077Y-92950077D01*
X160950077Y-92950077D02*
X156650000Y-88650000D01*
X156650000Y-86816000D02*
X155350000Y-85516000D01*
X156650000Y-88650000D02*
X156650000Y-86816000D01*
%TO.N,/B41*%
X160694087Y-93400087D02*
X155350000Y-88056000D01*
X164100087Y-93400087D02*
X160694087Y-93400087D01*
X164850000Y-94150000D02*
X164100087Y-93400087D01*
X164850000Y-94950000D02*
X164850000Y-94150000D01*
%TO.N,/B40*%
X163600000Y-94950000D02*
X161607590Y-94950000D01*
X161607590Y-94950000D02*
X156007590Y-89350000D01*
X156007590Y-89350000D02*
X154700000Y-89350000D01*
X154700000Y-89350000D02*
X154100000Y-88750000D01*
X154100000Y-86806000D02*
X152810000Y-85516000D01*
X154100000Y-88750000D02*
X154100000Y-86806000D01*
%TD*%
D14*
%TO.N,GND*%
G36*
X170759070Y-78234678D02*
G01*
X170315497Y-78540859D01*
X170000046Y-79128306D01*
X169805260Y-79766008D01*
X169738628Y-80429457D01*
X169802708Y-81093158D01*
X169995038Y-81731605D01*
X170308228Y-82320262D01*
X170315497Y-82331141D01*
X170759072Y-82637323D01*
X172960395Y-80436000D01*
X172946253Y-80421858D01*
X173125858Y-80242253D01*
X173140000Y-80256395D01*
X173154143Y-80242253D01*
X173333748Y-80421858D01*
X173319605Y-80436000D01*
X173333748Y-80450143D01*
X173154143Y-80629748D01*
X173140000Y-80615605D01*
X170938677Y-82816928D01*
X171244859Y-83260503D01*
X171832306Y-83575954D01*
X172470008Y-83770740D01*
X173133457Y-83837372D01*
X173797158Y-83773292D01*
X174435605Y-83580962D01*
X175024262Y-83267772D01*
X175035141Y-83260503D01*
X175341322Y-82816930D01*
X175430001Y-82905609D01*
X175430001Y-87401113D01*
X175426565Y-87436000D01*
X175440273Y-87575184D01*
X175480872Y-87709020D01*
X175546800Y-87832363D01*
X175635525Y-87940475D01*
X175743637Y-88029200D01*
X175866980Y-88095128D01*
X176000816Y-88135727D01*
X176105123Y-88146000D01*
X176140000Y-88149435D01*
X176174877Y-88146000D01*
X181990001Y-88146000D01*
X181990001Y-95565868D01*
X181950000Y-95561928D01*
X180350000Y-95561928D01*
X180176746Y-95578992D01*
X180010150Y-95629528D01*
X179856614Y-95711595D01*
X179722038Y-95822038D01*
X179611595Y-95956614D01*
X179529528Y-96110150D01*
X179478992Y-96276746D01*
X179461928Y-96450000D01*
X179461928Y-98950000D01*
X179478992Y-99123254D01*
X179529528Y-99289850D01*
X179611595Y-99443386D01*
X179722038Y-99577962D01*
X179856614Y-99688405D01*
X180010150Y-99770472D01*
X180176746Y-99821008D01*
X180350000Y-99838072D01*
X181950000Y-99838072D01*
X181990000Y-99834132D01*
X181990000Y-105565868D01*
X181950000Y-105561928D01*
X180350000Y-105561928D01*
X180176746Y-105578992D01*
X180010150Y-105629528D01*
X179856614Y-105711595D01*
X179722038Y-105822038D01*
X179611595Y-105956614D01*
X179529528Y-106110150D01*
X179478992Y-106276746D01*
X179463901Y-106429969D01*
X179403937Y-106340226D01*
X179360000Y-106296289D01*
X179360000Y-106019365D01*
X179392606Y-105992606D01*
X179496831Y-105865608D01*
X179574278Y-105720716D01*
X179621969Y-105563500D01*
X179638072Y-105400000D01*
X179638072Y-104500000D01*
X179621969Y-104336500D01*
X179574278Y-104179284D01*
X179496831Y-104034392D01*
X179392606Y-103907394D01*
X179265608Y-103803169D01*
X179120716Y-103725722D01*
X178963500Y-103678031D01*
X178800000Y-103661928D01*
X178400000Y-103661928D01*
X178236500Y-103678031D01*
X178079284Y-103725722D01*
X177975000Y-103781463D01*
X177870716Y-103725722D01*
X177713500Y-103678031D01*
X177550000Y-103661928D01*
X177150000Y-103661928D01*
X176986500Y-103678031D01*
X176829284Y-103725722D01*
X176725000Y-103781463D01*
X176620716Y-103725722D01*
X176463500Y-103678031D01*
X176300000Y-103661928D01*
X175900000Y-103661928D01*
X175736500Y-103678031D01*
X175579284Y-103725722D01*
X175475000Y-103781463D01*
X175370716Y-103725722D01*
X175213500Y-103678031D01*
X175050000Y-103661928D01*
X174650000Y-103661928D01*
X174486500Y-103678031D01*
X174329284Y-103725722D01*
X174225000Y-103781463D01*
X174120716Y-103725722D01*
X173963500Y-103678031D01*
X173800000Y-103661928D01*
X173400000Y-103661928D01*
X173236500Y-103678031D01*
X173079284Y-103725722D01*
X172975000Y-103781463D01*
X172870716Y-103725722D01*
X172713500Y-103678031D01*
X172550000Y-103661928D01*
X172150000Y-103661928D01*
X171986500Y-103678031D01*
X171829284Y-103725722D01*
X171725000Y-103781463D01*
X171620716Y-103725722D01*
X171463500Y-103678031D01*
X171300000Y-103661928D01*
X170900000Y-103661928D01*
X170736500Y-103678031D01*
X170579284Y-103725722D01*
X170475000Y-103781463D01*
X170370716Y-103725722D01*
X170213500Y-103678031D01*
X170050000Y-103661928D01*
X169650000Y-103661928D01*
X169486500Y-103678031D01*
X169329284Y-103725722D01*
X169225000Y-103781463D01*
X169120716Y-103725722D01*
X168963500Y-103678031D01*
X168800000Y-103661928D01*
X168400000Y-103661928D01*
X168236500Y-103678031D01*
X168079284Y-103725722D01*
X167975000Y-103781463D01*
X167870716Y-103725722D01*
X167713500Y-103678031D01*
X167550000Y-103661928D01*
X167150000Y-103661928D01*
X166986500Y-103678031D01*
X166829284Y-103725722D01*
X166725000Y-103781463D01*
X166620716Y-103725722D01*
X166463500Y-103678031D01*
X166300000Y-103661928D01*
X165900000Y-103661928D01*
X165736500Y-103678031D01*
X165579284Y-103725722D01*
X165475000Y-103781463D01*
X165370716Y-103725722D01*
X165213500Y-103678031D01*
X165050000Y-103661928D01*
X164650000Y-103661928D01*
X164486500Y-103678031D01*
X164329284Y-103725722D01*
X164225000Y-103781463D01*
X164120716Y-103725722D01*
X163963500Y-103678031D01*
X163800000Y-103661928D01*
X163400000Y-103661928D01*
X163236500Y-103678031D01*
X163079284Y-103725722D01*
X162934392Y-103803169D01*
X162807394Y-103907394D01*
X162703169Y-104034392D01*
X162625722Y-104179284D01*
X162578031Y-104336500D01*
X162561928Y-104500000D01*
X162561928Y-105400000D01*
X162578031Y-105563500D01*
X162625722Y-105720716D01*
X162703169Y-105865608D01*
X162807394Y-105992606D01*
X162840000Y-106019366D01*
X162840000Y-106296289D01*
X162796063Y-106340226D01*
X162736099Y-106429969D01*
X162721008Y-106276746D01*
X162670472Y-106110150D01*
X162588405Y-105956614D01*
X162477962Y-105822038D01*
X162343386Y-105711595D01*
X162189850Y-105629528D01*
X162023254Y-105578992D01*
X161850000Y-105561928D01*
X160250000Y-105561928D01*
X160076746Y-105578992D01*
X159910150Y-105629528D01*
X159756614Y-105711595D01*
X159622038Y-105822038D01*
X159511595Y-105956614D01*
X159500000Y-105978307D01*
X159488405Y-105956614D01*
X159377962Y-105822038D01*
X159243386Y-105711595D01*
X159089850Y-105629528D01*
X158923254Y-105578992D01*
X158750000Y-105561928D01*
X157150000Y-105561928D01*
X156976746Y-105578992D01*
X156810150Y-105629528D01*
X156656614Y-105711595D01*
X156522038Y-105822038D01*
X156411595Y-105956614D01*
X156329528Y-106110150D01*
X156278992Y-106276746D01*
X156263901Y-106429969D01*
X156203937Y-106340226D01*
X156160000Y-106296289D01*
X156160000Y-106019365D01*
X156192606Y-105992606D01*
X156296831Y-105865608D01*
X156374278Y-105720716D01*
X156421969Y-105563500D01*
X156438072Y-105400000D01*
X156438072Y-104500000D01*
X156421969Y-104336500D01*
X156374278Y-104179284D01*
X156296831Y-104034392D01*
X156192606Y-103907394D01*
X156065608Y-103803169D01*
X155920716Y-103725722D01*
X155763500Y-103678031D01*
X155600000Y-103661928D01*
X155200000Y-103661928D01*
X155036500Y-103678031D01*
X154879284Y-103725722D01*
X154775000Y-103781463D01*
X154670716Y-103725722D01*
X154513500Y-103678031D01*
X154350000Y-103661928D01*
X153950000Y-103661928D01*
X153786500Y-103678031D01*
X153629284Y-103725722D01*
X153525000Y-103781463D01*
X153420716Y-103725722D01*
X153263500Y-103678031D01*
X153100000Y-103661928D01*
X152700000Y-103661928D01*
X152536500Y-103678031D01*
X152379284Y-103725722D01*
X152275000Y-103781463D01*
X152170716Y-103725722D01*
X152013500Y-103678031D01*
X151850000Y-103661928D01*
X151450000Y-103661928D01*
X151286500Y-103678031D01*
X151129284Y-103725722D01*
X151025000Y-103781463D01*
X150920716Y-103725722D01*
X150763500Y-103678031D01*
X150600000Y-103661928D01*
X150200000Y-103661928D01*
X150036500Y-103678031D01*
X149879284Y-103725722D01*
X149775000Y-103781463D01*
X149670716Y-103725722D01*
X149513500Y-103678031D01*
X149350000Y-103661928D01*
X148950000Y-103661928D01*
X148786500Y-103678031D01*
X148629284Y-103725722D01*
X148525000Y-103781463D01*
X148420716Y-103725722D01*
X148263500Y-103678031D01*
X148100000Y-103661928D01*
X147700000Y-103661928D01*
X147536500Y-103678031D01*
X147379284Y-103725722D01*
X147275000Y-103781463D01*
X147170716Y-103725722D01*
X147013500Y-103678031D01*
X146850000Y-103661928D01*
X146450000Y-103661928D01*
X146286500Y-103678031D01*
X146129284Y-103725722D01*
X146025000Y-103781463D01*
X145920716Y-103725722D01*
X145763500Y-103678031D01*
X145600000Y-103661928D01*
X145200000Y-103661928D01*
X145036500Y-103678031D01*
X144879284Y-103725722D01*
X144775000Y-103781463D01*
X144670716Y-103725722D01*
X144513500Y-103678031D01*
X144350000Y-103661928D01*
X143950000Y-103661928D01*
X143786500Y-103678031D01*
X143629284Y-103725722D01*
X143525000Y-103781463D01*
X143420716Y-103725722D01*
X143263500Y-103678031D01*
X143100000Y-103661928D01*
X142700000Y-103661928D01*
X142536500Y-103678031D01*
X142379284Y-103725722D01*
X142275000Y-103781463D01*
X142170716Y-103725722D01*
X142013500Y-103678031D01*
X141850000Y-103661928D01*
X141450000Y-103661928D01*
X141286500Y-103678031D01*
X141129284Y-103725722D01*
X141025000Y-103781463D01*
X140920716Y-103725722D01*
X140763500Y-103678031D01*
X140600000Y-103661928D01*
X140200000Y-103661928D01*
X140036500Y-103678031D01*
X139879284Y-103725722D01*
X139734392Y-103803169D01*
X139607394Y-103907394D01*
X139503169Y-104034392D01*
X139425722Y-104179284D01*
X139378031Y-104336500D01*
X139361928Y-104500000D01*
X139361928Y-105400000D01*
X139378031Y-105563500D01*
X139425722Y-105720716D01*
X139503169Y-105865608D01*
X139607394Y-105992606D01*
X139640000Y-106019366D01*
X139640000Y-106296289D01*
X139596063Y-106340226D01*
X139536099Y-106429969D01*
X139521008Y-106276746D01*
X139470472Y-106110150D01*
X139388405Y-105956614D01*
X139277962Y-105822038D01*
X139143386Y-105711595D01*
X138989850Y-105629528D01*
X138823254Y-105578992D01*
X138650000Y-105561928D01*
X137050000Y-105561928D01*
X136876746Y-105578992D01*
X136710150Y-105629528D01*
X136556614Y-105711595D01*
X136422038Y-105822038D01*
X136311595Y-105956614D01*
X136300000Y-105978307D01*
X136288405Y-105956614D01*
X136177962Y-105822038D01*
X136043386Y-105711595D01*
X135889850Y-105629528D01*
X135723254Y-105578992D01*
X135550000Y-105561928D01*
X133950000Y-105561928D01*
X133776746Y-105578992D01*
X133610150Y-105629528D01*
X133456614Y-105711595D01*
X133322038Y-105822038D01*
X133211595Y-105956614D01*
X133129528Y-106110150D01*
X133078992Y-106276746D01*
X133063901Y-106429969D01*
X133003937Y-106340226D01*
X132960000Y-106296289D01*
X132960000Y-106019365D01*
X132992606Y-105992606D01*
X133096831Y-105865608D01*
X133174278Y-105720716D01*
X133221969Y-105563500D01*
X133238072Y-105400000D01*
X133238072Y-104500000D01*
X133221969Y-104336500D01*
X133174278Y-104179284D01*
X133096831Y-104034392D01*
X132992606Y-103907394D01*
X132865608Y-103803169D01*
X132720716Y-103725722D01*
X132563500Y-103678031D01*
X132400000Y-103661928D01*
X132000000Y-103661928D01*
X131836500Y-103678031D01*
X131679284Y-103725722D01*
X131575000Y-103781463D01*
X131470716Y-103725722D01*
X131313500Y-103678031D01*
X131150000Y-103661928D01*
X130750000Y-103661928D01*
X130586500Y-103678031D01*
X130429284Y-103725722D01*
X130325000Y-103781463D01*
X130220716Y-103725722D01*
X130063500Y-103678031D01*
X129900000Y-103661928D01*
X129500000Y-103661928D01*
X129336500Y-103678031D01*
X129179284Y-103725722D01*
X129075000Y-103781463D01*
X128970716Y-103725722D01*
X128813500Y-103678031D01*
X128650000Y-103661928D01*
X128250000Y-103661928D01*
X128086500Y-103678031D01*
X127929284Y-103725722D01*
X127825000Y-103781463D01*
X127720716Y-103725722D01*
X127563500Y-103678031D01*
X127400000Y-103661928D01*
X127000000Y-103661928D01*
X126836500Y-103678031D01*
X126679284Y-103725722D01*
X126575000Y-103781463D01*
X126470716Y-103725722D01*
X126313500Y-103678031D01*
X126150000Y-103661928D01*
X125750000Y-103661928D01*
X125586500Y-103678031D01*
X125429284Y-103725722D01*
X125325000Y-103781463D01*
X125220716Y-103725722D01*
X125063500Y-103678031D01*
X124900000Y-103661928D01*
X124500000Y-103661928D01*
X124336500Y-103678031D01*
X124179284Y-103725722D01*
X124075000Y-103781463D01*
X123970716Y-103725722D01*
X123813500Y-103678031D01*
X123650000Y-103661928D01*
X123250000Y-103661928D01*
X123086500Y-103678031D01*
X122929284Y-103725722D01*
X122825000Y-103781463D01*
X122720716Y-103725722D01*
X122563500Y-103678031D01*
X122400000Y-103661928D01*
X122000000Y-103661928D01*
X121836500Y-103678031D01*
X121679284Y-103725722D01*
X121575000Y-103781463D01*
X121470716Y-103725722D01*
X121313500Y-103678031D01*
X121150000Y-103661928D01*
X120750000Y-103661928D01*
X120586500Y-103678031D01*
X120429284Y-103725722D01*
X120325000Y-103781463D01*
X120220716Y-103725722D01*
X120063500Y-103678031D01*
X119900000Y-103661928D01*
X119500000Y-103661928D01*
X119336500Y-103678031D01*
X119179284Y-103725722D01*
X119075000Y-103781463D01*
X118970716Y-103725722D01*
X118813500Y-103678031D01*
X118650000Y-103661928D01*
X118250000Y-103661928D01*
X118086500Y-103678031D01*
X117929284Y-103725722D01*
X117825000Y-103781463D01*
X117720716Y-103725722D01*
X117563500Y-103678031D01*
X117400000Y-103661928D01*
X117000000Y-103661928D01*
X116836500Y-103678031D01*
X116679284Y-103725722D01*
X116534392Y-103803169D01*
X116407394Y-103907394D01*
X116303169Y-104034392D01*
X116225722Y-104179284D01*
X116178031Y-104336500D01*
X116161928Y-104500000D01*
X116161928Y-105400000D01*
X116178031Y-105563500D01*
X116225722Y-105720716D01*
X116303169Y-105865608D01*
X116407394Y-105992606D01*
X116440000Y-106019366D01*
X116440000Y-106296289D01*
X116396063Y-106340226D01*
X116336099Y-106429969D01*
X116321008Y-106276746D01*
X116270472Y-106110150D01*
X116188405Y-105956614D01*
X116077962Y-105822038D01*
X115943386Y-105711595D01*
X115789850Y-105629528D01*
X115623254Y-105578992D01*
X115450000Y-105561928D01*
X113850000Y-105561928D01*
X113676746Y-105578992D01*
X113510150Y-105629528D01*
X113356614Y-105711595D01*
X113222038Y-105822038D01*
X113111595Y-105956614D01*
X113100000Y-105978307D01*
X113088405Y-105956614D01*
X112977962Y-105822038D01*
X112843386Y-105711595D01*
X112689850Y-105629528D01*
X112523254Y-105578992D01*
X112350000Y-105561928D01*
X110750000Y-105561928D01*
X110576746Y-105578992D01*
X110410150Y-105629528D01*
X110256614Y-105711595D01*
X110122038Y-105822038D01*
X110011595Y-105956614D01*
X109929528Y-106110150D01*
X109878992Y-106276746D01*
X109863901Y-106429969D01*
X109803937Y-106340226D01*
X109760000Y-106296289D01*
X109760000Y-106019365D01*
X109792606Y-105992606D01*
X109896831Y-105865608D01*
X109974278Y-105720716D01*
X110021969Y-105563500D01*
X110038072Y-105400000D01*
X110038072Y-104500000D01*
X110021969Y-104336500D01*
X109974278Y-104179284D01*
X109896831Y-104034392D01*
X109792606Y-103907394D01*
X109665608Y-103803169D01*
X109520716Y-103725722D01*
X109363500Y-103678031D01*
X109200000Y-103661928D01*
X108800000Y-103661928D01*
X108636500Y-103678031D01*
X108479284Y-103725722D01*
X108375000Y-103781463D01*
X108270716Y-103725722D01*
X108113500Y-103678031D01*
X107950000Y-103661928D01*
X107550000Y-103661928D01*
X107386500Y-103678031D01*
X107229284Y-103725722D01*
X107125000Y-103781463D01*
X107020716Y-103725722D01*
X106863500Y-103678031D01*
X106700000Y-103661928D01*
X106300000Y-103661928D01*
X106136500Y-103678031D01*
X105979284Y-103725722D01*
X105875000Y-103781463D01*
X105770716Y-103725722D01*
X105613500Y-103678031D01*
X105450000Y-103661928D01*
X105050000Y-103661928D01*
X104886500Y-103678031D01*
X104729284Y-103725722D01*
X104625000Y-103781463D01*
X104520716Y-103725722D01*
X104363500Y-103678031D01*
X104200000Y-103661928D01*
X103800000Y-103661928D01*
X103636500Y-103678031D01*
X103479284Y-103725722D01*
X103375000Y-103781463D01*
X103270716Y-103725722D01*
X103113500Y-103678031D01*
X102950000Y-103661928D01*
X102550000Y-103661928D01*
X102386500Y-103678031D01*
X102229284Y-103725722D01*
X102125000Y-103781463D01*
X102020716Y-103725722D01*
X101863500Y-103678031D01*
X101700000Y-103661928D01*
X101300000Y-103661928D01*
X101136500Y-103678031D01*
X100979284Y-103725722D01*
X100875000Y-103781463D01*
X100770716Y-103725722D01*
X100613500Y-103678031D01*
X100450000Y-103661928D01*
X100050000Y-103661928D01*
X99886500Y-103678031D01*
X99729284Y-103725722D01*
X99625000Y-103781463D01*
X99520716Y-103725722D01*
X99363500Y-103678031D01*
X99200000Y-103661928D01*
X98800000Y-103661928D01*
X98636500Y-103678031D01*
X98479284Y-103725722D01*
X98375000Y-103781463D01*
X98270716Y-103725722D01*
X98113500Y-103678031D01*
X97950000Y-103661928D01*
X97550000Y-103661928D01*
X97386500Y-103678031D01*
X97229284Y-103725722D01*
X97125000Y-103781463D01*
X97020716Y-103725722D01*
X96863500Y-103678031D01*
X96700000Y-103661928D01*
X96300000Y-103661928D01*
X96136500Y-103678031D01*
X95979284Y-103725722D01*
X95875000Y-103781463D01*
X95770716Y-103725722D01*
X95613500Y-103678031D01*
X95450000Y-103661928D01*
X95050000Y-103661928D01*
X94886500Y-103678031D01*
X94729284Y-103725722D01*
X94625000Y-103781463D01*
X94520716Y-103725722D01*
X94363500Y-103678031D01*
X94200000Y-103661928D01*
X93800000Y-103661928D01*
X93636500Y-103678031D01*
X93479284Y-103725722D01*
X93334392Y-103803169D01*
X93207394Y-103907394D01*
X93103169Y-104034392D01*
X93025722Y-104179284D01*
X92978031Y-104336500D01*
X92961928Y-104500000D01*
X92961928Y-105400000D01*
X92978031Y-105563500D01*
X93025722Y-105720716D01*
X93103169Y-105865608D01*
X93207394Y-105992606D01*
X93240000Y-106019366D01*
X93240000Y-106296289D01*
X93196063Y-106340226D01*
X93136099Y-106429969D01*
X93121008Y-106276746D01*
X93070472Y-106110150D01*
X92988405Y-105956614D01*
X92877962Y-105822038D01*
X92743386Y-105711595D01*
X92589850Y-105629528D01*
X92423254Y-105578992D01*
X92250000Y-105561928D01*
X90650000Y-105561928D01*
X90610000Y-105565868D01*
X90610000Y-99834132D01*
X90650000Y-99838072D01*
X92250000Y-99838072D01*
X92423254Y-99821008D01*
X92589850Y-99770472D01*
X92743386Y-99688405D01*
X92877962Y-99577962D01*
X92988405Y-99443386D01*
X93070472Y-99289850D01*
X93121008Y-99123254D01*
X93138072Y-98950000D01*
X93138072Y-96450000D01*
X93121008Y-96276746D01*
X93070472Y-96110150D01*
X92988405Y-95956614D01*
X92877962Y-95822038D01*
X92743386Y-95711595D01*
X92589850Y-95629528D01*
X92423254Y-95578992D01*
X92250000Y-95561928D01*
X90650000Y-95561928D01*
X90610000Y-95565868D01*
X90610000Y-94500000D01*
X92961928Y-94500000D01*
X92961928Y-95400000D01*
X92978031Y-95563500D01*
X93025722Y-95720716D01*
X93103169Y-95865608D01*
X93207394Y-95992606D01*
X93334392Y-96096831D01*
X93479284Y-96174278D01*
X93636500Y-96221969D01*
X93800000Y-96238072D01*
X94200000Y-96238072D01*
X94363500Y-96221969D01*
X94520716Y-96174278D01*
X94625000Y-96118537D01*
X94729284Y-96174278D01*
X94886500Y-96221969D01*
X95050000Y-96238072D01*
X95450000Y-96238072D01*
X95613500Y-96221969D01*
X95770716Y-96174278D01*
X95875000Y-96118537D01*
X95979284Y-96174278D01*
X96136500Y-96221969D01*
X96300000Y-96238072D01*
X96700000Y-96238072D01*
X96863500Y-96221969D01*
X97020716Y-96174278D01*
X97125000Y-96118537D01*
X97229284Y-96174278D01*
X97386500Y-96221969D01*
X97550000Y-96238072D01*
X97950000Y-96238072D01*
X98113500Y-96221969D01*
X98270716Y-96174278D01*
X98375000Y-96118537D01*
X98479284Y-96174278D01*
X98636500Y-96221969D01*
X98800000Y-96238072D01*
X99200000Y-96238072D01*
X99363500Y-96221969D01*
X99520716Y-96174278D01*
X99625000Y-96118537D01*
X99729284Y-96174278D01*
X99886500Y-96221969D01*
X100050000Y-96238072D01*
X100450000Y-96238072D01*
X100613500Y-96221969D01*
X100770716Y-96174278D01*
X100875000Y-96118537D01*
X100979284Y-96174278D01*
X101136500Y-96221969D01*
X101300000Y-96238072D01*
X101700000Y-96238072D01*
X101863500Y-96221969D01*
X102020716Y-96174278D01*
X102125000Y-96118537D01*
X102229284Y-96174278D01*
X102386500Y-96221969D01*
X102550000Y-96238072D01*
X102950000Y-96238072D01*
X103113500Y-96221969D01*
X103270716Y-96174278D01*
X103375000Y-96118537D01*
X103479284Y-96174278D01*
X103636500Y-96221969D01*
X103800000Y-96238072D01*
X104200000Y-96238072D01*
X104363500Y-96221969D01*
X104520716Y-96174278D01*
X104625000Y-96118537D01*
X104729284Y-96174278D01*
X104886500Y-96221969D01*
X105050000Y-96238072D01*
X105450000Y-96238072D01*
X105613500Y-96221969D01*
X105770716Y-96174278D01*
X105875000Y-96118537D01*
X105979284Y-96174278D01*
X106136500Y-96221969D01*
X106300000Y-96238072D01*
X106700000Y-96238072D01*
X106863500Y-96221969D01*
X107020716Y-96174278D01*
X107125000Y-96118537D01*
X107229284Y-96174278D01*
X107386500Y-96221969D01*
X107550000Y-96238072D01*
X107950000Y-96238072D01*
X108113500Y-96221969D01*
X108270716Y-96174278D01*
X108375000Y-96118537D01*
X108479284Y-96174278D01*
X108636500Y-96221969D01*
X108800000Y-96238072D01*
X109200000Y-96238072D01*
X109363500Y-96221969D01*
X109520716Y-96174278D01*
X109665608Y-96096831D01*
X109792606Y-95992606D01*
X109896831Y-95865608D01*
X109974278Y-95720716D01*
X109977529Y-95710000D01*
X110259598Y-95710000D01*
X110256614Y-95711595D01*
X110122038Y-95822038D01*
X110011595Y-95956614D01*
X109929528Y-96110150D01*
X109878992Y-96276746D01*
X109861928Y-96450000D01*
X109861928Y-98950000D01*
X109878992Y-99123254D01*
X109929528Y-99289850D01*
X110011595Y-99443386D01*
X110122038Y-99577962D01*
X110256614Y-99688405D01*
X110410150Y-99770472D01*
X110576746Y-99821008D01*
X110750000Y-99838072D01*
X112350000Y-99838072D01*
X112523254Y-99821008D01*
X112689850Y-99770472D01*
X112843386Y-99688405D01*
X112977962Y-99577962D01*
X113088405Y-99443386D01*
X113100000Y-99421693D01*
X113111595Y-99443386D01*
X113222038Y-99577962D01*
X113356614Y-99688405D01*
X113510150Y-99770472D01*
X113676746Y-99821008D01*
X113850000Y-99838072D01*
X115450000Y-99838072D01*
X115623254Y-99821008D01*
X115789850Y-99770472D01*
X115943386Y-99688405D01*
X116077962Y-99577962D01*
X116188405Y-99443386D01*
X116270472Y-99289850D01*
X116321008Y-99123254D01*
X116338072Y-98950000D01*
X116338072Y-96450000D01*
X133061928Y-96450000D01*
X133061928Y-98950000D01*
X133078992Y-99123254D01*
X133129528Y-99289850D01*
X133211595Y-99443386D01*
X133322038Y-99577962D01*
X133456614Y-99688405D01*
X133610150Y-99770472D01*
X133776746Y-99821008D01*
X133950000Y-99838072D01*
X135550000Y-99838072D01*
X135723254Y-99821008D01*
X135889850Y-99770472D01*
X136043386Y-99688405D01*
X136177962Y-99577962D01*
X136288405Y-99443386D01*
X136300000Y-99421693D01*
X136311595Y-99443386D01*
X136422038Y-99577962D01*
X136556614Y-99688405D01*
X136710150Y-99770472D01*
X136876746Y-99821008D01*
X137050000Y-99838072D01*
X138650000Y-99838072D01*
X138823254Y-99821008D01*
X138989850Y-99770472D01*
X139143386Y-99688405D01*
X139277962Y-99577962D01*
X139388405Y-99443386D01*
X139470472Y-99289850D01*
X139521008Y-99123254D01*
X139538072Y-98950000D01*
X139538072Y-96450000D01*
X139521008Y-96276746D01*
X139470472Y-96110150D01*
X139388405Y-95956614D01*
X139277962Y-95822038D01*
X139143386Y-95711595D01*
X138989850Y-95629528D01*
X138823254Y-95578992D01*
X138650000Y-95561928D01*
X137050000Y-95561928D01*
X136876746Y-95578992D01*
X136710150Y-95629528D01*
X136556614Y-95711595D01*
X136422038Y-95822038D01*
X136311595Y-95956614D01*
X136300000Y-95978307D01*
X136288405Y-95956614D01*
X136177962Y-95822038D01*
X136043386Y-95711595D01*
X135889850Y-95629528D01*
X135723254Y-95578992D01*
X135550000Y-95561928D01*
X133950000Y-95561928D01*
X133776746Y-95578992D01*
X133610150Y-95629528D01*
X133456614Y-95711595D01*
X133322038Y-95822038D01*
X133211595Y-95956614D01*
X133129528Y-96110150D01*
X133078992Y-96276746D01*
X133061928Y-96450000D01*
X116338072Y-96450000D01*
X116321008Y-96276746D01*
X116270472Y-96110150D01*
X116188405Y-95956614D01*
X116077962Y-95822038D01*
X115943386Y-95711595D01*
X115789850Y-95629528D01*
X115623254Y-95578992D01*
X115450000Y-95561928D01*
X114493870Y-95561928D01*
X114581513Y-95490001D01*
X114605316Y-95460997D01*
X116440000Y-93626313D01*
X116440001Y-93880634D01*
X116407394Y-93907394D01*
X116303169Y-94034392D01*
X116225722Y-94179284D01*
X116178031Y-94336500D01*
X116161928Y-94500000D01*
X116161928Y-95400000D01*
X116178031Y-95563500D01*
X116225722Y-95720716D01*
X116303169Y-95865608D01*
X116407394Y-95992606D01*
X116534392Y-96096831D01*
X116679284Y-96174278D01*
X116836500Y-96221969D01*
X117000000Y-96238072D01*
X117400000Y-96238072D01*
X117563500Y-96221969D01*
X117720716Y-96174278D01*
X117825000Y-96118537D01*
X117929284Y-96174278D01*
X118086500Y-96221969D01*
X118250000Y-96238072D01*
X118650000Y-96238072D01*
X118813500Y-96221969D01*
X118970716Y-96174278D01*
X119075000Y-96118537D01*
X119179284Y-96174278D01*
X119336500Y-96221969D01*
X119500000Y-96238072D01*
X119900000Y-96238072D01*
X120063500Y-96221969D01*
X120220716Y-96174278D01*
X120325000Y-96118537D01*
X120429284Y-96174278D01*
X120586500Y-96221969D01*
X120750000Y-96238072D01*
X121150000Y-96238072D01*
X121313500Y-96221969D01*
X121470716Y-96174278D01*
X121575000Y-96118537D01*
X121679284Y-96174278D01*
X121836500Y-96221969D01*
X122000000Y-96238072D01*
X122400000Y-96238072D01*
X122563500Y-96221969D01*
X122720716Y-96174278D01*
X122825000Y-96118537D01*
X122929284Y-96174278D01*
X123086500Y-96221969D01*
X123250000Y-96238072D01*
X123650000Y-96238072D01*
X123813500Y-96221969D01*
X123970716Y-96174278D01*
X124075000Y-96118537D01*
X124179284Y-96174278D01*
X124336500Y-96221969D01*
X124500000Y-96238072D01*
X124900000Y-96238072D01*
X125063500Y-96221969D01*
X125220716Y-96174278D01*
X125325000Y-96118537D01*
X125429284Y-96174278D01*
X125586500Y-96221969D01*
X125750000Y-96238072D01*
X126150000Y-96238072D01*
X126313500Y-96221969D01*
X126470716Y-96174278D01*
X126575000Y-96118537D01*
X126679284Y-96174278D01*
X126836500Y-96221969D01*
X127000000Y-96238072D01*
X127400000Y-96238072D01*
X127563500Y-96221969D01*
X127720716Y-96174278D01*
X127825000Y-96118537D01*
X127929284Y-96174278D01*
X128086500Y-96221969D01*
X128250000Y-96238072D01*
X128650000Y-96238072D01*
X128813500Y-96221969D01*
X128970716Y-96174278D01*
X129075000Y-96118537D01*
X129179284Y-96174278D01*
X129336500Y-96221969D01*
X129500000Y-96238072D01*
X129900000Y-96238072D01*
X130063500Y-96221969D01*
X130220716Y-96174278D01*
X130325000Y-96118537D01*
X130429284Y-96174278D01*
X130586500Y-96221969D01*
X130750000Y-96238072D01*
X131150000Y-96238072D01*
X131313500Y-96221969D01*
X131470716Y-96174278D01*
X131575000Y-96118537D01*
X131679284Y-96174278D01*
X131836500Y-96221969D01*
X132000000Y-96238072D01*
X132400000Y-96238072D01*
X132563500Y-96221969D01*
X132720716Y-96174278D01*
X132865608Y-96096831D01*
X132992606Y-95992606D01*
X133096831Y-95865608D01*
X133174278Y-95720716D01*
X133221969Y-95563500D01*
X133238072Y-95400000D01*
X133238072Y-94500000D01*
X133221969Y-94336500D01*
X133174278Y-94179284D01*
X133096831Y-94034392D01*
X132992606Y-93907394D01*
X132960000Y-93880635D01*
X132960000Y-93364801D01*
X136810001Y-89514801D01*
X136810000Y-92082677D01*
X136806324Y-92120000D01*
X136810000Y-92157322D01*
X136810000Y-92157332D01*
X136820997Y-92268985D01*
X136860313Y-92398594D01*
X136864454Y-92412246D01*
X136935026Y-92544276D01*
X136972598Y-92590057D01*
X137029999Y-92660001D01*
X137059003Y-92683804D01*
X139361928Y-94986731D01*
X139361928Y-95400000D01*
X139378031Y-95563500D01*
X139425722Y-95720716D01*
X139503169Y-95865608D01*
X139607394Y-95992606D01*
X139734392Y-96096831D01*
X139879284Y-96174278D01*
X140036500Y-96221969D01*
X140200000Y-96238072D01*
X140600000Y-96238072D01*
X140763500Y-96221969D01*
X140920716Y-96174278D01*
X141025000Y-96118537D01*
X141129284Y-96174278D01*
X141286500Y-96221969D01*
X141450000Y-96238072D01*
X141850000Y-96238072D01*
X142013500Y-96221969D01*
X142170716Y-96174278D01*
X142275000Y-96118537D01*
X142379284Y-96174278D01*
X142536500Y-96221969D01*
X142700000Y-96238072D01*
X143100000Y-96238072D01*
X143263500Y-96221969D01*
X143420716Y-96174278D01*
X143525000Y-96118537D01*
X143629284Y-96174278D01*
X143786500Y-96221969D01*
X143950000Y-96238072D01*
X144350000Y-96238072D01*
X144513500Y-96221969D01*
X144670716Y-96174278D01*
X144775000Y-96118537D01*
X144879284Y-96174278D01*
X145036500Y-96221969D01*
X145200000Y-96238072D01*
X145600000Y-96238072D01*
X145763500Y-96221969D01*
X145920716Y-96174278D01*
X146025000Y-96118537D01*
X146129284Y-96174278D01*
X146286500Y-96221969D01*
X146450000Y-96238072D01*
X146850000Y-96238072D01*
X147013500Y-96221969D01*
X147170716Y-96174278D01*
X147275000Y-96118537D01*
X147379284Y-96174278D01*
X147536500Y-96221969D01*
X147700000Y-96238072D01*
X148100000Y-96238072D01*
X148263500Y-96221969D01*
X148420716Y-96174278D01*
X148525000Y-96118537D01*
X148629284Y-96174278D01*
X148786500Y-96221969D01*
X148950000Y-96238072D01*
X149350000Y-96238072D01*
X149513500Y-96221969D01*
X149670716Y-96174278D01*
X149775000Y-96118537D01*
X149879284Y-96174278D01*
X150036500Y-96221969D01*
X150200000Y-96238072D01*
X150600000Y-96238072D01*
X150763500Y-96221969D01*
X150920716Y-96174278D01*
X151025000Y-96118537D01*
X151129284Y-96174278D01*
X151286500Y-96221969D01*
X151450000Y-96238072D01*
X151850000Y-96238072D01*
X152013500Y-96221969D01*
X152170716Y-96174278D01*
X152275000Y-96118537D01*
X152379284Y-96174278D01*
X152536500Y-96221969D01*
X152700000Y-96238072D01*
X153100000Y-96238072D01*
X153263500Y-96221969D01*
X153420716Y-96174278D01*
X153525000Y-96118537D01*
X153629284Y-96174278D01*
X153786500Y-96221969D01*
X153950000Y-96238072D01*
X154350000Y-96238072D01*
X154513500Y-96221969D01*
X154670716Y-96174278D01*
X154775000Y-96118537D01*
X154879284Y-96174278D01*
X155036500Y-96221969D01*
X155200000Y-96238072D01*
X155600000Y-96238072D01*
X155763500Y-96221969D01*
X155920716Y-96174278D01*
X156065608Y-96096831D01*
X156192606Y-95992606D01*
X156296831Y-95865608D01*
X156374278Y-95720716D01*
X156421969Y-95563500D01*
X156438072Y-95400000D01*
X156438072Y-94500000D01*
X156421969Y-94336500D01*
X156374278Y-94179284D01*
X156296831Y-94034392D01*
X156192606Y-93907394D01*
X156160000Y-93880635D01*
X156160000Y-90723732D01*
X156163676Y-90686409D01*
X156160000Y-90649086D01*
X156160000Y-90649077D01*
X156152148Y-90569360D01*
X161043791Y-95461003D01*
X161067589Y-95490001D01*
X161096587Y-95513799D01*
X161155232Y-95561928D01*
X160250000Y-95561928D01*
X160076746Y-95578992D01*
X159910150Y-95629528D01*
X159756614Y-95711595D01*
X159622038Y-95822038D01*
X159511595Y-95956614D01*
X159500000Y-95978307D01*
X159488405Y-95956614D01*
X159377962Y-95822038D01*
X159243386Y-95711595D01*
X159089850Y-95629528D01*
X158923254Y-95578992D01*
X158750000Y-95561928D01*
X157150000Y-95561928D01*
X156976746Y-95578992D01*
X156810150Y-95629528D01*
X156656614Y-95711595D01*
X156522038Y-95822038D01*
X156411595Y-95956614D01*
X156329528Y-96110150D01*
X156278992Y-96276746D01*
X156261928Y-96450000D01*
X156261928Y-98950000D01*
X156278992Y-99123254D01*
X156329528Y-99289850D01*
X156411595Y-99443386D01*
X156522038Y-99577962D01*
X156656614Y-99688405D01*
X156810150Y-99770472D01*
X156976746Y-99821008D01*
X157150000Y-99838072D01*
X158750000Y-99838072D01*
X158923254Y-99821008D01*
X159089850Y-99770472D01*
X159243386Y-99688405D01*
X159377962Y-99577962D01*
X159488405Y-99443386D01*
X159500000Y-99421693D01*
X159511595Y-99443386D01*
X159622038Y-99577962D01*
X159756614Y-99688405D01*
X159910150Y-99770472D01*
X160076746Y-99821008D01*
X160250000Y-99838072D01*
X161850000Y-99838072D01*
X162023254Y-99821008D01*
X162189850Y-99770472D01*
X162343386Y-99688405D01*
X162477962Y-99577962D01*
X162588405Y-99443386D01*
X162670472Y-99289850D01*
X162721008Y-99123254D01*
X162738072Y-98950000D01*
X162738072Y-96450000D01*
X162721008Y-96276746D01*
X162670472Y-96110150D01*
X162588405Y-95956614D01*
X162477962Y-95822038D01*
X162343386Y-95711595D01*
X162340402Y-95710000D01*
X162622471Y-95710000D01*
X162625722Y-95720716D01*
X162703169Y-95865608D01*
X162807394Y-95992606D01*
X162934392Y-96096831D01*
X163079284Y-96174278D01*
X163236500Y-96221969D01*
X163400000Y-96238072D01*
X163800000Y-96238072D01*
X163963500Y-96221969D01*
X164120716Y-96174278D01*
X164225000Y-96118537D01*
X164329284Y-96174278D01*
X164486500Y-96221969D01*
X164650000Y-96238072D01*
X165050000Y-96238072D01*
X165213500Y-96221969D01*
X165370716Y-96174278D01*
X165475000Y-96118537D01*
X165579284Y-96174278D01*
X165736500Y-96221969D01*
X165900000Y-96238072D01*
X166300000Y-96238072D01*
X166463500Y-96221969D01*
X166620716Y-96174278D01*
X166725000Y-96118537D01*
X166829284Y-96174278D01*
X166986500Y-96221969D01*
X167150000Y-96238072D01*
X167550000Y-96238072D01*
X167713500Y-96221969D01*
X167870716Y-96174278D01*
X167975000Y-96118537D01*
X168079284Y-96174278D01*
X168236500Y-96221969D01*
X168400000Y-96238072D01*
X168800000Y-96238072D01*
X168963500Y-96221969D01*
X169120716Y-96174278D01*
X169225000Y-96118537D01*
X169329284Y-96174278D01*
X169486500Y-96221969D01*
X169650000Y-96238072D01*
X170050000Y-96238072D01*
X170213500Y-96221969D01*
X170370716Y-96174278D01*
X170475000Y-96118537D01*
X170579284Y-96174278D01*
X170736500Y-96221969D01*
X170900000Y-96238072D01*
X171300000Y-96238072D01*
X171463500Y-96221969D01*
X171620716Y-96174278D01*
X171725000Y-96118537D01*
X171829284Y-96174278D01*
X171986500Y-96221969D01*
X172150000Y-96238072D01*
X172550000Y-96238072D01*
X172713500Y-96221969D01*
X172870716Y-96174278D01*
X172975000Y-96118537D01*
X173079284Y-96174278D01*
X173236500Y-96221969D01*
X173400000Y-96238072D01*
X173800000Y-96238072D01*
X173963500Y-96221969D01*
X174120716Y-96174278D01*
X174225000Y-96118537D01*
X174329284Y-96174278D01*
X174486500Y-96221969D01*
X174650000Y-96238072D01*
X175050000Y-96238072D01*
X175213500Y-96221969D01*
X175370716Y-96174278D01*
X175475000Y-96118537D01*
X175579284Y-96174278D01*
X175736500Y-96221969D01*
X175900000Y-96238072D01*
X176300000Y-96238072D01*
X176463500Y-96221969D01*
X176620716Y-96174278D01*
X176725000Y-96118537D01*
X176829284Y-96174278D01*
X176986500Y-96221969D01*
X177150000Y-96238072D01*
X177550000Y-96238072D01*
X177713500Y-96221969D01*
X177870716Y-96174278D01*
X177975000Y-96118537D01*
X178079284Y-96174278D01*
X178236500Y-96221969D01*
X178400000Y-96238072D01*
X178800000Y-96238072D01*
X178963500Y-96221969D01*
X179120716Y-96174278D01*
X179265608Y-96096831D01*
X179392606Y-95992606D01*
X179496831Y-95865608D01*
X179574278Y-95720716D01*
X179621969Y-95563500D01*
X179638072Y-95400000D01*
X179638072Y-94500000D01*
X179621969Y-94336500D01*
X179574278Y-94179284D01*
X179496831Y-94034392D01*
X179392606Y-93907394D01*
X179265608Y-93803169D01*
X179120716Y-93725722D01*
X179091732Y-93716930D01*
X170379804Y-85005003D01*
X170356001Y-84975999D01*
X170240276Y-84881026D01*
X170108247Y-84810454D01*
X169964986Y-84766997D01*
X169853333Y-84756000D01*
X169853322Y-84756000D01*
X169816000Y-84752324D01*
X169778678Y-84756000D01*
X169280071Y-84756000D01*
X169172405Y-84594866D01*
X168971134Y-84393595D01*
X168750243Y-84246000D01*
X168971134Y-84098405D01*
X169172405Y-83897134D01*
X169330543Y-83660464D01*
X169439470Y-83397491D01*
X169495000Y-83118320D01*
X169495000Y-82833680D01*
X169439470Y-82554509D01*
X169330543Y-82291536D01*
X169172405Y-82054866D01*
X168971134Y-81853595D01*
X168750243Y-81706000D01*
X168971134Y-81558405D01*
X169172405Y-81357134D01*
X169330543Y-81120464D01*
X169439470Y-80857491D01*
X169495000Y-80578320D01*
X169495000Y-80293680D01*
X169439470Y-80014509D01*
X169330543Y-79751536D01*
X169172405Y-79514866D01*
X168971134Y-79313595D01*
X168734464Y-79155457D01*
X168471491Y-79046530D01*
X168192320Y-78991000D01*
X167907680Y-78991000D01*
X167628509Y-79046530D01*
X167365536Y-79155457D01*
X167128866Y-79313595D01*
X166927595Y-79514866D01*
X166780000Y-79735757D01*
X166632405Y-79514866D01*
X166431134Y-79313595D01*
X166194464Y-79155457D01*
X165931491Y-79046530D01*
X165652320Y-78991000D01*
X165367680Y-78991000D01*
X165088509Y-79046530D01*
X164825536Y-79155457D01*
X164588866Y-79313595D01*
X164387595Y-79514866D01*
X164240000Y-79735757D01*
X164092405Y-79514866D01*
X163891134Y-79313595D01*
X163654464Y-79155457D01*
X163391491Y-79046530D01*
X163112320Y-78991000D01*
X162827680Y-78991000D01*
X162548509Y-79046530D01*
X162285536Y-79155457D01*
X162048866Y-79313595D01*
X161847595Y-79514866D01*
X161700000Y-79735757D01*
X161552405Y-79514866D01*
X161351134Y-79313595D01*
X161114464Y-79155457D01*
X160851491Y-79046530D01*
X160572320Y-78991000D01*
X160287680Y-78991000D01*
X160008509Y-79046530D01*
X159745536Y-79155457D01*
X159508866Y-79313595D01*
X159307595Y-79514866D01*
X159160000Y-79735757D01*
X159012405Y-79514866D01*
X158811134Y-79313595D01*
X158574464Y-79155457D01*
X158311491Y-79046530D01*
X158032320Y-78991000D01*
X157747680Y-78991000D01*
X157468509Y-79046530D01*
X157205536Y-79155457D01*
X156968866Y-79313595D01*
X156767595Y-79514866D01*
X156620000Y-79735757D01*
X156472405Y-79514866D01*
X156271134Y-79313595D01*
X156034464Y-79155457D01*
X155771491Y-79046530D01*
X155492320Y-78991000D01*
X155207680Y-78991000D01*
X154928509Y-79046530D01*
X154665536Y-79155457D01*
X154428866Y-79313595D01*
X154227595Y-79514866D01*
X154080000Y-79735757D01*
X153932405Y-79514866D01*
X153731134Y-79313595D01*
X153494464Y-79155457D01*
X153231491Y-79046530D01*
X152952320Y-78991000D01*
X152667680Y-78991000D01*
X152388509Y-79046530D01*
X152125536Y-79155457D01*
X151888866Y-79313595D01*
X151687595Y-79514866D01*
X151540000Y-79735757D01*
X151392405Y-79514866D01*
X151191134Y-79313595D01*
X150954464Y-79155457D01*
X150691491Y-79046530D01*
X150412320Y-78991000D01*
X150127680Y-78991000D01*
X149848509Y-79046530D01*
X149585536Y-79155457D01*
X149348866Y-79313595D01*
X149147595Y-79514866D01*
X149000000Y-79735757D01*
X148852405Y-79514866D01*
X148651134Y-79313595D01*
X148414464Y-79155457D01*
X148151491Y-79046530D01*
X147872320Y-78991000D01*
X147587680Y-78991000D01*
X147308509Y-79046530D01*
X147045536Y-79155457D01*
X146808866Y-79313595D01*
X146607595Y-79514866D01*
X146460000Y-79735757D01*
X146312405Y-79514866D01*
X146111134Y-79313595D01*
X145874464Y-79155457D01*
X145611491Y-79046530D01*
X145332320Y-78991000D01*
X145047680Y-78991000D01*
X144768509Y-79046530D01*
X144505536Y-79155457D01*
X144268866Y-79313595D01*
X144067595Y-79514866D01*
X143920000Y-79735757D01*
X143772405Y-79514866D01*
X143571134Y-79313595D01*
X143334464Y-79155457D01*
X143071491Y-79046530D01*
X142792320Y-78991000D01*
X142507680Y-78991000D01*
X142228509Y-79046530D01*
X141965536Y-79155457D01*
X141728866Y-79313595D01*
X141527595Y-79514866D01*
X141380000Y-79735757D01*
X141232405Y-79514866D01*
X141031134Y-79313595D01*
X140794464Y-79155457D01*
X140531491Y-79046530D01*
X140252320Y-78991000D01*
X139967680Y-78991000D01*
X139688509Y-79046530D01*
X139425536Y-79155457D01*
X139188866Y-79313595D01*
X138987595Y-79514866D01*
X138840000Y-79735757D01*
X138692405Y-79514866D01*
X138491134Y-79313595D01*
X138254464Y-79155457D01*
X137991491Y-79046530D01*
X137712320Y-78991000D01*
X137427680Y-78991000D01*
X137148509Y-79046530D01*
X136885536Y-79155457D01*
X136648866Y-79313595D01*
X136447595Y-79514866D01*
X136300000Y-79735757D01*
X136152405Y-79514866D01*
X135951134Y-79313595D01*
X135714464Y-79155457D01*
X135451491Y-79046530D01*
X135172320Y-78991000D01*
X134887680Y-78991000D01*
X134608509Y-79046530D01*
X134345536Y-79155457D01*
X134108866Y-79313595D01*
X133907595Y-79514866D01*
X133760000Y-79735757D01*
X133612405Y-79514866D01*
X133411134Y-79313595D01*
X133174464Y-79155457D01*
X132911491Y-79046530D01*
X132632320Y-78991000D01*
X132347680Y-78991000D01*
X132068509Y-79046530D01*
X131805536Y-79155457D01*
X131568866Y-79313595D01*
X131367595Y-79514866D01*
X131220000Y-79735757D01*
X131072405Y-79514866D01*
X130871134Y-79313595D01*
X130634464Y-79155457D01*
X130371491Y-79046530D01*
X130092320Y-78991000D01*
X129807680Y-78991000D01*
X129528509Y-79046530D01*
X129265536Y-79155457D01*
X129028866Y-79313595D01*
X128827595Y-79514866D01*
X128680000Y-79735757D01*
X128532405Y-79514866D01*
X128331134Y-79313595D01*
X128094464Y-79155457D01*
X127831491Y-79046530D01*
X127552320Y-78991000D01*
X127267680Y-78991000D01*
X126988509Y-79046530D01*
X126725536Y-79155457D01*
X126488866Y-79313595D01*
X126287595Y-79514866D01*
X126140000Y-79735757D01*
X125992405Y-79514866D01*
X125791134Y-79313595D01*
X125554464Y-79155457D01*
X125291491Y-79046530D01*
X125012320Y-78991000D01*
X124727680Y-78991000D01*
X124448509Y-79046530D01*
X124185536Y-79155457D01*
X123948866Y-79313595D01*
X123747595Y-79514866D01*
X123600000Y-79735757D01*
X123452405Y-79514866D01*
X123251134Y-79313595D01*
X123014464Y-79155457D01*
X122751491Y-79046530D01*
X122472320Y-78991000D01*
X122187680Y-78991000D01*
X121908509Y-79046530D01*
X121645536Y-79155457D01*
X121408866Y-79313595D01*
X121207595Y-79514866D01*
X121060000Y-79735757D01*
X120912405Y-79514866D01*
X120711134Y-79313595D01*
X120474464Y-79155457D01*
X120211491Y-79046530D01*
X119932320Y-78991000D01*
X119647680Y-78991000D01*
X119368509Y-79046530D01*
X119105536Y-79155457D01*
X118868866Y-79313595D01*
X118667595Y-79514866D01*
X118520000Y-79735757D01*
X118372405Y-79514866D01*
X118171134Y-79313595D01*
X117934464Y-79155457D01*
X117671491Y-79046530D01*
X117392320Y-78991000D01*
X117107680Y-78991000D01*
X116828509Y-79046530D01*
X116565536Y-79155457D01*
X116328866Y-79313595D01*
X116127595Y-79514866D01*
X115980000Y-79735757D01*
X115832405Y-79514866D01*
X115631134Y-79313595D01*
X115394464Y-79155457D01*
X115131491Y-79046530D01*
X114852320Y-78991000D01*
X114567680Y-78991000D01*
X114288509Y-79046530D01*
X114025536Y-79155457D01*
X113788866Y-79313595D01*
X113587595Y-79514866D01*
X113440000Y-79735757D01*
X113292405Y-79514866D01*
X113091134Y-79313595D01*
X112854464Y-79155457D01*
X112591491Y-79046530D01*
X112312320Y-78991000D01*
X112027680Y-78991000D01*
X111748509Y-79046530D01*
X111485536Y-79155457D01*
X111248866Y-79313595D01*
X111047595Y-79514866D01*
X110900000Y-79735757D01*
X110752405Y-79514866D01*
X110551134Y-79313595D01*
X110314464Y-79155457D01*
X110051491Y-79046530D01*
X109772320Y-78991000D01*
X109487680Y-78991000D01*
X109208509Y-79046530D01*
X108945536Y-79155457D01*
X108708866Y-79313595D01*
X108507595Y-79514866D01*
X108360000Y-79735757D01*
X108212405Y-79514866D01*
X108011134Y-79313595D01*
X107774464Y-79155457D01*
X107511491Y-79046530D01*
X107232320Y-78991000D01*
X106947680Y-78991000D01*
X106668509Y-79046530D01*
X106405536Y-79155457D01*
X106168866Y-79313595D01*
X105967595Y-79514866D01*
X105820000Y-79735757D01*
X105672405Y-79514866D01*
X105471134Y-79313595D01*
X105234464Y-79155457D01*
X104971491Y-79046530D01*
X104692320Y-78991000D01*
X104407680Y-78991000D01*
X104128509Y-79046530D01*
X103865536Y-79155457D01*
X103628866Y-79313595D01*
X103427595Y-79514866D01*
X103269457Y-79751536D01*
X103160530Y-80014509D01*
X103105000Y-80293680D01*
X103105000Y-80578320D01*
X103160530Y-80857491D01*
X103269457Y-81120464D01*
X103427595Y-81357134D01*
X103628866Y-81558405D01*
X103849757Y-81706000D01*
X103628866Y-81853595D01*
X103427595Y-82054866D01*
X103269457Y-82291536D01*
X103160530Y-82554509D01*
X103105000Y-82833680D01*
X103105000Y-83118320D01*
X103160530Y-83397491D01*
X103269457Y-83660464D01*
X103427595Y-83897134D01*
X103628866Y-84098405D01*
X103849757Y-84246000D01*
X103628866Y-84393595D01*
X103427595Y-84594866D01*
X103269457Y-84831536D01*
X103160530Y-85094509D01*
X103105000Y-85373680D01*
X103105000Y-85658320D01*
X103160530Y-85937491D01*
X103269457Y-86200464D01*
X103427595Y-86437134D01*
X103628866Y-86638405D01*
X103849757Y-86786000D01*
X103628866Y-86933595D01*
X103427595Y-87134866D01*
X103319929Y-87296000D01*
X100281322Y-87296000D01*
X100243999Y-87292324D01*
X100206676Y-87296000D01*
X100206667Y-87296000D01*
X100095014Y-87306997D01*
X99951753Y-87350454D01*
X99819724Y-87421026D01*
X99807604Y-87430973D01*
X99732996Y-87492201D01*
X99732992Y-87492205D01*
X99703999Y-87515999D01*
X99680205Y-87544992D01*
X93508270Y-93716929D01*
X93479284Y-93725722D01*
X93334392Y-93803169D01*
X93207394Y-93907394D01*
X93103169Y-94034392D01*
X93025722Y-94179284D01*
X92978031Y-94336500D01*
X92961928Y-94500000D01*
X90610000Y-94500000D01*
X90610000Y-88146000D01*
X96425123Y-88146000D01*
X96460000Y-88149435D01*
X96494877Y-88146000D01*
X96510575Y-88144454D01*
X96599184Y-88135727D01*
X96733020Y-88095128D01*
X96856363Y-88029200D01*
X96964475Y-87940475D01*
X97053200Y-87832363D01*
X97119128Y-87709020D01*
X97159727Y-87575184D01*
X97170000Y-87470877D01*
X97173435Y-87436000D01*
X97170000Y-87401123D01*
X97170000Y-82905608D01*
X97258678Y-82816930D01*
X97564859Y-83260503D01*
X98152306Y-83575954D01*
X98790008Y-83770740D01*
X99453457Y-83837372D01*
X100117158Y-83773292D01*
X100755605Y-83580962D01*
X101344262Y-83267772D01*
X101355141Y-83260503D01*
X101661323Y-82816928D01*
X99460000Y-80615605D01*
X99445858Y-80629748D01*
X99266253Y-80450143D01*
X99280395Y-80436000D01*
X99266253Y-80421858D01*
X99445858Y-80242253D01*
X99460000Y-80256395D01*
X99474143Y-80242253D01*
X99653748Y-80421858D01*
X99639605Y-80436000D01*
X101840928Y-82637323D01*
X102284503Y-82331141D01*
X102599954Y-81743694D01*
X102794740Y-81105992D01*
X102861372Y-80442543D01*
X102797292Y-79778842D01*
X102604962Y-79140395D01*
X102291772Y-78551738D01*
X102284503Y-78540859D01*
X101840930Y-78234678D01*
X101929608Y-78146000D01*
X170670392Y-78146000D01*
X170759070Y-78234678D01*
G37*
X170759070Y-78234678D02*
X170315497Y-78540859D01*
X170000046Y-79128306D01*
X169805260Y-79766008D01*
X169738628Y-80429457D01*
X169802708Y-81093158D01*
X169995038Y-81731605D01*
X170308228Y-82320262D01*
X170315497Y-82331141D01*
X170759072Y-82637323D01*
X172960395Y-80436000D01*
X172946253Y-80421858D01*
X173125858Y-80242253D01*
X173140000Y-80256395D01*
X173154143Y-80242253D01*
X173333748Y-80421858D01*
X173319605Y-80436000D01*
X173333748Y-80450143D01*
X173154143Y-80629748D01*
X173140000Y-80615605D01*
X170938677Y-82816928D01*
X171244859Y-83260503D01*
X171832306Y-83575954D01*
X172470008Y-83770740D01*
X173133457Y-83837372D01*
X173797158Y-83773292D01*
X174435605Y-83580962D01*
X175024262Y-83267772D01*
X175035141Y-83260503D01*
X175341322Y-82816930D01*
X175430001Y-82905609D01*
X175430001Y-87401113D01*
X175426565Y-87436000D01*
X175440273Y-87575184D01*
X175480872Y-87709020D01*
X175546800Y-87832363D01*
X175635525Y-87940475D01*
X175743637Y-88029200D01*
X175866980Y-88095128D01*
X176000816Y-88135727D01*
X176105123Y-88146000D01*
X176140000Y-88149435D01*
X176174877Y-88146000D01*
X181990001Y-88146000D01*
X181990001Y-95565868D01*
X181950000Y-95561928D01*
X180350000Y-95561928D01*
X180176746Y-95578992D01*
X180010150Y-95629528D01*
X179856614Y-95711595D01*
X179722038Y-95822038D01*
X179611595Y-95956614D01*
X179529528Y-96110150D01*
X179478992Y-96276746D01*
X179461928Y-96450000D01*
X179461928Y-98950000D01*
X179478992Y-99123254D01*
X179529528Y-99289850D01*
X179611595Y-99443386D01*
X179722038Y-99577962D01*
X179856614Y-99688405D01*
X180010150Y-99770472D01*
X180176746Y-99821008D01*
X180350000Y-99838072D01*
X181950000Y-99838072D01*
X181990000Y-99834132D01*
X181990000Y-105565868D01*
X181950000Y-105561928D01*
X180350000Y-105561928D01*
X180176746Y-105578992D01*
X180010150Y-105629528D01*
X179856614Y-105711595D01*
X179722038Y-105822038D01*
X179611595Y-105956614D01*
X179529528Y-106110150D01*
X179478992Y-106276746D01*
X179463901Y-106429969D01*
X179403937Y-106340226D01*
X179360000Y-106296289D01*
X179360000Y-106019365D01*
X179392606Y-105992606D01*
X179496831Y-105865608D01*
X179574278Y-105720716D01*
X179621969Y-105563500D01*
X179638072Y-105400000D01*
X179638072Y-104500000D01*
X179621969Y-104336500D01*
X179574278Y-104179284D01*
X179496831Y-104034392D01*
X179392606Y-103907394D01*
X179265608Y-103803169D01*
X179120716Y-103725722D01*
X178963500Y-103678031D01*
X178800000Y-103661928D01*
X178400000Y-103661928D01*
X178236500Y-103678031D01*
X178079284Y-103725722D01*
X177975000Y-103781463D01*
X177870716Y-103725722D01*
X177713500Y-103678031D01*
X177550000Y-103661928D01*
X177150000Y-103661928D01*
X176986500Y-103678031D01*
X176829284Y-103725722D01*
X176725000Y-103781463D01*
X176620716Y-103725722D01*
X176463500Y-103678031D01*
X176300000Y-103661928D01*
X175900000Y-103661928D01*
X175736500Y-103678031D01*
X175579284Y-103725722D01*
X175475000Y-103781463D01*
X175370716Y-103725722D01*
X175213500Y-103678031D01*
X175050000Y-103661928D01*
X174650000Y-103661928D01*
X174486500Y-103678031D01*
X174329284Y-103725722D01*
X174225000Y-103781463D01*
X174120716Y-103725722D01*
X173963500Y-103678031D01*
X173800000Y-103661928D01*
X173400000Y-103661928D01*
X173236500Y-103678031D01*
X173079284Y-103725722D01*
X172975000Y-103781463D01*
X172870716Y-103725722D01*
X172713500Y-103678031D01*
X172550000Y-103661928D01*
X172150000Y-103661928D01*
X171986500Y-103678031D01*
X171829284Y-103725722D01*
X171725000Y-103781463D01*
X171620716Y-103725722D01*
X171463500Y-103678031D01*
X171300000Y-103661928D01*
X170900000Y-103661928D01*
X170736500Y-103678031D01*
X170579284Y-103725722D01*
X170475000Y-103781463D01*
X170370716Y-103725722D01*
X170213500Y-103678031D01*
X170050000Y-103661928D01*
X169650000Y-103661928D01*
X169486500Y-103678031D01*
X169329284Y-103725722D01*
X169225000Y-103781463D01*
X169120716Y-103725722D01*
X168963500Y-103678031D01*
X168800000Y-103661928D01*
X168400000Y-103661928D01*
X168236500Y-103678031D01*
X168079284Y-103725722D01*
X167975000Y-103781463D01*
X167870716Y-103725722D01*
X167713500Y-103678031D01*
X167550000Y-103661928D01*
X167150000Y-103661928D01*
X166986500Y-103678031D01*
X166829284Y-103725722D01*
X166725000Y-103781463D01*
X166620716Y-103725722D01*
X166463500Y-103678031D01*
X166300000Y-103661928D01*
X165900000Y-103661928D01*
X165736500Y-103678031D01*
X165579284Y-103725722D01*
X165475000Y-103781463D01*
X165370716Y-103725722D01*
X165213500Y-103678031D01*
X165050000Y-103661928D01*
X164650000Y-103661928D01*
X164486500Y-103678031D01*
X164329284Y-103725722D01*
X164225000Y-103781463D01*
X164120716Y-103725722D01*
X163963500Y-103678031D01*
X163800000Y-103661928D01*
X163400000Y-103661928D01*
X163236500Y-103678031D01*
X163079284Y-103725722D01*
X162934392Y-103803169D01*
X162807394Y-103907394D01*
X162703169Y-104034392D01*
X162625722Y-104179284D01*
X162578031Y-104336500D01*
X162561928Y-104500000D01*
X162561928Y-105400000D01*
X162578031Y-105563500D01*
X162625722Y-105720716D01*
X162703169Y-105865608D01*
X162807394Y-105992606D01*
X162840000Y-106019366D01*
X162840000Y-106296289D01*
X162796063Y-106340226D01*
X162736099Y-106429969D01*
X162721008Y-106276746D01*
X162670472Y-106110150D01*
X162588405Y-105956614D01*
X162477962Y-105822038D01*
X162343386Y-105711595D01*
X162189850Y-105629528D01*
X162023254Y-105578992D01*
X161850000Y-105561928D01*
X160250000Y-105561928D01*
X160076746Y-105578992D01*
X159910150Y-105629528D01*
X159756614Y-105711595D01*
X159622038Y-105822038D01*
X159511595Y-105956614D01*
X159500000Y-105978307D01*
X159488405Y-105956614D01*
X159377962Y-105822038D01*
X159243386Y-105711595D01*
X159089850Y-105629528D01*
X158923254Y-105578992D01*
X158750000Y-105561928D01*
X157150000Y-105561928D01*
X156976746Y-105578992D01*
X156810150Y-105629528D01*
X156656614Y-105711595D01*
X156522038Y-105822038D01*
X156411595Y-105956614D01*
X156329528Y-106110150D01*
X156278992Y-106276746D01*
X156263901Y-106429969D01*
X156203937Y-106340226D01*
X156160000Y-106296289D01*
X156160000Y-106019365D01*
X156192606Y-105992606D01*
X156296831Y-105865608D01*
X156374278Y-105720716D01*
X156421969Y-105563500D01*
X156438072Y-105400000D01*
X156438072Y-104500000D01*
X156421969Y-104336500D01*
X156374278Y-104179284D01*
X156296831Y-104034392D01*
X156192606Y-103907394D01*
X156065608Y-103803169D01*
X155920716Y-103725722D01*
X155763500Y-103678031D01*
X155600000Y-103661928D01*
X155200000Y-103661928D01*
X155036500Y-103678031D01*
X154879284Y-103725722D01*
X154775000Y-103781463D01*
X154670716Y-103725722D01*
X154513500Y-103678031D01*
X154350000Y-103661928D01*
X153950000Y-103661928D01*
X153786500Y-103678031D01*
X153629284Y-103725722D01*
X153525000Y-103781463D01*
X153420716Y-103725722D01*
X153263500Y-103678031D01*
X153100000Y-103661928D01*
X152700000Y-103661928D01*
X152536500Y-103678031D01*
X152379284Y-103725722D01*
X152275000Y-103781463D01*
X152170716Y-103725722D01*
X152013500Y-103678031D01*
X151850000Y-103661928D01*
X151450000Y-103661928D01*
X151286500Y-103678031D01*
X151129284Y-103725722D01*
X151025000Y-103781463D01*
X150920716Y-103725722D01*
X150763500Y-103678031D01*
X150600000Y-103661928D01*
X150200000Y-103661928D01*
X150036500Y-103678031D01*
X149879284Y-103725722D01*
X149775000Y-103781463D01*
X149670716Y-103725722D01*
X149513500Y-103678031D01*
X149350000Y-103661928D01*
X148950000Y-103661928D01*
X148786500Y-103678031D01*
X148629284Y-103725722D01*
X148525000Y-103781463D01*
X148420716Y-103725722D01*
X148263500Y-103678031D01*
X148100000Y-103661928D01*
X147700000Y-103661928D01*
X147536500Y-103678031D01*
X147379284Y-103725722D01*
X147275000Y-103781463D01*
X147170716Y-103725722D01*
X147013500Y-103678031D01*
X146850000Y-103661928D01*
X146450000Y-103661928D01*
X146286500Y-103678031D01*
X146129284Y-103725722D01*
X146025000Y-103781463D01*
X145920716Y-103725722D01*
X145763500Y-103678031D01*
X145600000Y-103661928D01*
X145200000Y-103661928D01*
X145036500Y-103678031D01*
X144879284Y-103725722D01*
X144775000Y-103781463D01*
X144670716Y-103725722D01*
X144513500Y-103678031D01*
X144350000Y-103661928D01*
X143950000Y-103661928D01*
X143786500Y-103678031D01*
X143629284Y-103725722D01*
X143525000Y-103781463D01*
X143420716Y-103725722D01*
X143263500Y-103678031D01*
X143100000Y-103661928D01*
X142700000Y-103661928D01*
X142536500Y-103678031D01*
X142379284Y-103725722D01*
X142275000Y-103781463D01*
X142170716Y-103725722D01*
X142013500Y-103678031D01*
X141850000Y-103661928D01*
X141450000Y-103661928D01*
X141286500Y-103678031D01*
X141129284Y-103725722D01*
X141025000Y-103781463D01*
X140920716Y-103725722D01*
X140763500Y-103678031D01*
X140600000Y-103661928D01*
X140200000Y-103661928D01*
X140036500Y-103678031D01*
X139879284Y-103725722D01*
X139734392Y-103803169D01*
X139607394Y-103907394D01*
X139503169Y-104034392D01*
X139425722Y-104179284D01*
X139378031Y-104336500D01*
X139361928Y-104500000D01*
X139361928Y-105400000D01*
X139378031Y-105563500D01*
X139425722Y-105720716D01*
X139503169Y-105865608D01*
X139607394Y-105992606D01*
X139640000Y-106019366D01*
X139640000Y-106296289D01*
X139596063Y-106340226D01*
X139536099Y-106429969D01*
X139521008Y-106276746D01*
X139470472Y-106110150D01*
X139388405Y-105956614D01*
X139277962Y-105822038D01*
X139143386Y-105711595D01*
X138989850Y-105629528D01*
X138823254Y-105578992D01*
X138650000Y-105561928D01*
X137050000Y-105561928D01*
X136876746Y-105578992D01*
X136710150Y-105629528D01*
X136556614Y-105711595D01*
X136422038Y-105822038D01*
X136311595Y-105956614D01*
X136300000Y-105978307D01*
X136288405Y-105956614D01*
X136177962Y-105822038D01*
X136043386Y-105711595D01*
X135889850Y-105629528D01*
X135723254Y-105578992D01*
X135550000Y-105561928D01*
X133950000Y-105561928D01*
X133776746Y-105578992D01*
X133610150Y-105629528D01*
X133456614Y-105711595D01*
X133322038Y-105822038D01*
X133211595Y-105956614D01*
X133129528Y-106110150D01*
X133078992Y-106276746D01*
X133063901Y-106429969D01*
X133003937Y-106340226D01*
X132960000Y-106296289D01*
X132960000Y-106019365D01*
X132992606Y-105992606D01*
X133096831Y-105865608D01*
X133174278Y-105720716D01*
X133221969Y-105563500D01*
X133238072Y-105400000D01*
X133238072Y-104500000D01*
X133221969Y-104336500D01*
X133174278Y-104179284D01*
X133096831Y-104034392D01*
X132992606Y-103907394D01*
X132865608Y-103803169D01*
X132720716Y-103725722D01*
X132563500Y-103678031D01*
X132400000Y-103661928D01*
X132000000Y-103661928D01*
X131836500Y-103678031D01*
X131679284Y-103725722D01*
X131575000Y-103781463D01*
X131470716Y-103725722D01*
X131313500Y-103678031D01*
X131150000Y-103661928D01*
X130750000Y-103661928D01*
X130586500Y-103678031D01*
X130429284Y-103725722D01*
X130325000Y-103781463D01*
X130220716Y-103725722D01*
X130063500Y-103678031D01*
X129900000Y-103661928D01*
X129500000Y-103661928D01*
X129336500Y-103678031D01*
X129179284Y-103725722D01*
X129075000Y-103781463D01*
X128970716Y-103725722D01*
X128813500Y-103678031D01*
X128650000Y-103661928D01*
X128250000Y-103661928D01*
X128086500Y-103678031D01*
X127929284Y-103725722D01*
X127825000Y-103781463D01*
X127720716Y-103725722D01*
X127563500Y-103678031D01*
X127400000Y-103661928D01*
X127000000Y-103661928D01*
X126836500Y-103678031D01*
X126679284Y-103725722D01*
X126575000Y-103781463D01*
X126470716Y-103725722D01*
X126313500Y-103678031D01*
X126150000Y-103661928D01*
X125750000Y-103661928D01*
X125586500Y-103678031D01*
X125429284Y-103725722D01*
X125325000Y-103781463D01*
X125220716Y-103725722D01*
X125063500Y-103678031D01*
X124900000Y-103661928D01*
X124500000Y-103661928D01*
X124336500Y-103678031D01*
X124179284Y-103725722D01*
X124075000Y-103781463D01*
X123970716Y-103725722D01*
X123813500Y-103678031D01*
X123650000Y-103661928D01*
X123250000Y-103661928D01*
X123086500Y-103678031D01*
X122929284Y-103725722D01*
X122825000Y-103781463D01*
X122720716Y-103725722D01*
X122563500Y-103678031D01*
X122400000Y-103661928D01*
X122000000Y-103661928D01*
X121836500Y-103678031D01*
X121679284Y-103725722D01*
X121575000Y-103781463D01*
X121470716Y-103725722D01*
X121313500Y-103678031D01*
X121150000Y-103661928D01*
X120750000Y-103661928D01*
X120586500Y-103678031D01*
X120429284Y-103725722D01*
X120325000Y-103781463D01*
X120220716Y-103725722D01*
X120063500Y-103678031D01*
X119900000Y-103661928D01*
X119500000Y-103661928D01*
X119336500Y-103678031D01*
X119179284Y-103725722D01*
X119075000Y-103781463D01*
X118970716Y-103725722D01*
X118813500Y-103678031D01*
X118650000Y-103661928D01*
X118250000Y-103661928D01*
X118086500Y-103678031D01*
X117929284Y-103725722D01*
X117825000Y-103781463D01*
X117720716Y-103725722D01*
X117563500Y-103678031D01*
X117400000Y-103661928D01*
X117000000Y-103661928D01*
X116836500Y-103678031D01*
X116679284Y-103725722D01*
X116534392Y-103803169D01*
X116407394Y-103907394D01*
X116303169Y-104034392D01*
X116225722Y-104179284D01*
X116178031Y-104336500D01*
X116161928Y-104500000D01*
X116161928Y-105400000D01*
X116178031Y-105563500D01*
X116225722Y-105720716D01*
X116303169Y-105865608D01*
X116407394Y-105992606D01*
X116440000Y-106019366D01*
X116440000Y-106296289D01*
X116396063Y-106340226D01*
X116336099Y-106429969D01*
X116321008Y-106276746D01*
X116270472Y-106110150D01*
X116188405Y-105956614D01*
X116077962Y-105822038D01*
X115943386Y-105711595D01*
X115789850Y-105629528D01*
X115623254Y-105578992D01*
X115450000Y-105561928D01*
X113850000Y-105561928D01*
X113676746Y-105578992D01*
X113510150Y-105629528D01*
X113356614Y-105711595D01*
X113222038Y-105822038D01*
X113111595Y-105956614D01*
X113100000Y-105978307D01*
X113088405Y-105956614D01*
X112977962Y-105822038D01*
X112843386Y-105711595D01*
X112689850Y-105629528D01*
X112523254Y-105578992D01*
X112350000Y-105561928D01*
X110750000Y-105561928D01*
X110576746Y-105578992D01*
X110410150Y-105629528D01*
X110256614Y-105711595D01*
X110122038Y-105822038D01*
X110011595Y-105956614D01*
X109929528Y-106110150D01*
X109878992Y-106276746D01*
X109863901Y-106429969D01*
X109803937Y-106340226D01*
X109760000Y-106296289D01*
X109760000Y-106019365D01*
X109792606Y-105992606D01*
X109896831Y-105865608D01*
X109974278Y-105720716D01*
X110021969Y-105563500D01*
X110038072Y-105400000D01*
X110038072Y-104500000D01*
X110021969Y-104336500D01*
X109974278Y-104179284D01*
X109896831Y-104034392D01*
X109792606Y-103907394D01*
X109665608Y-103803169D01*
X109520716Y-103725722D01*
X109363500Y-103678031D01*
X109200000Y-103661928D01*
X108800000Y-103661928D01*
X108636500Y-103678031D01*
X108479284Y-103725722D01*
X108375000Y-103781463D01*
X108270716Y-103725722D01*
X108113500Y-103678031D01*
X107950000Y-103661928D01*
X107550000Y-103661928D01*
X107386500Y-103678031D01*
X107229284Y-103725722D01*
X107125000Y-103781463D01*
X107020716Y-103725722D01*
X106863500Y-103678031D01*
X106700000Y-103661928D01*
X106300000Y-103661928D01*
X106136500Y-103678031D01*
X105979284Y-103725722D01*
X105875000Y-103781463D01*
X105770716Y-103725722D01*
X105613500Y-103678031D01*
X105450000Y-103661928D01*
X105050000Y-103661928D01*
X104886500Y-103678031D01*
X104729284Y-103725722D01*
X104625000Y-103781463D01*
X104520716Y-103725722D01*
X104363500Y-103678031D01*
X104200000Y-103661928D01*
X103800000Y-103661928D01*
X103636500Y-103678031D01*
X103479284Y-103725722D01*
X103375000Y-103781463D01*
X103270716Y-103725722D01*
X103113500Y-103678031D01*
X102950000Y-103661928D01*
X102550000Y-103661928D01*
X102386500Y-103678031D01*
X102229284Y-103725722D01*
X102125000Y-103781463D01*
X102020716Y-103725722D01*
X101863500Y-103678031D01*
X101700000Y-103661928D01*
X101300000Y-103661928D01*
X101136500Y-103678031D01*
X100979284Y-103725722D01*
X100875000Y-103781463D01*
X100770716Y-103725722D01*
X100613500Y-103678031D01*
X100450000Y-103661928D01*
X100050000Y-103661928D01*
X99886500Y-103678031D01*
X99729284Y-103725722D01*
X99625000Y-103781463D01*
X99520716Y-103725722D01*
X99363500Y-103678031D01*
X99200000Y-103661928D01*
X98800000Y-103661928D01*
X98636500Y-103678031D01*
X98479284Y-103725722D01*
X98375000Y-103781463D01*
X98270716Y-103725722D01*
X98113500Y-103678031D01*
X97950000Y-103661928D01*
X97550000Y-103661928D01*
X97386500Y-103678031D01*
X97229284Y-103725722D01*
X97125000Y-103781463D01*
X97020716Y-103725722D01*
X96863500Y-103678031D01*
X96700000Y-103661928D01*
X96300000Y-103661928D01*
X96136500Y-103678031D01*
X95979284Y-103725722D01*
X95875000Y-103781463D01*
X95770716Y-103725722D01*
X95613500Y-103678031D01*
X95450000Y-103661928D01*
X95050000Y-103661928D01*
X94886500Y-103678031D01*
X94729284Y-103725722D01*
X94625000Y-103781463D01*
X94520716Y-103725722D01*
X94363500Y-103678031D01*
X94200000Y-103661928D01*
X93800000Y-103661928D01*
X93636500Y-103678031D01*
X93479284Y-103725722D01*
X93334392Y-103803169D01*
X93207394Y-103907394D01*
X93103169Y-104034392D01*
X93025722Y-104179284D01*
X92978031Y-104336500D01*
X92961928Y-104500000D01*
X92961928Y-105400000D01*
X92978031Y-105563500D01*
X93025722Y-105720716D01*
X93103169Y-105865608D01*
X93207394Y-105992606D01*
X93240000Y-106019366D01*
X93240000Y-106296289D01*
X93196063Y-106340226D01*
X93136099Y-106429969D01*
X93121008Y-106276746D01*
X93070472Y-106110150D01*
X92988405Y-105956614D01*
X92877962Y-105822038D01*
X92743386Y-105711595D01*
X92589850Y-105629528D01*
X92423254Y-105578992D01*
X92250000Y-105561928D01*
X90650000Y-105561928D01*
X90610000Y-105565868D01*
X90610000Y-99834132D01*
X90650000Y-99838072D01*
X92250000Y-99838072D01*
X92423254Y-99821008D01*
X92589850Y-99770472D01*
X92743386Y-99688405D01*
X92877962Y-99577962D01*
X92988405Y-99443386D01*
X93070472Y-99289850D01*
X93121008Y-99123254D01*
X93138072Y-98950000D01*
X93138072Y-96450000D01*
X93121008Y-96276746D01*
X93070472Y-96110150D01*
X92988405Y-95956614D01*
X92877962Y-95822038D01*
X92743386Y-95711595D01*
X92589850Y-95629528D01*
X92423254Y-95578992D01*
X92250000Y-95561928D01*
X90650000Y-95561928D01*
X90610000Y-95565868D01*
X90610000Y-94500000D01*
X92961928Y-94500000D01*
X92961928Y-95400000D01*
X92978031Y-95563500D01*
X93025722Y-95720716D01*
X93103169Y-95865608D01*
X93207394Y-95992606D01*
X93334392Y-96096831D01*
X93479284Y-96174278D01*
X93636500Y-96221969D01*
X93800000Y-96238072D01*
X94200000Y-96238072D01*
X94363500Y-96221969D01*
X94520716Y-96174278D01*
X94625000Y-96118537D01*
X94729284Y-96174278D01*
X94886500Y-96221969D01*
X95050000Y-96238072D01*
X95450000Y-96238072D01*
X95613500Y-96221969D01*
X95770716Y-96174278D01*
X95875000Y-96118537D01*
X95979284Y-96174278D01*
X96136500Y-96221969D01*
X96300000Y-96238072D01*
X96700000Y-96238072D01*
X96863500Y-96221969D01*
X97020716Y-96174278D01*
X97125000Y-96118537D01*
X97229284Y-96174278D01*
X97386500Y-96221969D01*
X97550000Y-96238072D01*
X97950000Y-96238072D01*
X98113500Y-96221969D01*
X98270716Y-96174278D01*
X98375000Y-96118537D01*
X98479284Y-96174278D01*
X98636500Y-96221969D01*
X98800000Y-96238072D01*
X99200000Y-96238072D01*
X99363500Y-96221969D01*
X99520716Y-96174278D01*
X99625000Y-96118537D01*
X99729284Y-96174278D01*
X99886500Y-96221969D01*
X100050000Y-96238072D01*
X100450000Y-96238072D01*
X100613500Y-96221969D01*
X100770716Y-96174278D01*
X100875000Y-96118537D01*
X100979284Y-96174278D01*
X101136500Y-96221969D01*
X101300000Y-96238072D01*
X101700000Y-96238072D01*
X101863500Y-96221969D01*
X102020716Y-96174278D01*
X102125000Y-96118537D01*
X102229284Y-96174278D01*
X102386500Y-96221969D01*
X102550000Y-96238072D01*
X102950000Y-96238072D01*
X103113500Y-96221969D01*
X103270716Y-96174278D01*
X103375000Y-96118537D01*
X103479284Y-96174278D01*
X103636500Y-96221969D01*
X103800000Y-96238072D01*
X104200000Y-96238072D01*
X104363500Y-96221969D01*
X104520716Y-96174278D01*
X104625000Y-96118537D01*
X104729284Y-96174278D01*
X104886500Y-96221969D01*
X105050000Y-96238072D01*
X105450000Y-96238072D01*
X105613500Y-96221969D01*
X105770716Y-96174278D01*
X105875000Y-96118537D01*
X105979284Y-96174278D01*
X106136500Y-96221969D01*
X106300000Y-96238072D01*
X106700000Y-96238072D01*
X106863500Y-96221969D01*
X107020716Y-96174278D01*
X107125000Y-96118537D01*
X107229284Y-96174278D01*
X107386500Y-96221969D01*
X107550000Y-96238072D01*
X107950000Y-96238072D01*
X108113500Y-96221969D01*
X108270716Y-96174278D01*
X108375000Y-96118537D01*
X108479284Y-96174278D01*
X108636500Y-96221969D01*
X108800000Y-96238072D01*
X109200000Y-96238072D01*
X109363500Y-96221969D01*
X109520716Y-96174278D01*
X109665608Y-96096831D01*
X109792606Y-95992606D01*
X109896831Y-95865608D01*
X109974278Y-95720716D01*
X109977529Y-95710000D01*
X110259598Y-95710000D01*
X110256614Y-95711595D01*
X110122038Y-95822038D01*
X110011595Y-95956614D01*
X109929528Y-96110150D01*
X109878992Y-96276746D01*
X109861928Y-96450000D01*
X109861928Y-98950000D01*
X109878992Y-99123254D01*
X109929528Y-99289850D01*
X110011595Y-99443386D01*
X110122038Y-99577962D01*
X110256614Y-99688405D01*
X110410150Y-99770472D01*
X110576746Y-99821008D01*
X110750000Y-99838072D01*
X112350000Y-99838072D01*
X112523254Y-99821008D01*
X112689850Y-99770472D01*
X112843386Y-99688405D01*
X112977962Y-99577962D01*
X113088405Y-99443386D01*
X113100000Y-99421693D01*
X113111595Y-99443386D01*
X113222038Y-99577962D01*
X113356614Y-99688405D01*
X113510150Y-99770472D01*
X113676746Y-99821008D01*
X113850000Y-99838072D01*
X115450000Y-99838072D01*
X115623254Y-99821008D01*
X115789850Y-99770472D01*
X115943386Y-99688405D01*
X116077962Y-99577962D01*
X116188405Y-99443386D01*
X116270472Y-99289850D01*
X116321008Y-99123254D01*
X116338072Y-98950000D01*
X116338072Y-96450000D01*
X133061928Y-96450000D01*
X133061928Y-98950000D01*
X133078992Y-99123254D01*
X133129528Y-99289850D01*
X133211595Y-99443386D01*
X133322038Y-99577962D01*
X133456614Y-99688405D01*
X133610150Y-99770472D01*
X133776746Y-99821008D01*
X133950000Y-99838072D01*
X135550000Y-99838072D01*
X135723254Y-99821008D01*
X135889850Y-99770472D01*
X136043386Y-99688405D01*
X136177962Y-99577962D01*
X136288405Y-99443386D01*
X136300000Y-99421693D01*
X136311595Y-99443386D01*
X136422038Y-99577962D01*
X136556614Y-99688405D01*
X136710150Y-99770472D01*
X136876746Y-99821008D01*
X137050000Y-99838072D01*
X138650000Y-99838072D01*
X138823254Y-99821008D01*
X138989850Y-99770472D01*
X139143386Y-99688405D01*
X139277962Y-99577962D01*
X139388405Y-99443386D01*
X139470472Y-99289850D01*
X139521008Y-99123254D01*
X139538072Y-98950000D01*
X139538072Y-96450000D01*
X139521008Y-96276746D01*
X139470472Y-96110150D01*
X139388405Y-95956614D01*
X139277962Y-95822038D01*
X139143386Y-95711595D01*
X138989850Y-95629528D01*
X138823254Y-95578992D01*
X138650000Y-95561928D01*
X137050000Y-95561928D01*
X136876746Y-95578992D01*
X136710150Y-95629528D01*
X136556614Y-95711595D01*
X136422038Y-95822038D01*
X136311595Y-95956614D01*
X136300000Y-95978307D01*
X136288405Y-95956614D01*
X136177962Y-95822038D01*
X136043386Y-95711595D01*
X135889850Y-95629528D01*
X135723254Y-95578992D01*
X135550000Y-95561928D01*
X133950000Y-95561928D01*
X133776746Y-95578992D01*
X133610150Y-95629528D01*
X133456614Y-95711595D01*
X133322038Y-95822038D01*
X133211595Y-95956614D01*
X133129528Y-96110150D01*
X133078992Y-96276746D01*
X133061928Y-96450000D01*
X116338072Y-96450000D01*
X116321008Y-96276746D01*
X116270472Y-96110150D01*
X116188405Y-95956614D01*
X116077962Y-95822038D01*
X115943386Y-95711595D01*
X115789850Y-95629528D01*
X115623254Y-95578992D01*
X115450000Y-95561928D01*
X114493870Y-95561928D01*
X114581513Y-95490001D01*
X114605316Y-95460997D01*
X116440000Y-93626313D01*
X116440001Y-93880634D01*
X116407394Y-93907394D01*
X116303169Y-94034392D01*
X116225722Y-94179284D01*
X116178031Y-94336500D01*
X116161928Y-94500000D01*
X116161928Y-95400000D01*
X116178031Y-95563500D01*
X116225722Y-95720716D01*
X116303169Y-95865608D01*
X116407394Y-95992606D01*
X116534392Y-96096831D01*
X116679284Y-96174278D01*
X116836500Y-96221969D01*
X117000000Y-96238072D01*
X117400000Y-96238072D01*
X117563500Y-96221969D01*
X117720716Y-96174278D01*
X117825000Y-96118537D01*
X117929284Y-96174278D01*
X118086500Y-96221969D01*
X118250000Y-96238072D01*
X118650000Y-96238072D01*
X118813500Y-96221969D01*
X118970716Y-96174278D01*
X119075000Y-96118537D01*
X119179284Y-96174278D01*
X119336500Y-96221969D01*
X119500000Y-96238072D01*
X119900000Y-96238072D01*
X120063500Y-96221969D01*
X120220716Y-96174278D01*
X120325000Y-96118537D01*
X120429284Y-96174278D01*
X120586500Y-96221969D01*
X120750000Y-96238072D01*
X121150000Y-96238072D01*
X121313500Y-96221969D01*
X121470716Y-96174278D01*
X121575000Y-96118537D01*
X121679284Y-96174278D01*
X121836500Y-96221969D01*
X122000000Y-96238072D01*
X122400000Y-96238072D01*
X122563500Y-96221969D01*
X122720716Y-96174278D01*
X122825000Y-96118537D01*
X122929284Y-96174278D01*
X123086500Y-96221969D01*
X123250000Y-96238072D01*
X123650000Y-96238072D01*
X123813500Y-96221969D01*
X123970716Y-96174278D01*
X124075000Y-96118537D01*
X124179284Y-96174278D01*
X124336500Y-96221969D01*
X124500000Y-96238072D01*
X124900000Y-96238072D01*
X125063500Y-96221969D01*
X125220716Y-96174278D01*
X125325000Y-96118537D01*
X125429284Y-96174278D01*
X125586500Y-96221969D01*
X125750000Y-96238072D01*
X126150000Y-96238072D01*
X126313500Y-96221969D01*
X126470716Y-96174278D01*
X126575000Y-96118537D01*
X126679284Y-96174278D01*
X126836500Y-96221969D01*
X127000000Y-96238072D01*
X127400000Y-96238072D01*
X127563500Y-96221969D01*
X127720716Y-96174278D01*
X127825000Y-96118537D01*
X127929284Y-96174278D01*
X128086500Y-96221969D01*
X128250000Y-96238072D01*
X128650000Y-96238072D01*
X128813500Y-96221969D01*
X128970716Y-96174278D01*
X129075000Y-96118537D01*
X129179284Y-96174278D01*
X129336500Y-96221969D01*
X129500000Y-96238072D01*
X129900000Y-96238072D01*
X130063500Y-96221969D01*
X130220716Y-96174278D01*
X130325000Y-96118537D01*
X130429284Y-96174278D01*
X130586500Y-96221969D01*
X130750000Y-96238072D01*
X131150000Y-96238072D01*
X131313500Y-96221969D01*
X131470716Y-96174278D01*
X131575000Y-96118537D01*
X131679284Y-96174278D01*
X131836500Y-96221969D01*
X132000000Y-96238072D01*
X132400000Y-96238072D01*
X132563500Y-96221969D01*
X132720716Y-96174278D01*
X132865608Y-96096831D01*
X132992606Y-95992606D01*
X133096831Y-95865608D01*
X133174278Y-95720716D01*
X133221969Y-95563500D01*
X133238072Y-95400000D01*
X133238072Y-94500000D01*
X133221969Y-94336500D01*
X133174278Y-94179284D01*
X133096831Y-94034392D01*
X132992606Y-93907394D01*
X132960000Y-93880635D01*
X132960000Y-93364801D01*
X136810001Y-89514801D01*
X136810000Y-92082677D01*
X136806324Y-92120000D01*
X136810000Y-92157322D01*
X136810000Y-92157332D01*
X136820997Y-92268985D01*
X136860313Y-92398594D01*
X136864454Y-92412246D01*
X136935026Y-92544276D01*
X136972598Y-92590057D01*
X137029999Y-92660001D01*
X137059003Y-92683804D01*
X139361928Y-94986731D01*
X139361928Y-95400000D01*
X139378031Y-95563500D01*
X139425722Y-95720716D01*
X139503169Y-95865608D01*
X139607394Y-95992606D01*
X139734392Y-96096831D01*
X139879284Y-96174278D01*
X140036500Y-96221969D01*
X140200000Y-96238072D01*
X140600000Y-96238072D01*
X140763500Y-96221969D01*
X140920716Y-96174278D01*
X141025000Y-96118537D01*
X141129284Y-96174278D01*
X141286500Y-96221969D01*
X141450000Y-96238072D01*
X141850000Y-96238072D01*
X142013500Y-96221969D01*
X142170716Y-96174278D01*
X142275000Y-96118537D01*
X142379284Y-96174278D01*
X142536500Y-96221969D01*
X142700000Y-96238072D01*
X143100000Y-96238072D01*
X143263500Y-96221969D01*
X143420716Y-96174278D01*
X143525000Y-96118537D01*
X143629284Y-96174278D01*
X143786500Y-96221969D01*
X143950000Y-96238072D01*
X144350000Y-96238072D01*
X144513500Y-96221969D01*
X144670716Y-96174278D01*
X144775000Y-96118537D01*
X144879284Y-96174278D01*
X145036500Y-96221969D01*
X145200000Y-96238072D01*
X145600000Y-96238072D01*
X145763500Y-96221969D01*
X145920716Y-96174278D01*
X146025000Y-96118537D01*
X146129284Y-96174278D01*
X146286500Y-96221969D01*
X146450000Y-96238072D01*
X146850000Y-96238072D01*
X147013500Y-96221969D01*
X147170716Y-96174278D01*
X147275000Y-96118537D01*
X147379284Y-96174278D01*
X147536500Y-96221969D01*
X147700000Y-96238072D01*
X148100000Y-96238072D01*
X148263500Y-96221969D01*
X148420716Y-96174278D01*
X148525000Y-96118537D01*
X148629284Y-96174278D01*
X148786500Y-96221969D01*
X148950000Y-96238072D01*
X149350000Y-96238072D01*
X149513500Y-96221969D01*
X149670716Y-96174278D01*
X149775000Y-96118537D01*
X149879284Y-96174278D01*
X150036500Y-96221969D01*
X150200000Y-96238072D01*
X150600000Y-96238072D01*
X150763500Y-96221969D01*
X150920716Y-96174278D01*
X151025000Y-96118537D01*
X151129284Y-96174278D01*
X151286500Y-96221969D01*
X151450000Y-96238072D01*
X151850000Y-96238072D01*
X152013500Y-96221969D01*
X152170716Y-96174278D01*
X152275000Y-96118537D01*
X152379284Y-96174278D01*
X152536500Y-96221969D01*
X152700000Y-96238072D01*
X153100000Y-96238072D01*
X153263500Y-96221969D01*
X153420716Y-96174278D01*
X153525000Y-96118537D01*
X153629284Y-96174278D01*
X153786500Y-96221969D01*
X153950000Y-96238072D01*
X154350000Y-96238072D01*
X154513500Y-96221969D01*
X154670716Y-96174278D01*
X154775000Y-96118537D01*
X154879284Y-96174278D01*
X155036500Y-96221969D01*
X155200000Y-96238072D01*
X155600000Y-96238072D01*
X155763500Y-96221969D01*
X155920716Y-96174278D01*
X156065608Y-96096831D01*
X156192606Y-95992606D01*
X156296831Y-95865608D01*
X156374278Y-95720716D01*
X156421969Y-95563500D01*
X156438072Y-95400000D01*
X156438072Y-94500000D01*
X156421969Y-94336500D01*
X156374278Y-94179284D01*
X156296831Y-94034392D01*
X156192606Y-93907394D01*
X156160000Y-93880635D01*
X156160000Y-90723732D01*
X156163676Y-90686409D01*
X156160000Y-90649086D01*
X156160000Y-90649077D01*
X156152148Y-90569360D01*
X161043791Y-95461003D01*
X161067589Y-95490001D01*
X161096587Y-95513799D01*
X161155232Y-95561928D01*
X160250000Y-95561928D01*
X160076746Y-95578992D01*
X159910150Y-95629528D01*
X159756614Y-95711595D01*
X159622038Y-95822038D01*
X159511595Y-95956614D01*
X159500000Y-95978307D01*
X159488405Y-95956614D01*
X159377962Y-95822038D01*
X159243386Y-95711595D01*
X159089850Y-95629528D01*
X158923254Y-95578992D01*
X158750000Y-95561928D01*
X157150000Y-95561928D01*
X156976746Y-95578992D01*
X156810150Y-95629528D01*
X156656614Y-95711595D01*
X156522038Y-95822038D01*
X156411595Y-95956614D01*
X156329528Y-96110150D01*
X156278992Y-96276746D01*
X156261928Y-96450000D01*
X156261928Y-98950000D01*
X156278992Y-99123254D01*
X156329528Y-99289850D01*
X156411595Y-99443386D01*
X156522038Y-99577962D01*
X156656614Y-99688405D01*
X156810150Y-99770472D01*
X156976746Y-99821008D01*
X157150000Y-99838072D01*
X158750000Y-99838072D01*
X158923254Y-99821008D01*
X159089850Y-99770472D01*
X159243386Y-99688405D01*
X159377962Y-99577962D01*
X159488405Y-99443386D01*
X159500000Y-99421693D01*
X159511595Y-99443386D01*
X159622038Y-99577962D01*
X159756614Y-99688405D01*
X159910150Y-99770472D01*
X160076746Y-99821008D01*
X160250000Y-99838072D01*
X161850000Y-99838072D01*
X162023254Y-99821008D01*
X162189850Y-99770472D01*
X162343386Y-99688405D01*
X162477962Y-99577962D01*
X162588405Y-99443386D01*
X162670472Y-99289850D01*
X162721008Y-99123254D01*
X162738072Y-98950000D01*
X162738072Y-96450000D01*
X162721008Y-96276746D01*
X162670472Y-96110150D01*
X162588405Y-95956614D01*
X162477962Y-95822038D01*
X162343386Y-95711595D01*
X162340402Y-95710000D01*
X162622471Y-95710000D01*
X162625722Y-95720716D01*
X162703169Y-95865608D01*
X162807394Y-95992606D01*
X162934392Y-96096831D01*
X163079284Y-96174278D01*
X163236500Y-96221969D01*
X163400000Y-96238072D01*
X163800000Y-96238072D01*
X163963500Y-96221969D01*
X164120716Y-96174278D01*
X164225000Y-96118537D01*
X164329284Y-96174278D01*
X164486500Y-96221969D01*
X164650000Y-96238072D01*
X165050000Y-96238072D01*
X165213500Y-96221969D01*
X165370716Y-96174278D01*
X165475000Y-96118537D01*
X165579284Y-96174278D01*
X165736500Y-96221969D01*
X165900000Y-96238072D01*
X166300000Y-96238072D01*
X166463500Y-96221969D01*
X166620716Y-96174278D01*
X166725000Y-96118537D01*
X166829284Y-96174278D01*
X166986500Y-96221969D01*
X167150000Y-96238072D01*
X167550000Y-96238072D01*
X167713500Y-96221969D01*
X167870716Y-96174278D01*
X167975000Y-96118537D01*
X168079284Y-96174278D01*
X168236500Y-96221969D01*
X168400000Y-96238072D01*
X168800000Y-96238072D01*
X168963500Y-96221969D01*
X169120716Y-96174278D01*
X169225000Y-96118537D01*
X169329284Y-96174278D01*
X169486500Y-96221969D01*
X169650000Y-96238072D01*
X170050000Y-96238072D01*
X170213500Y-96221969D01*
X170370716Y-96174278D01*
X170475000Y-96118537D01*
X170579284Y-96174278D01*
X170736500Y-96221969D01*
X170900000Y-96238072D01*
X171300000Y-96238072D01*
X171463500Y-96221969D01*
X171620716Y-96174278D01*
X171725000Y-96118537D01*
X171829284Y-96174278D01*
X171986500Y-96221969D01*
X172150000Y-96238072D01*
X172550000Y-96238072D01*
X172713500Y-96221969D01*
X172870716Y-96174278D01*
X172975000Y-96118537D01*
X173079284Y-96174278D01*
X173236500Y-96221969D01*
X173400000Y-96238072D01*
X173800000Y-96238072D01*
X173963500Y-96221969D01*
X174120716Y-96174278D01*
X174225000Y-96118537D01*
X174329284Y-96174278D01*
X174486500Y-96221969D01*
X174650000Y-96238072D01*
X175050000Y-96238072D01*
X175213500Y-96221969D01*
X175370716Y-96174278D01*
X175475000Y-96118537D01*
X175579284Y-96174278D01*
X175736500Y-96221969D01*
X175900000Y-96238072D01*
X176300000Y-96238072D01*
X176463500Y-96221969D01*
X176620716Y-96174278D01*
X176725000Y-96118537D01*
X176829284Y-96174278D01*
X176986500Y-96221969D01*
X177150000Y-96238072D01*
X177550000Y-96238072D01*
X177713500Y-96221969D01*
X177870716Y-96174278D01*
X177975000Y-96118537D01*
X178079284Y-96174278D01*
X178236500Y-96221969D01*
X178400000Y-96238072D01*
X178800000Y-96238072D01*
X178963500Y-96221969D01*
X179120716Y-96174278D01*
X179265608Y-96096831D01*
X179392606Y-95992606D01*
X179496831Y-95865608D01*
X179574278Y-95720716D01*
X179621969Y-95563500D01*
X179638072Y-95400000D01*
X179638072Y-94500000D01*
X179621969Y-94336500D01*
X179574278Y-94179284D01*
X179496831Y-94034392D01*
X179392606Y-93907394D01*
X179265608Y-93803169D01*
X179120716Y-93725722D01*
X179091732Y-93716930D01*
X170379804Y-85005003D01*
X170356001Y-84975999D01*
X170240276Y-84881026D01*
X170108247Y-84810454D01*
X169964986Y-84766997D01*
X169853333Y-84756000D01*
X169853322Y-84756000D01*
X169816000Y-84752324D01*
X169778678Y-84756000D01*
X169280071Y-84756000D01*
X169172405Y-84594866D01*
X168971134Y-84393595D01*
X168750243Y-84246000D01*
X168971134Y-84098405D01*
X169172405Y-83897134D01*
X169330543Y-83660464D01*
X169439470Y-83397491D01*
X169495000Y-83118320D01*
X169495000Y-82833680D01*
X169439470Y-82554509D01*
X169330543Y-82291536D01*
X169172405Y-82054866D01*
X168971134Y-81853595D01*
X168750243Y-81706000D01*
X168971134Y-81558405D01*
X169172405Y-81357134D01*
X169330543Y-81120464D01*
X169439470Y-80857491D01*
X169495000Y-80578320D01*
X169495000Y-80293680D01*
X169439470Y-80014509D01*
X169330543Y-79751536D01*
X169172405Y-79514866D01*
X168971134Y-79313595D01*
X168734464Y-79155457D01*
X168471491Y-79046530D01*
X168192320Y-78991000D01*
X167907680Y-78991000D01*
X167628509Y-79046530D01*
X167365536Y-79155457D01*
X167128866Y-79313595D01*
X166927595Y-79514866D01*
X166780000Y-79735757D01*
X166632405Y-79514866D01*
X166431134Y-79313595D01*
X166194464Y-79155457D01*
X165931491Y-79046530D01*
X165652320Y-78991000D01*
X165367680Y-78991000D01*
X165088509Y-79046530D01*
X164825536Y-79155457D01*
X164588866Y-79313595D01*
X164387595Y-79514866D01*
X164240000Y-79735757D01*
X164092405Y-79514866D01*
X163891134Y-79313595D01*
X163654464Y-79155457D01*
X163391491Y-79046530D01*
X163112320Y-78991000D01*
X162827680Y-78991000D01*
X162548509Y-79046530D01*
X162285536Y-79155457D01*
X162048866Y-79313595D01*
X161847595Y-79514866D01*
X161700000Y-79735757D01*
X161552405Y-79514866D01*
X161351134Y-79313595D01*
X161114464Y-79155457D01*
X160851491Y-79046530D01*
X160572320Y-78991000D01*
X160287680Y-78991000D01*
X160008509Y-79046530D01*
X159745536Y-79155457D01*
X159508866Y-79313595D01*
X159307595Y-79514866D01*
X159160000Y-79735757D01*
X159012405Y-79514866D01*
X158811134Y-79313595D01*
X158574464Y-79155457D01*
X158311491Y-79046530D01*
X158032320Y-78991000D01*
X157747680Y-78991000D01*
X157468509Y-79046530D01*
X157205536Y-79155457D01*
X156968866Y-79313595D01*
X156767595Y-79514866D01*
X156620000Y-79735757D01*
X156472405Y-79514866D01*
X156271134Y-79313595D01*
X156034464Y-79155457D01*
X155771491Y-79046530D01*
X155492320Y-78991000D01*
X155207680Y-78991000D01*
X154928509Y-79046530D01*
X154665536Y-79155457D01*
X154428866Y-79313595D01*
X154227595Y-79514866D01*
X154080000Y-79735757D01*
X153932405Y-79514866D01*
X153731134Y-79313595D01*
X153494464Y-79155457D01*
X153231491Y-79046530D01*
X152952320Y-78991000D01*
X152667680Y-78991000D01*
X152388509Y-79046530D01*
X152125536Y-79155457D01*
X151888866Y-79313595D01*
X151687595Y-79514866D01*
X151540000Y-79735757D01*
X151392405Y-79514866D01*
X151191134Y-79313595D01*
X150954464Y-79155457D01*
X150691491Y-79046530D01*
X150412320Y-78991000D01*
X150127680Y-78991000D01*
X149848509Y-79046530D01*
X149585536Y-79155457D01*
X149348866Y-79313595D01*
X149147595Y-79514866D01*
X149000000Y-79735757D01*
X148852405Y-79514866D01*
X148651134Y-79313595D01*
X148414464Y-79155457D01*
X148151491Y-79046530D01*
X147872320Y-78991000D01*
X147587680Y-78991000D01*
X147308509Y-79046530D01*
X147045536Y-79155457D01*
X146808866Y-79313595D01*
X146607595Y-79514866D01*
X146460000Y-79735757D01*
X146312405Y-79514866D01*
X146111134Y-79313595D01*
X145874464Y-79155457D01*
X145611491Y-79046530D01*
X145332320Y-78991000D01*
X145047680Y-78991000D01*
X144768509Y-79046530D01*
X144505536Y-79155457D01*
X144268866Y-79313595D01*
X144067595Y-79514866D01*
X143920000Y-79735757D01*
X143772405Y-79514866D01*
X143571134Y-79313595D01*
X143334464Y-79155457D01*
X143071491Y-79046530D01*
X142792320Y-78991000D01*
X142507680Y-78991000D01*
X142228509Y-79046530D01*
X141965536Y-79155457D01*
X141728866Y-79313595D01*
X141527595Y-79514866D01*
X141380000Y-79735757D01*
X141232405Y-79514866D01*
X141031134Y-79313595D01*
X140794464Y-79155457D01*
X140531491Y-79046530D01*
X140252320Y-78991000D01*
X139967680Y-78991000D01*
X139688509Y-79046530D01*
X139425536Y-79155457D01*
X139188866Y-79313595D01*
X138987595Y-79514866D01*
X138840000Y-79735757D01*
X138692405Y-79514866D01*
X138491134Y-79313595D01*
X138254464Y-79155457D01*
X137991491Y-79046530D01*
X137712320Y-78991000D01*
X137427680Y-78991000D01*
X137148509Y-79046530D01*
X136885536Y-79155457D01*
X136648866Y-79313595D01*
X136447595Y-79514866D01*
X136300000Y-79735757D01*
X136152405Y-79514866D01*
X135951134Y-79313595D01*
X135714464Y-79155457D01*
X135451491Y-79046530D01*
X135172320Y-78991000D01*
X134887680Y-78991000D01*
X134608509Y-79046530D01*
X134345536Y-79155457D01*
X134108866Y-79313595D01*
X133907595Y-79514866D01*
X133760000Y-79735757D01*
X133612405Y-79514866D01*
X133411134Y-79313595D01*
X133174464Y-79155457D01*
X132911491Y-79046530D01*
X132632320Y-78991000D01*
X132347680Y-78991000D01*
X132068509Y-79046530D01*
X131805536Y-79155457D01*
X131568866Y-79313595D01*
X131367595Y-79514866D01*
X131220000Y-79735757D01*
X131072405Y-79514866D01*
X130871134Y-79313595D01*
X130634464Y-79155457D01*
X130371491Y-79046530D01*
X130092320Y-78991000D01*
X129807680Y-78991000D01*
X129528509Y-79046530D01*
X129265536Y-79155457D01*
X129028866Y-79313595D01*
X128827595Y-79514866D01*
X128680000Y-79735757D01*
X128532405Y-79514866D01*
X128331134Y-79313595D01*
X128094464Y-79155457D01*
X127831491Y-79046530D01*
X127552320Y-78991000D01*
X127267680Y-78991000D01*
X126988509Y-79046530D01*
X126725536Y-79155457D01*
X126488866Y-79313595D01*
X126287595Y-79514866D01*
X126140000Y-79735757D01*
X125992405Y-79514866D01*
X125791134Y-79313595D01*
X125554464Y-79155457D01*
X125291491Y-79046530D01*
X125012320Y-78991000D01*
X124727680Y-78991000D01*
X124448509Y-79046530D01*
X124185536Y-79155457D01*
X123948866Y-79313595D01*
X123747595Y-79514866D01*
X123600000Y-79735757D01*
X123452405Y-79514866D01*
X123251134Y-79313595D01*
X123014464Y-79155457D01*
X122751491Y-79046530D01*
X122472320Y-78991000D01*
X122187680Y-78991000D01*
X121908509Y-79046530D01*
X121645536Y-79155457D01*
X121408866Y-79313595D01*
X121207595Y-79514866D01*
X121060000Y-79735757D01*
X120912405Y-79514866D01*
X120711134Y-79313595D01*
X120474464Y-79155457D01*
X120211491Y-79046530D01*
X119932320Y-78991000D01*
X119647680Y-78991000D01*
X119368509Y-79046530D01*
X119105536Y-79155457D01*
X118868866Y-79313595D01*
X118667595Y-79514866D01*
X118520000Y-79735757D01*
X118372405Y-79514866D01*
X118171134Y-79313595D01*
X117934464Y-79155457D01*
X117671491Y-79046530D01*
X117392320Y-78991000D01*
X117107680Y-78991000D01*
X116828509Y-79046530D01*
X116565536Y-79155457D01*
X116328866Y-79313595D01*
X116127595Y-79514866D01*
X115980000Y-79735757D01*
X115832405Y-79514866D01*
X115631134Y-79313595D01*
X115394464Y-79155457D01*
X115131491Y-79046530D01*
X114852320Y-78991000D01*
X114567680Y-78991000D01*
X114288509Y-79046530D01*
X114025536Y-79155457D01*
X113788866Y-79313595D01*
X113587595Y-79514866D01*
X113440000Y-79735757D01*
X113292405Y-79514866D01*
X113091134Y-79313595D01*
X112854464Y-79155457D01*
X112591491Y-79046530D01*
X112312320Y-78991000D01*
X112027680Y-78991000D01*
X111748509Y-79046530D01*
X111485536Y-79155457D01*
X111248866Y-79313595D01*
X111047595Y-79514866D01*
X110900000Y-79735757D01*
X110752405Y-79514866D01*
X110551134Y-79313595D01*
X110314464Y-79155457D01*
X110051491Y-79046530D01*
X109772320Y-78991000D01*
X109487680Y-78991000D01*
X109208509Y-79046530D01*
X108945536Y-79155457D01*
X108708866Y-79313595D01*
X108507595Y-79514866D01*
X108360000Y-79735757D01*
X108212405Y-79514866D01*
X108011134Y-79313595D01*
X107774464Y-79155457D01*
X107511491Y-79046530D01*
X107232320Y-78991000D01*
X106947680Y-78991000D01*
X106668509Y-79046530D01*
X106405536Y-79155457D01*
X106168866Y-79313595D01*
X105967595Y-79514866D01*
X105820000Y-79735757D01*
X105672405Y-79514866D01*
X105471134Y-79313595D01*
X105234464Y-79155457D01*
X104971491Y-79046530D01*
X104692320Y-78991000D01*
X104407680Y-78991000D01*
X104128509Y-79046530D01*
X103865536Y-79155457D01*
X103628866Y-79313595D01*
X103427595Y-79514866D01*
X103269457Y-79751536D01*
X103160530Y-80014509D01*
X103105000Y-80293680D01*
X103105000Y-80578320D01*
X103160530Y-80857491D01*
X103269457Y-81120464D01*
X103427595Y-81357134D01*
X103628866Y-81558405D01*
X103849757Y-81706000D01*
X103628866Y-81853595D01*
X103427595Y-82054866D01*
X103269457Y-82291536D01*
X103160530Y-82554509D01*
X103105000Y-82833680D01*
X103105000Y-83118320D01*
X103160530Y-83397491D01*
X103269457Y-83660464D01*
X103427595Y-83897134D01*
X103628866Y-84098405D01*
X103849757Y-84246000D01*
X103628866Y-84393595D01*
X103427595Y-84594866D01*
X103269457Y-84831536D01*
X103160530Y-85094509D01*
X103105000Y-85373680D01*
X103105000Y-85658320D01*
X103160530Y-85937491D01*
X103269457Y-86200464D01*
X103427595Y-86437134D01*
X103628866Y-86638405D01*
X103849757Y-86786000D01*
X103628866Y-86933595D01*
X103427595Y-87134866D01*
X103319929Y-87296000D01*
X100281322Y-87296000D01*
X100243999Y-87292324D01*
X100206676Y-87296000D01*
X100206667Y-87296000D01*
X100095014Y-87306997D01*
X99951753Y-87350454D01*
X99819724Y-87421026D01*
X99807604Y-87430973D01*
X99732996Y-87492201D01*
X99732992Y-87492205D01*
X99703999Y-87515999D01*
X99680205Y-87544992D01*
X93508270Y-93716929D01*
X93479284Y-93725722D01*
X93334392Y-93803169D01*
X93207394Y-93907394D01*
X93103169Y-94034392D01*
X93025722Y-94179284D01*
X92978031Y-94336500D01*
X92961928Y-94500000D01*
X90610000Y-94500000D01*
X90610000Y-88146000D01*
X96425123Y-88146000D01*
X96460000Y-88149435D01*
X96494877Y-88146000D01*
X96510575Y-88144454D01*
X96599184Y-88135727D01*
X96733020Y-88095128D01*
X96856363Y-88029200D01*
X96964475Y-87940475D01*
X97053200Y-87832363D01*
X97119128Y-87709020D01*
X97159727Y-87575184D01*
X97170000Y-87470877D01*
X97173435Y-87436000D01*
X97170000Y-87401123D01*
X97170000Y-82905608D01*
X97258678Y-82816930D01*
X97564859Y-83260503D01*
X98152306Y-83575954D01*
X98790008Y-83770740D01*
X99453457Y-83837372D01*
X100117158Y-83773292D01*
X100755605Y-83580962D01*
X101344262Y-83267772D01*
X101355141Y-83260503D01*
X101661323Y-82816928D01*
X99460000Y-80615605D01*
X99445858Y-80629748D01*
X99266253Y-80450143D01*
X99280395Y-80436000D01*
X99266253Y-80421858D01*
X99445858Y-80242253D01*
X99460000Y-80256395D01*
X99474143Y-80242253D01*
X99653748Y-80421858D01*
X99639605Y-80436000D01*
X101840928Y-82637323D01*
X102284503Y-82331141D01*
X102599954Y-81743694D01*
X102794740Y-81105992D01*
X102861372Y-80442543D01*
X102797292Y-79778842D01*
X102604962Y-79140395D01*
X102291772Y-78551738D01*
X102284503Y-78540859D01*
X101840930Y-78234678D01*
X101929608Y-78146000D01*
X170670392Y-78146000D01*
X170759070Y-78234678D01*
%TD*%
M02*
