M48
; DRILL file {KiCad 5.1.6-1.fc32} date Thu Sep 17 12:19:17 2020
; FORMAT={2:4/ absolute / inch / suppress leading zeros}
; #@! TF.CreationDate,2020-09-17T12:19:17-03:00
; #@! TF.GenerationSoftware,Kicad,Pcbnew,5.1.6-1.fc32
; #@! TF.FileFunction,Plated,1,4,PTH
FMAT,2
INCH,TZ
T1C0.0157
T2C0.0402
T3C0.1260
%
G90
G05
T1
X41030Y-38589
X44217Y-33458
X44297Y-34418
X44304Y-35277
X44318Y-32337
X45642Y-34132
X46854Y-29818
X46866Y-31025
X47066Y-30488
X47113Y-32921
X47717Y-28665
X47721Y-29287
X48189Y-32225
X48239Y-27570
X48429Y-35138
X48806Y-33959
X52256Y-32773
X52291Y-31930
X52302Y-33607
X52302Y-35708
X52374Y-31071
X52381Y-34007
X52485Y-34406
X52862Y-31776
X53247Y-27570
X53452Y-35529
X53719Y-28922
X54647Y-30646
X55082Y-31348
X55365Y-32947
X56453Y-33579
X56496Y-34136
X56792Y-30718
X59559Y-32873
X59561Y-34322
X59736Y-30163
X59777Y-33764
X59787Y-29528
X59878Y-31910
X59981Y-32363
X60583Y-29601
X60680Y-26303
X61034Y-33946
X61094Y-27164
X61250Y-31616
X61644Y-30622
X62049Y-33509
X62402Y-35708
X62486Y-33661
X62604Y-30628
X63216Y-27024
X66301Y-25616
X66629Y-33903
X66790Y-35241
X66831Y-32289
X67084Y-26094
X67313Y-26700
X67840Y-30366
X67863Y-27276
X67927Y-31135
X68204Y-29845
X69819Y-34280
X70235Y-32410
X70374Y-34472
X70862Y-33595
X73419Y-38589
T2
X44980Y-21707
X44980Y-22707
X45980Y-21707
X45980Y-22707
X46980Y-21707
X46980Y-22707
X47980Y-21707
X47980Y-22707
X48980Y-21707
X48980Y-22707
X49980Y-21707
X49980Y-22707
X50980Y-21707
X50980Y-22707
X51980Y-21707
X51980Y-22707
X52980Y-21707
X52980Y-22707
X53980Y-21707
X53980Y-22707
X54980Y-21707
X54980Y-22707
X55980Y-21707
X55980Y-22707
X56980Y-21707
X56980Y-22707
X57980Y-21707
X57980Y-22707
X58980Y-21707
X58980Y-22707
X59980Y-21707
X59980Y-22707
X60980Y-21707
X60980Y-22707
X61980Y-21707
X61980Y-22707
X62980Y-21707
X62980Y-22707
X63980Y-21707
X63980Y-22707
X64980Y-21707
X64980Y-22707
X65980Y-21707
X65980Y-22707
X66980Y-21707
X66980Y-22707
X67980Y-21707
X67980Y-22707
X68980Y-21707
X68980Y-22707
X69980Y-21707
X69980Y-22707
X44980Y-23707
X44980Y-24707
X45980Y-23707
X45980Y-24707
X46980Y-23707
X46980Y-24707
X47980Y-23707
X47980Y-24707
X48980Y-23707
X48980Y-24707
X49980Y-23707
X49980Y-24707
X50980Y-23707
X50980Y-24707
X51980Y-23707
X51980Y-24707
X52980Y-23707
X52980Y-24707
X53980Y-23707
X53980Y-24707
X54980Y-23707
X54980Y-24707
X55980Y-23707
X55980Y-24707
X56980Y-23707
X56980Y-24707
X57980Y-23707
X57980Y-24707
X58980Y-23707
X58980Y-24707
X59980Y-23707
X59980Y-24707
X60980Y-23707
X60980Y-24707
X61980Y-23707
X61980Y-24707
X62980Y-23707
X62980Y-24707
X63980Y-23707
X63980Y-24707
X64980Y-23707
X64980Y-24707
X65980Y-23707
X65980Y-24707
X66980Y-23707
X66980Y-24707
X67980Y-23707
X67980Y-24707
X68980Y-23707
X68980Y-24707
X69980Y-23707
X69980Y-24707
T3
X42976Y-21707
X72988Y-55459
X41476Y-55459
X71984Y-21707
T0
M30
