%TF.GenerationSoftware,KiCad,Pcbnew,5.1.6-1.fc32*%
%TF.CreationDate,2020-07-10T21:32:06-03:00*%
%TF.ProjectId,pc104-adapter-top,70633130-342d-4616-9461-707465722d74,v1.0*%
%TF.SameCoordinates,Original*%
%TF.FileFunction,Legend,Top*%
%TF.FilePolarity,Positive*%
%FSLAX46Y46*%
G04 Gerber Fmt 4.6, Leading zero omitted, Abs format (unit mm)*
G04 Created by KiCad (PCBNEW 5.1.6-1.fc32) date 2020-07-10 21:32:06*
%MOMM*%
%LPD*%
G01*
G04 APERTURE LIST*
%ADD10C,0.160000*%
%ADD11C,0.010000*%
%ADD12C,0.150000*%
G04 APERTURE END LIST*
D10*
X126614285Y-104952380D02*
X126614285Y-103952380D01*
X126995238Y-103952380D01*
X127090476Y-104000000D01*
X127138095Y-104047619D01*
X127185714Y-104142857D01*
X127185714Y-104285714D01*
X127138095Y-104380952D01*
X127090476Y-104428571D01*
X126995238Y-104476190D01*
X126614285Y-104476190D01*
X128185714Y-104857142D02*
X128138095Y-104904761D01*
X127995238Y-104952380D01*
X127900000Y-104952380D01*
X127757142Y-104904761D01*
X127661904Y-104809523D01*
X127614285Y-104714285D01*
X127566666Y-104523809D01*
X127566666Y-104380952D01*
X127614285Y-104190476D01*
X127661904Y-104095238D01*
X127757142Y-104000000D01*
X127900000Y-103952380D01*
X127995238Y-103952380D01*
X128138095Y-104000000D01*
X128185714Y-104047619D01*
X128614285Y-104571428D02*
X129376190Y-104571428D01*
X130376190Y-104952380D02*
X129804761Y-104952380D01*
X130090476Y-104952380D02*
X130090476Y-103952380D01*
X129995238Y-104095238D01*
X129900000Y-104190476D01*
X129804761Y-104238095D01*
X130995238Y-103952380D02*
X131090476Y-103952380D01*
X131185714Y-104000000D01*
X131233333Y-104047619D01*
X131280952Y-104142857D01*
X131328571Y-104333333D01*
X131328571Y-104571428D01*
X131280952Y-104761904D01*
X131233333Y-104857142D01*
X131185714Y-104904761D01*
X131090476Y-104952380D01*
X130995238Y-104952380D01*
X130900000Y-104904761D01*
X130852380Y-104857142D01*
X130804761Y-104761904D01*
X130757142Y-104571428D01*
X130757142Y-104333333D01*
X130804761Y-104142857D01*
X130852380Y-104047619D01*
X130900000Y-104000000D01*
X130995238Y-103952380D01*
X132185714Y-104285714D02*
X132185714Y-104952380D01*
X131947619Y-103904761D02*
X131709523Y-104619047D01*
X132328571Y-104619047D01*
X133423809Y-104666666D02*
X133900000Y-104666666D01*
X133328571Y-104952380D02*
X133661904Y-103952380D01*
X133995238Y-104952380D01*
X134757142Y-104952380D02*
X134757142Y-103952380D01*
X134757142Y-104904761D02*
X134661904Y-104952380D01*
X134471428Y-104952380D01*
X134376190Y-104904761D01*
X134328571Y-104857142D01*
X134280952Y-104761904D01*
X134280952Y-104476190D01*
X134328571Y-104380952D01*
X134376190Y-104333333D01*
X134471428Y-104285714D01*
X134661904Y-104285714D01*
X134757142Y-104333333D01*
X135661904Y-104952380D02*
X135661904Y-104428571D01*
X135614285Y-104333333D01*
X135519047Y-104285714D01*
X135328571Y-104285714D01*
X135233333Y-104333333D01*
X135661904Y-104904761D02*
X135566666Y-104952380D01*
X135328571Y-104952380D01*
X135233333Y-104904761D01*
X135185714Y-104809523D01*
X135185714Y-104714285D01*
X135233333Y-104619047D01*
X135328571Y-104571428D01*
X135566666Y-104571428D01*
X135661904Y-104523809D01*
X136138095Y-104285714D02*
X136138095Y-105285714D01*
X136138095Y-104333333D02*
X136233333Y-104285714D01*
X136423809Y-104285714D01*
X136519047Y-104333333D01*
X136566666Y-104380952D01*
X136614285Y-104476190D01*
X136614285Y-104761904D01*
X136566666Y-104857142D01*
X136519047Y-104904761D01*
X136423809Y-104952380D01*
X136233333Y-104952380D01*
X136138095Y-104904761D01*
X136900000Y-104285714D02*
X137280952Y-104285714D01*
X137042857Y-103952380D02*
X137042857Y-104809523D01*
X137090476Y-104904761D01*
X137185714Y-104952380D01*
X137280952Y-104952380D01*
X137995238Y-104904761D02*
X137900000Y-104952380D01*
X137709523Y-104952380D01*
X137614285Y-104904761D01*
X137566666Y-104809523D01*
X137566666Y-104428571D01*
X137614285Y-104333333D01*
X137709523Y-104285714D01*
X137900000Y-104285714D01*
X137995238Y-104333333D01*
X138042857Y-104428571D01*
X138042857Y-104523809D01*
X137566666Y-104619047D01*
X138471428Y-104952380D02*
X138471428Y-104285714D01*
X138471428Y-104476190D02*
X138519047Y-104380952D01*
X138566666Y-104333333D01*
X138661904Y-104285714D01*
X138757142Y-104285714D01*
X140138095Y-105333333D02*
X140090476Y-105285714D01*
X139995238Y-105142857D01*
X139947619Y-105047619D01*
X139900000Y-104904761D01*
X139852380Y-104666666D01*
X139852380Y-104476190D01*
X139900000Y-104238095D01*
X139947619Y-104095238D01*
X139995238Y-104000000D01*
X140090476Y-103857142D01*
X140138095Y-103809523D01*
X140376190Y-103952380D02*
X140947619Y-103952380D01*
X140661904Y-104952380D02*
X140661904Y-103952380D01*
X141423809Y-104952380D02*
X141328571Y-104904761D01*
X141280952Y-104857142D01*
X141233333Y-104761904D01*
X141233333Y-104476190D01*
X141280952Y-104380952D01*
X141328571Y-104333333D01*
X141423809Y-104285714D01*
X141566666Y-104285714D01*
X141661904Y-104333333D01*
X141709523Y-104380952D01*
X141757142Y-104476190D01*
X141757142Y-104761904D01*
X141709523Y-104857142D01*
X141661904Y-104904761D01*
X141566666Y-104952380D01*
X141423809Y-104952380D01*
X142185714Y-104285714D02*
X142185714Y-105285714D01*
X142185714Y-104333333D02*
X142280952Y-104285714D01*
X142471428Y-104285714D01*
X142566666Y-104333333D01*
X142614285Y-104380952D01*
X142661904Y-104476190D01*
X142661904Y-104761904D01*
X142614285Y-104857142D01*
X142566666Y-104904761D01*
X142471428Y-104952380D01*
X142280952Y-104952380D01*
X142185714Y-104904761D01*
X142995238Y-105333333D02*
X143042857Y-105285714D01*
X143138095Y-105142857D01*
X143185714Y-105047619D01*
X143233333Y-104904761D01*
X143280952Y-104666666D01*
X143280952Y-104476190D01*
X143233333Y-104238095D01*
X143185714Y-104095238D01*
X143138095Y-104000000D01*
X143042857Y-103857142D01*
X142995238Y-103809523D01*
X144423809Y-104285714D02*
X144661904Y-104952380D01*
X144900000Y-104285714D01*
X145804761Y-104952380D02*
X145233333Y-104952380D01*
X145519047Y-104952380D02*
X145519047Y-103952380D01*
X145423809Y-104095238D01*
X145328571Y-104190476D01*
X145233333Y-104238095D01*
X146233333Y-104857142D02*
X146280952Y-104904761D01*
X146233333Y-104952380D01*
X146185714Y-104904761D01*
X146233333Y-104857142D01*
X146233333Y-104952380D01*
X146900000Y-103952380D02*
X146995238Y-103952380D01*
X147090476Y-104000000D01*
X147138095Y-104047619D01*
X147185714Y-104142857D01*
X147233333Y-104333333D01*
X147233333Y-104571428D01*
X147185714Y-104761904D01*
X147138095Y-104857142D01*
X147090476Y-104904761D01*
X146995238Y-104952380D01*
X146900000Y-104952380D01*
X146804761Y-104904761D01*
X146757142Y-104857142D01*
X146709523Y-104761904D01*
X146661904Y-104571428D01*
X146661904Y-104333333D01*
X146709523Y-104142857D01*
X146757142Y-104047619D01*
X146804761Y-104000000D01*
X146900000Y-103952380D01*
X169770000Y-78716000D02*
X102830000Y-78716000D01*
X169770000Y-89776000D02*
X169770000Y-78716000D01*
X102830000Y-89776000D02*
X169770000Y-89776000D01*
X102830000Y-78716000D02*
X102830000Y-89776000D01*
D11*
%TO.C,G\u002A\u002A\u002A*%
G36*
X128699599Y-101561525D02*
G01*
X128725108Y-101630789D01*
X128747951Y-101746661D01*
X128764148Y-101890195D01*
X128769560Y-102005916D01*
X128776974Y-102109987D01*
X128809601Y-102154616D01*
X128889576Y-102164970D01*
X128909583Y-102165132D01*
X129057475Y-102172695D01*
X129198216Y-102191415D01*
X129307850Y-102216793D01*
X129362422Y-102244332D01*
X129364666Y-102250575D01*
X129326030Y-102270538D01*
X129224423Y-102292362D01*
X129081300Y-102311514D01*
X129071762Y-102312488D01*
X128778857Y-102341904D01*
X128748904Y-102560202D01*
X128725776Y-102702783D01*
X128700544Y-102820594D01*
X128688864Y-102860045D01*
X128664616Y-102911491D01*
X128645833Y-102888976D01*
X128631300Y-102838878D01*
X128614134Y-102732579D01*
X128604186Y-102589860D01*
X128603244Y-102539794D01*
X128603732Y-102452449D01*
X128596259Y-102393790D01*
X128566494Y-102355394D01*
X128500111Y-102328837D01*
X128382779Y-102305693D01*
X128200170Y-102277540D01*
X128142038Y-102268639D01*
X128036003Y-102241015D01*
X128008496Y-102209126D01*
X128054333Y-102181376D01*
X128168328Y-102166167D01*
X128205791Y-102165314D01*
X128350060Y-102155998D01*
X128464780Y-102139327D01*
X128535818Y-102119319D01*
X128577000Y-102080647D01*
X128600397Y-102001343D01*
X128617966Y-101860559D01*
X128637089Y-101716548D01*
X128659354Y-101604399D01*
X128675407Y-101557815D01*
X128699599Y-101561525D01*
G37*
X128699599Y-101561525D02*
X128725108Y-101630789D01*
X128747951Y-101746661D01*
X128764148Y-101890195D01*
X128769560Y-102005916D01*
X128776974Y-102109987D01*
X128809601Y-102154616D01*
X128889576Y-102164970D01*
X128909583Y-102165132D01*
X129057475Y-102172695D01*
X129198216Y-102191415D01*
X129307850Y-102216793D01*
X129362422Y-102244332D01*
X129364666Y-102250575D01*
X129326030Y-102270538D01*
X129224423Y-102292362D01*
X129081300Y-102311514D01*
X129071762Y-102312488D01*
X128778857Y-102341904D01*
X128748904Y-102560202D01*
X128725776Y-102702783D01*
X128700544Y-102820594D01*
X128688864Y-102860045D01*
X128664616Y-102911491D01*
X128645833Y-102888976D01*
X128631300Y-102838878D01*
X128614134Y-102732579D01*
X128604186Y-102589860D01*
X128603244Y-102539794D01*
X128603732Y-102452449D01*
X128596259Y-102393790D01*
X128566494Y-102355394D01*
X128500111Y-102328837D01*
X128382779Y-102305693D01*
X128200170Y-102277540D01*
X128142038Y-102268639D01*
X128036003Y-102241015D01*
X128008496Y-102209126D01*
X128054333Y-102181376D01*
X128168328Y-102166167D01*
X128205791Y-102165314D01*
X128350060Y-102155998D01*
X128464780Y-102139327D01*
X128535818Y-102119319D01*
X128577000Y-102080647D01*
X128600397Y-102001343D01*
X128617966Y-101860559D01*
X128637089Y-101716548D01*
X128659354Y-101604399D01*
X128675407Y-101557815D01*
X128699599Y-101561525D01*
G36*
X130126666Y-95899333D02*
G01*
X128788981Y-95899333D01*
X128406005Y-95899876D01*
X128098350Y-95901790D01*
X127856675Y-95905500D01*
X127671641Y-95911431D01*
X127533905Y-95920009D01*
X127434128Y-95931658D01*
X127362968Y-95946804D01*
X127311086Y-95965873D01*
X127309319Y-95966705D01*
X127178689Y-96070426D01*
X127105559Y-96216380D01*
X127092357Y-96382493D01*
X127141511Y-96546688D01*
X127232356Y-96666600D01*
X127266108Y-96696500D01*
X127303089Y-96720001D01*
X127353559Y-96738097D01*
X127427778Y-96751780D01*
X127536006Y-96762045D01*
X127688503Y-96769884D01*
X127895531Y-96776292D01*
X128167347Y-96782261D01*
X128489577Y-96788333D01*
X128831912Y-96794843D01*
X129100553Y-96800977D01*
X129306459Y-96807773D01*
X129460591Y-96816273D01*
X129573908Y-96827514D01*
X129657371Y-96842536D01*
X129721939Y-96862379D01*
X129778574Y-96888082D01*
X129828694Y-96915333D01*
X130040513Y-97080063D01*
X130189864Y-97298774D01*
X130273720Y-97565153D01*
X130289052Y-97872888D01*
X130288929Y-97874877D01*
X130281319Y-98000133D01*
X130276731Y-98082139D01*
X130276054Y-98100724D01*
X130312504Y-98085566D01*
X130407868Y-98045499D01*
X130543060Y-97988546D01*
X130572387Y-97976177D01*
X130867500Y-97851687D01*
X130884394Y-95899333D01*
X131523666Y-95899333D01*
X131523666Y-96548444D01*
X131525418Y-96774796D01*
X131530249Y-96970543D01*
X131537519Y-97120363D01*
X131546591Y-97208932D01*
X131551888Y-97225777D01*
X131602421Y-97236248D01*
X131721219Y-97245246D01*
X131891881Y-97251954D01*
X132098009Y-97255553D01*
X132155138Y-97255878D01*
X132404135Y-97254097D01*
X132612191Y-97244801D01*
X132807641Y-97224794D01*
X133018817Y-97190881D01*
X133274051Y-97139864D01*
X133374793Y-97118294D01*
X133619196Y-97064794D01*
X133793916Y-97023670D01*
X133912127Y-96989895D01*
X133987007Y-96958444D01*
X134031729Y-96924290D01*
X134059470Y-96882407D01*
X134073293Y-96851833D01*
X134116681Y-96668629D01*
X134116302Y-96458183D01*
X134073796Y-96263760D01*
X134048833Y-96206665D01*
X133961345Y-96095818D01*
X133836591Y-95998849D01*
X133810480Y-95984415D01*
X133753066Y-95957963D01*
X133689908Y-95937613D01*
X133609591Y-95922575D01*
X133500699Y-95912056D01*
X133351813Y-95905264D01*
X133151519Y-95901408D01*
X132888398Y-95899695D01*
X132583686Y-95899333D01*
X131523666Y-95899333D01*
X130884394Y-95899333D01*
X130889890Y-95264333D01*
X132299761Y-95264333D01*
X132722849Y-95265027D01*
X133070831Y-95267909D01*
X133353263Y-95274173D01*
X133579698Y-95285018D01*
X133759693Y-95301639D01*
X133902802Y-95325234D01*
X134018580Y-95357000D01*
X134116582Y-95398132D01*
X134206363Y-95449827D01*
X134297478Y-95513283D01*
X134299524Y-95514786D01*
X134418949Y-95626619D01*
X134536991Y-95774854D01*
X134593472Y-95865439D01*
X134658282Y-95998982D01*
X134698643Y-96128650D01*
X134721904Y-96285649D01*
X134733545Y-96460250D01*
X134741405Y-96632661D01*
X134755289Y-96744223D01*
X134790402Y-96805224D01*
X134861951Y-96825952D01*
X134985145Y-96816696D01*
X135175188Y-96787743D01*
X135209761Y-96782434D01*
X135530355Y-96733643D01*
X135568757Y-96630672D01*
X136219000Y-96630672D01*
X136379583Y-96604135D01*
X136516525Y-96585861D01*
X136636436Y-96576674D01*
X136646000Y-96576484D01*
X136759709Y-96565305D01*
X136815611Y-96525333D01*
X136819030Y-96442352D01*
X136775292Y-96302147D01*
X136761850Y-96267251D01*
X136682392Y-96106107D01*
X136599157Y-96010116D01*
X136519773Y-95986062D01*
X136474473Y-96011593D01*
X136442722Y-96066755D01*
X136392657Y-96178508D01*
X136334556Y-96323749D01*
X136328735Y-96339134D01*
X136219000Y-96630672D01*
X135568757Y-96630672D01*
X135731726Y-96193690D01*
X135843590Y-95911750D01*
X135946289Y-95702113D01*
X136050137Y-95554687D01*
X136165450Y-95459379D01*
X136302540Y-95406095D01*
X136471724Y-95384745D01*
X136560376Y-95382866D01*
X136812694Y-95411542D01*
X137009490Y-95495796D01*
X137131185Y-95613341D01*
X137177331Y-95696866D01*
X137240592Y-95834194D01*
X137309271Y-95999514D01*
X137327954Y-96047500D01*
X137390640Y-96205563D01*
X137445098Y-96332957D01*
X137482339Y-96408999D01*
X137489738Y-96419756D01*
X137543275Y-96429436D01*
X137660005Y-96427315D01*
X137819395Y-96414178D01*
X137908385Y-96403760D01*
X138295026Y-96354176D01*
X138418898Y-96137338D01*
X138639513Y-95833737D01*
X138916616Y-95589572D01*
X139240327Y-95411845D01*
X139585358Y-95310309D01*
X139699480Y-95297232D01*
X139882720Y-95285602D01*
X140119535Y-95275976D01*
X140394379Y-95268912D01*
X140691709Y-95264970D01*
X140865941Y-95264333D01*
X141895333Y-95264333D01*
X141895333Y-95899333D01*
X140865850Y-95899333D01*
X140481794Y-95901213D01*
X140171721Y-95907996D01*
X139925008Y-95921393D01*
X139731032Y-95943115D01*
X139579168Y-95974874D01*
X139458795Y-96018383D01*
X139359287Y-96075352D01*
X139270023Y-96147493D01*
X139258334Y-96158340D01*
X139122500Y-96286029D01*
X139461166Y-96261480D01*
X139740890Y-96242513D01*
X140083789Y-96221337D01*
X140468436Y-96199133D01*
X140873408Y-96177080D01*
X141277281Y-96156361D01*
X141658628Y-96138154D01*
X141863583Y-96129103D01*
X142530333Y-96100742D01*
X142530333Y-95264333D01*
X145747666Y-95264333D01*
X145747666Y-95899333D01*
X143165333Y-95899333D01*
X143165333Y-96097984D01*
X144572916Y-96125095D01*
X145096634Y-96136631D01*
X145543809Y-96149879D01*
X145922555Y-96165427D01*
X146240988Y-96183865D01*
X146507224Y-96205782D01*
X146729377Y-96231766D01*
X146915564Y-96262406D01*
X147073899Y-96298291D01*
X147115030Y-96309553D01*
X147377500Y-96384301D01*
X147187000Y-96413846D01*
X147070549Y-96425528D01*
X146893293Y-96435640D01*
X146679091Y-96443117D01*
X146451800Y-96446893D01*
X146446166Y-96446931D01*
X146201122Y-96450641D01*
X145889732Y-96458643D01*
X145530167Y-96470220D01*
X145140599Y-96484653D01*
X144739199Y-96501222D01*
X144344139Y-96519210D01*
X143973591Y-96537898D01*
X143645726Y-96556568D01*
X143596988Y-96559597D01*
X143401466Y-96572953D01*
X143275858Y-96586062D01*
X143205522Y-96602990D01*
X143175815Y-96627802D01*
X143172094Y-96664563D01*
X143173655Y-96677127D01*
X143179323Y-96703213D01*
X143194169Y-96723802D01*
X143227407Y-96739651D01*
X143288248Y-96751520D01*
X143385904Y-96760168D01*
X143529589Y-96766351D01*
X143728514Y-96770830D01*
X143991892Y-96774363D01*
X144328935Y-96777708D01*
X144403583Y-96778399D01*
X145620666Y-96789631D01*
X145620666Y-97296333D01*
X143165333Y-97296333D01*
X143165333Y-98227666D01*
X145747666Y-98227666D01*
X145747666Y-98862666D01*
X142530333Y-98862666D01*
X142530333Y-96614795D01*
X142286916Y-96638777D01*
X142165858Y-96649981D01*
X141979116Y-96666375D01*
X141745403Y-96686355D01*
X141483429Y-96708321D01*
X141239166Y-96728447D01*
X140917072Y-96756173D01*
X140558321Y-96789389D01*
X140197126Y-96824785D01*
X139867702Y-96859051D01*
X139715223Y-96875901D01*
X139473036Y-96902943D01*
X139256649Y-96926211D01*
X139081605Y-96944103D01*
X138963445Y-96955020D01*
X138921473Y-96957666D01*
X138875756Y-96973302D01*
X138853409Y-97033278D01*
X138847338Y-97157199D01*
X138847333Y-97162571D01*
X138875943Y-97357460D01*
X138952009Y-97572923D01*
X139060889Y-97778355D01*
X139187937Y-97943148D01*
X139245423Y-97994593D01*
X139339855Y-98061912D01*
X139434012Y-98114962D01*
X139539217Y-98155418D01*
X139666795Y-98184956D01*
X139828069Y-98205250D01*
X140034365Y-98217975D01*
X140297006Y-98224806D01*
X140627317Y-98227418D01*
X140821155Y-98227666D01*
X141895333Y-98227666D01*
X141895333Y-98867502D01*
X140697046Y-98854501D01*
X139498758Y-98841500D01*
X139175811Y-98681804D01*
X138857505Y-98480102D01*
X138595497Y-98222007D01*
X138396939Y-97917617D01*
X138268986Y-97577026D01*
X138227283Y-97343101D01*
X138199277Y-97075149D01*
X137993207Y-97094949D01*
X137869814Y-97110017D01*
X137786456Y-97126201D01*
X137768216Y-97133671D01*
X137776766Y-97177156D01*
X137811723Y-97287220D01*
X137868793Y-97451540D01*
X137943679Y-97657794D01*
X138032086Y-97893656D01*
X138044314Y-97925761D01*
X138135384Y-98166371D01*
X138215041Y-98380534D01*
X138278646Y-98555470D01*
X138321560Y-98678402D01*
X138339144Y-98736551D01*
X138339333Y-98738464D01*
X138300488Y-98757482D01*
X138197842Y-98771493D01*
X138052227Y-98777865D01*
X138026362Y-98778000D01*
X137859352Y-98774625D01*
X137758363Y-98761832D01*
X137704921Y-98735616D01*
X137684609Y-98703916D01*
X137660565Y-98641026D01*
X137612174Y-98513695D01*
X137545035Y-98336678D01*
X137464743Y-98124731D01*
X137399555Y-97952500D01*
X137313836Y-97728467D01*
X137237154Y-97532793D01*
X137174938Y-97378957D01*
X137132616Y-97280437D01*
X137116892Y-97250649D01*
X137067962Y-97249162D01*
X136951614Y-97261844D01*
X136783507Y-97286544D01*
X136579301Y-97321106D01*
X136501217Y-97335316D01*
X135911935Y-97444500D01*
X135658825Y-98111250D01*
X135405714Y-98778000D01*
X135094524Y-98778000D01*
X134918840Y-98772911D01*
X134818561Y-98756654D01*
X134784983Y-98727739D01*
X134784909Y-98725083D01*
X134800100Y-98667701D01*
X134840577Y-98547925D01*
X134900546Y-98382116D01*
X134974214Y-98186638D01*
X134991017Y-98143000D01*
X135065306Y-97947600D01*
X135125696Y-97782595D01*
X135166908Y-97662890D01*
X135183664Y-97603387D01*
X135183432Y-97599685D01*
X135136254Y-97601276D01*
X135018852Y-97623660D01*
X134842270Y-97663879D01*
X134617552Y-97718975D01*
X134355743Y-97785991D01*
X134067886Y-97861970D01*
X133765024Y-97943954D01*
X133458202Y-98028986D01*
X133158464Y-98114109D01*
X132876853Y-98196365D01*
X132624414Y-98272797D01*
X132412191Y-98340448D01*
X132391500Y-98347318D01*
X132109945Y-98441731D01*
X131898581Y-98514541D01*
X131747143Y-98570510D01*
X131645364Y-98614400D01*
X131582978Y-98650972D01*
X131549720Y-98684989D01*
X131535323Y-98721211D01*
X131531438Y-98746250D01*
X131519287Y-98810542D01*
X131487771Y-98845358D01*
X131415974Y-98859721D01*
X131282982Y-98862654D01*
X131261599Y-98862666D01*
X131101105Y-98876188D01*
X130919643Y-98919509D01*
X130706682Y-98996759D01*
X130451691Y-99112069D01*
X130144142Y-99269570D01*
X129936166Y-99382635D01*
X129317897Y-99753197D01*
X128783118Y-100135714D01*
X128331444Y-100530604D01*
X127962488Y-100938292D01*
X127675862Y-101359198D01*
X127471180Y-101793744D01*
X127357161Y-102194583D01*
X127309070Y-102434654D01*
X127195885Y-102182444D01*
X127058964Y-101779873D01*
X127006359Y-101370963D01*
X127038038Y-100956731D01*
X127153970Y-100538195D01*
X127253378Y-100307061D01*
X127351859Y-100119479D01*
X127457914Y-99956955D01*
X127590207Y-99794358D01*
X127767401Y-99606559D01*
X127792241Y-99581464D01*
X127962729Y-99417454D01*
X128141254Y-99258310D01*
X128304340Y-99124333D01*
X128408556Y-99048495D01*
X128658945Y-98883833D01*
X127572472Y-98872535D01*
X126486000Y-98861237D01*
X126486000Y-98227666D01*
X127914750Y-98227042D01*
X128339148Y-98225919D01*
X128685111Y-98222811D01*
X128958852Y-98217505D01*
X129166584Y-98209783D01*
X129314520Y-98199431D01*
X129408874Y-98186232D01*
X129449333Y-98173791D01*
X129536915Y-98101544D01*
X129618343Y-97990193D01*
X129631550Y-97965232D01*
X129679371Y-97842125D01*
X129682287Y-97731047D01*
X129661638Y-97637369D01*
X129635420Y-97549248D01*
X129603247Y-97478995D01*
X129555833Y-97424373D01*
X129483893Y-97383143D01*
X129378140Y-97353070D01*
X129229290Y-97331915D01*
X129028056Y-97317442D01*
X128765153Y-97307412D01*
X128431295Y-97299590D01*
X128244782Y-97295993D01*
X127884053Y-97288778D01*
X127597161Y-97280873D01*
X127373290Y-97270280D01*
X127201620Y-97255000D01*
X127071333Y-97233035D01*
X126971611Y-97202385D01*
X126891635Y-97161052D01*
X126820588Y-97107038D01*
X126747651Y-97038342D01*
X126724280Y-97015068D01*
X126561314Y-96797423D01*
X126462941Y-96546625D01*
X126429168Y-96280096D01*
X126459998Y-96015256D01*
X126555436Y-95769526D01*
X126715486Y-95560328D01*
X126723913Y-95552329D01*
X126798017Y-95485133D01*
X126868857Y-95430263D01*
X126945662Y-95386382D01*
X127037662Y-95352152D01*
X127154088Y-95326235D01*
X127304171Y-95307294D01*
X127497139Y-95293991D01*
X127742224Y-95284989D01*
X128048655Y-95278951D01*
X128425663Y-95274538D01*
X128655583Y-95272416D01*
X130126666Y-95259333D01*
X130126666Y-95899333D01*
G37*
X130126666Y-95899333D02*
X128788981Y-95899333D01*
X128406005Y-95899876D01*
X128098350Y-95901790D01*
X127856675Y-95905500D01*
X127671641Y-95911431D01*
X127533905Y-95920009D01*
X127434128Y-95931658D01*
X127362968Y-95946804D01*
X127311086Y-95965873D01*
X127309319Y-95966705D01*
X127178689Y-96070426D01*
X127105559Y-96216380D01*
X127092357Y-96382493D01*
X127141511Y-96546688D01*
X127232356Y-96666600D01*
X127266108Y-96696500D01*
X127303089Y-96720001D01*
X127353559Y-96738097D01*
X127427778Y-96751780D01*
X127536006Y-96762045D01*
X127688503Y-96769884D01*
X127895531Y-96776292D01*
X128167347Y-96782261D01*
X128489577Y-96788333D01*
X128831912Y-96794843D01*
X129100553Y-96800977D01*
X129306459Y-96807773D01*
X129460591Y-96816273D01*
X129573908Y-96827514D01*
X129657371Y-96842536D01*
X129721939Y-96862379D01*
X129778574Y-96888082D01*
X129828694Y-96915333D01*
X130040513Y-97080063D01*
X130189864Y-97298774D01*
X130273720Y-97565153D01*
X130289052Y-97872888D01*
X130288929Y-97874877D01*
X130281319Y-98000133D01*
X130276731Y-98082139D01*
X130276054Y-98100724D01*
X130312504Y-98085566D01*
X130407868Y-98045499D01*
X130543060Y-97988546D01*
X130572387Y-97976177D01*
X130867500Y-97851687D01*
X130884394Y-95899333D01*
X131523666Y-95899333D01*
X131523666Y-96548444D01*
X131525418Y-96774796D01*
X131530249Y-96970543D01*
X131537519Y-97120363D01*
X131546591Y-97208932D01*
X131551888Y-97225777D01*
X131602421Y-97236248D01*
X131721219Y-97245246D01*
X131891881Y-97251954D01*
X132098009Y-97255553D01*
X132155138Y-97255878D01*
X132404135Y-97254097D01*
X132612191Y-97244801D01*
X132807641Y-97224794D01*
X133018817Y-97190881D01*
X133274051Y-97139864D01*
X133374793Y-97118294D01*
X133619196Y-97064794D01*
X133793916Y-97023670D01*
X133912127Y-96989895D01*
X133987007Y-96958444D01*
X134031729Y-96924290D01*
X134059470Y-96882407D01*
X134073293Y-96851833D01*
X134116681Y-96668629D01*
X134116302Y-96458183D01*
X134073796Y-96263760D01*
X134048833Y-96206665D01*
X133961345Y-96095818D01*
X133836591Y-95998849D01*
X133810480Y-95984415D01*
X133753066Y-95957963D01*
X133689908Y-95937613D01*
X133609591Y-95922575D01*
X133500699Y-95912056D01*
X133351813Y-95905264D01*
X133151519Y-95901408D01*
X132888398Y-95899695D01*
X132583686Y-95899333D01*
X131523666Y-95899333D01*
X130884394Y-95899333D01*
X130889890Y-95264333D01*
X132299761Y-95264333D01*
X132722849Y-95265027D01*
X133070831Y-95267909D01*
X133353263Y-95274173D01*
X133579698Y-95285018D01*
X133759693Y-95301639D01*
X133902802Y-95325234D01*
X134018580Y-95357000D01*
X134116582Y-95398132D01*
X134206363Y-95449827D01*
X134297478Y-95513283D01*
X134299524Y-95514786D01*
X134418949Y-95626619D01*
X134536991Y-95774854D01*
X134593472Y-95865439D01*
X134658282Y-95998982D01*
X134698643Y-96128650D01*
X134721904Y-96285649D01*
X134733545Y-96460250D01*
X134741405Y-96632661D01*
X134755289Y-96744223D01*
X134790402Y-96805224D01*
X134861951Y-96825952D01*
X134985145Y-96816696D01*
X135175188Y-96787743D01*
X135209761Y-96782434D01*
X135530355Y-96733643D01*
X135568757Y-96630672D01*
X136219000Y-96630672D01*
X136379583Y-96604135D01*
X136516525Y-96585861D01*
X136636436Y-96576674D01*
X136646000Y-96576484D01*
X136759709Y-96565305D01*
X136815611Y-96525333D01*
X136819030Y-96442352D01*
X136775292Y-96302147D01*
X136761850Y-96267251D01*
X136682392Y-96106107D01*
X136599157Y-96010116D01*
X136519773Y-95986062D01*
X136474473Y-96011593D01*
X136442722Y-96066755D01*
X136392657Y-96178508D01*
X136334556Y-96323749D01*
X136328735Y-96339134D01*
X136219000Y-96630672D01*
X135568757Y-96630672D01*
X135731726Y-96193690D01*
X135843590Y-95911750D01*
X135946289Y-95702113D01*
X136050137Y-95554687D01*
X136165450Y-95459379D01*
X136302540Y-95406095D01*
X136471724Y-95384745D01*
X136560376Y-95382866D01*
X136812694Y-95411542D01*
X137009490Y-95495796D01*
X137131185Y-95613341D01*
X137177331Y-95696866D01*
X137240592Y-95834194D01*
X137309271Y-95999514D01*
X137327954Y-96047500D01*
X137390640Y-96205563D01*
X137445098Y-96332957D01*
X137482339Y-96408999D01*
X137489738Y-96419756D01*
X137543275Y-96429436D01*
X137660005Y-96427315D01*
X137819395Y-96414178D01*
X137908385Y-96403760D01*
X138295026Y-96354176D01*
X138418898Y-96137338D01*
X138639513Y-95833737D01*
X138916616Y-95589572D01*
X139240327Y-95411845D01*
X139585358Y-95310309D01*
X139699480Y-95297232D01*
X139882720Y-95285602D01*
X140119535Y-95275976D01*
X140394379Y-95268912D01*
X140691709Y-95264970D01*
X140865941Y-95264333D01*
X141895333Y-95264333D01*
X141895333Y-95899333D01*
X140865850Y-95899333D01*
X140481794Y-95901213D01*
X140171721Y-95907996D01*
X139925008Y-95921393D01*
X139731032Y-95943115D01*
X139579168Y-95974874D01*
X139458795Y-96018383D01*
X139359287Y-96075352D01*
X139270023Y-96147493D01*
X139258334Y-96158340D01*
X139122500Y-96286029D01*
X139461166Y-96261480D01*
X139740890Y-96242513D01*
X140083789Y-96221337D01*
X140468436Y-96199133D01*
X140873408Y-96177080D01*
X141277281Y-96156361D01*
X141658628Y-96138154D01*
X141863583Y-96129103D01*
X142530333Y-96100742D01*
X142530333Y-95264333D01*
X145747666Y-95264333D01*
X145747666Y-95899333D01*
X143165333Y-95899333D01*
X143165333Y-96097984D01*
X144572916Y-96125095D01*
X145096634Y-96136631D01*
X145543809Y-96149879D01*
X145922555Y-96165427D01*
X146240988Y-96183865D01*
X146507224Y-96205782D01*
X146729377Y-96231766D01*
X146915564Y-96262406D01*
X147073899Y-96298291D01*
X147115030Y-96309553D01*
X147377500Y-96384301D01*
X147187000Y-96413846D01*
X147070549Y-96425528D01*
X146893293Y-96435640D01*
X146679091Y-96443117D01*
X146451800Y-96446893D01*
X146446166Y-96446931D01*
X146201122Y-96450641D01*
X145889732Y-96458643D01*
X145530167Y-96470220D01*
X145140599Y-96484653D01*
X144739199Y-96501222D01*
X144344139Y-96519210D01*
X143973591Y-96537898D01*
X143645726Y-96556568D01*
X143596988Y-96559597D01*
X143401466Y-96572953D01*
X143275858Y-96586062D01*
X143205522Y-96602990D01*
X143175815Y-96627802D01*
X143172094Y-96664563D01*
X143173655Y-96677127D01*
X143179323Y-96703213D01*
X143194169Y-96723802D01*
X143227407Y-96739651D01*
X143288248Y-96751520D01*
X143385904Y-96760168D01*
X143529589Y-96766351D01*
X143728514Y-96770830D01*
X143991892Y-96774363D01*
X144328935Y-96777708D01*
X144403583Y-96778399D01*
X145620666Y-96789631D01*
X145620666Y-97296333D01*
X143165333Y-97296333D01*
X143165333Y-98227666D01*
X145747666Y-98227666D01*
X145747666Y-98862666D01*
X142530333Y-98862666D01*
X142530333Y-96614795D01*
X142286916Y-96638777D01*
X142165858Y-96649981D01*
X141979116Y-96666375D01*
X141745403Y-96686355D01*
X141483429Y-96708321D01*
X141239166Y-96728447D01*
X140917072Y-96756173D01*
X140558321Y-96789389D01*
X140197126Y-96824785D01*
X139867702Y-96859051D01*
X139715223Y-96875901D01*
X139473036Y-96902943D01*
X139256649Y-96926211D01*
X139081605Y-96944103D01*
X138963445Y-96955020D01*
X138921473Y-96957666D01*
X138875756Y-96973302D01*
X138853409Y-97033278D01*
X138847338Y-97157199D01*
X138847333Y-97162571D01*
X138875943Y-97357460D01*
X138952009Y-97572923D01*
X139060889Y-97778355D01*
X139187937Y-97943148D01*
X139245423Y-97994593D01*
X139339855Y-98061912D01*
X139434012Y-98114962D01*
X139539217Y-98155418D01*
X139666795Y-98184956D01*
X139828069Y-98205250D01*
X140034365Y-98217975D01*
X140297006Y-98224806D01*
X140627317Y-98227418D01*
X140821155Y-98227666D01*
X141895333Y-98227666D01*
X141895333Y-98867502D01*
X140697046Y-98854501D01*
X139498758Y-98841500D01*
X139175811Y-98681804D01*
X138857505Y-98480102D01*
X138595497Y-98222007D01*
X138396939Y-97917617D01*
X138268986Y-97577026D01*
X138227283Y-97343101D01*
X138199277Y-97075149D01*
X137993207Y-97094949D01*
X137869814Y-97110017D01*
X137786456Y-97126201D01*
X137768216Y-97133671D01*
X137776766Y-97177156D01*
X137811723Y-97287220D01*
X137868793Y-97451540D01*
X137943679Y-97657794D01*
X138032086Y-97893656D01*
X138044314Y-97925761D01*
X138135384Y-98166371D01*
X138215041Y-98380534D01*
X138278646Y-98555470D01*
X138321560Y-98678402D01*
X138339144Y-98736551D01*
X138339333Y-98738464D01*
X138300488Y-98757482D01*
X138197842Y-98771493D01*
X138052227Y-98777865D01*
X138026362Y-98778000D01*
X137859352Y-98774625D01*
X137758363Y-98761832D01*
X137704921Y-98735616D01*
X137684609Y-98703916D01*
X137660565Y-98641026D01*
X137612174Y-98513695D01*
X137545035Y-98336678D01*
X137464743Y-98124731D01*
X137399555Y-97952500D01*
X137313836Y-97728467D01*
X137237154Y-97532793D01*
X137174938Y-97378957D01*
X137132616Y-97280437D01*
X137116892Y-97250649D01*
X137067962Y-97249162D01*
X136951614Y-97261844D01*
X136783507Y-97286544D01*
X136579301Y-97321106D01*
X136501217Y-97335316D01*
X135911935Y-97444500D01*
X135658825Y-98111250D01*
X135405714Y-98778000D01*
X135094524Y-98778000D01*
X134918840Y-98772911D01*
X134818561Y-98756654D01*
X134784983Y-98727739D01*
X134784909Y-98725083D01*
X134800100Y-98667701D01*
X134840577Y-98547925D01*
X134900546Y-98382116D01*
X134974214Y-98186638D01*
X134991017Y-98143000D01*
X135065306Y-97947600D01*
X135125696Y-97782595D01*
X135166908Y-97662890D01*
X135183664Y-97603387D01*
X135183432Y-97599685D01*
X135136254Y-97601276D01*
X135018852Y-97623660D01*
X134842270Y-97663879D01*
X134617552Y-97718975D01*
X134355743Y-97785991D01*
X134067886Y-97861970D01*
X133765024Y-97943954D01*
X133458202Y-98028986D01*
X133158464Y-98114109D01*
X132876853Y-98196365D01*
X132624414Y-98272797D01*
X132412191Y-98340448D01*
X132391500Y-98347318D01*
X132109945Y-98441731D01*
X131898581Y-98514541D01*
X131747143Y-98570510D01*
X131645364Y-98614400D01*
X131582978Y-98650972D01*
X131549720Y-98684989D01*
X131535323Y-98721211D01*
X131531438Y-98746250D01*
X131519287Y-98810542D01*
X131487771Y-98845358D01*
X131415974Y-98859721D01*
X131282982Y-98862654D01*
X131261599Y-98862666D01*
X131101105Y-98876188D01*
X130919643Y-98919509D01*
X130706682Y-98996759D01*
X130451691Y-99112069D01*
X130144142Y-99269570D01*
X129936166Y-99382635D01*
X129317897Y-99753197D01*
X128783118Y-100135714D01*
X128331444Y-100530604D01*
X127962488Y-100938292D01*
X127675862Y-101359198D01*
X127471180Y-101793744D01*
X127357161Y-102194583D01*
X127309070Y-102434654D01*
X127195885Y-102182444D01*
X127058964Y-101779873D01*
X127006359Y-101370963D01*
X127038038Y-100956731D01*
X127153970Y-100538195D01*
X127253378Y-100307061D01*
X127351859Y-100119479D01*
X127457914Y-99956955D01*
X127590207Y-99794358D01*
X127767401Y-99606559D01*
X127792241Y-99581464D01*
X127962729Y-99417454D01*
X128141254Y-99258310D01*
X128304340Y-99124333D01*
X128408556Y-99048495D01*
X128658945Y-98883833D01*
X127572472Y-98872535D01*
X126486000Y-98861237D01*
X126486000Y-98227666D01*
X127914750Y-98227042D01*
X128339148Y-98225919D01*
X128685111Y-98222811D01*
X128958852Y-98217505D01*
X129166584Y-98209783D01*
X129314520Y-98199431D01*
X129408874Y-98186232D01*
X129449333Y-98173791D01*
X129536915Y-98101544D01*
X129618343Y-97990193D01*
X129631550Y-97965232D01*
X129679371Y-97842125D01*
X129682287Y-97731047D01*
X129661638Y-97637369D01*
X129635420Y-97549248D01*
X129603247Y-97478995D01*
X129555833Y-97424373D01*
X129483893Y-97383143D01*
X129378140Y-97353070D01*
X129229290Y-97331915D01*
X129028056Y-97317442D01*
X128765153Y-97307412D01*
X128431295Y-97299590D01*
X128244782Y-97295993D01*
X127884053Y-97288778D01*
X127597161Y-97280873D01*
X127373290Y-97270280D01*
X127201620Y-97255000D01*
X127071333Y-97233035D01*
X126971611Y-97202385D01*
X126891635Y-97161052D01*
X126820588Y-97107038D01*
X126747651Y-97038342D01*
X126724280Y-97015068D01*
X126561314Y-96797423D01*
X126462941Y-96546625D01*
X126429168Y-96280096D01*
X126459998Y-96015256D01*
X126555436Y-95769526D01*
X126715486Y-95560328D01*
X126723913Y-95552329D01*
X126798017Y-95485133D01*
X126868857Y-95430263D01*
X126945662Y-95386382D01*
X127037662Y-95352152D01*
X127154088Y-95326235D01*
X127304171Y-95307294D01*
X127497139Y-95293991D01*
X127742224Y-95284989D01*
X128048655Y-95278951D01*
X128425663Y-95274538D01*
X128655583Y-95272416D01*
X130126666Y-95259333D01*
X130126666Y-95899333D01*
G36*
X138043000Y-101570131D02*
G01*
X138836750Y-101581649D01*
X139630500Y-101593166D01*
X139643295Y-101815416D01*
X139656091Y-102037666D01*
X138644934Y-102037666D01*
X138360493Y-102036532D01*
X138104638Y-102033346D01*
X137889401Y-102028436D01*
X137726812Y-102022128D01*
X137628905Y-102014750D01*
X137605555Y-102009444D01*
X137598208Y-101961342D01*
X137591573Y-101839664D01*
X137585910Y-101655496D01*
X137581478Y-101419928D01*
X137578537Y-101144048D01*
X137577346Y-100838943D01*
X137577333Y-100802944D01*
X137577333Y-99624666D01*
X138043000Y-99624666D01*
X138043000Y-101570131D01*
G37*
X138043000Y-101570131D02*
X138836750Y-101581649D01*
X139630500Y-101593166D01*
X139643295Y-101815416D01*
X139656091Y-102037666D01*
X138644934Y-102037666D01*
X138360493Y-102036532D01*
X138104638Y-102033346D01*
X137889401Y-102028436D01*
X137726812Y-102022128D01*
X137628905Y-102014750D01*
X137605555Y-102009444D01*
X137598208Y-101961342D01*
X137591573Y-101839664D01*
X137585910Y-101655496D01*
X137581478Y-101419928D01*
X137578537Y-101144048D01*
X137577346Y-100838943D01*
X137577333Y-100802944D01*
X137577333Y-99624666D01*
X138043000Y-99624666D01*
X138043000Y-101570131D01*
G36*
X141468152Y-99612789D02*
G01*
X141524979Y-99656416D01*
X141559518Y-99706373D01*
X141629866Y-99816691D01*
X141729655Y-99976842D01*
X141852520Y-100176297D01*
X141992094Y-100404526D01*
X142142011Y-100651001D01*
X142295906Y-100905194D01*
X142447411Y-101156574D01*
X142590162Y-101394614D01*
X142717792Y-101608784D01*
X142823934Y-101788556D01*
X142902223Y-101923401D01*
X142946293Y-102002790D01*
X142953666Y-102019317D01*
X142915243Y-102029102D01*
X142815588Y-102035759D01*
X142705931Y-102037666D01*
X142458195Y-102037666D01*
X142271474Y-101730750D01*
X142084753Y-101423833D01*
X140632711Y-101400699D01*
X140446238Y-101708599D01*
X140259765Y-102016500D01*
X140019215Y-102029195D01*
X139889425Y-102032790D01*
X139802086Y-102028974D01*
X139778666Y-102021430D01*
X139799757Y-101979049D01*
X139858787Y-101875054D01*
X139949392Y-101719977D01*
X140065207Y-101524355D01*
X140199870Y-101298722D01*
X140340778Y-101064000D01*
X140828636Y-101064000D01*
X141344346Y-101064000D01*
X141540418Y-101061469D01*
X141699840Y-101054566D01*
X141806963Y-101044325D01*
X141846138Y-101031779D01*
X141845944Y-101030870D01*
X141806466Y-100952543D01*
X141739083Y-100832374D01*
X141654596Y-100688144D01*
X141563801Y-100537637D01*
X141477498Y-100398635D01*
X141406485Y-100288919D01*
X141361561Y-100226273D01*
X141352401Y-100218144D01*
X141318659Y-100252409D01*
X141256349Y-100341959D01*
X141178295Y-100468218D01*
X141169779Y-100482727D01*
X141076305Y-100642568D01*
X140985070Y-100798242D01*
X140922181Y-100905250D01*
X140828636Y-101064000D01*
X140340778Y-101064000D01*
X140347015Y-101053612D01*
X140500280Y-100799562D01*
X140653299Y-100547105D01*
X140799708Y-100306777D01*
X140933145Y-100089112D01*
X141047244Y-99904645D01*
X141135641Y-99763912D01*
X141191973Y-99677447D01*
X141207354Y-99656416D01*
X141298807Y-99596637D01*
X141366166Y-99582333D01*
X141468152Y-99612789D01*
G37*
X141468152Y-99612789D02*
X141524979Y-99656416D01*
X141559518Y-99706373D01*
X141629866Y-99816691D01*
X141729655Y-99976842D01*
X141852520Y-100176297D01*
X141992094Y-100404526D01*
X142142011Y-100651001D01*
X142295906Y-100905194D01*
X142447411Y-101156574D01*
X142590162Y-101394614D01*
X142717792Y-101608784D01*
X142823934Y-101788556D01*
X142902223Y-101923401D01*
X142946293Y-102002790D01*
X142953666Y-102019317D01*
X142915243Y-102029102D01*
X142815588Y-102035759D01*
X142705931Y-102037666D01*
X142458195Y-102037666D01*
X142271474Y-101730750D01*
X142084753Y-101423833D01*
X140632711Y-101400699D01*
X140446238Y-101708599D01*
X140259765Y-102016500D01*
X140019215Y-102029195D01*
X139889425Y-102032790D01*
X139802086Y-102028974D01*
X139778666Y-102021430D01*
X139799757Y-101979049D01*
X139858787Y-101875054D01*
X139949392Y-101719977D01*
X140065207Y-101524355D01*
X140199870Y-101298722D01*
X140340778Y-101064000D01*
X140828636Y-101064000D01*
X141344346Y-101064000D01*
X141540418Y-101061469D01*
X141699840Y-101054566D01*
X141806963Y-101044325D01*
X141846138Y-101031779D01*
X141845944Y-101030870D01*
X141806466Y-100952543D01*
X141739083Y-100832374D01*
X141654596Y-100688144D01*
X141563801Y-100537637D01*
X141477498Y-100398635D01*
X141406485Y-100288919D01*
X141361561Y-100226273D01*
X141352401Y-100218144D01*
X141318659Y-100252409D01*
X141256349Y-100341959D01*
X141178295Y-100468218D01*
X141169779Y-100482727D01*
X141076305Y-100642568D01*
X140985070Y-100798242D01*
X140922181Y-100905250D01*
X140828636Y-101064000D01*
X140340778Y-101064000D01*
X140347015Y-101053612D01*
X140500280Y-100799562D01*
X140653299Y-100547105D01*
X140799708Y-100306777D01*
X140933145Y-100089112D01*
X141047244Y-99904645D01*
X141135641Y-99763912D01*
X141191973Y-99677447D01*
X141207354Y-99656416D01*
X141298807Y-99596637D01*
X141366166Y-99582333D01*
X141468152Y-99612789D01*
G36*
X144556686Y-99625180D02*
G01*
X144808992Y-99627271D01*
X145000133Y-99631761D01*
X145141861Y-99639473D01*
X145245925Y-99651228D01*
X145324075Y-99667850D01*
X145388061Y-99690160D01*
X145428309Y-99708434D01*
X145599878Y-99826446D01*
X145703827Y-99986519D01*
X145746058Y-100198836D01*
X145747666Y-100259242D01*
X145740216Y-100401079D01*
X145707812Y-100497556D01*
X145635373Y-100587400D01*
X145610083Y-100612543D01*
X145472500Y-100746500D01*
X145636184Y-100905204D01*
X145725166Y-100995670D01*
X145772533Y-101068096D01*
X145789120Y-101153875D01*
X145785759Y-101284398D01*
X145782904Y-101330338D01*
X145742420Y-101572921D01*
X145651016Y-101755716D01*
X145500874Y-101891808D01*
X145420417Y-101937197D01*
X145360854Y-101962608D01*
X145289307Y-101982389D01*
X145194282Y-101997437D01*
X145064287Y-102008651D01*
X144887830Y-102016927D01*
X144653416Y-102023162D01*
X144349554Y-102028254D01*
X144234250Y-102029808D01*
X143207666Y-102043117D01*
X143207666Y-100979333D01*
X143631000Y-100979333D01*
X143631000Y-101623936D01*
X144369699Y-101607826D01*
X144640666Y-101601095D01*
X144840671Y-101593355D01*
X144983416Y-101582940D01*
X145082602Y-101568184D01*
X145151931Y-101547422D01*
X145205105Y-101518986D01*
X145226949Y-101503588D01*
X145332229Y-101385427D01*
X145356542Y-101254886D01*
X145298816Y-101123610D01*
X145265491Y-101085976D01*
X145225496Y-101048123D01*
X145183757Y-101020491D01*
X145127146Y-101001470D01*
X145042536Y-100989453D01*
X144916799Y-100982832D01*
X144736809Y-100979999D01*
X144489437Y-100979344D01*
X144394924Y-100979333D01*
X143631000Y-100979333D01*
X143207666Y-100979333D01*
X143207666Y-100598333D01*
X143631000Y-100598333D01*
X144411766Y-100598333D01*
X144686915Y-100597951D01*
X144889771Y-100595891D01*
X145032708Y-100590775D01*
X145128099Y-100581230D01*
X145188318Y-100565881D01*
X145225739Y-100543352D01*
X145252734Y-100512269D01*
X145258432Y-100504247D01*
X145319068Y-100356046D01*
X145298248Y-100209910D01*
X145264324Y-100151341D01*
X145236998Y-100122217D01*
X145195512Y-100100490D01*
X145127692Y-100084791D01*
X145021368Y-100073748D01*
X144864367Y-100065989D01*
X144644517Y-100060144D01*
X144417658Y-100055965D01*
X143631000Y-100042764D01*
X143631000Y-100598333D01*
X143207666Y-100598333D01*
X143207666Y-99624666D01*
X144231467Y-99624666D01*
X144556686Y-99625180D01*
G37*
X144556686Y-99625180D02*
X144808992Y-99627271D01*
X145000133Y-99631761D01*
X145141861Y-99639473D01*
X145245925Y-99651228D01*
X145324075Y-99667850D01*
X145388061Y-99690160D01*
X145428309Y-99708434D01*
X145599878Y-99826446D01*
X145703827Y-99986519D01*
X145746058Y-100198836D01*
X145747666Y-100259242D01*
X145740216Y-100401079D01*
X145707812Y-100497556D01*
X145635373Y-100587400D01*
X145610083Y-100612543D01*
X145472500Y-100746500D01*
X145636184Y-100905204D01*
X145725166Y-100995670D01*
X145772533Y-101068096D01*
X145789120Y-101153875D01*
X145785759Y-101284398D01*
X145782904Y-101330338D01*
X145742420Y-101572921D01*
X145651016Y-101755716D01*
X145500874Y-101891808D01*
X145420417Y-101937197D01*
X145360854Y-101962608D01*
X145289307Y-101982389D01*
X145194282Y-101997437D01*
X145064287Y-102008651D01*
X144887830Y-102016927D01*
X144653416Y-102023162D01*
X144349554Y-102028254D01*
X144234250Y-102029808D01*
X143207666Y-102043117D01*
X143207666Y-100979333D01*
X143631000Y-100979333D01*
X143631000Y-101623936D01*
X144369699Y-101607826D01*
X144640666Y-101601095D01*
X144840671Y-101593355D01*
X144983416Y-101582940D01*
X145082602Y-101568184D01*
X145151931Y-101547422D01*
X145205105Y-101518986D01*
X145226949Y-101503588D01*
X145332229Y-101385427D01*
X145356542Y-101254886D01*
X145298816Y-101123610D01*
X145265491Y-101085976D01*
X145225496Y-101048123D01*
X145183757Y-101020491D01*
X145127146Y-101001470D01*
X145042536Y-100989453D01*
X144916799Y-100982832D01*
X144736809Y-100979999D01*
X144489437Y-100979344D01*
X144394924Y-100979333D01*
X143631000Y-100979333D01*
X143207666Y-100979333D01*
X143207666Y-100598333D01*
X143631000Y-100598333D01*
X144411766Y-100598333D01*
X144686915Y-100597951D01*
X144889771Y-100595891D01*
X145032708Y-100590775D01*
X145128099Y-100581230D01*
X145188318Y-100565881D01*
X145225739Y-100543352D01*
X145252734Y-100512269D01*
X145258432Y-100504247D01*
X145319068Y-100356046D01*
X145298248Y-100209910D01*
X145264324Y-100151341D01*
X145236998Y-100122217D01*
X145195512Y-100100490D01*
X145127692Y-100084791D01*
X145021368Y-100073748D01*
X144864367Y-100065989D01*
X144644517Y-100060144D01*
X144417658Y-100055965D01*
X143631000Y-100042764D01*
X143631000Y-100598333D01*
X143207666Y-100598333D01*
X143207666Y-99624666D01*
X144231467Y-99624666D01*
X144556686Y-99625180D01*
G36*
X139750801Y-99927194D02*
G01*
X139777719Y-100054849D01*
X139799600Y-100222128D01*
X139825646Y-100459757D01*
X140080924Y-100486439D01*
X140225420Y-100505584D01*
X140338088Y-100527834D01*
X140385517Y-100544073D01*
X140381807Y-100568266D01*
X140312543Y-100593774D01*
X140196671Y-100616617D01*
X140053137Y-100632814D01*
X139937416Y-100638227D01*
X139837783Y-100644087D01*
X139791251Y-100673585D01*
X139776245Y-100750750D01*
X139773658Y-100820583D01*
X139763424Y-100975629D01*
X139744341Y-101105800D01*
X139720346Y-101193234D01*
X139695378Y-101220070D01*
X139687336Y-101212166D01*
X139669058Y-101150077D01*
X139647866Y-101031506D01*
X139631517Y-100908329D01*
X139601734Y-100646824D01*
X139425617Y-100620313D01*
X139229583Y-100589640D01*
X139107260Y-100566597D01*
X139048395Y-100547930D01*
X139042737Y-100530384D01*
X139080032Y-100510703D01*
X139080166Y-100510650D01*
X139171199Y-100490585D01*
X139307337Y-100477132D01*
X139383719Y-100474308D01*
X139485977Y-100472598D01*
X139553968Y-100460916D01*
X139597355Y-100424434D01*
X139625797Y-100348324D01*
X139648956Y-100217759D01*
X139675266Y-100026833D01*
X139698440Y-99911404D01*
X139723996Y-99878785D01*
X139750801Y-99927194D01*
G37*
X139750801Y-99927194D02*
X139777719Y-100054849D01*
X139799600Y-100222128D01*
X139825646Y-100459757D01*
X140080924Y-100486439D01*
X140225420Y-100505584D01*
X140338088Y-100527834D01*
X140385517Y-100544073D01*
X140381807Y-100568266D01*
X140312543Y-100593774D01*
X140196671Y-100616617D01*
X140053137Y-100632814D01*
X139937416Y-100638227D01*
X139837783Y-100644087D01*
X139791251Y-100673585D01*
X139776245Y-100750750D01*
X139773658Y-100820583D01*
X139763424Y-100975629D01*
X139744341Y-101105800D01*
X139720346Y-101193234D01*
X139695378Y-101220070D01*
X139687336Y-101212166D01*
X139669058Y-101150077D01*
X139647866Y-101031506D01*
X139631517Y-100908329D01*
X139601734Y-100646824D01*
X139425617Y-100620313D01*
X139229583Y-100589640D01*
X139107260Y-100566597D01*
X139048395Y-100547930D01*
X139042737Y-100530384D01*
X139080032Y-100510703D01*
X139080166Y-100510650D01*
X139171199Y-100490585D01*
X139307337Y-100477132D01*
X139383719Y-100474308D01*
X139485977Y-100472598D01*
X139553968Y-100460916D01*
X139597355Y-100424434D01*
X139625797Y-100348324D01*
X139648956Y-100217759D01*
X139675266Y-100026833D01*
X139698440Y-99911404D01*
X139723996Y-99878785D01*
X139750801Y-99927194D01*
G36*
X135337409Y-99794000D02*
G01*
X135356095Y-99899209D01*
X135369000Y-100044915D01*
X135371780Y-100117151D01*
X135376000Y-100334469D01*
X135641937Y-100362949D01*
X135826397Y-100388229D01*
X135937585Y-100415745D01*
X135972401Y-100443715D01*
X135927750Y-100470353D01*
X135855512Y-100485965D01*
X135699792Y-100504697D01*
X135546099Y-100513169D01*
X135540780Y-100513200D01*
X135388061Y-100513666D01*
X135360600Y-100776396D01*
X135336164Y-100948126D01*
X135307724Y-101048777D01*
X135277982Y-101074638D01*
X135249638Y-101021995D01*
X135234246Y-100950102D01*
X135215804Y-100802906D01*
X135207201Y-100664444D01*
X135207132Y-100656718D01*
X135202570Y-100582051D01*
X135176053Y-100539607D01*
X135107330Y-100516107D01*
X134976148Y-100498270D01*
X134963250Y-100496792D01*
X134786539Y-100470465D01*
X134680501Y-100441156D01*
X134649167Y-100411157D01*
X134696568Y-100382763D01*
X134742877Y-100371474D01*
X134883339Y-100352488D01*
X135033935Y-100344338D01*
X135037171Y-100344333D01*
X135195759Y-100344333D01*
X135224746Y-100122083D01*
X135246771Y-99972081D01*
X135270130Y-99840947D01*
X135280496Y-99794000D01*
X135307258Y-99688166D01*
X135337409Y-99794000D01*
G37*
X135337409Y-99794000D02*
X135356095Y-99899209D01*
X135369000Y-100044915D01*
X135371780Y-100117151D01*
X135376000Y-100334469D01*
X135641937Y-100362949D01*
X135826397Y-100388229D01*
X135937585Y-100415745D01*
X135972401Y-100443715D01*
X135927750Y-100470353D01*
X135855512Y-100485965D01*
X135699792Y-100504697D01*
X135546099Y-100513169D01*
X135540780Y-100513200D01*
X135388061Y-100513666D01*
X135360600Y-100776396D01*
X135336164Y-100948126D01*
X135307724Y-101048777D01*
X135277982Y-101074638D01*
X135249638Y-101021995D01*
X135234246Y-100950102D01*
X135215804Y-100802906D01*
X135207201Y-100664444D01*
X135207132Y-100656718D01*
X135202570Y-100582051D01*
X135176053Y-100539607D01*
X135107330Y-100516107D01*
X134976148Y-100498270D01*
X134963250Y-100496792D01*
X134786539Y-100470465D01*
X134680501Y-100441156D01*
X134649167Y-100411157D01*
X134696568Y-100382763D01*
X134742877Y-100371474D01*
X134883339Y-100352488D01*
X135033935Y-100344338D01*
X135037171Y-100344333D01*
X135195759Y-100344333D01*
X135224746Y-100122083D01*
X135246771Y-99972081D01*
X135270130Y-99840947D01*
X135280496Y-99794000D01*
X135307258Y-99688166D01*
X135337409Y-99794000D01*
G36*
X140416622Y-93190000D02*
G01*
X140435562Y-93294496D01*
X140448744Y-93440472D01*
X140451780Y-93518083D01*
X140457516Y-93647757D01*
X140475166Y-93713902D01*
X140514992Y-93737638D01*
X140559749Y-93740333D01*
X140660681Y-93749432D01*
X140803286Y-93772649D01*
X140887832Y-93789886D01*
X141010521Y-93819300D01*
X141059266Y-93839865D01*
X141043416Y-93857925D01*
X141006333Y-93870333D01*
X140900962Y-93889507D01*
X140755322Y-93902679D01*
X140684280Y-93905446D01*
X140468061Y-93909666D01*
X140440600Y-94172396D01*
X140415574Y-94351817D01*
X140387857Y-94449531D01*
X140359492Y-94464872D01*
X140332525Y-94397175D01*
X140308998Y-94245774D01*
X140305939Y-94216277D01*
X140276693Y-93919474D01*
X140038263Y-93892228D01*
X139863544Y-93866035D01*
X139759229Y-93836712D01*
X139729449Y-93806652D01*
X139778334Y-93778247D01*
X139822877Y-93767474D01*
X139963128Y-93748525D01*
X140113910Y-93740341D01*
X140117818Y-93740333D01*
X140214075Y-93736276D01*
X140264522Y-93709344D01*
X140289730Y-93637390D01*
X140304630Y-93539250D01*
X140327491Y-93387250D01*
X140351659Y-93247861D01*
X140358946Y-93211166D01*
X140385685Y-93084166D01*
X140416622Y-93190000D01*
G37*
X140416622Y-93190000D02*
X140435562Y-93294496D01*
X140448744Y-93440472D01*
X140451780Y-93518083D01*
X140457516Y-93647757D01*
X140475166Y-93713902D01*
X140514992Y-93737638D01*
X140559749Y-93740333D01*
X140660681Y-93749432D01*
X140803286Y-93772649D01*
X140887832Y-93789886D01*
X141010521Y-93819300D01*
X141059266Y-93839865D01*
X141043416Y-93857925D01*
X141006333Y-93870333D01*
X140900962Y-93889507D01*
X140755322Y-93902679D01*
X140684280Y-93905446D01*
X140468061Y-93909666D01*
X140440600Y-94172396D01*
X140415574Y-94351817D01*
X140387857Y-94449531D01*
X140359492Y-94464872D01*
X140332525Y-94397175D01*
X140308998Y-94245774D01*
X140305939Y-94216277D01*
X140276693Y-93919474D01*
X140038263Y-93892228D01*
X139863544Y-93866035D01*
X139759229Y-93836712D01*
X139729449Y-93806652D01*
X139778334Y-93778247D01*
X139822877Y-93767474D01*
X139963128Y-93748525D01*
X140113910Y-93740341D01*
X140117818Y-93740333D01*
X140214075Y-93736276D01*
X140264522Y-93709344D01*
X140289730Y-93637390D01*
X140304630Y-93539250D01*
X140327491Y-93387250D01*
X140351659Y-93247861D01*
X140358946Y-93211166D01*
X140385685Y-93084166D01*
X140416622Y-93190000D01*
G36*
X133236835Y-91185649D02*
G01*
X133260133Y-91295603D01*
X133278879Y-91432618D01*
X133294212Y-91568709D01*
X133316151Y-91655456D01*
X133361747Y-91706806D01*
X133448052Y-91736709D01*
X133592118Y-91759111D01*
X133694069Y-91772238D01*
X133822587Y-91796359D01*
X133868295Y-91823130D01*
X133832919Y-91850530D01*
X133718186Y-91876534D01*
X133591099Y-91892874D01*
X133424557Y-91917155D01*
X133325107Y-91956769D01*
X133275176Y-92026447D01*
X133257190Y-92140922D01*
X133255761Y-92174000D01*
X133243606Y-92310158D01*
X133221414Y-92428000D01*
X133197274Y-92497227D01*
X133176755Y-92490124D01*
X133162134Y-92456287D01*
X133141052Y-92359565D01*
X133132333Y-92236793D01*
X133111673Y-92043293D01*
X133049730Y-91923574D01*
X132946555Y-91877731D01*
X132932297Y-91877200D01*
X132794657Y-91869634D01*
X132664285Y-91851166D01*
X132564419Y-91826549D01*
X132518299Y-91800538D01*
X132518752Y-91792592D01*
X132567918Y-91772133D01*
X132677353Y-91749672D01*
X132816978Y-91730832D01*
X132960855Y-91708754D01*
X133066777Y-91679955D01*
X133110831Y-91651754D01*
X133123699Y-91584935D01*
X133140827Y-91464050D01*
X133153548Y-91358511D01*
X133173365Y-91232046D01*
X133196970Y-91152015D01*
X133215122Y-91135673D01*
X133236835Y-91185649D01*
G37*
X133236835Y-91185649D02*
X133260133Y-91295603D01*
X133278879Y-91432618D01*
X133294212Y-91568709D01*
X133316151Y-91655456D01*
X133361747Y-91706806D01*
X133448052Y-91736709D01*
X133592118Y-91759111D01*
X133694069Y-91772238D01*
X133822587Y-91796359D01*
X133868295Y-91823130D01*
X133832919Y-91850530D01*
X133718186Y-91876534D01*
X133591099Y-91892874D01*
X133424557Y-91917155D01*
X133325107Y-91956769D01*
X133275176Y-92026447D01*
X133257190Y-92140922D01*
X133255761Y-92174000D01*
X133243606Y-92310158D01*
X133221414Y-92428000D01*
X133197274Y-92497227D01*
X133176755Y-92490124D01*
X133162134Y-92456287D01*
X133141052Y-92359565D01*
X133132333Y-92236793D01*
X133111673Y-92043293D01*
X133049730Y-91923574D01*
X132946555Y-91877731D01*
X132932297Y-91877200D01*
X132794657Y-91869634D01*
X132664285Y-91851166D01*
X132564419Y-91826549D01*
X132518299Y-91800538D01*
X132518752Y-91792592D01*
X132567918Y-91772133D01*
X132677353Y-91749672D01*
X132816978Y-91730832D01*
X132960855Y-91708754D01*
X133066777Y-91679955D01*
X133110831Y-91651754D01*
X133123699Y-91584935D01*
X133140827Y-91464050D01*
X133153548Y-91358511D01*
X133173365Y-91232046D01*
X133196970Y-91152015D01*
X133215122Y-91135673D01*
X133236835Y-91185649D01*
%TO.C,J9*%
D10*
X135966666Y-77652380D02*
X135966666Y-78366666D01*
X135919047Y-78509523D01*
X135823809Y-78604761D01*
X135680952Y-78652380D01*
X135585714Y-78652380D01*
X136490476Y-78652380D02*
X136680952Y-78652380D01*
X136776190Y-78604761D01*
X136823809Y-78557142D01*
X136919047Y-78414285D01*
X136966666Y-78223809D01*
X136966666Y-77842857D01*
X136919047Y-77747619D01*
X136871428Y-77700000D01*
X136776190Y-77652380D01*
X136585714Y-77652380D01*
X136490476Y-77700000D01*
X136442857Y-77747619D01*
X136395238Y-77842857D01*
X136395238Y-78080952D01*
X136442857Y-78176190D01*
X136490476Y-78223809D01*
X136585714Y-78271428D01*
X136776190Y-78271428D01*
X136871428Y-78223809D01*
X136919047Y-78176190D01*
X136966666Y-78080952D01*
%TO.C,J10*%
X135490476Y-90252380D02*
X135490476Y-90966666D01*
X135442857Y-91109523D01*
X135347619Y-91204761D01*
X135204761Y-91252380D01*
X135109523Y-91252380D01*
X136490476Y-91252380D02*
X135919047Y-91252380D01*
X136204761Y-91252380D02*
X136204761Y-90252380D01*
X136109523Y-90395238D01*
X136014285Y-90490476D01*
X135919047Y-90538095D01*
X137109523Y-90252380D02*
X137204761Y-90252380D01*
X137300000Y-90300000D01*
X137347619Y-90347619D01*
X137395238Y-90442857D01*
X137442857Y-90633333D01*
X137442857Y-90871428D01*
X137395238Y-91061904D01*
X137347619Y-91157142D01*
X137300000Y-91204761D01*
X137204761Y-91252380D01*
X137109523Y-91252380D01*
X137014285Y-91204761D01*
X136966666Y-91157142D01*
X136919047Y-91061904D01*
X136871428Y-90871428D01*
X136871428Y-90633333D01*
X136919047Y-90442857D01*
X136966666Y-90347619D01*
X137014285Y-90300000D01*
X137109523Y-90252380D01*
X170861904Y-84952380D02*
X170385714Y-84952380D01*
X170338095Y-85428571D01*
X170385714Y-85380952D01*
X170480952Y-85333333D01*
X170719047Y-85333333D01*
X170814285Y-85380952D01*
X170861904Y-85428571D01*
X170909523Y-85523809D01*
X170909523Y-85761904D01*
X170861904Y-85857142D01*
X170814285Y-85904761D01*
X170719047Y-85952380D01*
X170480952Y-85952380D01*
X170385714Y-85904761D01*
X170338095Y-85857142D01*
X171290476Y-85047619D02*
X171338095Y-85000000D01*
X171433333Y-84952380D01*
X171671428Y-84952380D01*
X171766666Y-85000000D01*
X171814285Y-85047619D01*
X171861904Y-85142857D01*
X171861904Y-85238095D01*
X171814285Y-85380952D01*
X171242857Y-85952380D01*
X171861904Y-85952380D01*
X170861904Y-87552380D02*
X170385714Y-87552380D01*
X170338095Y-88028571D01*
X170385714Y-87980952D01*
X170480952Y-87933333D01*
X170719047Y-87933333D01*
X170814285Y-87980952D01*
X170861904Y-88028571D01*
X170909523Y-88123809D01*
X170909523Y-88361904D01*
X170861904Y-88457142D01*
X170814285Y-88504761D01*
X170719047Y-88552380D01*
X170480952Y-88552380D01*
X170385714Y-88504761D01*
X170338095Y-88457142D01*
X171861904Y-88552380D02*
X171290476Y-88552380D01*
X171576190Y-88552380D02*
X171576190Y-87552380D01*
X171480952Y-87695238D01*
X171385714Y-87790476D01*
X171290476Y-87838095D01*
X101174285Y-85147619D02*
X101221904Y-85100000D01*
X101317142Y-85052380D01*
X101555238Y-85052380D01*
X101650476Y-85100000D01*
X101698095Y-85147619D01*
X101745714Y-85242857D01*
X101745714Y-85338095D01*
X101698095Y-85480952D01*
X101126666Y-86052380D01*
X101745714Y-86052380D01*
X101745714Y-88552380D02*
X101174285Y-88552380D01*
X101460000Y-88552380D02*
X101460000Y-87552380D01*
X101364761Y-87695238D01*
X101269523Y-87790476D01*
X101174285Y-87838095D01*
%TO.C,H2*%
D12*
X172378095Y-84752380D02*
X172378095Y-83752380D01*
X172378095Y-84228571D02*
X172949523Y-84228571D01*
X172949523Y-84752380D02*
X172949523Y-83752380D01*
X173378095Y-83847619D02*
X173425714Y-83800000D01*
X173520952Y-83752380D01*
X173759047Y-83752380D01*
X173854285Y-83800000D01*
X173901904Y-83847619D01*
X173949523Y-83942857D01*
X173949523Y-84038095D01*
X173901904Y-84180952D01*
X173330476Y-84752380D01*
X173949523Y-84752380D01*
%TO.C,H1*%
X98698095Y-84852380D02*
X98698095Y-83852380D01*
X98698095Y-84328571D02*
X99269523Y-84328571D01*
X99269523Y-84852380D02*
X99269523Y-83852380D01*
X100269523Y-84852380D02*
X99698095Y-84852380D01*
X99983809Y-84852380D02*
X99983809Y-83852380D01*
X99888571Y-83995238D01*
X99793333Y-84090476D01*
X99698095Y-84138095D01*
%TD*%
M02*
