G04 #@! TF.GenerationSoftware,KiCad,Pcbnew,5.1.6-1.fc32*
G04 #@! TF.CreationDate,2020-09-20T21:59:19-03:00*
G04 #@! TF.ProjectId,pc104-adapter-top,70633130-342d-4616-9461-707465722d74,v2.0*
G04 #@! TF.SameCoordinates,Original*
G04 #@! TF.FileFunction,Legend,Bot*
G04 #@! TF.FilePolarity,Positive*
%FSLAX46Y46*%
G04 Gerber Fmt 4.6, Leading zero omitted, Abs format (unit mm)*
G04 Created by KiCad (PCBNEW 5.1.6-1.fc32) date 2020-09-20 21:59:19*
%MOMM*%
%LPD*%
G01*
G04 APERTURE LIST*
%ADD10C,0.160000*%
%ADD11C,0.120000*%
%ADD12C,0.150000*%
G04 APERTURE END LIST*
D10*
X170552380Y-75452380D02*
X170552380Y-74452380D01*
X170552380Y-74928571D02*
X169980952Y-74928571D01*
X169980952Y-75452380D02*
X169980952Y-74452380D01*
X169552380Y-74547619D02*
X169504761Y-74500000D01*
X169409523Y-74452380D01*
X169171428Y-74452380D01*
X169076190Y-74500000D01*
X169028571Y-74547619D01*
X168980952Y-74642857D01*
X168980952Y-74738095D01*
X169028571Y-74880952D01*
X169600000Y-75452380D01*
X168980952Y-75452380D01*
X168552380Y-75357142D02*
X168504761Y-75404761D01*
X168552380Y-75452380D01*
X168600000Y-75404761D01*
X168552380Y-75357142D01*
X168552380Y-75452380D01*
X167600000Y-74452380D02*
X168076190Y-74452380D01*
X168123809Y-74928571D01*
X168076190Y-74880952D01*
X167980952Y-74833333D01*
X167742857Y-74833333D01*
X167647619Y-74880952D01*
X167600000Y-74928571D01*
X167552380Y-75023809D01*
X167552380Y-75261904D01*
X167600000Y-75357142D01*
X167647619Y-75404761D01*
X167742857Y-75452380D01*
X167980952Y-75452380D01*
X168076190Y-75404761D01*
X168123809Y-75357142D01*
X167171428Y-74547619D02*
X167123809Y-74500000D01*
X167028571Y-74452380D01*
X166790476Y-74452380D01*
X166695238Y-74500000D01*
X166647619Y-74547619D01*
X166600000Y-74642857D01*
X166600000Y-74738095D01*
X166647619Y-74880952D01*
X167219047Y-75452380D01*
X166600000Y-75452380D01*
X170552380Y-90552380D02*
X170552380Y-89552380D01*
X170552380Y-90028571D02*
X169980952Y-90028571D01*
X169980952Y-90552380D02*
X169980952Y-89552380D01*
X169552380Y-89647619D02*
X169504761Y-89600000D01*
X169409523Y-89552380D01*
X169171428Y-89552380D01*
X169076190Y-89600000D01*
X169028571Y-89647619D01*
X168980952Y-89742857D01*
X168980952Y-89838095D01*
X169028571Y-89980952D01*
X169600000Y-90552380D01*
X168980952Y-90552380D01*
X168552380Y-90457142D02*
X168504761Y-90504761D01*
X168552380Y-90552380D01*
X168600000Y-90504761D01*
X168552380Y-90457142D01*
X168552380Y-90552380D01*
X167647619Y-89885714D02*
X167647619Y-90552380D01*
X167885714Y-89504761D02*
X168123809Y-90219047D01*
X167504761Y-90219047D01*
X166933333Y-89552380D02*
X166838095Y-89552380D01*
X166742857Y-89600000D01*
X166695238Y-89647619D01*
X166647619Y-89742857D01*
X166600000Y-89933333D01*
X166600000Y-90171428D01*
X166647619Y-90361904D01*
X166695238Y-90457142D01*
X166742857Y-90504761D01*
X166838095Y-90552380D01*
X166933333Y-90552380D01*
X167028571Y-90504761D01*
X167076190Y-90457142D01*
X167123809Y-90361904D01*
X167171428Y-90171428D01*
X167171428Y-89933333D01*
X167123809Y-89742857D01*
X167076190Y-89647619D01*
X167028571Y-89600000D01*
X166933333Y-89552380D01*
X160052380Y-75552380D02*
X160052380Y-74552380D01*
X160052380Y-75028571D02*
X159480952Y-75028571D01*
X159480952Y-75552380D02*
X159480952Y-74552380D01*
X159052380Y-74647619D02*
X159004761Y-74600000D01*
X158909523Y-74552380D01*
X158671428Y-74552380D01*
X158576190Y-74600000D01*
X158528571Y-74647619D01*
X158480952Y-74742857D01*
X158480952Y-74838095D01*
X158528571Y-74980952D01*
X159100000Y-75552380D01*
X158480952Y-75552380D01*
X158052380Y-75457142D02*
X158004761Y-75504761D01*
X158052380Y-75552380D01*
X158100000Y-75504761D01*
X158052380Y-75457142D01*
X158052380Y-75552380D01*
X157671428Y-74552380D02*
X157052380Y-74552380D01*
X157385714Y-74933333D01*
X157242857Y-74933333D01*
X157147619Y-74980952D01*
X157100000Y-75028571D01*
X157052380Y-75123809D01*
X157052380Y-75361904D01*
X157100000Y-75457142D01*
X157147619Y-75504761D01*
X157242857Y-75552380D01*
X157528571Y-75552380D01*
X157623809Y-75504761D01*
X157671428Y-75457142D01*
X156576190Y-75552380D02*
X156385714Y-75552380D01*
X156290476Y-75504761D01*
X156242857Y-75457142D01*
X156147619Y-75314285D01*
X156100000Y-75123809D01*
X156100000Y-74742857D01*
X156147619Y-74647619D01*
X156195238Y-74600000D01*
X156290476Y-74552380D01*
X156480952Y-74552380D01*
X156576190Y-74600000D01*
X156623809Y-74647619D01*
X156671428Y-74742857D01*
X156671428Y-74980952D01*
X156623809Y-75076190D01*
X156576190Y-75123809D01*
X156480952Y-75171428D01*
X156290476Y-75171428D01*
X156195238Y-75123809D01*
X156147619Y-75076190D01*
X156100000Y-74980952D01*
X159952380Y-90552380D02*
X159952380Y-89552380D01*
X159952380Y-90028571D02*
X159380952Y-90028571D01*
X159380952Y-90552380D02*
X159380952Y-89552380D01*
X158952380Y-89647619D02*
X158904761Y-89600000D01*
X158809523Y-89552380D01*
X158571428Y-89552380D01*
X158476190Y-89600000D01*
X158428571Y-89647619D01*
X158380952Y-89742857D01*
X158380952Y-89838095D01*
X158428571Y-89980952D01*
X159000000Y-90552380D01*
X158380952Y-90552380D01*
X157952380Y-90457142D02*
X157904761Y-90504761D01*
X157952380Y-90552380D01*
X158000000Y-90504761D01*
X157952380Y-90457142D01*
X157952380Y-90552380D01*
X157523809Y-89647619D02*
X157476190Y-89600000D01*
X157380952Y-89552380D01*
X157142857Y-89552380D01*
X157047619Y-89600000D01*
X157000000Y-89647619D01*
X156952380Y-89742857D01*
X156952380Y-89838095D01*
X157000000Y-89980952D01*
X157571428Y-90552380D01*
X156952380Y-90552380D01*
X156619047Y-89552380D02*
X155952380Y-89552380D01*
X156380952Y-90552380D01*
X145352380Y-89747619D02*
X144352380Y-89747619D01*
X144828571Y-89747619D02*
X144828571Y-90319047D01*
X145352380Y-90319047D02*
X144352380Y-90319047D01*
X144447619Y-90747619D02*
X144400000Y-90795238D01*
X144352380Y-90890476D01*
X144352380Y-91128571D01*
X144400000Y-91223809D01*
X144447619Y-91271428D01*
X144542857Y-91319047D01*
X144638095Y-91319047D01*
X144780952Y-91271428D01*
X145352380Y-90700000D01*
X145352380Y-91319047D01*
X145257142Y-91747619D02*
X145304761Y-91795238D01*
X145352380Y-91747619D01*
X145304761Y-91700000D01*
X145257142Y-91747619D01*
X145352380Y-91747619D01*
X144447619Y-92176190D02*
X144400000Y-92223809D01*
X144352380Y-92319047D01*
X144352380Y-92557142D01*
X144400000Y-92652380D01*
X144447619Y-92700000D01*
X144542857Y-92747619D01*
X144638095Y-92747619D01*
X144780952Y-92700000D01*
X145352380Y-92128571D01*
X145352380Y-92747619D01*
X144352380Y-93604761D02*
X144352380Y-93414285D01*
X144400000Y-93319047D01*
X144447619Y-93271428D01*
X144590476Y-93176190D01*
X144780952Y-93128571D01*
X145161904Y-93128571D01*
X145257142Y-93176190D01*
X145304761Y-93223809D01*
X145352380Y-93319047D01*
X145352380Y-93509523D01*
X145304761Y-93604761D01*
X145257142Y-93652380D01*
X145161904Y-93700000D01*
X144923809Y-93700000D01*
X144828571Y-93652380D01*
X144780952Y-93604761D01*
X144733333Y-93509523D01*
X144733333Y-93319047D01*
X144780952Y-93223809D01*
X144828571Y-93176190D01*
X144923809Y-93128571D01*
X145252380Y-71447619D02*
X144252380Y-71447619D01*
X144728571Y-71447619D02*
X144728571Y-72019047D01*
X145252380Y-72019047D02*
X144252380Y-72019047D01*
X144347619Y-72447619D02*
X144300000Y-72495238D01*
X144252380Y-72590476D01*
X144252380Y-72828571D01*
X144300000Y-72923809D01*
X144347619Y-72971428D01*
X144442857Y-73019047D01*
X144538095Y-73019047D01*
X144680952Y-72971428D01*
X145252380Y-72400000D01*
X145252380Y-73019047D01*
X145157142Y-73447619D02*
X145204761Y-73495238D01*
X145252380Y-73447619D01*
X145204761Y-73400000D01*
X145157142Y-73447619D01*
X145252380Y-73447619D01*
X145252380Y-74447619D02*
X145252380Y-73876190D01*
X145252380Y-74161904D02*
X144252380Y-74161904D01*
X144395238Y-74066666D01*
X144490476Y-73971428D01*
X144538095Y-73876190D01*
X144585714Y-75304761D02*
X145252380Y-75304761D01*
X144204761Y-75066666D02*
X144919047Y-74828571D01*
X144919047Y-75447619D01*
X127152380Y-90452380D02*
X127152380Y-89452380D01*
X127152380Y-89928571D02*
X126580952Y-89928571D01*
X126580952Y-90452380D02*
X126580952Y-89452380D01*
X126152380Y-89547619D02*
X126104761Y-89500000D01*
X126009523Y-89452380D01*
X125771428Y-89452380D01*
X125676190Y-89500000D01*
X125628571Y-89547619D01*
X125580952Y-89642857D01*
X125580952Y-89738095D01*
X125628571Y-89880952D01*
X126200000Y-90452380D01*
X125580952Y-90452380D01*
X125152380Y-90357142D02*
X125104761Y-90404761D01*
X125152380Y-90452380D01*
X125200000Y-90404761D01*
X125152380Y-90357142D01*
X125152380Y-90452380D01*
X124152380Y-90452380D02*
X124723809Y-90452380D01*
X124438095Y-90452380D02*
X124438095Y-89452380D01*
X124533333Y-89595238D01*
X124628571Y-89690476D01*
X124723809Y-89738095D01*
X123819047Y-89452380D02*
X123200000Y-89452380D01*
X123533333Y-89833333D01*
X123390476Y-89833333D01*
X123295238Y-89880952D01*
X123247619Y-89928571D01*
X123200000Y-90023809D01*
X123200000Y-90261904D01*
X123247619Y-90357142D01*
X123295238Y-90404761D01*
X123390476Y-90452380D01*
X123676190Y-90452380D01*
X123771428Y-90404761D01*
X123819047Y-90357142D01*
X126176190Y-75552380D02*
X126176190Y-74552380D01*
X126176190Y-75028571D02*
X125604761Y-75028571D01*
X125604761Y-75552380D02*
X125604761Y-74552380D01*
X125176190Y-74647619D02*
X125128571Y-74600000D01*
X125033333Y-74552380D01*
X124795238Y-74552380D01*
X124700000Y-74600000D01*
X124652380Y-74647619D01*
X124604761Y-74742857D01*
X124604761Y-74838095D01*
X124652380Y-74980952D01*
X125223809Y-75552380D01*
X124604761Y-75552380D01*
X124176190Y-75457142D02*
X124128571Y-75504761D01*
X124176190Y-75552380D01*
X124223809Y-75504761D01*
X124176190Y-75457142D01*
X124176190Y-75552380D01*
X123176190Y-75552380D02*
X123747619Y-75552380D01*
X123461904Y-75552380D02*
X123461904Y-74552380D01*
X123557142Y-74695238D01*
X123652380Y-74790476D01*
X123747619Y-74838095D01*
X181052380Y-75452380D02*
X181052380Y-74452380D01*
X181052380Y-74928571D02*
X180480952Y-74928571D01*
X180480952Y-75452380D02*
X180480952Y-74452380D01*
X179480952Y-75452380D02*
X180052380Y-75452380D01*
X179766666Y-75452380D02*
X179766666Y-74452380D01*
X179861904Y-74595238D01*
X179957142Y-74690476D01*
X180052380Y-74738095D01*
X179052380Y-75357142D02*
X179004761Y-75404761D01*
X179052380Y-75452380D01*
X179100000Y-75404761D01*
X179052380Y-75357142D01*
X179052380Y-75452380D01*
X178100000Y-74452380D02*
X178576190Y-74452380D01*
X178623809Y-74928571D01*
X178576190Y-74880952D01*
X178480952Y-74833333D01*
X178242857Y-74833333D01*
X178147619Y-74880952D01*
X178100000Y-74928571D01*
X178052380Y-75023809D01*
X178052380Y-75261904D01*
X178100000Y-75357142D01*
X178147619Y-75404761D01*
X178242857Y-75452380D01*
X178480952Y-75452380D01*
X178576190Y-75404761D01*
X178623809Y-75357142D01*
X177671428Y-74547619D02*
X177623809Y-74500000D01*
X177528571Y-74452380D01*
X177290476Y-74452380D01*
X177195238Y-74500000D01*
X177147619Y-74547619D01*
X177100000Y-74642857D01*
X177100000Y-74738095D01*
X177147619Y-74880952D01*
X177719047Y-75452380D01*
X177100000Y-75452380D01*
X181052380Y-90552380D02*
X181052380Y-89552380D01*
X181052380Y-90028571D02*
X180480952Y-90028571D01*
X180480952Y-90552380D02*
X180480952Y-89552380D01*
X179480952Y-90552380D02*
X180052380Y-90552380D01*
X179766666Y-90552380D02*
X179766666Y-89552380D01*
X179861904Y-89695238D01*
X179957142Y-89790476D01*
X180052380Y-89838095D01*
X179052380Y-90457142D02*
X179004761Y-90504761D01*
X179052380Y-90552380D01*
X179100000Y-90504761D01*
X179052380Y-90457142D01*
X179052380Y-90552380D01*
X178147619Y-89885714D02*
X178147619Y-90552380D01*
X178385714Y-89504761D02*
X178623809Y-90219047D01*
X178004761Y-90219047D01*
X177433333Y-89552380D02*
X177338095Y-89552380D01*
X177242857Y-89600000D01*
X177195238Y-89647619D01*
X177147619Y-89742857D01*
X177100000Y-89933333D01*
X177100000Y-90171428D01*
X177147619Y-90361904D01*
X177195238Y-90457142D01*
X177242857Y-90504761D01*
X177338095Y-90552380D01*
X177433333Y-90552380D01*
X177528571Y-90504761D01*
X177576190Y-90457142D01*
X177623809Y-90361904D01*
X177671428Y-90171428D01*
X177671428Y-89933333D01*
X177623809Y-89742857D01*
X177576190Y-89647619D01*
X177528571Y-89600000D01*
X177433333Y-89552380D01*
X149552380Y-71347619D02*
X148552380Y-71347619D01*
X149028571Y-71347619D02*
X149028571Y-71919047D01*
X149552380Y-71919047D02*
X148552380Y-71919047D01*
X149552380Y-72919047D02*
X149552380Y-72347619D01*
X149552380Y-72633333D02*
X148552380Y-72633333D01*
X148695238Y-72538095D01*
X148790476Y-72442857D01*
X148838095Y-72347619D01*
X149457142Y-73347619D02*
X149504761Y-73395238D01*
X149552380Y-73347619D01*
X149504761Y-73300000D01*
X149457142Y-73347619D01*
X149552380Y-73347619D01*
X148552380Y-73728571D02*
X148552380Y-74347619D01*
X148933333Y-74014285D01*
X148933333Y-74157142D01*
X148980952Y-74252380D01*
X149028571Y-74300000D01*
X149123809Y-74347619D01*
X149361904Y-74347619D01*
X149457142Y-74300000D01*
X149504761Y-74252380D01*
X149552380Y-74157142D01*
X149552380Y-73871428D01*
X149504761Y-73776190D01*
X149457142Y-73728571D01*
X149552380Y-74823809D02*
X149552380Y-75014285D01*
X149504761Y-75109523D01*
X149457142Y-75157142D01*
X149314285Y-75252380D01*
X149123809Y-75300000D01*
X148742857Y-75300000D01*
X148647619Y-75252380D01*
X148600000Y-75204761D01*
X148552380Y-75109523D01*
X148552380Y-74919047D01*
X148600000Y-74823809D01*
X148647619Y-74776190D01*
X148742857Y-74728571D01*
X148980952Y-74728571D01*
X149076190Y-74776190D01*
X149123809Y-74823809D01*
X149171428Y-74919047D01*
X149171428Y-75109523D01*
X149123809Y-75204761D01*
X149076190Y-75252380D01*
X148980952Y-75300000D01*
X149452380Y-89747619D02*
X148452380Y-89747619D01*
X148928571Y-89747619D02*
X148928571Y-90319047D01*
X149452380Y-90319047D02*
X148452380Y-90319047D01*
X149452380Y-91319047D02*
X149452380Y-90747619D01*
X149452380Y-91033333D02*
X148452380Y-91033333D01*
X148595238Y-90938095D01*
X148690476Y-90842857D01*
X148738095Y-90747619D01*
X149357142Y-91747619D02*
X149404761Y-91795238D01*
X149452380Y-91747619D01*
X149404761Y-91700000D01*
X149357142Y-91747619D01*
X149452380Y-91747619D01*
X148547619Y-92176190D02*
X148500000Y-92223809D01*
X148452380Y-92319047D01*
X148452380Y-92557142D01*
X148500000Y-92652380D01*
X148547619Y-92700000D01*
X148642857Y-92747619D01*
X148738095Y-92747619D01*
X148880952Y-92700000D01*
X149452380Y-92128571D01*
X149452380Y-92747619D01*
X148452380Y-93080952D02*
X148452380Y-93747619D01*
X149452380Y-93319047D01*
X137652380Y-90452380D02*
X137652380Y-89452380D01*
X137652380Y-89928571D02*
X137080952Y-89928571D01*
X137080952Y-90452380D02*
X137080952Y-89452380D01*
X136080952Y-90452380D02*
X136652380Y-90452380D01*
X136366666Y-90452380D02*
X136366666Y-89452380D01*
X136461904Y-89595238D01*
X136557142Y-89690476D01*
X136652380Y-89738095D01*
X135652380Y-90357142D02*
X135604761Y-90404761D01*
X135652380Y-90452380D01*
X135700000Y-90404761D01*
X135652380Y-90357142D01*
X135652380Y-90452380D01*
X135223809Y-89547619D02*
X135176190Y-89500000D01*
X135080952Y-89452380D01*
X134842857Y-89452380D01*
X134747619Y-89500000D01*
X134700000Y-89547619D01*
X134652380Y-89642857D01*
X134652380Y-89738095D01*
X134700000Y-89880952D01*
X135271428Y-90452380D01*
X134652380Y-90452380D01*
X133795238Y-89452380D02*
X133985714Y-89452380D01*
X134080952Y-89500000D01*
X134128571Y-89547619D01*
X134223809Y-89690476D01*
X134271428Y-89880952D01*
X134271428Y-90261904D01*
X134223809Y-90357142D01*
X134176190Y-90404761D01*
X134080952Y-90452380D01*
X133890476Y-90452380D01*
X133795238Y-90404761D01*
X133747619Y-90357142D01*
X133700000Y-90261904D01*
X133700000Y-90023809D01*
X133747619Y-89928571D01*
X133795238Y-89880952D01*
X133890476Y-89833333D01*
X134080952Y-89833333D01*
X134176190Y-89880952D01*
X134223809Y-89928571D01*
X134271428Y-90023809D01*
X137652380Y-75552380D02*
X137652380Y-74552380D01*
X137652380Y-75028571D02*
X137080952Y-75028571D01*
X137080952Y-75552380D02*
X137080952Y-74552380D01*
X136080952Y-75552380D02*
X136652380Y-75552380D01*
X136366666Y-75552380D02*
X136366666Y-74552380D01*
X136461904Y-74695238D01*
X136557142Y-74790476D01*
X136652380Y-74838095D01*
X135652380Y-75457142D02*
X135604761Y-75504761D01*
X135652380Y-75552380D01*
X135700000Y-75504761D01*
X135652380Y-75457142D01*
X135652380Y-75552380D01*
X134652380Y-75552380D02*
X135223809Y-75552380D01*
X134938095Y-75552380D02*
X134938095Y-74552380D01*
X135033333Y-74695238D01*
X135128571Y-74790476D01*
X135223809Y-74838095D01*
X133795238Y-74885714D02*
X133795238Y-75552380D01*
X134033333Y-74504761D02*
X134271428Y-75219047D01*
X133652380Y-75219047D01*
X116652380Y-90452380D02*
X116652380Y-89452380D01*
X116652380Y-89928571D02*
X116080952Y-89928571D01*
X116080952Y-90452380D02*
X116080952Y-89452380D01*
X115080952Y-90452380D02*
X115652380Y-90452380D01*
X115366666Y-90452380D02*
X115366666Y-89452380D01*
X115461904Y-89595238D01*
X115557142Y-89690476D01*
X115652380Y-89738095D01*
X114652380Y-90357142D02*
X114604761Y-90404761D01*
X114652380Y-90452380D01*
X114700000Y-90404761D01*
X114652380Y-90357142D01*
X114652380Y-90452380D01*
X113652380Y-90452380D02*
X114223809Y-90452380D01*
X113938095Y-90452380D02*
X113938095Y-89452380D01*
X114033333Y-89595238D01*
X114128571Y-89690476D01*
X114223809Y-89738095D01*
X113319047Y-89452380D02*
X112700000Y-89452380D01*
X113033333Y-89833333D01*
X112890476Y-89833333D01*
X112795238Y-89880952D01*
X112747619Y-89928571D01*
X112700000Y-90023809D01*
X112700000Y-90261904D01*
X112747619Y-90357142D01*
X112795238Y-90404761D01*
X112890476Y-90452380D01*
X113176190Y-90452380D01*
X113271428Y-90404761D01*
X113319047Y-90357142D01*
X115676190Y-75552380D02*
X115676190Y-74552380D01*
X115676190Y-75028571D02*
X115104761Y-75028571D01*
X115104761Y-75552380D02*
X115104761Y-74552380D01*
X114104761Y-75552380D02*
X114676190Y-75552380D01*
X114390476Y-75552380D02*
X114390476Y-74552380D01*
X114485714Y-74695238D01*
X114580952Y-74790476D01*
X114676190Y-74838095D01*
X113676190Y-75457142D02*
X113628571Y-75504761D01*
X113676190Y-75552380D01*
X113723809Y-75504761D01*
X113676190Y-75457142D01*
X113676190Y-75552380D01*
X112676190Y-75552380D02*
X113247619Y-75552380D01*
X112961904Y-75552380D02*
X112961904Y-74552380D01*
X113057142Y-74695238D01*
X113152380Y-74790476D01*
X113247619Y-74838095D01*
X180370000Y-52916000D02*
X113430000Y-52916000D01*
X180370000Y-63976000D02*
X180370000Y-52916000D01*
X113430000Y-63976000D02*
X180370000Y-63976000D01*
X113430000Y-52916000D02*
X113430000Y-63976000D01*
D11*
X186442000Y-73760000D02*
X186442000Y-91240000D01*
X182522000Y-91610000D02*
X182522000Y-90660000D01*
X183472000Y-91610000D02*
X182522000Y-91610000D01*
X182522000Y-74340000D02*
X181832000Y-74340000D01*
X182522000Y-73390000D02*
X182522000Y-74340000D01*
X183472000Y-73390000D02*
X182522000Y-73390000D01*
X154868000Y-73760000D02*
X154868000Y-91240000D01*
X150948000Y-91610000D02*
X150948000Y-90660000D01*
X151898000Y-91610000D02*
X150948000Y-91610000D01*
X150948000Y-74340000D02*
X150258000Y-74340000D01*
X150948000Y-73390000D02*
X150948000Y-74340000D01*
X151898000Y-73390000D02*
X150948000Y-73390000D01*
X128399000Y-91240000D02*
X128399000Y-73760000D01*
X132319000Y-73390000D02*
X132319000Y-74340000D01*
X131369000Y-73390000D02*
X132319000Y-73390000D01*
X132319000Y-90660000D02*
X133009000Y-90660000D01*
X132319000Y-91610000D02*
X132319000Y-90660000D01*
X131369000Y-91610000D02*
X132319000Y-91610000D01*
X107350000Y-91240000D02*
X107350000Y-73760000D01*
X111270000Y-73390000D02*
X111270000Y-74340000D01*
X110320000Y-73390000D02*
X111270000Y-73390000D01*
X111270000Y-90660000D02*
X111960000Y-90660000D01*
X111270000Y-91610000D02*
X111270000Y-90660000D01*
X110320000Y-91610000D02*
X111270000Y-91610000D01*
X175918000Y-73760000D02*
X175918000Y-91240000D01*
X171998000Y-91610000D02*
X171998000Y-90660000D01*
X172948000Y-91610000D02*
X171998000Y-91610000D01*
X171998000Y-74340000D02*
X171308000Y-74340000D01*
X171998000Y-73390000D02*
X171998000Y-74340000D01*
X172948000Y-73390000D02*
X171998000Y-73390000D01*
X165393000Y-73760000D02*
X165393000Y-91240000D01*
X161473000Y-91610000D02*
X161473000Y-90660000D01*
X162423000Y-91610000D02*
X161473000Y-91610000D01*
X161473000Y-74340000D02*
X160783000Y-74340000D01*
X161473000Y-73390000D02*
X161473000Y-74340000D01*
X162423000Y-73390000D02*
X161473000Y-73390000D01*
X138924000Y-91240000D02*
X138924000Y-73760000D01*
X142844000Y-73390000D02*
X142844000Y-74340000D01*
X141894000Y-73390000D02*
X142844000Y-73390000D01*
X142844000Y-90660000D02*
X143534000Y-90660000D01*
X142844000Y-91610000D02*
X142844000Y-90660000D01*
X141894000Y-91610000D02*
X142844000Y-91610000D01*
X117875000Y-91240000D02*
X117875000Y-73760000D01*
X121795000Y-73390000D02*
X121795000Y-74340000D01*
X120845000Y-73390000D02*
X121795000Y-73390000D01*
X121795000Y-90660000D02*
X122485000Y-90660000D01*
X121795000Y-91610000D02*
X121795000Y-90660000D01*
X120845000Y-91610000D02*
X121795000Y-91610000D01*
D10*
X147233333Y-51852380D02*
X147233333Y-52566666D01*
X147280952Y-52709523D01*
X147376190Y-52804761D01*
X147519047Y-52852380D01*
X147614285Y-52852380D01*
X146709523Y-52852380D02*
X146519047Y-52852380D01*
X146423809Y-52804761D01*
X146376190Y-52757142D01*
X146280952Y-52614285D01*
X146233333Y-52423809D01*
X146233333Y-52042857D01*
X146280952Y-51947619D01*
X146328571Y-51900000D01*
X146423809Y-51852380D01*
X146614285Y-51852380D01*
X146709523Y-51900000D01*
X146757142Y-51947619D01*
X146804761Y-52042857D01*
X146804761Y-52280952D01*
X146757142Y-52376190D01*
X146709523Y-52423809D01*
X146614285Y-52471428D01*
X146423809Y-52471428D01*
X146328571Y-52423809D01*
X146280952Y-52376190D01*
X146233333Y-52280952D01*
X147709523Y-64452380D02*
X147709523Y-65166666D01*
X147757142Y-65309523D01*
X147852380Y-65404761D01*
X147995238Y-65452380D01*
X148090476Y-65452380D01*
X146709523Y-65452380D02*
X147280952Y-65452380D01*
X146995238Y-65452380D02*
X146995238Y-64452380D01*
X147090476Y-64595238D01*
X147185714Y-64690476D01*
X147280952Y-64738095D01*
X146090476Y-64452380D02*
X145995238Y-64452380D01*
X145900000Y-64500000D01*
X145852380Y-64547619D01*
X145804761Y-64642857D01*
X145757142Y-64833333D01*
X145757142Y-65071428D01*
X145804761Y-65261904D01*
X145852380Y-65357142D01*
X145900000Y-65404761D01*
X145995238Y-65452380D01*
X146090476Y-65452380D01*
X146185714Y-65404761D01*
X146233333Y-65357142D01*
X146280952Y-65261904D01*
X146328571Y-65071428D01*
X146328571Y-64833333D01*
X146280952Y-64642857D01*
X146233333Y-64547619D01*
X146185714Y-64500000D01*
X146090476Y-64452380D01*
D12*
X180084380Y-82166666D02*
X180798666Y-82166666D01*
X180941523Y-82119047D01*
X181036761Y-82023809D01*
X181084380Y-81880952D01*
X181084380Y-81785714D01*
X180512952Y-82785714D02*
X180465333Y-82690476D01*
X180417714Y-82642857D01*
X180322476Y-82595238D01*
X180274857Y-82595238D01*
X180179619Y-82642857D01*
X180132000Y-82690476D01*
X180084380Y-82785714D01*
X180084380Y-82976190D01*
X180132000Y-83071428D01*
X180179619Y-83119047D01*
X180274857Y-83166666D01*
X180322476Y-83166666D01*
X180417714Y-83119047D01*
X180465333Y-83071428D01*
X180512952Y-82976190D01*
X180512952Y-82785714D01*
X180560571Y-82690476D01*
X180608190Y-82642857D01*
X180703428Y-82595238D01*
X180893904Y-82595238D01*
X180989142Y-82642857D01*
X181036761Y-82690476D01*
X181084380Y-82785714D01*
X181084380Y-82976190D01*
X181036761Y-83071428D01*
X180989142Y-83119047D01*
X180893904Y-83166666D01*
X180703428Y-83166666D01*
X180608190Y-83119047D01*
X180560571Y-83071428D01*
X180512952Y-82976190D01*
X148510380Y-82166666D02*
X149224666Y-82166666D01*
X149367523Y-82119047D01*
X149462761Y-82023809D01*
X149510380Y-81880952D01*
X149510380Y-81785714D01*
X148510380Y-82547619D02*
X148510380Y-83214285D01*
X149510380Y-82785714D01*
X133661380Y-82166666D02*
X134375666Y-82166666D01*
X134518523Y-82119047D01*
X134613761Y-82023809D01*
X134661380Y-81880952D01*
X134661380Y-81785714D01*
X133661380Y-83071428D02*
X133661380Y-82880952D01*
X133709000Y-82785714D01*
X133756619Y-82738095D01*
X133899476Y-82642857D01*
X134089952Y-82595238D01*
X134470904Y-82595238D01*
X134566142Y-82642857D01*
X134613761Y-82690476D01*
X134661380Y-82785714D01*
X134661380Y-82976190D01*
X134613761Y-83071428D01*
X134566142Y-83119047D01*
X134470904Y-83166666D01*
X134232809Y-83166666D01*
X134137571Y-83119047D01*
X134089952Y-83071428D01*
X134042333Y-82976190D01*
X134042333Y-82785714D01*
X134089952Y-82690476D01*
X134137571Y-82642857D01*
X134232809Y-82595238D01*
X112612380Y-82166666D02*
X113326666Y-82166666D01*
X113469523Y-82119047D01*
X113564761Y-82023809D01*
X113612380Y-81880952D01*
X113612380Y-81785714D01*
X112612380Y-83119047D02*
X112612380Y-82642857D01*
X113088571Y-82595238D01*
X113040952Y-82642857D01*
X112993333Y-82738095D01*
X112993333Y-82976190D01*
X113040952Y-83071428D01*
X113088571Y-83119047D01*
X113183809Y-83166666D01*
X113421904Y-83166666D01*
X113517142Y-83119047D01*
X113564761Y-83071428D01*
X113612380Y-82976190D01*
X113612380Y-82738095D01*
X113564761Y-82642857D01*
X113517142Y-82595238D01*
X169560380Y-82166666D02*
X170274666Y-82166666D01*
X170417523Y-82119047D01*
X170512761Y-82023809D01*
X170560380Y-81880952D01*
X170560380Y-81785714D01*
X169893714Y-83071428D02*
X170560380Y-83071428D01*
X169512761Y-82833333D02*
X170227047Y-82595238D01*
X170227047Y-83214285D01*
X159035380Y-82166666D02*
X159749666Y-82166666D01*
X159892523Y-82119047D01*
X159987761Y-82023809D01*
X160035380Y-81880952D01*
X160035380Y-81785714D01*
X159035380Y-82547619D02*
X159035380Y-83166666D01*
X159416333Y-82833333D01*
X159416333Y-82976190D01*
X159463952Y-83071428D01*
X159511571Y-83119047D01*
X159606809Y-83166666D01*
X159844904Y-83166666D01*
X159940142Y-83119047D01*
X159987761Y-83071428D01*
X160035380Y-82976190D01*
X160035380Y-82690476D01*
X159987761Y-82595238D01*
X159940142Y-82547619D01*
X144186380Y-82166666D02*
X144900666Y-82166666D01*
X145043523Y-82119047D01*
X145138761Y-82023809D01*
X145186380Y-81880952D01*
X145186380Y-81785714D01*
X144281619Y-82595238D02*
X144234000Y-82642857D01*
X144186380Y-82738095D01*
X144186380Y-82976190D01*
X144234000Y-83071428D01*
X144281619Y-83119047D01*
X144376857Y-83166666D01*
X144472095Y-83166666D01*
X144614952Y-83119047D01*
X145186380Y-82547619D01*
X145186380Y-83166666D01*
X123137380Y-82166666D02*
X123851666Y-82166666D01*
X123994523Y-82119047D01*
X124089761Y-82023809D01*
X124137380Y-81880952D01*
X124137380Y-81785714D01*
X124137380Y-83166666D02*
X124137380Y-82595238D01*
X124137380Y-82880952D02*
X123137380Y-82880952D01*
X123280238Y-82785714D01*
X123375476Y-82690476D01*
X123423095Y-82595238D01*
M02*
