%TF.GenerationSoftware,KiCad,Pcbnew,5.1.6-1.fc32*%
%TF.CreationDate,2020-07-10T21:32:06-03:00*%
%TF.ProjectId,pc104-adapter-top,70633130-342d-4616-9461-707465722d74,v1.0*%
%TF.SameCoordinates,Original*%
%TF.FileFunction,Copper,L2,Inr*%
%TF.FilePolarity,Positive*%
%FSLAX46Y46*%
G04 Gerber Fmt 4.6, Leading zero omitted, Abs format (unit mm)*
G04 Created by KiCad (PCBNEW 5.1.6-1.fc32) date 2020-07-10 21:32:06*
%MOMM*%
%LPD*%
G01*
G04 APERTURE LIST*
%TA.AperFunction,ViaPad*%
%ADD10C,1.620000*%
%TD*%
%TA.AperFunction,ViaPad*%
%ADD11C,5.500000*%
%TD*%
%TA.AperFunction,ViaPad*%
%ADD12C,0.800000*%
%TD*%
%TA.AperFunction,Conductor*%
%ADD13C,0.250000*%
%TD*%
%TA.AperFunction,NonConductor*%
%ADD14C,0.254000*%
%TD*%
G04 APERTURE END LIST*
D10*
%TO.N,/A52*%
%TO.C,J9*%
X168050000Y-80436000D03*
%TO.N,/A51*%
X168050000Y-82976000D03*
%TO.N,/A50*%
X165510000Y-80436000D03*
%TO.N,/A49*%
X165510000Y-82976000D03*
%TO.N,/A48*%
X162970000Y-80436000D03*
%TO.N,/A47*%
X162970000Y-82976000D03*
%TO.N,/A46*%
X160430000Y-80436000D03*
%TO.N,/A45*%
X160430000Y-82976000D03*
%TO.N,/A44*%
X157890000Y-80436000D03*
%TO.N,/A43*%
X157890000Y-82976000D03*
%TO.N,/A42*%
X155350000Y-80436000D03*
%TO.N,/A41*%
X155350000Y-82976000D03*
%TO.N,/A40*%
X152810000Y-80436000D03*
%TO.N,/A39*%
X152810000Y-82976000D03*
%TO.N,/A38*%
X150270000Y-80436000D03*
%TO.N,/A37*%
X150270000Y-82976000D03*
%TO.N,/A36*%
X147730000Y-80436000D03*
%TO.N,/A35*%
X147730000Y-82976000D03*
%TO.N,/A34*%
X145190000Y-80436000D03*
%TO.N,/A33*%
X145190000Y-82976000D03*
%TO.N,/A32*%
X142650000Y-80436000D03*
%TO.N,/A31*%
X142650000Y-82976000D03*
%TO.N,/A30*%
X140110000Y-80436000D03*
%TO.N,/A29*%
X140110000Y-82976000D03*
%TO.N,/A28*%
X137570000Y-80436000D03*
%TO.N,/A27*%
X137570000Y-82976000D03*
%TO.N,/A26*%
X135030000Y-80436000D03*
%TO.N,/A25*%
X135030000Y-82976000D03*
%TO.N,/A24*%
X132490000Y-80436000D03*
%TO.N,/A23*%
X132490000Y-82976000D03*
%TO.N,/A22*%
X129950000Y-80436000D03*
%TO.N,/A21*%
X129950000Y-82976000D03*
%TO.N,/A20*%
X127410000Y-80436000D03*
%TO.N,/A19*%
X127410000Y-82976000D03*
%TO.N,/A18*%
X124870000Y-80436000D03*
%TO.N,/A17*%
X124870000Y-82976000D03*
%TO.N,/A16*%
X122330000Y-80436000D03*
%TO.N,/A15*%
X122330000Y-82976000D03*
%TO.N,/A14*%
X119790000Y-80436000D03*
%TO.N,/A13*%
X119790000Y-82976000D03*
%TO.N,/A12*%
X117250000Y-80436000D03*
%TO.N,/A11*%
X117250000Y-82976000D03*
%TO.N,/A10*%
X114710000Y-80436000D03*
%TO.N,/A9*%
X114710000Y-82976000D03*
%TO.N,/A8*%
X112170000Y-80436000D03*
%TO.N,/A7*%
X112170000Y-82976000D03*
%TO.N,/A6*%
X109630000Y-80436000D03*
%TO.N,/A5*%
X109630000Y-82976000D03*
%TO.N,/A4*%
X107090000Y-80436000D03*
%TO.N,/A3*%
X107090000Y-82976000D03*
%TO.N,/A2*%
X104550000Y-80436000D03*
%TO.N,/A1*%
X104550000Y-82976000D03*
%TD*%
%TO.N,/B52*%
%TO.C,J10*%
X168050000Y-85516000D03*
%TO.N,/B51*%
X168050000Y-88056000D03*
%TO.N,/B50*%
X165510000Y-85516000D03*
%TO.N,/B49*%
X165510000Y-88056000D03*
%TO.N,/B48*%
X162970000Y-85516000D03*
%TO.N,/B47*%
X162970000Y-88056000D03*
%TO.N,/B46*%
X160430000Y-85516000D03*
%TO.N,/B45*%
X160430000Y-88056000D03*
%TO.N,/B44*%
X157890000Y-85516000D03*
%TO.N,/B43*%
X157890000Y-88056000D03*
%TO.N,/B42*%
X155350000Y-85516000D03*
%TO.N,/B41*%
X155350000Y-88056000D03*
%TO.N,/B40*%
X152810000Y-85516000D03*
%TO.N,/B39*%
X152810000Y-88056000D03*
%TO.N,/B38*%
X150270000Y-85516000D03*
%TO.N,/B37*%
X150270000Y-88056000D03*
%TO.N,/B36*%
X147730000Y-85516000D03*
%TO.N,/B35*%
X147730000Y-88056000D03*
%TO.N,/B34*%
X145190000Y-85516000D03*
%TO.N,/B33*%
X145190000Y-88056000D03*
%TO.N,/B32*%
X142650000Y-85516000D03*
%TO.N,/B31*%
X142650000Y-88056000D03*
%TO.N,/B30*%
X140110000Y-85516000D03*
%TO.N,/B29*%
X140110000Y-88056000D03*
%TO.N,/B28*%
X137570000Y-85516000D03*
%TO.N,/B27*%
X137570000Y-88056000D03*
%TO.N,/B26*%
X135030000Y-85516000D03*
%TO.N,/B25*%
X135030000Y-88056000D03*
%TO.N,/B24*%
X132490000Y-85516000D03*
%TO.N,/B23*%
X132490000Y-88056000D03*
%TO.N,/B22*%
X129950000Y-85516000D03*
%TO.N,/B21*%
X129950000Y-88056000D03*
%TO.N,/B20*%
X127410000Y-85516000D03*
%TO.N,/B19*%
X127410000Y-88056000D03*
%TO.N,/B18*%
X124870000Y-85516000D03*
%TO.N,/B17*%
X124870000Y-88056000D03*
%TO.N,/B16*%
X122330000Y-85516000D03*
%TO.N,/B15*%
X122330000Y-88056000D03*
%TO.N,/B14*%
X119790000Y-85516000D03*
%TO.N,/B13*%
X119790000Y-88056000D03*
%TO.N,/B12*%
X117250000Y-85516000D03*
%TO.N,/B11*%
X117250000Y-88056000D03*
%TO.N,/B10*%
X114710000Y-85516000D03*
%TO.N,/B9*%
X114710000Y-88056000D03*
%TO.N,/B8*%
X112170000Y-85516000D03*
%TO.N,/B7*%
X112170000Y-88056000D03*
%TO.N,/B6*%
X109630000Y-85516000D03*
%TO.N,/B5*%
X109630000Y-88056000D03*
%TO.N,/B4*%
X107090000Y-85516000D03*
%TO.N,/B3*%
X107090000Y-88056000D03*
%TO.N,/B2*%
X104550000Y-85516000D03*
%TO.N,/B1*%
X104550000Y-88056000D03*
%TD*%
D11*
%TO.N,GND*%
%TO.C,H2*%
X173140000Y-80436000D03*
%TD*%
%TO.N,GND*%
%TO.C,H1*%
X99460000Y-80436000D03*
%TD*%
D12*
%TO.N,/A13*%
X109000000Y-107000000D03*
%TO.N,/A12*%
X107750000Y-107000000D03*
%TO.N,/A11*%
X106500000Y-107000000D03*
%TO.N,/A10*%
X105250000Y-107000000D03*
%TO.N,/A9*%
X104000000Y-107000000D03*
%TO.N,/A8*%
X102750000Y-107000000D03*
%TO.N,/A7*%
X101500000Y-107000000D03*
%TO.N,/A6*%
X100250000Y-107000000D03*
%TO.N,/A5*%
X99000000Y-107000000D03*
%TO.N,/A4*%
X97750000Y-107000000D03*
%TO.N,/A3*%
X96500000Y-107000000D03*
%TO.N,/A2*%
X95250000Y-107000000D03*
%TO.N,/A1*%
X94000000Y-107000000D03*
%TO.N,/A26*%
X132200000Y-107000000D03*
%TO.N,/A25*%
X130950000Y-107000000D03*
%TO.N,/A24*%
X129700000Y-107000000D03*
%TO.N,/A23*%
X128450000Y-107000000D03*
%TO.N,/A22*%
X127200000Y-107000000D03*
%TO.N,/A21*%
X125950000Y-107000000D03*
%TO.N,/A20*%
X124700000Y-107000000D03*
%TO.N,/A19*%
X123450000Y-107000000D03*
%TO.N,/A18*%
X122200000Y-107000000D03*
%TO.N,/A17*%
X120950000Y-107000000D03*
%TO.N,/A16*%
X119700000Y-107000000D03*
%TO.N,/A15*%
X118450000Y-107000000D03*
%TO.N,/A14*%
X117200000Y-107000000D03*
%TO.N,/A39*%
X155400000Y-107000000D03*
%TO.N,/A38*%
X154150000Y-107000000D03*
%TO.N,/A37*%
X152900000Y-107000000D03*
%TO.N,/A36*%
X151650000Y-107000000D03*
%TO.N,/A35*%
X150400000Y-107000000D03*
%TO.N,/A34*%
X149150000Y-107000000D03*
%TO.N,/A33*%
X147900000Y-107000000D03*
%TO.N,/A32*%
X146650000Y-107000000D03*
%TO.N,/A31*%
X145400000Y-107000000D03*
%TO.N,/A30*%
X144150000Y-107000000D03*
%TO.N,/A29*%
X142900000Y-107000000D03*
%TO.N,/A28*%
X141650000Y-107000000D03*
%TO.N,/A27*%
X140400000Y-107000000D03*
%TO.N,/A52*%
X178600000Y-107000000D03*
%TO.N,/A51*%
X177350000Y-107000000D03*
%TO.N,/A50*%
X176100000Y-107000000D03*
%TO.N,/A49*%
X174850000Y-107000000D03*
%TO.N,/A48*%
X173600000Y-107000000D03*
%TO.N,/A47*%
X172350000Y-107000000D03*
%TO.N,/A46*%
X171100000Y-107000000D03*
%TO.N,/A45*%
X169850000Y-107000000D03*
%TO.N,/A44*%
X168600000Y-107000000D03*
%TO.N,/A43*%
X167350000Y-107000000D03*
%TO.N,/A42*%
X166100000Y-107000000D03*
%TO.N,/A41*%
X164850000Y-107000000D03*
%TO.N,/A40*%
X163600000Y-107000000D03*
%TD*%
D13*
%TO.N,/A12*%
X107750000Y-107000000D02*
X107750000Y-104800000D01*
X107750000Y-104800000D02*
X115950000Y-96600000D01*
X115950000Y-81736000D02*
X117250000Y-80436000D01*
X115950000Y-96600000D02*
X115950000Y-81736000D01*
%TO.N,/A10*%
X105250000Y-107000000D02*
X105250000Y-103550000D01*
X105250000Y-103550000D02*
X113450000Y-95350000D01*
X113450000Y-81696000D02*
X114710000Y-80436000D01*
X113450000Y-95350000D02*
X113450000Y-81696000D01*
%TO.N,/A8*%
X102750000Y-107000000D02*
X102750000Y-102200000D01*
X102750000Y-102200000D02*
X110900000Y-94050000D01*
X110900000Y-81706000D02*
X112170000Y-80436000D01*
X110900000Y-94050000D02*
X110900000Y-81706000D01*
%TO.N,/A6*%
X100250000Y-107000000D02*
X100250000Y-100700000D01*
X100250000Y-100700000D02*
X108350000Y-92600000D01*
X108350000Y-81716000D02*
X109630000Y-80436000D01*
X108350000Y-92600000D02*
X108350000Y-81716000D01*
%TO.N,/A4*%
X97750000Y-107000000D02*
X97750000Y-99250000D01*
X97750000Y-99250000D02*
X105800000Y-91200000D01*
X105800000Y-81726000D02*
X107090000Y-80436000D01*
X105800000Y-91200000D02*
X105800000Y-81726000D01*
%TO.N,/A2*%
X95250000Y-107000000D02*
X95250000Y-96450000D01*
X95250000Y-96450000D02*
X101350000Y-90350000D01*
X101350000Y-83636000D02*
X104550000Y-80436000D01*
X101350000Y-90350000D02*
X101350000Y-83636000D01*
%TO.N,/A26*%
X132200000Y-107000000D02*
X133750000Y-105450000D01*
X133750000Y-81716000D02*
X135030000Y-80436000D01*
X133750000Y-105450000D02*
X133750000Y-81716000D01*
%TO.N,/A24*%
X129700000Y-107000000D02*
X129700000Y-105350000D01*
X129700000Y-105350000D02*
X131200000Y-103850000D01*
X131200000Y-81726000D02*
X132490000Y-80436000D01*
X131200000Y-103850000D02*
X131200000Y-81726000D01*
%TO.N,/A22*%
X127200000Y-107000000D02*
X127200000Y-103950000D01*
X127200000Y-103950000D02*
X128700000Y-102450000D01*
X128700000Y-81686000D02*
X129950000Y-80436000D01*
X128700000Y-102450000D02*
X128700000Y-81686000D01*
%TO.N,/A20*%
X124700000Y-107000000D02*
X124700000Y-102650000D01*
X124700000Y-102650000D02*
X126150000Y-101200000D01*
X126150000Y-81696000D02*
X127410000Y-80436000D01*
X126150000Y-101200000D02*
X126150000Y-81696000D01*
%TO.N,/A18*%
X122200000Y-107000000D02*
X122200000Y-101300000D01*
X122200000Y-101300000D02*
X123600000Y-99900000D01*
X123600000Y-81706000D02*
X124870000Y-80436000D01*
X123600000Y-99900000D02*
X123600000Y-81706000D01*
%TO.N,/A16*%
X119700000Y-107000000D02*
X119700000Y-100400000D01*
X119700000Y-100400000D02*
X121050000Y-99050000D01*
X121050000Y-81716000D02*
X122330000Y-80436000D01*
X121050000Y-99050000D02*
X121050000Y-81716000D01*
%TO.N,/A14*%
X117200000Y-107000000D02*
X117200000Y-99150000D01*
X117200000Y-99150000D02*
X118500000Y-97850000D01*
X118500000Y-81726000D02*
X119790000Y-80436000D01*
X118500000Y-97850000D02*
X118500000Y-81726000D01*
%TO.N,/A38*%
X154150000Y-107000000D02*
X154150000Y-100750000D01*
X154150000Y-100750000D02*
X151550000Y-98150000D01*
X151550000Y-81716000D02*
X150270000Y-80436000D01*
X151550000Y-98150000D02*
X151550000Y-81716000D01*
%TO.N,/A36*%
X151650000Y-107000000D02*
X151650000Y-102250000D01*
X151650000Y-102250000D02*
X149000000Y-99600000D01*
X149000000Y-81706000D02*
X147730000Y-80436000D01*
X149000000Y-99600000D02*
X149000000Y-81706000D01*
%TO.N,/A34*%
X149150000Y-107000000D02*
X149150000Y-103650000D01*
X149150000Y-103650000D02*
X146450000Y-100950000D01*
X146450000Y-81696000D02*
X145190000Y-80436000D01*
X146450000Y-100950000D02*
X146450000Y-81696000D01*
%TO.N,/A32*%
X146650000Y-107000000D02*
X146650000Y-105300000D01*
X146650000Y-105300000D02*
X143900000Y-102550000D01*
X143900000Y-81686000D02*
X142650000Y-80436000D01*
X143900000Y-102550000D02*
X143900000Y-81686000D01*
%TO.N,/A30*%
X144150000Y-107000000D02*
X144150000Y-105950000D01*
X144150000Y-105950000D02*
X141350000Y-103150000D01*
X141350000Y-81676000D02*
X140110000Y-80436000D01*
X141350000Y-103150000D02*
X141350000Y-81676000D01*
%TO.N,/A28*%
X141650000Y-107000000D02*
X141650000Y-106100000D01*
X141650000Y-106100000D02*
X138850000Y-103300000D01*
X138850000Y-81716000D02*
X137570000Y-80436000D01*
X138850000Y-103300000D02*
X138850000Y-81716000D01*
%TO.N,/A52*%
X178600000Y-107000000D02*
X178600000Y-97050000D01*
X178600000Y-97050000D02*
X171850000Y-90300000D01*
X171850000Y-84236000D02*
X168050000Y-80436000D01*
X171850000Y-90300000D02*
X171850000Y-84236000D01*
%TO.N,/A50*%
X176100000Y-107000000D02*
X176100000Y-100150000D01*
X176100000Y-100150000D02*
X166750000Y-90800000D01*
X166750000Y-81676000D02*
X165510000Y-80436000D01*
X166750000Y-90800000D02*
X166750000Y-81676000D01*
%TO.N,/A48*%
X173600000Y-107000000D02*
X173600000Y-101250000D01*
X173600000Y-101250000D02*
X164250000Y-91900000D01*
X164250000Y-81716000D02*
X162970000Y-80436000D01*
X164250000Y-91900000D02*
X164250000Y-81716000D01*
%TO.N,/A46*%
X171100000Y-107000000D02*
X171100000Y-102350000D01*
X171100000Y-102350000D02*
X161700000Y-92950000D01*
X161700000Y-81706000D02*
X160430000Y-80436000D01*
X161700000Y-92950000D02*
X161700000Y-81706000D01*
%TO.N,/A44*%
X168600000Y-107000000D02*
X168600000Y-103650000D01*
X168600000Y-103650000D02*
X159150000Y-94200000D01*
X159150000Y-81696000D02*
X157890000Y-80436000D01*
X159150000Y-94200000D02*
X159150000Y-81696000D01*
%TO.N,/A42*%
X166100000Y-107000000D02*
X166100000Y-105100000D01*
X166100000Y-105100000D02*
X156600000Y-95600000D01*
X156600000Y-81686000D02*
X155350000Y-80436000D01*
X156600000Y-95600000D02*
X156600000Y-81686000D01*
%TO.N,/A40*%
X163600000Y-107000000D02*
X163600000Y-106400000D01*
X163600000Y-106400000D02*
X154050000Y-96850000D01*
X154050000Y-81676000D02*
X152810000Y-80436000D01*
X154050000Y-96850000D02*
X154050000Y-81676000D01*
%TD*%
D14*
G36*
X175430001Y-87401113D02*
G01*
X175426565Y-87436000D01*
X175440273Y-87575184D01*
X175480872Y-87709020D01*
X175546800Y-87832363D01*
X175635525Y-87940475D01*
X175743637Y-88029200D01*
X175866980Y-88095128D01*
X176000816Y-88135727D01*
X176105123Y-88146000D01*
X176140000Y-88149435D01*
X176174877Y-88146000D01*
X181990001Y-88146000D01*
X181990000Y-109290000D01*
X90610000Y-109290000D01*
X90610000Y-88146000D01*
X96425123Y-88146000D01*
X96460000Y-88149435D01*
X96494877Y-88146000D01*
X96599184Y-88135727D01*
X96733020Y-88095128D01*
X96856363Y-88029200D01*
X96964475Y-87940475D01*
X97053200Y-87832363D01*
X97119128Y-87709020D01*
X97159727Y-87575184D01*
X97173435Y-87436000D01*
X97170000Y-87401123D01*
X97170000Y-82933114D01*
X97302188Y-83065302D01*
X97856601Y-83435748D01*
X98472632Y-83690917D01*
X99126607Y-83821000D01*
X99793393Y-83821000D01*
X100447368Y-83690917D01*
X100586595Y-83633247D01*
X100586324Y-83636000D01*
X100590001Y-83673332D01*
X100590000Y-90035198D01*
X94738998Y-95886201D01*
X94710000Y-95909999D01*
X94686202Y-95938997D01*
X94686201Y-95938998D01*
X94615026Y-96025724D01*
X94544454Y-96157754D01*
X94521031Y-96234974D01*
X94500998Y-96301014D01*
X94494826Y-96363677D01*
X94486324Y-96450000D01*
X94490001Y-96487332D01*
X94490000Y-106082689D01*
X94301898Y-106004774D01*
X94101939Y-105965000D01*
X93898061Y-105965000D01*
X93698102Y-106004774D01*
X93509744Y-106082795D01*
X93340226Y-106196063D01*
X93196063Y-106340226D01*
X93082795Y-106509744D01*
X93004774Y-106698102D01*
X92965000Y-106898061D01*
X92965000Y-107101939D01*
X93004774Y-107301898D01*
X93082795Y-107490256D01*
X93196063Y-107659774D01*
X93340226Y-107803937D01*
X93509744Y-107917205D01*
X93698102Y-107995226D01*
X93898061Y-108035000D01*
X94101939Y-108035000D01*
X94301898Y-107995226D01*
X94490256Y-107917205D01*
X94625000Y-107827172D01*
X94759744Y-107917205D01*
X94948102Y-107995226D01*
X95148061Y-108035000D01*
X95351939Y-108035000D01*
X95551898Y-107995226D01*
X95740256Y-107917205D01*
X95875000Y-107827172D01*
X96009744Y-107917205D01*
X96198102Y-107995226D01*
X96398061Y-108035000D01*
X96601939Y-108035000D01*
X96801898Y-107995226D01*
X96990256Y-107917205D01*
X97125000Y-107827172D01*
X97259744Y-107917205D01*
X97448102Y-107995226D01*
X97648061Y-108035000D01*
X97851939Y-108035000D01*
X98051898Y-107995226D01*
X98240256Y-107917205D01*
X98375000Y-107827172D01*
X98509744Y-107917205D01*
X98698102Y-107995226D01*
X98898061Y-108035000D01*
X99101939Y-108035000D01*
X99301898Y-107995226D01*
X99490256Y-107917205D01*
X99625000Y-107827172D01*
X99759744Y-107917205D01*
X99948102Y-107995226D01*
X100148061Y-108035000D01*
X100351939Y-108035000D01*
X100551898Y-107995226D01*
X100740256Y-107917205D01*
X100875000Y-107827172D01*
X101009744Y-107917205D01*
X101198102Y-107995226D01*
X101398061Y-108035000D01*
X101601939Y-108035000D01*
X101801898Y-107995226D01*
X101990256Y-107917205D01*
X102125000Y-107827172D01*
X102259744Y-107917205D01*
X102448102Y-107995226D01*
X102648061Y-108035000D01*
X102851939Y-108035000D01*
X103051898Y-107995226D01*
X103240256Y-107917205D01*
X103375000Y-107827172D01*
X103509744Y-107917205D01*
X103698102Y-107995226D01*
X103898061Y-108035000D01*
X104101939Y-108035000D01*
X104301898Y-107995226D01*
X104490256Y-107917205D01*
X104625000Y-107827172D01*
X104759744Y-107917205D01*
X104948102Y-107995226D01*
X105148061Y-108035000D01*
X105351939Y-108035000D01*
X105551898Y-107995226D01*
X105740256Y-107917205D01*
X105875000Y-107827172D01*
X106009744Y-107917205D01*
X106198102Y-107995226D01*
X106398061Y-108035000D01*
X106601939Y-108035000D01*
X106801898Y-107995226D01*
X106990256Y-107917205D01*
X107125000Y-107827172D01*
X107259744Y-107917205D01*
X107448102Y-107995226D01*
X107648061Y-108035000D01*
X107851939Y-108035000D01*
X108051898Y-107995226D01*
X108240256Y-107917205D01*
X108375000Y-107827172D01*
X108509744Y-107917205D01*
X108698102Y-107995226D01*
X108898061Y-108035000D01*
X109101939Y-108035000D01*
X109301898Y-107995226D01*
X109490256Y-107917205D01*
X109659774Y-107803937D01*
X109803937Y-107659774D01*
X109917205Y-107490256D01*
X109995226Y-107301898D01*
X110035000Y-107101939D01*
X110035000Y-106898061D01*
X109995226Y-106698102D01*
X109917205Y-106509744D01*
X109803937Y-106340226D01*
X109659774Y-106196063D01*
X109490256Y-106082795D01*
X109301898Y-106004774D01*
X109101939Y-105965000D01*
X108898061Y-105965000D01*
X108698102Y-106004774D01*
X108510000Y-106082689D01*
X108510000Y-105114801D01*
X116461004Y-97163798D01*
X116490001Y-97140001D01*
X116584974Y-97024276D01*
X116655546Y-96892247D01*
X116699003Y-96748986D01*
X116710000Y-96637333D01*
X116710000Y-96637324D01*
X116713676Y-96600001D01*
X116710000Y-96562678D01*
X116710000Y-89396382D01*
X116828509Y-89445470D01*
X117107680Y-89501000D01*
X117392320Y-89501000D01*
X117671491Y-89445470D01*
X117740001Y-89417092D01*
X117740000Y-97535198D01*
X116688998Y-98586201D01*
X116660000Y-98609999D01*
X116636202Y-98638997D01*
X116636201Y-98638998D01*
X116565026Y-98725724D01*
X116494454Y-98857754D01*
X116450998Y-99001015D01*
X116436324Y-99150000D01*
X116440001Y-99187332D01*
X116440000Y-106296289D01*
X116396063Y-106340226D01*
X116282795Y-106509744D01*
X116204774Y-106698102D01*
X116165000Y-106898061D01*
X116165000Y-107101939D01*
X116204774Y-107301898D01*
X116282795Y-107490256D01*
X116396063Y-107659774D01*
X116540226Y-107803937D01*
X116709744Y-107917205D01*
X116898102Y-107995226D01*
X117098061Y-108035000D01*
X117301939Y-108035000D01*
X117501898Y-107995226D01*
X117690256Y-107917205D01*
X117825000Y-107827172D01*
X117959744Y-107917205D01*
X118148102Y-107995226D01*
X118348061Y-108035000D01*
X118551939Y-108035000D01*
X118751898Y-107995226D01*
X118940256Y-107917205D01*
X119075000Y-107827172D01*
X119209744Y-107917205D01*
X119398102Y-107995226D01*
X119598061Y-108035000D01*
X119801939Y-108035000D01*
X120001898Y-107995226D01*
X120190256Y-107917205D01*
X120325000Y-107827172D01*
X120459744Y-107917205D01*
X120648102Y-107995226D01*
X120848061Y-108035000D01*
X121051939Y-108035000D01*
X121251898Y-107995226D01*
X121440256Y-107917205D01*
X121575000Y-107827172D01*
X121709744Y-107917205D01*
X121898102Y-107995226D01*
X122098061Y-108035000D01*
X122301939Y-108035000D01*
X122501898Y-107995226D01*
X122690256Y-107917205D01*
X122825000Y-107827172D01*
X122959744Y-107917205D01*
X123148102Y-107995226D01*
X123348061Y-108035000D01*
X123551939Y-108035000D01*
X123751898Y-107995226D01*
X123940256Y-107917205D01*
X124075000Y-107827172D01*
X124209744Y-107917205D01*
X124398102Y-107995226D01*
X124598061Y-108035000D01*
X124801939Y-108035000D01*
X125001898Y-107995226D01*
X125190256Y-107917205D01*
X125325000Y-107827172D01*
X125459744Y-107917205D01*
X125648102Y-107995226D01*
X125848061Y-108035000D01*
X126051939Y-108035000D01*
X126251898Y-107995226D01*
X126440256Y-107917205D01*
X126575000Y-107827172D01*
X126709744Y-107917205D01*
X126898102Y-107995226D01*
X127098061Y-108035000D01*
X127301939Y-108035000D01*
X127501898Y-107995226D01*
X127690256Y-107917205D01*
X127825000Y-107827172D01*
X127959744Y-107917205D01*
X128148102Y-107995226D01*
X128348061Y-108035000D01*
X128551939Y-108035000D01*
X128751898Y-107995226D01*
X128940256Y-107917205D01*
X129075000Y-107827172D01*
X129209744Y-107917205D01*
X129398102Y-107995226D01*
X129598061Y-108035000D01*
X129801939Y-108035000D01*
X130001898Y-107995226D01*
X130190256Y-107917205D01*
X130325000Y-107827172D01*
X130459744Y-107917205D01*
X130648102Y-107995226D01*
X130848061Y-108035000D01*
X131051939Y-108035000D01*
X131251898Y-107995226D01*
X131440256Y-107917205D01*
X131575000Y-107827172D01*
X131709744Y-107917205D01*
X131898102Y-107995226D01*
X132098061Y-108035000D01*
X132301939Y-108035000D01*
X132501898Y-107995226D01*
X132690256Y-107917205D01*
X132859774Y-107803937D01*
X133003937Y-107659774D01*
X133117205Y-107490256D01*
X133195226Y-107301898D01*
X133235000Y-107101939D01*
X133235000Y-107039801D01*
X134261004Y-106013798D01*
X134290001Y-105990001D01*
X134322829Y-105950000D01*
X134384974Y-105874277D01*
X134455546Y-105742247D01*
X134460998Y-105724275D01*
X134499003Y-105598986D01*
X134510000Y-105487333D01*
X134510000Y-105487323D01*
X134513676Y-105450001D01*
X134510000Y-105412678D01*
X134510000Y-89404666D01*
X134608509Y-89445470D01*
X134887680Y-89501000D01*
X135172320Y-89501000D01*
X135451491Y-89445470D01*
X135714464Y-89336543D01*
X135951134Y-89178405D01*
X136152405Y-88977134D01*
X136300000Y-88756243D01*
X136447595Y-88977134D01*
X136648866Y-89178405D01*
X136885536Y-89336543D01*
X137148509Y-89445470D01*
X137427680Y-89501000D01*
X137712320Y-89501000D01*
X137991491Y-89445470D01*
X138090001Y-89404666D01*
X138090000Y-103262678D01*
X138086324Y-103300000D01*
X138090000Y-103337322D01*
X138090000Y-103337332D01*
X138100997Y-103448985D01*
X138131639Y-103550000D01*
X138144454Y-103592246D01*
X138215026Y-103724276D01*
X138254871Y-103772826D01*
X138309999Y-103840001D01*
X138339003Y-103863804D01*
X140440198Y-105965000D01*
X140298061Y-105965000D01*
X140098102Y-106004774D01*
X139909744Y-106082795D01*
X139740226Y-106196063D01*
X139596063Y-106340226D01*
X139482795Y-106509744D01*
X139404774Y-106698102D01*
X139365000Y-106898061D01*
X139365000Y-107101939D01*
X139404774Y-107301898D01*
X139482795Y-107490256D01*
X139596063Y-107659774D01*
X139740226Y-107803937D01*
X139909744Y-107917205D01*
X140098102Y-107995226D01*
X140298061Y-108035000D01*
X140501939Y-108035000D01*
X140701898Y-107995226D01*
X140890256Y-107917205D01*
X141025000Y-107827172D01*
X141159744Y-107917205D01*
X141348102Y-107995226D01*
X141548061Y-108035000D01*
X141751939Y-108035000D01*
X141951898Y-107995226D01*
X142140256Y-107917205D01*
X142275000Y-107827172D01*
X142409744Y-107917205D01*
X142598102Y-107995226D01*
X142798061Y-108035000D01*
X143001939Y-108035000D01*
X143201898Y-107995226D01*
X143390256Y-107917205D01*
X143525000Y-107827172D01*
X143659744Y-107917205D01*
X143848102Y-107995226D01*
X144048061Y-108035000D01*
X144251939Y-108035000D01*
X144451898Y-107995226D01*
X144640256Y-107917205D01*
X144775000Y-107827172D01*
X144909744Y-107917205D01*
X145098102Y-107995226D01*
X145298061Y-108035000D01*
X145501939Y-108035000D01*
X145701898Y-107995226D01*
X145890256Y-107917205D01*
X146025000Y-107827172D01*
X146159744Y-107917205D01*
X146348102Y-107995226D01*
X146548061Y-108035000D01*
X146751939Y-108035000D01*
X146951898Y-107995226D01*
X147140256Y-107917205D01*
X147275000Y-107827172D01*
X147409744Y-107917205D01*
X147598102Y-107995226D01*
X147798061Y-108035000D01*
X148001939Y-108035000D01*
X148201898Y-107995226D01*
X148390256Y-107917205D01*
X148525000Y-107827172D01*
X148659744Y-107917205D01*
X148848102Y-107995226D01*
X149048061Y-108035000D01*
X149251939Y-108035000D01*
X149451898Y-107995226D01*
X149640256Y-107917205D01*
X149775000Y-107827172D01*
X149909744Y-107917205D01*
X150098102Y-107995226D01*
X150298061Y-108035000D01*
X150501939Y-108035000D01*
X150701898Y-107995226D01*
X150890256Y-107917205D01*
X151025000Y-107827172D01*
X151159744Y-107917205D01*
X151348102Y-107995226D01*
X151548061Y-108035000D01*
X151751939Y-108035000D01*
X151951898Y-107995226D01*
X152140256Y-107917205D01*
X152275000Y-107827172D01*
X152409744Y-107917205D01*
X152598102Y-107995226D01*
X152798061Y-108035000D01*
X153001939Y-108035000D01*
X153201898Y-107995226D01*
X153390256Y-107917205D01*
X153525000Y-107827172D01*
X153659744Y-107917205D01*
X153848102Y-107995226D01*
X154048061Y-108035000D01*
X154251939Y-108035000D01*
X154451898Y-107995226D01*
X154640256Y-107917205D01*
X154775000Y-107827172D01*
X154909744Y-107917205D01*
X155098102Y-107995226D01*
X155298061Y-108035000D01*
X155501939Y-108035000D01*
X155701898Y-107995226D01*
X155890256Y-107917205D01*
X156059774Y-107803937D01*
X156203937Y-107659774D01*
X156317205Y-107490256D01*
X156395226Y-107301898D01*
X156435000Y-107101939D01*
X156435000Y-106898061D01*
X156395226Y-106698102D01*
X156317205Y-106509744D01*
X156203937Y-106340226D01*
X156059774Y-106196063D01*
X155890256Y-106082795D01*
X155701898Y-106004774D01*
X155501939Y-105965000D01*
X155298061Y-105965000D01*
X155098102Y-106004774D01*
X154910000Y-106082689D01*
X154910000Y-100787322D01*
X154913676Y-100749999D01*
X154910000Y-100712676D01*
X154910000Y-100712667D01*
X154899003Y-100601014D01*
X154855546Y-100457753D01*
X154784974Y-100325724D01*
X154690001Y-100209999D01*
X154661003Y-100186201D01*
X152310000Y-97835199D01*
X152310000Y-89412951D01*
X152388509Y-89445470D01*
X152667680Y-89501000D01*
X152952320Y-89501000D01*
X153231491Y-89445470D01*
X153290000Y-89421235D01*
X153290000Y-96812678D01*
X153286324Y-96850000D01*
X153290000Y-96887322D01*
X153290000Y-96887332D01*
X153300997Y-96998985D01*
X153334977Y-97111003D01*
X153344454Y-97142246D01*
X153415026Y-97274276D01*
X153454871Y-97322826D01*
X153509999Y-97390001D01*
X153539003Y-97413804D01*
X162668779Y-106543581D01*
X162604774Y-106698102D01*
X162565000Y-106898061D01*
X162565000Y-107101939D01*
X162604774Y-107301898D01*
X162682795Y-107490256D01*
X162796063Y-107659774D01*
X162940226Y-107803937D01*
X163109744Y-107917205D01*
X163298102Y-107995226D01*
X163498061Y-108035000D01*
X163701939Y-108035000D01*
X163901898Y-107995226D01*
X164090256Y-107917205D01*
X164225000Y-107827172D01*
X164359744Y-107917205D01*
X164548102Y-107995226D01*
X164748061Y-108035000D01*
X164951939Y-108035000D01*
X165151898Y-107995226D01*
X165340256Y-107917205D01*
X165475000Y-107827172D01*
X165609744Y-107917205D01*
X165798102Y-107995226D01*
X165998061Y-108035000D01*
X166201939Y-108035000D01*
X166401898Y-107995226D01*
X166590256Y-107917205D01*
X166725000Y-107827172D01*
X166859744Y-107917205D01*
X167048102Y-107995226D01*
X167248061Y-108035000D01*
X167451939Y-108035000D01*
X167651898Y-107995226D01*
X167840256Y-107917205D01*
X167975000Y-107827172D01*
X168109744Y-107917205D01*
X168298102Y-107995226D01*
X168498061Y-108035000D01*
X168701939Y-108035000D01*
X168901898Y-107995226D01*
X169090256Y-107917205D01*
X169225000Y-107827172D01*
X169359744Y-107917205D01*
X169548102Y-107995226D01*
X169748061Y-108035000D01*
X169951939Y-108035000D01*
X170151898Y-107995226D01*
X170340256Y-107917205D01*
X170475000Y-107827172D01*
X170609744Y-107917205D01*
X170798102Y-107995226D01*
X170998061Y-108035000D01*
X171201939Y-108035000D01*
X171401898Y-107995226D01*
X171590256Y-107917205D01*
X171725000Y-107827172D01*
X171859744Y-107917205D01*
X172048102Y-107995226D01*
X172248061Y-108035000D01*
X172451939Y-108035000D01*
X172651898Y-107995226D01*
X172840256Y-107917205D01*
X172975000Y-107827172D01*
X173109744Y-107917205D01*
X173298102Y-107995226D01*
X173498061Y-108035000D01*
X173701939Y-108035000D01*
X173901898Y-107995226D01*
X174090256Y-107917205D01*
X174225000Y-107827172D01*
X174359744Y-107917205D01*
X174548102Y-107995226D01*
X174748061Y-108035000D01*
X174951939Y-108035000D01*
X175151898Y-107995226D01*
X175340256Y-107917205D01*
X175475000Y-107827172D01*
X175609744Y-107917205D01*
X175798102Y-107995226D01*
X175998061Y-108035000D01*
X176201939Y-108035000D01*
X176401898Y-107995226D01*
X176590256Y-107917205D01*
X176725000Y-107827172D01*
X176859744Y-107917205D01*
X177048102Y-107995226D01*
X177248061Y-108035000D01*
X177451939Y-108035000D01*
X177651898Y-107995226D01*
X177840256Y-107917205D01*
X177975000Y-107827172D01*
X178109744Y-107917205D01*
X178298102Y-107995226D01*
X178498061Y-108035000D01*
X178701939Y-108035000D01*
X178901898Y-107995226D01*
X179090256Y-107917205D01*
X179259774Y-107803937D01*
X179403937Y-107659774D01*
X179517205Y-107490256D01*
X179595226Y-107301898D01*
X179635000Y-107101939D01*
X179635000Y-106898061D01*
X179595226Y-106698102D01*
X179517205Y-106509744D01*
X179403937Y-106340226D01*
X179360000Y-106296289D01*
X179360000Y-97087333D01*
X179363677Y-97050000D01*
X179349003Y-96901014D01*
X179305546Y-96757753D01*
X179234974Y-96625724D01*
X179163799Y-96538997D01*
X179140001Y-96509999D01*
X179111003Y-96486201D01*
X172610000Y-89985199D01*
X172610000Y-84273333D01*
X172613677Y-84236000D01*
X172599003Y-84087014D01*
X172555546Y-83943753D01*
X172484974Y-83811724D01*
X172431325Y-83746352D01*
X172806607Y-83821000D01*
X173473393Y-83821000D01*
X174127368Y-83690917D01*
X174743399Y-83435748D01*
X175297812Y-83065302D01*
X175430001Y-82933113D01*
X175430001Y-87401113D01*
G37*
X175430001Y-87401113D02*
X175426565Y-87436000D01*
X175440273Y-87575184D01*
X175480872Y-87709020D01*
X175546800Y-87832363D01*
X175635525Y-87940475D01*
X175743637Y-88029200D01*
X175866980Y-88095128D01*
X176000816Y-88135727D01*
X176105123Y-88146000D01*
X176140000Y-88149435D01*
X176174877Y-88146000D01*
X181990001Y-88146000D01*
X181990000Y-109290000D01*
X90610000Y-109290000D01*
X90610000Y-88146000D01*
X96425123Y-88146000D01*
X96460000Y-88149435D01*
X96494877Y-88146000D01*
X96599184Y-88135727D01*
X96733020Y-88095128D01*
X96856363Y-88029200D01*
X96964475Y-87940475D01*
X97053200Y-87832363D01*
X97119128Y-87709020D01*
X97159727Y-87575184D01*
X97173435Y-87436000D01*
X97170000Y-87401123D01*
X97170000Y-82933114D01*
X97302188Y-83065302D01*
X97856601Y-83435748D01*
X98472632Y-83690917D01*
X99126607Y-83821000D01*
X99793393Y-83821000D01*
X100447368Y-83690917D01*
X100586595Y-83633247D01*
X100586324Y-83636000D01*
X100590001Y-83673332D01*
X100590000Y-90035198D01*
X94738998Y-95886201D01*
X94710000Y-95909999D01*
X94686202Y-95938997D01*
X94686201Y-95938998D01*
X94615026Y-96025724D01*
X94544454Y-96157754D01*
X94521031Y-96234974D01*
X94500998Y-96301014D01*
X94494826Y-96363677D01*
X94486324Y-96450000D01*
X94490001Y-96487332D01*
X94490000Y-106082689D01*
X94301898Y-106004774D01*
X94101939Y-105965000D01*
X93898061Y-105965000D01*
X93698102Y-106004774D01*
X93509744Y-106082795D01*
X93340226Y-106196063D01*
X93196063Y-106340226D01*
X93082795Y-106509744D01*
X93004774Y-106698102D01*
X92965000Y-106898061D01*
X92965000Y-107101939D01*
X93004774Y-107301898D01*
X93082795Y-107490256D01*
X93196063Y-107659774D01*
X93340226Y-107803937D01*
X93509744Y-107917205D01*
X93698102Y-107995226D01*
X93898061Y-108035000D01*
X94101939Y-108035000D01*
X94301898Y-107995226D01*
X94490256Y-107917205D01*
X94625000Y-107827172D01*
X94759744Y-107917205D01*
X94948102Y-107995226D01*
X95148061Y-108035000D01*
X95351939Y-108035000D01*
X95551898Y-107995226D01*
X95740256Y-107917205D01*
X95875000Y-107827172D01*
X96009744Y-107917205D01*
X96198102Y-107995226D01*
X96398061Y-108035000D01*
X96601939Y-108035000D01*
X96801898Y-107995226D01*
X96990256Y-107917205D01*
X97125000Y-107827172D01*
X97259744Y-107917205D01*
X97448102Y-107995226D01*
X97648061Y-108035000D01*
X97851939Y-108035000D01*
X98051898Y-107995226D01*
X98240256Y-107917205D01*
X98375000Y-107827172D01*
X98509744Y-107917205D01*
X98698102Y-107995226D01*
X98898061Y-108035000D01*
X99101939Y-108035000D01*
X99301898Y-107995226D01*
X99490256Y-107917205D01*
X99625000Y-107827172D01*
X99759744Y-107917205D01*
X99948102Y-107995226D01*
X100148061Y-108035000D01*
X100351939Y-108035000D01*
X100551898Y-107995226D01*
X100740256Y-107917205D01*
X100875000Y-107827172D01*
X101009744Y-107917205D01*
X101198102Y-107995226D01*
X101398061Y-108035000D01*
X101601939Y-108035000D01*
X101801898Y-107995226D01*
X101990256Y-107917205D01*
X102125000Y-107827172D01*
X102259744Y-107917205D01*
X102448102Y-107995226D01*
X102648061Y-108035000D01*
X102851939Y-108035000D01*
X103051898Y-107995226D01*
X103240256Y-107917205D01*
X103375000Y-107827172D01*
X103509744Y-107917205D01*
X103698102Y-107995226D01*
X103898061Y-108035000D01*
X104101939Y-108035000D01*
X104301898Y-107995226D01*
X104490256Y-107917205D01*
X104625000Y-107827172D01*
X104759744Y-107917205D01*
X104948102Y-107995226D01*
X105148061Y-108035000D01*
X105351939Y-108035000D01*
X105551898Y-107995226D01*
X105740256Y-107917205D01*
X105875000Y-107827172D01*
X106009744Y-107917205D01*
X106198102Y-107995226D01*
X106398061Y-108035000D01*
X106601939Y-108035000D01*
X106801898Y-107995226D01*
X106990256Y-107917205D01*
X107125000Y-107827172D01*
X107259744Y-107917205D01*
X107448102Y-107995226D01*
X107648061Y-108035000D01*
X107851939Y-108035000D01*
X108051898Y-107995226D01*
X108240256Y-107917205D01*
X108375000Y-107827172D01*
X108509744Y-107917205D01*
X108698102Y-107995226D01*
X108898061Y-108035000D01*
X109101939Y-108035000D01*
X109301898Y-107995226D01*
X109490256Y-107917205D01*
X109659774Y-107803937D01*
X109803937Y-107659774D01*
X109917205Y-107490256D01*
X109995226Y-107301898D01*
X110035000Y-107101939D01*
X110035000Y-106898061D01*
X109995226Y-106698102D01*
X109917205Y-106509744D01*
X109803937Y-106340226D01*
X109659774Y-106196063D01*
X109490256Y-106082795D01*
X109301898Y-106004774D01*
X109101939Y-105965000D01*
X108898061Y-105965000D01*
X108698102Y-106004774D01*
X108510000Y-106082689D01*
X108510000Y-105114801D01*
X116461004Y-97163798D01*
X116490001Y-97140001D01*
X116584974Y-97024276D01*
X116655546Y-96892247D01*
X116699003Y-96748986D01*
X116710000Y-96637333D01*
X116710000Y-96637324D01*
X116713676Y-96600001D01*
X116710000Y-96562678D01*
X116710000Y-89396382D01*
X116828509Y-89445470D01*
X117107680Y-89501000D01*
X117392320Y-89501000D01*
X117671491Y-89445470D01*
X117740001Y-89417092D01*
X117740000Y-97535198D01*
X116688998Y-98586201D01*
X116660000Y-98609999D01*
X116636202Y-98638997D01*
X116636201Y-98638998D01*
X116565026Y-98725724D01*
X116494454Y-98857754D01*
X116450998Y-99001015D01*
X116436324Y-99150000D01*
X116440001Y-99187332D01*
X116440000Y-106296289D01*
X116396063Y-106340226D01*
X116282795Y-106509744D01*
X116204774Y-106698102D01*
X116165000Y-106898061D01*
X116165000Y-107101939D01*
X116204774Y-107301898D01*
X116282795Y-107490256D01*
X116396063Y-107659774D01*
X116540226Y-107803937D01*
X116709744Y-107917205D01*
X116898102Y-107995226D01*
X117098061Y-108035000D01*
X117301939Y-108035000D01*
X117501898Y-107995226D01*
X117690256Y-107917205D01*
X117825000Y-107827172D01*
X117959744Y-107917205D01*
X118148102Y-107995226D01*
X118348061Y-108035000D01*
X118551939Y-108035000D01*
X118751898Y-107995226D01*
X118940256Y-107917205D01*
X119075000Y-107827172D01*
X119209744Y-107917205D01*
X119398102Y-107995226D01*
X119598061Y-108035000D01*
X119801939Y-108035000D01*
X120001898Y-107995226D01*
X120190256Y-107917205D01*
X120325000Y-107827172D01*
X120459744Y-107917205D01*
X120648102Y-107995226D01*
X120848061Y-108035000D01*
X121051939Y-108035000D01*
X121251898Y-107995226D01*
X121440256Y-107917205D01*
X121575000Y-107827172D01*
X121709744Y-107917205D01*
X121898102Y-107995226D01*
X122098061Y-108035000D01*
X122301939Y-108035000D01*
X122501898Y-107995226D01*
X122690256Y-107917205D01*
X122825000Y-107827172D01*
X122959744Y-107917205D01*
X123148102Y-107995226D01*
X123348061Y-108035000D01*
X123551939Y-108035000D01*
X123751898Y-107995226D01*
X123940256Y-107917205D01*
X124075000Y-107827172D01*
X124209744Y-107917205D01*
X124398102Y-107995226D01*
X124598061Y-108035000D01*
X124801939Y-108035000D01*
X125001898Y-107995226D01*
X125190256Y-107917205D01*
X125325000Y-107827172D01*
X125459744Y-107917205D01*
X125648102Y-107995226D01*
X125848061Y-108035000D01*
X126051939Y-108035000D01*
X126251898Y-107995226D01*
X126440256Y-107917205D01*
X126575000Y-107827172D01*
X126709744Y-107917205D01*
X126898102Y-107995226D01*
X127098061Y-108035000D01*
X127301939Y-108035000D01*
X127501898Y-107995226D01*
X127690256Y-107917205D01*
X127825000Y-107827172D01*
X127959744Y-107917205D01*
X128148102Y-107995226D01*
X128348061Y-108035000D01*
X128551939Y-108035000D01*
X128751898Y-107995226D01*
X128940256Y-107917205D01*
X129075000Y-107827172D01*
X129209744Y-107917205D01*
X129398102Y-107995226D01*
X129598061Y-108035000D01*
X129801939Y-108035000D01*
X130001898Y-107995226D01*
X130190256Y-107917205D01*
X130325000Y-107827172D01*
X130459744Y-107917205D01*
X130648102Y-107995226D01*
X130848061Y-108035000D01*
X131051939Y-108035000D01*
X131251898Y-107995226D01*
X131440256Y-107917205D01*
X131575000Y-107827172D01*
X131709744Y-107917205D01*
X131898102Y-107995226D01*
X132098061Y-108035000D01*
X132301939Y-108035000D01*
X132501898Y-107995226D01*
X132690256Y-107917205D01*
X132859774Y-107803937D01*
X133003937Y-107659774D01*
X133117205Y-107490256D01*
X133195226Y-107301898D01*
X133235000Y-107101939D01*
X133235000Y-107039801D01*
X134261004Y-106013798D01*
X134290001Y-105990001D01*
X134322829Y-105950000D01*
X134384974Y-105874277D01*
X134455546Y-105742247D01*
X134460998Y-105724275D01*
X134499003Y-105598986D01*
X134510000Y-105487333D01*
X134510000Y-105487323D01*
X134513676Y-105450001D01*
X134510000Y-105412678D01*
X134510000Y-89404666D01*
X134608509Y-89445470D01*
X134887680Y-89501000D01*
X135172320Y-89501000D01*
X135451491Y-89445470D01*
X135714464Y-89336543D01*
X135951134Y-89178405D01*
X136152405Y-88977134D01*
X136300000Y-88756243D01*
X136447595Y-88977134D01*
X136648866Y-89178405D01*
X136885536Y-89336543D01*
X137148509Y-89445470D01*
X137427680Y-89501000D01*
X137712320Y-89501000D01*
X137991491Y-89445470D01*
X138090001Y-89404666D01*
X138090000Y-103262678D01*
X138086324Y-103300000D01*
X138090000Y-103337322D01*
X138090000Y-103337332D01*
X138100997Y-103448985D01*
X138131639Y-103550000D01*
X138144454Y-103592246D01*
X138215026Y-103724276D01*
X138254871Y-103772826D01*
X138309999Y-103840001D01*
X138339003Y-103863804D01*
X140440198Y-105965000D01*
X140298061Y-105965000D01*
X140098102Y-106004774D01*
X139909744Y-106082795D01*
X139740226Y-106196063D01*
X139596063Y-106340226D01*
X139482795Y-106509744D01*
X139404774Y-106698102D01*
X139365000Y-106898061D01*
X139365000Y-107101939D01*
X139404774Y-107301898D01*
X139482795Y-107490256D01*
X139596063Y-107659774D01*
X139740226Y-107803937D01*
X139909744Y-107917205D01*
X140098102Y-107995226D01*
X140298061Y-108035000D01*
X140501939Y-108035000D01*
X140701898Y-107995226D01*
X140890256Y-107917205D01*
X141025000Y-107827172D01*
X141159744Y-107917205D01*
X141348102Y-107995226D01*
X141548061Y-108035000D01*
X141751939Y-108035000D01*
X141951898Y-107995226D01*
X142140256Y-107917205D01*
X142275000Y-107827172D01*
X142409744Y-107917205D01*
X142598102Y-107995226D01*
X142798061Y-108035000D01*
X143001939Y-108035000D01*
X143201898Y-107995226D01*
X143390256Y-107917205D01*
X143525000Y-107827172D01*
X143659744Y-107917205D01*
X143848102Y-107995226D01*
X144048061Y-108035000D01*
X144251939Y-108035000D01*
X144451898Y-107995226D01*
X144640256Y-107917205D01*
X144775000Y-107827172D01*
X144909744Y-107917205D01*
X145098102Y-107995226D01*
X145298061Y-108035000D01*
X145501939Y-108035000D01*
X145701898Y-107995226D01*
X145890256Y-107917205D01*
X146025000Y-107827172D01*
X146159744Y-107917205D01*
X146348102Y-107995226D01*
X146548061Y-108035000D01*
X146751939Y-108035000D01*
X146951898Y-107995226D01*
X147140256Y-107917205D01*
X147275000Y-107827172D01*
X147409744Y-107917205D01*
X147598102Y-107995226D01*
X147798061Y-108035000D01*
X148001939Y-108035000D01*
X148201898Y-107995226D01*
X148390256Y-107917205D01*
X148525000Y-107827172D01*
X148659744Y-107917205D01*
X148848102Y-107995226D01*
X149048061Y-108035000D01*
X149251939Y-108035000D01*
X149451898Y-107995226D01*
X149640256Y-107917205D01*
X149775000Y-107827172D01*
X149909744Y-107917205D01*
X150098102Y-107995226D01*
X150298061Y-108035000D01*
X150501939Y-108035000D01*
X150701898Y-107995226D01*
X150890256Y-107917205D01*
X151025000Y-107827172D01*
X151159744Y-107917205D01*
X151348102Y-107995226D01*
X151548061Y-108035000D01*
X151751939Y-108035000D01*
X151951898Y-107995226D01*
X152140256Y-107917205D01*
X152275000Y-107827172D01*
X152409744Y-107917205D01*
X152598102Y-107995226D01*
X152798061Y-108035000D01*
X153001939Y-108035000D01*
X153201898Y-107995226D01*
X153390256Y-107917205D01*
X153525000Y-107827172D01*
X153659744Y-107917205D01*
X153848102Y-107995226D01*
X154048061Y-108035000D01*
X154251939Y-108035000D01*
X154451898Y-107995226D01*
X154640256Y-107917205D01*
X154775000Y-107827172D01*
X154909744Y-107917205D01*
X155098102Y-107995226D01*
X155298061Y-108035000D01*
X155501939Y-108035000D01*
X155701898Y-107995226D01*
X155890256Y-107917205D01*
X156059774Y-107803937D01*
X156203937Y-107659774D01*
X156317205Y-107490256D01*
X156395226Y-107301898D01*
X156435000Y-107101939D01*
X156435000Y-106898061D01*
X156395226Y-106698102D01*
X156317205Y-106509744D01*
X156203937Y-106340226D01*
X156059774Y-106196063D01*
X155890256Y-106082795D01*
X155701898Y-106004774D01*
X155501939Y-105965000D01*
X155298061Y-105965000D01*
X155098102Y-106004774D01*
X154910000Y-106082689D01*
X154910000Y-100787322D01*
X154913676Y-100749999D01*
X154910000Y-100712676D01*
X154910000Y-100712667D01*
X154899003Y-100601014D01*
X154855546Y-100457753D01*
X154784974Y-100325724D01*
X154690001Y-100209999D01*
X154661003Y-100186201D01*
X152310000Y-97835199D01*
X152310000Y-89412951D01*
X152388509Y-89445470D01*
X152667680Y-89501000D01*
X152952320Y-89501000D01*
X153231491Y-89445470D01*
X153290000Y-89421235D01*
X153290000Y-96812678D01*
X153286324Y-96850000D01*
X153290000Y-96887322D01*
X153290000Y-96887332D01*
X153300997Y-96998985D01*
X153334977Y-97111003D01*
X153344454Y-97142246D01*
X153415026Y-97274276D01*
X153454871Y-97322826D01*
X153509999Y-97390001D01*
X153539003Y-97413804D01*
X162668779Y-106543581D01*
X162604774Y-106698102D01*
X162565000Y-106898061D01*
X162565000Y-107101939D01*
X162604774Y-107301898D01*
X162682795Y-107490256D01*
X162796063Y-107659774D01*
X162940226Y-107803937D01*
X163109744Y-107917205D01*
X163298102Y-107995226D01*
X163498061Y-108035000D01*
X163701939Y-108035000D01*
X163901898Y-107995226D01*
X164090256Y-107917205D01*
X164225000Y-107827172D01*
X164359744Y-107917205D01*
X164548102Y-107995226D01*
X164748061Y-108035000D01*
X164951939Y-108035000D01*
X165151898Y-107995226D01*
X165340256Y-107917205D01*
X165475000Y-107827172D01*
X165609744Y-107917205D01*
X165798102Y-107995226D01*
X165998061Y-108035000D01*
X166201939Y-108035000D01*
X166401898Y-107995226D01*
X166590256Y-107917205D01*
X166725000Y-107827172D01*
X166859744Y-107917205D01*
X167048102Y-107995226D01*
X167248061Y-108035000D01*
X167451939Y-108035000D01*
X167651898Y-107995226D01*
X167840256Y-107917205D01*
X167975000Y-107827172D01*
X168109744Y-107917205D01*
X168298102Y-107995226D01*
X168498061Y-108035000D01*
X168701939Y-108035000D01*
X168901898Y-107995226D01*
X169090256Y-107917205D01*
X169225000Y-107827172D01*
X169359744Y-107917205D01*
X169548102Y-107995226D01*
X169748061Y-108035000D01*
X169951939Y-108035000D01*
X170151898Y-107995226D01*
X170340256Y-107917205D01*
X170475000Y-107827172D01*
X170609744Y-107917205D01*
X170798102Y-107995226D01*
X170998061Y-108035000D01*
X171201939Y-108035000D01*
X171401898Y-107995226D01*
X171590256Y-107917205D01*
X171725000Y-107827172D01*
X171859744Y-107917205D01*
X172048102Y-107995226D01*
X172248061Y-108035000D01*
X172451939Y-108035000D01*
X172651898Y-107995226D01*
X172840256Y-107917205D01*
X172975000Y-107827172D01*
X173109744Y-107917205D01*
X173298102Y-107995226D01*
X173498061Y-108035000D01*
X173701939Y-108035000D01*
X173901898Y-107995226D01*
X174090256Y-107917205D01*
X174225000Y-107827172D01*
X174359744Y-107917205D01*
X174548102Y-107995226D01*
X174748061Y-108035000D01*
X174951939Y-108035000D01*
X175151898Y-107995226D01*
X175340256Y-107917205D01*
X175475000Y-107827172D01*
X175609744Y-107917205D01*
X175798102Y-107995226D01*
X175998061Y-108035000D01*
X176201939Y-108035000D01*
X176401898Y-107995226D01*
X176590256Y-107917205D01*
X176725000Y-107827172D01*
X176859744Y-107917205D01*
X177048102Y-107995226D01*
X177248061Y-108035000D01*
X177451939Y-108035000D01*
X177651898Y-107995226D01*
X177840256Y-107917205D01*
X177975000Y-107827172D01*
X178109744Y-107917205D01*
X178298102Y-107995226D01*
X178498061Y-108035000D01*
X178701939Y-108035000D01*
X178901898Y-107995226D01*
X179090256Y-107917205D01*
X179259774Y-107803937D01*
X179403937Y-107659774D01*
X179517205Y-107490256D01*
X179595226Y-107301898D01*
X179635000Y-107101939D01*
X179635000Y-106898061D01*
X179595226Y-106698102D01*
X179517205Y-106509744D01*
X179403937Y-106340226D01*
X179360000Y-106296289D01*
X179360000Y-97087333D01*
X179363677Y-97050000D01*
X179349003Y-96901014D01*
X179305546Y-96757753D01*
X179234974Y-96625724D01*
X179163799Y-96538997D01*
X179140001Y-96509999D01*
X179111003Y-96486201D01*
X172610000Y-89985199D01*
X172610000Y-84273333D01*
X172613677Y-84236000D01*
X172599003Y-84087014D01*
X172555546Y-83943753D01*
X172484974Y-83811724D01*
X172431325Y-83746352D01*
X172806607Y-83821000D01*
X173473393Y-83821000D01*
X174127368Y-83690917D01*
X174743399Y-83435748D01*
X175297812Y-83065302D01*
X175430001Y-82933113D01*
X175430001Y-87401113D01*
G36*
X132068509Y-89445470D02*
G01*
X132347680Y-89501000D01*
X132632320Y-89501000D01*
X132911491Y-89445470D01*
X132990001Y-89412950D01*
X132990000Y-105135198D01*
X132160199Y-105965000D01*
X132098061Y-105965000D01*
X131898102Y-106004774D01*
X131709744Y-106082795D01*
X131575000Y-106172828D01*
X131440256Y-106082795D01*
X131251898Y-106004774D01*
X131051939Y-105965000D01*
X130848061Y-105965000D01*
X130648102Y-106004774D01*
X130460000Y-106082689D01*
X130460000Y-105664801D01*
X131711004Y-104413798D01*
X131740001Y-104390001D01*
X131834974Y-104274276D01*
X131905546Y-104142247D01*
X131949003Y-103998986D01*
X131960000Y-103887333D01*
X131960000Y-103887324D01*
X131963676Y-103850001D01*
X131960000Y-103812678D01*
X131960000Y-89400524D01*
X132068509Y-89445470D01*
G37*
X132068509Y-89445470D02*
X132347680Y-89501000D01*
X132632320Y-89501000D01*
X132911491Y-89445470D01*
X132990001Y-89412950D01*
X132990000Y-105135198D01*
X132160199Y-105965000D01*
X132098061Y-105965000D01*
X131898102Y-106004774D01*
X131709744Y-106082795D01*
X131575000Y-106172828D01*
X131440256Y-106082795D01*
X131251898Y-106004774D01*
X131051939Y-105965000D01*
X130848061Y-105965000D01*
X130648102Y-106004774D01*
X130460000Y-106082689D01*
X130460000Y-105664801D01*
X131711004Y-104413798D01*
X131740001Y-104390001D01*
X131834974Y-104274276D01*
X131905546Y-104142247D01*
X131949003Y-103998986D01*
X131960000Y-103887333D01*
X131960000Y-103887324D01*
X131963676Y-103850001D01*
X131960000Y-103812678D01*
X131960000Y-89400524D01*
X132068509Y-89445470D01*
G36*
X154928509Y-89445470D02*
G01*
X155207680Y-89501000D01*
X155492320Y-89501000D01*
X155771491Y-89445470D01*
X155840000Y-89417092D01*
X155840000Y-95562678D01*
X155836324Y-95600000D01*
X155840000Y-95637322D01*
X155840000Y-95637332D01*
X155850997Y-95748985D01*
X155877491Y-95836324D01*
X155894454Y-95892246D01*
X155965026Y-96024276D01*
X156004871Y-96072826D01*
X156059999Y-96140001D01*
X156089003Y-96163804D01*
X165340001Y-105414803D01*
X165340000Y-106082689D01*
X165151898Y-106004774D01*
X164951939Y-105965000D01*
X164748061Y-105965000D01*
X164548102Y-106004774D01*
X164359744Y-106082795D01*
X164308385Y-106117112D01*
X164305546Y-106107753D01*
X164234974Y-105975724D01*
X164163799Y-105888997D01*
X164140001Y-105859999D01*
X164111003Y-105836201D01*
X154810000Y-96535199D01*
X154810000Y-89396382D01*
X154928509Y-89445470D01*
G37*
X154928509Y-89445470D02*
X155207680Y-89501000D01*
X155492320Y-89501000D01*
X155771491Y-89445470D01*
X155840000Y-89417092D01*
X155840000Y-95562678D01*
X155836324Y-95600000D01*
X155840000Y-95637322D01*
X155840000Y-95637332D01*
X155850997Y-95748985D01*
X155877491Y-95836324D01*
X155894454Y-95892246D01*
X155965026Y-96024276D01*
X156004871Y-96072826D01*
X156059999Y-96140001D01*
X156089003Y-96163804D01*
X165340001Y-105414803D01*
X165340000Y-106082689D01*
X165151898Y-106004774D01*
X164951939Y-105965000D01*
X164748061Y-105965000D01*
X164548102Y-106004774D01*
X164359744Y-106082795D01*
X164308385Y-106117112D01*
X164305546Y-106107753D01*
X164234974Y-105975724D01*
X164163799Y-105888997D01*
X164140001Y-105859999D01*
X164111003Y-105836201D01*
X154810000Y-96535199D01*
X154810000Y-89396382D01*
X154928509Y-89445470D01*
G36*
X144768509Y-89445470D02*
G01*
X145047680Y-89501000D01*
X145332320Y-89501000D01*
X145611491Y-89445470D01*
X145690001Y-89412950D01*
X145690000Y-100912678D01*
X145686324Y-100950000D01*
X145690000Y-100987322D01*
X145690000Y-100987332D01*
X145700997Y-101098985D01*
X145742963Y-101237332D01*
X145744454Y-101242246D01*
X145815026Y-101374276D01*
X145840689Y-101405546D01*
X145909999Y-101490001D01*
X145939003Y-101513804D01*
X148390001Y-103964803D01*
X148390000Y-106082689D01*
X148201898Y-106004774D01*
X148001939Y-105965000D01*
X147798061Y-105965000D01*
X147598102Y-106004774D01*
X147410000Y-106082689D01*
X147410000Y-105337322D01*
X147413676Y-105299999D01*
X147410000Y-105262676D01*
X147410000Y-105262667D01*
X147399003Y-105151014D01*
X147355546Y-105007753D01*
X147284974Y-104875724D01*
X147190001Y-104759999D01*
X147161003Y-104736201D01*
X144660000Y-102235199D01*
X144660000Y-89400524D01*
X144768509Y-89445470D01*
G37*
X144768509Y-89445470D02*
X145047680Y-89501000D01*
X145332320Y-89501000D01*
X145611491Y-89445470D01*
X145690001Y-89412950D01*
X145690000Y-100912678D01*
X145686324Y-100950000D01*
X145690000Y-100987322D01*
X145690000Y-100987332D01*
X145700997Y-101098985D01*
X145742963Y-101237332D01*
X145744454Y-101242246D01*
X145815026Y-101374276D01*
X145840689Y-101405546D01*
X145909999Y-101490001D01*
X145939003Y-101513804D01*
X148390001Y-103964803D01*
X148390000Y-106082689D01*
X148201898Y-106004774D01*
X148001939Y-105965000D01*
X147798061Y-105965000D01*
X147598102Y-106004774D01*
X147410000Y-106082689D01*
X147410000Y-105337322D01*
X147413676Y-105299999D01*
X147410000Y-105262676D01*
X147410000Y-105262667D01*
X147399003Y-105151014D01*
X147355546Y-105007753D01*
X147284974Y-104875724D01*
X147190001Y-104759999D01*
X147161003Y-104736201D01*
X144660000Y-102235199D01*
X144660000Y-89400524D01*
X144768509Y-89445470D01*
G36*
X157468509Y-89445470D02*
G01*
X157747680Y-89501000D01*
X158032320Y-89501000D01*
X158311491Y-89445470D01*
X158390000Y-89412950D01*
X158390000Y-94162678D01*
X158386324Y-94200000D01*
X158390000Y-94237322D01*
X158390000Y-94237332D01*
X158400997Y-94348985D01*
X158439003Y-94474275D01*
X158444454Y-94492246D01*
X158515026Y-94624276D01*
X158531586Y-94644454D01*
X158609999Y-94740001D01*
X158639003Y-94763804D01*
X167840001Y-103964803D01*
X167840000Y-106082689D01*
X167651898Y-106004774D01*
X167451939Y-105965000D01*
X167248061Y-105965000D01*
X167048102Y-106004774D01*
X166860000Y-106082689D01*
X166860000Y-105137323D01*
X166863676Y-105100000D01*
X166860000Y-105062677D01*
X166860000Y-105062667D01*
X166849003Y-104951014D01*
X166805546Y-104807753D01*
X166734974Y-104675724D01*
X166640001Y-104559999D01*
X166611003Y-104536201D01*
X157360000Y-95285199D01*
X157360000Y-89400524D01*
X157468509Y-89445470D01*
G37*
X157468509Y-89445470D02*
X157747680Y-89501000D01*
X158032320Y-89501000D01*
X158311491Y-89445470D01*
X158390000Y-89412950D01*
X158390000Y-94162678D01*
X158386324Y-94200000D01*
X158390000Y-94237322D01*
X158390000Y-94237332D01*
X158400997Y-94348985D01*
X158439003Y-94474275D01*
X158444454Y-94492246D01*
X158515026Y-94624276D01*
X158531586Y-94644454D01*
X158609999Y-94740001D01*
X158639003Y-94763804D01*
X167840001Y-103964803D01*
X167840000Y-106082689D01*
X167651898Y-106004774D01*
X167451939Y-105965000D01*
X167248061Y-105965000D01*
X167048102Y-106004774D01*
X166860000Y-106082689D01*
X166860000Y-105137323D01*
X166863676Y-105100000D01*
X166860000Y-105062677D01*
X166860000Y-105062667D01*
X166849003Y-104951014D01*
X166805546Y-104807753D01*
X166734974Y-104675724D01*
X166640001Y-104559999D01*
X166611003Y-104536201D01*
X157360000Y-95285199D01*
X157360000Y-89400524D01*
X157468509Y-89445470D01*
G36*
X147308509Y-89445470D02*
G01*
X147587680Y-89501000D01*
X147872320Y-89501000D01*
X148151491Y-89445470D01*
X148240001Y-89408808D01*
X148240000Y-99562678D01*
X148236324Y-99600000D01*
X148240000Y-99637322D01*
X148240000Y-99637332D01*
X148250997Y-99748985D01*
X148283991Y-99857753D01*
X148294454Y-99892246D01*
X148365026Y-100024276D01*
X148398469Y-100065026D01*
X148459999Y-100140001D01*
X148489003Y-100163804D01*
X150890001Y-102564803D01*
X150890000Y-106082689D01*
X150701898Y-106004774D01*
X150501939Y-105965000D01*
X150298061Y-105965000D01*
X150098102Y-106004774D01*
X149910000Y-106082689D01*
X149910000Y-103687333D01*
X149913677Y-103650000D01*
X149899003Y-103501014D01*
X149855546Y-103357753D01*
X149784974Y-103225724D01*
X149713799Y-103138997D01*
X149690001Y-103109999D01*
X149661003Y-103086201D01*
X147210000Y-100635199D01*
X147210000Y-89404666D01*
X147308509Y-89445470D01*
G37*
X147308509Y-89445470D02*
X147587680Y-89501000D01*
X147872320Y-89501000D01*
X148151491Y-89445470D01*
X148240001Y-89408808D01*
X148240000Y-99562678D01*
X148236324Y-99600000D01*
X148240000Y-99637322D01*
X148240000Y-99637332D01*
X148250997Y-99748985D01*
X148283991Y-99857753D01*
X148294454Y-99892246D01*
X148365026Y-100024276D01*
X148398469Y-100065026D01*
X148459999Y-100140001D01*
X148489003Y-100163804D01*
X150890001Y-102564803D01*
X150890000Y-106082689D01*
X150701898Y-106004774D01*
X150501939Y-105965000D01*
X150298061Y-105965000D01*
X150098102Y-106004774D01*
X149910000Y-106082689D01*
X149910000Y-103687333D01*
X149913677Y-103650000D01*
X149899003Y-103501014D01*
X149855546Y-103357753D01*
X149784974Y-103225724D01*
X149713799Y-103138997D01*
X149690001Y-103109999D01*
X149661003Y-103086201D01*
X147210000Y-100635199D01*
X147210000Y-89404666D01*
X147308509Y-89445470D01*
G36*
X127940000Y-102135198D02*
G01*
X126688998Y-103386201D01*
X126660000Y-103409999D01*
X126636202Y-103438997D01*
X126636201Y-103438998D01*
X126565026Y-103525724D01*
X126494454Y-103657754D01*
X126474276Y-103724275D01*
X126451614Y-103798985D01*
X126450998Y-103801015D01*
X126436324Y-103950000D01*
X126440001Y-103987332D01*
X126440000Y-106082689D01*
X126251898Y-106004774D01*
X126051939Y-105965000D01*
X125848061Y-105965000D01*
X125648102Y-106004774D01*
X125460000Y-106082689D01*
X125460000Y-102964801D01*
X126661004Y-101763798D01*
X126690001Y-101740001D01*
X126784974Y-101624276D01*
X126855546Y-101492247D01*
X126899003Y-101348986D01*
X126910000Y-101237333D01*
X126910000Y-101237325D01*
X126913676Y-101200000D01*
X126910000Y-101162675D01*
X126910000Y-89412951D01*
X126988509Y-89445470D01*
X127267680Y-89501000D01*
X127552320Y-89501000D01*
X127831491Y-89445470D01*
X127940001Y-89400524D01*
X127940000Y-102135198D01*
G37*
X127940000Y-102135198D02*
X126688998Y-103386201D01*
X126660000Y-103409999D01*
X126636202Y-103438997D01*
X126636201Y-103438998D01*
X126565026Y-103525724D01*
X126494454Y-103657754D01*
X126474276Y-103724275D01*
X126451614Y-103798985D01*
X126450998Y-103801015D01*
X126436324Y-103950000D01*
X126440001Y-103987332D01*
X126440000Y-106082689D01*
X126251898Y-106004774D01*
X126051939Y-105965000D01*
X125848061Y-105965000D01*
X125648102Y-106004774D01*
X125460000Y-106082689D01*
X125460000Y-102964801D01*
X126661004Y-101763798D01*
X126690001Y-101740001D01*
X126784974Y-101624276D01*
X126855546Y-101492247D01*
X126899003Y-101348986D01*
X126910000Y-101237333D01*
X126910000Y-101237325D01*
X126913676Y-101200000D01*
X126910000Y-101162675D01*
X126910000Y-89412951D01*
X126988509Y-89445470D01*
X127267680Y-89501000D01*
X127552320Y-89501000D01*
X127831491Y-89445470D01*
X127940001Y-89400524D01*
X127940000Y-102135198D01*
G36*
X109208509Y-89445470D02*
G01*
X109487680Y-89501000D01*
X109772320Y-89501000D01*
X110051491Y-89445470D01*
X110140000Y-89408808D01*
X110140000Y-93735198D01*
X102238998Y-101636201D01*
X102210000Y-101659999D01*
X102186202Y-101688997D01*
X102186201Y-101688998D01*
X102115026Y-101775724D01*
X102044454Y-101907754D01*
X102033322Y-101944454D01*
X102001609Y-102049002D01*
X102000998Y-102051015D01*
X101986324Y-102200000D01*
X101990001Y-102237332D01*
X101990000Y-106082689D01*
X101801898Y-106004774D01*
X101601939Y-105965000D01*
X101398061Y-105965000D01*
X101198102Y-106004774D01*
X101010000Y-106082689D01*
X101010000Y-101014801D01*
X108861004Y-93163798D01*
X108890001Y-93140001D01*
X108984974Y-93024276D01*
X109055546Y-92892247D01*
X109099003Y-92748986D01*
X109110000Y-92637333D01*
X109110000Y-92637323D01*
X109113676Y-92600000D01*
X109110000Y-92562677D01*
X109110000Y-89404666D01*
X109208509Y-89445470D01*
G37*
X109208509Y-89445470D02*
X109487680Y-89501000D01*
X109772320Y-89501000D01*
X110051491Y-89445470D01*
X110140000Y-89408808D01*
X110140000Y-93735198D01*
X102238998Y-101636201D01*
X102210000Y-101659999D01*
X102186202Y-101688997D01*
X102186201Y-101688998D01*
X102115026Y-101775724D01*
X102044454Y-101907754D01*
X102033322Y-101944454D01*
X102001609Y-102049002D01*
X102000998Y-102051015D01*
X101986324Y-102200000D01*
X101990001Y-102237332D01*
X101990000Y-106082689D01*
X101801898Y-106004774D01*
X101601939Y-105965000D01*
X101398061Y-105965000D01*
X101198102Y-106004774D01*
X101010000Y-106082689D01*
X101010000Y-101014801D01*
X108861004Y-93163798D01*
X108890001Y-93140001D01*
X108984974Y-93024276D01*
X109055546Y-92892247D01*
X109099003Y-92748986D01*
X109110000Y-92637333D01*
X109110000Y-92637323D01*
X109113676Y-92600000D01*
X109110000Y-92562677D01*
X109110000Y-89404666D01*
X109208509Y-89445470D01*
G36*
X163490000Y-91862678D02*
G01*
X163486324Y-91900000D01*
X163490000Y-91937322D01*
X163490000Y-91937332D01*
X163500997Y-92048985D01*
X163539442Y-92175724D01*
X163544454Y-92192246D01*
X163615026Y-92324276D01*
X163654871Y-92372826D01*
X163709999Y-92440001D01*
X163739003Y-92463804D01*
X172840001Y-101564803D01*
X172840000Y-106082689D01*
X172651898Y-106004774D01*
X172451939Y-105965000D01*
X172248061Y-105965000D01*
X172048102Y-106004774D01*
X171860000Y-106082689D01*
X171860000Y-102387322D01*
X171863676Y-102349999D01*
X171860000Y-102312676D01*
X171860000Y-102312667D01*
X171849003Y-102201014D01*
X171805546Y-102057753D01*
X171734974Y-101925724D01*
X171714681Y-101900997D01*
X171663799Y-101838996D01*
X171663795Y-101838992D01*
X171640001Y-101809999D01*
X171611008Y-101786205D01*
X162460000Y-92635199D01*
X162460000Y-89408808D01*
X162548509Y-89445470D01*
X162827680Y-89501000D01*
X163112320Y-89501000D01*
X163391491Y-89445470D01*
X163490000Y-89404666D01*
X163490000Y-91862678D01*
G37*
X163490000Y-91862678D02*
X163486324Y-91900000D01*
X163490000Y-91937322D01*
X163490000Y-91937332D01*
X163500997Y-92048985D01*
X163539442Y-92175724D01*
X163544454Y-92192246D01*
X163615026Y-92324276D01*
X163654871Y-92372826D01*
X163709999Y-92440001D01*
X163739003Y-92463804D01*
X172840001Y-101564803D01*
X172840000Y-106082689D01*
X172651898Y-106004774D01*
X172451939Y-105965000D01*
X172248061Y-105965000D01*
X172048102Y-106004774D01*
X171860000Y-106082689D01*
X171860000Y-102387322D01*
X171863676Y-102349999D01*
X171860000Y-102312676D01*
X171860000Y-102312667D01*
X171849003Y-102201014D01*
X171805546Y-102057753D01*
X171734974Y-101925724D01*
X171714681Y-101900997D01*
X171663799Y-101838996D01*
X171663795Y-101838992D01*
X171640001Y-101809999D01*
X171611008Y-101786205D01*
X162460000Y-92635199D01*
X162460000Y-89408808D01*
X162548509Y-89445470D01*
X162827680Y-89501000D01*
X163112320Y-89501000D01*
X163391491Y-89445470D01*
X163490000Y-89404666D01*
X163490000Y-91862678D01*
G36*
X160008509Y-89445470D02*
G01*
X160287680Y-89501000D01*
X160572320Y-89501000D01*
X160851491Y-89445470D01*
X160940000Y-89408808D01*
X160940000Y-92912678D01*
X160936324Y-92950000D01*
X160940000Y-92987322D01*
X160940000Y-92987332D01*
X160950997Y-93098985D01*
X160992248Y-93234974D01*
X160994454Y-93242246D01*
X161065026Y-93374276D01*
X161098469Y-93415026D01*
X161159999Y-93490001D01*
X161189003Y-93513804D01*
X170340001Y-102664804D01*
X170340000Y-106082689D01*
X170151898Y-106004774D01*
X169951939Y-105965000D01*
X169748061Y-105965000D01*
X169548102Y-106004774D01*
X169360000Y-106082689D01*
X169360000Y-103687322D01*
X169363676Y-103649999D01*
X169360000Y-103612676D01*
X169360000Y-103612667D01*
X169349003Y-103501014D01*
X169305546Y-103357753D01*
X169234974Y-103225724D01*
X169140001Y-103109999D01*
X169111003Y-103086201D01*
X159910000Y-93885199D01*
X159910000Y-89404666D01*
X160008509Y-89445470D01*
G37*
X160008509Y-89445470D02*
X160287680Y-89501000D01*
X160572320Y-89501000D01*
X160851491Y-89445470D01*
X160940000Y-89408808D01*
X160940000Y-92912678D01*
X160936324Y-92950000D01*
X160940000Y-92987322D01*
X160940000Y-92987332D01*
X160950997Y-93098985D01*
X160992248Y-93234974D01*
X160994454Y-93242246D01*
X161065026Y-93374276D01*
X161098469Y-93415026D01*
X161159999Y-93490001D01*
X161189003Y-93513804D01*
X170340001Y-102664804D01*
X170340000Y-106082689D01*
X170151898Y-106004774D01*
X169951939Y-105965000D01*
X169748061Y-105965000D01*
X169548102Y-106004774D01*
X169360000Y-106082689D01*
X169360000Y-103687322D01*
X169363676Y-103649999D01*
X169360000Y-103612676D01*
X169360000Y-103612667D01*
X169349003Y-103501014D01*
X169305546Y-103357753D01*
X169234974Y-103225724D01*
X169140001Y-103109999D01*
X169111003Y-103086201D01*
X159910000Y-93885199D01*
X159910000Y-89404666D01*
X160008509Y-89445470D01*
G36*
X114288509Y-89445470D02*
G01*
X114567680Y-89501000D01*
X114852320Y-89501000D01*
X115131491Y-89445470D01*
X115190000Y-89421235D01*
X115190000Y-96285198D01*
X107238998Y-104236201D01*
X107210000Y-104259999D01*
X107186202Y-104288997D01*
X107186201Y-104288998D01*
X107115026Y-104375724D01*
X107044454Y-104507754D01*
X107000998Y-104651015D01*
X106986324Y-104800000D01*
X106990001Y-104837332D01*
X106990000Y-106082689D01*
X106801898Y-106004774D01*
X106601939Y-105965000D01*
X106398061Y-105965000D01*
X106198102Y-106004774D01*
X106010000Y-106082689D01*
X106010000Y-103864801D01*
X113961004Y-95913798D01*
X113990001Y-95890001D01*
X114084974Y-95774276D01*
X114155546Y-95642247D01*
X114199003Y-95498986D01*
X114210000Y-95387333D01*
X114210000Y-95387324D01*
X114213676Y-95350001D01*
X114210000Y-95312678D01*
X114210000Y-89412951D01*
X114288509Y-89445470D01*
G37*
X114288509Y-89445470D02*
X114567680Y-89501000D01*
X114852320Y-89501000D01*
X115131491Y-89445470D01*
X115190000Y-89421235D01*
X115190000Y-96285198D01*
X107238998Y-104236201D01*
X107210000Y-104259999D01*
X107186202Y-104288997D01*
X107186201Y-104288998D01*
X107115026Y-104375724D01*
X107044454Y-104507754D01*
X107000998Y-104651015D01*
X106986324Y-104800000D01*
X106990001Y-104837332D01*
X106990000Y-106082689D01*
X106801898Y-106004774D01*
X106601939Y-105965000D01*
X106398061Y-105965000D01*
X106198102Y-106004774D01*
X106010000Y-106082689D01*
X106010000Y-103864801D01*
X113961004Y-95913798D01*
X113990001Y-95890001D01*
X114084974Y-95774276D01*
X114155546Y-95642247D01*
X114199003Y-95498986D01*
X114210000Y-95387333D01*
X114210000Y-95387324D01*
X114213676Y-95350001D01*
X114210000Y-95312678D01*
X114210000Y-89412951D01*
X114288509Y-89445470D01*
G36*
X165088509Y-89445470D02*
G01*
X165367680Y-89501000D01*
X165652320Y-89501000D01*
X165931491Y-89445470D01*
X165990000Y-89421235D01*
X165990000Y-90762678D01*
X165986324Y-90800000D01*
X165990000Y-90837322D01*
X165990000Y-90837332D01*
X166000997Y-90948985D01*
X166035788Y-91063677D01*
X166044454Y-91092246D01*
X166115026Y-91224276D01*
X166125742Y-91237333D01*
X166209999Y-91340001D01*
X166239003Y-91363804D01*
X175340001Y-100464803D01*
X175340000Y-106082689D01*
X175151898Y-106004774D01*
X174951939Y-105965000D01*
X174748061Y-105965000D01*
X174548102Y-106004774D01*
X174360000Y-106082689D01*
X174360000Y-101287323D01*
X174363676Y-101250000D01*
X174360000Y-101212677D01*
X174360000Y-101212667D01*
X174349003Y-101101014D01*
X174305546Y-100957753D01*
X174234974Y-100825724D01*
X174140001Y-100709999D01*
X174111003Y-100686201D01*
X165010000Y-91585199D01*
X165010000Y-89412951D01*
X165088509Y-89445470D01*
G37*
X165088509Y-89445470D02*
X165367680Y-89501000D01*
X165652320Y-89501000D01*
X165931491Y-89445470D01*
X165990000Y-89421235D01*
X165990000Y-90762678D01*
X165986324Y-90800000D01*
X165990000Y-90837322D01*
X165990000Y-90837332D01*
X166000997Y-90948985D01*
X166035788Y-91063677D01*
X166044454Y-91092246D01*
X166115026Y-91224276D01*
X166125742Y-91237333D01*
X166209999Y-91340001D01*
X166239003Y-91363804D01*
X175340001Y-100464803D01*
X175340000Y-106082689D01*
X175151898Y-106004774D01*
X174951939Y-105965000D01*
X174748061Y-105965000D01*
X174548102Y-106004774D01*
X174360000Y-106082689D01*
X174360000Y-101287323D01*
X174363676Y-101250000D01*
X174360000Y-101212677D01*
X174360000Y-101212667D01*
X174349003Y-101101014D01*
X174305546Y-100957753D01*
X174234974Y-100825724D01*
X174140001Y-100709999D01*
X174111003Y-100686201D01*
X165010000Y-91585199D01*
X165010000Y-89412951D01*
X165088509Y-89445470D01*
G36*
X112690000Y-95035198D02*
G01*
X104738998Y-102986201D01*
X104710000Y-103009999D01*
X104686202Y-103038997D01*
X104686201Y-103038998D01*
X104615026Y-103125724D01*
X104544454Y-103257754D01*
X104520315Y-103337332D01*
X104501609Y-103399002D01*
X104500998Y-103401015D01*
X104486324Y-103550000D01*
X104490001Y-103587332D01*
X104490000Y-106082689D01*
X104301898Y-106004774D01*
X104101939Y-105965000D01*
X103898061Y-105965000D01*
X103698102Y-106004774D01*
X103510000Y-106082689D01*
X103510000Y-102514801D01*
X111411004Y-94613798D01*
X111440001Y-94590001D01*
X111534974Y-94474276D01*
X111605546Y-94342247D01*
X111649003Y-94198986D01*
X111660000Y-94087333D01*
X111660000Y-94087332D01*
X111663677Y-94050000D01*
X111660000Y-94012667D01*
X111660000Y-89408808D01*
X111748509Y-89445470D01*
X112027680Y-89501000D01*
X112312320Y-89501000D01*
X112591491Y-89445470D01*
X112690000Y-89404666D01*
X112690000Y-95035198D01*
G37*
X112690000Y-95035198D02*
X104738998Y-102986201D01*
X104710000Y-103009999D01*
X104686202Y-103038997D01*
X104686201Y-103038998D01*
X104615026Y-103125724D01*
X104544454Y-103257754D01*
X104520315Y-103337332D01*
X104501609Y-103399002D01*
X104500998Y-103401015D01*
X104486324Y-103550000D01*
X104490001Y-103587332D01*
X104490000Y-106082689D01*
X104301898Y-106004774D01*
X104101939Y-105965000D01*
X103898061Y-105965000D01*
X103698102Y-106004774D01*
X103510000Y-106082689D01*
X103510000Y-102514801D01*
X111411004Y-94613798D01*
X111440001Y-94590001D01*
X111534974Y-94474276D01*
X111605546Y-94342247D01*
X111649003Y-94198986D01*
X111660000Y-94087333D01*
X111660000Y-94087332D01*
X111663677Y-94050000D01*
X111660000Y-94012667D01*
X111660000Y-89408808D01*
X111748509Y-89445470D01*
X112027680Y-89501000D01*
X112312320Y-89501000D01*
X112591491Y-89445470D01*
X112690000Y-89404666D01*
X112690000Y-95035198D01*
G36*
X103105000Y-83118320D02*
G01*
X103160530Y-83397491D01*
X103269457Y-83660464D01*
X103427595Y-83897134D01*
X103628866Y-84098405D01*
X103849757Y-84246000D01*
X103628866Y-84393595D01*
X103427595Y-84594866D01*
X103269457Y-84831536D01*
X103160530Y-85094509D01*
X103105000Y-85373680D01*
X103105000Y-85658320D01*
X103160530Y-85937491D01*
X103269457Y-86200464D01*
X103427595Y-86437134D01*
X103628866Y-86638405D01*
X103849757Y-86786000D01*
X103628866Y-86933595D01*
X103427595Y-87134866D01*
X103269457Y-87371536D01*
X103160530Y-87634509D01*
X103105000Y-87913680D01*
X103105000Y-88198320D01*
X103160530Y-88477491D01*
X103269457Y-88740464D01*
X103427595Y-88977134D01*
X103628866Y-89178405D01*
X103865536Y-89336543D01*
X104128509Y-89445470D01*
X104407680Y-89501000D01*
X104692320Y-89501000D01*
X104971491Y-89445470D01*
X105040000Y-89417093D01*
X105040000Y-90885198D01*
X97238998Y-98686201D01*
X97210000Y-98709999D01*
X97186202Y-98738997D01*
X97186201Y-98738998D01*
X97115026Y-98825724D01*
X97044454Y-98957754D01*
X97020658Y-99036201D01*
X97000998Y-99101014D01*
X96991348Y-99198987D01*
X96986324Y-99250000D01*
X96990001Y-99287332D01*
X96990000Y-106082689D01*
X96801898Y-106004774D01*
X96601939Y-105965000D01*
X96398061Y-105965000D01*
X96198102Y-106004774D01*
X96010000Y-106082689D01*
X96010000Y-96764801D01*
X101861004Y-90913798D01*
X101890001Y-90890001D01*
X101984974Y-90774276D01*
X102055546Y-90642247D01*
X102099003Y-90498986D01*
X102110000Y-90387333D01*
X102110000Y-90387325D01*
X102113676Y-90350000D01*
X102110000Y-90312675D01*
X102110000Y-83950801D01*
X103105000Y-82955802D01*
X103105000Y-83118320D01*
G37*
X103105000Y-83118320D02*
X103160530Y-83397491D01*
X103269457Y-83660464D01*
X103427595Y-83897134D01*
X103628866Y-84098405D01*
X103849757Y-84246000D01*
X103628866Y-84393595D01*
X103427595Y-84594866D01*
X103269457Y-84831536D01*
X103160530Y-85094509D01*
X103105000Y-85373680D01*
X103105000Y-85658320D01*
X103160530Y-85937491D01*
X103269457Y-86200464D01*
X103427595Y-86437134D01*
X103628866Y-86638405D01*
X103849757Y-86786000D01*
X103628866Y-86933595D01*
X103427595Y-87134866D01*
X103269457Y-87371536D01*
X103160530Y-87634509D01*
X103105000Y-87913680D01*
X103105000Y-88198320D01*
X103160530Y-88477491D01*
X103269457Y-88740464D01*
X103427595Y-88977134D01*
X103628866Y-89178405D01*
X103865536Y-89336543D01*
X104128509Y-89445470D01*
X104407680Y-89501000D01*
X104692320Y-89501000D01*
X104971491Y-89445470D01*
X105040000Y-89417093D01*
X105040000Y-90885198D01*
X97238998Y-98686201D01*
X97210000Y-98709999D01*
X97186202Y-98738997D01*
X97186201Y-98738998D01*
X97115026Y-98825724D01*
X97044454Y-98957754D01*
X97020658Y-99036201D01*
X97000998Y-99101014D01*
X96991348Y-99198987D01*
X96986324Y-99250000D01*
X96990001Y-99287332D01*
X96990000Y-106082689D01*
X96801898Y-106004774D01*
X96601939Y-105965000D01*
X96398061Y-105965000D01*
X96198102Y-106004774D01*
X96010000Y-106082689D01*
X96010000Y-96764801D01*
X101861004Y-90913798D01*
X101890001Y-90890001D01*
X101984974Y-90774276D01*
X102055546Y-90642247D01*
X102099003Y-90498986D01*
X102110000Y-90387333D01*
X102110000Y-90387325D01*
X102113676Y-90350000D01*
X102110000Y-90312675D01*
X102110000Y-83950801D01*
X103105000Y-82955802D01*
X103105000Y-83118320D01*
G36*
X171090001Y-84550803D02*
G01*
X171090000Y-90262677D01*
X171086324Y-90300000D01*
X171090000Y-90337322D01*
X171090000Y-90337332D01*
X171100997Y-90448985D01*
X171144454Y-90592246D01*
X171215026Y-90724276D01*
X171254871Y-90772826D01*
X171309999Y-90840001D01*
X171339003Y-90863804D01*
X177840001Y-97364803D01*
X177840000Y-106082689D01*
X177651898Y-106004774D01*
X177451939Y-105965000D01*
X177248061Y-105965000D01*
X177048102Y-106004774D01*
X176860000Y-106082689D01*
X176860000Y-100187323D01*
X176863676Y-100150000D01*
X176860000Y-100112677D01*
X176860000Y-100112667D01*
X176849003Y-100001014D01*
X176805546Y-99857753D01*
X176734974Y-99725724D01*
X176640001Y-99609999D01*
X176611003Y-99586201D01*
X167510000Y-90485199D01*
X167510000Y-89396382D01*
X167628509Y-89445470D01*
X167907680Y-89501000D01*
X168192320Y-89501000D01*
X168471491Y-89445470D01*
X168734464Y-89336543D01*
X168971134Y-89178405D01*
X169172405Y-88977134D01*
X169330543Y-88740464D01*
X169439470Y-88477491D01*
X169495000Y-88198320D01*
X169495000Y-87913680D01*
X169439470Y-87634509D01*
X169330543Y-87371536D01*
X169172405Y-87134866D01*
X168971134Y-86933595D01*
X168750243Y-86786000D01*
X168971134Y-86638405D01*
X169172405Y-86437134D01*
X169330543Y-86200464D01*
X169439470Y-85937491D01*
X169495000Y-85658320D01*
X169495000Y-85373680D01*
X169439470Y-85094509D01*
X169330543Y-84831536D01*
X169172405Y-84594866D01*
X168971134Y-84393595D01*
X168750243Y-84246000D01*
X168971134Y-84098405D01*
X169172405Y-83897134D01*
X169330543Y-83660464D01*
X169439470Y-83397491D01*
X169495000Y-83118320D01*
X169495000Y-82955802D01*
X171090001Y-84550803D01*
G37*
X171090001Y-84550803D02*
X171090000Y-90262677D01*
X171086324Y-90300000D01*
X171090000Y-90337322D01*
X171090000Y-90337332D01*
X171100997Y-90448985D01*
X171144454Y-90592246D01*
X171215026Y-90724276D01*
X171254871Y-90772826D01*
X171309999Y-90840001D01*
X171339003Y-90863804D01*
X177840001Y-97364803D01*
X177840000Y-106082689D01*
X177651898Y-106004774D01*
X177451939Y-105965000D01*
X177248061Y-105965000D01*
X177048102Y-106004774D01*
X176860000Y-106082689D01*
X176860000Y-100187323D01*
X176863676Y-100150000D01*
X176860000Y-100112677D01*
X176860000Y-100112667D01*
X176849003Y-100001014D01*
X176805546Y-99857753D01*
X176734974Y-99725724D01*
X176640001Y-99609999D01*
X176611003Y-99586201D01*
X167510000Y-90485199D01*
X167510000Y-89396382D01*
X167628509Y-89445470D01*
X167907680Y-89501000D01*
X168192320Y-89501000D01*
X168471491Y-89445470D01*
X168734464Y-89336543D01*
X168971134Y-89178405D01*
X169172405Y-88977134D01*
X169330543Y-88740464D01*
X169439470Y-88477491D01*
X169495000Y-88198320D01*
X169495000Y-87913680D01*
X169439470Y-87634509D01*
X169330543Y-87371536D01*
X169172405Y-87134866D01*
X168971134Y-86933595D01*
X168750243Y-86786000D01*
X168971134Y-86638405D01*
X169172405Y-86437134D01*
X169330543Y-86200464D01*
X169439470Y-85937491D01*
X169495000Y-85658320D01*
X169495000Y-85373680D01*
X169439470Y-85094509D01*
X169330543Y-84831536D01*
X169172405Y-84594866D01*
X168971134Y-84393595D01*
X168750243Y-84246000D01*
X168971134Y-84098405D01*
X169172405Y-83897134D01*
X169330543Y-83660464D01*
X169439470Y-83397491D01*
X169495000Y-83118320D01*
X169495000Y-82955802D01*
X171090001Y-84550803D01*
G36*
X125390000Y-100885198D02*
G01*
X124188998Y-102086201D01*
X124160000Y-102109999D01*
X124136202Y-102138997D01*
X124136201Y-102138998D01*
X124065026Y-102225724D01*
X123994454Y-102357754D01*
X123968155Y-102444454D01*
X123950998Y-102501014D01*
X123941348Y-102598987D01*
X123936324Y-102650000D01*
X123940001Y-102687332D01*
X123940000Y-106082689D01*
X123751898Y-106004774D01*
X123551939Y-105965000D01*
X123348061Y-105965000D01*
X123148102Y-106004774D01*
X122960000Y-106082689D01*
X122960000Y-101614801D01*
X124111004Y-100463798D01*
X124140001Y-100440001D01*
X124172829Y-100400000D01*
X124234974Y-100324277D01*
X124305546Y-100192247D01*
X124328970Y-100115026D01*
X124349003Y-100048986D01*
X124360000Y-99937333D01*
X124360000Y-99937323D01*
X124363676Y-99900000D01*
X124360000Y-99862678D01*
X124360000Y-89408808D01*
X124448509Y-89445470D01*
X124727680Y-89501000D01*
X125012320Y-89501000D01*
X125291491Y-89445470D01*
X125390001Y-89404666D01*
X125390000Y-100885198D01*
G37*
X125390000Y-100885198D02*
X124188998Y-102086201D01*
X124160000Y-102109999D01*
X124136202Y-102138997D01*
X124136201Y-102138998D01*
X124065026Y-102225724D01*
X123994454Y-102357754D01*
X123968155Y-102444454D01*
X123950998Y-102501014D01*
X123941348Y-102598987D01*
X123936324Y-102650000D01*
X123940001Y-102687332D01*
X123940000Y-106082689D01*
X123751898Y-106004774D01*
X123551939Y-105965000D01*
X123348061Y-105965000D01*
X123148102Y-106004774D01*
X122960000Y-106082689D01*
X122960000Y-101614801D01*
X124111004Y-100463798D01*
X124140001Y-100440001D01*
X124172829Y-100400000D01*
X124234974Y-100324277D01*
X124305546Y-100192247D01*
X124328970Y-100115026D01*
X124349003Y-100048986D01*
X124360000Y-99937333D01*
X124360000Y-99937323D01*
X124363676Y-99900000D01*
X124360000Y-99862678D01*
X124360000Y-89408808D01*
X124448509Y-89445470D01*
X124727680Y-89501000D01*
X125012320Y-89501000D01*
X125291491Y-89445470D01*
X125390001Y-89404666D01*
X125390000Y-100885198D01*
G36*
X119368509Y-89445470D02*
G01*
X119647680Y-89501000D01*
X119932320Y-89501000D01*
X120211491Y-89445470D01*
X120290001Y-89412950D01*
X120290000Y-98735198D01*
X119188998Y-99836201D01*
X119160000Y-99859999D01*
X119136202Y-99888997D01*
X119136201Y-99888998D01*
X119065026Y-99975724D01*
X118994454Y-100107754D01*
X118950998Y-100251015D01*
X118936324Y-100400000D01*
X118940001Y-100437332D01*
X118940000Y-106082689D01*
X118751898Y-106004774D01*
X118551939Y-105965000D01*
X118348061Y-105965000D01*
X118148102Y-106004774D01*
X117960000Y-106082689D01*
X117960000Y-99464801D01*
X119011004Y-98413798D01*
X119040001Y-98390001D01*
X119134974Y-98274276D01*
X119205546Y-98142247D01*
X119249003Y-97998986D01*
X119260000Y-97887333D01*
X119260000Y-97887325D01*
X119263676Y-97850000D01*
X119260000Y-97812675D01*
X119260000Y-89400524D01*
X119368509Y-89445470D01*
G37*
X119368509Y-89445470D02*
X119647680Y-89501000D01*
X119932320Y-89501000D01*
X120211491Y-89445470D01*
X120290001Y-89412950D01*
X120290000Y-98735198D01*
X119188998Y-99836201D01*
X119160000Y-99859999D01*
X119136202Y-99888997D01*
X119136201Y-99888998D01*
X119065026Y-99975724D01*
X118994454Y-100107754D01*
X118950998Y-100251015D01*
X118936324Y-100400000D01*
X118940001Y-100437332D01*
X118940000Y-106082689D01*
X118751898Y-106004774D01*
X118551939Y-105965000D01*
X118348061Y-105965000D01*
X118148102Y-106004774D01*
X117960000Y-106082689D01*
X117960000Y-99464801D01*
X119011004Y-98413798D01*
X119040001Y-98390001D01*
X119134974Y-98274276D01*
X119205546Y-98142247D01*
X119249003Y-97998986D01*
X119260000Y-97887333D01*
X119260000Y-97887325D01*
X119263676Y-97850000D01*
X119260000Y-97812675D01*
X119260000Y-89400524D01*
X119368509Y-89445470D01*
G36*
X130440000Y-103535198D02*
G01*
X129188998Y-104786201D01*
X129160000Y-104809999D01*
X129136202Y-104838997D01*
X129136201Y-104838998D01*
X129065026Y-104925724D01*
X128994454Y-105057754D01*
X128966165Y-105151013D01*
X128950998Y-105201014D01*
X128946273Y-105248986D01*
X128936324Y-105350000D01*
X128940001Y-105387332D01*
X128940001Y-106082689D01*
X128751898Y-106004774D01*
X128551939Y-105965000D01*
X128348061Y-105965000D01*
X128148102Y-106004774D01*
X127960000Y-106082689D01*
X127960000Y-104264801D01*
X129211004Y-103013798D01*
X129240001Y-102990001D01*
X129334974Y-102874276D01*
X129405546Y-102742247D01*
X129449003Y-102598986D01*
X129460000Y-102487333D01*
X129460000Y-102487324D01*
X129463676Y-102450001D01*
X129460000Y-102412678D01*
X129460000Y-89417093D01*
X129528509Y-89445470D01*
X129807680Y-89501000D01*
X130092320Y-89501000D01*
X130371491Y-89445470D01*
X130440001Y-89417092D01*
X130440000Y-103535198D01*
G37*
X130440000Y-103535198D02*
X129188998Y-104786201D01*
X129160000Y-104809999D01*
X129136202Y-104838997D01*
X129136201Y-104838998D01*
X129065026Y-104925724D01*
X128994454Y-105057754D01*
X128966165Y-105151013D01*
X128950998Y-105201014D01*
X128946273Y-105248986D01*
X128936324Y-105350000D01*
X128940001Y-105387332D01*
X128940001Y-106082689D01*
X128751898Y-106004774D01*
X128551939Y-105965000D01*
X128348061Y-105965000D01*
X128148102Y-106004774D01*
X127960000Y-106082689D01*
X127960000Y-104264801D01*
X129211004Y-103013798D01*
X129240001Y-102990001D01*
X129334974Y-102874276D01*
X129405546Y-102742247D01*
X129449003Y-102598986D01*
X129460000Y-102487333D01*
X129460000Y-102487324D01*
X129463676Y-102450001D01*
X129460000Y-102412678D01*
X129460000Y-89417093D01*
X129528509Y-89445470D01*
X129807680Y-89501000D01*
X130092320Y-89501000D01*
X130371491Y-89445470D01*
X130440001Y-89417092D01*
X130440000Y-103535198D01*
G36*
X150790000Y-98112678D02*
G01*
X150786324Y-98150000D01*
X150790000Y-98187322D01*
X150790000Y-98187332D01*
X150800997Y-98298985D01*
X150844454Y-98442246D01*
X150915026Y-98574276D01*
X150947362Y-98613677D01*
X151009999Y-98690001D01*
X151039003Y-98713804D01*
X153390001Y-101064803D01*
X153390000Y-106082689D01*
X153201898Y-106004774D01*
X153001939Y-105965000D01*
X152798061Y-105965000D01*
X152598102Y-106004774D01*
X152410000Y-106082689D01*
X152410000Y-102287323D01*
X152413676Y-102250000D01*
X152410000Y-102212677D01*
X152410000Y-102212667D01*
X152399003Y-102101014D01*
X152355546Y-101957753D01*
X152328820Y-101907753D01*
X152284974Y-101825723D01*
X152213799Y-101738997D01*
X152190001Y-101709999D01*
X152161003Y-101686201D01*
X149760000Y-99285199D01*
X149760000Y-89408808D01*
X149848509Y-89445470D01*
X150127680Y-89501000D01*
X150412320Y-89501000D01*
X150691491Y-89445470D01*
X150790001Y-89404666D01*
X150790000Y-98112678D01*
G37*
X150790000Y-98112678D02*
X150786324Y-98150000D01*
X150790000Y-98187322D01*
X150790000Y-98187332D01*
X150800997Y-98298985D01*
X150844454Y-98442246D01*
X150915026Y-98574276D01*
X150947362Y-98613677D01*
X151009999Y-98690001D01*
X151039003Y-98713804D01*
X153390001Y-101064803D01*
X153390000Y-106082689D01*
X153201898Y-106004774D01*
X153001939Y-105965000D01*
X152798061Y-105965000D01*
X152598102Y-106004774D01*
X152410000Y-106082689D01*
X152410000Y-102287323D01*
X152413676Y-102250000D01*
X152410000Y-102212677D01*
X152410000Y-102212667D01*
X152399003Y-102101014D01*
X152355546Y-101957753D01*
X152328820Y-101907753D01*
X152284974Y-101825723D01*
X152213799Y-101738997D01*
X152190001Y-101709999D01*
X152161003Y-101686201D01*
X149760000Y-99285199D01*
X149760000Y-89408808D01*
X149848509Y-89445470D01*
X150127680Y-89501000D01*
X150412320Y-89501000D01*
X150691491Y-89445470D01*
X150790001Y-89404666D01*
X150790000Y-98112678D01*
G36*
X121908509Y-89445470D02*
G01*
X122187680Y-89501000D01*
X122472320Y-89501000D01*
X122751491Y-89445470D01*
X122840001Y-89408808D01*
X122840000Y-99585198D01*
X121688998Y-100736201D01*
X121660000Y-100759999D01*
X121636202Y-100788997D01*
X121636201Y-100788998D01*
X121565026Y-100875724D01*
X121494454Y-101007754D01*
X121466780Y-101098986D01*
X121451609Y-101149002D01*
X121450998Y-101151015D01*
X121436324Y-101300000D01*
X121440001Y-101337332D01*
X121440000Y-106082689D01*
X121251898Y-106004774D01*
X121051939Y-105965000D01*
X120848061Y-105965000D01*
X120648102Y-106004774D01*
X120460000Y-106082689D01*
X120460000Y-100714801D01*
X121561004Y-99613798D01*
X121590001Y-99590001D01*
X121684974Y-99474276D01*
X121755546Y-99342247D01*
X121799003Y-99198986D01*
X121810000Y-99087333D01*
X121810000Y-99087324D01*
X121813676Y-99050001D01*
X121810000Y-99012678D01*
X121810000Y-89404666D01*
X121908509Y-89445470D01*
G37*
X121908509Y-89445470D02*
X122187680Y-89501000D01*
X122472320Y-89501000D01*
X122751491Y-89445470D01*
X122840001Y-89408808D01*
X122840000Y-99585198D01*
X121688998Y-100736201D01*
X121660000Y-100759999D01*
X121636202Y-100788997D01*
X121636201Y-100788998D01*
X121565026Y-100875724D01*
X121494454Y-101007754D01*
X121466780Y-101098986D01*
X121451609Y-101149002D01*
X121450998Y-101151015D01*
X121436324Y-101300000D01*
X121440001Y-101337332D01*
X121440000Y-106082689D01*
X121251898Y-106004774D01*
X121051939Y-105965000D01*
X120848061Y-105965000D01*
X120648102Y-106004774D01*
X120460000Y-106082689D01*
X120460000Y-100714801D01*
X121561004Y-99613798D01*
X121590001Y-99590001D01*
X121684974Y-99474276D01*
X121755546Y-99342247D01*
X121799003Y-99198986D01*
X121810000Y-99087333D01*
X121810000Y-99087324D01*
X121813676Y-99050001D01*
X121810000Y-99012678D01*
X121810000Y-89404666D01*
X121908509Y-89445470D01*
G36*
X142228509Y-89445470D02*
G01*
X142507680Y-89501000D01*
X142792320Y-89501000D01*
X143071491Y-89445470D01*
X143140001Y-89417092D01*
X143140000Y-102512678D01*
X143136324Y-102550000D01*
X143140000Y-102587322D01*
X143140000Y-102587332D01*
X143150997Y-102698985D01*
X143185825Y-102813799D01*
X143194454Y-102842246D01*
X143265026Y-102974276D01*
X143297361Y-103013676D01*
X143359999Y-103090001D01*
X143389003Y-103113804D01*
X145890001Y-105614803D01*
X145890001Y-106082689D01*
X145701898Y-106004774D01*
X145501939Y-105965000D01*
X145298061Y-105965000D01*
X145098102Y-106004774D01*
X144910000Y-106082689D01*
X144910000Y-105987323D01*
X144913676Y-105950000D01*
X144910000Y-105912677D01*
X144910000Y-105912667D01*
X144899003Y-105801014D01*
X144855546Y-105657753D01*
X144824134Y-105598986D01*
X144784974Y-105525723D01*
X144713799Y-105438997D01*
X144690001Y-105409999D01*
X144661003Y-105386201D01*
X142110000Y-102835199D01*
X142110000Y-89396382D01*
X142228509Y-89445470D01*
G37*
X142228509Y-89445470D02*
X142507680Y-89501000D01*
X142792320Y-89501000D01*
X143071491Y-89445470D01*
X143140001Y-89417092D01*
X143140000Y-102512678D01*
X143136324Y-102550000D01*
X143140000Y-102587322D01*
X143140000Y-102587332D01*
X143150997Y-102698985D01*
X143185825Y-102813799D01*
X143194454Y-102842246D01*
X143265026Y-102974276D01*
X143297361Y-103013676D01*
X143359999Y-103090001D01*
X143389003Y-103113804D01*
X145890001Y-105614803D01*
X145890001Y-106082689D01*
X145701898Y-106004774D01*
X145501939Y-105965000D01*
X145298061Y-105965000D01*
X145098102Y-106004774D01*
X144910000Y-106082689D01*
X144910000Y-105987323D01*
X144913676Y-105950000D01*
X144910000Y-105912677D01*
X144910000Y-105912667D01*
X144899003Y-105801014D01*
X144855546Y-105657753D01*
X144824134Y-105598986D01*
X144784974Y-105525723D01*
X144713799Y-105438997D01*
X144690001Y-105409999D01*
X144661003Y-105386201D01*
X142110000Y-102835199D01*
X142110000Y-89396382D01*
X142228509Y-89445470D01*
G36*
X106668509Y-89445470D02*
G01*
X106947680Y-89501000D01*
X107232320Y-89501000D01*
X107511491Y-89445470D01*
X107590000Y-89412950D01*
X107590000Y-92285198D01*
X99738998Y-100136201D01*
X99710000Y-100159999D01*
X99686202Y-100188997D01*
X99686201Y-100188998D01*
X99615026Y-100275724D01*
X99544454Y-100407754D01*
X99531337Y-100450997D01*
X99500998Y-100551014D01*
X99496073Y-100601014D01*
X99486324Y-100700000D01*
X99490001Y-100737332D01*
X99490000Y-106082689D01*
X99301898Y-106004774D01*
X99101939Y-105965000D01*
X98898061Y-105965000D01*
X98698102Y-106004774D01*
X98510000Y-106082689D01*
X98510000Y-99564801D01*
X106311004Y-91763798D01*
X106340001Y-91740001D01*
X106434974Y-91624276D01*
X106505546Y-91492247D01*
X106549003Y-91348986D01*
X106560000Y-91237333D01*
X106560000Y-91237324D01*
X106563676Y-91200001D01*
X106560000Y-91162678D01*
X106560000Y-89400524D01*
X106668509Y-89445470D01*
G37*
X106668509Y-89445470D02*
X106947680Y-89501000D01*
X107232320Y-89501000D01*
X107511491Y-89445470D01*
X107590000Y-89412950D01*
X107590000Y-92285198D01*
X99738998Y-100136201D01*
X99710000Y-100159999D01*
X99686202Y-100188997D01*
X99686201Y-100188998D01*
X99615026Y-100275724D01*
X99544454Y-100407754D01*
X99531337Y-100450997D01*
X99500998Y-100551014D01*
X99496073Y-100601014D01*
X99486324Y-100700000D01*
X99490001Y-100737332D01*
X99490000Y-106082689D01*
X99301898Y-106004774D01*
X99101939Y-105965000D01*
X98898061Y-105965000D01*
X98698102Y-106004774D01*
X98510000Y-106082689D01*
X98510000Y-99564801D01*
X106311004Y-91763798D01*
X106340001Y-91740001D01*
X106434974Y-91624276D01*
X106505546Y-91492247D01*
X106549003Y-91348986D01*
X106560000Y-91237333D01*
X106560000Y-91237324D01*
X106563676Y-91200001D01*
X106560000Y-91162678D01*
X106560000Y-89400524D01*
X106668509Y-89445470D01*
G36*
X139688509Y-89445470D02*
G01*
X139967680Y-89501000D01*
X140252320Y-89501000D01*
X140531491Y-89445470D01*
X140590001Y-89421235D01*
X140590000Y-103112678D01*
X140586324Y-103150000D01*
X140590000Y-103187322D01*
X140590000Y-103187332D01*
X140600997Y-103298985D01*
X140643469Y-103438998D01*
X140644454Y-103442246D01*
X140715026Y-103574276D01*
X140729774Y-103592246D01*
X140809999Y-103690001D01*
X140839003Y-103713804D01*
X143112113Y-105986915D01*
X143001939Y-105965000D01*
X142798061Y-105965000D01*
X142598102Y-106004774D01*
X142411894Y-106081905D01*
X142410000Y-106062677D01*
X142410000Y-106062667D01*
X142399003Y-105951014D01*
X142355546Y-105807753D01*
X142320532Y-105742247D01*
X142284974Y-105675723D01*
X142213799Y-105588997D01*
X142190001Y-105559999D01*
X142161003Y-105536201D01*
X139610000Y-102985199D01*
X139610000Y-89412951D01*
X139688509Y-89445470D01*
G37*
X139688509Y-89445470D02*
X139967680Y-89501000D01*
X140252320Y-89501000D01*
X140531491Y-89445470D01*
X140590001Y-89421235D01*
X140590000Y-103112678D01*
X140586324Y-103150000D01*
X140590000Y-103187322D01*
X140590000Y-103187332D01*
X140600997Y-103298985D01*
X140643469Y-103438998D01*
X140644454Y-103442246D01*
X140715026Y-103574276D01*
X140729774Y-103592246D01*
X140809999Y-103690001D01*
X140839003Y-103713804D01*
X143112113Y-105986915D01*
X143001939Y-105965000D01*
X142798061Y-105965000D01*
X142598102Y-106004774D01*
X142411894Y-106081905D01*
X142410000Y-106062677D01*
X142410000Y-106062667D01*
X142399003Y-105951014D01*
X142355546Y-105807753D01*
X142320532Y-105742247D01*
X142284974Y-105675723D01*
X142213799Y-105588997D01*
X142190001Y-105559999D01*
X142161003Y-105536201D01*
X139610000Y-102985199D01*
X139610000Y-89412951D01*
X139688509Y-89445470D01*
G36*
X136447595Y-86437134D02*
G01*
X136648866Y-86638405D01*
X136869757Y-86786000D01*
X136648866Y-86933595D01*
X136447595Y-87134866D01*
X136300000Y-87355757D01*
X136152405Y-87134866D01*
X135951134Y-86933595D01*
X135730243Y-86786000D01*
X135951134Y-86638405D01*
X136152405Y-86437134D01*
X136300000Y-86216243D01*
X136447595Y-86437134D01*
G37*
X136447595Y-86437134D02*
X136648866Y-86638405D01*
X136869757Y-86786000D01*
X136648866Y-86933595D01*
X136447595Y-87134866D01*
X136300000Y-87355757D01*
X136152405Y-87134866D01*
X135951134Y-86933595D01*
X135730243Y-86786000D01*
X135951134Y-86638405D01*
X136152405Y-86437134D01*
X136300000Y-86216243D01*
X136447595Y-86437134D01*
G36*
X136447595Y-83897134D02*
G01*
X136648866Y-84098405D01*
X136869757Y-84246000D01*
X136648866Y-84393595D01*
X136447595Y-84594866D01*
X136300000Y-84815757D01*
X136152405Y-84594866D01*
X135951134Y-84393595D01*
X135730243Y-84246000D01*
X135951134Y-84098405D01*
X136152405Y-83897134D01*
X136300000Y-83676243D01*
X136447595Y-83897134D01*
G37*
X136447595Y-83897134D02*
X136648866Y-84098405D01*
X136869757Y-84246000D01*
X136648866Y-84393595D01*
X136447595Y-84594866D01*
X136300000Y-84815757D01*
X136152405Y-84594866D01*
X135951134Y-84393595D01*
X135730243Y-84246000D01*
X135951134Y-84098405D01*
X136152405Y-83897134D01*
X136300000Y-83676243D01*
X136447595Y-83897134D01*
G36*
X136447595Y-81357134D02*
G01*
X136648866Y-81558405D01*
X136869757Y-81706000D01*
X136648866Y-81853595D01*
X136447595Y-82054866D01*
X136300000Y-82275757D01*
X136152405Y-82054866D01*
X135951134Y-81853595D01*
X135730243Y-81706000D01*
X135951134Y-81558405D01*
X136152405Y-81357134D01*
X136300000Y-81136243D01*
X136447595Y-81357134D01*
G37*
X136447595Y-81357134D02*
X136648866Y-81558405D01*
X136869757Y-81706000D01*
X136648866Y-81853595D01*
X136447595Y-82054866D01*
X136300000Y-82275757D01*
X136152405Y-82054866D01*
X135951134Y-81853595D01*
X135730243Y-81706000D01*
X135951134Y-81558405D01*
X136152405Y-81357134D01*
X136300000Y-81136243D01*
X136447595Y-81357134D01*
G36*
X170510698Y-78278188D02*
G01*
X170140252Y-78832601D01*
X169885083Y-79448632D01*
X169755000Y-80102607D01*
X169755000Y-80769393D01*
X169828697Y-81139896D01*
X169457193Y-80768392D01*
X169495000Y-80578320D01*
X169495000Y-80293680D01*
X169439470Y-80014509D01*
X169330543Y-79751536D01*
X169172405Y-79514866D01*
X168971134Y-79313595D01*
X168734464Y-79155457D01*
X168471491Y-79046530D01*
X168192320Y-78991000D01*
X167907680Y-78991000D01*
X167628509Y-79046530D01*
X167365536Y-79155457D01*
X167128866Y-79313595D01*
X166927595Y-79514866D01*
X166780000Y-79735757D01*
X166632405Y-79514866D01*
X166431134Y-79313595D01*
X166194464Y-79155457D01*
X165931491Y-79046530D01*
X165652320Y-78991000D01*
X165367680Y-78991000D01*
X165088509Y-79046530D01*
X164825536Y-79155457D01*
X164588866Y-79313595D01*
X164387595Y-79514866D01*
X164240000Y-79735757D01*
X164092405Y-79514866D01*
X163891134Y-79313595D01*
X163654464Y-79155457D01*
X163391491Y-79046530D01*
X163112320Y-78991000D01*
X162827680Y-78991000D01*
X162548509Y-79046530D01*
X162285536Y-79155457D01*
X162048866Y-79313595D01*
X161847595Y-79514866D01*
X161700000Y-79735757D01*
X161552405Y-79514866D01*
X161351134Y-79313595D01*
X161114464Y-79155457D01*
X160851491Y-79046530D01*
X160572320Y-78991000D01*
X160287680Y-78991000D01*
X160008509Y-79046530D01*
X159745536Y-79155457D01*
X159508866Y-79313595D01*
X159307595Y-79514866D01*
X159160000Y-79735757D01*
X159012405Y-79514866D01*
X158811134Y-79313595D01*
X158574464Y-79155457D01*
X158311491Y-79046530D01*
X158032320Y-78991000D01*
X157747680Y-78991000D01*
X157468509Y-79046530D01*
X157205536Y-79155457D01*
X156968866Y-79313595D01*
X156767595Y-79514866D01*
X156620000Y-79735757D01*
X156472405Y-79514866D01*
X156271134Y-79313595D01*
X156034464Y-79155457D01*
X155771491Y-79046530D01*
X155492320Y-78991000D01*
X155207680Y-78991000D01*
X154928509Y-79046530D01*
X154665536Y-79155457D01*
X154428866Y-79313595D01*
X154227595Y-79514866D01*
X154080000Y-79735757D01*
X153932405Y-79514866D01*
X153731134Y-79313595D01*
X153494464Y-79155457D01*
X153231491Y-79046530D01*
X152952320Y-78991000D01*
X152667680Y-78991000D01*
X152388509Y-79046530D01*
X152125536Y-79155457D01*
X151888866Y-79313595D01*
X151687595Y-79514866D01*
X151540000Y-79735757D01*
X151392405Y-79514866D01*
X151191134Y-79313595D01*
X150954464Y-79155457D01*
X150691491Y-79046530D01*
X150412320Y-78991000D01*
X150127680Y-78991000D01*
X149848509Y-79046530D01*
X149585536Y-79155457D01*
X149348866Y-79313595D01*
X149147595Y-79514866D01*
X149000000Y-79735757D01*
X148852405Y-79514866D01*
X148651134Y-79313595D01*
X148414464Y-79155457D01*
X148151491Y-79046530D01*
X147872320Y-78991000D01*
X147587680Y-78991000D01*
X147308509Y-79046530D01*
X147045536Y-79155457D01*
X146808866Y-79313595D01*
X146607595Y-79514866D01*
X146460000Y-79735757D01*
X146312405Y-79514866D01*
X146111134Y-79313595D01*
X145874464Y-79155457D01*
X145611491Y-79046530D01*
X145332320Y-78991000D01*
X145047680Y-78991000D01*
X144768509Y-79046530D01*
X144505536Y-79155457D01*
X144268866Y-79313595D01*
X144067595Y-79514866D01*
X143920000Y-79735757D01*
X143772405Y-79514866D01*
X143571134Y-79313595D01*
X143334464Y-79155457D01*
X143071491Y-79046530D01*
X142792320Y-78991000D01*
X142507680Y-78991000D01*
X142228509Y-79046530D01*
X141965536Y-79155457D01*
X141728866Y-79313595D01*
X141527595Y-79514866D01*
X141380000Y-79735757D01*
X141232405Y-79514866D01*
X141031134Y-79313595D01*
X140794464Y-79155457D01*
X140531491Y-79046530D01*
X140252320Y-78991000D01*
X139967680Y-78991000D01*
X139688509Y-79046530D01*
X139425536Y-79155457D01*
X139188866Y-79313595D01*
X138987595Y-79514866D01*
X138840000Y-79735757D01*
X138692405Y-79514866D01*
X138491134Y-79313595D01*
X138254464Y-79155457D01*
X137991491Y-79046530D01*
X137712320Y-78991000D01*
X137427680Y-78991000D01*
X137148509Y-79046530D01*
X136885536Y-79155457D01*
X136648866Y-79313595D01*
X136447595Y-79514866D01*
X136300000Y-79735757D01*
X136152405Y-79514866D01*
X135951134Y-79313595D01*
X135714464Y-79155457D01*
X135451491Y-79046530D01*
X135172320Y-78991000D01*
X134887680Y-78991000D01*
X134608509Y-79046530D01*
X134345536Y-79155457D01*
X134108866Y-79313595D01*
X133907595Y-79514866D01*
X133760000Y-79735757D01*
X133612405Y-79514866D01*
X133411134Y-79313595D01*
X133174464Y-79155457D01*
X132911491Y-79046530D01*
X132632320Y-78991000D01*
X132347680Y-78991000D01*
X132068509Y-79046530D01*
X131805536Y-79155457D01*
X131568866Y-79313595D01*
X131367595Y-79514866D01*
X131220000Y-79735757D01*
X131072405Y-79514866D01*
X130871134Y-79313595D01*
X130634464Y-79155457D01*
X130371491Y-79046530D01*
X130092320Y-78991000D01*
X129807680Y-78991000D01*
X129528509Y-79046530D01*
X129265536Y-79155457D01*
X129028866Y-79313595D01*
X128827595Y-79514866D01*
X128680000Y-79735757D01*
X128532405Y-79514866D01*
X128331134Y-79313595D01*
X128094464Y-79155457D01*
X127831491Y-79046530D01*
X127552320Y-78991000D01*
X127267680Y-78991000D01*
X126988509Y-79046530D01*
X126725536Y-79155457D01*
X126488866Y-79313595D01*
X126287595Y-79514866D01*
X126140000Y-79735757D01*
X125992405Y-79514866D01*
X125791134Y-79313595D01*
X125554464Y-79155457D01*
X125291491Y-79046530D01*
X125012320Y-78991000D01*
X124727680Y-78991000D01*
X124448509Y-79046530D01*
X124185536Y-79155457D01*
X123948866Y-79313595D01*
X123747595Y-79514866D01*
X123600000Y-79735757D01*
X123452405Y-79514866D01*
X123251134Y-79313595D01*
X123014464Y-79155457D01*
X122751491Y-79046530D01*
X122472320Y-78991000D01*
X122187680Y-78991000D01*
X121908509Y-79046530D01*
X121645536Y-79155457D01*
X121408866Y-79313595D01*
X121207595Y-79514866D01*
X121060000Y-79735757D01*
X120912405Y-79514866D01*
X120711134Y-79313595D01*
X120474464Y-79155457D01*
X120211491Y-79046530D01*
X119932320Y-78991000D01*
X119647680Y-78991000D01*
X119368509Y-79046530D01*
X119105536Y-79155457D01*
X118868866Y-79313595D01*
X118667595Y-79514866D01*
X118520000Y-79735757D01*
X118372405Y-79514866D01*
X118171134Y-79313595D01*
X117934464Y-79155457D01*
X117671491Y-79046530D01*
X117392320Y-78991000D01*
X117107680Y-78991000D01*
X116828509Y-79046530D01*
X116565536Y-79155457D01*
X116328866Y-79313595D01*
X116127595Y-79514866D01*
X115980000Y-79735757D01*
X115832405Y-79514866D01*
X115631134Y-79313595D01*
X115394464Y-79155457D01*
X115131491Y-79046530D01*
X114852320Y-78991000D01*
X114567680Y-78991000D01*
X114288509Y-79046530D01*
X114025536Y-79155457D01*
X113788866Y-79313595D01*
X113587595Y-79514866D01*
X113440000Y-79735757D01*
X113292405Y-79514866D01*
X113091134Y-79313595D01*
X112854464Y-79155457D01*
X112591491Y-79046530D01*
X112312320Y-78991000D01*
X112027680Y-78991000D01*
X111748509Y-79046530D01*
X111485536Y-79155457D01*
X111248866Y-79313595D01*
X111047595Y-79514866D01*
X110900000Y-79735757D01*
X110752405Y-79514866D01*
X110551134Y-79313595D01*
X110314464Y-79155457D01*
X110051491Y-79046530D01*
X109772320Y-78991000D01*
X109487680Y-78991000D01*
X109208509Y-79046530D01*
X108945536Y-79155457D01*
X108708866Y-79313595D01*
X108507595Y-79514866D01*
X108360000Y-79735757D01*
X108212405Y-79514866D01*
X108011134Y-79313595D01*
X107774464Y-79155457D01*
X107511491Y-79046530D01*
X107232320Y-78991000D01*
X106947680Y-78991000D01*
X106668509Y-79046530D01*
X106405536Y-79155457D01*
X106168866Y-79313595D01*
X105967595Y-79514866D01*
X105820000Y-79735757D01*
X105672405Y-79514866D01*
X105471134Y-79313595D01*
X105234464Y-79155457D01*
X104971491Y-79046530D01*
X104692320Y-78991000D01*
X104407680Y-78991000D01*
X104128509Y-79046530D01*
X103865536Y-79155457D01*
X103628866Y-79313595D01*
X103427595Y-79514866D01*
X103269457Y-79751536D01*
X103160530Y-80014509D01*
X103105000Y-80293680D01*
X103105000Y-80578320D01*
X103142807Y-80768391D01*
X102771303Y-81139895D01*
X102845000Y-80769393D01*
X102845000Y-80102607D01*
X102714917Y-79448632D01*
X102459748Y-78832601D01*
X102089302Y-78278188D01*
X101957114Y-78146000D01*
X170642886Y-78146000D01*
X170510698Y-78278188D01*
G37*
X170510698Y-78278188D02*
X170140252Y-78832601D01*
X169885083Y-79448632D01*
X169755000Y-80102607D01*
X169755000Y-80769393D01*
X169828697Y-81139896D01*
X169457193Y-80768392D01*
X169495000Y-80578320D01*
X169495000Y-80293680D01*
X169439470Y-80014509D01*
X169330543Y-79751536D01*
X169172405Y-79514866D01*
X168971134Y-79313595D01*
X168734464Y-79155457D01*
X168471491Y-79046530D01*
X168192320Y-78991000D01*
X167907680Y-78991000D01*
X167628509Y-79046530D01*
X167365536Y-79155457D01*
X167128866Y-79313595D01*
X166927595Y-79514866D01*
X166780000Y-79735757D01*
X166632405Y-79514866D01*
X166431134Y-79313595D01*
X166194464Y-79155457D01*
X165931491Y-79046530D01*
X165652320Y-78991000D01*
X165367680Y-78991000D01*
X165088509Y-79046530D01*
X164825536Y-79155457D01*
X164588866Y-79313595D01*
X164387595Y-79514866D01*
X164240000Y-79735757D01*
X164092405Y-79514866D01*
X163891134Y-79313595D01*
X163654464Y-79155457D01*
X163391491Y-79046530D01*
X163112320Y-78991000D01*
X162827680Y-78991000D01*
X162548509Y-79046530D01*
X162285536Y-79155457D01*
X162048866Y-79313595D01*
X161847595Y-79514866D01*
X161700000Y-79735757D01*
X161552405Y-79514866D01*
X161351134Y-79313595D01*
X161114464Y-79155457D01*
X160851491Y-79046530D01*
X160572320Y-78991000D01*
X160287680Y-78991000D01*
X160008509Y-79046530D01*
X159745536Y-79155457D01*
X159508866Y-79313595D01*
X159307595Y-79514866D01*
X159160000Y-79735757D01*
X159012405Y-79514866D01*
X158811134Y-79313595D01*
X158574464Y-79155457D01*
X158311491Y-79046530D01*
X158032320Y-78991000D01*
X157747680Y-78991000D01*
X157468509Y-79046530D01*
X157205536Y-79155457D01*
X156968866Y-79313595D01*
X156767595Y-79514866D01*
X156620000Y-79735757D01*
X156472405Y-79514866D01*
X156271134Y-79313595D01*
X156034464Y-79155457D01*
X155771491Y-79046530D01*
X155492320Y-78991000D01*
X155207680Y-78991000D01*
X154928509Y-79046530D01*
X154665536Y-79155457D01*
X154428866Y-79313595D01*
X154227595Y-79514866D01*
X154080000Y-79735757D01*
X153932405Y-79514866D01*
X153731134Y-79313595D01*
X153494464Y-79155457D01*
X153231491Y-79046530D01*
X152952320Y-78991000D01*
X152667680Y-78991000D01*
X152388509Y-79046530D01*
X152125536Y-79155457D01*
X151888866Y-79313595D01*
X151687595Y-79514866D01*
X151540000Y-79735757D01*
X151392405Y-79514866D01*
X151191134Y-79313595D01*
X150954464Y-79155457D01*
X150691491Y-79046530D01*
X150412320Y-78991000D01*
X150127680Y-78991000D01*
X149848509Y-79046530D01*
X149585536Y-79155457D01*
X149348866Y-79313595D01*
X149147595Y-79514866D01*
X149000000Y-79735757D01*
X148852405Y-79514866D01*
X148651134Y-79313595D01*
X148414464Y-79155457D01*
X148151491Y-79046530D01*
X147872320Y-78991000D01*
X147587680Y-78991000D01*
X147308509Y-79046530D01*
X147045536Y-79155457D01*
X146808866Y-79313595D01*
X146607595Y-79514866D01*
X146460000Y-79735757D01*
X146312405Y-79514866D01*
X146111134Y-79313595D01*
X145874464Y-79155457D01*
X145611491Y-79046530D01*
X145332320Y-78991000D01*
X145047680Y-78991000D01*
X144768509Y-79046530D01*
X144505536Y-79155457D01*
X144268866Y-79313595D01*
X144067595Y-79514866D01*
X143920000Y-79735757D01*
X143772405Y-79514866D01*
X143571134Y-79313595D01*
X143334464Y-79155457D01*
X143071491Y-79046530D01*
X142792320Y-78991000D01*
X142507680Y-78991000D01*
X142228509Y-79046530D01*
X141965536Y-79155457D01*
X141728866Y-79313595D01*
X141527595Y-79514866D01*
X141380000Y-79735757D01*
X141232405Y-79514866D01*
X141031134Y-79313595D01*
X140794464Y-79155457D01*
X140531491Y-79046530D01*
X140252320Y-78991000D01*
X139967680Y-78991000D01*
X139688509Y-79046530D01*
X139425536Y-79155457D01*
X139188866Y-79313595D01*
X138987595Y-79514866D01*
X138840000Y-79735757D01*
X138692405Y-79514866D01*
X138491134Y-79313595D01*
X138254464Y-79155457D01*
X137991491Y-79046530D01*
X137712320Y-78991000D01*
X137427680Y-78991000D01*
X137148509Y-79046530D01*
X136885536Y-79155457D01*
X136648866Y-79313595D01*
X136447595Y-79514866D01*
X136300000Y-79735757D01*
X136152405Y-79514866D01*
X135951134Y-79313595D01*
X135714464Y-79155457D01*
X135451491Y-79046530D01*
X135172320Y-78991000D01*
X134887680Y-78991000D01*
X134608509Y-79046530D01*
X134345536Y-79155457D01*
X134108866Y-79313595D01*
X133907595Y-79514866D01*
X133760000Y-79735757D01*
X133612405Y-79514866D01*
X133411134Y-79313595D01*
X133174464Y-79155457D01*
X132911491Y-79046530D01*
X132632320Y-78991000D01*
X132347680Y-78991000D01*
X132068509Y-79046530D01*
X131805536Y-79155457D01*
X131568866Y-79313595D01*
X131367595Y-79514866D01*
X131220000Y-79735757D01*
X131072405Y-79514866D01*
X130871134Y-79313595D01*
X130634464Y-79155457D01*
X130371491Y-79046530D01*
X130092320Y-78991000D01*
X129807680Y-78991000D01*
X129528509Y-79046530D01*
X129265536Y-79155457D01*
X129028866Y-79313595D01*
X128827595Y-79514866D01*
X128680000Y-79735757D01*
X128532405Y-79514866D01*
X128331134Y-79313595D01*
X128094464Y-79155457D01*
X127831491Y-79046530D01*
X127552320Y-78991000D01*
X127267680Y-78991000D01*
X126988509Y-79046530D01*
X126725536Y-79155457D01*
X126488866Y-79313595D01*
X126287595Y-79514866D01*
X126140000Y-79735757D01*
X125992405Y-79514866D01*
X125791134Y-79313595D01*
X125554464Y-79155457D01*
X125291491Y-79046530D01*
X125012320Y-78991000D01*
X124727680Y-78991000D01*
X124448509Y-79046530D01*
X124185536Y-79155457D01*
X123948866Y-79313595D01*
X123747595Y-79514866D01*
X123600000Y-79735757D01*
X123452405Y-79514866D01*
X123251134Y-79313595D01*
X123014464Y-79155457D01*
X122751491Y-79046530D01*
X122472320Y-78991000D01*
X122187680Y-78991000D01*
X121908509Y-79046530D01*
X121645536Y-79155457D01*
X121408866Y-79313595D01*
X121207595Y-79514866D01*
X121060000Y-79735757D01*
X120912405Y-79514866D01*
X120711134Y-79313595D01*
X120474464Y-79155457D01*
X120211491Y-79046530D01*
X119932320Y-78991000D01*
X119647680Y-78991000D01*
X119368509Y-79046530D01*
X119105536Y-79155457D01*
X118868866Y-79313595D01*
X118667595Y-79514866D01*
X118520000Y-79735757D01*
X118372405Y-79514866D01*
X118171134Y-79313595D01*
X117934464Y-79155457D01*
X117671491Y-79046530D01*
X117392320Y-78991000D01*
X117107680Y-78991000D01*
X116828509Y-79046530D01*
X116565536Y-79155457D01*
X116328866Y-79313595D01*
X116127595Y-79514866D01*
X115980000Y-79735757D01*
X115832405Y-79514866D01*
X115631134Y-79313595D01*
X115394464Y-79155457D01*
X115131491Y-79046530D01*
X114852320Y-78991000D01*
X114567680Y-78991000D01*
X114288509Y-79046530D01*
X114025536Y-79155457D01*
X113788866Y-79313595D01*
X113587595Y-79514866D01*
X113440000Y-79735757D01*
X113292405Y-79514866D01*
X113091134Y-79313595D01*
X112854464Y-79155457D01*
X112591491Y-79046530D01*
X112312320Y-78991000D01*
X112027680Y-78991000D01*
X111748509Y-79046530D01*
X111485536Y-79155457D01*
X111248866Y-79313595D01*
X111047595Y-79514866D01*
X110900000Y-79735757D01*
X110752405Y-79514866D01*
X110551134Y-79313595D01*
X110314464Y-79155457D01*
X110051491Y-79046530D01*
X109772320Y-78991000D01*
X109487680Y-78991000D01*
X109208509Y-79046530D01*
X108945536Y-79155457D01*
X108708866Y-79313595D01*
X108507595Y-79514866D01*
X108360000Y-79735757D01*
X108212405Y-79514866D01*
X108011134Y-79313595D01*
X107774464Y-79155457D01*
X107511491Y-79046530D01*
X107232320Y-78991000D01*
X106947680Y-78991000D01*
X106668509Y-79046530D01*
X106405536Y-79155457D01*
X106168866Y-79313595D01*
X105967595Y-79514866D01*
X105820000Y-79735757D01*
X105672405Y-79514866D01*
X105471134Y-79313595D01*
X105234464Y-79155457D01*
X104971491Y-79046530D01*
X104692320Y-78991000D01*
X104407680Y-78991000D01*
X104128509Y-79046530D01*
X103865536Y-79155457D01*
X103628866Y-79313595D01*
X103427595Y-79514866D01*
X103269457Y-79751536D01*
X103160530Y-80014509D01*
X103105000Y-80293680D01*
X103105000Y-80578320D01*
X103142807Y-80768391D01*
X102771303Y-81139895D01*
X102845000Y-80769393D01*
X102845000Y-80102607D01*
X102714917Y-79448632D01*
X102459748Y-78832601D01*
X102089302Y-78278188D01*
X101957114Y-78146000D01*
X170642886Y-78146000D01*
X170510698Y-78278188D01*
M02*
