%TF.GenerationSoftware,KiCad,Pcbnew,5.1.6-1.fc32*%
%TF.CreationDate,2020-07-10T21:32:06-03:00*%
%TF.ProjectId,pc104-adapter-top,70633130-342d-4616-9461-707465722d74,v1.0*%
%TF.SameCoordinates,Original*%
%TF.FileFunction,Copper,L3,Inr*%
%TF.FilePolarity,Positive*%
%FSLAX46Y46*%
G04 Gerber Fmt 4.6, Leading zero omitted, Abs format (unit mm)*
G04 Created by KiCad (PCBNEW 5.1.6-1.fc32) date 2020-07-10 21:32:06*
%MOMM*%
%LPD*%
G01*
G04 APERTURE LIST*
%TA.AperFunction,ViaPad*%
%ADD10C,1.620000*%
%TD*%
%TA.AperFunction,ViaPad*%
%ADD11C,5.500000*%
%TD*%
%TA.AperFunction,ViaPad*%
%ADD12C,0.800000*%
%TD*%
%TA.AperFunction,Conductor*%
%ADD13C,0.250000*%
%TD*%
%TA.AperFunction,NonConductor*%
%ADD14C,0.254000*%
%TD*%
G04 APERTURE END LIST*
D10*
%TO.N,/A52*%
%TO.C,J9*%
X168050000Y-80436000D03*
%TO.N,/A51*%
X168050000Y-82976000D03*
%TO.N,/A50*%
X165510000Y-80436000D03*
%TO.N,/A49*%
X165510000Y-82976000D03*
%TO.N,/A48*%
X162970000Y-80436000D03*
%TO.N,/A47*%
X162970000Y-82976000D03*
%TO.N,/A46*%
X160430000Y-80436000D03*
%TO.N,/A45*%
X160430000Y-82976000D03*
%TO.N,/A44*%
X157890000Y-80436000D03*
%TO.N,/A43*%
X157890000Y-82976000D03*
%TO.N,/A42*%
X155350000Y-80436000D03*
%TO.N,/A41*%
X155350000Y-82976000D03*
%TO.N,/A40*%
X152810000Y-80436000D03*
%TO.N,/A39*%
X152810000Y-82976000D03*
%TO.N,/A38*%
X150270000Y-80436000D03*
%TO.N,/A37*%
X150270000Y-82976000D03*
%TO.N,/A36*%
X147730000Y-80436000D03*
%TO.N,/A35*%
X147730000Y-82976000D03*
%TO.N,/A34*%
X145190000Y-80436000D03*
%TO.N,/A33*%
X145190000Y-82976000D03*
%TO.N,/A32*%
X142650000Y-80436000D03*
%TO.N,/A31*%
X142650000Y-82976000D03*
%TO.N,/A30*%
X140110000Y-80436000D03*
%TO.N,/A29*%
X140110000Y-82976000D03*
%TO.N,/A28*%
X137570000Y-80436000D03*
%TO.N,/A27*%
X137570000Y-82976000D03*
%TO.N,/A26*%
X135030000Y-80436000D03*
%TO.N,/A25*%
X135030000Y-82976000D03*
%TO.N,/A24*%
X132490000Y-80436000D03*
%TO.N,/A23*%
X132490000Y-82976000D03*
%TO.N,/A22*%
X129950000Y-80436000D03*
%TO.N,/A21*%
X129950000Y-82976000D03*
%TO.N,/A20*%
X127410000Y-80436000D03*
%TO.N,/A19*%
X127410000Y-82976000D03*
%TO.N,/A18*%
X124870000Y-80436000D03*
%TO.N,/A17*%
X124870000Y-82976000D03*
%TO.N,/A16*%
X122330000Y-80436000D03*
%TO.N,/A15*%
X122330000Y-82976000D03*
%TO.N,/A14*%
X119790000Y-80436000D03*
%TO.N,/A13*%
X119790000Y-82976000D03*
%TO.N,/A12*%
X117250000Y-80436000D03*
%TO.N,/A11*%
X117250000Y-82976000D03*
%TO.N,/A10*%
X114710000Y-80436000D03*
%TO.N,/A9*%
X114710000Y-82976000D03*
%TO.N,/A8*%
X112170000Y-80436000D03*
%TO.N,/A7*%
X112170000Y-82976000D03*
%TO.N,/A6*%
X109630000Y-80436000D03*
%TO.N,/A5*%
X109630000Y-82976000D03*
%TO.N,/A4*%
X107090000Y-80436000D03*
%TO.N,/A3*%
X107090000Y-82976000D03*
%TO.N,/A2*%
X104550000Y-80436000D03*
%TO.N,/A1*%
X104550000Y-82976000D03*
%TD*%
%TO.N,/B52*%
%TO.C,J10*%
X168050000Y-85516000D03*
%TO.N,/B51*%
X168050000Y-88056000D03*
%TO.N,/B50*%
X165510000Y-85516000D03*
%TO.N,/B49*%
X165510000Y-88056000D03*
%TO.N,/B48*%
X162970000Y-85516000D03*
%TO.N,/B47*%
X162970000Y-88056000D03*
%TO.N,/B46*%
X160430000Y-85516000D03*
%TO.N,/B45*%
X160430000Y-88056000D03*
%TO.N,/B44*%
X157890000Y-85516000D03*
%TO.N,/B43*%
X157890000Y-88056000D03*
%TO.N,/B42*%
X155350000Y-85516000D03*
%TO.N,/B41*%
X155350000Y-88056000D03*
%TO.N,/B40*%
X152810000Y-85516000D03*
%TO.N,/B39*%
X152810000Y-88056000D03*
%TO.N,/B38*%
X150270000Y-85516000D03*
%TO.N,/B37*%
X150270000Y-88056000D03*
%TO.N,/B36*%
X147730000Y-85516000D03*
%TO.N,/B35*%
X147730000Y-88056000D03*
%TO.N,/B34*%
X145190000Y-85516000D03*
%TO.N,/B33*%
X145190000Y-88056000D03*
%TO.N,/B32*%
X142650000Y-85516000D03*
%TO.N,/B31*%
X142650000Y-88056000D03*
%TO.N,/B30*%
X140110000Y-85516000D03*
%TO.N,/B29*%
X140110000Y-88056000D03*
%TO.N,/B28*%
X137570000Y-85516000D03*
%TO.N,/B27*%
X137570000Y-88056000D03*
%TO.N,/B26*%
X135030000Y-85516000D03*
%TO.N,/B25*%
X135030000Y-88056000D03*
%TO.N,/B24*%
X132490000Y-85516000D03*
%TO.N,/B23*%
X132490000Y-88056000D03*
%TO.N,/B22*%
X129950000Y-85516000D03*
%TO.N,/B21*%
X129950000Y-88056000D03*
%TO.N,/B20*%
X127410000Y-85516000D03*
%TO.N,/B19*%
X127410000Y-88056000D03*
%TO.N,/B18*%
X124870000Y-85516000D03*
%TO.N,/B17*%
X124870000Y-88056000D03*
%TO.N,/B16*%
X122330000Y-85516000D03*
%TO.N,/B15*%
X122330000Y-88056000D03*
%TO.N,/B14*%
X119790000Y-85516000D03*
%TO.N,/B13*%
X119790000Y-88056000D03*
%TO.N,/B12*%
X117250000Y-85516000D03*
%TO.N,/B11*%
X117250000Y-88056000D03*
%TO.N,/B10*%
X114710000Y-85516000D03*
%TO.N,/B9*%
X114710000Y-88056000D03*
%TO.N,/B8*%
X112170000Y-85516000D03*
%TO.N,/B7*%
X112170000Y-88056000D03*
%TO.N,/B6*%
X109630000Y-85516000D03*
%TO.N,/B5*%
X109630000Y-88056000D03*
%TO.N,/B4*%
X107090000Y-85516000D03*
%TO.N,/B3*%
X107090000Y-88056000D03*
%TO.N,/B2*%
X104550000Y-85516000D03*
%TO.N,/B1*%
X104550000Y-88056000D03*
%TD*%
D11*
%TO.N,GND*%
%TO.C,H2*%
X173140000Y-80436000D03*
%TD*%
%TO.N,GND*%
%TO.C,H1*%
X99460000Y-80436000D03*
%TD*%
D12*
%TO.N,/A13*%
X109000000Y-107000000D03*
%TO.N,/A12*%
X107750000Y-107000000D03*
%TO.N,/A11*%
X106500000Y-107000000D03*
%TO.N,/A10*%
X105250000Y-107000000D03*
%TO.N,/A9*%
X104000000Y-107000000D03*
%TO.N,/A8*%
X102750000Y-107000000D03*
%TO.N,/A7*%
X101500000Y-107000000D03*
%TO.N,/A6*%
X100250000Y-107000000D03*
%TO.N,/A5*%
X99000000Y-107000000D03*
%TO.N,/A4*%
X97750000Y-107000000D03*
%TO.N,/A3*%
X96500000Y-107000000D03*
%TO.N,/A2*%
X95250000Y-107000000D03*
%TO.N,/A1*%
X94000000Y-107000000D03*
%TO.N,/A26*%
X132200000Y-107000000D03*
%TO.N,/A25*%
X130950000Y-107000000D03*
%TO.N,/A24*%
X129700000Y-107000000D03*
%TO.N,/A23*%
X128450000Y-107000000D03*
%TO.N,/A22*%
X127200000Y-107000000D03*
%TO.N,/A21*%
X125950000Y-107000000D03*
%TO.N,/A20*%
X124700000Y-107000000D03*
%TO.N,/A19*%
X123450000Y-107000000D03*
%TO.N,/A18*%
X122200000Y-107000000D03*
%TO.N,/A17*%
X120950000Y-107000000D03*
%TO.N,/A16*%
X119700000Y-107000000D03*
%TO.N,/A15*%
X118450000Y-107000000D03*
%TO.N,/A14*%
X117200000Y-107000000D03*
%TO.N,/A39*%
X155400000Y-107000000D03*
%TO.N,/A38*%
X154150000Y-107000000D03*
%TO.N,/A37*%
X152900000Y-107000000D03*
%TO.N,/A36*%
X151650000Y-107000000D03*
%TO.N,/A35*%
X150400000Y-107000000D03*
%TO.N,/A34*%
X149150000Y-107000000D03*
%TO.N,/A33*%
X147900000Y-107000000D03*
%TO.N,/A32*%
X146650000Y-107000000D03*
%TO.N,/A31*%
X145400000Y-107000000D03*
%TO.N,/A30*%
X144150000Y-107000000D03*
%TO.N,/A29*%
X142900000Y-107000000D03*
%TO.N,/A28*%
X141650000Y-107000000D03*
%TO.N,/A27*%
X140400000Y-107000000D03*
%TO.N,/A52*%
X178600000Y-107000000D03*
%TO.N,/A51*%
X177350000Y-107000000D03*
%TO.N,/A50*%
X176100000Y-107000000D03*
%TO.N,/A49*%
X174850000Y-107000000D03*
%TO.N,/A48*%
X173600000Y-107000000D03*
%TO.N,/A47*%
X172350000Y-107000000D03*
%TO.N,/A46*%
X171100000Y-107000000D03*
%TO.N,/A45*%
X169850000Y-107000000D03*
%TO.N,/A44*%
X168600000Y-107000000D03*
%TO.N,/A43*%
X167350000Y-107000000D03*
%TO.N,/A42*%
X166100000Y-107000000D03*
%TO.N,/A41*%
X164850000Y-107000000D03*
%TO.N,/A40*%
X163600000Y-107000000D03*
%TD*%
D13*
%TO.N,/A13*%
X109000000Y-107000000D02*
X109000000Y-105350000D01*
X109000000Y-105350000D02*
X118500000Y-95850000D01*
X118500000Y-84266000D02*
X119790000Y-82976000D01*
X118500000Y-95850000D02*
X118500000Y-84266000D01*
%TO.N,/A11*%
X106500000Y-107000000D02*
X106500000Y-104150000D01*
X106500000Y-104150000D02*
X115950000Y-94700000D01*
X115950000Y-84276000D02*
X117250000Y-82976000D01*
X115950000Y-94700000D02*
X115950000Y-84276000D01*
%TO.N,/A9*%
X104000000Y-107000000D02*
X104000000Y-102900000D01*
X104000000Y-102900000D02*
X113450000Y-93450000D01*
X113450000Y-84236000D02*
X114710000Y-82976000D01*
X113450000Y-93450000D02*
X113450000Y-84236000D01*
%TO.N,/A7*%
X101500000Y-107000000D02*
X101500000Y-101450000D01*
X101500000Y-101450000D02*
X110900000Y-92050000D01*
X110900000Y-84246000D02*
X112170000Y-82976000D01*
X110900000Y-92050000D02*
X110900000Y-84246000D01*
%TO.N,/A5*%
X99000000Y-107000000D02*
X99000000Y-100050000D01*
X99000000Y-100050000D02*
X108350000Y-90700000D01*
X108350000Y-84256000D02*
X109630000Y-82976000D01*
X108350000Y-90700000D02*
X108350000Y-84256000D01*
%TO.N,/A3*%
X96500000Y-107000000D02*
X96500000Y-98600000D01*
X96500000Y-98600000D02*
X105800000Y-89300000D01*
X105800000Y-84266000D02*
X107090000Y-82976000D01*
X105800000Y-89300000D02*
X105800000Y-84266000D01*
%TO.N,/A1*%
X94000000Y-93526000D02*
X104550000Y-82976000D01*
X94000000Y-107000000D02*
X94000000Y-93526000D01*
%TO.N,/A25*%
X130950000Y-107000000D02*
X130950000Y-106100000D01*
X130950000Y-106100000D02*
X133750000Y-103300000D01*
X133750000Y-84256000D02*
X135030000Y-82976000D01*
X133750000Y-103300000D02*
X133750000Y-84256000D01*
%TO.N,/A23*%
X128450000Y-107000000D02*
X128450000Y-104500000D01*
X128450000Y-104500000D02*
X131200000Y-101750000D01*
X131200000Y-84266000D02*
X132490000Y-82976000D01*
X131200000Y-101750000D02*
X131200000Y-84266000D01*
%TO.N,/A21*%
X125950000Y-107000000D02*
X125950000Y-103300000D01*
X125950000Y-103300000D02*
X128650000Y-100600000D01*
X128650000Y-84276000D02*
X129950000Y-82976000D01*
X128650000Y-100600000D02*
X128650000Y-84276000D01*
%TO.N,/A19*%
X123450000Y-107000000D02*
X123450000Y-102150000D01*
X123450000Y-102150000D02*
X126100000Y-99500000D01*
X126100000Y-84286000D02*
X127410000Y-82976000D01*
X126100000Y-99500000D02*
X126100000Y-84286000D01*
%TO.N,/A17*%
X120950000Y-107000000D02*
X120950000Y-100900000D01*
X120950000Y-100900000D02*
X123600000Y-98250000D01*
X123600000Y-84246000D02*
X124870000Y-82976000D01*
X123600000Y-98250000D02*
X123600000Y-84246000D01*
%TO.N,/A15*%
X118450000Y-107000000D02*
X118450000Y-99800000D01*
X118450000Y-99800000D02*
X121050000Y-97200000D01*
X121050000Y-84256000D02*
X122330000Y-82976000D01*
X121050000Y-97200000D02*
X121050000Y-84256000D01*
%TO.N,/A39*%
X155400000Y-107000000D02*
X155400000Y-96150000D01*
X155400000Y-96150000D02*
X154050000Y-94800000D01*
X154050000Y-84216000D02*
X152810000Y-82976000D01*
X154050000Y-94800000D02*
X154050000Y-84216000D01*
%TO.N,/A37*%
X152900000Y-107000000D02*
X152900000Y-97450000D01*
X152900000Y-97450000D02*
X151550000Y-96100000D01*
X151550000Y-84256000D02*
X150270000Y-82976000D01*
X151550000Y-96100000D02*
X151550000Y-84256000D01*
%TO.N,/A35*%
X150400000Y-107000000D02*
X150400000Y-98700000D01*
X150400000Y-98700000D02*
X149000000Y-97300000D01*
X149000000Y-84246000D02*
X147730000Y-82976000D01*
X149000000Y-97300000D02*
X149000000Y-84246000D01*
%TO.N,/A33*%
X147900000Y-107000000D02*
X147900000Y-99800000D01*
X147900000Y-99800000D02*
X146450000Y-98350000D01*
X146450000Y-84236000D02*
X145190000Y-82976000D01*
X146450000Y-98350000D02*
X146450000Y-84236000D01*
%TO.N,/A31*%
X145400000Y-107000000D02*
X145400000Y-101150000D01*
X145400000Y-101150000D02*
X143900000Y-99650000D01*
X143900000Y-84226000D02*
X142650000Y-82976000D01*
X143900000Y-99650000D02*
X143900000Y-84226000D01*
%TO.N,/A29*%
X142900000Y-107000000D02*
X142900000Y-102500000D01*
X142900000Y-102500000D02*
X141350000Y-100950000D01*
X141350000Y-84216000D02*
X140110000Y-82976000D01*
X141350000Y-100950000D02*
X141350000Y-84216000D01*
%TO.N,/A27*%
X140400000Y-107000000D02*
X140400000Y-104300000D01*
X140400000Y-104300000D02*
X138850000Y-102750000D01*
X138850000Y-84256000D02*
X137570000Y-82976000D01*
X138850000Y-102750000D02*
X138850000Y-84256000D01*
%TO.N,/A51*%
X177350000Y-92276000D02*
X168050000Y-82976000D01*
X177350000Y-107000000D02*
X177350000Y-92276000D01*
%TO.N,/A49*%
X174850000Y-107000000D02*
X174850000Y-96900000D01*
X174850000Y-96900000D02*
X166800000Y-88850000D01*
X166800000Y-84266000D02*
X165510000Y-82976000D01*
X166800000Y-88850000D02*
X166800000Y-84266000D01*
%TO.N,/A47*%
X172350000Y-107000000D02*
X172350000Y-98150000D01*
X172350000Y-98150000D02*
X164250000Y-90050000D01*
X164250000Y-84256000D02*
X162970000Y-82976000D01*
X164250000Y-90050000D02*
X164250000Y-84256000D01*
%TO.N,/A45*%
X169850000Y-107000000D02*
X169850000Y-99250000D01*
X169850000Y-99250000D02*
X161700000Y-91100000D01*
X161700000Y-84246000D02*
X160430000Y-82976000D01*
X161700000Y-91100000D02*
X161700000Y-84246000D01*
%TO.N,/A43*%
X167350000Y-107000000D02*
X167350000Y-100450000D01*
X167350000Y-100450000D02*
X159150000Y-92250000D01*
X159150000Y-84236000D02*
X157890000Y-82976000D01*
X159150000Y-92250000D02*
X159150000Y-84236000D01*
%TO.N,/A41*%
X164850000Y-107000000D02*
X164850000Y-101850000D01*
X164850000Y-101850000D02*
X156600000Y-93600000D01*
X156600000Y-84226000D02*
X155350000Y-82976000D01*
X156600000Y-93600000D02*
X156600000Y-84226000D01*
%TD*%
D14*
G36*
X170510698Y-78278188D02*
G01*
X170140252Y-78832601D01*
X169885083Y-79448632D01*
X169755000Y-80102607D01*
X169755000Y-80769393D01*
X169885083Y-81423368D01*
X170140252Y-82039399D01*
X170510698Y-82593812D01*
X170982188Y-83065302D01*
X171536601Y-83435748D01*
X172152632Y-83690917D01*
X172806607Y-83821000D01*
X173473393Y-83821000D01*
X174127368Y-83690917D01*
X174743399Y-83435748D01*
X175297812Y-83065302D01*
X175430001Y-82933113D01*
X175430001Y-87401113D01*
X175426565Y-87436000D01*
X175440273Y-87575184D01*
X175480872Y-87709020D01*
X175546800Y-87832363D01*
X175635525Y-87940475D01*
X175743637Y-88029200D01*
X175866980Y-88095128D01*
X176000816Y-88135727D01*
X176105123Y-88146000D01*
X176140000Y-88149435D01*
X176174877Y-88146000D01*
X181990001Y-88146000D01*
X181990000Y-109290000D01*
X90610000Y-109290000D01*
X90610000Y-106898061D01*
X92965000Y-106898061D01*
X92965000Y-107101939D01*
X93004774Y-107301898D01*
X93082795Y-107490256D01*
X93196063Y-107659774D01*
X93340226Y-107803937D01*
X93509744Y-107917205D01*
X93698102Y-107995226D01*
X93898061Y-108035000D01*
X94101939Y-108035000D01*
X94301898Y-107995226D01*
X94490256Y-107917205D01*
X94625000Y-107827172D01*
X94759744Y-107917205D01*
X94948102Y-107995226D01*
X95148061Y-108035000D01*
X95351939Y-108035000D01*
X95551898Y-107995226D01*
X95740256Y-107917205D01*
X95875000Y-107827172D01*
X96009744Y-107917205D01*
X96198102Y-107995226D01*
X96398061Y-108035000D01*
X96601939Y-108035000D01*
X96801898Y-107995226D01*
X96990256Y-107917205D01*
X97125000Y-107827172D01*
X97259744Y-107917205D01*
X97448102Y-107995226D01*
X97648061Y-108035000D01*
X97851939Y-108035000D01*
X98051898Y-107995226D01*
X98240256Y-107917205D01*
X98375000Y-107827172D01*
X98509744Y-107917205D01*
X98698102Y-107995226D01*
X98898061Y-108035000D01*
X99101939Y-108035000D01*
X99301898Y-107995226D01*
X99490256Y-107917205D01*
X99625000Y-107827172D01*
X99759744Y-107917205D01*
X99948102Y-107995226D01*
X100148061Y-108035000D01*
X100351939Y-108035000D01*
X100551898Y-107995226D01*
X100740256Y-107917205D01*
X100875000Y-107827172D01*
X101009744Y-107917205D01*
X101198102Y-107995226D01*
X101398061Y-108035000D01*
X101601939Y-108035000D01*
X101801898Y-107995226D01*
X101990256Y-107917205D01*
X102125000Y-107827172D01*
X102259744Y-107917205D01*
X102448102Y-107995226D01*
X102648061Y-108035000D01*
X102851939Y-108035000D01*
X103051898Y-107995226D01*
X103240256Y-107917205D01*
X103375000Y-107827172D01*
X103509744Y-107917205D01*
X103698102Y-107995226D01*
X103898061Y-108035000D01*
X104101939Y-108035000D01*
X104301898Y-107995226D01*
X104490256Y-107917205D01*
X104625000Y-107827172D01*
X104759744Y-107917205D01*
X104948102Y-107995226D01*
X105148061Y-108035000D01*
X105351939Y-108035000D01*
X105551898Y-107995226D01*
X105740256Y-107917205D01*
X105875000Y-107827172D01*
X106009744Y-107917205D01*
X106198102Y-107995226D01*
X106398061Y-108035000D01*
X106601939Y-108035000D01*
X106801898Y-107995226D01*
X106990256Y-107917205D01*
X107125000Y-107827172D01*
X107259744Y-107917205D01*
X107448102Y-107995226D01*
X107648061Y-108035000D01*
X107851939Y-108035000D01*
X108051898Y-107995226D01*
X108240256Y-107917205D01*
X108375000Y-107827172D01*
X108509744Y-107917205D01*
X108698102Y-107995226D01*
X108898061Y-108035000D01*
X109101939Y-108035000D01*
X109301898Y-107995226D01*
X109490256Y-107917205D01*
X109659774Y-107803937D01*
X109803937Y-107659774D01*
X109917205Y-107490256D01*
X109995226Y-107301898D01*
X110035000Y-107101939D01*
X110035000Y-106898061D01*
X109995226Y-106698102D01*
X109917205Y-106509744D01*
X109803937Y-106340226D01*
X109760000Y-106296289D01*
X109760000Y-105664801D01*
X119011004Y-96413798D01*
X119040001Y-96390001D01*
X119134974Y-96274276D01*
X119205546Y-96142247D01*
X119249003Y-95998986D01*
X119260000Y-95887333D01*
X119260000Y-95887323D01*
X119263676Y-95850000D01*
X119260000Y-95812677D01*
X119260000Y-89400524D01*
X119368509Y-89445470D01*
X119647680Y-89501000D01*
X119932320Y-89501000D01*
X120211491Y-89445470D01*
X120290001Y-89412950D01*
X120290000Y-96885198D01*
X117938998Y-99236201D01*
X117910000Y-99259999D01*
X117886202Y-99288997D01*
X117886201Y-99288998D01*
X117815026Y-99375724D01*
X117744454Y-99507754D01*
X117714180Y-99607558D01*
X117701614Y-99648985D01*
X117700998Y-99651015D01*
X117686324Y-99800000D01*
X117690001Y-99837332D01*
X117690000Y-106082689D01*
X117501898Y-106004774D01*
X117301939Y-105965000D01*
X117098061Y-105965000D01*
X116898102Y-106004774D01*
X116709744Y-106082795D01*
X116540226Y-106196063D01*
X116396063Y-106340226D01*
X116282795Y-106509744D01*
X116204774Y-106698102D01*
X116165000Y-106898061D01*
X116165000Y-107101939D01*
X116204774Y-107301898D01*
X116282795Y-107490256D01*
X116396063Y-107659774D01*
X116540226Y-107803937D01*
X116709744Y-107917205D01*
X116898102Y-107995226D01*
X117098061Y-108035000D01*
X117301939Y-108035000D01*
X117501898Y-107995226D01*
X117690256Y-107917205D01*
X117825000Y-107827172D01*
X117959744Y-107917205D01*
X118148102Y-107995226D01*
X118348061Y-108035000D01*
X118551939Y-108035000D01*
X118751898Y-107995226D01*
X118940256Y-107917205D01*
X119075000Y-107827172D01*
X119209744Y-107917205D01*
X119398102Y-107995226D01*
X119598061Y-108035000D01*
X119801939Y-108035000D01*
X120001898Y-107995226D01*
X120190256Y-107917205D01*
X120325000Y-107827172D01*
X120459744Y-107917205D01*
X120648102Y-107995226D01*
X120848061Y-108035000D01*
X121051939Y-108035000D01*
X121251898Y-107995226D01*
X121440256Y-107917205D01*
X121575000Y-107827172D01*
X121709744Y-107917205D01*
X121898102Y-107995226D01*
X122098061Y-108035000D01*
X122301939Y-108035000D01*
X122501898Y-107995226D01*
X122690256Y-107917205D01*
X122825000Y-107827172D01*
X122959744Y-107917205D01*
X123148102Y-107995226D01*
X123348061Y-108035000D01*
X123551939Y-108035000D01*
X123751898Y-107995226D01*
X123940256Y-107917205D01*
X124075000Y-107827172D01*
X124209744Y-107917205D01*
X124398102Y-107995226D01*
X124598061Y-108035000D01*
X124801939Y-108035000D01*
X125001898Y-107995226D01*
X125190256Y-107917205D01*
X125325000Y-107827172D01*
X125459744Y-107917205D01*
X125648102Y-107995226D01*
X125848061Y-108035000D01*
X126051939Y-108035000D01*
X126251898Y-107995226D01*
X126440256Y-107917205D01*
X126575000Y-107827172D01*
X126709744Y-107917205D01*
X126898102Y-107995226D01*
X127098061Y-108035000D01*
X127301939Y-108035000D01*
X127501898Y-107995226D01*
X127690256Y-107917205D01*
X127825000Y-107827172D01*
X127959744Y-107917205D01*
X128148102Y-107995226D01*
X128348061Y-108035000D01*
X128551939Y-108035000D01*
X128751898Y-107995226D01*
X128940256Y-107917205D01*
X129075000Y-107827172D01*
X129209744Y-107917205D01*
X129398102Y-107995226D01*
X129598061Y-108035000D01*
X129801939Y-108035000D01*
X130001898Y-107995226D01*
X130190256Y-107917205D01*
X130325000Y-107827172D01*
X130459744Y-107917205D01*
X130648102Y-107995226D01*
X130848061Y-108035000D01*
X131051939Y-108035000D01*
X131251898Y-107995226D01*
X131440256Y-107917205D01*
X131575000Y-107827172D01*
X131709744Y-107917205D01*
X131898102Y-107995226D01*
X132098061Y-108035000D01*
X132301939Y-108035000D01*
X132501898Y-107995226D01*
X132690256Y-107917205D01*
X132859774Y-107803937D01*
X133003937Y-107659774D01*
X133117205Y-107490256D01*
X133195226Y-107301898D01*
X133235000Y-107101939D01*
X133235000Y-106898061D01*
X133195226Y-106698102D01*
X133117205Y-106509744D01*
X133003937Y-106340226D01*
X132859774Y-106196063D01*
X132690256Y-106082795D01*
X132501898Y-106004774D01*
X132301939Y-105965000D01*
X132159801Y-105965000D01*
X134261004Y-103863798D01*
X134290001Y-103840001D01*
X134316332Y-103807917D01*
X134384974Y-103724277D01*
X134455546Y-103592247D01*
X134478970Y-103515026D01*
X134499003Y-103448986D01*
X134510000Y-103337333D01*
X134510000Y-103337323D01*
X134513676Y-103300000D01*
X134510000Y-103262677D01*
X134510000Y-89404666D01*
X134608509Y-89445470D01*
X134887680Y-89501000D01*
X135172320Y-89501000D01*
X135451491Y-89445470D01*
X135714464Y-89336543D01*
X135951134Y-89178405D01*
X136152405Y-88977134D01*
X136300000Y-88756243D01*
X136447595Y-88977134D01*
X136648866Y-89178405D01*
X136885536Y-89336543D01*
X137148509Y-89445470D01*
X137427680Y-89501000D01*
X137712320Y-89501000D01*
X137991491Y-89445470D01*
X138090001Y-89404666D01*
X138090000Y-102712678D01*
X138086324Y-102750000D01*
X138090000Y-102787322D01*
X138090000Y-102787332D01*
X138100997Y-102898985D01*
X138133991Y-103007753D01*
X138144454Y-103042246D01*
X138215026Y-103174276D01*
X138229774Y-103192246D01*
X138309999Y-103290001D01*
X138339003Y-103313804D01*
X139640001Y-104614803D01*
X139640000Y-106296289D01*
X139596063Y-106340226D01*
X139482795Y-106509744D01*
X139404774Y-106698102D01*
X139365000Y-106898061D01*
X139365000Y-107101939D01*
X139404774Y-107301898D01*
X139482795Y-107490256D01*
X139596063Y-107659774D01*
X139740226Y-107803937D01*
X139909744Y-107917205D01*
X140098102Y-107995226D01*
X140298061Y-108035000D01*
X140501939Y-108035000D01*
X140701898Y-107995226D01*
X140890256Y-107917205D01*
X141025000Y-107827172D01*
X141159744Y-107917205D01*
X141348102Y-107995226D01*
X141548061Y-108035000D01*
X141751939Y-108035000D01*
X141951898Y-107995226D01*
X142140256Y-107917205D01*
X142275000Y-107827172D01*
X142409744Y-107917205D01*
X142598102Y-107995226D01*
X142798061Y-108035000D01*
X143001939Y-108035000D01*
X143201898Y-107995226D01*
X143390256Y-107917205D01*
X143525000Y-107827172D01*
X143659744Y-107917205D01*
X143848102Y-107995226D01*
X144048061Y-108035000D01*
X144251939Y-108035000D01*
X144451898Y-107995226D01*
X144640256Y-107917205D01*
X144775000Y-107827172D01*
X144909744Y-107917205D01*
X145098102Y-107995226D01*
X145298061Y-108035000D01*
X145501939Y-108035000D01*
X145701898Y-107995226D01*
X145890256Y-107917205D01*
X146025000Y-107827172D01*
X146159744Y-107917205D01*
X146348102Y-107995226D01*
X146548061Y-108035000D01*
X146751939Y-108035000D01*
X146951898Y-107995226D01*
X147140256Y-107917205D01*
X147275000Y-107827172D01*
X147409744Y-107917205D01*
X147598102Y-107995226D01*
X147798061Y-108035000D01*
X148001939Y-108035000D01*
X148201898Y-107995226D01*
X148390256Y-107917205D01*
X148525000Y-107827172D01*
X148659744Y-107917205D01*
X148848102Y-107995226D01*
X149048061Y-108035000D01*
X149251939Y-108035000D01*
X149451898Y-107995226D01*
X149640256Y-107917205D01*
X149775000Y-107827172D01*
X149909744Y-107917205D01*
X150098102Y-107995226D01*
X150298061Y-108035000D01*
X150501939Y-108035000D01*
X150701898Y-107995226D01*
X150890256Y-107917205D01*
X151025000Y-107827172D01*
X151159744Y-107917205D01*
X151348102Y-107995226D01*
X151548061Y-108035000D01*
X151751939Y-108035000D01*
X151951898Y-107995226D01*
X152140256Y-107917205D01*
X152275000Y-107827172D01*
X152409744Y-107917205D01*
X152598102Y-107995226D01*
X152798061Y-108035000D01*
X153001939Y-108035000D01*
X153201898Y-107995226D01*
X153390256Y-107917205D01*
X153525000Y-107827172D01*
X153659744Y-107917205D01*
X153848102Y-107995226D01*
X154048061Y-108035000D01*
X154251939Y-108035000D01*
X154451898Y-107995226D01*
X154640256Y-107917205D01*
X154775000Y-107827172D01*
X154909744Y-107917205D01*
X155098102Y-107995226D01*
X155298061Y-108035000D01*
X155501939Y-108035000D01*
X155701898Y-107995226D01*
X155890256Y-107917205D01*
X156059774Y-107803937D01*
X156203937Y-107659774D01*
X156317205Y-107490256D01*
X156395226Y-107301898D01*
X156435000Y-107101939D01*
X156435000Y-106898061D01*
X156395226Y-106698102D01*
X156317205Y-106509744D01*
X156203937Y-106340226D01*
X156160000Y-106296289D01*
X156160000Y-96187322D01*
X156163676Y-96149999D01*
X156160000Y-96112676D01*
X156160000Y-96112667D01*
X156149003Y-96001014D01*
X156105546Y-95857753D01*
X156034974Y-95725724D01*
X155940001Y-95609999D01*
X155911003Y-95586201D01*
X154810000Y-94485199D01*
X154810000Y-89396382D01*
X154928509Y-89445470D01*
X155207680Y-89501000D01*
X155492320Y-89501000D01*
X155771491Y-89445470D01*
X155840000Y-89417092D01*
X155840000Y-93562678D01*
X155836324Y-93600000D01*
X155840000Y-93637322D01*
X155840000Y-93637332D01*
X155850997Y-93748985D01*
X155872007Y-93818246D01*
X155894454Y-93892246D01*
X155965026Y-94024276D01*
X155998470Y-94065027D01*
X156059999Y-94140001D01*
X156089003Y-94163804D01*
X164090001Y-102164803D01*
X164090000Y-106082689D01*
X163901898Y-106004774D01*
X163701939Y-105965000D01*
X163498061Y-105965000D01*
X163298102Y-106004774D01*
X163109744Y-106082795D01*
X162940226Y-106196063D01*
X162796063Y-106340226D01*
X162682795Y-106509744D01*
X162604774Y-106698102D01*
X162565000Y-106898061D01*
X162565000Y-107101939D01*
X162604774Y-107301898D01*
X162682795Y-107490256D01*
X162796063Y-107659774D01*
X162940226Y-107803937D01*
X163109744Y-107917205D01*
X163298102Y-107995226D01*
X163498061Y-108035000D01*
X163701939Y-108035000D01*
X163901898Y-107995226D01*
X164090256Y-107917205D01*
X164225000Y-107827172D01*
X164359744Y-107917205D01*
X164548102Y-107995226D01*
X164748061Y-108035000D01*
X164951939Y-108035000D01*
X165151898Y-107995226D01*
X165340256Y-107917205D01*
X165475000Y-107827172D01*
X165609744Y-107917205D01*
X165798102Y-107995226D01*
X165998061Y-108035000D01*
X166201939Y-108035000D01*
X166401898Y-107995226D01*
X166590256Y-107917205D01*
X166725000Y-107827172D01*
X166859744Y-107917205D01*
X167048102Y-107995226D01*
X167248061Y-108035000D01*
X167451939Y-108035000D01*
X167651898Y-107995226D01*
X167840256Y-107917205D01*
X167975000Y-107827172D01*
X168109744Y-107917205D01*
X168298102Y-107995226D01*
X168498061Y-108035000D01*
X168701939Y-108035000D01*
X168901898Y-107995226D01*
X169090256Y-107917205D01*
X169225000Y-107827172D01*
X169359744Y-107917205D01*
X169548102Y-107995226D01*
X169748061Y-108035000D01*
X169951939Y-108035000D01*
X170151898Y-107995226D01*
X170340256Y-107917205D01*
X170475000Y-107827172D01*
X170609744Y-107917205D01*
X170798102Y-107995226D01*
X170998061Y-108035000D01*
X171201939Y-108035000D01*
X171401898Y-107995226D01*
X171590256Y-107917205D01*
X171725000Y-107827172D01*
X171859744Y-107917205D01*
X172048102Y-107995226D01*
X172248061Y-108035000D01*
X172451939Y-108035000D01*
X172651898Y-107995226D01*
X172840256Y-107917205D01*
X172975000Y-107827172D01*
X173109744Y-107917205D01*
X173298102Y-107995226D01*
X173498061Y-108035000D01*
X173701939Y-108035000D01*
X173901898Y-107995226D01*
X174090256Y-107917205D01*
X174225000Y-107827172D01*
X174359744Y-107917205D01*
X174548102Y-107995226D01*
X174748061Y-108035000D01*
X174951939Y-108035000D01*
X175151898Y-107995226D01*
X175340256Y-107917205D01*
X175475000Y-107827172D01*
X175609744Y-107917205D01*
X175798102Y-107995226D01*
X175998061Y-108035000D01*
X176201939Y-108035000D01*
X176401898Y-107995226D01*
X176590256Y-107917205D01*
X176725000Y-107827172D01*
X176859744Y-107917205D01*
X177048102Y-107995226D01*
X177248061Y-108035000D01*
X177451939Y-108035000D01*
X177651898Y-107995226D01*
X177840256Y-107917205D01*
X177975000Y-107827172D01*
X178109744Y-107917205D01*
X178298102Y-107995226D01*
X178498061Y-108035000D01*
X178701939Y-108035000D01*
X178901898Y-107995226D01*
X179090256Y-107917205D01*
X179259774Y-107803937D01*
X179403937Y-107659774D01*
X179517205Y-107490256D01*
X179595226Y-107301898D01*
X179635000Y-107101939D01*
X179635000Y-106898061D01*
X179595226Y-106698102D01*
X179517205Y-106509744D01*
X179403937Y-106340226D01*
X179259774Y-106196063D01*
X179090256Y-106082795D01*
X178901898Y-106004774D01*
X178701939Y-105965000D01*
X178498061Y-105965000D01*
X178298102Y-106004774D01*
X178110000Y-106082689D01*
X178110000Y-92313322D01*
X178113676Y-92275999D01*
X178110000Y-92238676D01*
X178110000Y-92238667D01*
X178099003Y-92127014D01*
X178055546Y-91983753D01*
X178011321Y-91901015D01*
X177984974Y-91851723D01*
X177913799Y-91764997D01*
X177890001Y-91735999D01*
X177861003Y-91712201D01*
X169457193Y-83308392D01*
X169495000Y-83118320D01*
X169495000Y-82833680D01*
X169439470Y-82554509D01*
X169330543Y-82291536D01*
X169172405Y-82054866D01*
X168971134Y-81853595D01*
X168750243Y-81706000D01*
X168971134Y-81558405D01*
X169172405Y-81357134D01*
X169330543Y-81120464D01*
X169439470Y-80857491D01*
X169495000Y-80578320D01*
X169495000Y-80293680D01*
X169439470Y-80014509D01*
X169330543Y-79751536D01*
X169172405Y-79514866D01*
X168971134Y-79313595D01*
X168734464Y-79155457D01*
X168471491Y-79046530D01*
X168192320Y-78991000D01*
X167907680Y-78991000D01*
X167628509Y-79046530D01*
X167365536Y-79155457D01*
X167128866Y-79313595D01*
X166927595Y-79514866D01*
X166780000Y-79735757D01*
X166632405Y-79514866D01*
X166431134Y-79313595D01*
X166194464Y-79155457D01*
X165931491Y-79046530D01*
X165652320Y-78991000D01*
X165367680Y-78991000D01*
X165088509Y-79046530D01*
X164825536Y-79155457D01*
X164588866Y-79313595D01*
X164387595Y-79514866D01*
X164240000Y-79735757D01*
X164092405Y-79514866D01*
X163891134Y-79313595D01*
X163654464Y-79155457D01*
X163391491Y-79046530D01*
X163112320Y-78991000D01*
X162827680Y-78991000D01*
X162548509Y-79046530D01*
X162285536Y-79155457D01*
X162048866Y-79313595D01*
X161847595Y-79514866D01*
X161700000Y-79735757D01*
X161552405Y-79514866D01*
X161351134Y-79313595D01*
X161114464Y-79155457D01*
X160851491Y-79046530D01*
X160572320Y-78991000D01*
X160287680Y-78991000D01*
X160008509Y-79046530D01*
X159745536Y-79155457D01*
X159508866Y-79313595D01*
X159307595Y-79514866D01*
X159160000Y-79735757D01*
X159012405Y-79514866D01*
X158811134Y-79313595D01*
X158574464Y-79155457D01*
X158311491Y-79046530D01*
X158032320Y-78991000D01*
X157747680Y-78991000D01*
X157468509Y-79046530D01*
X157205536Y-79155457D01*
X156968866Y-79313595D01*
X156767595Y-79514866D01*
X156620000Y-79735757D01*
X156472405Y-79514866D01*
X156271134Y-79313595D01*
X156034464Y-79155457D01*
X155771491Y-79046530D01*
X155492320Y-78991000D01*
X155207680Y-78991000D01*
X154928509Y-79046530D01*
X154665536Y-79155457D01*
X154428866Y-79313595D01*
X154227595Y-79514866D01*
X154080000Y-79735757D01*
X153932405Y-79514866D01*
X153731134Y-79313595D01*
X153494464Y-79155457D01*
X153231491Y-79046530D01*
X152952320Y-78991000D01*
X152667680Y-78991000D01*
X152388509Y-79046530D01*
X152125536Y-79155457D01*
X151888866Y-79313595D01*
X151687595Y-79514866D01*
X151540000Y-79735757D01*
X151392405Y-79514866D01*
X151191134Y-79313595D01*
X150954464Y-79155457D01*
X150691491Y-79046530D01*
X150412320Y-78991000D01*
X150127680Y-78991000D01*
X149848509Y-79046530D01*
X149585536Y-79155457D01*
X149348866Y-79313595D01*
X149147595Y-79514866D01*
X149000000Y-79735757D01*
X148852405Y-79514866D01*
X148651134Y-79313595D01*
X148414464Y-79155457D01*
X148151491Y-79046530D01*
X147872320Y-78991000D01*
X147587680Y-78991000D01*
X147308509Y-79046530D01*
X147045536Y-79155457D01*
X146808866Y-79313595D01*
X146607595Y-79514866D01*
X146460000Y-79735757D01*
X146312405Y-79514866D01*
X146111134Y-79313595D01*
X145874464Y-79155457D01*
X145611491Y-79046530D01*
X145332320Y-78991000D01*
X145047680Y-78991000D01*
X144768509Y-79046530D01*
X144505536Y-79155457D01*
X144268866Y-79313595D01*
X144067595Y-79514866D01*
X143920000Y-79735757D01*
X143772405Y-79514866D01*
X143571134Y-79313595D01*
X143334464Y-79155457D01*
X143071491Y-79046530D01*
X142792320Y-78991000D01*
X142507680Y-78991000D01*
X142228509Y-79046530D01*
X141965536Y-79155457D01*
X141728866Y-79313595D01*
X141527595Y-79514866D01*
X141380000Y-79735757D01*
X141232405Y-79514866D01*
X141031134Y-79313595D01*
X140794464Y-79155457D01*
X140531491Y-79046530D01*
X140252320Y-78991000D01*
X139967680Y-78991000D01*
X139688509Y-79046530D01*
X139425536Y-79155457D01*
X139188866Y-79313595D01*
X138987595Y-79514866D01*
X138840000Y-79735757D01*
X138692405Y-79514866D01*
X138491134Y-79313595D01*
X138254464Y-79155457D01*
X137991491Y-79046530D01*
X137712320Y-78991000D01*
X137427680Y-78991000D01*
X137148509Y-79046530D01*
X136885536Y-79155457D01*
X136648866Y-79313595D01*
X136447595Y-79514866D01*
X136300000Y-79735757D01*
X136152405Y-79514866D01*
X135951134Y-79313595D01*
X135714464Y-79155457D01*
X135451491Y-79046530D01*
X135172320Y-78991000D01*
X134887680Y-78991000D01*
X134608509Y-79046530D01*
X134345536Y-79155457D01*
X134108866Y-79313595D01*
X133907595Y-79514866D01*
X133760000Y-79735757D01*
X133612405Y-79514866D01*
X133411134Y-79313595D01*
X133174464Y-79155457D01*
X132911491Y-79046530D01*
X132632320Y-78991000D01*
X132347680Y-78991000D01*
X132068509Y-79046530D01*
X131805536Y-79155457D01*
X131568866Y-79313595D01*
X131367595Y-79514866D01*
X131220000Y-79735757D01*
X131072405Y-79514866D01*
X130871134Y-79313595D01*
X130634464Y-79155457D01*
X130371491Y-79046530D01*
X130092320Y-78991000D01*
X129807680Y-78991000D01*
X129528509Y-79046530D01*
X129265536Y-79155457D01*
X129028866Y-79313595D01*
X128827595Y-79514866D01*
X128680000Y-79735757D01*
X128532405Y-79514866D01*
X128331134Y-79313595D01*
X128094464Y-79155457D01*
X127831491Y-79046530D01*
X127552320Y-78991000D01*
X127267680Y-78991000D01*
X126988509Y-79046530D01*
X126725536Y-79155457D01*
X126488866Y-79313595D01*
X126287595Y-79514866D01*
X126140000Y-79735757D01*
X125992405Y-79514866D01*
X125791134Y-79313595D01*
X125554464Y-79155457D01*
X125291491Y-79046530D01*
X125012320Y-78991000D01*
X124727680Y-78991000D01*
X124448509Y-79046530D01*
X124185536Y-79155457D01*
X123948866Y-79313595D01*
X123747595Y-79514866D01*
X123600000Y-79735757D01*
X123452405Y-79514866D01*
X123251134Y-79313595D01*
X123014464Y-79155457D01*
X122751491Y-79046530D01*
X122472320Y-78991000D01*
X122187680Y-78991000D01*
X121908509Y-79046530D01*
X121645536Y-79155457D01*
X121408866Y-79313595D01*
X121207595Y-79514866D01*
X121060000Y-79735757D01*
X120912405Y-79514866D01*
X120711134Y-79313595D01*
X120474464Y-79155457D01*
X120211491Y-79046530D01*
X119932320Y-78991000D01*
X119647680Y-78991000D01*
X119368509Y-79046530D01*
X119105536Y-79155457D01*
X118868866Y-79313595D01*
X118667595Y-79514866D01*
X118520000Y-79735757D01*
X118372405Y-79514866D01*
X118171134Y-79313595D01*
X117934464Y-79155457D01*
X117671491Y-79046530D01*
X117392320Y-78991000D01*
X117107680Y-78991000D01*
X116828509Y-79046530D01*
X116565536Y-79155457D01*
X116328866Y-79313595D01*
X116127595Y-79514866D01*
X115980000Y-79735757D01*
X115832405Y-79514866D01*
X115631134Y-79313595D01*
X115394464Y-79155457D01*
X115131491Y-79046530D01*
X114852320Y-78991000D01*
X114567680Y-78991000D01*
X114288509Y-79046530D01*
X114025536Y-79155457D01*
X113788866Y-79313595D01*
X113587595Y-79514866D01*
X113440000Y-79735757D01*
X113292405Y-79514866D01*
X113091134Y-79313595D01*
X112854464Y-79155457D01*
X112591491Y-79046530D01*
X112312320Y-78991000D01*
X112027680Y-78991000D01*
X111748509Y-79046530D01*
X111485536Y-79155457D01*
X111248866Y-79313595D01*
X111047595Y-79514866D01*
X110900000Y-79735757D01*
X110752405Y-79514866D01*
X110551134Y-79313595D01*
X110314464Y-79155457D01*
X110051491Y-79046530D01*
X109772320Y-78991000D01*
X109487680Y-78991000D01*
X109208509Y-79046530D01*
X108945536Y-79155457D01*
X108708866Y-79313595D01*
X108507595Y-79514866D01*
X108360000Y-79735757D01*
X108212405Y-79514866D01*
X108011134Y-79313595D01*
X107774464Y-79155457D01*
X107511491Y-79046530D01*
X107232320Y-78991000D01*
X106947680Y-78991000D01*
X106668509Y-79046530D01*
X106405536Y-79155457D01*
X106168866Y-79313595D01*
X105967595Y-79514866D01*
X105820000Y-79735757D01*
X105672405Y-79514866D01*
X105471134Y-79313595D01*
X105234464Y-79155457D01*
X104971491Y-79046530D01*
X104692320Y-78991000D01*
X104407680Y-78991000D01*
X104128509Y-79046530D01*
X103865536Y-79155457D01*
X103628866Y-79313595D01*
X103427595Y-79514866D01*
X103269457Y-79751536D01*
X103160530Y-80014509D01*
X103105000Y-80293680D01*
X103105000Y-80578320D01*
X103160530Y-80857491D01*
X103269457Y-81120464D01*
X103427595Y-81357134D01*
X103628866Y-81558405D01*
X103849757Y-81706000D01*
X103628866Y-81853595D01*
X103427595Y-82054866D01*
X103269457Y-82291536D01*
X103160530Y-82554509D01*
X103105000Y-82833680D01*
X103105000Y-83118320D01*
X103142807Y-83308391D01*
X93488998Y-92962201D01*
X93460000Y-92985999D01*
X93436202Y-93014997D01*
X93436201Y-93014998D01*
X93365026Y-93101724D01*
X93294454Y-93233754D01*
X93272007Y-93307754D01*
X93250998Y-93377014D01*
X93240132Y-93487333D01*
X93236324Y-93526000D01*
X93240001Y-93563332D01*
X93240000Y-106296289D01*
X93196063Y-106340226D01*
X93082795Y-106509744D01*
X93004774Y-106698102D01*
X92965000Y-106898061D01*
X90610000Y-106898061D01*
X90610000Y-88146000D01*
X96425123Y-88146000D01*
X96460000Y-88149435D01*
X96494877Y-88146000D01*
X96510575Y-88144454D01*
X96599184Y-88135727D01*
X96733020Y-88095128D01*
X96856363Y-88029200D01*
X96964475Y-87940475D01*
X97053200Y-87832363D01*
X97119128Y-87709020D01*
X97159727Y-87575184D01*
X97170000Y-87470877D01*
X97173435Y-87436000D01*
X97170000Y-87401123D01*
X97170000Y-82933114D01*
X97302188Y-83065302D01*
X97856601Y-83435748D01*
X98472632Y-83690917D01*
X99126607Y-83821000D01*
X99793393Y-83821000D01*
X100447368Y-83690917D01*
X101063399Y-83435748D01*
X101617812Y-83065302D01*
X102089302Y-82593812D01*
X102459748Y-82039399D01*
X102714917Y-81423368D01*
X102845000Y-80769393D01*
X102845000Y-80102607D01*
X102714917Y-79448632D01*
X102459748Y-78832601D01*
X102089302Y-78278188D01*
X101957114Y-78146000D01*
X170642886Y-78146000D01*
X170510698Y-78278188D01*
G37*
X170510698Y-78278188D02*
X170140252Y-78832601D01*
X169885083Y-79448632D01*
X169755000Y-80102607D01*
X169755000Y-80769393D01*
X169885083Y-81423368D01*
X170140252Y-82039399D01*
X170510698Y-82593812D01*
X170982188Y-83065302D01*
X171536601Y-83435748D01*
X172152632Y-83690917D01*
X172806607Y-83821000D01*
X173473393Y-83821000D01*
X174127368Y-83690917D01*
X174743399Y-83435748D01*
X175297812Y-83065302D01*
X175430001Y-82933113D01*
X175430001Y-87401113D01*
X175426565Y-87436000D01*
X175440273Y-87575184D01*
X175480872Y-87709020D01*
X175546800Y-87832363D01*
X175635525Y-87940475D01*
X175743637Y-88029200D01*
X175866980Y-88095128D01*
X176000816Y-88135727D01*
X176105123Y-88146000D01*
X176140000Y-88149435D01*
X176174877Y-88146000D01*
X181990001Y-88146000D01*
X181990000Y-109290000D01*
X90610000Y-109290000D01*
X90610000Y-106898061D01*
X92965000Y-106898061D01*
X92965000Y-107101939D01*
X93004774Y-107301898D01*
X93082795Y-107490256D01*
X93196063Y-107659774D01*
X93340226Y-107803937D01*
X93509744Y-107917205D01*
X93698102Y-107995226D01*
X93898061Y-108035000D01*
X94101939Y-108035000D01*
X94301898Y-107995226D01*
X94490256Y-107917205D01*
X94625000Y-107827172D01*
X94759744Y-107917205D01*
X94948102Y-107995226D01*
X95148061Y-108035000D01*
X95351939Y-108035000D01*
X95551898Y-107995226D01*
X95740256Y-107917205D01*
X95875000Y-107827172D01*
X96009744Y-107917205D01*
X96198102Y-107995226D01*
X96398061Y-108035000D01*
X96601939Y-108035000D01*
X96801898Y-107995226D01*
X96990256Y-107917205D01*
X97125000Y-107827172D01*
X97259744Y-107917205D01*
X97448102Y-107995226D01*
X97648061Y-108035000D01*
X97851939Y-108035000D01*
X98051898Y-107995226D01*
X98240256Y-107917205D01*
X98375000Y-107827172D01*
X98509744Y-107917205D01*
X98698102Y-107995226D01*
X98898061Y-108035000D01*
X99101939Y-108035000D01*
X99301898Y-107995226D01*
X99490256Y-107917205D01*
X99625000Y-107827172D01*
X99759744Y-107917205D01*
X99948102Y-107995226D01*
X100148061Y-108035000D01*
X100351939Y-108035000D01*
X100551898Y-107995226D01*
X100740256Y-107917205D01*
X100875000Y-107827172D01*
X101009744Y-107917205D01*
X101198102Y-107995226D01*
X101398061Y-108035000D01*
X101601939Y-108035000D01*
X101801898Y-107995226D01*
X101990256Y-107917205D01*
X102125000Y-107827172D01*
X102259744Y-107917205D01*
X102448102Y-107995226D01*
X102648061Y-108035000D01*
X102851939Y-108035000D01*
X103051898Y-107995226D01*
X103240256Y-107917205D01*
X103375000Y-107827172D01*
X103509744Y-107917205D01*
X103698102Y-107995226D01*
X103898061Y-108035000D01*
X104101939Y-108035000D01*
X104301898Y-107995226D01*
X104490256Y-107917205D01*
X104625000Y-107827172D01*
X104759744Y-107917205D01*
X104948102Y-107995226D01*
X105148061Y-108035000D01*
X105351939Y-108035000D01*
X105551898Y-107995226D01*
X105740256Y-107917205D01*
X105875000Y-107827172D01*
X106009744Y-107917205D01*
X106198102Y-107995226D01*
X106398061Y-108035000D01*
X106601939Y-108035000D01*
X106801898Y-107995226D01*
X106990256Y-107917205D01*
X107125000Y-107827172D01*
X107259744Y-107917205D01*
X107448102Y-107995226D01*
X107648061Y-108035000D01*
X107851939Y-108035000D01*
X108051898Y-107995226D01*
X108240256Y-107917205D01*
X108375000Y-107827172D01*
X108509744Y-107917205D01*
X108698102Y-107995226D01*
X108898061Y-108035000D01*
X109101939Y-108035000D01*
X109301898Y-107995226D01*
X109490256Y-107917205D01*
X109659774Y-107803937D01*
X109803937Y-107659774D01*
X109917205Y-107490256D01*
X109995226Y-107301898D01*
X110035000Y-107101939D01*
X110035000Y-106898061D01*
X109995226Y-106698102D01*
X109917205Y-106509744D01*
X109803937Y-106340226D01*
X109760000Y-106296289D01*
X109760000Y-105664801D01*
X119011004Y-96413798D01*
X119040001Y-96390001D01*
X119134974Y-96274276D01*
X119205546Y-96142247D01*
X119249003Y-95998986D01*
X119260000Y-95887333D01*
X119260000Y-95887323D01*
X119263676Y-95850000D01*
X119260000Y-95812677D01*
X119260000Y-89400524D01*
X119368509Y-89445470D01*
X119647680Y-89501000D01*
X119932320Y-89501000D01*
X120211491Y-89445470D01*
X120290001Y-89412950D01*
X120290000Y-96885198D01*
X117938998Y-99236201D01*
X117910000Y-99259999D01*
X117886202Y-99288997D01*
X117886201Y-99288998D01*
X117815026Y-99375724D01*
X117744454Y-99507754D01*
X117714180Y-99607558D01*
X117701614Y-99648985D01*
X117700998Y-99651015D01*
X117686324Y-99800000D01*
X117690001Y-99837332D01*
X117690000Y-106082689D01*
X117501898Y-106004774D01*
X117301939Y-105965000D01*
X117098061Y-105965000D01*
X116898102Y-106004774D01*
X116709744Y-106082795D01*
X116540226Y-106196063D01*
X116396063Y-106340226D01*
X116282795Y-106509744D01*
X116204774Y-106698102D01*
X116165000Y-106898061D01*
X116165000Y-107101939D01*
X116204774Y-107301898D01*
X116282795Y-107490256D01*
X116396063Y-107659774D01*
X116540226Y-107803937D01*
X116709744Y-107917205D01*
X116898102Y-107995226D01*
X117098061Y-108035000D01*
X117301939Y-108035000D01*
X117501898Y-107995226D01*
X117690256Y-107917205D01*
X117825000Y-107827172D01*
X117959744Y-107917205D01*
X118148102Y-107995226D01*
X118348061Y-108035000D01*
X118551939Y-108035000D01*
X118751898Y-107995226D01*
X118940256Y-107917205D01*
X119075000Y-107827172D01*
X119209744Y-107917205D01*
X119398102Y-107995226D01*
X119598061Y-108035000D01*
X119801939Y-108035000D01*
X120001898Y-107995226D01*
X120190256Y-107917205D01*
X120325000Y-107827172D01*
X120459744Y-107917205D01*
X120648102Y-107995226D01*
X120848061Y-108035000D01*
X121051939Y-108035000D01*
X121251898Y-107995226D01*
X121440256Y-107917205D01*
X121575000Y-107827172D01*
X121709744Y-107917205D01*
X121898102Y-107995226D01*
X122098061Y-108035000D01*
X122301939Y-108035000D01*
X122501898Y-107995226D01*
X122690256Y-107917205D01*
X122825000Y-107827172D01*
X122959744Y-107917205D01*
X123148102Y-107995226D01*
X123348061Y-108035000D01*
X123551939Y-108035000D01*
X123751898Y-107995226D01*
X123940256Y-107917205D01*
X124075000Y-107827172D01*
X124209744Y-107917205D01*
X124398102Y-107995226D01*
X124598061Y-108035000D01*
X124801939Y-108035000D01*
X125001898Y-107995226D01*
X125190256Y-107917205D01*
X125325000Y-107827172D01*
X125459744Y-107917205D01*
X125648102Y-107995226D01*
X125848061Y-108035000D01*
X126051939Y-108035000D01*
X126251898Y-107995226D01*
X126440256Y-107917205D01*
X126575000Y-107827172D01*
X126709744Y-107917205D01*
X126898102Y-107995226D01*
X127098061Y-108035000D01*
X127301939Y-108035000D01*
X127501898Y-107995226D01*
X127690256Y-107917205D01*
X127825000Y-107827172D01*
X127959744Y-107917205D01*
X128148102Y-107995226D01*
X128348061Y-108035000D01*
X128551939Y-108035000D01*
X128751898Y-107995226D01*
X128940256Y-107917205D01*
X129075000Y-107827172D01*
X129209744Y-107917205D01*
X129398102Y-107995226D01*
X129598061Y-108035000D01*
X129801939Y-108035000D01*
X130001898Y-107995226D01*
X130190256Y-107917205D01*
X130325000Y-107827172D01*
X130459744Y-107917205D01*
X130648102Y-107995226D01*
X130848061Y-108035000D01*
X131051939Y-108035000D01*
X131251898Y-107995226D01*
X131440256Y-107917205D01*
X131575000Y-107827172D01*
X131709744Y-107917205D01*
X131898102Y-107995226D01*
X132098061Y-108035000D01*
X132301939Y-108035000D01*
X132501898Y-107995226D01*
X132690256Y-107917205D01*
X132859774Y-107803937D01*
X133003937Y-107659774D01*
X133117205Y-107490256D01*
X133195226Y-107301898D01*
X133235000Y-107101939D01*
X133235000Y-106898061D01*
X133195226Y-106698102D01*
X133117205Y-106509744D01*
X133003937Y-106340226D01*
X132859774Y-106196063D01*
X132690256Y-106082795D01*
X132501898Y-106004774D01*
X132301939Y-105965000D01*
X132159801Y-105965000D01*
X134261004Y-103863798D01*
X134290001Y-103840001D01*
X134316332Y-103807917D01*
X134384974Y-103724277D01*
X134455546Y-103592247D01*
X134478970Y-103515026D01*
X134499003Y-103448986D01*
X134510000Y-103337333D01*
X134510000Y-103337323D01*
X134513676Y-103300000D01*
X134510000Y-103262677D01*
X134510000Y-89404666D01*
X134608509Y-89445470D01*
X134887680Y-89501000D01*
X135172320Y-89501000D01*
X135451491Y-89445470D01*
X135714464Y-89336543D01*
X135951134Y-89178405D01*
X136152405Y-88977134D01*
X136300000Y-88756243D01*
X136447595Y-88977134D01*
X136648866Y-89178405D01*
X136885536Y-89336543D01*
X137148509Y-89445470D01*
X137427680Y-89501000D01*
X137712320Y-89501000D01*
X137991491Y-89445470D01*
X138090001Y-89404666D01*
X138090000Y-102712678D01*
X138086324Y-102750000D01*
X138090000Y-102787322D01*
X138090000Y-102787332D01*
X138100997Y-102898985D01*
X138133991Y-103007753D01*
X138144454Y-103042246D01*
X138215026Y-103174276D01*
X138229774Y-103192246D01*
X138309999Y-103290001D01*
X138339003Y-103313804D01*
X139640001Y-104614803D01*
X139640000Y-106296289D01*
X139596063Y-106340226D01*
X139482795Y-106509744D01*
X139404774Y-106698102D01*
X139365000Y-106898061D01*
X139365000Y-107101939D01*
X139404774Y-107301898D01*
X139482795Y-107490256D01*
X139596063Y-107659774D01*
X139740226Y-107803937D01*
X139909744Y-107917205D01*
X140098102Y-107995226D01*
X140298061Y-108035000D01*
X140501939Y-108035000D01*
X140701898Y-107995226D01*
X140890256Y-107917205D01*
X141025000Y-107827172D01*
X141159744Y-107917205D01*
X141348102Y-107995226D01*
X141548061Y-108035000D01*
X141751939Y-108035000D01*
X141951898Y-107995226D01*
X142140256Y-107917205D01*
X142275000Y-107827172D01*
X142409744Y-107917205D01*
X142598102Y-107995226D01*
X142798061Y-108035000D01*
X143001939Y-108035000D01*
X143201898Y-107995226D01*
X143390256Y-107917205D01*
X143525000Y-107827172D01*
X143659744Y-107917205D01*
X143848102Y-107995226D01*
X144048061Y-108035000D01*
X144251939Y-108035000D01*
X144451898Y-107995226D01*
X144640256Y-107917205D01*
X144775000Y-107827172D01*
X144909744Y-107917205D01*
X145098102Y-107995226D01*
X145298061Y-108035000D01*
X145501939Y-108035000D01*
X145701898Y-107995226D01*
X145890256Y-107917205D01*
X146025000Y-107827172D01*
X146159744Y-107917205D01*
X146348102Y-107995226D01*
X146548061Y-108035000D01*
X146751939Y-108035000D01*
X146951898Y-107995226D01*
X147140256Y-107917205D01*
X147275000Y-107827172D01*
X147409744Y-107917205D01*
X147598102Y-107995226D01*
X147798061Y-108035000D01*
X148001939Y-108035000D01*
X148201898Y-107995226D01*
X148390256Y-107917205D01*
X148525000Y-107827172D01*
X148659744Y-107917205D01*
X148848102Y-107995226D01*
X149048061Y-108035000D01*
X149251939Y-108035000D01*
X149451898Y-107995226D01*
X149640256Y-107917205D01*
X149775000Y-107827172D01*
X149909744Y-107917205D01*
X150098102Y-107995226D01*
X150298061Y-108035000D01*
X150501939Y-108035000D01*
X150701898Y-107995226D01*
X150890256Y-107917205D01*
X151025000Y-107827172D01*
X151159744Y-107917205D01*
X151348102Y-107995226D01*
X151548061Y-108035000D01*
X151751939Y-108035000D01*
X151951898Y-107995226D01*
X152140256Y-107917205D01*
X152275000Y-107827172D01*
X152409744Y-107917205D01*
X152598102Y-107995226D01*
X152798061Y-108035000D01*
X153001939Y-108035000D01*
X153201898Y-107995226D01*
X153390256Y-107917205D01*
X153525000Y-107827172D01*
X153659744Y-107917205D01*
X153848102Y-107995226D01*
X154048061Y-108035000D01*
X154251939Y-108035000D01*
X154451898Y-107995226D01*
X154640256Y-107917205D01*
X154775000Y-107827172D01*
X154909744Y-107917205D01*
X155098102Y-107995226D01*
X155298061Y-108035000D01*
X155501939Y-108035000D01*
X155701898Y-107995226D01*
X155890256Y-107917205D01*
X156059774Y-107803937D01*
X156203937Y-107659774D01*
X156317205Y-107490256D01*
X156395226Y-107301898D01*
X156435000Y-107101939D01*
X156435000Y-106898061D01*
X156395226Y-106698102D01*
X156317205Y-106509744D01*
X156203937Y-106340226D01*
X156160000Y-106296289D01*
X156160000Y-96187322D01*
X156163676Y-96149999D01*
X156160000Y-96112676D01*
X156160000Y-96112667D01*
X156149003Y-96001014D01*
X156105546Y-95857753D01*
X156034974Y-95725724D01*
X155940001Y-95609999D01*
X155911003Y-95586201D01*
X154810000Y-94485199D01*
X154810000Y-89396382D01*
X154928509Y-89445470D01*
X155207680Y-89501000D01*
X155492320Y-89501000D01*
X155771491Y-89445470D01*
X155840000Y-89417092D01*
X155840000Y-93562678D01*
X155836324Y-93600000D01*
X155840000Y-93637322D01*
X155840000Y-93637332D01*
X155850997Y-93748985D01*
X155872007Y-93818246D01*
X155894454Y-93892246D01*
X155965026Y-94024276D01*
X155998470Y-94065027D01*
X156059999Y-94140001D01*
X156089003Y-94163804D01*
X164090001Y-102164803D01*
X164090000Y-106082689D01*
X163901898Y-106004774D01*
X163701939Y-105965000D01*
X163498061Y-105965000D01*
X163298102Y-106004774D01*
X163109744Y-106082795D01*
X162940226Y-106196063D01*
X162796063Y-106340226D01*
X162682795Y-106509744D01*
X162604774Y-106698102D01*
X162565000Y-106898061D01*
X162565000Y-107101939D01*
X162604774Y-107301898D01*
X162682795Y-107490256D01*
X162796063Y-107659774D01*
X162940226Y-107803937D01*
X163109744Y-107917205D01*
X163298102Y-107995226D01*
X163498061Y-108035000D01*
X163701939Y-108035000D01*
X163901898Y-107995226D01*
X164090256Y-107917205D01*
X164225000Y-107827172D01*
X164359744Y-107917205D01*
X164548102Y-107995226D01*
X164748061Y-108035000D01*
X164951939Y-108035000D01*
X165151898Y-107995226D01*
X165340256Y-107917205D01*
X165475000Y-107827172D01*
X165609744Y-107917205D01*
X165798102Y-107995226D01*
X165998061Y-108035000D01*
X166201939Y-108035000D01*
X166401898Y-107995226D01*
X166590256Y-107917205D01*
X166725000Y-107827172D01*
X166859744Y-107917205D01*
X167048102Y-107995226D01*
X167248061Y-108035000D01*
X167451939Y-108035000D01*
X167651898Y-107995226D01*
X167840256Y-107917205D01*
X167975000Y-107827172D01*
X168109744Y-107917205D01*
X168298102Y-107995226D01*
X168498061Y-108035000D01*
X168701939Y-108035000D01*
X168901898Y-107995226D01*
X169090256Y-107917205D01*
X169225000Y-107827172D01*
X169359744Y-107917205D01*
X169548102Y-107995226D01*
X169748061Y-108035000D01*
X169951939Y-108035000D01*
X170151898Y-107995226D01*
X170340256Y-107917205D01*
X170475000Y-107827172D01*
X170609744Y-107917205D01*
X170798102Y-107995226D01*
X170998061Y-108035000D01*
X171201939Y-108035000D01*
X171401898Y-107995226D01*
X171590256Y-107917205D01*
X171725000Y-107827172D01*
X171859744Y-107917205D01*
X172048102Y-107995226D01*
X172248061Y-108035000D01*
X172451939Y-108035000D01*
X172651898Y-107995226D01*
X172840256Y-107917205D01*
X172975000Y-107827172D01*
X173109744Y-107917205D01*
X173298102Y-107995226D01*
X173498061Y-108035000D01*
X173701939Y-108035000D01*
X173901898Y-107995226D01*
X174090256Y-107917205D01*
X174225000Y-107827172D01*
X174359744Y-107917205D01*
X174548102Y-107995226D01*
X174748061Y-108035000D01*
X174951939Y-108035000D01*
X175151898Y-107995226D01*
X175340256Y-107917205D01*
X175475000Y-107827172D01*
X175609744Y-107917205D01*
X175798102Y-107995226D01*
X175998061Y-108035000D01*
X176201939Y-108035000D01*
X176401898Y-107995226D01*
X176590256Y-107917205D01*
X176725000Y-107827172D01*
X176859744Y-107917205D01*
X177048102Y-107995226D01*
X177248061Y-108035000D01*
X177451939Y-108035000D01*
X177651898Y-107995226D01*
X177840256Y-107917205D01*
X177975000Y-107827172D01*
X178109744Y-107917205D01*
X178298102Y-107995226D01*
X178498061Y-108035000D01*
X178701939Y-108035000D01*
X178901898Y-107995226D01*
X179090256Y-107917205D01*
X179259774Y-107803937D01*
X179403937Y-107659774D01*
X179517205Y-107490256D01*
X179595226Y-107301898D01*
X179635000Y-107101939D01*
X179635000Y-106898061D01*
X179595226Y-106698102D01*
X179517205Y-106509744D01*
X179403937Y-106340226D01*
X179259774Y-106196063D01*
X179090256Y-106082795D01*
X178901898Y-106004774D01*
X178701939Y-105965000D01*
X178498061Y-105965000D01*
X178298102Y-106004774D01*
X178110000Y-106082689D01*
X178110000Y-92313322D01*
X178113676Y-92275999D01*
X178110000Y-92238676D01*
X178110000Y-92238667D01*
X178099003Y-92127014D01*
X178055546Y-91983753D01*
X178011321Y-91901015D01*
X177984974Y-91851723D01*
X177913799Y-91764997D01*
X177890001Y-91735999D01*
X177861003Y-91712201D01*
X169457193Y-83308392D01*
X169495000Y-83118320D01*
X169495000Y-82833680D01*
X169439470Y-82554509D01*
X169330543Y-82291536D01*
X169172405Y-82054866D01*
X168971134Y-81853595D01*
X168750243Y-81706000D01*
X168971134Y-81558405D01*
X169172405Y-81357134D01*
X169330543Y-81120464D01*
X169439470Y-80857491D01*
X169495000Y-80578320D01*
X169495000Y-80293680D01*
X169439470Y-80014509D01*
X169330543Y-79751536D01*
X169172405Y-79514866D01*
X168971134Y-79313595D01*
X168734464Y-79155457D01*
X168471491Y-79046530D01*
X168192320Y-78991000D01*
X167907680Y-78991000D01*
X167628509Y-79046530D01*
X167365536Y-79155457D01*
X167128866Y-79313595D01*
X166927595Y-79514866D01*
X166780000Y-79735757D01*
X166632405Y-79514866D01*
X166431134Y-79313595D01*
X166194464Y-79155457D01*
X165931491Y-79046530D01*
X165652320Y-78991000D01*
X165367680Y-78991000D01*
X165088509Y-79046530D01*
X164825536Y-79155457D01*
X164588866Y-79313595D01*
X164387595Y-79514866D01*
X164240000Y-79735757D01*
X164092405Y-79514866D01*
X163891134Y-79313595D01*
X163654464Y-79155457D01*
X163391491Y-79046530D01*
X163112320Y-78991000D01*
X162827680Y-78991000D01*
X162548509Y-79046530D01*
X162285536Y-79155457D01*
X162048866Y-79313595D01*
X161847595Y-79514866D01*
X161700000Y-79735757D01*
X161552405Y-79514866D01*
X161351134Y-79313595D01*
X161114464Y-79155457D01*
X160851491Y-79046530D01*
X160572320Y-78991000D01*
X160287680Y-78991000D01*
X160008509Y-79046530D01*
X159745536Y-79155457D01*
X159508866Y-79313595D01*
X159307595Y-79514866D01*
X159160000Y-79735757D01*
X159012405Y-79514866D01*
X158811134Y-79313595D01*
X158574464Y-79155457D01*
X158311491Y-79046530D01*
X158032320Y-78991000D01*
X157747680Y-78991000D01*
X157468509Y-79046530D01*
X157205536Y-79155457D01*
X156968866Y-79313595D01*
X156767595Y-79514866D01*
X156620000Y-79735757D01*
X156472405Y-79514866D01*
X156271134Y-79313595D01*
X156034464Y-79155457D01*
X155771491Y-79046530D01*
X155492320Y-78991000D01*
X155207680Y-78991000D01*
X154928509Y-79046530D01*
X154665536Y-79155457D01*
X154428866Y-79313595D01*
X154227595Y-79514866D01*
X154080000Y-79735757D01*
X153932405Y-79514866D01*
X153731134Y-79313595D01*
X153494464Y-79155457D01*
X153231491Y-79046530D01*
X152952320Y-78991000D01*
X152667680Y-78991000D01*
X152388509Y-79046530D01*
X152125536Y-79155457D01*
X151888866Y-79313595D01*
X151687595Y-79514866D01*
X151540000Y-79735757D01*
X151392405Y-79514866D01*
X151191134Y-79313595D01*
X150954464Y-79155457D01*
X150691491Y-79046530D01*
X150412320Y-78991000D01*
X150127680Y-78991000D01*
X149848509Y-79046530D01*
X149585536Y-79155457D01*
X149348866Y-79313595D01*
X149147595Y-79514866D01*
X149000000Y-79735757D01*
X148852405Y-79514866D01*
X148651134Y-79313595D01*
X148414464Y-79155457D01*
X148151491Y-79046530D01*
X147872320Y-78991000D01*
X147587680Y-78991000D01*
X147308509Y-79046530D01*
X147045536Y-79155457D01*
X146808866Y-79313595D01*
X146607595Y-79514866D01*
X146460000Y-79735757D01*
X146312405Y-79514866D01*
X146111134Y-79313595D01*
X145874464Y-79155457D01*
X145611491Y-79046530D01*
X145332320Y-78991000D01*
X145047680Y-78991000D01*
X144768509Y-79046530D01*
X144505536Y-79155457D01*
X144268866Y-79313595D01*
X144067595Y-79514866D01*
X143920000Y-79735757D01*
X143772405Y-79514866D01*
X143571134Y-79313595D01*
X143334464Y-79155457D01*
X143071491Y-79046530D01*
X142792320Y-78991000D01*
X142507680Y-78991000D01*
X142228509Y-79046530D01*
X141965536Y-79155457D01*
X141728866Y-79313595D01*
X141527595Y-79514866D01*
X141380000Y-79735757D01*
X141232405Y-79514866D01*
X141031134Y-79313595D01*
X140794464Y-79155457D01*
X140531491Y-79046530D01*
X140252320Y-78991000D01*
X139967680Y-78991000D01*
X139688509Y-79046530D01*
X139425536Y-79155457D01*
X139188866Y-79313595D01*
X138987595Y-79514866D01*
X138840000Y-79735757D01*
X138692405Y-79514866D01*
X138491134Y-79313595D01*
X138254464Y-79155457D01*
X137991491Y-79046530D01*
X137712320Y-78991000D01*
X137427680Y-78991000D01*
X137148509Y-79046530D01*
X136885536Y-79155457D01*
X136648866Y-79313595D01*
X136447595Y-79514866D01*
X136300000Y-79735757D01*
X136152405Y-79514866D01*
X135951134Y-79313595D01*
X135714464Y-79155457D01*
X135451491Y-79046530D01*
X135172320Y-78991000D01*
X134887680Y-78991000D01*
X134608509Y-79046530D01*
X134345536Y-79155457D01*
X134108866Y-79313595D01*
X133907595Y-79514866D01*
X133760000Y-79735757D01*
X133612405Y-79514866D01*
X133411134Y-79313595D01*
X133174464Y-79155457D01*
X132911491Y-79046530D01*
X132632320Y-78991000D01*
X132347680Y-78991000D01*
X132068509Y-79046530D01*
X131805536Y-79155457D01*
X131568866Y-79313595D01*
X131367595Y-79514866D01*
X131220000Y-79735757D01*
X131072405Y-79514866D01*
X130871134Y-79313595D01*
X130634464Y-79155457D01*
X130371491Y-79046530D01*
X130092320Y-78991000D01*
X129807680Y-78991000D01*
X129528509Y-79046530D01*
X129265536Y-79155457D01*
X129028866Y-79313595D01*
X128827595Y-79514866D01*
X128680000Y-79735757D01*
X128532405Y-79514866D01*
X128331134Y-79313595D01*
X128094464Y-79155457D01*
X127831491Y-79046530D01*
X127552320Y-78991000D01*
X127267680Y-78991000D01*
X126988509Y-79046530D01*
X126725536Y-79155457D01*
X126488866Y-79313595D01*
X126287595Y-79514866D01*
X126140000Y-79735757D01*
X125992405Y-79514866D01*
X125791134Y-79313595D01*
X125554464Y-79155457D01*
X125291491Y-79046530D01*
X125012320Y-78991000D01*
X124727680Y-78991000D01*
X124448509Y-79046530D01*
X124185536Y-79155457D01*
X123948866Y-79313595D01*
X123747595Y-79514866D01*
X123600000Y-79735757D01*
X123452405Y-79514866D01*
X123251134Y-79313595D01*
X123014464Y-79155457D01*
X122751491Y-79046530D01*
X122472320Y-78991000D01*
X122187680Y-78991000D01*
X121908509Y-79046530D01*
X121645536Y-79155457D01*
X121408866Y-79313595D01*
X121207595Y-79514866D01*
X121060000Y-79735757D01*
X120912405Y-79514866D01*
X120711134Y-79313595D01*
X120474464Y-79155457D01*
X120211491Y-79046530D01*
X119932320Y-78991000D01*
X119647680Y-78991000D01*
X119368509Y-79046530D01*
X119105536Y-79155457D01*
X118868866Y-79313595D01*
X118667595Y-79514866D01*
X118520000Y-79735757D01*
X118372405Y-79514866D01*
X118171134Y-79313595D01*
X117934464Y-79155457D01*
X117671491Y-79046530D01*
X117392320Y-78991000D01*
X117107680Y-78991000D01*
X116828509Y-79046530D01*
X116565536Y-79155457D01*
X116328866Y-79313595D01*
X116127595Y-79514866D01*
X115980000Y-79735757D01*
X115832405Y-79514866D01*
X115631134Y-79313595D01*
X115394464Y-79155457D01*
X115131491Y-79046530D01*
X114852320Y-78991000D01*
X114567680Y-78991000D01*
X114288509Y-79046530D01*
X114025536Y-79155457D01*
X113788866Y-79313595D01*
X113587595Y-79514866D01*
X113440000Y-79735757D01*
X113292405Y-79514866D01*
X113091134Y-79313595D01*
X112854464Y-79155457D01*
X112591491Y-79046530D01*
X112312320Y-78991000D01*
X112027680Y-78991000D01*
X111748509Y-79046530D01*
X111485536Y-79155457D01*
X111248866Y-79313595D01*
X111047595Y-79514866D01*
X110900000Y-79735757D01*
X110752405Y-79514866D01*
X110551134Y-79313595D01*
X110314464Y-79155457D01*
X110051491Y-79046530D01*
X109772320Y-78991000D01*
X109487680Y-78991000D01*
X109208509Y-79046530D01*
X108945536Y-79155457D01*
X108708866Y-79313595D01*
X108507595Y-79514866D01*
X108360000Y-79735757D01*
X108212405Y-79514866D01*
X108011134Y-79313595D01*
X107774464Y-79155457D01*
X107511491Y-79046530D01*
X107232320Y-78991000D01*
X106947680Y-78991000D01*
X106668509Y-79046530D01*
X106405536Y-79155457D01*
X106168866Y-79313595D01*
X105967595Y-79514866D01*
X105820000Y-79735757D01*
X105672405Y-79514866D01*
X105471134Y-79313595D01*
X105234464Y-79155457D01*
X104971491Y-79046530D01*
X104692320Y-78991000D01*
X104407680Y-78991000D01*
X104128509Y-79046530D01*
X103865536Y-79155457D01*
X103628866Y-79313595D01*
X103427595Y-79514866D01*
X103269457Y-79751536D01*
X103160530Y-80014509D01*
X103105000Y-80293680D01*
X103105000Y-80578320D01*
X103160530Y-80857491D01*
X103269457Y-81120464D01*
X103427595Y-81357134D01*
X103628866Y-81558405D01*
X103849757Y-81706000D01*
X103628866Y-81853595D01*
X103427595Y-82054866D01*
X103269457Y-82291536D01*
X103160530Y-82554509D01*
X103105000Y-82833680D01*
X103105000Y-83118320D01*
X103142807Y-83308391D01*
X93488998Y-92962201D01*
X93460000Y-92985999D01*
X93436202Y-93014997D01*
X93436201Y-93014998D01*
X93365026Y-93101724D01*
X93294454Y-93233754D01*
X93272007Y-93307754D01*
X93250998Y-93377014D01*
X93240132Y-93487333D01*
X93236324Y-93526000D01*
X93240001Y-93563332D01*
X93240000Y-106296289D01*
X93196063Y-106340226D01*
X93082795Y-106509744D01*
X93004774Y-106698102D01*
X92965000Y-106898061D01*
X90610000Y-106898061D01*
X90610000Y-88146000D01*
X96425123Y-88146000D01*
X96460000Y-88149435D01*
X96494877Y-88146000D01*
X96510575Y-88144454D01*
X96599184Y-88135727D01*
X96733020Y-88095128D01*
X96856363Y-88029200D01*
X96964475Y-87940475D01*
X97053200Y-87832363D01*
X97119128Y-87709020D01*
X97159727Y-87575184D01*
X97170000Y-87470877D01*
X97173435Y-87436000D01*
X97170000Y-87401123D01*
X97170000Y-82933114D01*
X97302188Y-83065302D01*
X97856601Y-83435748D01*
X98472632Y-83690917D01*
X99126607Y-83821000D01*
X99793393Y-83821000D01*
X100447368Y-83690917D01*
X101063399Y-83435748D01*
X101617812Y-83065302D01*
X102089302Y-82593812D01*
X102459748Y-82039399D01*
X102714917Y-81423368D01*
X102845000Y-80769393D01*
X102845000Y-80102607D01*
X102714917Y-79448632D01*
X102459748Y-78832601D01*
X102089302Y-78278188D01*
X101957114Y-78146000D01*
X170642886Y-78146000D01*
X170510698Y-78278188D01*
G36*
X103105000Y-85658320D02*
G01*
X103160530Y-85937491D01*
X103269457Y-86200464D01*
X103427595Y-86437134D01*
X103628866Y-86638405D01*
X103849757Y-86786000D01*
X103628866Y-86933595D01*
X103427595Y-87134866D01*
X103269457Y-87371536D01*
X103160530Y-87634509D01*
X103105000Y-87913680D01*
X103105000Y-88198320D01*
X103160530Y-88477491D01*
X103269457Y-88740464D01*
X103427595Y-88977134D01*
X103628866Y-89178405D01*
X103865536Y-89336543D01*
X104128509Y-89445470D01*
X104407680Y-89501000D01*
X104524198Y-89501000D01*
X95988998Y-98036201D01*
X95960000Y-98059999D01*
X95936202Y-98088997D01*
X95936201Y-98088998D01*
X95865026Y-98175724D01*
X95794454Y-98307754D01*
X95750998Y-98451015D01*
X95736324Y-98600000D01*
X95740001Y-98637332D01*
X95740000Y-106082689D01*
X95551898Y-106004774D01*
X95351939Y-105965000D01*
X95148061Y-105965000D01*
X94948102Y-106004774D01*
X94760000Y-106082689D01*
X94760000Y-93840801D01*
X103105000Y-85495802D01*
X103105000Y-85658320D01*
G37*
X103105000Y-85658320D02*
X103160530Y-85937491D01*
X103269457Y-86200464D01*
X103427595Y-86437134D01*
X103628866Y-86638405D01*
X103849757Y-86786000D01*
X103628866Y-86933595D01*
X103427595Y-87134866D01*
X103269457Y-87371536D01*
X103160530Y-87634509D01*
X103105000Y-87913680D01*
X103105000Y-88198320D01*
X103160530Y-88477491D01*
X103269457Y-88740464D01*
X103427595Y-88977134D01*
X103628866Y-89178405D01*
X103865536Y-89336543D01*
X104128509Y-89445470D01*
X104407680Y-89501000D01*
X104524198Y-89501000D01*
X95988998Y-98036201D01*
X95960000Y-98059999D01*
X95936202Y-98088997D01*
X95936201Y-98088998D01*
X95865026Y-98175724D01*
X95794454Y-98307754D01*
X95750998Y-98451015D01*
X95736324Y-98600000D01*
X95740001Y-98637332D01*
X95740000Y-106082689D01*
X95551898Y-106004774D01*
X95351939Y-105965000D01*
X95148061Y-105965000D01*
X94948102Y-106004774D01*
X94760000Y-106082689D01*
X94760000Y-93840801D01*
X103105000Y-85495802D01*
X103105000Y-85658320D01*
G36*
X160008509Y-89445470D02*
G01*
X160287680Y-89501000D01*
X160572320Y-89501000D01*
X160851491Y-89445470D01*
X160940000Y-89408808D01*
X160940000Y-91062677D01*
X160936324Y-91100000D01*
X160940000Y-91137322D01*
X160940000Y-91137332D01*
X160950997Y-91248985D01*
X160966775Y-91300998D01*
X160994454Y-91392246D01*
X161065026Y-91524276D01*
X161081586Y-91544454D01*
X161159999Y-91640001D01*
X161189003Y-91663804D01*
X169090001Y-99564803D01*
X169090000Y-106082689D01*
X168901898Y-106004774D01*
X168701939Y-105965000D01*
X168498061Y-105965000D01*
X168298102Y-106004774D01*
X168110000Y-106082689D01*
X168110000Y-100487322D01*
X168113676Y-100449999D01*
X168110000Y-100412676D01*
X168110000Y-100412667D01*
X168099003Y-100301014D01*
X168055546Y-100157753D01*
X167984974Y-100025724D01*
X167890001Y-99909999D01*
X167861003Y-99886201D01*
X159910000Y-91935199D01*
X159910000Y-89404666D01*
X160008509Y-89445470D01*
G37*
X160008509Y-89445470D02*
X160287680Y-89501000D01*
X160572320Y-89501000D01*
X160851491Y-89445470D01*
X160940000Y-89408808D01*
X160940000Y-91062677D01*
X160936324Y-91100000D01*
X160940000Y-91137322D01*
X160940000Y-91137332D01*
X160950997Y-91248985D01*
X160966775Y-91300998D01*
X160994454Y-91392246D01*
X161065026Y-91524276D01*
X161081586Y-91544454D01*
X161159999Y-91640001D01*
X161189003Y-91663804D01*
X169090001Y-99564803D01*
X169090000Y-106082689D01*
X168901898Y-106004774D01*
X168701939Y-105965000D01*
X168498061Y-105965000D01*
X168298102Y-106004774D01*
X168110000Y-106082689D01*
X168110000Y-100487322D01*
X168113676Y-100449999D01*
X168110000Y-100412676D01*
X168110000Y-100412667D01*
X168099003Y-100301014D01*
X168055546Y-100157753D01*
X167984974Y-100025724D01*
X167890001Y-99909999D01*
X167861003Y-99886201D01*
X159910000Y-91935199D01*
X159910000Y-89404666D01*
X160008509Y-89445470D01*
G36*
X150790000Y-96062678D02*
G01*
X150786324Y-96100000D01*
X150790000Y-96137322D01*
X150790000Y-96137332D01*
X150800997Y-96248985D01*
X150834672Y-96359999D01*
X150844454Y-96392246D01*
X150915026Y-96524276D01*
X150940689Y-96555546D01*
X151009999Y-96640001D01*
X151039003Y-96663804D01*
X152140001Y-97764803D01*
X152140000Y-106082689D01*
X151951898Y-106004774D01*
X151751939Y-105965000D01*
X151548061Y-105965000D01*
X151348102Y-106004774D01*
X151160000Y-106082689D01*
X151160000Y-98737322D01*
X151163676Y-98700000D01*
X151160000Y-98662677D01*
X151160000Y-98662667D01*
X151149003Y-98551014D01*
X151105546Y-98407753D01*
X151052095Y-98307754D01*
X151034974Y-98275723D01*
X150963799Y-98188997D01*
X150940001Y-98159999D01*
X150911003Y-98136201D01*
X149760000Y-96985199D01*
X149760000Y-89408808D01*
X149848509Y-89445470D01*
X150127680Y-89501000D01*
X150412320Y-89501000D01*
X150691491Y-89445470D01*
X150790001Y-89404666D01*
X150790000Y-96062678D01*
G37*
X150790000Y-96062678D02*
X150786324Y-96100000D01*
X150790000Y-96137322D01*
X150790000Y-96137332D01*
X150800997Y-96248985D01*
X150834672Y-96359999D01*
X150844454Y-96392246D01*
X150915026Y-96524276D01*
X150940689Y-96555546D01*
X151009999Y-96640001D01*
X151039003Y-96663804D01*
X152140001Y-97764803D01*
X152140000Y-106082689D01*
X151951898Y-106004774D01*
X151751939Y-105965000D01*
X151548061Y-105965000D01*
X151348102Y-106004774D01*
X151160000Y-106082689D01*
X151160000Y-98737322D01*
X151163676Y-98700000D01*
X151160000Y-98662677D01*
X151160000Y-98662667D01*
X151149003Y-98551014D01*
X151105546Y-98407753D01*
X151052095Y-98307754D01*
X151034974Y-98275723D01*
X150963799Y-98188997D01*
X150940001Y-98159999D01*
X150911003Y-98136201D01*
X149760000Y-96985199D01*
X149760000Y-89408808D01*
X149848509Y-89445470D01*
X150127680Y-89501000D01*
X150412320Y-89501000D01*
X150691491Y-89445470D01*
X150790001Y-89404666D01*
X150790000Y-96062678D01*
G36*
X121908509Y-89445470D02*
G01*
X122187680Y-89501000D01*
X122472320Y-89501000D01*
X122751491Y-89445470D01*
X122840001Y-89408808D01*
X122840000Y-97935198D01*
X120438998Y-100336201D01*
X120410000Y-100359999D01*
X120386202Y-100388997D01*
X120386201Y-100388998D01*
X120315026Y-100475724D01*
X120244454Y-100607754D01*
X120221031Y-100684974D01*
X120201614Y-100748985D01*
X120200998Y-100751015D01*
X120186324Y-100900000D01*
X120190001Y-100937332D01*
X120190000Y-106082689D01*
X120001898Y-106004774D01*
X119801939Y-105965000D01*
X119598061Y-105965000D01*
X119398102Y-106004774D01*
X119210000Y-106082689D01*
X119210000Y-100114801D01*
X121561004Y-97763798D01*
X121590001Y-97740001D01*
X121684974Y-97624276D01*
X121755546Y-97492247D01*
X121799003Y-97348986D01*
X121810000Y-97237333D01*
X121810000Y-97237324D01*
X121813676Y-97200001D01*
X121810000Y-97162678D01*
X121810000Y-89404666D01*
X121908509Y-89445470D01*
G37*
X121908509Y-89445470D02*
X122187680Y-89501000D01*
X122472320Y-89501000D01*
X122751491Y-89445470D01*
X122840001Y-89408808D01*
X122840000Y-97935198D01*
X120438998Y-100336201D01*
X120410000Y-100359999D01*
X120386202Y-100388997D01*
X120386201Y-100388998D01*
X120315026Y-100475724D01*
X120244454Y-100607754D01*
X120221031Y-100684974D01*
X120201614Y-100748985D01*
X120200998Y-100751015D01*
X120186324Y-100900000D01*
X120190001Y-100937332D01*
X120190000Y-106082689D01*
X120001898Y-106004774D01*
X119801939Y-105965000D01*
X119598061Y-105965000D01*
X119398102Y-106004774D01*
X119210000Y-106082689D01*
X119210000Y-100114801D01*
X121561004Y-97763798D01*
X121590001Y-97740001D01*
X121684974Y-97624276D01*
X121755546Y-97492247D01*
X121799003Y-97348986D01*
X121810000Y-97237333D01*
X121810000Y-97237324D01*
X121813676Y-97200001D01*
X121810000Y-97162678D01*
X121810000Y-89404666D01*
X121908509Y-89445470D01*
G36*
X132068509Y-89445470D02*
G01*
X132347680Y-89501000D01*
X132632320Y-89501000D01*
X132911491Y-89445470D01*
X132990001Y-89412950D01*
X132990000Y-102985198D01*
X130438998Y-105536201D01*
X130410000Y-105559999D01*
X130386202Y-105588997D01*
X130386201Y-105588998D01*
X130315026Y-105675724D01*
X130244454Y-105807754D01*
X130219506Y-105890001D01*
X130200998Y-105951014D01*
X130190000Y-106062667D01*
X130190000Y-106062678D01*
X130188106Y-106081905D01*
X130001898Y-106004774D01*
X129801939Y-105965000D01*
X129598061Y-105965000D01*
X129398102Y-106004774D01*
X129210000Y-106082689D01*
X129210000Y-104814801D01*
X131711004Y-102313798D01*
X131740001Y-102290001D01*
X131834974Y-102174276D01*
X131905546Y-102042247D01*
X131949003Y-101898986D01*
X131960000Y-101787333D01*
X131960000Y-101787324D01*
X131963676Y-101750001D01*
X131960000Y-101712678D01*
X131960000Y-89400524D01*
X132068509Y-89445470D01*
G37*
X132068509Y-89445470D02*
X132347680Y-89501000D01*
X132632320Y-89501000D01*
X132911491Y-89445470D01*
X132990001Y-89412950D01*
X132990000Y-102985198D01*
X130438998Y-105536201D01*
X130410000Y-105559999D01*
X130386202Y-105588997D01*
X130386201Y-105588998D01*
X130315026Y-105675724D01*
X130244454Y-105807754D01*
X130219506Y-105890001D01*
X130200998Y-105951014D01*
X130190000Y-106062667D01*
X130190000Y-106062678D01*
X130188106Y-106081905D01*
X130001898Y-106004774D01*
X129801939Y-105965000D01*
X129598061Y-105965000D01*
X129398102Y-106004774D01*
X129210000Y-106082689D01*
X129210000Y-104814801D01*
X131711004Y-102313798D01*
X131740001Y-102290001D01*
X131834974Y-102174276D01*
X131905546Y-102042247D01*
X131949003Y-101898986D01*
X131960000Y-101787333D01*
X131960000Y-101787324D01*
X131963676Y-101750001D01*
X131960000Y-101712678D01*
X131960000Y-89400524D01*
X132068509Y-89445470D01*
G36*
X112690000Y-93135198D02*
G01*
X103488998Y-102336201D01*
X103460000Y-102359999D01*
X103436202Y-102388997D01*
X103436201Y-102388998D01*
X103365026Y-102475724D01*
X103294454Y-102607754D01*
X103269506Y-102690001D01*
X103255492Y-102736201D01*
X103250998Y-102751015D01*
X103236324Y-102900000D01*
X103240001Y-102937332D01*
X103240000Y-106082689D01*
X103051898Y-106004774D01*
X102851939Y-105965000D01*
X102648061Y-105965000D01*
X102448102Y-106004774D01*
X102260000Y-106082689D01*
X102260000Y-101764801D01*
X111411009Y-92613793D01*
X111440001Y-92590001D01*
X111463795Y-92561008D01*
X111463799Y-92561004D01*
X111534973Y-92474277D01*
X111534974Y-92474276D01*
X111605546Y-92342247D01*
X111649003Y-92198986D01*
X111660000Y-92087333D01*
X111660000Y-92087324D01*
X111663676Y-92050001D01*
X111660000Y-92012678D01*
X111660000Y-89408808D01*
X111748509Y-89445470D01*
X112027680Y-89501000D01*
X112312320Y-89501000D01*
X112591491Y-89445470D01*
X112690000Y-89404666D01*
X112690000Y-93135198D01*
G37*
X112690000Y-93135198D02*
X103488998Y-102336201D01*
X103460000Y-102359999D01*
X103436202Y-102388997D01*
X103436201Y-102388998D01*
X103365026Y-102475724D01*
X103294454Y-102607754D01*
X103269506Y-102690001D01*
X103255492Y-102736201D01*
X103250998Y-102751015D01*
X103236324Y-102900000D01*
X103240001Y-102937332D01*
X103240000Y-106082689D01*
X103051898Y-106004774D01*
X102851939Y-105965000D01*
X102648061Y-105965000D01*
X102448102Y-106004774D01*
X102260000Y-106082689D01*
X102260000Y-101764801D01*
X111411009Y-92613793D01*
X111440001Y-92590001D01*
X111463795Y-92561008D01*
X111463799Y-92561004D01*
X111534973Y-92474277D01*
X111534974Y-92474276D01*
X111605546Y-92342247D01*
X111649003Y-92198986D01*
X111660000Y-92087333D01*
X111660000Y-92087324D01*
X111663676Y-92050001D01*
X111660000Y-92012678D01*
X111660000Y-89408808D01*
X111748509Y-89445470D01*
X112027680Y-89501000D01*
X112312320Y-89501000D01*
X112591491Y-89445470D01*
X112690000Y-89404666D01*
X112690000Y-93135198D01*
G36*
X116828509Y-89445470D02*
G01*
X117107680Y-89501000D01*
X117392320Y-89501000D01*
X117671491Y-89445470D01*
X117740001Y-89417092D01*
X117740000Y-95535198D01*
X108488998Y-104786201D01*
X108460000Y-104809999D01*
X108436202Y-104838997D01*
X108436201Y-104838998D01*
X108365026Y-104925724D01*
X108294454Y-105057754D01*
X108250998Y-105201015D01*
X108236324Y-105350000D01*
X108240001Y-105387332D01*
X108240001Y-106082689D01*
X108051898Y-106004774D01*
X107851939Y-105965000D01*
X107648061Y-105965000D01*
X107448102Y-106004774D01*
X107260000Y-106082689D01*
X107260000Y-104464801D01*
X116461004Y-95263798D01*
X116490001Y-95240001D01*
X116584974Y-95124276D01*
X116655546Y-94992247D01*
X116699003Y-94848986D01*
X116710000Y-94737333D01*
X116710000Y-94737324D01*
X116713676Y-94700001D01*
X116710000Y-94662678D01*
X116710000Y-89396382D01*
X116828509Y-89445470D01*
G37*
X116828509Y-89445470D02*
X117107680Y-89501000D01*
X117392320Y-89501000D01*
X117671491Y-89445470D01*
X117740001Y-89417092D01*
X117740000Y-95535198D01*
X108488998Y-104786201D01*
X108460000Y-104809999D01*
X108436202Y-104838997D01*
X108436201Y-104838998D01*
X108365026Y-104925724D01*
X108294454Y-105057754D01*
X108250998Y-105201015D01*
X108236324Y-105350000D01*
X108240001Y-105387332D01*
X108240001Y-106082689D01*
X108051898Y-106004774D01*
X107851939Y-105965000D01*
X107648061Y-105965000D01*
X107448102Y-106004774D01*
X107260000Y-106082689D01*
X107260000Y-104464801D01*
X116461004Y-95263798D01*
X116490001Y-95240001D01*
X116584974Y-95124276D01*
X116655546Y-94992247D01*
X116699003Y-94848986D01*
X116710000Y-94737333D01*
X116710000Y-94737324D01*
X116713676Y-94700001D01*
X116710000Y-94662678D01*
X116710000Y-89396382D01*
X116828509Y-89445470D01*
G36*
X126988509Y-89445470D02*
G01*
X127267680Y-89501000D01*
X127552320Y-89501000D01*
X127831491Y-89445470D01*
X127890001Y-89421234D01*
X127890000Y-100285198D01*
X125438998Y-102736201D01*
X125410000Y-102759999D01*
X125386202Y-102788997D01*
X125386201Y-102788998D01*
X125315026Y-102875724D01*
X125244454Y-103007754D01*
X125200998Y-103151015D01*
X125186324Y-103300000D01*
X125190001Y-103337332D01*
X125190000Y-106082689D01*
X125001898Y-106004774D01*
X124801939Y-105965000D01*
X124598061Y-105965000D01*
X124398102Y-106004774D01*
X124210000Y-106082689D01*
X124210000Y-102464801D01*
X126611004Y-100063798D01*
X126640001Y-100040001D01*
X126673647Y-99999003D01*
X126734974Y-99924277D01*
X126805546Y-99792247D01*
X126816009Y-99757753D01*
X126849003Y-99648986D01*
X126860000Y-99537333D01*
X126860000Y-99537323D01*
X126863676Y-99500000D01*
X126860000Y-99462677D01*
X126860000Y-89392240D01*
X126988509Y-89445470D01*
G37*
X126988509Y-89445470D02*
X127267680Y-89501000D01*
X127552320Y-89501000D01*
X127831491Y-89445470D01*
X127890001Y-89421234D01*
X127890000Y-100285198D01*
X125438998Y-102736201D01*
X125410000Y-102759999D01*
X125386202Y-102788997D01*
X125386201Y-102788998D01*
X125315026Y-102875724D01*
X125244454Y-103007754D01*
X125200998Y-103151015D01*
X125186324Y-103300000D01*
X125190001Y-103337332D01*
X125190000Y-106082689D01*
X125001898Y-106004774D01*
X124801939Y-105965000D01*
X124598061Y-105965000D01*
X124398102Y-106004774D01*
X124210000Y-106082689D01*
X124210000Y-102464801D01*
X126611004Y-100063798D01*
X126640001Y-100040001D01*
X126673647Y-99999003D01*
X126734974Y-99924277D01*
X126805546Y-99792247D01*
X126816009Y-99757753D01*
X126849003Y-99648986D01*
X126860000Y-99537333D01*
X126860000Y-99537323D01*
X126863676Y-99500000D01*
X126860000Y-99462677D01*
X126860000Y-89392240D01*
X126988509Y-89445470D01*
G36*
X147308509Y-89445470D02*
G01*
X147587680Y-89501000D01*
X147872320Y-89501000D01*
X148151491Y-89445470D01*
X148240001Y-89408808D01*
X148240000Y-97262678D01*
X148236324Y-97300000D01*
X148240000Y-97337322D01*
X148240000Y-97337332D01*
X148250997Y-97448985D01*
X148277081Y-97534973D01*
X148294454Y-97592246D01*
X148365026Y-97724276D01*
X148379774Y-97742246D01*
X148459999Y-97840001D01*
X148489003Y-97863804D01*
X149640001Y-99014803D01*
X149640000Y-106082689D01*
X149451898Y-106004774D01*
X149251939Y-105965000D01*
X149048061Y-105965000D01*
X148848102Y-106004774D01*
X148660000Y-106082689D01*
X148660000Y-99837325D01*
X148663676Y-99800000D01*
X148660000Y-99762675D01*
X148660000Y-99762667D01*
X148649003Y-99651014D01*
X148605546Y-99507753D01*
X148534974Y-99375724D01*
X148440001Y-99259999D01*
X148411003Y-99236201D01*
X147210000Y-98035199D01*
X147210000Y-89404666D01*
X147308509Y-89445470D01*
G37*
X147308509Y-89445470D02*
X147587680Y-89501000D01*
X147872320Y-89501000D01*
X148151491Y-89445470D01*
X148240001Y-89408808D01*
X148240000Y-97262678D01*
X148236324Y-97300000D01*
X148240000Y-97337322D01*
X148240000Y-97337332D01*
X148250997Y-97448985D01*
X148277081Y-97534973D01*
X148294454Y-97592246D01*
X148365026Y-97724276D01*
X148379774Y-97742246D01*
X148459999Y-97840001D01*
X148489003Y-97863804D01*
X149640001Y-99014803D01*
X149640000Y-106082689D01*
X149451898Y-106004774D01*
X149251939Y-105965000D01*
X149048061Y-105965000D01*
X148848102Y-106004774D01*
X148660000Y-106082689D01*
X148660000Y-99837325D01*
X148663676Y-99800000D01*
X148660000Y-99762675D01*
X148660000Y-99762667D01*
X148649003Y-99651014D01*
X148605546Y-99507753D01*
X148534974Y-99375724D01*
X148440001Y-99259999D01*
X148411003Y-99236201D01*
X147210000Y-98035199D01*
X147210000Y-89404666D01*
X147308509Y-89445470D01*
G36*
X157468509Y-89445470D02*
G01*
X157747680Y-89501000D01*
X158032320Y-89501000D01*
X158311491Y-89445470D01*
X158390000Y-89412950D01*
X158390000Y-92212678D01*
X158386324Y-92250000D01*
X158390000Y-92287322D01*
X158390000Y-92287332D01*
X158400997Y-92398985D01*
X158444454Y-92542246D01*
X158515026Y-92674276D01*
X158554871Y-92722826D01*
X158609999Y-92790001D01*
X158639003Y-92813804D01*
X166590001Y-100764803D01*
X166590000Y-106082689D01*
X166401898Y-106004774D01*
X166201939Y-105965000D01*
X165998061Y-105965000D01*
X165798102Y-106004774D01*
X165610000Y-106082689D01*
X165610000Y-101887323D01*
X165613676Y-101850000D01*
X165610000Y-101812677D01*
X165610000Y-101812667D01*
X165599003Y-101701014D01*
X165555546Y-101557753D01*
X165532708Y-101515026D01*
X165484974Y-101425723D01*
X165413799Y-101338997D01*
X165390001Y-101309999D01*
X165361003Y-101286201D01*
X157360000Y-93285199D01*
X157360000Y-89400524D01*
X157468509Y-89445470D01*
G37*
X157468509Y-89445470D02*
X157747680Y-89501000D01*
X158032320Y-89501000D01*
X158311491Y-89445470D01*
X158390000Y-89412950D01*
X158390000Y-92212678D01*
X158386324Y-92250000D01*
X158390000Y-92287322D01*
X158390000Y-92287332D01*
X158400997Y-92398985D01*
X158444454Y-92542246D01*
X158515026Y-92674276D01*
X158554871Y-92722826D01*
X158609999Y-92790001D01*
X158639003Y-92813804D01*
X166590001Y-100764803D01*
X166590000Y-106082689D01*
X166401898Y-106004774D01*
X166201939Y-105965000D01*
X165998061Y-105965000D01*
X165798102Y-106004774D01*
X165610000Y-106082689D01*
X165610000Y-101887323D01*
X165613676Y-101850000D01*
X165610000Y-101812677D01*
X165610000Y-101812667D01*
X165599003Y-101701014D01*
X165555546Y-101557753D01*
X165532708Y-101515026D01*
X165484974Y-101425723D01*
X165413799Y-101338997D01*
X165390001Y-101309999D01*
X165361003Y-101286201D01*
X157360000Y-93285199D01*
X157360000Y-89400524D01*
X157468509Y-89445470D01*
G36*
X152388509Y-89445470D02*
G01*
X152667680Y-89501000D01*
X152952320Y-89501000D01*
X153231491Y-89445470D01*
X153290001Y-89421235D01*
X153290000Y-94762678D01*
X153286324Y-94800000D01*
X153290000Y-94837322D01*
X153290000Y-94837332D01*
X153300997Y-94948985D01*
X153342658Y-95086324D01*
X153344454Y-95092246D01*
X153415026Y-95224276D01*
X153454871Y-95272826D01*
X153509999Y-95340001D01*
X153539003Y-95363804D01*
X154640001Y-96464803D01*
X154640000Y-106082689D01*
X154451898Y-106004774D01*
X154251939Y-105965000D01*
X154048061Y-105965000D01*
X153848102Y-106004774D01*
X153660000Y-106082689D01*
X153660000Y-97487322D01*
X153663676Y-97449999D01*
X153660000Y-97412676D01*
X153660000Y-97412667D01*
X153649003Y-97301014D01*
X153605546Y-97157753D01*
X153534974Y-97025724D01*
X153440001Y-96909999D01*
X153411003Y-96886201D01*
X152310000Y-95785199D01*
X152310000Y-89412951D01*
X152388509Y-89445470D01*
G37*
X152388509Y-89445470D02*
X152667680Y-89501000D01*
X152952320Y-89501000D01*
X153231491Y-89445470D01*
X153290001Y-89421235D01*
X153290000Y-94762678D01*
X153286324Y-94800000D01*
X153290000Y-94837322D01*
X153290000Y-94837332D01*
X153300997Y-94948985D01*
X153342658Y-95086324D01*
X153344454Y-95092246D01*
X153415026Y-95224276D01*
X153454871Y-95272826D01*
X153509999Y-95340001D01*
X153539003Y-95363804D01*
X154640001Y-96464803D01*
X154640000Y-106082689D01*
X154451898Y-106004774D01*
X154251939Y-105965000D01*
X154048061Y-105965000D01*
X153848102Y-106004774D01*
X153660000Y-106082689D01*
X153660000Y-97487322D01*
X153663676Y-97449999D01*
X153660000Y-97412676D01*
X153660000Y-97412667D01*
X153649003Y-97301014D01*
X153605546Y-97157753D01*
X153534974Y-97025724D01*
X153440001Y-96909999D01*
X153411003Y-96886201D01*
X152310000Y-95785199D01*
X152310000Y-89412951D01*
X152388509Y-89445470D01*
G36*
X163490000Y-90012677D02*
G01*
X163486324Y-90050000D01*
X163490000Y-90087322D01*
X163490000Y-90087332D01*
X163500997Y-90198985D01*
X163542658Y-90336324D01*
X163544454Y-90342246D01*
X163615026Y-90474276D01*
X163654871Y-90522826D01*
X163709999Y-90590001D01*
X163739003Y-90613804D01*
X171590001Y-98464803D01*
X171590000Y-106082689D01*
X171401898Y-106004774D01*
X171201939Y-105965000D01*
X170998061Y-105965000D01*
X170798102Y-106004774D01*
X170610000Y-106082689D01*
X170610000Y-99287333D01*
X170613677Y-99250000D01*
X170599003Y-99101014D01*
X170555546Y-98957753D01*
X170484974Y-98825724D01*
X170413799Y-98738997D01*
X170390001Y-98709999D01*
X170361003Y-98686201D01*
X162460000Y-90785199D01*
X162460000Y-89408808D01*
X162548509Y-89445470D01*
X162827680Y-89501000D01*
X163112320Y-89501000D01*
X163391491Y-89445470D01*
X163490000Y-89404666D01*
X163490000Y-90012677D01*
G37*
X163490000Y-90012677D02*
X163486324Y-90050000D01*
X163490000Y-90087322D01*
X163490000Y-90087332D01*
X163500997Y-90198985D01*
X163542658Y-90336324D01*
X163544454Y-90342246D01*
X163615026Y-90474276D01*
X163654871Y-90522826D01*
X163709999Y-90590001D01*
X163739003Y-90613804D01*
X171590001Y-98464803D01*
X171590000Y-106082689D01*
X171401898Y-106004774D01*
X171201939Y-105965000D01*
X170998061Y-105965000D01*
X170798102Y-106004774D01*
X170610000Y-106082689D01*
X170610000Y-99287333D01*
X170613677Y-99250000D01*
X170599003Y-99101014D01*
X170555546Y-98957753D01*
X170484974Y-98825724D01*
X170413799Y-98738997D01*
X170390001Y-98709999D01*
X170361003Y-98686201D01*
X162460000Y-90785199D01*
X162460000Y-89408808D01*
X162548509Y-89445470D01*
X162827680Y-89501000D01*
X163112320Y-89501000D01*
X163391491Y-89445470D01*
X163490000Y-89404666D01*
X163490000Y-90012677D01*
G36*
X124448509Y-89445470D02*
G01*
X124727680Y-89501000D01*
X125012320Y-89501000D01*
X125291491Y-89445470D01*
X125340001Y-89425377D01*
X125340000Y-99185198D01*
X122938998Y-101586201D01*
X122910000Y-101609999D01*
X122886202Y-101638997D01*
X122886201Y-101638998D01*
X122815026Y-101725724D01*
X122744454Y-101857754D01*
X122731947Y-101898986D01*
X122700998Y-102001014D01*
X122693640Y-102075723D01*
X122686324Y-102150000D01*
X122690001Y-102187332D01*
X122690000Y-106082689D01*
X122501898Y-106004774D01*
X122301939Y-105965000D01*
X122098061Y-105965000D01*
X121898102Y-106004774D01*
X121710000Y-106082689D01*
X121710000Y-101214801D01*
X124111004Y-98813798D01*
X124140001Y-98790001D01*
X124184053Y-98736324D01*
X124234974Y-98674277D01*
X124305546Y-98542247D01*
X124333220Y-98451015D01*
X124349003Y-98398986D01*
X124360000Y-98287333D01*
X124360000Y-98287323D01*
X124363676Y-98250000D01*
X124360000Y-98212677D01*
X124360000Y-89408808D01*
X124448509Y-89445470D01*
G37*
X124448509Y-89445470D02*
X124727680Y-89501000D01*
X125012320Y-89501000D01*
X125291491Y-89445470D01*
X125340001Y-89425377D01*
X125340000Y-99185198D01*
X122938998Y-101586201D01*
X122910000Y-101609999D01*
X122886202Y-101638997D01*
X122886201Y-101638998D01*
X122815026Y-101725724D01*
X122744454Y-101857754D01*
X122731947Y-101898986D01*
X122700998Y-102001014D01*
X122693640Y-102075723D01*
X122686324Y-102150000D01*
X122690001Y-102187332D01*
X122690000Y-106082689D01*
X122501898Y-106004774D01*
X122301939Y-105965000D01*
X122098061Y-105965000D01*
X121898102Y-106004774D01*
X121710000Y-106082689D01*
X121710000Y-101214801D01*
X124111004Y-98813798D01*
X124140001Y-98790001D01*
X124184053Y-98736324D01*
X124234974Y-98674277D01*
X124305546Y-98542247D01*
X124333220Y-98451015D01*
X124349003Y-98398986D01*
X124360000Y-98287333D01*
X124360000Y-98287323D01*
X124363676Y-98250000D01*
X124360000Y-98212677D01*
X124360000Y-89408808D01*
X124448509Y-89445470D01*
G36*
X176590001Y-92590803D02*
G01*
X176590000Y-106082689D01*
X176401898Y-106004774D01*
X176201939Y-105965000D01*
X175998061Y-105965000D01*
X175798102Y-106004774D01*
X175610000Y-106082689D01*
X175610000Y-96937322D01*
X175613676Y-96899999D01*
X175610000Y-96862676D01*
X175610000Y-96862667D01*
X175599003Y-96751014D01*
X175555546Y-96607753D01*
X175484974Y-96475724D01*
X175390001Y-96359999D01*
X175361003Y-96336201D01*
X168470474Y-89445672D01*
X168471491Y-89445470D01*
X168734464Y-89336543D01*
X168971134Y-89178405D01*
X169172405Y-88977134D01*
X169330543Y-88740464D01*
X169439470Y-88477491D01*
X169495000Y-88198320D01*
X169495000Y-87913680D01*
X169439470Y-87634509D01*
X169330543Y-87371536D01*
X169172405Y-87134866D01*
X168971134Y-86933595D01*
X168750243Y-86786000D01*
X168971134Y-86638405D01*
X169172405Y-86437134D01*
X169330543Y-86200464D01*
X169439470Y-85937491D01*
X169495000Y-85658320D01*
X169495000Y-85495801D01*
X176590001Y-92590803D01*
G37*
X176590001Y-92590803D02*
X176590000Y-106082689D01*
X176401898Y-106004774D01*
X176201939Y-105965000D01*
X175998061Y-105965000D01*
X175798102Y-106004774D01*
X175610000Y-106082689D01*
X175610000Y-96937322D01*
X175613676Y-96899999D01*
X175610000Y-96862676D01*
X175610000Y-96862667D01*
X175599003Y-96751014D01*
X175555546Y-96607753D01*
X175484974Y-96475724D01*
X175390001Y-96359999D01*
X175361003Y-96336201D01*
X168470474Y-89445672D01*
X168471491Y-89445470D01*
X168734464Y-89336543D01*
X168971134Y-89178405D01*
X169172405Y-88977134D01*
X169330543Y-88740464D01*
X169439470Y-88477491D01*
X169495000Y-88198320D01*
X169495000Y-87913680D01*
X169439470Y-87634509D01*
X169330543Y-87371536D01*
X169172405Y-87134866D01*
X168971134Y-86933595D01*
X168750243Y-86786000D01*
X168971134Y-86638405D01*
X169172405Y-86437134D01*
X169330543Y-86200464D01*
X169439470Y-85937491D01*
X169495000Y-85658320D01*
X169495000Y-85495801D01*
X176590001Y-92590803D01*
G36*
X114288509Y-89445470D02*
G01*
X114567680Y-89501000D01*
X114852320Y-89501000D01*
X115131491Y-89445470D01*
X115190001Y-89421235D01*
X115190000Y-94385198D01*
X105988998Y-103586201D01*
X105960000Y-103609999D01*
X105936202Y-103638997D01*
X105936201Y-103638998D01*
X105865026Y-103725724D01*
X105794454Y-103857754D01*
X105771031Y-103934974D01*
X105750998Y-104001014D01*
X105744826Y-104063676D01*
X105736324Y-104150000D01*
X105740001Y-104187332D01*
X105740000Y-106082689D01*
X105551898Y-106004774D01*
X105351939Y-105965000D01*
X105148061Y-105965000D01*
X104948102Y-106004774D01*
X104760000Y-106082689D01*
X104760000Y-103214801D01*
X113961004Y-94013798D01*
X113990001Y-93990001D01*
X114084974Y-93874276D01*
X114155546Y-93742247D01*
X114199003Y-93598986D01*
X114210000Y-93487333D01*
X114210000Y-93487324D01*
X114213676Y-93450001D01*
X114210000Y-93412678D01*
X114210000Y-89412951D01*
X114288509Y-89445470D01*
G37*
X114288509Y-89445470D02*
X114567680Y-89501000D01*
X114852320Y-89501000D01*
X115131491Y-89445470D01*
X115190001Y-89421235D01*
X115190000Y-94385198D01*
X105988998Y-103586201D01*
X105960000Y-103609999D01*
X105936202Y-103638997D01*
X105936201Y-103638998D01*
X105865026Y-103725724D01*
X105794454Y-103857754D01*
X105771031Y-103934974D01*
X105750998Y-104001014D01*
X105744826Y-104063676D01*
X105736324Y-104150000D01*
X105740001Y-104187332D01*
X105740000Y-106082689D01*
X105551898Y-106004774D01*
X105351939Y-105965000D01*
X105148061Y-105965000D01*
X104948102Y-106004774D01*
X104760000Y-106082689D01*
X104760000Y-103214801D01*
X113961004Y-94013798D01*
X113990001Y-93990001D01*
X114084974Y-93874276D01*
X114155546Y-93742247D01*
X114199003Y-93598986D01*
X114210000Y-93487333D01*
X114210000Y-93487324D01*
X114213676Y-93450001D01*
X114210000Y-93412678D01*
X114210000Y-89412951D01*
X114288509Y-89445470D01*
G36*
X166259999Y-89390001D02*
G01*
X166289003Y-89413804D01*
X174090001Y-97214803D01*
X174090000Y-106082689D01*
X173901898Y-106004774D01*
X173701939Y-105965000D01*
X173498061Y-105965000D01*
X173298102Y-106004774D01*
X173110000Y-106082689D01*
X173110000Y-98187323D01*
X173113676Y-98150000D01*
X173110000Y-98112677D01*
X173110000Y-98112667D01*
X173099003Y-98001014D01*
X173055546Y-97857753D01*
X172984974Y-97725724D01*
X172890001Y-97609999D01*
X172861003Y-97586201D01*
X165010000Y-89735199D01*
X165010000Y-89412951D01*
X165088509Y-89445470D01*
X165367680Y-89501000D01*
X165652320Y-89501000D01*
X165931491Y-89445470D01*
X166194464Y-89336543D01*
X166208455Y-89327194D01*
X166259999Y-89390001D01*
G37*
X166259999Y-89390001D02*
X166289003Y-89413804D01*
X174090001Y-97214803D01*
X174090000Y-106082689D01*
X173901898Y-106004774D01*
X173701939Y-105965000D01*
X173498061Y-105965000D01*
X173298102Y-106004774D01*
X173110000Y-106082689D01*
X173110000Y-98187323D01*
X173113676Y-98150000D01*
X173110000Y-98112677D01*
X173110000Y-98112667D01*
X173099003Y-98001014D01*
X173055546Y-97857753D01*
X172984974Y-97725724D01*
X172890001Y-97609999D01*
X172861003Y-97586201D01*
X165010000Y-89735199D01*
X165010000Y-89412951D01*
X165088509Y-89445470D01*
X165367680Y-89501000D01*
X165652320Y-89501000D01*
X165931491Y-89445470D01*
X166194464Y-89336543D01*
X166208455Y-89327194D01*
X166259999Y-89390001D01*
G36*
X144768509Y-89445470D02*
G01*
X145047680Y-89501000D01*
X145332320Y-89501000D01*
X145611491Y-89445470D01*
X145690001Y-89412950D01*
X145690000Y-98312678D01*
X145686324Y-98350000D01*
X145690000Y-98387322D01*
X145690000Y-98387332D01*
X145700997Y-98498985D01*
X145723836Y-98574276D01*
X145744454Y-98642246D01*
X145815026Y-98774276D01*
X145831586Y-98794454D01*
X145909999Y-98890001D01*
X145939003Y-98913804D01*
X147140001Y-100114803D01*
X147140000Y-106082689D01*
X146951898Y-106004774D01*
X146751939Y-105965000D01*
X146548061Y-105965000D01*
X146348102Y-106004774D01*
X146160000Y-106082689D01*
X146160000Y-101187322D01*
X146163676Y-101149999D01*
X146160000Y-101112676D01*
X146160000Y-101112667D01*
X146149003Y-101001014D01*
X146105546Y-100857753D01*
X146034974Y-100725724D01*
X145940001Y-100609999D01*
X145911003Y-100586201D01*
X144660000Y-99335199D01*
X144660000Y-89400524D01*
X144768509Y-89445470D01*
G37*
X144768509Y-89445470D02*
X145047680Y-89501000D01*
X145332320Y-89501000D01*
X145611491Y-89445470D01*
X145690001Y-89412950D01*
X145690000Y-98312678D01*
X145686324Y-98350000D01*
X145690000Y-98387322D01*
X145690000Y-98387332D01*
X145700997Y-98498985D01*
X145723836Y-98574276D01*
X145744454Y-98642246D01*
X145815026Y-98774276D01*
X145831586Y-98794454D01*
X145909999Y-98890001D01*
X145939003Y-98913804D01*
X147140001Y-100114803D01*
X147140000Y-106082689D01*
X146951898Y-106004774D01*
X146751939Y-105965000D01*
X146548061Y-105965000D01*
X146348102Y-106004774D01*
X146160000Y-106082689D01*
X146160000Y-101187322D01*
X146163676Y-101149999D01*
X146160000Y-101112676D01*
X146160000Y-101112667D01*
X146149003Y-101001014D01*
X146105546Y-100857753D01*
X146034974Y-100725724D01*
X145940001Y-100609999D01*
X145911003Y-100586201D01*
X144660000Y-99335199D01*
X144660000Y-89400524D01*
X144768509Y-89445470D01*
G36*
X142228509Y-89445470D02*
G01*
X142507680Y-89501000D01*
X142792320Y-89501000D01*
X143071491Y-89445470D01*
X143140001Y-89417092D01*
X143140000Y-99612678D01*
X143136324Y-99650000D01*
X143140000Y-99687322D01*
X143140000Y-99687332D01*
X143150997Y-99798985D01*
X143177081Y-99884974D01*
X143194454Y-99942246D01*
X143265026Y-100074276D01*
X143279774Y-100092246D01*
X143359999Y-100190001D01*
X143389003Y-100213804D01*
X144640001Y-101464803D01*
X144640000Y-106082689D01*
X144451898Y-106004774D01*
X144251939Y-105965000D01*
X144048061Y-105965000D01*
X143848102Y-106004774D01*
X143660000Y-106082689D01*
X143660000Y-102537322D01*
X143663676Y-102499999D01*
X143660000Y-102462677D01*
X143660000Y-102462667D01*
X143649003Y-102351014D01*
X143605546Y-102207753D01*
X143594026Y-102186201D01*
X143534974Y-102075723D01*
X143463799Y-101988997D01*
X143440001Y-101959999D01*
X143411003Y-101936201D01*
X142110000Y-100635199D01*
X142110000Y-89396382D01*
X142228509Y-89445470D01*
G37*
X142228509Y-89445470D02*
X142507680Y-89501000D01*
X142792320Y-89501000D01*
X143071491Y-89445470D01*
X143140001Y-89417092D01*
X143140000Y-99612678D01*
X143136324Y-99650000D01*
X143140000Y-99687322D01*
X143140000Y-99687332D01*
X143150997Y-99798985D01*
X143177081Y-99884974D01*
X143194454Y-99942246D01*
X143265026Y-100074276D01*
X143279774Y-100092246D01*
X143359999Y-100190001D01*
X143389003Y-100213804D01*
X144640001Y-101464803D01*
X144640000Y-106082689D01*
X144451898Y-106004774D01*
X144251939Y-105965000D01*
X144048061Y-105965000D01*
X143848102Y-106004774D01*
X143660000Y-106082689D01*
X143660000Y-102537322D01*
X143663676Y-102499999D01*
X143660000Y-102462677D01*
X143660000Y-102462667D01*
X143649003Y-102351014D01*
X143605546Y-102207753D01*
X143594026Y-102186201D01*
X143534974Y-102075723D01*
X143463799Y-101988997D01*
X143440001Y-101959999D01*
X143411003Y-101936201D01*
X142110000Y-100635199D01*
X142110000Y-89396382D01*
X142228509Y-89445470D01*
G36*
X139688509Y-89445470D02*
G01*
X139967680Y-89501000D01*
X140252320Y-89501000D01*
X140531491Y-89445470D01*
X140590001Y-89421234D01*
X140590000Y-100912678D01*
X140586324Y-100950000D01*
X140590000Y-100987322D01*
X140590000Y-100987332D01*
X140600997Y-101098985D01*
X140635788Y-101213676D01*
X140644454Y-101242246D01*
X140715026Y-101374276D01*
X140724913Y-101386323D01*
X140809999Y-101490001D01*
X140839003Y-101513804D01*
X142140001Y-102814803D01*
X142140000Y-106082689D01*
X141951898Y-106004774D01*
X141751939Y-105965000D01*
X141548061Y-105965000D01*
X141348102Y-106004774D01*
X141160000Y-106082689D01*
X141160000Y-104337322D01*
X141163676Y-104299999D01*
X141160000Y-104262677D01*
X141160000Y-104262667D01*
X141149003Y-104151014D01*
X141105546Y-104007753D01*
X141080021Y-103959999D01*
X141034974Y-103875723D01*
X140963799Y-103788997D01*
X140940001Y-103759999D01*
X140911003Y-103736201D01*
X139610000Y-102435199D01*
X139610000Y-89412951D01*
X139688509Y-89445470D01*
G37*
X139688509Y-89445470D02*
X139967680Y-89501000D01*
X140252320Y-89501000D01*
X140531491Y-89445470D01*
X140590001Y-89421234D01*
X140590000Y-100912678D01*
X140586324Y-100950000D01*
X140590000Y-100987322D01*
X140590000Y-100987332D01*
X140600997Y-101098985D01*
X140635788Y-101213676D01*
X140644454Y-101242246D01*
X140715026Y-101374276D01*
X140724913Y-101386323D01*
X140809999Y-101490001D01*
X140839003Y-101513804D01*
X142140001Y-102814803D01*
X142140000Y-106082689D01*
X141951898Y-106004774D01*
X141751939Y-105965000D01*
X141548061Y-105965000D01*
X141348102Y-106004774D01*
X141160000Y-106082689D01*
X141160000Y-104337322D01*
X141163676Y-104299999D01*
X141160000Y-104262677D01*
X141160000Y-104262667D01*
X141149003Y-104151014D01*
X141105546Y-104007753D01*
X141080021Y-103959999D01*
X141034974Y-103875723D01*
X140963799Y-103788997D01*
X140940001Y-103759999D01*
X140911003Y-103736201D01*
X139610000Y-102435199D01*
X139610000Y-89412951D01*
X139688509Y-89445470D01*
G36*
X109208509Y-89445470D02*
G01*
X109487680Y-89501000D01*
X109772320Y-89501000D01*
X110051491Y-89445470D01*
X110140000Y-89408808D01*
X110140000Y-91735197D01*
X100988998Y-100886201D01*
X100960000Y-100909999D01*
X100936202Y-100938997D01*
X100936201Y-100938998D01*
X100865026Y-101025724D01*
X100794454Y-101157754D01*
X100771031Y-101234974D01*
X100750998Y-101301014D01*
X100744826Y-101363677D01*
X100736324Y-101450000D01*
X100740001Y-101487332D01*
X100740000Y-106082689D01*
X100551898Y-106004774D01*
X100351939Y-105965000D01*
X100148061Y-105965000D01*
X99948102Y-106004774D01*
X99760000Y-106082689D01*
X99760000Y-100364801D01*
X108861004Y-91263798D01*
X108890001Y-91240001D01*
X108984974Y-91124276D01*
X109055546Y-90992247D01*
X109099003Y-90848986D01*
X109110000Y-90737333D01*
X109110000Y-90737323D01*
X109113676Y-90700000D01*
X109110000Y-90662677D01*
X109110000Y-89404666D01*
X109208509Y-89445470D01*
G37*
X109208509Y-89445470D02*
X109487680Y-89501000D01*
X109772320Y-89501000D01*
X110051491Y-89445470D01*
X110140000Y-89408808D01*
X110140000Y-91735197D01*
X100988998Y-100886201D01*
X100960000Y-100909999D01*
X100936202Y-100938997D01*
X100936201Y-100938998D01*
X100865026Y-101025724D01*
X100794454Y-101157754D01*
X100771031Y-101234974D01*
X100750998Y-101301014D01*
X100744826Y-101363677D01*
X100736324Y-101450000D01*
X100740001Y-101487332D01*
X100740000Y-106082689D01*
X100551898Y-106004774D01*
X100351939Y-105965000D01*
X100148061Y-105965000D01*
X99948102Y-106004774D01*
X99760000Y-106082689D01*
X99760000Y-100364801D01*
X108861004Y-91263798D01*
X108890001Y-91240001D01*
X108984974Y-91124276D01*
X109055546Y-90992247D01*
X109099003Y-90848986D01*
X109110000Y-90737333D01*
X109110000Y-90737323D01*
X109113676Y-90700000D01*
X109110000Y-90662677D01*
X109110000Y-89404666D01*
X109208509Y-89445470D01*
G36*
X129528509Y-89445470D02*
G01*
X129807680Y-89501000D01*
X130092320Y-89501000D01*
X130371491Y-89445470D01*
X130440001Y-89417092D01*
X130440000Y-101435198D01*
X127938998Y-103936201D01*
X127910000Y-103959999D01*
X127886202Y-103988997D01*
X127886201Y-103988998D01*
X127815026Y-104075724D01*
X127744454Y-104207754D01*
X127700998Y-104351015D01*
X127686324Y-104500000D01*
X127690001Y-104537332D01*
X127690000Y-106082689D01*
X127501898Y-106004774D01*
X127301939Y-105965000D01*
X127098061Y-105965000D01*
X126898102Y-106004774D01*
X126710000Y-106082689D01*
X126710000Y-103614801D01*
X129161004Y-101163798D01*
X129190001Y-101140001D01*
X129284974Y-101024276D01*
X129355546Y-100892247D01*
X129399003Y-100748986D01*
X129410000Y-100637333D01*
X129410000Y-100637332D01*
X129413677Y-100600000D01*
X129410000Y-100562667D01*
X129410000Y-89396382D01*
X129528509Y-89445470D01*
G37*
X129528509Y-89445470D02*
X129807680Y-89501000D01*
X130092320Y-89501000D01*
X130371491Y-89445470D01*
X130440001Y-89417092D01*
X130440000Y-101435198D01*
X127938998Y-103936201D01*
X127910000Y-103959999D01*
X127886202Y-103988997D01*
X127886201Y-103988998D01*
X127815026Y-104075724D01*
X127744454Y-104207754D01*
X127700998Y-104351015D01*
X127686324Y-104500000D01*
X127690001Y-104537332D01*
X127690000Y-106082689D01*
X127501898Y-106004774D01*
X127301939Y-105965000D01*
X127098061Y-105965000D01*
X126898102Y-106004774D01*
X126710000Y-106082689D01*
X126710000Y-103614801D01*
X129161004Y-101163798D01*
X129190001Y-101140001D01*
X129284974Y-101024276D01*
X129355546Y-100892247D01*
X129399003Y-100748986D01*
X129410000Y-100637333D01*
X129410000Y-100637332D01*
X129413677Y-100600000D01*
X129410000Y-100562667D01*
X129410000Y-89396382D01*
X129528509Y-89445470D01*
G36*
X106668509Y-89445470D02*
G01*
X106947680Y-89501000D01*
X107232320Y-89501000D01*
X107511491Y-89445470D01*
X107590000Y-89412950D01*
X107590000Y-90385198D01*
X98488998Y-99486201D01*
X98460000Y-99509999D01*
X98436202Y-99538997D01*
X98436201Y-99538998D01*
X98365026Y-99625724D01*
X98294454Y-99757754D01*
X98250998Y-99901015D01*
X98236324Y-100050000D01*
X98240001Y-100087332D01*
X98240000Y-106082689D01*
X98051898Y-106004774D01*
X97851939Y-105965000D01*
X97648061Y-105965000D01*
X97448102Y-106004774D01*
X97260000Y-106082689D01*
X97260000Y-98914801D01*
X106311004Y-89863798D01*
X106340001Y-89840001D01*
X106366332Y-89807917D01*
X106434974Y-89724277D01*
X106505546Y-89592247D01*
X106538086Y-89484974D01*
X106549003Y-89448986D01*
X106554020Y-89398047D01*
X106668509Y-89445470D01*
G37*
X106668509Y-89445470D02*
X106947680Y-89501000D01*
X107232320Y-89501000D01*
X107511491Y-89445470D01*
X107590000Y-89412950D01*
X107590000Y-90385198D01*
X98488998Y-99486201D01*
X98460000Y-99509999D01*
X98436202Y-99538997D01*
X98436201Y-99538998D01*
X98365026Y-99625724D01*
X98294454Y-99757754D01*
X98250998Y-99901015D01*
X98236324Y-100050000D01*
X98240001Y-100087332D01*
X98240000Y-106082689D01*
X98051898Y-106004774D01*
X97851939Y-105965000D01*
X97648061Y-105965000D01*
X97448102Y-106004774D01*
X97260000Y-106082689D01*
X97260000Y-98914801D01*
X106311004Y-89863798D01*
X106340001Y-89840001D01*
X106366332Y-89807917D01*
X106434974Y-89724277D01*
X106505546Y-89592247D01*
X106538086Y-89484974D01*
X106549003Y-89448986D01*
X106554020Y-89398047D01*
X106668509Y-89445470D01*
G36*
X136447595Y-86437134D02*
G01*
X136648866Y-86638405D01*
X136869757Y-86786000D01*
X136648866Y-86933595D01*
X136447595Y-87134866D01*
X136300000Y-87355757D01*
X136152405Y-87134866D01*
X135951134Y-86933595D01*
X135730243Y-86786000D01*
X135951134Y-86638405D01*
X136152405Y-86437134D01*
X136300000Y-86216243D01*
X136447595Y-86437134D01*
G37*
X136447595Y-86437134D02*
X136648866Y-86638405D01*
X136869757Y-86786000D01*
X136648866Y-86933595D01*
X136447595Y-87134866D01*
X136300000Y-87355757D01*
X136152405Y-87134866D01*
X135951134Y-86933595D01*
X135730243Y-86786000D01*
X135951134Y-86638405D01*
X136152405Y-86437134D01*
X136300000Y-86216243D01*
X136447595Y-86437134D01*
G36*
X136447595Y-83897134D02*
G01*
X136648866Y-84098405D01*
X136869757Y-84246000D01*
X136648866Y-84393595D01*
X136447595Y-84594866D01*
X136300000Y-84815757D01*
X136152405Y-84594866D01*
X135951134Y-84393595D01*
X135730243Y-84246000D01*
X135951134Y-84098405D01*
X136152405Y-83897134D01*
X136300000Y-83676243D01*
X136447595Y-83897134D01*
G37*
X136447595Y-83897134D02*
X136648866Y-84098405D01*
X136869757Y-84246000D01*
X136648866Y-84393595D01*
X136447595Y-84594866D01*
X136300000Y-84815757D01*
X136152405Y-84594866D01*
X135951134Y-84393595D01*
X135730243Y-84246000D01*
X135951134Y-84098405D01*
X136152405Y-83897134D01*
X136300000Y-83676243D01*
X136447595Y-83897134D01*
G36*
X108507595Y-81357134D02*
G01*
X108708866Y-81558405D01*
X108929757Y-81706000D01*
X108708866Y-81853595D01*
X108507595Y-82054866D01*
X108360000Y-82275757D01*
X108212405Y-82054866D01*
X108011134Y-81853595D01*
X107790243Y-81706000D01*
X108011134Y-81558405D01*
X108212405Y-81357134D01*
X108360000Y-81136243D01*
X108507595Y-81357134D01*
G37*
X108507595Y-81357134D02*
X108708866Y-81558405D01*
X108929757Y-81706000D01*
X108708866Y-81853595D01*
X108507595Y-82054866D01*
X108360000Y-82275757D01*
X108212405Y-82054866D01*
X108011134Y-81853595D01*
X107790243Y-81706000D01*
X108011134Y-81558405D01*
X108212405Y-81357134D01*
X108360000Y-81136243D01*
X108507595Y-81357134D01*
G36*
X138987595Y-81357134D02*
G01*
X139188866Y-81558405D01*
X139409757Y-81706000D01*
X139188866Y-81853595D01*
X138987595Y-82054866D01*
X138840000Y-82275757D01*
X138692405Y-82054866D01*
X138491134Y-81853595D01*
X138270243Y-81706000D01*
X138491134Y-81558405D01*
X138692405Y-81357134D01*
X138840000Y-81136243D01*
X138987595Y-81357134D01*
G37*
X138987595Y-81357134D02*
X139188866Y-81558405D01*
X139409757Y-81706000D01*
X139188866Y-81853595D01*
X138987595Y-82054866D01*
X138840000Y-82275757D01*
X138692405Y-82054866D01*
X138491134Y-81853595D01*
X138270243Y-81706000D01*
X138491134Y-81558405D01*
X138692405Y-81357134D01*
X138840000Y-81136243D01*
X138987595Y-81357134D01*
G36*
X136447595Y-81357134D02*
G01*
X136648866Y-81558405D01*
X136869757Y-81706000D01*
X136648866Y-81853595D01*
X136447595Y-82054866D01*
X136300000Y-82275757D01*
X136152405Y-82054866D01*
X135951134Y-81853595D01*
X135730243Y-81706000D01*
X135951134Y-81558405D01*
X136152405Y-81357134D01*
X136300000Y-81136243D01*
X136447595Y-81357134D01*
G37*
X136447595Y-81357134D02*
X136648866Y-81558405D01*
X136869757Y-81706000D01*
X136648866Y-81853595D01*
X136447595Y-82054866D01*
X136300000Y-82275757D01*
X136152405Y-82054866D01*
X135951134Y-81853595D01*
X135730243Y-81706000D01*
X135951134Y-81558405D01*
X136152405Y-81357134D01*
X136300000Y-81136243D01*
X136447595Y-81357134D01*
G36*
X144067595Y-81357134D02*
G01*
X144268866Y-81558405D01*
X144489757Y-81706000D01*
X144268866Y-81853595D01*
X144067595Y-82054866D01*
X143920000Y-82275757D01*
X143772405Y-82054866D01*
X143571134Y-81853595D01*
X143350243Y-81706000D01*
X143571134Y-81558405D01*
X143772405Y-81357134D01*
X143920000Y-81136243D01*
X144067595Y-81357134D01*
G37*
X144067595Y-81357134D02*
X144268866Y-81558405D01*
X144489757Y-81706000D01*
X144268866Y-81853595D01*
X144067595Y-82054866D01*
X143920000Y-82275757D01*
X143772405Y-82054866D01*
X143571134Y-81853595D01*
X143350243Y-81706000D01*
X143571134Y-81558405D01*
X143772405Y-81357134D01*
X143920000Y-81136243D01*
X144067595Y-81357134D01*
G36*
X149147595Y-81357134D02*
G01*
X149348866Y-81558405D01*
X149569757Y-81706000D01*
X149348866Y-81853595D01*
X149147595Y-82054866D01*
X149000000Y-82275757D01*
X148852405Y-82054866D01*
X148651134Y-81853595D01*
X148430243Y-81706000D01*
X148651134Y-81558405D01*
X148852405Y-81357134D01*
X149000000Y-81136243D01*
X149147595Y-81357134D01*
G37*
X149147595Y-81357134D02*
X149348866Y-81558405D01*
X149569757Y-81706000D01*
X149348866Y-81853595D01*
X149147595Y-82054866D01*
X149000000Y-82275757D01*
X148852405Y-82054866D01*
X148651134Y-81853595D01*
X148430243Y-81706000D01*
X148651134Y-81558405D01*
X148852405Y-81357134D01*
X149000000Y-81136243D01*
X149147595Y-81357134D01*
G36*
X166927595Y-81357134D02*
G01*
X167128866Y-81558405D01*
X167349757Y-81706000D01*
X167128866Y-81853595D01*
X166927595Y-82054866D01*
X166780000Y-82275757D01*
X166632405Y-82054866D01*
X166431134Y-81853595D01*
X166210243Y-81706000D01*
X166431134Y-81558405D01*
X166632405Y-81357134D01*
X166780000Y-81136243D01*
X166927595Y-81357134D01*
G37*
X166927595Y-81357134D02*
X167128866Y-81558405D01*
X167349757Y-81706000D01*
X167128866Y-81853595D01*
X166927595Y-82054866D01*
X166780000Y-82275757D01*
X166632405Y-82054866D01*
X166431134Y-81853595D01*
X166210243Y-81706000D01*
X166431134Y-81558405D01*
X166632405Y-81357134D01*
X166780000Y-81136243D01*
X166927595Y-81357134D01*
G36*
X164387595Y-81357134D02*
G01*
X164588866Y-81558405D01*
X164809757Y-81706000D01*
X164588866Y-81853595D01*
X164387595Y-82054866D01*
X164240000Y-82275757D01*
X164092405Y-82054866D01*
X163891134Y-81853595D01*
X163670243Y-81706000D01*
X163891134Y-81558405D01*
X164092405Y-81357134D01*
X164240000Y-81136243D01*
X164387595Y-81357134D01*
G37*
X164387595Y-81357134D02*
X164588866Y-81558405D01*
X164809757Y-81706000D01*
X164588866Y-81853595D01*
X164387595Y-82054866D01*
X164240000Y-82275757D01*
X164092405Y-82054866D01*
X163891134Y-81853595D01*
X163670243Y-81706000D01*
X163891134Y-81558405D01*
X164092405Y-81357134D01*
X164240000Y-81136243D01*
X164387595Y-81357134D01*
G36*
X161847595Y-81357134D02*
G01*
X162048866Y-81558405D01*
X162269757Y-81706000D01*
X162048866Y-81853595D01*
X161847595Y-82054866D01*
X161700000Y-82275757D01*
X161552405Y-82054866D01*
X161351134Y-81853595D01*
X161130243Y-81706000D01*
X161351134Y-81558405D01*
X161552405Y-81357134D01*
X161700000Y-81136243D01*
X161847595Y-81357134D01*
G37*
X161847595Y-81357134D02*
X162048866Y-81558405D01*
X162269757Y-81706000D01*
X162048866Y-81853595D01*
X161847595Y-82054866D01*
X161700000Y-82275757D01*
X161552405Y-82054866D01*
X161351134Y-81853595D01*
X161130243Y-81706000D01*
X161351134Y-81558405D01*
X161552405Y-81357134D01*
X161700000Y-81136243D01*
X161847595Y-81357134D01*
G36*
X159307595Y-81357134D02*
G01*
X159508866Y-81558405D01*
X159729757Y-81706000D01*
X159508866Y-81853595D01*
X159307595Y-82054866D01*
X159160000Y-82275757D01*
X159012405Y-82054866D01*
X158811134Y-81853595D01*
X158590243Y-81706000D01*
X158811134Y-81558405D01*
X159012405Y-81357134D01*
X159160000Y-81136243D01*
X159307595Y-81357134D01*
G37*
X159307595Y-81357134D02*
X159508866Y-81558405D01*
X159729757Y-81706000D01*
X159508866Y-81853595D01*
X159307595Y-82054866D01*
X159160000Y-82275757D01*
X159012405Y-82054866D01*
X158811134Y-81853595D01*
X158590243Y-81706000D01*
X158811134Y-81558405D01*
X159012405Y-81357134D01*
X159160000Y-81136243D01*
X159307595Y-81357134D01*
G36*
X156767595Y-81357134D02*
G01*
X156968866Y-81558405D01*
X157189757Y-81706000D01*
X156968866Y-81853595D01*
X156767595Y-82054866D01*
X156620000Y-82275757D01*
X156472405Y-82054866D01*
X156271134Y-81853595D01*
X156050243Y-81706000D01*
X156271134Y-81558405D01*
X156472405Y-81357134D01*
X156620000Y-81136243D01*
X156767595Y-81357134D01*
G37*
X156767595Y-81357134D02*
X156968866Y-81558405D01*
X157189757Y-81706000D01*
X156968866Y-81853595D01*
X156767595Y-82054866D01*
X156620000Y-82275757D01*
X156472405Y-82054866D01*
X156271134Y-81853595D01*
X156050243Y-81706000D01*
X156271134Y-81558405D01*
X156472405Y-81357134D01*
X156620000Y-81136243D01*
X156767595Y-81357134D01*
G36*
X154227595Y-81357134D02*
G01*
X154428866Y-81558405D01*
X154649757Y-81706000D01*
X154428866Y-81853595D01*
X154227595Y-82054866D01*
X154080000Y-82275757D01*
X153932405Y-82054866D01*
X153731134Y-81853595D01*
X153510243Y-81706000D01*
X153731134Y-81558405D01*
X153932405Y-81357134D01*
X154080000Y-81136243D01*
X154227595Y-81357134D01*
G37*
X154227595Y-81357134D02*
X154428866Y-81558405D01*
X154649757Y-81706000D01*
X154428866Y-81853595D01*
X154227595Y-82054866D01*
X154080000Y-82275757D01*
X153932405Y-82054866D01*
X153731134Y-81853595D01*
X153510243Y-81706000D01*
X153731134Y-81558405D01*
X153932405Y-81357134D01*
X154080000Y-81136243D01*
X154227595Y-81357134D01*
G36*
X151687595Y-81357134D02*
G01*
X151888866Y-81558405D01*
X152109757Y-81706000D01*
X151888866Y-81853595D01*
X151687595Y-82054866D01*
X151540000Y-82275757D01*
X151392405Y-82054866D01*
X151191134Y-81853595D01*
X150970243Y-81706000D01*
X151191134Y-81558405D01*
X151392405Y-81357134D01*
X151540000Y-81136243D01*
X151687595Y-81357134D01*
G37*
X151687595Y-81357134D02*
X151888866Y-81558405D01*
X152109757Y-81706000D01*
X151888866Y-81853595D01*
X151687595Y-82054866D01*
X151540000Y-82275757D01*
X151392405Y-82054866D01*
X151191134Y-81853595D01*
X150970243Y-81706000D01*
X151191134Y-81558405D01*
X151392405Y-81357134D01*
X151540000Y-81136243D01*
X151687595Y-81357134D01*
G36*
X111047595Y-81357134D02*
G01*
X111248866Y-81558405D01*
X111469757Y-81706000D01*
X111248866Y-81853595D01*
X111047595Y-82054866D01*
X110900000Y-82275757D01*
X110752405Y-82054866D01*
X110551134Y-81853595D01*
X110330243Y-81706000D01*
X110551134Y-81558405D01*
X110752405Y-81357134D01*
X110900000Y-81136243D01*
X111047595Y-81357134D01*
G37*
X111047595Y-81357134D02*
X111248866Y-81558405D01*
X111469757Y-81706000D01*
X111248866Y-81853595D01*
X111047595Y-82054866D01*
X110900000Y-82275757D01*
X110752405Y-82054866D01*
X110551134Y-81853595D01*
X110330243Y-81706000D01*
X110551134Y-81558405D01*
X110752405Y-81357134D01*
X110900000Y-81136243D01*
X111047595Y-81357134D01*
G36*
X146607595Y-81357134D02*
G01*
X146808866Y-81558405D01*
X147029757Y-81706000D01*
X146808866Y-81853595D01*
X146607595Y-82054866D01*
X146460000Y-82275757D01*
X146312405Y-82054866D01*
X146111134Y-81853595D01*
X145890243Y-81706000D01*
X146111134Y-81558405D01*
X146312405Y-81357134D01*
X146460000Y-81136243D01*
X146607595Y-81357134D01*
G37*
X146607595Y-81357134D02*
X146808866Y-81558405D01*
X147029757Y-81706000D01*
X146808866Y-81853595D01*
X146607595Y-82054866D01*
X146460000Y-82275757D01*
X146312405Y-82054866D01*
X146111134Y-81853595D01*
X145890243Y-81706000D01*
X146111134Y-81558405D01*
X146312405Y-81357134D01*
X146460000Y-81136243D01*
X146607595Y-81357134D01*
G36*
X141527595Y-81357134D02*
G01*
X141728866Y-81558405D01*
X141949757Y-81706000D01*
X141728866Y-81853595D01*
X141527595Y-82054866D01*
X141380000Y-82275757D01*
X141232405Y-82054866D01*
X141031134Y-81853595D01*
X140810243Y-81706000D01*
X141031134Y-81558405D01*
X141232405Y-81357134D01*
X141380000Y-81136243D01*
X141527595Y-81357134D01*
G37*
X141527595Y-81357134D02*
X141728866Y-81558405D01*
X141949757Y-81706000D01*
X141728866Y-81853595D01*
X141527595Y-82054866D01*
X141380000Y-82275757D01*
X141232405Y-82054866D01*
X141031134Y-81853595D01*
X140810243Y-81706000D01*
X141031134Y-81558405D01*
X141232405Y-81357134D01*
X141380000Y-81136243D01*
X141527595Y-81357134D01*
G36*
X105967595Y-81357134D02*
G01*
X106168866Y-81558405D01*
X106389757Y-81706000D01*
X106168866Y-81853595D01*
X105967595Y-82054866D01*
X105820000Y-82275757D01*
X105672405Y-82054866D01*
X105471134Y-81853595D01*
X105250243Y-81706000D01*
X105471134Y-81558405D01*
X105672405Y-81357134D01*
X105820000Y-81136243D01*
X105967595Y-81357134D01*
G37*
X105967595Y-81357134D02*
X106168866Y-81558405D01*
X106389757Y-81706000D01*
X106168866Y-81853595D01*
X105967595Y-82054866D01*
X105820000Y-82275757D01*
X105672405Y-82054866D01*
X105471134Y-81853595D01*
X105250243Y-81706000D01*
X105471134Y-81558405D01*
X105672405Y-81357134D01*
X105820000Y-81136243D01*
X105967595Y-81357134D01*
G36*
X133907595Y-81357134D02*
G01*
X134108866Y-81558405D01*
X134329757Y-81706000D01*
X134108866Y-81853595D01*
X133907595Y-82054866D01*
X133760000Y-82275757D01*
X133612405Y-82054866D01*
X133411134Y-81853595D01*
X133190243Y-81706000D01*
X133411134Y-81558405D01*
X133612405Y-81357134D01*
X133760000Y-81136243D01*
X133907595Y-81357134D01*
G37*
X133907595Y-81357134D02*
X134108866Y-81558405D01*
X134329757Y-81706000D01*
X134108866Y-81853595D01*
X133907595Y-82054866D01*
X133760000Y-82275757D01*
X133612405Y-82054866D01*
X133411134Y-81853595D01*
X133190243Y-81706000D01*
X133411134Y-81558405D01*
X133612405Y-81357134D01*
X133760000Y-81136243D01*
X133907595Y-81357134D01*
G36*
X131367595Y-81357134D02*
G01*
X131568866Y-81558405D01*
X131789757Y-81706000D01*
X131568866Y-81853595D01*
X131367595Y-82054866D01*
X131220000Y-82275757D01*
X131072405Y-82054866D01*
X130871134Y-81853595D01*
X130650243Y-81706000D01*
X130871134Y-81558405D01*
X131072405Y-81357134D01*
X131220000Y-81136243D01*
X131367595Y-81357134D01*
G37*
X131367595Y-81357134D02*
X131568866Y-81558405D01*
X131789757Y-81706000D01*
X131568866Y-81853595D01*
X131367595Y-82054866D01*
X131220000Y-82275757D01*
X131072405Y-82054866D01*
X130871134Y-81853595D01*
X130650243Y-81706000D01*
X130871134Y-81558405D01*
X131072405Y-81357134D01*
X131220000Y-81136243D01*
X131367595Y-81357134D01*
G36*
X128827595Y-81357134D02*
G01*
X129028866Y-81558405D01*
X129249757Y-81706000D01*
X129028866Y-81853595D01*
X128827595Y-82054866D01*
X128680000Y-82275757D01*
X128532405Y-82054866D01*
X128331134Y-81853595D01*
X128110243Y-81706000D01*
X128331134Y-81558405D01*
X128532405Y-81357134D01*
X128680000Y-81136243D01*
X128827595Y-81357134D01*
G37*
X128827595Y-81357134D02*
X129028866Y-81558405D01*
X129249757Y-81706000D01*
X129028866Y-81853595D01*
X128827595Y-82054866D01*
X128680000Y-82275757D01*
X128532405Y-82054866D01*
X128331134Y-81853595D01*
X128110243Y-81706000D01*
X128331134Y-81558405D01*
X128532405Y-81357134D01*
X128680000Y-81136243D01*
X128827595Y-81357134D01*
G36*
X126287595Y-81357134D02*
G01*
X126488866Y-81558405D01*
X126709757Y-81706000D01*
X126488866Y-81853595D01*
X126287595Y-82054866D01*
X126140000Y-82275757D01*
X125992405Y-82054866D01*
X125791134Y-81853595D01*
X125570243Y-81706000D01*
X125791134Y-81558405D01*
X125992405Y-81357134D01*
X126140000Y-81136243D01*
X126287595Y-81357134D01*
G37*
X126287595Y-81357134D02*
X126488866Y-81558405D01*
X126709757Y-81706000D01*
X126488866Y-81853595D01*
X126287595Y-82054866D01*
X126140000Y-82275757D01*
X125992405Y-82054866D01*
X125791134Y-81853595D01*
X125570243Y-81706000D01*
X125791134Y-81558405D01*
X125992405Y-81357134D01*
X126140000Y-81136243D01*
X126287595Y-81357134D01*
G36*
X123747595Y-81357134D02*
G01*
X123948866Y-81558405D01*
X124169757Y-81706000D01*
X123948866Y-81853595D01*
X123747595Y-82054866D01*
X123600000Y-82275757D01*
X123452405Y-82054866D01*
X123251134Y-81853595D01*
X123030243Y-81706000D01*
X123251134Y-81558405D01*
X123452405Y-81357134D01*
X123600000Y-81136243D01*
X123747595Y-81357134D01*
G37*
X123747595Y-81357134D02*
X123948866Y-81558405D01*
X124169757Y-81706000D01*
X123948866Y-81853595D01*
X123747595Y-82054866D01*
X123600000Y-82275757D01*
X123452405Y-82054866D01*
X123251134Y-81853595D01*
X123030243Y-81706000D01*
X123251134Y-81558405D01*
X123452405Y-81357134D01*
X123600000Y-81136243D01*
X123747595Y-81357134D01*
G36*
X121207595Y-81357134D02*
G01*
X121408866Y-81558405D01*
X121629757Y-81706000D01*
X121408866Y-81853595D01*
X121207595Y-82054866D01*
X121060000Y-82275757D01*
X120912405Y-82054866D01*
X120711134Y-81853595D01*
X120490243Y-81706000D01*
X120711134Y-81558405D01*
X120912405Y-81357134D01*
X121060000Y-81136243D01*
X121207595Y-81357134D01*
G37*
X121207595Y-81357134D02*
X121408866Y-81558405D01*
X121629757Y-81706000D01*
X121408866Y-81853595D01*
X121207595Y-82054866D01*
X121060000Y-82275757D01*
X120912405Y-82054866D01*
X120711134Y-81853595D01*
X120490243Y-81706000D01*
X120711134Y-81558405D01*
X120912405Y-81357134D01*
X121060000Y-81136243D01*
X121207595Y-81357134D01*
G36*
X118667595Y-81357134D02*
G01*
X118868866Y-81558405D01*
X119089757Y-81706000D01*
X118868866Y-81853595D01*
X118667595Y-82054866D01*
X118520000Y-82275757D01*
X118372405Y-82054866D01*
X118171134Y-81853595D01*
X117950243Y-81706000D01*
X118171134Y-81558405D01*
X118372405Y-81357134D01*
X118520000Y-81136243D01*
X118667595Y-81357134D01*
G37*
X118667595Y-81357134D02*
X118868866Y-81558405D01*
X119089757Y-81706000D01*
X118868866Y-81853595D01*
X118667595Y-82054866D01*
X118520000Y-82275757D01*
X118372405Y-82054866D01*
X118171134Y-81853595D01*
X117950243Y-81706000D01*
X118171134Y-81558405D01*
X118372405Y-81357134D01*
X118520000Y-81136243D01*
X118667595Y-81357134D01*
G36*
X116127595Y-81357134D02*
G01*
X116328866Y-81558405D01*
X116549757Y-81706000D01*
X116328866Y-81853595D01*
X116127595Y-82054866D01*
X115980000Y-82275757D01*
X115832405Y-82054866D01*
X115631134Y-81853595D01*
X115410243Y-81706000D01*
X115631134Y-81558405D01*
X115832405Y-81357134D01*
X115980000Y-81136243D01*
X116127595Y-81357134D01*
G37*
X116127595Y-81357134D02*
X116328866Y-81558405D01*
X116549757Y-81706000D01*
X116328866Y-81853595D01*
X116127595Y-82054866D01*
X115980000Y-82275757D01*
X115832405Y-82054866D01*
X115631134Y-81853595D01*
X115410243Y-81706000D01*
X115631134Y-81558405D01*
X115832405Y-81357134D01*
X115980000Y-81136243D01*
X116127595Y-81357134D01*
G36*
X113587595Y-81357134D02*
G01*
X113788866Y-81558405D01*
X114009757Y-81706000D01*
X113788866Y-81853595D01*
X113587595Y-82054866D01*
X113440000Y-82275757D01*
X113292405Y-82054866D01*
X113091134Y-81853595D01*
X112870243Y-81706000D01*
X113091134Y-81558405D01*
X113292405Y-81357134D01*
X113440000Y-81136243D01*
X113587595Y-81357134D01*
G37*
X113587595Y-81357134D02*
X113788866Y-81558405D01*
X114009757Y-81706000D01*
X113788866Y-81853595D01*
X113587595Y-82054866D01*
X113440000Y-82275757D01*
X113292405Y-82054866D01*
X113091134Y-81853595D01*
X112870243Y-81706000D01*
X113091134Y-81558405D01*
X113292405Y-81357134D01*
X113440000Y-81136243D01*
X113587595Y-81357134D01*
M02*
