%TF.GenerationSoftware,KiCad,Pcbnew,5.1.6-1.fc32*%
%TF.CreationDate,2020-07-10T21:32:06-03:00*%
%TF.ProjectId,pc104-adapter-top,70633130-342d-4616-9461-707465722d74,v1.0*%
%TF.SameCoordinates,Original*%
%TF.FileFunction,Legend,Bot*%
%TF.FilePolarity,Positive*%
%FSLAX46Y46*%
G04 Gerber Fmt 4.6, Leading zero omitted, Abs format (unit mm)*
G04 Created by KiCad (PCBNEW 5.1.6-1.fc32) date 2020-07-10 21:32:06*
%MOMM*%
%LPD*%
G01*
G04 APERTURE LIST*
%ADD10C,0.160000*%
%ADD11C,0.120000*%
%ADD12C,0.150000*%
G04 APERTURE END LIST*
D10*
X178097619Y-103652380D02*
X179097619Y-103652380D01*
X178621428Y-103652380D02*
X178621428Y-103080952D01*
X178097619Y-103080952D02*
X179097619Y-103080952D01*
X179002380Y-102652380D02*
X179050000Y-102604761D01*
X179097619Y-102509523D01*
X179097619Y-102271428D01*
X179050000Y-102176190D01*
X179002380Y-102128571D01*
X178907142Y-102080952D01*
X178811904Y-102080952D01*
X178669047Y-102128571D01*
X178097619Y-102700000D01*
X178097619Y-102080952D01*
X178192857Y-101652380D02*
X178145238Y-101604761D01*
X178097619Y-101652380D01*
X178145238Y-101700000D01*
X178192857Y-101652380D01*
X178097619Y-101652380D01*
X179097619Y-100700000D02*
X179097619Y-101176190D01*
X178621428Y-101223809D01*
X178669047Y-101176190D01*
X178716666Y-101080952D01*
X178716666Y-100842857D01*
X178669047Y-100747619D01*
X178621428Y-100700000D01*
X178526190Y-100652380D01*
X178288095Y-100652380D01*
X178192857Y-100700000D01*
X178145238Y-100747619D01*
X178097619Y-100842857D01*
X178097619Y-101080952D01*
X178145238Y-101176190D01*
X178192857Y-101223809D01*
X179002380Y-100271428D02*
X179050000Y-100223809D01*
X179097619Y-100128571D01*
X179097619Y-99890476D01*
X179050000Y-99795238D01*
X179002380Y-99747619D01*
X178907142Y-99700000D01*
X178811904Y-99700000D01*
X178669047Y-99747619D01*
X178097619Y-100319047D01*
X178097619Y-99700000D01*
X163097619Y-103652380D02*
X164097619Y-103652380D01*
X163621428Y-103652380D02*
X163621428Y-103080952D01*
X163097619Y-103080952D02*
X164097619Y-103080952D01*
X164002380Y-102652380D02*
X164050000Y-102604761D01*
X164097619Y-102509523D01*
X164097619Y-102271428D01*
X164050000Y-102176190D01*
X164002380Y-102128571D01*
X163907142Y-102080952D01*
X163811904Y-102080952D01*
X163669047Y-102128571D01*
X163097619Y-102700000D01*
X163097619Y-102080952D01*
X163192857Y-101652380D02*
X163145238Y-101604761D01*
X163097619Y-101652380D01*
X163145238Y-101700000D01*
X163192857Y-101652380D01*
X163097619Y-101652380D01*
X163764285Y-100747619D02*
X163097619Y-100747619D01*
X164145238Y-100985714D02*
X163430952Y-101223809D01*
X163430952Y-100604761D01*
X164097619Y-100033333D02*
X164097619Y-99938095D01*
X164050000Y-99842857D01*
X164002380Y-99795238D01*
X163907142Y-99747619D01*
X163716666Y-99700000D01*
X163478571Y-99700000D01*
X163288095Y-99747619D01*
X163192857Y-99795238D01*
X163145238Y-99842857D01*
X163097619Y-99938095D01*
X163097619Y-100033333D01*
X163145238Y-100128571D01*
X163192857Y-100176190D01*
X163288095Y-100223809D01*
X163478571Y-100271428D01*
X163716666Y-100271428D01*
X163907142Y-100223809D01*
X164002380Y-100176190D01*
X164050000Y-100128571D01*
X164097619Y-100033333D01*
X154897619Y-103652380D02*
X155897619Y-103652380D01*
X155421428Y-103652380D02*
X155421428Y-103080952D01*
X154897619Y-103080952D02*
X155897619Y-103080952D01*
X155802380Y-102652380D02*
X155850000Y-102604761D01*
X155897619Y-102509523D01*
X155897619Y-102271428D01*
X155850000Y-102176190D01*
X155802380Y-102128571D01*
X155707142Y-102080952D01*
X155611904Y-102080952D01*
X155469047Y-102128571D01*
X154897619Y-102700000D01*
X154897619Y-102080952D01*
X154992857Y-101652380D02*
X154945238Y-101604761D01*
X154897619Y-101652380D01*
X154945238Y-101700000D01*
X154992857Y-101652380D01*
X154897619Y-101652380D01*
X155897619Y-101271428D02*
X155897619Y-100652380D01*
X155516666Y-100985714D01*
X155516666Y-100842857D01*
X155469047Y-100747619D01*
X155421428Y-100700000D01*
X155326190Y-100652380D01*
X155088095Y-100652380D01*
X154992857Y-100700000D01*
X154945238Y-100747619D01*
X154897619Y-100842857D01*
X154897619Y-101128571D01*
X154945238Y-101223809D01*
X154992857Y-101271428D01*
X154897619Y-100176190D02*
X154897619Y-99985714D01*
X154945238Y-99890476D01*
X154992857Y-99842857D01*
X155135714Y-99747619D01*
X155326190Y-99700000D01*
X155707142Y-99700000D01*
X155802380Y-99747619D01*
X155850000Y-99795238D01*
X155897619Y-99890476D01*
X155897619Y-100080952D01*
X155850000Y-100176190D01*
X155802380Y-100223809D01*
X155707142Y-100271428D01*
X155469047Y-100271428D01*
X155373809Y-100223809D01*
X155326190Y-100176190D01*
X155278571Y-100080952D01*
X155278571Y-99890476D01*
X155326190Y-99795238D01*
X155373809Y-99747619D01*
X155469047Y-99700000D01*
X139897619Y-103652380D02*
X140897619Y-103652380D01*
X140421428Y-103652380D02*
X140421428Y-103080952D01*
X139897619Y-103080952D02*
X140897619Y-103080952D01*
X140802380Y-102652380D02*
X140850000Y-102604761D01*
X140897619Y-102509523D01*
X140897619Y-102271428D01*
X140850000Y-102176190D01*
X140802380Y-102128571D01*
X140707142Y-102080952D01*
X140611904Y-102080952D01*
X140469047Y-102128571D01*
X139897619Y-102700000D01*
X139897619Y-102080952D01*
X139992857Y-101652380D02*
X139945238Y-101604761D01*
X139897619Y-101652380D01*
X139945238Y-101700000D01*
X139992857Y-101652380D01*
X139897619Y-101652380D01*
X140802380Y-101223809D02*
X140850000Y-101176190D01*
X140897619Y-101080952D01*
X140897619Y-100842857D01*
X140850000Y-100747619D01*
X140802380Y-100700000D01*
X140707142Y-100652380D01*
X140611904Y-100652380D01*
X140469047Y-100700000D01*
X139897619Y-101271428D01*
X139897619Y-100652380D01*
X140897619Y-100319047D02*
X140897619Y-99652380D01*
X139897619Y-100080952D01*
X131697619Y-103652380D02*
X132697619Y-103652380D01*
X132221428Y-103652380D02*
X132221428Y-103080952D01*
X131697619Y-103080952D02*
X132697619Y-103080952D01*
X132602380Y-102652380D02*
X132650000Y-102604761D01*
X132697619Y-102509523D01*
X132697619Y-102271428D01*
X132650000Y-102176190D01*
X132602380Y-102128571D01*
X132507142Y-102080952D01*
X132411904Y-102080952D01*
X132269047Y-102128571D01*
X131697619Y-102700000D01*
X131697619Y-102080952D01*
X131792857Y-101652380D02*
X131745238Y-101604761D01*
X131697619Y-101652380D01*
X131745238Y-101700000D01*
X131792857Y-101652380D01*
X131697619Y-101652380D01*
X132602380Y-101223809D02*
X132650000Y-101176190D01*
X132697619Y-101080952D01*
X132697619Y-100842857D01*
X132650000Y-100747619D01*
X132602380Y-100700000D01*
X132507142Y-100652380D01*
X132411904Y-100652380D01*
X132269047Y-100700000D01*
X131697619Y-101271428D01*
X131697619Y-100652380D01*
X132697619Y-99795238D02*
X132697619Y-99985714D01*
X132650000Y-100080952D01*
X132602380Y-100128571D01*
X132459523Y-100223809D01*
X132269047Y-100271428D01*
X131888095Y-100271428D01*
X131792857Y-100223809D01*
X131745238Y-100176190D01*
X131697619Y-100080952D01*
X131697619Y-99890476D01*
X131745238Y-99795238D01*
X131792857Y-99747619D01*
X131888095Y-99700000D01*
X132126190Y-99700000D01*
X132221428Y-99747619D01*
X132269047Y-99795238D01*
X132316666Y-99890476D01*
X132316666Y-100080952D01*
X132269047Y-100176190D01*
X132221428Y-100223809D01*
X132126190Y-100271428D01*
X116697619Y-103652380D02*
X117697619Y-103652380D01*
X117221428Y-103652380D02*
X117221428Y-103080952D01*
X116697619Y-103080952D02*
X117697619Y-103080952D01*
X117602380Y-102652380D02*
X117650000Y-102604761D01*
X117697619Y-102509523D01*
X117697619Y-102271428D01*
X117650000Y-102176190D01*
X117602380Y-102128571D01*
X117507142Y-102080952D01*
X117411904Y-102080952D01*
X117269047Y-102128571D01*
X116697619Y-102700000D01*
X116697619Y-102080952D01*
X116792857Y-101652380D02*
X116745238Y-101604761D01*
X116697619Y-101652380D01*
X116745238Y-101700000D01*
X116792857Y-101652380D01*
X116697619Y-101652380D01*
X116697619Y-100652380D02*
X116697619Y-101223809D01*
X116697619Y-100938095D02*
X117697619Y-100938095D01*
X117554761Y-101033333D01*
X117459523Y-101128571D01*
X117411904Y-101223809D01*
X117364285Y-99795238D02*
X116697619Y-99795238D01*
X117745238Y-100033333D02*
X117030952Y-100271428D01*
X117030952Y-99652380D01*
X108497619Y-103652380D02*
X109497619Y-103652380D01*
X109021428Y-103652380D02*
X109021428Y-103080952D01*
X108497619Y-103080952D02*
X109497619Y-103080952D01*
X109402380Y-102652380D02*
X109450000Y-102604761D01*
X109497619Y-102509523D01*
X109497619Y-102271428D01*
X109450000Y-102176190D01*
X109402380Y-102128571D01*
X109307142Y-102080952D01*
X109211904Y-102080952D01*
X109069047Y-102128571D01*
X108497619Y-102700000D01*
X108497619Y-102080952D01*
X108592857Y-101652380D02*
X108545238Y-101604761D01*
X108497619Y-101652380D01*
X108545238Y-101700000D01*
X108592857Y-101652380D01*
X108497619Y-101652380D01*
X108497619Y-100652380D02*
X108497619Y-101223809D01*
X108497619Y-100938095D02*
X109497619Y-100938095D01*
X109354761Y-101033333D01*
X109259523Y-101128571D01*
X109211904Y-101223809D01*
X109497619Y-100319047D02*
X109497619Y-99700000D01*
X109116666Y-100033333D01*
X109116666Y-99890476D01*
X109069047Y-99795238D01*
X109021428Y-99747619D01*
X108926190Y-99700000D01*
X108688095Y-99700000D01*
X108592857Y-99747619D01*
X108545238Y-99795238D01*
X108497619Y-99890476D01*
X108497619Y-100176190D01*
X108545238Y-100271428D01*
X108592857Y-100319047D01*
X93447619Y-103576190D02*
X94447619Y-103576190D01*
X93971428Y-103576190D02*
X93971428Y-103004761D01*
X93447619Y-103004761D02*
X94447619Y-103004761D01*
X94352380Y-102576190D02*
X94400000Y-102528571D01*
X94447619Y-102433333D01*
X94447619Y-102195238D01*
X94400000Y-102100000D01*
X94352380Y-102052380D01*
X94257142Y-102004761D01*
X94161904Y-102004761D01*
X94019047Y-102052380D01*
X93447619Y-102623809D01*
X93447619Y-102004761D01*
X93542857Y-101576190D02*
X93495238Y-101528571D01*
X93447619Y-101576190D01*
X93495238Y-101623809D01*
X93542857Y-101576190D01*
X93447619Y-101576190D01*
X93447619Y-100576190D02*
X93447619Y-101147619D01*
X93447619Y-100861904D02*
X94447619Y-100861904D01*
X94304761Y-100957142D01*
X94209523Y-101052380D01*
X94161904Y-101147619D01*
X178097619Y-93652380D02*
X179097619Y-93652380D01*
X178621428Y-93652380D02*
X178621428Y-93080952D01*
X178097619Y-93080952D02*
X179097619Y-93080952D01*
X178097619Y-92080952D02*
X178097619Y-92652380D01*
X178097619Y-92366666D02*
X179097619Y-92366666D01*
X178954761Y-92461904D01*
X178859523Y-92557142D01*
X178811904Y-92652380D01*
X178192857Y-91652380D02*
X178145238Y-91604761D01*
X178097619Y-91652380D01*
X178145238Y-91700000D01*
X178192857Y-91652380D01*
X178097619Y-91652380D01*
X179097619Y-90700000D02*
X179097619Y-91176190D01*
X178621428Y-91223809D01*
X178669047Y-91176190D01*
X178716666Y-91080952D01*
X178716666Y-90842857D01*
X178669047Y-90747619D01*
X178621428Y-90700000D01*
X178526190Y-90652380D01*
X178288095Y-90652380D01*
X178192857Y-90700000D01*
X178145238Y-90747619D01*
X178097619Y-90842857D01*
X178097619Y-91080952D01*
X178145238Y-91176190D01*
X178192857Y-91223809D01*
X179002380Y-90271428D02*
X179050000Y-90223809D01*
X179097619Y-90128571D01*
X179097619Y-89890476D01*
X179050000Y-89795238D01*
X179002380Y-89747619D01*
X178907142Y-89700000D01*
X178811904Y-89700000D01*
X178669047Y-89747619D01*
X178097619Y-90319047D01*
X178097619Y-89700000D01*
X163097619Y-93652380D02*
X164097619Y-93652380D01*
X163621428Y-93652380D02*
X163621428Y-93080952D01*
X163097619Y-93080952D02*
X164097619Y-93080952D01*
X163097619Y-92080952D02*
X163097619Y-92652380D01*
X163097619Y-92366666D02*
X164097619Y-92366666D01*
X163954761Y-92461904D01*
X163859523Y-92557142D01*
X163811904Y-92652380D01*
X163192857Y-91652380D02*
X163145238Y-91604761D01*
X163097619Y-91652380D01*
X163145238Y-91700000D01*
X163192857Y-91652380D01*
X163097619Y-91652380D01*
X163764285Y-90747619D02*
X163097619Y-90747619D01*
X164145238Y-90985714D02*
X163430952Y-91223809D01*
X163430952Y-90604761D01*
X164097619Y-90033333D02*
X164097619Y-89938095D01*
X164050000Y-89842857D01*
X164002380Y-89795238D01*
X163907142Y-89747619D01*
X163716666Y-89700000D01*
X163478571Y-89700000D01*
X163288095Y-89747619D01*
X163192857Y-89795238D01*
X163145238Y-89842857D01*
X163097619Y-89938095D01*
X163097619Y-90033333D01*
X163145238Y-90128571D01*
X163192857Y-90176190D01*
X163288095Y-90223809D01*
X163478571Y-90271428D01*
X163716666Y-90271428D01*
X163907142Y-90223809D01*
X164002380Y-90176190D01*
X164050000Y-90128571D01*
X164097619Y-90033333D01*
X154897619Y-93652380D02*
X155897619Y-93652380D01*
X155421428Y-93652380D02*
X155421428Y-93080952D01*
X154897619Y-93080952D02*
X155897619Y-93080952D01*
X154897619Y-92080952D02*
X154897619Y-92652380D01*
X154897619Y-92366666D02*
X155897619Y-92366666D01*
X155754761Y-92461904D01*
X155659523Y-92557142D01*
X155611904Y-92652380D01*
X154992857Y-91652380D02*
X154945238Y-91604761D01*
X154897619Y-91652380D01*
X154945238Y-91700000D01*
X154992857Y-91652380D01*
X154897619Y-91652380D01*
X155897619Y-91271428D02*
X155897619Y-90652380D01*
X155516666Y-90985714D01*
X155516666Y-90842857D01*
X155469047Y-90747619D01*
X155421428Y-90700000D01*
X155326190Y-90652380D01*
X155088095Y-90652380D01*
X154992857Y-90700000D01*
X154945238Y-90747619D01*
X154897619Y-90842857D01*
X154897619Y-91128571D01*
X154945238Y-91223809D01*
X154992857Y-91271428D01*
X154897619Y-90176190D02*
X154897619Y-89985714D01*
X154945238Y-89890476D01*
X154992857Y-89842857D01*
X155135714Y-89747619D01*
X155326190Y-89700000D01*
X155707142Y-89700000D01*
X155802380Y-89747619D01*
X155850000Y-89795238D01*
X155897619Y-89890476D01*
X155897619Y-90080952D01*
X155850000Y-90176190D01*
X155802380Y-90223809D01*
X155707142Y-90271428D01*
X155469047Y-90271428D01*
X155373809Y-90223809D01*
X155326190Y-90176190D01*
X155278571Y-90080952D01*
X155278571Y-89890476D01*
X155326190Y-89795238D01*
X155373809Y-89747619D01*
X155469047Y-89700000D01*
X139897619Y-93652380D02*
X140897619Y-93652380D01*
X140421428Y-93652380D02*
X140421428Y-93080952D01*
X139897619Y-93080952D02*
X140897619Y-93080952D01*
X139897619Y-92080952D02*
X139897619Y-92652380D01*
X139897619Y-92366666D02*
X140897619Y-92366666D01*
X140754761Y-92461904D01*
X140659523Y-92557142D01*
X140611904Y-92652380D01*
X139992857Y-91652380D02*
X139945238Y-91604761D01*
X139897619Y-91652380D01*
X139945238Y-91700000D01*
X139992857Y-91652380D01*
X139897619Y-91652380D01*
X140802380Y-91223809D02*
X140850000Y-91176190D01*
X140897619Y-91080952D01*
X140897619Y-90842857D01*
X140850000Y-90747619D01*
X140802380Y-90700000D01*
X140707142Y-90652380D01*
X140611904Y-90652380D01*
X140469047Y-90700000D01*
X139897619Y-91271428D01*
X139897619Y-90652380D01*
X140897619Y-90319047D02*
X140897619Y-89652380D01*
X139897619Y-90080952D01*
X131697619Y-93652380D02*
X132697619Y-93652380D01*
X132221428Y-93652380D02*
X132221428Y-93080952D01*
X131697619Y-93080952D02*
X132697619Y-93080952D01*
X131697619Y-92080952D02*
X131697619Y-92652380D01*
X131697619Y-92366666D02*
X132697619Y-92366666D01*
X132554761Y-92461904D01*
X132459523Y-92557142D01*
X132411904Y-92652380D01*
X131792857Y-91652380D02*
X131745238Y-91604761D01*
X131697619Y-91652380D01*
X131745238Y-91700000D01*
X131792857Y-91652380D01*
X131697619Y-91652380D01*
X132602380Y-91223809D02*
X132650000Y-91176190D01*
X132697619Y-91080952D01*
X132697619Y-90842857D01*
X132650000Y-90747619D01*
X132602380Y-90700000D01*
X132507142Y-90652380D01*
X132411904Y-90652380D01*
X132269047Y-90700000D01*
X131697619Y-91271428D01*
X131697619Y-90652380D01*
X132697619Y-89795238D02*
X132697619Y-89985714D01*
X132650000Y-90080952D01*
X132602380Y-90128571D01*
X132459523Y-90223809D01*
X132269047Y-90271428D01*
X131888095Y-90271428D01*
X131792857Y-90223809D01*
X131745238Y-90176190D01*
X131697619Y-90080952D01*
X131697619Y-89890476D01*
X131745238Y-89795238D01*
X131792857Y-89747619D01*
X131888095Y-89700000D01*
X132126190Y-89700000D01*
X132221428Y-89747619D01*
X132269047Y-89795238D01*
X132316666Y-89890476D01*
X132316666Y-90080952D01*
X132269047Y-90176190D01*
X132221428Y-90223809D01*
X132126190Y-90271428D01*
X116697619Y-93652380D02*
X117697619Y-93652380D01*
X117221428Y-93652380D02*
X117221428Y-93080952D01*
X116697619Y-93080952D02*
X117697619Y-93080952D01*
X116697619Y-92080952D02*
X116697619Y-92652380D01*
X116697619Y-92366666D02*
X117697619Y-92366666D01*
X117554761Y-92461904D01*
X117459523Y-92557142D01*
X117411904Y-92652380D01*
X116792857Y-91652380D02*
X116745238Y-91604761D01*
X116697619Y-91652380D01*
X116745238Y-91700000D01*
X116792857Y-91652380D01*
X116697619Y-91652380D01*
X116697619Y-90652380D02*
X116697619Y-91223809D01*
X116697619Y-90938095D02*
X117697619Y-90938095D01*
X117554761Y-91033333D01*
X117459523Y-91128571D01*
X117411904Y-91223809D01*
X117364285Y-89795238D02*
X116697619Y-89795238D01*
X117745238Y-90033333D02*
X117030952Y-90271428D01*
X117030952Y-89652380D01*
X108497619Y-93652380D02*
X109497619Y-93652380D01*
X109021428Y-93652380D02*
X109021428Y-93080952D01*
X108497619Y-93080952D02*
X109497619Y-93080952D01*
X108497619Y-92080952D02*
X108497619Y-92652380D01*
X108497619Y-92366666D02*
X109497619Y-92366666D01*
X109354761Y-92461904D01*
X109259523Y-92557142D01*
X109211904Y-92652380D01*
X108592857Y-91652380D02*
X108545238Y-91604761D01*
X108497619Y-91652380D01*
X108545238Y-91700000D01*
X108592857Y-91652380D01*
X108497619Y-91652380D01*
X108497619Y-90652380D02*
X108497619Y-91223809D01*
X108497619Y-90938095D02*
X109497619Y-90938095D01*
X109354761Y-91033333D01*
X109259523Y-91128571D01*
X109211904Y-91223809D01*
X109497619Y-90319047D02*
X109497619Y-89700000D01*
X109116666Y-90033333D01*
X109116666Y-89890476D01*
X109069047Y-89795238D01*
X109021428Y-89747619D01*
X108926190Y-89700000D01*
X108688095Y-89700000D01*
X108592857Y-89747619D01*
X108545238Y-89795238D01*
X108497619Y-89890476D01*
X108497619Y-90176190D01*
X108545238Y-90271428D01*
X108592857Y-90319047D01*
X93547619Y-93676190D02*
X94547619Y-93676190D01*
X94071428Y-93676190D02*
X94071428Y-93104761D01*
X93547619Y-93104761D02*
X94547619Y-93104761D01*
X93547619Y-92104761D02*
X93547619Y-92676190D01*
X93547619Y-92390476D02*
X94547619Y-92390476D01*
X94404761Y-92485714D01*
X94309523Y-92580952D01*
X94261904Y-92676190D01*
X93642857Y-91676190D02*
X93595238Y-91628571D01*
X93547619Y-91676190D01*
X93595238Y-91723809D01*
X93642857Y-91676190D01*
X93547619Y-91676190D01*
X93547619Y-90676190D02*
X93547619Y-91247619D01*
X93547619Y-90961904D02*
X94547619Y-90961904D01*
X94404761Y-91057142D01*
X94309523Y-91152380D01*
X94261904Y-91247619D01*
D11*
%TO.C,J8*%
X180210000Y-95940000D02*
X180210000Y-94990000D01*
X180210000Y-94990000D02*
X179260000Y-94990000D01*
X179260000Y-94990000D02*
X179260000Y-94300000D01*
X161990000Y-95940000D02*
X161990000Y-94990000D01*
X161990000Y-94990000D02*
X162940000Y-94990000D01*
X179840000Y-98910000D02*
X162360000Y-98910000D01*
%TO.C,J7*%
X157010000Y-95940000D02*
X157010000Y-94990000D01*
X157010000Y-94990000D02*
X156060000Y-94990000D01*
X156060000Y-94990000D02*
X156060000Y-94300000D01*
X138790000Y-95940000D02*
X138790000Y-94990000D01*
X138790000Y-94990000D02*
X139740000Y-94990000D01*
X156640000Y-98910000D02*
X139160000Y-98910000D01*
%TO.C,J6*%
X133810000Y-95940000D02*
X133810000Y-94990000D01*
X133810000Y-94990000D02*
X132860000Y-94990000D01*
X132860000Y-94990000D02*
X132860000Y-94300000D01*
X115590000Y-95940000D02*
X115590000Y-94990000D01*
X115590000Y-94990000D02*
X116540000Y-94990000D01*
X133440000Y-98910000D02*
X115960000Y-98910000D01*
%TO.C,J5*%
X110610000Y-95940000D02*
X110610000Y-94990000D01*
X110610000Y-94990000D02*
X109660000Y-94990000D01*
X109660000Y-94990000D02*
X109660000Y-94300000D01*
X92390000Y-95940000D02*
X92390000Y-94990000D01*
X92390000Y-94990000D02*
X93340000Y-94990000D01*
X110240000Y-98910000D02*
X92760000Y-98910000D01*
%TO.C,J4*%
X180210000Y-105940000D02*
X180210000Y-104990000D01*
X180210000Y-104990000D02*
X179260000Y-104990000D01*
X179260000Y-104990000D02*
X179260000Y-104300000D01*
X161990000Y-105940000D02*
X161990000Y-104990000D01*
X161990000Y-104990000D02*
X162940000Y-104990000D01*
X179840000Y-108910000D02*
X162360000Y-108910000D01*
%TO.C,J3*%
X157010000Y-105940000D02*
X157010000Y-104990000D01*
X157010000Y-104990000D02*
X156060000Y-104990000D01*
X156060000Y-104990000D02*
X156060000Y-104300000D01*
X138790000Y-105940000D02*
X138790000Y-104990000D01*
X138790000Y-104990000D02*
X139740000Y-104990000D01*
X156640000Y-108910000D02*
X139160000Y-108910000D01*
%TO.C,J2*%
X133810000Y-105940000D02*
X133810000Y-104990000D01*
X133810000Y-104990000D02*
X132860000Y-104990000D01*
X132860000Y-104990000D02*
X132860000Y-104300000D01*
X115590000Y-105940000D02*
X115590000Y-104990000D01*
X115590000Y-104990000D02*
X116540000Y-104990000D01*
X133440000Y-108910000D02*
X115960000Y-108910000D01*
%TO.C,J1*%
X110610000Y-105940000D02*
X110610000Y-104990000D01*
X110610000Y-104990000D02*
X109660000Y-104990000D01*
X109660000Y-104990000D02*
X109660000Y-104300000D01*
X92390000Y-105940000D02*
X92390000Y-104990000D01*
X92390000Y-104990000D02*
X93340000Y-104990000D01*
X110240000Y-108910000D02*
X92760000Y-108910000D01*
%TO.C,J8*%
D12*
X171433333Y-92552380D02*
X171433333Y-93266666D01*
X171480952Y-93409523D01*
X171576190Y-93504761D01*
X171719047Y-93552380D01*
X171814285Y-93552380D01*
X170814285Y-92980952D02*
X170909523Y-92933333D01*
X170957142Y-92885714D01*
X171004761Y-92790476D01*
X171004761Y-92742857D01*
X170957142Y-92647619D01*
X170909523Y-92600000D01*
X170814285Y-92552380D01*
X170623809Y-92552380D01*
X170528571Y-92600000D01*
X170480952Y-92647619D01*
X170433333Y-92742857D01*
X170433333Y-92790476D01*
X170480952Y-92885714D01*
X170528571Y-92933333D01*
X170623809Y-92980952D01*
X170814285Y-92980952D01*
X170909523Y-93028571D01*
X170957142Y-93076190D01*
X171004761Y-93171428D01*
X171004761Y-93361904D01*
X170957142Y-93457142D01*
X170909523Y-93504761D01*
X170814285Y-93552380D01*
X170623809Y-93552380D01*
X170528571Y-93504761D01*
X170480952Y-93457142D01*
X170433333Y-93361904D01*
X170433333Y-93171428D01*
X170480952Y-93076190D01*
X170528571Y-93028571D01*
X170623809Y-92980952D01*
%TO.C,J7*%
X148233333Y-92552380D02*
X148233333Y-93266666D01*
X148280952Y-93409523D01*
X148376190Y-93504761D01*
X148519047Y-93552380D01*
X148614285Y-93552380D01*
X147852380Y-92552380D02*
X147185714Y-92552380D01*
X147614285Y-93552380D01*
%TO.C,J6*%
X125033333Y-92552380D02*
X125033333Y-93266666D01*
X125080952Y-93409523D01*
X125176190Y-93504761D01*
X125319047Y-93552380D01*
X125414285Y-93552380D01*
X124128571Y-92552380D02*
X124319047Y-92552380D01*
X124414285Y-92600000D01*
X124461904Y-92647619D01*
X124557142Y-92790476D01*
X124604761Y-92980952D01*
X124604761Y-93361904D01*
X124557142Y-93457142D01*
X124509523Y-93504761D01*
X124414285Y-93552380D01*
X124223809Y-93552380D01*
X124128571Y-93504761D01*
X124080952Y-93457142D01*
X124033333Y-93361904D01*
X124033333Y-93123809D01*
X124080952Y-93028571D01*
X124128571Y-92980952D01*
X124223809Y-92933333D01*
X124414285Y-92933333D01*
X124509523Y-92980952D01*
X124557142Y-93028571D01*
X124604761Y-93123809D01*
%TO.C,J5*%
X101833333Y-92552380D02*
X101833333Y-93266666D01*
X101880952Y-93409523D01*
X101976190Y-93504761D01*
X102119047Y-93552380D01*
X102214285Y-93552380D01*
X100880952Y-92552380D02*
X101357142Y-92552380D01*
X101404761Y-93028571D01*
X101357142Y-92980952D01*
X101261904Y-92933333D01*
X101023809Y-92933333D01*
X100928571Y-92980952D01*
X100880952Y-93028571D01*
X100833333Y-93123809D01*
X100833333Y-93361904D01*
X100880952Y-93457142D01*
X100928571Y-93504761D01*
X101023809Y-93552380D01*
X101261904Y-93552380D01*
X101357142Y-93504761D01*
X101404761Y-93457142D01*
%TO.C,J4*%
X171433333Y-102552380D02*
X171433333Y-103266666D01*
X171480952Y-103409523D01*
X171576190Y-103504761D01*
X171719047Y-103552380D01*
X171814285Y-103552380D01*
X170528571Y-102885714D02*
X170528571Y-103552380D01*
X170766666Y-102504761D02*
X171004761Y-103219047D01*
X170385714Y-103219047D01*
%TO.C,J3*%
X148233333Y-102552380D02*
X148233333Y-103266666D01*
X148280952Y-103409523D01*
X148376190Y-103504761D01*
X148519047Y-103552380D01*
X148614285Y-103552380D01*
X147852380Y-102552380D02*
X147233333Y-102552380D01*
X147566666Y-102933333D01*
X147423809Y-102933333D01*
X147328571Y-102980952D01*
X147280952Y-103028571D01*
X147233333Y-103123809D01*
X147233333Y-103361904D01*
X147280952Y-103457142D01*
X147328571Y-103504761D01*
X147423809Y-103552380D01*
X147709523Y-103552380D01*
X147804761Y-103504761D01*
X147852380Y-103457142D01*
%TO.C,J2*%
X125033333Y-102552380D02*
X125033333Y-103266666D01*
X125080952Y-103409523D01*
X125176190Y-103504761D01*
X125319047Y-103552380D01*
X125414285Y-103552380D01*
X124604761Y-102647619D02*
X124557142Y-102600000D01*
X124461904Y-102552380D01*
X124223809Y-102552380D01*
X124128571Y-102600000D01*
X124080952Y-102647619D01*
X124033333Y-102742857D01*
X124033333Y-102838095D01*
X124080952Y-102980952D01*
X124652380Y-103552380D01*
X124033333Y-103552380D01*
%TO.C,J1*%
X101833333Y-102552380D02*
X101833333Y-103266666D01*
X101880952Y-103409523D01*
X101976190Y-103504761D01*
X102119047Y-103552380D01*
X102214285Y-103552380D01*
X100833333Y-103552380D02*
X101404761Y-103552380D01*
X101119047Y-103552380D02*
X101119047Y-102552380D01*
X101214285Y-102695238D01*
X101309523Y-102790476D01*
X101404761Y-102838095D01*
%TD*%
M02*
