G04 #@! TF.GenerationSoftware,KiCad,Pcbnew,5.1.6-1.fc32*
G04 #@! TF.CreationDate,2020-09-20T21:59:19-03:00*
G04 #@! TF.ProjectId,pc104-adapter-top,70633130-342d-4616-9461-707465722d74,v2.0*
G04 #@! TF.SameCoordinates,Original*
G04 #@! TF.FileFunction,Soldermask,Bot*
G04 #@! TF.FilePolarity,Negative*
%FSLAX46Y46*%
G04 Gerber Fmt 4.6, Leading zero omitted, Abs format (unit mm)*
G04 Created by KiCad (PCBNEW 5.1.6-1.fc32) date 2020-09-20 21:59:19*
%MOMM*%
%LPD*%
G01*
G04 APERTURE LIST*
%ADD10C,0.100000*%
%ADD11C,5.600000*%
G04 APERTURE END LIST*
D10*
X179511000Y-54636000D02*
G75*
G03*
X179511000Y-54636000I-861000J0D01*
G01*
X179511000Y-57176000D02*
G75*
G03*
X179511000Y-57176000I-861000J0D01*
G01*
X176971000Y-54636000D02*
G75*
G03*
X176971000Y-54636000I-861000J0D01*
G01*
X176971000Y-57176000D02*
G75*
G03*
X176971000Y-57176000I-861000J0D01*
G01*
X174431000Y-54636000D02*
G75*
G03*
X174431000Y-54636000I-861000J0D01*
G01*
X174431000Y-57176000D02*
G75*
G03*
X174431000Y-57176000I-861000J0D01*
G01*
X171891000Y-54636000D02*
G75*
G03*
X171891000Y-54636000I-861000J0D01*
G01*
X171891000Y-57176000D02*
G75*
G03*
X171891000Y-57176000I-861000J0D01*
G01*
X169351000Y-54636000D02*
G75*
G03*
X169351000Y-54636000I-861000J0D01*
G01*
X169351000Y-57176000D02*
G75*
G03*
X169351000Y-57176000I-861000J0D01*
G01*
X166811000Y-54636000D02*
G75*
G03*
X166811000Y-54636000I-861000J0D01*
G01*
X166811000Y-57176000D02*
G75*
G03*
X166811000Y-57176000I-861000J0D01*
G01*
X164271000Y-54636000D02*
G75*
G03*
X164271000Y-54636000I-861000J0D01*
G01*
X164271000Y-57176000D02*
G75*
G03*
X164271000Y-57176000I-861000J0D01*
G01*
X161731000Y-54636000D02*
G75*
G03*
X161731000Y-54636000I-861000J0D01*
G01*
X161731000Y-57176000D02*
G75*
G03*
X161731000Y-57176000I-861000J0D01*
G01*
X159191000Y-54636000D02*
G75*
G03*
X159191000Y-54636000I-861000J0D01*
G01*
X159191000Y-57176000D02*
G75*
G03*
X159191000Y-57176000I-861000J0D01*
G01*
X156651000Y-54636000D02*
G75*
G03*
X156651000Y-54636000I-861000J0D01*
G01*
X156651000Y-57176000D02*
G75*
G03*
X156651000Y-57176000I-861000J0D01*
G01*
X154111000Y-54636000D02*
G75*
G03*
X154111000Y-54636000I-861000J0D01*
G01*
X154111000Y-57176000D02*
G75*
G03*
X154111000Y-57176000I-861000J0D01*
G01*
X151571000Y-54636000D02*
G75*
G03*
X151571000Y-54636000I-861000J0D01*
G01*
X151571000Y-57176000D02*
G75*
G03*
X151571000Y-57176000I-861000J0D01*
G01*
X149031000Y-54636000D02*
G75*
G03*
X149031000Y-54636000I-861000J0D01*
G01*
X149031000Y-57176000D02*
G75*
G03*
X149031000Y-57176000I-861000J0D01*
G01*
X146491000Y-54636000D02*
G75*
G03*
X146491000Y-54636000I-861000J0D01*
G01*
X146491000Y-57176000D02*
G75*
G03*
X146491000Y-57176000I-861000J0D01*
G01*
X143951000Y-54636000D02*
G75*
G03*
X143951000Y-54636000I-861000J0D01*
G01*
X143951000Y-57176000D02*
G75*
G03*
X143951000Y-57176000I-861000J0D01*
G01*
X141411000Y-54636000D02*
G75*
G03*
X141411000Y-54636000I-861000J0D01*
G01*
X141411000Y-57176000D02*
G75*
G03*
X141411000Y-57176000I-861000J0D01*
G01*
X138871000Y-54636000D02*
G75*
G03*
X138871000Y-54636000I-861000J0D01*
G01*
X138871000Y-57176000D02*
G75*
G03*
X138871000Y-57176000I-861000J0D01*
G01*
X136331000Y-54636000D02*
G75*
G03*
X136331000Y-54636000I-861000J0D01*
G01*
X136331000Y-57176000D02*
G75*
G03*
X136331000Y-57176000I-861000J0D01*
G01*
X133791000Y-54636000D02*
G75*
G03*
X133791000Y-54636000I-861000J0D01*
G01*
X133791000Y-57176000D02*
G75*
G03*
X133791000Y-57176000I-861000J0D01*
G01*
X131251000Y-54636000D02*
G75*
G03*
X131251000Y-54636000I-861000J0D01*
G01*
X131251000Y-57176000D02*
G75*
G03*
X131251000Y-57176000I-861000J0D01*
G01*
X128711000Y-54636000D02*
G75*
G03*
X128711000Y-54636000I-861000J0D01*
G01*
X128711000Y-57176000D02*
G75*
G03*
X128711000Y-57176000I-861000J0D01*
G01*
X126171000Y-54636000D02*
G75*
G03*
X126171000Y-54636000I-861000J0D01*
G01*
X126171000Y-57176000D02*
G75*
G03*
X126171000Y-57176000I-861000J0D01*
G01*
X123631000Y-54636000D02*
G75*
G03*
X123631000Y-54636000I-861000J0D01*
G01*
X123631000Y-57176000D02*
G75*
G03*
X123631000Y-57176000I-861000J0D01*
G01*
X121091000Y-54636000D02*
G75*
G03*
X121091000Y-54636000I-861000J0D01*
G01*
X121091000Y-57176000D02*
G75*
G03*
X121091000Y-57176000I-861000J0D01*
G01*
X118551000Y-54636000D02*
G75*
G03*
X118551000Y-54636000I-861000J0D01*
G01*
X118551000Y-57176000D02*
G75*
G03*
X118551000Y-57176000I-861000J0D01*
G01*
X116011000Y-54636000D02*
G75*
G03*
X116011000Y-54636000I-861000J0D01*
G01*
X116011000Y-57176000D02*
G75*
G03*
X116011000Y-57176000I-861000J0D01*
G01*
X179511000Y-59716000D02*
G75*
G03*
X179511000Y-59716000I-861000J0D01*
G01*
X179511000Y-62256000D02*
G75*
G03*
X179511000Y-62256000I-861000J0D01*
G01*
X176971000Y-59716000D02*
G75*
G03*
X176971000Y-59716000I-861000J0D01*
G01*
X176971000Y-62256000D02*
G75*
G03*
X176971000Y-62256000I-861000J0D01*
G01*
X174431000Y-59716000D02*
G75*
G03*
X174431000Y-59716000I-861000J0D01*
G01*
X174431000Y-62256000D02*
G75*
G03*
X174431000Y-62256000I-861000J0D01*
G01*
X171891000Y-59716000D02*
G75*
G03*
X171891000Y-59716000I-861000J0D01*
G01*
X171891000Y-62256000D02*
G75*
G03*
X171891000Y-62256000I-861000J0D01*
G01*
X169351000Y-59716000D02*
G75*
G03*
X169351000Y-59716000I-861000J0D01*
G01*
X169351000Y-62256000D02*
G75*
G03*
X169351000Y-62256000I-861000J0D01*
G01*
X166811000Y-59716000D02*
G75*
G03*
X166811000Y-59716000I-861000J0D01*
G01*
X166811000Y-62256000D02*
G75*
G03*
X166811000Y-62256000I-861000J0D01*
G01*
X164271000Y-59716000D02*
G75*
G03*
X164271000Y-59716000I-861000J0D01*
G01*
X164271000Y-62256000D02*
G75*
G03*
X164271000Y-62256000I-861000J0D01*
G01*
X161731000Y-59716000D02*
G75*
G03*
X161731000Y-59716000I-861000J0D01*
G01*
X161731000Y-62256000D02*
G75*
G03*
X161731000Y-62256000I-861000J0D01*
G01*
X159191000Y-59716000D02*
G75*
G03*
X159191000Y-59716000I-861000J0D01*
G01*
X159191000Y-62256000D02*
G75*
G03*
X159191000Y-62256000I-861000J0D01*
G01*
X156651000Y-59716000D02*
G75*
G03*
X156651000Y-59716000I-861000J0D01*
G01*
X156651000Y-62256000D02*
G75*
G03*
X156651000Y-62256000I-861000J0D01*
G01*
X154111000Y-59716000D02*
G75*
G03*
X154111000Y-59716000I-861000J0D01*
G01*
X154111000Y-62256000D02*
G75*
G03*
X154111000Y-62256000I-861000J0D01*
G01*
X151571000Y-59716000D02*
G75*
G03*
X151571000Y-59716000I-861000J0D01*
G01*
X151571000Y-62256000D02*
G75*
G03*
X151571000Y-62256000I-861000J0D01*
G01*
X149031000Y-59716000D02*
G75*
G03*
X149031000Y-59716000I-861000J0D01*
G01*
X149031000Y-62256000D02*
G75*
G03*
X149031000Y-62256000I-861000J0D01*
G01*
X146491000Y-59716000D02*
G75*
G03*
X146491000Y-59716000I-861000J0D01*
G01*
X146491000Y-62256000D02*
G75*
G03*
X146491000Y-62256000I-861000J0D01*
G01*
X143951000Y-59716000D02*
G75*
G03*
X143951000Y-59716000I-861000J0D01*
G01*
X143951000Y-62256000D02*
G75*
G03*
X143951000Y-62256000I-861000J0D01*
G01*
X141411000Y-59716000D02*
G75*
G03*
X141411000Y-59716000I-861000J0D01*
G01*
X141411000Y-62256000D02*
G75*
G03*
X141411000Y-62256000I-861000J0D01*
G01*
X138871000Y-59716000D02*
G75*
G03*
X138871000Y-59716000I-861000J0D01*
G01*
X138871000Y-62256000D02*
G75*
G03*
X138871000Y-62256000I-861000J0D01*
G01*
X136331000Y-59716000D02*
G75*
G03*
X136331000Y-59716000I-861000J0D01*
G01*
X136331000Y-62256000D02*
G75*
G03*
X136331000Y-62256000I-861000J0D01*
G01*
X133791000Y-59716000D02*
G75*
G03*
X133791000Y-59716000I-861000J0D01*
G01*
X133791000Y-62256000D02*
G75*
G03*
X133791000Y-62256000I-861000J0D01*
G01*
X131251000Y-59716000D02*
G75*
G03*
X131251000Y-59716000I-861000J0D01*
G01*
X131251000Y-62256000D02*
G75*
G03*
X131251000Y-62256000I-861000J0D01*
G01*
X128711000Y-59716000D02*
G75*
G03*
X128711000Y-59716000I-861000J0D01*
G01*
X128711000Y-62256000D02*
G75*
G03*
X128711000Y-62256000I-861000J0D01*
G01*
X126171000Y-59716000D02*
G75*
G03*
X126171000Y-59716000I-861000J0D01*
G01*
X126171000Y-62256000D02*
G75*
G03*
X126171000Y-62256000I-861000J0D01*
G01*
X123631000Y-59716000D02*
G75*
G03*
X123631000Y-59716000I-861000J0D01*
G01*
X123631000Y-62256000D02*
G75*
G03*
X123631000Y-62256000I-861000J0D01*
G01*
X121091000Y-59716000D02*
G75*
G03*
X121091000Y-59716000I-861000J0D01*
G01*
X121091000Y-62256000D02*
G75*
G03*
X121091000Y-62256000I-861000J0D01*
G01*
X118551000Y-59716000D02*
G75*
G03*
X118551000Y-59716000I-861000J0D01*
G01*
X118551000Y-62256000D02*
G75*
G03*
X118551000Y-62256000I-861000J0D01*
G01*
X116011000Y-59716000D02*
G75*
G03*
X116011000Y-59716000I-861000J0D01*
G01*
X116011000Y-62256000D02*
G75*
G03*
X116011000Y-62256000I-861000J0D01*
G01*
D11*
X106270000Y-140336000D03*
X186330000Y-140336000D03*
G36*
G01*
X183943905Y-91450000D02*
X186520095Y-91450000D01*
G75*
G02*
X186782000Y-91711905I0J-261905D01*
G01*
X186782000Y-93388095D01*
G75*
G02*
X186520095Y-93650000I-261905J0D01*
G01*
X183943905Y-93650000D01*
G75*
G02*
X183682000Y-93388095I0J261905D01*
G01*
X183682000Y-91711905D01*
G75*
G02*
X183943905Y-91450000I261905J0D01*
G01*
G37*
G36*
G01*
X183943905Y-71350000D02*
X186520095Y-71350000D01*
G75*
G02*
X186782000Y-71611905I0J-261905D01*
G01*
X186782000Y-73288095D01*
G75*
G02*
X186520095Y-73550000I-261905J0D01*
G01*
X183943905Y-73550000D01*
G75*
G02*
X183682000Y-73288095I0J261905D01*
G01*
X183682000Y-71611905D01*
G75*
G02*
X183943905Y-71350000I261905J0D01*
G01*
G37*
G36*
G01*
X182007000Y-89550000D02*
X182957000Y-89550000D01*
G75*
G02*
X183182000Y-89775000I0J-225000D01*
G01*
X183182000Y-90225000D01*
G75*
G02*
X182957000Y-90450000I-225000J0D01*
G01*
X182007000Y-90450000D01*
G75*
G02*
X181782000Y-90225000I0J225000D01*
G01*
X181782000Y-89775000D01*
G75*
G02*
X182007000Y-89550000I225000J0D01*
G01*
G37*
G36*
G01*
X182007000Y-88300000D02*
X182957000Y-88300000D01*
G75*
G02*
X183182000Y-88525000I0J-225000D01*
G01*
X183182000Y-88975000D01*
G75*
G02*
X182957000Y-89200000I-225000J0D01*
G01*
X182007000Y-89200000D01*
G75*
G02*
X181782000Y-88975000I0J225000D01*
G01*
X181782000Y-88525000D01*
G75*
G02*
X182007000Y-88300000I225000J0D01*
G01*
G37*
G36*
G01*
X182007000Y-87050000D02*
X182957000Y-87050000D01*
G75*
G02*
X183182000Y-87275000I0J-225000D01*
G01*
X183182000Y-87725000D01*
G75*
G02*
X182957000Y-87950000I-225000J0D01*
G01*
X182007000Y-87950000D01*
G75*
G02*
X181782000Y-87725000I0J225000D01*
G01*
X181782000Y-87275000D01*
G75*
G02*
X182007000Y-87050000I225000J0D01*
G01*
G37*
G36*
G01*
X182007000Y-85800000D02*
X182957000Y-85800000D01*
G75*
G02*
X183182000Y-86025000I0J-225000D01*
G01*
X183182000Y-86475000D01*
G75*
G02*
X182957000Y-86700000I-225000J0D01*
G01*
X182007000Y-86700000D01*
G75*
G02*
X181782000Y-86475000I0J225000D01*
G01*
X181782000Y-86025000D01*
G75*
G02*
X182007000Y-85800000I225000J0D01*
G01*
G37*
G36*
G01*
X182007000Y-84550000D02*
X182957000Y-84550000D01*
G75*
G02*
X183182000Y-84775000I0J-225000D01*
G01*
X183182000Y-85225000D01*
G75*
G02*
X182957000Y-85450000I-225000J0D01*
G01*
X182007000Y-85450000D01*
G75*
G02*
X181782000Y-85225000I0J225000D01*
G01*
X181782000Y-84775000D01*
G75*
G02*
X182007000Y-84550000I225000J0D01*
G01*
G37*
G36*
G01*
X182007000Y-83300000D02*
X182957000Y-83300000D01*
G75*
G02*
X183182000Y-83525000I0J-225000D01*
G01*
X183182000Y-83975000D01*
G75*
G02*
X182957000Y-84200000I-225000J0D01*
G01*
X182007000Y-84200000D01*
G75*
G02*
X181782000Y-83975000I0J225000D01*
G01*
X181782000Y-83525000D01*
G75*
G02*
X182007000Y-83300000I225000J0D01*
G01*
G37*
G36*
G01*
X182007000Y-82050000D02*
X182957000Y-82050000D01*
G75*
G02*
X183182000Y-82275000I0J-225000D01*
G01*
X183182000Y-82725000D01*
G75*
G02*
X182957000Y-82950000I-225000J0D01*
G01*
X182007000Y-82950000D01*
G75*
G02*
X181782000Y-82725000I0J225000D01*
G01*
X181782000Y-82275000D01*
G75*
G02*
X182007000Y-82050000I225000J0D01*
G01*
G37*
G36*
G01*
X182007000Y-80800000D02*
X182957000Y-80800000D01*
G75*
G02*
X183182000Y-81025000I0J-225000D01*
G01*
X183182000Y-81475000D01*
G75*
G02*
X182957000Y-81700000I-225000J0D01*
G01*
X182007000Y-81700000D01*
G75*
G02*
X181782000Y-81475000I0J225000D01*
G01*
X181782000Y-81025000D01*
G75*
G02*
X182007000Y-80800000I225000J0D01*
G01*
G37*
G36*
G01*
X182007000Y-79550000D02*
X182957000Y-79550000D01*
G75*
G02*
X183182000Y-79775000I0J-225000D01*
G01*
X183182000Y-80225000D01*
G75*
G02*
X182957000Y-80450000I-225000J0D01*
G01*
X182007000Y-80450000D01*
G75*
G02*
X181782000Y-80225000I0J225000D01*
G01*
X181782000Y-79775000D01*
G75*
G02*
X182007000Y-79550000I225000J0D01*
G01*
G37*
G36*
G01*
X182007000Y-78300000D02*
X182957000Y-78300000D01*
G75*
G02*
X183182000Y-78525000I0J-225000D01*
G01*
X183182000Y-78975000D01*
G75*
G02*
X182957000Y-79200000I-225000J0D01*
G01*
X182007000Y-79200000D01*
G75*
G02*
X181782000Y-78975000I0J225000D01*
G01*
X181782000Y-78525000D01*
G75*
G02*
X182007000Y-78300000I225000J0D01*
G01*
G37*
G36*
G01*
X182007000Y-77050000D02*
X182957000Y-77050000D01*
G75*
G02*
X183182000Y-77275000I0J-225000D01*
G01*
X183182000Y-77725000D01*
G75*
G02*
X182957000Y-77950000I-225000J0D01*
G01*
X182007000Y-77950000D01*
G75*
G02*
X181782000Y-77725000I0J225000D01*
G01*
X181782000Y-77275000D01*
G75*
G02*
X182007000Y-77050000I225000J0D01*
G01*
G37*
G36*
G01*
X182007000Y-75800000D02*
X182957000Y-75800000D01*
G75*
G02*
X183182000Y-76025000I0J-225000D01*
G01*
X183182000Y-76475000D01*
G75*
G02*
X182957000Y-76700000I-225000J0D01*
G01*
X182007000Y-76700000D01*
G75*
G02*
X181782000Y-76475000I0J225000D01*
G01*
X181782000Y-76025000D01*
G75*
G02*
X182007000Y-75800000I225000J0D01*
G01*
G37*
G36*
G01*
X182007000Y-74550000D02*
X182957000Y-74550000D01*
G75*
G02*
X183182000Y-74775000I0J-225000D01*
G01*
X183182000Y-75225000D01*
G75*
G02*
X182957000Y-75450000I-225000J0D01*
G01*
X182007000Y-75450000D01*
G75*
G02*
X181782000Y-75225000I0J225000D01*
G01*
X181782000Y-74775000D01*
G75*
G02*
X182007000Y-74550000I225000J0D01*
G01*
G37*
G36*
G01*
X152369905Y-91450000D02*
X154946095Y-91450000D01*
G75*
G02*
X155208000Y-91711905I0J-261905D01*
G01*
X155208000Y-93388095D01*
G75*
G02*
X154946095Y-93650000I-261905J0D01*
G01*
X152369905Y-93650000D01*
G75*
G02*
X152108000Y-93388095I0J261905D01*
G01*
X152108000Y-91711905D01*
G75*
G02*
X152369905Y-91450000I261905J0D01*
G01*
G37*
G36*
G01*
X152369905Y-71350000D02*
X154946095Y-71350000D01*
G75*
G02*
X155208000Y-71611905I0J-261905D01*
G01*
X155208000Y-73288095D01*
G75*
G02*
X154946095Y-73550000I-261905J0D01*
G01*
X152369905Y-73550000D01*
G75*
G02*
X152108000Y-73288095I0J261905D01*
G01*
X152108000Y-71611905D01*
G75*
G02*
X152369905Y-71350000I261905J0D01*
G01*
G37*
G36*
G01*
X150433000Y-89550000D02*
X151383000Y-89550000D01*
G75*
G02*
X151608000Y-89775000I0J-225000D01*
G01*
X151608000Y-90225000D01*
G75*
G02*
X151383000Y-90450000I-225000J0D01*
G01*
X150433000Y-90450000D01*
G75*
G02*
X150208000Y-90225000I0J225000D01*
G01*
X150208000Y-89775000D01*
G75*
G02*
X150433000Y-89550000I225000J0D01*
G01*
G37*
G36*
G01*
X150433000Y-88300000D02*
X151383000Y-88300000D01*
G75*
G02*
X151608000Y-88525000I0J-225000D01*
G01*
X151608000Y-88975000D01*
G75*
G02*
X151383000Y-89200000I-225000J0D01*
G01*
X150433000Y-89200000D01*
G75*
G02*
X150208000Y-88975000I0J225000D01*
G01*
X150208000Y-88525000D01*
G75*
G02*
X150433000Y-88300000I225000J0D01*
G01*
G37*
G36*
G01*
X150433000Y-87050000D02*
X151383000Y-87050000D01*
G75*
G02*
X151608000Y-87275000I0J-225000D01*
G01*
X151608000Y-87725000D01*
G75*
G02*
X151383000Y-87950000I-225000J0D01*
G01*
X150433000Y-87950000D01*
G75*
G02*
X150208000Y-87725000I0J225000D01*
G01*
X150208000Y-87275000D01*
G75*
G02*
X150433000Y-87050000I225000J0D01*
G01*
G37*
G36*
G01*
X150433000Y-85800000D02*
X151383000Y-85800000D01*
G75*
G02*
X151608000Y-86025000I0J-225000D01*
G01*
X151608000Y-86475000D01*
G75*
G02*
X151383000Y-86700000I-225000J0D01*
G01*
X150433000Y-86700000D01*
G75*
G02*
X150208000Y-86475000I0J225000D01*
G01*
X150208000Y-86025000D01*
G75*
G02*
X150433000Y-85800000I225000J0D01*
G01*
G37*
G36*
G01*
X150433000Y-84550000D02*
X151383000Y-84550000D01*
G75*
G02*
X151608000Y-84775000I0J-225000D01*
G01*
X151608000Y-85225000D01*
G75*
G02*
X151383000Y-85450000I-225000J0D01*
G01*
X150433000Y-85450000D01*
G75*
G02*
X150208000Y-85225000I0J225000D01*
G01*
X150208000Y-84775000D01*
G75*
G02*
X150433000Y-84550000I225000J0D01*
G01*
G37*
G36*
G01*
X150433000Y-83300000D02*
X151383000Y-83300000D01*
G75*
G02*
X151608000Y-83525000I0J-225000D01*
G01*
X151608000Y-83975000D01*
G75*
G02*
X151383000Y-84200000I-225000J0D01*
G01*
X150433000Y-84200000D01*
G75*
G02*
X150208000Y-83975000I0J225000D01*
G01*
X150208000Y-83525000D01*
G75*
G02*
X150433000Y-83300000I225000J0D01*
G01*
G37*
G36*
G01*
X150433000Y-82050000D02*
X151383000Y-82050000D01*
G75*
G02*
X151608000Y-82275000I0J-225000D01*
G01*
X151608000Y-82725000D01*
G75*
G02*
X151383000Y-82950000I-225000J0D01*
G01*
X150433000Y-82950000D01*
G75*
G02*
X150208000Y-82725000I0J225000D01*
G01*
X150208000Y-82275000D01*
G75*
G02*
X150433000Y-82050000I225000J0D01*
G01*
G37*
G36*
G01*
X150433000Y-80800000D02*
X151383000Y-80800000D01*
G75*
G02*
X151608000Y-81025000I0J-225000D01*
G01*
X151608000Y-81475000D01*
G75*
G02*
X151383000Y-81700000I-225000J0D01*
G01*
X150433000Y-81700000D01*
G75*
G02*
X150208000Y-81475000I0J225000D01*
G01*
X150208000Y-81025000D01*
G75*
G02*
X150433000Y-80800000I225000J0D01*
G01*
G37*
G36*
G01*
X150433000Y-79550000D02*
X151383000Y-79550000D01*
G75*
G02*
X151608000Y-79775000I0J-225000D01*
G01*
X151608000Y-80225000D01*
G75*
G02*
X151383000Y-80450000I-225000J0D01*
G01*
X150433000Y-80450000D01*
G75*
G02*
X150208000Y-80225000I0J225000D01*
G01*
X150208000Y-79775000D01*
G75*
G02*
X150433000Y-79550000I225000J0D01*
G01*
G37*
G36*
G01*
X150433000Y-78300000D02*
X151383000Y-78300000D01*
G75*
G02*
X151608000Y-78525000I0J-225000D01*
G01*
X151608000Y-78975000D01*
G75*
G02*
X151383000Y-79200000I-225000J0D01*
G01*
X150433000Y-79200000D01*
G75*
G02*
X150208000Y-78975000I0J225000D01*
G01*
X150208000Y-78525000D01*
G75*
G02*
X150433000Y-78300000I225000J0D01*
G01*
G37*
G36*
G01*
X150433000Y-77050000D02*
X151383000Y-77050000D01*
G75*
G02*
X151608000Y-77275000I0J-225000D01*
G01*
X151608000Y-77725000D01*
G75*
G02*
X151383000Y-77950000I-225000J0D01*
G01*
X150433000Y-77950000D01*
G75*
G02*
X150208000Y-77725000I0J225000D01*
G01*
X150208000Y-77275000D01*
G75*
G02*
X150433000Y-77050000I225000J0D01*
G01*
G37*
G36*
G01*
X150433000Y-75800000D02*
X151383000Y-75800000D01*
G75*
G02*
X151608000Y-76025000I0J-225000D01*
G01*
X151608000Y-76475000D01*
G75*
G02*
X151383000Y-76700000I-225000J0D01*
G01*
X150433000Y-76700000D01*
G75*
G02*
X150208000Y-76475000I0J225000D01*
G01*
X150208000Y-76025000D01*
G75*
G02*
X150433000Y-75800000I225000J0D01*
G01*
G37*
G36*
G01*
X150433000Y-74550000D02*
X151383000Y-74550000D01*
G75*
G02*
X151608000Y-74775000I0J-225000D01*
G01*
X151608000Y-75225000D01*
G75*
G02*
X151383000Y-75450000I-225000J0D01*
G01*
X150433000Y-75450000D01*
G75*
G02*
X150208000Y-75225000I0J225000D01*
G01*
X150208000Y-74775000D01*
G75*
G02*
X150433000Y-74550000I225000J0D01*
G01*
G37*
G36*
G01*
X130897095Y-73550000D02*
X128320905Y-73550000D01*
G75*
G02*
X128059000Y-73288095I0J261905D01*
G01*
X128059000Y-71611905D01*
G75*
G02*
X128320905Y-71350000I261905J0D01*
G01*
X130897095Y-71350000D01*
G75*
G02*
X131159000Y-71611905I0J-261905D01*
G01*
X131159000Y-73288095D01*
G75*
G02*
X130897095Y-73550000I-261905J0D01*
G01*
G37*
G36*
G01*
X130897095Y-93650000D02*
X128320905Y-93650000D01*
G75*
G02*
X128059000Y-93388095I0J261905D01*
G01*
X128059000Y-91711905D01*
G75*
G02*
X128320905Y-91450000I261905J0D01*
G01*
X130897095Y-91450000D01*
G75*
G02*
X131159000Y-91711905I0J-261905D01*
G01*
X131159000Y-93388095D01*
G75*
G02*
X130897095Y-93650000I-261905J0D01*
G01*
G37*
G36*
G01*
X132834000Y-75450000D02*
X131884000Y-75450000D01*
G75*
G02*
X131659000Y-75225000I0J225000D01*
G01*
X131659000Y-74775000D01*
G75*
G02*
X131884000Y-74550000I225000J0D01*
G01*
X132834000Y-74550000D01*
G75*
G02*
X133059000Y-74775000I0J-225000D01*
G01*
X133059000Y-75225000D01*
G75*
G02*
X132834000Y-75450000I-225000J0D01*
G01*
G37*
G36*
G01*
X132834000Y-76700000D02*
X131884000Y-76700000D01*
G75*
G02*
X131659000Y-76475000I0J225000D01*
G01*
X131659000Y-76025000D01*
G75*
G02*
X131884000Y-75800000I225000J0D01*
G01*
X132834000Y-75800000D01*
G75*
G02*
X133059000Y-76025000I0J-225000D01*
G01*
X133059000Y-76475000D01*
G75*
G02*
X132834000Y-76700000I-225000J0D01*
G01*
G37*
G36*
G01*
X132834000Y-77950000D02*
X131884000Y-77950000D01*
G75*
G02*
X131659000Y-77725000I0J225000D01*
G01*
X131659000Y-77275000D01*
G75*
G02*
X131884000Y-77050000I225000J0D01*
G01*
X132834000Y-77050000D01*
G75*
G02*
X133059000Y-77275000I0J-225000D01*
G01*
X133059000Y-77725000D01*
G75*
G02*
X132834000Y-77950000I-225000J0D01*
G01*
G37*
G36*
G01*
X132834000Y-79200000D02*
X131884000Y-79200000D01*
G75*
G02*
X131659000Y-78975000I0J225000D01*
G01*
X131659000Y-78525000D01*
G75*
G02*
X131884000Y-78300000I225000J0D01*
G01*
X132834000Y-78300000D01*
G75*
G02*
X133059000Y-78525000I0J-225000D01*
G01*
X133059000Y-78975000D01*
G75*
G02*
X132834000Y-79200000I-225000J0D01*
G01*
G37*
G36*
G01*
X132834000Y-80450000D02*
X131884000Y-80450000D01*
G75*
G02*
X131659000Y-80225000I0J225000D01*
G01*
X131659000Y-79775000D01*
G75*
G02*
X131884000Y-79550000I225000J0D01*
G01*
X132834000Y-79550000D01*
G75*
G02*
X133059000Y-79775000I0J-225000D01*
G01*
X133059000Y-80225000D01*
G75*
G02*
X132834000Y-80450000I-225000J0D01*
G01*
G37*
G36*
G01*
X132834000Y-81700000D02*
X131884000Y-81700000D01*
G75*
G02*
X131659000Y-81475000I0J225000D01*
G01*
X131659000Y-81025000D01*
G75*
G02*
X131884000Y-80800000I225000J0D01*
G01*
X132834000Y-80800000D01*
G75*
G02*
X133059000Y-81025000I0J-225000D01*
G01*
X133059000Y-81475000D01*
G75*
G02*
X132834000Y-81700000I-225000J0D01*
G01*
G37*
G36*
G01*
X132834000Y-82950000D02*
X131884000Y-82950000D01*
G75*
G02*
X131659000Y-82725000I0J225000D01*
G01*
X131659000Y-82275000D01*
G75*
G02*
X131884000Y-82050000I225000J0D01*
G01*
X132834000Y-82050000D01*
G75*
G02*
X133059000Y-82275000I0J-225000D01*
G01*
X133059000Y-82725000D01*
G75*
G02*
X132834000Y-82950000I-225000J0D01*
G01*
G37*
G36*
G01*
X132834000Y-84200000D02*
X131884000Y-84200000D01*
G75*
G02*
X131659000Y-83975000I0J225000D01*
G01*
X131659000Y-83525000D01*
G75*
G02*
X131884000Y-83300000I225000J0D01*
G01*
X132834000Y-83300000D01*
G75*
G02*
X133059000Y-83525000I0J-225000D01*
G01*
X133059000Y-83975000D01*
G75*
G02*
X132834000Y-84200000I-225000J0D01*
G01*
G37*
G36*
G01*
X132834000Y-85450000D02*
X131884000Y-85450000D01*
G75*
G02*
X131659000Y-85225000I0J225000D01*
G01*
X131659000Y-84775000D01*
G75*
G02*
X131884000Y-84550000I225000J0D01*
G01*
X132834000Y-84550000D01*
G75*
G02*
X133059000Y-84775000I0J-225000D01*
G01*
X133059000Y-85225000D01*
G75*
G02*
X132834000Y-85450000I-225000J0D01*
G01*
G37*
G36*
G01*
X132834000Y-86700000D02*
X131884000Y-86700000D01*
G75*
G02*
X131659000Y-86475000I0J225000D01*
G01*
X131659000Y-86025000D01*
G75*
G02*
X131884000Y-85800000I225000J0D01*
G01*
X132834000Y-85800000D01*
G75*
G02*
X133059000Y-86025000I0J-225000D01*
G01*
X133059000Y-86475000D01*
G75*
G02*
X132834000Y-86700000I-225000J0D01*
G01*
G37*
G36*
G01*
X132834000Y-87950000D02*
X131884000Y-87950000D01*
G75*
G02*
X131659000Y-87725000I0J225000D01*
G01*
X131659000Y-87275000D01*
G75*
G02*
X131884000Y-87050000I225000J0D01*
G01*
X132834000Y-87050000D01*
G75*
G02*
X133059000Y-87275000I0J-225000D01*
G01*
X133059000Y-87725000D01*
G75*
G02*
X132834000Y-87950000I-225000J0D01*
G01*
G37*
G36*
G01*
X132834000Y-89200000D02*
X131884000Y-89200000D01*
G75*
G02*
X131659000Y-88975000I0J225000D01*
G01*
X131659000Y-88525000D01*
G75*
G02*
X131884000Y-88300000I225000J0D01*
G01*
X132834000Y-88300000D01*
G75*
G02*
X133059000Y-88525000I0J-225000D01*
G01*
X133059000Y-88975000D01*
G75*
G02*
X132834000Y-89200000I-225000J0D01*
G01*
G37*
G36*
G01*
X132834000Y-90450000D02*
X131884000Y-90450000D01*
G75*
G02*
X131659000Y-90225000I0J225000D01*
G01*
X131659000Y-89775000D01*
G75*
G02*
X131884000Y-89550000I225000J0D01*
G01*
X132834000Y-89550000D01*
G75*
G02*
X133059000Y-89775000I0J-225000D01*
G01*
X133059000Y-90225000D01*
G75*
G02*
X132834000Y-90450000I-225000J0D01*
G01*
G37*
G36*
G01*
X109848095Y-73550000D02*
X107271905Y-73550000D01*
G75*
G02*
X107010000Y-73288095I0J261905D01*
G01*
X107010000Y-71611905D01*
G75*
G02*
X107271905Y-71350000I261905J0D01*
G01*
X109848095Y-71350000D01*
G75*
G02*
X110110000Y-71611905I0J-261905D01*
G01*
X110110000Y-73288095D01*
G75*
G02*
X109848095Y-73550000I-261905J0D01*
G01*
G37*
G36*
G01*
X109848095Y-93650000D02*
X107271905Y-93650000D01*
G75*
G02*
X107010000Y-93388095I0J261905D01*
G01*
X107010000Y-91711905D01*
G75*
G02*
X107271905Y-91450000I261905J0D01*
G01*
X109848095Y-91450000D01*
G75*
G02*
X110110000Y-91711905I0J-261905D01*
G01*
X110110000Y-93388095D01*
G75*
G02*
X109848095Y-93650000I-261905J0D01*
G01*
G37*
G36*
G01*
X111785000Y-75450000D02*
X110835000Y-75450000D01*
G75*
G02*
X110610000Y-75225000I0J225000D01*
G01*
X110610000Y-74775000D01*
G75*
G02*
X110835000Y-74550000I225000J0D01*
G01*
X111785000Y-74550000D01*
G75*
G02*
X112010000Y-74775000I0J-225000D01*
G01*
X112010000Y-75225000D01*
G75*
G02*
X111785000Y-75450000I-225000J0D01*
G01*
G37*
G36*
G01*
X111785000Y-76700000D02*
X110835000Y-76700000D01*
G75*
G02*
X110610000Y-76475000I0J225000D01*
G01*
X110610000Y-76025000D01*
G75*
G02*
X110835000Y-75800000I225000J0D01*
G01*
X111785000Y-75800000D01*
G75*
G02*
X112010000Y-76025000I0J-225000D01*
G01*
X112010000Y-76475000D01*
G75*
G02*
X111785000Y-76700000I-225000J0D01*
G01*
G37*
G36*
G01*
X111785000Y-77950000D02*
X110835000Y-77950000D01*
G75*
G02*
X110610000Y-77725000I0J225000D01*
G01*
X110610000Y-77275000D01*
G75*
G02*
X110835000Y-77050000I225000J0D01*
G01*
X111785000Y-77050000D01*
G75*
G02*
X112010000Y-77275000I0J-225000D01*
G01*
X112010000Y-77725000D01*
G75*
G02*
X111785000Y-77950000I-225000J0D01*
G01*
G37*
G36*
G01*
X111785000Y-79200000D02*
X110835000Y-79200000D01*
G75*
G02*
X110610000Y-78975000I0J225000D01*
G01*
X110610000Y-78525000D01*
G75*
G02*
X110835000Y-78300000I225000J0D01*
G01*
X111785000Y-78300000D01*
G75*
G02*
X112010000Y-78525000I0J-225000D01*
G01*
X112010000Y-78975000D01*
G75*
G02*
X111785000Y-79200000I-225000J0D01*
G01*
G37*
G36*
G01*
X111785000Y-80450000D02*
X110835000Y-80450000D01*
G75*
G02*
X110610000Y-80225000I0J225000D01*
G01*
X110610000Y-79775000D01*
G75*
G02*
X110835000Y-79550000I225000J0D01*
G01*
X111785000Y-79550000D01*
G75*
G02*
X112010000Y-79775000I0J-225000D01*
G01*
X112010000Y-80225000D01*
G75*
G02*
X111785000Y-80450000I-225000J0D01*
G01*
G37*
G36*
G01*
X111785000Y-81700000D02*
X110835000Y-81700000D01*
G75*
G02*
X110610000Y-81475000I0J225000D01*
G01*
X110610000Y-81025000D01*
G75*
G02*
X110835000Y-80800000I225000J0D01*
G01*
X111785000Y-80800000D01*
G75*
G02*
X112010000Y-81025000I0J-225000D01*
G01*
X112010000Y-81475000D01*
G75*
G02*
X111785000Y-81700000I-225000J0D01*
G01*
G37*
G36*
G01*
X111785000Y-82950000D02*
X110835000Y-82950000D01*
G75*
G02*
X110610000Y-82725000I0J225000D01*
G01*
X110610000Y-82275000D01*
G75*
G02*
X110835000Y-82050000I225000J0D01*
G01*
X111785000Y-82050000D01*
G75*
G02*
X112010000Y-82275000I0J-225000D01*
G01*
X112010000Y-82725000D01*
G75*
G02*
X111785000Y-82950000I-225000J0D01*
G01*
G37*
G36*
G01*
X111785000Y-84200000D02*
X110835000Y-84200000D01*
G75*
G02*
X110610000Y-83975000I0J225000D01*
G01*
X110610000Y-83525000D01*
G75*
G02*
X110835000Y-83300000I225000J0D01*
G01*
X111785000Y-83300000D01*
G75*
G02*
X112010000Y-83525000I0J-225000D01*
G01*
X112010000Y-83975000D01*
G75*
G02*
X111785000Y-84200000I-225000J0D01*
G01*
G37*
G36*
G01*
X111785000Y-85450000D02*
X110835000Y-85450000D01*
G75*
G02*
X110610000Y-85225000I0J225000D01*
G01*
X110610000Y-84775000D01*
G75*
G02*
X110835000Y-84550000I225000J0D01*
G01*
X111785000Y-84550000D01*
G75*
G02*
X112010000Y-84775000I0J-225000D01*
G01*
X112010000Y-85225000D01*
G75*
G02*
X111785000Y-85450000I-225000J0D01*
G01*
G37*
G36*
G01*
X111785000Y-86700000D02*
X110835000Y-86700000D01*
G75*
G02*
X110610000Y-86475000I0J225000D01*
G01*
X110610000Y-86025000D01*
G75*
G02*
X110835000Y-85800000I225000J0D01*
G01*
X111785000Y-85800000D01*
G75*
G02*
X112010000Y-86025000I0J-225000D01*
G01*
X112010000Y-86475000D01*
G75*
G02*
X111785000Y-86700000I-225000J0D01*
G01*
G37*
G36*
G01*
X111785000Y-87950000D02*
X110835000Y-87950000D01*
G75*
G02*
X110610000Y-87725000I0J225000D01*
G01*
X110610000Y-87275000D01*
G75*
G02*
X110835000Y-87050000I225000J0D01*
G01*
X111785000Y-87050000D01*
G75*
G02*
X112010000Y-87275000I0J-225000D01*
G01*
X112010000Y-87725000D01*
G75*
G02*
X111785000Y-87950000I-225000J0D01*
G01*
G37*
G36*
G01*
X111785000Y-89200000D02*
X110835000Y-89200000D01*
G75*
G02*
X110610000Y-88975000I0J225000D01*
G01*
X110610000Y-88525000D01*
G75*
G02*
X110835000Y-88300000I225000J0D01*
G01*
X111785000Y-88300000D01*
G75*
G02*
X112010000Y-88525000I0J-225000D01*
G01*
X112010000Y-88975000D01*
G75*
G02*
X111785000Y-89200000I-225000J0D01*
G01*
G37*
G36*
G01*
X111785000Y-90450000D02*
X110835000Y-90450000D01*
G75*
G02*
X110610000Y-90225000I0J225000D01*
G01*
X110610000Y-89775000D01*
G75*
G02*
X110835000Y-89550000I225000J0D01*
G01*
X111785000Y-89550000D01*
G75*
G02*
X112010000Y-89775000I0J-225000D01*
G01*
X112010000Y-90225000D01*
G75*
G02*
X111785000Y-90450000I-225000J0D01*
G01*
G37*
G36*
G01*
X173419905Y-91450000D02*
X175996095Y-91450000D01*
G75*
G02*
X176258000Y-91711905I0J-261905D01*
G01*
X176258000Y-93388095D01*
G75*
G02*
X175996095Y-93650000I-261905J0D01*
G01*
X173419905Y-93650000D01*
G75*
G02*
X173158000Y-93388095I0J261905D01*
G01*
X173158000Y-91711905D01*
G75*
G02*
X173419905Y-91450000I261905J0D01*
G01*
G37*
G36*
G01*
X173419905Y-71350000D02*
X175996095Y-71350000D01*
G75*
G02*
X176258000Y-71611905I0J-261905D01*
G01*
X176258000Y-73288095D01*
G75*
G02*
X175996095Y-73550000I-261905J0D01*
G01*
X173419905Y-73550000D01*
G75*
G02*
X173158000Y-73288095I0J261905D01*
G01*
X173158000Y-71611905D01*
G75*
G02*
X173419905Y-71350000I261905J0D01*
G01*
G37*
G36*
G01*
X171483000Y-89550000D02*
X172433000Y-89550000D01*
G75*
G02*
X172658000Y-89775000I0J-225000D01*
G01*
X172658000Y-90225000D01*
G75*
G02*
X172433000Y-90450000I-225000J0D01*
G01*
X171483000Y-90450000D01*
G75*
G02*
X171258000Y-90225000I0J225000D01*
G01*
X171258000Y-89775000D01*
G75*
G02*
X171483000Y-89550000I225000J0D01*
G01*
G37*
G36*
G01*
X171483000Y-88300000D02*
X172433000Y-88300000D01*
G75*
G02*
X172658000Y-88525000I0J-225000D01*
G01*
X172658000Y-88975000D01*
G75*
G02*
X172433000Y-89200000I-225000J0D01*
G01*
X171483000Y-89200000D01*
G75*
G02*
X171258000Y-88975000I0J225000D01*
G01*
X171258000Y-88525000D01*
G75*
G02*
X171483000Y-88300000I225000J0D01*
G01*
G37*
G36*
G01*
X171483000Y-87050000D02*
X172433000Y-87050000D01*
G75*
G02*
X172658000Y-87275000I0J-225000D01*
G01*
X172658000Y-87725000D01*
G75*
G02*
X172433000Y-87950000I-225000J0D01*
G01*
X171483000Y-87950000D01*
G75*
G02*
X171258000Y-87725000I0J225000D01*
G01*
X171258000Y-87275000D01*
G75*
G02*
X171483000Y-87050000I225000J0D01*
G01*
G37*
G36*
G01*
X171483000Y-85800000D02*
X172433000Y-85800000D01*
G75*
G02*
X172658000Y-86025000I0J-225000D01*
G01*
X172658000Y-86475000D01*
G75*
G02*
X172433000Y-86700000I-225000J0D01*
G01*
X171483000Y-86700000D01*
G75*
G02*
X171258000Y-86475000I0J225000D01*
G01*
X171258000Y-86025000D01*
G75*
G02*
X171483000Y-85800000I225000J0D01*
G01*
G37*
G36*
G01*
X171483000Y-84550000D02*
X172433000Y-84550000D01*
G75*
G02*
X172658000Y-84775000I0J-225000D01*
G01*
X172658000Y-85225000D01*
G75*
G02*
X172433000Y-85450000I-225000J0D01*
G01*
X171483000Y-85450000D01*
G75*
G02*
X171258000Y-85225000I0J225000D01*
G01*
X171258000Y-84775000D01*
G75*
G02*
X171483000Y-84550000I225000J0D01*
G01*
G37*
G36*
G01*
X171483000Y-83300000D02*
X172433000Y-83300000D01*
G75*
G02*
X172658000Y-83525000I0J-225000D01*
G01*
X172658000Y-83975000D01*
G75*
G02*
X172433000Y-84200000I-225000J0D01*
G01*
X171483000Y-84200000D01*
G75*
G02*
X171258000Y-83975000I0J225000D01*
G01*
X171258000Y-83525000D01*
G75*
G02*
X171483000Y-83300000I225000J0D01*
G01*
G37*
G36*
G01*
X171483000Y-82050000D02*
X172433000Y-82050000D01*
G75*
G02*
X172658000Y-82275000I0J-225000D01*
G01*
X172658000Y-82725000D01*
G75*
G02*
X172433000Y-82950000I-225000J0D01*
G01*
X171483000Y-82950000D01*
G75*
G02*
X171258000Y-82725000I0J225000D01*
G01*
X171258000Y-82275000D01*
G75*
G02*
X171483000Y-82050000I225000J0D01*
G01*
G37*
G36*
G01*
X171483000Y-80800000D02*
X172433000Y-80800000D01*
G75*
G02*
X172658000Y-81025000I0J-225000D01*
G01*
X172658000Y-81475000D01*
G75*
G02*
X172433000Y-81700000I-225000J0D01*
G01*
X171483000Y-81700000D01*
G75*
G02*
X171258000Y-81475000I0J225000D01*
G01*
X171258000Y-81025000D01*
G75*
G02*
X171483000Y-80800000I225000J0D01*
G01*
G37*
G36*
G01*
X171483000Y-79550000D02*
X172433000Y-79550000D01*
G75*
G02*
X172658000Y-79775000I0J-225000D01*
G01*
X172658000Y-80225000D01*
G75*
G02*
X172433000Y-80450000I-225000J0D01*
G01*
X171483000Y-80450000D01*
G75*
G02*
X171258000Y-80225000I0J225000D01*
G01*
X171258000Y-79775000D01*
G75*
G02*
X171483000Y-79550000I225000J0D01*
G01*
G37*
G36*
G01*
X171483000Y-78300000D02*
X172433000Y-78300000D01*
G75*
G02*
X172658000Y-78525000I0J-225000D01*
G01*
X172658000Y-78975000D01*
G75*
G02*
X172433000Y-79200000I-225000J0D01*
G01*
X171483000Y-79200000D01*
G75*
G02*
X171258000Y-78975000I0J225000D01*
G01*
X171258000Y-78525000D01*
G75*
G02*
X171483000Y-78300000I225000J0D01*
G01*
G37*
G36*
G01*
X171483000Y-77050000D02*
X172433000Y-77050000D01*
G75*
G02*
X172658000Y-77275000I0J-225000D01*
G01*
X172658000Y-77725000D01*
G75*
G02*
X172433000Y-77950000I-225000J0D01*
G01*
X171483000Y-77950000D01*
G75*
G02*
X171258000Y-77725000I0J225000D01*
G01*
X171258000Y-77275000D01*
G75*
G02*
X171483000Y-77050000I225000J0D01*
G01*
G37*
G36*
G01*
X171483000Y-75800000D02*
X172433000Y-75800000D01*
G75*
G02*
X172658000Y-76025000I0J-225000D01*
G01*
X172658000Y-76475000D01*
G75*
G02*
X172433000Y-76700000I-225000J0D01*
G01*
X171483000Y-76700000D01*
G75*
G02*
X171258000Y-76475000I0J225000D01*
G01*
X171258000Y-76025000D01*
G75*
G02*
X171483000Y-75800000I225000J0D01*
G01*
G37*
G36*
G01*
X171483000Y-74550000D02*
X172433000Y-74550000D01*
G75*
G02*
X172658000Y-74775000I0J-225000D01*
G01*
X172658000Y-75225000D01*
G75*
G02*
X172433000Y-75450000I-225000J0D01*
G01*
X171483000Y-75450000D01*
G75*
G02*
X171258000Y-75225000I0J225000D01*
G01*
X171258000Y-74775000D01*
G75*
G02*
X171483000Y-74550000I225000J0D01*
G01*
G37*
G36*
G01*
X162894905Y-91450000D02*
X165471095Y-91450000D01*
G75*
G02*
X165733000Y-91711905I0J-261905D01*
G01*
X165733000Y-93388095D01*
G75*
G02*
X165471095Y-93650000I-261905J0D01*
G01*
X162894905Y-93650000D01*
G75*
G02*
X162633000Y-93388095I0J261905D01*
G01*
X162633000Y-91711905D01*
G75*
G02*
X162894905Y-91450000I261905J0D01*
G01*
G37*
G36*
G01*
X162894905Y-71350000D02*
X165471095Y-71350000D01*
G75*
G02*
X165733000Y-71611905I0J-261905D01*
G01*
X165733000Y-73288095D01*
G75*
G02*
X165471095Y-73550000I-261905J0D01*
G01*
X162894905Y-73550000D01*
G75*
G02*
X162633000Y-73288095I0J261905D01*
G01*
X162633000Y-71611905D01*
G75*
G02*
X162894905Y-71350000I261905J0D01*
G01*
G37*
G36*
G01*
X160958000Y-89550000D02*
X161908000Y-89550000D01*
G75*
G02*
X162133000Y-89775000I0J-225000D01*
G01*
X162133000Y-90225000D01*
G75*
G02*
X161908000Y-90450000I-225000J0D01*
G01*
X160958000Y-90450000D01*
G75*
G02*
X160733000Y-90225000I0J225000D01*
G01*
X160733000Y-89775000D01*
G75*
G02*
X160958000Y-89550000I225000J0D01*
G01*
G37*
G36*
G01*
X160958000Y-88300000D02*
X161908000Y-88300000D01*
G75*
G02*
X162133000Y-88525000I0J-225000D01*
G01*
X162133000Y-88975000D01*
G75*
G02*
X161908000Y-89200000I-225000J0D01*
G01*
X160958000Y-89200000D01*
G75*
G02*
X160733000Y-88975000I0J225000D01*
G01*
X160733000Y-88525000D01*
G75*
G02*
X160958000Y-88300000I225000J0D01*
G01*
G37*
G36*
G01*
X160958000Y-87050000D02*
X161908000Y-87050000D01*
G75*
G02*
X162133000Y-87275000I0J-225000D01*
G01*
X162133000Y-87725000D01*
G75*
G02*
X161908000Y-87950000I-225000J0D01*
G01*
X160958000Y-87950000D01*
G75*
G02*
X160733000Y-87725000I0J225000D01*
G01*
X160733000Y-87275000D01*
G75*
G02*
X160958000Y-87050000I225000J0D01*
G01*
G37*
G36*
G01*
X160958000Y-85800000D02*
X161908000Y-85800000D01*
G75*
G02*
X162133000Y-86025000I0J-225000D01*
G01*
X162133000Y-86475000D01*
G75*
G02*
X161908000Y-86700000I-225000J0D01*
G01*
X160958000Y-86700000D01*
G75*
G02*
X160733000Y-86475000I0J225000D01*
G01*
X160733000Y-86025000D01*
G75*
G02*
X160958000Y-85800000I225000J0D01*
G01*
G37*
G36*
G01*
X160958000Y-84550000D02*
X161908000Y-84550000D01*
G75*
G02*
X162133000Y-84775000I0J-225000D01*
G01*
X162133000Y-85225000D01*
G75*
G02*
X161908000Y-85450000I-225000J0D01*
G01*
X160958000Y-85450000D01*
G75*
G02*
X160733000Y-85225000I0J225000D01*
G01*
X160733000Y-84775000D01*
G75*
G02*
X160958000Y-84550000I225000J0D01*
G01*
G37*
G36*
G01*
X160958000Y-83300000D02*
X161908000Y-83300000D01*
G75*
G02*
X162133000Y-83525000I0J-225000D01*
G01*
X162133000Y-83975000D01*
G75*
G02*
X161908000Y-84200000I-225000J0D01*
G01*
X160958000Y-84200000D01*
G75*
G02*
X160733000Y-83975000I0J225000D01*
G01*
X160733000Y-83525000D01*
G75*
G02*
X160958000Y-83300000I225000J0D01*
G01*
G37*
G36*
G01*
X160958000Y-82050000D02*
X161908000Y-82050000D01*
G75*
G02*
X162133000Y-82275000I0J-225000D01*
G01*
X162133000Y-82725000D01*
G75*
G02*
X161908000Y-82950000I-225000J0D01*
G01*
X160958000Y-82950000D01*
G75*
G02*
X160733000Y-82725000I0J225000D01*
G01*
X160733000Y-82275000D01*
G75*
G02*
X160958000Y-82050000I225000J0D01*
G01*
G37*
G36*
G01*
X160958000Y-80800000D02*
X161908000Y-80800000D01*
G75*
G02*
X162133000Y-81025000I0J-225000D01*
G01*
X162133000Y-81475000D01*
G75*
G02*
X161908000Y-81700000I-225000J0D01*
G01*
X160958000Y-81700000D01*
G75*
G02*
X160733000Y-81475000I0J225000D01*
G01*
X160733000Y-81025000D01*
G75*
G02*
X160958000Y-80800000I225000J0D01*
G01*
G37*
G36*
G01*
X160958000Y-79550000D02*
X161908000Y-79550000D01*
G75*
G02*
X162133000Y-79775000I0J-225000D01*
G01*
X162133000Y-80225000D01*
G75*
G02*
X161908000Y-80450000I-225000J0D01*
G01*
X160958000Y-80450000D01*
G75*
G02*
X160733000Y-80225000I0J225000D01*
G01*
X160733000Y-79775000D01*
G75*
G02*
X160958000Y-79550000I225000J0D01*
G01*
G37*
G36*
G01*
X160958000Y-78300000D02*
X161908000Y-78300000D01*
G75*
G02*
X162133000Y-78525000I0J-225000D01*
G01*
X162133000Y-78975000D01*
G75*
G02*
X161908000Y-79200000I-225000J0D01*
G01*
X160958000Y-79200000D01*
G75*
G02*
X160733000Y-78975000I0J225000D01*
G01*
X160733000Y-78525000D01*
G75*
G02*
X160958000Y-78300000I225000J0D01*
G01*
G37*
G36*
G01*
X160958000Y-77050000D02*
X161908000Y-77050000D01*
G75*
G02*
X162133000Y-77275000I0J-225000D01*
G01*
X162133000Y-77725000D01*
G75*
G02*
X161908000Y-77950000I-225000J0D01*
G01*
X160958000Y-77950000D01*
G75*
G02*
X160733000Y-77725000I0J225000D01*
G01*
X160733000Y-77275000D01*
G75*
G02*
X160958000Y-77050000I225000J0D01*
G01*
G37*
G36*
G01*
X160958000Y-75800000D02*
X161908000Y-75800000D01*
G75*
G02*
X162133000Y-76025000I0J-225000D01*
G01*
X162133000Y-76475000D01*
G75*
G02*
X161908000Y-76700000I-225000J0D01*
G01*
X160958000Y-76700000D01*
G75*
G02*
X160733000Y-76475000I0J225000D01*
G01*
X160733000Y-76025000D01*
G75*
G02*
X160958000Y-75800000I225000J0D01*
G01*
G37*
G36*
G01*
X160958000Y-74550000D02*
X161908000Y-74550000D01*
G75*
G02*
X162133000Y-74775000I0J-225000D01*
G01*
X162133000Y-75225000D01*
G75*
G02*
X161908000Y-75450000I-225000J0D01*
G01*
X160958000Y-75450000D01*
G75*
G02*
X160733000Y-75225000I0J225000D01*
G01*
X160733000Y-74775000D01*
G75*
G02*
X160958000Y-74550000I225000J0D01*
G01*
G37*
G36*
G01*
X141422095Y-73550000D02*
X138845905Y-73550000D01*
G75*
G02*
X138584000Y-73288095I0J261905D01*
G01*
X138584000Y-71611905D01*
G75*
G02*
X138845905Y-71350000I261905J0D01*
G01*
X141422095Y-71350000D01*
G75*
G02*
X141684000Y-71611905I0J-261905D01*
G01*
X141684000Y-73288095D01*
G75*
G02*
X141422095Y-73550000I-261905J0D01*
G01*
G37*
G36*
G01*
X141422095Y-93650000D02*
X138845905Y-93650000D01*
G75*
G02*
X138584000Y-93388095I0J261905D01*
G01*
X138584000Y-91711905D01*
G75*
G02*
X138845905Y-91450000I261905J0D01*
G01*
X141422095Y-91450000D01*
G75*
G02*
X141684000Y-91711905I0J-261905D01*
G01*
X141684000Y-93388095D01*
G75*
G02*
X141422095Y-93650000I-261905J0D01*
G01*
G37*
G36*
G01*
X143359000Y-75450000D02*
X142409000Y-75450000D01*
G75*
G02*
X142184000Y-75225000I0J225000D01*
G01*
X142184000Y-74775000D01*
G75*
G02*
X142409000Y-74550000I225000J0D01*
G01*
X143359000Y-74550000D01*
G75*
G02*
X143584000Y-74775000I0J-225000D01*
G01*
X143584000Y-75225000D01*
G75*
G02*
X143359000Y-75450000I-225000J0D01*
G01*
G37*
G36*
G01*
X143359000Y-76700000D02*
X142409000Y-76700000D01*
G75*
G02*
X142184000Y-76475000I0J225000D01*
G01*
X142184000Y-76025000D01*
G75*
G02*
X142409000Y-75800000I225000J0D01*
G01*
X143359000Y-75800000D01*
G75*
G02*
X143584000Y-76025000I0J-225000D01*
G01*
X143584000Y-76475000D01*
G75*
G02*
X143359000Y-76700000I-225000J0D01*
G01*
G37*
G36*
G01*
X143359000Y-77950000D02*
X142409000Y-77950000D01*
G75*
G02*
X142184000Y-77725000I0J225000D01*
G01*
X142184000Y-77275000D01*
G75*
G02*
X142409000Y-77050000I225000J0D01*
G01*
X143359000Y-77050000D01*
G75*
G02*
X143584000Y-77275000I0J-225000D01*
G01*
X143584000Y-77725000D01*
G75*
G02*
X143359000Y-77950000I-225000J0D01*
G01*
G37*
G36*
G01*
X143359000Y-79200000D02*
X142409000Y-79200000D01*
G75*
G02*
X142184000Y-78975000I0J225000D01*
G01*
X142184000Y-78525000D01*
G75*
G02*
X142409000Y-78300000I225000J0D01*
G01*
X143359000Y-78300000D01*
G75*
G02*
X143584000Y-78525000I0J-225000D01*
G01*
X143584000Y-78975000D01*
G75*
G02*
X143359000Y-79200000I-225000J0D01*
G01*
G37*
G36*
G01*
X143359000Y-80450000D02*
X142409000Y-80450000D01*
G75*
G02*
X142184000Y-80225000I0J225000D01*
G01*
X142184000Y-79775000D01*
G75*
G02*
X142409000Y-79550000I225000J0D01*
G01*
X143359000Y-79550000D01*
G75*
G02*
X143584000Y-79775000I0J-225000D01*
G01*
X143584000Y-80225000D01*
G75*
G02*
X143359000Y-80450000I-225000J0D01*
G01*
G37*
G36*
G01*
X143359000Y-81700000D02*
X142409000Y-81700000D01*
G75*
G02*
X142184000Y-81475000I0J225000D01*
G01*
X142184000Y-81025000D01*
G75*
G02*
X142409000Y-80800000I225000J0D01*
G01*
X143359000Y-80800000D01*
G75*
G02*
X143584000Y-81025000I0J-225000D01*
G01*
X143584000Y-81475000D01*
G75*
G02*
X143359000Y-81700000I-225000J0D01*
G01*
G37*
G36*
G01*
X143359000Y-82950000D02*
X142409000Y-82950000D01*
G75*
G02*
X142184000Y-82725000I0J225000D01*
G01*
X142184000Y-82275000D01*
G75*
G02*
X142409000Y-82050000I225000J0D01*
G01*
X143359000Y-82050000D01*
G75*
G02*
X143584000Y-82275000I0J-225000D01*
G01*
X143584000Y-82725000D01*
G75*
G02*
X143359000Y-82950000I-225000J0D01*
G01*
G37*
G36*
G01*
X143359000Y-84200000D02*
X142409000Y-84200000D01*
G75*
G02*
X142184000Y-83975000I0J225000D01*
G01*
X142184000Y-83525000D01*
G75*
G02*
X142409000Y-83300000I225000J0D01*
G01*
X143359000Y-83300000D01*
G75*
G02*
X143584000Y-83525000I0J-225000D01*
G01*
X143584000Y-83975000D01*
G75*
G02*
X143359000Y-84200000I-225000J0D01*
G01*
G37*
G36*
G01*
X143359000Y-85450000D02*
X142409000Y-85450000D01*
G75*
G02*
X142184000Y-85225000I0J225000D01*
G01*
X142184000Y-84775000D01*
G75*
G02*
X142409000Y-84550000I225000J0D01*
G01*
X143359000Y-84550000D01*
G75*
G02*
X143584000Y-84775000I0J-225000D01*
G01*
X143584000Y-85225000D01*
G75*
G02*
X143359000Y-85450000I-225000J0D01*
G01*
G37*
G36*
G01*
X143359000Y-86700000D02*
X142409000Y-86700000D01*
G75*
G02*
X142184000Y-86475000I0J225000D01*
G01*
X142184000Y-86025000D01*
G75*
G02*
X142409000Y-85800000I225000J0D01*
G01*
X143359000Y-85800000D01*
G75*
G02*
X143584000Y-86025000I0J-225000D01*
G01*
X143584000Y-86475000D01*
G75*
G02*
X143359000Y-86700000I-225000J0D01*
G01*
G37*
G36*
G01*
X143359000Y-87950000D02*
X142409000Y-87950000D01*
G75*
G02*
X142184000Y-87725000I0J225000D01*
G01*
X142184000Y-87275000D01*
G75*
G02*
X142409000Y-87050000I225000J0D01*
G01*
X143359000Y-87050000D01*
G75*
G02*
X143584000Y-87275000I0J-225000D01*
G01*
X143584000Y-87725000D01*
G75*
G02*
X143359000Y-87950000I-225000J0D01*
G01*
G37*
G36*
G01*
X143359000Y-89200000D02*
X142409000Y-89200000D01*
G75*
G02*
X142184000Y-88975000I0J225000D01*
G01*
X142184000Y-88525000D01*
G75*
G02*
X142409000Y-88300000I225000J0D01*
G01*
X143359000Y-88300000D01*
G75*
G02*
X143584000Y-88525000I0J-225000D01*
G01*
X143584000Y-88975000D01*
G75*
G02*
X143359000Y-89200000I-225000J0D01*
G01*
G37*
G36*
G01*
X143359000Y-90450000D02*
X142409000Y-90450000D01*
G75*
G02*
X142184000Y-90225000I0J225000D01*
G01*
X142184000Y-89775000D01*
G75*
G02*
X142409000Y-89550000I225000J0D01*
G01*
X143359000Y-89550000D01*
G75*
G02*
X143584000Y-89775000I0J-225000D01*
G01*
X143584000Y-90225000D01*
G75*
G02*
X143359000Y-90450000I-225000J0D01*
G01*
G37*
G36*
G01*
X120373095Y-73550000D02*
X117796905Y-73550000D01*
G75*
G02*
X117535000Y-73288095I0J261905D01*
G01*
X117535000Y-71611905D01*
G75*
G02*
X117796905Y-71350000I261905J0D01*
G01*
X120373095Y-71350000D01*
G75*
G02*
X120635000Y-71611905I0J-261905D01*
G01*
X120635000Y-73288095D01*
G75*
G02*
X120373095Y-73550000I-261905J0D01*
G01*
G37*
G36*
G01*
X120373095Y-93650000D02*
X117796905Y-93650000D01*
G75*
G02*
X117535000Y-93388095I0J261905D01*
G01*
X117535000Y-91711905D01*
G75*
G02*
X117796905Y-91450000I261905J0D01*
G01*
X120373095Y-91450000D01*
G75*
G02*
X120635000Y-91711905I0J-261905D01*
G01*
X120635000Y-93388095D01*
G75*
G02*
X120373095Y-93650000I-261905J0D01*
G01*
G37*
G36*
G01*
X122310000Y-75450000D02*
X121360000Y-75450000D01*
G75*
G02*
X121135000Y-75225000I0J225000D01*
G01*
X121135000Y-74775000D01*
G75*
G02*
X121360000Y-74550000I225000J0D01*
G01*
X122310000Y-74550000D01*
G75*
G02*
X122535000Y-74775000I0J-225000D01*
G01*
X122535000Y-75225000D01*
G75*
G02*
X122310000Y-75450000I-225000J0D01*
G01*
G37*
G36*
G01*
X122310000Y-76700000D02*
X121360000Y-76700000D01*
G75*
G02*
X121135000Y-76475000I0J225000D01*
G01*
X121135000Y-76025000D01*
G75*
G02*
X121360000Y-75800000I225000J0D01*
G01*
X122310000Y-75800000D01*
G75*
G02*
X122535000Y-76025000I0J-225000D01*
G01*
X122535000Y-76475000D01*
G75*
G02*
X122310000Y-76700000I-225000J0D01*
G01*
G37*
G36*
G01*
X122310000Y-77950000D02*
X121360000Y-77950000D01*
G75*
G02*
X121135000Y-77725000I0J225000D01*
G01*
X121135000Y-77275000D01*
G75*
G02*
X121360000Y-77050000I225000J0D01*
G01*
X122310000Y-77050000D01*
G75*
G02*
X122535000Y-77275000I0J-225000D01*
G01*
X122535000Y-77725000D01*
G75*
G02*
X122310000Y-77950000I-225000J0D01*
G01*
G37*
G36*
G01*
X122310000Y-79200000D02*
X121360000Y-79200000D01*
G75*
G02*
X121135000Y-78975000I0J225000D01*
G01*
X121135000Y-78525000D01*
G75*
G02*
X121360000Y-78300000I225000J0D01*
G01*
X122310000Y-78300000D01*
G75*
G02*
X122535000Y-78525000I0J-225000D01*
G01*
X122535000Y-78975000D01*
G75*
G02*
X122310000Y-79200000I-225000J0D01*
G01*
G37*
G36*
G01*
X122310000Y-80450000D02*
X121360000Y-80450000D01*
G75*
G02*
X121135000Y-80225000I0J225000D01*
G01*
X121135000Y-79775000D01*
G75*
G02*
X121360000Y-79550000I225000J0D01*
G01*
X122310000Y-79550000D01*
G75*
G02*
X122535000Y-79775000I0J-225000D01*
G01*
X122535000Y-80225000D01*
G75*
G02*
X122310000Y-80450000I-225000J0D01*
G01*
G37*
G36*
G01*
X122310000Y-81700000D02*
X121360000Y-81700000D01*
G75*
G02*
X121135000Y-81475000I0J225000D01*
G01*
X121135000Y-81025000D01*
G75*
G02*
X121360000Y-80800000I225000J0D01*
G01*
X122310000Y-80800000D01*
G75*
G02*
X122535000Y-81025000I0J-225000D01*
G01*
X122535000Y-81475000D01*
G75*
G02*
X122310000Y-81700000I-225000J0D01*
G01*
G37*
G36*
G01*
X122310000Y-82950000D02*
X121360000Y-82950000D01*
G75*
G02*
X121135000Y-82725000I0J225000D01*
G01*
X121135000Y-82275000D01*
G75*
G02*
X121360000Y-82050000I225000J0D01*
G01*
X122310000Y-82050000D01*
G75*
G02*
X122535000Y-82275000I0J-225000D01*
G01*
X122535000Y-82725000D01*
G75*
G02*
X122310000Y-82950000I-225000J0D01*
G01*
G37*
G36*
G01*
X122310000Y-84200000D02*
X121360000Y-84200000D01*
G75*
G02*
X121135000Y-83975000I0J225000D01*
G01*
X121135000Y-83525000D01*
G75*
G02*
X121360000Y-83300000I225000J0D01*
G01*
X122310000Y-83300000D01*
G75*
G02*
X122535000Y-83525000I0J-225000D01*
G01*
X122535000Y-83975000D01*
G75*
G02*
X122310000Y-84200000I-225000J0D01*
G01*
G37*
G36*
G01*
X122310000Y-85450000D02*
X121360000Y-85450000D01*
G75*
G02*
X121135000Y-85225000I0J225000D01*
G01*
X121135000Y-84775000D01*
G75*
G02*
X121360000Y-84550000I225000J0D01*
G01*
X122310000Y-84550000D01*
G75*
G02*
X122535000Y-84775000I0J-225000D01*
G01*
X122535000Y-85225000D01*
G75*
G02*
X122310000Y-85450000I-225000J0D01*
G01*
G37*
G36*
G01*
X122310000Y-86700000D02*
X121360000Y-86700000D01*
G75*
G02*
X121135000Y-86475000I0J225000D01*
G01*
X121135000Y-86025000D01*
G75*
G02*
X121360000Y-85800000I225000J0D01*
G01*
X122310000Y-85800000D01*
G75*
G02*
X122535000Y-86025000I0J-225000D01*
G01*
X122535000Y-86475000D01*
G75*
G02*
X122310000Y-86700000I-225000J0D01*
G01*
G37*
G36*
G01*
X122310000Y-87950000D02*
X121360000Y-87950000D01*
G75*
G02*
X121135000Y-87725000I0J225000D01*
G01*
X121135000Y-87275000D01*
G75*
G02*
X121360000Y-87050000I225000J0D01*
G01*
X122310000Y-87050000D01*
G75*
G02*
X122535000Y-87275000I0J-225000D01*
G01*
X122535000Y-87725000D01*
G75*
G02*
X122310000Y-87950000I-225000J0D01*
G01*
G37*
G36*
G01*
X122310000Y-89200000D02*
X121360000Y-89200000D01*
G75*
G02*
X121135000Y-88975000I0J225000D01*
G01*
X121135000Y-88525000D01*
G75*
G02*
X121360000Y-88300000I225000J0D01*
G01*
X122310000Y-88300000D01*
G75*
G02*
X122535000Y-88525000I0J-225000D01*
G01*
X122535000Y-88975000D01*
G75*
G02*
X122310000Y-89200000I-225000J0D01*
G01*
G37*
G36*
G01*
X122310000Y-90450000D02*
X121360000Y-90450000D01*
G75*
G02*
X121135000Y-90225000I0J225000D01*
G01*
X121135000Y-89775000D01*
G75*
G02*
X121360000Y-89550000I225000J0D01*
G01*
X122310000Y-89550000D01*
G75*
G02*
X122535000Y-89775000I0J-225000D01*
G01*
X122535000Y-90225000D01*
G75*
G02*
X122310000Y-90450000I-225000J0D01*
G01*
G37*
X183730000Y-54636000D03*
X110070000Y-54636000D03*
M02*
