%TF.GenerationSoftware,KiCad,Pcbnew,5.1.6-1.fc32*%
%TF.CreationDate,2020-07-10T21:32:06-03:00*%
%TF.ProjectId,pc104-adapter-top,70633130-342d-4616-9461-707465722d74,v1.0*%
%TF.SameCoordinates,Original*%
%TF.FileFunction,Copper,L1,Top*%
%TF.FilePolarity,Positive*%
%FSLAX46Y46*%
G04 Gerber Fmt 4.6, Leading zero omitted, Abs format (unit mm)*
G04 Created by KiCad (PCBNEW 5.1.6-1.fc32) date 2020-07-10 21:32:06*
%MOMM*%
%LPD*%
G01*
G04 APERTURE LIST*
%TA.AperFunction,ViaPad*%
%ADD10C,1.620000*%
%TD*%
%TA.AperFunction,ComponentPad*%
%ADD11C,5.500000*%
%TD*%
%TA.AperFunction,ViaPad*%
%ADD12C,0.800000*%
%TD*%
%TA.AperFunction,NonConductor*%
%ADD13C,0.254000*%
%TD*%
G04 APERTURE END LIST*
D10*
%TO.N,/A52*%
%TO.C,J9*%
X168050000Y-80436000D03*
%TO.N,/A51*%
X168050000Y-82976000D03*
%TO.N,/A50*%
X165510000Y-80436000D03*
%TO.N,/A49*%
X165510000Y-82976000D03*
%TO.N,/A48*%
X162970000Y-80436000D03*
%TO.N,/A47*%
X162970000Y-82976000D03*
%TO.N,/A46*%
X160430000Y-80436000D03*
%TO.N,/A45*%
X160430000Y-82976000D03*
%TO.N,/A44*%
X157890000Y-80436000D03*
%TO.N,/A43*%
X157890000Y-82976000D03*
%TO.N,/A42*%
X155350000Y-80436000D03*
%TO.N,/A41*%
X155350000Y-82976000D03*
%TO.N,/A40*%
X152810000Y-80436000D03*
%TO.N,/A39*%
X152810000Y-82976000D03*
%TO.N,/A38*%
X150270000Y-80436000D03*
%TO.N,/A37*%
X150270000Y-82976000D03*
%TO.N,/A36*%
X147730000Y-80436000D03*
%TO.N,/A35*%
X147730000Y-82976000D03*
%TO.N,/A34*%
X145190000Y-80436000D03*
%TO.N,/A33*%
X145190000Y-82976000D03*
%TO.N,/A32*%
X142650000Y-80436000D03*
%TO.N,/A31*%
X142650000Y-82976000D03*
%TO.N,/A30*%
X140110000Y-80436000D03*
%TO.N,/A29*%
X140110000Y-82976000D03*
%TO.N,/A28*%
X137570000Y-80436000D03*
%TO.N,/A27*%
X137570000Y-82976000D03*
%TO.N,/A26*%
X135030000Y-80436000D03*
%TO.N,/A25*%
X135030000Y-82976000D03*
%TO.N,/A24*%
X132490000Y-80436000D03*
%TO.N,/A23*%
X132490000Y-82976000D03*
%TO.N,/A22*%
X129950000Y-80436000D03*
%TO.N,/A21*%
X129950000Y-82976000D03*
%TO.N,/A20*%
X127410000Y-80436000D03*
%TO.N,/A19*%
X127410000Y-82976000D03*
%TO.N,/A18*%
X124870000Y-80436000D03*
%TO.N,/A17*%
X124870000Y-82976000D03*
%TO.N,/A16*%
X122330000Y-80436000D03*
%TO.N,/A15*%
X122330000Y-82976000D03*
%TO.N,/A14*%
X119790000Y-80436000D03*
%TO.N,/A13*%
X119790000Y-82976000D03*
%TO.N,/A12*%
X117250000Y-80436000D03*
%TO.N,/A11*%
X117250000Y-82976000D03*
%TO.N,/A10*%
X114710000Y-80436000D03*
%TO.N,/A9*%
X114710000Y-82976000D03*
%TO.N,/A8*%
X112170000Y-80436000D03*
%TO.N,/A7*%
X112170000Y-82976000D03*
%TO.N,/A6*%
X109630000Y-80436000D03*
%TO.N,/A5*%
X109630000Y-82976000D03*
%TO.N,/A4*%
X107090000Y-80436000D03*
%TO.N,/A3*%
X107090000Y-82976000D03*
%TO.N,/A2*%
X104550000Y-80436000D03*
%TO.N,/A1*%
X104550000Y-82976000D03*
%TD*%
%TO.N,/B52*%
%TO.C,J10*%
X168050000Y-85516000D03*
%TO.N,/B51*%
X168050000Y-88056000D03*
%TO.N,/B50*%
X165510000Y-85516000D03*
%TO.N,/B49*%
X165510000Y-88056000D03*
%TO.N,/B48*%
X162970000Y-85516000D03*
%TO.N,/B47*%
X162970000Y-88056000D03*
%TO.N,/B46*%
X160430000Y-85516000D03*
%TO.N,/B45*%
X160430000Y-88056000D03*
%TO.N,/B44*%
X157890000Y-85516000D03*
%TO.N,/B43*%
X157890000Y-88056000D03*
%TO.N,/B42*%
X155350000Y-85516000D03*
%TO.N,/B41*%
X155350000Y-88056000D03*
%TO.N,/B40*%
X152810000Y-85516000D03*
%TO.N,/B39*%
X152810000Y-88056000D03*
%TO.N,/B38*%
X150270000Y-85516000D03*
%TO.N,/B37*%
X150270000Y-88056000D03*
%TO.N,/B36*%
X147730000Y-85516000D03*
%TO.N,/B35*%
X147730000Y-88056000D03*
%TO.N,/B34*%
X145190000Y-85516000D03*
%TO.N,/B33*%
X145190000Y-88056000D03*
%TO.N,/B32*%
X142650000Y-85516000D03*
%TO.N,/B31*%
X142650000Y-88056000D03*
%TO.N,/B30*%
X140110000Y-85516000D03*
%TO.N,/B29*%
X140110000Y-88056000D03*
%TO.N,/B28*%
X137570000Y-85516000D03*
%TO.N,/B27*%
X137570000Y-88056000D03*
%TO.N,/B26*%
X135030000Y-85516000D03*
%TO.N,/B25*%
X135030000Y-88056000D03*
%TO.N,/B24*%
X132490000Y-85516000D03*
%TO.N,/B23*%
X132490000Y-88056000D03*
%TO.N,/B22*%
X129950000Y-85516000D03*
%TO.N,/B21*%
X129950000Y-88056000D03*
%TO.N,/B20*%
X127410000Y-85516000D03*
%TO.N,/B19*%
X127410000Y-88056000D03*
%TO.N,/B18*%
X124870000Y-85516000D03*
%TO.N,/B17*%
X124870000Y-88056000D03*
%TO.N,/B16*%
X122330000Y-85516000D03*
%TO.N,/B15*%
X122330000Y-88056000D03*
%TO.N,/B14*%
X119790000Y-85516000D03*
%TO.N,/B13*%
X119790000Y-88056000D03*
%TO.N,/B12*%
X117250000Y-85516000D03*
%TO.N,/B11*%
X117250000Y-88056000D03*
%TO.N,/B10*%
X114710000Y-85516000D03*
%TO.N,/B9*%
X114710000Y-88056000D03*
%TO.N,/B8*%
X112170000Y-85516000D03*
%TO.N,/B7*%
X112170000Y-88056000D03*
%TO.N,/B6*%
X109630000Y-85516000D03*
%TO.N,/B5*%
X109630000Y-88056000D03*
%TO.N,/B4*%
X107090000Y-85516000D03*
%TO.N,/B3*%
X107090000Y-88056000D03*
%TO.N,/B2*%
X104550000Y-85516000D03*
%TO.N,/B1*%
X104550000Y-88056000D03*
%TD*%
D11*
%TO.P,H2,1*%
%TO.N,GND*%
X173140000Y-80436000D03*
%TD*%
%TO.P,H1,1*%
%TO.N,GND*%
X99460000Y-80436000D03*
%TD*%
D12*
%TO.N,/A13*%
X109000000Y-107000000D03*
%TO.N,/A12*%
X107750000Y-107000000D03*
%TO.N,/A11*%
X106500000Y-107000000D03*
%TO.N,/A10*%
X105250000Y-107000000D03*
%TO.N,/A9*%
X104000000Y-107000000D03*
%TO.N,/A8*%
X102750000Y-107000000D03*
%TO.N,/A7*%
X101500000Y-107000000D03*
%TO.N,/A6*%
X100250000Y-107000000D03*
%TO.N,/A5*%
X99000000Y-107000000D03*
%TO.N,/A4*%
X97750000Y-107000000D03*
%TO.N,/A3*%
X96500000Y-107000000D03*
%TO.N,/A2*%
X95250000Y-107000000D03*
%TO.N,/A1*%
X94000000Y-107000000D03*
%TO.N,/A26*%
X132200000Y-107000000D03*
%TO.N,/A25*%
X130950000Y-107000000D03*
%TO.N,/A24*%
X129700000Y-107000000D03*
%TO.N,/A23*%
X128450000Y-107000000D03*
%TO.N,/A22*%
X127200000Y-107000000D03*
%TO.N,/A21*%
X125950000Y-107000000D03*
%TO.N,/A20*%
X124700000Y-107000000D03*
%TO.N,/A19*%
X123450000Y-107000000D03*
%TO.N,/A18*%
X122200000Y-107000000D03*
%TO.N,/A17*%
X120950000Y-107000000D03*
%TO.N,/A16*%
X119700000Y-107000000D03*
%TO.N,/A15*%
X118450000Y-107000000D03*
%TO.N,/A14*%
X117200000Y-107000000D03*
%TO.N,/A39*%
X155400000Y-107000000D03*
%TO.N,/A38*%
X154150000Y-107000000D03*
%TO.N,/A37*%
X152900000Y-107000000D03*
%TO.N,/A36*%
X151650000Y-107000000D03*
%TO.N,/A35*%
X150400000Y-107000000D03*
%TO.N,/A34*%
X149150000Y-107000000D03*
%TO.N,/A33*%
X147900000Y-107000000D03*
%TO.N,/A32*%
X146650000Y-107000000D03*
%TO.N,/A31*%
X145400000Y-107000000D03*
%TO.N,/A30*%
X144150000Y-107000000D03*
%TO.N,/A29*%
X142900000Y-107000000D03*
%TO.N,/A28*%
X141650000Y-107000000D03*
%TO.N,/A27*%
X140400000Y-107000000D03*
%TO.N,/A52*%
X178600000Y-107000000D03*
%TO.N,/A51*%
X177350000Y-107000000D03*
%TO.N,/A50*%
X176100000Y-107000000D03*
%TO.N,/A49*%
X174850000Y-107000000D03*
%TO.N,/A48*%
X173600000Y-107000000D03*
%TO.N,/A47*%
X172350000Y-107000000D03*
%TO.N,/A46*%
X171100000Y-107000000D03*
%TO.N,/A45*%
X169850000Y-107000000D03*
%TO.N,/A44*%
X168600000Y-107000000D03*
%TO.N,/A43*%
X167350000Y-107000000D03*
%TO.N,/A42*%
X166100000Y-107000000D03*
%TO.N,/A41*%
X164850000Y-107000000D03*
%TO.N,/A40*%
X163600000Y-107000000D03*
%TD*%
D13*
G36*
X170510698Y-78278188D02*
G01*
X170140252Y-78832601D01*
X169885083Y-79448632D01*
X169755000Y-80102607D01*
X169755000Y-80769393D01*
X169885083Y-81423368D01*
X170140252Y-82039399D01*
X170510698Y-82593812D01*
X170982188Y-83065302D01*
X171536601Y-83435748D01*
X172152632Y-83690917D01*
X172806607Y-83821000D01*
X173473393Y-83821000D01*
X174127368Y-83690917D01*
X174743399Y-83435748D01*
X175297812Y-83065302D01*
X175430001Y-82933113D01*
X175430001Y-87401113D01*
X175426565Y-87436000D01*
X175440273Y-87575184D01*
X175480872Y-87709020D01*
X175546800Y-87832363D01*
X175635525Y-87940475D01*
X175743637Y-88029200D01*
X175866980Y-88095128D01*
X176000816Y-88135727D01*
X176105123Y-88146000D01*
X176140000Y-88149435D01*
X176174877Y-88146000D01*
X181990001Y-88146000D01*
X181990000Y-109290000D01*
X90610000Y-109290000D01*
X90610000Y-106898061D01*
X92965000Y-106898061D01*
X92965000Y-107101939D01*
X93004774Y-107301898D01*
X93082795Y-107490256D01*
X93196063Y-107659774D01*
X93340226Y-107803937D01*
X93509744Y-107917205D01*
X93698102Y-107995226D01*
X93898061Y-108035000D01*
X94101939Y-108035000D01*
X94301898Y-107995226D01*
X94490256Y-107917205D01*
X94625000Y-107827172D01*
X94759744Y-107917205D01*
X94948102Y-107995226D01*
X95148061Y-108035000D01*
X95351939Y-108035000D01*
X95551898Y-107995226D01*
X95740256Y-107917205D01*
X95875000Y-107827172D01*
X96009744Y-107917205D01*
X96198102Y-107995226D01*
X96398061Y-108035000D01*
X96601939Y-108035000D01*
X96801898Y-107995226D01*
X96990256Y-107917205D01*
X97125000Y-107827172D01*
X97259744Y-107917205D01*
X97448102Y-107995226D01*
X97648061Y-108035000D01*
X97851939Y-108035000D01*
X98051898Y-107995226D01*
X98240256Y-107917205D01*
X98375000Y-107827172D01*
X98509744Y-107917205D01*
X98698102Y-107995226D01*
X98898061Y-108035000D01*
X99101939Y-108035000D01*
X99301898Y-107995226D01*
X99490256Y-107917205D01*
X99625000Y-107827172D01*
X99759744Y-107917205D01*
X99948102Y-107995226D01*
X100148061Y-108035000D01*
X100351939Y-108035000D01*
X100551898Y-107995226D01*
X100740256Y-107917205D01*
X100875000Y-107827172D01*
X101009744Y-107917205D01*
X101198102Y-107995226D01*
X101398061Y-108035000D01*
X101601939Y-108035000D01*
X101801898Y-107995226D01*
X101990256Y-107917205D01*
X102125000Y-107827172D01*
X102259744Y-107917205D01*
X102448102Y-107995226D01*
X102648061Y-108035000D01*
X102851939Y-108035000D01*
X103051898Y-107995226D01*
X103240256Y-107917205D01*
X103375000Y-107827172D01*
X103509744Y-107917205D01*
X103698102Y-107995226D01*
X103898061Y-108035000D01*
X104101939Y-108035000D01*
X104301898Y-107995226D01*
X104490256Y-107917205D01*
X104625000Y-107827172D01*
X104759744Y-107917205D01*
X104948102Y-107995226D01*
X105148061Y-108035000D01*
X105351939Y-108035000D01*
X105551898Y-107995226D01*
X105740256Y-107917205D01*
X105875000Y-107827172D01*
X106009744Y-107917205D01*
X106198102Y-107995226D01*
X106398061Y-108035000D01*
X106601939Y-108035000D01*
X106801898Y-107995226D01*
X106990256Y-107917205D01*
X107125000Y-107827172D01*
X107259744Y-107917205D01*
X107448102Y-107995226D01*
X107648061Y-108035000D01*
X107851939Y-108035000D01*
X108051898Y-107995226D01*
X108240256Y-107917205D01*
X108375000Y-107827172D01*
X108509744Y-107917205D01*
X108698102Y-107995226D01*
X108898061Y-108035000D01*
X109101939Y-108035000D01*
X109301898Y-107995226D01*
X109490256Y-107917205D01*
X109659774Y-107803937D01*
X109803937Y-107659774D01*
X109917205Y-107490256D01*
X109995226Y-107301898D01*
X110035000Y-107101939D01*
X110035000Y-106898061D01*
X116165000Y-106898061D01*
X116165000Y-107101939D01*
X116204774Y-107301898D01*
X116282795Y-107490256D01*
X116396063Y-107659774D01*
X116540226Y-107803937D01*
X116709744Y-107917205D01*
X116898102Y-107995226D01*
X117098061Y-108035000D01*
X117301939Y-108035000D01*
X117501898Y-107995226D01*
X117690256Y-107917205D01*
X117825000Y-107827172D01*
X117959744Y-107917205D01*
X118148102Y-107995226D01*
X118348061Y-108035000D01*
X118551939Y-108035000D01*
X118751898Y-107995226D01*
X118940256Y-107917205D01*
X119075000Y-107827172D01*
X119209744Y-107917205D01*
X119398102Y-107995226D01*
X119598061Y-108035000D01*
X119801939Y-108035000D01*
X120001898Y-107995226D01*
X120190256Y-107917205D01*
X120325000Y-107827172D01*
X120459744Y-107917205D01*
X120648102Y-107995226D01*
X120848061Y-108035000D01*
X121051939Y-108035000D01*
X121251898Y-107995226D01*
X121440256Y-107917205D01*
X121575000Y-107827172D01*
X121709744Y-107917205D01*
X121898102Y-107995226D01*
X122098061Y-108035000D01*
X122301939Y-108035000D01*
X122501898Y-107995226D01*
X122690256Y-107917205D01*
X122825000Y-107827172D01*
X122959744Y-107917205D01*
X123148102Y-107995226D01*
X123348061Y-108035000D01*
X123551939Y-108035000D01*
X123751898Y-107995226D01*
X123940256Y-107917205D01*
X124075000Y-107827172D01*
X124209744Y-107917205D01*
X124398102Y-107995226D01*
X124598061Y-108035000D01*
X124801939Y-108035000D01*
X125001898Y-107995226D01*
X125190256Y-107917205D01*
X125325000Y-107827172D01*
X125459744Y-107917205D01*
X125648102Y-107995226D01*
X125848061Y-108035000D01*
X126051939Y-108035000D01*
X126251898Y-107995226D01*
X126440256Y-107917205D01*
X126575000Y-107827172D01*
X126709744Y-107917205D01*
X126898102Y-107995226D01*
X127098061Y-108035000D01*
X127301939Y-108035000D01*
X127501898Y-107995226D01*
X127690256Y-107917205D01*
X127825000Y-107827172D01*
X127959744Y-107917205D01*
X128148102Y-107995226D01*
X128348061Y-108035000D01*
X128551939Y-108035000D01*
X128751898Y-107995226D01*
X128940256Y-107917205D01*
X129075000Y-107827172D01*
X129209744Y-107917205D01*
X129398102Y-107995226D01*
X129598061Y-108035000D01*
X129801939Y-108035000D01*
X130001898Y-107995226D01*
X130190256Y-107917205D01*
X130325000Y-107827172D01*
X130459744Y-107917205D01*
X130648102Y-107995226D01*
X130848061Y-108035000D01*
X131051939Y-108035000D01*
X131251898Y-107995226D01*
X131440256Y-107917205D01*
X131575000Y-107827172D01*
X131709744Y-107917205D01*
X131898102Y-107995226D01*
X132098061Y-108035000D01*
X132301939Y-108035000D01*
X132501898Y-107995226D01*
X132690256Y-107917205D01*
X132859774Y-107803937D01*
X133003937Y-107659774D01*
X133117205Y-107490256D01*
X133195226Y-107301898D01*
X133235000Y-107101939D01*
X133235000Y-106898061D01*
X139365000Y-106898061D01*
X139365000Y-107101939D01*
X139404774Y-107301898D01*
X139482795Y-107490256D01*
X139596063Y-107659774D01*
X139740226Y-107803937D01*
X139909744Y-107917205D01*
X140098102Y-107995226D01*
X140298061Y-108035000D01*
X140501939Y-108035000D01*
X140701898Y-107995226D01*
X140890256Y-107917205D01*
X141025000Y-107827172D01*
X141159744Y-107917205D01*
X141348102Y-107995226D01*
X141548061Y-108035000D01*
X141751939Y-108035000D01*
X141951898Y-107995226D01*
X142140256Y-107917205D01*
X142275000Y-107827172D01*
X142409744Y-107917205D01*
X142598102Y-107995226D01*
X142798061Y-108035000D01*
X143001939Y-108035000D01*
X143201898Y-107995226D01*
X143390256Y-107917205D01*
X143525000Y-107827172D01*
X143659744Y-107917205D01*
X143848102Y-107995226D01*
X144048061Y-108035000D01*
X144251939Y-108035000D01*
X144451898Y-107995226D01*
X144640256Y-107917205D01*
X144775000Y-107827172D01*
X144909744Y-107917205D01*
X145098102Y-107995226D01*
X145298061Y-108035000D01*
X145501939Y-108035000D01*
X145701898Y-107995226D01*
X145890256Y-107917205D01*
X146025000Y-107827172D01*
X146159744Y-107917205D01*
X146348102Y-107995226D01*
X146548061Y-108035000D01*
X146751939Y-108035000D01*
X146951898Y-107995226D01*
X147140256Y-107917205D01*
X147275000Y-107827172D01*
X147409744Y-107917205D01*
X147598102Y-107995226D01*
X147798061Y-108035000D01*
X148001939Y-108035000D01*
X148201898Y-107995226D01*
X148390256Y-107917205D01*
X148525000Y-107827172D01*
X148659744Y-107917205D01*
X148848102Y-107995226D01*
X149048061Y-108035000D01*
X149251939Y-108035000D01*
X149451898Y-107995226D01*
X149640256Y-107917205D01*
X149775000Y-107827172D01*
X149909744Y-107917205D01*
X150098102Y-107995226D01*
X150298061Y-108035000D01*
X150501939Y-108035000D01*
X150701898Y-107995226D01*
X150890256Y-107917205D01*
X151025000Y-107827172D01*
X151159744Y-107917205D01*
X151348102Y-107995226D01*
X151548061Y-108035000D01*
X151751939Y-108035000D01*
X151951898Y-107995226D01*
X152140256Y-107917205D01*
X152275000Y-107827172D01*
X152409744Y-107917205D01*
X152598102Y-107995226D01*
X152798061Y-108035000D01*
X153001939Y-108035000D01*
X153201898Y-107995226D01*
X153390256Y-107917205D01*
X153525000Y-107827172D01*
X153659744Y-107917205D01*
X153848102Y-107995226D01*
X154048061Y-108035000D01*
X154251939Y-108035000D01*
X154451898Y-107995226D01*
X154640256Y-107917205D01*
X154775000Y-107827172D01*
X154909744Y-107917205D01*
X155098102Y-107995226D01*
X155298061Y-108035000D01*
X155501939Y-108035000D01*
X155701898Y-107995226D01*
X155890256Y-107917205D01*
X156059774Y-107803937D01*
X156203937Y-107659774D01*
X156317205Y-107490256D01*
X156395226Y-107301898D01*
X156435000Y-107101939D01*
X156435000Y-106898061D01*
X162565000Y-106898061D01*
X162565000Y-107101939D01*
X162604774Y-107301898D01*
X162682795Y-107490256D01*
X162796063Y-107659774D01*
X162940226Y-107803937D01*
X163109744Y-107917205D01*
X163298102Y-107995226D01*
X163498061Y-108035000D01*
X163701939Y-108035000D01*
X163901898Y-107995226D01*
X164090256Y-107917205D01*
X164225000Y-107827172D01*
X164359744Y-107917205D01*
X164548102Y-107995226D01*
X164748061Y-108035000D01*
X164951939Y-108035000D01*
X165151898Y-107995226D01*
X165340256Y-107917205D01*
X165475000Y-107827172D01*
X165609744Y-107917205D01*
X165798102Y-107995226D01*
X165998061Y-108035000D01*
X166201939Y-108035000D01*
X166401898Y-107995226D01*
X166590256Y-107917205D01*
X166725000Y-107827172D01*
X166859744Y-107917205D01*
X167048102Y-107995226D01*
X167248061Y-108035000D01*
X167451939Y-108035000D01*
X167651898Y-107995226D01*
X167840256Y-107917205D01*
X167975000Y-107827172D01*
X168109744Y-107917205D01*
X168298102Y-107995226D01*
X168498061Y-108035000D01*
X168701939Y-108035000D01*
X168901898Y-107995226D01*
X169090256Y-107917205D01*
X169225000Y-107827172D01*
X169359744Y-107917205D01*
X169548102Y-107995226D01*
X169748061Y-108035000D01*
X169951939Y-108035000D01*
X170151898Y-107995226D01*
X170340256Y-107917205D01*
X170475000Y-107827172D01*
X170609744Y-107917205D01*
X170798102Y-107995226D01*
X170998061Y-108035000D01*
X171201939Y-108035000D01*
X171401898Y-107995226D01*
X171590256Y-107917205D01*
X171725000Y-107827172D01*
X171859744Y-107917205D01*
X172048102Y-107995226D01*
X172248061Y-108035000D01*
X172451939Y-108035000D01*
X172651898Y-107995226D01*
X172840256Y-107917205D01*
X172975000Y-107827172D01*
X173109744Y-107917205D01*
X173298102Y-107995226D01*
X173498061Y-108035000D01*
X173701939Y-108035000D01*
X173901898Y-107995226D01*
X174090256Y-107917205D01*
X174225000Y-107827172D01*
X174359744Y-107917205D01*
X174548102Y-107995226D01*
X174748061Y-108035000D01*
X174951939Y-108035000D01*
X175151898Y-107995226D01*
X175340256Y-107917205D01*
X175475000Y-107827172D01*
X175609744Y-107917205D01*
X175798102Y-107995226D01*
X175998061Y-108035000D01*
X176201939Y-108035000D01*
X176401898Y-107995226D01*
X176590256Y-107917205D01*
X176725000Y-107827172D01*
X176859744Y-107917205D01*
X177048102Y-107995226D01*
X177248061Y-108035000D01*
X177451939Y-108035000D01*
X177651898Y-107995226D01*
X177840256Y-107917205D01*
X177975000Y-107827172D01*
X178109744Y-107917205D01*
X178298102Y-107995226D01*
X178498061Y-108035000D01*
X178701939Y-108035000D01*
X178901898Y-107995226D01*
X179090256Y-107917205D01*
X179259774Y-107803937D01*
X179403937Y-107659774D01*
X179517205Y-107490256D01*
X179595226Y-107301898D01*
X179635000Y-107101939D01*
X179635000Y-106898061D01*
X179595226Y-106698102D01*
X179517205Y-106509744D01*
X179403937Y-106340226D01*
X179259774Y-106196063D01*
X179090256Y-106082795D01*
X178901898Y-106004774D01*
X178701939Y-105965000D01*
X178498061Y-105965000D01*
X178298102Y-106004774D01*
X178109744Y-106082795D01*
X177975000Y-106172828D01*
X177840256Y-106082795D01*
X177651898Y-106004774D01*
X177451939Y-105965000D01*
X177248061Y-105965000D01*
X177048102Y-106004774D01*
X176859744Y-106082795D01*
X176725000Y-106172828D01*
X176590256Y-106082795D01*
X176401898Y-106004774D01*
X176201939Y-105965000D01*
X175998061Y-105965000D01*
X175798102Y-106004774D01*
X175609744Y-106082795D01*
X175475000Y-106172828D01*
X175340256Y-106082795D01*
X175151898Y-106004774D01*
X174951939Y-105965000D01*
X174748061Y-105965000D01*
X174548102Y-106004774D01*
X174359744Y-106082795D01*
X174225000Y-106172828D01*
X174090256Y-106082795D01*
X173901898Y-106004774D01*
X173701939Y-105965000D01*
X173498061Y-105965000D01*
X173298102Y-106004774D01*
X173109744Y-106082795D01*
X172975000Y-106172828D01*
X172840256Y-106082795D01*
X172651898Y-106004774D01*
X172451939Y-105965000D01*
X172248061Y-105965000D01*
X172048102Y-106004774D01*
X171859744Y-106082795D01*
X171725000Y-106172828D01*
X171590256Y-106082795D01*
X171401898Y-106004774D01*
X171201939Y-105965000D01*
X170998061Y-105965000D01*
X170798102Y-106004774D01*
X170609744Y-106082795D01*
X170475000Y-106172828D01*
X170340256Y-106082795D01*
X170151898Y-106004774D01*
X169951939Y-105965000D01*
X169748061Y-105965000D01*
X169548102Y-106004774D01*
X169359744Y-106082795D01*
X169225000Y-106172828D01*
X169090256Y-106082795D01*
X168901898Y-106004774D01*
X168701939Y-105965000D01*
X168498061Y-105965000D01*
X168298102Y-106004774D01*
X168109744Y-106082795D01*
X167975000Y-106172828D01*
X167840256Y-106082795D01*
X167651898Y-106004774D01*
X167451939Y-105965000D01*
X167248061Y-105965000D01*
X167048102Y-106004774D01*
X166859744Y-106082795D01*
X166725000Y-106172828D01*
X166590256Y-106082795D01*
X166401898Y-106004774D01*
X166201939Y-105965000D01*
X165998061Y-105965000D01*
X165798102Y-106004774D01*
X165609744Y-106082795D01*
X165475000Y-106172828D01*
X165340256Y-106082795D01*
X165151898Y-106004774D01*
X164951939Y-105965000D01*
X164748061Y-105965000D01*
X164548102Y-106004774D01*
X164359744Y-106082795D01*
X164225000Y-106172828D01*
X164090256Y-106082795D01*
X163901898Y-106004774D01*
X163701939Y-105965000D01*
X163498061Y-105965000D01*
X163298102Y-106004774D01*
X163109744Y-106082795D01*
X162940226Y-106196063D01*
X162796063Y-106340226D01*
X162682795Y-106509744D01*
X162604774Y-106698102D01*
X162565000Y-106898061D01*
X156435000Y-106898061D01*
X156395226Y-106698102D01*
X156317205Y-106509744D01*
X156203937Y-106340226D01*
X156059774Y-106196063D01*
X155890256Y-106082795D01*
X155701898Y-106004774D01*
X155501939Y-105965000D01*
X155298061Y-105965000D01*
X155098102Y-106004774D01*
X154909744Y-106082795D01*
X154775000Y-106172828D01*
X154640256Y-106082795D01*
X154451898Y-106004774D01*
X154251939Y-105965000D01*
X154048061Y-105965000D01*
X153848102Y-106004774D01*
X153659744Y-106082795D01*
X153525000Y-106172828D01*
X153390256Y-106082795D01*
X153201898Y-106004774D01*
X153001939Y-105965000D01*
X152798061Y-105965000D01*
X152598102Y-106004774D01*
X152409744Y-106082795D01*
X152275000Y-106172828D01*
X152140256Y-106082795D01*
X151951898Y-106004774D01*
X151751939Y-105965000D01*
X151548061Y-105965000D01*
X151348102Y-106004774D01*
X151159744Y-106082795D01*
X151025000Y-106172828D01*
X150890256Y-106082795D01*
X150701898Y-106004774D01*
X150501939Y-105965000D01*
X150298061Y-105965000D01*
X150098102Y-106004774D01*
X149909744Y-106082795D01*
X149775000Y-106172828D01*
X149640256Y-106082795D01*
X149451898Y-106004774D01*
X149251939Y-105965000D01*
X149048061Y-105965000D01*
X148848102Y-106004774D01*
X148659744Y-106082795D01*
X148525000Y-106172828D01*
X148390256Y-106082795D01*
X148201898Y-106004774D01*
X148001939Y-105965000D01*
X147798061Y-105965000D01*
X147598102Y-106004774D01*
X147409744Y-106082795D01*
X147275000Y-106172828D01*
X147140256Y-106082795D01*
X146951898Y-106004774D01*
X146751939Y-105965000D01*
X146548061Y-105965000D01*
X146348102Y-106004774D01*
X146159744Y-106082795D01*
X146025000Y-106172828D01*
X145890256Y-106082795D01*
X145701898Y-106004774D01*
X145501939Y-105965000D01*
X145298061Y-105965000D01*
X145098102Y-106004774D01*
X144909744Y-106082795D01*
X144775000Y-106172828D01*
X144640256Y-106082795D01*
X144451898Y-106004774D01*
X144251939Y-105965000D01*
X144048061Y-105965000D01*
X143848102Y-106004774D01*
X143659744Y-106082795D01*
X143525000Y-106172828D01*
X143390256Y-106082795D01*
X143201898Y-106004774D01*
X143001939Y-105965000D01*
X142798061Y-105965000D01*
X142598102Y-106004774D01*
X142409744Y-106082795D01*
X142275000Y-106172828D01*
X142140256Y-106082795D01*
X141951898Y-106004774D01*
X141751939Y-105965000D01*
X141548061Y-105965000D01*
X141348102Y-106004774D01*
X141159744Y-106082795D01*
X141025000Y-106172828D01*
X140890256Y-106082795D01*
X140701898Y-106004774D01*
X140501939Y-105965000D01*
X140298061Y-105965000D01*
X140098102Y-106004774D01*
X139909744Y-106082795D01*
X139740226Y-106196063D01*
X139596063Y-106340226D01*
X139482795Y-106509744D01*
X139404774Y-106698102D01*
X139365000Y-106898061D01*
X133235000Y-106898061D01*
X133195226Y-106698102D01*
X133117205Y-106509744D01*
X133003937Y-106340226D01*
X132859774Y-106196063D01*
X132690256Y-106082795D01*
X132501898Y-106004774D01*
X132301939Y-105965000D01*
X132098061Y-105965000D01*
X131898102Y-106004774D01*
X131709744Y-106082795D01*
X131575000Y-106172828D01*
X131440256Y-106082795D01*
X131251898Y-106004774D01*
X131051939Y-105965000D01*
X130848061Y-105965000D01*
X130648102Y-106004774D01*
X130459744Y-106082795D01*
X130325000Y-106172828D01*
X130190256Y-106082795D01*
X130001898Y-106004774D01*
X129801939Y-105965000D01*
X129598061Y-105965000D01*
X129398102Y-106004774D01*
X129209744Y-106082795D01*
X129075000Y-106172828D01*
X128940256Y-106082795D01*
X128751898Y-106004774D01*
X128551939Y-105965000D01*
X128348061Y-105965000D01*
X128148102Y-106004774D01*
X127959744Y-106082795D01*
X127825000Y-106172828D01*
X127690256Y-106082795D01*
X127501898Y-106004774D01*
X127301939Y-105965000D01*
X127098061Y-105965000D01*
X126898102Y-106004774D01*
X126709744Y-106082795D01*
X126575000Y-106172828D01*
X126440256Y-106082795D01*
X126251898Y-106004774D01*
X126051939Y-105965000D01*
X125848061Y-105965000D01*
X125648102Y-106004774D01*
X125459744Y-106082795D01*
X125325000Y-106172828D01*
X125190256Y-106082795D01*
X125001898Y-106004774D01*
X124801939Y-105965000D01*
X124598061Y-105965000D01*
X124398102Y-106004774D01*
X124209744Y-106082795D01*
X124075000Y-106172828D01*
X123940256Y-106082795D01*
X123751898Y-106004774D01*
X123551939Y-105965000D01*
X123348061Y-105965000D01*
X123148102Y-106004774D01*
X122959744Y-106082795D01*
X122825000Y-106172828D01*
X122690256Y-106082795D01*
X122501898Y-106004774D01*
X122301939Y-105965000D01*
X122098061Y-105965000D01*
X121898102Y-106004774D01*
X121709744Y-106082795D01*
X121575000Y-106172828D01*
X121440256Y-106082795D01*
X121251898Y-106004774D01*
X121051939Y-105965000D01*
X120848061Y-105965000D01*
X120648102Y-106004774D01*
X120459744Y-106082795D01*
X120325000Y-106172828D01*
X120190256Y-106082795D01*
X120001898Y-106004774D01*
X119801939Y-105965000D01*
X119598061Y-105965000D01*
X119398102Y-106004774D01*
X119209744Y-106082795D01*
X119075000Y-106172828D01*
X118940256Y-106082795D01*
X118751898Y-106004774D01*
X118551939Y-105965000D01*
X118348061Y-105965000D01*
X118148102Y-106004774D01*
X117959744Y-106082795D01*
X117825000Y-106172828D01*
X117690256Y-106082795D01*
X117501898Y-106004774D01*
X117301939Y-105965000D01*
X117098061Y-105965000D01*
X116898102Y-106004774D01*
X116709744Y-106082795D01*
X116540226Y-106196063D01*
X116396063Y-106340226D01*
X116282795Y-106509744D01*
X116204774Y-106698102D01*
X116165000Y-106898061D01*
X110035000Y-106898061D01*
X109995226Y-106698102D01*
X109917205Y-106509744D01*
X109803937Y-106340226D01*
X109659774Y-106196063D01*
X109490256Y-106082795D01*
X109301898Y-106004774D01*
X109101939Y-105965000D01*
X108898061Y-105965000D01*
X108698102Y-106004774D01*
X108509744Y-106082795D01*
X108375000Y-106172828D01*
X108240256Y-106082795D01*
X108051898Y-106004774D01*
X107851939Y-105965000D01*
X107648061Y-105965000D01*
X107448102Y-106004774D01*
X107259744Y-106082795D01*
X107125000Y-106172828D01*
X106990256Y-106082795D01*
X106801898Y-106004774D01*
X106601939Y-105965000D01*
X106398061Y-105965000D01*
X106198102Y-106004774D01*
X106009744Y-106082795D01*
X105875000Y-106172828D01*
X105740256Y-106082795D01*
X105551898Y-106004774D01*
X105351939Y-105965000D01*
X105148061Y-105965000D01*
X104948102Y-106004774D01*
X104759744Y-106082795D01*
X104625000Y-106172828D01*
X104490256Y-106082795D01*
X104301898Y-106004774D01*
X104101939Y-105965000D01*
X103898061Y-105965000D01*
X103698102Y-106004774D01*
X103509744Y-106082795D01*
X103375000Y-106172828D01*
X103240256Y-106082795D01*
X103051898Y-106004774D01*
X102851939Y-105965000D01*
X102648061Y-105965000D01*
X102448102Y-106004774D01*
X102259744Y-106082795D01*
X102125000Y-106172828D01*
X101990256Y-106082795D01*
X101801898Y-106004774D01*
X101601939Y-105965000D01*
X101398061Y-105965000D01*
X101198102Y-106004774D01*
X101009744Y-106082795D01*
X100875000Y-106172828D01*
X100740256Y-106082795D01*
X100551898Y-106004774D01*
X100351939Y-105965000D01*
X100148061Y-105965000D01*
X99948102Y-106004774D01*
X99759744Y-106082795D01*
X99625000Y-106172828D01*
X99490256Y-106082795D01*
X99301898Y-106004774D01*
X99101939Y-105965000D01*
X98898061Y-105965000D01*
X98698102Y-106004774D01*
X98509744Y-106082795D01*
X98375000Y-106172828D01*
X98240256Y-106082795D01*
X98051898Y-106004774D01*
X97851939Y-105965000D01*
X97648061Y-105965000D01*
X97448102Y-106004774D01*
X97259744Y-106082795D01*
X97125000Y-106172828D01*
X96990256Y-106082795D01*
X96801898Y-106004774D01*
X96601939Y-105965000D01*
X96398061Y-105965000D01*
X96198102Y-106004774D01*
X96009744Y-106082795D01*
X95875000Y-106172828D01*
X95740256Y-106082795D01*
X95551898Y-106004774D01*
X95351939Y-105965000D01*
X95148061Y-105965000D01*
X94948102Y-106004774D01*
X94759744Y-106082795D01*
X94625000Y-106172828D01*
X94490256Y-106082795D01*
X94301898Y-106004774D01*
X94101939Y-105965000D01*
X93898061Y-105965000D01*
X93698102Y-106004774D01*
X93509744Y-106082795D01*
X93340226Y-106196063D01*
X93196063Y-106340226D01*
X93082795Y-106509744D01*
X93004774Y-106698102D01*
X92965000Y-106898061D01*
X90610000Y-106898061D01*
X90610000Y-88146000D01*
X96425123Y-88146000D01*
X96460000Y-88149435D01*
X96494877Y-88146000D01*
X96599184Y-88135727D01*
X96733020Y-88095128D01*
X96856363Y-88029200D01*
X96964475Y-87940475D01*
X97053200Y-87832363D01*
X97119128Y-87709020D01*
X97159727Y-87575184D01*
X97173435Y-87436000D01*
X97170000Y-87401123D01*
X97170000Y-82933114D01*
X97302188Y-83065302D01*
X97856601Y-83435748D01*
X98472632Y-83690917D01*
X99126607Y-83821000D01*
X99793393Y-83821000D01*
X100447368Y-83690917D01*
X101063399Y-83435748D01*
X101617812Y-83065302D01*
X102089302Y-82593812D01*
X102459748Y-82039399D01*
X102714917Y-81423368D01*
X102845000Y-80769393D01*
X102845000Y-80293680D01*
X103105000Y-80293680D01*
X103105000Y-80578320D01*
X103160530Y-80857491D01*
X103269457Y-81120464D01*
X103427595Y-81357134D01*
X103628866Y-81558405D01*
X103849757Y-81706000D01*
X103628866Y-81853595D01*
X103427595Y-82054866D01*
X103269457Y-82291536D01*
X103160530Y-82554509D01*
X103105000Y-82833680D01*
X103105000Y-83118320D01*
X103160530Y-83397491D01*
X103269457Y-83660464D01*
X103427595Y-83897134D01*
X103628866Y-84098405D01*
X103849757Y-84246000D01*
X103628866Y-84393595D01*
X103427595Y-84594866D01*
X103269457Y-84831536D01*
X103160530Y-85094509D01*
X103105000Y-85373680D01*
X103105000Y-85658320D01*
X103160530Y-85937491D01*
X103269457Y-86200464D01*
X103427595Y-86437134D01*
X103628866Y-86638405D01*
X103849757Y-86786000D01*
X103628866Y-86933595D01*
X103427595Y-87134866D01*
X103269457Y-87371536D01*
X103160530Y-87634509D01*
X103105000Y-87913680D01*
X103105000Y-88198320D01*
X103160530Y-88477491D01*
X103269457Y-88740464D01*
X103427595Y-88977134D01*
X103628866Y-89178405D01*
X103865536Y-89336543D01*
X104128509Y-89445470D01*
X104407680Y-89501000D01*
X104692320Y-89501000D01*
X104971491Y-89445470D01*
X105234464Y-89336543D01*
X105471134Y-89178405D01*
X105672405Y-88977134D01*
X105820000Y-88756243D01*
X105967595Y-88977134D01*
X106168866Y-89178405D01*
X106405536Y-89336543D01*
X106668509Y-89445470D01*
X106947680Y-89501000D01*
X107232320Y-89501000D01*
X107511491Y-89445470D01*
X107774464Y-89336543D01*
X108011134Y-89178405D01*
X108212405Y-88977134D01*
X108360000Y-88756243D01*
X108507595Y-88977134D01*
X108708866Y-89178405D01*
X108945536Y-89336543D01*
X109208509Y-89445470D01*
X109487680Y-89501000D01*
X109772320Y-89501000D01*
X110051491Y-89445470D01*
X110314464Y-89336543D01*
X110551134Y-89178405D01*
X110752405Y-88977134D01*
X110900000Y-88756243D01*
X111047595Y-88977134D01*
X111248866Y-89178405D01*
X111485536Y-89336543D01*
X111748509Y-89445470D01*
X112027680Y-89501000D01*
X112312320Y-89501000D01*
X112591491Y-89445470D01*
X112854464Y-89336543D01*
X113091134Y-89178405D01*
X113292405Y-88977134D01*
X113440000Y-88756243D01*
X113587595Y-88977134D01*
X113788866Y-89178405D01*
X114025536Y-89336543D01*
X114288509Y-89445470D01*
X114567680Y-89501000D01*
X114852320Y-89501000D01*
X115131491Y-89445470D01*
X115394464Y-89336543D01*
X115631134Y-89178405D01*
X115832405Y-88977134D01*
X115980000Y-88756243D01*
X116127595Y-88977134D01*
X116328866Y-89178405D01*
X116565536Y-89336543D01*
X116828509Y-89445470D01*
X117107680Y-89501000D01*
X117392320Y-89501000D01*
X117671491Y-89445470D01*
X117934464Y-89336543D01*
X118171134Y-89178405D01*
X118372405Y-88977134D01*
X118520000Y-88756243D01*
X118667595Y-88977134D01*
X118868866Y-89178405D01*
X119105536Y-89336543D01*
X119368509Y-89445470D01*
X119647680Y-89501000D01*
X119932320Y-89501000D01*
X120211491Y-89445470D01*
X120474464Y-89336543D01*
X120711134Y-89178405D01*
X120912405Y-88977134D01*
X121060000Y-88756243D01*
X121207595Y-88977134D01*
X121408866Y-89178405D01*
X121645536Y-89336543D01*
X121908509Y-89445470D01*
X122187680Y-89501000D01*
X122472320Y-89501000D01*
X122751491Y-89445470D01*
X123014464Y-89336543D01*
X123251134Y-89178405D01*
X123452405Y-88977134D01*
X123600000Y-88756243D01*
X123747595Y-88977134D01*
X123948866Y-89178405D01*
X124185536Y-89336543D01*
X124448509Y-89445470D01*
X124727680Y-89501000D01*
X125012320Y-89501000D01*
X125291491Y-89445470D01*
X125554464Y-89336543D01*
X125791134Y-89178405D01*
X125992405Y-88977134D01*
X126140000Y-88756243D01*
X126287595Y-88977134D01*
X126488866Y-89178405D01*
X126725536Y-89336543D01*
X126988509Y-89445470D01*
X127267680Y-89501000D01*
X127552320Y-89501000D01*
X127831491Y-89445470D01*
X128094464Y-89336543D01*
X128331134Y-89178405D01*
X128532405Y-88977134D01*
X128680000Y-88756243D01*
X128827595Y-88977134D01*
X129028866Y-89178405D01*
X129265536Y-89336543D01*
X129528509Y-89445470D01*
X129807680Y-89501000D01*
X130092320Y-89501000D01*
X130371491Y-89445470D01*
X130634464Y-89336543D01*
X130871134Y-89178405D01*
X131072405Y-88977134D01*
X131220000Y-88756243D01*
X131367595Y-88977134D01*
X131568866Y-89178405D01*
X131805536Y-89336543D01*
X132068509Y-89445470D01*
X132347680Y-89501000D01*
X132632320Y-89501000D01*
X132911491Y-89445470D01*
X133174464Y-89336543D01*
X133411134Y-89178405D01*
X133612405Y-88977134D01*
X133760000Y-88756243D01*
X133907595Y-88977134D01*
X134108866Y-89178405D01*
X134345536Y-89336543D01*
X134608509Y-89445470D01*
X134887680Y-89501000D01*
X135172320Y-89501000D01*
X135451491Y-89445470D01*
X135714464Y-89336543D01*
X135951134Y-89178405D01*
X136152405Y-88977134D01*
X136300000Y-88756243D01*
X136447595Y-88977134D01*
X136648866Y-89178405D01*
X136885536Y-89336543D01*
X137148509Y-89445470D01*
X137427680Y-89501000D01*
X137712320Y-89501000D01*
X137991491Y-89445470D01*
X138254464Y-89336543D01*
X138491134Y-89178405D01*
X138692405Y-88977134D01*
X138840000Y-88756243D01*
X138987595Y-88977134D01*
X139188866Y-89178405D01*
X139425536Y-89336543D01*
X139688509Y-89445470D01*
X139967680Y-89501000D01*
X140252320Y-89501000D01*
X140531491Y-89445470D01*
X140794464Y-89336543D01*
X141031134Y-89178405D01*
X141232405Y-88977134D01*
X141380000Y-88756243D01*
X141527595Y-88977134D01*
X141728866Y-89178405D01*
X141965536Y-89336543D01*
X142228509Y-89445470D01*
X142507680Y-89501000D01*
X142792320Y-89501000D01*
X143071491Y-89445470D01*
X143334464Y-89336543D01*
X143571134Y-89178405D01*
X143772405Y-88977134D01*
X143920000Y-88756243D01*
X144067595Y-88977134D01*
X144268866Y-89178405D01*
X144505536Y-89336543D01*
X144768509Y-89445470D01*
X145047680Y-89501000D01*
X145332320Y-89501000D01*
X145611491Y-89445470D01*
X145874464Y-89336543D01*
X146111134Y-89178405D01*
X146312405Y-88977134D01*
X146460000Y-88756243D01*
X146607595Y-88977134D01*
X146808866Y-89178405D01*
X147045536Y-89336543D01*
X147308509Y-89445470D01*
X147587680Y-89501000D01*
X147872320Y-89501000D01*
X148151491Y-89445470D01*
X148414464Y-89336543D01*
X148651134Y-89178405D01*
X148852405Y-88977134D01*
X149000000Y-88756243D01*
X149147595Y-88977134D01*
X149348866Y-89178405D01*
X149585536Y-89336543D01*
X149848509Y-89445470D01*
X150127680Y-89501000D01*
X150412320Y-89501000D01*
X150691491Y-89445470D01*
X150954464Y-89336543D01*
X151191134Y-89178405D01*
X151392405Y-88977134D01*
X151540000Y-88756243D01*
X151687595Y-88977134D01*
X151888866Y-89178405D01*
X152125536Y-89336543D01*
X152388509Y-89445470D01*
X152667680Y-89501000D01*
X152952320Y-89501000D01*
X153231491Y-89445470D01*
X153494464Y-89336543D01*
X153731134Y-89178405D01*
X153932405Y-88977134D01*
X154080000Y-88756243D01*
X154227595Y-88977134D01*
X154428866Y-89178405D01*
X154665536Y-89336543D01*
X154928509Y-89445470D01*
X155207680Y-89501000D01*
X155492320Y-89501000D01*
X155771491Y-89445470D01*
X156034464Y-89336543D01*
X156271134Y-89178405D01*
X156472405Y-88977134D01*
X156620000Y-88756243D01*
X156767595Y-88977134D01*
X156968866Y-89178405D01*
X157205536Y-89336543D01*
X157468509Y-89445470D01*
X157747680Y-89501000D01*
X158032320Y-89501000D01*
X158311491Y-89445470D01*
X158574464Y-89336543D01*
X158811134Y-89178405D01*
X159012405Y-88977134D01*
X159160000Y-88756243D01*
X159307595Y-88977134D01*
X159508866Y-89178405D01*
X159745536Y-89336543D01*
X160008509Y-89445470D01*
X160287680Y-89501000D01*
X160572320Y-89501000D01*
X160851491Y-89445470D01*
X161114464Y-89336543D01*
X161351134Y-89178405D01*
X161552405Y-88977134D01*
X161700000Y-88756243D01*
X161847595Y-88977134D01*
X162048866Y-89178405D01*
X162285536Y-89336543D01*
X162548509Y-89445470D01*
X162827680Y-89501000D01*
X163112320Y-89501000D01*
X163391491Y-89445470D01*
X163654464Y-89336543D01*
X163891134Y-89178405D01*
X164092405Y-88977134D01*
X164240000Y-88756243D01*
X164387595Y-88977134D01*
X164588866Y-89178405D01*
X164825536Y-89336543D01*
X165088509Y-89445470D01*
X165367680Y-89501000D01*
X165652320Y-89501000D01*
X165931491Y-89445470D01*
X166194464Y-89336543D01*
X166431134Y-89178405D01*
X166632405Y-88977134D01*
X166780000Y-88756243D01*
X166927595Y-88977134D01*
X167128866Y-89178405D01*
X167365536Y-89336543D01*
X167628509Y-89445470D01*
X167907680Y-89501000D01*
X168192320Y-89501000D01*
X168471491Y-89445470D01*
X168734464Y-89336543D01*
X168971134Y-89178405D01*
X169172405Y-88977134D01*
X169330543Y-88740464D01*
X169439470Y-88477491D01*
X169495000Y-88198320D01*
X169495000Y-87913680D01*
X169439470Y-87634509D01*
X169330543Y-87371536D01*
X169172405Y-87134866D01*
X168971134Y-86933595D01*
X168750243Y-86786000D01*
X168971134Y-86638405D01*
X169172405Y-86437134D01*
X169330543Y-86200464D01*
X169439470Y-85937491D01*
X169495000Y-85658320D01*
X169495000Y-85373680D01*
X169439470Y-85094509D01*
X169330543Y-84831536D01*
X169172405Y-84594866D01*
X168971134Y-84393595D01*
X168750243Y-84246000D01*
X168971134Y-84098405D01*
X169172405Y-83897134D01*
X169330543Y-83660464D01*
X169439470Y-83397491D01*
X169495000Y-83118320D01*
X169495000Y-82833680D01*
X169439470Y-82554509D01*
X169330543Y-82291536D01*
X169172405Y-82054866D01*
X168971134Y-81853595D01*
X168750243Y-81706000D01*
X168971134Y-81558405D01*
X169172405Y-81357134D01*
X169330543Y-81120464D01*
X169439470Y-80857491D01*
X169495000Y-80578320D01*
X169495000Y-80293680D01*
X169439470Y-80014509D01*
X169330543Y-79751536D01*
X169172405Y-79514866D01*
X168971134Y-79313595D01*
X168734464Y-79155457D01*
X168471491Y-79046530D01*
X168192320Y-78991000D01*
X167907680Y-78991000D01*
X167628509Y-79046530D01*
X167365536Y-79155457D01*
X167128866Y-79313595D01*
X166927595Y-79514866D01*
X166780000Y-79735757D01*
X166632405Y-79514866D01*
X166431134Y-79313595D01*
X166194464Y-79155457D01*
X165931491Y-79046530D01*
X165652320Y-78991000D01*
X165367680Y-78991000D01*
X165088509Y-79046530D01*
X164825536Y-79155457D01*
X164588866Y-79313595D01*
X164387595Y-79514866D01*
X164240000Y-79735757D01*
X164092405Y-79514866D01*
X163891134Y-79313595D01*
X163654464Y-79155457D01*
X163391491Y-79046530D01*
X163112320Y-78991000D01*
X162827680Y-78991000D01*
X162548509Y-79046530D01*
X162285536Y-79155457D01*
X162048866Y-79313595D01*
X161847595Y-79514866D01*
X161700000Y-79735757D01*
X161552405Y-79514866D01*
X161351134Y-79313595D01*
X161114464Y-79155457D01*
X160851491Y-79046530D01*
X160572320Y-78991000D01*
X160287680Y-78991000D01*
X160008509Y-79046530D01*
X159745536Y-79155457D01*
X159508866Y-79313595D01*
X159307595Y-79514866D01*
X159160000Y-79735757D01*
X159012405Y-79514866D01*
X158811134Y-79313595D01*
X158574464Y-79155457D01*
X158311491Y-79046530D01*
X158032320Y-78991000D01*
X157747680Y-78991000D01*
X157468509Y-79046530D01*
X157205536Y-79155457D01*
X156968866Y-79313595D01*
X156767595Y-79514866D01*
X156620000Y-79735757D01*
X156472405Y-79514866D01*
X156271134Y-79313595D01*
X156034464Y-79155457D01*
X155771491Y-79046530D01*
X155492320Y-78991000D01*
X155207680Y-78991000D01*
X154928509Y-79046530D01*
X154665536Y-79155457D01*
X154428866Y-79313595D01*
X154227595Y-79514866D01*
X154080000Y-79735757D01*
X153932405Y-79514866D01*
X153731134Y-79313595D01*
X153494464Y-79155457D01*
X153231491Y-79046530D01*
X152952320Y-78991000D01*
X152667680Y-78991000D01*
X152388509Y-79046530D01*
X152125536Y-79155457D01*
X151888866Y-79313595D01*
X151687595Y-79514866D01*
X151540000Y-79735757D01*
X151392405Y-79514866D01*
X151191134Y-79313595D01*
X150954464Y-79155457D01*
X150691491Y-79046530D01*
X150412320Y-78991000D01*
X150127680Y-78991000D01*
X149848509Y-79046530D01*
X149585536Y-79155457D01*
X149348866Y-79313595D01*
X149147595Y-79514866D01*
X149000000Y-79735757D01*
X148852405Y-79514866D01*
X148651134Y-79313595D01*
X148414464Y-79155457D01*
X148151491Y-79046530D01*
X147872320Y-78991000D01*
X147587680Y-78991000D01*
X147308509Y-79046530D01*
X147045536Y-79155457D01*
X146808866Y-79313595D01*
X146607595Y-79514866D01*
X146460000Y-79735757D01*
X146312405Y-79514866D01*
X146111134Y-79313595D01*
X145874464Y-79155457D01*
X145611491Y-79046530D01*
X145332320Y-78991000D01*
X145047680Y-78991000D01*
X144768509Y-79046530D01*
X144505536Y-79155457D01*
X144268866Y-79313595D01*
X144067595Y-79514866D01*
X143920000Y-79735757D01*
X143772405Y-79514866D01*
X143571134Y-79313595D01*
X143334464Y-79155457D01*
X143071491Y-79046530D01*
X142792320Y-78991000D01*
X142507680Y-78991000D01*
X142228509Y-79046530D01*
X141965536Y-79155457D01*
X141728866Y-79313595D01*
X141527595Y-79514866D01*
X141380000Y-79735757D01*
X141232405Y-79514866D01*
X141031134Y-79313595D01*
X140794464Y-79155457D01*
X140531491Y-79046530D01*
X140252320Y-78991000D01*
X139967680Y-78991000D01*
X139688509Y-79046530D01*
X139425536Y-79155457D01*
X139188866Y-79313595D01*
X138987595Y-79514866D01*
X138840000Y-79735757D01*
X138692405Y-79514866D01*
X138491134Y-79313595D01*
X138254464Y-79155457D01*
X137991491Y-79046530D01*
X137712320Y-78991000D01*
X137427680Y-78991000D01*
X137148509Y-79046530D01*
X136885536Y-79155457D01*
X136648866Y-79313595D01*
X136447595Y-79514866D01*
X136300000Y-79735757D01*
X136152405Y-79514866D01*
X135951134Y-79313595D01*
X135714464Y-79155457D01*
X135451491Y-79046530D01*
X135172320Y-78991000D01*
X134887680Y-78991000D01*
X134608509Y-79046530D01*
X134345536Y-79155457D01*
X134108866Y-79313595D01*
X133907595Y-79514866D01*
X133760000Y-79735757D01*
X133612405Y-79514866D01*
X133411134Y-79313595D01*
X133174464Y-79155457D01*
X132911491Y-79046530D01*
X132632320Y-78991000D01*
X132347680Y-78991000D01*
X132068509Y-79046530D01*
X131805536Y-79155457D01*
X131568866Y-79313595D01*
X131367595Y-79514866D01*
X131220000Y-79735757D01*
X131072405Y-79514866D01*
X130871134Y-79313595D01*
X130634464Y-79155457D01*
X130371491Y-79046530D01*
X130092320Y-78991000D01*
X129807680Y-78991000D01*
X129528509Y-79046530D01*
X129265536Y-79155457D01*
X129028866Y-79313595D01*
X128827595Y-79514866D01*
X128680000Y-79735757D01*
X128532405Y-79514866D01*
X128331134Y-79313595D01*
X128094464Y-79155457D01*
X127831491Y-79046530D01*
X127552320Y-78991000D01*
X127267680Y-78991000D01*
X126988509Y-79046530D01*
X126725536Y-79155457D01*
X126488866Y-79313595D01*
X126287595Y-79514866D01*
X126140000Y-79735757D01*
X125992405Y-79514866D01*
X125791134Y-79313595D01*
X125554464Y-79155457D01*
X125291491Y-79046530D01*
X125012320Y-78991000D01*
X124727680Y-78991000D01*
X124448509Y-79046530D01*
X124185536Y-79155457D01*
X123948866Y-79313595D01*
X123747595Y-79514866D01*
X123600000Y-79735757D01*
X123452405Y-79514866D01*
X123251134Y-79313595D01*
X123014464Y-79155457D01*
X122751491Y-79046530D01*
X122472320Y-78991000D01*
X122187680Y-78991000D01*
X121908509Y-79046530D01*
X121645536Y-79155457D01*
X121408866Y-79313595D01*
X121207595Y-79514866D01*
X121060000Y-79735757D01*
X120912405Y-79514866D01*
X120711134Y-79313595D01*
X120474464Y-79155457D01*
X120211491Y-79046530D01*
X119932320Y-78991000D01*
X119647680Y-78991000D01*
X119368509Y-79046530D01*
X119105536Y-79155457D01*
X118868866Y-79313595D01*
X118667595Y-79514866D01*
X118520000Y-79735757D01*
X118372405Y-79514866D01*
X118171134Y-79313595D01*
X117934464Y-79155457D01*
X117671491Y-79046530D01*
X117392320Y-78991000D01*
X117107680Y-78991000D01*
X116828509Y-79046530D01*
X116565536Y-79155457D01*
X116328866Y-79313595D01*
X116127595Y-79514866D01*
X115980000Y-79735757D01*
X115832405Y-79514866D01*
X115631134Y-79313595D01*
X115394464Y-79155457D01*
X115131491Y-79046530D01*
X114852320Y-78991000D01*
X114567680Y-78991000D01*
X114288509Y-79046530D01*
X114025536Y-79155457D01*
X113788866Y-79313595D01*
X113587595Y-79514866D01*
X113440000Y-79735757D01*
X113292405Y-79514866D01*
X113091134Y-79313595D01*
X112854464Y-79155457D01*
X112591491Y-79046530D01*
X112312320Y-78991000D01*
X112027680Y-78991000D01*
X111748509Y-79046530D01*
X111485536Y-79155457D01*
X111248866Y-79313595D01*
X111047595Y-79514866D01*
X110900000Y-79735757D01*
X110752405Y-79514866D01*
X110551134Y-79313595D01*
X110314464Y-79155457D01*
X110051491Y-79046530D01*
X109772320Y-78991000D01*
X109487680Y-78991000D01*
X109208509Y-79046530D01*
X108945536Y-79155457D01*
X108708866Y-79313595D01*
X108507595Y-79514866D01*
X108360000Y-79735757D01*
X108212405Y-79514866D01*
X108011134Y-79313595D01*
X107774464Y-79155457D01*
X107511491Y-79046530D01*
X107232320Y-78991000D01*
X106947680Y-78991000D01*
X106668509Y-79046530D01*
X106405536Y-79155457D01*
X106168866Y-79313595D01*
X105967595Y-79514866D01*
X105820000Y-79735757D01*
X105672405Y-79514866D01*
X105471134Y-79313595D01*
X105234464Y-79155457D01*
X104971491Y-79046530D01*
X104692320Y-78991000D01*
X104407680Y-78991000D01*
X104128509Y-79046530D01*
X103865536Y-79155457D01*
X103628866Y-79313595D01*
X103427595Y-79514866D01*
X103269457Y-79751536D01*
X103160530Y-80014509D01*
X103105000Y-80293680D01*
X102845000Y-80293680D01*
X102845000Y-80102607D01*
X102714917Y-79448632D01*
X102459748Y-78832601D01*
X102089302Y-78278188D01*
X101957114Y-78146000D01*
X170642886Y-78146000D01*
X170510698Y-78278188D01*
G37*
X170510698Y-78278188D02*
X170140252Y-78832601D01*
X169885083Y-79448632D01*
X169755000Y-80102607D01*
X169755000Y-80769393D01*
X169885083Y-81423368D01*
X170140252Y-82039399D01*
X170510698Y-82593812D01*
X170982188Y-83065302D01*
X171536601Y-83435748D01*
X172152632Y-83690917D01*
X172806607Y-83821000D01*
X173473393Y-83821000D01*
X174127368Y-83690917D01*
X174743399Y-83435748D01*
X175297812Y-83065302D01*
X175430001Y-82933113D01*
X175430001Y-87401113D01*
X175426565Y-87436000D01*
X175440273Y-87575184D01*
X175480872Y-87709020D01*
X175546800Y-87832363D01*
X175635525Y-87940475D01*
X175743637Y-88029200D01*
X175866980Y-88095128D01*
X176000816Y-88135727D01*
X176105123Y-88146000D01*
X176140000Y-88149435D01*
X176174877Y-88146000D01*
X181990001Y-88146000D01*
X181990000Y-109290000D01*
X90610000Y-109290000D01*
X90610000Y-106898061D01*
X92965000Y-106898061D01*
X92965000Y-107101939D01*
X93004774Y-107301898D01*
X93082795Y-107490256D01*
X93196063Y-107659774D01*
X93340226Y-107803937D01*
X93509744Y-107917205D01*
X93698102Y-107995226D01*
X93898061Y-108035000D01*
X94101939Y-108035000D01*
X94301898Y-107995226D01*
X94490256Y-107917205D01*
X94625000Y-107827172D01*
X94759744Y-107917205D01*
X94948102Y-107995226D01*
X95148061Y-108035000D01*
X95351939Y-108035000D01*
X95551898Y-107995226D01*
X95740256Y-107917205D01*
X95875000Y-107827172D01*
X96009744Y-107917205D01*
X96198102Y-107995226D01*
X96398061Y-108035000D01*
X96601939Y-108035000D01*
X96801898Y-107995226D01*
X96990256Y-107917205D01*
X97125000Y-107827172D01*
X97259744Y-107917205D01*
X97448102Y-107995226D01*
X97648061Y-108035000D01*
X97851939Y-108035000D01*
X98051898Y-107995226D01*
X98240256Y-107917205D01*
X98375000Y-107827172D01*
X98509744Y-107917205D01*
X98698102Y-107995226D01*
X98898061Y-108035000D01*
X99101939Y-108035000D01*
X99301898Y-107995226D01*
X99490256Y-107917205D01*
X99625000Y-107827172D01*
X99759744Y-107917205D01*
X99948102Y-107995226D01*
X100148061Y-108035000D01*
X100351939Y-108035000D01*
X100551898Y-107995226D01*
X100740256Y-107917205D01*
X100875000Y-107827172D01*
X101009744Y-107917205D01*
X101198102Y-107995226D01*
X101398061Y-108035000D01*
X101601939Y-108035000D01*
X101801898Y-107995226D01*
X101990256Y-107917205D01*
X102125000Y-107827172D01*
X102259744Y-107917205D01*
X102448102Y-107995226D01*
X102648061Y-108035000D01*
X102851939Y-108035000D01*
X103051898Y-107995226D01*
X103240256Y-107917205D01*
X103375000Y-107827172D01*
X103509744Y-107917205D01*
X103698102Y-107995226D01*
X103898061Y-108035000D01*
X104101939Y-108035000D01*
X104301898Y-107995226D01*
X104490256Y-107917205D01*
X104625000Y-107827172D01*
X104759744Y-107917205D01*
X104948102Y-107995226D01*
X105148061Y-108035000D01*
X105351939Y-108035000D01*
X105551898Y-107995226D01*
X105740256Y-107917205D01*
X105875000Y-107827172D01*
X106009744Y-107917205D01*
X106198102Y-107995226D01*
X106398061Y-108035000D01*
X106601939Y-108035000D01*
X106801898Y-107995226D01*
X106990256Y-107917205D01*
X107125000Y-107827172D01*
X107259744Y-107917205D01*
X107448102Y-107995226D01*
X107648061Y-108035000D01*
X107851939Y-108035000D01*
X108051898Y-107995226D01*
X108240256Y-107917205D01*
X108375000Y-107827172D01*
X108509744Y-107917205D01*
X108698102Y-107995226D01*
X108898061Y-108035000D01*
X109101939Y-108035000D01*
X109301898Y-107995226D01*
X109490256Y-107917205D01*
X109659774Y-107803937D01*
X109803937Y-107659774D01*
X109917205Y-107490256D01*
X109995226Y-107301898D01*
X110035000Y-107101939D01*
X110035000Y-106898061D01*
X116165000Y-106898061D01*
X116165000Y-107101939D01*
X116204774Y-107301898D01*
X116282795Y-107490256D01*
X116396063Y-107659774D01*
X116540226Y-107803937D01*
X116709744Y-107917205D01*
X116898102Y-107995226D01*
X117098061Y-108035000D01*
X117301939Y-108035000D01*
X117501898Y-107995226D01*
X117690256Y-107917205D01*
X117825000Y-107827172D01*
X117959744Y-107917205D01*
X118148102Y-107995226D01*
X118348061Y-108035000D01*
X118551939Y-108035000D01*
X118751898Y-107995226D01*
X118940256Y-107917205D01*
X119075000Y-107827172D01*
X119209744Y-107917205D01*
X119398102Y-107995226D01*
X119598061Y-108035000D01*
X119801939Y-108035000D01*
X120001898Y-107995226D01*
X120190256Y-107917205D01*
X120325000Y-107827172D01*
X120459744Y-107917205D01*
X120648102Y-107995226D01*
X120848061Y-108035000D01*
X121051939Y-108035000D01*
X121251898Y-107995226D01*
X121440256Y-107917205D01*
X121575000Y-107827172D01*
X121709744Y-107917205D01*
X121898102Y-107995226D01*
X122098061Y-108035000D01*
X122301939Y-108035000D01*
X122501898Y-107995226D01*
X122690256Y-107917205D01*
X122825000Y-107827172D01*
X122959744Y-107917205D01*
X123148102Y-107995226D01*
X123348061Y-108035000D01*
X123551939Y-108035000D01*
X123751898Y-107995226D01*
X123940256Y-107917205D01*
X124075000Y-107827172D01*
X124209744Y-107917205D01*
X124398102Y-107995226D01*
X124598061Y-108035000D01*
X124801939Y-108035000D01*
X125001898Y-107995226D01*
X125190256Y-107917205D01*
X125325000Y-107827172D01*
X125459744Y-107917205D01*
X125648102Y-107995226D01*
X125848061Y-108035000D01*
X126051939Y-108035000D01*
X126251898Y-107995226D01*
X126440256Y-107917205D01*
X126575000Y-107827172D01*
X126709744Y-107917205D01*
X126898102Y-107995226D01*
X127098061Y-108035000D01*
X127301939Y-108035000D01*
X127501898Y-107995226D01*
X127690256Y-107917205D01*
X127825000Y-107827172D01*
X127959744Y-107917205D01*
X128148102Y-107995226D01*
X128348061Y-108035000D01*
X128551939Y-108035000D01*
X128751898Y-107995226D01*
X128940256Y-107917205D01*
X129075000Y-107827172D01*
X129209744Y-107917205D01*
X129398102Y-107995226D01*
X129598061Y-108035000D01*
X129801939Y-108035000D01*
X130001898Y-107995226D01*
X130190256Y-107917205D01*
X130325000Y-107827172D01*
X130459744Y-107917205D01*
X130648102Y-107995226D01*
X130848061Y-108035000D01*
X131051939Y-108035000D01*
X131251898Y-107995226D01*
X131440256Y-107917205D01*
X131575000Y-107827172D01*
X131709744Y-107917205D01*
X131898102Y-107995226D01*
X132098061Y-108035000D01*
X132301939Y-108035000D01*
X132501898Y-107995226D01*
X132690256Y-107917205D01*
X132859774Y-107803937D01*
X133003937Y-107659774D01*
X133117205Y-107490256D01*
X133195226Y-107301898D01*
X133235000Y-107101939D01*
X133235000Y-106898061D01*
X139365000Y-106898061D01*
X139365000Y-107101939D01*
X139404774Y-107301898D01*
X139482795Y-107490256D01*
X139596063Y-107659774D01*
X139740226Y-107803937D01*
X139909744Y-107917205D01*
X140098102Y-107995226D01*
X140298061Y-108035000D01*
X140501939Y-108035000D01*
X140701898Y-107995226D01*
X140890256Y-107917205D01*
X141025000Y-107827172D01*
X141159744Y-107917205D01*
X141348102Y-107995226D01*
X141548061Y-108035000D01*
X141751939Y-108035000D01*
X141951898Y-107995226D01*
X142140256Y-107917205D01*
X142275000Y-107827172D01*
X142409744Y-107917205D01*
X142598102Y-107995226D01*
X142798061Y-108035000D01*
X143001939Y-108035000D01*
X143201898Y-107995226D01*
X143390256Y-107917205D01*
X143525000Y-107827172D01*
X143659744Y-107917205D01*
X143848102Y-107995226D01*
X144048061Y-108035000D01*
X144251939Y-108035000D01*
X144451898Y-107995226D01*
X144640256Y-107917205D01*
X144775000Y-107827172D01*
X144909744Y-107917205D01*
X145098102Y-107995226D01*
X145298061Y-108035000D01*
X145501939Y-108035000D01*
X145701898Y-107995226D01*
X145890256Y-107917205D01*
X146025000Y-107827172D01*
X146159744Y-107917205D01*
X146348102Y-107995226D01*
X146548061Y-108035000D01*
X146751939Y-108035000D01*
X146951898Y-107995226D01*
X147140256Y-107917205D01*
X147275000Y-107827172D01*
X147409744Y-107917205D01*
X147598102Y-107995226D01*
X147798061Y-108035000D01*
X148001939Y-108035000D01*
X148201898Y-107995226D01*
X148390256Y-107917205D01*
X148525000Y-107827172D01*
X148659744Y-107917205D01*
X148848102Y-107995226D01*
X149048061Y-108035000D01*
X149251939Y-108035000D01*
X149451898Y-107995226D01*
X149640256Y-107917205D01*
X149775000Y-107827172D01*
X149909744Y-107917205D01*
X150098102Y-107995226D01*
X150298061Y-108035000D01*
X150501939Y-108035000D01*
X150701898Y-107995226D01*
X150890256Y-107917205D01*
X151025000Y-107827172D01*
X151159744Y-107917205D01*
X151348102Y-107995226D01*
X151548061Y-108035000D01*
X151751939Y-108035000D01*
X151951898Y-107995226D01*
X152140256Y-107917205D01*
X152275000Y-107827172D01*
X152409744Y-107917205D01*
X152598102Y-107995226D01*
X152798061Y-108035000D01*
X153001939Y-108035000D01*
X153201898Y-107995226D01*
X153390256Y-107917205D01*
X153525000Y-107827172D01*
X153659744Y-107917205D01*
X153848102Y-107995226D01*
X154048061Y-108035000D01*
X154251939Y-108035000D01*
X154451898Y-107995226D01*
X154640256Y-107917205D01*
X154775000Y-107827172D01*
X154909744Y-107917205D01*
X155098102Y-107995226D01*
X155298061Y-108035000D01*
X155501939Y-108035000D01*
X155701898Y-107995226D01*
X155890256Y-107917205D01*
X156059774Y-107803937D01*
X156203937Y-107659774D01*
X156317205Y-107490256D01*
X156395226Y-107301898D01*
X156435000Y-107101939D01*
X156435000Y-106898061D01*
X162565000Y-106898061D01*
X162565000Y-107101939D01*
X162604774Y-107301898D01*
X162682795Y-107490256D01*
X162796063Y-107659774D01*
X162940226Y-107803937D01*
X163109744Y-107917205D01*
X163298102Y-107995226D01*
X163498061Y-108035000D01*
X163701939Y-108035000D01*
X163901898Y-107995226D01*
X164090256Y-107917205D01*
X164225000Y-107827172D01*
X164359744Y-107917205D01*
X164548102Y-107995226D01*
X164748061Y-108035000D01*
X164951939Y-108035000D01*
X165151898Y-107995226D01*
X165340256Y-107917205D01*
X165475000Y-107827172D01*
X165609744Y-107917205D01*
X165798102Y-107995226D01*
X165998061Y-108035000D01*
X166201939Y-108035000D01*
X166401898Y-107995226D01*
X166590256Y-107917205D01*
X166725000Y-107827172D01*
X166859744Y-107917205D01*
X167048102Y-107995226D01*
X167248061Y-108035000D01*
X167451939Y-108035000D01*
X167651898Y-107995226D01*
X167840256Y-107917205D01*
X167975000Y-107827172D01*
X168109744Y-107917205D01*
X168298102Y-107995226D01*
X168498061Y-108035000D01*
X168701939Y-108035000D01*
X168901898Y-107995226D01*
X169090256Y-107917205D01*
X169225000Y-107827172D01*
X169359744Y-107917205D01*
X169548102Y-107995226D01*
X169748061Y-108035000D01*
X169951939Y-108035000D01*
X170151898Y-107995226D01*
X170340256Y-107917205D01*
X170475000Y-107827172D01*
X170609744Y-107917205D01*
X170798102Y-107995226D01*
X170998061Y-108035000D01*
X171201939Y-108035000D01*
X171401898Y-107995226D01*
X171590256Y-107917205D01*
X171725000Y-107827172D01*
X171859744Y-107917205D01*
X172048102Y-107995226D01*
X172248061Y-108035000D01*
X172451939Y-108035000D01*
X172651898Y-107995226D01*
X172840256Y-107917205D01*
X172975000Y-107827172D01*
X173109744Y-107917205D01*
X173298102Y-107995226D01*
X173498061Y-108035000D01*
X173701939Y-108035000D01*
X173901898Y-107995226D01*
X174090256Y-107917205D01*
X174225000Y-107827172D01*
X174359744Y-107917205D01*
X174548102Y-107995226D01*
X174748061Y-108035000D01*
X174951939Y-108035000D01*
X175151898Y-107995226D01*
X175340256Y-107917205D01*
X175475000Y-107827172D01*
X175609744Y-107917205D01*
X175798102Y-107995226D01*
X175998061Y-108035000D01*
X176201939Y-108035000D01*
X176401898Y-107995226D01*
X176590256Y-107917205D01*
X176725000Y-107827172D01*
X176859744Y-107917205D01*
X177048102Y-107995226D01*
X177248061Y-108035000D01*
X177451939Y-108035000D01*
X177651898Y-107995226D01*
X177840256Y-107917205D01*
X177975000Y-107827172D01*
X178109744Y-107917205D01*
X178298102Y-107995226D01*
X178498061Y-108035000D01*
X178701939Y-108035000D01*
X178901898Y-107995226D01*
X179090256Y-107917205D01*
X179259774Y-107803937D01*
X179403937Y-107659774D01*
X179517205Y-107490256D01*
X179595226Y-107301898D01*
X179635000Y-107101939D01*
X179635000Y-106898061D01*
X179595226Y-106698102D01*
X179517205Y-106509744D01*
X179403937Y-106340226D01*
X179259774Y-106196063D01*
X179090256Y-106082795D01*
X178901898Y-106004774D01*
X178701939Y-105965000D01*
X178498061Y-105965000D01*
X178298102Y-106004774D01*
X178109744Y-106082795D01*
X177975000Y-106172828D01*
X177840256Y-106082795D01*
X177651898Y-106004774D01*
X177451939Y-105965000D01*
X177248061Y-105965000D01*
X177048102Y-106004774D01*
X176859744Y-106082795D01*
X176725000Y-106172828D01*
X176590256Y-106082795D01*
X176401898Y-106004774D01*
X176201939Y-105965000D01*
X175998061Y-105965000D01*
X175798102Y-106004774D01*
X175609744Y-106082795D01*
X175475000Y-106172828D01*
X175340256Y-106082795D01*
X175151898Y-106004774D01*
X174951939Y-105965000D01*
X174748061Y-105965000D01*
X174548102Y-106004774D01*
X174359744Y-106082795D01*
X174225000Y-106172828D01*
X174090256Y-106082795D01*
X173901898Y-106004774D01*
X173701939Y-105965000D01*
X173498061Y-105965000D01*
X173298102Y-106004774D01*
X173109744Y-106082795D01*
X172975000Y-106172828D01*
X172840256Y-106082795D01*
X172651898Y-106004774D01*
X172451939Y-105965000D01*
X172248061Y-105965000D01*
X172048102Y-106004774D01*
X171859744Y-106082795D01*
X171725000Y-106172828D01*
X171590256Y-106082795D01*
X171401898Y-106004774D01*
X171201939Y-105965000D01*
X170998061Y-105965000D01*
X170798102Y-106004774D01*
X170609744Y-106082795D01*
X170475000Y-106172828D01*
X170340256Y-106082795D01*
X170151898Y-106004774D01*
X169951939Y-105965000D01*
X169748061Y-105965000D01*
X169548102Y-106004774D01*
X169359744Y-106082795D01*
X169225000Y-106172828D01*
X169090256Y-106082795D01*
X168901898Y-106004774D01*
X168701939Y-105965000D01*
X168498061Y-105965000D01*
X168298102Y-106004774D01*
X168109744Y-106082795D01*
X167975000Y-106172828D01*
X167840256Y-106082795D01*
X167651898Y-106004774D01*
X167451939Y-105965000D01*
X167248061Y-105965000D01*
X167048102Y-106004774D01*
X166859744Y-106082795D01*
X166725000Y-106172828D01*
X166590256Y-106082795D01*
X166401898Y-106004774D01*
X166201939Y-105965000D01*
X165998061Y-105965000D01*
X165798102Y-106004774D01*
X165609744Y-106082795D01*
X165475000Y-106172828D01*
X165340256Y-106082795D01*
X165151898Y-106004774D01*
X164951939Y-105965000D01*
X164748061Y-105965000D01*
X164548102Y-106004774D01*
X164359744Y-106082795D01*
X164225000Y-106172828D01*
X164090256Y-106082795D01*
X163901898Y-106004774D01*
X163701939Y-105965000D01*
X163498061Y-105965000D01*
X163298102Y-106004774D01*
X163109744Y-106082795D01*
X162940226Y-106196063D01*
X162796063Y-106340226D01*
X162682795Y-106509744D01*
X162604774Y-106698102D01*
X162565000Y-106898061D01*
X156435000Y-106898061D01*
X156395226Y-106698102D01*
X156317205Y-106509744D01*
X156203937Y-106340226D01*
X156059774Y-106196063D01*
X155890256Y-106082795D01*
X155701898Y-106004774D01*
X155501939Y-105965000D01*
X155298061Y-105965000D01*
X155098102Y-106004774D01*
X154909744Y-106082795D01*
X154775000Y-106172828D01*
X154640256Y-106082795D01*
X154451898Y-106004774D01*
X154251939Y-105965000D01*
X154048061Y-105965000D01*
X153848102Y-106004774D01*
X153659744Y-106082795D01*
X153525000Y-106172828D01*
X153390256Y-106082795D01*
X153201898Y-106004774D01*
X153001939Y-105965000D01*
X152798061Y-105965000D01*
X152598102Y-106004774D01*
X152409744Y-106082795D01*
X152275000Y-106172828D01*
X152140256Y-106082795D01*
X151951898Y-106004774D01*
X151751939Y-105965000D01*
X151548061Y-105965000D01*
X151348102Y-106004774D01*
X151159744Y-106082795D01*
X151025000Y-106172828D01*
X150890256Y-106082795D01*
X150701898Y-106004774D01*
X150501939Y-105965000D01*
X150298061Y-105965000D01*
X150098102Y-106004774D01*
X149909744Y-106082795D01*
X149775000Y-106172828D01*
X149640256Y-106082795D01*
X149451898Y-106004774D01*
X149251939Y-105965000D01*
X149048061Y-105965000D01*
X148848102Y-106004774D01*
X148659744Y-106082795D01*
X148525000Y-106172828D01*
X148390256Y-106082795D01*
X148201898Y-106004774D01*
X148001939Y-105965000D01*
X147798061Y-105965000D01*
X147598102Y-106004774D01*
X147409744Y-106082795D01*
X147275000Y-106172828D01*
X147140256Y-106082795D01*
X146951898Y-106004774D01*
X146751939Y-105965000D01*
X146548061Y-105965000D01*
X146348102Y-106004774D01*
X146159744Y-106082795D01*
X146025000Y-106172828D01*
X145890256Y-106082795D01*
X145701898Y-106004774D01*
X145501939Y-105965000D01*
X145298061Y-105965000D01*
X145098102Y-106004774D01*
X144909744Y-106082795D01*
X144775000Y-106172828D01*
X144640256Y-106082795D01*
X144451898Y-106004774D01*
X144251939Y-105965000D01*
X144048061Y-105965000D01*
X143848102Y-106004774D01*
X143659744Y-106082795D01*
X143525000Y-106172828D01*
X143390256Y-106082795D01*
X143201898Y-106004774D01*
X143001939Y-105965000D01*
X142798061Y-105965000D01*
X142598102Y-106004774D01*
X142409744Y-106082795D01*
X142275000Y-106172828D01*
X142140256Y-106082795D01*
X141951898Y-106004774D01*
X141751939Y-105965000D01*
X141548061Y-105965000D01*
X141348102Y-106004774D01*
X141159744Y-106082795D01*
X141025000Y-106172828D01*
X140890256Y-106082795D01*
X140701898Y-106004774D01*
X140501939Y-105965000D01*
X140298061Y-105965000D01*
X140098102Y-106004774D01*
X139909744Y-106082795D01*
X139740226Y-106196063D01*
X139596063Y-106340226D01*
X139482795Y-106509744D01*
X139404774Y-106698102D01*
X139365000Y-106898061D01*
X133235000Y-106898061D01*
X133195226Y-106698102D01*
X133117205Y-106509744D01*
X133003937Y-106340226D01*
X132859774Y-106196063D01*
X132690256Y-106082795D01*
X132501898Y-106004774D01*
X132301939Y-105965000D01*
X132098061Y-105965000D01*
X131898102Y-106004774D01*
X131709744Y-106082795D01*
X131575000Y-106172828D01*
X131440256Y-106082795D01*
X131251898Y-106004774D01*
X131051939Y-105965000D01*
X130848061Y-105965000D01*
X130648102Y-106004774D01*
X130459744Y-106082795D01*
X130325000Y-106172828D01*
X130190256Y-106082795D01*
X130001898Y-106004774D01*
X129801939Y-105965000D01*
X129598061Y-105965000D01*
X129398102Y-106004774D01*
X129209744Y-106082795D01*
X129075000Y-106172828D01*
X128940256Y-106082795D01*
X128751898Y-106004774D01*
X128551939Y-105965000D01*
X128348061Y-105965000D01*
X128148102Y-106004774D01*
X127959744Y-106082795D01*
X127825000Y-106172828D01*
X127690256Y-106082795D01*
X127501898Y-106004774D01*
X127301939Y-105965000D01*
X127098061Y-105965000D01*
X126898102Y-106004774D01*
X126709744Y-106082795D01*
X126575000Y-106172828D01*
X126440256Y-106082795D01*
X126251898Y-106004774D01*
X126051939Y-105965000D01*
X125848061Y-105965000D01*
X125648102Y-106004774D01*
X125459744Y-106082795D01*
X125325000Y-106172828D01*
X125190256Y-106082795D01*
X125001898Y-106004774D01*
X124801939Y-105965000D01*
X124598061Y-105965000D01*
X124398102Y-106004774D01*
X124209744Y-106082795D01*
X124075000Y-106172828D01*
X123940256Y-106082795D01*
X123751898Y-106004774D01*
X123551939Y-105965000D01*
X123348061Y-105965000D01*
X123148102Y-106004774D01*
X122959744Y-106082795D01*
X122825000Y-106172828D01*
X122690256Y-106082795D01*
X122501898Y-106004774D01*
X122301939Y-105965000D01*
X122098061Y-105965000D01*
X121898102Y-106004774D01*
X121709744Y-106082795D01*
X121575000Y-106172828D01*
X121440256Y-106082795D01*
X121251898Y-106004774D01*
X121051939Y-105965000D01*
X120848061Y-105965000D01*
X120648102Y-106004774D01*
X120459744Y-106082795D01*
X120325000Y-106172828D01*
X120190256Y-106082795D01*
X120001898Y-106004774D01*
X119801939Y-105965000D01*
X119598061Y-105965000D01*
X119398102Y-106004774D01*
X119209744Y-106082795D01*
X119075000Y-106172828D01*
X118940256Y-106082795D01*
X118751898Y-106004774D01*
X118551939Y-105965000D01*
X118348061Y-105965000D01*
X118148102Y-106004774D01*
X117959744Y-106082795D01*
X117825000Y-106172828D01*
X117690256Y-106082795D01*
X117501898Y-106004774D01*
X117301939Y-105965000D01*
X117098061Y-105965000D01*
X116898102Y-106004774D01*
X116709744Y-106082795D01*
X116540226Y-106196063D01*
X116396063Y-106340226D01*
X116282795Y-106509744D01*
X116204774Y-106698102D01*
X116165000Y-106898061D01*
X110035000Y-106898061D01*
X109995226Y-106698102D01*
X109917205Y-106509744D01*
X109803937Y-106340226D01*
X109659774Y-106196063D01*
X109490256Y-106082795D01*
X109301898Y-106004774D01*
X109101939Y-105965000D01*
X108898061Y-105965000D01*
X108698102Y-106004774D01*
X108509744Y-106082795D01*
X108375000Y-106172828D01*
X108240256Y-106082795D01*
X108051898Y-106004774D01*
X107851939Y-105965000D01*
X107648061Y-105965000D01*
X107448102Y-106004774D01*
X107259744Y-106082795D01*
X107125000Y-106172828D01*
X106990256Y-106082795D01*
X106801898Y-106004774D01*
X106601939Y-105965000D01*
X106398061Y-105965000D01*
X106198102Y-106004774D01*
X106009744Y-106082795D01*
X105875000Y-106172828D01*
X105740256Y-106082795D01*
X105551898Y-106004774D01*
X105351939Y-105965000D01*
X105148061Y-105965000D01*
X104948102Y-106004774D01*
X104759744Y-106082795D01*
X104625000Y-106172828D01*
X104490256Y-106082795D01*
X104301898Y-106004774D01*
X104101939Y-105965000D01*
X103898061Y-105965000D01*
X103698102Y-106004774D01*
X103509744Y-106082795D01*
X103375000Y-106172828D01*
X103240256Y-106082795D01*
X103051898Y-106004774D01*
X102851939Y-105965000D01*
X102648061Y-105965000D01*
X102448102Y-106004774D01*
X102259744Y-106082795D01*
X102125000Y-106172828D01*
X101990256Y-106082795D01*
X101801898Y-106004774D01*
X101601939Y-105965000D01*
X101398061Y-105965000D01*
X101198102Y-106004774D01*
X101009744Y-106082795D01*
X100875000Y-106172828D01*
X100740256Y-106082795D01*
X100551898Y-106004774D01*
X100351939Y-105965000D01*
X100148061Y-105965000D01*
X99948102Y-106004774D01*
X99759744Y-106082795D01*
X99625000Y-106172828D01*
X99490256Y-106082795D01*
X99301898Y-106004774D01*
X99101939Y-105965000D01*
X98898061Y-105965000D01*
X98698102Y-106004774D01*
X98509744Y-106082795D01*
X98375000Y-106172828D01*
X98240256Y-106082795D01*
X98051898Y-106004774D01*
X97851939Y-105965000D01*
X97648061Y-105965000D01*
X97448102Y-106004774D01*
X97259744Y-106082795D01*
X97125000Y-106172828D01*
X96990256Y-106082795D01*
X96801898Y-106004774D01*
X96601939Y-105965000D01*
X96398061Y-105965000D01*
X96198102Y-106004774D01*
X96009744Y-106082795D01*
X95875000Y-106172828D01*
X95740256Y-106082795D01*
X95551898Y-106004774D01*
X95351939Y-105965000D01*
X95148061Y-105965000D01*
X94948102Y-106004774D01*
X94759744Y-106082795D01*
X94625000Y-106172828D01*
X94490256Y-106082795D01*
X94301898Y-106004774D01*
X94101939Y-105965000D01*
X93898061Y-105965000D01*
X93698102Y-106004774D01*
X93509744Y-106082795D01*
X93340226Y-106196063D01*
X93196063Y-106340226D01*
X93082795Y-106509744D01*
X93004774Y-106698102D01*
X92965000Y-106898061D01*
X90610000Y-106898061D01*
X90610000Y-88146000D01*
X96425123Y-88146000D01*
X96460000Y-88149435D01*
X96494877Y-88146000D01*
X96599184Y-88135727D01*
X96733020Y-88095128D01*
X96856363Y-88029200D01*
X96964475Y-87940475D01*
X97053200Y-87832363D01*
X97119128Y-87709020D01*
X97159727Y-87575184D01*
X97173435Y-87436000D01*
X97170000Y-87401123D01*
X97170000Y-82933114D01*
X97302188Y-83065302D01*
X97856601Y-83435748D01*
X98472632Y-83690917D01*
X99126607Y-83821000D01*
X99793393Y-83821000D01*
X100447368Y-83690917D01*
X101063399Y-83435748D01*
X101617812Y-83065302D01*
X102089302Y-82593812D01*
X102459748Y-82039399D01*
X102714917Y-81423368D01*
X102845000Y-80769393D01*
X102845000Y-80293680D01*
X103105000Y-80293680D01*
X103105000Y-80578320D01*
X103160530Y-80857491D01*
X103269457Y-81120464D01*
X103427595Y-81357134D01*
X103628866Y-81558405D01*
X103849757Y-81706000D01*
X103628866Y-81853595D01*
X103427595Y-82054866D01*
X103269457Y-82291536D01*
X103160530Y-82554509D01*
X103105000Y-82833680D01*
X103105000Y-83118320D01*
X103160530Y-83397491D01*
X103269457Y-83660464D01*
X103427595Y-83897134D01*
X103628866Y-84098405D01*
X103849757Y-84246000D01*
X103628866Y-84393595D01*
X103427595Y-84594866D01*
X103269457Y-84831536D01*
X103160530Y-85094509D01*
X103105000Y-85373680D01*
X103105000Y-85658320D01*
X103160530Y-85937491D01*
X103269457Y-86200464D01*
X103427595Y-86437134D01*
X103628866Y-86638405D01*
X103849757Y-86786000D01*
X103628866Y-86933595D01*
X103427595Y-87134866D01*
X103269457Y-87371536D01*
X103160530Y-87634509D01*
X103105000Y-87913680D01*
X103105000Y-88198320D01*
X103160530Y-88477491D01*
X103269457Y-88740464D01*
X103427595Y-88977134D01*
X103628866Y-89178405D01*
X103865536Y-89336543D01*
X104128509Y-89445470D01*
X104407680Y-89501000D01*
X104692320Y-89501000D01*
X104971491Y-89445470D01*
X105234464Y-89336543D01*
X105471134Y-89178405D01*
X105672405Y-88977134D01*
X105820000Y-88756243D01*
X105967595Y-88977134D01*
X106168866Y-89178405D01*
X106405536Y-89336543D01*
X106668509Y-89445470D01*
X106947680Y-89501000D01*
X107232320Y-89501000D01*
X107511491Y-89445470D01*
X107774464Y-89336543D01*
X108011134Y-89178405D01*
X108212405Y-88977134D01*
X108360000Y-88756243D01*
X108507595Y-88977134D01*
X108708866Y-89178405D01*
X108945536Y-89336543D01*
X109208509Y-89445470D01*
X109487680Y-89501000D01*
X109772320Y-89501000D01*
X110051491Y-89445470D01*
X110314464Y-89336543D01*
X110551134Y-89178405D01*
X110752405Y-88977134D01*
X110900000Y-88756243D01*
X111047595Y-88977134D01*
X111248866Y-89178405D01*
X111485536Y-89336543D01*
X111748509Y-89445470D01*
X112027680Y-89501000D01*
X112312320Y-89501000D01*
X112591491Y-89445470D01*
X112854464Y-89336543D01*
X113091134Y-89178405D01*
X113292405Y-88977134D01*
X113440000Y-88756243D01*
X113587595Y-88977134D01*
X113788866Y-89178405D01*
X114025536Y-89336543D01*
X114288509Y-89445470D01*
X114567680Y-89501000D01*
X114852320Y-89501000D01*
X115131491Y-89445470D01*
X115394464Y-89336543D01*
X115631134Y-89178405D01*
X115832405Y-88977134D01*
X115980000Y-88756243D01*
X116127595Y-88977134D01*
X116328866Y-89178405D01*
X116565536Y-89336543D01*
X116828509Y-89445470D01*
X117107680Y-89501000D01*
X117392320Y-89501000D01*
X117671491Y-89445470D01*
X117934464Y-89336543D01*
X118171134Y-89178405D01*
X118372405Y-88977134D01*
X118520000Y-88756243D01*
X118667595Y-88977134D01*
X118868866Y-89178405D01*
X119105536Y-89336543D01*
X119368509Y-89445470D01*
X119647680Y-89501000D01*
X119932320Y-89501000D01*
X120211491Y-89445470D01*
X120474464Y-89336543D01*
X120711134Y-89178405D01*
X120912405Y-88977134D01*
X121060000Y-88756243D01*
X121207595Y-88977134D01*
X121408866Y-89178405D01*
X121645536Y-89336543D01*
X121908509Y-89445470D01*
X122187680Y-89501000D01*
X122472320Y-89501000D01*
X122751491Y-89445470D01*
X123014464Y-89336543D01*
X123251134Y-89178405D01*
X123452405Y-88977134D01*
X123600000Y-88756243D01*
X123747595Y-88977134D01*
X123948866Y-89178405D01*
X124185536Y-89336543D01*
X124448509Y-89445470D01*
X124727680Y-89501000D01*
X125012320Y-89501000D01*
X125291491Y-89445470D01*
X125554464Y-89336543D01*
X125791134Y-89178405D01*
X125992405Y-88977134D01*
X126140000Y-88756243D01*
X126287595Y-88977134D01*
X126488866Y-89178405D01*
X126725536Y-89336543D01*
X126988509Y-89445470D01*
X127267680Y-89501000D01*
X127552320Y-89501000D01*
X127831491Y-89445470D01*
X128094464Y-89336543D01*
X128331134Y-89178405D01*
X128532405Y-88977134D01*
X128680000Y-88756243D01*
X128827595Y-88977134D01*
X129028866Y-89178405D01*
X129265536Y-89336543D01*
X129528509Y-89445470D01*
X129807680Y-89501000D01*
X130092320Y-89501000D01*
X130371491Y-89445470D01*
X130634464Y-89336543D01*
X130871134Y-89178405D01*
X131072405Y-88977134D01*
X131220000Y-88756243D01*
X131367595Y-88977134D01*
X131568866Y-89178405D01*
X131805536Y-89336543D01*
X132068509Y-89445470D01*
X132347680Y-89501000D01*
X132632320Y-89501000D01*
X132911491Y-89445470D01*
X133174464Y-89336543D01*
X133411134Y-89178405D01*
X133612405Y-88977134D01*
X133760000Y-88756243D01*
X133907595Y-88977134D01*
X134108866Y-89178405D01*
X134345536Y-89336543D01*
X134608509Y-89445470D01*
X134887680Y-89501000D01*
X135172320Y-89501000D01*
X135451491Y-89445470D01*
X135714464Y-89336543D01*
X135951134Y-89178405D01*
X136152405Y-88977134D01*
X136300000Y-88756243D01*
X136447595Y-88977134D01*
X136648866Y-89178405D01*
X136885536Y-89336543D01*
X137148509Y-89445470D01*
X137427680Y-89501000D01*
X137712320Y-89501000D01*
X137991491Y-89445470D01*
X138254464Y-89336543D01*
X138491134Y-89178405D01*
X138692405Y-88977134D01*
X138840000Y-88756243D01*
X138987595Y-88977134D01*
X139188866Y-89178405D01*
X139425536Y-89336543D01*
X139688509Y-89445470D01*
X139967680Y-89501000D01*
X140252320Y-89501000D01*
X140531491Y-89445470D01*
X140794464Y-89336543D01*
X141031134Y-89178405D01*
X141232405Y-88977134D01*
X141380000Y-88756243D01*
X141527595Y-88977134D01*
X141728866Y-89178405D01*
X141965536Y-89336543D01*
X142228509Y-89445470D01*
X142507680Y-89501000D01*
X142792320Y-89501000D01*
X143071491Y-89445470D01*
X143334464Y-89336543D01*
X143571134Y-89178405D01*
X143772405Y-88977134D01*
X143920000Y-88756243D01*
X144067595Y-88977134D01*
X144268866Y-89178405D01*
X144505536Y-89336543D01*
X144768509Y-89445470D01*
X145047680Y-89501000D01*
X145332320Y-89501000D01*
X145611491Y-89445470D01*
X145874464Y-89336543D01*
X146111134Y-89178405D01*
X146312405Y-88977134D01*
X146460000Y-88756243D01*
X146607595Y-88977134D01*
X146808866Y-89178405D01*
X147045536Y-89336543D01*
X147308509Y-89445470D01*
X147587680Y-89501000D01*
X147872320Y-89501000D01*
X148151491Y-89445470D01*
X148414464Y-89336543D01*
X148651134Y-89178405D01*
X148852405Y-88977134D01*
X149000000Y-88756243D01*
X149147595Y-88977134D01*
X149348866Y-89178405D01*
X149585536Y-89336543D01*
X149848509Y-89445470D01*
X150127680Y-89501000D01*
X150412320Y-89501000D01*
X150691491Y-89445470D01*
X150954464Y-89336543D01*
X151191134Y-89178405D01*
X151392405Y-88977134D01*
X151540000Y-88756243D01*
X151687595Y-88977134D01*
X151888866Y-89178405D01*
X152125536Y-89336543D01*
X152388509Y-89445470D01*
X152667680Y-89501000D01*
X152952320Y-89501000D01*
X153231491Y-89445470D01*
X153494464Y-89336543D01*
X153731134Y-89178405D01*
X153932405Y-88977134D01*
X154080000Y-88756243D01*
X154227595Y-88977134D01*
X154428866Y-89178405D01*
X154665536Y-89336543D01*
X154928509Y-89445470D01*
X155207680Y-89501000D01*
X155492320Y-89501000D01*
X155771491Y-89445470D01*
X156034464Y-89336543D01*
X156271134Y-89178405D01*
X156472405Y-88977134D01*
X156620000Y-88756243D01*
X156767595Y-88977134D01*
X156968866Y-89178405D01*
X157205536Y-89336543D01*
X157468509Y-89445470D01*
X157747680Y-89501000D01*
X158032320Y-89501000D01*
X158311491Y-89445470D01*
X158574464Y-89336543D01*
X158811134Y-89178405D01*
X159012405Y-88977134D01*
X159160000Y-88756243D01*
X159307595Y-88977134D01*
X159508866Y-89178405D01*
X159745536Y-89336543D01*
X160008509Y-89445470D01*
X160287680Y-89501000D01*
X160572320Y-89501000D01*
X160851491Y-89445470D01*
X161114464Y-89336543D01*
X161351134Y-89178405D01*
X161552405Y-88977134D01*
X161700000Y-88756243D01*
X161847595Y-88977134D01*
X162048866Y-89178405D01*
X162285536Y-89336543D01*
X162548509Y-89445470D01*
X162827680Y-89501000D01*
X163112320Y-89501000D01*
X163391491Y-89445470D01*
X163654464Y-89336543D01*
X163891134Y-89178405D01*
X164092405Y-88977134D01*
X164240000Y-88756243D01*
X164387595Y-88977134D01*
X164588866Y-89178405D01*
X164825536Y-89336543D01*
X165088509Y-89445470D01*
X165367680Y-89501000D01*
X165652320Y-89501000D01*
X165931491Y-89445470D01*
X166194464Y-89336543D01*
X166431134Y-89178405D01*
X166632405Y-88977134D01*
X166780000Y-88756243D01*
X166927595Y-88977134D01*
X167128866Y-89178405D01*
X167365536Y-89336543D01*
X167628509Y-89445470D01*
X167907680Y-89501000D01*
X168192320Y-89501000D01*
X168471491Y-89445470D01*
X168734464Y-89336543D01*
X168971134Y-89178405D01*
X169172405Y-88977134D01*
X169330543Y-88740464D01*
X169439470Y-88477491D01*
X169495000Y-88198320D01*
X169495000Y-87913680D01*
X169439470Y-87634509D01*
X169330543Y-87371536D01*
X169172405Y-87134866D01*
X168971134Y-86933595D01*
X168750243Y-86786000D01*
X168971134Y-86638405D01*
X169172405Y-86437134D01*
X169330543Y-86200464D01*
X169439470Y-85937491D01*
X169495000Y-85658320D01*
X169495000Y-85373680D01*
X169439470Y-85094509D01*
X169330543Y-84831536D01*
X169172405Y-84594866D01*
X168971134Y-84393595D01*
X168750243Y-84246000D01*
X168971134Y-84098405D01*
X169172405Y-83897134D01*
X169330543Y-83660464D01*
X169439470Y-83397491D01*
X169495000Y-83118320D01*
X169495000Y-82833680D01*
X169439470Y-82554509D01*
X169330543Y-82291536D01*
X169172405Y-82054866D01*
X168971134Y-81853595D01*
X168750243Y-81706000D01*
X168971134Y-81558405D01*
X169172405Y-81357134D01*
X169330543Y-81120464D01*
X169439470Y-80857491D01*
X169495000Y-80578320D01*
X169495000Y-80293680D01*
X169439470Y-80014509D01*
X169330543Y-79751536D01*
X169172405Y-79514866D01*
X168971134Y-79313595D01*
X168734464Y-79155457D01*
X168471491Y-79046530D01*
X168192320Y-78991000D01*
X167907680Y-78991000D01*
X167628509Y-79046530D01*
X167365536Y-79155457D01*
X167128866Y-79313595D01*
X166927595Y-79514866D01*
X166780000Y-79735757D01*
X166632405Y-79514866D01*
X166431134Y-79313595D01*
X166194464Y-79155457D01*
X165931491Y-79046530D01*
X165652320Y-78991000D01*
X165367680Y-78991000D01*
X165088509Y-79046530D01*
X164825536Y-79155457D01*
X164588866Y-79313595D01*
X164387595Y-79514866D01*
X164240000Y-79735757D01*
X164092405Y-79514866D01*
X163891134Y-79313595D01*
X163654464Y-79155457D01*
X163391491Y-79046530D01*
X163112320Y-78991000D01*
X162827680Y-78991000D01*
X162548509Y-79046530D01*
X162285536Y-79155457D01*
X162048866Y-79313595D01*
X161847595Y-79514866D01*
X161700000Y-79735757D01*
X161552405Y-79514866D01*
X161351134Y-79313595D01*
X161114464Y-79155457D01*
X160851491Y-79046530D01*
X160572320Y-78991000D01*
X160287680Y-78991000D01*
X160008509Y-79046530D01*
X159745536Y-79155457D01*
X159508866Y-79313595D01*
X159307595Y-79514866D01*
X159160000Y-79735757D01*
X159012405Y-79514866D01*
X158811134Y-79313595D01*
X158574464Y-79155457D01*
X158311491Y-79046530D01*
X158032320Y-78991000D01*
X157747680Y-78991000D01*
X157468509Y-79046530D01*
X157205536Y-79155457D01*
X156968866Y-79313595D01*
X156767595Y-79514866D01*
X156620000Y-79735757D01*
X156472405Y-79514866D01*
X156271134Y-79313595D01*
X156034464Y-79155457D01*
X155771491Y-79046530D01*
X155492320Y-78991000D01*
X155207680Y-78991000D01*
X154928509Y-79046530D01*
X154665536Y-79155457D01*
X154428866Y-79313595D01*
X154227595Y-79514866D01*
X154080000Y-79735757D01*
X153932405Y-79514866D01*
X153731134Y-79313595D01*
X153494464Y-79155457D01*
X153231491Y-79046530D01*
X152952320Y-78991000D01*
X152667680Y-78991000D01*
X152388509Y-79046530D01*
X152125536Y-79155457D01*
X151888866Y-79313595D01*
X151687595Y-79514866D01*
X151540000Y-79735757D01*
X151392405Y-79514866D01*
X151191134Y-79313595D01*
X150954464Y-79155457D01*
X150691491Y-79046530D01*
X150412320Y-78991000D01*
X150127680Y-78991000D01*
X149848509Y-79046530D01*
X149585536Y-79155457D01*
X149348866Y-79313595D01*
X149147595Y-79514866D01*
X149000000Y-79735757D01*
X148852405Y-79514866D01*
X148651134Y-79313595D01*
X148414464Y-79155457D01*
X148151491Y-79046530D01*
X147872320Y-78991000D01*
X147587680Y-78991000D01*
X147308509Y-79046530D01*
X147045536Y-79155457D01*
X146808866Y-79313595D01*
X146607595Y-79514866D01*
X146460000Y-79735757D01*
X146312405Y-79514866D01*
X146111134Y-79313595D01*
X145874464Y-79155457D01*
X145611491Y-79046530D01*
X145332320Y-78991000D01*
X145047680Y-78991000D01*
X144768509Y-79046530D01*
X144505536Y-79155457D01*
X144268866Y-79313595D01*
X144067595Y-79514866D01*
X143920000Y-79735757D01*
X143772405Y-79514866D01*
X143571134Y-79313595D01*
X143334464Y-79155457D01*
X143071491Y-79046530D01*
X142792320Y-78991000D01*
X142507680Y-78991000D01*
X142228509Y-79046530D01*
X141965536Y-79155457D01*
X141728866Y-79313595D01*
X141527595Y-79514866D01*
X141380000Y-79735757D01*
X141232405Y-79514866D01*
X141031134Y-79313595D01*
X140794464Y-79155457D01*
X140531491Y-79046530D01*
X140252320Y-78991000D01*
X139967680Y-78991000D01*
X139688509Y-79046530D01*
X139425536Y-79155457D01*
X139188866Y-79313595D01*
X138987595Y-79514866D01*
X138840000Y-79735757D01*
X138692405Y-79514866D01*
X138491134Y-79313595D01*
X138254464Y-79155457D01*
X137991491Y-79046530D01*
X137712320Y-78991000D01*
X137427680Y-78991000D01*
X137148509Y-79046530D01*
X136885536Y-79155457D01*
X136648866Y-79313595D01*
X136447595Y-79514866D01*
X136300000Y-79735757D01*
X136152405Y-79514866D01*
X135951134Y-79313595D01*
X135714464Y-79155457D01*
X135451491Y-79046530D01*
X135172320Y-78991000D01*
X134887680Y-78991000D01*
X134608509Y-79046530D01*
X134345536Y-79155457D01*
X134108866Y-79313595D01*
X133907595Y-79514866D01*
X133760000Y-79735757D01*
X133612405Y-79514866D01*
X133411134Y-79313595D01*
X133174464Y-79155457D01*
X132911491Y-79046530D01*
X132632320Y-78991000D01*
X132347680Y-78991000D01*
X132068509Y-79046530D01*
X131805536Y-79155457D01*
X131568866Y-79313595D01*
X131367595Y-79514866D01*
X131220000Y-79735757D01*
X131072405Y-79514866D01*
X130871134Y-79313595D01*
X130634464Y-79155457D01*
X130371491Y-79046530D01*
X130092320Y-78991000D01*
X129807680Y-78991000D01*
X129528509Y-79046530D01*
X129265536Y-79155457D01*
X129028866Y-79313595D01*
X128827595Y-79514866D01*
X128680000Y-79735757D01*
X128532405Y-79514866D01*
X128331134Y-79313595D01*
X128094464Y-79155457D01*
X127831491Y-79046530D01*
X127552320Y-78991000D01*
X127267680Y-78991000D01*
X126988509Y-79046530D01*
X126725536Y-79155457D01*
X126488866Y-79313595D01*
X126287595Y-79514866D01*
X126140000Y-79735757D01*
X125992405Y-79514866D01*
X125791134Y-79313595D01*
X125554464Y-79155457D01*
X125291491Y-79046530D01*
X125012320Y-78991000D01*
X124727680Y-78991000D01*
X124448509Y-79046530D01*
X124185536Y-79155457D01*
X123948866Y-79313595D01*
X123747595Y-79514866D01*
X123600000Y-79735757D01*
X123452405Y-79514866D01*
X123251134Y-79313595D01*
X123014464Y-79155457D01*
X122751491Y-79046530D01*
X122472320Y-78991000D01*
X122187680Y-78991000D01*
X121908509Y-79046530D01*
X121645536Y-79155457D01*
X121408866Y-79313595D01*
X121207595Y-79514866D01*
X121060000Y-79735757D01*
X120912405Y-79514866D01*
X120711134Y-79313595D01*
X120474464Y-79155457D01*
X120211491Y-79046530D01*
X119932320Y-78991000D01*
X119647680Y-78991000D01*
X119368509Y-79046530D01*
X119105536Y-79155457D01*
X118868866Y-79313595D01*
X118667595Y-79514866D01*
X118520000Y-79735757D01*
X118372405Y-79514866D01*
X118171134Y-79313595D01*
X117934464Y-79155457D01*
X117671491Y-79046530D01*
X117392320Y-78991000D01*
X117107680Y-78991000D01*
X116828509Y-79046530D01*
X116565536Y-79155457D01*
X116328866Y-79313595D01*
X116127595Y-79514866D01*
X115980000Y-79735757D01*
X115832405Y-79514866D01*
X115631134Y-79313595D01*
X115394464Y-79155457D01*
X115131491Y-79046530D01*
X114852320Y-78991000D01*
X114567680Y-78991000D01*
X114288509Y-79046530D01*
X114025536Y-79155457D01*
X113788866Y-79313595D01*
X113587595Y-79514866D01*
X113440000Y-79735757D01*
X113292405Y-79514866D01*
X113091134Y-79313595D01*
X112854464Y-79155457D01*
X112591491Y-79046530D01*
X112312320Y-78991000D01*
X112027680Y-78991000D01*
X111748509Y-79046530D01*
X111485536Y-79155457D01*
X111248866Y-79313595D01*
X111047595Y-79514866D01*
X110900000Y-79735757D01*
X110752405Y-79514866D01*
X110551134Y-79313595D01*
X110314464Y-79155457D01*
X110051491Y-79046530D01*
X109772320Y-78991000D01*
X109487680Y-78991000D01*
X109208509Y-79046530D01*
X108945536Y-79155457D01*
X108708866Y-79313595D01*
X108507595Y-79514866D01*
X108360000Y-79735757D01*
X108212405Y-79514866D01*
X108011134Y-79313595D01*
X107774464Y-79155457D01*
X107511491Y-79046530D01*
X107232320Y-78991000D01*
X106947680Y-78991000D01*
X106668509Y-79046530D01*
X106405536Y-79155457D01*
X106168866Y-79313595D01*
X105967595Y-79514866D01*
X105820000Y-79735757D01*
X105672405Y-79514866D01*
X105471134Y-79313595D01*
X105234464Y-79155457D01*
X104971491Y-79046530D01*
X104692320Y-78991000D01*
X104407680Y-78991000D01*
X104128509Y-79046530D01*
X103865536Y-79155457D01*
X103628866Y-79313595D01*
X103427595Y-79514866D01*
X103269457Y-79751536D01*
X103160530Y-80014509D01*
X103105000Y-80293680D01*
X102845000Y-80293680D01*
X102845000Y-80102607D01*
X102714917Y-79448632D01*
X102459748Y-78832601D01*
X102089302Y-78278188D01*
X101957114Y-78146000D01*
X170642886Y-78146000D01*
X170510698Y-78278188D01*
G36*
X126287595Y-86437134D02*
G01*
X126488866Y-86638405D01*
X126709757Y-86786000D01*
X126488866Y-86933595D01*
X126287595Y-87134866D01*
X126140000Y-87355757D01*
X125992405Y-87134866D01*
X125791134Y-86933595D01*
X125570243Y-86786000D01*
X125791134Y-86638405D01*
X125992405Y-86437134D01*
X126140000Y-86216243D01*
X126287595Y-86437134D01*
G37*
X126287595Y-86437134D02*
X126488866Y-86638405D01*
X126709757Y-86786000D01*
X126488866Y-86933595D01*
X126287595Y-87134866D01*
X126140000Y-87355757D01*
X125992405Y-87134866D01*
X125791134Y-86933595D01*
X125570243Y-86786000D01*
X125791134Y-86638405D01*
X125992405Y-86437134D01*
X126140000Y-86216243D01*
X126287595Y-86437134D01*
G36*
X133907595Y-86437134D02*
G01*
X134108866Y-86638405D01*
X134329757Y-86786000D01*
X134108866Y-86933595D01*
X133907595Y-87134866D01*
X133760000Y-87355757D01*
X133612405Y-87134866D01*
X133411134Y-86933595D01*
X133190243Y-86786000D01*
X133411134Y-86638405D01*
X133612405Y-86437134D01*
X133760000Y-86216243D01*
X133907595Y-86437134D01*
G37*
X133907595Y-86437134D02*
X134108866Y-86638405D01*
X134329757Y-86786000D01*
X134108866Y-86933595D01*
X133907595Y-87134866D01*
X133760000Y-87355757D01*
X133612405Y-87134866D01*
X133411134Y-86933595D01*
X133190243Y-86786000D01*
X133411134Y-86638405D01*
X133612405Y-86437134D01*
X133760000Y-86216243D01*
X133907595Y-86437134D01*
G36*
X159307595Y-86437134D02*
G01*
X159508866Y-86638405D01*
X159729757Y-86786000D01*
X159508866Y-86933595D01*
X159307595Y-87134866D01*
X159160000Y-87355757D01*
X159012405Y-87134866D01*
X158811134Y-86933595D01*
X158590243Y-86786000D01*
X158811134Y-86638405D01*
X159012405Y-86437134D01*
X159160000Y-86216243D01*
X159307595Y-86437134D01*
G37*
X159307595Y-86437134D02*
X159508866Y-86638405D01*
X159729757Y-86786000D01*
X159508866Y-86933595D01*
X159307595Y-87134866D01*
X159160000Y-87355757D01*
X159012405Y-87134866D01*
X158811134Y-86933595D01*
X158590243Y-86786000D01*
X158811134Y-86638405D01*
X159012405Y-86437134D01*
X159160000Y-86216243D01*
X159307595Y-86437134D01*
G36*
X136447595Y-86437134D02*
G01*
X136648866Y-86638405D01*
X136869757Y-86786000D01*
X136648866Y-86933595D01*
X136447595Y-87134866D01*
X136300000Y-87355757D01*
X136152405Y-87134866D01*
X135951134Y-86933595D01*
X135730243Y-86786000D01*
X135951134Y-86638405D01*
X136152405Y-86437134D01*
X136300000Y-86216243D01*
X136447595Y-86437134D01*
G37*
X136447595Y-86437134D02*
X136648866Y-86638405D01*
X136869757Y-86786000D01*
X136648866Y-86933595D01*
X136447595Y-87134866D01*
X136300000Y-87355757D01*
X136152405Y-87134866D01*
X135951134Y-86933595D01*
X135730243Y-86786000D01*
X135951134Y-86638405D01*
X136152405Y-86437134D01*
X136300000Y-86216243D01*
X136447595Y-86437134D01*
G36*
X164387595Y-86437134D02*
G01*
X164588866Y-86638405D01*
X164809757Y-86786000D01*
X164588866Y-86933595D01*
X164387595Y-87134866D01*
X164240000Y-87355757D01*
X164092405Y-87134866D01*
X163891134Y-86933595D01*
X163670243Y-86786000D01*
X163891134Y-86638405D01*
X164092405Y-86437134D01*
X164240000Y-86216243D01*
X164387595Y-86437134D01*
G37*
X164387595Y-86437134D02*
X164588866Y-86638405D01*
X164809757Y-86786000D01*
X164588866Y-86933595D01*
X164387595Y-87134866D01*
X164240000Y-87355757D01*
X164092405Y-87134866D01*
X163891134Y-86933595D01*
X163670243Y-86786000D01*
X163891134Y-86638405D01*
X164092405Y-86437134D01*
X164240000Y-86216243D01*
X164387595Y-86437134D01*
G36*
X108507595Y-86437134D02*
G01*
X108708866Y-86638405D01*
X108929757Y-86786000D01*
X108708866Y-86933595D01*
X108507595Y-87134866D01*
X108360000Y-87355757D01*
X108212405Y-87134866D01*
X108011134Y-86933595D01*
X107790243Y-86786000D01*
X108011134Y-86638405D01*
X108212405Y-86437134D01*
X108360000Y-86216243D01*
X108507595Y-86437134D01*
G37*
X108507595Y-86437134D02*
X108708866Y-86638405D01*
X108929757Y-86786000D01*
X108708866Y-86933595D01*
X108507595Y-87134866D01*
X108360000Y-87355757D01*
X108212405Y-87134866D01*
X108011134Y-86933595D01*
X107790243Y-86786000D01*
X108011134Y-86638405D01*
X108212405Y-86437134D01*
X108360000Y-86216243D01*
X108507595Y-86437134D01*
G36*
X111047595Y-86437134D02*
G01*
X111248866Y-86638405D01*
X111469757Y-86786000D01*
X111248866Y-86933595D01*
X111047595Y-87134866D01*
X110900000Y-87355757D01*
X110752405Y-87134866D01*
X110551134Y-86933595D01*
X110330243Y-86786000D01*
X110551134Y-86638405D01*
X110752405Y-86437134D01*
X110900000Y-86216243D01*
X111047595Y-86437134D01*
G37*
X111047595Y-86437134D02*
X111248866Y-86638405D01*
X111469757Y-86786000D01*
X111248866Y-86933595D01*
X111047595Y-87134866D01*
X110900000Y-87355757D01*
X110752405Y-87134866D01*
X110551134Y-86933595D01*
X110330243Y-86786000D01*
X110551134Y-86638405D01*
X110752405Y-86437134D01*
X110900000Y-86216243D01*
X111047595Y-86437134D01*
G36*
X113587595Y-86437134D02*
G01*
X113788866Y-86638405D01*
X114009757Y-86786000D01*
X113788866Y-86933595D01*
X113587595Y-87134866D01*
X113440000Y-87355757D01*
X113292405Y-87134866D01*
X113091134Y-86933595D01*
X112870243Y-86786000D01*
X113091134Y-86638405D01*
X113292405Y-86437134D01*
X113440000Y-86216243D01*
X113587595Y-86437134D01*
G37*
X113587595Y-86437134D02*
X113788866Y-86638405D01*
X114009757Y-86786000D01*
X113788866Y-86933595D01*
X113587595Y-87134866D01*
X113440000Y-87355757D01*
X113292405Y-87134866D01*
X113091134Y-86933595D01*
X112870243Y-86786000D01*
X113091134Y-86638405D01*
X113292405Y-86437134D01*
X113440000Y-86216243D01*
X113587595Y-86437134D01*
G36*
X116127595Y-86437134D02*
G01*
X116328866Y-86638405D01*
X116549757Y-86786000D01*
X116328866Y-86933595D01*
X116127595Y-87134866D01*
X115980000Y-87355757D01*
X115832405Y-87134866D01*
X115631134Y-86933595D01*
X115410243Y-86786000D01*
X115631134Y-86638405D01*
X115832405Y-86437134D01*
X115980000Y-86216243D01*
X116127595Y-86437134D01*
G37*
X116127595Y-86437134D02*
X116328866Y-86638405D01*
X116549757Y-86786000D01*
X116328866Y-86933595D01*
X116127595Y-87134866D01*
X115980000Y-87355757D01*
X115832405Y-87134866D01*
X115631134Y-86933595D01*
X115410243Y-86786000D01*
X115631134Y-86638405D01*
X115832405Y-86437134D01*
X115980000Y-86216243D01*
X116127595Y-86437134D01*
G36*
X118667595Y-86437134D02*
G01*
X118868866Y-86638405D01*
X119089757Y-86786000D01*
X118868866Y-86933595D01*
X118667595Y-87134866D01*
X118520000Y-87355757D01*
X118372405Y-87134866D01*
X118171134Y-86933595D01*
X117950243Y-86786000D01*
X118171134Y-86638405D01*
X118372405Y-86437134D01*
X118520000Y-86216243D01*
X118667595Y-86437134D01*
G37*
X118667595Y-86437134D02*
X118868866Y-86638405D01*
X119089757Y-86786000D01*
X118868866Y-86933595D01*
X118667595Y-87134866D01*
X118520000Y-87355757D01*
X118372405Y-87134866D01*
X118171134Y-86933595D01*
X117950243Y-86786000D01*
X118171134Y-86638405D01*
X118372405Y-86437134D01*
X118520000Y-86216243D01*
X118667595Y-86437134D01*
G36*
X121207595Y-86437134D02*
G01*
X121408866Y-86638405D01*
X121629757Y-86786000D01*
X121408866Y-86933595D01*
X121207595Y-87134866D01*
X121060000Y-87355757D01*
X120912405Y-87134866D01*
X120711134Y-86933595D01*
X120490243Y-86786000D01*
X120711134Y-86638405D01*
X120912405Y-86437134D01*
X121060000Y-86216243D01*
X121207595Y-86437134D01*
G37*
X121207595Y-86437134D02*
X121408866Y-86638405D01*
X121629757Y-86786000D01*
X121408866Y-86933595D01*
X121207595Y-87134866D01*
X121060000Y-87355757D01*
X120912405Y-87134866D01*
X120711134Y-86933595D01*
X120490243Y-86786000D01*
X120711134Y-86638405D01*
X120912405Y-86437134D01*
X121060000Y-86216243D01*
X121207595Y-86437134D01*
G36*
X123747595Y-86437134D02*
G01*
X123948866Y-86638405D01*
X124169757Y-86786000D01*
X123948866Y-86933595D01*
X123747595Y-87134866D01*
X123600000Y-87355757D01*
X123452405Y-87134866D01*
X123251134Y-86933595D01*
X123030243Y-86786000D01*
X123251134Y-86638405D01*
X123452405Y-86437134D01*
X123600000Y-86216243D01*
X123747595Y-86437134D01*
G37*
X123747595Y-86437134D02*
X123948866Y-86638405D01*
X124169757Y-86786000D01*
X123948866Y-86933595D01*
X123747595Y-87134866D01*
X123600000Y-87355757D01*
X123452405Y-87134866D01*
X123251134Y-86933595D01*
X123030243Y-86786000D01*
X123251134Y-86638405D01*
X123452405Y-86437134D01*
X123600000Y-86216243D01*
X123747595Y-86437134D01*
G36*
X161847595Y-86437134D02*
G01*
X162048866Y-86638405D01*
X162269757Y-86786000D01*
X162048866Y-86933595D01*
X161847595Y-87134866D01*
X161700000Y-87355757D01*
X161552405Y-87134866D01*
X161351134Y-86933595D01*
X161130243Y-86786000D01*
X161351134Y-86638405D01*
X161552405Y-86437134D01*
X161700000Y-86216243D01*
X161847595Y-86437134D01*
G37*
X161847595Y-86437134D02*
X162048866Y-86638405D01*
X162269757Y-86786000D01*
X162048866Y-86933595D01*
X161847595Y-87134866D01*
X161700000Y-87355757D01*
X161552405Y-87134866D01*
X161351134Y-86933595D01*
X161130243Y-86786000D01*
X161351134Y-86638405D01*
X161552405Y-86437134D01*
X161700000Y-86216243D01*
X161847595Y-86437134D01*
G36*
X128827595Y-86437134D02*
G01*
X129028866Y-86638405D01*
X129249757Y-86786000D01*
X129028866Y-86933595D01*
X128827595Y-87134866D01*
X128680000Y-87355757D01*
X128532405Y-87134866D01*
X128331134Y-86933595D01*
X128110243Y-86786000D01*
X128331134Y-86638405D01*
X128532405Y-86437134D01*
X128680000Y-86216243D01*
X128827595Y-86437134D01*
G37*
X128827595Y-86437134D02*
X129028866Y-86638405D01*
X129249757Y-86786000D01*
X129028866Y-86933595D01*
X128827595Y-87134866D01*
X128680000Y-87355757D01*
X128532405Y-87134866D01*
X128331134Y-86933595D01*
X128110243Y-86786000D01*
X128331134Y-86638405D01*
X128532405Y-86437134D01*
X128680000Y-86216243D01*
X128827595Y-86437134D01*
G36*
X131367595Y-86437134D02*
G01*
X131568866Y-86638405D01*
X131789757Y-86786000D01*
X131568866Y-86933595D01*
X131367595Y-87134866D01*
X131220000Y-87355757D01*
X131072405Y-87134866D01*
X130871134Y-86933595D01*
X130650243Y-86786000D01*
X130871134Y-86638405D01*
X131072405Y-86437134D01*
X131220000Y-86216243D01*
X131367595Y-86437134D01*
G37*
X131367595Y-86437134D02*
X131568866Y-86638405D01*
X131789757Y-86786000D01*
X131568866Y-86933595D01*
X131367595Y-87134866D01*
X131220000Y-87355757D01*
X131072405Y-87134866D01*
X130871134Y-86933595D01*
X130650243Y-86786000D01*
X130871134Y-86638405D01*
X131072405Y-86437134D01*
X131220000Y-86216243D01*
X131367595Y-86437134D01*
G36*
X105967595Y-86437134D02*
G01*
X106168866Y-86638405D01*
X106389757Y-86786000D01*
X106168866Y-86933595D01*
X105967595Y-87134866D01*
X105820000Y-87355757D01*
X105672405Y-87134866D01*
X105471134Y-86933595D01*
X105250243Y-86786000D01*
X105471134Y-86638405D01*
X105672405Y-86437134D01*
X105820000Y-86216243D01*
X105967595Y-86437134D01*
G37*
X105967595Y-86437134D02*
X106168866Y-86638405D01*
X106389757Y-86786000D01*
X106168866Y-86933595D01*
X105967595Y-87134866D01*
X105820000Y-87355757D01*
X105672405Y-87134866D01*
X105471134Y-86933595D01*
X105250243Y-86786000D01*
X105471134Y-86638405D01*
X105672405Y-86437134D01*
X105820000Y-86216243D01*
X105967595Y-86437134D01*
G36*
X138987595Y-86437134D02*
G01*
X139188866Y-86638405D01*
X139409757Y-86786000D01*
X139188866Y-86933595D01*
X138987595Y-87134866D01*
X138840000Y-87355757D01*
X138692405Y-87134866D01*
X138491134Y-86933595D01*
X138270243Y-86786000D01*
X138491134Y-86638405D01*
X138692405Y-86437134D01*
X138840000Y-86216243D01*
X138987595Y-86437134D01*
G37*
X138987595Y-86437134D02*
X139188866Y-86638405D01*
X139409757Y-86786000D01*
X139188866Y-86933595D01*
X138987595Y-87134866D01*
X138840000Y-87355757D01*
X138692405Y-87134866D01*
X138491134Y-86933595D01*
X138270243Y-86786000D01*
X138491134Y-86638405D01*
X138692405Y-86437134D01*
X138840000Y-86216243D01*
X138987595Y-86437134D01*
G36*
X141527595Y-86437134D02*
G01*
X141728866Y-86638405D01*
X141949757Y-86786000D01*
X141728866Y-86933595D01*
X141527595Y-87134866D01*
X141380000Y-87355757D01*
X141232405Y-87134866D01*
X141031134Y-86933595D01*
X140810243Y-86786000D01*
X141031134Y-86638405D01*
X141232405Y-86437134D01*
X141380000Y-86216243D01*
X141527595Y-86437134D01*
G37*
X141527595Y-86437134D02*
X141728866Y-86638405D01*
X141949757Y-86786000D01*
X141728866Y-86933595D01*
X141527595Y-87134866D01*
X141380000Y-87355757D01*
X141232405Y-87134866D01*
X141031134Y-86933595D01*
X140810243Y-86786000D01*
X141031134Y-86638405D01*
X141232405Y-86437134D01*
X141380000Y-86216243D01*
X141527595Y-86437134D01*
G36*
X144067595Y-86437134D02*
G01*
X144268866Y-86638405D01*
X144489757Y-86786000D01*
X144268866Y-86933595D01*
X144067595Y-87134866D01*
X143920000Y-87355757D01*
X143772405Y-87134866D01*
X143571134Y-86933595D01*
X143350243Y-86786000D01*
X143571134Y-86638405D01*
X143772405Y-86437134D01*
X143920000Y-86216243D01*
X144067595Y-86437134D01*
G37*
X144067595Y-86437134D02*
X144268866Y-86638405D01*
X144489757Y-86786000D01*
X144268866Y-86933595D01*
X144067595Y-87134866D01*
X143920000Y-87355757D01*
X143772405Y-87134866D01*
X143571134Y-86933595D01*
X143350243Y-86786000D01*
X143571134Y-86638405D01*
X143772405Y-86437134D01*
X143920000Y-86216243D01*
X144067595Y-86437134D01*
G36*
X146607595Y-86437134D02*
G01*
X146808866Y-86638405D01*
X147029757Y-86786000D01*
X146808866Y-86933595D01*
X146607595Y-87134866D01*
X146460000Y-87355757D01*
X146312405Y-87134866D01*
X146111134Y-86933595D01*
X145890243Y-86786000D01*
X146111134Y-86638405D01*
X146312405Y-86437134D01*
X146460000Y-86216243D01*
X146607595Y-86437134D01*
G37*
X146607595Y-86437134D02*
X146808866Y-86638405D01*
X147029757Y-86786000D01*
X146808866Y-86933595D01*
X146607595Y-87134866D01*
X146460000Y-87355757D01*
X146312405Y-87134866D01*
X146111134Y-86933595D01*
X145890243Y-86786000D01*
X146111134Y-86638405D01*
X146312405Y-86437134D01*
X146460000Y-86216243D01*
X146607595Y-86437134D01*
G36*
X149147595Y-86437134D02*
G01*
X149348866Y-86638405D01*
X149569757Y-86786000D01*
X149348866Y-86933595D01*
X149147595Y-87134866D01*
X149000000Y-87355757D01*
X148852405Y-87134866D01*
X148651134Y-86933595D01*
X148430243Y-86786000D01*
X148651134Y-86638405D01*
X148852405Y-86437134D01*
X149000000Y-86216243D01*
X149147595Y-86437134D01*
G37*
X149147595Y-86437134D02*
X149348866Y-86638405D01*
X149569757Y-86786000D01*
X149348866Y-86933595D01*
X149147595Y-87134866D01*
X149000000Y-87355757D01*
X148852405Y-87134866D01*
X148651134Y-86933595D01*
X148430243Y-86786000D01*
X148651134Y-86638405D01*
X148852405Y-86437134D01*
X149000000Y-86216243D01*
X149147595Y-86437134D01*
G36*
X151687595Y-86437134D02*
G01*
X151888866Y-86638405D01*
X152109757Y-86786000D01*
X151888866Y-86933595D01*
X151687595Y-87134866D01*
X151540000Y-87355757D01*
X151392405Y-87134866D01*
X151191134Y-86933595D01*
X150970243Y-86786000D01*
X151191134Y-86638405D01*
X151392405Y-86437134D01*
X151540000Y-86216243D01*
X151687595Y-86437134D01*
G37*
X151687595Y-86437134D02*
X151888866Y-86638405D01*
X152109757Y-86786000D01*
X151888866Y-86933595D01*
X151687595Y-87134866D01*
X151540000Y-87355757D01*
X151392405Y-87134866D01*
X151191134Y-86933595D01*
X150970243Y-86786000D01*
X151191134Y-86638405D01*
X151392405Y-86437134D01*
X151540000Y-86216243D01*
X151687595Y-86437134D01*
G36*
X154227595Y-86437134D02*
G01*
X154428866Y-86638405D01*
X154649757Y-86786000D01*
X154428866Y-86933595D01*
X154227595Y-87134866D01*
X154080000Y-87355757D01*
X153932405Y-87134866D01*
X153731134Y-86933595D01*
X153510243Y-86786000D01*
X153731134Y-86638405D01*
X153932405Y-86437134D01*
X154080000Y-86216243D01*
X154227595Y-86437134D01*
G37*
X154227595Y-86437134D02*
X154428866Y-86638405D01*
X154649757Y-86786000D01*
X154428866Y-86933595D01*
X154227595Y-87134866D01*
X154080000Y-87355757D01*
X153932405Y-87134866D01*
X153731134Y-86933595D01*
X153510243Y-86786000D01*
X153731134Y-86638405D01*
X153932405Y-86437134D01*
X154080000Y-86216243D01*
X154227595Y-86437134D01*
G36*
X156767595Y-86437134D02*
G01*
X156968866Y-86638405D01*
X157189757Y-86786000D01*
X156968866Y-86933595D01*
X156767595Y-87134866D01*
X156620000Y-87355757D01*
X156472405Y-87134866D01*
X156271134Y-86933595D01*
X156050243Y-86786000D01*
X156271134Y-86638405D01*
X156472405Y-86437134D01*
X156620000Y-86216243D01*
X156767595Y-86437134D01*
G37*
X156767595Y-86437134D02*
X156968866Y-86638405D01*
X157189757Y-86786000D01*
X156968866Y-86933595D01*
X156767595Y-87134866D01*
X156620000Y-87355757D01*
X156472405Y-87134866D01*
X156271134Y-86933595D01*
X156050243Y-86786000D01*
X156271134Y-86638405D01*
X156472405Y-86437134D01*
X156620000Y-86216243D01*
X156767595Y-86437134D01*
G36*
X166927595Y-86437134D02*
G01*
X167128866Y-86638405D01*
X167349757Y-86786000D01*
X167128866Y-86933595D01*
X166927595Y-87134866D01*
X166780000Y-87355757D01*
X166632405Y-87134866D01*
X166431134Y-86933595D01*
X166210243Y-86786000D01*
X166431134Y-86638405D01*
X166632405Y-86437134D01*
X166780000Y-86216243D01*
X166927595Y-86437134D01*
G37*
X166927595Y-86437134D02*
X167128866Y-86638405D01*
X167349757Y-86786000D01*
X167128866Y-86933595D01*
X166927595Y-87134866D01*
X166780000Y-87355757D01*
X166632405Y-87134866D01*
X166431134Y-86933595D01*
X166210243Y-86786000D01*
X166431134Y-86638405D01*
X166632405Y-86437134D01*
X166780000Y-86216243D01*
X166927595Y-86437134D01*
G36*
X144067595Y-83897134D02*
G01*
X144268866Y-84098405D01*
X144489757Y-84246000D01*
X144268866Y-84393595D01*
X144067595Y-84594866D01*
X143920000Y-84815757D01*
X143772405Y-84594866D01*
X143571134Y-84393595D01*
X143350243Y-84246000D01*
X143571134Y-84098405D01*
X143772405Y-83897134D01*
X143920000Y-83676243D01*
X144067595Y-83897134D01*
G37*
X144067595Y-83897134D02*
X144268866Y-84098405D01*
X144489757Y-84246000D01*
X144268866Y-84393595D01*
X144067595Y-84594866D01*
X143920000Y-84815757D01*
X143772405Y-84594866D01*
X143571134Y-84393595D01*
X143350243Y-84246000D01*
X143571134Y-84098405D01*
X143772405Y-83897134D01*
X143920000Y-83676243D01*
X144067595Y-83897134D01*
G36*
X108507595Y-83897134D02*
G01*
X108708866Y-84098405D01*
X108929757Y-84246000D01*
X108708866Y-84393595D01*
X108507595Y-84594866D01*
X108360000Y-84815757D01*
X108212405Y-84594866D01*
X108011134Y-84393595D01*
X107790243Y-84246000D01*
X108011134Y-84098405D01*
X108212405Y-83897134D01*
X108360000Y-83676243D01*
X108507595Y-83897134D01*
G37*
X108507595Y-83897134D02*
X108708866Y-84098405D01*
X108929757Y-84246000D01*
X108708866Y-84393595D01*
X108507595Y-84594866D01*
X108360000Y-84815757D01*
X108212405Y-84594866D01*
X108011134Y-84393595D01*
X107790243Y-84246000D01*
X108011134Y-84098405D01*
X108212405Y-83897134D01*
X108360000Y-83676243D01*
X108507595Y-83897134D01*
G36*
X136447595Y-83897134D02*
G01*
X136648866Y-84098405D01*
X136869757Y-84246000D01*
X136648866Y-84393595D01*
X136447595Y-84594866D01*
X136300000Y-84815757D01*
X136152405Y-84594866D01*
X135951134Y-84393595D01*
X135730243Y-84246000D01*
X135951134Y-84098405D01*
X136152405Y-83897134D01*
X136300000Y-83676243D01*
X136447595Y-83897134D01*
G37*
X136447595Y-83897134D02*
X136648866Y-84098405D01*
X136869757Y-84246000D01*
X136648866Y-84393595D01*
X136447595Y-84594866D01*
X136300000Y-84815757D01*
X136152405Y-84594866D01*
X135951134Y-84393595D01*
X135730243Y-84246000D01*
X135951134Y-84098405D01*
X136152405Y-83897134D01*
X136300000Y-83676243D01*
X136447595Y-83897134D01*
G36*
X166927595Y-83897134D02*
G01*
X167128866Y-84098405D01*
X167349757Y-84246000D01*
X167128866Y-84393595D01*
X166927595Y-84594866D01*
X166780000Y-84815757D01*
X166632405Y-84594866D01*
X166431134Y-84393595D01*
X166210243Y-84246000D01*
X166431134Y-84098405D01*
X166632405Y-83897134D01*
X166780000Y-83676243D01*
X166927595Y-83897134D01*
G37*
X166927595Y-83897134D02*
X167128866Y-84098405D01*
X167349757Y-84246000D01*
X167128866Y-84393595D01*
X166927595Y-84594866D01*
X166780000Y-84815757D01*
X166632405Y-84594866D01*
X166431134Y-84393595D01*
X166210243Y-84246000D01*
X166431134Y-84098405D01*
X166632405Y-83897134D01*
X166780000Y-83676243D01*
X166927595Y-83897134D01*
G36*
X164387595Y-83897134D02*
G01*
X164588866Y-84098405D01*
X164809757Y-84246000D01*
X164588866Y-84393595D01*
X164387595Y-84594866D01*
X164240000Y-84815757D01*
X164092405Y-84594866D01*
X163891134Y-84393595D01*
X163670243Y-84246000D01*
X163891134Y-84098405D01*
X164092405Y-83897134D01*
X164240000Y-83676243D01*
X164387595Y-83897134D01*
G37*
X164387595Y-83897134D02*
X164588866Y-84098405D01*
X164809757Y-84246000D01*
X164588866Y-84393595D01*
X164387595Y-84594866D01*
X164240000Y-84815757D01*
X164092405Y-84594866D01*
X163891134Y-84393595D01*
X163670243Y-84246000D01*
X163891134Y-84098405D01*
X164092405Y-83897134D01*
X164240000Y-83676243D01*
X164387595Y-83897134D01*
G36*
X161847595Y-83897134D02*
G01*
X162048866Y-84098405D01*
X162269757Y-84246000D01*
X162048866Y-84393595D01*
X161847595Y-84594866D01*
X161700000Y-84815757D01*
X161552405Y-84594866D01*
X161351134Y-84393595D01*
X161130243Y-84246000D01*
X161351134Y-84098405D01*
X161552405Y-83897134D01*
X161700000Y-83676243D01*
X161847595Y-83897134D01*
G37*
X161847595Y-83897134D02*
X162048866Y-84098405D01*
X162269757Y-84246000D01*
X162048866Y-84393595D01*
X161847595Y-84594866D01*
X161700000Y-84815757D01*
X161552405Y-84594866D01*
X161351134Y-84393595D01*
X161130243Y-84246000D01*
X161351134Y-84098405D01*
X161552405Y-83897134D01*
X161700000Y-83676243D01*
X161847595Y-83897134D01*
G36*
X159307595Y-83897134D02*
G01*
X159508866Y-84098405D01*
X159729757Y-84246000D01*
X159508866Y-84393595D01*
X159307595Y-84594866D01*
X159160000Y-84815757D01*
X159012405Y-84594866D01*
X158811134Y-84393595D01*
X158590243Y-84246000D01*
X158811134Y-84098405D01*
X159012405Y-83897134D01*
X159160000Y-83676243D01*
X159307595Y-83897134D01*
G37*
X159307595Y-83897134D02*
X159508866Y-84098405D01*
X159729757Y-84246000D01*
X159508866Y-84393595D01*
X159307595Y-84594866D01*
X159160000Y-84815757D01*
X159012405Y-84594866D01*
X158811134Y-84393595D01*
X158590243Y-84246000D01*
X158811134Y-84098405D01*
X159012405Y-83897134D01*
X159160000Y-83676243D01*
X159307595Y-83897134D01*
G36*
X156767595Y-83897134D02*
G01*
X156968866Y-84098405D01*
X157189757Y-84246000D01*
X156968866Y-84393595D01*
X156767595Y-84594866D01*
X156620000Y-84815757D01*
X156472405Y-84594866D01*
X156271134Y-84393595D01*
X156050243Y-84246000D01*
X156271134Y-84098405D01*
X156472405Y-83897134D01*
X156620000Y-83676243D01*
X156767595Y-83897134D01*
G37*
X156767595Y-83897134D02*
X156968866Y-84098405D01*
X157189757Y-84246000D01*
X156968866Y-84393595D01*
X156767595Y-84594866D01*
X156620000Y-84815757D01*
X156472405Y-84594866D01*
X156271134Y-84393595D01*
X156050243Y-84246000D01*
X156271134Y-84098405D01*
X156472405Y-83897134D01*
X156620000Y-83676243D01*
X156767595Y-83897134D01*
G36*
X154227595Y-83897134D02*
G01*
X154428866Y-84098405D01*
X154649757Y-84246000D01*
X154428866Y-84393595D01*
X154227595Y-84594866D01*
X154080000Y-84815757D01*
X153932405Y-84594866D01*
X153731134Y-84393595D01*
X153510243Y-84246000D01*
X153731134Y-84098405D01*
X153932405Y-83897134D01*
X154080000Y-83676243D01*
X154227595Y-83897134D01*
G37*
X154227595Y-83897134D02*
X154428866Y-84098405D01*
X154649757Y-84246000D01*
X154428866Y-84393595D01*
X154227595Y-84594866D01*
X154080000Y-84815757D01*
X153932405Y-84594866D01*
X153731134Y-84393595D01*
X153510243Y-84246000D01*
X153731134Y-84098405D01*
X153932405Y-83897134D01*
X154080000Y-83676243D01*
X154227595Y-83897134D01*
G36*
X151687595Y-83897134D02*
G01*
X151888866Y-84098405D01*
X152109757Y-84246000D01*
X151888866Y-84393595D01*
X151687595Y-84594866D01*
X151540000Y-84815757D01*
X151392405Y-84594866D01*
X151191134Y-84393595D01*
X150970243Y-84246000D01*
X151191134Y-84098405D01*
X151392405Y-83897134D01*
X151540000Y-83676243D01*
X151687595Y-83897134D01*
G37*
X151687595Y-83897134D02*
X151888866Y-84098405D01*
X152109757Y-84246000D01*
X151888866Y-84393595D01*
X151687595Y-84594866D01*
X151540000Y-84815757D01*
X151392405Y-84594866D01*
X151191134Y-84393595D01*
X150970243Y-84246000D01*
X151191134Y-84098405D01*
X151392405Y-83897134D01*
X151540000Y-83676243D01*
X151687595Y-83897134D01*
G36*
X149147595Y-83897134D02*
G01*
X149348866Y-84098405D01*
X149569757Y-84246000D01*
X149348866Y-84393595D01*
X149147595Y-84594866D01*
X149000000Y-84815757D01*
X148852405Y-84594866D01*
X148651134Y-84393595D01*
X148430243Y-84246000D01*
X148651134Y-84098405D01*
X148852405Y-83897134D01*
X149000000Y-83676243D01*
X149147595Y-83897134D01*
G37*
X149147595Y-83897134D02*
X149348866Y-84098405D01*
X149569757Y-84246000D01*
X149348866Y-84393595D01*
X149147595Y-84594866D01*
X149000000Y-84815757D01*
X148852405Y-84594866D01*
X148651134Y-84393595D01*
X148430243Y-84246000D01*
X148651134Y-84098405D01*
X148852405Y-83897134D01*
X149000000Y-83676243D01*
X149147595Y-83897134D01*
G36*
X146607595Y-83897134D02*
G01*
X146808866Y-84098405D01*
X147029757Y-84246000D01*
X146808866Y-84393595D01*
X146607595Y-84594866D01*
X146460000Y-84815757D01*
X146312405Y-84594866D01*
X146111134Y-84393595D01*
X145890243Y-84246000D01*
X146111134Y-84098405D01*
X146312405Y-83897134D01*
X146460000Y-83676243D01*
X146607595Y-83897134D01*
G37*
X146607595Y-83897134D02*
X146808866Y-84098405D01*
X147029757Y-84246000D01*
X146808866Y-84393595D01*
X146607595Y-84594866D01*
X146460000Y-84815757D01*
X146312405Y-84594866D01*
X146111134Y-84393595D01*
X145890243Y-84246000D01*
X146111134Y-84098405D01*
X146312405Y-83897134D01*
X146460000Y-83676243D01*
X146607595Y-83897134D01*
G36*
X138987595Y-83897134D02*
G01*
X139188866Y-84098405D01*
X139409757Y-84246000D01*
X139188866Y-84393595D01*
X138987595Y-84594866D01*
X138840000Y-84815757D01*
X138692405Y-84594866D01*
X138491134Y-84393595D01*
X138270243Y-84246000D01*
X138491134Y-84098405D01*
X138692405Y-83897134D01*
X138840000Y-83676243D01*
X138987595Y-83897134D01*
G37*
X138987595Y-83897134D02*
X139188866Y-84098405D01*
X139409757Y-84246000D01*
X139188866Y-84393595D01*
X138987595Y-84594866D01*
X138840000Y-84815757D01*
X138692405Y-84594866D01*
X138491134Y-84393595D01*
X138270243Y-84246000D01*
X138491134Y-84098405D01*
X138692405Y-83897134D01*
X138840000Y-83676243D01*
X138987595Y-83897134D01*
G36*
X105967595Y-83897134D02*
G01*
X106168866Y-84098405D01*
X106389757Y-84246000D01*
X106168866Y-84393595D01*
X105967595Y-84594866D01*
X105820000Y-84815757D01*
X105672405Y-84594866D01*
X105471134Y-84393595D01*
X105250243Y-84246000D01*
X105471134Y-84098405D01*
X105672405Y-83897134D01*
X105820000Y-83676243D01*
X105967595Y-83897134D01*
G37*
X105967595Y-83897134D02*
X106168866Y-84098405D01*
X106389757Y-84246000D01*
X106168866Y-84393595D01*
X105967595Y-84594866D01*
X105820000Y-84815757D01*
X105672405Y-84594866D01*
X105471134Y-84393595D01*
X105250243Y-84246000D01*
X105471134Y-84098405D01*
X105672405Y-83897134D01*
X105820000Y-83676243D01*
X105967595Y-83897134D01*
G36*
X133907595Y-83897134D02*
G01*
X134108866Y-84098405D01*
X134329757Y-84246000D01*
X134108866Y-84393595D01*
X133907595Y-84594866D01*
X133760000Y-84815757D01*
X133612405Y-84594866D01*
X133411134Y-84393595D01*
X133190243Y-84246000D01*
X133411134Y-84098405D01*
X133612405Y-83897134D01*
X133760000Y-83676243D01*
X133907595Y-83897134D01*
G37*
X133907595Y-83897134D02*
X134108866Y-84098405D01*
X134329757Y-84246000D01*
X134108866Y-84393595D01*
X133907595Y-84594866D01*
X133760000Y-84815757D01*
X133612405Y-84594866D01*
X133411134Y-84393595D01*
X133190243Y-84246000D01*
X133411134Y-84098405D01*
X133612405Y-83897134D01*
X133760000Y-83676243D01*
X133907595Y-83897134D01*
G36*
X131367595Y-83897134D02*
G01*
X131568866Y-84098405D01*
X131789757Y-84246000D01*
X131568866Y-84393595D01*
X131367595Y-84594866D01*
X131220000Y-84815757D01*
X131072405Y-84594866D01*
X130871134Y-84393595D01*
X130650243Y-84246000D01*
X130871134Y-84098405D01*
X131072405Y-83897134D01*
X131220000Y-83676243D01*
X131367595Y-83897134D01*
G37*
X131367595Y-83897134D02*
X131568866Y-84098405D01*
X131789757Y-84246000D01*
X131568866Y-84393595D01*
X131367595Y-84594866D01*
X131220000Y-84815757D01*
X131072405Y-84594866D01*
X130871134Y-84393595D01*
X130650243Y-84246000D01*
X130871134Y-84098405D01*
X131072405Y-83897134D01*
X131220000Y-83676243D01*
X131367595Y-83897134D01*
G36*
X128827595Y-83897134D02*
G01*
X129028866Y-84098405D01*
X129249757Y-84246000D01*
X129028866Y-84393595D01*
X128827595Y-84594866D01*
X128680000Y-84815757D01*
X128532405Y-84594866D01*
X128331134Y-84393595D01*
X128110243Y-84246000D01*
X128331134Y-84098405D01*
X128532405Y-83897134D01*
X128680000Y-83676243D01*
X128827595Y-83897134D01*
G37*
X128827595Y-83897134D02*
X129028866Y-84098405D01*
X129249757Y-84246000D01*
X129028866Y-84393595D01*
X128827595Y-84594866D01*
X128680000Y-84815757D01*
X128532405Y-84594866D01*
X128331134Y-84393595D01*
X128110243Y-84246000D01*
X128331134Y-84098405D01*
X128532405Y-83897134D01*
X128680000Y-83676243D01*
X128827595Y-83897134D01*
G36*
X126287595Y-83897134D02*
G01*
X126488866Y-84098405D01*
X126709757Y-84246000D01*
X126488866Y-84393595D01*
X126287595Y-84594866D01*
X126140000Y-84815757D01*
X125992405Y-84594866D01*
X125791134Y-84393595D01*
X125570243Y-84246000D01*
X125791134Y-84098405D01*
X125992405Y-83897134D01*
X126140000Y-83676243D01*
X126287595Y-83897134D01*
G37*
X126287595Y-83897134D02*
X126488866Y-84098405D01*
X126709757Y-84246000D01*
X126488866Y-84393595D01*
X126287595Y-84594866D01*
X126140000Y-84815757D01*
X125992405Y-84594866D01*
X125791134Y-84393595D01*
X125570243Y-84246000D01*
X125791134Y-84098405D01*
X125992405Y-83897134D01*
X126140000Y-83676243D01*
X126287595Y-83897134D01*
G36*
X123747595Y-83897134D02*
G01*
X123948866Y-84098405D01*
X124169757Y-84246000D01*
X123948866Y-84393595D01*
X123747595Y-84594866D01*
X123600000Y-84815757D01*
X123452405Y-84594866D01*
X123251134Y-84393595D01*
X123030243Y-84246000D01*
X123251134Y-84098405D01*
X123452405Y-83897134D01*
X123600000Y-83676243D01*
X123747595Y-83897134D01*
G37*
X123747595Y-83897134D02*
X123948866Y-84098405D01*
X124169757Y-84246000D01*
X123948866Y-84393595D01*
X123747595Y-84594866D01*
X123600000Y-84815757D01*
X123452405Y-84594866D01*
X123251134Y-84393595D01*
X123030243Y-84246000D01*
X123251134Y-84098405D01*
X123452405Y-83897134D01*
X123600000Y-83676243D01*
X123747595Y-83897134D01*
G36*
X121207595Y-83897134D02*
G01*
X121408866Y-84098405D01*
X121629757Y-84246000D01*
X121408866Y-84393595D01*
X121207595Y-84594866D01*
X121060000Y-84815757D01*
X120912405Y-84594866D01*
X120711134Y-84393595D01*
X120490243Y-84246000D01*
X120711134Y-84098405D01*
X120912405Y-83897134D01*
X121060000Y-83676243D01*
X121207595Y-83897134D01*
G37*
X121207595Y-83897134D02*
X121408866Y-84098405D01*
X121629757Y-84246000D01*
X121408866Y-84393595D01*
X121207595Y-84594866D01*
X121060000Y-84815757D01*
X120912405Y-84594866D01*
X120711134Y-84393595D01*
X120490243Y-84246000D01*
X120711134Y-84098405D01*
X120912405Y-83897134D01*
X121060000Y-83676243D01*
X121207595Y-83897134D01*
G36*
X118667595Y-83897134D02*
G01*
X118868866Y-84098405D01*
X119089757Y-84246000D01*
X118868866Y-84393595D01*
X118667595Y-84594866D01*
X118520000Y-84815757D01*
X118372405Y-84594866D01*
X118171134Y-84393595D01*
X117950243Y-84246000D01*
X118171134Y-84098405D01*
X118372405Y-83897134D01*
X118520000Y-83676243D01*
X118667595Y-83897134D01*
G37*
X118667595Y-83897134D02*
X118868866Y-84098405D01*
X119089757Y-84246000D01*
X118868866Y-84393595D01*
X118667595Y-84594866D01*
X118520000Y-84815757D01*
X118372405Y-84594866D01*
X118171134Y-84393595D01*
X117950243Y-84246000D01*
X118171134Y-84098405D01*
X118372405Y-83897134D01*
X118520000Y-83676243D01*
X118667595Y-83897134D01*
G36*
X116127595Y-83897134D02*
G01*
X116328866Y-84098405D01*
X116549757Y-84246000D01*
X116328866Y-84393595D01*
X116127595Y-84594866D01*
X115980000Y-84815757D01*
X115832405Y-84594866D01*
X115631134Y-84393595D01*
X115410243Y-84246000D01*
X115631134Y-84098405D01*
X115832405Y-83897134D01*
X115980000Y-83676243D01*
X116127595Y-83897134D01*
G37*
X116127595Y-83897134D02*
X116328866Y-84098405D01*
X116549757Y-84246000D01*
X116328866Y-84393595D01*
X116127595Y-84594866D01*
X115980000Y-84815757D01*
X115832405Y-84594866D01*
X115631134Y-84393595D01*
X115410243Y-84246000D01*
X115631134Y-84098405D01*
X115832405Y-83897134D01*
X115980000Y-83676243D01*
X116127595Y-83897134D01*
G36*
X113587595Y-83897134D02*
G01*
X113788866Y-84098405D01*
X114009757Y-84246000D01*
X113788866Y-84393595D01*
X113587595Y-84594866D01*
X113440000Y-84815757D01*
X113292405Y-84594866D01*
X113091134Y-84393595D01*
X112870243Y-84246000D01*
X113091134Y-84098405D01*
X113292405Y-83897134D01*
X113440000Y-83676243D01*
X113587595Y-83897134D01*
G37*
X113587595Y-83897134D02*
X113788866Y-84098405D01*
X114009757Y-84246000D01*
X113788866Y-84393595D01*
X113587595Y-84594866D01*
X113440000Y-84815757D01*
X113292405Y-84594866D01*
X113091134Y-84393595D01*
X112870243Y-84246000D01*
X113091134Y-84098405D01*
X113292405Y-83897134D01*
X113440000Y-83676243D01*
X113587595Y-83897134D01*
G36*
X111047595Y-83897134D02*
G01*
X111248866Y-84098405D01*
X111469757Y-84246000D01*
X111248866Y-84393595D01*
X111047595Y-84594866D01*
X110900000Y-84815757D01*
X110752405Y-84594866D01*
X110551134Y-84393595D01*
X110330243Y-84246000D01*
X110551134Y-84098405D01*
X110752405Y-83897134D01*
X110900000Y-83676243D01*
X111047595Y-83897134D01*
G37*
X111047595Y-83897134D02*
X111248866Y-84098405D01*
X111469757Y-84246000D01*
X111248866Y-84393595D01*
X111047595Y-84594866D01*
X110900000Y-84815757D01*
X110752405Y-84594866D01*
X110551134Y-84393595D01*
X110330243Y-84246000D01*
X110551134Y-84098405D01*
X110752405Y-83897134D01*
X110900000Y-83676243D01*
X111047595Y-83897134D01*
G36*
X141527595Y-83897134D02*
G01*
X141728866Y-84098405D01*
X141949757Y-84246000D01*
X141728866Y-84393595D01*
X141527595Y-84594866D01*
X141380000Y-84815757D01*
X141232405Y-84594866D01*
X141031134Y-84393595D01*
X140810243Y-84246000D01*
X141031134Y-84098405D01*
X141232405Y-83897134D01*
X141380000Y-83676243D01*
X141527595Y-83897134D01*
G37*
X141527595Y-83897134D02*
X141728866Y-84098405D01*
X141949757Y-84246000D01*
X141728866Y-84393595D01*
X141527595Y-84594866D01*
X141380000Y-84815757D01*
X141232405Y-84594866D01*
X141031134Y-84393595D01*
X140810243Y-84246000D01*
X141031134Y-84098405D01*
X141232405Y-83897134D01*
X141380000Y-83676243D01*
X141527595Y-83897134D01*
G36*
X133907595Y-81357134D02*
G01*
X134108866Y-81558405D01*
X134329757Y-81706000D01*
X134108866Y-81853595D01*
X133907595Y-82054866D01*
X133760000Y-82275757D01*
X133612405Y-82054866D01*
X133411134Y-81853595D01*
X133190243Y-81706000D01*
X133411134Y-81558405D01*
X133612405Y-81357134D01*
X133760000Y-81136243D01*
X133907595Y-81357134D01*
G37*
X133907595Y-81357134D02*
X134108866Y-81558405D01*
X134329757Y-81706000D01*
X134108866Y-81853595D01*
X133907595Y-82054866D01*
X133760000Y-82275757D01*
X133612405Y-82054866D01*
X133411134Y-81853595D01*
X133190243Y-81706000D01*
X133411134Y-81558405D01*
X133612405Y-81357134D01*
X133760000Y-81136243D01*
X133907595Y-81357134D01*
G36*
X144067595Y-81357134D02*
G01*
X144268866Y-81558405D01*
X144489757Y-81706000D01*
X144268866Y-81853595D01*
X144067595Y-82054866D01*
X143920000Y-82275757D01*
X143772405Y-82054866D01*
X143571134Y-81853595D01*
X143350243Y-81706000D01*
X143571134Y-81558405D01*
X143772405Y-81357134D01*
X143920000Y-81136243D01*
X144067595Y-81357134D01*
G37*
X144067595Y-81357134D02*
X144268866Y-81558405D01*
X144489757Y-81706000D01*
X144268866Y-81853595D01*
X144067595Y-82054866D01*
X143920000Y-82275757D01*
X143772405Y-82054866D01*
X143571134Y-81853595D01*
X143350243Y-81706000D01*
X143571134Y-81558405D01*
X143772405Y-81357134D01*
X143920000Y-81136243D01*
X144067595Y-81357134D01*
G36*
X108507595Y-81357134D02*
G01*
X108708866Y-81558405D01*
X108929757Y-81706000D01*
X108708866Y-81853595D01*
X108507595Y-82054866D01*
X108360000Y-82275757D01*
X108212405Y-82054866D01*
X108011134Y-81853595D01*
X107790243Y-81706000D01*
X108011134Y-81558405D01*
X108212405Y-81357134D01*
X108360000Y-81136243D01*
X108507595Y-81357134D01*
G37*
X108507595Y-81357134D02*
X108708866Y-81558405D01*
X108929757Y-81706000D01*
X108708866Y-81853595D01*
X108507595Y-82054866D01*
X108360000Y-82275757D01*
X108212405Y-82054866D01*
X108011134Y-81853595D01*
X107790243Y-81706000D01*
X108011134Y-81558405D01*
X108212405Y-81357134D01*
X108360000Y-81136243D01*
X108507595Y-81357134D01*
G36*
X111047595Y-81357134D02*
G01*
X111248866Y-81558405D01*
X111469757Y-81706000D01*
X111248866Y-81853595D01*
X111047595Y-82054866D01*
X110900000Y-82275757D01*
X110752405Y-82054866D01*
X110551134Y-81853595D01*
X110330243Y-81706000D01*
X110551134Y-81558405D01*
X110752405Y-81357134D01*
X110900000Y-81136243D01*
X111047595Y-81357134D01*
G37*
X111047595Y-81357134D02*
X111248866Y-81558405D01*
X111469757Y-81706000D01*
X111248866Y-81853595D01*
X111047595Y-82054866D01*
X110900000Y-82275757D01*
X110752405Y-82054866D01*
X110551134Y-81853595D01*
X110330243Y-81706000D01*
X110551134Y-81558405D01*
X110752405Y-81357134D01*
X110900000Y-81136243D01*
X111047595Y-81357134D01*
G36*
X113587595Y-81357134D02*
G01*
X113788866Y-81558405D01*
X114009757Y-81706000D01*
X113788866Y-81853595D01*
X113587595Y-82054866D01*
X113440000Y-82275757D01*
X113292405Y-82054866D01*
X113091134Y-81853595D01*
X112870243Y-81706000D01*
X113091134Y-81558405D01*
X113292405Y-81357134D01*
X113440000Y-81136243D01*
X113587595Y-81357134D01*
G37*
X113587595Y-81357134D02*
X113788866Y-81558405D01*
X114009757Y-81706000D01*
X113788866Y-81853595D01*
X113587595Y-82054866D01*
X113440000Y-82275757D01*
X113292405Y-82054866D01*
X113091134Y-81853595D01*
X112870243Y-81706000D01*
X113091134Y-81558405D01*
X113292405Y-81357134D01*
X113440000Y-81136243D01*
X113587595Y-81357134D01*
G36*
X116127595Y-81357134D02*
G01*
X116328866Y-81558405D01*
X116549757Y-81706000D01*
X116328866Y-81853595D01*
X116127595Y-82054866D01*
X115980000Y-82275757D01*
X115832405Y-82054866D01*
X115631134Y-81853595D01*
X115410243Y-81706000D01*
X115631134Y-81558405D01*
X115832405Y-81357134D01*
X115980000Y-81136243D01*
X116127595Y-81357134D01*
G37*
X116127595Y-81357134D02*
X116328866Y-81558405D01*
X116549757Y-81706000D01*
X116328866Y-81853595D01*
X116127595Y-82054866D01*
X115980000Y-82275757D01*
X115832405Y-82054866D01*
X115631134Y-81853595D01*
X115410243Y-81706000D01*
X115631134Y-81558405D01*
X115832405Y-81357134D01*
X115980000Y-81136243D01*
X116127595Y-81357134D01*
G36*
X118667595Y-81357134D02*
G01*
X118868866Y-81558405D01*
X119089757Y-81706000D01*
X118868866Y-81853595D01*
X118667595Y-82054866D01*
X118520000Y-82275757D01*
X118372405Y-82054866D01*
X118171134Y-81853595D01*
X117950243Y-81706000D01*
X118171134Y-81558405D01*
X118372405Y-81357134D01*
X118520000Y-81136243D01*
X118667595Y-81357134D01*
G37*
X118667595Y-81357134D02*
X118868866Y-81558405D01*
X119089757Y-81706000D01*
X118868866Y-81853595D01*
X118667595Y-82054866D01*
X118520000Y-82275757D01*
X118372405Y-82054866D01*
X118171134Y-81853595D01*
X117950243Y-81706000D01*
X118171134Y-81558405D01*
X118372405Y-81357134D01*
X118520000Y-81136243D01*
X118667595Y-81357134D01*
G36*
X121207595Y-81357134D02*
G01*
X121408866Y-81558405D01*
X121629757Y-81706000D01*
X121408866Y-81853595D01*
X121207595Y-82054866D01*
X121060000Y-82275757D01*
X120912405Y-82054866D01*
X120711134Y-81853595D01*
X120490243Y-81706000D01*
X120711134Y-81558405D01*
X120912405Y-81357134D01*
X121060000Y-81136243D01*
X121207595Y-81357134D01*
G37*
X121207595Y-81357134D02*
X121408866Y-81558405D01*
X121629757Y-81706000D01*
X121408866Y-81853595D01*
X121207595Y-82054866D01*
X121060000Y-82275757D01*
X120912405Y-82054866D01*
X120711134Y-81853595D01*
X120490243Y-81706000D01*
X120711134Y-81558405D01*
X120912405Y-81357134D01*
X121060000Y-81136243D01*
X121207595Y-81357134D01*
G36*
X123747595Y-81357134D02*
G01*
X123948866Y-81558405D01*
X124169757Y-81706000D01*
X123948866Y-81853595D01*
X123747595Y-82054866D01*
X123600000Y-82275757D01*
X123452405Y-82054866D01*
X123251134Y-81853595D01*
X123030243Y-81706000D01*
X123251134Y-81558405D01*
X123452405Y-81357134D01*
X123600000Y-81136243D01*
X123747595Y-81357134D01*
G37*
X123747595Y-81357134D02*
X123948866Y-81558405D01*
X124169757Y-81706000D01*
X123948866Y-81853595D01*
X123747595Y-82054866D01*
X123600000Y-82275757D01*
X123452405Y-82054866D01*
X123251134Y-81853595D01*
X123030243Y-81706000D01*
X123251134Y-81558405D01*
X123452405Y-81357134D01*
X123600000Y-81136243D01*
X123747595Y-81357134D01*
G36*
X126287595Y-81357134D02*
G01*
X126488866Y-81558405D01*
X126709757Y-81706000D01*
X126488866Y-81853595D01*
X126287595Y-82054866D01*
X126140000Y-82275757D01*
X125992405Y-82054866D01*
X125791134Y-81853595D01*
X125570243Y-81706000D01*
X125791134Y-81558405D01*
X125992405Y-81357134D01*
X126140000Y-81136243D01*
X126287595Y-81357134D01*
G37*
X126287595Y-81357134D02*
X126488866Y-81558405D01*
X126709757Y-81706000D01*
X126488866Y-81853595D01*
X126287595Y-82054866D01*
X126140000Y-82275757D01*
X125992405Y-82054866D01*
X125791134Y-81853595D01*
X125570243Y-81706000D01*
X125791134Y-81558405D01*
X125992405Y-81357134D01*
X126140000Y-81136243D01*
X126287595Y-81357134D01*
G36*
X128827595Y-81357134D02*
G01*
X129028866Y-81558405D01*
X129249757Y-81706000D01*
X129028866Y-81853595D01*
X128827595Y-82054866D01*
X128680000Y-82275757D01*
X128532405Y-82054866D01*
X128331134Y-81853595D01*
X128110243Y-81706000D01*
X128331134Y-81558405D01*
X128532405Y-81357134D01*
X128680000Y-81136243D01*
X128827595Y-81357134D01*
G37*
X128827595Y-81357134D02*
X129028866Y-81558405D01*
X129249757Y-81706000D01*
X129028866Y-81853595D01*
X128827595Y-82054866D01*
X128680000Y-82275757D01*
X128532405Y-82054866D01*
X128331134Y-81853595D01*
X128110243Y-81706000D01*
X128331134Y-81558405D01*
X128532405Y-81357134D01*
X128680000Y-81136243D01*
X128827595Y-81357134D01*
G36*
X131367595Y-81357134D02*
G01*
X131568866Y-81558405D01*
X131789757Y-81706000D01*
X131568866Y-81853595D01*
X131367595Y-82054866D01*
X131220000Y-82275757D01*
X131072405Y-82054866D01*
X130871134Y-81853595D01*
X130650243Y-81706000D01*
X130871134Y-81558405D01*
X131072405Y-81357134D01*
X131220000Y-81136243D01*
X131367595Y-81357134D01*
G37*
X131367595Y-81357134D02*
X131568866Y-81558405D01*
X131789757Y-81706000D01*
X131568866Y-81853595D01*
X131367595Y-82054866D01*
X131220000Y-82275757D01*
X131072405Y-82054866D01*
X130871134Y-81853595D01*
X130650243Y-81706000D01*
X130871134Y-81558405D01*
X131072405Y-81357134D01*
X131220000Y-81136243D01*
X131367595Y-81357134D01*
G36*
X138987595Y-81357134D02*
G01*
X139188866Y-81558405D01*
X139409757Y-81706000D01*
X139188866Y-81853595D01*
X138987595Y-82054866D01*
X138840000Y-82275757D01*
X138692405Y-82054866D01*
X138491134Y-81853595D01*
X138270243Y-81706000D01*
X138491134Y-81558405D01*
X138692405Y-81357134D01*
X138840000Y-81136243D01*
X138987595Y-81357134D01*
G37*
X138987595Y-81357134D02*
X139188866Y-81558405D01*
X139409757Y-81706000D01*
X139188866Y-81853595D01*
X138987595Y-82054866D01*
X138840000Y-82275757D01*
X138692405Y-82054866D01*
X138491134Y-81853595D01*
X138270243Y-81706000D01*
X138491134Y-81558405D01*
X138692405Y-81357134D01*
X138840000Y-81136243D01*
X138987595Y-81357134D01*
G36*
X105967595Y-81357134D02*
G01*
X106168866Y-81558405D01*
X106389757Y-81706000D01*
X106168866Y-81853595D01*
X105967595Y-82054866D01*
X105820000Y-82275757D01*
X105672405Y-82054866D01*
X105471134Y-81853595D01*
X105250243Y-81706000D01*
X105471134Y-81558405D01*
X105672405Y-81357134D01*
X105820000Y-81136243D01*
X105967595Y-81357134D01*
G37*
X105967595Y-81357134D02*
X106168866Y-81558405D01*
X106389757Y-81706000D01*
X106168866Y-81853595D01*
X105967595Y-82054866D01*
X105820000Y-82275757D01*
X105672405Y-82054866D01*
X105471134Y-81853595D01*
X105250243Y-81706000D01*
X105471134Y-81558405D01*
X105672405Y-81357134D01*
X105820000Y-81136243D01*
X105967595Y-81357134D01*
G36*
X141527595Y-81357134D02*
G01*
X141728866Y-81558405D01*
X141949757Y-81706000D01*
X141728866Y-81853595D01*
X141527595Y-82054866D01*
X141380000Y-82275757D01*
X141232405Y-82054866D01*
X141031134Y-81853595D01*
X140810243Y-81706000D01*
X141031134Y-81558405D01*
X141232405Y-81357134D01*
X141380000Y-81136243D01*
X141527595Y-81357134D01*
G37*
X141527595Y-81357134D02*
X141728866Y-81558405D01*
X141949757Y-81706000D01*
X141728866Y-81853595D01*
X141527595Y-82054866D01*
X141380000Y-82275757D01*
X141232405Y-82054866D01*
X141031134Y-81853595D01*
X140810243Y-81706000D01*
X141031134Y-81558405D01*
X141232405Y-81357134D01*
X141380000Y-81136243D01*
X141527595Y-81357134D01*
G36*
X146607595Y-81357134D02*
G01*
X146808866Y-81558405D01*
X147029757Y-81706000D01*
X146808866Y-81853595D01*
X146607595Y-82054866D01*
X146460000Y-82275757D01*
X146312405Y-82054866D01*
X146111134Y-81853595D01*
X145890243Y-81706000D01*
X146111134Y-81558405D01*
X146312405Y-81357134D01*
X146460000Y-81136243D01*
X146607595Y-81357134D01*
G37*
X146607595Y-81357134D02*
X146808866Y-81558405D01*
X147029757Y-81706000D01*
X146808866Y-81853595D01*
X146607595Y-82054866D01*
X146460000Y-82275757D01*
X146312405Y-82054866D01*
X146111134Y-81853595D01*
X145890243Y-81706000D01*
X146111134Y-81558405D01*
X146312405Y-81357134D01*
X146460000Y-81136243D01*
X146607595Y-81357134D01*
G36*
X149147595Y-81357134D02*
G01*
X149348866Y-81558405D01*
X149569757Y-81706000D01*
X149348866Y-81853595D01*
X149147595Y-82054866D01*
X149000000Y-82275757D01*
X148852405Y-82054866D01*
X148651134Y-81853595D01*
X148430243Y-81706000D01*
X148651134Y-81558405D01*
X148852405Y-81357134D01*
X149000000Y-81136243D01*
X149147595Y-81357134D01*
G37*
X149147595Y-81357134D02*
X149348866Y-81558405D01*
X149569757Y-81706000D01*
X149348866Y-81853595D01*
X149147595Y-82054866D01*
X149000000Y-82275757D01*
X148852405Y-82054866D01*
X148651134Y-81853595D01*
X148430243Y-81706000D01*
X148651134Y-81558405D01*
X148852405Y-81357134D01*
X149000000Y-81136243D01*
X149147595Y-81357134D01*
G36*
X151687595Y-81357134D02*
G01*
X151888866Y-81558405D01*
X152109757Y-81706000D01*
X151888866Y-81853595D01*
X151687595Y-82054866D01*
X151540000Y-82275757D01*
X151392405Y-82054866D01*
X151191134Y-81853595D01*
X150970243Y-81706000D01*
X151191134Y-81558405D01*
X151392405Y-81357134D01*
X151540000Y-81136243D01*
X151687595Y-81357134D01*
G37*
X151687595Y-81357134D02*
X151888866Y-81558405D01*
X152109757Y-81706000D01*
X151888866Y-81853595D01*
X151687595Y-82054866D01*
X151540000Y-82275757D01*
X151392405Y-82054866D01*
X151191134Y-81853595D01*
X150970243Y-81706000D01*
X151191134Y-81558405D01*
X151392405Y-81357134D01*
X151540000Y-81136243D01*
X151687595Y-81357134D01*
G36*
X154227595Y-81357134D02*
G01*
X154428866Y-81558405D01*
X154649757Y-81706000D01*
X154428866Y-81853595D01*
X154227595Y-82054866D01*
X154080000Y-82275757D01*
X153932405Y-82054866D01*
X153731134Y-81853595D01*
X153510243Y-81706000D01*
X153731134Y-81558405D01*
X153932405Y-81357134D01*
X154080000Y-81136243D01*
X154227595Y-81357134D01*
G37*
X154227595Y-81357134D02*
X154428866Y-81558405D01*
X154649757Y-81706000D01*
X154428866Y-81853595D01*
X154227595Y-82054866D01*
X154080000Y-82275757D01*
X153932405Y-82054866D01*
X153731134Y-81853595D01*
X153510243Y-81706000D01*
X153731134Y-81558405D01*
X153932405Y-81357134D01*
X154080000Y-81136243D01*
X154227595Y-81357134D01*
G36*
X156767595Y-81357134D02*
G01*
X156968866Y-81558405D01*
X157189757Y-81706000D01*
X156968866Y-81853595D01*
X156767595Y-82054866D01*
X156620000Y-82275757D01*
X156472405Y-82054866D01*
X156271134Y-81853595D01*
X156050243Y-81706000D01*
X156271134Y-81558405D01*
X156472405Y-81357134D01*
X156620000Y-81136243D01*
X156767595Y-81357134D01*
G37*
X156767595Y-81357134D02*
X156968866Y-81558405D01*
X157189757Y-81706000D01*
X156968866Y-81853595D01*
X156767595Y-82054866D01*
X156620000Y-82275757D01*
X156472405Y-82054866D01*
X156271134Y-81853595D01*
X156050243Y-81706000D01*
X156271134Y-81558405D01*
X156472405Y-81357134D01*
X156620000Y-81136243D01*
X156767595Y-81357134D01*
G36*
X159307595Y-81357134D02*
G01*
X159508866Y-81558405D01*
X159729757Y-81706000D01*
X159508866Y-81853595D01*
X159307595Y-82054866D01*
X159160000Y-82275757D01*
X159012405Y-82054866D01*
X158811134Y-81853595D01*
X158590243Y-81706000D01*
X158811134Y-81558405D01*
X159012405Y-81357134D01*
X159160000Y-81136243D01*
X159307595Y-81357134D01*
G37*
X159307595Y-81357134D02*
X159508866Y-81558405D01*
X159729757Y-81706000D01*
X159508866Y-81853595D01*
X159307595Y-82054866D01*
X159160000Y-82275757D01*
X159012405Y-82054866D01*
X158811134Y-81853595D01*
X158590243Y-81706000D01*
X158811134Y-81558405D01*
X159012405Y-81357134D01*
X159160000Y-81136243D01*
X159307595Y-81357134D01*
G36*
X161847595Y-81357134D02*
G01*
X162048866Y-81558405D01*
X162269757Y-81706000D01*
X162048866Y-81853595D01*
X161847595Y-82054866D01*
X161700000Y-82275757D01*
X161552405Y-82054866D01*
X161351134Y-81853595D01*
X161130243Y-81706000D01*
X161351134Y-81558405D01*
X161552405Y-81357134D01*
X161700000Y-81136243D01*
X161847595Y-81357134D01*
G37*
X161847595Y-81357134D02*
X162048866Y-81558405D01*
X162269757Y-81706000D01*
X162048866Y-81853595D01*
X161847595Y-82054866D01*
X161700000Y-82275757D01*
X161552405Y-82054866D01*
X161351134Y-81853595D01*
X161130243Y-81706000D01*
X161351134Y-81558405D01*
X161552405Y-81357134D01*
X161700000Y-81136243D01*
X161847595Y-81357134D01*
G36*
X164387595Y-81357134D02*
G01*
X164588866Y-81558405D01*
X164809757Y-81706000D01*
X164588866Y-81853595D01*
X164387595Y-82054866D01*
X164240000Y-82275757D01*
X164092405Y-82054866D01*
X163891134Y-81853595D01*
X163670243Y-81706000D01*
X163891134Y-81558405D01*
X164092405Y-81357134D01*
X164240000Y-81136243D01*
X164387595Y-81357134D01*
G37*
X164387595Y-81357134D02*
X164588866Y-81558405D01*
X164809757Y-81706000D01*
X164588866Y-81853595D01*
X164387595Y-82054866D01*
X164240000Y-82275757D01*
X164092405Y-82054866D01*
X163891134Y-81853595D01*
X163670243Y-81706000D01*
X163891134Y-81558405D01*
X164092405Y-81357134D01*
X164240000Y-81136243D01*
X164387595Y-81357134D01*
G36*
X166927595Y-81357134D02*
G01*
X167128866Y-81558405D01*
X167349757Y-81706000D01*
X167128866Y-81853595D01*
X166927595Y-82054866D01*
X166780000Y-82275757D01*
X166632405Y-82054866D01*
X166431134Y-81853595D01*
X166210243Y-81706000D01*
X166431134Y-81558405D01*
X166632405Y-81357134D01*
X166780000Y-81136243D01*
X166927595Y-81357134D01*
G37*
X166927595Y-81357134D02*
X167128866Y-81558405D01*
X167349757Y-81706000D01*
X167128866Y-81853595D01*
X166927595Y-82054866D01*
X166780000Y-82275757D01*
X166632405Y-82054866D01*
X166431134Y-81853595D01*
X166210243Y-81706000D01*
X166431134Y-81558405D01*
X166632405Y-81357134D01*
X166780000Y-81136243D01*
X166927595Y-81357134D01*
G36*
X136447595Y-81357134D02*
G01*
X136648866Y-81558405D01*
X136869757Y-81706000D01*
X136648866Y-81853595D01*
X136447595Y-82054866D01*
X136300000Y-82275757D01*
X136152405Y-82054866D01*
X135951134Y-81853595D01*
X135730243Y-81706000D01*
X135951134Y-81558405D01*
X136152405Y-81357134D01*
X136300000Y-81136243D01*
X136447595Y-81357134D01*
G37*
X136447595Y-81357134D02*
X136648866Y-81558405D01*
X136869757Y-81706000D01*
X136648866Y-81853595D01*
X136447595Y-82054866D01*
X136300000Y-82275757D01*
X136152405Y-82054866D01*
X135951134Y-81853595D01*
X135730243Y-81706000D01*
X135951134Y-81558405D01*
X136152405Y-81357134D01*
X136300000Y-81136243D01*
X136447595Y-81357134D01*
M02*
