%TF.GenerationSoftware,KiCad,Pcbnew,5.1.6-1.fc32*%
%TF.CreationDate,2020-09-11T22:13:51-03:00*%
%TF.ProjectId,pc104-adapter-top,70633130-342d-4616-9461-707465722d74,v2.0*%
%TF.SameCoordinates,Original*%
%TF.FileFunction,Legend,Top*%
%TF.FilePolarity,Positive*%
%FSLAX46Y46*%
G04 Gerber Fmt 4.6, Leading zero omitted, Abs format (unit mm)*
G04 Created by KiCad (PCBNEW 5.1.6-1.fc32) date 2020-09-11 22:13:51*
%MOMM*%
%LPD*%
G01*
G04 APERTURE LIST*
%ADD10C,0.160000*%
%ADD11C,0.010000*%
%ADD12C,0.150000*%
G04 APERTURE END LIST*
D10*
X136314285Y-89452380D02*
X136314285Y-88452380D01*
X136695238Y-88452380D01*
X136790476Y-88500000D01*
X136838095Y-88547619D01*
X136885714Y-88642857D01*
X136885714Y-88785714D01*
X136838095Y-88880952D01*
X136790476Y-88928571D01*
X136695238Y-88976190D01*
X136314285Y-88976190D01*
X137885714Y-89357142D02*
X137838095Y-89404761D01*
X137695238Y-89452380D01*
X137600000Y-89452380D01*
X137457142Y-89404761D01*
X137361904Y-89309523D01*
X137314285Y-89214285D01*
X137266666Y-89023809D01*
X137266666Y-88880952D01*
X137314285Y-88690476D01*
X137361904Y-88595238D01*
X137457142Y-88500000D01*
X137600000Y-88452380D01*
X137695238Y-88452380D01*
X137838095Y-88500000D01*
X137885714Y-88547619D01*
X138314285Y-89071428D02*
X139076190Y-89071428D01*
X140076190Y-89452380D02*
X139504761Y-89452380D01*
X139790476Y-89452380D02*
X139790476Y-88452380D01*
X139695238Y-88595238D01*
X139600000Y-88690476D01*
X139504761Y-88738095D01*
X140695238Y-88452380D02*
X140790476Y-88452380D01*
X140885714Y-88500000D01*
X140933333Y-88547619D01*
X140980952Y-88642857D01*
X141028571Y-88833333D01*
X141028571Y-89071428D01*
X140980952Y-89261904D01*
X140933333Y-89357142D01*
X140885714Y-89404761D01*
X140790476Y-89452380D01*
X140695238Y-89452380D01*
X140600000Y-89404761D01*
X140552380Y-89357142D01*
X140504761Y-89261904D01*
X140457142Y-89071428D01*
X140457142Y-88833333D01*
X140504761Y-88642857D01*
X140552380Y-88547619D01*
X140600000Y-88500000D01*
X140695238Y-88452380D01*
X141885714Y-88785714D02*
X141885714Y-89452380D01*
X141647619Y-88404761D02*
X141409523Y-89119047D01*
X142028571Y-89119047D01*
X143123809Y-89166666D02*
X143600000Y-89166666D01*
X143028571Y-89452380D02*
X143361904Y-88452380D01*
X143695238Y-89452380D01*
X144457142Y-89452380D02*
X144457142Y-88452380D01*
X144457142Y-89404761D02*
X144361904Y-89452380D01*
X144171428Y-89452380D01*
X144076190Y-89404761D01*
X144028571Y-89357142D01*
X143980952Y-89261904D01*
X143980952Y-88976190D01*
X144028571Y-88880952D01*
X144076190Y-88833333D01*
X144171428Y-88785714D01*
X144361904Y-88785714D01*
X144457142Y-88833333D01*
X145361904Y-89452380D02*
X145361904Y-88928571D01*
X145314285Y-88833333D01*
X145219047Y-88785714D01*
X145028571Y-88785714D01*
X144933333Y-88833333D01*
X145361904Y-89404761D02*
X145266666Y-89452380D01*
X145028571Y-89452380D01*
X144933333Y-89404761D01*
X144885714Y-89309523D01*
X144885714Y-89214285D01*
X144933333Y-89119047D01*
X145028571Y-89071428D01*
X145266666Y-89071428D01*
X145361904Y-89023809D01*
X145838095Y-88785714D02*
X145838095Y-89785714D01*
X145838095Y-88833333D02*
X145933333Y-88785714D01*
X146123809Y-88785714D01*
X146219047Y-88833333D01*
X146266666Y-88880952D01*
X146314285Y-88976190D01*
X146314285Y-89261904D01*
X146266666Y-89357142D01*
X146219047Y-89404761D01*
X146123809Y-89452380D01*
X145933333Y-89452380D01*
X145838095Y-89404761D01*
X146600000Y-88785714D02*
X146980952Y-88785714D01*
X146742857Y-88452380D02*
X146742857Y-89309523D01*
X146790476Y-89404761D01*
X146885714Y-89452380D01*
X146980952Y-89452380D01*
X147695238Y-89404761D02*
X147600000Y-89452380D01*
X147409523Y-89452380D01*
X147314285Y-89404761D01*
X147266666Y-89309523D01*
X147266666Y-88928571D01*
X147314285Y-88833333D01*
X147409523Y-88785714D01*
X147600000Y-88785714D01*
X147695238Y-88833333D01*
X147742857Y-88928571D01*
X147742857Y-89023809D01*
X147266666Y-89119047D01*
X148171428Y-89452380D02*
X148171428Y-88785714D01*
X148171428Y-88976190D02*
X148219047Y-88880952D01*
X148266666Y-88833333D01*
X148361904Y-88785714D01*
X148457142Y-88785714D01*
X149838095Y-89833333D02*
X149790476Y-89785714D01*
X149695238Y-89642857D01*
X149647619Y-89547619D01*
X149600000Y-89404761D01*
X149552380Y-89166666D01*
X149552380Y-88976190D01*
X149600000Y-88738095D01*
X149647619Y-88595238D01*
X149695238Y-88500000D01*
X149790476Y-88357142D01*
X149838095Y-88309523D01*
X150076190Y-88452380D02*
X150647619Y-88452380D01*
X150361904Y-89452380D02*
X150361904Y-88452380D01*
X151123809Y-89452380D02*
X151028571Y-89404761D01*
X150980952Y-89357142D01*
X150933333Y-89261904D01*
X150933333Y-88976190D01*
X150980952Y-88880952D01*
X151028571Y-88833333D01*
X151123809Y-88785714D01*
X151266666Y-88785714D01*
X151361904Y-88833333D01*
X151409523Y-88880952D01*
X151457142Y-88976190D01*
X151457142Y-89261904D01*
X151409523Y-89357142D01*
X151361904Y-89404761D01*
X151266666Y-89452380D01*
X151123809Y-89452380D01*
X151885714Y-88785714D02*
X151885714Y-89785714D01*
X151885714Y-88833333D02*
X151980952Y-88785714D01*
X152171428Y-88785714D01*
X152266666Y-88833333D01*
X152314285Y-88880952D01*
X152361904Y-88976190D01*
X152361904Y-89261904D01*
X152314285Y-89357142D01*
X152266666Y-89404761D01*
X152171428Y-89452380D01*
X151980952Y-89452380D01*
X151885714Y-89404761D01*
X152695238Y-89833333D02*
X152742857Y-89785714D01*
X152838095Y-89642857D01*
X152885714Y-89547619D01*
X152933333Y-89404761D01*
X152980952Y-89166666D01*
X152980952Y-88976190D01*
X152933333Y-88738095D01*
X152885714Y-88595238D01*
X152838095Y-88500000D01*
X152742857Y-88357142D01*
X152695238Y-88309523D01*
X154123809Y-88785714D02*
X154361904Y-89452380D01*
X154600000Y-88785714D01*
X154933333Y-88547619D02*
X154980952Y-88500000D01*
X155076190Y-88452380D01*
X155314285Y-88452380D01*
X155409523Y-88500000D01*
X155457142Y-88547619D01*
X155504761Y-88642857D01*
X155504761Y-88738095D01*
X155457142Y-88880952D01*
X154885714Y-89452380D01*
X155504761Y-89452380D01*
X155933333Y-89357142D02*
X155980952Y-89404761D01*
X155933333Y-89452380D01*
X155885714Y-89404761D01*
X155933333Y-89357142D01*
X155933333Y-89452380D01*
X156600000Y-88452380D02*
X156695238Y-88452380D01*
X156790476Y-88500000D01*
X156838095Y-88547619D01*
X156885714Y-88642857D01*
X156933333Y-88833333D01*
X156933333Y-89071428D01*
X156885714Y-89261904D01*
X156838095Y-89357142D01*
X156790476Y-89404761D01*
X156695238Y-89452380D01*
X156600000Y-89452380D01*
X156504761Y-89404761D01*
X156457142Y-89357142D01*
X156409523Y-89261904D01*
X156361904Y-89071428D01*
X156361904Y-88833333D01*
X156409523Y-88642857D01*
X156457142Y-88547619D01*
X156504761Y-88500000D01*
X156600000Y-88452380D01*
D11*
%TO.C,REF\u002A\u002A*%
G36*
X144063360Y-97352468D02*
G01*
X144098592Y-97369874D01*
X144142040Y-97400206D01*
X144173706Y-97433283D01*
X144195394Y-97474817D01*
X144208903Y-97530522D01*
X144216038Y-97606111D01*
X144218600Y-97707296D01*
X144218750Y-97750797D01*
X144218312Y-97846135D01*
X144216496Y-97914271D01*
X144212545Y-97961418D01*
X144205702Y-97993790D01*
X144195211Y-98017600D01*
X144184296Y-98033843D01*
X144114619Y-98102952D01*
X144032566Y-98144521D01*
X143944050Y-98157023D01*
X143854981Y-98138934D01*
X143826763Y-98126142D01*
X143759210Y-98090931D01*
X143759210Y-98642700D01*
X143808512Y-98617205D01*
X143873473Y-98597480D01*
X143953320Y-98592427D01*
X144033052Y-98601756D01*
X144093265Y-98622714D01*
X144143208Y-98662627D01*
X144185881Y-98719741D01*
X144189090Y-98725605D01*
X144202622Y-98753227D01*
X144212505Y-98781068D01*
X144219309Y-98814794D01*
X144223601Y-98860071D01*
X144225951Y-98922562D01*
X144226928Y-99007935D01*
X144227105Y-99104010D01*
X144227105Y-99410526D01*
X144043289Y-99410526D01*
X144043289Y-98845339D01*
X143991875Y-98802077D01*
X143938466Y-98767472D01*
X143887888Y-98761180D01*
X143837030Y-98777372D01*
X143809925Y-98793227D01*
X143789751Y-98815810D01*
X143775403Y-98849940D01*
X143765776Y-98900434D01*
X143759763Y-98972111D01*
X143756260Y-99069788D01*
X143755026Y-99134802D01*
X143750855Y-99402171D01*
X143663125Y-99407222D01*
X143575394Y-99412273D01*
X143575394Y-97753101D01*
X143759210Y-97753101D01*
X143763896Y-97845600D01*
X143779688Y-97909809D01*
X143809183Y-97949759D01*
X143854980Y-97969480D01*
X143901250Y-97973421D01*
X143953628Y-97968892D01*
X143988390Y-97951069D01*
X144010128Y-97927519D01*
X144027240Y-97902189D01*
X144037427Y-97873969D01*
X144041960Y-97834431D01*
X144042109Y-97775142D01*
X144040584Y-97725498D01*
X144037081Y-97650710D01*
X144031867Y-97601611D01*
X144023087Y-97570467D01*
X144008886Y-97549545D01*
X143995484Y-97537452D01*
X143939487Y-97511081D01*
X143873211Y-97506822D01*
X143835156Y-97515906D01*
X143797477Y-97548196D01*
X143772519Y-97611006D01*
X143760422Y-97703894D01*
X143759210Y-97753101D01*
X143575394Y-97753101D01*
X143575394Y-97338421D01*
X143667302Y-97338421D01*
X143722483Y-97340603D01*
X143750952Y-97348351D01*
X143759206Y-97363468D01*
X143759210Y-97363916D01*
X143763040Y-97378720D01*
X143779933Y-97377039D01*
X143813519Y-97360772D01*
X143891778Y-97335887D01*
X143979827Y-97333271D01*
X144063360Y-97352468D01*
G37*
X144063360Y-97352468D02*
X144098592Y-97369874D01*
X144142040Y-97400206D01*
X144173706Y-97433283D01*
X144195394Y-97474817D01*
X144208903Y-97530522D01*
X144216038Y-97606111D01*
X144218600Y-97707296D01*
X144218750Y-97750797D01*
X144218312Y-97846135D01*
X144216496Y-97914271D01*
X144212545Y-97961418D01*
X144205702Y-97993790D01*
X144195211Y-98017600D01*
X144184296Y-98033843D01*
X144114619Y-98102952D01*
X144032566Y-98144521D01*
X143944050Y-98157023D01*
X143854981Y-98138934D01*
X143826763Y-98126142D01*
X143759210Y-98090931D01*
X143759210Y-98642700D01*
X143808512Y-98617205D01*
X143873473Y-98597480D01*
X143953320Y-98592427D01*
X144033052Y-98601756D01*
X144093265Y-98622714D01*
X144143208Y-98662627D01*
X144185881Y-98719741D01*
X144189090Y-98725605D01*
X144202622Y-98753227D01*
X144212505Y-98781068D01*
X144219309Y-98814794D01*
X144223601Y-98860071D01*
X144225951Y-98922562D01*
X144226928Y-99007935D01*
X144227105Y-99104010D01*
X144227105Y-99410526D01*
X144043289Y-99410526D01*
X144043289Y-98845339D01*
X143991875Y-98802077D01*
X143938466Y-98767472D01*
X143887888Y-98761180D01*
X143837030Y-98777372D01*
X143809925Y-98793227D01*
X143789751Y-98815810D01*
X143775403Y-98849940D01*
X143765776Y-98900434D01*
X143759763Y-98972111D01*
X143756260Y-99069788D01*
X143755026Y-99134802D01*
X143750855Y-99402171D01*
X143663125Y-99407222D01*
X143575394Y-99412273D01*
X143575394Y-97753101D01*
X143759210Y-97753101D01*
X143763896Y-97845600D01*
X143779688Y-97909809D01*
X143809183Y-97949759D01*
X143854980Y-97969480D01*
X143901250Y-97973421D01*
X143953628Y-97968892D01*
X143988390Y-97951069D01*
X144010128Y-97927519D01*
X144027240Y-97902189D01*
X144037427Y-97873969D01*
X144041960Y-97834431D01*
X144042109Y-97775142D01*
X144040584Y-97725498D01*
X144037081Y-97650710D01*
X144031867Y-97601611D01*
X144023087Y-97570467D01*
X144008886Y-97549545D01*
X143995484Y-97537452D01*
X143939487Y-97511081D01*
X143873211Y-97506822D01*
X143835156Y-97515906D01*
X143797477Y-97548196D01*
X143772519Y-97611006D01*
X143760422Y-97703894D01*
X143759210Y-97753101D01*
X143575394Y-97753101D01*
X143575394Y-97338421D01*
X143667302Y-97338421D01*
X143722483Y-97340603D01*
X143750952Y-97348351D01*
X143759206Y-97363468D01*
X143759210Y-97363916D01*
X143763040Y-97378720D01*
X143779933Y-97377039D01*
X143813519Y-97360772D01*
X143891778Y-97335887D01*
X143979827Y-97333271D01*
X144063360Y-97352468D01*
G36*
X144760457Y-98598184D02*
G01*
X144839070Y-98619160D01*
X144898916Y-98657180D01*
X144941147Y-98706978D01*
X144954275Y-98728230D01*
X144963968Y-98750492D01*
X144970744Y-98778970D01*
X144975123Y-98818871D01*
X144977624Y-98875401D01*
X144978768Y-98953767D01*
X144979072Y-99059176D01*
X144979078Y-99087142D01*
X144979078Y-99410526D01*
X144898868Y-99410526D01*
X144847706Y-99406943D01*
X144809877Y-99397866D01*
X144800399Y-99392268D01*
X144774488Y-99382606D01*
X144748024Y-99392268D01*
X144704452Y-99404330D01*
X144641160Y-99409185D01*
X144571010Y-99407078D01*
X144506860Y-99398256D01*
X144469407Y-99386937D01*
X144396933Y-99340412D01*
X144351640Y-99275846D01*
X144331278Y-99190000D01*
X144331088Y-99187796D01*
X144332875Y-99149713D01*
X144494473Y-99149713D01*
X144508601Y-99193030D01*
X144531612Y-99217408D01*
X144577804Y-99235845D01*
X144638775Y-99243205D01*
X144700949Y-99239583D01*
X144750751Y-99225074D01*
X144764703Y-99215765D01*
X144789085Y-99172753D01*
X144795263Y-99123857D01*
X144795263Y-99059605D01*
X144702818Y-99059605D01*
X144614995Y-99066366D01*
X144548418Y-99085520D01*
X144507002Y-99115376D01*
X144494473Y-99149713D01*
X144332875Y-99149713D01*
X144335490Y-99094004D01*
X144366424Y-99019847D01*
X144424581Y-98963767D01*
X144432620Y-98958665D01*
X144467163Y-98942055D01*
X144509918Y-98931996D01*
X144569686Y-98927107D01*
X144640690Y-98925983D01*
X144795263Y-98925921D01*
X144795263Y-98861125D01*
X144788706Y-98810850D01*
X144771975Y-98777169D01*
X144770016Y-98775376D01*
X144732783Y-98760642D01*
X144676580Y-98754931D01*
X144614467Y-98757737D01*
X144559510Y-98768556D01*
X144526899Y-98784782D01*
X144509228Y-98797780D01*
X144490569Y-98800262D01*
X144464819Y-98789613D01*
X144425873Y-98763218D01*
X144367630Y-98718465D01*
X144362284Y-98714273D01*
X144365023Y-98698760D01*
X144387876Y-98672960D01*
X144422609Y-98644289D01*
X144460990Y-98620166D01*
X144473048Y-98614470D01*
X144517034Y-98603103D01*
X144581487Y-98594995D01*
X144653497Y-98591743D01*
X144656864Y-98591736D01*
X144760457Y-98598184D01*
G37*
X144760457Y-98598184D02*
X144839070Y-98619160D01*
X144898916Y-98657180D01*
X144941147Y-98706978D01*
X144954275Y-98728230D01*
X144963968Y-98750492D01*
X144970744Y-98778970D01*
X144975123Y-98818871D01*
X144977624Y-98875401D01*
X144978768Y-98953767D01*
X144979072Y-99059176D01*
X144979078Y-99087142D01*
X144979078Y-99410526D01*
X144898868Y-99410526D01*
X144847706Y-99406943D01*
X144809877Y-99397866D01*
X144800399Y-99392268D01*
X144774488Y-99382606D01*
X144748024Y-99392268D01*
X144704452Y-99404330D01*
X144641160Y-99409185D01*
X144571010Y-99407078D01*
X144506860Y-99398256D01*
X144469407Y-99386937D01*
X144396933Y-99340412D01*
X144351640Y-99275846D01*
X144331278Y-99190000D01*
X144331088Y-99187796D01*
X144332875Y-99149713D01*
X144494473Y-99149713D01*
X144508601Y-99193030D01*
X144531612Y-99217408D01*
X144577804Y-99235845D01*
X144638775Y-99243205D01*
X144700949Y-99239583D01*
X144750751Y-99225074D01*
X144764703Y-99215765D01*
X144789085Y-99172753D01*
X144795263Y-99123857D01*
X144795263Y-99059605D01*
X144702818Y-99059605D01*
X144614995Y-99066366D01*
X144548418Y-99085520D01*
X144507002Y-99115376D01*
X144494473Y-99149713D01*
X144332875Y-99149713D01*
X144335490Y-99094004D01*
X144366424Y-99019847D01*
X144424581Y-98963767D01*
X144432620Y-98958665D01*
X144467163Y-98942055D01*
X144509918Y-98931996D01*
X144569686Y-98927107D01*
X144640690Y-98925983D01*
X144795263Y-98925921D01*
X144795263Y-98861125D01*
X144788706Y-98810850D01*
X144771975Y-98777169D01*
X144770016Y-98775376D01*
X144732783Y-98760642D01*
X144676580Y-98754931D01*
X144614467Y-98757737D01*
X144559510Y-98768556D01*
X144526899Y-98784782D01*
X144509228Y-98797780D01*
X144490569Y-98800262D01*
X144464819Y-98789613D01*
X144425873Y-98763218D01*
X144367630Y-98718465D01*
X144362284Y-98714273D01*
X144365023Y-98698760D01*
X144387876Y-98672960D01*
X144422609Y-98644289D01*
X144460990Y-98620166D01*
X144473048Y-98614470D01*
X144517034Y-98603103D01*
X144581487Y-98594995D01*
X144653497Y-98591743D01*
X144656864Y-98591736D01*
X144760457Y-98598184D01*
G36*
X145279881Y-98593486D02*
G01*
X145304888Y-98600982D01*
X145312950Y-98617451D01*
X145313289Y-98624886D01*
X145314736Y-98645594D01*
X145324698Y-98648845D01*
X145351612Y-98634648D01*
X145367598Y-98624948D01*
X145418033Y-98604175D01*
X145478272Y-98593904D01*
X145541434Y-98593114D01*
X145600637Y-98600786D01*
X145649002Y-98615898D01*
X145679646Y-98637432D01*
X145685689Y-98664366D01*
X145682639Y-98671660D01*
X145660406Y-98701937D01*
X145625930Y-98739175D01*
X145619694Y-98745195D01*
X145586833Y-98772875D01*
X145558480Y-98781818D01*
X145518827Y-98775576D01*
X145502942Y-98771429D01*
X145453509Y-98761467D01*
X145418752Y-98765947D01*
X145389400Y-98781746D01*
X145362513Y-98802949D01*
X145342710Y-98829614D01*
X145328948Y-98866827D01*
X145320184Y-98919673D01*
X145315374Y-98993237D01*
X145313474Y-99092605D01*
X145313289Y-99152601D01*
X145313289Y-99410526D01*
X145146184Y-99410526D01*
X145146184Y-98591710D01*
X145229736Y-98591710D01*
X145279881Y-98593486D01*
G37*
X145279881Y-98593486D02*
X145304888Y-98600982D01*
X145312950Y-98617451D01*
X145313289Y-98624886D01*
X145314736Y-98645594D01*
X145324698Y-98648845D01*
X145351612Y-98634648D01*
X145367598Y-98624948D01*
X145418033Y-98604175D01*
X145478272Y-98593904D01*
X145541434Y-98593114D01*
X145600637Y-98600786D01*
X145649002Y-98615898D01*
X145679646Y-98637432D01*
X145685689Y-98664366D01*
X145682639Y-98671660D01*
X145660406Y-98701937D01*
X145625930Y-98739175D01*
X145619694Y-98745195D01*
X145586833Y-98772875D01*
X145558480Y-98781818D01*
X145518827Y-98775576D01*
X145502942Y-98771429D01*
X145453509Y-98761467D01*
X145418752Y-98765947D01*
X145389400Y-98781746D01*
X145362513Y-98802949D01*
X145342710Y-98829614D01*
X145328948Y-98866827D01*
X145320184Y-98919673D01*
X145315374Y-98993237D01*
X145313474Y-99092605D01*
X145313289Y-99152601D01*
X145313289Y-99410526D01*
X145146184Y-99410526D01*
X145146184Y-98591710D01*
X145229736Y-98591710D01*
X145279881Y-98593486D01*
G36*
X146332631Y-99410526D02*
G01*
X146240723Y-99410526D01*
X146187377Y-99408962D01*
X146159593Y-99402485D01*
X146149590Y-99388418D01*
X146148815Y-99378906D01*
X146147128Y-99359832D01*
X146136490Y-99356174D01*
X146108535Y-99367932D01*
X146086795Y-99378906D01*
X146003332Y-99404911D01*
X145912604Y-99406416D01*
X145838842Y-99387021D01*
X145770154Y-99340165D01*
X145717794Y-99271004D01*
X145689122Y-99189427D01*
X145688392Y-99184866D01*
X145684132Y-99135101D01*
X145682014Y-99063659D01*
X145682184Y-99009626D01*
X145864720Y-99009626D01*
X145868949Y-99081441D01*
X145878568Y-99140634D01*
X145891590Y-99174060D01*
X145940856Y-99219740D01*
X145999350Y-99236115D01*
X146059671Y-99222873D01*
X146111217Y-99183373D01*
X146130738Y-99156807D01*
X146142152Y-99125106D01*
X146147498Y-99078832D01*
X146148815Y-99009328D01*
X146146458Y-98940499D01*
X146140233Y-98880026D01*
X146131408Y-98839556D01*
X146129937Y-98835929D01*
X146094347Y-98792802D01*
X146042400Y-98769124D01*
X145984278Y-98765301D01*
X145930160Y-98781738D01*
X145890226Y-98818840D01*
X145886083Y-98826222D01*
X145873116Y-98871239D01*
X145866052Y-98935967D01*
X145864720Y-99009626D01*
X145682184Y-99009626D01*
X145682271Y-98982230D01*
X145683472Y-98938405D01*
X145691645Y-98829988D01*
X145708630Y-98748588D01*
X145736887Y-98688412D01*
X145778872Y-98643666D01*
X145819632Y-98617400D01*
X145876581Y-98598935D01*
X145947411Y-98592602D01*
X146019941Y-98597760D01*
X146081986Y-98613769D01*
X146114768Y-98632920D01*
X146148815Y-98663732D01*
X146148815Y-98274210D01*
X146332631Y-98274210D01*
X146332631Y-99410526D01*
G37*
X146332631Y-99410526D02*
X146240723Y-99410526D01*
X146187377Y-99408962D01*
X146159593Y-99402485D01*
X146149590Y-99388418D01*
X146148815Y-99378906D01*
X146147128Y-99359832D01*
X146136490Y-99356174D01*
X146108535Y-99367932D01*
X146086795Y-99378906D01*
X146003332Y-99404911D01*
X145912604Y-99406416D01*
X145838842Y-99387021D01*
X145770154Y-99340165D01*
X145717794Y-99271004D01*
X145689122Y-99189427D01*
X145688392Y-99184866D01*
X145684132Y-99135101D01*
X145682014Y-99063659D01*
X145682184Y-99009626D01*
X145864720Y-99009626D01*
X145868949Y-99081441D01*
X145878568Y-99140634D01*
X145891590Y-99174060D01*
X145940856Y-99219740D01*
X145999350Y-99236115D01*
X146059671Y-99222873D01*
X146111217Y-99183373D01*
X146130738Y-99156807D01*
X146142152Y-99125106D01*
X146147498Y-99078832D01*
X146148815Y-99009328D01*
X146146458Y-98940499D01*
X146140233Y-98880026D01*
X146131408Y-98839556D01*
X146129937Y-98835929D01*
X146094347Y-98792802D01*
X146042400Y-98769124D01*
X145984278Y-98765301D01*
X145930160Y-98781738D01*
X145890226Y-98818840D01*
X145886083Y-98826222D01*
X145873116Y-98871239D01*
X145866052Y-98935967D01*
X145864720Y-99009626D01*
X145682184Y-99009626D01*
X145682271Y-98982230D01*
X145683472Y-98938405D01*
X145691645Y-98829988D01*
X145708630Y-98748588D01*
X145736887Y-98688412D01*
X145778872Y-98643666D01*
X145819632Y-98617400D01*
X145876581Y-98598935D01*
X145947411Y-98592602D01*
X146019941Y-98597760D01*
X146081986Y-98613769D01*
X146114768Y-98632920D01*
X146148815Y-98663732D01*
X146148815Y-98274210D01*
X146332631Y-98274210D01*
X146332631Y-99410526D01*
G36*
X146974130Y-98595104D02*
G01*
X147040220Y-98600066D01*
X147126626Y-98859079D01*
X147213031Y-99118092D01*
X147240124Y-99026184D01*
X147256428Y-98969384D01*
X147277875Y-98892625D01*
X147301035Y-98808251D01*
X147313280Y-98762993D01*
X147359344Y-98591710D01*
X147549387Y-98591710D01*
X147492582Y-98771349D01*
X147464607Y-98859704D01*
X147430813Y-98966281D01*
X147395520Y-99077454D01*
X147364013Y-99176579D01*
X147292250Y-99402171D01*
X147137286Y-99412253D01*
X147095270Y-99273528D01*
X147069359Y-99187351D01*
X147041083Y-99092347D01*
X147016369Y-99008441D01*
X147015394Y-99005102D01*
X146996935Y-98948248D01*
X146980649Y-98909456D01*
X146969242Y-98894787D01*
X146966898Y-98896483D01*
X146958671Y-98919225D01*
X146943038Y-98967940D01*
X146921904Y-99036502D01*
X146897170Y-99118785D01*
X146883787Y-99164046D01*
X146811311Y-99410526D01*
X146657495Y-99410526D01*
X146534531Y-99022006D01*
X146499988Y-98913022D01*
X146468521Y-98814048D01*
X146441616Y-98729736D01*
X146420759Y-98664734D01*
X146407438Y-98623692D01*
X146403388Y-98611701D01*
X146406594Y-98599423D01*
X146431765Y-98594046D01*
X146484146Y-98594584D01*
X146492345Y-98594990D01*
X146589482Y-98600066D01*
X146653100Y-98834013D01*
X146676484Y-98919333D01*
X146697381Y-98994335D01*
X146713951Y-99052507D01*
X146724354Y-99087337D01*
X146726276Y-99093016D01*
X146734241Y-99086486D01*
X146750304Y-99052654D01*
X146772621Y-98996127D01*
X146799345Y-98921510D01*
X146821937Y-98854107D01*
X146908041Y-98590143D01*
X146974130Y-98595104D01*
G37*
X146974130Y-98595104D02*
X147040220Y-98600066D01*
X147126626Y-98859079D01*
X147213031Y-99118092D01*
X147240124Y-99026184D01*
X147256428Y-98969384D01*
X147277875Y-98892625D01*
X147301035Y-98808251D01*
X147313280Y-98762993D01*
X147359344Y-98591710D01*
X147549387Y-98591710D01*
X147492582Y-98771349D01*
X147464607Y-98859704D01*
X147430813Y-98966281D01*
X147395520Y-99077454D01*
X147364013Y-99176579D01*
X147292250Y-99402171D01*
X147137286Y-99412253D01*
X147095270Y-99273528D01*
X147069359Y-99187351D01*
X147041083Y-99092347D01*
X147016369Y-99008441D01*
X147015394Y-99005102D01*
X146996935Y-98948248D01*
X146980649Y-98909456D01*
X146969242Y-98894787D01*
X146966898Y-98896483D01*
X146958671Y-98919225D01*
X146943038Y-98967940D01*
X146921904Y-99036502D01*
X146897170Y-99118785D01*
X146883787Y-99164046D01*
X146811311Y-99410526D01*
X146657495Y-99410526D01*
X146534531Y-99022006D01*
X146499988Y-98913022D01*
X146468521Y-98814048D01*
X146441616Y-98729736D01*
X146420759Y-98664734D01*
X146407438Y-98623692D01*
X146403388Y-98611701D01*
X146406594Y-98599423D01*
X146431765Y-98594046D01*
X146484146Y-98594584D01*
X146492345Y-98594990D01*
X146589482Y-98600066D01*
X146653100Y-98834013D01*
X146676484Y-98919333D01*
X146697381Y-98994335D01*
X146713951Y-99052507D01*
X146724354Y-99087337D01*
X146726276Y-99093016D01*
X146734241Y-99086486D01*
X146750304Y-99052654D01*
X146772621Y-98996127D01*
X146799345Y-98921510D01*
X146821937Y-98854107D01*
X146908041Y-98590143D01*
X146974130Y-98595104D01*
G36*
X147979992Y-98596673D02*
G01*
X148050427Y-98613780D01*
X148070787Y-98622844D01*
X148110253Y-98646583D01*
X148140541Y-98673321D01*
X148162952Y-98707699D01*
X148178786Y-98754360D01*
X148189343Y-98817946D01*
X148195924Y-98903099D01*
X148199828Y-99014462D01*
X148201310Y-99088849D01*
X148206765Y-99410526D01*
X148113580Y-99410526D01*
X148057047Y-99408156D01*
X148027922Y-99400055D01*
X148020394Y-99386451D01*
X148016420Y-99371741D01*
X147998652Y-99374554D01*
X147974440Y-99386348D01*
X147913828Y-99404427D01*
X147835929Y-99409299D01*
X147753995Y-99401330D01*
X147681281Y-99380889D01*
X147674759Y-99378051D01*
X147608302Y-99331365D01*
X147564491Y-99266464D01*
X147544332Y-99190600D01*
X147545872Y-99163344D01*
X147710345Y-99163344D01*
X147724837Y-99200024D01*
X147767805Y-99226309D01*
X147837129Y-99240417D01*
X147874177Y-99242290D01*
X147935919Y-99237494D01*
X147976960Y-99218858D01*
X147986973Y-99210000D01*
X148014100Y-99161806D01*
X148020394Y-99118092D01*
X148020394Y-99059605D01*
X147938930Y-99059605D01*
X147844234Y-99064432D01*
X147777813Y-99079613D01*
X147735846Y-99106200D01*
X147726449Y-99118052D01*
X147710345Y-99163344D01*
X147545872Y-99163344D01*
X147548829Y-99111026D01*
X147578985Y-99034995D01*
X147620131Y-98983612D01*
X147645052Y-98961397D01*
X147669448Y-98946798D01*
X147701191Y-98937897D01*
X147748152Y-98932775D01*
X147818204Y-98929515D01*
X147845990Y-98928577D01*
X148020394Y-98922879D01*
X148020138Y-98870091D01*
X148013384Y-98814603D01*
X147988964Y-98781052D01*
X147939630Y-98759618D01*
X147938306Y-98759236D01*
X147868360Y-98750808D01*
X147799914Y-98761816D01*
X147749047Y-98788585D01*
X147728637Y-98801803D01*
X147706654Y-98799974D01*
X147672826Y-98780824D01*
X147652961Y-98767308D01*
X147614106Y-98738432D01*
X147590038Y-98716786D01*
X147586176Y-98710589D01*
X147602079Y-98678519D01*
X147649065Y-98640219D01*
X147669473Y-98627297D01*
X147728143Y-98605041D01*
X147807212Y-98592432D01*
X147895041Y-98589600D01*
X147979992Y-98596673D01*
G37*
X147979992Y-98596673D02*
X148050427Y-98613780D01*
X148070787Y-98622844D01*
X148110253Y-98646583D01*
X148140541Y-98673321D01*
X148162952Y-98707699D01*
X148178786Y-98754360D01*
X148189343Y-98817946D01*
X148195924Y-98903099D01*
X148199828Y-99014462D01*
X148201310Y-99088849D01*
X148206765Y-99410526D01*
X148113580Y-99410526D01*
X148057047Y-99408156D01*
X148027922Y-99400055D01*
X148020394Y-99386451D01*
X148016420Y-99371741D01*
X147998652Y-99374554D01*
X147974440Y-99386348D01*
X147913828Y-99404427D01*
X147835929Y-99409299D01*
X147753995Y-99401330D01*
X147681281Y-99380889D01*
X147674759Y-99378051D01*
X147608302Y-99331365D01*
X147564491Y-99266464D01*
X147544332Y-99190600D01*
X147545872Y-99163344D01*
X147710345Y-99163344D01*
X147724837Y-99200024D01*
X147767805Y-99226309D01*
X147837129Y-99240417D01*
X147874177Y-99242290D01*
X147935919Y-99237494D01*
X147976960Y-99218858D01*
X147986973Y-99210000D01*
X148014100Y-99161806D01*
X148020394Y-99118092D01*
X148020394Y-99059605D01*
X147938930Y-99059605D01*
X147844234Y-99064432D01*
X147777813Y-99079613D01*
X147735846Y-99106200D01*
X147726449Y-99118052D01*
X147710345Y-99163344D01*
X147545872Y-99163344D01*
X147548829Y-99111026D01*
X147578985Y-99034995D01*
X147620131Y-98983612D01*
X147645052Y-98961397D01*
X147669448Y-98946798D01*
X147701191Y-98937897D01*
X147748152Y-98932775D01*
X147818204Y-98929515D01*
X147845990Y-98928577D01*
X148020394Y-98922879D01*
X148020138Y-98870091D01*
X148013384Y-98814603D01*
X147988964Y-98781052D01*
X147939630Y-98759618D01*
X147938306Y-98759236D01*
X147868360Y-98750808D01*
X147799914Y-98761816D01*
X147749047Y-98788585D01*
X147728637Y-98801803D01*
X147706654Y-98799974D01*
X147672826Y-98780824D01*
X147652961Y-98767308D01*
X147614106Y-98738432D01*
X147590038Y-98716786D01*
X147586176Y-98710589D01*
X147602079Y-98678519D01*
X147649065Y-98640219D01*
X147669473Y-98627297D01*
X147728143Y-98605041D01*
X147807212Y-98592432D01*
X147895041Y-98589600D01*
X147979992Y-98596673D01*
G36*
X148773167Y-98591447D02*
G01*
X148837408Y-98604112D01*
X148873980Y-98622864D01*
X148912453Y-98654017D01*
X148857717Y-98723127D01*
X148823969Y-98764979D01*
X148801053Y-98785398D01*
X148778279Y-98788517D01*
X148744956Y-98778472D01*
X148729314Y-98772789D01*
X148665542Y-98764404D01*
X148607140Y-98782378D01*
X148564264Y-98822982D01*
X148557299Y-98835929D01*
X148549713Y-98870224D01*
X148543859Y-98933427D01*
X148540011Y-99021060D01*
X148538443Y-99128640D01*
X148538421Y-99143944D01*
X148538421Y-99410526D01*
X148354605Y-99410526D01*
X148354605Y-98591710D01*
X148446513Y-98591710D01*
X148499507Y-98593094D01*
X148527115Y-98599252D01*
X148537324Y-98613194D01*
X148538421Y-98626344D01*
X148538421Y-98660978D01*
X148582450Y-98626344D01*
X148632937Y-98602716D01*
X148700760Y-98591033D01*
X148773167Y-98591447D01*
G37*
X148773167Y-98591447D02*
X148837408Y-98604112D01*
X148873980Y-98622864D01*
X148912453Y-98654017D01*
X148857717Y-98723127D01*
X148823969Y-98764979D01*
X148801053Y-98785398D01*
X148778279Y-98788517D01*
X148744956Y-98778472D01*
X148729314Y-98772789D01*
X148665542Y-98764404D01*
X148607140Y-98782378D01*
X148564264Y-98822982D01*
X148557299Y-98835929D01*
X148549713Y-98870224D01*
X148543859Y-98933427D01*
X148540011Y-99021060D01*
X148538443Y-99128640D01*
X148538421Y-99143944D01*
X148538421Y-99410526D01*
X148354605Y-99410526D01*
X148354605Y-98591710D01*
X148446513Y-98591710D01*
X148499507Y-98593094D01*
X148527115Y-98599252D01*
X148537324Y-98613194D01*
X148538421Y-98626344D01*
X148538421Y-98660978D01*
X148582450Y-98626344D01*
X148632937Y-98602716D01*
X148700760Y-98591033D01*
X148773167Y-98591447D01*
G36*
X149301193Y-98596078D02*
G01*
X149381068Y-98616845D01*
X149447962Y-98659705D01*
X149480351Y-98691723D01*
X149533445Y-98767413D01*
X149563873Y-98855216D01*
X149574327Y-98963150D01*
X149574380Y-98971875D01*
X149574473Y-99059605D01*
X149069534Y-99059605D01*
X149080298Y-99105559D01*
X149099732Y-99147178D01*
X149133745Y-99190544D01*
X149140860Y-99197467D01*
X149202003Y-99234935D01*
X149271729Y-99241289D01*
X149351987Y-99216638D01*
X149365592Y-99210000D01*
X149407319Y-99189819D01*
X149435268Y-99178321D01*
X149440145Y-99177258D01*
X149457168Y-99187583D01*
X149489633Y-99212845D01*
X149506114Y-99226650D01*
X149540264Y-99258361D01*
X149551478Y-99279299D01*
X149543695Y-99298560D01*
X149539535Y-99303827D01*
X149511357Y-99326878D01*
X149464862Y-99354892D01*
X149432434Y-99371246D01*
X149340385Y-99400059D01*
X149238476Y-99409395D01*
X149141963Y-99398332D01*
X149114934Y-99390412D01*
X149031276Y-99345581D01*
X148969266Y-99276598D01*
X148928545Y-99182794D01*
X148908755Y-99063498D01*
X148906582Y-99001118D01*
X148912926Y-98910298D01*
X149073157Y-98910298D01*
X149088655Y-98917012D01*
X149130312Y-98922280D01*
X149190876Y-98925389D01*
X149231907Y-98925921D01*
X149305711Y-98925408D01*
X149352293Y-98923006D01*
X149377848Y-98917422D01*
X149388569Y-98907361D01*
X149390657Y-98892763D01*
X149376331Y-98847796D01*
X149340262Y-98803353D01*
X149292815Y-98769242D01*
X149245349Y-98755288D01*
X149180879Y-98767666D01*
X149125070Y-98803452D01*
X149086374Y-98855033D01*
X149073157Y-98910298D01*
X148912926Y-98910298D01*
X148915821Y-98868866D01*
X148944336Y-98763498D01*
X148992729Y-98684178D01*
X149061604Y-98630071D01*
X149151565Y-98600343D01*
X149200300Y-98594618D01*
X149301193Y-98596078D01*
G37*
X149301193Y-98596078D02*
X149381068Y-98616845D01*
X149447962Y-98659705D01*
X149480351Y-98691723D01*
X149533445Y-98767413D01*
X149563873Y-98855216D01*
X149574327Y-98963150D01*
X149574380Y-98971875D01*
X149574473Y-99059605D01*
X149069534Y-99059605D01*
X149080298Y-99105559D01*
X149099732Y-99147178D01*
X149133745Y-99190544D01*
X149140860Y-99197467D01*
X149202003Y-99234935D01*
X149271729Y-99241289D01*
X149351987Y-99216638D01*
X149365592Y-99210000D01*
X149407319Y-99189819D01*
X149435268Y-99178321D01*
X149440145Y-99177258D01*
X149457168Y-99187583D01*
X149489633Y-99212845D01*
X149506114Y-99226650D01*
X149540264Y-99258361D01*
X149551478Y-99279299D01*
X149543695Y-99298560D01*
X149539535Y-99303827D01*
X149511357Y-99326878D01*
X149464862Y-99354892D01*
X149432434Y-99371246D01*
X149340385Y-99400059D01*
X149238476Y-99409395D01*
X149141963Y-99398332D01*
X149114934Y-99390412D01*
X149031276Y-99345581D01*
X148969266Y-99276598D01*
X148928545Y-99182794D01*
X148908755Y-99063498D01*
X148906582Y-99001118D01*
X148912926Y-98910298D01*
X149073157Y-98910298D01*
X149088655Y-98917012D01*
X149130312Y-98922280D01*
X149190876Y-98925389D01*
X149231907Y-98925921D01*
X149305711Y-98925408D01*
X149352293Y-98923006D01*
X149377848Y-98917422D01*
X149388569Y-98907361D01*
X149390657Y-98892763D01*
X149376331Y-98847796D01*
X149340262Y-98803353D01*
X149292815Y-98769242D01*
X149245349Y-98755288D01*
X149180879Y-98767666D01*
X149125070Y-98803452D01*
X149086374Y-98855033D01*
X149073157Y-98910298D01*
X148912926Y-98910298D01*
X148915821Y-98868866D01*
X148944336Y-98763498D01*
X148992729Y-98684178D01*
X149061604Y-98630071D01*
X149151565Y-98600343D01*
X149200300Y-98594618D01*
X149301193Y-98596078D01*
G36*
X143226784Y-97347104D02*
G01*
X143314205Y-97385754D01*
X143380570Y-97450290D01*
X143425976Y-97540812D01*
X143450518Y-97657418D01*
X143452277Y-97675624D01*
X143453656Y-97803984D01*
X143435784Y-97916496D01*
X143399750Y-98007688D01*
X143380455Y-98037022D01*
X143313245Y-98099106D01*
X143227650Y-98139316D01*
X143131890Y-98156003D01*
X143034187Y-98147517D01*
X142959917Y-98121380D01*
X142896047Y-98077335D01*
X142843846Y-98019587D01*
X142842943Y-98018236D01*
X142821744Y-97982593D01*
X142807967Y-97946752D01*
X142799624Y-97901519D01*
X142794727Y-97837701D01*
X142792569Y-97785368D01*
X142791671Y-97737910D01*
X142958743Y-97737910D01*
X142960376Y-97785154D01*
X142966304Y-97848046D01*
X142976761Y-97888407D01*
X142995619Y-97917122D01*
X143013281Y-97933896D01*
X143075894Y-97969016D01*
X143141408Y-97973710D01*
X143202421Y-97948440D01*
X143232928Y-97920124D01*
X143254911Y-97891589D01*
X143267769Y-97864284D01*
X143273412Y-97828750D01*
X143273751Y-97775524D01*
X143272012Y-97726506D01*
X143268271Y-97656482D01*
X143262341Y-97611064D01*
X143251653Y-97581440D01*
X143233639Y-97558797D01*
X143219363Y-97545855D01*
X143159651Y-97511860D01*
X143095234Y-97510165D01*
X143041219Y-97530301D01*
X142995140Y-97572352D01*
X142967689Y-97641428D01*
X142958743Y-97737910D01*
X142791671Y-97737910D01*
X142790599Y-97681299D01*
X142793964Y-97603468D01*
X142804045Y-97544930D01*
X142822226Y-97498737D01*
X142849890Y-97457942D01*
X142860146Y-97445828D01*
X142924278Y-97385474D01*
X142993066Y-97350220D01*
X143077189Y-97335450D01*
X143118209Y-97334243D01*
X143226784Y-97347104D01*
G37*
X143226784Y-97347104D02*
X143314205Y-97385754D01*
X143380570Y-97450290D01*
X143425976Y-97540812D01*
X143450518Y-97657418D01*
X143452277Y-97675624D01*
X143453656Y-97803984D01*
X143435784Y-97916496D01*
X143399750Y-98007688D01*
X143380455Y-98037022D01*
X143313245Y-98099106D01*
X143227650Y-98139316D01*
X143131890Y-98156003D01*
X143034187Y-98147517D01*
X142959917Y-98121380D01*
X142896047Y-98077335D01*
X142843846Y-98019587D01*
X142842943Y-98018236D01*
X142821744Y-97982593D01*
X142807967Y-97946752D01*
X142799624Y-97901519D01*
X142794727Y-97837701D01*
X142792569Y-97785368D01*
X142791671Y-97737910D01*
X142958743Y-97737910D01*
X142960376Y-97785154D01*
X142966304Y-97848046D01*
X142976761Y-97888407D01*
X142995619Y-97917122D01*
X143013281Y-97933896D01*
X143075894Y-97969016D01*
X143141408Y-97973710D01*
X143202421Y-97948440D01*
X143232928Y-97920124D01*
X143254911Y-97891589D01*
X143267769Y-97864284D01*
X143273412Y-97828750D01*
X143273751Y-97775524D01*
X143272012Y-97726506D01*
X143268271Y-97656482D01*
X143262341Y-97611064D01*
X143251653Y-97581440D01*
X143233639Y-97558797D01*
X143219363Y-97545855D01*
X143159651Y-97511860D01*
X143095234Y-97510165D01*
X143041219Y-97530301D01*
X142995140Y-97572352D01*
X142967689Y-97641428D01*
X142958743Y-97737910D01*
X142791671Y-97737910D01*
X142790599Y-97681299D01*
X142793964Y-97603468D01*
X142804045Y-97544930D01*
X142822226Y-97498737D01*
X142849890Y-97457942D01*
X142860146Y-97445828D01*
X142924278Y-97385474D01*
X142993066Y-97350220D01*
X143077189Y-97335450D01*
X143118209Y-97334243D01*
X143226784Y-97347104D01*
G36*
X144797018Y-97357027D02*
G01*
X144813670Y-97364866D01*
X144871305Y-97407086D01*
X144925805Y-97468700D01*
X144966499Y-97536543D01*
X144978074Y-97567734D01*
X144988634Y-97623449D01*
X144994931Y-97690781D01*
X144995696Y-97718585D01*
X144995789Y-97806316D01*
X144490850Y-97806316D01*
X144501613Y-97852270D01*
X144528033Y-97906620D01*
X144574222Y-97953591D01*
X144629172Y-97983848D01*
X144664189Y-97990131D01*
X144711677Y-97982506D01*
X144768335Y-97963383D01*
X144787582Y-97954584D01*
X144858759Y-97919036D01*
X144919502Y-97965367D01*
X144954552Y-97996703D01*
X144973202Y-98022567D01*
X144974147Y-98030158D01*
X144957485Y-98048556D01*
X144920970Y-98076515D01*
X144887828Y-98098327D01*
X144798393Y-98137537D01*
X144698129Y-98155285D01*
X144598754Y-98150670D01*
X144519539Y-98126551D01*
X144437880Y-98074884D01*
X144379849Y-98006856D01*
X144343546Y-97918843D01*
X144327072Y-97807216D01*
X144325611Y-97756138D01*
X144331457Y-97639091D01*
X144332175Y-97635686D01*
X144499489Y-97635686D01*
X144504097Y-97646662D01*
X144523036Y-97652715D01*
X144562098Y-97655310D01*
X144627077Y-97655910D01*
X144652097Y-97655921D01*
X144728221Y-97655014D01*
X144776496Y-97651720D01*
X144802460Y-97645181D01*
X144811648Y-97634537D01*
X144811973Y-97631119D01*
X144801487Y-97603956D01*
X144775242Y-97565903D01*
X144763959Y-97552579D01*
X144722072Y-97514896D01*
X144678409Y-97500080D01*
X144654885Y-97498842D01*
X144591243Y-97514329D01*
X144537873Y-97555930D01*
X144504019Y-97616353D01*
X144503419Y-97618322D01*
X144499489Y-97635686D01*
X144332175Y-97635686D01*
X144350899Y-97546928D01*
X144385922Y-97473190D01*
X144428756Y-97420848D01*
X144507948Y-97364092D01*
X144601040Y-97333762D01*
X144700055Y-97331021D01*
X144797018Y-97357027D01*
G37*
X144797018Y-97357027D02*
X144813670Y-97364866D01*
X144871305Y-97407086D01*
X144925805Y-97468700D01*
X144966499Y-97536543D01*
X144978074Y-97567734D01*
X144988634Y-97623449D01*
X144994931Y-97690781D01*
X144995696Y-97718585D01*
X144995789Y-97806316D01*
X144490850Y-97806316D01*
X144501613Y-97852270D01*
X144528033Y-97906620D01*
X144574222Y-97953591D01*
X144629172Y-97983848D01*
X144664189Y-97990131D01*
X144711677Y-97982506D01*
X144768335Y-97963383D01*
X144787582Y-97954584D01*
X144858759Y-97919036D01*
X144919502Y-97965367D01*
X144954552Y-97996703D01*
X144973202Y-98022567D01*
X144974147Y-98030158D01*
X144957485Y-98048556D01*
X144920970Y-98076515D01*
X144887828Y-98098327D01*
X144798393Y-98137537D01*
X144698129Y-98155285D01*
X144598754Y-98150670D01*
X144519539Y-98126551D01*
X144437880Y-98074884D01*
X144379849Y-98006856D01*
X144343546Y-97918843D01*
X144327072Y-97807216D01*
X144325611Y-97756138D01*
X144331457Y-97639091D01*
X144332175Y-97635686D01*
X144499489Y-97635686D01*
X144504097Y-97646662D01*
X144523036Y-97652715D01*
X144562098Y-97655310D01*
X144627077Y-97655910D01*
X144652097Y-97655921D01*
X144728221Y-97655014D01*
X144776496Y-97651720D01*
X144802460Y-97645181D01*
X144811648Y-97634537D01*
X144811973Y-97631119D01*
X144801487Y-97603956D01*
X144775242Y-97565903D01*
X144763959Y-97552579D01*
X144722072Y-97514896D01*
X144678409Y-97500080D01*
X144654885Y-97498842D01*
X144591243Y-97514329D01*
X144537873Y-97555930D01*
X144504019Y-97616353D01*
X144503419Y-97618322D01*
X144499489Y-97635686D01*
X144332175Y-97635686D01*
X144350899Y-97546928D01*
X144385922Y-97473190D01*
X144428756Y-97420848D01*
X144507948Y-97364092D01*
X144601040Y-97333762D01*
X144700055Y-97331021D01*
X144797018Y-97357027D01*
G36*
X146618628Y-97335547D02*
G01*
X146681908Y-97347548D01*
X146747557Y-97372648D01*
X146754572Y-97375848D01*
X146804356Y-97402026D01*
X146838834Y-97426353D01*
X146849978Y-97441937D01*
X146839366Y-97467353D01*
X146813588Y-97504853D01*
X146802146Y-97518852D01*
X146754992Y-97573954D01*
X146694201Y-97538086D01*
X146636347Y-97514192D01*
X146569500Y-97501420D01*
X146505394Y-97500613D01*
X146455764Y-97512615D01*
X146443854Y-97520105D01*
X146421172Y-97554450D01*
X146418416Y-97594013D01*
X146435388Y-97624920D01*
X146445427Y-97630913D01*
X146475510Y-97638357D01*
X146528389Y-97647106D01*
X146593575Y-97655467D01*
X146605600Y-97656778D01*
X146710297Y-97674888D01*
X146786232Y-97705651D01*
X146836592Y-97751907D01*
X146864564Y-97816497D01*
X146873278Y-97895387D01*
X146861240Y-97985065D01*
X146822151Y-98055486D01*
X146755855Y-98106777D01*
X146662194Y-98139067D01*
X146558223Y-98151807D01*
X146473438Y-98151654D01*
X146404665Y-98140083D01*
X146357697Y-98124109D01*
X146298350Y-98096275D01*
X146243506Y-98063973D01*
X146224013Y-98049755D01*
X146173881Y-98008835D01*
X146294803Y-97886477D01*
X146363543Y-97931967D01*
X146432488Y-97966133D01*
X146506111Y-97984004D01*
X146576883Y-97985889D01*
X146637274Y-97972101D01*
X146679757Y-97942949D01*
X146693474Y-97918352D01*
X146691417Y-97878904D01*
X146657330Y-97848737D01*
X146591308Y-97827906D01*
X146518974Y-97818279D01*
X146407652Y-97799910D01*
X146324952Y-97765254D01*
X146269765Y-97713297D01*
X146240988Y-97643023D01*
X146237001Y-97559707D01*
X146256693Y-97472681D01*
X146301589Y-97406902D01*
X146372091Y-97362068D01*
X146468601Y-97337879D01*
X146540100Y-97333137D01*
X146618628Y-97335547D01*
G37*
X146618628Y-97335547D02*
X146681908Y-97347548D01*
X146747557Y-97372648D01*
X146754572Y-97375848D01*
X146804356Y-97402026D01*
X146838834Y-97426353D01*
X146849978Y-97441937D01*
X146839366Y-97467353D01*
X146813588Y-97504853D01*
X146802146Y-97518852D01*
X146754992Y-97573954D01*
X146694201Y-97538086D01*
X146636347Y-97514192D01*
X146569500Y-97501420D01*
X146505394Y-97500613D01*
X146455764Y-97512615D01*
X146443854Y-97520105D01*
X146421172Y-97554450D01*
X146418416Y-97594013D01*
X146435388Y-97624920D01*
X146445427Y-97630913D01*
X146475510Y-97638357D01*
X146528389Y-97647106D01*
X146593575Y-97655467D01*
X146605600Y-97656778D01*
X146710297Y-97674888D01*
X146786232Y-97705651D01*
X146836592Y-97751907D01*
X146864564Y-97816497D01*
X146873278Y-97895387D01*
X146861240Y-97985065D01*
X146822151Y-98055486D01*
X146755855Y-98106777D01*
X146662194Y-98139067D01*
X146558223Y-98151807D01*
X146473438Y-98151654D01*
X146404665Y-98140083D01*
X146357697Y-98124109D01*
X146298350Y-98096275D01*
X146243506Y-98063973D01*
X146224013Y-98049755D01*
X146173881Y-98008835D01*
X146294803Y-97886477D01*
X146363543Y-97931967D01*
X146432488Y-97966133D01*
X146506111Y-97984004D01*
X146576883Y-97985889D01*
X146637274Y-97972101D01*
X146679757Y-97942949D01*
X146693474Y-97918352D01*
X146691417Y-97878904D01*
X146657330Y-97848737D01*
X146591308Y-97827906D01*
X146518974Y-97818279D01*
X146407652Y-97799910D01*
X146324952Y-97765254D01*
X146269765Y-97713297D01*
X146240988Y-97643023D01*
X146237001Y-97559707D01*
X146256693Y-97472681D01*
X146301589Y-97406902D01*
X146372091Y-97362068D01*
X146468601Y-97337879D01*
X146540100Y-97333137D01*
X146618628Y-97335547D01*
G36*
X147411669Y-97348310D02*
G01*
X147496192Y-97394340D01*
X147562321Y-97467006D01*
X147593478Y-97526106D01*
X147606855Y-97578305D01*
X147615522Y-97652719D01*
X147619237Y-97738442D01*
X147617754Y-97824569D01*
X147610831Y-97900193D01*
X147602745Y-97940584D01*
X147575465Y-97995840D01*
X147528220Y-98054530D01*
X147471282Y-98105852D01*
X147414924Y-98139005D01*
X147413550Y-98139531D01*
X147343616Y-98154018D01*
X147260737Y-98154377D01*
X147181977Y-98141188D01*
X147151566Y-98130617D01*
X147073239Y-98086201D01*
X147017143Y-98028007D01*
X146980286Y-97950965D01*
X146959680Y-97850001D01*
X146955018Y-97797116D01*
X146955613Y-97730663D01*
X147134736Y-97730663D01*
X147140770Y-97827630D01*
X147158138Y-97901523D01*
X147185740Y-97948736D01*
X147205404Y-97962237D01*
X147255787Y-97971651D01*
X147315673Y-97968864D01*
X147367449Y-97955316D01*
X147381027Y-97947862D01*
X147416849Y-97904451D01*
X147440493Y-97838014D01*
X147450558Y-97757161D01*
X147445642Y-97670502D01*
X147434655Y-97618349D01*
X147403109Y-97557951D01*
X147353311Y-97520197D01*
X147293337Y-97507143D01*
X147231264Y-97520849D01*
X147183582Y-97554372D01*
X147158525Y-97582031D01*
X147143900Y-97609294D01*
X147136929Y-97646190D01*
X147134833Y-97702750D01*
X147134736Y-97730663D01*
X146955613Y-97730663D01*
X146956282Y-97655994D01*
X146979265Y-97540271D01*
X147023972Y-97449941D01*
X147090405Y-97385000D01*
X147178565Y-97345445D01*
X147197495Y-97340858D01*
X147311266Y-97330090D01*
X147411669Y-97348310D01*
G37*
X147411669Y-97348310D02*
X147496192Y-97394340D01*
X147562321Y-97467006D01*
X147593478Y-97526106D01*
X147606855Y-97578305D01*
X147615522Y-97652719D01*
X147619237Y-97738442D01*
X147617754Y-97824569D01*
X147610831Y-97900193D01*
X147602745Y-97940584D01*
X147575465Y-97995840D01*
X147528220Y-98054530D01*
X147471282Y-98105852D01*
X147414924Y-98139005D01*
X147413550Y-98139531D01*
X147343616Y-98154018D01*
X147260737Y-98154377D01*
X147181977Y-98141188D01*
X147151566Y-98130617D01*
X147073239Y-98086201D01*
X147017143Y-98028007D01*
X146980286Y-97950965D01*
X146959680Y-97850001D01*
X146955018Y-97797116D01*
X146955613Y-97730663D01*
X147134736Y-97730663D01*
X147140770Y-97827630D01*
X147158138Y-97901523D01*
X147185740Y-97948736D01*
X147205404Y-97962237D01*
X147255787Y-97971651D01*
X147315673Y-97968864D01*
X147367449Y-97955316D01*
X147381027Y-97947862D01*
X147416849Y-97904451D01*
X147440493Y-97838014D01*
X147450558Y-97757161D01*
X147445642Y-97670502D01*
X147434655Y-97618349D01*
X147403109Y-97557951D01*
X147353311Y-97520197D01*
X147293337Y-97507143D01*
X147231264Y-97520849D01*
X147183582Y-97554372D01*
X147158525Y-97582031D01*
X147143900Y-97609294D01*
X147136929Y-97646190D01*
X147134833Y-97702750D01*
X147134736Y-97730663D01*
X146955613Y-97730663D01*
X146956282Y-97655994D01*
X146979265Y-97540271D01*
X147023972Y-97449941D01*
X147090405Y-97385000D01*
X147178565Y-97345445D01*
X147197495Y-97340858D01*
X147311266Y-97330090D01*
X147411669Y-97348310D01*
G36*
X147920131Y-97598533D02*
G01*
X147921710Y-97721089D01*
X147927481Y-97814179D01*
X147938991Y-97881651D01*
X147957790Y-97927355D01*
X147985426Y-97955139D01*
X148023448Y-97968854D01*
X148070526Y-97972358D01*
X148119832Y-97968432D01*
X148157283Y-97954089D01*
X148184428Y-97925478D01*
X148202815Y-97878751D01*
X148213993Y-97810058D01*
X148219511Y-97715550D01*
X148220921Y-97598533D01*
X148220921Y-97338421D01*
X148404736Y-97338421D01*
X148404736Y-98140526D01*
X148312828Y-98140526D01*
X148257422Y-98138281D01*
X148228891Y-98130396D01*
X148220921Y-98115428D01*
X148216120Y-98102097D01*
X148197014Y-98104917D01*
X148158504Y-98123783D01*
X148070239Y-98152887D01*
X147976623Y-98150825D01*
X147886921Y-98119221D01*
X147844204Y-98094257D01*
X147811621Y-98067226D01*
X147787817Y-98033405D01*
X147771439Y-97988068D01*
X147761131Y-97926489D01*
X147755541Y-97843943D01*
X147753312Y-97735705D01*
X147753026Y-97652004D01*
X147753026Y-97338421D01*
X147920131Y-97338421D01*
X147920131Y-97598533D01*
G37*
X147920131Y-97598533D02*
X147921710Y-97721089D01*
X147927481Y-97814179D01*
X147938991Y-97881651D01*
X147957790Y-97927355D01*
X147985426Y-97955139D01*
X148023448Y-97968854D01*
X148070526Y-97972358D01*
X148119832Y-97968432D01*
X148157283Y-97954089D01*
X148184428Y-97925478D01*
X148202815Y-97878751D01*
X148213993Y-97810058D01*
X148219511Y-97715550D01*
X148220921Y-97598533D01*
X148220921Y-97338421D01*
X148404736Y-97338421D01*
X148404736Y-98140526D01*
X148312828Y-98140526D01*
X148257422Y-98138281D01*
X148228891Y-98130396D01*
X148220921Y-98115428D01*
X148216120Y-98102097D01*
X148197014Y-98104917D01*
X148158504Y-98123783D01*
X148070239Y-98152887D01*
X147976623Y-98150825D01*
X147886921Y-98119221D01*
X147844204Y-98094257D01*
X147811621Y-98067226D01*
X147787817Y-98033405D01*
X147771439Y-97988068D01*
X147761131Y-97926489D01*
X147755541Y-97843943D01*
X147753312Y-97735705D01*
X147753026Y-97652004D01*
X147753026Y-97338421D01*
X147920131Y-97338421D01*
X147920131Y-97598533D01*
G36*
X149546576Y-97345419D02*
G01*
X149643395Y-97386549D01*
X149673890Y-97406571D01*
X149712865Y-97437340D01*
X149737331Y-97461533D01*
X149741578Y-97469413D01*
X149729584Y-97486899D01*
X149698887Y-97516570D01*
X149674312Y-97537279D01*
X149607046Y-97591336D01*
X149553930Y-97546642D01*
X149512884Y-97517789D01*
X149472863Y-97507829D01*
X149427059Y-97510261D01*
X149354324Y-97528345D01*
X149304256Y-97565881D01*
X149273829Y-97626562D01*
X149260017Y-97714081D01*
X149260013Y-97714136D01*
X149261208Y-97811958D01*
X149279772Y-97883730D01*
X149316804Y-97932595D01*
X149342050Y-97949143D01*
X149409097Y-97969749D01*
X149480709Y-97969762D01*
X149543015Y-97949768D01*
X149557763Y-97940000D01*
X149594750Y-97915047D01*
X149623668Y-97910958D01*
X149654856Y-97929530D01*
X149689336Y-97962887D01*
X149743912Y-98019196D01*
X149683318Y-98069142D01*
X149589698Y-98125513D01*
X149484125Y-98153293D01*
X149373798Y-98151282D01*
X149301343Y-98132862D01*
X149216656Y-98087310D01*
X149148927Y-98015650D01*
X149118157Y-97965066D01*
X149093236Y-97892488D01*
X149080766Y-97800569D01*
X149080670Y-97700948D01*
X149092870Y-97605267D01*
X149117290Y-97525169D01*
X149121136Y-97516956D01*
X149178093Y-97436413D01*
X149255209Y-97377771D01*
X149346390Y-97342247D01*
X149445543Y-97331057D01*
X149546576Y-97345419D01*
G37*
X149546576Y-97345419D02*
X149643395Y-97386549D01*
X149673890Y-97406571D01*
X149712865Y-97437340D01*
X149737331Y-97461533D01*
X149741578Y-97469413D01*
X149729584Y-97486899D01*
X149698887Y-97516570D01*
X149674312Y-97537279D01*
X149607046Y-97591336D01*
X149553930Y-97546642D01*
X149512884Y-97517789D01*
X149472863Y-97507829D01*
X149427059Y-97510261D01*
X149354324Y-97528345D01*
X149304256Y-97565881D01*
X149273829Y-97626562D01*
X149260017Y-97714081D01*
X149260013Y-97714136D01*
X149261208Y-97811958D01*
X149279772Y-97883730D01*
X149316804Y-97932595D01*
X149342050Y-97949143D01*
X149409097Y-97969749D01*
X149480709Y-97969762D01*
X149543015Y-97949768D01*
X149557763Y-97940000D01*
X149594750Y-97915047D01*
X149623668Y-97910958D01*
X149654856Y-97929530D01*
X149689336Y-97962887D01*
X149743912Y-98019196D01*
X149683318Y-98069142D01*
X149589698Y-98125513D01*
X149484125Y-98153293D01*
X149373798Y-98151282D01*
X149301343Y-98132862D01*
X149216656Y-98087310D01*
X149148927Y-98015650D01*
X149118157Y-97965066D01*
X149093236Y-97892488D01*
X149080766Y-97800569D01*
X149080670Y-97700948D01*
X149092870Y-97605267D01*
X149117290Y-97525169D01*
X149121136Y-97516956D01*
X149178093Y-97436413D01*
X149255209Y-97377771D01*
X149346390Y-97342247D01*
X149445543Y-97331057D01*
X149546576Y-97345419D01*
G36*
X150158784Y-97335554D02*
G01*
X150201574Y-97345949D01*
X150283609Y-97384013D01*
X150353757Y-97442149D01*
X150402305Y-97511852D01*
X150408975Y-97527502D01*
X150418124Y-97568496D01*
X150424529Y-97629138D01*
X150426710Y-97690430D01*
X150426710Y-97806316D01*
X150184407Y-97806316D01*
X150084471Y-97806693D01*
X150014069Y-97808987D01*
X149969313Y-97814938D01*
X149946315Y-97826285D01*
X149941189Y-97844771D01*
X149950048Y-97872136D01*
X149965917Y-97904155D01*
X150010184Y-97957592D01*
X150071699Y-97984215D01*
X150146885Y-97983347D01*
X150232053Y-97954371D01*
X150305659Y-97918611D01*
X150366734Y-97966904D01*
X150427810Y-98015197D01*
X150370351Y-98068285D01*
X150293641Y-98118445D01*
X150199302Y-98148688D01*
X150097827Y-98157151D01*
X149999711Y-98141974D01*
X149983881Y-98136824D01*
X149897647Y-98091791D01*
X149833501Y-98024652D01*
X149790091Y-97933405D01*
X149766064Y-97816044D01*
X149765784Y-97813529D01*
X149763633Y-97685627D01*
X149772329Y-97639997D01*
X149942105Y-97639997D01*
X149957697Y-97647013D01*
X150000029Y-97652388D01*
X150062434Y-97655457D01*
X150101981Y-97655921D01*
X150175728Y-97655630D01*
X150221840Y-97653783D01*
X150246100Y-97648912D01*
X150254294Y-97639555D01*
X150252206Y-97624245D01*
X150250455Y-97618322D01*
X150220560Y-97562668D01*
X150173542Y-97517815D01*
X150132049Y-97498105D01*
X150076926Y-97499295D01*
X150021068Y-97523875D01*
X149974212Y-97564570D01*
X149946094Y-97614108D01*
X149942105Y-97639997D01*
X149772329Y-97639997D01*
X149785074Y-97573133D01*
X149827611Y-97478727D01*
X149888747Y-97405088D01*
X149965985Y-97354893D01*
X150056830Y-97330822D01*
X150158784Y-97335554D01*
G37*
X150158784Y-97335554D02*
X150201574Y-97345949D01*
X150283609Y-97384013D01*
X150353757Y-97442149D01*
X150402305Y-97511852D01*
X150408975Y-97527502D01*
X150418124Y-97568496D01*
X150424529Y-97629138D01*
X150426710Y-97690430D01*
X150426710Y-97806316D01*
X150184407Y-97806316D01*
X150084471Y-97806693D01*
X150014069Y-97808987D01*
X149969313Y-97814938D01*
X149946315Y-97826285D01*
X149941189Y-97844771D01*
X149950048Y-97872136D01*
X149965917Y-97904155D01*
X150010184Y-97957592D01*
X150071699Y-97984215D01*
X150146885Y-97983347D01*
X150232053Y-97954371D01*
X150305659Y-97918611D01*
X150366734Y-97966904D01*
X150427810Y-98015197D01*
X150370351Y-98068285D01*
X150293641Y-98118445D01*
X150199302Y-98148688D01*
X150097827Y-98157151D01*
X149999711Y-98141974D01*
X149983881Y-98136824D01*
X149897647Y-98091791D01*
X149833501Y-98024652D01*
X149790091Y-97933405D01*
X149766064Y-97816044D01*
X149765784Y-97813529D01*
X149763633Y-97685627D01*
X149772329Y-97639997D01*
X149942105Y-97639997D01*
X149957697Y-97647013D01*
X150000029Y-97652388D01*
X150062434Y-97655457D01*
X150101981Y-97655921D01*
X150175728Y-97655630D01*
X150221840Y-97653783D01*
X150246100Y-97648912D01*
X150254294Y-97639555D01*
X150252206Y-97624245D01*
X150250455Y-97618322D01*
X150220560Y-97562668D01*
X150173542Y-97517815D01*
X150132049Y-97498105D01*
X150076926Y-97499295D01*
X150021068Y-97523875D01*
X149974212Y-97564570D01*
X149946094Y-97614108D01*
X149942105Y-97639997D01*
X149772329Y-97639997D01*
X149785074Y-97573133D01*
X149827611Y-97478727D01*
X149888747Y-97405088D01*
X149965985Y-97354893D01*
X150056830Y-97330822D01*
X150158784Y-97335554D01*
G36*
X145597957Y-97352226D02*
G01*
X145639546Y-97372090D01*
X145679825Y-97400784D01*
X145710510Y-97433809D01*
X145732861Y-97475931D01*
X145748136Y-97531915D01*
X145757592Y-97606528D01*
X145762487Y-97704535D01*
X145764081Y-97830702D01*
X145764106Y-97843914D01*
X145764473Y-98140526D01*
X145580657Y-98140526D01*
X145580657Y-97867081D01*
X145580527Y-97765777D01*
X145579621Y-97692353D01*
X145577173Y-97641271D01*
X145572414Y-97606990D01*
X145564574Y-97583971D01*
X145552885Y-97566673D01*
X145536602Y-97549581D01*
X145479634Y-97512857D01*
X145417445Y-97506042D01*
X145358199Y-97529261D01*
X145337595Y-97546543D01*
X145322470Y-97562791D01*
X145311610Y-97580191D01*
X145304310Y-97604212D01*
X145299863Y-97640322D01*
X145297564Y-97693988D01*
X145296704Y-97770680D01*
X145296578Y-97864043D01*
X145296578Y-98140526D01*
X145112763Y-98140526D01*
X145112763Y-97338421D01*
X145204671Y-97338421D01*
X145259851Y-97340603D01*
X145288320Y-97348351D01*
X145296575Y-97363468D01*
X145296578Y-97363916D01*
X145300408Y-97378720D01*
X145317301Y-97377040D01*
X145350888Y-97360773D01*
X145427063Y-97336840D01*
X145514200Y-97334178D01*
X145597957Y-97352226D01*
G37*
X145597957Y-97352226D02*
X145639546Y-97372090D01*
X145679825Y-97400784D01*
X145710510Y-97433809D01*
X145732861Y-97475931D01*
X145748136Y-97531915D01*
X145757592Y-97606528D01*
X145762487Y-97704535D01*
X145764081Y-97830702D01*
X145764106Y-97843914D01*
X145764473Y-98140526D01*
X145580657Y-98140526D01*
X145580657Y-97867081D01*
X145580527Y-97765777D01*
X145579621Y-97692353D01*
X145577173Y-97641271D01*
X145572414Y-97606990D01*
X145564574Y-97583971D01*
X145552885Y-97566673D01*
X145536602Y-97549581D01*
X145479634Y-97512857D01*
X145417445Y-97506042D01*
X145358199Y-97529261D01*
X145337595Y-97546543D01*
X145322470Y-97562791D01*
X145311610Y-97580191D01*
X145304310Y-97604212D01*
X145299863Y-97640322D01*
X145297564Y-97693988D01*
X145296704Y-97770680D01*
X145296578Y-97864043D01*
X145296578Y-98140526D01*
X145112763Y-98140526D01*
X145112763Y-97338421D01*
X145204671Y-97338421D01*
X145259851Y-97340603D01*
X145288320Y-97348351D01*
X145296575Y-97363468D01*
X145296578Y-97363916D01*
X145300408Y-97378720D01*
X145317301Y-97377040D01*
X145350888Y-97360773D01*
X145427063Y-97336840D01*
X145514200Y-97334178D01*
X145597957Y-97352226D01*
G36*
X148991388Y-97337645D02*
G01*
X149048865Y-97355206D01*
X149085872Y-97377395D01*
X149097927Y-97394942D01*
X149094609Y-97415742D01*
X149073079Y-97448419D01*
X149054874Y-97471562D01*
X149017344Y-97513402D01*
X148989148Y-97531005D01*
X148965111Y-97529856D01*
X148893808Y-97511710D01*
X148841442Y-97512534D01*
X148798918Y-97533098D01*
X148784642Y-97545134D01*
X148738947Y-97587483D01*
X148738947Y-98140526D01*
X148555131Y-98140526D01*
X148555131Y-97338421D01*
X148647039Y-97338421D01*
X148702219Y-97340603D01*
X148730688Y-97348351D01*
X148738943Y-97363468D01*
X148738947Y-97363916D01*
X148742845Y-97379749D01*
X148760474Y-97377684D01*
X148784901Y-97366261D01*
X148835350Y-97345005D01*
X148876316Y-97332216D01*
X148929028Y-97328938D01*
X148991388Y-97337645D01*
G37*
X148991388Y-97337645D02*
X149048865Y-97355206D01*
X149085872Y-97377395D01*
X149097927Y-97394942D01*
X149094609Y-97415742D01*
X149073079Y-97448419D01*
X149054874Y-97471562D01*
X149017344Y-97513402D01*
X148989148Y-97531005D01*
X148965111Y-97529856D01*
X148893808Y-97511710D01*
X148841442Y-97512534D01*
X148798918Y-97533098D01*
X148784642Y-97545134D01*
X148738947Y-97587483D01*
X148738947Y-98140526D01*
X148555131Y-98140526D01*
X148555131Y-97338421D01*
X148647039Y-97338421D01*
X148702219Y-97340603D01*
X148730688Y-97348351D01*
X148738943Y-97363468D01*
X148738947Y-97363916D01*
X148742845Y-97379749D01*
X148760474Y-97377684D01*
X148784901Y-97366261D01*
X148835350Y-97345005D01*
X148876316Y-97332216D01*
X148929028Y-97328938D01*
X148991388Y-97337645D01*
G36*
X147100964Y-91798576D02*
G01*
X147176513Y-92199322D01*
X147734041Y-92429154D01*
X148068465Y-92201748D01*
X148162122Y-92138431D01*
X148246782Y-92081896D01*
X148318495Y-92034727D01*
X148373311Y-91999502D01*
X148407280Y-91978805D01*
X148416530Y-91974342D01*
X148433195Y-91985820D01*
X148468806Y-92017551D01*
X148519371Y-92065483D01*
X148580900Y-92125562D01*
X148649399Y-92193733D01*
X148720879Y-92265945D01*
X148791347Y-92338142D01*
X148856811Y-92406273D01*
X148913280Y-92466283D01*
X148956763Y-92514119D01*
X148983268Y-92545727D01*
X148989605Y-92556305D01*
X148980486Y-92575806D01*
X148954920Y-92618531D01*
X148915597Y-92680298D01*
X148865203Y-92756931D01*
X148806427Y-92844248D01*
X148772368Y-92894052D01*
X148710289Y-92984993D01*
X148655126Y-93067059D01*
X148609554Y-93136163D01*
X148576250Y-93188222D01*
X148557890Y-93219150D01*
X148555131Y-93225650D01*
X148561385Y-93244121D01*
X148578434Y-93287172D01*
X148603703Y-93348749D01*
X148634622Y-93422799D01*
X148668618Y-93503270D01*
X148703118Y-93584107D01*
X148735551Y-93659258D01*
X148763343Y-93722671D01*
X148783923Y-93768293D01*
X148794719Y-93790069D01*
X148795356Y-93790926D01*
X148812307Y-93795084D01*
X148857451Y-93804361D01*
X148926110Y-93817844D01*
X149013602Y-93834621D01*
X149115250Y-93853781D01*
X149174556Y-93864830D01*
X149283172Y-93885510D01*
X149381277Y-93905189D01*
X149463909Y-93922789D01*
X149526104Y-93937233D01*
X149562899Y-93947446D01*
X149570296Y-93950686D01*
X149577540Y-93972617D01*
X149583385Y-94022147D01*
X149587835Y-94093485D01*
X149590893Y-94180839D01*
X149592565Y-94278417D01*
X149592853Y-94380426D01*
X149591761Y-94481075D01*
X149589294Y-94574572D01*
X149585456Y-94655125D01*
X149580250Y-94716942D01*
X149573681Y-94754230D01*
X149569741Y-94761993D01*
X149546188Y-94771298D01*
X149496282Y-94784600D01*
X149426623Y-94800337D01*
X149343813Y-94816946D01*
X149314905Y-94822319D01*
X149175531Y-94847848D01*
X149065436Y-94868408D01*
X148980982Y-94884815D01*
X148918530Y-94897887D01*
X148874444Y-94908441D01*
X148845085Y-94917294D01*
X148826815Y-94925263D01*
X148815998Y-94933165D01*
X148814485Y-94934727D01*
X148799377Y-94959886D01*
X148776329Y-95008850D01*
X148747644Y-95075621D01*
X148715622Y-95154205D01*
X148682565Y-95238607D01*
X148650773Y-95322830D01*
X148622549Y-95400879D01*
X148600193Y-95466759D01*
X148586007Y-95514473D01*
X148582293Y-95538027D01*
X148582602Y-95538852D01*
X148595189Y-95558104D01*
X148623744Y-95600463D01*
X148665267Y-95661521D01*
X148716756Y-95736868D01*
X148775211Y-95822096D01*
X148791858Y-95846315D01*
X148851215Y-95934123D01*
X148903447Y-96014238D01*
X148945708Y-96082062D01*
X148975153Y-96132993D01*
X148988937Y-96162431D01*
X148989605Y-96166048D01*
X148978024Y-96185057D01*
X148946024Y-96222714D01*
X148897718Y-96274973D01*
X148837220Y-96337786D01*
X148768644Y-96407106D01*
X148696104Y-96478885D01*
X148623712Y-96549077D01*
X148555584Y-96613635D01*
X148495832Y-96668510D01*
X148448571Y-96709656D01*
X148417913Y-96733026D01*
X148409432Y-96736842D01*
X148389691Y-96727855D01*
X148349274Y-96703616D01*
X148294763Y-96668209D01*
X148252823Y-96639711D01*
X148176829Y-96587418D01*
X148086834Y-96525845D01*
X147996564Y-96464370D01*
X147948032Y-96431469D01*
X147783762Y-96320359D01*
X147645869Y-96394916D01*
X147583049Y-96427578D01*
X147529629Y-96452966D01*
X147493484Y-96467446D01*
X147484284Y-96469460D01*
X147473221Y-96454584D01*
X147451394Y-96412547D01*
X147420434Y-96347227D01*
X147381970Y-96262500D01*
X147337632Y-96162245D01*
X147289047Y-96050339D01*
X147237846Y-95930659D01*
X147185659Y-95807084D01*
X147134113Y-95683491D01*
X147084840Y-95563757D01*
X147039467Y-95451759D01*
X146999625Y-95351377D01*
X146966942Y-95266486D01*
X146943049Y-95200965D01*
X146929574Y-95158690D01*
X146927406Y-95144172D01*
X146944583Y-95125653D01*
X146982190Y-95095590D01*
X147032366Y-95060232D01*
X147036578Y-95057434D01*
X147166264Y-94953625D01*
X147270834Y-94832515D01*
X147349381Y-94697976D01*
X147400999Y-94553882D01*
X147424782Y-94404105D01*
X147419823Y-94252517D01*
X147385217Y-94102992D01*
X147320057Y-93959400D01*
X147300886Y-93927984D01*
X147201174Y-93801125D01*
X147083377Y-93699255D01*
X146951571Y-93622904D01*
X146809833Y-93572602D01*
X146662242Y-93548879D01*
X146512873Y-93552265D01*
X146365803Y-93583288D01*
X146225111Y-93642480D01*
X146094873Y-93730369D01*
X146054586Y-93766042D01*
X145952055Y-93877706D01*
X145877341Y-93995257D01*
X145826090Y-94127020D01*
X145797546Y-94257507D01*
X145790500Y-94404216D01*
X145813996Y-94551653D01*
X145865649Y-94694834D01*
X145943071Y-94828777D01*
X146043875Y-94948498D01*
X146165676Y-95049014D01*
X146181684Y-95059609D01*
X146232398Y-95094306D01*
X146270950Y-95124370D01*
X146289381Y-95143565D01*
X146289649Y-95144172D01*
X146285692Y-95164936D01*
X146270007Y-95212062D01*
X146244222Y-95281673D01*
X146209969Y-95369893D01*
X146168877Y-95472844D01*
X146122576Y-95586650D01*
X146072696Y-95707435D01*
X146020867Y-95831321D01*
X145968719Y-95954432D01*
X145917882Y-96072891D01*
X145869987Y-96182823D01*
X145826662Y-96280349D01*
X145789538Y-96361593D01*
X145760244Y-96422679D01*
X145740412Y-96459730D01*
X145732426Y-96469460D01*
X145708021Y-96461883D01*
X145662358Y-96441560D01*
X145603310Y-96412125D01*
X145570840Y-96394916D01*
X145432947Y-96320359D01*
X145268677Y-96431469D01*
X145184821Y-96488390D01*
X145093013Y-96551030D01*
X145006980Y-96610011D01*
X144963887Y-96639711D01*
X144903277Y-96680410D01*
X144851955Y-96712663D01*
X144816615Y-96732384D01*
X144805137Y-96736554D01*
X144788430Y-96725307D01*
X144751454Y-96693911D01*
X144697795Y-96645624D01*
X144631038Y-96583708D01*
X144554766Y-96511421D01*
X144506527Y-96465008D01*
X144422133Y-96382087D01*
X144349197Y-96307920D01*
X144290669Y-96245680D01*
X144249497Y-96198541D01*
X144228628Y-96169673D01*
X144226626Y-96163815D01*
X144235917Y-96141532D01*
X144261591Y-96096477D01*
X144300800Y-96033211D01*
X144350697Y-95956295D01*
X144408433Y-95870292D01*
X144424851Y-95846315D01*
X144484677Y-95759170D01*
X144538350Y-95680710D01*
X144582870Y-95615345D01*
X144615235Y-95567484D01*
X144632445Y-95541535D01*
X144634107Y-95538852D01*
X144631621Y-95518172D01*
X144618423Y-95472704D01*
X144596814Y-95408444D01*
X144569096Y-95331387D01*
X144537570Y-95247529D01*
X144504537Y-95162866D01*
X144472299Y-95083392D01*
X144443157Y-95015104D01*
X144419412Y-94963997D01*
X144403365Y-94936067D01*
X144402225Y-94934727D01*
X144392412Y-94926745D01*
X144375839Y-94918851D01*
X144348868Y-94910229D01*
X144307861Y-94900062D01*
X144249180Y-94887531D01*
X144169187Y-94871821D01*
X144064245Y-94852113D01*
X143930715Y-94827592D01*
X143901804Y-94822319D01*
X143816118Y-94805764D01*
X143741418Y-94789569D01*
X143684306Y-94775296D01*
X143651383Y-94764508D01*
X143646969Y-94761993D01*
X143639694Y-94739696D01*
X143633781Y-94689869D01*
X143629234Y-94618304D01*
X143626055Y-94530793D01*
X143624251Y-94433128D01*
X143623823Y-94331101D01*
X143624777Y-94230503D01*
X143627116Y-94137127D01*
X143630844Y-94056765D01*
X143635966Y-93995209D01*
X143642484Y-93958250D01*
X143646414Y-93950686D01*
X143668292Y-93943056D01*
X143718109Y-93930642D01*
X143790903Y-93914522D01*
X143881711Y-93895773D01*
X143985569Y-93875471D01*
X144042154Y-93864830D01*
X144149514Y-93844760D01*
X144245254Y-93826580D01*
X144324694Y-93811199D01*
X144383154Y-93799531D01*
X144415955Y-93792488D01*
X144421354Y-93790926D01*
X144430478Y-93773322D01*
X144449765Y-93730918D01*
X144476645Y-93669772D01*
X144508546Y-93595943D01*
X144542898Y-93515489D01*
X144577129Y-93434468D01*
X144608669Y-93358937D01*
X144634946Y-93294955D01*
X144653389Y-93248580D01*
X144661429Y-93225869D01*
X144661578Y-93224876D01*
X144652465Y-93206961D01*
X144626914Y-93165733D01*
X144587612Y-93105291D01*
X144537243Y-93029731D01*
X144478494Y-92943152D01*
X144444342Y-92893421D01*
X144382110Y-92802236D01*
X144326836Y-92719449D01*
X144281218Y-92649249D01*
X144247952Y-92595824D01*
X144229736Y-92563361D01*
X144227105Y-92556083D01*
X144238414Y-92539145D01*
X144269681Y-92502978D01*
X144316910Y-92451635D01*
X144376108Y-92389167D01*
X144443281Y-92319626D01*
X144514434Y-92247065D01*
X144585574Y-92175535D01*
X144652707Y-92109087D01*
X144711839Y-92051774D01*
X144758975Y-92007647D01*
X144790123Y-91980759D01*
X144800543Y-91974342D01*
X144817509Y-91983365D01*
X144858089Y-92008715D01*
X144918337Y-92047810D01*
X144994307Y-92098071D01*
X145082054Y-92156917D01*
X145148244Y-92201748D01*
X145482668Y-92429154D01*
X145761433Y-92314238D01*
X146040197Y-92199322D01*
X146115746Y-91798576D01*
X146191294Y-91397829D01*
X147025415Y-91397829D01*
X147100964Y-91798576D01*
G37*
X147100964Y-91798576D02*
X147176513Y-92199322D01*
X147734041Y-92429154D01*
X148068465Y-92201748D01*
X148162122Y-92138431D01*
X148246782Y-92081896D01*
X148318495Y-92034727D01*
X148373311Y-91999502D01*
X148407280Y-91978805D01*
X148416530Y-91974342D01*
X148433195Y-91985820D01*
X148468806Y-92017551D01*
X148519371Y-92065483D01*
X148580900Y-92125562D01*
X148649399Y-92193733D01*
X148720879Y-92265945D01*
X148791347Y-92338142D01*
X148856811Y-92406273D01*
X148913280Y-92466283D01*
X148956763Y-92514119D01*
X148983268Y-92545727D01*
X148989605Y-92556305D01*
X148980486Y-92575806D01*
X148954920Y-92618531D01*
X148915597Y-92680298D01*
X148865203Y-92756931D01*
X148806427Y-92844248D01*
X148772368Y-92894052D01*
X148710289Y-92984993D01*
X148655126Y-93067059D01*
X148609554Y-93136163D01*
X148576250Y-93188222D01*
X148557890Y-93219150D01*
X148555131Y-93225650D01*
X148561385Y-93244121D01*
X148578434Y-93287172D01*
X148603703Y-93348749D01*
X148634622Y-93422799D01*
X148668618Y-93503270D01*
X148703118Y-93584107D01*
X148735551Y-93659258D01*
X148763343Y-93722671D01*
X148783923Y-93768293D01*
X148794719Y-93790069D01*
X148795356Y-93790926D01*
X148812307Y-93795084D01*
X148857451Y-93804361D01*
X148926110Y-93817844D01*
X149013602Y-93834621D01*
X149115250Y-93853781D01*
X149174556Y-93864830D01*
X149283172Y-93885510D01*
X149381277Y-93905189D01*
X149463909Y-93922789D01*
X149526104Y-93937233D01*
X149562899Y-93947446D01*
X149570296Y-93950686D01*
X149577540Y-93972617D01*
X149583385Y-94022147D01*
X149587835Y-94093485D01*
X149590893Y-94180839D01*
X149592565Y-94278417D01*
X149592853Y-94380426D01*
X149591761Y-94481075D01*
X149589294Y-94574572D01*
X149585456Y-94655125D01*
X149580250Y-94716942D01*
X149573681Y-94754230D01*
X149569741Y-94761993D01*
X149546188Y-94771298D01*
X149496282Y-94784600D01*
X149426623Y-94800337D01*
X149343813Y-94816946D01*
X149314905Y-94822319D01*
X149175531Y-94847848D01*
X149065436Y-94868408D01*
X148980982Y-94884815D01*
X148918530Y-94897887D01*
X148874444Y-94908441D01*
X148845085Y-94917294D01*
X148826815Y-94925263D01*
X148815998Y-94933165D01*
X148814485Y-94934727D01*
X148799377Y-94959886D01*
X148776329Y-95008850D01*
X148747644Y-95075621D01*
X148715622Y-95154205D01*
X148682565Y-95238607D01*
X148650773Y-95322830D01*
X148622549Y-95400879D01*
X148600193Y-95466759D01*
X148586007Y-95514473D01*
X148582293Y-95538027D01*
X148582602Y-95538852D01*
X148595189Y-95558104D01*
X148623744Y-95600463D01*
X148665267Y-95661521D01*
X148716756Y-95736868D01*
X148775211Y-95822096D01*
X148791858Y-95846315D01*
X148851215Y-95934123D01*
X148903447Y-96014238D01*
X148945708Y-96082062D01*
X148975153Y-96132993D01*
X148988937Y-96162431D01*
X148989605Y-96166048D01*
X148978024Y-96185057D01*
X148946024Y-96222714D01*
X148897718Y-96274973D01*
X148837220Y-96337786D01*
X148768644Y-96407106D01*
X148696104Y-96478885D01*
X148623712Y-96549077D01*
X148555584Y-96613635D01*
X148495832Y-96668510D01*
X148448571Y-96709656D01*
X148417913Y-96733026D01*
X148409432Y-96736842D01*
X148389691Y-96727855D01*
X148349274Y-96703616D01*
X148294763Y-96668209D01*
X148252823Y-96639711D01*
X148176829Y-96587418D01*
X148086834Y-96525845D01*
X147996564Y-96464370D01*
X147948032Y-96431469D01*
X147783762Y-96320359D01*
X147645869Y-96394916D01*
X147583049Y-96427578D01*
X147529629Y-96452966D01*
X147493484Y-96467446D01*
X147484284Y-96469460D01*
X147473221Y-96454584D01*
X147451394Y-96412547D01*
X147420434Y-96347227D01*
X147381970Y-96262500D01*
X147337632Y-96162245D01*
X147289047Y-96050339D01*
X147237846Y-95930659D01*
X147185659Y-95807084D01*
X147134113Y-95683491D01*
X147084840Y-95563757D01*
X147039467Y-95451759D01*
X146999625Y-95351377D01*
X146966942Y-95266486D01*
X146943049Y-95200965D01*
X146929574Y-95158690D01*
X146927406Y-95144172D01*
X146944583Y-95125653D01*
X146982190Y-95095590D01*
X147032366Y-95060232D01*
X147036578Y-95057434D01*
X147166264Y-94953625D01*
X147270834Y-94832515D01*
X147349381Y-94697976D01*
X147400999Y-94553882D01*
X147424782Y-94404105D01*
X147419823Y-94252517D01*
X147385217Y-94102992D01*
X147320057Y-93959400D01*
X147300886Y-93927984D01*
X147201174Y-93801125D01*
X147083377Y-93699255D01*
X146951571Y-93622904D01*
X146809833Y-93572602D01*
X146662242Y-93548879D01*
X146512873Y-93552265D01*
X146365803Y-93583288D01*
X146225111Y-93642480D01*
X146094873Y-93730369D01*
X146054586Y-93766042D01*
X145952055Y-93877706D01*
X145877341Y-93995257D01*
X145826090Y-94127020D01*
X145797546Y-94257507D01*
X145790500Y-94404216D01*
X145813996Y-94551653D01*
X145865649Y-94694834D01*
X145943071Y-94828777D01*
X146043875Y-94948498D01*
X146165676Y-95049014D01*
X146181684Y-95059609D01*
X146232398Y-95094306D01*
X146270950Y-95124370D01*
X146289381Y-95143565D01*
X146289649Y-95144172D01*
X146285692Y-95164936D01*
X146270007Y-95212062D01*
X146244222Y-95281673D01*
X146209969Y-95369893D01*
X146168877Y-95472844D01*
X146122576Y-95586650D01*
X146072696Y-95707435D01*
X146020867Y-95831321D01*
X145968719Y-95954432D01*
X145917882Y-96072891D01*
X145869987Y-96182823D01*
X145826662Y-96280349D01*
X145789538Y-96361593D01*
X145760244Y-96422679D01*
X145740412Y-96459730D01*
X145732426Y-96469460D01*
X145708021Y-96461883D01*
X145662358Y-96441560D01*
X145603310Y-96412125D01*
X145570840Y-96394916D01*
X145432947Y-96320359D01*
X145268677Y-96431469D01*
X145184821Y-96488390D01*
X145093013Y-96551030D01*
X145006980Y-96610011D01*
X144963887Y-96639711D01*
X144903277Y-96680410D01*
X144851955Y-96712663D01*
X144816615Y-96732384D01*
X144805137Y-96736554D01*
X144788430Y-96725307D01*
X144751454Y-96693911D01*
X144697795Y-96645624D01*
X144631038Y-96583708D01*
X144554766Y-96511421D01*
X144506527Y-96465008D01*
X144422133Y-96382087D01*
X144349197Y-96307920D01*
X144290669Y-96245680D01*
X144249497Y-96198541D01*
X144228628Y-96169673D01*
X144226626Y-96163815D01*
X144235917Y-96141532D01*
X144261591Y-96096477D01*
X144300800Y-96033211D01*
X144350697Y-95956295D01*
X144408433Y-95870292D01*
X144424851Y-95846315D01*
X144484677Y-95759170D01*
X144538350Y-95680710D01*
X144582870Y-95615345D01*
X144615235Y-95567484D01*
X144632445Y-95541535D01*
X144634107Y-95538852D01*
X144631621Y-95518172D01*
X144618423Y-95472704D01*
X144596814Y-95408444D01*
X144569096Y-95331387D01*
X144537570Y-95247529D01*
X144504537Y-95162866D01*
X144472299Y-95083392D01*
X144443157Y-95015104D01*
X144419412Y-94963997D01*
X144403365Y-94936067D01*
X144402225Y-94934727D01*
X144392412Y-94926745D01*
X144375839Y-94918851D01*
X144348868Y-94910229D01*
X144307861Y-94900062D01*
X144249180Y-94887531D01*
X144169187Y-94871821D01*
X144064245Y-94852113D01*
X143930715Y-94827592D01*
X143901804Y-94822319D01*
X143816118Y-94805764D01*
X143741418Y-94789569D01*
X143684306Y-94775296D01*
X143651383Y-94764508D01*
X143646969Y-94761993D01*
X143639694Y-94739696D01*
X143633781Y-94689869D01*
X143629234Y-94618304D01*
X143626055Y-94530793D01*
X143624251Y-94433128D01*
X143623823Y-94331101D01*
X143624777Y-94230503D01*
X143627116Y-94137127D01*
X143630844Y-94056765D01*
X143635966Y-93995209D01*
X143642484Y-93958250D01*
X143646414Y-93950686D01*
X143668292Y-93943056D01*
X143718109Y-93930642D01*
X143790903Y-93914522D01*
X143881711Y-93895773D01*
X143985569Y-93875471D01*
X144042154Y-93864830D01*
X144149514Y-93844760D01*
X144245254Y-93826580D01*
X144324694Y-93811199D01*
X144383154Y-93799531D01*
X144415955Y-93792488D01*
X144421354Y-93790926D01*
X144430478Y-93773322D01*
X144449765Y-93730918D01*
X144476645Y-93669772D01*
X144508546Y-93595943D01*
X144542898Y-93515489D01*
X144577129Y-93434468D01*
X144608669Y-93358937D01*
X144634946Y-93294955D01*
X144653389Y-93248580D01*
X144661429Y-93225869D01*
X144661578Y-93224876D01*
X144652465Y-93206961D01*
X144626914Y-93165733D01*
X144587612Y-93105291D01*
X144537243Y-93029731D01*
X144478494Y-92943152D01*
X144444342Y-92893421D01*
X144382110Y-92802236D01*
X144326836Y-92719449D01*
X144281218Y-92649249D01*
X144247952Y-92595824D01*
X144229736Y-92563361D01*
X144227105Y-92556083D01*
X144238414Y-92539145D01*
X144269681Y-92502978D01*
X144316910Y-92451635D01*
X144376108Y-92389167D01*
X144443281Y-92319626D01*
X144514434Y-92247065D01*
X144585574Y-92175535D01*
X144652707Y-92109087D01*
X144711839Y-92051774D01*
X144758975Y-92007647D01*
X144790123Y-91980759D01*
X144800543Y-91974342D01*
X144817509Y-91983365D01*
X144858089Y-92008715D01*
X144918337Y-92047810D01*
X144994307Y-92098071D01*
X145082054Y-92156917D01*
X145148244Y-92201748D01*
X145482668Y-92429154D01*
X145761433Y-92314238D01*
X146040197Y-92199322D01*
X146115746Y-91798576D01*
X146191294Y-91397829D01*
X147025415Y-91397829D01*
X147100964Y-91798576D01*
%TO.C,G\u002A\u002A\u002A*%
G36*
X138399599Y-85561525D02*
G01*
X138425108Y-85630789D01*
X138447951Y-85746661D01*
X138464148Y-85890195D01*
X138469560Y-86005916D01*
X138476974Y-86109987D01*
X138509601Y-86154616D01*
X138589576Y-86164970D01*
X138609583Y-86165132D01*
X138757475Y-86172695D01*
X138898216Y-86191415D01*
X139007850Y-86216793D01*
X139062422Y-86244332D01*
X139064666Y-86250575D01*
X139026030Y-86270538D01*
X138924423Y-86292362D01*
X138781300Y-86311514D01*
X138771762Y-86312488D01*
X138478857Y-86341904D01*
X138448904Y-86560202D01*
X138425776Y-86702783D01*
X138400544Y-86820594D01*
X138388864Y-86860045D01*
X138364616Y-86911491D01*
X138345833Y-86888976D01*
X138331300Y-86838878D01*
X138314134Y-86732579D01*
X138304186Y-86589860D01*
X138303244Y-86539794D01*
X138303732Y-86452449D01*
X138296259Y-86393790D01*
X138266494Y-86355394D01*
X138200111Y-86328837D01*
X138082779Y-86305693D01*
X137900170Y-86277540D01*
X137842038Y-86268639D01*
X137736003Y-86241015D01*
X137708496Y-86209126D01*
X137754333Y-86181376D01*
X137868328Y-86166167D01*
X137905791Y-86165314D01*
X138050060Y-86155998D01*
X138164780Y-86139327D01*
X138235818Y-86119319D01*
X138277000Y-86080647D01*
X138300397Y-86001343D01*
X138317966Y-85860559D01*
X138337089Y-85716548D01*
X138359354Y-85604399D01*
X138375407Y-85557815D01*
X138399599Y-85561525D01*
G37*
X138399599Y-85561525D02*
X138425108Y-85630789D01*
X138447951Y-85746661D01*
X138464148Y-85890195D01*
X138469560Y-86005916D01*
X138476974Y-86109987D01*
X138509601Y-86154616D01*
X138589576Y-86164970D01*
X138609583Y-86165132D01*
X138757475Y-86172695D01*
X138898216Y-86191415D01*
X139007850Y-86216793D01*
X139062422Y-86244332D01*
X139064666Y-86250575D01*
X139026030Y-86270538D01*
X138924423Y-86292362D01*
X138781300Y-86311514D01*
X138771762Y-86312488D01*
X138478857Y-86341904D01*
X138448904Y-86560202D01*
X138425776Y-86702783D01*
X138400544Y-86820594D01*
X138388864Y-86860045D01*
X138364616Y-86911491D01*
X138345833Y-86888976D01*
X138331300Y-86838878D01*
X138314134Y-86732579D01*
X138304186Y-86589860D01*
X138303244Y-86539794D01*
X138303732Y-86452449D01*
X138296259Y-86393790D01*
X138266494Y-86355394D01*
X138200111Y-86328837D01*
X138082779Y-86305693D01*
X137900170Y-86277540D01*
X137842038Y-86268639D01*
X137736003Y-86241015D01*
X137708496Y-86209126D01*
X137754333Y-86181376D01*
X137868328Y-86166167D01*
X137905791Y-86165314D01*
X138050060Y-86155998D01*
X138164780Y-86139327D01*
X138235818Y-86119319D01*
X138277000Y-86080647D01*
X138300397Y-86001343D01*
X138317966Y-85860559D01*
X138337089Y-85716548D01*
X138359354Y-85604399D01*
X138375407Y-85557815D01*
X138399599Y-85561525D01*
G36*
X139826666Y-79899333D02*
G01*
X138488981Y-79899333D01*
X138106005Y-79899876D01*
X137798350Y-79901790D01*
X137556675Y-79905500D01*
X137371641Y-79911431D01*
X137233905Y-79920009D01*
X137134128Y-79931658D01*
X137062968Y-79946804D01*
X137011086Y-79965873D01*
X137009319Y-79966705D01*
X136878689Y-80070426D01*
X136805559Y-80216380D01*
X136792357Y-80382493D01*
X136841511Y-80546688D01*
X136932356Y-80666600D01*
X136966108Y-80696500D01*
X137003089Y-80720001D01*
X137053559Y-80738097D01*
X137127778Y-80751780D01*
X137236006Y-80762045D01*
X137388503Y-80769884D01*
X137595531Y-80776292D01*
X137867347Y-80782261D01*
X138189577Y-80788333D01*
X138531912Y-80794843D01*
X138800553Y-80800977D01*
X139006459Y-80807773D01*
X139160591Y-80816273D01*
X139273908Y-80827514D01*
X139357371Y-80842536D01*
X139421939Y-80862379D01*
X139478574Y-80888082D01*
X139528694Y-80915333D01*
X139740513Y-81080063D01*
X139889864Y-81298774D01*
X139973720Y-81565153D01*
X139989052Y-81872888D01*
X139988929Y-81874877D01*
X139981319Y-82000133D01*
X139976731Y-82082139D01*
X139976054Y-82100724D01*
X140012504Y-82085566D01*
X140107868Y-82045499D01*
X140243060Y-81988546D01*
X140272387Y-81976177D01*
X140567500Y-81851687D01*
X140584394Y-79899333D01*
X141223666Y-79899333D01*
X141223666Y-80548444D01*
X141225418Y-80774796D01*
X141230249Y-80970543D01*
X141237519Y-81120363D01*
X141246591Y-81208932D01*
X141251888Y-81225777D01*
X141302421Y-81236248D01*
X141421219Y-81245246D01*
X141591881Y-81251954D01*
X141798009Y-81255553D01*
X141855138Y-81255878D01*
X142104135Y-81254097D01*
X142312191Y-81244801D01*
X142507641Y-81224794D01*
X142718817Y-81190881D01*
X142974051Y-81139864D01*
X143074793Y-81118294D01*
X143319196Y-81064794D01*
X143493916Y-81023670D01*
X143612127Y-80989895D01*
X143687007Y-80958444D01*
X143731729Y-80924290D01*
X143759470Y-80882407D01*
X143773293Y-80851833D01*
X143816681Y-80668629D01*
X143816302Y-80458183D01*
X143773796Y-80263760D01*
X143748833Y-80206665D01*
X143661345Y-80095818D01*
X143536591Y-79998849D01*
X143510480Y-79984415D01*
X143453066Y-79957963D01*
X143389908Y-79937613D01*
X143309591Y-79922575D01*
X143200699Y-79912056D01*
X143051813Y-79905264D01*
X142851519Y-79901408D01*
X142588398Y-79899695D01*
X142283686Y-79899333D01*
X141223666Y-79899333D01*
X140584394Y-79899333D01*
X140589890Y-79264333D01*
X141999761Y-79264333D01*
X142422849Y-79265027D01*
X142770831Y-79267909D01*
X143053263Y-79274173D01*
X143279698Y-79285018D01*
X143459693Y-79301639D01*
X143602802Y-79325234D01*
X143718580Y-79357000D01*
X143816582Y-79398132D01*
X143906363Y-79449827D01*
X143997478Y-79513283D01*
X143999524Y-79514786D01*
X144118949Y-79626619D01*
X144236991Y-79774854D01*
X144293472Y-79865439D01*
X144358282Y-79998982D01*
X144398643Y-80128650D01*
X144421904Y-80285649D01*
X144433545Y-80460250D01*
X144441405Y-80632661D01*
X144455289Y-80744223D01*
X144490402Y-80805224D01*
X144561951Y-80825952D01*
X144685145Y-80816696D01*
X144875188Y-80787743D01*
X144909761Y-80782434D01*
X145230355Y-80733643D01*
X145268757Y-80630672D01*
X145919000Y-80630672D01*
X146079583Y-80604135D01*
X146216525Y-80585861D01*
X146336436Y-80576674D01*
X146346000Y-80576484D01*
X146459709Y-80565305D01*
X146515611Y-80525333D01*
X146519030Y-80442352D01*
X146475292Y-80302147D01*
X146461850Y-80267251D01*
X146382392Y-80106107D01*
X146299157Y-80010116D01*
X146219773Y-79986062D01*
X146174473Y-80011593D01*
X146142722Y-80066755D01*
X146092657Y-80178508D01*
X146034556Y-80323749D01*
X146028735Y-80339134D01*
X145919000Y-80630672D01*
X145268757Y-80630672D01*
X145431726Y-80193690D01*
X145543590Y-79911750D01*
X145646289Y-79702113D01*
X145750137Y-79554687D01*
X145865450Y-79459379D01*
X146002540Y-79406095D01*
X146171724Y-79384745D01*
X146260376Y-79382866D01*
X146512694Y-79411542D01*
X146709490Y-79495796D01*
X146831185Y-79613341D01*
X146877331Y-79696866D01*
X146940592Y-79834194D01*
X147009271Y-79999514D01*
X147027954Y-80047500D01*
X147090640Y-80205563D01*
X147145098Y-80332957D01*
X147182339Y-80408999D01*
X147189738Y-80419756D01*
X147243275Y-80429436D01*
X147360005Y-80427315D01*
X147519395Y-80414178D01*
X147608385Y-80403760D01*
X147995026Y-80354176D01*
X148118898Y-80137338D01*
X148339513Y-79833737D01*
X148616616Y-79589572D01*
X148940327Y-79411845D01*
X149285358Y-79310309D01*
X149399480Y-79297232D01*
X149582720Y-79285602D01*
X149819535Y-79275976D01*
X150094379Y-79268912D01*
X150391709Y-79264970D01*
X150565941Y-79264333D01*
X151595333Y-79264333D01*
X151595333Y-79899333D01*
X150565850Y-79899333D01*
X150181794Y-79901213D01*
X149871721Y-79907996D01*
X149625008Y-79921393D01*
X149431032Y-79943115D01*
X149279168Y-79974874D01*
X149158795Y-80018383D01*
X149059287Y-80075352D01*
X148970023Y-80147493D01*
X148958334Y-80158340D01*
X148822500Y-80286029D01*
X149161166Y-80261480D01*
X149440890Y-80242513D01*
X149783789Y-80221337D01*
X150168436Y-80199133D01*
X150573408Y-80177080D01*
X150977281Y-80156361D01*
X151358628Y-80138154D01*
X151563583Y-80129103D01*
X152230333Y-80100742D01*
X152230333Y-79264333D01*
X155447666Y-79264333D01*
X155447666Y-79899333D01*
X152865333Y-79899333D01*
X152865333Y-80097984D01*
X154272916Y-80125095D01*
X154796634Y-80136631D01*
X155243809Y-80149879D01*
X155622555Y-80165427D01*
X155940988Y-80183865D01*
X156207224Y-80205782D01*
X156429377Y-80231766D01*
X156615564Y-80262406D01*
X156773899Y-80298291D01*
X156815030Y-80309553D01*
X157077500Y-80384301D01*
X156887000Y-80413846D01*
X156770549Y-80425528D01*
X156593293Y-80435640D01*
X156379091Y-80443117D01*
X156151800Y-80446893D01*
X156146166Y-80446931D01*
X155901122Y-80450641D01*
X155589732Y-80458643D01*
X155230167Y-80470220D01*
X154840599Y-80484653D01*
X154439199Y-80501222D01*
X154044139Y-80519210D01*
X153673591Y-80537898D01*
X153345726Y-80556568D01*
X153296988Y-80559597D01*
X153101466Y-80572953D01*
X152975858Y-80586062D01*
X152905522Y-80602990D01*
X152875815Y-80627802D01*
X152872094Y-80664563D01*
X152873655Y-80677127D01*
X152879323Y-80703213D01*
X152894169Y-80723802D01*
X152927407Y-80739651D01*
X152988248Y-80751520D01*
X153085904Y-80760168D01*
X153229589Y-80766351D01*
X153428514Y-80770830D01*
X153691892Y-80774363D01*
X154028935Y-80777708D01*
X154103583Y-80778399D01*
X155320666Y-80789631D01*
X155320666Y-81296333D01*
X152865333Y-81296333D01*
X152865333Y-82227666D01*
X155447666Y-82227666D01*
X155447666Y-82862666D01*
X152230333Y-82862666D01*
X152230333Y-80614795D01*
X151986916Y-80638777D01*
X151865858Y-80649981D01*
X151679116Y-80666375D01*
X151445403Y-80686355D01*
X151183429Y-80708321D01*
X150939166Y-80728447D01*
X150617072Y-80756173D01*
X150258321Y-80789389D01*
X149897126Y-80824785D01*
X149567702Y-80859051D01*
X149415223Y-80875901D01*
X149173036Y-80902943D01*
X148956649Y-80926211D01*
X148781605Y-80944103D01*
X148663445Y-80955020D01*
X148621473Y-80957666D01*
X148575756Y-80973302D01*
X148553409Y-81033278D01*
X148547338Y-81157199D01*
X148547333Y-81162571D01*
X148575943Y-81357460D01*
X148652009Y-81572923D01*
X148760889Y-81778355D01*
X148887937Y-81943148D01*
X148945423Y-81994593D01*
X149039855Y-82061912D01*
X149134012Y-82114962D01*
X149239217Y-82155418D01*
X149366795Y-82184956D01*
X149528069Y-82205250D01*
X149734365Y-82217975D01*
X149997006Y-82224806D01*
X150327317Y-82227418D01*
X150521155Y-82227666D01*
X151595333Y-82227666D01*
X151595333Y-82867502D01*
X150397046Y-82854501D01*
X149198758Y-82841500D01*
X148875811Y-82681804D01*
X148557505Y-82480102D01*
X148295497Y-82222007D01*
X148096939Y-81917617D01*
X147968986Y-81577026D01*
X147927283Y-81343101D01*
X147899277Y-81075149D01*
X147693207Y-81094949D01*
X147569814Y-81110017D01*
X147486456Y-81126201D01*
X147468216Y-81133671D01*
X147476766Y-81177156D01*
X147511723Y-81287220D01*
X147568793Y-81451540D01*
X147643679Y-81657794D01*
X147732086Y-81893656D01*
X147744314Y-81925761D01*
X147835384Y-82166371D01*
X147915041Y-82380534D01*
X147978646Y-82555470D01*
X148021560Y-82678402D01*
X148039144Y-82736551D01*
X148039333Y-82738464D01*
X148000488Y-82757482D01*
X147897842Y-82771493D01*
X147752227Y-82777865D01*
X147726362Y-82778000D01*
X147559352Y-82774625D01*
X147458363Y-82761832D01*
X147404921Y-82735616D01*
X147384609Y-82703916D01*
X147360565Y-82641026D01*
X147312174Y-82513695D01*
X147245035Y-82336678D01*
X147164743Y-82124731D01*
X147099555Y-81952500D01*
X147013836Y-81728467D01*
X146937154Y-81532793D01*
X146874938Y-81378957D01*
X146832616Y-81280437D01*
X146816892Y-81250649D01*
X146767962Y-81249162D01*
X146651614Y-81261844D01*
X146483507Y-81286544D01*
X146279301Y-81321106D01*
X146201217Y-81335316D01*
X145611935Y-81444500D01*
X145358825Y-82111250D01*
X145105714Y-82778000D01*
X144794524Y-82778000D01*
X144618840Y-82772911D01*
X144518561Y-82756654D01*
X144484983Y-82727739D01*
X144484909Y-82725083D01*
X144500100Y-82667701D01*
X144540577Y-82547925D01*
X144600546Y-82382116D01*
X144674214Y-82186638D01*
X144691017Y-82143000D01*
X144765306Y-81947600D01*
X144825696Y-81782595D01*
X144866908Y-81662890D01*
X144883664Y-81603387D01*
X144883432Y-81599685D01*
X144836254Y-81601276D01*
X144718852Y-81623660D01*
X144542270Y-81663879D01*
X144317552Y-81718975D01*
X144055743Y-81785991D01*
X143767886Y-81861970D01*
X143465024Y-81943954D01*
X143158202Y-82028986D01*
X142858464Y-82114109D01*
X142576853Y-82196365D01*
X142324414Y-82272797D01*
X142112191Y-82340448D01*
X142091500Y-82347318D01*
X141809945Y-82441731D01*
X141598581Y-82514541D01*
X141447143Y-82570510D01*
X141345364Y-82614400D01*
X141282978Y-82650972D01*
X141249720Y-82684989D01*
X141235323Y-82721211D01*
X141231438Y-82746250D01*
X141219287Y-82810542D01*
X141187771Y-82845358D01*
X141115974Y-82859721D01*
X140982982Y-82862654D01*
X140961599Y-82862666D01*
X140801105Y-82876188D01*
X140619643Y-82919509D01*
X140406682Y-82996759D01*
X140151691Y-83112069D01*
X139844142Y-83269570D01*
X139636166Y-83382635D01*
X139017897Y-83753197D01*
X138483118Y-84135714D01*
X138031444Y-84530604D01*
X137662488Y-84938292D01*
X137375862Y-85359198D01*
X137171180Y-85793744D01*
X137057161Y-86194583D01*
X137009070Y-86434654D01*
X136895885Y-86182444D01*
X136758964Y-85779873D01*
X136706359Y-85370963D01*
X136738038Y-84956731D01*
X136853970Y-84538195D01*
X136953378Y-84307061D01*
X137051859Y-84119479D01*
X137157914Y-83956955D01*
X137290207Y-83794358D01*
X137467401Y-83606559D01*
X137492241Y-83581464D01*
X137662729Y-83417454D01*
X137841254Y-83258310D01*
X138004340Y-83124333D01*
X138108556Y-83048495D01*
X138358945Y-82883833D01*
X137272472Y-82872535D01*
X136186000Y-82861237D01*
X136186000Y-82227666D01*
X137614750Y-82227042D01*
X138039148Y-82225919D01*
X138385111Y-82222811D01*
X138658852Y-82217505D01*
X138866584Y-82209783D01*
X139014520Y-82199431D01*
X139108874Y-82186232D01*
X139149333Y-82173791D01*
X139236915Y-82101544D01*
X139318343Y-81990193D01*
X139331550Y-81965232D01*
X139379371Y-81842125D01*
X139382287Y-81731047D01*
X139361638Y-81637369D01*
X139335420Y-81549248D01*
X139303247Y-81478995D01*
X139255833Y-81424373D01*
X139183893Y-81383143D01*
X139078140Y-81353070D01*
X138929290Y-81331915D01*
X138728056Y-81317442D01*
X138465153Y-81307412D01*
X138131295Y-81299590D01*
X137944782Y-81295993D01*
X137584053Y-81288778D01*
X137297161Y-81280873D01*
X137073290Y-81270280D01*
X136901620Y-81255000D01*
X136771333Y-81233035D01*
X136671611Y-81202385D01*
X136591635Y-81161052D01*
X136520588Y-81107038D01*
X136447651Y-81038342D01*
X136424280Y-81015068D01*
X136261314Y-80797423D01*
X136162941Y-80546625D01*
X136129168Y-80280096D01*
X136159998Y-80015256D01*
X136255436Y-79769526D01*
X136415486Y-79560328D01*
X136423913Y-79552329D01*
X136498017Y-79485133D01*
X136568857Y-79430263D01*
X136645662Y-79386382D01*
X136737662Y-79352152D01*
X136854088Y-79326235D01*
X137004171Y-79307294D01*
X137197139Y-79293991D01*
X137442224Y-79284989D01*
X137748655Y-79278951D01*
X138125663Y-79274538D01*
X138355583Y-79272416D01*
X139826666Y-79259333D01*
X139826666Y-79899333D01*
G37*
X139826666Y-79899333D02*
X138488981Y-79899333D01*
X138106005Y-79899876D01*
X137798350Y-79901790D01*
X137556675Y-79905500D01*
X137371641Y-79911431D01*
X137233905Y-79920009D01*
X137134128Y-79931658D01*
X137062968Y-79946804D01*
X137011086Y-79965873D01*
X137009319Y-79966705D01*
X136878689Y-80070426D01*
X136805559Y-80216380D01*
X136792357Y-80382493D01*
X136841511Y-80546688D01*
X136932356Y-80666600D01*
X136966108Y-80696500D01*
X137003089Y-80720001D01*
X137053559Y-80738097D01*
X137127778Y-80751780D01*
X137236006Y-80762045D01*
X137388503Y-80769884D01*
X137595531Y-80776292D01*
X137867347Y-80782261D01*
X138189577Y-80788333D01*
X138531912Y-80794843D01*
X138800553Y-80800977D01*
X139006459Y-80807773D01*
X139160591Y-80816273D01*
X139273908Y-80827514D01*
X139357371Y-80842536D01*
X139421939Y-80862379D01*
X139478574Y-80888082D01*
X139528694Y-80915333D01*
X139740513Y-81080063D01*
X139889864Y-81298774D01*
X139973720Y-81565153D01*
X139989052Y-81872888D01*
X139988929Y-81874877D01*
X139981319Y-82000133D01*
X139976731Y-82082139D01*
X139976054Y-82100724D01*
X140012504Y-82085566D01*
X140107868Y-82045499D01*
X140243060Y-81988546D01*
X140272387Y-81976177D01*
X140567500Y-81851687D01*
X140584394Y-79899333D01*
X141223666Y-79899333D01*
X141223666Y-80548444D01*
X141225418Y-80774796D01*
X141230249Y-80970543D01*
X141237519Y-81120363D01*
X141246591Y-81208932D01*
X141251888Y-81225777D01*
X141302421Y-81236248D01*
X141421219Y-81245246D01*
X141591881Y-81251954D01*
X141798009Y-81255553D01*
X141855138Y-81255878D01*
X142104135Y-81254097D01*
X142312191Y-81244801D01*
X142507641Y-81224794D01*
X142718817Y-81190881D01*
X142974051Y-81139864D01*
X143074793Y-81118294D01*
X143319196Y-81064794D01*
X143493916Y-81023670D01*
X143612127Y-80989895D01*
X143687007Y-80958444D01*
X143731729Y-80924290D01*
X143759470Y-80882407D01*
X143773293Y-80851833D01*
X143816681Y-80668629D01*
X143816302Y-80458183D01*
X143773796Y-80263760D01*
X143748833Y-80206665D01*
X143661345Y-80095818D01*
X143536591Y-79998849D01*
X143510480Y-79984415D01*
X143453066Y-79957963D01*
X143389908Y-79937613D01*
X143309591Y-79922575D01*
X143200699Y-79912056D01*
X143051813Y-79905264D01*
X142851519Y-79901408D01*
X142588398Y-79899695D01*
X142283686Y-79899333D01*
X141223666Y-79899333D01*
X140584394Y-79899333D01*
X140589890Y-79264333D01*
X141999761Y-79264333D01*
X142422849Y-79265027D01*
X142770831Y-79267909D01*
X143053263Y-79274173D01*
X143279698Y-79285018D01*
X143459693Y-79301639D01*
X143602802Y-79325234D01*
X143718580Y-79357000D01*
X143816582Y-79398132D01*
X143906363Y-79449827D01*
X143997478Y-79513283D01*
X143999524Y-79514786D01*
X144118949Y-79626619D01*
X144236991Y-79774854D01*
X144293472Y-79865439D01*
X144358282Y-79998982D01*
X144398643Y-80128650D01*
X144421904Y-80285649D01*
X144433545Y-80460250D01*
X144441405Y-80632661D01*
X144455289Y-80744223D01*
X144490402Y-80805224D01*
X144561951Y-80825952D01*
X144685145Y-80816696D01*
X144875188Y-80787743D01*
X144909761Y-80782434D01*
X145230355Y-80733643D01*
X145268757Y-80630672D01*
X145919000Y-80630672D01*
X146079583Y-80604135D01*
X146216525Y-80585861D01*
X146336436Y-80576674D01*
X146346000Y-80576484D01*
X146459709Y-80565305D01*
X146515611Y-80525333D01*
X146519030Y-80442352D01*
X146475292Y-80302147D01*
X146461850Y-80267251D01*
X146382392Y-80106107D01*
X146299157Y-80010116D01*
X146219773Y-79986062D01*
X146174473Y-80011593D01*
X146142722Y-80066755D01*
X146092657Y-80178508D01*
X146034556Y-80323749D01*
X146028735Y-80339134D01*
X145919000Y-80630672D01*
X145268757Y-80630672D01*
X145431726Y-80193690D01*
X145543590Y-79911750D01*
X145646289Y-79702113D01*
X145750137Y-79554687D01*
X145865450Y-79459379D01*
X146002540Y-79406095D01*
X146171724Y-79384745D01*
X146260376Y-79382866D01*
X146512694Y-79411542D01*
X146709490Y-79495796D01*
X146831185Y-79613341D01*
X146877331Y-79696866D01*
X146940592Y-79834194D01*
X147009271Y-79999514D01*
X147027954Y-80047500D01*
X147090640Y-80205563D01*
X147145098Y-80332957D01*
X147182339Y-80408999D01*
X147189738Y-80419756D01*
X147243275Y-80429436D01*
X147360005Y-80427315D01*
X147519395Y-80414178D01*
X147608385Y-80403760D01*
X147995026Y-80354176D01*
X148118898Y-80137338D01*
X148339513Y-79833737D01*
X148616616Y-79589572D01*
X148940327Y-79411845D01*
X149285358Y-79310309D01*
X149399480Y-79297232D01*
X149582720Y-79285602D01*
X149819535Y-79275976D01*
X150094379Y-79268912D01*
X150391709Y-79264970D01*
X150565941Y-79264333D01*
X151595333Y-79264333D01*
X151595333Y-79899333D01*
X150565850Y-79899333D01*
X150181794Y-79901213D01*
X149871721Y-79907996D01*
X149625008Y-79921393D01*
X149431032Y-79943115D01*
X149279168Y-79974874D01*
X149158795Y-80018383D01*
X149059287Y-80075352D01*
X148970023Y-80147493D01*
X148958334Y-80158340D01*
X148822500Y-80286029D01*
X149161166Y-80261480D01*
X149440890Y-80242513D01*
X149783789Y-80221337D01*
X150168436Y-80199133D01*
X150573408Y-80177080D01*
X150977281Y-80156361D01*
X151358628Y-80138154D01*
X151563583Y-80129103D01*
X152230333Y-80100742D01*
X152230333Y-79264333D01*
X155447666Y-79264333D01*
X155447666Y-79899333D01*
X152865333Y-79899333D01*
X152865333Y-80097984D01*
X154272916Y-80125095D01*
X154796634Y-80136631D01*
X155243809Y-80149879D01*
X155622555Y-80165427D01*
X155940988Y-80183865D01*
X156207224Y-80205782D01*
X156429377Y-80231766D01*
X156615564Y-80262406D01*
X156773899Y-80298291D01*
X156815030Y-80309553D01*
X157077500Y-80384301D01*
X156887000Y-80413846D01*
X156770549Y-80425528D01*
X156593293Y-80435640D01*
X156379091Y-80443117D01*
X156151800Y-80446893D01*
X156146166Y-80446931D01*
X155901122Y-80450641D01*
X155589732Y-80458643D01*
X155230167Y-80470220D01*
X154840599Y-80484653D01*
X154439199Y-80501222D01*
X154044139Y-80519210D01*
X153673591Y-80537898D01*
X153345726Y-80556568D01*
X153296988Y-80559597D01*
X153101466Y-80572953D01*
X152975858Y-80586062D01*
X152905522Y-80602990D01*
X152875815Y-80627802D01*
X152872094Y-80664563D01*
X152873655Y-80677127D01*
X152879323Y-80703213D01*
X152894169Y-80723802D01*
X152927407Y-80739651D01*
X152988248Y-80751520D01*
X153085904Y-80760168D01*
X153229589Y-80766351D01*
X153428514Y-80770830D01*
X153691892Y-80774363D01*
X154028935Y-80777708D01*
X154103583Y-80778399D01*
X155320666Y-80789631D01*
X155320666Y-81296333D01*
X152865333Y-81296333D01*
X152865333Y-82227666D01*
X155447666Y-82227666D01*
X155447666Y-82862666D01*
X152230333Y-82862666D01*
X152230333Y-80614795D01*
X151986916Y-80638777D01*
X151865858Y-80649981D01*
X151679116Y-80666375D01*
X151445403Y-80686355D01*
X151183429Y-80708321D01*
X150939166Y-80728447D01*
X150617072Y-80756173D01*
X150258321Y-80789389D01*
X149897126Y-80824785D01*
X149567702Y-80859051D01*
X149415223Y-80875901D01*
X149173036Y-80902943D01*
X148956649Y-80926211D01*
X148781605Y-80944103D01*
X148663445Y-80955020D01*
X148621473Y-80957666D01*
X148575756Y-80973302D01*
X148553409Y-81033278D01*
X148547338Y-81157199D01*
X148547333Y-81162571D01*
X148575943Y-81357460D01*
X148652009Y-81572923D01*
X148760889Y-81778355D01*
X148887937Y-81943148D01*
X148945423Y-81994593D01*
X149039855Y-82061912D01*
X149134012Y-82114962D01*
X149239217Y-82155418D01*
X149366795Y-82184956D01*
X149528069Y-82205250D01*
X149734365Y-82217975D01*
X149997006Y-82224806D01*
X150327317Y-82227418D01*
X150521155Y-82227666D01*
X151595333Y-82227666D01*
X151595333Y-82867502D01*
X150397046Y-82854501D01*
X149198758Y-82841500D01*
X148875811Y-82681804D01*
X148557505Y-82480102D01*
X148295497Y-82222007D01*
X148096939Y-81917617D01*
X147968986Y-81577026D01*
X147927283Y-81343101D01*
X147899277Y-81075149D01*
X147693207Y-81094949D01*
X147569814Y-81110017D01*
X147486456Y-81126201D01*
X147468216Y-81133671D01*
X147476766Y-81177156D01*
X147511723Y-81287220D01*
X147568793Y-81451540D01*
X147643679Y-81657794D01*
X147732086Y-81893656D01*
X147744314Y-81925761D01*
X147835384Y-82166371D01*
X147915041Y-82380534D01*
X147978646Y-82555470D01*
X148021560Y-82678402D01*
X148039144Y-82736551D01*
X148039333Y-82738464D01*
X148000488Y-82757482D01*
X147897842Y-82771493D01*
X147752227Y-82777865D01*
X147726362Y-82778000D01*
X147559352Y-82774625D01*
X147458363Y-82761832D01*
X147404921Y-82735616D01*
X147384609Y-82703916D01*
X147360565Y-82641026D01*
X147312174Y-82513695D01*
X147245035Y-82336678D01*
X147164743Y-82124731D01*
X147099555Y-81952500D01*
X147013836Y-81728467D01*
X146937154Y-81532793D01*
X146874938Y-81378957D01*
X146832616Y-81280437D01*
X146816892Y-81250649D01*
X146767962Y-81249162D01*
X146651614Y-81261844D01*
X146483507Y-81286544D01*
X146279301Y-81321106D01*
X146201217Y-81335316D01*
X145611935Y-81444500D01*
X145358825Y-82111250D01*
X145105714Y-82778000D01*
X144794524Y-82778000D01*
X144618840Y-82772911D01*
X144518561Y-82756654D01*
X144484983Y-82727739D01*
X144484909Y-82725083D01*
X144500100Y-82667701D01*
X144540577Y-82547925D01*
X144600546Y-82382116D01*
X144674214Y-82186638D01*
X144691017Y-82143000D01*
X144765306Y-81947600D01*
X144825696Y-81782595D01*
X144866908Y-81662890D01*
X144883664Y-81603387D01*
X144883432Y-81599685D01*
X144836254Y-81601276D01*
X144718852Y-81623660D01*
X144542270Y-81663879D01*
X144317552Y-81718975D01*
X144055743Y-81785991D01*
X143767886Y-81861970D01*
X143465024Y-81943954D01*
X143158202Y-82028986D01*
X142858464Y-82114109D01*
X142576853Y-82196365D01*
X142324414Y-82272797D01*
X142112191Y-82340448D01*
X142091500Y-82347318D01*
X141809945Y-82441731D01*
X141598581Y-82514541D01*
X141447143Y-82570510D01*
X141345364Y-82614400D01*
X141282978Y-82650972D01*
X141249720Y-82684989D01*
X141235323Y-82721211D01*
X141231438Y-82746250D01*
X141219287Y-82810542D01*
X141187771Y-82845358D01*
X141115974Y-82859721D01*
X140982982Y-82862654D01*
X140961599Y-82862666D01*
X140801105Y-82876188D01*
X140619643Y-82919509D01*
X140406682Y-82996759D01*
X140151691Y-83112069D01*
X139844142Y-83269570D01*
X139636166Y-83382635D01*
X139017897Y-83753197D01*
X138483118Y-84135714D01*
X138031444Y-84530604D01*
X137662488Y-84938292D01*
X137375862Y-85359198D01*
X137171180Y-85793744D01*
X137057161Y-86194583D01*
X137009070Y-86434654D01*
X136895885Y-86182444D01*
X136758964Y-85779873D01*
X136706359Y-85370963D01*
X136738038Y-84956731D01*
X136853970Y-84538195D01*
X136953378Y-84307061D01*
X137051859Y-84119479D01*
X137157914Y-83956955D01*
X137290207Y-83794358D01*
X137467401Y-83606559D01*
X137492241Y-83581464D01*
X137662729Y-83417454D01*
X137841254Y-83258310D01*
X138004340Y-83124333D01*
X138108556Y-83048495D01*
X138358945Y-82883833D01*
X137272472Y-82872535D01*
X136186000Y-82861237D01*
X136186000Y-82227666D01*
X137614750Y-82227042D01*
X138039148Y-82225919D01*
X138385111Y-82222811D01*
X138658852Y-82217505D01*
X138866584Y-82209783D01*
X139014520Y-82199431D01*
X139108874Y-82186232D01*
X139149333Y-82173791D01*
X139236915Y-82101544D01*
X139318343Y-81990193D01*
X139331550Y-81965232D01*
X139379371Y-81842125D01*
X139382287Y-81731047D01*
X139361638Y-81637369D01*
X139335420Y-81549248D01*
X139303247Y-81478995D01*
X139255833Y-81424373D01*
X139183893Y-81383143D01*
X139078140Y-81353070D01*
X138929290Y-81331915D01*
X138728056Y-81317442D01*
X138465153Y-81307412D01*
X138131295Y-81299590D01*
X137944782Y-81295993D01*
X137584053Y-81288778D01*
X137297161Y-81280873D01*
X137073290Y-81270280D01*
X136901620Y-81255000D01*
X136771333Y-81233035D01*
X136671611Y-81202385D01*
X136591635Y-81161052D01*
X136520588Y-81107038D01*
X136447651Y-81038342D01*
X136424280Y-81015068D01*
X136261314Y-80797423D01*
X136162941Y-80546625D01*
X136129168Y-80280096D01*
X136159998Y-80015256D01*
X136255436Y-79769526D01*
X136415486Y-79560328D01*
X136423913Y-79552329D01*
X136498017Y-79485133D01*
X136568857Y-79430263D01*
X136645662Y-79386382D01*
X136737662Y-79352152D01*
X136854088Y-79326235D01*
X137004171Y-79307294D01*
X137197139Y-79293991D01*
X137442224Y-79284989D01*
X137748655Y-79278951D01*
X138125663Y-79274538D01*
X138355583Y-79272416D01*
X139826666Y-79259333D01*
X139826666Y-79899333D01*
G36*
X147743000Y-85570131D02*
G01*
X148536750Y-85581649D01*
X149330500Y-85593166D01*
X149343295Y-85815416D01*
X149356091Y-86037666D01*
X148344934Y-86037666D01*
X148060493Y-86036532D01*
X147804638Y-86033346D01*
X147589401Y-86028436D01*
X147426812Y-86022128D01*
X147328905Y-86014750D01*
X147305555Y-86009444D01*
X147298208Y-85961342D01*
X147291573Y-85839664D01*
X147285910Y-85655496D01*
X147281478Y-85419928D01*
X147278537Y-85144048D01*
X147277346Y-84838943D01*
X147277333Y-84802944D01*
X147277333Y-83624666D01*
X147743000Y-83624666D01*
X147743000Y-85570131D01*
G37*
X147743000Y-85570131D02*
X148536750Y-85581649D01*
X149330500Y-85593166D01*
X149343295Y-85815416D01*
X149356091Y-86037666D01*
X148344934Y-86037666D01*
X148060493Y-86036532D01*
X147804638Y-86033346D01*
X147589401Y-86028436D01*
X147426812Y-86022128D01*
X147328905Y-86014750D01*
X147305555Y-86009444D01*
X147298208Y-85961342D01*
X147291573Y-85839664D01*
X147285910Y-85655496D01*
X147281478Y-85419928D01*
X147278537Y-85144048D01*
X147277346Y-84838943D01*
X147277333Y-84802944D01*
X147277333Y-83624666D01*
X147743000Y-83624666D01*
X147743000Y-85570131D01*
G36*
X151168152Y-83612789D02*
G01*
X151224979Y-83656416D01*
X151259518Y-83706373D01*
X151329866Y-83816691D01*
X151429655Y-83976842D01*
X151552520Y-84176297D01*
X151692094Y-84404526D01*
X151842011Y-84651001D01*
X151995906Y-84905194D01*
X152147411Y-85156574D01*
X152290162Y-85394614D01*
X152417792Y-85608784D01*
X152523934Y-85788556D01*
X152602223Y-85923401D01*
X152646293Y-86002790D01*
X152653666Y-86019317D01*
X152615243Y-86029102D01*
X152515588Y-86035759D01*
X152405931Y-86037666D01*
X152158195Y-86037666D01*
X151971474Y-85730750D01*
X151784753Y-85423833D01*
X150332711Y-85400699D01*
X150146238Y-85708599D01*
X149959765Y-86016500D01*
X149719215Y-86029195D01*
X149589425Y-86032790D01*
X149502086Y-86028974D01*
X149478666Y-86021430D01*
X149499757Y-85979049D01*
X149558787Y-85875054D01*
X149649392Y-85719977D01*
X149765207Y-85524355D01*
X149899870Y-85298722D01*
X150040778Y-85064000D01*
X150528636Y-85064000D01*
X151044346Y-85064000D01*
X151240418Y-85061469D01*
X151399840Y-85054566D01*
X151506963Y-85044325D01*
X151546138Y-85031779D01*
X151545944Y-85030870D01*
X151506466Y-84952543D01*
X151439083Y-84832374D01*
X151354596Y-84688144D01*
X151263801Y-84537637D01*
X151177498Y-84398635D01*
X151106485Y-84288919D01*
X151061561Y-84226273D01*
X151052401Y-84218144D01*
X151018659Y-84252409D01*
X150956349Y-84341959D01*
X150878295Y-84468218D01*
X150869779Y-84482727D01*
X150776305Y-84642568D01*
X150685070Y-84798242D01*
X150622181Y-84905250D01*
X150528636Y-85064000D01*
X150040778Y-85064000D01*
X150047015Y-85053612D01*
X150200280Y-84799562D01*
X150353299Y-84547105D01*
X150499708Y-84306777D01*
X150633145Y-84089112D01*
X150747244Y-83904645D01*
X150835641Y-83763912D01*
X150891973Y-83677447D01*
X150907354Y-83656416D01*
X150998807Y-83596637D01*
X151066166Y-83582333D01*
X151168152Y-83612789D01*
G37*
X151168152Y-83612789D02*
X151224979Y-83656416D01*
X151259518Y-83706373D01*
X151329866Y-83816691D01*
X151429655Y-83976842D01*
X151552520Y-84176297D01*
X151692094Y-84404526D01*
X151842011Y-84651001D01*
X151995906Y-84905194D01*
X152147411Y-85156574D01*
X152290162Y-85394614D01*
X152417792Y-85608784D01*
X152523934Y-85788556D01*
X152602223Y-85923401D01*
X152646293Y-86002790D01*
X152653666Y-86019317D01*
X152615243Y-86029102D01*
X152515588Y-86035759D01*
X152405931Y-86037666D01*
X152158195Y-86037666D01*
X151971474Y-85730750D01*
X151784753Y-85423833D01*
X150332711Y-85400699D01*
X150146238Y-85708599D01*
X149959765Y-86016500D01*
X149719215Y-86029195D01*
X149589425Y-86032790D01*
X149502086Y-86028974D01*
X149478666Y-86021430D01*
X149499757Y-85979049D01*
X149558787Y-85875054D01*
X149649392Y-85719977D01*
X149765207Y-85524355D01*
X149899870Y-85298722D01*
X150040778Y-85064000D01*
X150528636Y-85064000D01*
X151044346Y-85064000D01*
X151240418Y-85061469D01*
X151399840Y-85054566D01*
X151506963Y-85044325D01*
X151546138Y-85031779D01*
X151545944Y-85030870D01*
X151506466Y-84952543D01*
X151439083Y-84832374D01*
X151354596Y-84688144D01*
X151263801Y-84537637D01*
X151177498Y-84398635D01*
X151106485Y-84288919D01*
X151061561Y-84226273D01*
X151052401Y-84218144D01*
X151018659Y-84252409D01*
X150956349Y-84341959D01*
X150878295Y-84468218D01*
X150869779Y-84482727D01*
X150776305Y-84642568D01*
X150685070Y-84798242D01*
X150622181Y-84905250D01*
X150528636Y-85064000D01*
X150040778Y-85064000D01*
X150047015Y-85053612D01*
X150200280Y-84799562D01*
X150353299Y-84547105D01*
X150499708Y-84306777D01*
X150633145Y-84089112D01*
X150747244Y-83904645D01*
X150835641Y-83763912D01*
X150891973Y-83677447D01*
X150907354Y-83656416D01*
X150998807Y-83596637D01*
X151066166Y-83582333D01*
X151168152Y-83612789D01*
G36*
X154256686Y-83625180D02*
G01*
X154508992Y-83627271D01*
X154700133Y-83631761D01*
X154841861Y-83639473D01*
X154945925Y-83651228D01*
X155024075Y-83667850D01*
X155088061Y-83690160D01*
X155128309Y-83708434D01*
X155299878Y-83826446D01*
X155403827Y-83986519D01*
X155446058Y-84198836D01*
X155447666Y-84259242D01*
X155440216Y-84401079D01*
X155407812Y-84497556D01*
X155335373Y-84587400D01*
X155310083Y-84612543D01*
X155172500Y-84746500D01*
X155336184Y-84905204D01*
X155425166Y-84995670D01*
X155472533Y-85068096D01*
X155489120Y-85153875D01*
X155485759Y-85284398D01*
X155482904Y-85330338D01*
X155442420Y-85572921D01*
X155351016Y-85755716D01*
X155200874Y-85891808D01*
X155120417Y-85937197D01*
X155060854Y-85962608D01*
X154989307Y-85982389D01*
X154894282Y-85997437D01*
X154764287Y-86008651D01*
X154587830Y-86016927D01*
X154353416Y-86023162D01*
X154049554Y-86028254D01*
X153934250Y-86029808D01*
X152907666Y-86043117D01*
X152907666Y-84979333D01*
X153331000Y-84979333D01*
X153331000Y-85623936D01*
X154069699Y-85607826D01*
X154340666Y-85601095D01*
X154540671Y-85593355D01*
X154683416Y-85582940D01*
X154782602Y-85568184D01*
X154851931Y-85547422D01*
X154905105Y-85518986D01*
X154926949Y-85503588D01*
X155032229Y-85385427D01*
X155056542Y-85254886D01*
X154998816Y-85123610D01*
X154965491Y-85085976D01*
X154925496Y-85048123D01*
X154883757Y-85020491D01*
X154827146Y-85001470D01*
X154742536Y-84989453D01*
X154616799Y-84982832D01*
X154436809Y-84979999D01*
X154189437Y-84979344D01*
X154094924Y-84979333D01*
X153331000Y-84979333D01*
X152907666Y-84979333D01*
X152907666Y-84598333D01*
X153331000Y-84598333D01*
X154111766Y-84598333D01*
X154386915Y-84597951D01*
X154589771Y-84595891D01*
X154732708Y-84590775D01*
X154828099Y-84581230D01*
X154888318Y-84565881D01*
X154925739Y-84543352D01*
X154952734Y-84512269D01*
X154958432Y-84504247D01*
X155019068Y-84356046D01*
X154998248Y-84209910D01*
X154964324Y-84151341D01*
X154936998Y-84122217D01*
X154895512Y-84100490D01*
X154827692Y-84084791D01*
X154721368Y-84073748D01*
X154564367Y-84065989D01*
X154344517Y-84060144D01*
X154117658Y-84055965D01*
X153331000Y-84042764D01*
X153331000Y-84598333D01*
X152907666Y-84598333D01*
X152907666Y-83624666D01*
X153931467Y-83624666D01*
X154256686Y-83625180D01*
G37*
X154256686Y-83625180D02*
X154508992Y-83627271D01*
X154700133Y-83631761D01*
X154841861Y-83639473D01*
X154945925Y-83651228D01*
X155024075Y-83667850D01*
X155088061Y-83690160D01*
X155128309Y-83708434D01*
X155299878Y-83826446D01*
X155403827Y-83986519D01*
X155446058Y-84198836D01*
X155447666Y-84259242D01*
X155440216Y-84401079D01*
X155407812Y-84497556D01*
X155335373Y-84587400D01*
X155310083Y-84612543D01*
X155172500Y-84746500D01*
X155336184Y-84905204D01*
X155425166Y-84995670D01*
X155472533Y-85068096D01*
X155489120Y-85153875D01*
X155485759Y-85284398D01*
X155482904Y-85330338D01*
X155442420Y-85572921D01*
X155351016Y-85755716D01*
X155200874Y-85891808D01*
X155120417Y-85937197D01*
X155060854Y-85962608D01*
X154989307Y-85982389D01*
X154894282Y-85997437D01*
X154764287Y-86008651D01*
X154587830Y-86016927D01*
X154353416Y-86023162D01*
X154049554Y-86028254D01*
X153934250Y-86029808D01*
X152907666Y-86043117D01*
X152907666Y-84979333D01*
X153331000Y-84979333D01*
X153331000Y-85623936D01*
X154069699Y-85607826D01*
X154340666Y-85601095D01*
X154540671Y-85593355D01*
X154683416Y-85582940D01*
X154782602Y-85568184D01*
X154851931Y-85547422D01*
X154905105Y-85518986D01*
X154926949Y-85503588D01*
X155032229Y-85385427D01*
X155056542Y-85254886D01*
X154998816Y-85123610D01*
X154965491Y-85085976D01*
X154925496Y-85048123D01*
X154883757Y-85020491D01*
X154827146Y-85001470D01*
X154742536Y-84989453D01*
X154616799Y-84982832D01*
X154436809Y-84979999D01*
X154189437Y-84979344D01*
X154094924Y-84979333D01*
X153331000Y-84979333D01*
X152907666Y-84979333D01*
X152907666Y-84598333D01*
X153331000Y-84598333D01*
X154111766Y-84598333D01*
X154386915Y-84597951D01*
X154589771Y-84595891D01*
X154732708Y-84590775D01*
X154828099Y-84581230D01*
X154888318Y-84565881D01*
X154925739Y-84543352D01*
X154952734Y-84512269D01*
X154958432Y-84504247D01*
X155019068Y-84356046D01*
X154998248Y-84209910D01*
X154964324Y-84151341D01*
X154936998Y-84122217D01*
X154895512Y-84100490D01*
X154827692Y-84084791D01*
X154721368Y-84073748D01*
X154564367Y-84065989D01*
X154344517Y-84060144D01*
X154117658Y-84055965D01*
X153331000Y-84042764D01*
X153331000Y-84598333D01*
X152907666Y-84598333D01*
X152907666Y-83624666D01*
X153931467Y-83624666D01*
X154256686Y-83625180D01*
G36*
X149450801Y-83927194D02*
G01*
X149477719Y-84054849D01*
X149499600Y-84222128D01*
X149525646Y-84459757D01*
X149780924Y-84486439D01*
X149925420Y-84505584D01*
X150038088Y-84527834D01*
X150085517Y-84544073D01*
X150081807Y-84568266D01*
X150012543Y-84593774D01*
X149896671Y-84616617D01*
X149753137Y-84632814D01*
X149637416Y-84638227D01*
X149537783Y-84644087D01*
X149491251Y-84673585D01*
X149476245Y-84750750D01*
X149473658Y-84820583D01*
X149463424Y-84975629D01*
X149444341Y-85105800D01*
X149420346Y-85193234D01*
X149395378Y-85220070D01*
X149387336Y-85212166D01*
X149369058Y-85150077D01*
X149347866Y-85031506D01*
X149331517Y-84908329D01*
X149301734Y-84646824D01*
X149125617Y-84620313D01*
X148929583Y-84589640D01*
X148807260Y-84566597D01*
X148748395Y-84547930D01*
X148742737Y-84530384D01*
X148780032Y-84510703D01*
X148780166Y-84510650D01*
X148871199Y-84490585D01*
X149007337Y-84477132D01*
X149083719Y-84474308D01*
X149185977Y-84472598D01*
X149253968Y-84460916D01*
X149297355Y-84424434D01*
X149325797Y-84348324D01*
X149348956Y-84217759D01*
X149375266Y-84026833D01*
X149398440Y-83911404D01*
X149423996Y-83878785D01*
X149450801Y-83927194D01*
G37*
X149450801Y-83927194D02*
X149477719Y-84054849D01*
X149499600Y-84222128D01*
X149525646Y-84459757D01*
X149780924Y-84486439D01*
X149925420Y-84505584D01*
X150038088Y-84527834D01*
X150085517Y-84544073D01*
X150081807Y-84568266D01*
X150012543Y-84593774D01*
X149896671Y-84616617D01*
X149753137Y-84632814D01*
X149637416Y-84638227D01*
X149537783Y-84644087D01*
X149491251Y-84673585D01*
X149476245Y-84750750D01*
X149473658Y-84820583D01*
X149463424Y-84975629D01*
X149444341Y-85105800D01*
X149420346Y-85193234D01*
X149395378Y-85220070D01*
X149387336Y-85212166D01*
X149369058Y-85150077D01*
X149347866Y-85031506D01*
X149331517Y-84908329D01*
X149301734Y-84646824D01*
X149125617Y-84620313D01*
X148929583Y-84589640D01*
X148807260Y-84566597D01*
X148748395Y-84547930D01*
X148742737Y-84530384D01*
X148780032Y-84510703D01*
X148780166Y-84510650D01*
X148871199Y-84490585D01*
X149007337Y-84477132D01*
X149083719Y-84474308D01*
X149185977Y-84472598D01*
X149253968Y-84460916D01*
X149297355Y-84424434D01*
X149325797Y-84348324D01*
X149348956Y-84217759D01*
X149375266Y-84026833D01*
X149398440Y-83911404D01*
X149423996Y-83878785D01*
X149450801Y-83927194D01*
G36*
X145037409Y-83794000D02*
G01*
X145056095Y-83899209D01*
X145069000Y-84044915D01*
X145071780Y-84117151D01*
X145076000Y-84334469D01*
X145341937Y-84362949D01*
X145526397Y-84388229D01*
X145637585Y-84415745D01*
X145672401Y-84443715D01*
X145627750Y-84470353D01*
X145555512Y-84485965D01*
X145399792Y-84504697D01*
X145246099Y-84513169D01*
X145240780Y-84513200D01*
X145088061Y-84513666D01*
X145060600Y-84776396D01*
X145036164Y-84948126D01*
X145007724Y-85048777D01*
X144977982Y-85074638D01*
X144949638Y-85021995D01*
X144934246Y-84950102D01*
X144915804Y-84802906D01*
X144907201Y-84664444D01*
X144907132Y-84656718D01*
X144902570Y-84582051D01*
X144876053Y-84539607D01*
X144807330Y-84516107D01*
X144676148Y-84498270D01*
X144663250Y-84496792D01*
X144486539Y-84470465D01*
X144380501Y-84441156D01*
X144349167Y-84411157D01*
X144396568Y-84382763D01*
X144442877Y-84371474D01*
X144583339Y-84352488D01*
X144733935Y-84344338D01*
X144737171Y-84344333D01*
X144895759Y-84344333D01*
X144924746Y-84122083D01*
X144946771Y-83972081D01*
X144970130Y-83840947D01*
X144980496Y-83794000D01*
X145007258Y-83688166D01*
X145037409Y-83794000D01*
G37*
X145037409Y-83794000D02*
X145056095Y-83899209D01*
X145069000Y-84044915D01*
X145071780Y-84117151D01*
X145076000Y-84334469D01*
X145341937Y-84362949D01*
X145526397Y-84388229D01*
X145637585Y-84415745D01*
X145672401Y-84443715D01*
X145627750Y-84470353D01*
X145555512Y-84485965D01*
X145399792Y-84504697D01*
X145246099Y-84513169D01*
X145240780Y-84513200D01*
X145088061Y-84513666D01*
X145060600Y-84776396D01*
X145036164Y-84948126D01*
X145007724Y-85048777D01*
X144977982Y-85074638D01*
X144949638Y-85021995D01*
X144934246Y-84950102D01*
X144915804Y-84802906D01*
X144907201Y-84664444D01*
X144907132Y-84656718D01*
X144902570Y-84582051D01*
X144876053Y-84539607D01*
X144807330Y-84516107D01*
X144676148Y-84498270D01*
X144663250Y-84496792D01*
X144486539Y-84470465D01*
X144380501Y-84441156D01*
X144349167Y-84411157D01*
X144396568Y-84382763D01*
X144442877Y-84371474D01*
X144583339Y-84352488D01*
X144733935Y-84344338D01*
X144737171Y-84344333D01*
X144895759Y-84344333D01*
X144924746Y-84122083D01*
X144946771Y-83972081D01*
X144970130Y-83840947D01*
X144980496Y-83794000D01*
X145007258Y-83688166D01*
X145037409Y-83794000D01*
G36*
X150116622Y-77190000D02*
G01*
X150135562Y-77294496D01*
X150148744Y-77440472D01*
X150151780Y-77518083D01*
X150157516Y-77647757D01*
X150175166Y-77713902D01*
X150214992Y-77737638D01*
X150259749Y-77740333D01*
X150360681Y-77749432D01*
X150503286Y-77772649D01*
X150587832Y-77789886D01*
X150710521Y-77819300D01*
X150759266Y-77839865D01*
X150743416Y-77857925D01*
X150706333Y-77870333D01*
X150600962Y-77889507D01*
X150455322Y-77902679D01*
X150384280Y-77905446D01*
X150168061Y-77909666D01*
X150140600Y-78172396D01*
X150115574Y-78351817D01*
X150087857Y-78449531D01*
X150059492Y-78464872D01*
X150032525Y-78397175D01*
X150008998Y-78245774D01*
X150005939Y-78216277D01*
X149976693Y-77919474D01*
X149738263Y-77892228D01*
X149563544Y-77866035D01*
X149459229Y-77836712D01*
X149429449Y-77806652D01*
X149478334Y-77778247D01*
X149522877Y-77767474D01*
X149663128Y-77748525D01*
X149813910Y-77740341D01*
X149817818Y-77740333D01*
X149914075Y-77736276D01*
X149964522Y-77709344D01*
X149989730Y-77637390D01*
X150004630Y-77539250D01*
X150027491Y-77387250D01*
X150051659Y-77247861D01*
X150058946Y-77211166D01*
X150085685Y-77084166D01*
X150116622Y-77190000D01*
G37*
X150116622Y-77190000D02*
X150135562Y-77294496D01*
X150148744Y-77440472D01*
X150151780Y-77518083D01*
X150157516Y-77647757D01*
X150175166Y-77713902D01*
X150214992Y-77737638D01*
X150259749Y-77740333D01*
X150360681Y-77749432D01*
X150503286Y-77772649D01*
X150587832Y-77789886D01*
X150710521Y-77819300D01*
X150759266Y-77839865D01*
X150743416Y-77857925D01*
X150706333Y-77870333D01*
X150600962Y-77889507D01*
X150455322Y-77902679D01*
X150384280Y-77905446D01*
X150168061Y-77909666D01*
X150140600Y-78172396D01*
X150115574Y-78351817D01*
X150087857Y-78449531D01*
X150059492Y-78464872D01*
X150032525Y-78397175D01*
X150008998Y-78245774D01*
X150005939Y-78216277D01*
X149976693Y-77919474D01*
X149738263Y-77892228D01*
X149563544Y-77866035D01*
X149459229Y-77836712D01*
X149429449Y-77806652D01*
X149478334Y-77778247D01*
X149522877Y-77767474D01*
X149663128Y-77748525D01*
X149813910Y-77740341D01*
X149817818Y-77740333D01*
X149914075Y-77736276D01*
X149964522Y-77709344D01*
X149989730Y-77637390D01*
X150004630Y-77539250D01*
X150027491Y-77387250D01*
X150051659Y-77247861D01*
X150058946Y-77211166D01*
X150085685Y-77084166D01*
X150116622Y-77190000D01*
G36*
X142936835Y-75185649D02*
G01*
X142960133Y-75295603D01*
X142978879Y-75432618D01*
X142994212Y-75568709D01*
X143016151Y-75655456D01*
X143061747Y-75706806D01*
X143148052Y-75736709D01*
X143292118Y-75759111D01*
X143394069Y-75772238D01*
X143522587Y-75796359D01*
X143568295Y-75823130D01*
X143532919Y-75850530D01*
X143418186Y-75876534D01*
X143291099Y-75892874D01*
X143124557Y-75917155D01*
X143025107Y-75956769D01*
X142975176Y-76026447D01*
X142957190Y-76140922D01*
X142955761Y-76174000D01*
X142943606Y-76310158D01*
X142921414Y-76428000D01*
X142897274Y-76497227D01*
X142876755Y-76490124D01*
X142862134Y-76456287D01*
X142841052Y-76359565D01*
X142832333Y-76236793D01*
X142811673Y-76043293D01*
X142749730Y-75923574D01*
X142646555Y-75877731D01*
X142632297Y-75877200D01*
X142494657Y-75869634D01*
X142364285Y-75851166D01*
X142264419Y-75826549D01*
X142218299Y-75800538D01*
X142218752Y-75792592D01*
X142267918Y-75772133D01*
X142377353Y-75749672D01*
X142516978Y-75730832D01*
X142660855Y-75708754D01*
X142766777Y-75679955D01*
X142810831Y-75651754D01*
X142823699Y-75584935D01*
X142840827Y-75464050D01*
X142853548Y-75358511D01*
X142873365Y-75232046D01*
X142896970Y-75152015D01*
X142915122Y-75135673D01*
X142936835Y-75185649D01*
G37*
X142936835Y-75185649D02*
X142960133Y-75295603D01*
X142978879Y-75432618D01*
X142994212Y-75568709D01*
X143016151Y-75655456D01*
X143061747Y-75706806D01*
X143148052Y-75736709D01*
X143292118Y-75759111D01*
X143394069Y-75772238D01*
X143522587Y-75796359D01*
X143568295Y-75823130D01*
X143532919Y-75850530D01*
X143418186Y-75876534D01*
X143291099Y-75892874D01*
X143124557Y-75917155D01*
X143025107Y-75956769D01*
X142975176Y-76026447D01*
X142957190Y-76140922D01*
X142955761Y-76174000D01*
X142943606Y-76310158D01*
X142921414Y-76428000D01*
X142897274Y-76497227D01*
X142876755Y-76490124D01*
X142862134Y-76456287D01*
X142841052Y-76359565D01*
X142832333Y-76236793D01*
X142811673Y-76043293D01*
X142749730Y-75923574D01*
X142646555Y-75877731D01*
X142632297Y-75877200D01*
X142494657Y-75869634D01*
X142364285Y-75851166D01*
X142264419Y-75826549D01*
X142218299Y-75800538D01*
X142218752Y-75792592D01*
X142267918Y-75772133D01*
X142377353Y-75749672D01*
X142516978Y-75730832D01*
X142660855Y-75708754D01*
X142766777Y-75679955D01*
X142810831Y-75651754D01*
X142823699Y-75584935D01*
X142840827Y-75464050D01*
X142853548Y-75358511D01*
X142873365Y-75232046D01*
X142896970Y-75152015D01*
X142915122Y-75135673D01*
X142936835Y-75185649D01*
%TO.C,H3*%
D12*
X104588095Y-137568380D02*
X104588095Y-136568380D01*
X104588095Y-137044571D02*
X105159523Y-137044571D01*
X105159523Y-137568380D02*
X105159523Y-136568380D01*
X105540476Y-136568380D02*
X106159523Y-136568380D01*
X105826190Y-136949333D01*
X105969047Y-136949333D01*
X106064285Y-136996952D01*
X106111904Y-137044571D01*
X106159523Y-137139809D01*
X106159523Y-137377904D01*
X106111904Y-137473142D01*
X106064285Y-137520761D01*
X105969047Y-137568380D01*
X105683333Y-137568380D01*
X105588095Y-137520761D01*
X105540476Y-137473142D01*
%TO.C,H4*%
X184628095Y-137568380D02*
X184628095Y-136568380D01*
X184628095Y-137044571D02*
X185199523Y-137044571D01*
X185199523Y-137568380D02*
X185199523Y-136568380D01*
X186104285Y-136901714D02*
X186104285Y-137568380D01*
X185866190Y-136520761D02*
X185628095Y-137235047D01*
X186247142Y-137235047D01*
%TO.C,J9*%
D10*
X177561904Y-52352380D02*
X177085714Y-52352380D01*
X177038095Y-52828571D01*
X177085714Y-52780952D01*
X177180952Y-52733333D01*
X177419047Y-52733333D01*
X177514285Y-52780952D01*
X177561904Y-52828571D01*
X177609523Y-52923809D01*
X177609523Y-53161904D01*
X177561904Y-53257142D01*
X177514285Y-53304761D01*
X177419047Y-53352380D01*
X177180952Y-53352380D01*
X177085714Y-53304761D01*
X177038095Y-53257142D01*
X177990476Y-52447619D02*
X178038095Y-52400000D01*
X178133333Y-52352380D01*
X178371428Y-52352380D01*
X178466666Y-52400000D01*
X178514285Y-52447619D01*
X178561904Y-52542857D01*
X178561904Y-52638095D01*
X178514285Y-52780952D01*
X177942857Y-53352380D01*
X178561904Y-53352380D01*
X180561904Y-57152380D02*
X180085714Y-57152380D01*
X180038095Y-57628571D01*
X180085714Y-57580952D01*
X180180952Y-57533333D01*
X180419047Y-57533333D01*
X180514285Y-57580952D01*
X180561904Y-57628571D01*
X180609523Y-57723809D01*
X180609523Y-57961904D01*
X180561904Y-58057142D01*
X180514285Y-58104761D01*
X180419047Y-58152380D01*
X180180952Y-58152380D01*
X180085714Y-58104761D01*
X180038095Y-58057142D01*
X181561904Y-58152380D02*
X180990476Y-58152380D01*
X181276190Y-58152380D02*
X181276190Y-57152380D01*
X181180952Y-57295238D01*
X181085714Y-57390476D01*
X180990476Y-57438095D01*
X114014285Y-52447619D02*
X114061904Y-52400000D01*
X114157142Y-52352380D01*
X114395238Y-52352380D01*
X114490476Y-52400000D01*
X114538095Y-52447619D01*
X114585714Y-52542857D01*
X114585714Y-52638095D01*
X114538095Y-52780952D01*
X113966666Y-53352380D01*
X114585714Y-53352380D01*
X111445714Y-58152380D02*
X110874285Y-58152380D01*
X111160000Y-58152380D02*
X111160000Y-57152380D01*
X111064761Y-57295238D01*
X110969523Y-57390476D01*
X110874285Y-57438095D01*
%TO.C,J10*%
X180561904Y-59652380D02*
X180085714Y-59652380D01*
X180038095Y-60128571D01*
X180085714Y-60080952D01*
X180180952Y-60033333D01*
X180419047Y-60033333D01*
X180514285Y-60080952D01*
X180561904Y-60128571D01*
X180609523Y-60223809D01*
X180609523Y-60461904D01*
X180561904Y-60557142D01*
X180514285Y-60604761D01*
X180419047Y-60652380D01*
X180180952Y-60652380D01*
X180085714Y-60604761D01*
X180038095Y-60557142D01*
X180990476Y-59747619D02*
X181038095Y-59700000D01*
X181133333Y-59652380D01*
X181371428Y-59652380D01*
X181466666Y-59700000D01*
X181514285Y-59747619D01*
X181561904Y-59842857D01*
X181561904Y-59938095D01*
X181514285Y-60080952D01*
X180942857Y-60652380D01*
X181561904Y-60652380D01*
X180561904Y-62252380D02*
X180085714Y-62252380D01*
X180038095Y-62728571D01*
X180085714Y-62680952D01*
X180180952Y-62633333D01*
X180419047Y-62633333D01*
X180514285Y-62680952D01*
X180561904Y-62728571D01*
X180609523Y-62823809D01*
X180609523Y-63061904D01*
X180561904Y-63157142D01*
X180514285Y-63204761D01*
X180419047Y-63252380D01*
X180180952Y-63252380D01*
X180085714Y-63204761D01*
X180038095Y-63157142D01*
X181561904Y-63252380D02*
X180990476Y-63252380D01*
X181276190Y-63252380D02*
X181276190Y-62252380D01*
X181180952Y-62395238D01*
X181085714Y-62490476D01*
X180990476Y-62538095D01*
X110874285Y-59847619D02*
X110921904Y-59800000D01*
X111017142Y-59752380D01*
X111255238Y-59752380D01*
X111350476Y-59800000D01*
X111398095Y-59847619D01*
X111445714Y-59942857D01*
X111445714Y-60038095D01*
X111398095Y-60180952D01*
X110826666Y-60752380D01*
X111445714Y-60752380D01*
X111445714Y-63252380D02*
X110874285Y-63252380D01*
X111160000Y-63252380D02*
X111160000Y-62252380D01*
X111064761Y-62395238D01*
X110969523Y-62490476D01*
X110874285Y-62538095D01*
%TO.C,H2*%
D12*
X182078095Y-59452380D02*
X182078095Y-58452380D01*
X182078095Y-58928571D02*
X182649523Y-58928571D01*
X182649523Y-59452380D02*
X182649523Y-58452380D01*
X183078095Y-58547619D02*
X183125714Y-58500000D01*
X183220952Y-58452380D01*
X183459047Y-58452380D01*
X183554285Y-58500000D01*
X183601904Y-58547619D01*
X183649523Y-58642857D01*
X183649523Y-58738095D01*
X183601904Y-58880952D01*
X183030476Y-59452380D01*
X183649523Y-59452380D01*
%TO.C,H1*%
X108398095Y-59552380D02*
X108398095Y-58552380D01*
X108398095Y-59028571D02*
X108969523Y-59028571D01*
X108969523Y-59552380D02*
X108969523Y-58552380D01*
X109969523Y-59552380D02*
X109398095Y-59552380D01*
X109683809Y-59552380D02*
X109683809Y-58552380D01*
X109588571Y-58695238D01*
X109493333Y-58790476D01*
X109398095Y-58838095D01*
%TD*%
M02*
