G04 #@! TF.GenerationSoftware,KiCad,Pcbnew,7.0.9-1.fc38*
G04 #@! TF.CreationDate,2023-11-17T02:49:10-03:00*
G04 #@! TF.ProjectId,pc104-adapter-top,70633130-342d-4616-9461-707465722d74,v2.1*
G04 #@! TF.SameCoordinates,Original*
G04 #@! TF.FileFunction,Copper,L2,Inr*
G04 #@! TF.FilePolarity,Positive*
%FSLAX46Y46*%
G04 Gerber Fmt 4.6, Leading zero omitted, Abs format (unit mm)*
G04 Created by KiCad (PCBNEW 7.0.9-1.fc38) date 2023-11-17 02:49:10*
%MOMM*%
%LPD*%
G01*
G04 APERTURE LIST*
G04 #@! TA.AperFunction,ComponentPad*
%ADD10C,5.500000*%
G04 #@! TD*
G04 #@! TA.AperFunction,ComponentPad*
%ADD11C,1.620000*%
G04 #@! TD*
G04 #@! TA.AperFunction,ViaPad*
%ADD12C,0.800000*%
G04 #@! TD*
G04 #@! TA.AperFunction,Conductor*
%ADD13C,0.250000*%
G04 #@! TD*
G04 APERTURE END LIST*
D10*
X110050000Y-54636000D03*
X183750000Y-54636000D03*
D11*
X115150000Y-57176000D03*
X115150000Y-54636000D03*
X117690000Y-57176000D03*
X117690000Y-54636000D03*
X120230000Y-57176000D03*
X120230000Y-54636000D03*
X122770000Y-57176000D03*
X122770000Y-54636000D03*
X125310000Y-57176000D03*
X125310000Y-54636000D03*
X127850000Y-57176000D03*
X127850000Y-54636000D03*
X130390000Y-57176000D03*
X130390000Y-54636000D03*
X132930000Y-57176000D03*
X132930000Y-54636000D03*
X135470000Y-57176000D03*
X135470000Y-54636000D03*
X138010000Y-57176000D03*
X138010000Y-54636000D03*
X140550000Y-57176000D03*
X140550000Y-54636000D03*
X143090000Y-57176000D03*
X143090000Y-54636000D03*
X145630000Y-57176000D03*
X145630000Y-54636000D03*
X148170000Y-57176000D03*
X148170000Y-54636000D03*
X150710000Y-57176000D03*
X150710000Y-54636000D03*
X153250000Y-57176000D03*
X153250000Y-54636000D03*
X155790000Y-57176000D03*
X155790000Y-54636000D03*
X158330000Y-57176000D03*
X158330000Y-54636000D03*
X160870000Y-57176000D03*
X160870000Y-54636000D03*
X163410000Y-57176000D03*
X163410000Y-54636000D03*
X165950000Y-57176000D03*
X165950000Y-54636000D03*
X168490000Y-57176000D03*
X168490000Y-54636000D03*
X171030000Y-57176000D03*
X171030000Y-54636000D03*
X173570000Y-57176000D03*
X173570000Y-54636000D03*
X176110000Y-57176000D03*
X176110000Y-54636000D03*
X178650000Y-57176000D03*
X178650000Y-54636000D03*
X115150000Y-62256000D03*
X115150000Y-59716000D03*
X117690000Y-62256000D03*
X117690000Y-59716000D03*
X120230000Y-62256000D03*
X120230000Y-59716000D03*
X122770000Y-62256000D03*
X122770000Y-59716000D03*
X125310000Y-62256000D03*
X125310000Y-59716000D03*
X127850000Y-62256000D03*
X127850000Y-59716000D03*
X130390000Y-62256000D03*
X130390000Y-59716000D03*
X132930000Y-62256000D03*
X132930000Y-59716000D03*
X135470000Y-62256000D03*
X135470000Y-59716000D03*
X138010000Y-62256000D03*
X138010000Y-59716000D03*
X140550000Y-62256000D03*
X140550000Y-59716000D03*
X143090000Y-62256000D03*
X143090000Y-59716000D03*
X145630000Y-62256000D03*
X145630000Y-59716000D03*
X148170000Y-62256000D03*
X148170000Y-59716000D03*
X150710000Y-62256000D03*
X150710000Y-59716000D03*
X153250000Y-62256000D03*
X153250000Y-59716000D03*
X155790000Y-62256000D03*
X155790000Y-59716000D03*
X158330000Y-62256000D03*
X158330000Y-59716000D03*
X160870000Y-62256000D03*
X160870000Y-59716000D03*
X163410000Y-62256000D03*
X163410000Y-59716000D03*
X165950000Y-62256000D03*
X165950000Y-59716000D03*
X168490000Y-62256000D03*
X168490000Y-59716000D03*
X171030000Y-62256000D03*
X171030000Y-59716000D03*
X173570000Y-62256000D03*
X173570000Y-59716000D03*
X176110000Y-62256000D03*
X176110000Y-59716000D03*
X178650000Y-62256000D03*
X178650000Y-59716000D03*
D10*
X106350000Y-140336000D03*
X186350000Y-140336000D03*
D12*
X105116400Y-97517200D03*
X187384400Y-97517200D03*
X123908400Y-88750000D03*
X124868200Y-85756800D03*
X120566200Y-83119600D03*
X123301300Y-81352200D03*
X123428100Y-69527700D03*
X119938500Y-78304600D03*
X120448300Y-76939900D03*
X122102300Y-72308700D03*
X119908000Y-75236900D03*
X122111500Y-73888100D03*
X145152600Y-77524700D03*
X144400400Y-86206300D03*
X144290200Y-84790900D03*
X141527600Y-83185900D03*
X140807100Y-79123100D03*
X139703400Y-77339800D03*
X137345300Y-72961300D03*
X136147000Y-69527700D03*
X161468500Y-68140200D03*
X159913100Y-77294400D03*
X157475900Y-77281100D03*
X156078100Y-68497000D03*
X159613300Y-85000000D03*
X158503500Y-84612700D03*
X155927600Y-85722100D03*
X152180400Y-82996800D03*
X159400700Y-90197200D03*
X173271900Y-68781200D03*
X174137400Y-75307400D03*
X171874700Y-67316900D03*
X173213400Y-76628900D03*
X171292500Y-65778600D03*
X173435200Y-78582600D03*
X170650000Y-81512900D03*
X169305500Y-64565100D03*
X170137700Y-85614600D03*
X170547400Y-89012900D03*
X113432500Y-89103300D03*
X113414600Y-86920800D03*
X116829800Y-86195600D03*
X113211500Y-84482700D03*
X113468100Y-81635100D03*
X133746100Y-90197200D03*
X136667000Y-89743400D03*
X134211300Y-86891400D03*
X133948800Y-85876700D03*
X133746100Y-84862100D03*
X133631200Y-82743400D03*
X135170300Y-80211900D03*
X133719600Y-80602900D03*
X133930200Y-78419300D03*
X152758900Y-74500100D03*
X152630700Y-76113100D03*
X154781200Y-74686100D03*
X155027500Y-66309200D03*
X156475600Y-79805900D03*
X152990300Y-80552400D03*
X153252800Y-81702800D03*
X152732900Y-85259600D03*
X152183900Y-86678800D03*
X180888500Y-84831100D03*
X179297300Y-81820600D03*
X179651100Y-87059400D03*
X178239900Y-86571900D03*
D13*
X185866000Y-99035600D02*
X187384400Y-97517200D01*
X186350000Y-140336000D02*
X185866000Y-139852000D01*
X185866000Y-139852000D02*
X185866000Y-99035600D01*
X129040600Y-58366600D02*
X127850000Y-57176000D01*
X124868200Y-85756800D02*
X129040600Y-81584400D01*
X129040600Y-81584400D02*
X129040600Y-58366600D01*
X121500000Y-55906000D02*
X120230000Y-54636000D01*
X123428100Y-69527700D02*
X123905400Y-69050400D01*
X122211100Y-58311400D02*
X121500000Y-57600300D01*
X122976300Y-58311400D02*
X122211100Y-58311400D01*
X123905400Y-69050400D02*
X123905400Y-59240500D01*
X121500000Y-57600300D02*
X121500000Y-55906000D01*
X123905400Y-59240500D02*
X122976300Y-58311400D01*
X146810400Y-59282200D02*
X146108800Y-58580600D01*
X146108800Y-58580600D02*
X145423700Y-58580600D01*
X146810400Y-83796300D02*
X146810400Y-59282200D01*
X144360000Y-55906000D02*
X143090000Y-54636000D01*
X144400400Y-86206300D02*
X146810400Y-83796300D01*
X145423700Y-58580600D02*
X144360000Y-57516900D01*
X144360000Y-57516900D02*
X144360000Y-55906000D01*
X139280000Y-66654000D02*
X139280000Y-58446000D01*
X140807100Y-79123100D02*
X140807100Y-68181100D01*
X139280000Y-58446000D02*
X138010000Y-57176000D01*
X140807100Y-68181100D02*
X139280000Y-66654000D01*
X136740000Y-58446000D02*
X135470000Y-57176000D01*
X137345300Y-66566600D02*
X136740000Y-65961300D01*
X136740000Y-65961300D02*
X136740000Y-58446000D01*
X137345300Y-72961300D02*
X137345300Y-66566600D01*
X154440600Y-55826600D02*
X154440600Y-63669500D01*
X154241100Y-66660000D02*
X156078100Y-68497000D01*
X153250000Y-54636000D02*
X154440600Y-55826600D01*
X154241100Y-63869000D02*
X154241100Y-66660000D01*
X154440600Y-63669500D02*
X154241100Y-63869000D01*
X150710000Y-54636000D02*
X151900600Y-55826600D01*
X151900600Y-55826600D02*
X151900600Y-64659000D01*
X151900600Y-64659000D02*
X151547400Y-65012200D01*
X151547400Y-65012200D02*
X151547400Y-77656600D01*
X151547400Y-77656600D02*
X158503500Y-84612700D01*
X159400700Y-90197200D02*
X158988900Y-90197200D01*
X149440000Y-58446000D02*
X148170000Y-57176000D01*
X149440000Y-81290200D02*
X149440000Y-58446000D01*
X152793200Y-84001500D02*
X152151300Y-84001500D01*
X152151300Y-84001500D02*
X149440000Y-81290200D01*
X158988900Y-90197200D02*
X152793200Y-84001500D01*
X173271900Y-68781200D02*
X177380000Y-64673100D01*
X177380000Y-64673100D02*
X177380000Y-55906000D01*
X177380000Y-55906000D02*
X178650000Y-54636000D01*
X174840000Y-64351600D02*
X174840000Y-55906000D01*
X174840000Y-55906000D02*
X176110000Y-54636000D01*
X171874700Y-67316900D02*
X174840000Y-64351600D01*
X171292500Y-65778600D02*
X172300000Y-64771100D01*
X172300000Y-55906000D02*
X173570000Y-54636000D01*
X172300000Y-64771100D02*
X172300000Y-55906000D01*
X169305500Y-64565100D02*
X169646400Y-64224200D01*
X169646400Y-64224200D02*
X169646400Y-55792400D01*
X169646400Y-55792400D02*
X168490000Y-54636000D01*
X126580000Y-60986000D02*
X127850000Y-59716000D01*
X113432500Y-89103300D02*
X112689200Y-88360000D01*
X112689200Y-86592500D02*
X126580000Y-72701700D01*
X112689200Y-88360000D02*
X112689200Y-86592500D01*
X126580000Y-72701700D02*
X126580000Y-60986000D01*
X127850000Y-72485400D02*
X127850000Y-62256000D01*
X113414600Y-86920800D02*
X127850000Y-72485400D01*
X125310000Y-62256000D02*
X125310000Y-71797400D01*
X125310000Y-71797400D02*
X121116000Y-75991400D01*
X120310100Y-75991400D02*
X113211500Y-83090000D01*
X121116000Y-75991400D02*
X120310100Y-75991400D01*
X113211500Y-83090000D02*
X113211500Y-84482700D01*
X121500000Y-71885200D02*
X121500000Y-60986000D01*
X113468100Y-79917100D02*
X121500000Y-71885200D01*
X113468100Y-81635100D02*
X113468100Y-79917100D01*
X121500000Y-60986000D02*
X122770000Y-59716000D01*
X133746100Y-89865900D02*
X144360000Y-79252000D01*
X144360000Y-79252000D02*
X144360000Y-60986000D01*
X144360000Y-60986000D02*
X145630000Y-59716000D01*
X133746100Y-90197200D02*
X133746100Y-89865900D01*
X145881900Y-80528500D02*
X145881900Y-62507900D01*
X145881900Y-62507900D02*
X145630000Y-62256000D01*
X136667000Y-89743400D02*
X145881900Y-80528500D01*
X133948800Y-85876700D02*
X135099900Y-85876700D01*
X135099900Y-85876700D02*
X143090000Y-77886600D01*
X143090000Y-77886600D02*
X143090000Y-62256000D01*
X138112400Y-76210100D02*
X133719600Y-80602900D01*
X138112400Y-62358400D02*
X138112400Y-76210100D01*
X138010000Y-62256000D02*
X138112400Y-62358400D01*
X134200000Y-60986000D02*
X135470000Y-59716000D01*
X133930200Y-78419300D02*
X134200000Y-78149500D01*
X134200000Y-78149500D02*
X134200000Y-60986000D01*
X163410000Y-63849000D02*
X163410000Y-62256000D01*
X152758900Y-74500100D02*
X163410000Y-63849000D01*
X159600000Y-66571200D02*
X159600000Y-60986000D01*
X152630700Y-76113100D02*
X152027400Y-75509800D01*
X159600000Y-60986000D02*
X160870000Y-59716000D01*
X152027400Y-74143800D02*
X159600000Y-66571200D01*
X152027400Y-75509800D02*
X152027400Y-74143800D01*
X168490000Y-65025000D02*
X180888500Y-77423500D01*
X180888500Y-77423500D02*
X180888500Y-84831100D01*
X168490000Y-62256000D02*
X168490000Y-65025000D01*
X167220000Y-64654700D02*
X167220000Y-60986000D01*
X167220000Y-60986000D02*
X165950000Y-59716000D01*
X179297300Y-76732000D02*
X167220000Y-64654700D01*
X179297300Y-81820600D02*
X179297300Y-76732000D01*
X179651100Y-87059400D02*
X179651100Y-83772700D01*
X173735700Y-77857300D02*
X173373000Y-77857300D01*
X173373000Y-77857300D02*
X165950000Y-70434300D01*
X179651100Y-83772700D02*
X173735700Y-77857300D01*
X165950000Y-70434300D02*
X165950000Y-62256000D01*
X178239900Y-86571900D02*
X178239900Y-86387000D01*
X164680000Y-72827100D02*
X164680000Y-60986000D01*
X164680000Y-60986000D02*
X163410000Y-59716000D01*
X178239900Y-86387000D02*
X164680000Y-72827100D01*
G04 #@! TA.AperFunction,NonConductor*
G36*
X182070681Y-51631502D02*
G01*
X182117174Y-51685158D01*
X182127278Y-51755432D01*
X182097784Y-51820012D01*
X182067520Y-51845464D01*
X181918687Y-51935013D01*
X181918681Y-51935017D01*
X181637393Y-52148846D01*
X181637378Y-52148859D01*
X181380873Y-52391835D01*
X181380869Y-52391840D01*
X181152121Y-52661143D01*
X180953830Y-52953600D01*
X180953827Y-52953605D01*
X180953826Y-52953607D01*
X180788321Y-53265784D01*
X180788317Y-53265793D01*
X180657537Y-53594027D01*
X180563006Y-53934494D01*
X180505844Y-54283176D01*
X180486714Y-54635997D01*
X180486714Y-54636002D01*
X180505844Y-54988823D01*
X180563006Y-55337505D01*
X180657537Y-55677972D01*
X180776258Y-55975941D01*
X180788322Y-56006218D01*
X180953830Y-56318400D01*
X181152121Y-56610857D01*
X181380869Y-56880160D01*
X181380872Y-56880162D01*
X181380873Y-56880164D01*
X181637378Y-57123140D01*
X181637393Y-57123153D01*
X181918686Y-57336986D01*
X182221449Y-57519152D01*
X182303764Y-57557235D01*
X182542115Y-57667509D01*
X182542122Y-57667512D01*
X182542133Y-57667517D01*
X182876979Y-57780339D01*
X183222059Y-57856297D01*
X183573329Y-57894500D01*
X183573337Y-57894500D01*
X183926663Y-57894500D01*
X183926671Y-57894500D01*
X184277941Y-57856297D01*
X184623021Y-57780339D01*
X184957867Y-57667517D01*
X185278551Y-57519152D01*
X185581314Y-57336986D01*
X185862607Y-57123153D01*
X186119131Y-56880160D01*
X186347879Y-56610857D01*
X186524212Y-56350784D01*
X186578995Y-56305628D01*
X186649496Y-56297257D01*
X186713332Y-56328331D01*
X186750233Y-56388984D01*
X186754500Y-56421495D01*
X186754500Y-64411469D01*
X186754500Y-64436000D01*
X186754500Y-64544254D01*
X186787884Y-64755027D01*
X186788371Y-64758101D01*
X186795029Y-64778592D01*
X186799569Y-64797344D01*
X186800000Y-64800000D01*
X186899999Y-65099998D01*
X186899999Y-65099999D01*
X187199998Y-65499999D01*
X187199999Y-65499999D01*
X187200000Y-65500000D01*
X187364947Y-65582473D01*
X187382655Y-65593233D01*
X187409081Y-65612433D01*
X187601991Y-65710726D01*
X187807903Y-65777630D01*
X187845248Y-65783545D01*
X187865374Y-65788458D01*
X187900000Y-65800000D01*
X187939221Y-65800000D01*
X187958931Y-65801551D01*
X187973273Y-65803822D01*
X188021746Y-65811500D01*
X188021748Y-65811500D01*
X188129805Y-65811500D01*
X189293475Y-65819206D01*
X189295296Y-65819500D01*
X189313469Y-65819500D01*
X189335521Y-65819500D01*
X189340466Y-65819694D01*
X189370879Y-65822087D01*
X189518426Y-65833699D01*
X189537946Y-65836792D01*
X189704278Y-65876726D01*
X189723080Y-65882834D01*
X189881121Y-65948298D01*
X189898732Y-65957271D01*
X190044591Y-66046653D01*
X190060580Y-66058270D01*
X190190654Y-66169366D01*
X190204633Y-66183345D01*
X190315729Y-66313419D01*
X190327348Y-66329410D01*
X190388061Y-66428485D01*
X190416727Y-66475265D01*
X190425703Y-66492881D01*
X190491164Y-66650918D01*
X190497274Y-66669722D01*
X190537207Y-66836054D01*
X190540300Y-66855582D01*
X190554306Y-67033535D01*
X190554500Y-67038481D01*
X190554500Y-97274000D01*
X190534498Y-97342121D01*
X190480842Y-97388614D01*
X190428500Y-97400000D01*
X188393117Y-97400000D01*
X188324996Y-97379998D01*
X188278503Y-97326342D01*
X188273284Y-97312937D01*
X188218927Y-97145644D01*
X188123440Y-96980256D01*
X188123438Y-96980254D01*
X188123434Y-96980248D01*
X187995655Y-96838335D01*
X187841152Y-96726082D01*
X187666688Y-96648406D01*
X187479887Y-96608700D01*
X187288913Y-96608700D01*
X187102111Y-96648406D01*
X186927647Y-96726082D01*
X186773144Y-96838335D01*
X186645365Y-96980248D01*
X186645358Y-96980258D01*
X186549876Y-97145638D01*
X186549873Y-97145644D01*
X186495516Y-97312937D01*
X186455442Y-97371542D01*
X186390045Y-97399179D01*
X186375683Y-97400000D01*
X106125117Y-97400000D01*
X106056996Y-97379998D01*
X106010503Y-97326342D01*
X106005284Y-97312937D01*
X105950927Y-97145644D01*
X105855440Y-96980256D01*
X105855438Y-96980254D01*
X105855434Y-96980248D01*
X105727655Y-96838335D01*
X105573152Y-96726082D01*
X105398688Y-96648406D01*
X105211887Y-96608700D01*
X105020913Y-96608700D01*
X104834111Y-96648406D01*
X104659647Y-96726082D01*
X104505144Y-96838335D01*
X104377365Y-96980248D01*
X104377358Y-96980258D01*
X104281876Y-97145638D01*
X104281873Y-97145644D01*
X104227516Y-97312937D01*
X104187442Y-97371542D01*
X104122045Y-97399179D01*
X104107683Y-97400000D01*
X103371500Y-97400000D01*
X103303379Y-97379998D01*
X103256886Y-97326342D01*
X103245500Y-97274000D01*
X103245500Y-86572443D01*
X112050980Y-86572443D01*
X112055420Y-86619417D01*
X112055700Y-86625350D01*
X112055700Y-88276146D01*
X112053951Y-88291988D01*
X112054244Y-88292016D01*
X112053498Y-88299907D01*
X112055700Y-88369957D01*
X112055700Y-88399851D01*
X112055701Y-88399872D01*
X112056578Y-88406820D01*
X112057044Y-88412732D01*
X112058526Y-88459888D01*
X112058527Y-88459893D01*
X112064177Y-88479339D01*
X112068186Y-88498697D01*
X112070725Y-88518793D01*
X112070726Y-88518799D01*
X112088093Y-88562662D01*
X112090016Y-88568279D01*
X112103182Y-88613593D01*
X112113494Y-88631031D01*
X112122188Y-88648779D01*
X112129644Y-88667609D01*
X112129650Y-88667620D01*
X112157377Y-88705783D01*
X112160637Y-88710746D01*
X112184660Y-88751365D01*
X112198979Y-88765684D01*
X112211817Y-88780714D01*
X112223726Y-88797104D01*
X112223730Y-88797109D01*
X112260080Y-88827180D01*
X112264473Y-88831177D01*
X112485378Y-89052083D01*
X112519403Y-89114395D01*
X112521592Y-89128007D01*
X112538957Y-89293227D01*
X112560217Y-89358657D01*
X112597973Y-89474856D01*
X112597976Y-89474861D01*
X112693458Y-89640241D01*
X112693465Y-89640251D01*
X112821244Y-89782164D01*
X112881081Y-89825638D01*
X112975748Y-89894418D01*
X113150212Y-89972094D01*
X113337013Y-90011800D01*
X113527987Y-90011800D01*
X113714788Y-89972094D01*
X113889252Y-89894418D01*
X114043753Y-89782166D01*
X114092999Y-89727473D01*
X114171534Y-89640251D01*
X114171535Y-89640249D01*
X114171540Y-89640244D01*
X114267027Y-89474856D01*
X114326042Y-89293228D01*
X114346004Y-89103300D01*
X114326042Y-88913372D01*
X114272959Y-88750000D01*
X122994896Y-88750000D01*
X123014857Y-88939927D01*
X123018872Y-88952282D01*
X123073873Y-89121556D01*
X123102241Y-89170691D01*
X123169358Y-89286941D01*
X123169365Y-89286951D01*
X123297144Y-89428864D01*
X123297147Y-89428866D01*
X123451648Y-89541118D01*
X123626112Y-89618794D01*
X123812913Y-89658500D01*
X124003887Y-89658500D01*
X124190688Y-89618794D01*
X124365152Y-89541118D01*
X124519653Y-89428866D01*
X124553611Y-89391152D01*
X124647434Y-89286951D01*
X124647435Y-89286949D01*
X124647440Y-89286944D01*
X124742927Y-89121556D01*
X124801942Y-88939928D01*
X124821904Y-88750000D01*
X124801942Y-88560072D01*
X124742927Y-88378444D01*
X124647440Y-88213056D01*
X124647438Y-88213054D01*
X124647434Y-88213048D01*
X124519655Y-88071135D01*
X124365152Y-87958882D01*
X124190688Y-87881206D01*
X124003887Y-87841500D01*
X123812913Y-87841500D01*
X123626111Y-87881206D01*
X123451647Y-87958882D01*
X123297144Y-88071135D01*
X123169365Y-88213048D01*
X123169358Y-88213058D01*
X123073876Y-88378438D01*
X123073873Y-88378444D01*
X123066916Y-88399856D01*
X123014857Y-88560072D01*
X122994896Y-88750000D01*
X114272959Y-88750000D01*
X114267027Y-88731744D01*
X114171540Y-88566356D01*
X114171538Y-88566354D01*
X114171534Y-88566348D01*
X114043755Y-88424435D01*
X113889252Y-88312182D01*
X113714788Y-88234506D01*
X113527987Y-88194800D01*
X113472095Y-88194800D01*
X113403974Y-88174798D01*
X113383000Y-88157895D01*
X113359605Y-88134500D01*
X113325579Y-88072188D01*
X113322700Y-88045405D01*
X113322700Y-87955300D01*
X113342702Y-87887179D01*
X113396358Y-87840686D01*
X113448700Y-87829300D01*
X113510087Y-87829300D01*
X113696888Y-87789594D01*
X113871352Y-87711918D01*
X114025853Y-87599666D01*
X114028847Y-87596341D01*
X114153634Y-87457751D01*
X114153635Y-87457749D01*
X114153640Y-87457744D01*
X114249127Y-87292356D01*
X114308142Y-87110728D01*
X114325507Y-86945503D01*
X114352520Y-86879848D01*
X114361713Y-86869589D01*
X115035702Y-86195600D01*
X115916296Y-86195600D01*
X115936257Y-86385527D01*
X115952548Y-86435664D01*
X115995273Y-86567156D01*
X116001450Y-86577854D01*
X116090758Y-86732541D01*
X116090765Y-86732551D01*
X116218544Y-86874464D01*
X116260398Y-86904873D01*
X116373048Y-86986718D01*
X116547512Y-87064394D01*
X116734313Y-87104100D01*
X116925287Y-87104100D01*
X117112088Y-87064394D01*
X117286552Y-86986718D01*
X117441053Y-86874466D01*
X117441055Y-86874464D01*
X117568834Y-86732551D01*
X117568835Y-86732549D01*
X117568840Y-86732544D01*
X117664327Y-86567156D01*
X117723342Y-86385528D01*
X117743304Y-86195600D01*
X117723342Y-86005672D01*
X117664327Y-85824044D01*
X117568840Y-85658656D01*
X117568838Y-85658654D01*
X117568834Y-85658648D01*
X117441055Y-85516735D01*
X117286552Y-85404482D01*
X117112088Y-85326806D01*
X116925287Y-85287100D01*
X116734313Y-85287100D01*
X116547511Y-85326806D01*
X116373047Y-85404482D01*
X116218544Y-85516735D01*
X116090765Y-85658648D01*
X116090758Y-85658658D01*
X115995276Y-85824038D01*
X115995273Y-85824044D01*
X115980799Y-85868586D01*
X115936257Y-86005672D01*
X115916296Y-86195600D01*
X115035702Y-86195600D01*
X118111702Y-83119600D01*
X119652696Y-83119600D01*
X119672657Y-83309527D01*
X119695991Y-83381338D01*
X119731673Y-83491156D01*
X119747811Y-83519107D01*
X119827158Y-83656541D01*
X119827165Y-83656551D01*
X119954944Y-83798464D01*
X120016199Y-83842968D01*
X120109448Y-83910718D01*
X120283912Y-83988394D01*
X120470713Y-84028100D01*
X120661687Y-84028100D01*
X120848488Y-83988394D01*
X121022952Y-83910718D01*
X121177453Y-83798466D01*
X121206304Y-83766424D01*
X121305234Y-83656551D01*
X121305235Y-83656549D01*
X121305240Y-83656544D01*
X121400727Y-83491156D01*
X121459742Y-83309528D01*
X121479704Y-83119600D01*
X121459742Y-82929672D01*
X121400727Y-82748044D01*
X121305240Y-82582656D01*
X121305238Y-82582654D01*
X121305234Y-82582648D01*
X121177455Y-82440735D01*
X121022952Y-82328482D01*
X120848488Y-82250806D01*
X120661687Y-82211100D01*
X120470713Y-82211100D01*
X120283911Y-82250806D01*
X120109447Y-82328482D01*
X119954944Y-82440735D01*
X119827165Y-82582648D01*
X119827158Y-82582658D01*
X119735672Y-82741117D01*
X119731673Y-82748044D01*
X119717255Y-82792418D01*
X119672657Y-82929672D01*
X119652696Y-83119600D01*
X118111702Y-83119600D01*
X119879102Y-81352200D01*
X122387796Y-81352200D01*
X122407757Y-81542127D01*
X122428009Y-81604455D01*
X122466773Y-81723756D01*
X122468823Y-81727307D01*
X122562258Y-81889141D01*
X122562265Y-81889151D01*
X122690044Y-82031064D01*
X122715902Y-82049851D01*
X122844548Y-82143318D01*
X123019012Y-82220994D01*
X123205813Y-82260700D01*
X123396787Y-82260700D01*
X123583588Y-82220994D01*
X123758052Y-82143318D01*
X123912553Y-82031066D01*
X123917741Y-82025304D01*
X124040334Y-81889151D01*
X124040335Y-81889149D01*
X124040340Y-81889144D01*
X124135827Y-81723756D01*
X124194842Y-81542128D01*
X124214804Y-81352200D01*
X124194842Y-81162272D01*
X124135827Y-80980644D01*
X124040340Y-80815256D01*
X124040338Y-80815254D01*
X124040334Y-80815248D01*
X123912555Y-80673335D01*
X123758052Y-80561082D01*
X123583588Y-80483406D01*
X123396787Y-80443700D01*
X123205813Y-80443700D01*
X123019011Y-80483406D01*
X122844547Y-80561082D01*
X122690044Y-80673335D01*
X122562265Y-80815248D01*
X122562258Y-80815258D01*
X122469478Y-80975958D01*
X122466773Y-80980644D01*
X122452707Y-81023934D01*
X122407757Y-81162272D01*
X122387796Y-81352200D01*
X119879102Y-81352200D01*
X128192005Y-73039298D01*
X128254317Y-73005272D01*
X128325132Y-73010337D01*
X128381968Y-73052884D01*
X128406779Y-73119404D01*
X128407100Y-73128393D01*
X128407100Y-81269805D01*
X128387098Y-81337926D01*
X128370195Y-81358900D01*
X124917700Y-84811395D01*
X124855388Y-84845421D01*
X124828605Y-84848300D01*
X124772713Y-84848300D01*
X124585911Y-84888006D01*
X124411447Y-84965682D01*
X124256944Y-85077935D01*
X124129165Y-85219848D01*
X124129158Y-85219858D01*
X124033676Y-85385238D01*
X124033673Y-85385244D01*
X124029190Y-85399042D01*
X123974657Y-85566872D01*
X123954696Y-85756800D01*
X123974657Y-85946727D01*
X123991946Y-85999934D01*
X124033673Y-86128356D01*
X124033676Y-86128361D01*
X124129158Y-86293741D01*
X124129165Y-86293751D01*
X124256944Y-86435664D01*
X124294179Y-86462717D01*
X124411448Y-86547918D01*
X124585912Y-86625594D01*
X124772713Y-86665300D01*
X124963687Y-86665300D01*
X125150488Y-86625594D01*
X125324952Y-86547918D01*
X125479453Y-86435666D01*
X125479455Y-86435664D01*
X125607234Y-86293751D01*
X125607235Y-86293749D01*
X125607240Y-86293744D01*
X125702727Y-86128356D01*
X125761742Y-85946728D01*
X125779107Y-85781503D01*
X125806120Y-85715848D01*
X125815313Y-85705589D01*
X128777502Y-82743400D01*
X132717696Y-82743400D01*
X132737657Y-82933327D01*
X132747711Y-82964268D01*
X132796673Y-83114956D01*
X132796676Y-83114961D01*
X132892158Y-83280341D01*
X132892165Y-83280351D01*
X133019944Y-83422264D01*
X133019947Y-83422266D01*
X133174448Y-83534518D01*
X133348912Y-83612194D01*
X133535713Y-83651900D01*
X133726687Y-83651900D01*
X133913488Y-83612194D01*
X134087952Y-83534518D01*
X134242453Y-83422266D01*
X134260236Y-83402516D01*
X134370234Y-83280351D01*
X134370235Y-83280349D01*
X134370240Y-83280344D01*
X134465727Y-83114956D01*
X134524742Y-82933328D01*
X134544704Y-82743400D01*
X134524742Y-82553472D01*
X134465727Y-82371844D01*
X134370240Y-82206456D01*
X134370238Y-82206454D01*
X134370234Y-82206448D01*
X134242455Y-82064535D01*
X134087952Y-81952282D01*
X133913488Y-81874606D01*
X133726687Y-81834900D01*
X133535713Y-81834900D01*
X133348911Y-81874606D01*
X133174447Y-81952282D01*
X133019944Y-82064535D01*
X132892165Y-82206448D01*
X132892158Y-82206458D01*
X132800831Y-82364642D01*
X132796673Y-82371844D01*
X132793482Y-82381666D01*
X132737657Y-82553472D01*
X132717696Y-82743400D01*
X128777502Y-82743400D01*
X129429257Y-82091645D01*
X129441692Y-82081684D01*
X129441505Y-82081457D01*
X129447609Y-82076405D01*
X129447618Y-82076400D01*
X129495599Y-82025304D01*
X129516735Y-82004169D01*
X129521037Y-81998621D01*
X129524867Y-81994135D01*
X129557186Y-81959721D01*
X129566945Y-81941967D01*
X129577804Y-81925438D01*
X129579414Y-81923363D01*
X129590214Y-81909440D01*
X129608954Y-81866132D01*
X129611565Y-81860804D01*
X129634295Y-81819460D01*
X129639333Y-81799835D01*
X129645738Y-81781130D01*
X129653781Y-81762545D01*
X129659924Y-81723756D01*
X129661161Y-81715947D01*
X129662362Y-81710140D01*
X129674100Y-81664430D01*
X129674100Y-81644175D01*
X129675651Y-81624463D01*
X129678820Y-81604457D01*
X129676229Y-81577051D01*
X129674380Y-81557480D01*
X129674100Y-81551548D01*
X129674100Y-63574754D01*
X129694102Y-63506633D01*
X129747758Y-63460140D01*
X129818032Y-63450036D01*
X129853347Y-63460558D01*
X129937324Y-63499717D01*
X130160170Y-63559429D01*
X130390000Y-63579536D01*
X130619830Y-63559429D01*
X130842676Y-63499717D01*
X131051768Y-63402216D01*
X131240753Y-63269887D01*
X131403887Y-63106753D01*
X131536216Y-62917768D01*
X131545805Y-62897205D01*
X131592722Y-62843919D01*
X131660999Y-62824458D01*
X131728959Y-62844999D01*
X131774195Y-62897205D01*
X131783782Y-62917766D01*
X131916110Y-63106749D01*
X131916113Y-63106753D01*
X132079247Y-63269887D01*
X132268232Y-63402216D01*
X132477324Y-63499717D01*
X132700170Y-63559429D01*
X132930000Y-63579536D01*
X133159830Y-63559429D01*
X133382676Y-63499717D01*
X133385549Y-63498377D01*
X133387249Y-63497585D01*
X133457441Y-63486923D01*
X133522254Y-63515902D01*
X133561110Y-63575322D01*
X133566500Y-63611779D01*
X133566500Y-77504926D01*
X133546498Y-77573047D01*
X133492842Y-77619540D01*
X133491752Y-77620031D01*
X133473456Y-77628177D01*
X133473448Y-77628182D01*
X133318944Y-77740435D01*
X133191165Y-77882348D01*
X133191158Y-77882358D01*
X133112462Y-78018664D01*
X133095673Y-78047744D01*
X133091993Y-78059070D01*
X133036657Y-78229372D01*
X133016696Y-78419300D01*
X133036657Y-78609227D01*
X133058404Y-78676154D01*
X133095673Y-78790856D01*
X133095676Y-78790861D01*
X133191158Y-78956241D01*
X133191165Y-78956251D01*
X133318944Y-79098164D01*
X133358680Y-79127034D01*
X133473448Y-79210418D01*
X133647912Y-79288094D01*
X133825510Y-79325844D01*
X133887982Y-79359571D01*
X133922304Y-79421721D01*
X133917576Y-79492560D01*
X133888408Y-79538185D01*
X133769100Y-79657495D01*
X133706788Y-79691520D01*
X133680004Y-79694400D01*
X133624113Y-79694400D01*
X133437311Y-79734106D01*
X133262847Y-79811782D01*
X133108344Y-79924035D01*
X132980565Y-80065948D01*
X132980558Y-80065958D01*
X132885076Y-80231338D01*
X132885073Y-80231345D01*
X132826057Y-80412972D01*
X132806096Y-80602900D01*
X132826057Y-80792827D01*
X132856126Y-80885370D01*
X132885073Y-80974456D01*
X132885939Y-80975956D01*
X132980558Y-81139841D01*
X132980565Y-81139851D01*
X133108344Y-81281764D01*
X133108347Y-81281766D01*
X133262848Y-81394018D01*
X133437312Y-81471694D01*
X133624113Y-81511400D01*
X133815087Y-81511400D01*
X134001888Y-81471694D01*
X134176352Y-81394018D01*
X134330853Y-81281766D01*
X134372305Y-81235729D01*
X134458634Y-81139851D01*
X134458635Y-81139849D01*
X134458640Y-81139844D01*
X134519652Y-81034167D01*
X134571035Y-80985175D01*
X134640748Y-80971739D01*
X134702829Y-80995230D01*
X134713548Y-81003018D01*
X134888012Y-81080694D01*
X135074813Y-81120400D01*
X135265787Y-81120400D01*
X135452588Y-81080694D01*
X135627052Y-81003018D01*
X135781553Y-80890766D01*
X135849541Y-80815258D01*
X135909334Y-80748851D01*
X135909335Y-80748849D01*
X135909340Y-80748844D01*
X136004827Y-80583456D01*
X136063842Y-80401828D01*
X136083804Y-80211900D01*
X136063842Y-80021972D01*
X136004827Y-79840344D01*
X135909340Y-79674956D01*
X135892212Y-79655934D01*
X135815988Y-79571277D01*
X135785271Y-79507269D01*
X135794036Y-79436816D01*
X135820527Y-79397875D01*
X138501057Y-76717345D01*
X138513492Y-76707384D01*
X138513305Y-76707157D01*
X138519409Y-76702105D01*
X138519418Y-76702100D01*
X138567399Y-76651004D01*
X138588534Y-76629870D01*
X138592829Y-76624332D01*
X138596671Y-76619831D01*
X138628986Y-76585421D01*
X138638745Y-76567667D01*
X138649597Y-76551146D01*
X138662013Y-76535141D01*
X138675799Y-76503282D01*
X138680747Y-76491848D01*
X138683361Y-76486512D01*
X138706094Y-76445161D01*
X138706095Y-76445160D01*
X138711133Y-76425535D01*
X138717538Y-76406830D01*
X138725581Y-76388245D01*
X138732963Y-76341625D01*
X138734161Y-76335844D01*
X138745900Y-76290130D01*
X138745900Y-76269869D01*
X138747451Y-76250158D01*
X138750619Y-76230156D01*
X138746180Y-76183189D01*
X138745900Y-76177257D01*
X138745900Y-67319994D01*
X138765902Y-67251873D01*
X138819558Y-67205380D01*
X138889832Y-67195276D01*
X138954412Y-67224770D01*
X138960995Y-67230899D01*
X140136695Y-68406599D01*
X140170721Y-68468911D01*
X140173600Y-68495694D01*
X140173600Y-76360646D01*
X140153598Y-76428767D01*
X140099942Y-76475260D01*
X140029668Y-76485364D01*
X139996354Y-76475754D01*
X139985690Y-76471006D01*
X139798887Y-76431300D01*
X139607913Y-76431300D01*
X139421111Y-76471006D01*
X139246647Y-76548682D01*
X139092144Y-76660935D01*
X138964365Y-76802848D01*
X138964358Y-76802858D01*
X138868876Y-76968238D01*
X138868873Y-76968244D01*
X138855045Y-77010802D01*
X138809857Y-77149872D01*
X138789896Y-77339800D01*
X138809857Y-77529727D01*
X138831967Y-77597773D01*
X138868873Y-77711356D01*
X138868876Y-77711361D01*
X138964358Y-77876741D01*
X138964365Y-77876751D01*
X139092144Y-78018664D01*
X139092147Y-78018666D01*
X139246648Y-78130918D01*
X139421112Y-78208594D01*
X139607913Y-78248300D01*
X139798887Y-78248300D01*
X139985688Y-78208594D01*
X139996350Y-78203846D01*
X140066715Y-78194411D01*
X140131013Y-78224516D01*
X140168828Y-78284604D01*
X140173600Y-78318953D01*
X140173600Y-78420574D01*
X140153598Y-78488695D01*
X140141237Y-78504884D01*
X140068057Y-78586159D01*
X139972576Y-78751538D01*
X139972573Y-78751545D01*
X139913557Y-78933172D01*
X139893596Y-79123100D01*
X139913557Y-79313027D01*
X139934582Y-79377734D01*
X139972573Y-79494656D01*
X139994731Y-79533034D01*
X140015043Y-79568217D01*
X140068060Y-79660044D01*
X140155108Y-79756721D01*
X140185825Y-79820728D01*
X140177061Y-79891181D01*
X140150567Y-79930126D01*
X134874400Y-85206295D01*
X134812088Y-85240321D01*
X134785305Y-85243200D01*
X134750951Y-85243200D01*
X134682830Y-85223198D01*
X134636337Y-85169542D01*
X134626233Y-85099268D01*
X134631118Y-85078264D01*
X134639642Y-85052029D01*
X134645110Y-85000000D01*
X134659604Y-84862100D01*
X134639642Y-84672172D01*
X134580627Y-84490544D01*
X134485140Y-84325156D01*
X134485138Y-84325154D01*
X134485134Y-84325148D01*
X134357355Y-84183235D01*
X134202852Y-84070982D01*
X134028388Y-83993306D01*
X133841587Y-83953600D01*
X133650613Y-83953600D01*
X133463811Y-83993306D01*
X133289347Y-84070982D01*
X133134844Y-84183235D01*
X133007065Y-84325148D01*
X133007058Y-84325158D01*
X132911576Y-84490538D01*
X132911573Y-84490545D01*
X132852557Y-84672172D01*
X132832596Y-84862100D01*
X132852557Y-85052027D01*
X132867907Y-85099268D01*
X132911573Y-85233656D01*
X132911576Y-85233661D01*
X133007058Y-85399042D01*
X133007059Y-85399044D01*
X133062498Y-85460615D01*
X133093216Y-85524622D01*
X133088695Y-85583861D01*
X133055257Y-85686770D01*
X133035296Y-85876700D01*
X133055257Y-86066627D01*
X133082848Y-86151541D01*
X133114273Y-86248256D01*
X133120506Y-86259051D01*
X133206801Y-86408520D01*
X133209760Y-86413644D01*
X133210400Y-86414355D01*
X133309165Y-86524045D01*
X133339882Y-86588053D01*
X133335362Y-86647289D01*
X133317757Y-86701472D01*
X133297796Y-86891400D01*
X133317757Y-87081327D01*
X133347826Y-87173870D01*
X133376773Y-87262956D01*
X133376776Y-87262961D01*
X133472258Y-87428341D01*
X133472265Y-87428351D01*
X133600044Y-87570264D01*
X133600047Y-87570266D01*
X133754548Y-87682518D01*
X133929012Y-87760194D01*
X134115813Y-87799900D01*
X134306787Y-87799900D01*
X134493588Y-87760194D01*
X134668052Y-87682518D01*
X134709512Y-87652395D01*
X134776377Y-87628537D01*
X134845529Y-87644616D01*
X134895010Y-87695529D01*
X134909110Y-87765112D01*
X134883353Y-87831271D01*
X134872667Y-87843426D01*
X133357436Y-89358657D01*
X133345001Y-89368621D01*
X133345189Y-89368848D01*
X133332976Y-89378952D01*
X133332385Y-89378238D01*
X133299674Y-89401484D01*
X133289351Y-89406080D01*
X133289348Y-89406082D01*
X133134844Y-89518335D01*
X133007065Y-89660248D01*
X133007058Y-89660258D01*
X132911576Y-89825638D01*
X132911573Y-89825645D01*
X132852557Y-90007272D01*
X132832596Y-90197200D01*
X132852557Y-90387127D01*
X132863974Y-90422264D01*
X132911573Y-90568756D01*
X132911576Y-90568761D01*
X133007058Y-90734141D01*
X133007065Y-90734151D01*
X133134844Y-90876064D01*
X133134847Y-90876066D01*
X133289348Y-90988318D01*
X133463812Y-91065994D01*
X133650613Y-91105700D01*
X133841587Y-91105700D01*
X134028388Y-91065994D01*
X134202852Y-90988318D01*
X134357353Y-90876066D01*
X134467853Y-90753343D01*
X134485134Y-90734151D01*
X134485135Y-90734149D01*
X134485140Y-90734144D01*
X134580627Y-90568756D01*
X134639642Y-90387128D01*
X134659604Y-90197200D01*
X134639642Y-90007272D01*
X134629410Y-89975784D01*
X134627383Y-89904818D01*
X134660147Y-89847755D01*
X140693015Y-83814887D01*
X140755325Y-83780863D01*
X140826140Y-83785928D01*
X140875744Y-83819673D01*
X140916093Y-83864484D01*
X140916347Y-83864766D01*
X141070848Y-83977018D01*
X141226243Y-84046204D01*
X141280338Y-84092183D01*
X141300988Y-84160110D01*
X141281636Y-84228418D01*
X141264089Y-84250405D01*
X136716500Y-88797995D01*
X136654188Y-88832021D01*
X136627405Y-88834900D01*
X136571513Y-88834900D01*
X136384711Y-88874606D01*
X136210247Y-88952282D01*
X136055744Y-89064535D01*
X135927965Y-89206448D01*
X135927958Y-89206458D01*
X135832476Y-89371838D01*
X135832473Y-89371844D01*
X135822842Y-89401484D01*
X135773457Y-89553472D01*
X135753496Y-89743400D01*
X135773457Y-89933327D01*
X135786054Y-89972094D01*
X135832473Y-90114956D01*
X135832476Y-90114961D01*
X135927958Y-90280341D01*
X135927965Y-90280351D01*
X136055744Y-90422264D01*
X136055747Y-90422266D01*
X136210248Y-90534518D01*
X136384712Y-90612194D01*
X136571513Y-90651900D01*
X136762487Y-90651900D01*
X136949288Y-90612194D01*
X137123752Y-90534518D01*
X137278253Y-90422266D01*
X137278255Y-90422264D01*
X137406034Y-90280351D01*
X137406035Y-90280349D01*
X137406040Y-90280344D01*
X137501527Y-90114956D01*
X137560542Y-89933328D01*
X137577907Y-89768103D01*
X137604920Y-89702448D01*
X137614113Y-89692189D01*
X145961807Y-81344496D01*
X146024117Y-81310472D01*
X146094932Y-81315537D01*
X146151768Y-81358084D01*
X146176579Y-81424604D01*
X146176900Y-81433593D01*
X146176900Y-83481705D01*
X146156898Y-83549826D01*
X146139999Y-83570795D01*
X145717763Y-83993032D01*
X145301863Y-84408932D01*
X145239551Y-84442957D01*
X145168735Y-84437892D01*
X145111900Y-84395345D01*
X145103649Y-84382836D01*
X145029240Y-84253956D01*
X145029238Y-84253954D01*
X145029234Y-84253948D01*
X144901455Y-84112035D01*
X144746952Y-83999782D01*
X144572488Y-83922106D01*
X144385687Y-83882400D01*
X144194713Y-83882400D01*
X144007911Y-83922106D01*
X143833447Y-83999782D01*
X143678944Y-84112035D01*
X143551165Y-84253948D01*
X143551158Y-84253958D01*
X143461923Y-84408518D01*
X143455673Y-84419344D01*
X143448001Y-84442957D01*
X143396657Y-84600972D01*
X143376696Y-84790900D01*
X143396657Y-84980827D01*
X143416935Y-85043234D01*
X143455673Y-85162456D01*
X143455676Y-85162461D01*
X143551158Y-85327841D01*
X143551165Y-85327851D01*
X143683365Y-85474674D01*
X143681296Y-85476536D01*
X143712091Y-85526543D01*
X143710726Y-85597526D01*
X143684173Y-85644019D01*
X143661357Y-85669359D01*
X143565876Y-85834738D01*
X143565873Y-85834745D01*
X143506857Y-86016372D01*
X143486896Y-86206300D01*
X143506857Y-86396227D01*
X143529778Y-86466768D01*
X143565873Y-86577856D01*
X143565876Y-86577861D01*
X143661358Y-86743241D01*
X143661365Y-86743251D01*
X143789144Y-86885164D01*
X143789147Y-86885166D01*
X143943648Y-86997418D01*
X144118112Y-87075094D01*
X144304913Y-87114800D01*
X144495887Y-87114800D01*
X144682688Y-87075094D01*
X144857152Y-86997418D01*
X145011653Y-86885166D01*
X145011655Y-86885164D01*
X145139434Y-86743251D01*
X145139435Y-86743249D01*
X145139440Y-86743244D01*
X145234927Y-86577856D01*
X145293942Y-86396228D01*
X145311307Y-86231003D01*
X145338320Y-86165348D01*
X145347513Y-86155089D01*
X147199057Y-84303545D01*
X147211492Y-84293584D01*
X147211305Y-84293357D01*
X147217409Y-84288305D01*
X147217418Y-84288300D01*
X147265399Y-84237204D01*
X147286535Y-84216069D01*
X147290837Y-84210521D01*
X147294667Y-84206035D01*
X147326986Y-84171621D01*
X147336739Y-84153878D01*
X147347593Y-84137351D01*
X147360014Y-84121341D01*
X147378759Y-84078019D01*
X147381358Y-84072715D01*
X147404095Y-84031360D01*
X147409133Y-84011734D01*
X147415537Y-83993032D01*
X147423580Y-83974447D01*
X147423579Y-83974447D01*
X147423581Y-83974445D01*
X147430961Y-83927847D01*
X147432162Y-83922040D01*
X147443900Y-83876330D01*
X147443900Y-83856075D01*
X147445451Y-83836363D01*
X147446690Y-83828541D01*
X147448620Y-83816357D01*
X147445200Y-83780174D01*
X147444180Y-83769380D01*
X147443900Y-83763448D01*
X147443900Y-63569998D01*
X147463902Y-63501877D01*
X147517558Y-63455384D01*
X147587832Y-63445280D01*
X147623149Y-63455802D01*
X147717324Y-63499717D01*
X147940170Y-63559429D01*
X148170000Y-63579536D01*
X148399830Y-63559429D01*
X148622676Y-63499717D01*
X148625549Y-63498377D01*
X148627249Y-63497585D01*
X148697441Y-63486923D01*
X148762254Y-63515902D01*
X148801110Y-63575322D01*
X148806500Y-63611779D01*
X148806500Y-81206346D01*
X148804751Y-81222188D01*
X148805044Y-81222216D01*
X148804298Y-81230107D01*
X148806500Y-81300157D01*
X148806500Y-81330051D01*
X148806501Y-81330072D01*
X148807378Y-81337020D01*
X148807844Y-81342932D01*
X148809326Y-81390088D01*
X148809327Y-81390093D01*
X148814977Y-81409539D01*
X148818986Y-81428897D01*
X148821525Y-81448993D01*
X148821526Y-81448999D01*
X148838893Y-81492862D01*
X148840816Y-81498479D01*
X148853982Y-81543793D01*
X148864294Y-81561231D01*
X148872988Y-81578979D01*
X148880444Y-81597809D01*
X148880450Y-81597820D01*
X148908177Y-81635983D01*
X148911437Y-81640946D01*
X148935460Y-81681565D01*
X148949779Y-81695884D01*
X148962617Y-81710914D01*
X148966274Y-81715947D01*
X148974528Y-81727307D01*
X149002794Y-81750691D01*
X149010886Y-81757385D01*
X149015267Y-81761371D01*
X150337987Y-83084091D01*
X151644053Y-84390157D01*
X151654020Y-84402597D01*
X151654247Y-84402410D01*
X151659299Y-84408517D01*
X151710395Y-84456499D01*
X151731525Y-84477630D01*
X151737068Y-84481930D01*
X151741581Y-84485785D01*
X151775979Y-84518086D01*
X151775980Y-84518086D01*
X151775982Y-84518088D01*
X151793729Y-84527844D01*
X151810259Y-84538702D01*
X151826257Y-84551112D01*
X151826258Y-84551112D01*
X151826259Y-84551113D01*
X151869564Y-84569852D01*
X151874876Y-84572455D01*
X151916240Y-84595195D01*
X151916242Y-84595195D01*
X151918266Y-84596308D01*
X151968325Y-84646653D01*
X151983219Y-84716070D01*
X151966685Y-84769723D01*
X151898376Y-84888038D01*
X151898373Y-84888045D01*
X151839357Y-85069672D01*
X151819396Y-85259600D01*
X151839357Y-85449527D01*
X151860526Y-85514676D01*
X151898373Y-85631156D01*
X151898373Y-85631157D01*
X151898374Y-85631158D01*
X151911211Y-85653392D01*
X151927948Y-85722387D01*
X151904727Y-85789479D01*
X151853340Y-85831498D01*
X151727147Y-85887682D01*
X151572644Y-85999935D01*
X151444865Y-86141848D01*
X151444858Y-86141858D01*
X151349376Y-86307238D01*
X151349373Y-86307244D01*
X151338025Y-86342170D01*
X151290357Y-86488872D01*
X151270396Y-86678800D01*
X151290357Y-86868727D01*
X151320426Y-86961270D01*
X151349373Y-87050356D01*
X151349376Y-87050361D01*
X151444858Y-87215741D01*
X151444865Y-87215751D01*
X151572644Y-87357664D01*
X151604187Y-87380581D01*
X151727148Y-87469918D01*
X151901612Y-87547594D01*
X152088413Y-87587300D01*
X152279387Y-87587300D01*
X152466188Y-87547594D01*
X152640652Y-87469918D01*
X152795153Y-87357666D01*
X152853954Y-87292361D01*
X152922934Y-87215751D01*
X152922935Y-87215749D01*
X152922940Y-87215744D01*
X153018427Y-87050356D01*
X153077442Y-86868728D01*
X153097404Y-86678800D01*
X153077442Y-86488872D01*
X153018427Y-86307244D01*
X153018424Y-86307238D01*
X153005589Y-86285007D01*
X152988852Y-86216012D01*
X153012073Y-86148920D01*
X153063459Y-86106902D01*
X153189652Y-86050718D01*
X153344153Y-85938466D01*
X153471940Y-85796544D01*
X153471943Y-85796537D01*
X153475825Y-85791198D01*
X153477470Y-85792393D01*
X153521861Y-85750045D01*
X153591570Y-85736589D01*
X153657489Y-85762958D01*
X153668722Y-85772926D01*
X156090595Y-88194800D01*
X158481655Y-90585860D01*
X158491620Y-90598297D01*
X158491847Y-90598110D01*
X158496899Y-90604217D01*
X158547978Y-90652183D01*
X158569123Y-90673329D01*
X158569127Y-90673332D01*
X158569130Y-90673335D01*
X158574682Y-90677642D01*
X158579169Y-90681473D01*
X158601859Y-90702781D01*
X158613577Y-90713785D01*
X158613579Y-90713786D01*
X158631328Y-90723543D01*
X158647854Y-90734399D01*
X158663856Y-90746812D01*
X158666959Y-90748647D01*
X158696457Y-90772790D01*
X158789447Y-90876066D01*
X158943948Y-90988318D01*
X159118412Y-91065994D01*
X159305213Y-91105700D01*
X159496187Y-91105700D01*
X159682988Y-91065994D01*
X159857452Y-90988318D01*
X160011953Y-90876066D01*
X160122453Y-90753343D01*
X160139734Y-90734151D01*
X160139735Y-90734149D01*
X160139740Y-90734144D01*
X160235227Y-90568756D01*
X160294242Y-90387128D01*
X160314204Y-90197200D01*
X160294242Y-90007272D01*
X160235227Y-89825644D01*
X160139740Y-89660256D01*
X160139738Y-89660254D01*
X160139734Y-89660248D01*
X160011955Y-89518335D01*
X159857452Y-89406082D01*
X159682988Y-89328406D01*
X159496187Y-89288700D01*
X159305213Y-89288700D01*
X159118409Y-89328406D01*
X159114548Y-89329661D01*
X159112192Y-89329728D01*
X159111953Y-89329779D01*
X159111943Y-89329735D01*
X159043580Y-89331683D01*
X158986524Y-89298920D01*
X158700504Y-89012900D01*
X169633896Y-89012900D01*
X169653857Y-89202827D01*
X169655037Y-89206458D01*
X169712873Y-89384456D01*
X169712876Y-89384461D01*
X169808358Y-89549841D01*
X169808365Y-89549851D01*
X169936144Y-89691764D01*
X169936147Y-89691766D01*
X170090648Y-89804018D01*
X170265112Y-89881694D01*
X170451913Y-89921400D01*
X170642887Y-89921400D01*
X170829688Y-89881694D01*
X171004152Y-89804018D01*
X171158653Y-89691766D01*
X171205044Y-89640244D01*
X171286434Y-89549851D01*
X171286435Y-89549849D01*
X171286440Y-89549844D01*
X171381927Y-89384456D01*
X171440942Y-89202828D01*
X171460904Y-89012900D01*
X171440942Y-88822972D01*
X171381927Y-88641344D01*
X171286440Y-88475956D01*
X171286438Y-88475954D01*
X171286434Y-88475948D01*
X171158655Y-88334035D01*
X171004152Y-88221782D01*
X170829688Y-88144106D01*
X170642887Y-88104400D01*
X170451913Y-88104400D01*
X170265111Y-88144106D01*
X170090647Y-88221782D01*
X169936144Y-88334035D01*
X169808365Y-88475948D01*
X169808358Y-88475958D01*
X169712876Y-88641338D01*
X169712873Y-88641345D01*
X169653857Y-88822972D01*
X169633896Y-89012900D01*
X158700504Y-89012900D01*
X156382370Y-86694766D01*
X156348344Y-86632454D01*
X156353409Y-86561639D01*
X156395956Y-86504803D01*
X156397404Y-86503735D01*
X156409187Y-86495174D01*
X156538853Y-86400966D01*
X156551730Y-86386665D01*
X156666634Y-86259051D01*
X156666635Y-86259049D01*
X156666640Y-86259044D01*
X156762127Y-86093656D01*
X156821142Y-85912028D01*
X156841104Y-85722100D01*
X156821142Y-85532172D01*
X156762127Y-85350544D01*
X156666640Y-85185156D01*
X156666638Y-85185154D01*
X156666634Y-85185148D01*
X156538855Y-85043235D01*
X156384352Y-84930982D01*
X156209888Y-84853306D01*
X156023087Y-84813600D01*
X155832113Y-84813600D01*
X155645311Y-84853306D01*
X155470847Y-84930982D01*
X155316344Y-85043235D01*
X155188565Y-85185148D01*
X155188561Y-85185154D01*
X155188560Y-85185156D01*
X155155142Y-85243038D01*
X155155072Y-85243159D01*
X155103689Y-85292152D01*
X155033975Y-85305587D01*
X154968064Y-85279200D01*
X154956858Y-85269253D01*
X153300444Y-83612839D01*
X153290479Y-83600401D01*
X153290252Y-83600590D01*
X153285201Y-83594484D01*
X153285200Y-83594482D01*
X153266682Y-83577093D01*
X153234121Y-83546516D01*
X153212977Y-83525371D01*
X153212972Y-83525366D01*
X153207425Y-83521063D01*
X153202917Y-83517212D01*
X153168525Y-83484917D01*
X153168519Y-83484913D01*
X153150763Y-83475151D01*
X153134247Y-83464302D01*
X153118241Y-83451886D01*
X153109087Y-83447925D01*
X153054516Y-83402516D01*
X153033155Y-83334809D01*
X153039297Y-83293352D01*
X153040023Y-83291120D01*
X153073942Y-83186728D01*
X153093904Y-82996800D01*
X153073942Y-82806872D01*
X153063987Y-82776236D01*
X153061960Y-82705269D01*
X153098622Y-82644471D01*
X153162334Y-82613146D01*
X153183821Y-82611300D01*
X153348287Y-82611300D01*
X153535088Y-82571594D01*
X153709552Y-82493918D01*
X153864053Y-82381666D01*
X153872902Y-82371838D01*
X153991834Y-82239751D01*
X153991835Y-82239749D01*
X153991840Y-82239744D01*
X154087327Y-82074356D01*
X154146342Y-81892728D01*
X154166304Y-81702800D01*
X154146342Y-81512872D01*
X154134565Y-81476629D01*
X154132538Y-81405663D01*
X154169200Y-81344864D01*
X154232912Y-81313539D01*
X154303446Y-81321631D01*
X154343493Y-81348597D01*
X155953001Y-82958106D01*
X157556377Y-84561482D01*
X157590403Y-84623794D01*
X157592592Y-84637406D01*
X157609957Y-84802627D01*
X157629282Y-84862100D01*
X157668973Y-84984256D01*
X157668976Y-84984261D01*
X157764458Y-85149641D01*
X157764465Y-85149651D01*
X157892244Y-85291564D01*
X157942175Y-85327841D01*
X158046748Y-85403818D01*
X158221212Y-85481494D01*
X158408013Y-85521200D01*
X158598992Y-85521200D01*
X158747490Y-85489635D01*
X158818280Y-85495036D01*
X158868645Y-85533113D01*
X158869841Y-85532037D01*
X159002044Y-85678864D01*
X159052948Y-85715848D01*
X159156548Y-85791118D01*
X159331012Y-85868794D01*
X159517813Y-85908500D01*
X159708787Y-85908500D01*
X159895588Y-85868794D01*
X160070052Y-85791118D01*
X160224553Y-85678866D01*
X160233116Y-85669356D01*
X160282419Y-85614600D01*
X169224196Y-85614600D01*
X169244157Y-85804527D01*
X169264980Y-85868611D01*
X169303173Y-85986156D01*
X169303176Y-85986161D01*
X169398658Y-86151541D01*
X169398665Y-86151551D01*
X169526444Y-86293464D01*
X169554006Y-86313489D01*
X169680948Y-86405718D01*
X169855412Y-86483394D01*
X170042213Y-86523100D01*
X170233187Y-86523100D01*
X170419988Y-86483394D01*
X170594452Y-86405718D01*
X170748953Y-86293466D01*
X170772371Y-86267458D01*
X170876734Y-86151551D01*
X170876735Y-86151549D01*
X170876740Y-86151544D01*
X170972227Y-85986156D01*
X171031242Y-85804528D01*
X171051204Y-85614600D01*
X171031242Y-85424672D01*
X170972227Y-85243044D01*
X170876740Y-85077656D01*
X170876738Y-85077654D01*
X170876734Y-85077648D01*
X170748955Y-84935735D01*
X170594452Y-84823482D01*
X170419988Y-84745806D01*
X170233187Y-84706100D01*
X170042213Y-84706100D01*
X169855411Y-84745806D01*
X169680947Y-84823482D01*
X169526444Y-84935735D01*
X169398665Y-85077648D01*
X169398658Y-85077658D01*
X169316559Y-85219858D01*
X169303173Y-85243044D01*
X169297794Y-85259600D01*
X169244157Y-85424672D01*
X169224196Y-85614600D01*
X160282419Y-85614600D01*
X160352334Y-85536951D01*
X160352335Y-85536949D01*
X160352340Y-85536944D01*
X160447827Y-85371556D01*
X160506842Y-85189928D01*
X160526804Y-85000000D01*
X160506842Y-84810072D01*
X160447827Y-84628444D01*
X160352340Y-84463056D01*
X160352338Y-84463054D01*
X160352334Y-84463048D01*
X160224555Y-84321135D01*
X160070052Y-84208882D01*
X159895588Y-84131206D01*
X159708787Y-84091500D01*
X159517813Y-84091500D01*
X159517812Y-84091500D01*
X159369309Y-84123065D01*
X159298518Y-84117663D01*
X159248154Y-84079586D01*
X159246959Y-84080663D01*
X159114755Y-83933835D01*
X158960252Y-83821582D01*
X158785788Y-83743906D01*
X158598987Y-83704200D01*
X158543094Y-83704200D01*
X158474973Y-83684198D01*
X158453999Y-83667295D01*
X156299605Y-81512900D01*
X169736496Y-81512900D01*
X169756457Y-81702827D01*
X169775861Y-81762545D01*
X169815473Y-81884456D01*
X169815476Y-81884461D01*
X169910958Y-82049841D01*
X169910965Y-82049851D01*
X170038744Y-82191764D01*
X170058955Y-82206448D01*
X170193248Y-82304018D01*
X170367712Y-82381694D01*
X170554513Y-82421400D01*
X170745487Y-82421400D01*
X170932288Y-82381694D01*
X171106752Y-82304018D01*
X171261253Y-82191766D01*
X171261255Y-82191764D01*
X171389034Y-82049851D01*
X171389035Y-82049849D01*
X171389040Y-82049844D01*
X171484527Y-81884456D01*
X171543542Y-81702828D01*
X171563504Y-81512900D01*
X171543542Y-81322972D01*
X171484527Y-81141344D01*
X171389040Y-80975956D01*
X171389038Y-80975954D01*
X171389034Y-80975948D01*
X171261255Y-80834035D01*
X171106752Y-80721782D01*
X170932288Y-80644106D01*
X170745487Y-80604400D01*
X170554513Y-80604400D01*
X170367711Y-80644106D01*
X170193247Y-80721782D01*
X170038744Y-80834035D01*
X169910965Y-80975948D01*
X169910958Y-80975958D01*
X169816339Y-81139844D01*
X169815473Y-81141344D01*
X169800999Y-81185886D01*
X169756457Y-81322972D01*
X169736496Y-81512900D01*
X156299605Y-81512900D01*
X154592605Y-79805900D01*
X155562096Y-79805900D01*
X155582057Y-79995827D01*
X155604844Y-80065956D01*
X155641073Y-80177456D01*
X155643026Y-80180838D01*
X155736558Y-80342841D01*
X155736565Y-80342851D01*
X155864344Y-80484764D01*
X155864347Y-80484766D01*
X156018848Y-80597018D01*
X156193312Y-80674694D01*
X156380113Y-80714400D01*
X156571087Y-80714400D01*
X156757888Y-80674694D01*
X156932352Y-80597018D01*
X157086853Y-80484766D01*
X157214640Y-80342844D01*
X157310127Y-80177456D01*
X157369142Y-79995828D01*
X157389104Y-79805900D01*
X157369142Y-79615972D01*
X157310127Y-79434344D01*
X157214640Y-79268956D01*
X157214638Y-79268954D01*
X157214634Y-79268948D01*
X157086855Y-79127035D01*
X156932352Y-79014782D01*
X156757888Y-78937106D01*
X156571087Y-78897400D01*
X156380113Y-78897400D01*
X156193311Y-78937106D01*
X156018847Y-79014782D01*
X155864344Y-79127035D01*
X155736565Y-79268948D01*
X155736558Y-79268958D01*
X155641076Y-79434338D01*
X155641073Y-79434344D01*
X155635533Y-79451394D01*
X155582057Y-79615972D01*
X155562096Y-79805900D01*
X154592605Y-79805900D01*
X152217805Y-77431100D01*
X152183779Y-77368788D01*
X152180900Y-77342005D01*
X152180900Y-77281100D01*
X156562396Y-77281100D01*
X156582357Y-77471027D01*
X156608434Y-77551280D01*
X156641373Y-77652656D01*
X156641376Y-77652661D01*
X156736858Y-77818041D01*
X156736865Y-77818051D01*
X156864644Y-77959964D01*
X156864647Y-77959966D01*
X157019148Y-78072218D01*
X157193612Y-78149894D01*
X157380413Y-78189600D01*
X157571387Y-78189600D01*
X157758188Y-78149894D01*
X157932652Y-78072218D01*
X158087153Y-77959966D01*
X158108321Y-77936457D01*
X158214934Y-77818051D01*
X158214935Y-77818049D01*
X158214940Y-77818044D01*
X158310427Y-77652656D01*
X158369442Y-77471028D01*
X158388006Y-77294400D01*
X158999596Y-77294400D01*
X159019557Y-77484327D01*
X159027039Y-77507353D01*
X159078573Y-77665956D01*
X159078576Y-77665961D01*
X159174058Y-77831341D01*
X159174065Y-77831351D01*
X159301844Y-77973264D01*
X159301847Y-77973266D01*
X159456348Y-78085518D01*
X159630812Y-78163194D01*
X159817613Y-78202900D01*
X160008587Y-78202900D01*
X160195388Y-78163194D01*
X160369852Y-78085518D01*
X160524353Y-77973266D01*
X160532508Y-77964209D01*
X160652134Y-77831351D01*
X160652135Y-77831349D01*
X160652140Y-77831344D01*
X160747627Y-77665956D01*
X160806642Y-77484328D01*
X160826604Y-77294400D01*
X160806642Y-77104472D01*
X160747627Y-76922844D01*
X160652140Y-76757456D01*
X160652138Y-76757454D01*
X160652134Y-76757448D01*
X160524355Y-76615535D01*
X160369852Y-76503282D01*
X160195388Y-76425606D01*
X160008587Y-76385900D01*
X159817613Y-76385900D01*
X159630811Y-76425606D01*
X159456347Y-76503282D01*
X159301844Y-76615535D01*
X159174065Y-76757448D01*
X159174058Y-76757458D01*
X159078576Y-76922838D01*
X159078573Y-76922845D01*
X159019557Y-77104472D01*
X158999596Y-77294400D01*
X158388006Y-77294400D01*
X158389404Y-77281100D01*
X158369442Y-77091172D01*
X158310427Y-76909544D01*
X158214940Y-76744156D01*
X158214938Y-76744154D01*
X158214934Y-76744148D01*
X158087155Y-76602235D01*
X157932652Y-76489982D01*
X157758188Y-76412306D01*
X157571387Y-76372600D01*
X157380413Y-76372600D01*
X157193611Y-76412306D01*
X157019147Y-76489982D01*
X156864644Y-76602235D01*
X156736865Y-76744148D01*
X156736858Y-76744158D01*
X156642661Y-76907313D01*
X156641373Y-76909544D01*
X156637052Y-76922844D01*
X156582357Y-77091172D01*
X156562396Y-77281100D01*
X152180900Y-77281100D01*
X152180900Y-77100890D01*
X152200902Y-77032769D01*
X152254558Y-76986276D01*
X152324832Y-76976172D01*
X152345842Y-76981059D01*
X152348409Y-76981893D01*
X152348410Y-76981893D01*
X152348412Y-76981894D01*
X152535213Y-77021600D01*
X152726187Y-77021600D01*
X152912988Y-76981894D01*
X153087452Y-76904218D01*
X153241953Y-76791966D01*
X153279765Y-76749972D01*
X153369734Y-76650051D01*
X153369735Y-76650049D01*
X153369740Y-76650044D01*
X153465227Y-76484656D01*
X153524242Y-76303028D01*
X153544204Y-76113100D01*
X153524242Y-75923172D01*
X153465227Y-75741544D01*
X153369740Y-75576156D01*
X153369738Y-75576154D01*
X153369734Y-75576148D01*
X153247342Y-75440218D01*
X153216624Y-75376211D01*
X153225389Y-75305757D01*
X153266917Y-75253972D01*
X153316981Y-75217598D01*
X153370153Y-75178966D01*
X153373678Y-75175051D01*
X153497934Y-75037051D01*
X153497935Y-75037049D01*
X153497940Y-75037044D01*
X153593427Y-74871656D01*
X153632216Y-74752275D01*
X153672290Y-74693670D01*
X153737686Y-74666033D01*
X153807643Y-74678140D01*
X153859949Y-74726146D01*
X153877359Y-74778041D01*
X153887657Y-74876027D01*
X153907094Y-74935845D01*
X153946673Y-75057656D01*
X153946676Y-75057661D01*
X154042158Y-75223041D01*
X154042165Y-75223051D01*
X154169944Y-75364964D01*
X154169947Y-75364966D01*
X154324448Y-75477218D01*
X154498912Y-75554894D01*
X154685713Y-75594600D01*
X154876687Y-75594600D01*
X155063488Y-75554894D01*
X155237952Y-75477218D01*
X155392453Y-75364966D01*
X155467264Y-75281880D01*
X155520234Y-75223051D01*
X155520235Y-75223049D01*
X155520240Y-75223044D01*
X155615727Y-75057656D01*
X155674742Y-74876028D01*
X155694704Y-74686100D01*
X155674742Y-74496172D01*
X155615727Y-74314544D01*
X155520240Y-74149156D01*
X155520238Y-74149154D01*
X155520234Y-74149148D01*
X155392455Y-74007235D01*
X155237952Y-73894982D01*
X155063488Y-73817306D01*
X154876687Y-73777600D01*
X154685713Y-73777600D01*
X154681493Y-73777600D01*
X154613372Y-73757598D01*
X154566879Y-73703942D01*
X154556775Y-73633668D01*
X154586269Y-73569088D01*
X154592398Y-73562505D01*
X158729184Y-69425719D01*
X160382090Y-67772813D01*
X160444401Y-67738788D01*
X160515216Y-67743853D01*
X160572052Y-67786400D01*
X160596863Y-67852920D01*
X160591017Y-67900845D01*
X160574957Y-67950270D01*
X160554996Y-68140200D01*
X160574957Y-68330127D01*
X160599805Y-68406599D01*
X160633973Y-68511756D01*
X160633976Y-68511761D01*
X160729458Y-68677141D01*
X160729465Y-68677151D01*
X160857244Y-68819064D01*
X160857247Y-68819066D01*
X161011748Y-68931318D01*
X161186212Y-69008994D01*
X161373013Y-69048700D01*
X161563987Y-69048700D01*
X161750788Y-69008994D01*
X161925252Y-68931318D01*
X162079753Y-68819066D01*
X162079755Y-68819064D01*
X162207534Y-68677151D01*
X162207535Y-68677149D01*
X162207540Y-68677144D01*
X162303027Y-68511756D01*
X162362042Y-68330128D01*
X162382004Y-68140200D01*
X162362042Y-67950272D01*
X162303027Y-67768644D01*
X162207540Y-67603256D01*
X162207538Y-67603254D01*
X162207534Y-67603248D01*
X162079755Y-67461335D01*
X161925252Y-67349082D01*
X161750788Y-67271406D01*
X161563987Y-67231700D01*
X161373013Y-67231700D01*
X161217858Y-67264679D01*
X161147067Y-67259277D01*
X161090434Y-67216460D01*
X161065941Y-67149822D01*
X161081362Y-67080521D01*
X161102563Y-67052339D01*
X163798660Y-64356243D01*
X163811098Y-64346280D01*
X163810910Y-64346053D01*
X163817015Y-64341001D01*
X163817018Y-64341000D01*
X163821504Y-64336223D01*
X163828648Y-64328616D01*
X163889859Y-64292648D01*
X163960799Y-64295484D01*
X164018944Y-64336223D01*
X164045834Y-64401931D01*
X164046500Y-64414866D01*
X164046500Y-72743246D01*
X164044751Y-72759088D01*
X164045044Y-72759116D01*
X164044298Y-72767007D01*
X164046500Y-72837057D01*
X164046500Y-72866951D01*
X164046501Y-72866972D01*
X164047378Y-72873920D01*
X164047844Y-72879832D01*
X164049326Y-72926988D01*
X164049327Y-72926993D01*
X164054977Y-72946439D01*
X164058986Y-72965797D01*
X164061525Y-72985893D01*
X164061526Y-72985899D01*
X164078893Y-73029762D01*
X164080816Y-73035379D01*
X164093982Y-73080693D01*
X164104294Y-73098131D01*
X164112988Y-73115879D01*
X164120444Y-73134709D01*
X164120450Y-73134720D01*
X164148177Y-73172883D01*
X164151437Y-73177846D01*
X164175460Y-73218465D01*
X164189779Y-73232784D01*
X164202617Y-73247814D01*
X164209756Y-73257639D01*
X164214528Y-73264207D01*
X164242794Y-73287591D01*
X164250886Y-73294285D01*
X164255267Y-73298271D01*
X170793839Y-79836843D01*
X177303158Y-86346162D01*
X177337184Y-86408474D01*
X177339373Y-86448427D01*
X177326396Y-86571899D01*
X177346357Y-86761827D01*
X177376426Y-86854370D01*
X177405373Y-86943456D01*
X177405376Y-86943461D01*
X177500858Y-87108841D01*
X177500865Y-87108851D01*
X177628644Y-87250764D01*
X177628647Y-87250766D01*
X177783148Y-87363018D01*
X177957612Y-87440694D01*
X178144413Y-87480400D01*
X178335387Y-87480400D01*
X178522188Y-87440694D01*
X178522188Y-87440693D01*
X178522192Y-87440693D01*
X178620107Y-87397097D01*
X178657204Y-87380580D01*
X178727570Y-87371146D01*
X178791868Y-87401252D01*
X178817572Y-87432687D01*
X178912058Y-87596341D01*
X178912065Y-87596351D01*
X179039844Y-87738264D01*
X179039847Y-87738266D01*
X179194348Y-87850518D01*
X179368812Y-87928194D01*
X179555613Y-87967900D01*
X179746587Y-87967900D01*
X179933388Y-87928194D01*
X180107852Y-87850518D01*
X180262353Y-87738266D01*
X180346676Y-87644616D01*
X180390134Y-87596351D01*
X180390135Y-87596349D01*
X180390140Y-87596344D01*
X180485627Y-87430956D01*
X180544642Y-87249328D01*
X180564604Y-87059400D01*
X180544642Y-86869472D01*
X180485627Y-86687844D01*
X180419000Y-86572443D01*
X180390142Y-86522459D01*
X180390141Y-86522458D01*
X180390140Y-86522456D01*
X180316963Y-86441184D01*
X180286246Y-86377176D01*
X180284600Y-86356874D01*
X180284600Y-85750726D01*
X180304602Y-85682605D01*
X180358258Y-85636112D01*
X180428532Y-85626008D01*
X180461844Y-85635617D01*
X180606212Y-85699894D01*
X180793013Y-85739600D01*
X180983987Y-85739600D01*
X181170788Y-85699894D01*
X181345252Y-85622218D01*
X181499753Y-85509966D01*
X181513196Y-85495036D01*
X181627534Y-85368051D01*
X181627535Y-85368049D01*
X181627540Y-85368044D01*
X181723027Y-85202656D01*
X181782042Y-85021028D01*
X181802004Y-84831100D01*
X181782042Y-84641172D01*
X181723027Y-84459544D01*
X181645433Y-84325148D01*
X181627542Y-84294159D01*
X181627541Y-84294158D01*
X181627540Y-84294156D01*
X181554363Y-84212884D01*
X181523646Y-84148876D01*
X181522000Y-84128574D01*
X181522000Y-77507353D01*
X181523749Y-77491511D01*
X181523456Y-77491484D01*
X181524202Y-77483591D01*
X181522000Y-77413528D01*
X181522000Y-77383650D01*
X181522000Y-77383644D01*
X181521120Y-77376682D01*
X181520656Y-77370793D01*
X181519174Y-77323611D01*
X181513517Y-77304142D01*
X181509512Y-77284798D01*
X181506974Y-77264703D01*
X181489600Y-77220822D01*
X181487681Y-77215216D01*
X181478868Y-77184882D01*
X181474518Y-77169907D01*
X181464206Y-77152470D01*
X181455510Y-77134721D01*
X181448052Y-77115883D01*
X181420312Y-77077703D01*
X181417064Y-77072758D01*
X181393042Y-77032138D01*
X181378714Y-77017810D01*
X181365884Y-77002789D01*
X181353972Y-76986393D01*
X181353969Y-76986391D01*
X181353969Y-76986390D01*
X181317607Y-76956308D01*
X181313226Y-76952322D01*
X173938239Y-69577334D01*
X173904213Y-69515022D01*
X173909278Y-69444207D01*
X173933697Y-69403930D01*
X174000796Y-69329410D01*
X174010934Y-69318151D01*
X174010935Y-69318149D01*
X174010940Y-69318144D01*
X174106427Y-69152756D01*
X174165442Y-68971128D01*
X174182807Y-68805903D01*
X174209820Y-68740248D01*
X174219013Y-68729989D01*
X177768660Y-65180343D01*
X177781098Y-65170380D01*
X177780910Y-65170153D01*
X177787013Y-65165102D01*
X177787018Y-65165100D01*
X177834983Y-65114021D01*
X177856135Y-65092870D01*
X177860445Y-65087312D01*
X177864274Y-65082829D01*
X177896586Y-65048421D01*
X177906346Y-65030665D01*
X177917195Y-65014150D01*
X177929614Y-64998141D01*
X177948363Y-64954810D01*
X177950953Y-64949523D01*
X177973695Y-64908160D01*
X177978733Y-64888534D01*
X177985137Y-64869832D01*
X177986267Y-64867221D01*
X177993181Y-64851245D01*
X178000561Y-64804647D01*
X178001762Y-64798840D01*
X178013500Y-64753130D01*
X178013500Y-64732875D01*
X178015051Y-64713163D01*
X178018220Y-64693157D01*
X178014579Y-64654635D01*
X178013780Y-64646180D01*
X178013500Y-64640248D01*
X178013500Y-63611779D01*
X178033502Y-63543658D01*
X178087158Y-63497165D01*
X178157432Y-63487061D01*
X178192751Y-63497585D01*
X178195573Y-63498900D01*
X178197324Y-63499717D01*
X178420170Y-63559429D01*
X178650000Y-63579536D01*
X178879830Y-63559429D01*
X179102676Y-63499717D01*
X179311768Y-63402216D01*
X179500753Y-63269887D01*
X179663887Y-63106753D01*
X179796216Y-62917768D01*
X179893717Y-62708676D01*
X179953429Y-62485830D01*
X179973536Y-62256000D01*
X179953429Y-62026170D01*
X179893717Y-61803324D01*
X179796216Y-61594232D01*
X179663887Y-61405247D01*
X179500753Y-61242113D01*
X179376099Y-61154829D01*
X179311766Y-61109782D01*
X179291205Y-61100195D01*
X179237919Y-61053278D01*
X179218458Y-60985001D01*
X179238999Y-60917041D01*
X179291205Y-60871805D01*
X179311766Y-60862217D01*
X179311766Y-60862216D01*
X179311768Y-60862216D01*
X179500753Y-60729887D01*
X179663887Y-60566753D01*
X179796216Y-60377768D01*
X179893717Y-60168676D01*
X179953429Y-59945830D01*
X179973536Y-59716000D01*
X179953429Y-59486170D01*
X179893717Y-59263324D01*
X179796216Y-59054232D01*
X179663887Y-58865247D01*
X179500753Y-58702113D01*
X179497817Y-58700057D01*
X179311766Y-58569782D01*
X179291205Y-58560195D01*
X179237919Y-58513278D01*
X179218458Y-58445001D01*
X179238999Y-58377041D01*
X179291205Y-58331805D01*
X179311766Y-58322217D01*
X179311766Y-58322216D01*
X179311768Y-58322216D01*
X179500753Y-58189887D01*
X179663887Y-58026753D01*
X179796216Y-57837768D01*
X179893717Y-57628676D01*
X179953429Y-57405830D01*
X179973536Y-57176000D01*
X179953429Y-56946170D01*
X179893717Y-56723324D01*
X179796216Y-56514232D01*
X179663887Y-56325247D01*
X179500753Y-56162113D01*
X179400099Y-56091634D01*
X179311766Y-56029782D01*
X179291205Y-56020195D01*
X179237919Y-55973278D01*
X179218458Y-55905001D01*
X179238999Y-55837041D01*
X179291205Y-55791805D01*
X179311766Y-55782217D01*
X179311766Y-55782216D01*
X179311768Y-55782216D01*
X179500753Y-55649887D01*
X179663887Y-55486753D01*
X179796216Y-55297768D01*
X179893717Y-55088676D01*
X179953429Y-54865830D01*
X179973536Y-54636000D01*
X179953429Y-54406170D01*
X179893717Y-54183324D01*
X179796216Y-53974232D01*
X179663887Y-53785247D01*
X179500753Y-53622113D01*
X179311768Y-53489784D01*
X179102679Y-53392284D01*
X179102673Y-53392282D01*
X179008490Y-53367045D01*
X178879830Y-53332571D01*
X178650000Y-53312464D01*
X178420170Y-53332571D01*
X178197326Y-53392282D01*
X178197320Y-53392284D01*
X177988231Y-53489784D01*
X177799250Y-53622110D01*
X177799244Y-53622115D01*
X177636115Y-53785244D01*
X177636110Y-53785250D01*
X177503782Y-53974233D01*
X177494194Y-53994796D01*
X177447277Y-54048081D01*
X177378999Y-54067541D01*
X177311039Y-54046999D01*
X177265806Y-53994796D01*
X177256217Y-53974233D01*
X177123889Y-53785250D01*
X177123884Y-53785244D01*
X176960755Y-53622115D01*
X176960749Y-53622110D01*
X176771768Y-53489784D01*
X176562679Y-53392284D01*
X176562673Y-53392282D01*
X176468490Y-53367045D01*
X176339830Y-53332571D01*
X176110000Y-53312464D01*
X175880170Y-53332571D01*
X175657326Y-53392282D01*
X175657320Y-53392284D01*
X175448231Y-53489784D01*
X175259250Y-53622110D01*
X175259244Y-53622115D01*
X175096115Y-53785244D01*
X175096110Y-53785250D01*
X174963782Y-53974233D01*
X174954194Y-53994796D01*
X174907277Y-54048081D01*
X174838999Y-54067541D01*
X174771039Y-54046999D01*
X174725806Y-53994796D01*
X174716217Y-53974233D01*
X174583889Y-53785250D01*
X174583884Y-53785244D01*
X174420755Y-53622115D01*
X174420749Y-53622110D01*
X174231768Y-53489784D01*
X174022679Y-53392284D01*
X174022673Y-53392282D01*
X173928490Y-53367045D01*
X173799830Y-53332571D01*
X173570000Y-53312464D01*
X173340170Y-53332571D01*
X173117326Y-53392282D01*
X173117320Y-53392284D01*
X172908231Y-53489784D01*
X172719250Y-53622110D01*
X172719244Y-53622115D01*
X172556115Y-53785244D01*
X172556110Y-53785250D01*
X172423782Y-53974233D01*
X172414194Y-53994796D01*
X172367277Y-54048081D01*
X172298999Y-54067541D01*
X172231039Y-54046999D01*
X172185806Y-53994796D01*
X172176217Y-53974233D01*
X172043889Y-53785250D01*
X172043884Y-53785244D01*
X171880755Y-53622115D01*
X171880749Y-53622110D01*
X171691768Y-53489784D01*
X171482679Y-53392284D01*
X171482673Y-53392282D01*
X171388490Y-53367045D01*
X171259830Y-53332571D01*
X171030000Y-53312464D01*
X170800170Y-53332571D01*
X170577326Y-53392282D01*
X170577320Y-53392284D01*
X170368231Y-53489784D01*
X170179250Y-53622110D01*
X170179244Y-53622115D01*
X170016115Y-53785244D01*
X170016110Y-53785250D01*
X169883782Y-53974233D01*
X169874194Y-53994796D01*
X169827277Y-54048081D01*
X169758999Y-54067541D01*
X169691039Y-54046999D01*
X169645806Y-53994796D01*
X169636217Y-53974233D01*
X169503889Y-53785250D01*
X169503884Y-53785244D01*
X169340755Y-53622115D01*
X169340749Y-53622110D01*
X169151768Y-53489784D01*
X168942679Y-53392284D01*
X168942673Y-53392282D01*
X168848490Y-53367045D01*
X168719830Y-53332571D01*
X168490000Y-53312464D01*
X168260170Y-53332571D01*
X168037326Y-53392282D01*
X168037320Y-53392284D01*
X167828231Y-53489784D01*
X167639250Y-53622110D01*
X167639244Y-53622115D01*
X167476115Y-53785244D01*
X167476110Y-53785250D01*
X167343782Y-53974233D01*
X167334194Y-53994796D01*
X167287277Y-54048081D01*
X167218999Y-54067541D01*
X167151039Y-54046999D01*
X167105806Y-53994796D01*
X167096217Y-53974233D01*
X166963889Y-53785250D01*
X166963884Y-53785244D01*
X166800755Y-53622115D01*
X166800749Y-53622110D01*
X166611768Y-53489784D01*
X166402679Y-53392284D01*
X166402673Y-53392282D01*
X166308490Y-53367045D01*
X166179830Y-53332571D01*
X165950000Y-53312464D01*
X165720170Y-53332571D01*
X165497326Y-53392282D01*
X165497320Y-53392284D01*
X165288231Y-53489784D01*
X165099250Y-53622110D01*
X165099244Y-53622115D01*
X164936115Y-53785244D01*
X164936110Y-53785250D01*
X164803782Y-53974233D01*
X164794194Y-53994796D01*
X164747277Y-54048081D01*
X164678999Y-54067541D01*
X164611039Y-54046999D01*
X164565806Y-53994796D01*
X164556217Y-53974233D01*
X164423889Y-53785250D01*
X164423884Y-53785244D01*
X164260755Y-53622115D01*
X164260749Y-53622110D01*
X164071768Y-53489784D01*
X163862679Y-53392284D01*
X163862673Y-53392282D01*
X163768490Y-53367045D01*
X163639830Y-53332571D01*
X163410000Y-53312464D01*
X163180170Y-53332571D01*
X162957326Y-53392282D01*
X162957320Y-53392284D01*
X162748231Y-53489784D01*
X162559250Y-53622110D01*
X162559244Y-53622115D01*
X162396115Y-53785244D01*
X162396110Y-53785250D01*
X162263782Y-53974233D01*
X162254194Y-53994796D01*
X162207277Y-54048081D01*
X162138999Y-54067541D01*
X162071039Y-54046999D01*
X162025806Y-53994796D01*
X162016217Y-53974233D01*
X161883889Y-53785250D01*
X161883884Y-53785244D01*
X161720755Y-53622115D01*
X161720749Y-53622110D01*
X161531768Y-53489784D01*
X161322679Y-53392284D01*
X161322673Y-53392282D01*
X161228490Y-53367045D01*
X161099830Y-53332571D01*
X160870000Y-53312464D01*
X160640170Y-53332571D01*
X160417326Y-53392282D01*
X160417320Y-53392284D01*
X160208231Y-53489784D01*
X160019250Y-53622110D01*
X160019244Y-53622115D01*
X159856115Y-53785244D01*
X159856110Y-53785250D01*
X159723782Y-53974233D01*
X159714194Y-53994796D01*
X159667277Y-54048081D01*
X159598999Y-54067541D01*
X159531039Y-54046999D01*
X159485806Y-53994796D01*
X159476217Y-53974233D01*
X159343889Y-53785250D01*
X159343884Y-53785244D01*
X159180755Y-53622115D01*
X159180749Y-53622110D01*
X158991768Y-53489784D01*
X158782679Y-53392284D01*
X158782673Y-53392282D01*
X158688490Y-53367045D01*
X158559830Y-53332571D01*
X158330000Y-53312464D01*
X158100170Y-53332571D01*
X157877326Y-53392282D01*
X157877320Y-53392284D01*
X157668231Y-53489784D01*
X157479250Y-53622110D01*
X157479244Y-53622115D01*
X157316115Y-53785244D01*
X157316110Y-53785250D01*
X157183782Y-53974233D01*
X157174194Y-53994796D01*
X157127277Y-54048081D01*
X157058999Y-54067541D01*
X156991039Y-54046999D01*
X156945806Y-53994796D01*
X156936217Y-53974233D01*
X156803889Y-53785250D01*
X156803884Y-53785244D01*
X156640755Y-53622115D01*
X156640749Y-53622110D01*
X156451768Y-53489784D01*
X156242679Y-53392284D01*
X156242673Y-53392282D01*
X156148490Y-53367045D01*
X156019830Y-53332571D01*
X155790000Y-53312464D01*
X155560170Y-53332571D01*
X155337326Y-53392282D01*
X155337320Y-53392284D01*
X155128231Y-53489784D01*
X154939250Y-53622110D01*
X154939244Y-53622115D01*
X154776115Y-53785244D01*
X154776110Y-53785250D01*
X154643782Y-53974233D01*
X154634194Y-53994796D01*
X154587277Y-54048081D01*
X154518999Y-54067541D01*
X154451039Y-54046999D01*
X154405806Y-53994796D01*
X154396217Y-53974233D01*
X154263889Y-53785250D01*
X154263884Y-53785244D01*
X154100755Y-53622115D01*
X154100749Y-53622110D01*
X153911768Y-53489784D01*
X153702679Y-53392284D01*
X153702673Y-53392282D01*
X153608490Y-53367045D01*
X153479830Y-53332571D01*
X153250000Y-53312464D01*
X153020170Y-53332571D01*
X152797326Y-53392282D01*
X152797320Y-53392284D01*
X152588231Y-53489784D01*
X152399250Y-53622110D01*
X152399244Y-53622115D01*
X152236115Y-53785244D01*
X152236110Y-53785250D01*
X152103782Y-53974233D01*
X152094194Y-53994796D01*
X152047277Y-54048081D01*
X151978999Y-54067541D01*
X151911039Y-54046999D01*
X151865806Y-53994796D01*
X151856217Y-53974233D01*
X151723889Y-53785250D01*
X151723884Y-53785244D01*
X151560755Y-53622115D01*
X151560749Y-53622110D01*
X151371768Y-53489784D01*
X151162679Y-53392284D01*
X151162673Y-53392282D01*
X151068490Y-53367045D01*
X150939830Y-53332571D01*
X150710000Y-53312464D01*
X150480170Y-53332571D01*
X150257326Y-53392282D01*
X150257320Y-53392284D01*
X150048231Y-53489784D01*
X149859250Y-53622110D01*
X149859244Y-53622115D01*
X149696115Y-53785244D01*
X149696110Y-53785250D01*
X149563782Y-53974233D01*
X149554194Y-53994796D01*
X149507277Y-54048081D01*
X149438999Y-54067541D01*
X149371039Y-54046999D01*
X149325806Y-53994796D01*
X149316217Y-53974233D01*
X149183889Y-53785250D01*
X149183884Y-53785244D01*
X149020755Y-53622115D01*
X149020749Y-53622110D01*
X148831768Y-53489784D01*
X148622679Y-53392284D01*
X148622673Y-53392282D01*
X148528490Y-53367045D01*
X148399830Y-53332571D01*
X148170000Y-53312464D01*
X147940170Y-53332571D01*
X147717326Y-53392282D01*
X147717320Y-53392284D01*
X147508231Y-53489784D01*
X147319250Y-53622110D01*
X147319244Y-53622115D01*
X147156115Y-53785244D01*
X147156110Y-53785250D01*
X147023782Y-53974233D01*
X147014194Y-53994796D01*
X146967277Y-54048081D01*
X146898999Y-54067541D01*
X146831039Y-54046999D01*
X146785806Y-53994796D01*
X146776217Y-53974233D01*
X146643889Y-53785250D01*
X146643884Y-53785244D01*
X146480755Y-53622115D01*
X146480749Y-53622110D01*
X146291768Y-53489784D01*
X146082679Y-53392284D01*
X146082673Y-53392282D01*
X145988490Y-53367045D01*
X145859830Y-53332571D01*
X145630000Y-53312464D01*
X145400170Y-53332571D01*
X145177326Y-53392282D01*
X145177320Y-53392284D01*
X144968231Y-53489784D01*
X144779250Y-53622110D01*
X144779244Y-53622115D01*
X144616115Y-53785244D01*
X144616110Y-53785250D01*
X144483782Y-53974233D01*
X144474194Y-53994796D01*
X144427277Y-54048081D01*
X144358999Y-54067541D01*
X144291039Y-54046999D01*
X144245806Y-53994796D01*
X144236217Y-53974233D01*
X144103889Y-53785250D01*
X144103884Y-53785244D01*
X143940755Y-53622115D01*
X143940749Y-53622110D01*
X143751768Y-53489784D01*
X143542679Y-53392284D01*
X143542673Y-53392282D01*
X143448490Y-53367045D01*
X143319830Y-53332571D01*
X143090000Y-53312464D01*
X142860170Y-53332571D01*
X142637326Y-53392282D01*
X142637320Y-53392284D01*
X142428231Y-53489784D01*
X142239250Y-53622110D01*
X142239244Y-53622115D01*
X142076115Y-53785244D01*
X142076110Y-53785250D01*
X141943782Y-53974233D01*
X141934194Y-53994796D01*
X141887277Y-54048081D01*
X141818999Y-54067541D01*
X141751039Y-54046999D01*
X141705806Y-53994796D01*
X141696217Y-53974233D01*
X141563889Y-53785250D01*
X141563884Y-53785244D01*
X141400755Y-53622115D01*
X141400749Y-53622110D01*
X141211768Y-53489784D01*
X141002679Y-53392284D01*
X141002673Y-53392282D01*
X140908490Y-53367045D01*
X140779830Y-53332571D01*
X140550000Y-53312464D01*
X140320170Y-53332571D01*
X140097326Y-53392282D01*
X140097320Y-53392284D01*
X139888231Y-53489784D01*
X139699250Y-53622110D01*
X139699244Y-53622115D01*
X139536115Y-53785244D01*
X139536110Y-53785250D01*
X139403782Y-53974233D01*
X139394194Y-53994796D01*
X139347277Y-54048081D01*
X139278999Y-54067541D01*
X139211039Y-54046999D01*
X139165806Y-53994796D01*
X139156217Y-53974233D01*
X139023889Y-53785250D01*
X139023884Y-53785244D01*
X138860755Y-53622115D01*
X138860749Y-53622110D01*
X138671768Y-53489784D01*
X138462679Y-53392284D01*
X138462673Y-53392282D01*
X138368490Y-53367045D01*
X138239830Y-53332571D01*
X138010000Y-53312464D01*
X137780170Y-53332571D01*
X137557326Y-53392282D01*
X137557320Y-53392284D01*
X137348231Y-53489784D01*
X137159250Y-53622110D01*
X137159244Y-53622115D01*
X136996115Y-53785244D01*
X136996110Y-53785250D01*
X136863782Y-53974233D01*
X136854194Y-53994796D01*
X136807277Y-54048081D01*
X136738999Y-54067541D01*
X136671039Y-54046999D01*
X136625806Y-53994796D01*
X136616217Y-53974233D01*
X136483889Y-53785250D01*
X136483884Y-53785244D01*
X136320755Y-53622115D01*
X136320749Y-53622110D01*
X136131768Y-53489784D01*
X135922679Y-53392284D01*
X135922673Y-53392282D01*
X135828490Y-53367045D01*
X135699830Y-53332571D01*
X135470000Y-53312464D01*
X135240170Y-53332571D01*
X135017326Y-53392282D01*
X135017320Y-53392284D01*
X134808231Y-53489784D01*
X134619250Y-53622110D01*
X134619244Y-53622115D01*
X134456115Y-53785244D01*
X134456110Y-53785250D01*
X134323782Y-53974233D01*
X134314194Y-53994796D01*
X134267277Y-54048081D01*
X134198999Y-54067541D01*
X134131039Y-54046999D01*
X134085806Y-53994796D01*
X134076217Y-53974233D01*
X133943889Y-53785250D01*
X133943884Y-53785244D01*
X133780755Y-53622115D01*
X133780749Y-53622110D01*
X133591768Y-53489784D01*
X133382679Y-53392284D01*
X133382673Y-53392282D01*
X133288490Y-53367045D01*
X133159830Y-53332571D01*
X132930000Y-53312464D01*
X132700170Y-53332571D01*
X132477326Y-53392282D01*
X132477320Y-53392284D01*
X132268231Y-53489784D01*
X132079250Y-53622110D01*
X132079244Y-53622115D01*
X131916115Y-53785244D01*
X131916110Y-53785250D01*
X131783782Y-53974233D01*
X131774194Y-53994796D01*
X131727277Y-54048081D01*
X131658999Y-54067541D01*
X131591039Y-54046999D01*
X131545806Y-53994796D01*
X131536217Y-53974233D01*
X131403889Y-53785250D01*
X131403884Y-53785244D01*
X131240755Y-53622115D01*
X131240749Y-53622110D01*
X131051768Y-53489784D01*
X130842679Y-53392284D01*
X130842673Y-53392282D01*
X130748490Y-53367045D01*
X130619830Y-53332571D01*
X130390000Y-53312464D01*
X130160170Y-53332571D01*
X129937326Y-53392282D01*
X129937320Y-53392284D01*
X129728231Y-53489784D01*
X129539250Y-53622110D01*
X129539244Y-53622115D01*
X129376115Y-53785244D01*
X129376110Y-53785250D01*
X129243782Y-53974233D01*
X129234194Y-53994796D01*
X129187277Y-54048081D01*
X129118999Y-54067541D01*
X129051039Y-54046999D01*
X129005806Y-53994796D01*
X128996217Y-53974233D01*
X128863889Y-53785250D01*
X128863884Y-53785244D01*
X128700755Y-53622115D01*
X128700749Y-53622110D01*
X128511768Y-53489784D01*
X128302679Y-53392284D01*
X128302673Y-53392282D01*
X128208490Y-53367045D01*
X128079830Y-53332571D01*
X127850000Y-53312464D01*
X127620170Y-53332571D01*
X127397326Y-53392282D01*
X127397320Y-53392284D01*
X127188231Y-53489784D01*
X126999250Y-53622110D01*
X126999244Y-53622115D01*
X126836115Y-53785244D01*
X126836110Y-53785250D01*
X126703782Y-53974233D01*
X126694194Y-53994796D01*
X126647277Y-54048081D01*
X126578999Y-54067541D01*
X126511039Y-54046999D01*
X126465806Y-53994796D01*
X126456217Y-53974233D01*
X126323889Y-53785250D01*
X126323884Y-53785244D01*
X126160755Y-53622115D01*
X126160749Y-53622110D01*
X125971768Y-53489784D01*
X125762679Y-53392284D01*
X125762673Y-53392282D01*
X125668490Y-53367045D01*
X125539830Y-53332571D01*
X125310000Y-53312464D01*
X125080170Y-53332571D01*
X124857326Y-53392282D01*
X124857320Y-53392284D01*
X124648231Y-53489784D01*
X124459250Y-53622110D01*
X124459244Y-53622115D01*
X124296115Y-53785244D01*
X124296110Y-53785250D01*
X124163782Y-53974233D01*
X124154194Y-53994796D01*
X124107277Y-54048081D01*
X124038999Y-54067541D01*
X123971039Y-54046999D01*
X123925806Y-53994796D01*
X123916217Y-53974233D01*
X123783889Y-53785250D01*
X123783884Y-53785244D01*
X123620755Y-53622115D01*
X123620749Y-53622110D01*
X123431768Y-53489784D01*
X123222679Y-53392284D01*
X123222673Y-53392282D01*
X123128490Y-53367045D01*
X122999830Y-53332571D01*
X122770000Y-53312464D01*
X122540170Y-53332571D01*
X122317326Y-53392282D01*
X122317320Y-53392284D01*
X122108231Y-53489784D01*
X121919250Y-53622110D01*
X121919244Y-53622115D01*
X121756115Y-53785244D01*
X121756110Y-53785250D01*
X121623782Y-53974233D01*
X121614194Y-53994796D01*
X121567277Y-54048081D01*
X121498999Y-54067541D01*
X121431039Y-54046999D01*
X121385806Y-53994796D01*
X121376217Y-53974233D01*
X121243889Y-53785250D01*
X121243884Y-53785244D01*
X121080755Y-53622115D01*
X121080749Y-53622110D01*
X120891768Y-53489784D01*
X120682679Y-53392284D01*
X120682673Y-53392282D01*
X120588490Y-53367045D01*
X120459830Y-53332571D01*
X120230000Y-53312464D01*
X120000170Y-53332571D01*
X119777326Y-53392282D01*
X119777320Y-53392284D01*
X119568231Y-53489784D01*
X119379250Y-53622110D01*
X119379244Y-53622115D01*
X119216115Y-53785244D01*
X119216110Y-53785250D01*
X119083782Y-53974233D01*
X119074194Y-53994796D01*
X119027277Y-54048081D01*
X118958999Y-54067541D01*
X118891039Y-54046999D01*
X118845806Y-53994796D01*
X118836217Y-53974233D01*
X118703889Y-53785250D01*
X118703884Y-53785244D01*
X118540755Y-53622115D01*
X118540749Y-53622110D01*
X118351768Y-53489784D01*
X118142679Y-53392284D01*
X118142673Y-53392282D01*
X118048490Y-53367045D01*
X117919830Y-53332571D01*
X117690000Y-53312464D01*
X117460170Y-53332571D01*
X117237326Y-53392282D01*
X117237320Y-53392284D01*
X117028231Y-53489784D01*
X116839250Y-53622110D01*
X116839244Y-53622115D01*
X116676115Y-53785244D01*
X116676110Y-53785250D01*
X116543782Y-53974233D01*
X116534194Y-53994796D01*
X116487277Y-54048081D01*
X116418999Y-54067541D01*
X116351039Y-54046999D01*
X116305806Y-53994796D01*
X116296217Y-53974233D01*
X116163889Y-53785250D01*
X116163884Y-53785244D01*
X116000755Y-53622115D01*
X116000749Y-53622110D01*
X115811768Y-53489784D01*
X115602679Y-53392284D01*
X115602673Y-53392282D01*
X115508490Y-53367045D01*
X115379830Y-53332571D01*
X115150000Y-53312464D01*
X114920170Y-53332571D01*
X114697326Y-53392282D01*
X114697320Y-53392284D01*
X114488231Y-53489784D01*
X114299250Y-53622110D01*
X114299244Y-53622115D01*
X114136115Y-53785244D01*
X114136110Y-53785250D01*
X114003784Y-53974231D01*
X113906284Y-54183320D01*
X113906282Y-54183326D01*
X113846571Y-54406170D01*
X113826464Y-54636000D01*
X113846571Y-54865829D01*
X113906282Y-55088673D01*
X113906284Y-55088679D01*
X114003784Y-55297768D01*
X114111031Y-55450933D01*
X114136113Y-55486753D01*
X114299247Y-55649887D01*
X114299250Y-55649889D01*
X114488233Y-55782217D01*
X114508796Y-55791806D01*
X114562081Y-55838723D01*
X114581541Y-55907001D01*
X114560999Y-55974961D01*
X114508796Y-56020194D01*
X114488233Y-56029782D01*
X114299250Y-56162110D01*
X114299244Y-56162115D01*
X114136115Y-56325244D01*
X114136110Y-56325250D01*
X114003784Y-56514231D01*
X113906284Y-56723320D01*
X113906282Y-56723326D01*
X113846571Y-56946170D01*
X113826464Y-57176000D01*
X113846571Y-57405829D01*
X113906282Y-57628673D01*
X113906284Y-57628679D01*
X114003784Y-57837768D01*
X114043507Y-57894499D01*
X114136113Y-58026753D01*
X114299247Y-58189887D01*
X114299250Y-58189889D01*
X114488233Y-58322217D01*
X114508796Y-58331806D01*
X114562081Y-58378723D01*
X114581541Y-58447001D01*
X114560999Y-58514961D01*
X114508796Y-58560194D01*
X114488233Y-58569782D01*
X114299250Y-58702110D01*
X114299244Y-58702115D01*
X114136115Y-58865244D01*
X114136110Y-58865250D01*
X114003784Y-59054231D01*
X113906284Y-59263320D01*
X113906283Y-59263324D01*
X113846571Y-59486170D01*
X113826464Y-59716000D01*
X113846571Y-59945830D01*
X113906283Y-60168676D01*
X114003784Y-60377768D01*
X114136113Y-60566753D01*
X114299247Y-60729887D01*
X114299250Y-60729889D01*
X114488233Y-60862217D01*
X114508796Y-60871806D01*
X114562081Y-60918723D01*
X114581541Y-60987001D01*
X114560999Y-61054961D01*
X114508796Y-61100194D01*
X114488233Y-61109782D01*
X114299250Y-61242110D01*
X114299244Y-61242115D01*
X114136115Y-61405244D01*
X114136110Y-61405250D01*
X114003784Y-61594231D01*
X113906284Y-61803320D01*
X113906283Y-61803324D01*
X113846571Y-62026170D01*
X113826464Y-62256000D01*
X113846571Y-62485830D01*
X113906283Y-62708676D01*
X114003784Y-62917768D01*
X114136113Y-63106753D01*
X114299247Y-63269887D01*
X114488232Y-63402216D01*
X114697324Y-63499717D01*
X114920170Y-63559429D01*
X115150000Y-63579536D01*
X115379830Y-63559429D01*
X115602676Y-63499717D01*
X115811768Y-63402216D01*
X116000753Y-63269887D01*
X116163887Y-63106753D01*
X116296216Y-62917768D01*
X116305805Y-62897205D01*
X116352722Y-62843919D01*
X116420999Y-62824458D01*
X116488959Y-62844999D01*
X116534195Y-62897205D01*
X116543782Y-62917766D01*
X116676110Y-63106749D01*
X116676113Y-63106753D01*
X116839247Y-63269887D01*
X117028232Y-63402216D01*
X117237324Y-63499717D01*
X117460170Y-63559429D01*
X117690000Y-63579536D01*
X117919830Y-63559429D01*
X118142676Y-63499717D01*
X118351768Y-63402216D01*
X118540753Y-63269887D01*
X118703887Y-63106753D01*
X118836216Y-62917768D01*
X118845805Y-62897205D01*
X118892722Y-62843919D01*
X118960999Y-62824458D01*
X119028959Y-62844999D01*
X119074195Y-62897205D01*
X119083782Y-62917766D01*
X119216110Y-63106749D01*
X119216113Y-63106753D01*
X119379247Y-63269887D01*
X119568232Y-63402216D01*
X119777324Y-63499717D01*
X120000170Y-63559429D01*
X120230000Y-63579536D01*
X120459830Y-63559429D01*
X120682676Y-63499717D01*
X120685549Y-63498377D01*
X120687249Y-63497585D01*
X120757441Y-63486923D01*
X120822254Y-63515902D01*
X120861110Y-63575322D01*
X120866500Y-63611779D01*
X120866500Y-71570604D01*
X120846498Y-71638725D01*
X120829595Y-71659699D01*
X113079436Y-79409857D01*
X113067001Y-79419821D01*
X113067189Y-79420048D01*
X113061080Y-79425101D01*
X113013116Y-79476178D01*
X112991966Y-79497327D01*
X112987660Y-79502877D01*
X112983814Y-79507379D01*
X112951517Y-79541774D01*
X112951511Y-79541783D01*
X112941751Y-79559535D01*
X112930903Y-79576050D01*
X112918486Y-79592058D01*
X112899745Y-79635364D01*
X112897134Y-79640694D01*
X112874405Y-79682039D01*
X112874403Y-79682044D01*
X112869367Y-79701659D01*
X112862964Y-79720362D01*
X112854919Y-79738952D01*
X112847537Y-79785556D01*
X112846333Y-79791368D01*
X112834600Y-79837068D01*
X112834600Y-79857323D01*
X112833049Y-79877033D01*
X112829880Y-79897042D01*
X112829880Y-79897043D01*
X112834320Y-79944017D01*
X112834600Y-79949950D01*
X112834600Y-80932574D01*
X112814598Y-81000695D01*
X112802237Y-81016884D01*
X112729057Y-81098159D01*
X112633576Y-81263538D01*
X112633573Y-81263544D01*
X112621813Y-81299737D01*
X112574557Y-81445172D01*
X112554596Y-81635100D01*
X112574557Y-81825027D01*
X112586182Y-81860804D01*
X112633573Y-82006656D01*
X112647665Y-82031064D01*
X112729058Y-82172041D01*
X112729065Y-82172051D01*
X112856843Y-82313963D01*
X112873480Y-82326051D01*
X112916833Y-82382275D01*
X112922907Y-82453011D01*
X112889774Y-82515802D01*
X112888512Y-82517081D01*
X112822836Y-82582757D01*
X112810401Y-82592721D01*
X112810589Y-82592948D01*
X112804480Y-82598001D01*
X112756516Y-82649078D01*
X112735366Y-82670227D01*
X112731060Y-82675777D01*
X112727214Y-82680279D01*
X112694917Y-82714674D01*
X112694911Y-82714683D01*
X112685151Y-82732435D01*
X112674303Y-82748950D01*
X112661886Y-82764958D01*
X112643145Y-82808264D01*
X112640534Y-82813594D01*
X112617805Y-82854939D01*
X112617803Y-82854944D01*
X112612767Y-82874559D01*
X112606364Y-82893262D01*
X112598319Y-82911852D01*
X112590937Y-82958456D01*
X112589733Y-82964268D01*
X112578000Y-83009968D01*
X112578000Y-83030223D01*
X112576449Y-83049933D01*
X112573280Y-83069942D01*
X112573280Y-83069943D01*
X112577720Y-83116917D01*
X112578000Y-83122850D01*
X112578000Y-83780174D01*
X112557998Y-83848295D01*
X112545637Y-83864484D01*
X112472457Y-83945759D01*
X112376976Y-84111138D01*
X112376973Y-84111144D01*
X112368462Y-84137339D01*
X112317957Y-84292772D01*
X112297996Y-84482700D01*
X112317957Y-84672627D01*
X112332073Y-84716070D01*
X112376973Y-84854256D01*
X112376976Y-84854261D01*
X112472458Y-85019641D01*
X112472465Y-85019651D01*
X112600244Y-85161564D01*
X112600247Y-85161566D01*
X112754748Y-85273818D01*
X112834445Y-85309301D01*
X112888540Y-85355279D01*
X112909190Y-85423206D01*
X112889838Y-85491515D01*
X112872291Y-85513502D01*
X112300536Y-86085257D01*
X112288101Y-86095221D01*
X112288289Y-86095448D01*
X112282180Y-86100501D01*
X112234216Y-86151578D01*
X112213066Y-86172727D01*
X112208760Y-86178277D01*
X112204914Y-86182779D01*
X112172617Y-86217174D01*
X112172611Y-86217183D01*
X112162851Y-86234935D01*
X112152003Y-86251450D01*
X112139586Y-86267458D01*
X112120845Y-86310764D01*
X112118234Y-86316094D01*
X112095505Y-86357439D01*
X112095503Y-86357444D01*
X112090467Y-86377059D01*
X112084064Y-86395762D01*
X112076019Y-86414352D01*
X112068637Y-86460956D01*
X112067433Y-86466768D01*
X112055700Y-86512468D01*
X112055700Y-86532723D01*
X112054149Y-86552433D01*
X112050980Y-86572442D01*
X112050980Y-86572443D01*
X103245500Y-86572443D01*
X103245500Y-67238482D01*
X103245694Y-67233537D01*
X103262260Y-67023044D01*
X103265353Y-67003516D01*
X103273971Y-66967620D01*
X103312907Y-66805437D01*
X103319011Y-66786650D01*
X103384138Y-66629421D01*
X103411443Y-66588556D01*
X103978970Y-66021029D01*
X104028214Y-65990595D01*
X104518602Y-65827132D01*
X104548540Y-65821059D01*
X104654343Y-65812732D01*
X104667537Y-65811694D01*
X104672481Y-65811500D01*
X105582684Y-65811500D01*
X105582684Y-65811499D01*
X105653742Y-65801282D01*
X105671674Y-65800000D01*
X105700000Y-65800000D01*
X105717597Y-65794134D01*
X105739508Y-65788952D01*
X105805739Y-65779429D01*
X105805740Y-65779428D01*
X105805752Y-65779427D01*
X106021987Y-65715935D01*
X106207539Y-65631195D01*
X106213750Y-65628749D01*
X106300000Y-65600000D01*
X106800000Y-65200000D01*
X107000000Y-64700000D01*
X107000000Y-64635595D01*
X107005103Y-64600100D01*
X107013427Y-64571752D01*
X107014105Y-64567040D01*
X107045499Y-64348688D01*
X107045500Y-64348684D01*
X107045500Y-56421495D01*
X107065502Y-56353374D01*
X107119158Y-56306881D01*
X107189432Y-56296777D01*
X107254012Y-56326271D01*
X107275785Y-56350782D01*
X107452121Y-56610857D01*
X107680869Y-56880160D01*
X107680872Y-56880162D01*
X107680873Y-56880164D01*
X107937378Y-57123140D01*
X107937393Y-57123153D01*
X108218686Y-57336986D01*
X108521449Y-57519152D01*
X108603764Y-57557235D01*
X108842115Y-57667509D01*
X108842122Y-57667512D01*
X108842133Y-57667517D01*
X109176979Y-57780339D01*
X109522059Y-57856297D01*
X109873329Y-57894500D01*
X109873337Y-57894500D01*
X110226663Y-57894500D01*
X110226671Y-57894500D01*
X110577941Y-57856297D01*
X110923021Y-57780339D01*
X111257867Y-57667517D01*
X111578551Y-57519152D01*
X111881314Y-57336986D01*
X112162607Y-57123153D01*
X112419131Y-56880160D01*
X112647879Y-56610857D01*
X112846170Y-56318400D01*
X113011678Y-56006218D01*
X113142463Y-55677972D01*
X113236992Y-55337510D01*
X113294156Y-54988823D01*
X113313286Y-54636000D01*
X113294156Y-54283177D01*
X113246879Y-53994796D01*
X113236993Y-53934494D01*
X113236992Y-53934490D01*
X113142463Y-53594028D01*
X113011678Y-53265782D01*
X112846170Y-52953600D01*
X112647879Y-52661143D01*
X112419131Y-52391840D01*
X112419126Y-52391835D01*
X112162621Y-52148859D01*
X112162606Y-52148846D01*
X111881318Y-51935017D01*
X111881312Y-51935013D01*
X111732480Y-51845464D01*
X111684423Y-51793205D01*
X111672247Y-51723260D01*
X111699820Y-51657836D01*
X111758386Y-51617705D01*
X111797440Y-51611500D01*
X182002560Y-51611500D01*
X182070681Y-51631502D01*
G37*
G04 #@! TD.AperFunction*
G04 #@! TA.AperFunction,NonConductor*
G36*
X167288959Y-55224999D02*
G01*
X167334195Y-55277205D01*
X167343782Y-55297766D01*
X167476110Y-55486749D01*
X167476113Y-55486753D01*
X167639247Y-55649887D01*
X167639250Y-55649889D01*
X167828233Y-55782217D01*
X167848796Y-55791806D01*
X167902081Y-55838723D01*
X167921541Y-55907001D01*
X167900999Y-55974961D01*
X167848796Y-56020194D01*
X167828233Y-56029782D01*
X167639250Y-56162110D01*
X167639244Y-56162115D01*
X167476115Y-56325244D01*
X167476110Y-56325250D01*
X167343782Y-56514233D01*
X167334194Y-56534796D01*
X167287277Y-56588081D01*
X167218999Y-56607541D01*
X167151039Y-56586999D01*
X167105806Y-56534796D01*
X167096217Y-56514233D01*
X166963889Y-56325250D01*
X166963884Y-56325244D01*
X166800755Y-56162115D01*
X166800749Y-56162110D01*
X166611766Y-56029782D01*
X166591205Y-56020195D01*
X166537919Y-55973278D01*
X166518458Y-55905001D01*
X166538999Y-55837041D01*
X166591205Y-55791805D01*
X166611766Y-55782217D01*
X166611766Y-55782216D01*
X166611768Y-55782216D01*
X166800753Y-55649887D01*
X166963887Y-55486753D01*
X167096216Y-55297768D01*
X167105805Y-55277205D01*
X167152722Y-55223919D01*
X167220999Y-55204458D01*
X167288959Y-55224999D01*
G37*
G04 #@! TD.AperFunction*
G04 #@! TA.AperFunction,NonConductor*
G36*
X164748959Y-55224999D02*
G01*
X164794195Y-55277205D01*
X164803782Y-55297766D01*
X164936110Y-55486749D01*
X164936113Y-55486753D01*
X165099247Y-55649887D01*
X165099250Y-55649889D01*
X165288233Y-55782217D01*
X165308796Y-55791806D01*
X165362081Y-55838723D01*
X165381541Y-55907001D01*
X165360999Y-55974961D01*
X165308796Y-56020194D01*
X165288233Y-56029782D01*
X165099250Y-56162110D01*
X165099244Y-56162115D01*
X164936115Y-56325244D01*
X164936110Y-56325250D01*
X164803782Y-56514233D01*
X164794194Y-56534796D01*
X164747277Y-56588081D01*
X164678999Y-56607541D01*
X164611039Y-56586999D01*
X164565806Y-56534796D01*
X164556217Y-56514233D01*
X164423889Y-56325250D01*
X164423884Y-56325244D01*
X164260755Y-56162115D01*
X164260749Y-56162110D01*
X164071766Y-56029782D01*
X164051205Y-56020195D01*
X163997919Y-55973278D01*
X163978458Y-55905001D01*
X163998999Y-55837041D01*
X164051205Y-55791805D01*
X164071766Y-55782217D01*
X164071766Y-55782216D01*
X164071768Y-55782216D01*
X164260753Y-55649887D01*
X164423887Y-55486753D01*
X164556216Y-55297768D01*
X164565805Y-55277205D01*
X164612722Y-55223919D01*
X164680999Y-55204458D01*
X164748959Y-55224999D01*
G37*
G04 #@! TD.AperFunction*
G04 #@! TA.AperFunction,NonConductor*
G36*
X162208959Y-55224999D02*
G01*
X162254195Y-55277205D01*
X162263782Y-55297766D01*
X162396110Y-55486749D01*
X162396113Y-55486753D01*
X162559247Y-55649887D01*
X162559250Y-55649889D01*
X162748233Y-55782217D01*
X162768796Y-55791806D01*
X162822081Y-55838723D01*
X162841541Y-55907001D01*
X162820999Y-55974961D01*
X162768796Y-56020194D01*
X162748233Y-56029782D01*
X162559250Y-56162110D01*
X162559244Y-56162115D01*
X162396115Y-56325244D01*
X162396110Y-56325250D01*
X162263782Y-56514233D01*
X162254194Y-56534796D01*
X162207277Y-56588081D01*
X162138999Y-56607541D01*
X162071039Y-56586999D01*
X162025806Y-56534796D01*
X162016217Y-56514233D01*
X161883889Y-56325250D01*
X161883884Y-56325244D01*
X161720755Y-56162115D01*
X161720749Y-56162110D01*
X161531766Y-56029782D01*
X161511205Y-56020195D01*
X161457919Y-55973278D01*
X161438458Y-55905001D01*
X161458999Y-55837041D01*
X161511205Y-55791805D01*
X161531766Y-55782217D01*
X161531766Y-55782216D01*
X161531768Y-55782216D01*
X161720753Y-55649887D01*
X161883887Y-55486753D01*
X162016216Y-55297768D01*
X162025805Y-55277205D01*
X162072722Y-55223919D01*
X162140999Y-55204458D01*
X162208959Y-55224999D01*
G37*
G04 #@! TD.AperFunction*
G04 #@! TA.AperFunction,NonConductor*
G36*
X159668959Y-55224999D02*
G01*
X159714195Y-55277205D01*
X159723782Y-55297766D01*
X159856110Y-55486749D01*
X159856113Y-55486753D01*
X160019247Y-55649887D01*
X160019250Y-55649889D01*
X160208233Y-55782217D01*
X160228796Y-55791806D01*
X160282081Y-55838723D01*
X160301541Y-55907001D01*
X160280999Y-55974961D01*
X160228796Y-56020194D01*
X160208233Y-56029782D01*
X160019250Y-56162110D01*
X160019244Y-56162115D01*
X159856115Y-56325244D01*
X159856110Y-56325250D01*
X159723782Y-56514233D01*
X159714194Y-56534796D01*
X159667277Y-56588081D01*
X159598999Y-56607541D01*
X159531039Y-56586999D01*
X159485806Y-56534796D01*
X159476217Y-56514233D01*
X159343889Y-56325250D01*
X159343884Y-56325244D01*
X159180755Y-56162115D01*
X159180749Y-56162110D01*
X158991766Y-56029782D01*
X158971205Y-56020195D01*
X158917919Y-55973278D01*
X158898458Y-55905001D01*
X158918999Y-55837041D01*
X158971205Y-55791805D01*
X158991766Y-55782217D01*
X158991766Y-55782216D01*
X158991768Y-55782216D01*
X159180753Y-55649887D01*
X159343887Y-55486753D01*
X159476216Y-55297768D01*
X159485805Y-55277205D01*
X159532722Y-55223919D01*
X159600999Y-55204458D01*
X159668959Y-55224999D01*
G37*
G04 #@! TD.AperFunction*
G04 #@! TA.AperFunction,NonConductor*
G36*
X157128959Y-55224999D02*
G01*
X157174195Y-55277205D01*
X157183782Y-55297766D01*
X157316110Y-55486749D01*
X157316113Y-55486753D01*
X157479247Y-55649887D01*
X157479250Y-55649889D01*
X157668233Y-55782217D01*
X157688796Y-55791806D01*
X157742081Y-55838723D01*
X157761541Y-55907001D01*
X157740999Y-55974961D01*
X157688796Y-56020194D01*
X157668233Y-56029782D01*
X157479250Y-56162110D01*
X157479244Y-56162115D01*
X157316115Y-56325244D01*
X157316110Y-56325250D01*
X157183782Y-56514233D01*
X157174194Y-56534796D01*
X157127277Y-56588081D01*
X157058999Y-56607541D01*
X156991039Y-56586999D01*
X156945806Y-56534796D01*
X156936217Y-56514233D01*
X156803889Y-56325250D01*
X156803884Y-56325244D01*
X156640755Y-56162115D01*
X156640749Y-56162110D01*
X156451766Y-56029782D01*
X156431205Y-56020195D01*
X156377919Y-55973278D01*
X156358458Y-55905001D01*
X156378999Y-55837041D01*
X156431205Y-55791805D01*
X156451766Y-55782217D01*
X156451766Y-55782216D01*
X156451768Y-55782216D01*
X156640753Y-55649887D01*
X156803887Y-55486753D01*
X156936216Y-55297768D01*
X156945805Y-55277205D01*
X156992722Y-55223919D01*
X157060999Y-55204458D01*
X157128959Y-55224999D01*
G37*
G04 #@! TD.AperFunction*
G04 #@! TA.AperFunction,NonConductor*
G36*
X149508959Y-55224999D02*
G01*
X149554195Y-55277205D01*
X149563782Y-55297766D01*
X149696110Y-55486749D01*
X149696113Y-55486753D01*
X149859247Y-55649887D01*
X149859250Y-55649889D01*
X150048233Y-55782217D01*
X150068796Y-55791806D01*
X150122081Y-55838723D01*
X150141541Y-55907001D01*
X150120999Y-55974961D01*
X150068796Y-56020194D01*
X150048233Y-56029782D01*
X149859250Y-56162110D01*
X149859244Y-56162115D01*
X149696115Y-56325244D01*
X149696110Y-56325250D01*
X149563782Y-56514233D01*
X149554194Y-56534796D01*
X149507277Y-56588081D01*
X149438999Y-56607541D01*
X149371039Y-56586999D01*
X149325806Y-56534796D01*
X149316217Y-56514233D01*
X149183889Y-56325250D01*
X149183884Y-56325244D01*
X149020755Y-56162115D01*
X149020749Y-56162110D01*
X148831766Y-56029782D01*
X148811205Y-56020195D01*
X148757919Y-55973278D01*
X148738458Y-55905001D01*
X148758999Y-55837041D01*
X148811205Y-55791805D01*
X148831766Y-55782217D01*
X148831766Y-55782216D01*
X148831768Y-55782216D01*
X149020753Y-55649887D01*
X149183887Y-55486753D01*
X149316216Y-55297768D01*
X149325805Y-55277205D01*
X149372722Y-55223919D01*
X149440999Y-55204458D01*
X149508959Y-55224999D01*
G37*
G04 #@! TD.AperFunction*
G04 #@! TA.AperFunction,NonConductor*
G36*
X146968959Y-55224999D02*
G01*
X147014195Y-55277205D01*
X147023782Y-55297766D01*
X147156110Y-55486749D01*
X147156113Y-55486753D01*
X147319247Y-55649887D01*
X147319250Y-55649889D01*
X147508233Y-55782217D01*
X147528796Y-55791806D01*
X147582081Y-55838723D01*
X147601541Y-55907001D01*
X147580999Y-55974961D01*
X147528796Y-56020194D01*
X147508233Y-56029782D01*
X147319250Y-56162110D01*
X147319244Y-56162115D01*
X147156115Y-56325244D01*
X147156110Y-56325250D01*
X147023782Y-56514233D01*
X147014194Y-56534796D01*
X146967277Y-56588081D01*
X146898999Y-56607541D01*
X146831039Y-56586999D01*
X146785806Y-56534796D01*
X146776217Y-56514233D01*
X146643889Y-56325250D01*
X146643884Y-56325244D01*
X146480755Y-56162115D01*
X146480749Y-56162110D01*
X146291766Y-56029782D01*
X146271205Y-56020195D01*
X146217919Y-55973278D01*
X146198458Y-55905001D01*
X146218999Y-55837041D01*
X146271205Y-55791805D01*
X146291766Y-55782217D01*
X146291766Y-55782216D01*
X146291768Y-55782216D01*
X146480753Y-55649887D01*
X146643887Y-55486753D01*
X146776216Y-55297768D01*
X146785805Y-55277205D01*
X146832722Y-55223919D01*
X146900999Y-55204458D01*
X146968959Y-55224999D01*
G37*
G04 #@! TD.AperFunction*
G04 #@! TA.AperFunction,NonConductor*
G36*
X141888959Y-55224999D02*
G01*
X141934195Y-55277205D01*
X141943782Y-55297766D01*
X142076110Y-55486749D01*
X142076113Y-55486753D01*
X142239247Y-55649887D01*
X142239250Y-55649889D01*
X142428233Y-55782217D01*
X142448796Y-55791806D01*
X142502081Y-55838723D01*
X142521541Y-55907001D01*
X142500999Y-55974961D01*
X142448796Y-56020194D01*
X142428233Y-56029782D01*
X142239250Y-56162110D01*
X142239244Y-56162115D01*
X142076115Y-56325244D01*
X142076110Y-56325250D01*
X141943782Y-56514233D01*
X141934194Y-56534796D01*
X141887277Y-56588081D01*
X141818999Y-56607541D01*
X141751039Y-56586999D01*
X141705806Y-56534796D01*
X141696217Y-56514233D01*
X141563889Y-56325250D01*
X141563884Y-56325244D01*
X141400755Y-56162115D01*
X141400749Y-56162110D01*
X141211766Y-56029782D01*
X141191205Y-56020195D01*
X141137919Y-55973278D01*
X141118458Y-55905001D01*
X141138999Y-55837041D01*
X141191205Y-55791805D01*
X141211766Y-55782217D01*
X141211766Y-55782216D01*
X141211768Y-55782216D01*
X141400753Y-55649887D01*
X141563887Y-55486753D01*
X141696216Y-55297768D01*
X141705805Y-55277205D01*
X141752722Y-55223919D01*
X141820999Y-55204458D01*
X141888959Y-55224999D01*
G37*
G04 #@! TD.AperFunction*
G04 #@! TA.AperFunction,NonConductor*
G36*
X139348959Y-55224999D02*
G01*
X139394195Y-55277205D01*
X139403782Y-55297766D01*
X139536110Y-55486749D01*
X139536113Y-55486753D01*
X139699247Y-55649887D01*
X139699250Y-55649889D01*
X139888233Y-55782217D01*
X139908796Y-55791806D01*
X139962081Y-55838723D01*
X139981541Y-55907001D01*
X139960999Y-55974961D01*
X139908796Y-56020194D01*
X139888233Y-56029782D01*
X139699250Y-56162110D01*
X139699244Y-56162115D01*
X139536115Y-56325244D01*
X139536110Y-56325250D01*
X139403782Y-56514233D01*
X139394194Y-56534796D01*
X139347277Y-56588081D01*
X139278999Y-56607541D01*
X139211039Y-56586999D01*
X139165806Y-56534796D01*
X139156217Y-56514233D01*
X139023889Y-56325250D01*
X139023884Y-56325244D01*
X138860755Y-56162115D01*
X138860749Y-56162110D01*
X138671766Y-56029782D01*
X138651205Y-56020195D01*
X138597919Y-55973278D01*
X138578458Y-55905001D01*
X138598999Y-55837041D01*
X138651205Y-55791805D01*
X138671766Y-55782217D01*
X138671766Y-55782216D01*
X138671768Y-55782216D01*
X138860753Y-55649887D01*
X139023887Y-55486753D01*
X139156216Y-55297768D01*
X139165805Y-55277205D01*
X139212722Y-55223919D01*
X139280999Y-55204458D01*
X139348959Y-55224999D01*
G37*
G04 #@! TD.AperFunction*
G04 #@! TA.AperFunction,NonConductor*
G36*
X136808959Y-55224999D02*
G01*
X136854195Y-55277205D01*
X136863782Y-55297766D01*
X136996110Y-55486749D01*
X136996113Y-55486753D01*
X137159247Y-55649887D01*
X137159250Y-55649889D01*
X137348233Y-55782217D01*
X137368796Y-55791806D01*
X137422081Y-55838723D01*
X137441541Y-55907001D01*
X137420999Y-55974961D01*
X137368796Y-56020194D01*
X137348233Y-56029782D01*
X137159250Y-56162110D01*
X137159244Y-56162115D01*
X136996115Y-56325244D01*
X136996110Y-56325250D01*
X136863782Y-56514233D01*
X136854194Y-56534796D01*
X136807277Y-56588081D01*
X136738999Y-56607541D01*
X136671039Y-56586999D01*
X136625806Y-56534796D01*
X136616217Y-56514233D01*
X136483889Y-56325250D01*
X136483884Y-56325244D01*
X136320755Y-56162115D01*
X136320749Y-56162110D01*
X136131766Y-56029782D01*
X136111205Y-56020195D01*
X136057919Y-55973278D01*
X136038458Y-55905001D01*
X136058999Y-55837041D01*
X136111205Y-55791805D01*
X136131766Y-55782217D01*
X136131766Y-55782216D01*
X136131768Y-55782216D01*
X136320753Y-55649887D01*
X136483887Y-55486753D01*
X136616216Y-55297768D01*
X136625805Y-55277205D01*
X136672722Y-55223919D01*
X136740999Y-55204458D01*
X136808959Y-55224999D01*
G37*
G04 #@! TD.AperFunction*
G04 #@! TA.AperFunction,NonConductor*
G36*
X134268959Y-55224999D02*
G01*
X134314195Y-55277205D01*
X134323782Y-55297766D01*
X134456110Y-55486749D01*
X134456113Y-55486753D01*
X134619247Y-55649887D01*
X134619250Y-55649889D01*
X134808233Y-55782217D01*
X134828796Y-55791806D01*
X134882081Y-55838723D01*
X134901541Y-55907001D01*
X134880999Y-55974961D01*
X134828796Y-56020194D01*
X134808233Y-56029782D01*
X134619250Y-56162110D01*
X134619244Y-56162115D01*
X134456115Y-56325244D01*
X134456110Y-56325250D01*
X134323782Y-56514233D01*
X134314194Y-56534796D01*
X134267277Y-56588081D01*
X134198999Y-56607541D01*
X134131039Y-56586999D01*
X134085806Y-56534796D01*
X134076217Y-56514233D01*
X133943889Y-56325250D01*
X133943884Y-56325244D01*
X133780755Y-56162115D01*
X133780749Y-56162110D01*
X133591766Y-56029782D01*
X133571205Y-56020195D01*
X133517919Y-55973278D01*
X133498458Y-55905001D01*
X133518999Y-55837041D01*
X133571205Y-55791805D01*
X133591766Y-55782217D01*
X133591766Y-55782216D01*
X133591768Y-55782216D01*
X133780753Y-55649887D01*
X133943887Y-55486753D01*
X134076216Y-55297768D01*
X134085805Y-55277205D01*
X134132722Y-55223919D01*
X134200999Y-55204458D01*
X134268959Y-55224999D01*
G37*
G04 #@! TD.AperFunction*
G04 #@! TA.AperFunction,NonConductor*
G36*
X131728959Y-55224999D02*
G01*
X131774195Y-55277205D01*
X131783782Y-55297766D01*
X131916110Y-55486749D01*
X131916113Y-55486753D01*
X132079247Y-55649887D01*
X132079250Y-55649889D01*
X132268233Y-55782217D01*
X132288796Y-55791806D01*
X132342081Y-55838723D01*
X132361541Y-55907001D01*
X132340999Y-55974961D01*
X132288796Y-56020194D01*
X132268233Y-56029782D01*
X132079250Y-56162110D01*
X132079244Y-56162115D01*
X131916115Y-56325244D01*
X131916110Y-56325250D01*
X131783782Y-56514233D01*
X131774194Y-56534796D01*
X131727277Y-56588081D01*
X131658999Y-56607541D01*
X131591039Y-56586999D01*
X131545806Y-56534796D01*
X131536217Y-56514233D01*
X131403889Y-56325250D01*
X131403884Y-56325244D01*
X131240755Y-56162115D01*
X131240749Y-56162110D01*
X131051766Y-56029782D01*
X131031205Y-56020195D01*
X130977919Y-55973278D01*
X130958458Y-55905001D01*
X130978999Y-55837041D01*
X131031205Y-55791805D01*
X131051766Y-55782217D01*
X131051766Y-55782216D01*
X131051768Y-55782216D01*
X131240753Y-55649887D01*
X131403887Y-55486753D01*
X131536216Y-55297768D01*
X131545805Y-55277205D01*
X131592722Y-55223919D01*
X131660999Y-55204458D01*
X131728959Y-55224999D01*
G37*
G04 #@! TD.AperFunction*
G04 #@! TA.AperFunction,NonConductor*
G36*
X129188959Y-55224999D02*
G01*
X129234195Y-55277205D01*
X129243782Y-55297766D01*
X129376110Y-55486749D01*
X129376113Y-55486753D01*
X129539247Y-55649887D01*
X129539250Y-55649889D01*
X129728233Y-55782217D01*
X129748796Y-55791806D01*
X129802081Y-55838723D01*
X129821541Y-55907001D01*
X129800999Y-55974961D01*
X129748796Y-56020194D01*
X129728233Y-56029782D01*
X129539250Y-56162110D01*
X129539244Y-56162115D01*
X129376115Y-56325244D01*
X129376110Y-56325250D01*
X129243782Y-56514233D01*
X129234194Y-56534796D01*
X129187277Y-56588081D01*
X129118999Y-56607541D01*
X129051039Y-56586999D01*
X129005806Y-56534796D01*
X128996217Y-56514233D01*
X128863889Y-56325250D01*
X128863884Y-56325244D01*
X128700755Y-56162115D01*
X128700749Y-56162110D01*
X128511766Y-56029782D01*
X128491205Y-56020195D01*
X128437919Y-55973278D01*
X128418458Y-55905001D01*
X128438999Y-55837041D01*
X128491205Y-55791805D01*
X128511766Y-55782217D01*
X128511766Y-55782216D01*
X128511768Y-55782216D01*
X128700753Y-55649887D01*
X128863887Y-55486753D01*
X128996216Y-55297768D01*
X129005805Y-55277205D01*
X129052722Y-55223919D01*
X129120999Y-55204458D01*
X129188959Y-55224999D01*
G37*
G04 #@! TD.AperFunction*
G04 #@! TA.AperFunction,NonConductor*
G36*
X126648959Y-55224999D02*
G01*
X126694195Y-55277205D01*
X126703782Y-55297766D01*
X126836110Y-55486749D01*
X126836113Y-55486753D01*
X126999247Y-55649887D01*
X126999250Y-55649889D01*
X127188233Y-55782217D01*
X127208796Y-55791806D01*
X127262081Y-55838723D01*
X127281541Y-55907001D01*
X127260999Y-55974961D01*
X127208796Y-56020194D01*
X127188233Y-56029782D01*
X126999250Y-56162110D01*
X126999244Y-56162115D01*
X126836115Y-56325244D01*
X126836110Y-56325250D01*
X126703782Y-56514233D01*
X126694194Y-56534796D01*
X126647277Y-56588081D01*
X126578999Y-56607541D01*
X126511039Y-56586999D01*
X126465806Y-56534796D01*
X126456217Y-56514233D01*
X126323889Y-56325250D01*
X126323884Y-56325244D01*
X126160755Y-56162115D01*
X126160749Y-56162110D01*
X125971766Y-56029782D01*
X125951205Y-56020195D01*
X125897919Y-55973278D01*
X125878458Y-55905001D01*
X125898999Y-55837041D01*
X125951205Y-55791805D01*
X125971766Y-55782217D01*
X125971766Y-55782216D01*
X125971768Y-55782216D01*
X126160753Y-55649887D01*
X126323887Y-55486753D01*
X126456216Y-55297768D01*
X126465805Y-55277205D01*
X126512722Y-55223919D01*
X126580999Y-55204458D01*
X126648959Y-55224999D01*
G37*
G04 #@! TD.AperFunction*
G04 #@! TA.AperFunction,NonConductor*
G36*
X124108959Y-55224999D02*
G01*
X124154195Y-55277205D01*
X124163782Y-55297766D01*
X124296110Y-55486749D01*
X124296113Y-55486753D01*
X124459247Y-55649887D01*
X124459250Y-55649889D01*
X124648233Y-55782217D01*
X124668796Y-55791806D01*
X124722081Y-55838723D01*
X124741541Y-55907001D01*
X124720999Y-55974961D01*
X124668796Y-56020194D01*
X124648233Y-56029782D01*
X124459250Y-56162110D01*
X124459244Y-56162115D01*
X124296115Y-56325244D01*
X124296110Y-56325250D01*
X124163782Y-56514233D01*
X124154194Y-56534796D01*
X124107277Y-56588081D01*
X124038999Y-56607541D01*
X123971039Y-56586999D01*
X123925806Y-56534796D01*
X123916217Y-56514233D01*
X123783889Y-56325250D01*
X123783884Y-56325244D01*
X123620755Y-56162115D01*
X123620749Y-56162110D01*
X123431766Y-56029782D01*
X123411205Y-56020195D01*
X123357919Y-55973278D01*
X123338458Y-55905001D01*
X123358999Y-55837041D01*
X123411205Y-55791805D01*
X123431766Y-55782217D01*
X123431766Y-55782216D01*
X123431768Y-55782216D01*
X123620753Y-55649887D01*
X123783887Y-55486753D01*
X123916216Y-55297768D01*
X123925805Y-55277205D01*
X123972722Y-55223919D01*
X124040999Y-55204458D01*
X124108959Y-55224999D01*
G37*
G04 #@! TD.AperFunction*
G04 #@! TA.AperFunction,NonConductor*
G36*
X119028959Y-55224999D02*
G01*
X119074195Y-55277205D01*
X119083782Y-55297766D01*
X119216110Y-55486749D01*
X119216113Y-55486753D01*
X119379247Y-55649887D01*
X119379250Y-55649889D01*
X119568233Y-55782217D01*
X119588796Y-55791806D01*
X119642081Y-55838723D01*
X119661541Y-55907001D01*
X119640999Y-55974961D01*
X119588796Y-56020194D01*
X119568233Y-56029782D01*
X119379250Y-56162110D01*
X119379244Y-56162115D01*
X119216115Y-56325244D01*
X119216110Y-56325250D01*
X119083782Y-56514233D01*
X119074194Y-56534796D01*
X119027277Y-56588081D01*
X118958999Y-56607541D01*
X118891039Y-56586999D01*
X118845806Y-56534796D01*
X118836217Y-56514233D01*
X118703889Y-56325250D01*
X118703884Y-56325244D01*
X118540755Y-56162115D01*
X118540749Y-56162110D01*
X118351766Y-56029782D01*
X118331205Y-56020195D01*
X118277919Y-55973278D01*
X118258458Y-55905001D01*
X118278999Y-55837041D01*
X118331205Y-55791805D01*
X118351766Y-55782217D01*
X118351766Y-55782216D01*
X118351768Y-55782216D01*
X118540753Y-55649887D01*
X118703887Y-55486753D01*
X118836216Y-55297768D01*
X118845805Y-55277205D01*
X118892722Y-55223919D01*
X118960999Y-55204458D01*
X119028959Y-55224999D01*
G37*
G04 #@! TD.AperFunction*
G04 #@! TA.AperFunction,NonConductor*
G36*
X116488959Y-55224999D02*
G01*
X116534195Y-55277205D01*
X116543782Y-55297766D01*
X116676110Y-55486749D01*
X116676113Y-55486753D01*
X116839247Y-55649887D01*
X116839250Y-55649889D01*
X117028233Y-55782217D01*
X117048796Y-55791806D01*
X117102081Y-55838723D01*
X117121541Y-55907001D01*
X117100999Y-55974961D01*
X117048796Y-56020194D01*
X117028233Y-56029782D01*
X116839250Y-56162110D01*
X116839244Y-56162115D01*
X116676115Y-56325244D01*
X116676110Y-56325250D01*
X116543782Y-56514233D01*
X116534194Y-56534796D01*
X116487277Y-56588081D01*
X116418999Y-56607541D01*
X116351039Y-56586999D01*
X116305806Y-56534796D01*
X116296217Y-56514233D01*
X116163889Y-56325250D01*
X116163884Y-56325244D01*
X116000755Y-56162115D01*
X116000749Y-56162110D01*
X115811766Y-56029782D01*
X115791205Y-56020195D01*
X115737919Y-55973278D01*
X115718458Y-55905001D01*
X115738999Y-55837041D01*
X115791205Y-55791805D01*
X115811766Y-55782217D01*
X115811766Y-55782216D01*
X115811768Y-55782216D01*
X116000753Y-55649887D01*
X116163887Y-55486753D01*
X116296216Y-55297768D01*
X116305805Y-55277205D01*
X116352722Y-55223919D01*
X116420999Y-55204458D01*
X116488959Y-55224999D01*
G37*
G04 #@! TD.AperFunction*
G04 #@! TA.AperFunction,NonConductor*
G36*
X146968959Y-57764999D02*
G01*
X147014195Y-57817205D01*
X147023782Y-57837766D01*
X147063508Y-57894500D01*
X147156113Y-58026753D01*
X147319247Y-58189887D01*
X147319250Y-58189889D01*
X147508233Y-58322217D01*
X147528796Y-58331806D01*
X147582081Y-58378723D01*
X147601541Y-58447001D01*
X147580999Y-58514961D01*
X147528796Y-58560194D01*
X147508233Y-58569782D01*
X147319246Y-58702112D01*
X147311819Y-58709539D01*
X147249503Y-58743559D01*
X147178688Y-58738488D01*
X147133636Y-58709531D01*
X146636467Y-58212362D01*
X146602441Y-58150050D01*
X146607506Y-58079235D01*
X146636470Y-58034169D01*
X146643887Y-58026753D01*
X146776216Y-57837768D01*
X146785805Y-57817205D01*
X146832722Y-57763919D01*
X146900999Y-57744458D01*
X146968959Y-57764999D01*
G37*
G04 #@! TD.AperFunction*
G04 #@! TA.AperFunction,NonConductor*
G36*
X124108959Y-57764999D02*
G01*
X124154195Y-57817205D01*
X124163782Y-57837766D01*
X124203508Y-57894500D01*
X124296113Y-58026753D01*
X124459247Y-58189887D01*
X124459250Y-58189889D01*
X124648233Y-58322217D01*
X124668796Y-58331806D01*
X124722081Y-58378723D01*
X124741541Y-58447001D01*
X124720999Y-58514961D01*
X124668796Y-58560194D01*
X124648233Y-58569782D01*
X124459246Y-58702112D01*
X124459244Y-58702115D01*
X124450170Y-58711188D01*
X124387855Y-58745209D01*
X124317039Y-58740138D01*
X124271985Y-58711181D01*
X123774817Y-58214012D01*
X123740792Y-58151700D01*
X123745857Y-58080884D01*
X123774819Y-58035820D01*
X123783887Y-58026753D01*
X123916216Y-57837768D01*
X123925805Y-57817205D01*
X123972722Y-57763919D01*
X124040999Y-57744458D01*
X124108959Y-57764999D01*
G37*
G04 #@! TD.AperFunction*
G04 #@! TA.AperFunction,NonConductor*
G36*
X167288959Y-57764999D02*
G01*
X167334195Y-57817205D01*
X167343782Y-57837766D01*
X167383508Y-57894500D01*
X167476113Y-58026753D01*
X167639247Y-58189887D01*
X167639250Y-58189889D01*
X167828233Y-58322217D01*
X167848796Y-58331806D01*
X167902081Y-58378723D01*
X167921541Y-58447001D01*
X167900999Y-58514961D01*
X167848796Y-58560194D01*
X167828233Y-58569782D01*
X167639250Y-58702110D01*
X167639244Y-58702115D01*
X167476115Y-58865244D01*
X167476110Y-58865250D01*
X167343782Y-59054233D01*
X167334194Y-59074796D01*
X167287277Y-59128081D01*
X167218999Y-59147541D01*
X167151039Y-59126999D01*
X167105806Y-59074796D01*
X167096217Y-59054233D01*
X166963889Y-58865250D01*
X166963884Y-58865244D01*
X166800755Y-58702115D01*
X166800751Y-58702112D01*
X166797817Y-58700057D01*
X166611766Y-58569782D01*
X166591205Y-58560195D01*
X166537919Y-58513278D01*
X166518458Y-58445001D01*
X166538999Y-58377041D01*
X166591205Y-58331805D01*
X166611766Y-58322217D01*
X166611766Y-58322216D01*
X166611768Y-58322216D01*
X166800753Y-58189887D01*
X166963887Y-58026753D01*
X167096216Y-57837768D01*
X167105805Y-57817205D01*
X167152722Y-57763919D01*
X167220999Y-57744458D01*
X167288959Y-57764999D01*
G37*
G04 #@! TD.AperFunction*
G04 #@! TA.AperFunction,NonConductor*
G36*
X164748959Y-57764999D02*
G01*
X164794195Y-57817205D01*
X164803782Y-57837766D01*
X164843508Y-57894500D01*
X164936113Y-58026753D01*
X165099247Y-58189887D01*
X165099250Y-58189889D01*
X165288233Y-58322217D01*
X165308796Y-58331806D01*
X165362081Y-58378723D01*
X165381541Y-58447001D01*
X165360999Y-58514961D01*
X165308796Y-58560194D01*
X165288233Y-58569782D01*
X165099250Y-58702110D01*
X165099244Y-58702115D01*
X164936115Y-58865244D01*
X164936110Y-58865250D01*
X164803782Y-59054233D01*
X164794194Y-59074796D01*
X164747277Y-59128081D01*
X164678999Y-59147541D01*
X164611039Y-59126999D01*
X164565806Y-59074796D01*
X164556217Y-59054233D01*
X164423889Y-58865250D01*
X164423884Y-58865244D01*
X164260755Y-58702115D01*
X164260751Y-58702112D01*
X164257817Y-58700057D01*
X164071766Y-58569782D01*
X164051205Y-58560195D01*
X163997919Y-58513278D01*
X163978458Y-58445001D01*
X163998999Y-58377041D01*
X164051205Y-58331805D01*
X164071766Y-58322217D01*
X164071766Y-58322216D01*
X164071768Y-58322216D01*
X164260753Y-58189887D01*
X164423887Y-58026753D01*
X164556216Y-57837768D01*
X164565805Y-57817205D01*
X164612722Y-57763919D01*
X164680999Y-57744458D01*
X164748959Y-57764999D01*
G37*
G04 #@! TD.AperFunction*
G04 #@! TA.AperFunction,NonConductor*
G36*
X162208959Y-57764999D02*
G01*
X162254195Y-57817205D01*
X162263782Y-57837766D01*
X162303508Y-57894500D01*
X162396113Y-58026753D01*
X162559247Y-58189887D01*
X162559250Y-58189889D01*
X162748233Y-58322217D01*
X162768796Y-58331806D01*
X162822081Y-58378723D01*
X162841541Y-58447001D01*
X162820999Y-58514961D01*
X162768796Y-58560194D01*
X162748233Y-58569782D01*
X162559250Y-58702110D01*
X162559244Y-58702115D01*
X162396115Y-58865244D01*
X162396110Y-58865250D01*
X162263782Y-59054233D01*
X162254194Y-59074796D01*
X162207277Y-59128081D01*
X162138999Y-59147541D01*
X162071039Y-59126999D01*
X162025806Y-59074796D01*
X162016217Y-59054233D01*
X161883889Y-58865250D01*
X161883884Y-58865244D01*
X161720755Y-58702115D01*
X161720751Y-58702112D01*
X161717817Y-58700057D01*
X161531766Y-58569782D01*
X161511205Y-58560195D01*
X161457919Y-58513278D01*
X161438458Y-58445001D01*
X161458999Y-58377041D01*
X161511205Y-58331805D01*
X161531766Y-58322217D01*
X161531766Y-58322216D01*
X161531768Y-58322216D01*
X161720753Y-58189887D01*
X161883887Y-58026753D01*
X162016216Y-57837768D01*
X162025805Y-57817205D01*
X162072722Y-57763919D01*
X162140999Y-57744458D01*
X162208959Y-57764999D01*
G37*
G04 #@! TD.AperFunction*
G04 #@! TA.AperFunction,NonConductor*
G36*
X159668959Y-57764999D02*
G01*
X159714195Y-57817205D01*
X159723782Y-57837766D01*
X159763508Y-57894500D01*
X159856113Y-58026753D01*
X160019247Y-58189887D01*
X160019250Y-58189889D01*
X160208233Y-58322217D01*
X160228796Y-58331806D01*
X160282081Y-58378723D01*
X160301541Y-58447001D01*
X160280999Y-58514961D01*
X160228796Y-58560194D01*
X160208233Y-58569782D01*
X160019250Y-58702110D01*
X160019244Y-58702115D01*
X159856115Y-58865244D01*
X159856110Y-58865250D01*
X159723782Y-59054233D01*
X159714194Y-59074796D01*
X159667277Y-59128081D01*
X159598999Y-59147541D01*
X159531039Y-59126999D01*
X159485806Y-59074796D01*
X159476217Y-59054233D01*
X159343889Y-58865250D01*
X159343884Y-58865244D01*
X159180755Y-58702115D01*
X159180751Y-58702112D01*
X159177817Y-58700057D01*
X158991766Y-58569782D01*
X158971205Y-58560195D01*
X158917919Y-58513278D01*
X158898458Y-58445001D01*
X158918999Y-58377041D01*
X158971205Y-58331805D01*
X158991766Y-58322217D01*
X158991766Y-58322216D01*
X158991768Y-58322216D01*
X159180753Y-58189887D01*
X159343887Y-58026753D01*
X159476216Y-57837768D01*
X159485805Y-57817205D01*
X159532722Y-57763919D01*
X159600999Y-57744458D01*
X159668959Y-57764999D01*
G37*
G04 #@! TD.AperFunction*
G04 #@! TA.AperFunction,NonConductor*
G36*
X157128959Y-57764999D02*
G01*
X157174195Y-57817205D01*
X157183782Y-57837766D01*
X157223508Y-57894500D01*
X157316113Y-58026753D01*
X157479247Y-58189887D01*
X157479250Y-58189889D01*
X157668233Y-58322217D01*
X157688796Y-58331806D01*
X157742081Y-58378723D01*
X157761541Y-58447001D01*
X157740999Y-58514961D01*
X157688796Y-58560194D01*
X157668233Y-58569782D01*
X157479250Y-58702110D01*
X157479244Y-58702115D01*
X157316115Y-58865244D01*
X157316110Y-58865250D01*
X157183782Y-59054233D01*
X157174194Y-59074796D01*
X157127277Y-59128081D01*
X157058999Y-59147541D01*
X156991039Y-59126999D01*
X156945806Y-59074796D01*
X156936217Y-59054233D01*
X156803889Y-58865250D01*
X156803884Y-58865244D01*
X156640755Y-58702115D01*
X156640751Y-58702112D01*
X156637817Y-58700057D01*
X156451766Y-58569782D01*
X156431205Y-58560195D01*
X156377919Y-58513278D01*
X156358458Y-58445001D01*
X156378999Y-58377041D01*
X156431205Y-58331805D01*
X156451766Y-58322217D01*
X156451766Y-58322216D01*
X156451768Y-58322216D01*
X156640753Y-58189887D01*
X156803887Y-58026753D01*
X156936216Y-57837768D01*
X156945805Y-57817205D01*
X156992722Y-57763919D01*
X157060999Y-57744458D01*
X157128959Y-57764999D01*
G37*
G04 #@! TD.AperFunction*
G04 #@! TA.AperFunction,NonConductor*
G36*
X144082940Y-58151853D02*
G01*
X144128012Y-58180817D01*
X144625181Y-58677986D01*
X144659207Y-58740298D01*
X144654142Y-58811113D01*
X144625188Y-58856170D01*
X144616115Y-58865244D01*
X144616112Y-58865246D01*
X144483782Y-59054233D01*
X144474194Y-59074796D01*
X144427277Y-59128081D01*
X144358999Y-59147541D01*
X144291039Y-59126999D01*
X144245806Y-59074796D01*
X144236217Y-59054233D01*
X144103889Y-58865250D01*
X144103884Y-58865244D01*
X143940755Y-58702115D01*
X143940751Y-58702112D01*
X143937817Y-58700057D01*
X143751766Y-58569782D01*
X143731205Y-58560195D01*
X143677919Y-58513278D01*
X143658458Y-58445001D01*
X143678999Y-58377041D01*
X143731205Y-58331805D01*
X143751766Y-58322217D01*
X143751766Y-58322216D01*
X143751768Y-58322216D01*
X143940753Y-58189887D01*
X143949819Y-58180820D01*
X144012124Y-58146794D01*
X144082940Y-58151853D01*
G37*
G04 #@! TD.AperFunction*
G04 #@! TA.AperFunction,NonConductor*
G36*
X141888959Y-57764999D02*
G01*
X141934195Y-57817205D01*
X141943782Y-57837766D01*
X141983508Y-57894500D01*
X142076113Y-58026753D01*
X142239247Y-58189887D01*
X142239250Y-58189889D01*
X142428233Y-58322217D01*
X142448796Y-58331806D01*
X142502081Y-58378723D01*
X142521541Y-58447001D01*
X142500999Y-58514961D01*
X142448796Y-58560194D01*
X142428233Y-58569782D01*
X142239250Y-58702110D01*
X142239244Y-58702115D01*
X142076115Y-58865244D01*
X142076110Y-58865250D01*
X141943782Y-59054233D01*
X141934194Y-59074796D01*
X141887277Y-59128081D01*
X141818999Y-59147541D01*
X141751039Y-59126999D01*
X141705806Y-59074796D01*
X141696217Y-59054233D01*
X141563889Y-58865250D01*
X141563884Y-58865244D01*
X141400755Y-58702115D01*
X141400751Y-58702112D01*
X141397817Y-58700057D01*
X141211766Y-58569782D01*
X141191205Y-58560195D01*
X141137919Y-58513278D01*
X141118458Y-58445001D01*
X141138999Y-58377041D01*
X141191205Y-58331805D01*
X141211766Y-58322217D01*
X141211766Y-58322216D01*
X141211768Y-58322216D01*
X141400753Y-58189887D01*
X141563887Y-58026753D01*
X141696216Y-57837768D01*
X141705805Y-57817205D01*
X141752722Y-57763919D01*
X141820999Y-57744458D01*
X141888959Y-57764999D01*
G37*
G04 #@! TD.AperFunction*
G04 #@! TA.AperFunction,NonConductor*
G36*
X134268959Y-57764999D02*
G01*
X134314195Y-57817205D01*
X134323782Y-57837766D01*
X134363508Y-57894500D01*
X134456113Y-58026753D01*
X134619247Y-58189887D01*
X134619250Y-58189889D01*
X134808233Y-58322217D01*
X134828796Y-58331806D01*
X134882081Y-58378723D01*
X134901541Y-58447001D01*
X134880999Y-58514961D01*
X134828796Y-58560194D01*
X134808233Y-58569782D01*
X134619250Y-58702110D01*
X134619244Y-58702115D01*
X134456115Y-58865244D01*
X134456110Y-58865250D01*
X134323782Y-59054233D01*
X134314194Y-59074796D01*
X134267277Y-59128081D01*
X134198999Y-59147541D01*
X134131039Y-59126999D01*
X134085806Y-59074796D01*
X134076217Y-59054233D01*
X133943889Y-58865250D01*
X133943884Y-58865244D01*
X133780755Y-58702115D01*
X133780751Y-58702112D01*
X133777817Y-58700057D01*
X133591766Y-58569782D01*
X133571205Y-58560195D01*
X133517919Y-58513278D01*
X133498458Y-58445001D01*
X133518999Y-58377041D01*
X133571205Y-58331805D01*
X133591766Y-58322217D01*
X133591766Y-58322216D01*
X133591768Y-58322216D01*
X133780753Y-58189887D01*
X133943887Y-58026753D01*
X134076216Y-57837768D01*
X134085805Y-57817205D01*
X134132722Y-57763919D01*
X134200999Y-57744458D01*
X134268959Y-57764999D01*
G37*
G04 #@! TD.AperFunction*
G04 #@! TA.AperFunction,NonConductor*
G36*
X131728959Y-57764999D02*
G01*
X131774195Y-57817205D01*
X131783782Y-57837766D01*
X131823508Y-57894500D01*
X131916113Y-58026753D01*
X132079247Y-58189887D01*
X132079250Y-58189889D01*
X132268233Y-58322217D01*
X132288796Y-58331806D01*
X132342081Y-58378723D01*
X132361541Y-58447001D01*
X132340999Y-58514961D01*
X132288796Y-58560194D01*
X132268233Y-58569782D01*
X132079250Y-58702110D01*
X132079244Y-58702115D01*
X131916115Y-58865244D01*
X131916110Y-58865250D01*
X131783782Y-59054233D01*
X131774194Y-59074796D01*
X131727277Y-59128081D01*
X131658999Y-59147541D01*
X131591039Y-59126999D01*
X131545806Y-59074796D01*
X131536217Y-59054233D01*
X131403889Y-58865250D01*
X131403884Y-58865244D01*
X131240755Y-58702115D01*
X131240751Y-58702112D01*
X131237817Y-58700057D01*
X131051766Y-58569782D01*
X131031205Y-58560195D01*
X130977919Y-58513278D01*
X130958458Y-58445001D01*
X130978999Y-58377041D01*
X131031205Y-58331805D01*
X131051766Y-58322217D01*
X131051766Y-58322216D01*
X131051768Y-58322216D01*
X131240753Y-58189887D01*
X131403887Y-58026753D01*
X131536216Y-57837768D01*
X131545805Y-57817205D01*
X131592722Y-57763919D01*
X131660999Y-57744458D01*
X131728959Y-57764999D01*
G37*
G04 #@! TD.AperFunction*
G04 #@! TA.AperFunction,NonConductor*
G36*
X126648959Y-57764999D02*
G01*
X126694195Y-57817205D01*
X126703782Y-57837766D01*
X126743508Y-57894500D01*
X126836113Y-58026753D01*
X126999247Y-58189887D01*
X126999250Y-58189889D01*
X127188233Y-58322217D01*
X127208796Y-58331806D01*
X127262081Y-58378723D01*
X127281541Y-58447001D01*
X127260999Y-58514961D01*
X127208796Y-58560194D01*
X127188233Y-58569782D01*
X126999250Y-58702110D01*
X126999244Y-58702115D01*
X126836115Y-58865244D01*
X126836110Y-58865250D01*
X126703782Y-59054233D01*
X126694194Y-59074796D01*
X126647277Y-59128081D01*
X126578999Y-59147541D01*
X126511039Y-59126999D01*
X126465806Y-59074796D01*
X126456217Y-59054233D01*
X126323889Y-58865250D01*
X126323884Y-58865244D01*
X126160755Y-58702115D01*
X126160751Y-58702112D01*
X126157817Y-58700057D01*
X125971766Y-58569782D01*
X125951205Y-58560195D01*
X125897919Y-58513278D01*
X125878458Y-58445001D01*
X125898999Y-58377041D01*
X125951205Y-58331805D01*
X125971766Y-58322217D01*
X125971766Y-58322216D01*
X125971768Y-58322216D01*
X126160753Y-58189887D01*
X126323887Y-58026753D01*
X126456216Y-57837768D01*
X126465805Y-57817205D01*
X126512722Y-57763919D01*
X126580999Y-57744458D01*
X126648959Y-57764999D01*
G37*
G04 #@! TD.AperFunction*
G04 #@! TA.AperFunction,NonConductor*
G36*
X121196702Y-58198617D02*
G01*
X121221934Y-58218138D01*
X121703853Y-58700057D01*
X121713820Y-58712497D01*
X121714047Y-58712310D01*
X121719097Y-58718414D01*
X121719100Y-58718418D01*
X121723890Y-58722916D01*
X121759857Y-58784126D01*
X121757022Y-58855066D01*
X121740853Y-58887038D01*
X121623785Y-59054228D01*
X121623782Y-59054232D01*
X121614194Y-59074796D01*
X121567277Y-59128081D01*
X121498999Y-59147541D01*
X121431039Y-59126999D01*
X121385806Y-59074796D01*
X121376217Y-59054233D01*
X121243889Y-58865250D01*
X121243884Y-58865244D01*
X121080755Y-58702115D01*
X121080751Y-58702112D01*
X121077817Y-58700057D01*
X120891766Y-58569782D01*
X120871205Y-58560195D01*
X120817919Y-58513278D01*
X120798458Y-58445001D01*
X120818999Y-58377041D01*
X120871205Y-58331805D01*
X120891766Y-58322217D01*
X120891766Y-58322216D01*
X120891768Y-58322216D01*
X121060569Y-58204019D01*
X121127842Y-58181332D01*
X121196702Y-58198617D01*
G37*
G04 #@! TD.AperFunction*
G04 #@! TA.AperFunction,NonConductor*
G36*
X119028959Y-57764999D02*
G01*
X119074195Y-57817205D01*
X119083782Y-57837766D01*
X119123508Y-57894500D01*
X119216113Y-58026753D01*
X119379247Y-58189887D01*
X119379250Y-58189889D01*
X119568233Y-58322217D01*
X119588796Y-58331806D01*
X119642081Y-58378723D01*
X119661541Y-58447001D01*
X119640999Y-58514961D01*
X119588796Y-58560194D01*
X119568233Y-58569782D01*
X119379250Y-58702110D01*
X119379244Y-58702115D01*
X119216115Y-58865244D01*
X119216110Y-58865250D01*
X119083782Y-59054233D01*
X119074194Y-59074796D01*
X119027277Y-59128081D01*
X118958999Y-59147541D01*
X118891039Y-59126999D01*
X118845806Y-59074796D01*
X118836217Y-59054233D01*
X118703889Y-58865250D01*
X118703884Y-58865244D01*
X118540755Y-58702115D01*
X118540751Y-58702112D01*
X118537817Y-58700057D01*
X118351766Y-58569782D01*
X118331205Y-58560195D01*
X118277919Y-58513278D01*
X118258458Y-58445001D01*
X118278999Y-58377041D01*
X118331205Y-58331805D01*
X118351766Y-58322217D01*
X118351766Y-58322216D01*
X118351768Y-58322216D01*
X118540753Y-58189887D01*
X118703887Y-58026753D01*
X118836216Y-57837768D01*
X118845805Y-57817205D01*
X118892722Y-57763919D01*
X118960999Y-57744458D01*
X119028959Y-57764999D01*
G37*
G04 #@! TD.AperFunction*
G04 #@! TA.AperFunction,NonConductor*
G36*
X116488959Y-57764999D02*
G01*
X116534195Y-57817205D01*
X116543782Y-57837766D01*
X116583508Y-57894500D01*
X116676113Y-58026753D01*
X116839247Y-58189887D01*
X116839250Y-58189889D01*
X117028233Y-58322217D01*
X117048796Y-58331806D01*
X117102081Y-58378723D01*
X117121541Y-58447001D01*
X117100999Y-58514961D01*
X117048796Y-58560194D01*
X117028233Y-58569782D01*
X116839250Y-58702110D01*
X116839244Y-58702115D01*
X116676115Y-58865244D01*
X116676110Y-58865250D01*
X116543782Y-59054233D01*
X116534194Y-59074796D01*
X116487277Y-59128081D01*
X116418999Y-59147541D01*
X116351039Y-59126999D01*
X116305806Y-59074796D01*
X116296217Y-59054233D01*
X116163889Y-58865250D01*
X116163884Y-58865244D01*
X116000755Y-58702115D01*
X116000751Y-58702112D01*
X115997817Y-58700057D01*
X115811766Y-58569782D01*
X115791205Y-58560195D01*
X115737919Y-58513278D01*
X115718458Y-58445001D01*
X115738999Y-58377041D01*
X115791205Y-58331805D01*
X115811766Y-58322217D01*
X115811766Y-58322216D01*
X115811768Y-58322216D01*
X116000753Y-58189887D01*
X116163887Y-58026753D01*
X116296216Y-57837768D01*
X116305805Y-57817205D01*
X116352722Y-57763919D01*
X116420999Y-57744458D01*
X116488959Y-57764999D01*
G37*
G04 #@! TD.AperFunction*
G04 #@! TA.AperFunction,NonConductor*
G36*
X162208959Y-60304999D02*
G01*
X162254195Y-60357205D01*
X162263782Y-60377766D01*
X162396110Y-60566749D01*
X162396113Y-60566753D01*
X162559247Y-60729887D01*
X162559250Y-60729889D01*
X162748233Y-60862217D01*
X162768796Y-60871806D01*
X162822081Y-60918723D01*
X162841541Y-60987001D01*
X162820999Y-61054961D01*
X162768796Y-61100194D01*
X162748233Y-61109782D01*
X162559250Y-61242110D01*
X162559244Y-61242115D01*
X162396115Y-61405244D01*
X162396110Y-61405250D01*
X162263782Y-61594233D01*
X162254194Y-61614796D01*
X162207277Y-61668081D01*
X162138999Y-61687541D01*
X162071039Y-61666999D01*
X162025806Y-61614796D01*
X162016217Y-61594233D01*
X161883889Y-61405250D01*
X161883884Y-61405244D01*
X161720755Y-61242115D01*
X161720749Y-61242110D01*
X161531766Y-61109782D01*
X161511205Y-61100195D01*
X161457919Y-61053278D01*
X161438458Y-60985001D01*
X161458999Y-60917041D01*
X161511205Y-60871805D01*
X161531766Y-60862217D01*
X161531766Y-60862216D01*
X161531768Y-60862216D01*
X161720753Y-60729887D01*
X161883887Y-60566753D01*
X162016216Y-60377768D01*
X162025805Y-60357205D01*
X162072722Y-60303919D01*
X162140999Y-60284458D01*
X162208959Y-60304999D01*
G37*
G04 #@! TD.AperFunction*
G04 #@! TA.AperFunction,NonConductor*
G36*
X157128959Y-60304999D02*
G01*
X157174195Y-60357205D01*
X157183782Y-60377766D01*
X157316110Y-60566749D01*
X157316113Y-60566753D01*
X157479247Y-60729887D01*
X157479250Y-60729889D01*
X157668233Y-60862217D01*
X157688796Y-60871806D01*
X157742081Y-60918723D01*
X157761541Y-60987001D01*
X157740999Y-61054961D01*
X157688796Y-61100194D01*
X157668233Y-61109782D01*
X157479250Y-61242110D01*
X157479244Y-61242115D01*
X157316115Y-61405244D01*
X157316110Y-61405250D01*
X157183782Y-61594233D01*
X157174194Y-61614796D01*
X157127277Y-61668081D01*
X157058999Y-61687541D01*
X156991039Y-61666999D01*
X156945806Y-61614796D01*
X156936217Y-61594233D01*
X156803889Y-61405250D01*
X156803884Y-61405244D01*
X156640755Y-61242115D01*
X156640749Y-61242110D01*
X156451766Y-61109782D01*
X156431205Y-61100195D01*
X156377919Y-61053278D01*
X156358458Y-60985001D01*
X156378999Y-60917041D01*
X156431205Y-60871805D01*
X156451766Y-60862217D01*
X156451766Y-60862216D01*
X156451768Y-60862216D01*
X156640753Y-60729887D01*
X156803887Y-60566753D01*
X156936216Y-60377768D01*
X156945805Y-60357205D01*
X156992722Y-60303919D01*
X157060999Y-60284458D01*
X157128959Y-60304999D01*
G37*
G04 #@! TD.AperFunction*
G04 #@! TA.AperFunction,NonConductor*
G36*
X141888959Y-60304999D02*
G01*
X141934195Y-60357205D01*
X141943782Y-60377766D01*
X142076110Y-60566749D01*
X142076113Y-60566753D01*
X142239247Y-60729887D01*
X142239250Y-60729889D01*
X142428233Y-60862217D01*
X142448796Y-60871806D01*
X142502081Y-60918723D01*
X142521541Y-60987001D01*
X142500999Y-61054961D01*
X142448796Y-61100194D01*
X142428233Y-61109782D01*
X142239250Y-61242110D01*
X142239244Y-61242115D01*
X142076115Y-61405244D01*
X142076110Y-61405250D01*
X141943782Y-61594233D01*
X141934194Y-61614796D01*
X141887277Y-61668081D01*
X141818999Y-61687541D01*
X141751039Y-61666999D01*
X141705806Y-61614796D01*
X141696217Y-61594233D01*
X141563889Y-61405250D01*
X141563884Y-61405244D01*
X141400755Y-61242115D01*
X141400749Y-61242110D01*
X141211766Y-61109782D01*
X141191205Y-61100195D01*
X141137919Y-61053278D01*
X141118458Y-60985001D01*
X141138999Y-60917041D01*
X141191205Y-60871805D01*
X141211766Y-60862217D01*
X141211766Y-60862216D01*
X141211768Y-60862216D01*
X141400753Y-60729887D01*
X141563887Y-60566753D01*
X141696216Y-60377768D01*
X141705805Y-60357205D01*
X141752722Y-60303919D01*
X141820999Y-60284458D01*
X141888959Y-60304999D01*
G37*
G04 #@! TD.AperFunction*
G04 #@! TA.AperFunction,NonConductor*
G36*
X131728959Y-60304999D02*
G01*
X131774195Y-60357205D01*
X131783782Y-60377766D01*
X131916110Y-60566749D01*
X131916113Y-60566753D01*
X132079247Y-60729887D01*
X132079250Y-60729889D01*
X132268233Y-60862217D01*
X132288796Y-60871806D01*
X132342081Y-60918723D01*
X132361541Y-60987001D01*
X132340999Y-61054961D01*
X132288796Y-61100194D01*
X132268233Y-61109782D01*
X132079250Y-61242110D01*
X132079244Y-61242115D01*
X131916115Y-61405244D01*
X131916110Y-61405250D01*
X131783782Y-61594233D01*
X131774194Y-61614796D01*
X131727277Y-61668081D01*
X131658999Y-61687541D01*
X131591039Y-61666999D01*
X131545806Y-61614796D01*
X131536217Y-61594233D01*
X131403889Y-61405250D01*
X131403884Y-61405244D01*
X131240755Y-61242115D01*
X131240749Y-61242110D01*
X131051766Y-61109782D01*
X131031205Y-61100195D01*
X130977919Y-61053278D01*
X130958458Y-60985001D01*
X130978999Y-60917041D01*
X131031205Y-60871805D01*
X131051766Y-60862217D01*
X131051766Y-60862216D01*
X131051768Y-60862216D01*
X131240753Y-60729887D01*
X131403887Y-60566753D01*
X131536216Y-60377768D01*
X131545805Y-60357205D01*
X131592722Y-60303919D01*
X131660999Y-60284458D01*
X131728959Y-60304999D01*
G37*
G04 #@! TD.AperFunction*
G04 #@! TA.AperFunction,NonConductor*
G36*
X119028959Y-60304999D02*
G01*
X119074195Y-60357205D01*
X119083782Y-60377766D01*
X119216110Y-60566749D01*
X119216113Y-60566753D01*
X119379247Y-60729887D01*
X119379250Y-60729889D01*
X119568233Y-60862217D01*
X119588796Y-60871806D01*
X119642081Y-60918723D01*
X119661541Y-60987001D01*
X119640999Y-61054961D01*
X119588796Y-61100194D01*
X119568233Y-61109782D01*
X119379250Y-61242110D01*
X119379244Y-61242115D01*
X119216115Y-61405244D01*
X119216110Y-61405250D01*
X119083782Y-61594233D01*
X119074194Y-61614796D01*
X119027277Y-61668081D01*
X118958999Y-61687541D01*
X118891039Y-61666999D01*
X118845806Y-61614796D01*
X118836217Y-61594233D01*
X118703889Y-61405250D01*
X118703884Y-61405244D01*
X118540755Y-61242115D01*
X118540749Y-61242110D01*
X118351766Y-61109782D01*
X118331205Y-61100195D01*
X118277919Y-61053278D01*
X118258458Y-60985001D01*
X118278999Y-60917041D01*
X118331205Y-60871805D01*
X118351766Y-60862217D01*
X118351766Y-60862216D01*
X118351768Y-60862216D01*
X118540753Y-60729887D01*
X118703887Y-60566753D01*
X118836216Y-60377768D01*
X118845805Y-60357205D01*
X118892722Y-60303919D01*
X118960999Y-60284458D01*
X119028959Y-60304999D01*
G37*
G04 #@! TD.AperFunction*
G04 #@! TA.AperFunction,NonConductor*
G36*
X116488959Y-60304999D02*
G01*
X116534195Y-60357205D01*
X116543782Y-60377766D01*
X116676110Y-60566749D01*
X116676113Y-60566753D01*
X116839247Y-60729887D01*
X116839250Y-60729889D01*
X117028233Y-60862217D01*
X117048796Y-60871806D01*
X117102081Y-60918723D01*
X117121541Y-60987001D01*
X117100999Y-61054961D01*
X117048796Y-61100194D01*
X117028233Y-61109782D01*
X116839250Y-61242110D01*
X116839244Y-61242115D01*
X116676115Y-61405244D01*
X116676110Y-61405250D01*
X116543782Y-61594233D01*
X116534194Y-61614796D01*
X116487277Y-61668081D01*
X116418999Y-61687541D01*
X116351039Y-61666999D01*
X116305806Y-61614796D01*
X116296217Y-61594233D01*
X116163889Y-61405250D01*
X116163884Y-61405244D01*
X116000755Y-61242115D01*
X116000749Y-61242110D01*
X115811766Y-61109782D01*
X115791205Y-61100195D01*
X115737919Y-61053278D01*
X115718458Y-60985001D01*
X115738999Y-60917041D01*
X115791205Y-60871805D01*
X115811766Y-60862217D01*
X115811766Y-60862216D01*
X115811768Y-60862216D01*
X116000753Y-60729887D01*
X116163887Y-60566753D01*
X116296216Y-60377768D01*
X116305805Y-60357205D01*
X116352722Y-60303919D01*
X116420999Y-60284458D01*
X116488959Y-60304999D01*
G37*
G04 #@! TD.AperFunction*
G04 #@! TA.AperFunction,NonConductor*
G36*
X174162254Y-63515902D02*
G01*
X174201110Y-63575322D01*
X174206500Y-63611779D01*
X174206500Y-64037004D01*
X174186498Y-64105125D01*
X174169595Y-64126099D01*
X173048381Y-65247313D01*
X172986069Y-65281339D01*
X172915254Y-65276274D01*
X172858418Y-65233727D01*
X172833607Y-65167207D01*
X172847395Y-65103821D01*
X172846464Y-65103419D01*
X172848512Y-65098684D01*
X172848698Y-65097833D01*
X172849464Y-65096485D01*
X172868347Y-65052848D01*
X172870961Y-65047512D01*
X172887971Y-65016571D01*
X172893695Y-65006160D01*
X172898733Y-64986535D01*
X172905138Y-64967830D01*
X172913181Y-64949245D01*
X172920561Y-64902647D01*
X172921762Y-64896840D01*
X172933500Y-64851130D01*
X172933500Y-64830875D01*
X172935051Y-64811163D01*
X172936083Y-64804647D01*
X172938220Y-64791157D01*
X172934805Y-64755027D01*
X172933780Y-64744180D01*
X172933500Y-64738248D01*
X172933500Y-63611779D01*
X172953502Y-63543658D01*
X173007158Y-63497165D01*
X173077432Y-63487061D01*
X173112751Y-63497585D01*
X173115573Y-63498900D01*
X173117324Y-63499717D01*
X173340170Y-63559429D01*
X173570000Y-63579536D01*
X173799830Y-63559429D01*
X174022676Y-63499717D01*
X174025549Y-63498377D01*
X174027249Y-63497585D01*
X174097441Y-63486923D01*
X174162254Y-63515902D01*
G37*
G04 #@! TD.AperFunction*
G04 #@! TA.AperFunction,NonConductor*
G36*
X170459146Y-63444609D02*
G01*
X170577324Y-63499717D01*
X170800170Y-63559429D01*
X171030000Y-63579536D01*
X171259830Y-63559429D01*
X171482676Y-63499717D01*
X171485549Y-63498377D01*
X171487249Y-63497585D01*
X171557441Y-63486923D01*
X171622254Y-63515902D01*
X171661110Y-63575322D01*
X171666500Y-63611779D01*
X171666500Y-64456505D01*
X171646498Y-64524626D01*
X171629595Y-64545600D01*
X171342000Y-64833195D01*
X171279688Y-64867221D01*
X171252905Y-64870100D01*
X171197013Y-64870100D01*
X171010211Y-64909806D01*
X170835747Y-64987482D01*
X170681244Y-65099735D01*
X170553465Y-65241648D01*
X170553458Y-65241658D01*
X170457976Y-65407038D01*
X170457973Y-65407044D01*
X170447133Y-65440406D01*
X170398957Y-65588672D01*
X170383831Y-65732596D01*
X170356818Y-65798253D01*
X170298596Y-65838883D01*
X170227651Y-65841586D01*
X170169426Y-65808521D01*
X169840430Y-65479525D01*
X169806404Y-65417213D01*
X169811469Y-65346398D01*
X169854016Y-65289562D01*
X169855329Y-65288592D01*
X169916753Y-65243966D01*
X169922396Y-65237699D01*
X170044534Y-65102051D01*
X170044535Y-65102049D01*
X170044540Y-65102044D01*
X170140027Y-64936656D01*
X170199042Y-64755028D01*
X170219004Y-64565100D01*
X170217177Y-64547722D01*
X170229948Y-64477887D01*
X170232054Y-64473884D01*
X170240095Y-64459260D01*
X170245133Y-64439635D01*
X170251538Y-64420930D01*
X170259581Y-64402345D01*
X170266963Y-64355725D01*
X170268161Y-64349944D01*
X170279900Y-64304230D01*
X170279900Y-64283969D01*
X170281451Y-64264258D01*
X170284619Y-64244256D01*
X170280180Y-64197289D01*
X170279900Y-64191357D01*
X170279900Y-63558806D01*
X170299902Y-63490685D01*
X170353558Y-63444192D01*
X170423832Y-63434088D01*
X170459146Y-63444609D01*
G37*
G04 #@! TD.AperFunction*
G04 #@! TA.AperFunction,NonConductor*
G36*
X162208959Y-62844999D02*
G01*
X162254195Y-62897205D01*
X162263782Y-62917766D01*
X162396110Y-63106749D01*
X162396113Y-63106753D01*
X162559247Y-63269887D01*
X162559250Y-63269889D01*
X162722771Y-63384388D01*
X162767099Y-63439845D01*
X162776500Y-63487601D01*
X162776500Y-63534405D01*
X162756498Y-63602526D01*
X162739595Y-63623500D01*
X160448595Y-65914500D01*
X160386283Y-65948526D01*
X160315468Y-65943461D01*
X160258632Y-65900914D01*
X160233821Y-65834394D01*
X160233500Y-65825405D01*
X160233500Y-63611779D01*
X160253502Y-63543658D01*
X160307158Y-63497165D01*
X160377432Y-63487061D01*
X160412751Y-63497585D01*
X160415573Y-63498900D01*
X160417324Y-63499717D01*
X160640170Y-63559429D01*
X160870000Y-63579536D01*
X161099830Y-63559429D01*
X161322676Y-63499717D01*
X161531768Y-63402216D01*
X161720753Y-63269887D01*
X161883887Y-63106753D01*
X162016216Y-62917768D01*
X162025805Y-62897205D01*
X162072722Y-62843919D01*
X162140999Y-62824458D01*
X162208959Y-62844999D01*
G37*
G04 #@! TD.AperFunction*
G04 #@! TA.AperFunction,NonConductor*
G36*
X176702254Y-63515902D02*
G01*
X176741110Y-63575322D01*
X176746500Y-63611779D01*
X176746500Y-64358505D01*
X176726498Y-64426626D01*
X176709595Y-64447600D01*
X173321400Y-67835795D01*
X173259088Y-67869821D01*
X173232305Y-67872700D01*
X173176413Y-67872700D01*
X172989611Y-67912406D01*
X172815146Y-67990083D01*
X172815142Y-67990085D01*
X172812278Y-67992166D01*
X172810344Y-67992855D01*
X172809431Y-67993383D01*
X172809334Y-67993215D01*
X172745407Y-68016017D01*
X172676258Y-67999929D01*
X172626783Y-67949010D01*
X172612691Y-67879426D01*
X172629106Y-67827227D01*
X172709227Y-67688456D01*
X172768242Y-67506828D01*
X172785607Y-67341603D01*
X172812620Y-67275948D01*
X172821813Y-67265689D01*
X175228657Y-64858845D01*
X175241092Y-64848884D01*
X175240905Y-64848657D01*
X175247009Y-64843605D01*
X175247018Y-64843600D01*
X175294999Y-64792504D01*
X175316134Y-64771370D01*
X175320429Y-64765832D01*
X175324271Y-64761331D01*
X175356586Y-64726921D01*
X175366345Y-64709167D01*
X175377197Y-64692646D01*
X175389613Y-64676641D01*
X175406821Y-64636874D01*
X175408347Y-64633348D01*
X175410961Y-64628012D01*
X175424998Y-64602479D01*
X175433695Y-64586660D01*
X175438733Y-64567035D01*
X175445138Y-64548330D01*
X175453181Y-64529745D01*
X175460563Y-64483125D01*
X175461761Y-64477344D01*
X175473500Y-64431630D01*
X175473500Y-64411369D01*
X175475051Y-64391658D01*
X175478219Y-64371656D01*
X175473780Y-64324689D01*
X175473500Y-64318757D01*
X175473500Y-63611779D01*
X175493502Y-63543658D01*
X175547158Y-63497165D01*
X175617432Y-63487061D01*
X175652751Y-63497585D01*
X175655573Y-63498900D01*
X175657324Y-63499717D01*
X175880170Y-63559429D01*
X176110000Y-63579536D01*
X176339830Y-63559429D01*
X176562676Y-63499717D01*
X176565549Y-63498377D01*
X176567249Y-63497585D01*
X176637441Y-63486923D01*
X176702254Y-63515902D01*
G37*
G04 #@! TD.AperFunction*
G04 #@! TA.AperFunction,NonConductor*
G36*
X157128959Y-62844999D02*
G01*
X157174195Y-62897205D01*
X157183782Y-62917766D01*
X157316110Y-63106749D01*
X157316113Y-63106753D01*
X157479247Y-63269887D01*
X157668232Y-63402216D01*
X157877324Y-63499717D01*
X158100170Y-63559429D01*
X158330000Y-63579536D01*
X158559830Y-63559429D01*
X158782676Y-63499717D01*
X158785549Y-63498377D01*
X158787249Y-63497585D01*
X158857441Y-63486923D01*
X158922254Y-63515902D01*
X158961110Y-63575322D01*
X158966500Y-63611779D01*
X158966500Y-66256605D01*
X158946498Y-66324726D01*
X158929595Y-66345700D01*
X157115342Y-68159952D01*
X157053030Y-68193978D01*
X156982214Y-68188913D01*
X156925379Y-68146366D01*
X156916323Y-68130935D01*
X156915929Y-68131163D01*
X156836284Y-67993215D01*
X156817140Y-67960056D01*
X156817138Y-67960054D01*
X156817134Y-67960048D01*
X156689355Y-67818135D01*
X156534852Y-67705882D01*
X156360388Y-67628206D01*
X156173587Y-67588500D01*
X156117695Y-67588500D01*
X156049574Y-67568498D01*
X156028600Y-67551595D01*
X155641011Y-67164006D01*
X155606985Y-67101694D01*
X155612050Y-67030879D01*
X155636470Y-66990600D01*
X155638749Y-66988068D01*
X155638753Y-66988066D01*
X155766540Y-66846144D01*
X155862027Y-66680756D01*
X155921042Y-66499128D01*
X155941004Y-66309200D01*
X155921042Y-66119272D01*
X155862027Y-65937644D01*
X155766540Y-65772256D01*
X155766538Y-65772254D01*
X155766534Y-65772248D01*
X155638755Y-65630335D01*
X155484252Y-65518082D01*
X155309788Y-65440406D01*
X155122987Y-65400700D01*
X155000600Y-65400700D01*
X154932479Y-65380698D01*
X154885986Y-65327042D01*
X154874600Y-65274700D01*
X154874600Y-64183594D01*
X154894602Y-64115473D01*
X154911506Y-64094496D01*
X154916735Y-64089269D01*
X154921037Y-64083721D01*
X154924867Y-64079235D01*
X154957186Y-64044821D01*
X154966945Y-64027067D01*
X154977804Y-64010538D01*
X154990214Y-63994540D01*
X155008954Y-63951232D01*
X155011565Y-63945904D01*
X155034294Y-63904561D01*
X155034295Y-63904560D01*
X155039333Y-63884935D01*
X155045738Y-63866230D01*
X155052389Y-63850861D01*
X155053781Y-63847645D01*
X155061161Y-63801047D01*
X155062362Y-63795240D01*
X155074100Y-63749530D01*
X155074100Y-63729275D01*
X155075651Y-63709563D01*
X155078820Y-63689557D01*
X155076229Y-63662151D01*
X155074380Y-63642580D01*
X155074100Y-63636648D01*
X155074100Y-63574754D01*
X155094102Y-63506633D01*
X155147758Y-63460140D01*
X155218032Y-63450036D01*
X155253347Y-63460558D01*
X155337324Y-63499717D01*
X155560170Y-63559429D01*
X155790000Y-63579536D01*
X156019830Y-63559429D01*
X156242676Y-63499717D01*
X156451768Y-63402216D01*
X156640753Y-63269887D01*
X156803887Y-63106753D01*
X156936216Y-62917768D01*
X156945805Y-62897205D01*
X156992722Y-62843919D01*
X157060999Y-62824458D01*
X157128959Y-62844999D01*
G37*
G04 #@! TD.AperFunction*
G04 #@! TA.AperFunction,NonConductor*
G36*
X152713347Y-63460558D02*
G01*
X152797324Y-63499717D01*
X153020170Y-63559429D01*
X153250000Y-63579536D01*
X153479830Y-63559429D01*
X153479832Y-63559428D01*
X153485311Y-63558949D01*
X153485412Y-63560114D01*
X153550167Y-63567326D01*
X153605278Y-63612085D01*
X153627441Y-63679533D01*
X153625953Y-63703264D01*
X153620537Y-63737455D01*
X153619333Y-63743268D01*
X153607600Y-63788968D01*
X153607600Y-63809223D01*
X153606049Y-63828933D01*
X153602880Y-63848942D01*
X153602880Y-63848943D01*
X153607320Y-63895917D01*
X153607600Y-63901850D01*
X153607600Y-66576146D01*
X153605851Y-66591988D01*
X153606144Y-66592016D01*
X153605398Y-66599907D01*
X153605398Y-66599909D01*
X153607290Y-66660081D01*
X153607600Y-66669957D01*
X153607600Y-66699851D01*
X153607601Y-66699872D01*
X153608478Y-66706820D01*
X153608944Y-66712732D01*
X153610426Y-66759888D01*
X153610427Y-66759893D01*
X153616077Y-66779339D01*
X153620086Y-66798697D01*
X153622625Y-66818793D01*
X153622626Y-66818799D01*
X153639993Y-66862662D01*
X153641916Y-66868279D01*
X153655082Y-66913593D01*
X153665394Y-66931031D01*
X153674088Y-66948779D01*
X153681544Y-66967609D01*
X153681550Y-66967620D01*
X153709277Y-67005783D01*
X153712537Y-67010746D01*
X153736560Y-67051365D01*
X153750879Y-67065684D01*
X153763717Y-67080714D01*
X153771269Y-67091107D01*
X153775628Y-67097107D01*
X153781173Y-67101694D01*
X153811986Y-67127185D01*
X153816367Y-67131171D01*
X154474934Y-67789738D01*
X155130977Y-68445781D01*
X155165003Y-68508093D01*
X155167192Y-68521705D01*
X155184557Y-68686927D01*
X155201883Y-68740248D01*
X155243573Y-68868556D01*
X155243576Y-68868561D01*
X155339058Y-69033941D01*
X155339065Y-69033951D01*
X155466844Y-69175864D01*
X155466847Y-69175866D01*
X155621348Y-69288118D01*
X155706995Y-69326250D01*
X155761091Y-69372230D01*
X155781741Y-69440157D01*
X155762389Y-69508465D01*
X155744842Y-69530452D01*
X152395995Y-72879300D01*
X152333683Y-72913326D01*
X152262868Y-72908261D01*
X152206032Y-72865714D01*
X152181221Y-72799194D01*
X152180900Y-72790205D01*
X152180900Y-65326794D01*
X152200902Y-65258673D01*
X152217801Y-65237702D01*
X152289259Y-65166243D01*
X152301693Y-65156284D01*
X152301505Y-65156057D01*
X152307609Y-65151005D01*
X152307618Y-65151000D01*
X152355599Y-65099904D01*
X152376734Y-65078770D01*
X152381029Y-65073232D01*
X152384871Y-65068731D01*
X152417186Y-65034321D01*
X152426945Y-65016567D01*
X152437797Y-65000046D01*
X152450213Y-64984041D01*
X152468947Y-64940748D01*
X152471561Y-64935412D01*
X152489574Y-64902647D01*
X152494295Y-64894060D01*
X152499333Y-64874435D01*
X152505738Y-64855730D01*
X152507679Y-64851245D01*
X152513781Y-64837145D01*
X152521161Y-64790547D01*
X152522362Y-64784740D01*
X152534100Y-64739030D01*
X152534100Y-64718775D01*
X152535651Y-64699063D01*
X152536365Y-64694556D01*
X152538820Y-64679057D01*
X152535152Y-64640248D01*
X152534380Y-64632080D01*
X152534100Y-64626148D01*
X152534100Y-63574754D01*
X152554102Y-63506633D01*
X152607758Y-63460140D01*
X152678032Y-63450036D01*
X152713347Y-63460558D01*
G37*
G04 #@! TD.AperFunction*
G04 #@! TA.AperFunction,NonConductor*
G36*
X122312751Y-63497585D02*
G01*
X122315573Y-63498900D01*
X122317324Y-63499717D01*
X122540170Y-63559429D01*
X122770000Y-63579536D01*
X122999830Y-63559429D01*
X123113290Y-63529027D01*
X123184265Y-63530717D01*
X123243061Y-63570511D01*
X123271009Y-63635775D01*
X123271900Y-63650734D01*
X123271900Y-68530071D01*
X123251898Y-68598192D01*
X123198242Y-68644685D01*
X123172101Y-68653317D01*
X123145813Y-68658905D01*
X122971347Y-68736582D01*
X122816844Y-68848835D01*
X122689065Y-68990748D01*
X122689058Y-68990758D01*
X122593576Y-69156138D01*
X122593573Y-69156145D01*
X122534557Y-69337772D01*
X122514596Y-69527700D01*
X122534557Y-69717627D01*
X122564626Y-69810170D01*
X122593573Y-69899256D01*
X122593576Y-69899261D01*
X122689058Y-70064641D01*
X122689065Y-70064651D01*
X122816844Y-70206564D01*
X122816847Y-70206566D01*
X122971348Y-70318818D01*
X123145812Y-70396494D01*
X123332613Y-70436200D01*
X123523587Y-70436200D01*
X123710388Y-70396494D01*
X123884852Y-70318818D01*
X124039353Y-70206566D01*
X124070571Y-70171895D01*
X124167134Y-70064651D01*
X124167135Y-70064649D01*
X124167140Y-70064644D01*
X124262627Y-69899256D01*
X124321642Y-69717628D01*
X124339007Y-69552404D01*
X124366018Y-69486751D01*
X124375215Y-69476488D01*
X124381534Y-69470170D01*
X124385836Y-69464622D01*
X124389666Y-69460136D01*
X124421986Y-69425721D01*
X124431748Y-69407963D01*
X124442601Y-69391442D01*
X124448161Y-69384275D01*
X124450949Y-69380682D01*
X124508510Y-69339122D01*
X124579402Y-69335279D01*
X124641119Y-69370373D01*
X124674064Y-69433263D01*
X124676500Y-69457919D01*
X124676500Y-71482804D01*
X124656498Y-71550925D01*
X124639595Y-71571899D01*
X122949069Y-73262424D01*
X122886757Y-73296450D01*
X122815941Y-73291385D01*
X122766338Y-73257639D01*
X122722756Y-73209236D01*
X122705904Y-73196992D01*
X122662551Y-73140768D01*
X122656477Y-73070032D01*
X122689610Y-73007241D01*
X122705908Y-72993119D01*
X122713553Y-72987566D01*
X122715056Y-72985897D01*
X122841334Y-72845651D01*
X122841335Y-72845649D01*
X122841340Y-72845644D01*
X122936827Y-72680256D01*
X122995842Y-72498628D01*
X123015804Y-72308700D01*
X122995842Y-72118772D01*
X122936827Y-71937144D01*
X122841340Y-71771756D01*
X122841338Y-71771754D01*
X122841334Y-71771748D01*
X122713555Y-71629835D01*
X122559052Y-71517582D01*
X122384588Y-71439906D01*
X122233303Y-71407749D01*
X122170829Y-71374020D01*
X122136508Y-71311871D01*
X122133500Y-71284502D01*
X122133500Y-63611779D01*
X122153502Y-63543658D01*
X122207158Y-63497165D01*
X122277432Y-63487061D01*
X122312751Y-63497585D01*
G37*
G04 #@! TD.AperFunction*
G04 #@! TA.AperFunction,NonConductor*
G36*
X121436707Y-72948562D02*
G01*
X121486309Y-72982305D01*
X121491046Y-72987566D01*
X121507894Y-72999807D01*
X121551248Y-73056030D01*
X121557322Y-73126766D01*
X121524189Y-73189557D01*
X121507896Y-73203676D01*
X121500244Y-73209235D01*
X121372465Y-73351148D01*
X121372458Y-73351158D01*
X121276976Y-73516538D01*
X121276973Y-73516545D01*
X121217957Y-73698172D01*
X121197996Y-73888100D01*
X121217957Y-74078027D01*
X121241066Y-74149148D01*
X121276973Y-74259656D01*
X121276976Y-74259661D01*
X121372458Y-74425041D01*
X121372461Y-74425045D01*
X121488599Y-74554030D01*
X121519316Y-74618038D01*
X121510551Y-74688491D01*
X121484058Y-74727435D01*
X121022857Y-75188637D01*
X120960544Y-75222662D01*
X120889729Y-75217598D01*
X120832893Y-75175051D01*
X120808451Y-75112711D01*
X120801542Y-75046972D01*
X120765434Y-74935845D01*
X120742527Y-74865344D01*
X120647040Y-74699956D01*
X120647038Y-74699954D01*
X120647034Y-74699948D01*
X120519255Y-74558035D01*
X120364752Y-74445782D01*
X120190284Y-74368104D01*
X120188585Y-74367743D01*
X120187697Y-74367263D01*
X120184008Y-74366065D01*
X120184227Y-74365389D01*
X120126115Y-74334008D01*
X120091801Y-74271855D01*
X120096536Y-74201017D01*
X120125698Y-74155406D01*
X121303582Y-72977521D01*
X121365892Y-72943498D01*
X121436707Y-72948562D01*
G37*
G04 #@! TD.AperFunction*
G04 #@! TA.AperFunction,NonConductor*
G36*
X145172740Y-63497580D02*
G01*
X145175640Y-63498932D01*
X145228929Y-63545844D01*
X145248400Y-63613131D01*
X145248400Y-76490200D01*
X145228398Y-76558321D01*
X145174742Y-76604814D01*
X145122400Y-76616200D01*
X145119500Y-76616200D01*
X145051379Y-76596198D01*
X145004886Y-76542542D01*
X144993500Y-76490200D01*
X144993500Y-63611779D01*
X145013502Y-63543658D01*
X145067158Y-63497165D01*
X145137432Y-63487061D01*
X145172740Y-63497580D01*
G37*
G04 #@! TD.AperFunction*
G04 #@! TA.AperFunction,NonConductor*
G36*
X125860799Y-72243883D02*
G01*
X125918944Y-72284622D01*
X125945834Y-72350330D01*
X125946500Y-72363265D01*
X125946500Y-72387104D01*
X125926498Y-72455225D01*
X125909595Y-72476199D01*
X121556594Y-76829199D01*
X121494282Y-76863225D01*
X121423466Y-76858160D01*
X121366631Y-76815613D01*
X121343412Y-76756391D01*
X121343216Y-76756433D01*
X121342963Y-76755245D01*
X121342189Y-76753270D01*
X121341842Y-76749971D01*
X121341842Y-76749970D01*
X121330480Y-76715003D01*
X121328451Y-76644035D01*
X121365112Y-76583237D01*
X121386244Y-76567570D01*
X121387107Y-76567060D01*
X121404780Y-76558409D01*
X121423617Y-76550952D01*
X121461786Y-76523218D01*
X121466744Y-76519962D01*
X121507362Y-76495942D01*
X121521685Y-76481618D01*
X121536724Y-76468774D01*
X121553107Y-76456872D01*
X121583193Y-76420503D01*
X121587161Y-76416141D01*
X125698657Y-72304645D01*
X125711092Y-72294684D01*
X125710905Y-72294457D01*
X125717011Y-72289403D01*
X125717018Y-72289400D01*
X125728648Y-72277015D01*
X125789859Y-72241047D01*
X125860799Y-72243883D01*
G37*
G04 #@! TD.AperFunction*
G04 #@! TA.AperFunction,NonConductor*
G36*
X136062254Y-63515902D02*
G01*
X136101110Y-63575322D01*
X136106500Y-63611779D01*
X136106500Y-65877446D01*
X136104751Y-65893288D01*
X136105044Y-65893316D01*
X136104298Y-65901207D01*
X136106500Y-65971257D01*
X136106500Y-66001151D01*
X136106501Y-66001172D01*
X136107378Y-66008120D01*
X136107844Y-66014032D01*
X136109326Y-66061188D01*
X136109327Y-66061193D01*
X136114977Y-66080639D01*
X136118986Y-66099997D01*
X136121525Y-66120093D01*
X136121526Y-66120099D01*
X136138893Y-66163962D01*
X136140816Y-66169579D01*
X136153982Y-66214893D01*
X136164294Y-66232331D01*
X136172988Y-66250079D01*
X136180444Y-66268909D01*
X136180450Y-66268920D01*
X136208177Y-66307083D01*
X136211437Y-66312046D01*
X136235460Y-66352665D01*
X136249779Y-66366984D01*
X136262617Y-66382014D01*
X136269579Y-66391595D01*
X136274528Y-66398407D01*
X136302794Y-66421791D01*
X136310886Y-66428485D01*
X136315267Y-66432471D01*
X136512224Y-66629428D01*
X136674895Y-66792099D01*
X136708921Y-66854411D01*
X136711800Y-66881194D01*
X136711800Y-68590665D01*
X136691798Y-68658786D01*
X136638142Y-68705279D01*
X136567868Y-68715383D01*
X136534551Y-68705772D01*
X136492224Y-68686927D01*
X136429288Y-68658906D01*
X136242487Y-68619200D01*
X136051513Y-68619200D01*
X135864711Y-68658906D01*
X135690247Y-68736582D01*
X135535744Y-68848835D01*
X135407965Y-68990748D01*
X135407958Y-68990758D01*
X135312476Y-69156138D01*
X135312473Y-69156145D01*
X135253457Y-69337772D01*
X135233496Y-69527700D01*
X135253457Y-69717627D01*
X135283526Y-69810170D01*
X135312473Y-69899256D01*
X135312476Y-69899261D01*
X135407958Y-70064641D01*
X135407965Y-70064651D01*
X135535744Y-70206564D01*
X135535747Y-70206566D01*
X135690248Y-70318818D01*
X135864712Y-70396494D01*
X136051513Y-70436200D01*
X136242487Y-70436200D01*
X136429288Y-70396494D01*
X136534551Y-70349627D01*
X136604917Y-70340193D01*
X136669215Y-70370299D01*
X136707028Y-70430387D01*
X136711800Y-70464734D01*
X136711800Y-72258774D01*
X136691798Y-72326895D01*
X136679437Y-72343084D01*
X136606257Y-72424359D01*
X136510776Y-72589738D01*
X136510773Y-72589745D01*
X136451757Y-72771372D01*
X136431796Y-72961300D01*
X136451757Y-73151227D01*
X136470605Y-73209234D01*
X136510773Y-73332856D01*
X136510776Y-73332861D01*
X136606258Y-73498241D01*
X136606265Y-73498251D01*
X136734044Y-73640164D01*
X136734047Y-73640166D01*
X136888548Y-73752418D01*
X137063012Y-73830094D01*
X137249813Y-73869800D01*
X137352900Y-73869800D01*
X137421021Y-73889802D01*
X137467514Y-73943458D01*
X137478900Y-73995800D01*
X137478900Y-75895504D01*
X137458898Y-75963625D01*
X137441995Y-75984599D01*
X135046055Y-78380538D01*
X134983743Y-78414564D01*
X134912927Y-78409499D01*
X134856092Y-78366952D01*
X134831650Y-78304616D01*
X134828957Y-78278993D01*
X134832227Y-78234485D01*
X134833500Y-78229530D01*
X134833500Y-78209275D01*
X134835051Y-78189563D01*
X134838220Y-78169557D01*
X134834568Y-78130918D01*
X134833780Y-78122580D01*
X134833500Y-78116648D01*
X134833500Y-63611779D01*
X134853502Y-63543658D01*
X134907158Y-63497165D01*
X134977432Y-63487061D01*
X135012751Y-63497585D01*
X135015573Y-63498900D01*
X135017324Y-63499717D01*
X135240170Y-63559429D01*
X135470000Y-63579536D01*
X135699830Y-63559429D01*
X135922676Y-63499717D01*
X135925549Y-63498377D01*
X135927249Y-63497585D01*
X135997441Y-63486923D01*
X136062254Y-63515902D01*
G37*
G04 #@! TD.AperFunction*
G04 #@! TA.AperFunction,NonConductor*
G36*
X141888959Y-62844999D02*
G01*
X141934195Y-62897205D01*
X141943782Y-62917766D01*
X142076110Y-63106749D01*
X142076113Y-63106753D01*
X142239247Y-63269887D01*
X142239250Y-63269889D01*
X142402771Y-63384388D01*
X142447099Y-63439845D01*
X142456500Y-63487601D01*
X142456500Y-77572005D01*
X142436498Y-77640126D01*
X142419595Y-77661100D01*
X141655695Y-78425000D01*
X141593383Y-78459026D01*
X141522568Y-78453961D01*
X141465732Y-78411414D01*
X141440921Y-78344894D01*
X141440600Y-78335905D01*
X141440600Y-68264954D01*
X141442349Y-68249112D01*
X141442056Y-68249085D01*
X141442800Y-68241199D01*
X141442802Y-68241192D01*
X141440600Y-68171128D01*
X141440600Y-68141244D01*
X141439720Y-68134282D01*
X141439256Y-68128393D01*
X141437774Y-68081211D01*
X141432120Y-68061752D01*
X141428112Y-68042397D01*
X141425574Y-68022303D01*
X141408203Y-67978429D01*
X141406289Y-67972840D01*
X141393119Y-67927507D01*
X141382803Y-67910064D01*
X141374105Y-67892309D01*
X141366652Y-67873483D01*
X141338918Y-67835310D01*
X141335658Y-67830347D01*
X141311642Y-67789738D01*
X141297314Y-67775410D01*
X141284484Y-67760389D01*
X141272572Y-67743993D01*
X141272569Y-67743991D01*
X141272569Y-67743990D01*
X141236207Y-67713908D01*
X141231826Y-67709922D01*
X139950405Y-66428500D01*
X139916379Y-66366188D01*
X139913500Y-66339405D01*
X139913500Y-63611779D01*
X139933502Y-63543658D01*
X139987158Y-63497165D01*
X140057432Y-63487061D01*
X140092751Y-63497585D01*
X140095573Y-63498900D01*
X140097324Y-63499717D01*
X140320170Y-63559429D01*
X140550000Y-63579536D01*
X140779830Y-63559429D01*
X141002676Y-63499717D01*
X141211768Y-63402216D01*
X141400753Y-63269887D01*
X141563887Y-63106753D01*
X141696216Y-62917768D01*
X141705805Y-62897205D01*
X141752722Y-62843919D01*
X141820999Y-62824458D01*
X141888959Y-62844999D01*
G37*
G04 #@! TD.AperFunction*
G04 #@! TA.AperFunction,NonConductor*
G36*
X118962911Y-75422357D02*
G01*
X119019747Y-75464904D01*
X119038712Y-75501475D01*
X119073473Y-75608456D01*
X119101841Y-75657591D01*
X119168958Y-75773841D01*
X119168965Y-75773851D01*
X119296744Y-75915764D01*
X119299677Y-75918405D01*
X119300879Y-75920356D01*
X119301165Y-75920674D01*
X119301106Y-75920726D01*
X119336915Y-75978852D01*
X119335561Y-76049835D01*
X119304459Y-76101134D01*
X114348548Y-81057045D01*
X114286236Y-81091071D01*
X114215421Y-81086006D01*
X114165817Y-81052261D01*
X114133964Y-81016885D01*
X114103247Y-80952877D01*
X114101600Y-80932574D01*
X114101600Y-80231693D01*
X114121602Y-80163572D01*
X114138500Y-80142603D01*
X118829786Y-75451316D01*
X118892096Y-75417292D01*
X118962911Y-75422357D01*
G37*
G04 #@! TD.AperFunction*
G04 #@! TA.AperFunction,NonConductor*
G36*
X180139312Y-77570670D02*
G01*
X180145895Y-77576799D01*
X180218095Y-77648999D01*
X180252121Y-77711311D01*
X180255000Y-77738094D01*
X180255000Y-81198261D01*
X180234998Y-81266382D01*
X180181342Y-81312875D01*
X180111068Y-81322979D01*
X180046488Y-81293485D01*
X180035363Y-81282571D01*
X179963163Y-81202384D01*
X179932446Y-81138376D01*
X179930800Y-81118074D01*
X179930800Y-77665894D01*
X179950802Y-77597773D01*
X180004458Y-77551280D01*
X180074732Y-77541176D01*
X180139312Y-77570670D01*
G37*
G04 #@! TD.AperFunction*
G04 #@! TA.AperFunction,NonConductor*
G36*
X166792012Y-65123070D02*
G01*
X166798595Y-65129199D01*
X178626895Y-76957499D01*
X178660921Y-77019811D01*
X178663800Y-77046594D01*
X178663800Y-81118074D01*
X178643798Y-81186195D01*
X178631437Y-81202384D01*
X178558257Y-81283659D01*
X178459471Y-81454762D01*
X178457932Y-81453873D01*
X178417600Y-81501325D01*
X178349673Y-81521974D01*
X178281365Y-81502621D01*
X178259379Y-81485075D01*
X176316087Y-79541783D01*
X174242944Y-77468639D01*
X174232979Y-77456201D01*
X174232752Y-77456390D01*
X174227701Y-77450284D01*
X174227700Y-77450282D01*
X174176621Y-77402316D01*
X174168500Y-77394195D01*
X174155477Y-77381171D01*
X174155472Y-77381166D01*
X174149925Y-77376863D01*
X174145417Y-77373012D01*
X174111025Y-77340717D01*
X174111019Y-77340713D01*
X174093263Y-77330951D01*
X174076747Y-77320102D01*
X174060741Y-77307686D01*
X174038354Y-77297998D01*
X173983781Y-77252589D01*
X173962420Y-77184882D01*
X173979276Y-77119362D01*
X173989941Y-77100890D01*
X174047927Y-77000456D01*
X174106942Y-76818828D01*
X174126904Y-76628900D01*
X174108823Y-76456870D01*
X174106942Y-76438971D01*
X174088053Y-76380836D01*
X174086026Y-76309868D01*
X174122688Y-76249071D01*
X174186400Y-76217745D01*
X174207886Y-76215900D01*
X174232887Y-76215900D01*
X174419688Y-76176194D01*
X174594152Y-76098518D01*
X174748653Y-75986266D01*
X174781276Y-75950035D01*
X174876434Y-75844351D01*
X174876435Y-75844349D01*
X174876440Y-75844344D01*
X174971927Y-75678956D01*
X175030942Y-75497328D01*
X175050904Y-75307400D01*
X175030942Y-75117472D01*
X174971927Y-74935844D01*
X174876440Y-74770456D01*
X174876438Y-74770454D01*
X174876434Y-74770448D01*
X174748655Y-74628535D01*
X174594152Y-74516282D01*
X174419688Y-74438606D01*
X174232887Y-74398900D01*
X174041913Y-74398900D01*
X173855111Y-74438606D01*
X173680647Y-74516282D01*
X173526144Y-74628535D01*
X173398365Y-74770448D01*
X173398358Y-74770458D01*
X173302876Y-74935838D01*
X173302873Y-74935845D01*
X173243857Y-75117472D01*
X173223896Y-75307400D01*
X173243857Y-75497328D01*
X173262747Y-75555464D01*
X173264774Y-75626432D01*
X173228112Y-75687229D01*
X173164400Y-75718555D01*
X173142914Y-75720400D01*
X173117913Y-75720400D01*
X172931111Y-75760106D01*
X172756647Y-75837782D01*
X172602145Y-75950035D01*
X172577036Y-75977920D01*
X172516588Y-76015158D01*
X172445605Y-76013804D01*
X172394307Y-75982702D01*
X166620405Y-70208800D01*
X166586379Y-70146488D01*
X166583500Y-70119705D01*
X166583500Y-65218294D01*
X166603502Y-65150173D01*
X166657158Y-65103680D01*
X166727432Y-65093576D01*
X166792012Y-65123070D01*
G37*
G04 #@! TD.AperFunction*
G04 #@! TA.AperFunction,NonConductor*
G36*
X150252751Y-63497585D02*
G01*
X150255573Y-63498900D01*
X150257324Y-63499717D01*
X150480170Y-63559429D01*
X150710000Y-63579536D01*
X150939830Y-63559429D01*
X151108490Y-63514236D01*
X151179465Y-63515926D01*
X151238261Y-63555720D01*
X151266209Y-63620984D01*
X151267100Y-63635943D01*
X151267100Y-64344403D01*
X151247098Y-64412524D01*
X151230195Y-64433499D01*
X151158734Y-64504959D01*
X151146301Y-64514921D01*
X151146489Y-64515148D01*
X151140380Y-64520201D01*
X151092416Y-64571278D01*
X151071266Y-64592427D01*
X151066960Y-64597977D01*
X151063114Y-64602479D01*
X151030817Y-64636874D01*
X151030811Y-64636883D01*
X151021051Y-64654635D01*
X151010203Y-64671150D01*
X150997786Y-64687158D01*
X150979045Y-64730464D01*
X150976434Y-64735794D01*
X150953705Y-64777139D01*
X150953703Y-64777144D01*
X150948667Y-64796759D01*
X150942264Y-64815462D01*
X150934219Y-64834052D01*
X150926837Y-64880656D01*
X150925633Y-64886468D01*
X150913900Y-64932168D01*
X150913900Y-64952423D01*
X150912349Y-64972133D01*
X150909180Y-64992142D01*
X150909180Y-64992143D01*
X150913620Y-65039117D01*
X150913900Y-65045050D01*
X150913900Y-77572746D01*
X150912151Y-77588588D01*
X150912444Y-77588616D01*
X150911698Y-77596507D01*
X150913900Y-77666557D01*
X150913900Y-77696451D01*
X150913901Y-77696472D01*
X150914778Y-77703420D01*
X150915244Y-77709332D01*
X150916726Y-77756488D01*
X150916727Y-77756493D01*
X150922377Y-77775939D01*
X150926386Y-77795297D01*
X150928925Y-77815393D01*
X150928926Y-77815399D01*
X150946293Y-77859262D01*
X150948216Y-77864879D01*
X150961382Y-77910193D01*
X150971694Y-77927631D01*
X150980388Y-77945379D01*
X150987844Y-77964209D01*
X150987850Y-77964220D01*
X151015577Y-78002383D01*
X151018837Y-78007346D01*
X151042860Y-78047965D01*
X151057179Y-78062284D01*
X151070017Y-78077314D01*
X151075978Y-78085518D01*
X151081928Y-78093707D01*
X151109659Y-78116648D01*
X151118286Y-78123785D01*
X151122667Y-78127771D01*
X152205312Y-79210417D01*
X152558577Y-79563682D01*
X152592603Y-79625994D01*
X152587538Y-79696810D01*
X152544991Y-79753645D01*
X152534852Y-79760334D01*
X152379044Y-79873535D01*
X152251265Y-80015448D01*
X152251258Y-80015458D01*
X152155776Y-80180838D01*
X152155773Y-80180845D01*
X152096757Y-80362472D01*
X152076796Y-80552400D01*
X152096757Y-80742327D01*
X152126555Y-80834034D01*
X152155773Y-80923956D01*
X152155776Y-80923961D01*
X152251258Y-81089341D01*
X152251261Y-81089345D01*
X152383065Y-81235729D01*
X152413782Y-81299737D01*
X152409261Y-81358975D01*
X152359257Y-81512870D01*
X152339296Y-81702800D01*
X152359257Y-81892727D01*
X152369212Y-81923363D01*
X152371240Y-81994331D01*
X152334578Y-82055129D01*
X152270866Y-82086454D01*
X152249379Y-82088300D01*
X152084913Y-82088300D01*
X151898111Y-82128006D01*
X151723647Y-82205682D01*
X151569143Y-82317936D01*
X151560616Y-82327406D01*
X151500168Y-82364642D01*
X151429184Y-82363286D01*
X151377890Y-82332185D01*
X150110405Y-81064700D01*
X150076379Y-81002388D01*
X150073500Y-80975605D01*
X150073500Y-63611779D01*
X150093502Y-63543658D01*
X150147158Y-63497165D01*
X150217432Y-63487061D01*
X150252751Y-63497585D01*
G37*
G04 #@! TD.AperFunction*
G04 #@! TA.AperFunction,NonConductor*
G36*
X145190521Y-78453202D02*
G01*
X145237014Y-78506858D01*
X145248400Y-78559200D01*
X145248400Y-79246869D01*
X145242625Y-79266535D01*
X145247361Y-79277310D01*
X145248400Y-79293459D01*
X145248400Y-80213904D01*
X145228398Y-80282025D01*
X145211495Y-80302999D01*
X142590413Y-82924080D01*
X142528101Y-82958106D01*
X142457285Y-82953041D01*
X142400450Y-82910494D01*
X142381485Y-82873922D01*
X142362127Y-82814344D01*
X142266640Y-82648956D01*
X142266638Y-82648954D01*
X142266634Y-82648948D01*
X142153484Y-82523282D01*
X142122766Y-82459275D01*
X142131531Y-82388821D01*
X142158022Y-82349880D01*
X144748657Y-79759245D01*
X144761092Y-79749284D01*
X144760905Y-79749057D01*
X144767009Y-79744005D01*
X144767018Y-79744000D01*
X144814999Y-79692904D01*
X144836134Y-79671770D01*
X144840429Y-79666232D01*
X144844271Y-79661731D01*
X144876586Y-79627321D01*
X144886345Y-79609567D01*
X144897197Y-79593046D01*
X144909613Y-79577041D01*
X144928347Y-79533748D01*
X144930961Y-79528412D01*
X144950671Y-79492560D01*
X144953695Y-79487060D01*
X144958733Y-79467435D01*
X144965138Y-79448730D01*
X144971363Y-79434345D01*
X144973181Y-79430145D01*
X144980563Y-79383525D01*
X144981761Y-79377744D01*
X144993500Y-79332030D01*
X144993500Y-79311769D01*
X144995051Y-79292058D01*
X144997951Y-79273748D01*
X144999299Y-79270902D01*
X144996959Y-79258726D01*
X144993780Y-79225089D01*
X144993500Y-79219157D01*
X144993500Y-78559200D01*
X145013502Y-78491079D01*
X145067158Y-78444586D01*
X145119500Y-78433200D01*
X145122400Y-78433200D01*
X145190521Y-78453202D01*
G37*
G04 #@! TD.AperFunction*
G04 #@! TA.AperFunction,NonConductor*
G36*
X180166793Y-82322739D02*
G01*
X180225778Y-82362253D01*
X180254036Y-82427383D01*
X180255000Y-82442938D01*
X180255000Y-83176506D01*
X180234998Y-83244627D01*
X180181342Y-83291120D01*
X180111068Y-83301224D01*
X180046488Y-83271730D01*
X180039905Y-83265601D01*
X179629034Y-82854730D01*
X179595008Y-82792418D01*
X179600073Y-82721603D01*
X179642620Y-82664767D01*
X179666875Y-82650531D01*
X179754052Y-82611718D01*
X179908553Y-82499466D01*
X180035365Y-82358626D01*
X180095809Y-82321388D01*
X180166793Y-82322739D01*
G37*
G04 #@! TD.AperFunction*
G04 #@! TA.AperFunction,NonConductor*
G36*
X118958757Y-78342811D02*
G01*
X119015593Y-78385358D01*
X119040035Y-78447695D01*
X119044957Y-78494527D01*
X119048964Y-78506858D01*
X119103973Y-78676156D01*
X119103976Y-78676161D01*
X119199458Y-78841541D01*
X119199461Y-78841545D01*
X119282813Y-78934118D01*
X119313530Y-78998126D01*
X119304765Y-79068580D01*
X119278271Y-79107523D01*
X114245820Y-84139973D01*
X114183508Y-84173999D01*
X114112693Y-84168934D01*
X114055857Y-84126387D01*
X114047606Y-84113878D01*
X113950542Y-83945759D01*
X113950541Y-83945758D01*
X113950540Y-83945756D01*
X113877363Y-83864484D01*
X113846646Y-83800476D01*
X113845000Y-83780174D01*
X113845000Y-83404593D01*
X113865002Y-83336472D01*
X113881900Y-83315503D01*
X118825632Y-78371770D01*
X118887942Y-78337746D01*
X118958757Y-78342811D01*
G37*
G04 #@! TD.AperFunction*
G04 #@! TA.AperFunction,NonConductor*
G36*
X165522012Y-70902670D02*
G01*
X165528595Y-70908799D01*
X172616554Y-77996758D01*
X172650580Y-78059070D01*
X172645515Y-78129885D01*
X172636579Y-78148852D01*
X172600674Y-78211041D01*
X172600673Y-78211043D01*
X172600673Y-78211044D01*
X172593058Y-78234480D01*
X172541657Y-78392672D01*
X172521696Y-78582600D01*
X172541657Y-78772527D01*
X172564082Y-78841541D01*
X172600673Y-78954156D01*
X172600676Y-78954161D01*
X172696158Y-79119541D01*
X172696165Y-79119551D01*
X172823944Y-79261464D01*
X172845754Y-79277310D01*
X172978448Y-79373718D01*
X173152912Y-79451394D01*
X173339713Y-79491100D01*
X173530687Y-79491100D01*
X173717488Y-79451394D01*
X173891952Y-79373718D01*
X174046453Y-79261466D01*
X174051185Y-79256210D01*
X174111629Y-79218969D01*
X174182613Y-79220318D01*
X174233918Y-79251423D01*
X178980695Y-83998199D01*
X179014721Y-84060511D01*
X179017600Y-84087294D01*
X179017600Y-85766675D01*
X178997598Y-85834796D01*
X178943942Y-85881289D01*
X178873668Y-85891393D01*
X178817539Y-85868611D01*
X178696652Y-85780782D01*
X178522188Y-85703106D01*
X178469444Y-85691894D01*
X178406971Y-85658165D01*
X178406548Y-85657743D01*
X165350405Y-72601600D01*
X165316379Y-72539288D01*
X165313500Y-72512505D01*
X165313500Y-70997894D01*
X165333502Y-70929773D01*
X165387158Y-70883280D01*
X165457432Y-70873176D01*
X165522012Y-70902670D01*
G37*
G04 #@! TD.AperFunction*
G04 #@! TA.AperFunction,NonConductor*
G36*
X143640799Y-78333084D02*
G01*
X143698944Y-78373823D01*
X143725834Y-78439531D01*
X143726500Y-78452466D01*
X143726500Y-78937404D01*
X143706498Y-79005525D01*
X143689595Y-79026499D01*
X135166174Y-87549920D01*
X135103862Y-87583946D01*
X135033047Y-87578881D01*
X134976211Y-87536334D01*
X134951400Y-87469814D01*
X134966491Y-87400440D01*
X134967960Y-87397825D01*
X134988056Y-87363018D01*
X135045827Y-87262956D01*
X135104842Y-87081328D01*
X135124804Y-86891400D01*
X135104842Y-86701472D01*
X135095097Y-86671483D01*
X135093069Y-86600516D01*
X135129730Y-86539717D01*
X135193442Y-86508391D01*
X135195222Y-86508096D01*
X135199782Y-86507373D01*
X135199789Y-86507373D01*
X135219247Y-86501719D01*
X135238594Y-86497713D01*
X135258697Y-86495174D01*
X135302579Y-86477799D01*
X135308174Y-86475883D01*
X135339552Y-86466768D01*
X135353491Y-86462719D01*
X135353495Y-86462717D01*
X135370926Y-86452408D01*
X135388680Y-86443709D01*
X135407517Y-86436252D01*
X135445686Y-86408518D01*
X135450644Y-86405262D01*
X135491262Y-86381242D01*
X135505585Y-86366918D01*
X135520624Y-86354074D01*
X135537007Y-86342172D01*
X135567093Y-86305803D01*
X135571061Y-86301441D01*
X143478660Y-78393843D01*
X143491098Y-78383880D01*
X143490910Y-78383653D01*
X143497015Y-78378601D01*
X143497018Y-78378600D01*
X143503430Y-78371772D01*
X143508648Y-78366216D01*
X143569859Y-78330248D01*
X143640799Y-78333084D01*
G37*
G04 #@! TD.AperFunction*
M02*
