G04 #@! TF.GenerationSoftware,KiCad,Pcbnew,5.1.6-1.fc32*
G04 #@! TF.CreationDate,2020-09-20T21:59:19-03:00*
G04 #@! TF.ProjectId,pc104-adapter-top,70633130-342d-4616-9461-707465722d74,v2.0*
G04 #@! TF.SameCoordinates,Original*
G04 #@! TF.FileFunction,Copper,L1,Top*
G04 #@! TF.FilePolarity,Positive*
%FSLAX46Y46*%
G04 Gerber Fmt 4.6, Leading zero omitted, Abs format (unit mm)*
G04 Created by KiCad (PCBNEW 5.1.6-1.fc32) date 2020-09-20 21:59:19*
%MOMM*%
%LPD*%
G01*
G04 APERTURE LIST*
G04 #@! TA.AperFunction,ComponentPad*
%ADD10C,5.500000*%
G04 #@! TD*
G04 #@! TA.AperFunction,ViaPad*
%ADD11C,1.620000*%
G04 #@! TD*
G04 #@! TA.AperFunction,ViaPad*
%ADD12C,0.800000*%
G04 #@! TD*
G04 #@! TA.AperFunction,Conductor*
%ADD13C,0.250000*%
G04 #@! TD*
G04 #@! TA.AperFunction,Conductor*
%ADD14C,0.254000*%
G04 #@! TD*
G04 APERTURE END LIST*
D10*
X106270000Y-140336000D03*
X186330000Y-140336000D03*
D11*
X178650000Y-54636000D03*
X178650000Y-57176000D03*
X176110000Y-54636000D03*
X176110000Y-57176000D03*
X173570000Y-54636000D03*
X173570000Y-57176000D03*
X171030000Y-54636000D03*
X171030000Y-57176000D03*
X168490000Y-54636000D03*
X168490000Y-57176000D03*
X165950000Y-54636000D03*
X165950000Y-57176000D03*
X163410000Y-54636000D03*
X163410000Y-57176000D03*
X160870000Y-54636000D03*
X160870000Y-57176000D03*
X158330000Y-54636000D03*
X158330000Y-57176000D03*
X155790000Y-54636000D03*
X155790000Y-57176000D03*
X153250000Y-54636000D03*
X153250000Y-57176000D03*
X150710000Y-54636000D03*
X150710000Y-57176000D03*
X148170000Y-54636000D03*
X148170000Y-57176000D03*
X145630000Y-54636000D03*
X145630000Y-57176000D03*
X143090000Y-54636000D03*
X143090000Y-57176000D03*
X140550000Y-54636000D03*
X140550000Y-57176000D03*
X138010000Y-54636000D03*
X138010000Y-57176000D03*
X135470000Y-54636000D03*
X135470000Y-57176000D03*
X132930000Y-54636000D03*
X132930000Y-57176000D03*
X130390000Y-54636000D03*
X130390000Y-57176000D03*
X127850000Y-54636000D03*
X127850000Y-57176000D03*
X125310000Y-54636000D03*
X125310000Y-57176000D03*
X122770000Y-54636000D03*
X122770000Y-57176000D03*
X120230000Y-54636000D03*
X120230000Y-57176000D03*
X117690000Y-54636000D03*
X117690000Y-57176000D03*
X115150000Y-54636000D03*
X115150000Y-57176000D03*
X178650000Y-59716000D03*
X178650000Y-62256000D03*
X176110000Y-59716000D03*
X176110000Y-62256000D03*
X173570000Y-59716000D03*
X173570000Y-62256000D03*
X171030000Y-59716000D03*
X171030000Y-62256000D03*
X168490000Y-59716000D03*
X168490000Y-62256000D03*
X165950000Y-59716000D03*
X165950000Y-62256000D03*
X163410000Y-59716000D03*
X163410000Y-62256000D03*
X160870000Y-59716000D03*
X160870000Y-62256000D03*
X158330000Y-59716000D03*
X158330000Y-62256000D03*
X155790000Y-59716000D03*
X155790000Y-62256000D03*
X153250000Y-59716000D03*
X153250000Y-62256000D03*
X150710000Y-59716000D03*
X150710000Y-62256000D03*
X148170000Y-59716000D03*
X148170000Y-62256000D03*
X145630000Y-59716000D03*
X145630000Y-62256000D03*
X143090000Y-59716000D03*
X143090000Y-62256000D03*
X140550000Y-59716000D03*
X140550000Y-62256000D03*
X138010000Y-59716000D03*
X138010000Y-62256000D03*
X135470000Y-59716000D03*
X135470000Y-62256000D03*
X132930000Y-59716000D03*
X132930000Y-62256000D03*
X130390000Y-59716000D03*
X130390000Y-62256000D03*
X127850000Y-59716000D03*
X127850000Y-62256000D03*
X125310000Y-59716000D03*
X125310000Y-62256000D03*
X122770000Y-59716000D03*
X122770000Y-62256000D03*
X120230000Y-59716000D03*
X120230000Y-62256000D03*
X117690000Y-59716000D03*
X117690000Y-62256000D03*
X115150000Y-59716000D03*
X115150000Y-62256000D03*
D10*
X183730000Y-54636000D03*
X110070000Y-54636000D03*
D12*
X105116400Y-97517200D03*
X187384400Y-97517200D03*
X123908400Y-88750000D03*
X124868200Y-85756800D03*
X120566200Y-83119600D03*
X123301300Y-81352200D03*
X123428100Y-69527700D03*
X119938500Y-78304600D03*
X120448300Y-76939900D03*
X122102300Y-72308700D03*
X119908000Y-75236900D03*
X122111500Y-73888100D03*
X145152600Y-77524700D03*
X144400400Y-86206300D03*
X144290200Y-84790900D03*
X141527600Y-83185900D03*
X140807100Y-79123100D03*
X139703400Y-77339800D03*
X137345300Y-72961300D03*
X136147000Y-69527700D03*
X161468500Y-68140200D03*
X159913100Y-77294400D03*
X157475900Y-77281100D03*
X156078100Y-68497000D03*
X159613300Y-85000000D03*
X158503500Y-84612700D03*
X155927600Y-85722100D03*
X152180400Y-82996800D03*
X159400700Y-90197200D03*
X173271900Y-68781200D03*
X174137400Y-75307400D03*
X171874700Y-67316900D03*
X173213400Y-76628900D03*
X171292500Y-65778600D03*
X173435200Y-78582600D03*
X170650000Y-81512900D03*
X169305500Y-64565100D03*
X170137700Y-85614600D03*
X170547400Y-89012900D03*
X113432500Y-89103300D03*
X113414600Y-86920800D03*
X116829800Y-86195600D03*
X113211500Y-84482700D03*
X113468100Y-81635100D03*
X133746100Y-90197200D03*
X136667000Y-89743400D03*
X134211300Y-86891400D03*
X133948800Y-85876700D03*
X133746100Y-84862100D03*
X133631200Y-82743400D03*
X135170300Y-80211900D03*
X133719600Y-80602900D03*
X133930200Y-78419300D03*
X152758900Y-74500100D03*
X152630700Y-76113100D03*
X154781200Y-74686100D03*
X155027500Y-66309200D03*
X156475600Y-79805900D03*
X152990300Y-80552400D03*
X153252800Y-81702800D03*
X152732900Y-85259600D03*
X152183900Y-86678800D03*
X180888500Y-84831100D03*
X179297300Y-81820600D03*
X179651100Y-87059400D03*
X178239900Y-86571900D03*
D13*
X185064900Y-95197700D02*
X187384400Y-97517200D01*
X105116400Y-95380400D02*
X105116400Y-97517200D01*
X119938500Y-78304600D02*
X120109400Y-78304600D01*
X120109400Y-78304600D02*
X122908400Y-75505600D01*
X122908400Y-75505600D02*
X122908400Y-70033700D01*
X122908400Y-70033700D02*
X121634600Y-68759900D01*
X121634600Y-68759900D02*
X121634600Y-58580600D01*
X121634600Y-58580600D02*
X120230000Y-57176000D01*
X122102300Y-72308700D02*
X118960000Y-69166400D01*
X118960000Y-69166400D02*
X118960000Y-58446000D01*
X118960000Y-58446000D02*
X117690000Y-57176000D01*
X122111500Y-73888100D02*
X116420000Y-68196600D01*
X116420000Y-68196600D02*
X116420000Y-58446000D01*
X116420000Y-58446000D02*
X115150000Y-57176000D01*
X141527600Y-83185900D02*
X142067300Y-82646200D01*
X142067300Y-82646200D02*
X142067300Y-69504200D01*
X142067300Y-69504200D02*
X141954600Y-69391500D01*
X141954600Y-69391500D02*
X141954600Y-56040600D01*
X141954600Y-56040600D02*
X140550000Y-54636000D01*
X159613300Y-85000000D02*
X159613300Y-84696700D01*
X159613300Y-84696700D02*
X154055900Y-79139300D01*
X154055900Y-79139300D02*
X154055900Y-65913300D01*
X154055900Y-65913300D02*
X154386700Y-65582500D01*
X154386700Y-65582500D02*
X154386700Y-58312700D01*
X154386700Y-58312700D02*
X153250000Y-57176000D01*
X150710000Y-57176000D02*
X151905400Y-58371400D01*
X151905400Y-58371400D02*
X151905400Y-81381100D01*
X151905400Y-81381100D02*
X155927600Y-85403300D01*
X155927600Y-85403300D02*
X155927600Y-85722100D01*
X148170000Y-54636000D02*
X149305400Y-55771400D01*
X149305400Y-55771400D02*
X149305400Y-80121800D01*
X149305400Y-80121800D02*
X152180400Y-82996800D01*
X165950000Y-54636000D02*
X167354600Y-56040600D01*
X167354600Y-56040600D02*
X167354600Y-82888500D01*
X167354600Y-82888500D02*
X170080700Y-85614600D01*
X170080700Y-85614600D02*
X170137700Y-85614600D01*
X125310000Y-59716000D02*
X124171700Y-60854300D01*
X124171700Y-60854300D02*
X124171700Y-78488400D01*
X124171700Y-78488400D02*
X116829800Y-85830300D01*
X116829800Y-85830300D02*
X116829800Y-86195600D01*
X140550000Y-59716000D02*
X139145400Y-61120600D01*
X139145400Y-61120600D02*
X139145400Y-75211100D01*
X139145400Y-75211100D02*
X134445000Y-79911500D01*
X134445000Y-79911500D02*
X134445000Y-84163200D01*
X134445000Y-84163200D02*
X133746100Y-84862100D01*
X160870000Y-62256000D02*
X154781200Y-68344800D01*
X154781200Y-68344800D02*
X154781200Y-74686100D01*
X158330000Y-59716000D02*
X157060000Y-60986000D01*
X157060000Y-60986000D02*
X157060000Y-64276700D01*
X157060000Y-64276700D02*
X155027500Y-66309200D01*
D14*
G36*
X181235493Y-52321101D02*
G01*
X181349070Y-52434678D01*
X180905497Y-52740859D01*
X180590046Y-53328306D01*
X180395260Y-53966008D01*
X180328628Y-54629457D01*
X180392708Y-55293158D01*
X180585038Y-55931605D01*
X180898228Y-56520262D01*
X180905497Y-56531141D01*
X181349072Y-56837323D01*
X183550395Y-54636000D01*
X183536253Y-54621858D01*
X183715858Y-54442253D01*
X183730000Y-54456395D01*
X183744143Y-54442253D01*
X183923748Y-54621858D01*
X183909605Y-54636000D01*
X183923748Y-54650143D01*
X183744143Y-54829748D01*
X183730000Y-54815605D01*
X181528677Y-57016928D01*
X181834859Y-57460503D01*
X182422306Y-57775954D01*
X183060008Y-57970740D01*
X183723457Y-58037372D01*
X184387158Y-57973292D01*
X185025605Y-57780962D01*
X185614262Y-57467772D01*
X185625141Y-57460503D01*
X185931322Y-57016930D01*
X186044899Y-57130507D01*
X186120000Y-57055406D01*
X186120001Y-64470877D01*
X186123010Y-64501427D01*
X186122954Y-64509424D01*
X186123921Y-64519290D01*
X186150441Y-64771615D01*
X186163379Y-64834646D01*
X186175439Y-64897864D01*
X186178305Y-64907354D01*
X186253331Y-65149724D01*
X186278266Y-65209041D01*
X186302373Y-65268709D01*
X186307027Y-65277462D01*
X186427700Y-65500643D01*
X186463670Y-65553971D01*
X186498922Y-65607841D01*
X186505188Y-65615523D01*
X186666913Y-65811014D01*
X186712531Y-65856314D01*
X186757596Y-65902333D01*
X186765234Y-65908652D01*
X186961849Y-66069007D01*
X187015393Y-66104582D01*
X187068547Y-66140977D01*
X187077267Y-66145691D01*
X187301285Y-66264803D01*
X187360748Y-66289312D01*
X187419925Y-66314675D01*
X187429395Y-66317607D01*
X187672282Y-66390939D01*
X187735379Y-66403432D01*
X187798353Y-66416818D01*
X187808212Y-66417854D01*
X188060717Y-66442612D01*
X188243937Y-66460577D01*
X188353536Y-66493667D01*
X188454615Y-66547411D01*
X188543336Y-66619770D01*
X188616309Y-66707979D01*
X188670761Y-66808687D01*
X188704614Y-66918046D01*
X188720000Y-67064441D01*
X188720000Y-97273000D01*
X103880000Y-97273000D01*
X103880000Y-89001361D01*
X112397500Y-89001361D01*
X112397500Y-89205239D01*
X112437274Y-89405198D01*
X112515295Y-89593556D01*
X112628563Y-89763074D01*
X112772726Y-89907237D01*
X112942244Y-90020505D01*
X113130602Y-90098526D01*
X113330561Y-90138300D01*
X113534439Y-90138300D01*
X113734398Y-90098526D01*
X113742280Y-90095261D01*
X132711100Y-90095261D01*
X132711100Y-90299139D01*
X132750874Y-90499098D01*
X132828895Y-90687456D01*
X132942163Y-90856974D01*
X133086326Y-91001137D01*
X133255844Y-91114405D01*
X133444202Y-91192426D01*
X133644161Y-91232200D01*
X133848039Y-91232200D01*
X134047998Y-91192426D01*
X134236356Y-91114405D01*
X134405874Y-91001137D01*
X134550037Y-90856974D01*
X134663305Y-90687456D01*
X134741326Y-90499098D01*
X134781100Y-90299139D01*
X134781100Y-90095261D01*
X134741326Y-89895302D01*
X134663305Y-89706944D01*
X134619551Y-89641461D01*
X135632000Y-89641461D01*
X135632000Y-89845339D01*
X135671774Y-90045298D01*
X135749795Y-90233656D01*
X135863063Y-90403174D01*
X136007226Y-90547337D01*
X136176744Y-90660605D01*
X136365102Y-90738626D01*
X136565061Y-90778400D01*
X136768939Y-90778400D01*
X136968898Y-90738626D01*
X137157256Y-90660605D01*
X137326774Y-90547337D01*
X137470937Y-90403174D01*
X137584205Y-90233656D01*
X137641530Y-90095261D01*
X158365700Y-90095261D01*
X158365700Y-90299139D01*
X158405474Y-90499098D01*
X158483495Y-90687456D01*
X158596763Y-90856974D01*
X158740926Y-91001137D01*
X158910444Y-91114405D01*
X159098802Y-91192426D01*
X159298761Y-91232200D01*
X159502639Y-91232200D01*
X159702598Y-91192426D01*
X159890956Y-91114405D01*
X160060474Y-91001137D01*
X160204637Y-90856974D01*
X160317905Y-90687456D01*
X160395926Y-90499098D01*
X160435700Y-90299139D01*
X160435700Y-90095261D01*
X160395926Y-89895302D01*
X160317905Y-89706944D01*
X160204637Y-89537426D01*
X160060474Y-89393263D01*
X159890956Y-89279995D01*
X159702598Y-89201974D01*
X159502639Y-89162200D01*
X159298761Y-89162200D01*
X159098802Y-89201974D01*
X158910444Y-89279995D01*
X158740926Y-89393263D01*
X158596763Y-89537426D01*
X158483495Y-89706944D01*
X158405474Y-89895302D01*
X158365700Y-90095261D01*
X137641530Y-90095261D01*
X137662226Y-90045298D01*
X137702000Y-89845339D01*
X137702000Y-89641461D01*
X137662226Y-89441502D01*
X137584205Y-89253144D01*
X137470937Y-89083626D01*
X137326774Y-88939463D01*
X137284118Y-88910961D01*
X169512400Y-88910961D01*
X169512400Y-89114839D01*
X169552174Y-89314798D01*
X169630195Y-89503156D01*
X169743463Y-89672674D01*
X169887626Y-89816837D01*
X170057144Y-89930105D01*
X170245502Y-90008126D01*
X170445461Y-90047900D01*
X170649339Y-90047900D01*
X170849298Y-90008126D01*
X171037656Y-89930105D01*
X171207174Y-89816837D01*
X171351337Y-89672674D01*
X171464605Y-89503156D01*
X171542626Y-89314798D01*
X171582400Y-89114839D01*
X171582400Y-88910961D01*
X171542626Y-88711002D01*
X171464605Y-88522644D01*
X171351337Y-88353126D01*
X171207174Y-88208963D01*
X171037656Y-88095695D01*
X170849298Y-88017674D01*
X170649339Y-87977900D01*
X170445461Y-87977900D01*
X170245502Y-88017674D01*
X170057144Y-88095695D01*
X169887626Y-88208963D01*
X169743463Y-88353126D01*
X169630195Y-88522644D01*
X169552174Y-88711002D01*
X169512400Y-88910961D01*
X137284118Y-88910961D01*
X137157256Y-88826195D01*
X136968898Y-88748174D01*
X136768939Y-88708400D01*
X136565061Y-88708400D01*
X136365102Y-88748174D01*
X136176744Y-88826195D01*
X136007226Y-88939463D01*
X135863063Y-89083626D01*
X135749795Y-89253144D01*
X135671774Y-89441502D01*
X135632000Y-89641461D01*
X134619551Y-89641461D01*
X134550037Y-89537426D01*
X134405874Y-89393263D01*
X134236356Y-89279995D01*
X134047998Y-89201974D01*
X133848039Y-89162200D01*
X133644161Y-89162200D01*
X133444202Y-89201974D01*
X133255844Y-89279995D01*
X133086326Y-89393263D01*
X132942163Y-89537426D01*
X132828895Y-89706944D01*
X132750874Y-89895302D01*
X132711100Y-90095261D01*
X113742280Y-90095261D01*
X113922756Y-90020505D01*
X114092274Y-89907237D01*
X114236437Y-89763074D01*
X114349705Y-89593556D01*
X114427726Y-89405198D01*
X114467500Y-89205239D01*
X114467500Y-89001361D01*
X114427726Y-88801402D01*
X114364210Y-88648061D01*
X122873400Y-88648061D01*
X122873400Y-88851939D01*
X122913174Y-89051898D01*
X122991195Y-89240256D01*
X123104463Y-89409774D01*
X123248626Y-89553937D01*
X123418144Y-89667205D01*
X123606502Y-89745226D01*
X123806461Y-89785000D01*
X124010339Y-89785000D01*
X124210298Y-89745226D01*
X124398656Y-89667205D01*
X124568174Y-89553937D01*
X124712337Y-89409774D01*
X124825605Y-89240256D01*
X124903626Y-89051898D01*
X124943400Y-88851939D01*
X124943400Y-88648061D01*
X124903626Y-88448102D01*
X124825605Y-88259744D01*
X124712337Y-88090226D01*
X124568174Y-87946063D01*
X124398656Y-87832795D01*
X124210298Y-87754774D01*
X124010339Y-87715000D01*
X123806461Y-87715000D01*
X123606502Y-87754774D01*
X123418144Y-87832795D01*
X123248626Y-87946063D01*
X123104463Y-88090226D01*
X122991195Y-88259744D01*
X122913174Y-88448102D01*
X122873400Y-88648061D01*
X114364210Y-88648061D01*
X114349705Y-88613044D01*
X114236437Y-88443526D01*
X114092274Y-88299363D01*
X113922756Y-88186095D01*
X113734398Y-88108074D01*
X113534439Y-88068300D01*
X113330561Y-88068300D01*
X113130602Y-88108074D01*
X112942244Y-88186095D01*
X112772726Y-88299363D01*
X112628563Y-88443526D01*
X112515295Y-88613044D01*
X112437274Y-88801402D01*
X112397500Y-89001361D01*
X103880000Y-89001361D01*
X103880000Y-86818861D01*
X112379600Y-86818861D01*
X112379600Y-87022739D01*
X112419374Y-87222698D01*
X112497395Y-87411056D01*
X112610663Y-87580574D01*
X112754826Y-87724737D01*
X112924344Y-87838005D01*
X113112702Y-87916026D01*
X113312661Y-87955800D01*
X113516539Y-87955800D01*
X113716498Y-87916026D01*
X113904856Y-87838005D01*
X114074374Y-87724737D01*
X114218537Y-87580574D01*
X114331805Y-87411056D01*
X114409826Y-87222698D01*
X114449600Y-87022739D01*
X114449600Y-86818861D01*
X114409826Y-86618902D01*
X114331805Y-86430544D01*
X114218537Y-86261026D01*
X114074374Y-86116863D01*
X113904856Y-86003595D01*
X113716498Y-85925574D01*
X113516539Y-85885800D01*
X113312661Y-85885800D01*
X113112702Y-85925574D01*
X112924344Y-86003595D01*
X112754826Y-86116863D01*
X112610663Y-86261026D01*
X112497395Y-86430544D01*
X112419374Y-86618902D01*
X112379600Y-86818861D01*
X103880000Y-86818861D01*
X103880000Y-84380761D01*
X112176500Y-84380761D01*
X112176500Y-84584639D01*
X112216274Y-84784598D01*
X112294295Y-84972956D01*
X112407563Y-85142474D01*
X112551726Y-85286637D01*
X112721244Y-85399905D01*
X112909602Y-85477926D01*
X113109561Y-85517700D01*
X113313439Y-85517700D01*
X113513398Y-85477926D01*
X113701756Y-85399905D01*
X113871274Y-85286637D01*
X114015437Y-85142474D01*
X114128705Y-84972956D01*
X114206726Y-84784598D01*
X114246500Y-84584639D01*
X114246500Y-84380761D01*
X114206726Y-84180802D01*
X114128705Y-83992444D01*
X114015437Y-83822926D01*
X113871274Y-83678763D01*
X113701756Y-83565495D01*
X113513398Y-83487474D01*
X113313439Y-83447700D01*
X113109561Y-83447700D01*
X112909602Y-83487474D01*
X112721244Y-83565495D01*
X112551726Y-83678763D01*
X112407563Y-83822926D01*
X112294295Y-83992444D01*
X112216274Y-84180802D01*
X112176500Y-84380761D01*
X103880000Y-84380761D01*
X103880000Y-81533161D01*
X112433100Y-81533161D01*
X112433100Y-81737039D01*
X112472874Y-81936998D01*
X112550895Y-82125356D01*
X112664163Y-82294874D01*
X112808326Y-82439037D01*
X112977844Y-82552305D01*
X113166202Y-82630326D01*
X113366161Y-82670100D01*
X113570039Y-82670100D01*
X113769998Y-82630326D01*
X113958356Y-82552305D01*
X114127874Y-82439037D01*
X114272037Y-82294874D01*
X114385305Y-82125356D01*
X114463326Y-81936998D01*
X114503100Y-81737039D01*
X114503100Y-81533161D01*
X114463326Y-81333202D01*
X114385305Y-81144844D01*
X114272037Y-80975326D01*
X114127874Y-80831163D01*
X113958356Y-80717895D01*
X113769998Y-80639874D01*
X113570039Y-80600100D01*
X113366161Y-80600100D01*
X113166202Y-80639874D01*
X112977844Y-80717895D01*
X112808326Y-80831163D01*
X112664163Y-80975326D01*
X112550895Y-81144844D01*
X112472874Y-81333202D01*
X112433100Y-81533161D01*
X103880000Y-81533161D01*
X103880000Y-67270729D01*
X103898386Y-67083215D01*
X103942757Y-66936252D01*
X104014829Y-66800703D01*
X104111852Y-66681742D01*
X104230144Y-66583882D01*
X104365181Y-66510868D01*
X104511833Y-66465471D01*
X104697092Y-66446000D01*
X105504877Y-66446000D01*
X105535576Y-66442976D01*
X105544820Y-66443041D01*
X105554686Y-66442074D01*
X105845831Y-66411474D01*
X105908868Y-66398534D01*
X105972080Y-66386476D01*
X105981570Y-66383611D01*
X106261226Y-66297043D01*
X106320521Y-66272117D01*
X106380215Y-66247999D01*
X106388967Y-66243345D01*
X106646483Y-66104106D01*
X106699825Y-66068127D01*
X106753678Y-66032886D01*
X106761360Y-66026621D01*
X106986927Y-65840016D01*
X107032246Y-65794379D01*
X107078248Y-65749331D01*
X107084566Y-65741692D01*
X107269592Y-65514828D01*
X107305177Y-65461268D01*
X107341560Y-65408132D01*
X107346275Y-65399412D01*
X107483712Y-65140931D01*
X107508225Y-65081456D01*
X107533584Y-65022289D01*
X107536516Y-65012819D01*
X107621130Y-64732565D01*
X107633622Y-64669475D01*
X107647009Y-64606494D01*
X107648045Y-64596635D01*
X107676612Y-64305283D01*
X107676612Y-64305277D01*
X107680000Y-64270877D01*
X107680000Y-57055406D01*
X107755101Y-57130507D01*
X107868678Y-57016930D01*
X108174859Y-57460503D01*
X108762306Y-57775954D01*
X109400008Y-57970740D01*
X110063457Y-58037372D01*
X110727158Y-57973292D01*
X111365605Y-57780962D01*
X111954262Y-57467772D01*
X111965141Y-57460503D01*
X112271323Y-57016928D01*
X110070000Y-54815605D01*
X110055858Y-54829748D01*
X109876253Y-54650143D01*
X109890395Y-54636000D01*
X109876253Y-54621858D01*
X110055858Y-54442253D01*
X110070000Y-54456395D01*
X110084143Y-54442253D01*
X110263748Y-54621858D01*
X110249605Y-54636000D01*
X112450928Y-56837323D01*
X112894503Y-56531141D01*
X113209954Y-55943694D01*
X113404740Y-55305992D01*
X113471372Y-54642543D01*
X113457000Y-54493680D01*
X113705000Y-54493680D01*
X113705000Y-54778320D01*
X113760530Y-55057491D01*
X113869457Y-55320464D01*
X114027595Y-55557134D01*
X114228866Y-55758405D01*
X114449757Y-55906000D01*
X114228866Y-56053595D01*
X114027595Y-56254866D01*
X113869457Y-56491536D01*
X113760530Y-56754509D01*
X113705000Y-57033680D01*
X113705000Y-57318320D01*
X113760530Y-57597491D01*
X113869457Y-57860464D01*
X114027595Y-58097134D01*
X114228866Y-58298405D01*
X114449757Y-58446000D01*
X114228866Y-58593595D01*
X114027595Y-58794866D01*
X113869457Y-59031536D01*
X113760530Y-59294509D01*
X113705000Y-59573680D01*
X113705000Y-59858320D01*
X113760530Y-60137491D01*
X113869457Y-60400464D01*
X114027595Y-60637134D01*
X114228866Y-60838405D01*
X114449757Y-60986000D01*
X114228866Y-61133595D01*
X114027595Y-61334866D01*
X113869457Y-61571536D01*
X113760530Y-61834509D01*
X113705000Y-62113680D01*
X113705000Y-62398320D01*
X113760530Y-62677491D01*
X113869457Y-62940464D01*
X114027595Y-63177134D01*
X114228866Y-63378405D01*
X114465536Y-63536543D01*
X114728509Y-63645470D01*
X115007680Y-63701000D01*
X115292320Y-63701000D01*
X115571491Y-63645470D01*
X115660000Y-63608808D01*
X115660000Y-68159278D01*
X115656324Y-68196600D01*
X115660000Y-68233922D01*
X115660000Y-68233932D01*
X115670997Y-68345585D01*
X115705963Y-68460854D01*
X115714454Y-68488846D01*
X115785026Y-68620876D01*
X115798297Y-68637046D01*
X115879999Y-68736601D01*
X115909003Y-68760404D01*
X121076500Y-73927903D01*
X121076500Y-73990039D01*
X121116274Y-74189998D01*
X121194295Y-74378356D01*
X121307563Y-74547874D01*
X121451726Y-74692037D01*
X121621244Y-74805305D01*
X121809602Y-74883326D01*
X122009561Y-74923100D01*
X122148400Y-74923100D01*
X122148400Y-75190798D01*
X121155655Y-76183544D01*
X121108074Y-76135963D01*
X120938556Y-76022695D01*
X120750198Y-75944674D01*
X120678249Y-75930362D01*
X120711937Y-75896674D01*
X120825205Y-75727156D01*
X120903226Y-75538798D01*
X120943000Y-75338839D01*
X120943000Y-75134961D01*
X120903226Y-74935002D01*
X120825205Y-74746644D01*
X120711937Y-74577126D01*
X120567774Y-74432963D01*
X120398256Y-74319695D01*
X120209898Y-74241674D01*
X120009939Y-74201900D01*
X119806061Y-74201900D01*
X119606102Y-74241674D01*
X119417744Y-74319695D01*
X119248226Y-74432963D01*
X119104063Y-74577126D01*
X118990795Y-74746644D01*
X118912774Y-74935002D01*
X118873000Y-75134961D01*
X118873000Y-75338839D01*
X118912774Y-75538798D01*
X118990795Y-75727156D01*
X119104063Y-75896674D01*
X119248226Y-76040837D01*
X119417744Y-76154105D01*
X119606102Y-76232126D01*
X119678051Y-76246438D01*
X119644363Y-76280126D01*
X119531095Y-76449644D01*
X119453074Y-76638002D01*
X119413300Y-76837961D01*
X119413300Y-77041839D01*
X119453074Y-77241798D01*
X119503843Y-77364365D01*
X119448244Y-77387395D01*
X119278726Y-77500663D01*
X119134563Y-77644826D01*
X119021295Y-77814344D01*
X118943274Y-78002702D01*
X118903500Y-78202661D01*
X118903500Y-78406539D01*
X118943274Y-78606498D01*
X119021295Y-78794856D01*
X119134563Y-78964374D01*
X119278726Y-79108537D01*
X119448244Y-79221805D01*
X119636602Y-79299826D01*
X119836561Y-79339600D01*
X120040439Y-79339600D01*
X120240398Y-79299826D01*
X120428756Y-79221805D01*
X120598274Y-79108537D01*
X120742437Y-78964374D01*
X120855705Y-78794856D01*
X120933726Y-78606498D01*
X120946494Y-78542307D01*
X123411701Y-76077101D01*
X123411701Y-78173597D01*
X116318803Y-85266496D01*
X116289799Y-85290299D01*
X116255845Y-85331673D01*
X116251034Y-85337536D01*
X116170026Y-85391663D01*
X116025863Y-85535826D01*
X115912595Y-85705344D01*
X115834574Y-85893702D01*
X115794800Y-86093661D01*
X115794800Y-86297539D01*
X115834574Y-86497498D01*
X115912595Y-86685856D01*
X116025863Y-86855374D01*
X116170026Y-86999537D01*
X116339544Y-87112805D01*
X116527902Y-87190826D01*
X116727861Y-87230600D01*
X116931739Y-87230600D01*
X117131698Y-87190826D01*
X117320056Y-87112805D01*
X117489574Y-86999537D01*
X117633737Y-86855374D01*
X117747005Y-86685856D01*
X117825026Y-86497498D01*
X117864800Y-86297539D01*
X117864800Y-86093661D01*
X117827709Y-85907192D01*
X118080040Y-85654861D01*
X123833200Y-85654861D01*
X123833200Y-85858739D01*
X123872974Y-86058698D01*
X123950995Y-86247056D01*
X124064263Y-86416574D01*
X124208426Y-86560737D01*
X124377944Y-86674005D01*
X124566302Y-86752026D01*
X124766261Y-86791800D01*
X124970139Y-86791800D01*
X125170098Y-86752026D01*
X125358456Y-86674005D01*
X125527974Y-86560737D01*
X125672137Y-86416574D01*
X125785405Y-86247056D01*
X125863426Y-86058698D01*
X125903200Y-85858739D01*
X125903200Y-85654861D01*
X125863426Y-85454902D01*
X125785405Y-85266544D01*
X125672137Y-85097026D01*
X125527974Y-84952863D01*
X125358456Y-84839595D01*
X125170098Y-84761574D01*
X124970139Y-84721800D01*
X124766261Y-84721800D01*
X124566302Y-84761574D01*
X124377944Y-84839595D01*
X124208426Y-84952863D01*
X124064263Y-85097026D01*
X123950995Y-85266544D01*
X123872974Y-85454902D01*
X123833200Y-85654861D01*
X118080040Y-85654861D01*
X119858895Y-83876006D01*
X119906426Y-83923537D01*
X120075944Y-84036805D01*
X120264302Y-84114826D01*
X120464261Y-84154600D01*
X120668139Y-84154600D01*
X120868098Y-84114826D01*
X121056456Y-84036805D01*
X121225974Y-83923537D01*
X121370137Y-83779374D01*
X121483405Y-83609856D01*
X121561426Y-83421498D01*
X121601200Y-83221539D01*
X121601200Y-83017661D01*
X121561426Y-82817702D01*
X121483405Y-82629344D01*
X121370137Y-82459826D01*
X121322606Y-82412295D01*
X122268699Y-81466202D01*
X122306074Y-81654098D01*
X122384095Y-81842456D01*
X122497363Y-82011974D01*
X122641526Y-82156137D01*
X122811044Y-82269405D01*
X122999402Y-82347426D01*
X123199361Y-82387200D01*
X123403239Y-82387200D01*
X123603198Y-82347426D01*
X123791556Y-82269405D01*
X123961074Y-82156137D01*
X124105237Y-82011974D01*
X124218505Y-81842456D01*
X124296526Y-81654098D01*
X124336300Y-81454139D01*
X124336300Y-81250261D01*
X124296526Y-81050302D01*
X124218505Y-80861944D01*
X124105237Y-80692426D01*
X123961074Y-80548263D01*
X123791556Y-80434995D01*
X123603198Y-80356974D01*
X123415302Y-80319600D01*
X124682703Y-79052199D01*
X124711701Y-79028401D01*
X124806674Y-78912676D01*
X124877246Y-78780647D01*
X124920703Y-78637386D01*
X124931700Y-78525733D01*
X124935377Y-78488400D01*
X124931700Y-78451067D01*
X124931700Y-72859361D01*
X136310300Y-72859361D01*
X136310300Y-73063239D01*
X136350074Y-73263198D01*
X136428095Y-73451556D01*
X136541363Y-73621074D01*
X136685526Y-73765237D01*
X136855044Y-73878505D01*
X137043402Y-73956526D01*
X137243361Y-73996300D01*
X137447239Y-73996300D01*
X137647198Y-73956526D01*
X137835556Y-73878505D01*
X138005074Y-73765237D01*
X138149237Y-73621074D01*
X138262505Y-73451556D01*
X138340526Y-73263198D01*
X138380300Y-73063239D01*
X138380300Y-72859361D01*
X138340526Y-72659402D01*
X138262505Y-72471044D01*
X138149237Y-72301526D01*
X138005074Y-72157363D01*
X137835556Y-72044095D01*
X137647198Y-71966074D01*
X137447239Y-71926300D01*
X137243361Y-71926300D01*
X137043402Y-71966074D01*
X136855044Y-72044095D01*
X136685526Y-72157363D01*
X136541363Y-72301526D01*
X136428095Y-72471044D01*
X136350074Y-72659402D01*
X136310300Y-72859361D01*
X124931700Y-72859361D01*
X124931700Y-69425761D01*
X135112000Y-69425761D01*
X135112000Y-69629639D01*
X135151774Y-69829598D01*
X135229795Y-70017956D01*
X135343063Y-70187474D01*
X135487226Y-70331637D01*
X135656744Y-70444905D01*
X135845102Y-70522926D01*
X136045061Y-70562700D01*
X136248939Y-70562700D01*
X136448898Y-70522926D01*
X136637256Y-70444905D01*
X136806774Y-70331637D01*
X136950937Y-70187474D01*
X137064205Y-70017956D01*
X137142226Y-69829598D01*
X137182000Y-69629639D01*
X137182000Y-69425761D01*
X137142226Y-69225802D01*
X137064205Y-69037444D01*
X136950937Y-68867926D01*
X136806774Y-68723763D01*
X136637256Y-68610495D01*
X136448898Y-68532474D01*
X136248939Y-68492700D01*
X136045061Y-68492700D01*
X135845102Y-68532474D01*
X135656744Y-68610495D01*
X135487226Y-68723763D01*
X135343063Y-68867926D01*
X135229795Y-69037444D01*
X135151774Y-69225802D01*
X135112000Y-69425761D01*
X124931700Y-69425761D01*
X124931700Y-63654061D01*
X125167680Y-63701000D01*
X125452320Y-63701000D01*
X125731491Y-63645470D01*
X125994464Y-63536543D01*
X126231134Y-63378405D01*
X126432405Y-63177134D01*
X126580000Y-62956243D01*
X126727595Y-63177134D01*
X126928866Y-63378405D01*
X127165536Y-63536543D01*
X127428509Y-63645470D01*
X127707680Y-63701000D01*
X127992320Y-63701000D01*
X128271491Y-63645470D01*
X128534464Y-63536543D01*
X128771134Y-63378405D01*
X128972405Y-63177134D01*
X129120000Y-62956243D01*
X129267595Y-63177134D01*
X129468866Y-63378405D01*
X129705536Y-63536543D01*
X129968509Y-63645470D01*
X130247680Y-63701000D01*
X130532320Y-63701000D01*
X130811491Y-63645470D01*
X131074464Y-63536543D01*
X131311134Y-63378405D01*
X131512405Y-63177134D01*
X131660000Y-62956243D01*
X131807595Y-63177134D01*
X132008866Y-63378405D01*
X132245536Y-63536543D01*
X132508509Y-63645470D01*
X132787680Y-63701000D01*
X133072320Y-63701000D01*
X133351491Y-63645470D01*
X133614464Y-63536543D01*
X133851134Y-63378405D01*
X134052405Y-63177134D01*
X134200000Y-62956243D01*
X134347595Y-63177134D01*
X134548866Y-63378405D01*
X134785536Y-63536543D01*
X135048509Y-63645470D01*
X135327680Y-63701000D01*
X135612320Y-63701000D01*
X135891491Y-63645470D01*
X136154464Y-63536543D01*
X136391134Y-63378405D01*
X136592405Y-63177134D01*
X136740000Y-62956243D01*
X136887595Y-63177134D01*
X137088866Y-63378405D01*
X137325536Y-63536543D01*
X137588509Y-63645470D01*
X137867680Y-63701000D01*
X138152320Y-63701000D01*
X138385400Y-63654638D01*
X138385401Y-74896296D01*
X134965057Y-78316642D01*
X134925426Y-78117402D01*
X134847405Y-77929044D01*
X134734137Y-77759526D01*
X134589974Y-77615363D01*
X134420456Y-77502095D01*
X134232098Y-77424074D01*
X134032139Y-77384300D01*
X133828261Y-77384300D01*
X133628302Y-77424074D01*
X133439944Y-77502095D01*
X133270426Y-77615363D01*
X133126263Y-77759526D01*
X133012995Y-77929044D01*
X132934974Y-78117402D01*
X132895200Y-78317361D01*
X132895200Y-78521239D01*
X132934974Y-78721198D01*
X133012995Y-78909556D01*
X133126263Y-79079074D01*
X133270426Y-79223237D01*
X133439944Y-79336505D01*
X133628302Y-79414526D01*
X133828261Y-79454300D01*
X133837046Y-79454300D01*
X133810026Y-79487224D01*
X133766903Y-79567900D01*
X133617661Y-79567900D01*
X133417702Y-79607674D01*
X133229344Y-79685695D01*
X133059826Y-79798963D01*
X132915663Y-79943126D01*
X132802395Y-80112644D01*
X132724374Y-80301002D01*
X132684600Y-80500961D01*
X132684600Y-80704839D01*
X132724374Y-80904798D01*
X132802395Y-81093156D01*
X132915663Y-81262674D01*
X133059826Y-81406837D01*
X133229344Y-81520105D01*
X133417702Y-81598126D01*
X133617661Y-81637900D01*
X133685000Y-81637900D01*
X133685000Y-81708400D01*
X133529261Y-81708400D01*
X133329302Y-81748174D01*
X133140944Y-81826195D01*
X132971426Y-81939463D01*
X132827263Y-82083626D01*
X132713995Y-82253144D01*
X132635974Y-82441502D01*
X132596200Y-82641461D01*
X132596200Y-82845339D01*
X132635974Y-83045298D01*
X132713995Y-83233656D01*
X132827263Y-83403174D01*
X132971426Y-83547337D01*
X133140944Y-83660605D01*
X133329302Y-83738626D01*
X133529261Y-83778400D01*
X133685001Y-83778400D01*
X133685001Y-83827100D01*
X133644161Y-83827100D01*
X133444202Y-83866874D01*
X133255844Y-83944895D01*
X133086326Y-84058163D01*
X132942163Y-84202326D01*
X132828895Y-84371844D01*
X132750874Y-84560202D01*
X132711100Y-84760161D01*
X132711100Y-84964039D01*
X132750874Y-85163998D01*
X132828895Y-85352356D01*
X132942163Y-85521874D01*
X132965734Y-85545445D01*
X132953574Y-85574802D01*
X132913800Y-85774761D01*
X132913800Y-85978639D01*
X132953574Y-86178598D01*
X133031595Y-86366956D01*
X133144863Y-86536474D01*
X133213057Y-86604668D01*
X133176300Y-86789461D01*
X133176300Y-86993339D01*
X133216074Y-87193298D01*
X133294095Y-87381656D01*
X133407363Y-87551174D01*
X133551526Y-87695337D01*
X133721044Y-87808605D01*
X133909402Y-87886626D01*
X134109361Y-87926400D01*
X134313239Y-87926400D01*
X134513198Y-87886626D01*
X134701556Y-87808605D01*
X134871074Y-87695337D01*
X135015237Y-87551174D01*
X135128505Y-87381656D01*
X135206526Y-87193298D01*
X135246300Y-86993339D01*
X135246300Y-86789461D01*
X135206526Y-86589502D01*
X135128505Y-86401144D01*
X135015237Y-86231626D01*
X134947043Y-86163432D01*
X134983800Y-85978639D01*
X134983800Y-85774761D01*
X134944026Y-85574802D01*
X134866005Y-85386444D01*
X134752737Y-85216926D01*
X134729166Y-85193355D01*
X134741326Y-85163998D01*
X134781100Y-84964039D01*
X134781100Y-84901902D01*
X134956002Y-84726999D01*
X134985001Y-84703201D01*
X134996687Y-84688961D01*
X143255200Y-84688961D01*
X143255200Y-84892839D01*
X143294974Y-85092798D01*
X143372995Y-85281156D01*
X143486263Y-85450674D01*
X143590716Y-85555127D01*
X143483195Y-85716044D01*
X143405174Y-85904402D01*
X143365400Y-86104361D01*
X143365400Y-86308239D01*
X143405174Y-86508198D01*
X143483195Y-86696556D01*
X143596463Y-86866074D01*
X143740626Y-87010237D01*
X143910144Y-87123505D01*
X144098502Y-87201526D01*
X144298461Y-87241300D01*
X144502339Y-87241300D01*
X144702298Y-87201526D01*
X144890656Y-87123505D01*
X145060174Y-87010237D01*
X145204337Y-86866074D01*
X145317605Y-86696556D01*
X145367184Y-86576861D01*
X151148900Y-86576861D01*
X151148900Y-86780739D01*
X151188674Y-86980698D01*
X151266695Y-87169056D01*
X151379963Y-87338574D01*
X151524126Y-87482737D01*
X151693644Y-87596005D01*
X151882002Y-87674026D01*
X152081961Y-87713800D01*
X152285839Y-87713800D01*
X152485798Y-87674026D01*
X152674156Y-87596005D01*
X152843674Y-87482737D01*
X152987837Y-87338574D01*
X153101105Y-87169056D01*
X153179126Y-86980698D01*
X153218900Y-86780739D01*
X153218900Y-86576861D01*
X153179126Y-86376902D01*
X153114829Y-86221676D01*
X153223156Y-86176805D01*
X153392674Y-86063537D01*
X153536837Y-85919374D01*
X153650105Y-85749856D01*
X153728126Y-85561498D01*
X153767900Y-85361539D01*
X153767900Y-85157661D01*
X153728126Y-84957702D01*
X153650105Y-84769344D01*
X153536837Y-84599826D01*
X153392674Y-84455663D01*
X153223156Y-84342395D01*
X153034798Y-84264374D01*
X152834839Y-84224600D01*
X152630961Y-84224600D01*
X152431002Y-84264374D01*
X152242644Y-84342395D01*
X152073126Y-84455663D01*
X151928963Y-84599826D01*
X151815695Y-84769344D01*
X151737674Y-84957702D01*
X151697900Y-85157661D01*
X151697900Y-85361539D01*
X151737674Y-85561498D01*
X151801971Y-85716724D01*
X151693644Y-85761595D01*
X151524126Y-85874863D01*
X151379963Y-86019026D01*
X151266695Y-86188544D01*
X151188674Y-86376902D01*
X151148900Y-86576861D01*
X145367184Y-86576861D01*
X145395626Y-86508198D01*
X145435400Y-86308239D01*
X145435400Y-86104361D01*
X145395626Y-85904402D01*
X145317605Y-85716044D01*
X145204337Y-85546526D01*
X145099884Y-85442073D01*
X145207405Y-85281156D01*
X145285426Y-85092798D01*
X145325200Y-84892839D01*
X145325200Y-84688961D01*
X145285426Y-84489002D01*
X145207405Y-84300644D01*
X145094137Y-84131126D01*
X144949974Y-83986963D01*
X144780456Y-83873695D01*
X144592098Y-83795674D01*
X144392139Y-83755900D01*
X144188261Y-83755900D01*
X143988302Y-83795674D01*
X143799944Y-83873695D01*
X143630426Y-83986963D01*
X143486263Y-84131126D01*
X143372995Y-84300644D01*
X143294974Y-84489002D01*
X143255200Y-84688961D01*
X134996687Y-84688961D01*
X135079974Y-84587476D01*
X135150546Y-84455447D01*
X135194003Y-84312186D01*
X135205000Y-84200533D01*
X135205000Y-84200523D01*
X135208676Y-84163200D01*
X135205000Y-84125877D01*
X135205000Y-81246900D01*
X135272239Y-81246900D01*
X135472198Y-81207126D01*
X135660556Y-81129105D01*
X135830074Y-81015837D01*
X135974237Y-80871674D01*
X136087505Y-80702156D01*
X136165526Y-80513798D01*
X136205300Y-80313839D01*
X136205300Y-80109961D01*
X136165526Y-79910002D01*
X136087505Y-79721644D01*
X135974237Y-79552126D01*
X135926706Y-79504595D01*
X138193441Y-77237861D01*
X138668400Y-77237861D01*
X138668400Y-77441739D01*
X138708174Y-77641698D01*
X138786195Y-77830056D01*
X138899463Y-77999574D01*
X139043626Y-78143737D01*
X139213144Y-78257005D01*
X139401502Y-78335026D01*
X139601461Y-78374800D01*
X139805339Y-78374800D01*
X140005298Y-78335026D01*
X140193656Y-78257005D01*
X140363174Y-78143737D01*
X140507337Y-77999574D01*
X140620605Y-77830056D01*
X140698626Y-77641698D01*
X140738400Y-77441739D01*
X140738400Y-77237861D01*
X140698626Y-77037902D01*
X140620605Y-76849544D01*
X140507337Y-76680026D01*
X140363174Y-76535863D01*
X140193656Y-76422595D01*
X140005298Y-76344574D01*
X139805339Y-76304800D01*
X139601461Y-76304800D01*
X139401502Y-76344574D01*
X139213144Y-76422595D01*
X139043626Y-76535863D01*
X138899463Y-76680026D01*
X138786195Y-76849544D01*
X138708174Y-77037902D01*
X138668400Y-77237861D01*
X138193441Y-77237861D01*
X139656408Y-75774895D01*
X139685401Y-75751101D01*
X139709195Y-75722108D01*
X139709199Y-75722104D01*
X139780373Y-75635377D01*
X139780374Y-75635376D01*
X139850946Y-75503347D01*
X139894403Y-75360086D01*
X139905400Y-75248433D01*
X139905400Y-75248424D01*
X139909076Y-75211101D01*
X139905400Y-75173778D01*
X139905400Y-63553055D01*
X140128509Y-63645470D01*
X140407680Y-63701000D01*
X140692320Y-63701000D01*
X140971491Y-63645470D01*
X141194600Y-63553055D01*
X141194600Y-69354178D01*
X141190924Y-69391500D01*
X141194600Y-69428822D01*
X141194600Y-69428832D01*
X141205597Y-69540485D01*
X141232641Y-69629639D01*
X141249054Y-69683746D01*
X141307301Y-69792718D01*
X141307300Y-78212540D01*
X141297356Y-78205895D01*
X141108998Y-78127874D01*
X140909039Y-78088100D01*
X140705161Y-78088100D01*
X140505202Y-78127874D01*
X140316844Y-78205895D01*
X140147326Y-78319163D01*
X140003163Y-78463326D01*
X139889895Y-78632844D01*
X139811874Y-78821202D01*
X139772100Y-79021161D01*
X139772100Y-79225039D01*
X139811874Y-79424998D01*
X139889895Y-79613356D01*
X140003163Y-79782874D01*
X140147326Y-79927037D01*
X140316844Y-80040305D01*
X140505202Y-80118326D01*
X140705161Y-80158100D01*
X140909039Y-80158100D01*
X141108998Y-80118326D01*
X141297356Y-80040305D01*
X141307300Y-80033661D01*
X141307300Y-82174443D01*
X141225702Y-82190674D01*
X141037344Y-82268695D01*
X140867826Y-82381963D01*
X140723663Y-82526126D01*
X140610395Y-82695644D01*
X140532374Y-82884002D01*
X140492600Y-83083961D01*
X140492600Y-83287839D01*
X140532374Y-83487798D01*
X140610395Y-83676156D01*
X140723663Y-83845674D01*
X140867826Y-83989837D01*
X141037344Y-84103105D01*
X141225702Y-84181126D01*
X141425661Y-84220900D01*
X141629539Y-84220900D01*
X141829498Y-84181126D01*
X142017856Y-84103105D01*
X142187374Y-83989837D01*
X142331537Y-83845674D01*
X142444805Y-83676156D01*
X142522826Y-83487798D01*
X142562600Y-83287839D01*
X142562600Y-83225702D01*
X142578303Y-83209998D01*
X142607301Y-83186201D01*
X142640470Y-83145785D01*
X142702274Y-83070477D01*
X142772846Y-82938447D01*
X142786067Y-82894861D01*
X142816303Y-82795186D01*
X142827300Y-82683533D01*
X142827300Y-82683524D01*
X142830976Y-82646201D01*
X142827300Y-82608878D01*
X142827300Y-77422761D01*
X144117600Y-77422761D01*
X144117600Y-77626639D01*
X144157374Y-77826598D01*
X144235395Y-78014956D01*
X144348663Y-78184474D01*
X144492826Y-78328637D01*
X144662344Y-78441905D01*
X144850702Y-78519926D01*
X145050661Y-78559700D01*
X145254539Y-78559700D01*
X145454498Y-78519926D01*
X145642856Y-78441905D01*
X145812374Y-78328637D01*
X145956537Y-78184474D01*
X146069805Y-78014956D01*
X146147826Y-77826598D01*
X146187600Y-77626639D01*
X146187600Y-77422761D01*
X146147826Y-77222802D01*
X146069805Y-77034444D01*
X145956537Y-76864926D01*
X145812374Y-76720763D01*
X145642856Y-76607495D01*
X145454498Y-76529474D01*
X145254539Y-76489700D01*
X145050661Y-76489700D01*
X144850702Y-76529474D01*
X144662344Y-76607495D01*
X144492826Y-76720763D01*
X144348663Y-76864926D01*
X144235395Y-77034444D01*
X144157374Y-77222802D01*
X144117600Y-77422761D01*
X142827300Y-77422761D01*
X142827300Y-69541523D01*
X142830976Y-69504200D01*
X142827300Y-69466878D01*
X142827300Y-69466867D01*
X142816303Y-69355214D01*
X142772846Y-69211953D01*
X142714600Y-69102984D01*
X142714600Y-63654638D01*
X142947680Y-63701000D01*
X143232320Y-63701000D01*
X143511491Y-63645470D01*
X143774464Y-63536543D01*
X144011134Y-63378405D01*
X144212405Y-63177134D01*
X144360000Y-62956243D01*
X144507595Y-63177134D01*
X144708866Y-63378405D01*
X144945536Y-63536543D01*
X145208509Y-63645470D01*
X145487680Y-63701000D01*
X145772320Y-63701000D01*
X146051491Y-63645470D01*
X146314464Y-63536543D01*
X146551134Y-63378405D01*
X146752405Y-63177134D01*
X146900000Y-62956243D01*
X147047595Y-63177134D01*
X147248866Y-63378405D01*
X147485536Y-63536543D01*
X147748509Y-63645470D01*
X148027680Y-63701000D01*
X148312320Y-63701000D01*
X148545400Y-63654638D01*
X148545401Y-80084467D01*
X148541724Y-80121800D01*
X148556398Y-80270785D01*
X148599854Y-80414046D01*
X148670426Y-80546076D01*
X148741023Y-80632098D01*
X148765400Y-80661801D01*
X148794398Y-80685599D01*
X151145400Y-83036602D01*
X151145400Y-83098739D01*
X151185174Y-83298698D01*
X151263195Y-83487056D01*
X151376463Y-83656574D01*
X151520626Y-83800737D01*
X151690144Y-83914005D01*
X151878502Y-83992026D01*
X152078461Y-84031800D01*
X152282339Y-84031800D01*
X152482298Y-83992026D01*
X152670656Y-83914005D01*
X152840174Y-83800737D01*
X152984337Y-83656574D01*
X153033097Y-83583599D01*
X154921976Y-85472478D01*
X154892600Y-85620161D01*
X154892600Y-85824039D01*
X154932374Y-86023998D01*
X155010395Y-86212356D01*
X155123663Y-86381874D01*
X155267826Y-86526037D01*
X155437344Y-86639305D01*
X155625702Y-86717326D01*
X155825661Y-86757100D01*
X156029539Y-86757100D01*
X156229498Y-86717326D01*
X156417856Y-86639305D01*
X156587374Y-86526037D01*
X156731537Y-86381874D01*
X156844805Y-86212356D01*
X156922826Y-86023998D01*
X156962600Y-85824039D01*
X156962600Y-85620161D01*
X156922826Y-85420202D01*
X156844805Y-85231844D01*
X156731537Y-85062326D01*
X156587374Y-84918163D01*
X156417856Y-84804895D01*
X156394197Y-84795095D01*
X154009206Y-82410105D01*
X154056737Y-82362574D01*
X154170005Y-82193056D01*
X154248026Y-82004698D01*
X154287800Y-81804739D01*
X154287800Y-81600861D01*
X154248026Y-81400902D01*
X154170005Y-81212544D01*
X154056737Y-81043026D01*
X153951106Y-80937395D01*
X153985526Y-80854298D01*
X154025300Y-80654339D01*
X154025300Y-80450461D01*
X153985526Y-80250502D01*
X153910024Y-80068225D01*
X157747143Y-83905346D01*
X157699563Y-83952926D01*
X157586295Y-84122444D01*
X157508274Y-84310802D01*
X157468500Y-84510761D01*
X157468500Y-84714639D01*
X157508274Y-84914598D01*
X157586295Y-85102956D01*
X157699563Y-85272474D01*
X157843726Y-85416637D01*
X158013244Y-85529905D01*
X158201602Y-85607926D01*
X158401561Y-85647700D01*
X158605439Y-85647700D01*
X158778318Y-85613312D01*
X158809363Y-85659774D01*
X158953526Y-85803937D01*
X159123044Y-85917205D01*
X159311402Y-85995226D01*
X159511361Y-86035000D01*
X159715239Y-86035000D01*
X159915198Y-85995226D01*
X160103556Y-85917205D01*
X160273074Y-85803937D01*
X160417237Y-85659774D01*
X160530505Y-85490256D01*
X160608526Y-85301898D01*
X160648300Y-85101939D01*
X160648300Y-84898061D01*
X160608526Y-84698102D01*
X160530505Y-84509744D01*
X160417237Y-84340226D01*
X160273074Y-84196063D01*
X160103556Y-84082795D01*
X160053438Y-84062035D01*
X156788126Y-80796724D01*
X156965856Y-80723105D01*
X157135374Y-80609837D01*
X157279537Y-80465674D01*
X157392805Y-80296156D01*
X157470826Y-80107798D01*
X157510600Y-79907839D01*
X157510600Y-79703961D01*
X157470826Y-79504002D01*
X157392805Y-79315644D01*
X157279537Y-79146126D01*
X157135374Y-79001963D01*
X156965856Y-78888695D01*
X156777498Y-78810674D01*
X156577539Y-78770900D01*
X156373661Y-78770900D01*
X156173702Y-78810674D01*
X155985344Y-78888695D01*
X155815826Y-79001963D01*
X155671663Y-79146126D01*
X155558395Y-79315644D01*
X155484776Y-79493375D01*
X154815900Y-78824499D01*
X154815900Y-77179161D01*
X156440900Y-77179161D01*
X156440900Y-77383039D01*
X156480674Y-77582998D01*
X156558695Y-77771356D01*
X156671963Y-77940874D01*
X156816126Y-78085037D01*
X156985644Y-78198305D01*
X157174002Y-78276326D01*
X157373961Y-78316100D01*
X157577839Y-78316100D01*
X157777798Y-78276326D01*
X157966156Y-78198305D01*
X158135674Y-78085037D01*
X158279837Y-77940874D01*
X158393105Y-77771356D01*
X158471126Y-77582998D01*
X158510900Y-77383039D01*
X158510900Y-77192461D01*
X158878100Y-77192461D01*
X158878100Y-77396339D01*
X158917874Y-77596298D01*
X158995895Y-77784656D01*
X159109163Y-77954174D01*
X159253326Y-78098337D01*
X159422844Y-78211605D01*
X159611202Y-78289626D01*
X159811161Y-78329400D01*
X160015039Y-78329400D01*
X160214998Y-78289626D01*
X160403356Y-78211605D01*
X160572874Y-78098337D01*
X160717037Y-77954174D01*
X160830305Y-77784656D01*
X160908326Y-77596298D01*
X160948100Y-77396339D01*
X160948100Y-77192461D01*
X160908326Y-76992502D01*
X160830305Y-76804144D01*
X160717037Y-76634626D01*
X160572874Y-76490463D01*
X160403356Y-76377195D01*
X160214998Y-76299174D01*
X160015039Y-76259400D01*
X159811161Y-76259400D01*
X159611202Y-76299174D01*
X159422844Y-76377195D01*
X159253326Y-76490463D01*
X159109163Y-76634626D01*
X158995895Y-76804144D01*
X158917874Y-76992502D01*
X158878100Y-77192461D01*
X158510900Y-77192461D01*
X158510900Y-77179161D01*
X158471126Y-76979202D01*
X158393105Y-76790844D01*
X158279837Y-76621326D01*
X158135674Y-76477163D01*
X157966156Y-76363895D01*
X157777798Y-76285874D01*
X157577839Y-76246100D01*
X157373961Y-76246100D01*
X157174002Y-76285874D01*
X156985644Y-76363895D01*
X156816126Y-76477163D01*
X156671963Y-76621326D01*
X156558695Y-76790844D01*
X156480674Y-76979202D01*
X156440900Y-77179161D01*
X154815900Y-77179161D01*
X154815900Y-75721100D01*
X154883139Y-75721100D01*
X155083098Y-75681326D01*
X155271456Y-75603305D01*
X155440974Y-75490037D01*
X155585137Y-75345874D01*
X155698405Y-75176356D01*
X155776426Y-74987998D01*
X155816200Y-74788039D01*
X155816200Y-74584161D01*
X155776426Y-74384202D01*
X155698405Y-74195844D01*
X155585137Y-74026326D01*
X155541200Y-73982389D01*
X155541200Y-69383039D01*
X155587844Y-69414205D01*
X155776202Y-69492226D01*
X155976161Y-69532000D01*
X156180039Y-69532000D01*
X156379998Y-69492226D01*
X156568356Y-69414205D01*
X156737874Y-69300937D01*
X156882037Y-69156774D01*
X156995305Y-68987256D01*
X157073326Y-68798898D01*
X157113100Y-68598939D01*
X157113100Y-68395061D01*
X157073326Y-68195102D01*
X157008360Y-68038261D01*
X160433500Y-68038261D01*
X160433500Y-68242139D01*
X160473274Y-68442098D01*
X160551295Y-68630456D01*
X160664563Y-68799974D01*
X160808726Y-68944137D01*
X160978244Y-69057405D01*
X161166602Y-69135426D01*
X161366561Y-69175200D01*
X161570439Y-69175200D01*
X161770398Y-69135426D01*
X161958756Y-69057405D01*
X162128274Y-68944137D01*
X162272437Y-68799974D01*
X162385705Y-68630456D01*
X162463726Y-68442098D01*
X162503500Y-68242139D01*
X162503500Y-68038261D01*
X162463726Y-67838302D01*
X162385705Y-67649944D01*
X162272437Y-67480426D01*
X162128274Y-67336263D01*
X161958756Y-67222995D01*
X161770398Y-67144974D01*
X161570439Y-67105200D01*
X161366561Y-67105200D01*
X161166602Y-67144974D01*
X160978244Y-67222995D01*
X160808726Y-67336263D01*
X160664563Y-67480426D01*
X160551295Y-67649944D01*
X160473274Y-67838302D01*
X160433500Y-68038261D01*
X157008360Y-68038261D01*
X156995305Y-68006744D01*
X156882037Y-67837226D01*
X156737874Y-67693063D01*
X156599918Y-67600884D01*
X160537609Y-63663193D01*
X160727680Y-63701000D01*
X161012320Y-63701000D01*
X161291491Y-63645470D01*
X161554464Y-63536543D01*
X161791134Y-63378405D01*
X161992405Y-63177134D01*
X162140000Y-62956243D01*
X162287595Y-63177134D01*
X162488866Y-63378405D01*
X162725536Y-63536543D01*
X162988509Y-63645470D01*
X163267680Y-63701000D01*
X163552320Y-63701000D01*
X163831491Y-63645470D01*
X164094464Y-63536543D01*
X164331134Y-63378405D01*
X164532405Y-63177134D01*
X164680000Y-62956243D01*
X164827595Y-63177134D01*
X165028866Y-63378405D01*
X165265536Y-63536543D01*
X165528509Y-63645470D01*
X165807680Y-63701000D01*
X166092320Y-63701000D01*
X166371491Y-63645470D01*
X166594600Y-63553055D01*
X166594601Y-82851167D01*
X166590924Y-82888500D01*
X166605598Y-83037485D01*
X166649054Y-83180746D01*
X166719626Y-83312776D01*
X166787273Y-83395203D01*
X166814600Y-83428501D01*
X166843598Y-83452299D01*
X169102700Y-85711402D01*
X169102700Y-85716539D01*
X169142474Y-85916498D01*
X169220495Y-86104856D01*
X169333763Y-86274374D01*
X169477926Y-86418537D01*
X169647444Y-86531805D01*
X169835802Y-86609826D01*
X170035761Y-86649600D01*
X170239639Y-86649600D01*
X170439598Y-86609826D01*
X170627956Y-86531805D01*
X170720512Y-86469961D01*
X177204900Y-86469961D01*
X177204900Y-86673839D01*
X177244674Y-86873798D01*
X177322695Y-87062156D01*
X177435963Y-87231674D01*
X177580126Y-87375837D01*
X177749644Y-87489105D01*
X177938002Y-87567126D01*
X178137961Y-87606900D01*
X178341839Y-87606900D01*
X178541798Y-87567126D01*
X178711939Y-87496651D01*
X178733895Y-87549656D01*
X178847163Y-87719174D01*
X178991326Y-87863337D01*
X179160844Y-87976605D01*
X179349202Y-88054626D01*
X179549161Y-88094400D01*
X179753039Y-88094400D01*
X179952998Y-88054626D01*
X180141356Y-87976605D01*
X180310874Y-87863337D01*
X180455037Y-87719174D01*
X180568305Y-87549656D01*
X180646326Y-87361298D01*
X180686100Y-87161339D01*
X180686100Y-86957461D01*
X180646326Y-86757502D01*
X180568305Y-86569144D01*
X180455037Y-86399626D01*
X180310874Y-86255463D01*
X180141356Y-86142195D01*
X179952998Y-86064174D01*
X179753039Y-86024400D01*
X179549161Y-86024400D01*
X179349202Y-86064174D01*
X179179061Y-86134649D01*
X179157105Y-86081644D01*
X179043837Y-85912126D01*
X178899674Y-85767963D01*
X178730156Y-85654695D01*
X178541798Y-85576674D01*
X178341839Y-85536900D01*
X178137961Y-85536900D01*
X177938002Y-85576674D01*
X177749644Y-85654695D01*
X177580126Y-85767963D01*
X177435963Y-85912126D01*
X177322695Y-86081644D01*
X177244674Y-86270002D01*
X177204900Y-86469961D01*
X170720512Y-86469961D01*
X170797474Y-86418537D01*
X170941637Y-86274374D01*
X171054905Y-86104856D01*
X171132926Y-85916498D01*
X171172700Y-85716539D01*
X171172700Y-85512661D01*
X171132926Y-85312702D01*
X171054905Y-85124344D01*
X170941637Y-84954826D01*
X170797474Y-84810663D01*
X170675498Y-84729161D01*
X179853500Y-84729161D01*
X179853500Y-84933039D01*
X179893274Y-85132998D01*
X179971295Y-85321356D01*
X180084563Y-85490874D01*
X180228726Y-85635037D01*
X180398244Y-85748305D01*
X180586602Y-85826326D01*
X180786561Y-85866100D01*
X180990439Y-85866100D01*
X181190398Y-85826326D01*
X181378756Y-85748305D01*
X181548274Y-85635037D01*
X181692437Y-85490874D01*
X181805705Y-85321356D01*
X181883726Y-85132998D01*
X181923500Y-84933039D01*
X181923500Y-84729161D01*
X181883726Y-84529202D01*
X181805705Y-84340844D01*
X181692437Y-84171326D01*
X181548274Y-84027163D01*
X181378756Y-83913895D01*
X181190398Y-83835874D01*
X180990439Y-83796100D01*
X180786561Y-83796100D01*
X180586602Y-83835874D01*
X180398244Y-83913895D01*
X180228726Y-84027163D01*
X180084563Y-84171326D01*
X179971295Y-84340844D01*
X179893274Y-84529202D01*
X179853500Y-84729161D01*
X170675498Y-84729161D01*
X170627956Y-84697395D01*
X170439598Y-84619374D01*
X170239639Y-84579600D01*
X170120502Y-84579600D01*
X168114600Y-82573699D01*
X168114600Y-81410961D01*
X169615000Y-81410961D01*
X169615000Y-81614839D01*
X169654774Y-81814798D01*
X169732795Y-82003156D01*
X169846063Y-82172674D01*
X169990226Y-82316837D01*
X170159744Y-82430105D01*
X170348102Y-82508126D01*
X170548061Y-82547900D01*
X170751939Y-82547900D01*
X170951898Y-82508126D01*
X171140256Y-82430105D01*
X171309774Y-82316837D01*
X171453937Y-82172674D01*
X171567205Y-82003156D01*
X171645226Y-81814798D01*
X171664348Y-81718661D01*
X178262300Y-81718661D01*
X178262300Y-81922539D01*
X178302074Y-82122498D01*
X178380095Y-82310856D01*
X178493363Y-82480374D01*
X178637526Y-82624537D01*
X178807044Y-82737805D01*
X178995402Y-82815826D01*
X179195361Y-82855600D01*
X179399239Y-82855600D01*
X179599198Y-82815826D01*
X179787556Y-82737805D01*
X179957074Y-82624537D01*
X180101237Y-82480374D01*
X180214505Y-82310856D01*
X180292526Y-82122498D01*
X180332300Y-81922539D01*
X180332300Y-81718661D01*
X180292526Y-81518702D01*
X180214505Y-81330344D01*
X180101237Y-81160826D01*
X179957074Y-81016663D01*
X179787556Y-80903395D01*
X179599198Y-80825374D01*
X179399239Y-80785600D01*
X179195361Y-80785600D01*
X178995402Y-80825374D01*
X178807044Y-80903395D01*
X178637526Y-81016663D01*
X178493363Y-81160826D01*
X178380095Y-81330344D01*
X178302074Y-81518702D01*
X178262300Y-81718661D01*
X171664348Y-81718661D01*
X171685000Y-81614839D01*
X171685000Y-81410961D01*
X171645226Y-81211002D01*
X171567205Y-81022644D01*
X171453937Y-80853126D01*
X171309774Y-80708963D01*
X171140256Y-80595695D01*
X170951898Y-80517674D01*
X170751939Y-80477900D01*
X170548061Y-80477900D01*
X170348102Y-80517674D01*
X170159744Y-80595695D01*
X169990226Y-80708963D01*
X169846063Y-80853126D01*
X169732795Y-81022644D01*
X169654774Y-81211002D01*
X169615000Y-81410961D01*
X168114600Y-81410961D01*
X168114600Y-76526961D01*
X172178400Y-76526961D01*
X172178400Y-76730839D01*
X172218174Y-76930798D01*
X172296195Y-77119156D01*
X172409463Y-77288674D01*
X172553626Y-77432837D01*
X172723144Y-77546105D01*
X172911502Y-77624126D01*
X173001404Y-77642008D01*
X172944944Y-77665395D01*
X172775426Y-77778663D01*
X172631263Y-77922826D01*
X172517995Y-78092344D01*
X172439974Y-78280702D01*
X172400200Y-78480661D01*
X172400200Y-78684539D01*
X172439974Y-78884498D01*
X172517995Y-79072856D01*
X172631263Y-79242374D01*
X172775426Y-79386537D01*
X172944944Y-79499805D01*
X173133302Y-79577826D01*
X173333261Y-79617600D01*
X173537139Y-79617600D01*
X173737098Y-79577826D01*
X173925456Y-79499805D01*
X174094974Y-79386537D01*
X174239137Y-79242374D01*
X174352405Y-79072856D01*
X174430426Y-78884498D01*
X174470200Y-78684539D01*
X174470200Y-78480661D01*
X174430426Y-78280702D01*
X174352405Y-78092344D01*
X174239137Y-77922826D01*
X174094974Y-77778663D01*
X173925456Y-77665395D01*
X173737098Y-77587374D01*
X173647196Y-77569492D01*
X173703656Y-77546105D01*
X173873174Y-77432837D01*
X174017337Y-77288674D01*
X174130605Y-77119156D01*
X174208626Y-76930798D01*
X174248400Y-76730839D01*
X174248400Y-76526961D01*
X174211689Y-76342400D01*
X174239339Y-76342400D01*
X174439298Y-76302626D01*
X174627656Y-76224605D01*
X174797174Y-76111337D01*
X174941337Y-75967174D01*
X175054605Y-75797656D01*
X175132626Y-75609298D01*
X175172400Y-75409339D01*
X175172400Y-75205461D01*
X175132626Y-75005502D01*
X175054605Y-74817144D01*
X174941337Y-74647626D01*
X174797174Y-74503463D01*
X174627656Y-74390195D01*
X174439298Y-74312174D01*
X174239339Y-74272400D01*
X174035461Y-74272400D01*
X173835502Y-74312174D01*
X173647144Y-74390195D01*
X173477626Y-74503463D01*
X173333463Y-74647626D01*
X173220195Y-74817144D01*
X173142174Y-75005502D01*
X173102400Y-75205461D01*
X173102400Y-75409339D01*
X173139111Y-75593900D01*
X173111461Y-75593900D01*
X172911502Y-75633674D01*
X172723144Y-75711695D01*
X172553626Y-75824963D01*
X172409463Y-75969126D01*
X172296195Y-76138644D01*
X172218174Y-76327002D01*
X172178400Y-76526961D01*
X168114600Y-76526961D01*
X168114600Y-65676661D01*
X170257500Y-65676661D01*
X170257500Y-65880539D01*
X170297274Y-66080498D01*
X170375295Y-66268856D01*
X170488563Y-66438374D01*
X170632726Y-66582537D01*
X170802244Y-66695805D01*
X170990602Y-66773826D01*
X170992530Y-66774210D01*
X170957495Y-66826644D01*
X170879474Y-67015002D01*
X170839700Y-67214961D01*
X170839700Y-67418839D01*
X170879474Y-67618798D01*
X170957495Y-67807156D01*
X171070763Y-67976674D01*
X171214926Y-68120837D01*
X171384444Y-68234105D01*
X171572802Y-68312126D01*
X171772761Y-68351900D01*
X171976639Y-68351900D01*
X172176598Y-68312126D01*
X172364956Y-68234105D01*
X172415029Y-68200647D01*
X172354695Y-68290944D01*
X172276674Y-68479302D01*
X172236900Y-68679261D01*
X172236900Y-68883139D01*
X172276674Y-69083098D01*
X172354695Y-69271456D01*
X172467963Y-69440974D01*
X172612126Y-69585137D01*
X172781644Y-69698405D01*
X172970002Y-69776426D01*
X173169961Y-69816200D01*
X173373839Y-69816200D01*
X173573798Y-69776426D01*
X173762156Y-69698405D01*
X173931674Y-69585137D01*
X174075837Y-69440974D01*
X174189105Y-69271456D01*
X174267126Y-69083098D01*
X174306900Y-68883139D01*
X174306900Y-68679261D01*
X174267126Y-68479302D01*
X174189105Y-68290944D01*
X174075837Y-68121426D01*
X173931674Y-67977263D01*
X173762156Y-67863995D01*
X173573798Y-67785974D01*
X173373839Y-67746200D01*
X173169961Y-67746200D01*
X172970002Y-67785974D01*
X172781644Y-67863995D01*
X172731571Y-67897453D01*
X172791905Y-67807156D01*
X172869926Y-67618798D01*
X172909700Y-67418839D01*
X172909700Y-67214961D01*
X172869926Y-67015002D01*
X172791905Y-66826644D01*
X172678637Y-66657126D01*
X172534474Y-66512963D01*
X172364956Y-66399695D01*
X172176598Y-66321674D01*
X172174670Y-66321290D01*
X172209705Y-66268856D01*
X172287726Y-66080498D01*
X172327500Y-65880539D01*
X172327500Y-65676661D01*
X172287726Y-65476702D01*
X172209705Y-65288344D01*
X172096437Y-65118826D01*
X171952274Y-64974663D01*
X171782756Y-64861395D01*
X171594398Y-64783374D01*
X171394439Y-64743600D01*
X171190561Y-64743600D01*
X170990602Y-64783374D01*
X170802244Y-64861395D01*
X170632726Y-64974663D01*
X170488563Y-65118826D01*
X170375295Y-65288344D01*
X170297274Y-65476702D01*
X170257500Y-65676661D01*
X168114600Y-65676661D01*
X168114600Y-63654638D01*
X168347680Y-63701000D01*
X168632320Y-63701000D01*
X168779615Y-63671702D01*
X168645726Y-63761163D01*
X168501563Y-63905326D01*
X168388295Y-64074844D01*
X168310274Y-64263202D01*
X168270500Y-64463161D01*
X168270500Y-64667039D01*
X168310274Y-64866998D01*
X168388295Y-65055356D01*
X168501563Y-65224874D01*
X168645726Y-65369037D01*
X168815244Y-65482305D01*
X169003602Y-65560326D01*
X169203561Y-65600100D01*
X169407439Y-65600100D01*
X169607398Y-65560326D01*
X169795756Y-65482305D01*
X169965274Y-65369037D01*
X170109437Y-65224874D01*
X170222705Y-65055356D01*
X170300726Y-64866998D01*
X170340500Y-64667039D01*
X170340500Y-64463161D01*
X170300726Y-64263202D01*
X170222705Y-64074844D01*
X170109437Y-63905326D01*
X169965274Y-63761163D01*
X169795756Y-63647895D01*
X169607398Y-63569874D01*
X169407439Y-63530100D01*
X169203561Y-63530100D01*
X169175860Y-63535610D01*
X169411134Y-63378405D01*
X169612405Y-63177134D01*
X169760000Y-62956243D01*
X169907595Y-63177134D01*
X170108866Y-63378405D01*
X170345536Y-63536543D01*
X170608509Y-63645470D01*
X170887680Y-63701000D01*
X171172320Y-63701000D01*
X171451491Y-63645470D01*
X171714464Y-63536543D01*
X171951134Y-63378405D01*
X172152405Y-63177134D01*
X172300000Y-62956243D01*
X172447595Y-63177134D01*
X172648866Y-63378405D01*
X172885536Y-63536543D01*
X173148509Y-63645470D01*
X173427680Y-63701000D01*
X173712320Y-63701000D01*
X173991491Y-63645470D01*
X174254464Y-63536543D01*
X174491134Y-63378405D01*
X174692405Y-63177134D01*
X174840000Y-62956243D01*
X174987595Y-63177134D01*
X175188866Y-63378405D01*
X175425536Y-63536543D01*
X175688509Y-63645470D01*
X175967680Y-63701000D01*
X176252320Y-63701000D01*
X176531491Y-63645470D01*
X176794464Y-63536543D01*
X177031134Y-63378405D01*
X177232405Y-63177134D01*
X177380000Y-62956243D01*
X177527595Y-63177134D01*
X177728866Y-63378405D01*
X177965536Y-63536543D01*
X178228509Y-63645470D01*
X178507680Y-63701000D01*
X178792320Y-63701000D01*
X179071491Y-63645470D01*
X179334464Y-63536543D01*
X179571134Y-63378405D01*
X179772405Y-63177134D01*
X179930543Y-62940464D01*
X180039470Y-62677491D01*
X180095000Y-62398320D01*
X180095000Y-62113680D01*
X180039470Y-61834509D01*
X179930543Y-61571536D01*
X179772405Y-61334866D01*
X179571134Y-61133595D01*
X179350243Y-60986000D01*
X179571134Y-60838405D01*
X179772405Y-60637134D01*
X179930543Y-60400464D01*
X180039470Y-60137491D01*
X180095000Y-59858320D01*
X180095000Y-59573680D01*
X180039470Y-59294509D01*
X179930543Y-59031536D01*
X179772405Y-58794866D01*
X179571134Y-58593595D01*
X179350243Y-58446000D01*
X179571134Y-58298405D01*
X179772405Y-58097134D01*
X179930543Y-57860464D01*
X180039470Y-57597491D01*
X180095000Y-57318320D01*
X180095000Y-57033680D01*
X180039470Y-56754509D01*
X179930543Y-56491536D01*
X179772405Y-56254866D01*
X179571134Y-56053595D01*
X179350243Y-55906000D01*
X179571134Y-55758405D01*
X179772405Y-55557134D01*
X179930543Y-55320464D01*
X180039470Y-55057491D01*
X180095000Y-54778320D01*
X180095000Y-54493680D01*
X180039470Y-54214509D01*
X179930543Y-53951536D01*
X179772405Y-53714866D01*
X179571134Y-53513595D01*
X179334464Y-53355457D01*
X179071491Y-53246530D01*
X178792320Y-53191000D01*
X178507680Y-53191000D01*
X178228509Y-53246530D01*
X177965536Y-53355457D01*
X177728866Y-53513595D01*
X177527595Y-53714866D01*
X177380000Y-53935757D01*
X177232405Y-53714866D01*
X177031134Y-53513595D01*
X176794464Y-53355457D01*
X176531491Y-53246530D01*
X176252320Y-53191000D01*
X175967680Y-53191000D01*
X175688509Y-53246530D01*
X175425536Y-53355457D01*
X175188866Y-53513595D01*
X174987595Y-53714866D01*
X174840000Y-53935757D01*
X174692405Y-53714866D01*
X174491134Y-53513595D01*
X174254464Y-53355457D01*
X173991491Y-53246530D01*
X173712320Y-53191000D01*
X173427680Y-53191000D01*
X173148509Y-53246530D01*
X172885536Y-53355457D01*
X172648866Y-53513595D01*
X172447595Y-53714866D01*
X172300000Y-53935757D01*
X172152405Y-53714866D01*
X171951134Y-53513595D01*
X171714464Y-53355457D01*
X171451491Y-53246530D01*
X171172320Y-53191000D01*
X170887680Y-53191000D01*
X170608509Y-53246530D01*
X170345536Y-53355457D01*
X170108866Y-53513595D01*
X169907595Y-53714866D01*
X169760000Y-53935757D01*
X169612405Y-53714866D01*
X169411134Y-53513595D01*
X169174464Y-53355457D01*
X168911491Y-53246530D01*
X168632320Y-53191000D01*
X168347680Y-53191000D01*
X168068509Y-53246530D01*
X167805536Y-53355457D01*
X167568866Y-53513595D01*
X167367595Y-53714866D01*
X167220000Y-53935757D01*
X167072405Y-53714866D01*
X166871134Y-53513595D01*
X166634464Y-53355457D01*
X166371491Y-53246530D01*
X166092320Y-53191000D01*
X165807680Y-53191000D01*
X165528509Y-53246530D01*
X165265536Y-53355457D01*
X165028866Y-53513595D01*
X164827595Y-53714866D01*
X164680000Y-53935757D01*
X164532405Y-53714866D01*
X164331134Y-53513595D01*
X164094464Y-53355457D01*
X163831491Y-53246530D01*
X163552320Y-53191000D01*
X163267680Y-53191000D01*
X162988509Y-53246530D01*
X162725536Y-53355457D01*
X162488866Y-53513595D01*
X162287595Y-53714866D01*
X162140000Y-53935757D01*
X161992405Y-53714866D01*
X161791134Y-53513595D01*
X161554464Y-53355457D01*
X161291491Y-53246530D01*
X161012320Y-53191000D01*
X160727680Y-53191000D01*
X160448509Y-53246530D01*
X160185536Y-53355457D01*
X159948866Y-53513595D01*
X159747595Y-53714866D01*
X159600000Y-53935757D01*
X159452405Y-53714866D01*
X159251134Y-53513595D01*
X159014464Y-53355457D01*
X158751491Y-53246530D01*
X158472320Y-53191000D01*
X158187680Y-53191000D01*
X157908509Y-53246530D01*
X157645536Y-53355457D01*
X157408866Y-53513595D01*
X157207595Y-53714866D01*
X157060000Y-53935757D01*
X156912405Y-53714866D01*
X156711134Y-53513595D01*
X156474464Y-53355457D01*
X156211491Y-53246530D01*
X155932320Y-53191000D01*
X155647680Y-53191000D01*
X155368509Y-53246530D01*
X155105536Y-53355457D01*
X154868866Y-53513595D01*
X154667595Y-53714866D01*
X154520000Y-53935757D01*
X154372405Y-53714866D01*
X154171134Y-53513595D01*
X153934464Y-53355457D01*
X153671491Y-53246530D01*
X153392320Y-53191000D01*
X153107680Y-53191000D01*
X152828509Y-53246530D01*
X152565536Y-53355457D01*
X152328866Y-53513595D01*
X152127595Y-53714866D01*
X151980000Y-53935757D01*
X151832405Y-53714866D01*
X151631134Y-53513595D01*
X151394464Y-53355457D01*
X151131491Y-53246530D01*
X150852320Y-53191000D01*
X150567680Y-53191000D01*
X150288509Y-53246530D01*
X150025536Y-53355457D01*
X149788866Y-53513595D01*
X149587595Y-53714866D01*
X149440000Y-53935757D01*
X149292405Y-53714866D01*
X149091134Y-53513595D01*
X148854464Y-53355457D01*
X148591491Y-53246530D01*
X148312320Y-53191000D01*
X148027680Y-53191000D01*
X147748509Y-53246530D01*
X147485536Y-53355457D01*
X147248866Y-53513595D01*
X147047595Y-53714866D01*
X146900000Y-53935757D01*
X146752405Y-53714866D01*
X146551134Y-53513595D01*
X146314464Y-53355457D01*
X146051491Y-53246530D01*
X145772320Y-53191000D01*
X145487680Y-53191000D01*
X145208509Y-53246530D01*
X144945536Y-53355457D01*
X144708866Y-53513595D01*
X144507595Y-53714866D01*
X144360000Y-53935757D01*
X144212405Y-53714866D01*
X144011134Y-53513595D01*
X143774464Y-53355457D01*
X143511491Y-53246530D01*
X143232320Y-53191000D01*
X142947680Y-53191000D01*
X142668509Y-53246530D01*
X142405536Y-53355457D01*
X142168866Y-53513595D01*
X141967595Y-53714866D01*
X141820000Y-53935757D01*
X141672405Y-53714866D01*
X141471134Y-53513595D01*
X141234464Y-53355457D01*
X140971491Y-53246530D01*
X140692320Y-53191000D01*
X140407680Y-53191000D01*
X140128509Y-53246530D01*
X139865536Y-53355457D01*
X139628866Y-53513595D01*
X139427595Y-53714866D01*
X139280000Y-53935757D01*
X139132405Y-53714866D01*
X138931134Y-53513595D01*
X138694464Y-53355457D01*
X138431491Y-53246530D01*
X138152320Y-53191000D01*
X137867680Y-53191000D01*
X137588509Y-53246530D01*
X137325536Y-53355457D01*
X137088866Y-53513595D01*
X136887595Y-53714866D01*
X136740000Y-53935757D01*
X136592405Y-53714866D01*
X136391134Y-53513595D01*
X136154464Y-53355457D01*
X135891491Y-53246530D01*
X135612320Y-53191000D01*
X135327680Y-53191000D01*
X135048509Y-53246530D01*
X134785536Y-53355457D01*
X134548866Y-53513595D01*
X134347595Y-53714866D01*
X134200000Y-53935757D01*
X134052405Y-53714866D01*
X133851134Y-53513595D01*
X133614464Y-53355457D01*
X133351491Y-53246530D01*
X133072320Y-53191000D01*
X132787680Y-53191000D01*
X132508509Y-53246530D01*
X132245536Y-53355457D01*
X132008866Y-53513595D01*
X131807595Y-53714866D01*
X131660000Y-53935757D01*
X131512405Y-53714866D01*
X131311134Y-53513595D01*
X131074464Y-53355457D01*
X130811491Y-53246530D01*
X130532320Y-53191000D01*
X130247680Y-53191000D01*
X129968509Y-53246530D01*
X129705536Y-53355457D01*
X129468866Y-53513595D01*
X129267595Y-53714866D01*
X129120000Y-53935757D01*
X128972405Y-53714866D01*
X128771134Y-53513595D01*
X128534464Y-53355457D01*
X128271491Y-53246530D01*
X127992320Y-53191000D01*
X127707680Y-53191000D01*
X127428509Y-53246530D01*
X127165536Y-53355457D01*
X126928866Y-53513595D01*
X126727595Y-53714866D01*
X126580000Y-53935757D01*
X126432405Y-53714866D01*
X126231134Y-53513595D01*
X125994464Y-53355457D01*
X125731491Y-53246530D01*
X125452320Y-53191000D01*
X125167680Y-53191000D01*
X124888509Y-53246530D01*
X124625536Y-53355457D01*
X124388866Y-53513595D01*
X124187595Y-53714866D01*
X124040000Y-53935757D01*
X123892405Y-53714866D01*
X123691134Y-53513595D01*
X123454464Y-53355457D01*
X123191491Y-53246530D01*
X122912320Y-53191000D01*
X122627680Y-53191000D01*
X122348509Y-53246530D01*
X122085536Y-53355457D01*
X121848866Y-53513595D01*
X121647595Y-53714866D01*
X121500000Y-53935757D01*
X121352405Y-53714866D01*
X121151134Y-53513595D01*
X120914464Y-53355457D01*
X120651491Y-53246530D01*
X120372320Y-53191000D01*
X120087680Y-53191000D01*
X119808509Y-53246530D01*
X119545536Y-53355457D01*
X119308866Y-53513595D01*
X119107595Y-53714866D01*
X118960000Y-53935757D01*
X118812405Y-53714866D01*
X118611134Y-53513595D01*
X118374464Y-53355457D01*
X118111491Y-53246530D01*
X117832320Y-53191000D01*
X117547680Y-53191000D01*
X117268509Y-53246530D01*
X117005536Y-53355457D01*
X116768866Y-53513595D01*
X116567595Y-53714866D01*
X116420000Y-53935757D01*
X116272405Y-53714866D01*
X116071134Y-53513595D01*
X115834464Y-53355457D01*
X115571491Y-53246530D01*
X115292320Y-53191000D01*
X115007680Y-53191000D01*
X114728509Y-53246530D01*
X114465536Y-53355457D01*
X114228866Y-53513595D01*
X114027595Y-53714866D01*
X113869457Y-53951536D01*
X113760530Y-54214509D01*
X113705000Y-54493680D01*
X113457000Y-54493680D01*
X113407292Y-53978842D01*
X113214962Y-53340395D01*
X112901772Y-52751738D01*
X112894503Y-52740859D01*
X112450930Y-52434678D01*
X112564507Y-52321101D01*
X112489406Y-52246000D01*
X181310594Y-52246000D01*
X181235493Y-52321101D01*
G37*
X181235493Y-52321101D02*
X181349070Y-52434678D01*
X180905497Y-52740859D01*
X180590046Y-53328306D01*
X180395260Y-53966008D01*
X180328628Y-54629457D01*
X180392708Y-55293158D01*
X180585038Y-55931605D01*
X180898228Y-56520262D01*
X180905497Y-56531141D01*
X181349072Y-56837323D01*
X183550395Y-54636000D01*
X183536253Y-54621858D01*
X183715858Y-54442253D01*
X183730000Y-54456395D01*
X183744143Y-54442253D01*
X183923748Y-54621858D01*
X183909605Y-54636000D01*
X183923748Y-54650143D01*
X183744143Y-54829748D01*
X183730000Y-54815605D01*
X181528677Y-57016928D01*
X181834859Y-57460503D01*
X182422306Y-57775954D01*
X183060008Y-57970740D01*
X183723457Y-58037372D01*
X184387158Y-57973292D01*
X185025605Y-57780962D01*
X185614262Y-57467772D01*
X185625141Y-57460503D01*
X185931322Y-57016930D01*
X186044899Y-57130507D01*
X186120000Y-57055406D01*
X186120001Y-64470877D01*
X186123010Y-64501427D01*
X186122954Y-64509424D01*
X186123921Y-64519290D01*
X186150441Y-64771615D01*
X186163379Y-64834646D01*
X186175439Y-64897864D01*
X186178305Y-64907354D01*
X186253331Y-65149724D01*
X186278266Y-65209041D01*
X186302373Y-65268709D01*
X186307027Y-65277462D01*
X186427700Y-65500643D01*
X186463670Y-65553971D01*
X186498922Y-65607841D01*
X186505188Y-65615523D01*
X186666913Y-65811014D01*
X186712531Y-65856314D01*
X186757596Y-65902333D01*
X186765234Y-65908652D01*
X186961849Y-66069007D01*
X187015393Y-66104582D01*
X187068547Y-66140977D01*
X187077267Y-66145691D01*
X187301285Y-66264803D01*
X187360748Y-66289312D01*
X187419925Y-66314675D01*
X187429395Y-66317607D01*
X187672282Y-66390939D01*
X187735379Y-66403432D01*
X187798353Y-66416818D01*
X187808212Y-66417854D01*
X188060717Y-66442612D01*
X188243937Y-66460577D01*
X188353536Y-66493667D01*
X188454615Y-66547411D01*
X188543336Y-66619770D01*
X188616309Y-66707979D01*
X188670761Y-66808687D01*
X188704614Y-66918046D01*
X188720000Y-67064441D01*
X188720000Y-97273000D01*
X103880000Y-97273000D01*
X103880000Y-89001361D01*
X112397500Y-89001361D01*
X112397500Y-89205239D01*
X112437274Y-89405198D01*
X112515295Y-89593556D01*
X112628563Y-89763074D01*
X112772726Y-89907237D01*
X112942244Y-90020505D01*
X113130602Y-90098526D01*
X113330561Y-90138300D01*
X113534439Y-90138300D01*
X113734398Y-90098526D01*
X113742280Y-90095261D01*
X132711100Y-90095261D01*
X132711100Y-90299139D01*
X132750874Y-90499098D01*
X132828895Y-90687456D01*
X132942163Y-90856974D01*
X133086326Y-91001137D01*
X133255844Y-91114405D01*
X133444202Y-91192426D01*
X133644161Y-91232200D01*
X133848039Y-91232200D01*
X134047998Y-91192426D01*
X134236356Y-91114405D01*
X134405874Y-91001137D01*
X134550037Y-90856974D01*
X134663305Y-90687456D01*
X134741326Y-90499098D01*
X134781100Y-90299139D01*
X134781100Y-90095261D01*
X134741326Y-89895302D01*
X134663305Y-89706944D01*
X134619551Y-89641461D01*
X135632000Y-89641461D01*
X135632000Y-89845339D01*
X135671774Y-90045298D01*
X135749795Y-90233656D01*
X135863063Y-90403174D01*
X136007226Y-90547337D01*
X136176744Y-90660605D01*
X136365102Y-90738626D01*
X136565061Y-90778400D01*
X136768939Y-90778400D01*
X136968898Y-90738626D01*
X137157256Y-90660605D01*
X137326774Y-90547337D01*
X137470937Y-90403174D01*
X137584205Y-90233656D01*
X137641530Y-90095261D01*
X158365700Y-90095261D01*
X158365700Y-90299139D01*
X158405474Y-90499098D01*
X158483495Y-90687456D01*
X158596763Y-90856974D01*
X158740926Y-91001137D01*
X158910444Y-91114405D01*
X159098802Y-91192426D01*
X159298761Y-91232200D01*
X159502639Y-91232200D01*
X159702598Y-91192426D01*
X159890956Y-91114405D01*
X160060474Y-91001137D01*
X160204637Y-90856974D01*
X160317905Y-90687456D01*
X160395926Y-90499098D01*
X160435700Y-90299139D01*
X160435700Y-90095261D01*
X160395926Y-89895302D01*
X160317905Y-89706944D01*
X160204637Y-89537426D01*
X160060474Y-89393263D01*
X159890956Y-89279995D01*
X159702598Y-89201974D01*
X159502639Y-89162200D01*
X159298761Y-89162200D01*
X159098802Y-89201974D01*
X158910444Y-89279995D01*
X158740926Y-89393263D01*
X158596763Y-89537426D01*
X158483495Y-89706944D01*
X158405474Y-89895302D01*
X158365700Y-90095261D01*
X137641530Y-90095261D01*
X137662226Y-90045298D01*
X137702000Y-89845339D01*
X137702000Y-89641461D01*
X137662226Y-89441502D01*
X137584205Y-89253144D01*
X137470937Y-89083626D01*
X137326774Y-88939463D01*
X137284118Y-88910961D01*
X169512400Y-88910961D01*
X169512400Y-89114839D01*
X169552174Y-89314798D01*
X169630195Y-89503156D01*
X169743463Y-89672674D01*
X169887626Y-89816837D01*
X170057144Y-89930105D01*
X170245502Y-90008126D01*
X170445461Y-90047900D01*
X170649339Y-90047900D01*
X170849298Y-90008126D01*
X171037656Y-89930105D01*
X171207174Y-89816837D01*
X171351337Y-89672674D01*
X171464605Y-89503156D01*
X171542626Y-89314798D01*
X171582400Y-89114839D01*
X171582400Y-88910961D01*
X171542626Y-88711002D01*
X171464605Y-88522644D01*
X171351337Y-88353126D01*
X171207174Y-88208963D01*
X171037656Y-88095695D01*
X170849298Y-88017674D01*
X170649339Y-87977900D01*
X170445461Y-87977900D01*
X170245502Y-88017674D01*
X170057144Y-88095695D01*
X169887626Y-88208963D01*
X169743463Y-88353126D01*
X169630195Y-88522644D01*
X169552174Y-88711002D01*
X169512400Y-88910961D01*
X137284118Y-88910961D01*
X137157256Y-88826195D01*
X136968898Y-88748174D01*
X136768939Y-88708400D01*
X136565061Y-88708400D01*
X136365102Y-88748174D01*
X136176744Y-88826195D01*
X136007226Y-88939463D01*
X135863063Y-89083626D01*
X135749795Y-89253144D01*
X135671774Y-89441502D01*
X135632000Y-89641461D01*
X134619551Y-89641461D01*
X134550037Y-89537426D01*
X134405874Y-89393263D01*
X134236356Y-89279995D01*
X134047998Y-89201974D01*
X133848039Y-89162200D01*
X133644161Y-89162200D01*
X133444202Y-89201974D01*
X133255844Y-89279995D01*
X133086326Y-89393263D01*
X132942163Y-89537426D01*
X132828895Y-89706944D01*
X132750874Y-89895302D01*
X132711100Y-90095261D01*
X113742280Y-90095261D01*
X113922756Y-90020505D01*
X114092274Y-89907237D01*
X114236437Y-89763074D01*
X114349705Y-89593556D01*
X114427726Y-89405198D01*
X114467500Y-89205239D01*
X114467500Y-89001361D01*
X114427726Y-88801402D01*
X114364210Y-88648061D01*
X122873400Y-88648061D01*
X122873400Y-88851939D01*
X122913174Y-89051898D01*
X122991195Y-89240256D01*
X123104463Y-89409774D01*
X123248626Y-89553937D01*
X123418144Y-89667205D01*
X123606502Y-89745226D01*
X123806461Y-89785000D01*
X124010339Y-89785000D01*
X124210298Y-89745226D01*
X124398656Y-89667205D01*
X124568174Y-89553937D01*
X124712337Y-89409774D01*
X124825605Y-89240256D01*
X124903626Y-89051898D01*
X124943400Y-88851939D01*
X124943400Y-88648061D01*
X124903626Y-88448102D01*
X124825605Y-88259744D01*
X124712337Y-88090226D01*
X124568174Y-87946063D01*
X124398656Y-87832795D01*
X124210298Y-87754774D01*
X124010339Y-87715000D01*
X123806461Y-87715000D01*
X123606502Y-87754774D01*
X123418144Y-87832795D01*
X123248626Y-87946063D01*
X123104463Y-88090226D01*
X122991195Y-88259744D01*
X122913174Y-88448102D01*
X122873400Y-88648061D01*
X114364210Y-88648061D01*
X114349705Y-88613044D01*
X114236437Y-88443526D01*
X114092274Y-88299363D01*
X113922756Y-88186095D01*
X113734398Y-88108074D01*
X113534439Y-88068300D01*
X113330561Y-88068300D01*
X113130602Y-88108074D01*
X112942244Y-88186095D01*
X112772726Y-88299363D01*
X112628563Y-88443526D01*
X112515295Y-88613044D01*
X112437274Y-88801402D01*
X112397500Y-89001361D01*
X103880000Y-89001361D01*
X103880000Y-86818861D01*
X112379600Y-86818861D01*
X112379600Y-87022739D01*
X112419374Y-87222698D01*
X112497395Y-87411056D01*
X112610663Y-87580574D01*
X112754826Y-87724737D01*
X112924344Y-87838005D01*
X113112702Y-87916026D01*
X113312661Y-87955800D01*
X113516539Y-87955800D01*
X113716498Y-87916026D01*
X113904856Y-87838005D01*
X114074374Y-87724737D01*
X114218537Y-87580574D01*
X114331805Y-87411056D01*
X114409826Y-87222698D01*
X114449600Y-87022739D01*
X114449600Y-86818861D01*
X114409826Y-86618902D01*
X114331805Y-86430544D01*
X114218537Y-86261026D01*
X114074374Y-86116863D01*
X113904856Y-86003595D01*
X113716498Y-85925574D01*
X113516539Y-85885800D01*
X113312661Y-85885800D01*
X113112702Y-85925574D01*
X112924344Y-86003595D01*
X112754826Y-86116863D01*
X112610663Y-86261026D01*
X112497395Y-86430544D01*
X112419374Y-86618902D01*
X112379600Y-86818861D01*
X103880000Y-86818861D01*
X103880000Y-84380761D01*
X112176500Y-84380761D01*
X112176500Y-84584639D01*
X112216274Y-84784598D01*
X112294295Y-84972956D01*
X112407563Y-85142474D01*
X112551726Y-85286637D01*
X112721244Y-85399905D01*
X112909602Y-85477926D01*
X113109561Y-85517700D01*
X113313439Y-85517700D01*
X113513398Y-85477926D01*
X113701756Y-85399905D01*
X113871274Y-85286637D01*
X114015437Y-85142474D01*
X114128705Y-84972956D01*
X114206726Y-84784598D01*
X114246500Y-84584639D01*
X114246500Y-84380761D01*
X114206726Y-84180802D01*
X114128705Y-83992444D01*
X114015437Y-83822926D01*
X113871274Y-83678763D01*
X113701756Y-83565495D01*
X113513398Y-83487474D01*
X113313439Y-83447700D01*
X113109561Y-83447700D01*
X112909602Y-83487474D01*
X112721244Y-83565495D01*
X112551726Y-83678763D01*
X112407563Y-83822926D01*
X112294295Y-83992444D01*
X112216274Y-84180802D01*
X112176500Y-84380761D01*
X103880000Y-84380761D01*
X103880000Y-81533161D01*
X112433100Y-81533161D01*
X112433100Y-81737039D01*
X112472874Y-81936998D01*
X112550895Y-82125356D01*
X112664163Y-82294874D01*
X112808326Y-82439037D01*
X112977844Y-82552305D01*
X113166202Y-82630326D01*
X113366161Y-82670100D01*
X113570039Y-82670100D01*
X113769998Y-82630326D01*
X113958356Y-82552305D01*
X114127874Y-82439037D01*
X114272037Y-82294874D01*
X114385305Y-82125356D01*
X114463326Y-81936998D01*
X114503100Y-81737039D01*
X114503100Y-81533161D01*
X114463326Y-81333202D01*
X114385305Y-81144844D01*
X114272037Y-80975326D01*
X114127874Y-80831163D01*
X113958356Y-80717895D01*
X113769998Y-80639874D01*
X113570039Y-80600100D01*
X113366161Y-80600100D01*
X113166202Y-80639874D01*
X112977844Y-80717895D01*
X112808326Y-80831163D01*
X112664163Y-80975326D01*
X112550895Y-81144844D01*
X112472874Y-81333202D01*
X112433100Y-81533161D01*
X103880000Y-81533161D01*
X103880000Y-67270729D01*
X103898386Y-67083215D01*
X103942757Y-66936252D01*
X104014829Y-66800703D01*
X104111852Y-66681742D01*
X104230144Y-66583882D01*
X104365181Y-66510868D01*
X104511833Y-66465471D01*
X104697092Y-66446000D01*
X105504877Y-66446000D01*
X105535576Y-66442976D01*
X105544820Y-66443041D01*
X105554686Y-66442074D01*
X105845831Y-66411474D01*
X105908868Y-66398534D01*
X105972080Y-66386476D01*
X105981570Y-66383611D01*
X106261226Y-66297043D01*
X106320521Y-66272117D01*
X106380215Y-66247999D01*
X106388967Y-66243345D01*
X106646483Y-66104106D01*
X106699825Y-66068127D01*
X106753678Y-66032886D01*
X106761360Y-66026621D01*
X106986927Y-65840016D01*
X107032246Y-65794379D01*
X107078248Y-65749331D01*
X107084566Y-65741692D01*
X107269592Y-65514828D01*
X107305177Y-65461268D01*
X107341560Y-65408132D01*
X107346275Y-65399412D01*
X107483712Y-65140931D01*
X107508225Y-65081456D01*
X107533584Y-65022289D01*
X107536516Y-65012819D01*
X107621130Y-64732565D01*
X107633622Y-64669475D01*
X107647009Y-64606494D01*
X107648045Y-64596635D01*
X107676612Y-64305283D01*
X107676612Y-64305277D01*
X107680000Y-64270877D01*
X107680000Y-57055406D01*
X107755101Y-57130507D01*
X107868678Y-57016930D01*
X108174859Y-57460503D01*
X108762306Y-57775954D01*
X109400008Y-57970740D01*
X110063457Y-58037372D01*
X110727158Y-57973292D01*
X111365605Y-57780962D01*
X111954262Y-57467772D01*
X111965141Y-57460503D01*
X112271323Y-57016928D01*
X110070000Y-54815605D01*
X110055858Y-54829748D01*
X109876253Y-54650143D01*
X109890395Y-54636000D01*
X109876253Y-54621858D01*
X110055858Y-54442253D01*
X110070000Y-54456395D01*
X110084143Y-54442253D01*
X110263748Y-54621858D01*
X110249605Y-54636000D01*
X112450928Y-56837323D01*
X112894503Y-56531141D01*
X113209954Y-55943694D01*
X113404740Y-55305992D01*
X113471372Y-54642543D01*
X113457000Y-54493680D01*
X113705000Y-54493680D01*
X113705000Y-54778320D01*
X113760530Y-55057491D01*
X113869457Y-55320464D01*
X114027595Y-55557134D01*
X114228866Y-55758405D01*
X114449757Y-55906000D01*
X114228866Y-56053595D01*
X114027595Y-56254866D01*
X113869457Y-56491536D01*
X113760530Y-56754509D01*
X113705000Y-57033680D01*
X113705000Y-57318320D01*
X113760530Y-57597491D01*
X113869457Y-57860464D01*
X114027595Y-58097134D01*
X114228866Y-58298405D01*
X114449757Y-58446000D01*
X114228866Y-58593595D01*
X114027595Y-58794866D01*
X113869457Y-59031536D01*
X113760530Y-59294509D01*
X113705000Y-59573680D01*
X113705000Y-59858320D01*
X113760530Y-60137491D01*
X113869457Y-60400464D01*
X114027595Y-60637134D01*
X114228866Y-60838405D01*
X114449757Y-60986000D01*
X114228866Y-61133595D01*
X114027595Y-61334866D01*
X113869457Y-61571536D01*
X113760530Y-61834509D01*
X113705000Y-62113680D01*
X113705000Y-62398320D01*
X113760530Y-62677491D01*
X113869457Y-62940464D01*
X114027595Y-63177134D01*
X114228866Y-63378405D01*
X114465536Y-63536543D01*
X114728509Y-63645470D01*
X115007680Y-63701000D01*
X115292320Y-63701000D01*
X115571491Y-63645470D01*
X115660000Y-63608808D01*
X115660000Y-68159278D01*
X115656324Y-68196600D01*
X115660000Y-68233922D01*
X115660000Y-68233932D01*
X115670997Y-68345585D01*
X115705963Y-68460854D01*
X115714454Y-68488846D01*
X115785026Y-68620876D01*
X115798297Y-68637046D01*
X115879999Y-68736601D01*
X115909003Y-68760404D01*
X121076500Y-73927903D01*
X121076500Y-73990039D01*
X121116274Y-74189998D01*
X121194295Y-74378356D01*
X121307563Y-74547874D01*
X121451726Y-74692037D01*
X121621244Y-74805305D01*
X121809602Y-74883326D01*
X122009561Y-74923100D01*
X122148400Y-74923100D01*
X122148400Y-75190798D01*
X121155655Y-76183544D01*
X121108074Y-76135963D01*
X120938556Y-76022695D01*
X120750198Y-75944674D01*
X120678249Y-75930362D01*
X120711937Y-75896674D01*
X120825205Y-75727156D01*
X120903226Y-75538798D01*
X120943000Y-75338839D01*
X120943000Y-75134961D01*
X120903226Y-74935002D01*
X120825205Y-74746644D01*
X120711937Y-74577126D01*
X120567774Y-74432963D01*
X120398256Y-74319695D01*
X120209898Y-74241674D01*
X120009939Y-74201900D01*
X119806061Y-74201900D01*
X119606102Y-74241674D01*
X119417744Y-74319695D01*
X119248226Y-74432963D01*
X119104063Y-74577126D01*
X118990795Y-74746644D01*
X118912774Y-74935002D01*
X118873000Y-75134961D01*
X118873000Y-75338839D01*
X118912774Y-75538798D01*
X118990795Y-75727156D01*
X119104063Y-75896674D01*
X119248226Y-76040837D01*
X119417744Y-76154105D01*
X119606102Y-76232126D01*
X119678051Y-76246438D01*
X119644363Y-76280126D01*
X119531095Y-76449644D01*
X119453074Y-76638002D01*
X119413300Y-76837961D01*
X119413300Y-77041839D01*
X119453074Y-77241798D01*
X119503843Y-77364365D01*
X119448244Y-77387395D01*
X119278726Y-77500663D01*
X119134563Y-77644826D01*
X119021295Y-77814344D01*
X118943274Y-78002702D01*
X118903500Y-78202661D01*
X118903500Y-78406539D01*
X118943274Y-78606498D01*
X119021295Y-78794856D01*
X119134563Y-78964374D01*
X119278726Y-79108537D01*
X119448244Y-79221805D01*
X119636602Y-79299826D01*
X119836561Y-79339600D01*
X120040439Y-79339600D01*
X120240398Y-79299826D01*
X120428756Y-79221805D01*
X120598274Y-79108537D01*
X120742437Y-78964374D01*
X120855705Y-78794856D01*
X120933726Y-78606498D01*
X120946494Y-78542307D01*
X123411701Y-76077101D01*
X123411701Y-78173597D01*
X116318803Y-85266496D01*
X116289799Y-85290299D01*
X116255845Y-85331673D01*
X116251034Y-85337536D01*
X116170026Y-85391663D01*
X116025863Y-85535826D01*
X115912595Y-85705344D01*
X115834574Y-85893702D01*
X115794800Y-86093661D01*
X115794800Y-86297539D01*
X115834574Y-86497498D01*
X115912595Y-86685856D01*
X116025863Y-86855374D01*
X116170026Y-86999537D01*
X116339544Y-87112805D01*
X116527902Y-87190826D01*
X116727861Y-87230600D01*
X116931739Y-87230600D01*
X117131698Y-87190826D01*
X117320056Y-87112805D01*
X117489574Y-86999537D01*
X117633737Y-86855374D01*
X117747005Y-86685856D01*
X117825026Y-86497498D01*
X117864800Y-86297539D01*
X117864800Y-86093661D01*
X117827709Y-85907192D01*
X118080040Y-85654861D01*
X123833200Y-85654861D01*
X123833200Y-85858739D01*
X123872974Y-86058698D01*
X123950995Y-86247056D01*
X124064263Y-86416574D01*
X124208426Y-86560737D01*
X124377944Y-86674005D01*
X124566302Y-86752026D01*
X124766261Y-86791800D01*
X124970139Y-86791800D01*
X125170098Y-86752026D01*
X125358456Y-86674005D01*
X125527974Y-86560737D01*
X125672137Y-86416574D01*
X125785405Y-86247056D01*
X125863426Y-86058698D01*
X125903200Y-85858739D01*
X125903200Y-85654861D01*
X125863426Y-85454902D01*
X125785405Y-85266544D01*
X125672137Y-85097026D01*
X125527974Y-84952863D01*
X125358456Y-84839595D01*
X125170098Y-84761574D01*
X124970139Y-84721800D01*
X124766261Y-84721800D01*
X124566302Y-84761574D01*
X124377944Y-84839595D01*
X124208426Y-84952863D01*
X124064263Y-85097026D01*
X123950995Y-85266544D01*
X123872974Y-85454902D01*
X123833200Y-85654861D01*
X118080040Y-85654861D01*
X119858895Y-83876006D01*
X119906426Y-83923537D01*
X120075944Y-84036805D01*
X120264302Y-84114826D01*
X120464261Y-84154600D01*
X120668139Y-84154600D01*
X120868098Y-84114826D01*
X121056456Y-84036805D01*
X121225974Y-83923537D01*
X121370137Y-83779374D01*
X121483405Y-83609856D01*
X121561426Y-83421498D01*
X121601200Y-83221539D01*
X121601200Y-83017661D01*
X121561426Y-82817702D01*
X121483405Y-82629344D01*
X121370137Y-82459826D01*
X121322606Y-82412295D01*
X122268699Y-81466202D01*
X122306074Y-81654098D01*
X122384095Y-81842456D01*
X122497363Y-82011974D01*
X122641526Y-82156137D01*
X122811044Y-82269405D01*
X122999402Y-82347426D01*
X123199361Y-82387200D01*
X123403239Y-82387200D01*
X123603198Y-82347426D01*
X123791556Y-82269405D01*
X123961074Y-82156137D01*
X124105237Y-82011974D01*
X124218505Y-81842456D01*
X124296526Y-81654098D01*
X124336300Y-81454139D01*
X124336300Y-81250261D01*
X124296526Y-81050302D01*
X124218505Y-80861944D01*
X124105237Y-80692426D01*
X123961074Y-80548263D01*
X123791556Y-80434995D01*
X123603198Y-80356974D01*
X123415302Y-80319600D01*
X124682703Y-79052199D01*
X124711701Y-79028401D01*
X124806674Y-78912676D01*
X124877246Y-78780647D01*
X124920703Y-78637386D01*
X124931700Y-78525733D01*
X124935377Y-78488400D01*
X124931700Y-78451067D01*
X124931700Y-72859361D01*
X136310300Y-72859361D01*
X136310300Y-73063239D01*
X136350074Y-73263198D01*
X136428095Y-73451556D01*
X136541363Y-73621074D01*
X136685526Y-73765237D01*
X136855044Y-73878505D01*
X137043402Y-73956526D01*
X137243361Y-73996300D01*
X137447239Y-73996300D01*
X137647198Y-73956526D01*
X137835556Y-73878505D01*
X138005074Y-73765237D01*
X138149237Y-73621074D01*
X138262505Y-73451556D01*
X138340526Y-73263198D01*
X138380300Y-73063239D01*
X138380300Y-72859361D01*
X138340526Y-72659402D01*
X138262505Y-72471044D01*
X138149237Y-72301526D01*
X138005074Y-72157363D01*
X137835556Y-72044095D01*
X137647198Y-71966074D01*
X137447239Y-71926300D01*
X137243361Y-71926300D01*
X137043402Y-71966074D01*
X136855044Y-72044095D01*
X136685526Y-72157363D01*
X136541363Y-72301526D01*
X136428095Y-72471044D01*
X136350074Y-72659402D01*
X136310300Y-72859361D01*
X124931700Y-72859361D01*
X124931700Y-69425761D01*
X135112000Y-69425761D01*
X135112000Y-69629639D01*
X135151774Y-69829598D01*
X135229795Y-70017956D01*
X135343063Y-70187474D01*
X135487226Y-70331637D01*
X135656744Y-70444905D01*
X135845102Y-70522926D01*
X136045061Y-70562700D01*
X136248939Y-70562700D01*
X136448898Y-70522926D01*
X136637256Y-70444905D01*
X136806774Y-70331637D01*
X136950937Y-70187474D01*
X137064205Y-70017956D01*
X137142226Y-69829598D01*
X137182000Y-69629639D01*
X137182000Y-69425761D01*
X137142226Y-69225802D01*
X137064205Y-69037444D01*
X136950937Y-68867926D01*
X136806774Y-68723763D01*
X136637256Y-68610495D01*
X136448898Y-68532474D01*
X136248939Y-68492700D01*
X136045061Y-68492700D01*
X135845102Y-68532474D01*
X135656744Y-68610495D01*
X135487226Y-68723763D01*
X135343063Y-68867926D01*
X135229795Y-69037444D01*
X135151774Y-69225802D01*
X135112000Y-69425761D01*
X124931700Y-69425761D01*
X124931700Y-63654061D01*
X125167680Y-63701000D01*
X125452320Y-63701000D01*
X125731491Y-63645470D01*
X125994464Y-63536543D01*
X126231134Y-63378405D01*
X126432405Y-63177134D01*
X126580000Y-62956243D01*
X126727595Y-63177134D01*
X126928866Y-63378405D01*
X127165536Y-63536543D01*
X127428509Y-63645470D01*
X127707680Y-63701000D01*
X127992320Y-63701000D01*
X128271491Y-63645470D01*
X128534464Y-63536543D01*
X128771134Y-63378405D01*
X128972405Y-63177134D01*
X129120000Y-62956243D01*
X129267595Y-63177134D01*
X129468866Y-63378405D01*
X129705536Y-63536543D01*
X129968509Y-63645470D01*
X130247680Y-63701000D01*
X130532320Y-63701000D01*
X130811491Y-63645470D01*
X131074464Y-63536543D01*
X131311134Y-63378405D01*
X131512405Y-63177134D01*
X131660000Y-62956243D01*
X131807595Y-63177134D01*
X132008866Y-63378405D01*
X132245536Y-63536543D01*
X132508509Y-63645470D01*
X132787680Y-63701000D01*
X133072320Y-63701000D01*
X133351491Y-63645470D01*
X133614464Y-63536543D01*
X133851134Y-63378405D01*
X134052405Y-63177134D01*
X134200000Y-62956243D01*
X134347595Y-63177134D01*
X134548866Y-63378405D01*
X134785536Y-63536543D01*
X135048509Y-63645470D01*
X135327680Y-63701000D01*
X135612320Y-63701000D01*
X135891491Y-63645470D01*
X136154464Y-63536543D01*
X136391134Y-63378405D01*
X136592405Y-63177134D01*
X136740000Y-62956243D01*
X136887595Y-63177134D01*
X137088866Y-63378405D01*
X137325536Y-63536543D01*
X137588509Y-63645470D01*
X137867680Y-63701000D01*
X138152320Y-63701000D01*
X138385400Y-63654638D01*
X138385401Y-74896296D01*
X134965057Y-78316642D01*
X134925426Y-78117402D01*
X134847405Y-77929044D01*
X134734137Y-77759526D01*
X134589974Y-77615363D01*
X134420456Y-77502095D01*
X134232098Y-77424074D01*
X134032139Y-77384300D01*
X133828261Y-77384300D01*
X133628302Y-77424074D01*
X133439944Y-77502095D01*
X133270426Y-77615363D01*
X133126263Y-77759526D01*
X133012995Y-77929044D01*
X132934974Y-78117402D01*
X132895200Y-78317361D01*
X132895200Y-78521239D01*
X132934974Y-78721198D01*
X133012995Y-78909556D01*
X133126263Y-79079074D01*
X133270426Y-79223237D01*
X133439944Y-79336505D01*
X133628302Y-79414526D01*
X133828261Y-79454300D01*
X133837046Y-79454300D01*
X133810026Y-79487224D01*
X133766903Y-79567900D01*
X133617661Y-79567900D01*
X133417702Y-79607674D01*
X133229344Y-79685695D01*
X133059826Y-79798963D01*
X132915663Y-79943126D01*
X132802395Y-80112644D01*
X132724374Y-80301002D01*
X132684600Y-80500961D01*
X132684600Y-80704839D01*
X132724374Y-80904798D01*
X132802395Y-81093156D01*
X132915663Y-81262674D01*
X133059826Y-81406837D01*
X133229344Y-81520105D01*
X133417702Y-81598126D01*
X133617661Y-81637900D01*
X133685000Y-81637900D01*
X133685000Y-81708400D01*
X133529261Y-81708400D01*
X133329302Y-81748174D01*
X133140944Y-81826195D01*
X132971426Y-81939463D01*
X132827263Y-82083626D01*
X132713995Y-82253144D01*
X132635974Y-82441502D01*
X132596200Y-82641461D01*
X132596200Y-82845339D01*
X132635974Y-83045298D01*
X132713995Y-83233656D01*
X132827263Y-83403174D01*
X132971426Y-83547337D01*
X133140944Y-83660605D01*
X133329302Y-83738626D01*
X133529261Y-83778400D01*
X133685001Y-83778400D01*
X133685001Y-83827100D01*
X133644161Y-83827100D01*
X133444202Y-83866874D01*
X133255844Y-83944895D01*
X133086326Y-84058163D01*
X132942163Y-84202326D01*
X132828895Y-84371844D01*
X132750874Y-84560202D01*
X132711100Y-84760161D01*
X132711100Y-84964039D01*
X132750874Y-85163998D01*
X132828895Y-85352356D01*
X132942163Y-85521874D01*
X132965734Y-85545445D01*
X132953574Y-85574802D01*
X132913800Y-85774761D01*
X132913800Y-85978639D01*
X132953574Y-86178598D01*
X133031595Y-86366956D01*
X133144863Y-86536474D01*
X133213057Y-86604668D01*
X133176300Y-86789461D01*
X133176300Y-86993339D01*
X133216074Y-87193298D01*
X133294095Y-87381656D01*
X133407363Y-87551174D01*
X133551526Y-87695337D01*
X133721044Y-87808605D01*
X133909402Y-87886626D01*
X134109361Y-87926400D01*
X134313239Y-87926400D01*
X134513198Y-87886626D01*
X134701556Y-87808605D01*
X134871074Y-87695337D01*
X135015237Y-87551174D01*
X135128505Y-87381656D01*
X135206526Y-87193298D01*
X135246300Y-86993339D01*
X135246300Y-86789461D01*
X135206526Y-86589502D01*
X135128505Y-86401144D01*
X135015237Y-86231626D01*
X134947043Y-86163432D01*
X134983800Y-85978639D01*
X134983800Y-85774761D01*
X134944026Y-85574802D01*
X134866005Y-85386444D01*
X134752737Y-85216926D01*
X134729166Y-85193355D01*
X134741326Y-85163998D01*
X134781100Y-84964039D01*
X134781100Y-84901902D01*
X134956002Y-84726999D01*
X134985001Y-84703201D01*
X134996687Y-84688961D01*
X143255200Y-84688961D01*
X143255200Y-84892839D01*
X143294974Y-85092798D01*
X143372995Y-85281156D01*
X143486263Y-85450674D01*
X143590716Y-85555127D01*
X143483195Y-85716044D01*
X143405174Y-85904402D01*
X143365400Y-86104361D01*
X143365400Y-86308239D01*
X143405174Y-86508198D01*
X143483195Y-86696556D01*
X143596463Y-86866074D01*
X143740626Y-87010237D01*
X143910144Y-87123505D01*
X144098502Y-87201526D01*
X144298461Y-87241300D01*
X144502339Y-87241300D01*
X144702298Y-87201526D01*
X144890656Y-87123505D01*
X145060174Y-87010237D01*
X145204337Y-86866074D01*
X145317605Y-86696556D01*
X145367184Y-86576861D01*
X151148900Y-86576861D01*
X151148900Y-86780739D01*
X151188674Y-86980698D01*
X151266695Y-87169056D01*
X151379963Y-87338574D01*
X151524126Y-87482737D01*
X151693644Y-87596005D01*
X151882002Y-87674026D01*
X152081961Y-87713800D01*
X152285839Y-87713800D01*
X152485798Y-87674026D01*
X152674156Y-87596005D01*
X152843674Y-87482737D01*
X152987837Y-87338574D01*
X153101105Y-87169056D01*
X153179126Y-86980698D01*
X153218900Y-86780739D01*
X153218900Y-86576861D01*
X153179126Y-86376902D01*
X153114829Y-86221676D01*
X153223156Y-86176805D01*
X153392674Y-86063537D01*
X153536837Y-85919374D01*
X153650105Y-85749856D01*
X153728126Y-85561498D01*
X153767900Y-85361539D01*
X153767900Y-85157661D01*
X153728126Y-84957702D01*
X153650105Y-84769344D01*
X153536837Y-84599826D01*
X153392674Y-84455663D01*
X153223156Y-84342395D01*
X153034798Y-84264374D01*
X152834839Y-84224600D01*
X152630961Y-84224600D01*
X152431002Y-84264374D01*
X152242644Y-84342395D01*
X152073126Y-84455663D01*
X151928963Y-84599826D01*
X151815695Y-84769344D01*
X151737674Y-84957702D01*
X151697900Y-85157661D01*
X151697900Y-85361539D01*
X151737674Y-85561498D01*
X151801971Y-85716724D01*
X151693644Y-85761595D01*
X151524126Y-85874863D01*
X151379963Y-86019026D01*
X151266695Y-86188544D01*
X151188674Y-86376902D01*
X151148900Y-86576861D01*
X145367184Y-86576861D01*
X145395626Y-86508198D01*
X145435400Y-86308239D01*
X145435400Y-86104361D01*
X145395626Y-85904402D01*
X145317605Y-85716044D01*
X145204337Y-85546526D01*
X145099884Y-85442073D01*
X145207405Y-85281156D01*
X145285426Y-85092798D01*
X145325200Y-84892839D01*
X145325200Y-84688961D01*
X145285426Y-84489002D01*
X145207405Y-84300644D01*
X145094137Y-84131126D01*
X144949974Y-83986963D01*
X144780456Y-83873695D01*
X144592098Y-83795674D01*
X144392139Y-83755900D01*
X144188261Y-83755900D01*
X143988302Y-83795674D01*
X143799944Y-83873695D01*
X143630426Y-83986963D01*
X143486263Y-84131126D01*
X143372995Y-84300644D01*
X143294974Y-84489002D01*
X143255200Y-84688961D01*
X134996687Y-84688961D01*
X135079974Y-84587476D01*
X135150546Y-84455447D01*
X135194003Y-84312186D01*
X135205000Y-84200533D01*
X135205000Y-84200523D01*
X135208676Y-84163200D01*
X135205000Y-84125877D01*
X135205000Y-81246900D01*
X135272239Y-81246900D01*
X135472198Y-81207126D01*
X135660556Y-81129105D01*
X135830074Y-81015837D01*
X135974237Y-80871674D01*
X136087505Y-80702156D01*
X136165526Y-80513798D01*
X136205300Y-80313839D01*
X136205300Y-80109961D01*
X136165526Y-79910002D01*
X136087505Y-79721644D01*
X135974237Y-79552126D01*
X135926706Y-79504595D01*
X138193441Y-77237861D01*
X138668400Y-77237861D01*
X138668400Y-77441739D01*
X138708174Y-77641698D01*
X138786195Y-77830056D01*
X138899463Y-77999574D01*
X139043626Y-78143737D01*
X139213144Y-78257005D01*
X139401502Y-78335026D01*
X139601461Y-78374800D01*
X139805339Y-78374800D01*
X140005298Y-78335026D01*
X140193656Y-78257005D01*
X140363174Y-78143737D01*
X140507337Y-77999574D01*
X140620605Y-77830056D01*
X140698626Y-77641698D01*
X140738400Y-77441739D01*
X140738400Y-77237861D01*
X140698626Y-77037902D01*
X140620605Y-76849544D01*
X140507337Y-76680026D01*
X140363174Y-76535863D01*
X140193656Y-76422595D01*
X140005298Y-76344574D01*
X139805339Y-76304800D01*
X139601461Y-76304800D01*
X139401502Y-76344574D01*
X139213144Y-76422595D01*
X139043626Y-76535863D01*
X138899463Y-76680026D01*
X138786195Y-76849544D01*
X138708174Y-77037902D01*
X138668400Y-77237861D01*
X138193441Y-77237861D01*
X139656408Y-75774895D01*
X139685401Y-75751101D01*
X139709195Y-75722108D01*
X139709199Y-75722104D01*
X139780373Y-75635377D01*
X139780374Y-75635376D01*
X139850946Y-75503347D01*
X139894403Y-75360086D01*
X139905400Y-75248433D01*
X139905400Y-75248424D01*
X139909076Y-75211101D01*
X139905400Y-75173778D01*
X139905400Y-63553055D01*
X140128509Y-63645470D01*
X140407680Y-63701000D01*
X140692320Y-63701000D01*
X140971491Y-63645470D01*
X141194600Y-63553055D01*
X141194600Y-69354178D01*
X141190924Y-69391500D01*
X141194600Y-69428822D01*
X141194600Y-69428832D01*
X141205597Y-69540485D01*
X141232641Y-69629639D01*
X141249054Y-69683746D01*
X141307301Y-69792718D01*
X141307300Y-78212540D01*
X141297356Y-78205895D01*
X141108998Y-78127874D01*
X140909039Y-78088100D01*
X140705161Y-78088100D01*
X140505202Y-78127874D01*
X140316844Y-78205895D01*
X140147326Y-78319163D01*
X140003163Y-78463326D01*
X139889895Y-78632844D01*
X139811874Y-78821202D01*
X139772100Y-79021161D01*
X139772100Y-79225039D01*
X139811874Y-79424998D01*
X139889895Y-79613356D01*
X140003163Y-79782874D01*
X140147326Y-79927037D01*
X140316844Y-80040305D01*
X140505202Y-80118326D01*
X140705161Y-80158100D01*
X140909039Y-80158100D01*
X141108998Y-80118326D01*
X141297356Y-80040305D01*
X141307300Y-80033661D01*
X141307300Y-82174443D01*
X141225702Y-82190674D01*
X141037344Y-82268695D01*
X140867826Y-82381963D01*
X140723663Y-82526126D01*
X140610395Y-82695644D01*
X140532374Y-82884002D01*
X140492600Y-83083961D01*
X140492600Y-83287839D01*
X140532374Y-83487798D01*
X140610395Y-83676156D01*
X140723663Y-83845674D01*
X140867826Y-83989837D01*
X141037344Y-84103105D01*
X141225702Y-84181126D01*
X141425661Y-84220900D01*
X141629539Y-84220900D01*
X141829498Y-84181126D01*
X142017856Y-84103105D01*
X142187374Y-83989837D01*
X142331537Y-83845674D01*
X142444805Y-83676156D01*
X142522826Y-83487798D01*
X142562600Y-83287839D01*
X142562600Y-83225702D01*
X142578303Y-83209998D01*
X142607301Y-83186201D01*
X142640470Y-83145785D01*
X142702274Y-83070477D01*
X142772846Y-82938447D01*
X142786067Y-82894861D01*
X142816303Y-82795186D01*
X142827300Y-82683533D01*
X142827300Y-82683524D01*
X142830976Y-82646201D01*
X142827300Y-82608878D01*
X142827300Y-77422761D01*
X144117600Y-77422761D01*
X144117600Y-77626639D01*
X144157374Y-77826598D01*
X144235395Y-78014956D01*
X144348663Y-78184474D01*
X144492826Y-78328637D01*
X144662344Y-78441905D01*
X144850702Y-78519926D01*
X145050661Y-78559700D01*
X145254539Y-78559700D01*
X145454498Y-78519926D01*
X145642856Y-78441905D01*
X145812374Y-78328637D01*
X145956537Y-78184474D01*
X146069805Y-78014956D01*
X146147826Y-77826598D01*
X146187600Y-77626639D01*
X146187600Y-77422761D01*
X146147826Y-77222802D01*
X146069805Y-77034444D01*
X145956537Y-76864926D01*
X145812374Y-76720763D01*
X145642856Y-76607495D01*
X145454498Y-76529474D01*
X145254539Y-76489700D01*
X145050661Y-76489700D01*
X144850702Y-76529474D01*
X144662344Y-76607495D01*
X144492826Y-76720763D01*
X144348663Y-76864926D01*
X144235395Y-77034444D01*
X144157374Y-77222802D01*
X144117600Y-77422761D01*
X142827300Y-77422761D01*
X142827300Y-69541523D01*
X142830976Y-69504200D01*
X142827300Y-69466878D01*
X142827300Y-69466867D01*
X142816303Y-69355214D01*
X142772846Y-69211953D01*
X142714600Y-69102984D01*
X142714600Y-63654638D01*
X142947680Y-63701000D01*
X143232320Y-63701000D01*
X143511491Y-63645470D01*
X143774464Y-63536543D01*
X144011134Y-63378405D01*
X144212405Y-63177134D01*
X144360000Y-62956243D01*
X144507595Y-63177134D01*
X144708866Y-63378405D01*
X144945536Y-63536543D01*
X145208509Y-63645470D01*
X145487680Y-63701000D01*
X145772320Y-63701000D01*
X146051491Y-63645470D01*
X146314464Y-63536543D01*
X146551134Y-63378405D01*
X146752405Y-63177134D01*
X146900000Y-62956243D01*
X147047595Y-63177134D01*
X147248866Y-63378405D01*
X147485536Y-63536543D01*
X147748509Y-63645470D01*
X148027680Y-63701000D01*
X148312320Y-63701000D01*
X148545400Y-63654638D01*
X148545401Y-80084467D01*
X148541724Y-80121800D01*
X148556398Y-80270785D01*
X148599854Y-80414046D01*
X148670426Y-80546076D01*
X148741023Y-80632098D01*
X148765400Y-80661801D01*
X148794398Y-80685599D01*
X151145400Y-83036602D01*
X151145400Y-83098739D01*
X151185174Y-83298698D01*
X151263195Y-83487056D01*
X151376463Y-83656574D01*
X151520626Y-83800737D01*
X151690144Y-83914005D01*
X151878502Y-83992026D01*
X152078461Y-84031800D01*
X152282339Y-84031800D01*
X152482298Y-83992026D01*
X152670656Y-83914005D01*
X152840174Y-83800737D01*
X152984337Y-83656574D01*
X153033097Y-83583599D01*
X154921976Y-85472478D01*
X154892600Y-85620161D01*
X154892600Y-85824039D01*
X154932374Y-86023998D01*
X155010395Y-86212356D01*
X155123663Y-86381874D01*
X155267826Y-86526037D01*
X155437344Y-86639305D01*
X155625702Y-86717326D01*
X155825661Y-86757100D01*
X156029539Y-86757100D01*
X156229498Y-86717326D01*
X156417856Y-86639305D01*
X156587374Y-86526037D01*
X156731537Y-86381874D01*
X156844805Y-86212356D01*
X156922826Y-86023998D01*
X156962600Y-85824039D01*
X156962600Y-85620161D01*
X156922826Y-85420202D01*
X156844805Y-85231844D01*
X156731537Y-85062326D01*
X156587374Y-84918163D01*
X156417856Y-84804895D01*
X156394197Y-84795095D01*
X154009206Y-82410105D01*
X154056737Y-82362574D01*
X154170005Y-82193056D01*
X154248026Y-82004698D01*
X154287800Y-81804739D01*
X154287800Y-81600861D01*
X154248026Y-81400902D01*
X154170005Y-81212544D01*
X154056737Y-81043026D01*
X153951106Y-80937395D01*
X153985526Y-80854298D01*
X154025300Y-80654339D01*
X154025300Y-80450461D01*
X153985526Y-80250502D01*
X153910024Y-80068225D01*
X157747143Y-83905346D01*
X157699563Y-83952926D01*
X157586295Y-84122444D01*
X157508274Y-84310802D01*
X157468500Y-84510761D01*
X157468500Y-84714639D01*
X157508274Y-84914598D01*
X157586295Y-85102956D01*
X157699563Y-85272474D01*
X157843726Y-85416637D01*
X158013244Y-85529905D01*
X158201602Y-85607926D01*
X158401561Y-85647700D01*
X158605439Y-85647700D01*
X158778318Y-85613312D01*
X158809363Y-85659774D01*
X158953526Y-85803937D01*
X159123044Y-85917205D01*
X159311402Y-85995226D01*
X159511361Y-86035000D01*
X159715239Y-86035000D01*
X159915198Y-85995226D01*
X160103556Y-85917205D01*
X160273074Y-85803937D01*
X160417237Y-85659774D01*
X160530505Y-85490256D01*
X160608526Y-85301898D01*
X160648300Y-85101939D01*
X160648300Y-84898061D01*
X160608526Y-84698102D01*
X160530505Y-84509744D01*
X160417237Y-84340226D01*
X160273074Y-84196063D01*
X160103556Y-84082795D01*
X160053438Y-84062035D01*
X156788126Y-80796724D01*
X156965856Y-80723105D01*
X157135374Y-80609837D01*
X157279537Y-80465674D01*
X157392805Y-80296156D01*
X157470826Y-80107798D01*
X157510600Y-79907839D01*
X157510600Y-79703961D01*
X157470826Y-79504002D01*
X157392805Y-79315644D01*
X157279537Y-79146126D01*
X157135374Y-79001963D01*
X156965856Y-78888695D01*
X156777498Y-78810674D01*
X156577539Y-78770900D01*
X156373661Y-78770900D01*
X156173702Y-78810674D01*
X155985344Y-78888695D01*
X155815826Y-79001963D01*
X155671663Y-79146126D01*
X155558395Y-79315644D01*
X155484776Y-79493375D01*
X154815900Y-78824499D01*
X154815900Y-77179161D01*
X156440900Y-77179161D01*
X156440900Y-77383039D01*
X156480674Y-77582998D01*
X156558695Y-77771356D01*
X156671963Y-77940874D01*
X156816126Y-78085037D01*
X156985644Y-78198305D01*
X157174002Y-78276326D01*
X157373961Y-78316100D01*
X157577839Y-78316100D01*
X157777798Y-78276326D01*
X157966156Y-78198305D01*
X158135674Y-78085037D01*
X158279837Y-77940874D01*
X158393105Y-77771356D01*
X158471126Y-77582998D01*
X158510900Y-77383039D01*
X158510900Y-77192461D01*
X158878100Y-77192461D01*
X158878100Y-77396339D01*
X158917874Y-77596298D01*
X158995895Y-77784656D01*
X159109163Y-77954174D01*
X159253326Y-78098337D01*
X159422844Y-78211605D01*
X159611202Y-78289626D01*
X159811161Y-78329400D01*
X160015039Y-78329400D01*
X160214998Y-78289626D01*
X160403356Y-78211605D01*
X160572874Y-78098337D01*
X160717037Y-77954174D01*
X160830305Y-77784656D01*
X160908326Y-77596298D01*
X160948100Y-77396339D01*
X160948100Y-77192461D01*
X160908326Y-76992502D01*
X160830305Y-76804144D01*
X160717037Y-76634626D01*
X160572874Y-76490463D01*
X160403356Y-76377195D01*
X160214998Y-76299174D01*
X160015039Y-76259400D01*
X159811161Y-76259400D01*
X159611202Y-76299174D01*
X159422844Y-76377195D01*
X159253326Y-76490463D01*
X159109163Y-76634626D01*
X158995895Y-76804144D01*
X158917874Y-76992502D01*
X158878100Y-77192461D01*
X158510900Y-77192461D01*
X158510900Y-77179161D01*
X158471126Y-76979202D01*
X158393105Y-76790844D01*
X158279837Y-76621326D01*
X158135674Y-76477163D01*
X157966156Y-76363895D01*
X157777798Y-76285874D01*
X157577839Y-76246100D01*
X157373961Y-76246100D01*
X157174002Y-76285874D01*
X156985644Y-76363895D01*
X156816126Y-76477163D01*
X156671963Y-76621326D01*
X156558695Y-76790844D01*
X156480674Y-76979202D01*
X156440900Y-77179161D01*
X154815900Y-77179161D01*
X154815900Y-75721100D01*
X154883139Y-75721100D01*
X155083098Y-75681326D01*
X155271456Y-75603305D01*
X155440974Y-75490037D01*
X155585137Y-75345874D01*
X155698405Y-75176356D01*
X155776426Y-74987998D01*
X155816200Y-74788039D01*
X155816200Y-74584161D01*
X155776426Y-74384202D01*
X155698405Y-74195844D01*
X155585137Y-74026326D01*
X155541200Y-73982389D01*
X155541200Y-69383039D01*
X155587844Y-69414205D01*
X155776202Y-69492226D01*
X155976161Y-69532000D01*
X156180039Y-69532000D01*
X156379998Y-69492226D01*
X156568356Y-69414205D01*
X156737874Y-69300937D01*
X156882037Y-69156774D01*
X156995305Y-68987256D01*
X157073326Y-68798898D01*
X157113100Y-68598939D01*
X157113100Y-68395061D01*
X157073326Y-68195102D01*
X157008360Y-68038261D01*
X160433500Y-68038261D01*
X160433500Y-68242139D01*
X160473274Y-68442098D01*
X160551295Y-68630456D01*
X160664563Y-68799974D01*
X160808726Y-68944137D01*
X160978244Y-69057405D01*
X161166602Y-69135426D01*
X161366561Y-69175200D01*
X161570439Y-69175200D01*
X161770398Y-69135426D01*
X161958756Y-69057405D01*
X162128274Y-68944137D01*
X162272437Y-68799974D01*
X162385705Y-68630456D01*
X162463726Y-68442098D01*
X162503500Y-68242139D01*
X162503500Y-68038261D01*
X162463726Y-67838302D01*
X162385705Y-67649944D01*
X162272437Y-67480426D01*
X162128274Y-67336263D01*
X161958756Y-67222995D01*
X161770398Y-67144974D01*
X161570439Y-67105200D01*
X161366561Y-67105200D01*
X161166602Y-67144974D01*
X160978244Y-67222995D01*
X160808726Y-67336263D01*
X160664563Y-67480426D01*
X160551295Y-67649944D01*
X160473274Y-67838302D01*
X160433500Y-68038261D01*
X157008360Y-68038261D01*
X156995305Y-68006744D01*
X156882037Y-67837226D01*
X156737874Y-67693063D01*
X156599918Y-67600884D01*
X160537609Y-63663193D01*
X160727680Y-63701000D01*
X161012320Y-63701000D01*
X161291491Y-63645470D01*
X161554464Y-63536543D01*
X161791134Y-63378405D01*
X161992405Y-63177134D01*
X162140000Y-62956243D01*
X162287595Y-63177134D01*
X162488866Y-63378405D01*
X162725536Y-63536543D01*
X162988509Y-63645470D01*
X163267680Y-63701000D01*
X163552320Y-63701000D01*
X163831491Y-63645470D01*
X164094464Y-63536543D01*
X164331134Y-63378405D01*
X164532405Y-63177134D01*
X164680000Y-62956243D01*
X164827595Y-63177134D01*
X165028866Y-63378405D01*
X165265536Y-63536543D01*
X165528509Y-63645470D01*
X165807680Y-63701000D01*
X166092320Y-63701000D01*
X166371491Y-63645470D01*
X166594600Y-63553055D01*
X166594601Y-82851167D01*
X166590924Y-82888500D01*
X166605598Y-83037485D01*
X166649054Y-83180746D01*
X166719626Y-83312776D01*
X166787273Y-83395203D01*
X166814600Y-83428501D01*
X166843598Y-83452299D01*
X169102700Y-85711402D01*
X169102700Y-85716539D01*
X169142474Y-85916498D01*
X169220495Y-86104856D01*
X169333763Y-86274374D01*
X169477926Y-86418537D01*
X169647444Y-86531805D01*
X169835802Y-86609826D01*
X170035761Y-86649600D01*
X170239639Y-86649600D01*
X170439598Y-86609826D01*
X170627956Y-86531805D01*
X170720512Y-86469961D01*
X177204900Y-86469961D01*
X177204900Y-86673839D01*
X177244674Y-86873798D01*
X177322695Y-87062156D01*
X177435963Y-87231674D01*
X177580126Y-87375837D01*
X177749644Y-87489105D01*
X177938002Y-87567126D01*
X178137961Y-87606900D01*
X178341839Y-87606900D01*
X178541798Y-87567126D01*
X178711939Y-87496651D01*
X178733895Y-87549656D01*
X178847163Y-87719174D01*
X178991326Y-87863337D01*
X179160844Y-87976605D01*
X179349202Y-88054626D01*
X179549161Y-88094400D01*
X179753039Y-88094400D01*
X179952998Y-88054626D01*
X180141356Y-87976605D01*
X180310874Y-87863337D01*
X180455037Y-87719174D01*
X180568305Y-87549656D01*
X180646326Y-87361298D01*
X180686100Y-87161339D01*
X180686100Y-86957461D01*
X180646326Y-86757502D01*
X180568305Y-86569144D01*
X180455037Y-86399626D01*
X180310874Y-86255463D01*
X180141356Y-86142195D01*
X179952998Y-86064174D01*
X179753039Y-86024400D01*
X179549161Y-86024400D01*
X179349202Y-86064174D01*
X179179061Y-86134649D01*
X179157105Y-86081644D01*
X179043837Y-85912126D01*
X178899674Y-85767963D01*
X178730156Y-85654695D01*
X178541798Y-85576674D01*
X178341839Y-85536900D01*
X178137961Y-85536900D01*
X177938002Y-85576674D01*
X177749644Y-85654695D01*
X177580126Y-85767963D01*
X177435963Y-85912126D01*
X177322695Y-86081644D01*
X177244674Y-86270002D01*
X177204900Y-86469961D01*
X170720512Y-86469961D01*
X170797474Y-86418537D01*
X170941637Y-86274374D01*
X171054905Y-86104856D01*
X171132926Y-85916498D01*
X171172700Y-85716539D01*
X171172700Y-85512661D01*
X171132926Y-85312702D01*
X171054905Y-85124344D01*
X170941637Y-84954826D01*
X170797474Y-84810663D01*
X170675498Y-84729161D01*
X179853500Y-84729161D01*
X179853500Y-84933039D01*
X179893274Y-85132998D01*
X179971295Y-85321356D01*
X180084563Y-85490874D01*
X180228726Y-85635037D01*
X180398244Y-85748305D01*
X180586602Y-85826326D01*
X180786561Y-85866100D01*
X180990439Y-85866100D01*
X181190398Y-85826326D01*
X181378756Y-85748305D01*
X181548274Y-85635037D01*
X181692437Y-85490874D01*
X181805705Y-85321356D01*
X181883726Y-85132998D01*
X181923500Y-84933039D01*
X181923500Y-84729161D01*
X181883726Y-84529202D01*
X181805705Y-84340844D01*
X181692437Y-84171326D01*
X181548274Y-84027163D01*
X181378756Y-83913895D01*
X181190398Y-83835874D01*
X180990439Y-83796100D01*
X180786561Y-83796100D01*
X180586602Y-83835874D01*
X180398244Y-83913895D01*
X180228726Y-84027163D01*
X180084563Y-84171326D01*
X179971295Y-84340844D01*
X179893274Y-84529202D01*
X179853500Y-84729161D01*
X170675498Y-84729161D01*
X170627956Y-84697395D01*
X170439598Y-84619374D01*
X170239639Y-84579600D01*
X170120502Y-84579600D01*
X168114600Y-82573699D01*
X168114600Y-81410961D01*
X169615000Y-81410961D01*
X169615000Y-81614839D01*
X169654774Y-81814798D01*
X169732795Y-82003156D01*
X169846063Y-82172674D01*
X169990226Y-82316837D01*
X170159744Y-82430105D01*
X170348102Y-82508126D01*
X170548061Y-82547900D01*
X170751939Y-82547900D01*
X170951898Y-82508126D01*
X171140256Y-82430105D01*
X171309774Y-82316837D01*
X171453937Y-82172674D01*
X171567205Y-82003156D01*
X171645226Y-81814798D01*
X171664348Y-81718661D01*
X178262300Y-81718661D01*
X178262300Y-81922539D01*
X178302074Y-82122498D01*
X178380095Y-82310856D01*
X178493363Y-82480374D01*
X178637526Y-82624537D01*
X178807044Y-82737805D01*
X178995402Y-82815826D01*
X179195361Y-82855600D01*
X179399239Y-82855600D01*
X179599198Y-82815826D01*
X179787556Y-82737805D01*
X179957074Y-82624537D01*
X180101237Y-82480374D01*
X180214505Y-82310856D01*
X180292526Y-82122498D01*
X180332300Y-81922539D01*
X180332300Y-81718661D01*
X180292526Y-81518702D01*
X180214505Y-81330344D01*
X180101237Y-81160826D01*
X179957074Y-81016663D01*
X179787556Y-80903395D01*
X179599198Y-80825374D01*
X179399239Y-80785600D01*
X179195361Y-80785600D01*
X178995402Y-80825374D01*
X178807044Y-80903395D01*
X178637526Y-81016663D01*
X178493363Y-81160826D01*
X178380095Y-81330344D01*
X178302074Y-81518702D01*
X178262300Y-81718661D01*
X171664348Y-81718661D01*
X171685000Y-81614839D01*
X171685000Y-81410961D01*
X171645226Y-81211002D01*
X171567205Y-81022644D01*
X171453937Y-80853126D01*
X171309774Y-80708963D01*
X171140256Y-80595695D01*
X170951898Y-80517674D01*
X170751939Y-80477900D01*
X170548061Y-80477900D01*
X170348102Y-80517674D01*
X170159744Y-80595695D01*
X169990226Y-80708963D01*
X169846063Y-80853126D01*
X169732795Y-81022644D01*
X169654774Y-81211002D01*
X169615000Y-81410961D01*
X168114600Y-81410961D01*
X168114600Y-76526961D01*
X172178400Y-76526961D01*
X172178400Y-76730839D01*
X172218174Y-76930798D01*
X172296195Y-77119156D01*
X172409463Y-77288674D01*
X172553626Y-77432837D01*
X172723144Y-77546105D01*
X172911502Y-77624126D01*
X173001404Y-77642008D01*
X172944944Y-77665395D01*
X172775426Y-77778663D01*
X172631263Y-77922826D01*
X172517995Y-78092344D01*
X172439974Y-78280702D01*
X172400200Y-78480661D01*
X172400200Y-78684539D01*
X172439974Y-78884498D01*
X172517995Y-79072856D01*
X172631263Y-79242374D01*
X172775426Y-79386537D01*
X172944944Y-79499805D01*
X173133302Y-79577826D01*
X173333261Y-79617600D01*
X173537139Y-79617600D01*
X173737098Y-79577826D01*
X173925456Y-79499805D01*
X174094974Y-79386537D01*
X174239137Y-79242374D01*
X174352405Y-79072856D01*
X174430426Y-78884498D01*
X174470200Y-78684539D01*
X174470200Y-78480661D01*
X174430426Y-78280702D01*
X174352405Y-78092344D01*
X174239137Y-77922826D01*
X174094974Y-77778663D01*
X173925456Y-77665395D01*
X173737098Y-77587374D01*
X173647196Y-77569492D01*
X173703656Y-77546105D01*
X173873174Y-77432837D01*
X174017337Y-77288674D01*
X174130605Y-77119156D01*
X174208626Y-76930798D01*
X174248400Y-76730839D01*
X174248400Y-76526961D01*
X174211689Y-76342400D01*
X174239339Y-76342400D01*
X174439298Y-76302626D01*
X174627656Y-76224605D01*
X174797174Y-76111337D01*
X174941337Y-75967174D01*
X175054605Y-75797656D01*
X175132626Y-75609298D01*
X175172400Y-75409339D01*
X175172400Y-75205461D01*
X175132626Y-75005502D01*
X175054605Y-74817144D01*
X174941337Y-74647626D01*
X174797174Y-74503463D01*
X174627656Y-74390195D01*
X174439298Y-74312174D01*
X174239339Y-74272400D01*
X174035461Y-74272400D01*
X173835502Y-74312174D01*
X173647144Y-74390195D01*
X173477626Y-74503463D01*
X173333463Y-74647626D01*
X173220195Y-74817144D01*
X173142174Y-75005502D01*
X173102400Y-75205461D01*
X173102400Y-75409339D01*
X173139111Y-75593900D01*
X173111461Y-75593900D01*
X172911502Y-75633674D01*
X172723144Y-75711695D01*
X172553626Y-75824963D01*
X172409463Y-75969126D01*
X172296195Y-76138644D01*
X172218174Y-76327002D01*
X172178400Y-76526961D01*
X168114600Y-76526961D01*
X168114600Y-65676661D01*
X170257500Y-65676661D01*
X170257500Y-65880539D01*
X170297274Y-66080498D01*
X170375295Y-66268856D01*
X170488563Y-66438374D01*
X170632726Y-66582537D01*
X170802244Y-66695805D01*
X170990602Y-66773826D01*
X170992530Y-66774210D01*
X170957495Y-66826644D01*
X170879474Y-67015002D01*
X170839700Y-67214961D01*
X170839700Y-67418839D01*
X170879474Y-67618798D01*
X170957495Y-67807156D01*
X171070763Y-67976674D01*
X171214926Y-68120837D01*
X171384444Y-68234105D01*
X171572802Y-68312126D01*
X171772761Y-68351900D01*
X171976639Y-68351900D01*
X172176598Y-68312126D01*
X172364956Y-68234105D01*
X172415029Y-68200647D01*
X172354695Y-68290944D01*
X172276674Y-68479302D01*
X172236900Y-68679261D01*
X172236900Y-68883139D01*
X172276674Y-69083098D01*
X172354695Y-69271456D01*
X172467963Y-69440974D01*
X172612126Y-69585137D01*
X172781644Y-69698405D01*
X172970002Y-69776426D01*
X173169961Y-69816200D01*
X173373839Y-69816200D01*
X173573798Y-69776426D01*
X173762156Y-69698405D01*
X173931674Y-69585137D01*
X174075837Y-69440974D01*
X174189105Y-69271456D01*
X174267126Y-69083098D01*
X174306900Y-68883139D01*
X174306900Y-68679261D01*
X174267126Y-68479302D01*
X174189105Y-68290944D01*
X174075837Y-68121426D01*
X173931674Y-67977263D01*
X173762156Y-67863995D01*
X173573798Y-67785974D01*
X173373839Y-67746200D01*
X173169961Y-67746200D01*
X172970002Y-67785974D01*
X172781644Y-67863995D01*
X172731571Y-67897453D01*
X172791905Y-67807156D01*
X172869926Y-67618798D01*
X172909700Y-67418839D01*
X172909700Y-67214961D01*
X172869926Y-67015002D01*
X172791905Y-66826644D01*
X172678637Y-66657126D01*
X172534474Y-66512963D01*
X172364956Y-66399695D01*
X172176598Y-66321674D01*
X172174670Y-66321290D01*
X172209705Y-66268856D01*
X172287726Y-66080498D01*
X172327500Y-65880539D01*
X172327500Y-65676661D01*
X172287726Y-65476702D01*
X172209705Y-65288344D01*
X172096437Y-65118826D01*
X171952274Y-64974663D01*
X171782756Y-64861395D01*
X171594398Y-64783374D01*
X171394439Y-64743600D01*
X171190561Y-64743600D01*
X170990602Y-64783374D01*
X170802244Y-64861395D01*
X170632726Y-64974663D01*
X170488563Y-65118826D01*
X170375295Y-65288344D01*
X170297274Y-65476702D01*
X170257500Y-65676661D01*
X168114600Y-65676661D01*
X168114600Y-63654638D01*
X168347680Y-63701000D01*
X168632320Y-63701000D01*
X168779615Y-63671702D01*
X168645726Y-63761163D01*
X168501563Y-63905326D01*
X168388295Y-64074844D01*
X168310274Y-64263202D01*
X168270500Y-64463161D01*
X168270500Y-64667039D01*
X168310274Y-64866998D01*
X168388295Y-65055356D01*
X168501563Y-65224874D01*
X168645726Y-65369037D01*
X168815244Y-65482305D01*
X169003602Y-65560326D01*
X169203561Y-65600100D01*
X169407439Y-65600100D01*
X169607398Y-65560326D01*
X169795756Y-65482305D01*
X169965274Y-65369037D01*
X170109437Y-65224874D01*
X170222705Y-65055356D01*
X170300726Y-64866998D01*
X170340500Y-64667039D01*
X170340500Y-64463161D01*
X170300726Y-64263202D01*
X170222705Y-64074844D01*
X170109437Y-63905326D01*
X169965274Y-63761163D01*
X169795756Y-63647895D01*
X169607398Y-63569874D01*
X169407439Y-63530100D01*
X169203561Y-63530100D01*
X169175860Y-63535610D01*
X169411134Y-63378405D01*
X169612405Y-63177134D01*
X169760000Y-62956243D01*
X169907595Y-63177134D01*
X170108866Y-63378405D01*
X170345536Y-63536543D01*
X170608509Y-63645470D01*
X170887680Y-63701000D01*
X171172320Y-63701000D01*
X171451491Y-63645470D01*
X171714464Y-63536543D01*
X171951134Y-63378405D01*
X172152405Y-63177134D01*
X172300000Y-62956243D01*
X172447595Y-63177134D01*
X172648866Y-63378405D01*
X172885536Y-63536543D01*
X173148509Y-63645470D01*
X173427680Y-63701000D01*
X173712320Y-63701000D01*
X173991491Y-63645470D01*
X174254464Y-63536543D01*
X174491134Y-63378405D01*
X174692405Y-63177134D01*
X174840000Y-62956243D01*
X174987595Y-63177134D01*
X175188866Y-63378405D01*
X175425536Y-63536543D01*
X175688509Y-63645470D01*
X175967680Y-63701000D01*
X176252320Y-63701000D01*
X176531491Y-63645470D01*
X176794464Y-63536543D01*
X177031134Y-63378405D01*
X177232405Y-63177134D01*
X177380000Y-62956243D01*
X177527595Y-63177134D01*
X177728866Y-63378405D01*
X177965536Y-63536543D01*
X178228509Y-63645470D01*
X178507680Y-63701000D01*
X178792320Y-63701000D01*
X179071491Y-63645470D01*
X179334464Y-63536543D01*
X179571134Y-63378405D01*
X179772405Y-63177134D01*
X179930543Y-62940464D01*
X180039470Y-62677491D01*
X180095000Y-62398320D01*
X180095000Y-62113680D01*
X180039470Y-61834509D01*
X179930543Y-61571536D01*
X179772405Y-61334866D01*
X179571134Y-61133595D01*
X179350243Y-60986000D01*
X179571134Y-60838405D01*
X179772405Y-60637134D01*
X179930543Y-60400464D01*
X180039470Y-60137491D01*
X180095000Y-59858320D01*
X180095000Y-59573680D01*
X180039470Y-59294509D01*
X179930543Y-59031536D01*
X179772405Y-58794866D01*
X179571134Y-58593595D01*
X179350243Y-58446000D01*
X179571134Y-58298405D01*
X179772405Y-58097134D01*
X179930543Y-57860464D01*
X180039470Y-57597491D01*
X180095000Y-57318320D01*
X180095000Y-57033680D01*
X180039470Y-56754509D01*
X179930543Y-56491536D01*
X179772405Y-56254866D01*
X179571134Y-56053595D01*
X179350243Y-55906000D01*
X179571134Y-55758405D01*
X179772405Y-55557134D01*
X179930543Y-55320464D01*
X180039470Y-55057491D01*
X180095000Y-54778320D01*
X180095000Y-54493680D01*
X180039470Y-54214509D01*
X179930543Y-53951536D01*
X179772405Y-53714866D01*
X179571134Y-53513595D01*
X179334464Y-53355457D01*
X179071491Y-53246530D01*
X178792320Y-53191000D01*
X178507680Y-53191000D01*
X178228509Y-53246530D01*
X177965536Y-53355457D01*
X177728866Y-53513595D01*
X177527595Y-53714866D01*
X177380000Y-53935757D01*
X177232405Y-53714866D01*
X177031134Y-53513595D01*
X176794464Y-53355457D01*
X176531491Y-53246530D01*
X176252320Y-53191000D01*
X175967680Y-53191000D01*
X175688509Y-53246530D01*
X175425536Y-53355457D01*
X175188866Y-53513595D01*
X174987595Y-53714866D01*
X174840000Y-53935757D01*
X174692405Y-53714866D01*
X174491134Y-53513595D01*
X174254464Y-53355457D01*
X173991491Y-53246530D01*
X173712320Y-53191000D01*
X173427680Y-53191000D01*
X173148509Y-53246530D01*
X172885536Y-53355457D01*
X172648866Y-53513595D01*
X172447595Y-53714866D01*
X172300000Y-53935757D01*
X172152405Y-53714866D01*
X171951134Y-53513595D01*
X171714464Y-53355457D01*
X171451491Y-53246530D01*
X171172320Y-53191000D01*
X170887680Y-53191000D01*
X170608509Y-53246530D01*
X170345536Y-53355457D01*
X170108866Y-53513595D01*
X169907595Y-53714866D01*
X169760000Y-53935757D01*
X169612405Y-53714866D01*
X169411134Y-53513595D01*
X169174464Y-53355457D01*
X168911491Y-53246530D01*
X168632320Y-53191000D01*
X168347680Y-53191000D01*
X168068509Y-53246530D01*
X167805536Y-53355457D01*
X167568866Y-53513595D01*
X167367595Y-53714866D01*
X167220000Y-53935757D01*
X167072405Y-53714866D01*
X166871134Y-53513595D01*
X166634464Y-53355457D01*
X166371491Y-53246530D01*
X166092320Y-53191000D01*
X165807680Y-53191000D01*
X165528509Y-53246530D01*
X165265536Y-53355457D01*
X165028866Y-53513595D01*
X164827595Y-53714866D01*
X164680000Y-53935757D01*
X164532405Y-53714866D01*
X164331134Y-53513595D01*
X164094464Y-53355457D01*
X163831491Y-53246530D01*
X163552320Y-53191000D01*
X163267680Y-53191000D01*
X162988509Y-53246530D01*
X162725536Y-53355457D01*
X162488866Y-53513595D01*
X162287595Y-53714866D01*
X162140000Y-53935757D01*
X161992405Y-53714866D01*
X161791134Y-53513595D01*
X161554464Y-53355457D01*
X161291491Y-53246530D01*
X161012320Y-53191000D01*
X160727680Y-53191000D01*
X160448509Y-53246530D01*
X160185536Y-53355457D01*
X159948866Y-53513595D01*
X159747595Y-53714866D01*
X159600000Y-53935757D01*
X159452405Y-53714866D01*
X159251134Y-53513595D01*
X159014464Y-53355457D01*
X158751491Y-53246530D01*
X158472320Y-53191000D01*
X158187680Y-53191000D01*
X157908509Y-53246530D01*
X157645536Y-53355457D01*
X157408866Y-53513595D01*
X157207595Y-53714866D01*
X157060000Y-53935757D01*
X156912405Y-53714866D01*
X156711134Y-53513595D01*
X156474464Y-53355457D01*
X156211491Y-53246530D01*
X155932320Y-53191000D01*
X155647680Y-53191000D01*
X155368509Y-53246530D01*
X155105536Y-53355457D01*
X154868866Y-53513595D01*
X154667595Y-53714866D01*
X154520000Y-53935757D01*
X154372405Y-53714866D01*
X154171134Y-53513595D01*
X153934464Y-53355457D01*
X153671491Y-53246530D01*
X153392320Y-53191000D01*
X153107680Y-53191000D01*
X152828509Y-53246530D01*
X152565536Y-53355457D01*
X152328866Y-53513595D01*
X152127595Y-53714866D01*
X151980000Y-53935757D01*
X151832405Y-53714866D01*
X151631134Y-53513595D01*
X151394464Y-53355457D01*
X151131491Y-53246530D01*
X150852320Y-53191000D01*
X150567680Y-53191000D01*
X150288509Y-53246530D01*
X150025536Y-53355457D01*
X149788866Y-53513595D01*
X149587595Y-53714866D01*
X149440000Y-53935757D01*
X149292405Y-53714866D01*
X149091134Y-53513595D01*
X148854464Y-53355457D01*
X148591491Y-53246530D01*
X148312320Y-53191000D01*
X148027680Y-53191000D01*
X147748509Y-53246530D01*
X147485536Y-53355457D01*
X147248866Y-53513595D01*
X147047595Y-53714866D01*
X146900000Y-53935757D01*
X146752405Y-53714866D01*
X146551134Y-53513595D01*
X146314464Y-53355457D01*
X146051491Y-53246530D01*
X145772320Y-53191000D01*
X145487680Y-53191000D01*
X145208509Y-53246530D01*
X144945536Y-53355457D01*
X144708866Y-53513595D01*
X144507595Y-53714866D01*
X144360000Y-53935757D01*
X144212405Y-53714866D01*
X144011134Y-53513595D01*
X143774464Y-53355457D01*
X143511491Y-53246530D01*
X143232320Y-53191000D01*
X142947680Y-53191000D01*
X142668509Y-53246530D01*
X142405536Y-53355457D01*
X142168866Y-53513595D01*
X141967595Y-53714866D01*
X141820000Y-53935757D01*
X141672405Y-53714866D01*
X141471134Y-53513595D01*
X141234464Y-53355457D01*
X140971491Y-53246530D01*
X140692320Y-53191000D01*
X140407680Y-53191000D01*
X140128509Y-53246530D01*
X139865536Y-53355457D01*
X139628866Y-53513595D01*
X139427595Y-53714866D01*
X139280000Y-53935757D01*
X139132405Y-53714866D01*
X138931134Y-53513595D01*
X138694464Y-53355457D01*
X138431491Y-53246530D01*
X138152320Y-53191000D01*
X137867680Y-53191000D01*
X137588509Y-53246530D01*
X137325536Y-53355457D01*
X137088866Y-53513595D01*
X136887595Y-53714866D01*
X136740000Y-53935757D01*
X136592405Y-53714866D01*
X136391134Y-53513595D01*
X136154464Y-53355457D01*
X135891491Y-53246530D01*
X135612320Y-53191000D01*
X135327680Y-53191000D01*
X135048509Y-53246530D01*
X134785536Y-53355457D01*
X134548866Y-53513595D01*
X134347595Y-53714866D01*
X134200000Y-53935757D01*
X134052405Y-53714866D01*
X133851134Y-53513595D01*
X133614464Y-53355457D01*
X133351491Y-53246530D01*
X133072320Y-53191000D01*
X132787680Y-53191000D01*
X132508509Y-53246530D01*
X132245536Y-53355457D01*
X132008866Y-53513595D01*
X131807595Y-53714866D01*
X131660000Y-53935757D01*
X131512405Y-53714866D01*
X131311134Y-53513595D01*
X131074464Y-53355457D01*
X130811491Y-53246530D01*
X130532320Y-53191000D01*
X130247680Y-53191000D01*
X129968509Y-53246530D01*
X129705536Y-53355457D01*
X129468866Y-53513595D01*
X129267595Y-53714866D01*
X129120000Y-53935757D01*
X128972405Y-53714866D01*
X128771134Y-53513595D01*
X128534464Y-53355457D01*
X128271491Y-53246530D01*
X127992320Y-53191000D01*
X127707680Y-53191000D01*
X127428509Y-53246530D01*
X127165536Y-53355457D01*
X126928866Y-53513595D01*
X126727595Y-53714866D01*
X126580000Y-53935757D01*
X126432405Y-53714866D01*
X126231134Y-53513595D01*
X125994464Y-53355457D01*
X125731491Y-53246530D01*
X125452320Y-53191000D01*
X125167680Y-53191000D01*
X124888509Y-53246530D01*
X124625536Y-53355457D01*
X124388866Y-53513595D01*
X124187595Y-53714866D01*
X124040000Y-53935757D01*
X123892405Y-53714866D01*
X123691134Y-53513595D01*
X123454464Y-53355457D01*
X123191491Y-53246530D01*
X122912320Y-53191000D01*
X122627680Y-53191000D01*
X122348509Y-53246530D01*
X122085536Y-53355457D01*
X121848866Y-53513595D01*
X121647595Y-53714866D01*
X121500000Y-53935757D01*
X121352405Y-53714866D01*
X121151134Y-53513595D01*
X120914464Y-53355457D01*
X120651491Y-53246530D01*
X120372320Y-53191000D01*
X120087680Y-53191000D01*
X119808509Y-53246530D01*
X119545536Y-53355457D01*
X119308866Y-53513595D01*
X119107595Y-53714866D01*
X118960000Y-53935757D01*
X118812405Y-53714866D01*
X118611134Y-53513595D01*
X118374464Y-53355457D01*
X118111491Y-53246530D01*
X117832320Y-53191000D01*
X117547680Y-53191000D01*
X117268509Y-53246530D01*
X117005536Y-53355457D01*
X116768866Y-53513595D01*
X116567595Y-53714866D01*
X116420000Y-53935757D01*
X116272405Y-53714866D01*
X116071134Y-53513595D01*
X115834464Y-53355457D01*
X115571491Y-53246530D01*
X115292320Y-53191000D01*
X115007680Y-53191000D01*
X114728509Y-53246530D01*
X114465536Y-53355457D01*
X114228866Y-53513595D01*
X114027595Y-53714866D01*
X113869457Y-53951536D01*
X113760530Y-54214509D01*
X113705000Y-54493680D01*
X113457000Y-54493680D01*
X113407292Y-53978842D01*
X113214962Y-53340395D01*
X112901772Y-52751738D01*
X112894503Y-52740859D01*
X112450930Y-52434678D01*
X112564507Y-52321101D01*
X112489406Y-52246000D01*
X181310594Y-52246000D01*
X181235493Y-52321101D01*
M02*
