G04 #@! TF.GenerationSoftware,KiCad,Pcbnew,5.1.6-1.fc32*
G04 #@! TF.CreationDate,2020-09-17T12:17:53-03:00*
G04 #@! TF.ProjectId,pc104-adapter-top,70633130-342d-4616-9461-707465722d74,v2.0*
G04 #@! TF.SameCoordinates,Original*
G04 #@! TF.FileFunction,Paste,Bot*
G04 #@! TF.FilePolarity,Positive*
%FSLAX46Y46*%
G04 Gerber Fmt 4.6, Leading zero omitted, Abs format (unit mm)*
G04 Created by KiCad (PCBNEW 5.1.6-1.fc32) date 2020-09-17 12:17:53*
%MOMM*%
%LPD*%
G01*
G04 APERTURE LIST*
G04 APERTURE END LIST*
G36*
G01*
X183082000Y-92000000D02*
X185582000Y-92000000D01*
G75*
G02*
X185832000Y-92250000I0J-250000D01*
G01*
X185832000Y-93850000D01*
G75*
G02*
X185582000Y-94100000I-250000J0D01*
G01*
X183082000Y-94100000D01*
G75*
G02*
X182832000Y-93850000I0J250000D01*
G01*
X182832000Y-92250000D01*
G75*
G02*
X183082000Y-92000000I250000J0D01*
G01*
G37*
G36*
G01*
X183082000Y-71900000D02*
X185582000Y-71900000D01*
G75*
G02*
X185832000Y-72150000I0J-250000D01*
G01*
X185832000Y-73750000D01*
G75*
G02*
X185582000Y-74000000I-250000J0D01*
G01*
X183082000Y-74000000D01*
G75*
G02*
X182832000Y-73750000I0J250000D01*
G01*
X182832000Y-72150000D01*
G75*
G02*
X183082000Y-71900000I250000J0D01*
G01*
G37*
G36*
G01*
X181132000Y-90100000D02*
X182032000Y-90100000D01*
G75*
G02*
X182232000Y-90300000I0J-200000D01*
G01*
X182232000Y-90700000D01*
G75*
G02*
X182032000Y-90900000I-200000J0D01*
G01*
X181132000Y-90900000D01*
G75*
G02*
X180932000Y-90700000I0J200000D01*
G01*
X180932000Y-90300000D01*
G75*
G02*
X181132000Y-90100000I200000J0D01*
G01*
G37*
G36*
G01*
X181132000Y-88850000D02*
X182032000Y-88850000D01*
G75*
G02*
X182232000Y-89050000I0J-200000D01*
G01*
X182232000Y-89450000D01*
G75*
G02*
X182032000Y-89650000I-200000J0D01*
G01*
X181132000Y-89650000D01*
G75*
G02*
X180932000Y-89450000I0J200000D01*
G01*
X180932000Y-89050000D01*
G75*
G02*
X181132000Y-88850000I200000J0D01*
G01*
G37*
G36*
G01*
X181132000Y-87600000D02*
X182032000Y-87600000D01*
G75*
G02*
X182232000Y-87800000I0J-200000D01*
G01*
X182232000Y-88200000D01*
G75*
G02*
X182032000Y-88400000I-200000J0D01*
G01*
X181132000Y-88400000D01*
G75*
G02*
X180932000Y-88200000I0J200000D01*
G01*
X180932000Y-87800000D01*
G75*
G02*
X181132000Y-87600000I200000J0D01*
G01*
G37*
G36*
G01*
X181132000Y-86350000D02*
X182032000Y-86350000D01*
G75*
G02*
X182232000Y-86550000I0J-200000D01*
G01*
X182232000Y-86950000D01*
G75*
G02*
X182032000Y-87150000I-200000J0D01*
G01*
X181132000Y-87150000D01*
G75*
G02*
X180932000Y-86950000I0J200000D01*
G01*
X180932000Y-86550000D01*
G75*
G02*
X181132000Y-86350000I200000J0D01*
G01*
G37*
G36*
G01*
X181132000Y-85100000D02*
X182032000Y-85100000D01*
G75*
G02*
X182232000Y-85300000I0J-200000D01*
G01*
X182232000Y-85700000D01*
G75*
G02*
X182032000Y-85900000I-200000J0D01*
G01*
X181132000Y-85900000D01*
G75*
G02*
X180932000Y-85700000I0J200000D01*
G01*
X180932000Y-85300000D01*
G75*
G02*
X181132000Y-85100000I200000J0D01*
G01*
G37*
G36*
G01*
X181132000Y-83850000D02*
X182032000Y-83850000D01*
G75*
G02*
X182232000Y-84050000I0J-200000D01*
G01*
X182232000Y-84450000D01*
G75*
G02*
X182032000Y-84650000I-200000J0D01*
G01*
X181132000Y-84650000D01*
G75*
G02*
X180932000Y-84450000I0J200000D01*
G01*
X180932000Y-84050000D01*
G75*
G02*
X181132000Y-83850000I200000J0D01*
G01*
G37*
G36*
G01*
X181132000Y-82600000D02*
X182032000Y-82600000D01*
G75*
G02*
X182232000Y-82800000I0J-200000D01*
G01*
X182232000Y-83200000D01*
G75*
G02*
X182032000Y-83400000I-200000J0D01*
G01*
X181132000Y-83400000D01*
G75*
G02*
X180932000Y-83200000I0J200000D01*
G01*
X180932000Y-82800000D01*
G75*
G02*
X181132000Y-82600000I200000J0D01*
G01*
G37*
G36*
G01*
X181132000Y-81350000D02*
X182032000Y-81350000D01*
G75*
G02*
X182232000Y-81550000I0J-200000D01*
G01*
X182232000Y-81950000D01*
G75*
G02*
X182032000Y-82150000I-200000J0D01*
G01*
X181132000Y-82150000D01*
G75*
G02*
X180932000Y-81950000I0J200000D01*
G01*
X180932000Y-81550000D01*
G75*
G02*
X181132000Y-81350000I200000J0D01*
G01*
G37*
G36*
G01*
X181132000Y-80100000D02*
X182032000Y-80100000D01*
G75*
G02*
X182232000Y-80300000I0J-200000D01*
G01*
X182232000Y-80700000D01*
G75*
G02*
X182032000Y-80900000I-200000J0D01*
G01*
X181132000Y-80900000D01*
G75*
G02*
X180932000Y-80700000I0J200000D01*
G01*
X180932000Y-80300000D01*
G75*
G02*
X181132000Y-80100000I200000J0D01*
G01*
G37*
G36*
G01*
X181132000Y-78850000D02*
X182032000Y-78850000D01*
G75*
G02*
X182232000Y-79050000I0J-200000D01*
G01*
X182232000Y-79450000D01*
G75*
G02*
X182032000Y-79650000I-200000J0D01*
G01*
X181132000Y-79650000D01*
G75*
G02*
X180932000Y-79450000I0J200000D01*
G01*
X180932000Y-79050000D01*
G75*
G02*
X181132000Y-78850000I200000J0D01*
G01*
G37*
G36*
G01*
X181132000Y-77600000D02*
X182032000Y-77600000D01*
G75*
G02*
X182232000Y-77800000I0J-200000D01*
G01*
X182232000Y-78200000D01*
G75*
G02*
X182032000Y-78400000I-200000J0D01*
G01*
X181132000Y-78400000D01*
G75*
G02*
X180932000Y-78200000I0J200000D01*
G01*
X180932000Y-77800000D01*
G75*
G02*
X181132000Y-77600000I200000J0D01*
G01*
G37*
G36*
G01*
X181132000Y-76350000D02*
X182032000Y-76350000D01*
G75*
G02*
X182232000Y-76550000I0J-200000D01*
G01*
X182232000Y-76950000D01*
G75*
G02*
X182032000Y-77150000I-200000J0D01*
G01*
X181132000Y-77150000D01*
G75*
G02*
X180932000Y-76950000I0J200000D01*
G01*
X180932000Y-76550000D01*
G75*
G02*
X181132000Y-76350000I200000J0D01*
G01*
G37*
G36*
G01*
X181132000Y-75100000D02*
X182032000Y-75100000D01*
G75*
G02*
X182232000Y-75300000I0J-200000D01*
G01*
X182232000Y-75700000D01*
G75*
G02*
X182032000Y-75900000I-200000J0D01*
G01*
X181132000Y-75900000D01*
G75*
G02*
X180932000Y-75700000I0J200000D01*
G01*
X180932000Y-75300000D01*
G75*
G02*
X181132000Y-75100000I200000J0D01*
G01*
G37*
G36*
G01*
X151508000Y-92000000D02*
X154008000Y-92000000D01*
G75*
G02*
X154258000Y-92250000I0J-250000D01*
G01*
X154258000Y-93850000D01*
G75*
G02*
X154008000Y-94100000I-250000J0D01*
G01*
X151508000Y-94100000D01*
G75*
G02*
X151258000Y-93850000I0J250000D01*
G01*
X151258000Y-92250000D01*
G75*
G02*
X151508000Y-92000000I250000J0D01*
G01*
G37*
G36*
G01*
X151508000Y-71900000D02*
X154008000Y-71900000D01*
G75*
G02*
X154258000Y-72150000I0J-250000D01*
G01*
X154258000Y-73750000D01*
G75*
G02*
X154008000Y-74000000I-250000J0D01*
G01*
X151508000Y-74000000D01*
G75*
G02*
X151258000Y-73750000I0J250000D01*
G01*
X151258000Y-72150000D01*
G75*
G02*
X151508000Y-71900000I250000J0D01*
G01*
G37*
G36*
G01*
X149558000Y-90100000D02*
X150458000Y-90100000D01*
G75*
G02*
X150658000Y-90300000I0J-200000D01*
G01*
X150658000Y-90700000D01*
G75*
G02*
X150458000Y-90900000I-200000J0D01*
G01*
X149558000Y-90900000D01*
G75*
G02*
X149358000Y-90700000I0J200000D01*
G01*
X149358000Y-90300000D01*
G75*
G02*
X149558000Y-90100000I200000J0D01*
G01*
G37*
G36*
G01*
X149558000Y-88850000D02*
X150458000Y-88850000D01*
G75*
G02*
X150658000Y-89050000I0J-200000D01*
G01*
X150658000Y-89450000D01*
G75*
G02*
X150458000Y-89650000I-200000J0D01*
G01*
X149558000Y-89650000D01*
G75*
G02*
X149358000Y-89450000I0J200000D01*
G01*
X149358000Y-89050000D01*
G75*
G02*
X149558000Y-88850000I200000J0D01*
G01*
G37*
G36*
G01*
X149558000Y-87600000D02*
X150458000Y-87600000D01*
G75*
G02*
X150658000Y-87800000I0J-200000D01*
G01*
X150658000Y-88200000D01*
G75*
G02*
X150458000Y-88400000I-200000J0D01*
G01*
X149558000Y-88400000D01*
G75*
G02*
X149358000Y-88200000I0J200000D01*
G01*
X149358000Y-87800000D01*
G75*
G02*
X149558000Y-87600000I200000J0D01*
G01*
G37*
G36*
G01*
X149558000Y-86350000D02*
X150458000Y-86350000D01*
G75*
G02*
X150658000Y-86550000I0J-200000D01*
G01*
X150658000Y-86950000D01*
G75*
G02*
X150458000Y-87150000I-200000J0D01*
G01*
X149558000Y-87150000D01*
G75*
G02*
X149358000Y-86950000I0J200000D01*
G01*
X149358000Y-86550000D01*
G75*
G02*
X149558000Y-86350000I200000J0D01*
G01*
G37*
G36*
G01*
X149558000Y-85100000D02*
X150458000Y-85100000D01*
G75*
G02*
X150658000Y-85300000I0J-200000D01*
G01*
X150658000Y-85700000D01*
G75*
G02*
X150458000Y-85900000I-200000J0D01*
G01*
X149558000Y-85900000D01*
G75*
G02*
X149358000Y-85700000I0J200000D01*
G01*
X149358000Y-85300000D01*
G75*
G02*
X149558000Y-85100000I200000J0D01*
G01*
G37*
G36*
G01*
X149558000Y-83850000D02*
X150458000Y-83850000D01*
G75*
G02*
X150658000Y-84050000I0J-200000D01*
G01*
X150658000Y-84450000D01*
G75*
G02*
X150458000Y-84650000I-200000J0D01*
G01*
X149558000Y-84650000D01*
G75*
G02*
X149358000Y-84450000I0J200000D01*
G01*
X149358000Y-84050000D01*
G75*
G02*
X149558000Y-83850000I200000J0D01*
G01*
G37*
G36*
G01*
X149558000Y-82600000D02*
X150458000Y-82600000D01*
G75*
G02*
X150658000Y-82800000I0J-200000D01*
G01*
X150658000Y-83200000D01*
G75*
G02*
X150458000Y-83400000I-200000J0D01*
G01*
X149558000Y-83400000D01*
G75*
G02*
X149358000Y-83200000I0J200000D01*
G01*
X149358000Y-82800000D01*
G75*
G02*
X149558000Y-82600000I200000J0D01*
G01*
G37*
G36*
G01*
X149558000Y-81350000D02*
X150458000Y-81350000D01*
G75*
G02*
X150658000Y-81550000I0J-200000D01*
G01*
X150658000Y-81950000D01*
G75*
G02*
X150458000Y-82150000I-200000J0D01*
G01*
X149558000Y-82150000D01*
G75*
G02*
X149358000Y-81950000I0J200000D01*
G01*
X149358000Y-81550000D01*
G75*
G02*
X149558000Y-81350000I200000J0D01*
G01*
G37*
G36*
G01*
X149558000Y-80100000D02*
X150458000Y-80100000D01*
G75*
G02*
X150658000Y-80300000I0J-200000D01*
G01*
X150658000Y-80700000D01*
G75*
G02*
X150458000Y-80900000I-200000J0D01*
G01*
X149558000Y-80900000D01*
G75*
G02*
X149358000Y-80700000I0J200000D01*
G01*
X149358000Y-80300000D01*
G75*
G02*
X149558000Y-80100000I200000J0D01*
G01*
G37*
G36*
G01*
X149558000Y-78850000D02*
X150458000Y-78850000D01*
G75*
G02*
X150658000Y-79050000I0J-200000D01*
G01*
X150658000Y-79450000D01*
G75*
G02*
X150458000Y-79650000I-200000J0D01*
G01*
X149558000Y-79650000D01*
G75*
G02*
X149358000Y-79450000I0J200000D01*
G01*
X149358000Y-79050000D01*
G75*
G02*
X149558000Y-78850000I200000J0D01*
G01*
G37*
G36*
G01*
X149558000Y-77600000D02*
X150458000Y-77600000D01*
G75*
G02*
X150658000Y-77800000I0J-200000D01*
G01*
X150658000Y-78200000D01*
G75*
G02*
X150458000Y-78400000I-200000J0D01*
G01*
X149558000Y-78400000D01*
G75*
G02*
X149358000Y-78200000I0J200000D01*
G01*
X149358000Y-77800000D01*
G75*
G02*
X149558000Y-77600000I200000J0D01*
G01*
G37*
G36*
G01*
X149558000Y-76350000D02*
X150458000Y-76350000D01*
G75*
G02*
X150658000Y-76550000I0J-200000D01*
G01*
X150658000Y-76950000D01*
G75*
G02*
X150458000Y-77150000I-200000J0D01*
G01*
X149558000Y-77150000D01*
G75*
G02*
X149358000Y-76950000I0J200000D01*
G01*
X149358000Y-76550000D01*
G75*
G02*
X149558000Y-76350000I200000J0D01*
G01*
G37*
G36*
G01*
X149558000Y-75100000D02*
X150458000Y-75100000D01*
G75*
G02*
X150658000Y-75300000I0J-200000D01*
G01*
X150658000Y-75700000D01*
G75*
G02*
X150458000Y-75900000I-200000J0D01*
G01*
X149558000Y-75900000D01*
G75*
G02*
X149358000Y-75700000I0J200000D01*
G01*
X149358000Y-75300000D01*
G75*
G02*
X149558000Y-75100000I200000J0D01*
G01*
G37*
G36*
G01*
X129959000Y-74000000D02*
X127459000Y-74000000D01*
G75*
G02*
X127209000Y-73750000I0J250000D01*
G01*
X127209000Y-72150000D01*
G75*
G02*
X127459000Y-71900000I250000J0D01*
G01*
X129959000Y-71900000D01*
G75*
G02*
X130209000Y-72150000I0J-250000D01*
G01*
X130209000Y-73750000D01*
G75*
G02*
X129959000Y-74000000I-250000J0D01*
G01*
G37*
G36*
G01*
X129959000Y-94100000D02*
X127459000Y-94100000D01*
G75*
G02*
X127209000Y-93850000I0J250000D01*
G01*
X127209000Y-92250000D01*
G75*
G02*
X127459000Y-92000000I250000J0D01*
G01*
X129959000Y-92000000D01*
G75*
G02*
X130209000Y-92250000I0J-250000D01*
G01*
X130209000Y-93850000D01*
G75*
G02*
X129959000Y-94100000I-250000J0D01*
G01*
G37*
G36*
G01*
X131909000Y-75900000D02*
X131009000Y-75900000D01*
G75*
G02*
X130809000Y-75700000I0J200000D01*
G01*
X130809000Y-75300000D01*
G75*
G02*
X131009000Y-75100000I200000J0D01*
G01*
X131909000Y-75100000D01*
G75*
G02*
X132109000Y-75300000I0J-200000D01*
G01*
X132109000Y-75700000D01*
G75*
G02*
X131909000Y-75900000I-200000J0D01*
G01*
G37*
G36*
G01*
X131909000Y-77150000D02*
X131009000Y-77150000D01*
G75*
G02*
X130809000Y-76950000I0J200000D01*
G01*
X130809000Y-76550000D01*
G75*
G02*
X131009000Y-76350000I200000J0D01*
G01*
X131909000Y-76350000D01*
G75*
G02*
X132109000Y-76550000I0J-200000D01*
G01*
X132109000Y-76950000D01*
G75*
G02*
X131909000Y-77150000I-200000J0D01*
G01*
G37*
G36*
G01*
X131909000Y-78400000D02*
X131009000Y-78400000D01*
G75*
G02*
X130809000Y-78200000I0J200000D01*
G01*
X130809000Y-77800000D01*
G75*
G02*
X131009000Y-77600000I200000J0D01*
G01*
X131909000Y-77600000D01*
G75*
G02*
X132109000Y-77800000I0J-200000D01*
G01*
X132109000Y-78200000D01*
G75*
G02*
X131909000Y-78400000I-200000J0D01*
G01*
G37*
G36*
G01*
X131909000Y-79650000D02*
X131009000Y-79650000D01*
G75*
G02*
X130809000Y-79450000I0J200000D01*
G01*
X130809000Y-79050000D01*
G75*
G02*
X131009000Y-78850000I200000J0D01*
G01*
X131909000Y-78850000D01*
G75*
G02*
X132109000Y-79050000I0J-200000D01*
G01*
X132109000Y-79450000D01*
G75*
G02*
X131909000Y-79650000I-200000J0D01*
G01*
G37*
G36*
G01*
X131909000Y-80900000D02*
X131009000Y-80900000D01*
G75*
G02*
X130809000Y-80700000I0J200000D01*
G01*
X130809000Y-80300000D01*
G75*
G02*
X131009000Y-80100000I200000J0D01*
G01*
X131909000Y-80100000D01*
G75*
G02*
X132109000Y-80300000I0J-200000D01*
G01*
X132109000Y-80700000D01*
G75*
G02*
X131909000Y-80900000I-200000J0D01*
G01*
G37*
G36*
G01*
X131909000Y-82150000D02*
X131009000Y-82150000D01*
G75*
G02*
X130809000Y-81950000I0J200000D01*
G01*
X130809000Y-81550000D01*
G75*
G02*
X131009000Y-81350000I200000J0D01*
G01*
X131909000Y-81350000D01*
G75*
G02*
X132109000Y-81550000I0J-200000D01*
G01*
X132109000Y-81950000D01*
G75*
G02*
X131909000Y-82150000I-200000J0D01*
G01*
G37*
G36*
G01*
X131909000Y-83400000D02*
X131009000Y-83400000D01*
G75*
G02*
X130809000Y-83200000I0J200000D01*
G01*
X130809000Y-82800000D01*
G75*
G02*
X131009000Y-82600000I200000J0D01*
G01*
X131909000Y-82600000D01*
G75*
G02*
X132109000Y-82800000I0J-200000D01*
G01*
X132109000Y-83200000D01*
G75*
G02*
X131909000Y-83400000I-200000J0D01*
G01*
G37*
G36*
G01*
X131909000Y-84650000D02*
X131009000Y-84650000D01*
G75*
G02*
X130809000Y-84450000I0J200000D01*
G01*
X130809000Y-84050000D01*
G75*
G02*
X131009000Y-83850000I200000J0D01*
G01*
X131909000Y-83850000D01*
G75*
G02*
X132109000Y-84050000I0J-200000D01*
G01*
X132109000Y-84450000D01*
G75*
G02*
X131909000Y-84650000I-200000J0D01*
G01*
G37*
G36*
G01*
X131909000Y-85900000D02*
X131009000Y-85900000D01*
G75*
G02*
X130809000Y-85700000I0J200000D01*
G01*
X130809000Y-85300000D01*
G75*
G02*
X131009000Y-85100000I200000J0D01*
G01*
X131909000Y-85100000D01*
G75*
G02*
X132109000Y-85300000I0J-200000D01*
G01*
X132109000Y-85700000D01*
G75*
G02*
X131909000Y-85900000I-200000J0D01*
G01*
G37*
G36*
G01*
X131909000Y-87150000D02*
X131009000Y-87150000D01*
G75*
G02*
X130809000Y-86950000I0J200000D01*
G01*
X130809000Y-86550000D01*
G75*
G02*
X131009000Y-86350000I200000J0D01*
G01*
X131909000Y-86350000D01*
G75*
G02*
X132109000Y-86550000I0J-200000D01*
G01*
X132109000Y-86950000D01*
G75*
G02*
X131909000Y-87150000I-200000J0D01*
G01*
G37*
G36*
G01*
X131909000Y-88400000D02*
X131009000Y-88400000D01*
G75*
G02*
X130809000Y-88200000I0J200000D01*
G01*
X130809000Y-87800000D01*
G75*
G02*
X131009000Y-87600000I200000J0D01*
G01*
X131909000Y-87600000D01*
G75*
G02*
X132109000Y-87800000I0J-200000D01*
G01*
X132109000Y-88200000D01*
G75*
G02*
X131909000Y-88400000I-200000J0D01*
G01*
G37*
G36*
G01*
X131909000Y-89650000D02*
X131009000Y-89650000D01*
G75*
G02*
X130809000Y-89450000I0J200000D01*
G01*
X130809000Y-89050000D01*
G75*
G02*
X131009000Y-88850000I200000J0D01*
G01*
X131909000Y-88850000D01*
G75*
G02*
X132109000Y-89050000I0J-200000D01*
G01*
X132109000Y-89450000D01*
G75*
G02*
X131909000Y-89650000I-200000J0D01*
G01*
G37*
G36*
G01*
X131909000Y-90900000D02*
X131009000Y-90900000D01*
G75*
G02*
X130809000Y-90700000I0J200000D01*
G01*
X130809000Y-90300000D01*
G75*
G02*
X131009000Y-90100000I200000J0D01*
G01*
X131909000Y-90100000D01*
G75*
G02*
X132109000Y-90300000I0J-200000D01*
G01*
X132109000Y-90700000D01*
G75*
G02*
X131909000Y-90900000I-200000J0D01*
G01*
G37*
G36*
G01*
X108910000Y-74000000D02*
X106410000Y-74000000D01*
G75*
G02*
X106160000Y-73750000I0J250000D01*
G01*
X106160000Y-72150000D01*
G75*
G02*
X106410000Y-71900000I250000J0D01*
G01*
X108910000Y-71900000D01*
G75*
G02*
X109160000Y-72150000I0J-250000D01*
G01*
X109160000Y-73750000D01*
G75*
G02*
X108910000Y-74000000I-250000J0D01*
G01*
G37*
G36*
G01*
X108910000Y-94100000D02*
X106410000Y-94100000D01*
G75*
G02*
X106160000Y-93850000I0J250000D01*
G01*
X106160000Y-92250000D01*
G75*
G02*
X106410000Y-92000000I250000J0D01*
G01*
X108910000Y-92000000D01*
G75*
G02*
X109160000Y-92250000I0J-250000D01*
G01*
X109160000Y-93850000D01*
G75*
G02*
X108910000Y-94100000I-250000J0D01*
G01*
G37*
G36*
G01*
X110860000Y-75900000D02*
X109960000Y-75900000D01*
G75*
G02*
X109760000Y-75700000I0J200000D01*
G01*
X109760000Y-75300000D01*
G75*
G02*
X109960000Y-75100000I200000J0D01*
G01*
X110860000Y-75100000D01*
G75*
G02*
X111060000Y-75300000I0J-200000D01*
G01*
X111060000Y-75700000D01*
G75*
G02*
X110860000Y-75900000I-200000J0D01*
G01*
G37*
G36*
G01*
X110860000Y-77150000D02*
X109960000Y-77150000D01*
G75*
G02*
X109760000Y-76950000I0J200000D01*
G01*
X109760000Y-76550000D01*
G75*
G02*
X109960000Y-76350000I200000J0D01*
G01*
X110860000Y-76350000D01*
G75*
G02*
X111060000Y-76550000I0J-200000D01*
G01*
X111060000Y-76950000D01*
G75*
G02*
X110860000Y-77150000I-200000J0D01*
G01*
G37*
G36*
G01*
X110860000Y-78400000D02*
X109960000Y-78400000D01*
G75*
G02*
X109760000Y-78200000I0J200000D01*
G01*
X109760000Y-77800000D01*
G75*
G02*
X109960000Y-77600000I200000J0D01*
G01*
X110860000Y-77600000D01*
G75*
G02*
X111060000Y-77800000I0J-200000D01*
G01*
X111060000Y-78200000D01*
G75*
G02*
X110860000Y-78400000I-200000J0D01*
G01*
G37*
G36*
G01*
X110860000Y-79650000D02*
X109960000Y-79650000D01*
G75*
G02*
X109760000Y-79450000I0J200000D01*
G01*
X109760000Y-79050000D01*
G75*
G02*
X109960000Y-78850000I200000J0D01*
G01*
X110860000Y-78850000D01*
G75*
G02*
X111060000Y-79050000I0J-200000D01*
G01*
X111060000Y-79450000D01*
G75*
G02*
X110860000Y-79650000I-200000J0D01*
G01*
G37*
G36*
G01*
X110860000Y-80900000D02*
X109960000Y-80900000D01*
G75*
G02*
X109760000Y-80700000I0J200000D01*
G01*
X109760000Y-80300000D01*
G75*
G02*
X109960000Y-80100000I200000J0D01*
G01*
X110860000Y-80100000D01*
G75*
G02*
X111060000Y-80300000I0J-200000D01*
G01*
X111060000Y-80700000D01*
G75*
G02*
X110860000Y-80900000I-200000J0D01*
G01*
G37*
G36*
G01*
X110860000Y-82150000D02*
X109960000Y-82150000D01*
G75*
G02*
X109760000Y-81950000I0J200000D01*
G01*
X109760000Y-81550000D01*
G75*
G02*
X109960000Y-81350000I200000J0D01*
G01*
X110860000Y-81350000D01*
G75*
G02*
X111060000Y-81550000I0J-200000D01*
G01*
X111060000Y-81950000D01*
G75*
G02*
X110860000Y-82150000I-200000J0D01*
G01*
G37*
G36*
G01*
X110860000Y-83400000D02*
X109960000Y-83400000D01*
G75*
G02*
X109760000Y-83200000I0J200000D01*
G01*
X109760000Y-82800000D01*
G75*
G02*
X109960000Y-82600000I200000J0D01*
G01*
X110860000Y-82600000D01*
G75*
G02*
X111060000Y-82800000I0J-200000D01*
G01*
X111060000Y-83200000D01*
G75*
G02*
X110860000Y-83400000I-200000J0D01*
G01*
G37*
G36*
G01*
X110860000Y-84650000D02*
X109960000Y-84650000D01*
G75*
G02*
X109760000Y-84450000I0J200000D01*
G01*
X109760000Y-84050000D01*
G75*
G02*
X109960000Y-83850000I200000J0D01*
G01*
X110860000Y-83850000D01*
G75*
G02*
X111060000Y-84050000I0J-200000D01*
G01*
X111060000Y-84450000D01*
G75*
G02*
X110860000Y-84650000I-200000J0D01*
G01*
G37*
G36*
G01*
X110860000Y-85900000D02*
X109960000Y-85900000D01*
G75*
G02*
X109760000Y-85700000I0J200000D01*
G01*
X109760000Y-85300000D01*
G75*
G02*
X109960000Y-85100000I200000J0D01*
G01*
X110860000Y-85100000D01*
G75*
G02*
X111060000Y-85300000I0J-200000D01*
G01*
X111060000Y-85700000D01*
G75*
G02*
X110860000Y-85900000I-200000J0D01*
G01*
G37*
G36*
G01*
X110860000Y-87150000D02*
X109960000Y-87150000D01*
G75*
G02*
X109760000Y-86950000I0J200000D01*
G01*
X109760000Y-86550000D01*
G75*
G02*
X109960000Y-86350000I200000J0D01*
G01*
X110860000Y-86350000D01*
G75*
G02*
X111060000Y-86550000I0J-200000D01*
G01*
X111060000Y-86950000D01*
G75*
G02*
X110860000Y-87150000I-200000J0D01*
G01*
G37*
G36*
G01*
X110860000Y-88400000D02*
X109960000Y-88400000D01*
G75*
G02*
X109760000Y-88200000I0J200000D01*
G01*
X109760000Y-87800000D01*
G75*
G02*
X109960000Y-87600000I200000J0D01*
G01*
X110860000Y-87600000D01*
G75*
G02*
X111060000Y-87800000I0J-200000D01*
G01*
X111060000Y-88200000D01*
G75*
G02*
X110860000Y-88400000I-200000J0D01*
G01*
G37*
G36*
G01*
X110860000Y-89650000D02*
X109960000Y-89650000D01*
G75*
G02*
X109760000Y-89450000I0J200000D01*
G01*
X109760000Y-89050000D01*
G75*
G02*
X109960000Y-88850000I200000J0D01*
G01*
X110860000Y-88850000D01*
G75*
G02*
X111060000Y-89050000I0J-200000D01*
G01*
X111060000Y-89450000D01*
G75*
G02*
X110860000Y-89650000I-200000J0D01*
G01*
G37*
G36*
G01*
X110860000Y-90900000D02*
X109960000Y-90900000D01*
G75*
G02*
X109760000Y-90700000I0J200000D01*
G01*
X109760000Y-90300000D01*
G75*
G02*
X109960000Y-90100000I200000J0D01*
G01*
X110860000Y-90100000D01*
G75*
G02*
X111060000Y-90300000I0J-200000D01*
G01*
X111060000Y-90700000D01*
G75*
G02*
X110860000Y-90900000I-200000J0D01*
G01*
G37*
G36*
G01*
X172558000Y-92000000D02*
X175058000Y-92000000D01*
G75*
G02*
X175308000Y-92250000I0J-250000D01*
G01*
X175308000Y-93850000D01*
G75*
G02*
X175058000Y-94100000I-250000J0D01*
G01*
X172558000Y-94100000D01*
G75*
G02*
X172308000Y-93850000I0J250000D01*
G01*
X172308000Y-92250000D01*
G75*
G02*
X172558000Y-92000000I250000J0D01*
G01*
G37*
G36*
G01*
X172558000Y-71900000D02*
X175058000Y-71900000D01*
G75*
G02*
X175308000Y-72150000I0J-250000D01*
G01*
X175308000Y-73750000D01*
G75*
G02*
X175058000Y-74000000I-250000J0D01*
G01*
X172558000Y-74000000D01*
G75*
G02*
X172308000Y-73750000I0J250000D01*
G01*
X172308000Y-72150000D01*
G75*
G02*
X172558000Y-71900000I250000J0D01*
G01*
G37*
G36*
G01*
X170608000Y-90100000D02*
X171508000Y-90100000D01*
G75*
G02*
X171708000Y-90300000I0J-200000D01*
G01*
X171708000Y-90700000D01*
G75*
G02*
X171508000Y-90900000I-200000J0D01*
G01*
X170608000Y-90900000D01*
G75*
G02*
X170408000Y-90700000I0J200000D01*
G01*
X170408000Y-90300000D01*
G75*
G02*
X170608000Y-90100000I200000J0D01*
G01*
G37*
G36*
G01*
X170608000Y-88850000D02*
X171508000Y-88850000D01*
G75*
G02*
X171708000Y-89050000I0J-200000D01*
G01*
X171708000Y-89450000D01*
G75*
G02*
X171508000Y-89650000I-200000J0D01*
G01*
X170608000Y-89650000D01*
G75*
G02*
X170408000Y-89450000I0J200000D01*
G01*
X170408000Y-89050000D01*
G75*
G02*
X170608000Y-88850000I200000J0D01*
G01*
G37*
G36*
G01*
X170608000Y-87600000D02*
X171508000Y-87600000D01*
G75*
G02*
X171708000Y-87800000I0J-200000D01*
G01*
X171708000Y-88200000D01*
G75*
G02*
X171508000Y-88400000I-200000J0D01*
G01*
X170608000Y-88400000D01*
G75*
G02*
X170408000Y-88200000I0J200000D01*
G01*
X170408000Y-87800000D01*
G75*
G02*
X170608000Y-87600000I200000J0D01*
G01*
G37*
G36*
G01*
X170608000Y-86350000D02*
X171508000Y-86350000D01*
G75*
G02*
X171708000Y-86550000I0J-200000D01*
G01*
X171708000Y-86950000D01*
G75*
G02*
X171508000Y-87150000I-200000J0D01*
G01*
X170608000Y-87150000D01*
G75*
G02*
X170408000Y-86950000I0J200000D01*
G01*
X170408000Y-86550000D01*
G75*
G02*
X170608000Y-86350000I200000J0D01*
G01*
G37*
G36*
G01*
X170608000Y-85100000D02*
X171508000Y-85100000D01*
G75*
G02*
X171708000Y-85300000I0J-200000D01*
G01*
X171708000Y-85700000D01*
G75*
G02*
X171508000Y-85900000I-200000J0D01*
G01*
X170608000Y-85900000D01*
G75*
G02*
X170408000Y-85700000I0J200000D01*
G01*
X170408000Y-85300000D01*
G75*
G02*
X170608000Y-85100000I200000J0D01*
G01*
G37*
G36*
G01*
X170608000Y-83850000D02*
X171508000Y-83850000D01*
G75*
G02*
X171708000Y-84050000I0J-200000D01*
G01*
X171708000Y-84450000D01*
G75*
G02*
X171508000Y-84650000I-200000J0D01*
G01*
X170608000Y-84650000D01*
G75*
G02*
X170408000Y-84450000I0J200000D01*
G01*
X170408000Y-84050000D01*
G75*
G02*
X170608000Y-83850000I200000J0D01*
G01*
G37*
G36*
G01*
X170608000Y-82600000D02*
X171508000Y-82600000D01*
G75*
G02*
X171708000Y-82800000I0J-200000D01*
G01*
X171708000Y-83200000D01*
G75*
G02*
X171508000Y-83400000I-200000J0D01*
G01*
X170608000Y-83400000D01*
G75*
G02*
X170408000Y-83200000I0J200000D01*
G01*
X170408000Y-82800000D01*
G75*
G02*
X170608000Y-82600000I200000J0D01*
G01*
G37*
G36*
G01*
X170608000Y-81350000D02*
X171508000Y-81350000D01*
G75*
G02*
X171708000Y-81550000I0J-200000D01*
G01*
X171708000Y-81950000D01*
G75*
G02*
X171508000Y-82150000I-200000J0D01*
G01*
X170608000Y-82150000D01*
G75*
G02*
X170408000Y-81950000I0J200000D01*
G01*
X170408000Y-81550000D01*
G75*
G02*
X170608000Y-81350000I200000J0D01*
G01*
G37*
G36*
G01*
X170608000Y-80100000D02*
X171508000Y-80100000D01*
G75*
G02*
X171708000Y-80300000I0J-200000D01*
G01*
X171708000Y-80700000D01*
G75*
G02*
X171508000Y-80900000I-200000J0D01*
G01*
X170608000Y-80900000D01*
G75*
G02*
X170408000Y-80700000I0J200000D01*
G01*
X170408000Y-80300000D01*
G75*
G02*
X170608000Y-80100000I200000J0D01*
G01*
G37*
G36*
G01*
X170608000Y-78850000D02*
X171508000Y-78850000D01*
G75*
G02*
X171708000Y-79050000I0J-200000D01*
G01*
X171708000Y-79450000D01*
G75*
G02*
X171508000Y-79650000I-200000J0D01*
G01*
X170608000Y-79650000D01*
G75*
G02*
X170408000Y-79450000I0J200000D01*
G01*
X170408000Y-79050000D01*
G75*
G02*
X170608000Y-78850000I200000J0D01*
G01*
G37*
G36*
G01*
X170608000Y-77600000D02*
X171508000Y-77600000D01*
G75*
G02*
X171708000Y-77800000I0J-200000D01*
G01*
X171708000Y-78200000D01*
G75*
G02*
X171508000Y-78400000I-200000J0D01*
G01*
X170608000Y-78400000D01*
G75*
G02*
X170408000Y-78200000I0J200000D01*
G01*
X170408000Y-77800000D01*
G75*
G02*
X170608000Y-77600000I200000J0D01*
G01*
G37*
G36*
G01*
X170608000Y-76350000D02*
X171508000Y-76350000D01*
G75*
G02*
X171708000Y-76550000I0J-200000D01*
G01*
X171708000Y-76950000D01*
G75*
G02*
X171508000Y-77150000I-200000J0D01*
G01*
X170608000Y-77150000D01*
G75*
G02*
X170408000Y-76950000I0J200000D01*
G01*
X170408000Y-76550000D01*
G75*
G02*
X170608000Y-76350000I200000J0D01*
G01*
G37*
G36*
G01*
X170608000Y-75100000D02*
X171508000Y-75100000D01*
G75*
G02*
X171708000Y-75300000I0J-200000D01*
G01*
X171708000Y-75700000D01*
G75*
G02*
X171508000Y-75900000I-200000J0D01*
G01*
X170608000Y-75900000D01*
G75*
G02*
X170408000Y-75700000I0J200000D01*
G01*
X170408000Y-75300000D01*
G75*
G02*
X170608000Y-75100000I200000J0D01*
G01*
G37*
G36*
G01*
X162033000Y-92000000D02*
X164533000Y-92000000D01*
G75*
G02*
X164783000Y-92250000I0J-250000D01*
G01*
X164783000Y-93850000D01*
G75*
G02*
X164533000Y-94100000I-250000J0D01*
G01*
X162033000Y-94100000D01*
G75*
G02*
X161783000Y-93850000I0J250000D01*
G01*
X161783000Y-92250000D01*
G75*
G02*
X162033000Y-92000000I250000J0D01*
G01*
G37*
G36*
G01*
X162033000Y-71900000D02*
X164533000Y-71900000D01*
G75*
G02*
X164783000Y-72150000I0J-250000D01*
G01*
X164783000Y-73750000D01*
G75*
G02*
X164533000Y-74000000I-250000J0D01*
G01*
X162033000Y-74000000D01*
G75*
G02*
X161783000Y-73750000I0J250000D01*
G01*
X161783000Y-72150000D01*
G75*
G02*
X162033000Y-71900000I250000J0D01*
G01*
G37*
G36*
G01*
X160083000Y-90100000D02*
X160983000Y-90100000D01*
G75*
G02*
X161183000Y-90300000I0J-200000D01*
G01*
X161183000Y-90700000D01*
G75*
G02*
X160983000Y-90900000I-200000J0D01*
G01*
X160083000Y-90900000D01*
G75*
G02*
X159883000Y-90700000I0J200000D01*
G01*
X159883000Y-90300000D01*
G75*
G02*
X160083000Y-90100000I200000J0D01*
G01*
G37*
G36*
G01*
X160083000Y-88850000D02*
X160983000Y-88850000D01*
G75*
G02*
X161183000Y-89050000I0J-200000D01*
G01*
X161183000Y-89450000D01*
G75*
G02*
X160983000Y-89650000I-200000J0D01*
G01*
X160083000Y-89650000D01*
G75*
G02*
X159883000Y-89450000I0J200000D01*
G01*
X159883000Y-89050000D01*
G75*
G02*
X160083000Y-88850000I200000J0D01*
G01*
G37*
G36*
G01*
X160083000Y-87600000D02*
X160983000Y-87600000D01*
G75*
G02*
X161183000Y-87800000I0J-200000D01*
G01*
X161183000Y-88200000D01*
G75*
G02*
X160983000Y-88400000I-200000J0D01*
G01*
X160083000Y-88400000D01*
G75*
G02*
X159883000Y-88200000I0J200000D01*
G01*
X159883000Y-87800000D01*
G75*
G02*
X160083000Y-87600000I200000J0D01*
G01*
G37*
G36*
G01*
X160083000Y-86350000D02*
X160983000Y-86350000D01*
G75*
G02*
X161183000Y-86550000I0J-200000D01*
G01*
X161183000Y-86950000D01*
G75*
G02*
X160983000Y-87150000I-200000J0D01*
G01*
X160083000Y-87150000D01*
G75*
G02*
X159883000Y-86950000I0J200000D01*
G01*
X159883000Y-86550000D01*
G75*
G02*
X160083000Y-86350000I200000J0D01*
G01*
G37*
G36*
G01*
X160083000Y-85100000D02*
X160983000Y-85100000D01*
G75*
G02*
X161183000Y-85300000I0J-200000D01*
G01*
X161183000Y-85700000D01*
G75*
G02*
X160983000Y-85900000I-200000J0D01*
G01*
X160083000Y-85900000D01*
G75*
G02*
X159883000Y-85700000I0J200000D01*
G01*
X159883000Y-85300000D01*
G75*
G02*
X160083000Y-85100000I200000J0D01*
G01*
G37*
G36*
G01*
X160083000Y-83850000D02*
X160983000Y-83850000D01*
G75*
G02*
X161183000Y-84050000I0J-200000D01*
G01*
X161183000Y-84450000D01*
G75*
G02*
X160983000Y-84650000I-200000J0D01*
G01*
X160083000Y-84650000D01*
G75*
G02*
X159883000Y-84450000I0J200000D01*
G01*
X159883000Y-84050000D01*
G75*
G02*
X160083000Y-83850000I200000J0D01*
G01*
G37*
G36*
G01*
X160083000Y-82600000D02*
X160983000Y-82600000D01*
G75*
G02*
X161183000Y-82800000I0J-200000D01*
G01*
X161183000Y-83200000D01*
G75*
G02*
X160983000Y-83400000I-200000J0D01*
G01*
X160083000Y-83400000D01*
G75*
G02*
X159883000Y-83200000I0J200000D01*
G01*
X159883000Y-82800000D01*
G75*
G02*
X160083000Y-82600000I200000J0D01*
G01*
G37*
G36*
G01*
X160083000Y-81350000D02*
X160983000Y-81350000D01*
G75*
G02*
X161183000Y-81550000I0J-200000D01*
G01*
X161183000Y-81950000D01*
G75*
G02*
X160983000Y-82150000I-200000J0D01*
G01*
X160083000Y-82150000D01*
G75*
G02*
X159883000Y-81950000I0J200000D01*
G01*
X159883000Y-81550000D01*
G75*
G02*
X160083000Y-81350000I200000J0D01*
G01*
G37*
G36*
G01*
X160083000Y-80100000D02*
X160983000Y-80100000D01*
G75*
G02*
X161183000Y-80300000I0J-200000D01*
G01*
X161183000Y-80700000D01*
G75*
G02*
X160983000Y-80900000I-200000J0D01*
G01*
X160083000Y-80900000D01*
G75*
G02*
X159883000Y-80700000I0J200000D01*
G01*
X159883000Y-80300000D01*
G75*
G02*
X160083000Y-80100000I200000J0D01*
G01*
G37*
G36*
G01*
X160083000Y-78850000D02*
X160983000Y-78850000D01*
G75*
G02*
X161183000Y-79050000I0J-200000D01*
G01*
X161183000Y-79450000D01*
G75*
G02*
X160983000Y-79650000I-200000J0D01*
G01*
X160083000Y-79650000D01*
G75*
G02*
X159883000Y-79450000I0J200000D01*
G01*
X159883000Y-79050000D01*
G75*
G02*
X160083000Y-78850000I200000J0D01*
G01*
G37*
G36*
G01*
X160083000Y-77600000D02*
X160983000Y-77600000D01*
G75*
G02*
X161183000Y-77800000I0J-200000D01*
G01*
X161183000Y-78200000D01*
G75*
G02*
X160983000Y-78400000I-200000J0D01*
G01*
X160083000Y-78400000D01*
G75*
G02*
X159883000Y-78200000I0J200000D01*
G01*
X159883000Y-77800000D01*
G75*
G02*
X160083000Y-77600000I200000J0D01*
G01*
G37*
G36*
G01*
X160083000Y-76350000D02*
X160983000Y-76350000D01*
G75*
G02*
X161183000Y-76550000I0J-200000D01*
G01*
X161183000Y-76950000D01*
G75*
G02*
X160983000Y-77150000I-200000J0D01*
G01*
X160083000Y-77150000D01*
G75*
G02*
X159883000Y-76950000I0J200000D01*
G01*
X159883000Y-76550000D01*
G75*
G02*
X160083000Y-76350000I200000J0D01*
G01*
G37*
G36*
G01*
X160083000Y-75100000D02*
X160983000Y-75100000D01*
G75*
G02*
X161183000Y-75300000I0J-200000D01*
G01*
X161183000Y-75700000D01*
G75*
G02*
X160983000Y-75900000I-200000J0D01*
G01*
X160083000Y-75900000D01*
G75*
G02*
X159883000Y-75700000I0J200000D01*
G01*
X159883000Y-75300000D01*
G75*
G02*
X160083000Y-75100000I200000J0D01*
G01*
G37*
G36*
G01*
X140484000Y-74000000D02*
X137984000Y-74000000D01*
G75*
G02*
X137734000Y-73750000I0J250000D01*
G01*
X137734000Y-72150000D01*
G75*
G02*
X137984000Y-71900000I250000J0D01*
G01*
X140484000Y-71900000D01*
G75*
G02*
X140734000Y-72150000I0J-250000D01*
G01*
X140734000Y-73750000D01*
G75*
G02*
X140484000Y-74000000I-250000J0D01*
G01*
G37*
G36*
G01*
X140484000Y-94100000D02*
X137984000Y-94100000D01*
G75*
G02*
X137734000Y-93850000I0J250000D01*
G01*
X137734000Y-92250000D01*
G75*
G02*
X137984000Y-92000000I250000J0D01*
G01*
X140484000Y-92000000D01*
G75*
G02*
X140734000Y-92250000I0J-250000D01*
G01*
X140734000Y-93850000D01*
G75*
G02*
X140484000Y-94100000I-250000J0D01*
G01*
G37*
G36*
G01*
X142434000Y-75900000D02*
X141534000Y-75900000D01*
G75*
G02*
X141334000Y-75700000I0J200000D01*
G01*
X141334000Y-75300000D01*
G75*
G02*
X141534000Y-75100000I200000J0D01*
G01*
X142434000Y-75100000D01*
G75*
G02*
X142634000Y-75300000I0J-200000D01*
G01*
X142634000Y-75700000D01*
G75*
G02*
X142434000Y-75900000I-200000J0D01*
G01*
G37*
G36*
G01*
X142434000Y-77150000D02*
X141534000Y-77150000D01*
G75*
G02*
X141334000Y-76950000I0J200000D01*
G01*
X141334000Y-76550000D01*
G75*
G02*
X141534000Y-76350000I200000J0D01*
G01*
X142434000Y-76350000D01*
G75*
G02*
X142634000Y-76550000I0J-200000D01*
G01*
X142634000Y-76950000D01*
G75*
G02*
X142434000Y-77150000I-200000J0D01*
G01*
G37*
G36*
G01*
X142434000Y-78400000D02*
X141534000Y-78400000D01*
G75*
G02*
X141334000Y-78200000I0J200000D01*
G01*
X141334000Y-77800000D01*
G75*
G02*
X141534000Y-77600000I200000J0D01*
G01*
X142434000Y-77600000D01*
G75*
G02*
X142634000Y-77800000I0J-200000D01*
G01*
X142634000Y-78200000D01*
G75*
G02*
X142434000Y-78400000I-200000J0D01*
G01*
G37*
G36*
G01*
X142434000Y-79650000D02*
X141534000Y-79650000D01*
G75*
G02*
X141334000Y-79450000I0J200000D01*
G01*
X141334000Y-79050000D01*
G75*
G02*
X141534000Y-78850000I200000J0D01*
G01*
X142434000Y-78850000D01*
G75*
G02*
X142634000Y-79050000I0J-200000D01*
G01*
X142634000Y-79450000D01*
G75*
G02*
X142434000Y-79650000I-200000J0D01*
G01*
G37*
G36*
G01*
X142434000Y-80900000D02*
X141534000Y-80900000D01*
G75*
G02*
X141334000Y-80700000I0J200000D01*
G01*
X141334000Y-80300000D01*
G75*
G02*
X141534000Y-80100000I200000J0D01*
G01*
X142434000Y-80100000D01*
G75*
G02*
X142634000Y-80300000I0J-200000D01*
G01*
X142634000Y-80700000D01*
G75*
G02*
X142434000Y-80900000I-200000J0D01*
G01*
G37*
G36*
G01*
X142434000Y-82150000D02*
X141534000Y-82150000D01*
G75*
G02*
X141334000Y-81950000I0J200000D01*
G01*
X141334000Y-81550000D01*
G75*
G02*
X141534000Y-81350000I200000J0D01*
G01*
X142434000Y-81350000D01*
G75*
G02*
X142634000Y-81550000I0J-200000D01*
G01*
X142634000Y-81950000D01*
G75*
G02*
X142434000Y-82150000I-200000J0D01*
G01*
G37*
G36*
G01*
X142434000Y-83400000D02*
X141534000Y-83400000D01*
G75*
G02*
X141334000Y-83200000I0J200000D01*
G01*
X141334000Y-82800000D01*
G75*
G02*
X141534000Y-82600000I200000J0D01*
G01*
X142434000Y-82600000D01*
G75*
G02*
X142634000Y-82800000I0J-200000D01*
G01*
X142634000Y-83200000D01*
G75*
G02*
X142434000Y-83400000I-200000J0D01*
G01*
G37*
G36*
G01*
X142434000Y-84650000D02*
X141534000Y-84650000D01*
G75*
G02*
X141334000Y-84450000I0J200000D01*
G01*
X141334000Y-84050000D01*
G75*
G02*
X141534000Y-83850000I200000J0D01*
G01*
X142434000Y-83850000D01*
G75*
G02*
X142634000Y-84050000I0J-200000D01*
G01*
X142634000Y-84450000D01*
G75*
G02*
X142434000Y-84650000I-200000J0D01*
G01*
G37*
G36*
G01*
X142434000Y-85900000D02*
X141534000Y-85900000D01*
G75*
G02*
X141334000Y-85700000I0J200000D01*
G01*
X141334000Y-85300000D01*
G75*
G02*
X141534000Y-85100000I200000J0D01*
G01*
X142434000Y-85100000D01*
G75*
G02*
X142634000Y-85300000I0J-200000D01*
G01*
X142634000Y-85700000D01*
G75*
G02*
X142434000Y-85900000I-200000J0D01*
G01*
G37*
G36*
G01*
X142434000Y-87150000D02*
X141534000Y-87150000D01*
G75*
G02*
X141334000Y-86950000I0J200000D01*
G01*
X141334000Y-86550000D01*
G75*
G02*
X141534000Y-86350000I200000J0D01*
G01*
X142434000Y-86350000D01*
G75*
G02*
X142634000Y-86550000I0J-200000D01*
G01*
X142634000Y-86950000D01*
G75*
G02*
X142434000Y-87150000I-200000J0D01*
G01*
G37*
G36*
G01*
X142434000Y-88400000D02*
X141534000Y-88400000D01*
G75*
G02*
X141334000Y-88200000I0J200000D01*
G01*
X141334000Y-87800000D01*
G75*
G02*
X141534000Y-87600000I200000J0D01*
G01*
X142434000Y-87600000D01*
G75*
G02*
X142634000Y-87800000I0J-200000D01*
G01*
X142634000Y-88200000D01*
G75*
G02*
X142434000Y-88400000I-200000J0D01*
G01*
G37*
G36*
G01*
X142434000Y-89650000D02*
X141534000Y-89650000D01*
G75*
G02*
X141334000Y-89450000I0J200000D01*
G01*
X141334000Y-89050000D01*
G75*
G02*
X141534000Y-88850000I200000J0D01*
G01*
X142434000Y-88850000D01*
G75*
G02*
X142634000Y-89050000I0J-200000D01*
G01*
X142634000Y-89450000D01*
G75*
G02*
X142434000Y-89650000I-200000J0D01*
G01*
G37*
G36*
G01*
X142434000Y-90900000D02*
X141534000Y-90900000D01*
G75*
G02*
X141334000Y-90700000I0J200000D01*
G01*
X141334000Y-90300000D01*
G75*
G02*
X141534000Y-90100000I200000J0D01*
G01*
X142434000Y-90100000D01*
G75*
G02*
X142634000Y-90300000I0J-200000D01*
G01*
X142634000Y-90700000D01*
G75*
G02*
X142434000Y-90900000I-200000J0D01*
G01*
G37*
G36*
G01*
X119435000Y-74000000D02*
X116935000Y-74000000D01*
G75*
G02*
X116685000Y-73750000I0J250000D01*
G01*
X116685000Y-72150000D01*
G75*
G02*
X116935000Y-71900000I250000J0D01*
G01*
X119435000Y-71900000D01*
G75*
G02*
X119685000Y-72150000I0J-250000D01*
G01*
X119685000Y-73750000D01*
G75*
G02*
X119435000Y-74000000I-250000J0D01*
G01*
G37*
G36*
G01*
X119435000Y-94100000D02*
X116935000Y-94100000D01*
G75*
G02*
X116685000Y-93850000I0J250000D01*
G01*
X116685000Y-92250000D01*
G75*
G02*
X116935000Y-92000000I250000J0D01*
G01*
X119435000Y-92000000D01*
G75*
G02*
X119685000Y-92250000I0J-250000D01*
G01*
X119685000Y-93850000D01*
G75*
G02*
X119435000Y-94100000I-250000J0D01*
G01*
G37*
G36*
G01*
X121385000Y-75900000D02*
X120485000Y-75900000D01*
G75*
G02*
X120285000Y-75700000I0J200000D01*
G01*
X120285000Y-75300000D01*
G75*
G02*
X120485000Y-75100000I200000J0D01*
G01*
X121385000Y-75100000D01*
G75*
G02*
X121585000Y-75300000I0J-200000D01*
G01*
X121585000Y-75700000D01*
G75*
G02*
X121385000Y-75900000I-200000J0D01*
G01*
G37*
G36*
G01*
X121385000Y-77150000D02*
X120485000Y-77150000D01*
G75*
G02*
X120285000Y-76950000I0J200000D01*
G01*
X120285000Y-76550000D01*
G75*
G02*
X120485000Y-76350000I200000J0D01*
G01*
X121385000Y-76350000D01*
G75*
G02*
X121585000Y-76550000I0J-200000D01*
G01*
X121585000Y-76950000D01*
G75*
G02*
X121385000Y-77150000I-200000J0D01*
G01*
G37*
G36*
G01*
X121385000Y-78400000D02*
X120485000Y-78400000D01*
G75*
G02*
X120285000Y-78200000I0J200000D01*
G01*
X120285000Y-77800000D01*
G75*
G02*
X120485000Y-77600000I200000J0D01*
G01*
X121385000Y-77600000D01*
G75*
G02*
X121585000Y-77800000I0J-200000D01*
G01*
X121585000Y-78200000D01*
G75*
G02*
X121385000Y-78400000I-200000J0D01*
G01*
G37*
G36*
G01*
X121385000Y-79650000D02*
X120485000Y-79650000D01*
G75*
G02*
X120285000Y-79450000I0J200000D01*
G01*
X120285000Y-79050000D01*
G75*
G02*
X120485000Y-78850000I200000J0D01*
G01*
X121385000Y-78850000D01*
G75*
G02*
X121585000Y-79050000I0J-200000D01*
G01*
X121585000Y-79450000D01*
G75*
G02*
X121385000Y-79650000I-200000J0D01*
G01*
G37*
G36*
G01*
X121385000Y-80900000D02*
X120485000Y-80900000D01*
G75*
G02*
X120285000Y-80700000I0J200000D01*
G01*
X120285000Y-80300000D01*
G75*
G02*
X120485000Y-80100000I200000J0D01*
G01*
X121385000Y-80100000D01*
G75*
G02*
X121585000Y-80300000I0J-200000D01*
G01*
X121585000Y-80700000D01*
G75*
G02*
X121385000Y-80900000I-200000J0D01*
G01*
G37*
G36*
G01*
X121385000Y-82150000D02*
X120485000Y-82150000D01*
G75*
G02*
X120285000Y-81950000I0J200000D01*
G01*
X120285000Y-81550000D01*
G75*
G02*
X120485000Y-81350000I200000J0D01*
G01*
X121385000Y-81350000D01*
G75*
G02*
X121585000Y-81550000I0J-200000D01*
G01*
X121585000Y-81950000D01*
G75*
G02*
X121385000Y-82150000I-200000J0D01*
G01*
G37*
G36*
G01*
X121385000Y-83400000D02*
X120485000Y-83400000D01*
G75*
G02*
X120285000Y-83200000I0J200000D01*
G01*
X120285000Y-82800000D01*
G75*
G02*
X120485000Y-82600000I200000J0D01*
G01*
X121385000Y-82600000D01*
G75*
G02*
X121585000Y-82800000I0J-200000D01*
G01*
X121585000Y-83200000D01*
G75*
G02*
X121385000Y-83400000I-200000J0D01*
G01*
G37*
G36*
G01*
X121385000Y-84650000D02*
X120485000Y-84650000D01*
G75*
G02*
X120285000Y-84450000I0J200000D01*
G01*
X120285000Y-84050000D01*
G75*
G02*
X120485000Y-83850000I200000J0D01*
G01*
X121385000Y-83850000D01*
G75*
G02*
X121585000Y-84050000I0J-200000D01*
G01*
X121585000Y-84450000D01*
G75*
G02*
X121385000Y-84650000I-200000J0D01*
G01*
G37*
G36*
G01*
X121385000Y-85900000D02*
X120485000Y-85900000D01*
G75*
G02*
X120285000Y-85700000I0J200000D01*
G01*
X120285000Y-85300000D01*
G75*
G02*
X120485000Y-85100000I200000J0D01*
G01*
X121385000Y-85100000D01*
G75*
G02*
X121585000Y-85300000I0J-200000D01*
G01*
X121585000Y-85700000D01*
G75*
G02*
X121385000Y-85900000I-200000J0D01*
G01*
G37*
G36*
G01*
X121385000Y-87150000D02*
X120485000Y-87150000D01*
G75*
G02*
X120285000Y-86950000I0J200000D01*
G01*
X120285000Y-86550000D01*
G75*
G02*
X120485000Y-86350000I200000J0D01*
G01*
X121385000Y-86350000D01*
G75*
G02*
X121585000Y-86550000I0J-200000D01*
G01*
X121585000Y-86950000D01*
G75*
G02*
X121385000Y-87150000I-200000J0D01*
G01*
G37*
G36*
G01*
X121385000Y-88400000D02*
X120485000Y-88400000D01*
G75*
G02*
X120285000Y-88200000I0J200000D01*
G01*
X120285000Y-87800000D01*
G75*
G02*
X120485000Y-87600000I200000J0D01*
G01*
X121385000Y-87600000D01*
G75*
G02*
X121585000Y-87800000I0J-200000D01*
G01*
X121585000Y-88200000D01*
G75*
G02*
X121385000Y-88400000I-200000J0D01*
G01*
G37*
G36*
G01*
X121385000Y-89650000D02*
X120485000Y-89650000D01*
G75*
G02*
X120285000Y-89450000I0J200000D01*
G01*
X120285000Y-89050000D01*
G75*
G02*
X120485000Y-88850000I200000J0D01*
G01*
X121385000Y-88850000D01*
G75*
G02*
X121585000Y-89050000I0J-200000D01*
G01*
X121585000Y-89450000D01*
G75*
G02*
X121385000Y-89650000I-200000J0D01*
G01*
G37*
G36*
G01*
X121385000Y-90900000D02*
X120485000Y-90900000D01*
G75*
G02*
X120285000Y-90700000I0J200000D01*
G01*
X120285000Y-90300000D01*
G75*
G02*
X120485000Y-90100000I200000J0D01*
G01*
X121385000Y-90100000D01*
G75*
G02*
X121585000Y-90300000I0J-200000D01*
G01*
X121585000Y-90700000D01*
G75*
G02*
X121385000Y-90900000I-200000J0D01*
G01*
G37*
M02*
