G04 #@! TF.GenerationSoftware,KiCad,Pcbnew,5.1.6-1.fc32*
G04 #@! TF.CreationDate,2020-09-20T21:59:19-03:00*
G04 #@! TF.ProjectId,pc104-adapter-top,70633130-342d-4616-9461-707465722d74,v2.0*
G04 #@! TF.SameCoordinates,Original*
G04 #@! TF.FileFunction,Legend,Top*
G04 #@! TF.FilePolarity,Positive*
%FSLAX46Y46*%
G04 Gerber Fmt 4.6, Leading zero omitted, Abs format (unit mm)*
G04 Created by KiCad (PCBNEW 5.1.6-1.fc32) date 2020-09-20 21:59:19*
%MOMM*%
%LPD*%
G01*
G04 APERTURE LIST*
%ADD10C,0.160000*%
%ADD11C,0.010000*%
%ADD12C,0.150000*%
G04 APERTURE END LIST*
D10*
X137214285Y-88952380D02*
X137214285Y-87952380D01*
X137595238Y-87952380D01*
X137690476Y-88000000D01*
X137738095Y-88047619D01*
X137785714Y-88142857D01*
X137785714Y-88285714D01*
X137738095Y-88380952D01*
X137690476Y-88428571D01*
X137595238Y-88476190D01*
X137214285Y-88476190D01*
X138785714Y-88857142D02*
X138738095Y-88904761D01*
X138595238Y-88952380D01*
X138500000Y-88952380D01*
X138357142Y-88904761D01*
X138261904Y-88809523D01*
X138214285Y-88714285D01*
X138166666Y-88523809D01*
X138166666Y-88380952D01*
X138214285Y-88190476D01*
X138261904Y-88095238D01*
X138357142Y-88000000D01*
X138500000Y-87952380D01*
X138595238Y-87952380D01*
X138738095Y-88000000D01*
X138785714Y-88047619D01*
X139214285Y-88571428D02*
X139976190Y-88571428D01*
X140976190Y-88952380D02*
X140404761Y-88952380D01*
X140690476Y-88952380D02*
X140690476Y-87952380D01*
X140595238Y-88095238D01*
X140500000Y-88190476D01*
X140404761Y-88238095D01*
X141595238Y-87952380D02*
X141690476Y-87952380D01*
X141785714Y-88000000D01*
X141833333Y-88047619D01*
X141880952Y-88142857D01*
X141928571Y-88333333D01*
X141928571Y-88571428D01*
X141880952Y-88761904D01*
X141833333Y-88857142D01*
X141785714Y-88904761D01*
X141690476Y-88952380D01*
X141595238Y-88952380D01*
X141500000Y-88904761D01*
X141452380Y-88857142D01*
X141404761Y-88761904D01*
X141357142Y-88571428D01*
X141357142Y-88333333D01*
X141404761Y-88142857D01*
X141452380Y-88047619D01*
X141500000Y-88000000D01*
X141595238Y-87952380D01*
X142785714Y-88285714D02*
X142785714Y-88952380D01*
X142547619Y-87904761D02*
X142309523Y-88619047D01*
X142928571Y-88619047D01*
X144023809Y-88666666D02*
X144500000Y-88666666D01*
X143928571Y-88952380D02*
X144261904Y-87952380D01*
X144595238Y-88952380D01*
X145357142Y-88952380D02*
X145357142Y-87952380D01*
X145357142Y-88904761D02*
X145261904Y-88952380D01*
X145071428Y-88952380D01*
X144976190Y-88904761D01*
X144928571Y-88857142D01*
X144880952Y-88761904D01*
X144880952Y-88476190D01*
X144928571Y-88380952D01*
X144976190Y-88333333D01*
X145071428Y-88285714D01*
X145261904Y-88285714D01*
X145357142Y-88333333D01*
X146261904Y-88952380D02*
X146261904Y-88428571D01*
X146214285Y-88333333D01*
X146119047Y-88285714D01*
X145928571Y-88285714D01*
X145833333Y-88333333D01*
X146261904Y-88904761D02*
X146166666Y-88952380D01*
X145928571Y-88952380D01*
X145833333Y-88904761D01*
X145785714Y-88809523D01*
X145785714Y-88714285D01*
X145833333Y-88619047D01*
X145928571Y-88571428D01*
X146166666Y-88571428D01*
X146261904Y-88523809D01*
X146738095Y-88285714D02*
X146738095Y-89285714D01*
X146738095Y-88333333D02*
X146833333Y-88285714D01*
X147023809Y-88285714D01*
X147119047Y-88333333D01*
X147166666Y-88380952D01*
X147214285Y-88476190D01*
X147214285Y-88761904D01*
X147166666Y-88857142D01*
X147119047Y-88904761D01*
X147023809Y-88952380D01*
X146833333Y-88952380D01*
X146738095Y-88904761D01*
X147500000Y-88285714D02*
X147880952Y-88285714D01*
X147642857Y-87952380D02*
X147642857Y-88809523D01*
X147690476Y-88904761D01*
X147785714Y-88952380D01*
X147880952Y-88952380D01*
X148595238Y-88904761D02*
X148500000Y-88952380D01*
X148309523Y-88952380D01*
X148214285Y-88904761D01*
X148166666Y-88809523D01*
X148166666Y-88428571D01*
X148214285Y-88333333D01*
X148309523Y-88285714D01*
X148500000Y-88285714D01*
X148595238Y-88333333D01*
X148642857Y-88428571D01*
X148642857Y-88523809D01*
X148166666Y-88619047D01*
X149071428Y-88952380D02*
X149071428Y-88285714D01*
X149071428Y-88476190D02*
X149119047Y-88380952D01*
X149166666Y-88333333D01*
X149261904Y-88285714D01*
X149357142Y-88285714D01*
X150738095Y-89333333D02*
X150690476Y-89285714D01*
X150595238Y-89142857D01*
X150547619Y-89047619D01*
X150500000Y-88904761D01*
X150452380Y-88666666D01*
X150452380Y-88476190D01*
X150500000Y-88238095D01*
X150547619Y-88095238D01*
X150595238Y-88000000D01*
X150690476Y-87857142D01*
X150738095Y-87809523D01*
X150976190Y-87952380D02*
X151547619Y-87952380D01*
X151261904Y-88952380D02*
X151261904Y-87952380D01*
X152023809Y-88952380D02*
X151928571Y-88904761D01*
X151880952Y-88857142D01*
X151833333Y-88761904D01*
X151833333Y-88476190D01*
X151880952Y-88380952D01*
X151928571Y-88333333D01*
X152023809Y-88285714D01*
X152166666Y-88285714D01*
X152261904Y-88333333D01*
X152309523Y-88380952D01*
X152357142Y-88476190D01*
X152357142Y-88761904D01*
X152309523Y-88857142D01*
X152261904Y-88904761D01*
X152166666Y-88952380D01*
X152023809Y-88952380D01*
X152785714Y-88285714D02*
X152785714Y-89285714D01*
X152785714Y-88333333D02*
X152880952Y-88285714D01*
X153071428Y-88285714D01*
X153166666Y-88333333D01*
X153214285Y-88380952D01*
X153261904Y-88476190D01*
X153261904Y-88761904D01*
X153214285Y-88857142D01*
X153166666Y-88904761D01*
X153071428Y-88952380D01*
X152880952Y-88952380D01*
X152785714Y-88904761D01*
X153595238Y-89333333D02*
X153642857Y-89285714D01*
X153738095Y-89142857D01*
X153785714Y-89047619D01*
X153833333Y-88904761D01*
X153880952Y-88666666D01*
X153880952Y-88476190D01*
X153833333Y-88238095D01*
X153785714Y-88095238D01*
X153738095Y-88000000D01*
X153642857Y-87857142D01*
X153595238Y-87809523D01*
X155023809Y-88285714D02*
X155261904Y-88952380D01*
X155500000Y-88285714D01*
X155833333Y-88047619D02*
X155880952Y-88000000D01*
X155976190Y-87952380D01*
X156214285Y-87952380D01*
X156309523Y-88000000D01*
X156357142Y-88047619D01*
X156404761Y-88142857D01*
X156404761Y-88238095D01*
X156357142Y-88380952D01*
X155785714Y-88952380D01*
X156404761Y-88952380D01*
X156833333Y-88857142D02*
X156880952Y-88904761D01*
X156833333Y-88952380D01*
X156785714Y-88904761D01*
X156833333Y-88857142D01*
X156833333Y-88952380D01*
X157500000Y-87952380D02*
X157595238Y-87952380D01*
X157690476Y-88000000D01*
X157738095Y-88047619D01*
X157785714Y-88142857D01*
X157833333Y-88333333D01*
X157833333Y-88571428D01*
X157785714Y-88761904D01*
X157738095Y-88857142D01*
X157690476Y-88904761D01*
X157595238Y-88952380D01*
X157500000Y-88952380D01*
X157404761Y-88904761D01*
X157357142Y-88857142D01*
X157309523Y-88761904D01*
X157261904Y-88571428D01*
X157261904Y-88333333D01*
X157309523Y-88142857D01*
X157357142Y-88047619D01*
X157404761Y-88000000D01*
X157500000Y-87952380D01*
D11*
G36*
X144963360Y-96852468D02*
G01*
X144998592Y-96869874D01*
X145042040Y-96900206D01*
X145073706Y-96933283D01*
X145095394Y-96974817D01*
X145108903Y-97030522D01*
X145116038Y-97106111D01*
X145118600Y-97207296D01*
X145118750Y-97250797D01*
X145118312Y-97346135D01*
X145116496Y-97414271D01*
X145112545Y-97461418D01*
X145105702Y-97493790D01*
X145095211Y-97517600D01*
X145084296Y-97533843D01*
X145014619Y-97602952D01*
X144932566Y-97644521D01*
X144844050Y-97657023D01*
X144754981Y-97638934D01*
X144726763Y-97626142D01*
X144659210Y-97590931D01*
X144659210Y-98142700D01*
X144708512Y-98117205D01*
X144773473Y-98097480D01*
X144853320Y-98092427D01*
X144933052Y-98101756D01*
X144993265Y-98122714D01*
X145043208Y-98162627D01*
X145085881Y-98219741D01*
X145089090Y-98225605D01*
X145102622Y-98253227D01*
X145112505Y-98281068D01*
X145119309Y-98314794D01*
X145123601Y-98360071D01*
X145125951Y-98422562D01*
X145126928Y-98507935D01*
X145127105Y-98604010D01*
X145127105Y-98910526D01*
X144943289Y-98910526D01*
X144943289Y-98345339D01*
X144891875Y-98302077D01*
X144838466Y-98267472D01*
X144787888Y-98261180D01*
X144737030Y-98277372D01*
X144709925Y-98293227D01*
X144689751Y-98315810D01*
X144675403Y-98349940D01*
X144665776Y-98400434D01*
X144659763Y-98472111D01*
X144656260Y-98569788D01*
X144655026Y-98634802D01*
X144650855Y-98902171D01*
X144563125Y-98907222D01*
X144475394Y-98912273D01*
X144475394Y-97253101D01*
X144659210Y-97253101D01*
X144663896Y-97345600D01*
X144679688Y-97409809D01*
X144709183Y-97449759D01*
X144754980Y-97469480D01*
X144801250Y-97473421D01*
X144853628Y-97468892D01*
X144888390Y-97451069D01*
X144910128Y-97427519D01*
X144927240Y-97402189D01*
X144937427Y-97373969D01*
X144941960Y-97334431D01*
X144942109Y-97275142D01*
X144940584Y-97225498D01*
X144937081Y-97150710D01*
X144931867Y-97101611D01*
X144923087Y-97070467D01*
X144908886Y-97049545D01*
X144895484Y-97037452D01*
X144839487Y-97011081D01*
X144773211Y-97006822D01*
X144735156Y-97015906D01*
X144697477Y-97048196D01*
X144672519Y-97111006D01*
X144660422Y-97203894D01*
X144659210Y-97253101D01*
X144475394Y-97253101D01*
X144475394Y-96838421D01*
X144567302Y-96838421D01*
X144622483Y-96840603D01*
X144650952Y-96848351D01*
X144659206Y-96863468D01*
X144659210Y-96863916D01*
X144663040Y-96878720D01*
X144679933Y-96877039D01*
X144713519Y-96860772D01*
X144791778Y-96835887D01*
X144879827Y-96833271D01*
X144963360Y-96852468D01*
G37*
X144963360Y-96852468D02*
X144998592Y-96869874D01*
X145042040Y-96900206D01*
X145073706Y-96933283D01*
X145095394Y-96974817D01*
X145108903Y-97030522D01*
X145116038Y-97106111D01*
X145118600Y-97207296D01*
X145118750Y-97250797D01*
X145118312Y-97346135D01*
X145116496Y-97414271D01*
X145112545Y-97461418D01*
X145105702Y-97493790D01*
X145095211Y-97517600D01*
X145084296Y-97533843D01*
X145014619Y-97602952D01*
X144932566Y-97644521D01*
X144844050Y-97657023D01*
X144754981Y-97638934D01*
X144726763Y-97626142D01*
X144659210Y-97590931D01*
X144659210Y-98142700D01*
X144708512Y-98117205D01*
X144773473Y-98097480D01*
X144853320Y-98092427D01*
X144933052Y-98101756D01*
X144993265Y-98122714D01*
X145043208Y-98162627D01*
X145085881Y-98219741D01*
X145089090Y-98225605D01*
X145102622Y-98253227D01*
X145112505Y-98281068D01*
X145119309Y-98314794D01*
X145123601Y-98360071D01*
X145125951Y-98422562D01*
X145126928Y-98507935D01*
X145127105Y-98604010D01*
X145127105Y-98910526D01*
X144943289Y-98910526D01*
X144943289Y-98345339D01*
X144891875Y-98302077D01*
X144838466Y-98267472D01*
X144787888Y-98261180D01*
X144737030Y-98277372D01*
X144709925Y-98293227D01*
X144689751Y-98315810D01*
X144675403Y-98349940D01*
X144665776Y-98400434D01*
X144659763Y-98472111D01*
X144656260Y-98569788D01*
X144655026Y-98634802D01*
X144650855Y-98902171D01*
X144563125Y-98907222D01*
X144475394Y-98912273D01*
X144475394Y-97253101D01*
X144659210Y-97253101D01*
X144663896Y-97345600D01*
X144679688Y-97409809D01*
X144709183Y-97449759D01*
X144754980Y-97469480D01*
X144801250Y-97473421D01*
X144853628Y-97468892D01*
X144888390Y-97451069D01*
X144910128Y-97427519D01*
X144927240Y-97402189D01*
X144937427Y-97373969D01*
X144941960Y-97334431D01*
X144942109Y-97275142D01*
X144940584Y-97225498D01*
X144937081Y-97150710D01*
X144931867Y-97101611D01*
X144923087Y-97070467D01*
X144908886Y-97049545D01*
X144895484Y-97037452D01*
X144839487Y-97011081D01*
X144773211Y-97006822D01*
X144735156Y-97015906D01*
X144697477Y-97048196D01*
X144672519Y-97111006D01*
X144660422Y-97203894D01*
X144659210Y-97253101D01*
X144475394Y-97253101D01*
X144475394Y-96838421D01*
X144567302Y-96838421D01*
X144622483Y-96840603D01*
X144650952Y-96848351D01*
X144659206Y-96863468D01*
X144659210Y-96863916D01*
X144663040Y-96878720D01*
X144679933Y-96877039D01*
X144713519Y-96860772D01*
X144791778Y-96835887D01*
X144879827Y-96833271D01*
X144963360Y-96852468D01*
G36*
X145660457Y-98098184D02*
G01*
X145739070Y-98119160D01*
X145798916Y-98157180D01*
X145841147Y-98206978D01*
X145854275Y-98228230D01*
X145863968Y-98250492D01*
X145870744Y-98278970D01*
X145875123Y-98318871D01*
X145877624Y-98375401D01*
X145878768Y-98453767D01*
X145879072Y-98559176D01*
X145879078Y-98587142D01*
X145879078Y-98910526D01*
X145798868Y-98910526D01*
X145747706Y-98906943D01*
X145709877Y-98897866D01*
X145700399Y-98892268D01*
X145674488Y-98882606D01*
X145648024Y-98892268D01*
X145604452Y-98904330D01*
X145541160Y-98909185D01*
X145471010Y-98907078D01*
X145406860Y-98898256D01*
X145369407Y-98886937D01*
X145296933Y-98840412D01*
X145251640Y-98775846D01*
X145231278Y-98690000D01*
X145231088Y-98687796D01*
X145232875Y-98649713D01*
X145394473Y-98649713D01*
X145408601Y-98693030D01*
X145431612Y-98717408D01*
X145477804Y-98735845D01*
X145538775Y-98743205D01*
X145600949Y-98739583D01*
X145650751Y-98725074D01*
X145664703Y-98715765D01*
X145689085Y-98672753D01*
X145695263Y-98623857D01*
X145695263Y-98559605D01*
X145602818Y-98559605D01*
X145514995Y-98566366D01*
X145448418Y-98585520D01*
X145407002Y-98615376D01*
X145394473Y-98649713D01*
X145232875Y-98649713D01*
X145235490Y-98594004D01*
X145266424Y-98519847D01*
X145324581Y-98463767D01*
X145332620Y-98458665D01*
X145367163Y-98442055D01*
X145409918Y-98431996D01*
X145469686Y-98427107D01*
X145540690Y-98425983D01*
X145695263Y-98425921D01*
X145695263Y-98361125D01*
X145688706Y-98310850D01*
X145671975Y-98277169D01*
X145670016Y-98275376D01*
X145632783Y-98260642D01*
X145576580Y-98254931D01*
X145514467Y-98257737D01*
X145459510Y-98268556D01*
X145426899Y-98284782D01*
X145409228Y-98297780D01*
X145390569Y-98300262D01*
X145364819Y-98289613D01*
X145325873Y-98263218D01*
X145267630Y-98218465D01*
X145262284Y-98214273D01*
X145265023Y-98198760D01*
X145287876Y-98172960D01*
X145322609Y-98144289D01*
X145360990Y-98120166D01*
X145373048Y-98114470D01*
X145417034Y-98103103D01*
X145481487Y-98094995D01*
X145553497Y-98091743D01*
X145556864Y-98091736D01*
X145660457Y-98098184D01*
G37*
X145660457Y-98098184D02*
X145739070Y-98119160D01*
X145798916Y-98157180D01*
X145841147Y-98206978D01*
X145854275Y-98228230D01*
X145863968Y-98250492D01*
X145870744Y-98278970D01*
X145875123Y-98318871D01*
X145877624Y-98375401D01*
X145878768Y-98453767D01*
X145879072Y-98559176D01*
X145879078Y-98587142D01*
X145879078Y-98910526D01*
X145798868Y-98910526D01*
X145747706Y-98906943D01*
X145709877Y-98897866D01*
X145700399Y-98892268D01*
X145674488Y-98882606D01*
X145648024Y-98892268D01*
X145604452Y-98904330D01*
X145541160Y-98909185D01*
X145471010Y-98907078D01*
X145406860Y-98898256D01*
X145369407Y-98886937D01*
X145296933Y-98840412D01*
X145251640Y-98775846D01*
X145231278Y-98690000D01*
X145231088Y-98687796D01*
X145232875Y-98649713D01*
X145394473Y-98649713D01*
X145408601Y-98693030D01*
X145431612Y-98717408D01*
X145477804Y-98735845D01*
X145538775Y-98743205D01*
X145600949Y-98739583D01*
X145650751Y-98725074D01*
X145664703Y-98715765D01*
X145689085Y-98672753D01*
X145695263Y-98623857D01*
X145695263Y-98559605D01*
X145602818Y-98559605D01*
X145514995Y-98566366D01*
X145448418Y-98585520D01*
X145407002Y-98615376D01*
X145394473Y-98649713D01*
X145232875Y-98649713D01*
X145235490Y-98594004D01*
X145266424Y-98519847D01*
X145324581Y-98463767D01*
X145332620Y-98458665D01*
X145367163Y-98442055D01*
X145409918Y-98431996D01*
X145469686Y-98427107D01*
X145540690Y-98425983D01*
X145695263Y-98425921D01*
X145695263Y-98361125D01*
X145688706Y-98310850D01*
X145671975Y-98277169D01*
X145670016Y-98275376D01*
X145632783Y-98260642D01*
X145576580Y-98254931D01*
X145514467Y-98257737D01*
X145459510Y-98268556D01*
X145426899Y-98284782D01*
X145409228Y-98297780D01*
X145390569Y-98300262D01*
X145364819Y-98289613D01*
X145325873Y-98263218D01*
X145267630Y-98218465D01*
X145262284Y-98214273D01*
X145265023Y-98198760D01*
X145287876Y-98172960D01*
X145322609Y-98144289D01*
X145360990Y-98120166D01*
X145373048Y-98114470D01*
X145417034Y-98103103D01*
X145481487Y-98094995D01*
X145553497Y-98091743D01*
X145556864Y-98091736D01*
X145660457Y-98098184D01*
G36*
X146179881Y-98093486D02*
G01*
X146204888Y-98100982D01*
X146212950Y-98117451D01*
X146213289Y-98124886D01*
X146214736Y-98145594D01*
X146224698Y-98148845D01*
X146251612Y-98134648D01*
X146267598Y-98124948D01*
X146318033Y-98104175D01*
X146378272Y-98093904D01*
X146441434Y-98093114D01*
X146500637Y-98100786D01*
X146549002Y-98115898D01*
X146579646Y-98137432D01*
X146585689Y-98164366D01*
X146582639Y-98171660D01*
X146560406Y-98201937D01*
X146525930Y-98239175D01*
X146519694Y-98245195D01*
X146486833Y-98272875D01*
X146458480Y-98281818D01*
X146418827Y-98275576D01*
X146402942Y-98271429D01*
X146353509Y-98261467D01*
X146318752Y-98265947D01*
X146289400Y-98281746D01*
X146262513Y-98302949D01*
X146242710Y-98329614D01*
X146228948Y-98366827D01*
X146220184Y-98419673D01*
X146215374Y-98493237D01*
X146213474Y-98592605D01*
X146213289Y-98652601D01*
X146213289Y-98910526D01*
X146046184Y-98910526D01*
X146046184Y-98091710D01*
X146129736Y-98091710D01*
X146179881Y-98093486D01*
G37*
X146179881Y-98093486D02*
X146204888Y-98100982D01*
X146212950Y-98117451D01*
X146213289Y-98124886D01*
X146214736Y-98145594D01*
X146224698Y-98148845D01*
X146251612Y-98134648D01*
X146267598Y-98124948D01*
X146318033Y-98104175D01*
X146378272Y-98093904D01*
X146441434Y-98093114D01*
X146500637Y-98100786D01*
X146549002Y-98115898D01*
X146579646Y-98137432D01*
X146585689Y-98164366D01*
X146582639Y-98171660D01*
X146560406Y-98201937D01*
X146525930Y-98239175D01*
X146519694Y-98245195D01*
X146486833Y-98272875D01*
X146458480Y-98281818D01*
X146418827Y-98275576D01*
X146402942Y-98271429D01*
X146353509Y-98261467D01*
X146318752Y-98265947D01*
X146289400Y-98281746D01*
X146262513Y-98302949D01*
X146242710Y-98329614D01*
X146228948Y-98366827D01*
X146220184Y-98419673D01*
X146215374Y-98493237D01*
X146213474Y-98592605D01*
X146213289Y-98652601D01*
X146213289Y-98910526D01*
X146046184Y-98910526D01*
X146046184Y-98091710D01*
X146129736Y-98091710D01*
X146179881Y-98093486D01*
G36*
X147232631Y-98910526D02*
G01*
X147140723Y-98910526D01*
X147087377Y-98908962D01*
X147059593Y-98902485D01*
X147049590Y-98888418D01*
X147048815Y-98878906D01*
X147047128Y-98859832D01*
X147036490Y-98856174D01*
X147008535Y-98867932D01*
X146986795Y-98878906D01*
X146903332Y-98904911D01*
X146812604Y-98906416D01*
X146738842Y-98887021D01*
X146670154Y-98840165D01*
X146617794Y-98771004D01*
X146589122Y-98689427D01*
X146588392Y-98684866D01*
X146584132Y-98635101D01*
X146582014Y-98563659D01*
X146582184Y-98509626D01*
X146764720Y-98509626D01*
X146768949Y-98581441D01*
X146778568Y-98640634D01*
X146791590Y-98674060D01*
X146840856Y-98719740D01*
X146899350Y-98736115D01*
X146959671Y-98722873D01*
X147011217Y-98683373D01*
X147030738Y-98656807D01*
X147042152Y-98625106D01*
X147047498Y-98578832D01*
X147048815Y-98509328D01*
X147046458Y-98440499D01*
X147040233Y-98380026D01*
X147031408Y-98339556D01*
X147029937Y-98335929D01*
X146994347Y-98292802D01*
X146942400Y-98269124D01*
X146884278Y-98265301D01*
X146830160Y-98281738D01*
X146790226Y-98318840D01*
X146786083Y-98326222D01*
X146773116Y-98371239D01*
X146766052Y-98435967D01*
X146764720Y-98509626D01*
X146582184Y-98509626D01*
X146582271Y-98482230D01*
X146583472Y-98438405D01*
X146591645Y-98329988D01*
X146608630Y-98248588D01*
X146636887Y-98188412D01*
X146678872Y-98143666D01*
X146719632Y-98117400D01*
X146776581Y-98098935D01*
X146847411Y-98092602D01*
X146919941Y-98097760D01*
X146981986Y-98113769D01*
X147014768Y-98132920D01*
X147048815Y-98163732D01*
X147048815Y-97774210D01*
X147232631Y-97774210D01*
X147232631Y-98910526D01*
G37*
X147232631Y-98910526D02*
X147140723Y-98910526D01*
X147087377Y-98908962D01*
X147059593Y-98902485D01*
X147049590Y-98888418D01*
X147048815Y-98878906D01*
X147047128Y-98859832D01*
X147036490Y-98856174D01*
X147008535Y-98867932D01*
X146986795Y-98878906D01*
X146903332Y-98904911D01*
X146812604Y-98906416D01*
X146738842Y-98887021D01*
X146670154Y-98840165D01*
X146617794Y-98771004D01*
X146589122Y-98689427D01*
X146588392Y-98684866D01*
X146584132Y-98635101D01*
X146582014Y-98563659D01*
X146582184Y-98509626D01*
X146764720Y-98509626D01*
X146768949Y-98581441D01*
X146778568Y-98640634D01*
X146791590Y-98674060D01*
X146840856Y-98719740D01*
X146899350Y-98736115D01*
X146959671Y-98722873D01*
X147011217Y-98683373D01*
X147030738Y-98656807D01*
X147042152Y-98625106D01*
X147047498Y-98578832D01*
X147048815Y-98509328D01*
X147046458Y-98440499D01*
X147040233Y-98380026D01*
X147031408Y-98339556D01*
X147029937Y-98335929D01*
X146994347Y-98292802D01*
X146942400Y-98269124D01*
X146884278Y-98265301D01*
X146830160Y-98281738D01*
X146790226Y-98318840D01*
X146786083Y-98326222D01*
X146773116Y-98371239D01*
X146766052Y-98435967D01*
X146764720Y-98509626D01*
X146582184Y-98509626D01*
X146582271Y-98482230D01*
X146583472Y-98438405D01*
X146591645Y-98329988D01*
X146608630Y-98248588D01*
X146636887Y-98188412D01*
X146678872Y-98143666D01*
X146719632Y-98117400D01*
X146776581Y-98098935D01*
X146847411Y-98092602D01*
X146919941Y-98097760D01*
X146981986Y-98113769D01*
X147014768Y-98132920D01*
X147048815Y-98163732D01*
X147048815Y-97774210D01*
X147232631Y-97774210D01*
X147232631Y-98910526D01*
G36*
X147874130Y-98095104D02*
G01*
X147940220Y-98100066D01*
X148026626Y-98359079D01*
X148113031Y-98618092D01*
X148140124Y-98526184D01*
X148156428Y-98469384D01*
X148177875Y-98392625D01*
X148201035Y-98308251D01*
X148213280Y-98262993D01*
X148259344Y-98091710D01*
X148449387Y-98091710D01*
X148392582Y-98271349D01*
X148364607Y-98359704D01*
X148330813Y-98466281D01*
X148295520Y-98577454D01*
X148264013Y-98676579D01*
X148192250Y-98902171D01*
X148037286Y-98912253D01*
X147995270Y-98773528D01*
X147969359Y-98687351D01*
X147941083Y-98592347D01*
X147916369Y-98508441D01*
X147915394Y-98505102D01*
X147896935Y-98448248D01*
X147880649Y-98409456D01*
X147869242Y-98394787D01*
X147866898Y-98396483D01*
X147858671Y-98419225D01*
X147843038Y-98467940D01*
X147821904Y-98536502D01*
X147797170Y-98618785D01*
X147783787Y-98664046D01*
X147711311Y-98910526D01*
X147557495Y-98910526D01*
X147434531Y-98522006D01*
X147399988Y-98413022D01*
X147368521Y-98314048D01*
X147341616Y-98229736D01*
X147320759Y-98164734D01*
X147307438Y-98123692D01*
X147303388Y-98111701D01*
X147306594Y-98099423D01*
X147331765Y-98094046D01*
X147384146Y-98094584D01*
X147392345Y-98094990D01*
X147489482Y-98100066D01*
X147553100Y-98334013D01*
X147576484Y-98419333D01*
X147597381Y-98494335D01*
X147613951Y-98552507D01*
X147624354Y-98587337D01*
X147626276Y-98593016D01*
X147634241Y-98586486D01*
X147650304Y-98552654D01*
X147672621Y-98496127D01*
X147699345Y-98421510D01*
X147721937Y-98354107D01*
X147808041Y-98090143D01*
X147874130Y-98095104D01*
G37*
X147874130Y-98095104D02*
X147940220Y-98100066D01*
X148026626Y-98359079D01*
X148113031Y-98618092D01*
X148140124Y-98526184D01*
X148156428Y-98469384D01*
X148177875Y-98392625D01*
X148201035Y-98308251D01*
X148213280Y-98262993D01*
X148259344Y-98091710D01*
X148449387Y-98091710D01*
X148392582Y-98271349D01*
X148364607Y-98359704D01*
X148330813Y-98466281D01*
X148295520Y-98577454D01*
X148264013Y-98676579D01*
X148192250Y-98902171D01*
X148037286Y-98912253D01*
X147995270Y-98773528D01*
X147969359Y-98687351D01*
X147941083Y-98592347D01*
X147916369Y-98508441D01*
X147915394Y-98505102D01*
X147896935Y-98448248D01*
X147880649Y-98409456D01*
X147869242Y-98394787D01*
X147866898Y-98396483D01*
X147858671Y-98419225D01*
X147843038Y-98467940D01*
X147821904Y-98536502D01*
X147797170Y-98618785D01*
X147783787Y-98664046D01*
X147711311Y-98910526D01*
X147557495Y-98910526D01*
X147434531Y-98522006D01*
X147399988Y-98413022D01*
X147368521Y-98314048D01*
X147341616Y-98229736D01*
X147320759Y-98164734D01*
X147307438Y-98123692D01*
X147303388Y-98111701D01*
X147306594Y-98099423D01*
X147331765Y-98094046D01*
X147384146Y-98094584D01*
X147392345Y-98094990D01*
X147489482Y-98100066D01*
X147553100Y-98334013D01*
X147576484Y-98419333D01*
X147597381Y-98494335D01*
X147613951Y-98552507D01*
X147624354Y-98587337D01*
X147626276Y-98593016D01*
X147634241Y-98586486D01*
X147650304Y-98552654D01*
X147672621Y-98496127D01*
X147699345Y-98421510D01*
X147721937Y-98354107D01*
X147808041Y-98090143D01*
X147874130Y-98095104D01*
G36*
X148879992Y-98096673D02*
G01*
X148950427Y-98113780D01*
X148970787Y-98122844D01*
X149010253Y-98146583D01*
X149040541Y-98173321D01*
X149062952Y-98207699D01*
X149078786Y-98254360D01*
X149089343Y-98317946D01*
X149095924Y-98403099D01*
X149099828Y-98514462D01*
X149101310Y-98588849D01*
X149106765Y-98910526D01*
X149013580Y-98910526D01*
X148957047Y-98908156D01*
X148927922Y-98900055D01*
X148920394Y-98886451D01*
X148916420Y-98871741D01*
X148898652Y-98874554D01*
X148874440Y-98886348D01*
X148813828Y-98904427D01*
X148735929Y-98909299D01*
X148653995Y-98901330D01*
X148581281Y-98880889D01*
X148574759Y-98878051D01*
X148508302Y-98831365D01*
X148464491Y-98766464D01*
X148444332Y-98690600D01*
X148445872Y-98663344D01*
X148610345Y-98663344D01*
X148624837Y-98700024D01*
X148667805Y-98726309D01*
X148737129Y-98740417D01*
X148774177Y-98742290D01*
X148835919Y-98737494D01*
X148876960Y-98718858D01*
X148886973Y-98710000D01*
X148914100Y-98661806D01*
X148920394Y-98618092D01*
X148920394Y-98559605D01*
X148838930Y-98559605D01*
X148744234Y-98564432D01*
X148677813Y-98579613D01*
X148635846Y-98606200D01*
X148626449Y-98618052D01*
X148610345Y-98663344D01*
X148445872Y-98663344D01*
X148448829Y-98611026D01*
X148478985Y-98534995D01*
X148520131Y-98483612D01*
X148545052Y-98461397D01*
X148569448Y-98446798D01*
X148601191Y-98437897D01*
X148648152Y-98432775D01*
X148718204Y-98429515D01*
X148745990Y-98428577D01*
X148920394Y-98422879D01*
X148920138Y-98370091D01*
X148913384Y-98314603D01*
X148888964Y-98281052D01*
X148839630Y-98259618D01*
X148838306Y-98259236D01*
X148768360Y-98250808D01*
X148699914Y-98261816D01*
X148649047Y-98288585D01*
X148628637Y-98301803D01*
X148606654Y-98299974D01*
X148572826Y-98280824D01*
X148552961Y-98267308D01*
X148514106Y-98238432D01*
X148490038Y-98216786D01*
X148486176Y-98210589D01*
X148502079Y-98178519D01*
X148549065Y-98140219D01*
X148569473Y-98127297D01*
X148628143Y-98105041D01*
X148707212Y-98092432D01*
X148795041Y-98089600D01*
X148879992Y-98096673D01*
G37*
X148879992Y-98096673D02*
X148950427Y-98113780D01*
X148970787Y-98122844D01*
X149010253Y-98146583D01*
X149040541Y-98173321D01*
X149062952Y-98207699D01*
X149078786Y-98254360D01*
X149089343Y-98317946D01*
X149095924Y-98403099D01*
X149099828Y-98514462D01*
X149101310Y-98588849D01*
X149106765Y-98910526D01*
X149013580Y-98910526D01*
X148957047Y-98908156D01*
X148927922Y-98900055D01*
X148920394Y-98886451D01*
X148916420Y-98871741D01*
X148898652Y-98874554D01*
X148874440Y-98886348D01*
X148813828Y-98904427D01*
X148735929Y-98909299D01*
X148653995Y-98901330D01*
X148581281Y-98880889D01*
X148574759Y-98878051D01*
X148508302Y-98831365D01*
X148464491Y-98766464D01*
X148444332Y-98690600D01*
X148445872Y-98663344D01*
X148610345Y-98663344D01*
X148624837Y-98700024D01*
X148667805Y-98726309D01*
X148737129Y-98740417D01*
X148774177Y-98742290D01*
X148835919Y-98737494D01*
X148876960Y-98718858D01*
X148886973Y-98710000D01*
X148914100Y-98661806D01*
X148920394Y-98618092D01*
X148920394Y-98559605D01*
X148838930Y-98559605D01*
X148744234Y-98564432D01*
X148677813Y-98579613D01*
X148635846Y-98606200D01*
X148626449Y-98618052D01*
X148610345Y-98663344D01*
X148445872Y-98663344D01*
X148448829Y-98611026D01*
X148478985Y-98534995D01*
X148520131Y-98483612D01*
X148545052Y-98461397D01*
X148569448Y-98446798D01*
X148601191Y-98437897D01*
X148648152Y-98432775D01*
X148718204Y-98429515D01*
X148745990Y-98428577D01*
X148920394Y-98422879D01*
X148920138Y-98370091D01*
X148913384Y-98314603D01*
X148888964Y-98281052D01*
X148839630Y-98259618D01*
X148838306Y-98259236D01*
X148768360Y-98250808D01*
X148699914Y-98261816D01*
X148649047Y-98288585D01*
X148628637Y-98301803D01*
X148606654Y-98299974D01*
X148572826Y-98280824D01*
X148552961Y-98267308D01*
X148514106Y-98238432D01*
X148490038Y-98216786D01*
X148486176Y-98210589D01*
X148502079Y-98178519D01*
X148549065Y-98140219D01*
X148569473Y-98127297D01*
X148628143Y-98105041D01*
X148707212Y-98092432D01*
X148795041Y-98089600D01*
X148879992Y-98096673D01*
G36*
X149673167Y-98091447D02*
G01*
X149737408Y-98104112D01*
X149773980Y-98122864D01*
X149812453Y-98154017D01*
X149757717Y-98223127D01*
X149723969Y-98264979D01*
X149701053Y-98285398D01*
X149678279Y-98288517D01*
X149644956Y-98278472D01*
X149629314Y-98272789D01*
X149565542Y-98264404D01*
X149507140Y-98282378D01*
X149464264Y-98322982D01*
X149457299Y-98335929D01*
X149449713Y-98370224D01*
X149443859Y-98433427D01*
X149440011Y-98521060D01*
X149438443Y-98628640D01*
X149438421Y-98643944D01*
X149438421Y-98910526D01*
X149254605Y-98910526D01*
X149254605Y-98091710D01*
X149346513Y-98091710D01*
X149399507Y-98093094D01*
X149427115Y-98099252D01*
X149437324Y-98113194D01*
X149438421Y-98126344D01*
X149438421Y-98160978D01*
X149482450Y-98126344D01*
X149532937Y-98102716D01*
X149600760Y-98091033D01*
X149673167Y-98091447D01*
G37*
X149673167Y-98091447D02*
X149737408Y-98104112D01*
X149773980Y-98122864D01*
X149812453Y-98154017D01*
X149757717Y-98223127D01*
X149723969Y-98264979D01*
X149701053Y-98285398D01*
X149678279Y-98288517D01*
X149644956Y-98278472D01*
X149629314Y-98272789D01*
X149565542Y-98264404D01*
X149507140Y-98282378D01*
X149464264Y-98322982D01*
X149457299Y-98335929D01*
X149449713Y-98370224D01*
X149443859Y-98433427D01*
X149440011Y-98521060D01*
X149438443Y-98628640D01*
X149438421Y-98643944D01*
X149438421Y-98910526D01*
X149254605Y-98910526D01*
X149254605Y-98091710D01*
X149346513Y-98091710D01*
X149399507Y-98093094D01*
X149427115Y-98099252D01*
X149437324Y-98113194D01*
X149438421Y-98126344D01*
X149438421Y-98160978D01*
X149482450Y-98126344D01*
X149532937Y-98102716D01*
X149600760Y-98091033D01*
X149673167Y-98091447D01*
G36*
X150201193Y-98096078D02*
G01*
X150281068Y-98116845D01*
X150347962Y-98159705D01*
X150380351Y-98191723D01*
X150433445Y-98267413D01*
X150463873Y-98355216D01*
X150474327Y-98463150D01*
X150474380Y-98471875D01*
X150474473Y-98559605D01*
X149969534Y-98559605D01*
X149980298Y-98605559D01*
X149999732Y-98647178D01*
X150033745Y-98690544D01*
X150040860Y-98697467D01*
X150102003Y-98734935D01*
X150171729Y-98741289D01*
X150251987Y-98716638D01*
X150265592Y-98710000D01*
X150307319Y-98689819D01*
X150335268Y-98678321D01*
X150340145Y-98677258D01*
X150357168Y-98687583D01*
X150389633Y-98712845D01*
X150406114Y-98726650D01*
X150440264Y-98758361D01*
X150451478Y-98779299D01*
X150443695Y-98798560D01*
X150439535Y-98803827D01*
X150411357Y-98826878D01*
X150364862Y-98854892D01*
X150332434Y-98871246D01*
X150240385Y-98900059D01*
X150138476Y-98909395D01*
X150041963Y-98898332D01*
X150014934Y-98890412D01*
X149931276Y-98845581D01*
X149869266Y-98776598D01*
X149828545Y-98682794D01*
X149808755Y-98563498D01*
X149806582Y-98501118D01*
X149812926Y-98410298D01*
X149973157Y-98410298D01*
X149988655Y-98417012D01*
X150030312Y-98422280D01*
X150090876Y-98425389D01*
X150131907Y-98425921D01*
X150205711Y-98425408D01*
X150252293Y-98423006D01*
X150277848Y-98417422D01*
X150288569Y-98407361D01*
X150290657Y-98392763D01*
X150276331Y-98347796D01*
X150240262Y-98303353D01*
X150192815Y-98269242D01*
X150145349Y-98255288D01*
X150080879Y-98267666D01*
X150025070Y-98303452D01*
X149986374Y-98355033D01*
X149973157Y-98410298D01*
X149812926Y-98410298D01*
X149815821Y-98368866D01*
X149844336Y-98263498D01*
X149892729Y-98184178D01*
X149961604Y-98130071D01*
X150051565Y-98100343D01*
X150100300Y-98094618D01*
X150201193Y-98096078D01*
G37*
X150201193Y-98096078D02*
X150281068Y-98116845D01*
X150347962Y-98159705D01*
X150380351Y-98191723D01*
X150433445Y-98267413D01*
X150463873Y-98355216D01*
X150474327Y-98463150D01*
X150474380Y-98471875D01*
X150474473Y-98559605D01*
X149969534Y-98559605D01*
X149980298Y-98605559D01*
X149999732Y-98647178D01*
X150033745Y-98690544D01*
X150040860Y-98697467D01*
X150102003Y-98734935D01*
X150171729Y-98741289D01*
X150251987Y-98716638D01*
X150265592Y-98710000D01*
X150307319Y-98689819D01*
X150335268Y-98678321D01*
X150340145Y-98677258D01*
X150357168Y-98687583D01*
X150389633Y-98712845D01*
X150406114Y-98726650D01*
X150440264Y-98758361D01*
X150451478Y-98779299D01*
X150443695Y-98798560D01*
X150439535Y-98803827D01*
X150411357Y-98826878D01*
X150364862Y-98854892D01*
X150332434Y-98871246D01*
X150240385Y-98900059D01*
X150138476Y-98909395D01*
X150041963Y-98898332D01*
X150014934Y-98890412D01*
X149931276Y-98845581D01*
X149869266Y-98776598D01*
X149828545Y-98682794D01*
X149808755Y-98563498D01*
X149806582Y-98501118D01*
X149812926Y-98410298D01*
X149973157Y-98410298D01*
X149988655Y-98417012D01*
X150030312Y-98422280D01*
X150090876Y-98425389D01*
X150131907Y-98425921D01*
X150205711Y-98425408D01*
X150252293Y-98423006D01*
X150277848Y-98417422D01*
X150288569Y-98407361D01*
X150290657Y-98392763D01*
X150276331Y-98347796D01*
X150240262Y-98303353D01*
X150192815Y-98269242D01*
X150145349Y-98255288D01*
X150080879Y-98267666D01*
X150025070Y-98303452D01*
X149986374Y-98355033D01*
X149973157Y-98410298D01*
X149812926Y-98410298D01*
X149815821Y-98368866D01*
X149844336Y-98263498D01*
X149892729Y-98184178D01*
X149961604Y-98130071D01*
X150051565Y-98100343D01*
X150100300Y-98094618D01*
X150201193Y-98096078D01*
G36*
X144126784Y-96847104D02*
G01*
X144214205Y-96885754D01*
X144280570Y-96950290D01*
X144325976Y-97040812D01*
X144350518Y-97157418D01*
X144352277Y-97175624D01*
X144353656Y-97303984D01*
X144335784Y-97416496D01*
X144299750Y-97507688D01*
X144280455Y-97537022D01*
X144213245Y-97599106D01*
X144127650Y-97639316D01*
X144031890Y-97656003D01*
X143934187Y-97647517D01*
X143859917Y-97621380D01*
X143796047Y-97577335D01*
X143743846Y-97519587D01*
X143742943Y-97518236D01*
X143721744Y-97482593D01*
X143707967Y-97446752D01*
X143699624Y-97401519D01*
X143694727Y-97337701D01*
X143692569Y-97285368D01*
X143691671Y-97237910D01*
X143858743Y-97237910D01*
X143860376Y-97285154D01*
X143866304Y-97348046D01*
X143876761Y-97388407D01*
X143895619Y-97417122D01*
X143913281Y-97433896D01*
X143975894Y-97469016D01*
X144041408Y-97473710D01*
X144102421Y-97448440D01*
X144132928Y-97420124D01*
X144154911Y-97391589D01*
X144167769Y-97364284D01*
X144173412Y-97328750D01*
X144173751Y-97275524D01*
X144172012Y-97226506D01*
X144168271Y-97156482D01*
X144162341Y-97111064D01*
X144151653Y-97081440D01*
X144133639Y-97058797D01*
X144119363Y-97045855D01*
X144059651Y-97011860D01*
X143995234Y-97010165D01*
X143941219Y-97030301D01*
X143895140Y-97072352D01*
X143867689Y-97141428D01*
X143858743Y-97237910D01*
X143691671Y-97237910D01*
X143690599Y-97181299D01*
X143693964Y-97103468D01*
X143704045Y-97044930D01*
X143722226Y-96998737D01*
X143749890Y-96957942D01*
X143760146Y-96945828D01*
X143824278Y-96885474D01*
X143893066Y-96850220D01*
X143977189Y-96835450D01*
X144018209Y-96834243D01*
X144126784Y-96847104D01*
G37*
X144126784Y-96847104D02*
X144214205Y-96885754D01*
X144280570Y-96950290D01*
X144325976Y-97040812D01*
X144350518Y-97157418D01*
X144352277Y-97175624D01*
X144353656Y-97303984D01*
X144335784Y-97416496D01*
X144299750Y-97507688D01*
X144280455Y-97537022D01*
X144213245Y-97599106D01*
X144127650Y-97639316D01*
X144031890Y-97656003D01*
X143934187Y-97647517D01*
X143859917Y-97621380D01*
X143796047Y-97577335D01*
X143743846Y-97519587D01*
X143742943Y-97518236D01*
X143721744Y-97482593D01*
X143707967Y-97446752D01*
X143699624Y-97401519D01*
X143694727Y-97337701D01*
X143692569Y-97285368D01*
X143691671Y-97237910D01*
X143858743Y-97237910D01*
X143860376Y-97285154D01*
X143866304Y-97348046D01*
X143876761Y-97388407D01*
X143895619Y-97417122D01*
X143913281Y-97433896D01*
X143975894Y-97469016D01*
X144041408Y-97473710D01*
X144102421Y-97448440D01*
X144132928Y-97420124D01*
X144154911Y-97391589D01*
X144167769Y-97364284D01*
X144173412Y-97328750D01*
X144173751Y-97275524D01*
X144172012Y-97226506D01*
X144168271Y-97156482D01*
X144162341Y-97111064D01*
X144151653Y-97081440D01*
X144133639Y-97058797D01*
X144119363Y-97045855D01*
X144059651Y-97011860D01*
X143995234Y-97010165D01*
X143941219Y-97030301D01*
X143895140Y-97072352D01*
X143867689Y-97141428D01*
X143858743Y-97237910D01*
X143691671Y-97237910D01*
X143690599Y-97181299D01*
X143693964Y-97103468D01*
X143704045Y-97044930D01*
X143722226Y-96998737D01*
X143749890Y-96957942D01*
X143760146Y-96945828D01*
X143824278Y-96885474D01*
X143893066Y-96850220D01*
X143977189Y-96835450D01*
X144018209Y-96834243D01*
X144126784Y-96847104D01*
G36*
X145697018Y-96857027D02*
G01*
X145713670Y-96864866D01*
X145771305Y-96907086D01*
X145825805Y-96968700D01*
X145866499Y-97036543D01*
X145878074Y-97067734D01*
X145888634Y-97123449D01*
X145894931Y-97190781D01*
X145895696Y-97218585D01*
X145895789Y-97306316D01*
X145390850Y-97306316D01*
X145401613Y-97352270D01*
X145428033Y-97406620D01*
X145474222Y-97453591D01*
X145529172Y-97483848D01*
X145564189Y-97490131D01*
X145611677Y-97482506D01*
X145668335Y-97463383D01*
X145687582Y-97454584D01*
X145758759Y-97419036D01*
X145819502Y-97465367D01*
X145854552Y-97496703D01*
X145873202Y-97522567D01*
X145874147Y-97530158D01*
X145857485Y-97548556D01*
X145820970Y-97576515D01*
X145787828Y-97598327D01*
X145698393Y-97637537D01*
X145598129Y-97655285D01*
X145498754Y-97650670D01*
X145419539Y-97626551D01*
X145337880Y-97574884D01*
X145279849Y-97506856D01*
X145243546Y-97418843D01*
X145227072Y-97307216D01*
X145225611Y-97256138D01*
X145231457Y-97139091D01*
X145232175Y-97135686D01*
X145399489Y-97135686D01*
X145404097Y-97146662D01*
X145423036Y-97152715D01*
X145462098Y-97155310D01*
X145527077Y-97155910D01*
X145552097Y-97155921D01*
X145628221Y-97155014D01*
X145676496Y-97151720D01*
X145702460Y-97145181D01*
X145711648Y-97134537D01*
X145711973Y-97131119D01*
X145701487Y-97103956D01*
X145675242Y-97065903D01*
X145663959Y-97052579D01*
X145622072Y-97014896D01*
X145578409Y-97000080D01*
X145554885Y-96998842D01*
X145491243Y-97014329D01*
X145437873Y-97055930D01*
X145404019Y-97116353D01*
X145403419Y-97118322D01*
X145399489Y-97135686D01*
X145232175Y-97135686D01*
X145250899Y-97046928D01*
X145285922Y-96973190D01*
X145328756Y-96920848D01*
X145407948Y-96864092D01*
X145501040Y-96833762D01*
X145600055Y-96831021D01*
X145697018Y-96857027D01*
G37*
X145697018Y-96857027D02*
X145713670Y-96864866D01*
X145771305Y-96907086D01*
X145825805Y-96968700D01*
X145866499Y-97036543D01*
X145878074Y-97067734D01*
X145888634Y-97123449D01*
X145894931Y-97190781D01*
X145895696Y-97218585D01*
X145895789Y-97306316D01*
X145390850Y-97306316D01*
X145401613Y-97352270D01*
X145428033Y-97406620D01*
X145474222Y-97453591D01*
X145529172Y-97483848D01*
X145564189Y-97490131D01*
X145611677Y-97482506D01*
X145668335Y-97463383D01*
X145687582Y-97454584D01*
X145758759Y-97419036D01*
X145819502Y-97465367D01*
X145854552Y-97496703D01*
X145873202Y-97522567D01*
X145874147Y-97530158D01*
X145857485Y-97548556D01*
X145820970Y-97576515D01*
X145787828Y-97598327D01*
X145698393Y-97637537D01*
X145598129Y-97655285D01*
X145498754Y-97650670D01*
X145419539Y-97626551D01*
X145337880Y-97574884D01*
X145279849Y-97506856D01*
X145243546Y-97418843D01*
X145227072Y-97307216D01*
X145225611Y-97256138D01*
X145231457Y-97139091D01*
X145232175Y-97135686D01*
X145399489Y-97135686D01*
X145404097Y-97146662D01*
X145423036Y-97152715D01*
X145462098Y-97155310D01*
X145527077Y-97155910D01*
X145552097Y-97155921D01*
X145628221Y-97155014D01*
X145676496Y-97151720D01*
X145702460Y-97145181D01*
X145711648Y-97134537D01*
X145711973Y-97131119D01*
X145701487Y-97103956D01*
X145675242Y-97065903D01*
X145663959Y-97052579D01*
X145622072Y-97014896D01*
X145578409Y-97000080D01*
X145554885Y-96998842D01*
X145491243Y-97014329D01*
X145437873Y-97055930D01*
X145404019Y-97116353D01*
X145403419Y-97118322D01*
X145399489Y-97135686D01*
X145232175Y-97135686D01*
X145250899Y-97046928D01*
X145285922Y-96973190D01*
X145328756Y-96920848D01*
X145407948Y-96864092D01*
X145501040Y-96833762D01*
X145600055Y-96831021D01*
X145697018Y-96857027D01*
G36*
X147518628Y-96835547D02*
G01*
X147581908Y-96847548D01*
X147647557Y-96872648D01*
X147654572Y-96875848D01*
X147704356Y-96902026D01*
X147738834Y-96926353D01*
X147749978Y-96941937D01*
X147739366Y-96967353D01*
X147713588Y-97004853D01*
X147702146Y-97018852D01*
X147654992Y-97073954D01*
X147594201Y-97038086D01*
X147536347Y-97014192D01*
X147469500Y-97001420D01*
X147405394Y-97000613D01*
X147355764Y-97012615D01*
X147343854Y-97020105D01*
X147321172Y-97054450D01*
X147318416Y-97094013D01*
X147335388Y-97124920D01*
X147345427Y-97130913D01*
X147375510Y-97138357D01*
X147428389Y-97147106D01*
X147493575Y-97155467D01*
X147505600Y-97156778D01*
X147610297Y-97174888D01*
X147686232Y-97205651D01*
X147736592Y-97251907D01*
X147764564Y-97316497D01*
X147773278Y-97395387D01*
X147761240Y-97485065D01*
X147722151Y-97555486D01*
X147655855Y-97606777D01*
X147562194Y-97639067D01*
X147458223Y-97651807D01*
X147373438Y-97651654D01*
X147304665Y-97640083D01*
X147257697Y-97624109D01*
X147198350Y-97596275D01*
X147143506Y-97563973D01*
X147124013Y-97549755D01*
X147073881Y-97508835D01*
X147194803Y-97386477D01*
X147263543Y-97431967D01*
X147332488Y-97466133D01*
X147406111Y-97484004D01*
X147476883Y-97485889D01*
X147537274Y-97472101D01*
X147579757Y-97442949D01*
X147593474Y-97418352D01*
X147591417Y-97378904D01*
X147557330Y-97348737D01*
X147491308Y-97327906D01*
X147418974Y-97318279D01*
X147307652Y-97299910D01*
X147224952Y-97265254D01*
X147169765Y-97213297D01*
X147140988Y-97143023D01*
X147137001Y-97059707D01*
X147156693Y-96972681D01*
X147201589Y-96906902D01*
X147272091Y-96862068D01*
X147368601Y-96837879D01*
X147440100Y-96833137D01*
X147518628Y-96835547D01*
G37*
X147518628Y-96835547D02*
X147581908Y-96847548D01*
X147647557Y-96872648D01*
X147654572Y-96875848D01*
X147704356Y-96902026D01*
X147738834Y-96926353D01*
X147749978Y-96941937D01*
X147739366Y-96967353D01*
X147713588Y-97004853D01*
X147702146Y-97018852D01*
X147654992Y-97073954D01*
X147594201Y-97038086D01*
X147536347Y-97014192D01*
X147469500Y-97001420D01*
X147405394Y-97000613D01*
X147355764Y-97012615D01*
X147343854Y-97020105D01*
X147321172Y-97054450D01*
X147318416Y-97094013D01*
X147335388Y-97124920D01*
X147345427Y-97130913D01*
X147375510Y-97138357D01*
X147428389Y-97147106D01*
X147493575Y-97155467D01*
X147505600Y-97156778D01*
X147610297Y-97174888D01*
X147686232Y-97205651D01*
X147736592Y-97251907D01*
X147764564Y-97316497D01*
X147773278Y-97395387D01*
X147761240Y-97485065D01*
X147722151Y-97555486D01*
X147655855Y-97606777D01*
X147562194Y-97639067D01*
X147458223Y-97651807D01*
X147373438Y-97651654D01*
X147304665Y-97640083D01*
X147257697Y-97624109D01*
X147198350Y-97596275D01*
X147143506Y-97563973D01*
X147124013Y-97549755D01*
X147073881Y-97508835D01*
X147194803Y-97386477D01*
X147263543Y-97431967D01*
X147332488Y-97466133D01*
X147406111Y-97484004D01*
X147476883Y-97485889D01*
X147537274Y-97472101D01*
X147579757Y-97442949D01*
X147593474Y-97418352D01*
X147591417Y-97378904D01*
X147557330Y-97348737D01*
X147491308Y-97327906D01*
X147418974Y-97318279D01*
X147307652Y-97299910D01*
X147224952Y-97265254D01*
X147169765Y-97213297D01*
X147140988Y-97143023D01*
X147137001Y-97059707D01*
X147156693Y-96972681D01*
X147201589Y-96906902D01*
X147272091Y-96862068D01*
X147368601Y-96837879D01*
X147440100Y-96833137D01*
X147518628Y-96835547D01*
G36*
X148311669Y-96848310D02*
G01*
X148396192Y-96894340D01*
X148462321Y-96967006D01*
X148493478Y-97026106D01*
X148506855Y-97078305D01*
X148515522Y-97152719D01*
X148519237Y-97238442D01*
X148517754Y-97324569D01*
X148510831Y-97400193D01*
X148502745Y-97440584D01*
X148475465Y-97495840D01*
X148428220Y-97554530D01*
X148371282Y-97605852D01*
X148314924Y-97639005D01*
X148313550Y-97639531D01*
X148243616Y-97654018D01*
X148160737Y-97654377D01*
X148081977Y-97641188D01*
X148051566Y-97630617D01*
X147973239Y-97586201D01*
X147917143Y-97528007D01*
X147880286Y-97450965D01*
X147859680Y-97350001D01*
X147855018Y-97297116D01*
X147855613Y-97230663D01*
X148034736Y-97230663D01*
X148040770Y-97327630D01*
X148058138Y-97401523D01*
X148085740Y-97448736D01*
X148105404Y-97462237D01*
X148155787Y-97471651D01*
X148215673Y-97468864D01*
X148267449Y-97455316D01*
X148281027Y-97447862D01*
X148316849Y-97404451D01*
X148340493Y-97338014D01*
X148350558Y-97257161D01*
X148345642Y-97170502D01*
X148334655Y-97118349D01*
X148303109Y-97057951D01*
X148253311Y-97020197D01*
X148193337Y-97007143D01*
X148131264Y-97020849D01*
X148083582Y-97054372D01*
X148058525Y-97082031D01*
X148043900Y-97109294D01*
X148036929Y-97146190D01*
X148034833Y-97202750D01*
X148034736Y-97230663D01*
X147855613Y-97230663D01*
X147856282Y-97155994D01*
X147879265Y-97040271D01*
X147923972Y-96949941D01*
X147990405Y-96885000D01*
X148078565Y-96845445D01*
X148097495Y-96840858D01*
X148211266Y-96830090D01*
X148311669Y-96848310D01*
G37*
X148311669Y-96848310D02*
X148396192Y-96894340D01*
X148462321Y-96967006D01*
X148493478Y-97026106D01*
X148506855Y-97078305D01*
X148515522Y-97152719D01*
X148519237Y-97238442D01*
X148517754Y-97324569D01*
X148510831Y-97400193D01*
X148502745Y-97440584D01*
X148475465Y-97495840D01*
X148428220Y-97554530D01*
X148371282Y-97605852D01*
X148314924Y-97639005D01*
X148313550Y-97639531D01*
X148243616Y-97654018D01*
X148160737Y-97654377D01*
X148081977Y-97641188D01*
X148051566Y-97630617D01*
X147973239Y-97586201D01*
X147917143Y-97528007D01*
X147880286Y-97450965D01*
X147859680Y-97350001D01*
X147855018Y-97297116D01*
X147855613Y-97230663D01*
X148034736Y-97230663D01*
X148040770Y-97327630D01*
X148058138Y-97401523D01*
X148085740Y-97448736D01*
X148105404Y-97462237D01*
X148155787Y-97471651D01*
X148215673Y-97468864D01*
X148267449Y-97455316D01*
X148281027Y-97447862D01*
X148316849Y-97404451D01*
X148340493Y-97338014D01*
X148350558Y-97257161D01*
X148345642Y-97170502D01*
X148334655Y-97118349D01*
X148303109Y-97057951D01*
X148253311Y-97020197D01*
X148193337Y-97007143D01*
X148131264Y-97020849D01*
X148083582Y-97054372D01*
X148058525Y-97082031D01*
X148043900Y-97109294D01*
X148036929Y-97146190D01*
X148034833Y-97202750D01*
X148034736Y-97230663D01*
X147855613Y-97230663D01*
X147856282Y-97155994D01*
X147879265Y-97040271D01*
X147923972Y-96949941D01*
X147990405Y-96885000D01*
X148078565Y-96845445D01*
X148097495Y-96840858D01*
X148211266Y-96830090D01*
X148311669Y-96848310D01*
G36*
X148820131Y-97098533D02*
G01*
X148821710Y-97221089D01*
X148827481Y-97314179D01*
X148838991Y-97381651D01*
X148857790Y-97427355D01*
X148885426Y-97455139D01*
X148923448Y-97468854D01*
X148970526Y-97472358D01*
X149019832Y-97468432D01*
X149057283Y-97454089D01*
X149084428Y-97425478D01*
X149102815Y-97378751D01*
X149113993Y-97310058D01*
X149119511Y-97215550D01*
X149120921Y-97098533D01*
X149120921Y-96838421D01*
X149304736Y-96838421D01*
X149304736Y-97640526D01*
X149212828Y-97640526D01*
X149157422Y-97638281D01*
X149128891Y-97630396D01*
X149120921Y-97615428D01*
X149116120Y-97602097D01*
X149097014Y-97604917D01*
X149058504Y-97623783D01*
X148970239Y-97652887D01*
X148876623Y-97650825D01*
X148786921Y-97619221D01*
X148744204Y-97594257D01*
X148711621Y-97567226D01*
X148687817Y-97533405D01*
X148671439Y-97488068D01*
X148661131Y-97426489D01*
X148655541Y-97343943D01*
X148653312Y-97235705D01*
X148653026Y-97152004D01*
X148653026Y-96838421D01*
X148820131Y-96838421D01*
X148820131Y-97098533D01*
G37*
X148820131Y-97098533D02*
X148821710Y-97221089D01*
X148827481Y-97314179D01*
X148838991Y-97381651D01*
X148857790Y-97427355D01*
X148885426Y-97455139D01*
X148923448Y-97468854D01*
X148970526Y-97472358D01*
X149019832Y-97468432D01*
X149057283Y-97454089D01*
X149084428Y-97425478D01*
X149102815Y-97378751D01*
X149113993Y-97310058D01*
X149119511Y-97215550D01*
X149120921Y-97098533D01*
X149120921Y-96838421D01*
X149304736Y-96838421D01*
X149304736Y-97640526D01*
X149212828Y-97640526D01*
X149157422Y-97638281D01*
X149128891Y-97630396D01*
X149120921Y-97615428D01*
X149116120Y-97602097D01*
X149097014Y-97604917D01*
X149058504Y-97623783D01*
X148970239Y-97652887D01*
X148876623Y-97650825D01*
X148786921Y-97619221D01*
X148744204Y-97594257D01*
X148711621Y-97567226D01*
X148687817Y-97533405D01*
X148671439Y-97488068D01*
X148661131Y-97426489D01*
X148655541Y-97343943D01*
X148653312Y-97235705D01*
X148653026Y-97152004D01*
X148653026Y-96838421D01*
X148820131Y-96838421D01*
X148820131Y-97098533D01*
G36*
X150446576Y-96845419D02*
G01*
X150543395Y-96886549D01*
X150573890Y-96906571D01*
X150612865Y-96937340D01*
X150637331Y-96961533D01*
X150641578Y-96969413D01*
X150629584Y-96986899D01*
X150598887Y-97016570D01*
X150574312Y-97037279D01*
X150507046Y-97091336D01*
X150453930Y-97046642D01*
X150412884Y-97017789D01*
X150372863Y-97007829D01*
X150327059Y-97010261D01*
X150254324Y-97028345D01*
X150204256Y-97065881D01*
X150173829Y-97126562D01*
X150160017Y-97214081D01*
X150160013Y-97214136D01*
X150161208Y-97311958D01*
X150179772Y-97383730D01*
X150216804Y-97432595D01*
X150242050Y-97449143D01*
X150309097Y-97469749D01*
X150380709Y-97469762D01*
X150443015Y-97449768D01*
X150457763Y-97440000D01*
X150494750Y-97415047D01*
X150523668Y-97410958D01*
X150554856Y-97429530D01*
X150589336Y-97462887D01*
X150643912Y-97519196D01*
X150583318Y-97569142D01*
X150489698Y-97625513D01*
X150384125Y-97653293D01*
X150273798Y-97651282D01*
X150201343Y-97632862D01*
X150116656Y-97587310D01*
X150048927Y-97515650D01*
X150018157Y-97465066D01*
X149993236Y-97392488D01*
X149980766Y-97300569D01*
X149980670Y-97200948D01*
X149992870Y-97105267D01*
X150017290Y-97025169D01*
X150021136Y-97016956D01*
X150078093Y-96936413D01*
X150155209Y-96877771D01*
X150246390Y-96842247D01*
X150345543Y-96831057D01*
X150446576Y-96845419D01*
G37*
X150446576Y-96845419D02*
X150543395Y-96886549D01*
X150573890Y-96906571D01*
X150612865Y-96937340D01*
X150637331Y-96961533D01*
X150641578Y-96969413D01*
X150629584Y-96986899D01*
X150598887Y-97016570D01*
X150574312Y-97037279D01*
X150507046Y-97091336D01*
X150453930Y-97046642D01*
X150412884Y-97017789D01*
X150372863Y-97007829D01*
X150327059Y-97010261D01*
X150254324Y-97028345D01*
X150204256Y-97065881D01*
X150173829Y-97126562D01*
X150160017Y-97214081D01*
X150160013Y-97214136D01*
X150161208Y-97311958D01*
X150179772Y-97383730D01*
X150216804Y-97432595D01*
X150242050Y-97449143D01*
X150309097Y-97469749D01*
X150380709Y-97469762D01*
X150443015Y-97449768D01*
X150457763Y-97440000D01*
X150494750Y-97415047D01*
X150523668Y-97410958D01*
X150554856Y-97429530D01*
X150589336Y-97462887D01*
X150643912Y-97519196D01*
X150583318Y-97569142D01*
X150489698Y-97625513D01*
X150384125Y-97653293D01*
X150273798Y-97651282D01*
X150201343Y-97632862D01*
X150116656Y-97587310D01*
X150048927Y-97515650D01*
X150018157Y-97465066D01*
X149993236Y-97392488D01*
X149980766Y-97300569D01*
X149980670Y-97200948D01*
X149992870Y-97105267D01*
X150017290Y-97025169D01*
X150021136Y-97016956D01*
X150078093Y-96936413D01*
X150155209Y-96877771D01*
X150246390Y-96842247D01*
X150345543Y-96831057D01*
X150446576Y-96845419D01*
G36*
X151058784Y-96835554D02*
G01*
X151101574Y-96845949D01*
X151183609Y-96884013D01*
X151253757Y-96942149D01*
X151302305Y-97011852D01*
X151308975Y-97027502D01*
X151318124Y-97068496D01*
X151324529Y-97129138D01*
X151326710Y-97190430D01*
X151326710Y-97306316D01*
X151084407Y-97306316D01*
X150984471Y-97306693D01*
X150914069Y-97308987D01*
X150869313Y-97314938D01*
X150846315Y-97326285D01*
X150841189Y-97344771D01*
X150850048Y-97372136D01*
X150865917Y-97404155D01*
X150910184Y-97457592D01*
X150971699Y-97484215D01*
X151046885Y-97483347D01*
X151132053Y-97454371D01*
X151205659Y-97418611D01*
X151266734Y-97466904D01*
X151327810Y-97515197D01*
X151270351Y-97568285D01*
X151193641Y-97618445D01*
X151099302Y-97648688D01*
X150997827Y-97657151D01*
X150899711Y-97641974D01*
X150883881Y-97636824D01*
X150797647Y-97591791D01*
X150733501Y-97524652D01*
X150690091Y-97433405D01*
X150666064Y-97316044D01*
X150665784Y-97313529D01*
X150663633Y-97185627D01*
X150672329Y-97139997D01*
X150842105Y-97139997D01*
X150857697Y-97147013D01*
X150900029Y-97152388D01*
X150962434Y-97155457D01*
X151001981Y-97155921D01*
X151075728Y-97155630D01*
X151121840Y-97153783D01*
X151146100Y-97148912D01*
X151154294Y-97139555D01*
X151152206Y-97124245D01*
X151150455Y-97118322D01*
X151120560Y-97062668D01*
X151073542Y-97017815D01*
X151032049Y-96998105D01*
X150976926Y-96999295D01*
X150921068Y-97023875D01*
X150874212Y-97064570D01*
X150846094Y-97114108D01*
X150842105Y-97139997D01*
X150672329Y-97139997D01*
X150685074Y-97073133D01*
X150727611Y-96978727D01*
X150788747Y-96905088D01*
X150865985Y-96854893D01*
X150956830Y-96830822D01*
X151058784Y-96835554D01*
G37*
X151058784Y-96835554D02*
X151101574Y-96845949D01*
X151183609Y-96884013D01*
X151253757Y-96942149D01*
X151302305Y-97011852D01*
X151308975Y-97027502D01*
X151318124Y-97068496D01*
X151324529Y-97129138D01*
X151326710Y-97190430D01*
X151326710Y-97306316D01*
X151084407Y-97306316D01*
X150984471Y-97306693D01*
X150914069Y-97308987D01*
X150869313Y-97314938D01*
X150846315Y-97326285D01*
X150841189Y-97344771D01*
X150850048Y-97372136D01*
X150865917Y-97404155D01*
X150910184Y-97457592D01*
X150971699Y-97484215D01*
X151046885Y-97483347D01*
X151132053Y-97454371D01*
X151205659Y-97418611D01*
X151266734Y-97466904D01*
X151327810Y-97515197D01*
X151270351Y-97568285D01*
X151193641Y-97618445D01*
X151099302Y-97648688D01*
X150997827Y-97657151D01*
X150899711Y-97641974D01*
X150883881Y-97636824D01*
X150797647Y-97591791D01*
X150733501Y-97524652D01*
X150690091Y-97433405D01*
X150666064Y-97316044D01*
X150665784Y-97313529D01*
X150663633Y-97185627D01*
X150672329Y-97139997D01*
X150842105Y-97139997D01*
X150857697Y-97147013D01*
X150900029Y-97152388D01*
X150962434Y-97155457D01*
X151001981Y-97155921D01*
X151075728Y-97155630D01*
X151121840Y-97153783D01*
X151146100Y-97148912D01*
X151154294Y-97139555D01*
X151152206Y-97124245D01*
X151150455Y-97118322D01*
X151120560Y-97062668D01*
X151073542Y-97017815D01*
X151032049Y-96998105D01*
X150976926Y-96999295D01*
X150921068Y-97023875D01*
X150874212Y-97064570D01*
X150846094Y-97114108D01*
X150842105Y-97139997D01*
X150672329Y-97139997D01*
X150685074Y-97073133D01*
X150727611Y-96978727D01*
X150788747Y-96905088D01*
X150865985Y-96854893D01*
X150956830Y-96830822D01*
X151058784Y-96835554D01*
G36*
X146497957Y-96852226D02*
G01*
X146539546Y-96872090D01*
X146579825Y-96900784D01*
X146610510Y-96933809D01*
X146632861Y-96975931D01*
X146648136Y-97031915D01*
X146657592Y-97106528D01*
X146662487Y-97204535D01*
X146664081Y-97330702D01*
X146664106Y-97343914D01*
X146664473Y-97640526D01*
X146480657Y-97640526D01*
X146480657Y-97367081D01*
X146480527Y-97265777D01*
X146479621Y-97192353D01*
X146477173Y-97141271D01*
X146472414Y-97106990D01*
X146464574Y-97083971D01*
X146452885Y-97066673D01*
X146436602Y-97049581D01*
X146379634Y-97012857D01*
X146317445Y-97006042D01*
X146258199Y-97029261D01*
X146237595Y-97046543D01*
X146222470Y-97062791D01*
X146211610Y-97080191D01*
X146204310Y-97104212D01*
X146199863Y-97140322D01*
X146197564Y-97193988D01*
X146196704Y-97270680D01*
X146196578Y-97364043D01*
X146196578Y-97640526D01*
X146012763Y-97640526D01*
X146012763Y-96838421D01*
X146104671Y-96838421D01*
X146159851Y-96840603D01*
X146188320Y-96848351D01*
X146196575Y-96863468D01*
X146196578Y-96863916D01*
X146200408Y-96878720D01*
X146217301Y-96877040D01*
X146250888Y-96860773D01*
X146327063Y-96836840D01*
X146414200Y-96834178D01*
X146497957Y-96852226D01*
G37*
X146497957Y-96852226D02*
X146539546Y-96872090D01*
X146579825Y-96900784D01*
X146610510Y-96933809D01*
X146632861Y-96975931D01*
X146648136Y-97031915D01*
X146657592Y-97106528D01*
X146662487Y-97204535D01*
X146664081Y-97330702D01*
X146664106Y-97343914D01*
X146664473Y-97640526D01*
X146480657Y-97640526D01*
X146480657Y-97367081D01*
X146480527Y-97265777D01*
X146479621Y-97192353D01*
X146477173Y-97141271D01*
X146472414Y-97106990D01*
X146464574Y-97083971D01*
X146452885Y-97066673D01*
X146436602Y-97049581D01*
X146379634Y-97012857D01*
X146317445Y-97006042D01*
X146258199Y-97029261D01*
X146237595Y-97046543D01*
X146222470Y-97062791D01*
X146211610Y-97080191D01*
X146204310Y-97104212D01*
X146199863Y-97140322D01*
X146197564Y-97193988D01*
X146196704Y-97270680D01*
X146196578Y-97364043D01*
X146196578Y-97640526D01*
X146012763Y-97640526D01*
X146012763Y-96838421D01*
X146104671Y-96838421D01*
X146159851Y-96840603D01*
X146188320Y-96848351D01*
X146196575Y-96863468D01*
X146196578Y-96863916D01*
X146200408Y-96878720D01*
X146217301Y-96877040D01*
X146250888Y-96860773D01*
X146327063Y-96836840D01*
X146414200Y-96834178D01*
X146497957Y-96852226D01*
G36*
X149891388Y-96837645D02*
G01*
X149948865Y-96855206D01*
X149985872Y-96877395D01*
X149997927Y-96894942D01*
X149994609Y-96915742D01*
X149973079Y-96948419D01*
X149954874Y-96971562D01*
X149917344Y-97013402D01*
X149889148Y-97031005D01*
X149865111Y-97029856D01*
X149793808Y-97011710D01*
X149741442Y-97012534D01*
X149698918Y-97033098D01*
X149684642Y-97045134D01*
X149638947Y-97087483D01*
X149638947Y-97640526D01*
X149455131Y-97640526D01*
X149455131Y-96838421D01*
X149547039Y-96838421D01*
X149602219Y-96840603D01*
X149630688Y-96848351D01*
X149638943Y-96863468D01*
X149638947Y-96863916D01*
X149642845Y-96879749D01*
X149660474Y-96877684D01*
X149684901Y-96866261D01*
X149735350Y-96845005D01*
X149776316Y-96832216D01*
X149829028Y-96828938D01*
X149891388Y-96837645D01*
G37*
X149891388Y-96837645D02*
X149948865Y-96855206D01*
X149985872Y-96877395D01*
X149997927Y-96894942D01*
X149994609Y-96915742D01*
X149973079Y-96948419D01*
X149954874Y-96971562D01*
X149917344Y-97013402D01*
X149889148Y-97031005D01*
X149865111Y-97029856D01*
X149793808Y-97011710D01*
X149741442Y-97012534D01*
X149698918Y-97033098D01*
X149684642Y-97045134D01*
X149638947Y-97087483D01*
X149638947Y-97640526D01*
X149455131Y-97640526D01*
X149455131Y-96838421D01*
X149547039Y-96838421D01*
X149602219Y-96840603D01*
X149630688Y-96848351D01*
X149638943Y-96863468D01*
X149638947Y-96863916D01*
X149642845Y-96879749D01*
X149660474Y-96877684D01*
X149684901Y-96866261D01*
X149735350Y-96845005D01*
X149776316Y-96832216D01*
X149829028Y-96828938D01*
X149891388Y-96837645D01*
G36*
X148000964Y-91298576D02*
G01*
X148076513Y-91699322D01*
X148634041Y-91929154D01*
X148968465Y-91701748D01*
X149062122Y-91638431D01*
X149146782Y-91581896D01*
X149218495Y-91534727D01*
X149273311Y-91499502D01*
X149307280Y-91478805D01*
X149316530Y-91474342D01*
X149333195Y-91485820D01*
X149368806Y-91517551D01*
X149419371Y-91565483D01*
X149480900Y-91625562D01*
X149549399Y-91693733D01*
X149620879Y-91765945D01*
X149691347Y-91838142D01*
X149756811Y-91906273D01*
X149813280Y-91966283D01*
X149856763Y-92014119D01*
X149883268Y-92045727D01*
X149889605Y-92056305D01*
X149880486Y-92075806D01*
X149854920Y-92118531D01*
X149815597Y-92180298D01*
X149765203Y-92256931D01*
X149706427Y-92344248D01*
X149672368Y-92394052D01*
X149610289Y-92484993D01*
X149555126Y-92567059D01*
X149509554Y-92636163D01*
X149476250Y-92688222D01*
X149457890Y-92719150D01*
X149455131Y-92725650D01*
X149461385Y-92744121D01*
X149478434Y-92787172D01*
X149503703Y-92848749D01*
X149534622Y-92922799D01*
X149568618Y-93003270D01*
X149603118Y-93084107D01*
X149635551Y-93159258D01*
X149663343Y-93222671D01*
X149683923Y-93268293D01*
X149694719Y-93290069D01*
X149695356Y-93290926D01*
X149712307Y-93295084D01*
X149757451Y-93304361D01*
X149826110Y-93317844D01*
X149913602Y-93334621D01*
X150015250Y-93353781D01*
X150074556Y-93364830D01*
X150183172Y-93385510D01*
X150281277Y-93405189D01*
X150363909Y-93422789D01*
X150426104Y-93437233D01*
X150462899Y-93447446D01*
X150470296Y-93450686D01*
X150477540Y-93472617D01*
X150483385Y-93522147D01*
X150487835Y-93593485D01*
X150490893Y-93680839D01*
X150492565Y-93778417D01*
X150492853Y-93880426D01*
X150491761Y-93981075D01*
X150489294Y-94074572D01*
X150485456Y-94155125D01*
X150480250Y-94216942D01*
X150473681Y-94254230D01*
X150469741Y-94261993D01*
X150446188Y-94271298D01*
X150396282Y-94284600D01*
X150326623Y-94300337D01*
X150243813Y-94316946D01*
X150214905Y-94322319D01*
X150075531Y-94347848D01*
X149965436Y-94368408D01*
X149880982Y-94384815D01*
X149818530Y-94397887D01*
X149774444Y-94408441D01*
X149745085Y-94417294D01*
X149726815Y-94425263D01*
X149715998Y-94433165D01*
X149714485Y-94434727D01*
X149699377Y-94459886D01*
X149676329Y-94508850D01*
X149647644Y-94575621D01*
X149615622Y-94654205D01*
X149582565Y-94738607D01*
X149550773Y-94822830D01*
X149522549Y-94900879D01*
X149500193Y-94966759D01*
X149486007Y-95014473D01*
X149482293Y-95038027D01*
X149482602Y-95038852D01*
X149495189Y-95058104D01*
X149523744Y-95100463D01*
X149565267Y-95161521D01*
X149616756Y-95236868D01*
X149675211Y-95322096D01*
X149691858Y-95346315D01*
X149751215Y-95434123D01*
X149803447Y-95514238D01*
X149845708Y-95582062D01*
X149875153Y-95632993D01*
X149888937Y-95662431D01*
X149889605Y-95666048D01*
X149878024Y-95685057D01*
X149846024Y-95722714D01*
X149797718Y-95774973D01*
X149737220Y-95837786D01*
X149668644Y-95907106D01*
X149596104Y-95978885D01*
X149523712Y-96049077D01*
X149455584Y-96113635D01*
X149395832Y-96168510D01*
X149348571Y-96209656D01*
X149317913Y-96233026D01*
X149309432Y-96236842D01*
X149289691Y-96227855D01*
X149249274Y-96203616D01*
X149194763Y-96168209D01*
X149152823Y-96139711D01*
X149076829Y-96087418D01*
X148986834Y-96025845D01*
X148896564Y-95964370D01*
X148848032Y-95931469D01*
X148683762Y-95820359D01*
X148545869Y-95894916D01*
X148483049Y-95927578D01*
X148429629Y-95952966D01*
X148393484Y-95967446D01*
X148384284Y-95969460D01*
X148373221Y-95954584D01*
X148351394Y-95912547D01*
X148320434Y-95847227D01*
X148281970Y-95762500D01*
X148237632Y-95662245D01*
X148189047Y-95550339D01*
X148137846Y-95430659D01*
X148085659Y-95307084D01*
X148034113Y-95183491D01*
X147984840Y-95063757D01*
X147939467Y-94951759D01*
X147899625Y-94851377D01*
X147866942Y-94766486D01*
X147843049Y-94700965D01*
X147829574Y-94658690D01*
X147827406Y-94644172D01*
X147844583Y-94625653D01*
X147882190Y-94595590D01*
X147932366Y-94560232D01*
X147936578Y-94557434D01*
X148066264Y-94453625D01*
X148170834Y-94332515D01*
X148249381Y-94197976D01*
X148300999Y-94053882D01*
X148324782Y-93904105D01*
X148319823Y-93752517D01*
X148285217Y-93602992D01*
X148220057Y-93459400D01*
X148200886Y-93427984D01*
X148101174Y-93301125D01*
X147983377Y-93199255D01*
X147851571Y-93122904D01*
X147709833Y-93072602D01*
X147562242Y-93048879D01*
X147412873Y-93052265D01*
X147265803Y-93083288D01*
X147125111Y-93142480D01*
X146994873Y-93230369D01*
X146954586Y-93266042D01*
X146852055Y-93377706D01*
X146777341Y-93495257D01*
X146726090Y-93627020D01*
X146697546Y-93757507D01*
X146690500Y-93904216D01*
X146713996Y-94051653D01*
X146765649Y-94194834D01*
X146843071Y-94328777D01*
X146943875Y-94448498D01*
X147065676Y-94549014D01*
X147081684Y-94559609D01*
X147132398Y-94594306D01*
X147170950Y-94624370D01*
X147189381Y-94643565D01*
X147189649Y-94644172D01*
X147185692Y-94664936D01*
X147170007Y-94712062D01*
X147144222Y-94781673D01*
X147109969Y-94869893D01*
X147068877Y-94972844D01*
X147022576Y-95086650D01*
X146972696Y-95207435D01*
X146920867Y-95331321D01*
X146868719Y-95454432D01*
X146817882Y-95572891D01*
X146769987Y-95682823D01*
X146726662Y-95780349D01*
X146689538Y-95861593D01*
X146660244Y-95922679D01*
X146640412Y-95959730D01*
X146632426Y-95969460D01*
X146608021Y-95961883D01*
X146562358Y-95941560D01*
X146503310Y-95912125D01*
X146470840Y-95894916D01*
X146332947Y-95820359D01*
X146168677Y-95931469D01*
X146084821Y-95988390D01*
X145993013Y-96051030D01*
X145906980Y-96110011D01*
X145863887Y-96139711D01*
X145803277Y-96180410D01*
X145751955Y-96212663D01*
X145716615Y-96232384D01*
X145705137Y-96236554D01*
X145688430Y-96225307D01*
X145651454Y-96193911D01*
X145597795Y-96145624D01*
X145531038Y-96083708D01*
X145454766Y-96011421D01*
X145406527Y-95965008D01*
X145322133Y-95882087D01*
X145249197Y-95807920D01*
X145190669Y-95745680D01*
X145149497Y-95698541D01*
X145128628Y-95669673D01*
X145126626Y-95663815D01*
X145135917Y-95641532D01*
X145161591Y-95596477D01*
X145200800Y-95533211D01*
X145250697Y-95456295D01*
X145308433Y-95370292D01*
X145324851Y-95346315D01*
X145384677Y-95259170D01*
X145438350Y-95180710D01*
X145482870Y-95115345D01*
X145515235Y-95067484D01*
X145532445Y-95041535D01*
X145534107Y-95038852D01*
X145531621Y-95018172D01*
X145518423Y-94972704D01*
X145496814Y-94908444D01*
X145469096Y-94831387D01*
X145437570Y-94747529D01*
X145404537Y-94662866D01*
X145372299Y-94583392D01*
X145343157Y-94515104D01*
X145319412Y-94463997D01*
X145303365Y-94436067D01*
X145302225Y-94434727D01*
X145292412Y-94426745D01*
X145275839Y-94418851D01*
X145248868Y-94410229D01*
X145207861Y-94400062D01*
X145149180Y-94387531D01*
X145069187Y-94371821D01*
X144964245Y-94352113D01*
X144830715Y-94327592D01*
X144801804Y-94322319D01*
X144716118Y-94305764D01*
X144641418Y-94289569D01*
X144584306Y-94275296D01*
X144551383Y-94264508D01*
X144546969Y-94261993D01*
X144539694Y-94239696D01*
X144533781Y-94189869D01*
X144529234Y-94118304D01*
X144526055Y-94030793D01*
X144524251Y-93933128D01*
X144523823Y-93831101D01*
X144524777Y-93730503D01*
X144527116Y-93637127D01*
X144530844Y-93556765D01*
X144535966Y-93495209D01*
X144542484Y-93458250D01*
X144546414Y-93450686D01*
X144568292Y-93443056D01*
X144618109Y-93430642D01*
X144690903Y-93414522D01*
X144781711Y-93395773D01*
X144885569Y-93375471D01*
X144942154Y-93364830D01*
X145049514Y-93344760D01*
X145145254Y-93326580D01*
X145224694Y-93311199D01*
X145283154Y-93299531D01*
X145315955Y-93292488D01*
X145321354Y-93290926D01*
X145330478Y-93273322D01*
X145349765Y-93230918D01*
X145376645Y-93169772D01*
X145408546Y-93095943D01*
X145442898Y-93015489D01*
X145477129Y-92934468D01*
X145508669Y-92858937D01*
X145534946Y-92794955D01*
X145553389Y-92748580D01*
X145561429Y-92725869D01*
X145561578Y-92724876D01*
X145552465Y-92706961D01*
X145526914Y-92665733D01*
X145487612Y-92605291D01*
X145437243Y-92529731D01*
X145378494Y-92443152D01*
X145344342Y-92393421D01*
X145282110Y-92302236D01*
X145226836Y-92219449D01*
X145181218Y-92149249D01*
X145147952Y-92095824D01*
X145129736Y-92063361D01*
X145127105Y-92056083D01*
X145138414Y-92039145D01*
X145169681Y-92002978D01*
X145216910Y-91951635D01*
X145276108Y-91889167D01*
X145343281Y-91819626D01*
X145414434Y-91747065D01*
X145485574Y-91675535D01*
X145552707Y-91609087D01*
X145611839Y-91551774D01*
X145658975Y-91507647D01*
X145690123Y-91480759D01*
X145700543Y-91474342D01*
X145717509Y-91483365D01*
X145758089Y-91508715D01*
X145818337Y-91547810D01*
X145894307Y-91598071D01*
X145982054Y-91656917D01*
X146048244Y-91701748D01*
X146382668Y-91929154D01*
X146661433Y-91814238D01*
X146940197Y-91699322D01*
X147015746Y-91298576D01*
X147091294Y-90897829D01*
X147925415Y-90897829D01*
X148000964Y-91298576D01*
G37*
X148000964Y-91298576D02*
X148076513Y-91699322D01*
X148634041Y-91929154D01*
X148968465Y-91701748D01*
X149062122Y-91638431D01*
X149146782Y-91581896D01*
X149218495Y-91534727D01*
X149273311Y-91499502D01*
X149307280Y-91478805D01*
X149316530Y-91474342D01*
X149333195Y-91485820D01*
X149368806Y-91517551D01*
X149419371Y-91565483D01*
X149480900Y-91625562D01*
X149549399Y-91693733D01*
X149620879Y-91765945D01*
X149691347Y-91838142D01*
X149756811Y-91906273D01*
X149813280Y-91966283D01*
X149856763Y-92014119D01*
X149883268Y-92045727D01*
X149889605Y-92056305D01*
X149880486Y-92075806D01*
X149854920Y-92118531D01*
X149815597Y-92180298D01*
X149765203Y-92256931D01*
X149706427Y-92344248D01*
X149672368Y-92394052D01*
X149610289Y-92484993D01*
X149555126Y-92567059D01*
X149509554Y-92636163D01*
X149476250Y-92688222D01*
X149457890Y-92719150D01*
X149455131Y-92725650D01*
X149461385Y-92744121D01*
X149478434Y-92787172D01*
X149503703Y-92848749D01*
X149534622Y-92922799D01*
X149568618Y-93003270D01*
X149603118Y-93084107D01*
X149635551Y-93159258D01*
X149663343Y-93222671D01*
X149683923Y-93268293D01*
X149694719Y-93290069D01*
X149695356Y-93290926D01*
X149712307Y-93295084D01*
X149757451Y-93304361D01*
X149826110Y-93317844D01*
X149913602Y-93334621D01*
X150015250Y-93353781D01*
X150074556Y-93364830D01*
X150183172Y-93385510D01*
X150281277Y-93405189D01*
X150363909Y-93422789D01*
X150426104Y-93437233D01*
X150462899Y-93447446D01*
X150470296Y-93450686D01*
X150477540Y-93472617D01*
X150483385Y-93522147D01*
X150487835Y-93593485D01*
X150490893Y-93680839D01*
X150492565Y-93778417D01*
X150492853Y-93880426D01*
X150491761Y-93981075D01*
X150489294Y-94074572D01*
X150485456Y-94155125D01*
X150480250Y-94216942D01*
X150473681Y-94254230D01*
X150469741Y-94261993D01*
X150446188Y-94271298D01*
X150396282Y-94284600D01*
X150326623Y-94300337D01*
X150243813Y-94316946D01*
X150214905Y-94322319D01*
X150075531Y-94347848D01*
X149965436Y-94368408D01*
X149880982Y-94384815D01*
X149818530Y-94397887D01*
X149774444Y-94408441D01*
X149745085Y-94417294D01*
X149726815Y-94425263D01*
X149715998Y-94433165D01*
X149714485Y-94434727D01*
X149699377Y-94459886D01*
X149676329Y-94508850D01*
X149647644Y-94575621D01*
X149615622Y-94654205D01*
X149582565Y-94738607D01*
X149550773Y-94822830D01*
X149522549Y-94900879D01*
X149500193Y-94966759D01*
X149486007Y-95014473D01*
X149482293Y-95038027D01*
X149482602Y-95038852D01*
X149495189Y-95058104D01*
X149523744Y-95100463D01*
X149565267Y-95161521D01*
X149616756Y-95236868D01*
X149675211Y-95322096D01*
X149691858Y-95346315D01*
X149751215Y-95434123D01*
X149803447Y-95514238D01*
X149845708Y-95582062D01*
X149875153Y-95632993D01*
X149888937Y-95662431D01*
X149889605Y-95666048D01*
X149878024Y-95685057D01*
X149846024Y-95722714D01*
X149797718Y-95774973D01*
X149737220Y-95837786D01*
X149668644Y-95907106D01*
X149596104Y-95978885D01*
X149523712Y-96049077D01*
X149455584Y-96113635D01*
X149395832Y-96168510D01*
X149348571Y-96209656D01*
X149317913Y-96233026D01*
X149309432Y-96236842D01*
X149289691Y-96227855D01*
X149249274Y-96203616D01*
X149194763Y-96168209D01*
X149152823Y-96139711D01*
X149076829Y-96087418D01*
X148986834Y-96025845D01*
X148896564Y-95964370D01*
X148848032Y-95931469D01*
X148683762Y-95820359D01*
X148545869Y-95894916D01*
X148483049Y-95927578D01*
X148429629Y-95952966D01*
X148393484Y-95967446D01*
X148384284Y-95969460D01*
X148373221Y-95954584D01*
X148351394Y-95912547D01*
X148320434Y-95847227D01*
X148281970Y-95762500D01*
X148237632Y-95662245D01*
X148189047Y-95550339D01*
X148137846Y-95430659D01*
X148085659Y-95307084D01*
X148034113Y-95183491D01*
X147984840Y-95063757D01*
X147939467Y-94951759D01*
X147899625Y-94851377D01*
X147866942Y-94766486D01*
X147843049Y-94700965D01*
X147829574Y-94658690D01*
X147827406Y-94644172D01*
X147844583Y-94625653D01*
X147882190Y-94595590D01*
X147932366Y-94560232D01*
X147936578Y-94557434D01*
X148066264Y-94453625D01*
X148170834Y-94332515D01*
X148249381Y-94197976D01*
X148300999Y-94053882D01*
X148324782Y-93904105D01*
X148319823Y-93752517D01*
X148285217Y-93602992D01*
X148220057Y-93459400D01*
X148200886Y-93427984D01*
X148101174Y-93301125D01*
X147983377Y-93199255D01*
X147851571Y-93122904D01*
X147709833Y-93072602D01*
X147562242Y-93048879D01*
X147412873Y-93052265D01*
X147265803Y-93083288D01*
X147125111Y-93142480D01*
X146994873Y-93230369D01*
X146954586Y-93266042D01*
X146852055Y-93377706D01*
X146777341Y-93495257D01*
X146726090Y-93627020D01*
X146697546Y-93757507D01*
X146690500Y-93904216D01*
X146713996Y-94051653D01*
X146765649Y-94194834D01*
X146843071Y-94328777D01*
X146943875Y-94448498D01*
X147065676Y-94549014D01*
X147081684Y-94559609D01*
X147132398Y-94594306D01*
X147170950Y-94624370D01*
X147189381Y-94643565D01*
X147189649Y-94644172D01*
X147185692Y-94664936D01*
X147170007Y-94712062D01*
X147144222Y-94781673D01*
X147109969Y-94869893D01*
X147068877Y-94972844D01*
X147022576Y-95086650D01*
X146972696Y-95207435D01*
X146920867Y-95331321D01*
X146868719Y-95454432D01*
X146817882Y-95572891D01*
X146769987Y-95682823D01*
X146726662Y-95780349D01*
X146689538Y-95861593D01*
X146660244Y-95922679D01*
X146640412Y-95959730D01*
X146632426Y-95969460D01*
X146608021Y-95961883D01*
X146562358Y-95941560D01*
X146503310Y-95912125D01*
X146470840Y-95894916D01*
X146332947Y-95820359D01*
X146168677Y-95931469D01*
X146084821Y-95988390D01*
X145993013Y-96051030D01*
X145906980Y-96110011D01*
X145863887Y-96139711D01*
X145803277Y-96180410D01*
X145751955Y-96212663D01*
X145716615Y-96232384D01*
X145705137Y-96236554D01*
X145688430Y-96225307D01*
X145651454Y-96193911D01*
X145597795Y-96145624D01*
X145531038Y-96083708D01*
X145454766Y-96011421D01*
X145406527Y-95965008D01*
X145322133Y-95882087D01*
X145249197Y-95807920D01*
X145190669Y-95745680D01*
X145149497Y-95698541D01*
X145128628Y-95669673D01*
X145126626Y-95663815D01*
X145135917Y-95641532D01*
X145161591Y-95596477D01*
X145200800Y-95533211D01*
X145250697Y-95456295D01*
X145308433Y-95370292D01*
X145324851Y-95346315D01*
X145384677Y-95259170D01*
X145438350Y-95180710D01*
X145482870Y-95115345D01*
X145515235Y-95067484D01*
X145532445Y-95041535D01*
X145534107Y-95038852D01*
X145531621Y-95018172D01*
X145518423Y-94972704D01*
X145496814Y-94908444D01*
X145469096Y-94831387D01*
X145437570Y-94747529D01*
X145404537Y-94662866D01*
X145372299Y-94583392D01*
X145343157Y-94515104D01*
X145319412Y-94463997D01*
X145303365Y-94436067D01*
X145302225Y-94434727D01*
X145292412Y-94426745D01*
X145275839Y-94418851D01*
X145248868Y-94410229D01*
X145207861Y-94400062D01*
X145149180Y-94387531D01*
X145069187Y-94371821D01*
X144964245Y-94352113D01*
X144830715Y-94327592D01*
X144801804Y-94322319D01*
X144716118Y-94305764D01*
X144641418Y-94289569D01*
X144584306Y-94275296D01*
X144551383Y-94264508D01*
X144546969Y-94261993D01*
X144539694Y-94239696D01*
X144533781Y-94189869D01*
X144529234Y-94118304D01*
X144526055Y-94030793D01*
X144524251Y-93933128D01*
X144523823Y-93831101D01*
X144524777Y-93730503D01*
X144527116Y-93637127D01*
X144530844Y-93556765D01*
X144535966Y-93495209D01*
X144542484Y-93458250D01*
X144546414Y-93450686D01*
X144568292Y-93443056D01*
X144618109Y-93430642D01*
X144690903Y-93414522D01*
X144781711Y-93395773D01*
X144885569Y-93375471D01*
X144942154Y-93364830D01*
X145049514Y-93344760D01*
X145145254Y-93326580D01*
X145224694Y-93311199D01*
X145283154Y-93299531D01*
X145315955Y-93292488D01*
X145321354Y-93290926D01*
X145330478Y-93273322D01*
X145349765Y-93230918D01*
X145376645Y-93169772D01*
X145408546Y-93095943D01*
X145442898Y-93015489D01*
X145477129Y-92934468D01*
X145508669Y-92858937D01*
X145534946Y-92794955D01*
X145553389Y-92748580D01*
X145561429Y-92725869D01*
X145561578Y-92724876D01*
X145552465Y-92706961D01*
X145526914Y-92665733D01*
X145487612Y-92605291D01*
X145437243Y-92529731D01*
X145378494Y-92443152D01*
X145344342Y-92393421D01*
X145282110Y-92302236D01*
X145226836Y-92219449D01*
X145181218Y-92149249D01*
X145147952Y-92095824D01*
X145129736Y-92063361D01*
X145127105Y-92056083D01*
X145138414Y-92039145D01*
X145169681Y-92002978D01*
X145216910Y-91951635D01*
X145276108Y-91889167D01*
X145343281Y-91819626D01*
X145414434Y-91747065D01*
X145485574Y-91675535D01*
X145552707Y-91609087D01*
X145611839Y-91551774D01*
X145658975Y-91507647D01*
X145690123Y-91480759D01*
X145700543Y-91474342D01*
X145717509Y-91483365D01*
X145758089Y-91508715D01*
X145818337Y-91547810D01*
X145894307Y-91598071D01*
X145982054Y-91656917D01*
X146048244Y-91701748D01*
X146382668Y-91929154D01*
X146661433Y-91814238D01*
X146940197Y-91699322D01*
X147015746Y-91298576D01*
X147091294Y-90897829D01*
X147925415Y-90897829D01*
X148000964Y-91298576D01*
G36*
X139299599Y-85061525D02*
G01*
X139325108Y-85130789D01*
X139347951Y-85246661D01*
X139364148Y-85390195D01*
X139369560Y-85505916D01*
X139376974Y-85609987D01*
X139409601Y-85654616D01*
X139489576Y-85664970D01*
X139509583Y-85665132D01*
X139657475Y-85672695D01*
X139798216Y-85691415D01*
X139907850Y-85716793D01*
X139962422Y-85744332D01*
X139964666Y-85750575D01*
X139926030Y-85770538D01*
X139824423Y-85792362D01*
X139681300Y-85811514D01*
X139671762Y-85812488D01*
X139378857Y-85841904D01*
X139348904Y-86060202D01*
X139325776Y-86202783D01*
X139300544Y-86320594D01*
X139288864Y-86360045D01*
X139264616Y-86411491D01*
X139245833Y-86388976D01*
X139231300Y-86338878D01*
X139214134Y-86232579D01*
X139204186Y-86089860D01*
X139203244Y-86039794D01*
X139203732Y-85952449D01*
X139196259Y-85893790D01*
X139166494Y-85855394D01*
X139100111Y-85828837D01*
X138982779Y-85805693D01*
X138800170Y-85777540D01*
X138742038Y-85768639D01*
X138636003Y-85741015D01*
X138608496Y-85709126D01*
X138654333Y-85681376D01*
X138768328Y-85666167D01*
X138805791Y-85665314D01*
X138950060Y-85655998D01*
X139064780Y-85639327D01*
X139135818Y-85619319D01*
X139177000Y-85580647D01*
X139200397Y-85501343D01*
X139217966Y-85360559D01*
X139237089Y-85216548D01*
X139259354Y-85104399D01*
X139275407Y-85057815D01*
X139299599Y-85061525D01*
G37*
X139299599Y-85061525D02*
X139325108Y-85130789D01*
X139347951Y-85246661D01*
X139364148Y-85390195D01*
X139369560Y-85505916D01*
X139376974Y-85609987D01*
X139409601Y-85654616D01*
X139489576Y-85664970D01*
X139509583Y-85665132D01*
X139657475Y-85672695D01*
X139798216Y-85691415D01*
X139907850Y-85716793D01*
X139962422Y-85744332D01*
X139964666Y-85750575D01*
X139926030Y-85770538D01*
X139824423Y-85792362D01*
X139681300Y-85811514D01*
X139671762Y-85812488D01*
X139378857Y-85841904D01*
X139348904Y-86060202D01*
X139325776Y-86202783D01*
X139300544Y-86320594D01*
X139288864Y-86360045D01*
X139264616Y-86411491D01*
X139245833Y-86388976D01*
X139231300Y-86338878D01*
X139214134Y-86232579D01*
X139204186Y-86089860D01*
X139203244Y-86039794D01*
X139203732Y-85952449D01*
X139196259Y-85893790D01*
X139166494Y-85855394D01*
X139100111Y-85828837D01*
X138982779Y-85805693D01*
X138800170Y-85777540D01*
X138742038Y-85768639D01*
X138636003Y-85741015D01*
X138608496Y-85709126D01*
X138654333Y-85681376D01*
X138768328Y-85666167D01*
X138805791Y-85665314D01*
X138950060Y-85655998D01*
X139064780Y-85639327D01*
X139135818Y-85619319D01*
X139177000Y-85580647D01*
X139200397Y-85501343D01*
X139217966Y-85360559D01*
X139237089Y-85216548D01*
X139259354Y-85104399D01*
X139275407Y-85057815D01*
X139299599Y-85061525D01*
G36*
X140726666Y-79399333D02*
G01*
X139388981Y-79399333D01*
X139006005Y-79399876D01*
X138698350Y-79401790D01*
X138456675Y-79405500D01*
X138271641Y-79411431D01*
X138133905Y-79420009D01*
X138034128Y-79431658D01*
X137962968Y-79446804D01*
X137911086Y-79465873D01*
X137909319Y-79466705D01*
X137778689Y-79570426D01*
X137705559Y-79716380D01*
X137692357Y-79882493D01*
X137741511Y-80046688D01*
X137832356Y-80166600D01*
X137866108Y-80196500D01*
X137903089Y-80220001D01*
X137953559Y-80238097D01*
X138027778Y-80251780D01*
X138136006Y-80262045D01*
X138288503Y-80269884D01*
X138495531Y-80276292D01*
X138767347Y-80282261D01*
X139089577Y-80288333D01*
X139431912Y-80294843D01*
X139700553Y-80300977D01*
X139906459Y-80307773D01*
X140060591Y-80316273D01*
X140173908Y-80327514D01*
X140257371Y-80342536D01*
X140321939Y-80362379D01*
X140378574Y-80388082D01*
X140428694Y-80415333D01*
X140640513Y-80580063D01*
X140789864Y-80798774D01*
X140873720Y-81065153D01*
X140889052Y-81372888D01*
X140888929Y-81374877D01*
X140881319Y-81500133D01*
X140876731Y-81582139D01*
X140876054Y-81600724D01*
X140912504Y-81585566D01*
X141007868Y-81545499D01*
X141143060Y-81488546D01*
X141172387Y-81476177D01*
X141467500Y-81351687D01*
X141484394Y-79399333D01*
X142123666Y-79399333D01*
X142123666Y-80048444D01*
X142125418Y-80274796D01*
X142130249Y-80470543D01*
X142137519Y-80620363D01*
X142146591Y-80708932D01*
X142151888Y-80725777D01*
X142202421Y-80736248D01*
X142321219Y-80745246D01*
X142491881Y-80751954D01*
X142698009Y-80755553D01*
X142755138Y-80755878D01*
X143004135Y-80754097D01*
X143212191Y-80744801D01*
X143407641Y-80724794D01*
X143618817Y-80690881D01*
X143874051Y-80639864D01*
X143974793Y-80618294D01*
X144219196Y-80564794D01*
X144393916Y-80523670D01*
X144512127Y-80489895D01*
X144587007Y-80458444D01*
X144631729Y-80424290D01*
X144659470Y-80382407D01*
X144673293Y-80351833D01*
X144716681Y-80168629D01*
X144716302Y-79958183D01*
X144673796Y-79763760D01*
X144648833Y-79706665D01*
X144561345Y-79595818D01*
X144436591Y-79498849D01*
X144410480Y-79484415D01*
X144353066Y-79457963D01*
X144289908Y-79437613D01*
X144209591Y-79422575D01*
X144100699Y-79412056D01*
X143951813Y-79405264D01*
X143751519Y-79401408D01*
X143488398Y-79399695D01*
X143183686Y-79399333D01*
X142123666Y-79399333D01*
X141484394Y-79399333D01*
X141489890Y-78764333D01*
X142899761Y-78764333D01*
X143322849Y-78765027D01*
X143670831Y-78767909D01*
X143953263Y-78774173D01*
X144179698Y-78785018D01*
X144359693Y-78801639D01*
X144502802Y-78825234D01*
X144618580Y-78857000D01*
X144716582Y-78898132D01*
X144806363Y-78949827D01*
X144897478Y-79013283D01*
X144899524Y-79014786D01*
X145018949Y-79126619D01*
X145136991Y-79274854D01*
X145193472Y-79365439D01*
X145258282Y-79498982D01*
X145298643Y-79628650D01*
X145321904Y-79785649D01*
X145333545Y-79960250D01*
X145341405Y-80132661D01*
X145355289Y-80244223D01*
X145390402Y-80305224D01*
X145461951Y-80325952D01*
X145585145Y-80316696D01*
X145775188Y-80287743D01*
X145809761Y-80282434D01*
X146130355Y-80233643D01*
X146168757Y-80130672D01*
X146819000Y-80130672D01*
X146979583Y-80104135D01*
X147116525Y-80085861D01*
X147236436Y-80076674D01*
X147246000Y-80076484D01*
X147359709Y-80065305D01*
X147415611Y-80025333D01*
X147419030Y-79942352D01*
X147375292Y-79802147D01*
X147361850Y-79767251D01*
X147282392Y-79606107D01*
X147199157Y-79510116D01*
X147119773Y-79486062D01*
X147074473Y-79511593D01*
X147042722Y-79566755D01*
X146992657Y-79678508D01*
X146934556Y-79823749D01*
X146928735Y-79839134D01*
X146819000Y-80130672D01*
X146168757Y-80130672D01*
X146331726Y-79693690D01*
X146443590Y-79411750D01*
X146546289Y-79202113D01*
X146650137Y-79054687D01*
X146765450Y-78959379D01*
X146902540Y-78906095D01*
X147071724Y-78884745D01*
X147160376Y-78882866D01*
X147412694Y-78911542D01*
X147609490Y-78995796D01*
X147731185Y-79113341D01*
X147777331Y-79196866D01*
X147840592Y-79334194D01*
X147909271Y-79499514D01*
X147927954Y-79547500D01*
X147990640Y-79705563D01*
X148045098Y-79832957D01*
X148082339Y-79908999D01*
X148089738Y-79919756D01*
X148143275Y-79929436D01*
X148260005Y-79927315D01*
X148419395Y-79914178D01*
X148508385Y-79903760D01*
X148895026Y-79854176D01*
X149018898Y-79637338D01*
X149239513Y-79333737D01*
X149516616Y-79089572D01*
X149840327Y-78911845D01*
X150185358Y-78810309D01*
X150299480Y-78797232D01*
X150482720Y-78785602D01*
X150719535Y-78775976D01*
X150994379Y-78768912D01*
X151291709Y-78764970D01*
X151465941Y-78764333D01*
X152495333Y-78764333D01*
X152495333Y-79399333D01*
X151465850Y-79399333D01*
X151081794Y-79401213D01*
X150771721Y-79407996D01*
X150525008Y-79421393D01*
X150331032Y-79443115D01*
X150179168Y-79474874D01*
X150058795Y-79518383D01*
X149959287Y-79575352D01*
X149870023Y-79647493D01*
X149858334Y-79658340D01*
X149722500Y-79786029D01*
X150061166Y-79761480D01*
X150340890Y-79742513D01*
X150683789Y-79721337D01*
X151068436Y-79699133D01*
X151473408Y-79677080D01*
X151877281Y-79656361D01*
X152258628Y-79638154D01*
X152463583Y-79629103D01*
X153130333Y-79600742D01*
X153130333Y-78764333D01*
X156347666Y-78764333D01*
X156347666Y-79399333D01*
X153765333Y-79399333D01*
X153765333Y-79597984D01*
X155172916Y-79625095D01*
X155696634Y-79636631D01*
X156143809Y-79649879D01*
X156522555Y-79665427D01*
X156840988Y-79683865D01*
X157107224Y-79705782D01*
X157329377Y-79731766D01*
X157515564Y-79762406D01*
X157673899Y-79798291D01*
X157715030Y-79809553D01*
X157977500Y-79884301D01*
X157787000Y-79913846D01*
X157670549Y-79925528D01*
X157493293Y-79935640D01*
X157279091Y-79943117D01*
X157051800Y-79946893D01*
X157046166Y-79946931D01*
X156801122Y-79950641D01*
X156489732Y-79958643D01*
X156130167Y-79970220D01*
X155740599Y-79984653D01*
X155339199Y-80001222D01*
X154944139Y-80019210D01*
X154573591Y-80037898D01*
X154245726Y-80056568D01*
X154196988Y-80059597D01*
X154001466Y-80072953D01*
X153875858Y-80086062D01*
X153805522Y-80102990D01*
X153775815Y-80127802D01*
X153772094Y-80164563D01*
X153773655Y-80177127D01*
X153779323Y-80203213D01*
X153794169Y-80223802D01*
X153827407Y-80239651D01*
X153888248Y-80251520D01*
X153985904Y-80260168D01*
X154129589Y-80266351D01*
X154328514Y-80270830D01*
X154591892Y-80274363D01*
X154928935Y-80277708D01*
X155003583Y-80278399D01*
X156220666Y-80289631D01*
X156220666Y-80796333D01*
X153765333Y-80796333D01*
X153765333Y-81727666D01*
X156347666Y-81727666D01*
X156347666Y-82362666D01*
X153130333Y-82362666D01*
X153130333Y-80114795D01*
X152886916Y-80138777D01*
X152765858Y-80149981D01*
X152579116Y-80166375D01*
X152345403Y-80186355D01*
X152083429Y-80208321D01*
X151839166Y-80228447D01*
X151517072Y-80256173D01*
X151158321Y-80289389D01*
X150797126Y-80324785D01*
X150467702Y-80359051D01*
X150315223Y-80375901D01*
X150073036Y-80402943D01*
X149856649Y-80426211D01*
X149681605Y-80444103D01*
X149563445Y-80455020D01*
X149521473Y-80457666D01*
X149475756Y-80473302D01*
X149453409Y-80533278D01*
X149447338Y-80657199D01*
X149447333Y-80662571D01*
X149475943Y-80857460D01*
X149552009Y-81072923D01*
X149660889Y-81278355D01*
X149787937Y-81443148D01*
X149845423Y-81494593D01*
X149939855Y-81561912D01*
X150034012Y-81614962D01*
X150139217Y-81655418D01*
X150266795Y-81684956D01*
X150428069Y-81705250D01*
X150634365Y-81717975D01*
X150897006Y-81724806D01*
X151227317Y-81727418D01*
X151421155Y-81727666D01*
X152495333Y-81727666D01*
X152495333Y-82367502D01*
X151297046Y-82354501D01*
X150098758Y-82341500D01*
X149775811Y-82181804D01*
X149457505Y-81980102D01*
X149195497Y-81722007D01*
X148996939Y-81417617D01*
X148868986Y-81077026D01*
X148827283Y-80843101D01*
X148799277Y-80575149D01*
X148593207Y-80594949D01*
X148469814Y-80610017D01*
X148386456Y-80626201D01*
X148368216Y-80633671D01*
X148376766Y-80677156D01*
X148411723Y-80787220D01*
X148468793Y-80951540D01*
X148543679Y-81157794D01*
X148632086Y-81393656D01*
X148644314Y-81425761D01*
X148735384Y-81666371D01*
X148815041Y-81880534D01*
X148878646Y-82055470D01*
X148921560Y-82178402D01*
X148939144Y-82236551D01*
X148939333Y-82238464D01*
X148900488Y-82257482D01*
X148797842Y-82271493D01*
X148652227Y-82277865D01*
X148626362Y-82278000D01*
X148459352Y-82274625D01*
X148358363Y-82261832D01*
X148304921Y-82235616D01*
X148284609Y-82203916D01*
X148260565Y-82141026D01*
X148212174Y-82013695D01*
X148145035Y-81836678D01*
X148064743Y-81624731D01*
X147999555Y-81452500D01*
X147913836Y-81228467D01*
X147837154Y-81032793D01*
X147774938Y-80878957D01*
X147732616Y-80780437D01*
X147716892Y-80750649D01*
X147667962Y-80749162D01*
X147551614Y-80761844D01*
X147383507Y-80786544D01*
X147179301Y-80821106D01*
X147101217Y-80835316D01*
X146511935Y-80944500D01*
X146258825Y-81611250D01*
X146005714Y-82278000D01*
X145694524Y-82278000D01*
X145518840Y-82272911D01*
X145418561Y-82256654D01*
X145384983Y-82227739D01*
X145384909Y-82225083D01*
X145400100Y-82167701D01*
X145440577Y-82047925D01*
X145500546Y-81882116D01*
X145574214Y-81686638D01*
X145591017Y-81643000D01*
X145665306Y-81447600D01*
X145725696Y-81282595D01*
X145766908Y-81162890D01*
X145783664Y-81103387D01*
X145783432Y-81099685D01*
X145736254Y-81101276D01*
X145618852Y-81123660D01*
X145442270Y-81163879D01*
X145217552Y-81218975D01*
X144955743Y-81285991D01*
X144667886Y-81361970D01*
X144365024Y-81443954D01*
X144058202Y-81528986D01*
X143758464Y-81614109D01*
X143476853Y-81696365D01*
X143224414Y-81772797D01*
X143012191Y-81840448D01*
X142991500Y-81847318D01*
X142709945Y-81941731D01*
X142498581Y-82014541D01*
X142347143Y-82070510D01*
X142245364Y-82114400D01*
X142182978Y-82150972D01*
X142149720Y-82184989D01*
X142135323Y-82221211D01*
X142131438Y-82246250D01*
X142119287Y-82310542D01*
X142087771Y-82345358D01*
X142015974Y-82359721D01*
X141882982Y-82362654D01*
X141861599Y-82362666D01*
X141701105Y-82376188D01*
X141519643Y-82419509D01*
X141306682Y-82496759D01*
X141051691Y-82612069D01*
X140744142Y-82769570D01*
X140536166Y-82882635D01*
X139917897Y-83253197D01*
X139383118Y-83635714D01*
X138931444Y-84030604D01*
X138562488Y-84438292D01*
X138275862Y-84859198D01*
X138071180Y-85293744D01*
X137957161Y-85694583D01*
X137909070Y-85934654D01*
X137795885Y-85682444D01*
X137658964Y-85279873D01*
X137606359Y-84870963D01*
X137638038Y-84456731D01*
X137753970Y-84038195D01*
X137853378Y-83807061D01*
X137951859Y-83619479D01*
X138057914Y-83456955D01*
X138190207Y-83294358D01*
X138367401Y-83106559D01*
X138392241Y-83081464D01*
X138562729Y-82917454D01*
X138741254Y-82758310D01*
X138904340Y-82624333D01*
X139008556Y-82548495D01*
X139258945Y-82383833D01*
X138172472Y-82372535D01*
X137086000Y-82361237D01*
X137086000Y-81727666D01*
X138514750Y-81727042D01*
X138939148Y-81725919D01*
X139285111Y-81722811D01*
X139558852Y-81717505D01*
X139766584Y-81709783D01*
X139914520Y-81699431D01*
X140008874Y-81686232D01*
X140049333Y-81673791D01*
X140136915Y-81601544D01*
X140218343Y-81490193D01*
X140231550Y-81465232D01*
X140279371Y-81342125D01*
X140282287Y-81231047D01*
X140261638Y-81137369D01*
X140235420Y-81049248D01*
X140203247Y-80978995D01*
X140155833Y-80924373D01*
X140083893Y-80883143D01*
X139978140Y-80853070D01*
X139829290Y-80831915D01*
X139628056Y-80817442D01*
X139365153Y-80807412D01*
X139031295Y-80799590D01*
X138844782Y-80795993D01*
X138484053Y-80788778D01*
X138197161Y-80780873D01*
X137973290Y-80770280D01*
X137801620Y-80755000D01*
X137671333Y-80733035D01*
X137571611Y-80702385D01*
X137491635Y-80661052D01*
X137420588Y-80607038D01*
X137347651Y-80538342D01*
X137324280Y-80515068D01*
X137161314Y-80297423D01*
X137062941Y-80046625D01*
X137029168Y-79780096D01*
X137059998Y-79515256D01*
X137155436Y-79269526D01*
X137315486Y-79060328D01*
X137323913Y-79052329D01*
X137398017Y-78985133D01*
X137468857Y-78930263D01*
X137545662Y-78886382D01*
X137637662Y-78852152D01*
X137754088Y-78826235D01*
X137904171Y-78807294D01*
X138097139Y-78793991D01*
X138342224Y-78784989D01*
X138648655Y-78778951D01*
X139025663Y-78774538D01*
X139255583Y-78772416D01*
X140726666Y-78759333D01*
X140726666Y-79399333D01*
G37*
X140726666Y-79399333D02*
X139388981Y-79399333D01*
X139006005Y-79399876D01*
X138698350Y-79401790D01*
X138456675Y-79405500D01*
X138271641Y-79411431D01*
X138133905Y-79420009D01*
X138034128Y-79431658D01*
X137962968Y-79446804D01*
X137911086Y-79465873D01*
X137909319Y-79466705D01*
X137778689Y-79570426D01*
X137705559Y-79716380D01*
X137692357Y-79882493D01*
X137741511Y-80046688D01*
X137832356Y-80166600D01*
X137866108Y-80196500D01*
X137903089Y-80220001D01*
X137953559Y-80238097D01*
X138027778Y-80251780D01*
X138136006Y-80262045D01*
X138288503Y-80269884D01*
X138495531Y-80276292D01*
X138767347Y-80282261D01*
X139089577Y-80288333D01*
X139431912Y-80294843D01*
X139700553Y-80300977D01*
X139906459Y-80307773D01*
X140060591Y-80316273D01*
X140173908Y-80327514D01*
X140257371Y-80342536D01*
X140321939Y-80362379D01*
X140378574Y-80388082D01*
X140428694Y-80415333D01*
X140640513Y-80580063D01*
X140789864Y-80798774D01*
X140873720Y-81065153D01*
X140889052Y-81372888D01*
X140888929Y-81374877D01*
X140881319Y-81500133D01*
X140876731Y-81582139D01*
X140876054Y-81600724D01*
X140912504Y-81585566D01*
X141007868Y-81545499D01*
X141143060Y-81488546D01*
X141172387Y-81476177D01*
X141467500Y-81351687D01*
X141484394Y-79399333D01*
X142123666Y-79399333D01*
X142123666Y-80048444D01*
X142125418Y-80274796D01*
X142130249Y-80470543D01*
X142137519Y-80620363D01*
X142146591Y-80708932D01*
X142151888Y-80725777D01*
X142202421Y-80736248D01*
X142321219Y-80745246D01*
X142491881Y-80751954D01*
X142698009Y-80755553D01*
X142755138Y-80755878D01*
X143004135Y-80754097D01*
X143212191Y-80744801D01*
X143407641Y-80724794D01*
X143618817Y-80690881D01*
X143874051Y-80639864D01*
X143974793Y-80618294D01*
X144219196Y-80564794D01*
X144393916Y-80523670D01*
X144512127Y-80489895D01*
X144587007Y-80458444D01*
X144631729Y-80424290D01*
X144659470Y-80382407D01*
X144673293Y-80351833D01*
X144716681Y-80168629D01*
X144716302Y-79958183D01*
X144673796Y-79763760D01*
X144648833Y-79706665D01*
X144561345Y-79595818D01*
X144436591Y-79498849D01*
X144410480Y-79484415D01*
X144353066Y-79457963D01*
X144289908Y-79437613D01*
X144209591Y-79422575D01*
X144100699Y-79412056D01*
X143951813Y-79405264D01*
X143751519Y-79401408D01*
X143488398Y-79399695D01*
X143183686Y-79399333D01*
X142123666Y-79399333D01*
X141484394Y-79399333D01*
X141489890Y-78764333D01*
X142899761Y-78764333D01*
X143322849Y-78765027D01*
X143670831Y-78767909D01*
X143953263Y-78774173D01*
X144179698Y-78785018D01*
X144359693Y-78801639D01*
X144502802Y-78825234D01*
X144618580Y-78857000D01*
X144716582Y-78898132D01*
X144806363Y-78949827D01*
X144897478Y-79013283D01*
X144899524Y-79014786D01*
X145018949Y-79126619D01*
X145136991Y-79274854D01*
X145193472Y-79365439D01*
X145258282Y-79498982D01*
X145298643Y-79628650D01*
X145321904Y-79785649D01*
X145333545Y-79960250D01*
X145341405Y-80132661D01*
X145355289Y-80244223D01*
X145390402Y-80305224D01*
X145461951Y-80325952D01*
X145585145Y-80316696D01*
X145775188Y-80287743D01*
X145809761Y-80282434D01*
X146130355Y-80233643D01*
X146168757Y-80130672D01*
X146819000Y-80130672D01*
X146979583Y-80104135D01*
X147116525Y-80085861D01*
X147236436Y-80076674D01*
X147246000Y-80076484D01*
X147359709Y-80065305D01*
X147415611Y-80025333D01*
X147419030Y-79942352D01*
X147375292Y-79802147D01*
X147361850Y-79767251D01*
X147282392Y-79606107D01*
X147199157Y-79510116D01*
X147119773Y-79486062D01*
X147074473Y-79511593D01*
X147042722Y-79566755D01*
X146992657Y-79678508D01*
X146934556Y-79823749D01*
X146928735Y-79839134D01*
X146819000Y-80130672D01*
X146168757Y-80130672D01*
X146331726Y-79693690D01*
X146443590Y-79411750D01*
X146546289Y-79202113D01*
X146650137Y-79054687D01*
X146765450Y-78959379D01*
X146902540Y-78906095D01*
X147071724Y-78884745D01*
X147160376Y-78882866D01*
X147412694Y-78911542D01*
X147609490Y-78995796D01*
X147731185Y-79113341D01*
X147777331Y-79196866D01*
X147840592Y-79334194D01*
X147909271Y-79499514D01*
X147927954Y-79547500D01*
X147990640Y-79705563D01*
X148045098Y-79832957D01*
X148082339Y-79908999D01*
X148089738Y-79919756D01*
X148143275Y-79929436D01*
X148260005Y-79927315D01*
X148419395Y-79914178D01*
X148508385Y-79903760D01*
X148895026Y-79854176D01*
X149018898Y-79637338D01*
X149239513Y-79333737D01*
X149516616Y-79089572D01*
X149840327Y-78911845D01*
X150185358Y-78810309D01*
X150299480Y-78797232D01*
X150482720Y-78785602D01*
X150719535Y-78775976D01*
X150994379Y-78768912D01*
X151291709Y-78764970D01*
X151465941Y-78764333D01*
X152495333Y-78764333D01*
X152495333Y-79399333D01*
X151465850Y-79399333D01*
X151081794Y-79401213D01*
X150771721Y-79407996D01*
X150525008Y-79421393D01*
X150331032Y-79443115D01*
X150179168Y-79474874D01*
X150058795Y-79518383D01*
X149959287Y-79575352D01*
X149870023Y-79647493D01*
X149858334Y-79658340D01*
X149722500Y-79786029D01*
X150061166Y-79761480D01*
X150340890Y-79742513D01*
X150683789Y-79721337D01*
X151068436Y-79699133D01*
X151473408Y-79677080D01*
X151877281Y-79656361D01*
X152258628Y-79638154D01*
X152463583Y-79629103D01*
X153130333Y-79600742D01*
X153130333Y-78764333D01*
X156347666Y-78764333D01*
X156347666Y-79399333D01*
X153765333Y-79399333D01*
X153765333Y-79597984D01*
X155172916Y-79625095D01*
X155696634Y-79636631D01*
X156143809Y-79649879D01*
X156522555Y-79665427D01*
X156840988Y-79683865D01*
X157107224Y-79705782D01*
X157329377Y-79731766D01*
X157515564Y-79762406D01*
X157673899Y-79798291D01*
X157715030Y-79809553D01*
X157977500Y-79884301D01*
X157787000Y-79913846D01*
X157670549Y-79925528D01*
X157493293Y-79935640D01*
X157279091Y-79943117D01*
X157051800Y-79946893D01*
X157046166Y-79946931D01*
X156801122Y-79950641D01*
X156489732Y-79958643D01*
X156130167Y-79970220D01*
X155740599Y-79984653D01*
X155339199Y-80001222D01*
X154944139Y-80019210D01*
X154573591Y-80037898D01*
X154245726Y-80056568D01*
X154196988Y-80059597D01*
X154001466Y-80072953D01*
X153875858Y-80086062D01*
X153805522Y-80102990D01*
X153775815Y-80127802D01*
X153772094Y-80164563D01*
X153773655Y-80177127D01*
X153779323Y-80203213D01*
X153794169Y-80223802D01*
X153827407Y-80239651D01*
X153888248Y-80251520D01*
X153985904Y-80260168D01*
X154129589Y-80266351D01*
X154328514Y-80270830D01*
X154591892Y-80274363D01*
X154928935Y-80277708D01*
X155003583Y-80278399D01*
X156220666Y-80289631D01*
X156220666Y-80796333D01*
X153765333Y-80796333D01*
X153765333Y-81727666D01*
X156347666Y-81727666D01*
X156347666Y-82362666D01*
X153130333Y-82362666D01*
X153130333Y-80114795D01*
X152886916Y-80138777D01*
X152765858Y-80149981D01*
X152579116Y-80166375D01*
X152345403Y-80186355D01*
X152083429Y-80208321D01*
X151839166Y-80228447D01*
X151517072Y-80256173D01*
X151158321Y-80289389D01*
X150797126Y-80324785D01*
X150467702Y-80359051D01*
X150315223Y-80375901D01*
X150073036Y-80402943D01*
X149856649Y-80426211D01*
X149681605Y-80444103D01*
X149563445Y-80455020D01*
X149521473Y-80457666D01*
X149475756Y-80473302D01*
X149453409Y-80533278D01*
X149447338Y-80657199D01*
X149447333Y-80662571D01*
X149475943Y-80857460D01*
X149552009Y-81072923D01*
X149660889Y-81278355D01*
X149787937Y-81443148D01*
X149845423Y-81494593D01*
X149939855Y-81561912D01*
X150034012Y-81614962D01*
X150139217Y-81655418D01*
X150266795Y-81684956D01*
X150428069Y-81705250D01*
X150634365Y-81717975D01*
X150897006Y-81724806D01*
X151227317Y-81727418D01*
X151421155Y-81727666D01*
X152495333Y-81727666D01*
X152495333Y-82367502D01*
X151297046Y-82354501D01*
X150098758Y-82341500D01*
X149775811Y-82181804D01*
X149457505Y-81980102D01*
X149195497Y-81722007D01*
X148996939Y-81417617D01*
X148868986Y-81077026D01*
X148827283Y-80843101D01*
X148799277Y-80575149D01*
X148593207Y-80594949D01*
X148469814Y-80610017D01*
X148386456Y-80626201D01*
X148368216Y-80633671D01*
X148376766Y-80677156D01*
X148411723Y-80787220D01*
X148468793Y-80951540D01*
X148543679Y-81157794D01*
X148632086Y-81393656D01*
X148644314Y-81425761D01*
X148735384Y-81666371D01*
X148815041Y-81880534D01*
X148878646Y-82055470D01*
X148921560Y-82178402D01*
X148939144Y-82236551D01*
X148939333Y-82238464D01*
X148900488Y-82257482D01*
X148797842Y-82271493D01*
X148652227Y-82277865D01*
X148626362Y-82278000D01*
X148459352Y-82274625D01*
X148358363Y-82261832D01*
X148304921Y-82235616D01*
X148284609Y-82203916D01*
X148260565Y-82141026D01*
X148212174Y-82013695D01*
X148145035Y-81836678D01*
X148064743Y-81624731D01*
X147999555Y-81452500D01*
X147913836Y-81228467D01*
X147837154Y-81032793D01*
X147774938Y-80878957D01*
X147732616Y-80780437D01*
X147716892Y-80750649D01*
X147667962Y-80749162D01*
X147551614Y-80761844D01*
X147383507Y-80786544D01*
X147179301Y-80821106D01*
X147101217Y-80835316D01*
X146511935Y-80944500D01*
X146258825Y-81611250D01*
X146005714Y-82278000D01*
X145694524Y-82278000D01*
X145518840Y-82272911D01*
X145418561Y-82256654D01*
X145384983Y-82227739D01*
X145384909Y-82225083D01*
X145400100Y-82167701D01*
X145440577Y-82047925D01*
X145500546Y-81882116D01*
X145574214Y-81686638D01*
X145591017Y-81643000D01*
X145665306Y-81447600D01*
X145725696Y-81282595D01*
X145766908Y-81162890D01*
X145783664Y-81103387D01*
X145783432Y-81099685D01*
X145736254Y-81101276D01*
X145618852Y-81123660D01*
X145442270Y-81163879D01*
X145217552Y-81218975D01*
X144955743Y-81285991D01*
X144667886Y-81361970D01*
X144365024Y-81443954D01*
X144058202Y-81528986D01*
X143758464Y-81614109D01*
X143476853Y-81696365D01*
X143224414Y-81772797D01*
X143012191Y-81840448D01*
X142991500Y-81847318D01*
X142709945Y-81941731D01*
X142498581Y-82014541D01*
X142347143Y-82070510D01*
X142245364Y-82114400D01*
X142182978Y-82150972D01*
X142149720Y-82184989D01*
X142135323Y-82221211D01*
X142131438Y-82246250D01*
X142119287Y-82310542D01*
X142087771Y-82345358D01*
X142015974Y-82359721D01*
X141882982Y-82362654D01*
X141861599Y-82362666D01*
X141701105Y-82376188D01*
X141519643Y-82419509D01*
X141306682Y-82496759D01*
X141051691Y-82612069D01*
X140744142Y-82769570D01*
X140536166Y-82882635D01*
X139917897Y-83253197D01*
X139383118Y-83635714D01*
X138931444Y-84030604D01*
X138562488Y-84438292D01*
X138275862Y-84859198D01*
X138071180Y-85293744D01*
X137957161Y-85694583D01*
X137909070Y-85934654D01*
X137795885Y-85682444D01*
X137658964Y-85279873D01*
X137606359Y-84870963D01*
X137638038Y-84456731D01*
X137753970Y-84038195D01*
X137853378Y-83807061D01*
X137951859Y-83619479D01*
X138057914Y-83456955D01*
X138190207Y-83294358D01*
X138367401Y-83106559D01*
X138392241Y-83081464D01*
X138562729Y-82917454D01*
X138741254Y-82758310D01*
X138904340Y-82624333D01*
X139008556Y-82548495D01*
X139258945Y-82383833D01*
X138172472Y-82372535D01*
X137086000Y-82361237D01*
X137086000Y-81727666D01*
X138514750Y-81727042D01*
X138939148Y-81725919D01*
X139285111Y-81722811D01*
X139558852Y-81717505D01*
X139766584Y-81709783D01*
X139914520Y-81699431D01*
X140008874Y-81686232D01*
X140049333Y-81673791D01*
X140136915Y-81601544D01*
X140218343Y-81490193D01*
X140231550Y-81465232D01*
X140279371Y-81342125D01*
X140282287Y-81231047D01*
X140261638Y-81137369D01*
X140235420Y-81049248D01*
X140203247Y-80978995D01*
X140155833Y-80924373D01*
X140083893Y-80883143D01*
X139978140Y-80853070D01*
X139829290Y-80831915D01*
X139628056Y-80817442D01*
X139365153Y-80807412D01*
X139031295Y-80799590D01*
X138844782Y-80795993D01*
X138484053Y-80788778D01*
X138197161Y-80780873D01*
X137973290Y-80770280D01*
X137801620Y-80755000D01*
X137671333Y-80733035D01*
X137571611Y-80702385D01*
X137491635Y-80661052D01*
X137420588Y-80607038D01*
X137347651Y-80538342D01*
X137324280Y-80515068D01*
X137161314Y-80297423D01*
X137062941Y-80046625D01*
X137029168Y-79780096D01*
X137059998Y-79515256D01*
X137155436Y-79269526D01*
X137315486Y-79060328D01*
X137323913Y-79052329D01*
X137398017Y-78985133D01*
X137468857Y-78930263D01*
X137545662Y-78886382D01*
X137637662Y-78852152D01*
X137754088Y-78826235D01*
X137904171Y-78807294D01*
X138097139Y-78793991D01*
X138342224Y-78784989D01*
X138648655Y-78778951D01*
X139025663Y-78774538D01*
X139255583Y-78772416D01*
X140726666Y-78759333D01*
X140726666Y-79399333D01*
G36*
X148643000Y-85070131D02*
G01*
X149436750Y-85081649D01*
X150230500Y-85093166D01*
X150243295Y-85315416D01*
X150256091Y-85537666D01*
X149244934Y-85537666D01*
X148960493Y-85536532D01*
X148704638Y-85533346D01*
X148489401Y-85528436D01*
X148326812Y-85522128D01*
X148228905Y-85514750D01*
X148205555Y-85509444D01*
X148198208Y-85461342D01*
X148191573Y-85339664D01*
X148185910Y-85155496D01*
X148181478Y-84919928D01*
X148178537Y-84644048D01*
X148177346Y-84338943D01*
X148177333Y-84302944D01*
X148177333Y-83124666D01*
X148643000Y-83124666D01*
X148643000Y-85070131D01*
G37*
X148643000Y-85070131D02*
X149436750Y-85081649D01*
X150230500Y-85093166D01*
X150243295Y-85315416D01*
X150256091Y-85537666D01*
X149244934Y-85537666D01*
X148960493Y-85536532D01*
X148704638Y-85533346D01*
X148489401Y-85528436D01*
X148326812Y-85522128D01*
X148228905Y-85514750D01*
X148205555Y-85509444D01*
X148198208Y-85461342D01*
X148191573Y-85339664D01*
X148185910Y-85155496D01*
X148181478Y-84919928D01*
X148178537Y-84644048D01*
X148177346Y-84338943D01*
X148177333Y-84302944D01*
X148177333Y-83124666D01*
X148643000Y-83124666D01*
X148643000Y-85070131D01*
G36*
X152068152Y-83112789D02*
G01*
X152124979Y-83156416D01*
X152159518Y-83206373D01*
X152229866Y-83316691D01*
X152329655Y-83476842D01*
X152452520Y-83676297D01*
X152592094Y-83904526D01*
X152742011Y-84151001D01*
X152895906Y-84405194D01*
X153047411Y-84656574D01*
X153190162Y-84894614D01*
X153317792Y-85108784D01*
X153423934Y-85288556D01*
X153502223Y-85423401D01*
X153546293Y-85502790D01*
X153553666Y-85519317D01*
X153515243Y-85529102D01*
X153415588Y-85535759D01*
X153305931Y-85537666D01*
X153058195Y-85537666D01*
X152871474Y-85230750D01*
X152684753Y-84923833D01*
X151232711Y-84900699D01*
X151046238Y-85208599D01*
X150859765Y-85516500D01*
X150619215Y-85529195D01*
X150489425Y-85532790D01*
X150402086Y-85528974D01*
X150378666Y-85521430D01*
X150399757Y-85479049D01*
X150458787Y-85375054D01*
X150549392Y-85219977D01*
X150665207Y-85024355D01*
X150799870Y-84798722D01*
X150940778Y-84564000D01*
X151428636Y-84564000D01*
X151944346Y-84564000D01*
X152140418Y-84561469D01*
X152299840Y-84554566D01*
X152406963Y-84544325D01*
X152446138Y-84531779D01*
X152445944Y-84530870D01*
X152406466Y-84452543D01*
X152339083Y-84332374D01*
X152254596Y-84188144D01*
X152163801Y-84037637D01*
X152077498Y-83898635D01*
X152006485Y-83788919D01*
X151961561Y-83726273D01*
X151952401Y-83718144D01*
X151918659Y-83752409D01*
X151856349Y-83841959D01*
X151778295Y-83968218D01*
X151769779Y-83982727D01*
X151676305Y-84142568D01*
X151585070Y-84298242D01*
X151522181Y-84405250D01*
X151428636Y-84564000D01*
X150940778Y-84564000D01*
X150947015Y-84553612D01*
X151100280Y-84299562D01*
X151253299Y-84047105D01*
X151399708Y-83806777D01*
X151533145Y-83589112D01*
X151647244Y-83404645D01*
X151735641Y-83263912D01*
X151791973Y-83177447D01*
X151807354Y-83156416D01*
X151898807Y-83096637D01*
X151966166Y-83082333D01*
X152068152Y-83112789D01*
G37*
X152068152Y-83112789D02*
X152124979Y-83156416D01*
X152159518Y-83206373D01*
X152229866Y-83316691D01*
X152329655Y-83476842D01*
X152452520Y-83676297D01*
X152592094Y-83904526D01*
X152742011Y-84151001D01*
X152895906Y-84405194D01*
X153047411Y-84656574D01*
X153190162Y-84894614D01*
X153317792Y-85108784D01*
X153423934Y-85288556D01*
X153502223Y-85423401D01*
X153546293Y-85502790D01*
X153553666Y-85519317D01*
X153515243Y-85529102D01*
X153415588Y-85535759D01*
X153305931Y-85537666D01*
X153058195Y-85537666D01*
X152871474Y-85230750D01*
X152684753Y-84923833D01*
X151232711Y-84900699D01*
X151046238Y-85208599D01*
X150859765Y-85516500D01*
X150619215Y-85529195D01*
X150489425Y-85532790D01*
X150402086Y-85528974D01*
X150378666Y-85521430D01*
X150399757Y-85479049D01*
X150458787Y-85375054D01*
X150549392Y-85219977D01*
X150665207Y-85024355D01*
X150799870Y-84798722D01*
X150940778Y-84564000D01*
X151428636Y-84564000D01*
X151944346Y-84564000D01*
X152140418Y-84561469D01*
X152299840Y-84554566D01*
X152406963Y-84544325D01*
X152446138Y-84531779D01*
X152445944Y-84530870D01*
X152406466Y-84452543D01*
X152339083Y-84332374D01*
X152254596Y-84188144D01*
X152163801Y-84037637D01*
X152077498Y-83898635D01*
X152006485Y-83788919D01*
X151961561Y-83726273D01*
X151952401Y-83718144D01*
X151918659Y-83752409D01*
X151856349Y-83841959D01*
X151778295Y-83968218D01*
X151769779Y-83982727D01*
X151676305Y-84142568D01*
X151585070Y-84298242D01*
X151522181Y-84405250D01*
X151428636Y-84564000D01*
X150940778Y-84564000D01*
X150947015Y-84553612D01*
X151100280Y-84299562D01*
X151253299Y-84047105D01*
X151399708Y-83806777D01*
X151533145Y-83589112D01*
X151647244Y-83404645D01*
X151735641Y-83263912D01*
X151791973Y-83177447D01*
X151807354Y-83156416D01*
X151898807Y-83096637D01*
X151966166Y-83082333D01*
X152068152Y-83112789D01*
G36*
X155156686Y-83125180D02*
G01*
X155408992Y-83127271D01*
X155600133Y-83131761D01*
X155741861Y-83139473D01*
X155845925Y-83151228D01*
X155924075Y-83167850D01*
X155988061Y-83190160D01*
X156028309Y-83208434D01*
X156199878Y-83326446D01*
X156303827Y-83486519D01*
X156346058Y-83698836D01*
X156347666Y-83759242D01*
X156340216Y-83901079D01*
X156307812Y-83997556D01*
X156235373Y-84087400D01*
X156210083Y-84112543D01*
X156072500Y-84246500D01*
X156236184Y-84405204D01*
X156325166Y-84495670D01*
X156372533Y-84568096D01*
X156389120Y-84653875D01*
X156385759Y-84784398D01*
X156382904Y-84830338D01*
X156342420Y-85072921D01*
X156251016Y-85255716D01*
X156100874Y-85391808D01*
X156020417Y-85437197D01*
X155960854Y-85462608D01*
X155889307Y-85482389D01*
X155794282Y-85497437D01*
X155664287Y-85508651D01*
X155487830Y-85516927D01*
X155253416Y-85523162D01*
X154949554Y-85528254D01*
X154834250Y-85529808D01*
X153807666Y-85543117D01*
X153807666Y-84479333D01*
X154231000Y-84479333D01*
X154231000Y-85123936D01*
X154969699Y-85107826D01*
X155240666Y-85101095D01*
X155440671Y-85093355D01*
X155583416Y-85082940D01*
X155682602Y-85068184D01*
X155751931Y-85047422D01*
X155805105Y-85018986D01*
X155826949Y-85003588D01*
X155932229Y-84885427D01*
X155956542Y-84754886D01*
X155898816Y-84623610D01*
X155865491Y-84585976D01*
X155825496Y-84548123D01*
X155783757Y-84520491D01*
X155727146Y-84501470D01*
X155642536Y-84489453D01*
X155516799Y-84482832D01*
X155336809Y-84479999D01*
X155089437Y-84479344D01*
X154994924Y-84479333D01*
X154231000Y-84479333D01*
X153807666Y-84479333D01*
X153807666Y-84098333D01*
X154231000Y-84098333D01*
X155011766Y-84098333D01*
X155286915Y-84097951D01*
X155489771Y-84095891D01*
X155632708Y-84090775D01*
X155728099Y-84081230D01*
X155788318Y-84065881D01*
X155825739Y-84043352D01*
X155852734Y-84012269D01*
X155858432Y-84004247D01*
X155919068Y-83856046D01*
X155898248Y-83709910D01*
X155864324Y-83651341D01*
X155836998Y-83622217D01*
X155795512Y-83600490D01*
X155727692Y-83584791D01*
X155621368Y-83573748D01*
X155464367Y-83565989D01*
X155244517Y-83560144D01*
X155017658Y-83555965D01*
X154231000Y-83542764D01*
X154231000Y-84098333D01*
X153807666Y-84098333D01*
X153807666Y-83124666D01*
X154831467Y-83124666D01*
X155156686Y-83125180D01*
G37*
X155156686Y-83125180D02*
X155408992Y-83127271D01*
X155600133Y-83131761D01*
X155741861Y-83139473D01*
X155845925Y-83151228D01*
X155924075Y-83167850D01*
X155988061Y-83190160D01*
X156028309Y-83208434D01*
X156199878Y-83326446D01*
X156303827Y-83486519D01*
X156346058Y-83698836D01*
X156347666Y-83759242D01*
X156340216Y-83901079D01*
X156307812Y-83997556D01*
X156235373Y-84087400D01*
X156210083Y-84112543D01*
X156072500Y-84246500D01*
X156236184Y-84405204D01*
X156325166Y-84495670D01*
X156372533Y-84568096D01*
X156389120Y-84653875D01*
X156385759Y-84784398D01*
X156382904Y-84830338D01*
X156342420Y-85072921D01*
X156251016Y-85255716D01*
X156100874Y-85391808D01*
X156020417Y-85437197D01*
X155960854Y-85462608D01*
X155889307Y-85482389D01*
X155794282Y-85497437D01*
X155664287Y-85508651D01*
X155487830Y-85516927D01*
X155253416Y-85523162D01*
X154949554Y-85528254D01*
X154834250Y-85529808D01*
X153807666Y-85543117D01*
X153807666Y-84479333D01*
X154231000Y-84479333D01*
X154231000Y-85123936D01*
X154969699Y-85107826D01*
X155240666Y-85101095D01*
X155440671Y-85093355D01*
X155583416Y-85082940D01*
X155682602Y-85068184D01*
X155751931Y-85047422D01*
X155805105Y-85018986D01*
X155826949Y-85003588D01*
X155932229Y-84885427D01*
X155956542Y-84754886D01*
X155898816Y-84623610D01*
X155865491Y-84585976D01*
X155825496Y-84548123D01*
X155783757Y-84520491D01*
X155727146Y-84501470D01*
X155642536Y-84489453D01*
X155516799Y-84482832D01*
X155336809Y-84479999D01*
X155089437Y-84479344D01*
X154994924Y-84479333D01*
X154231000Y-84479333D01*
X153807666Y-84479333D01*
X153807666Y-84098333D01*
X154231000Y-84098333D01*
X155011766Y-84098333D01*
X155286915Y-84097951D01*
X155489771Y-84095891D01*
X155632708Y-84090775D01*
X155728099Y-84081230D01*
X155788318Y-84065881D01*
X155825739Y-84043352D01*
X155852734Y-84012269D01*
X155858432Y-84004247D01*
X155919068Y-83856046D01*
X155898248Y-83709910D01*
X155864324Y-83651341D01*
X155836998Y-83622217D01*
X155795512Y-83600490D01*
X155727692Y-83584791D01*
X155621368Y-83573748D01*
X155464367Y-83565989D01*
X155244517Y-83560144D01*
X155017658Y-83555965D01*
X154231000Y-83542764D01*
X154231000Y-84098333D01*
X153807666Y-84098333D01*
X153807666Y-83124666D01*
X154831467Y-83124666D01*
X155156686Y-83125180D01*
G36*
X150350801Y-83427194D02*
G01*
X150377719Y-83554849D01*
X150399600Y-83722128D01*
X150425646Y-83959757D01*
X150680924Y-83986439D01*
X150825420Y-84005584D01*
X150938088Y-84027834D01*
X150985517Y-84044073D01*
X150981807Y-84068266D01*
X150912543Y-84093774D01*
X150796671Y-84116617D01*
X150653137Y-84132814D01*
X150537416Y-84138227D01*
X150437783Y-84144087D01*
X150391251Y-84173585D01*
X150376245Y-84250750D01*
X150373658Y-84320583D01*
X150363424Y-84475629D01*
X150344341Y-84605800D01*
X150320346Y-84693234D01*
X150295378Y-84720070D01*
X150287336Y-84712166D01*
X150269058Y-84650077D01*
X150247866Y-84531506D01*
X150231517Y-84408329D01*
X150201734Y-84146824D01*
X150025617Y-84120313D01*
X149829583Y-84089640D01*
X149707260Y-84066597D01*
X149648395Y-84047930D01*
X149642737Y-84030384D01*
X149680032Y-84010703D01*
X149680166Y-84010650D01*
X149771199Y-83990585D01*
X149907337Y-83977132D01*
X149983719Y-83974308D01*
X150085977Y-83972598D01*
X150153968Y-83960916D01*
X150197355Y-83924434D01*
X150225797Y-83848324D01*
X150248956Y-83717759D01*
X150275266Y-83526833D01*
X150298440Y-83411404D01*
X150323996Y-83378785D01*
X150350801Y-83427194D01*
G37*
X150350801Y-83427194D02*
X150377719Y-83554849D01*
X150399600Y-83722128D01*
X150425646Y-83959757D01*
X150680924Y-83986439D01*
X150825420Y-84005584D01*
X150938088Y-84027834D01*
X150985517Y-84044073D01*
X150981807Y-84068266D01*
X150912543Y-84093774D01*
X150796671Y-84116617D01*
X150653137Y-84132814D01*
X150537416Y-84138227D01*
X150437783Y-84144087D01*
X150391251Y-84173585D01*
X150376245Y-84250750D01*
X150373658Y-84320583D01*
X150363424Y-84475629D01*
X150344341Y-84605800D01*
X150320346Y-84693234D01*
X150295378Y-84720070D01*
X150287336Y-84712166D01*
X150269058Y-84650077D01*
X150247866Y-84531506D01*
X150231517Y-84408329D01*
X150201734Y-84146824D01*
X150025617Y-84120313D01*
X149829583Y-84089640D01*
X149707260Y-84066597D01*
X149648395Y-84047930D01*
X149642737Y-84030384D01*
X149680032Y-84010703D01*
X149680166Y-84010650D01*
X149771199Y-83990585D01*
X149907337Y-83977132D01*
X149983719Y-83974308D01*
X150085977Y-83972598D01*
X150153968Y-83960916D01*
X150197355Y-83924434D01*
X150225797Y-83848324D01*
X150248956Y-83717759D01*
X150275266Y-83526833D01*
X150298440Y-83411404D01*
X150323996Y-83378785D01*
X150350801Y-83427194D01*
G36*
X145937409Y-83294000D02*
G01*
X145956095Y-83399209D01*
X145969000Y-83544915D01*
X145971780Y-83617151D01*
X145976000Y-83834469D01*
X146241937Y-83862949D01*
X146426397Y-83888229D01*
X146537585Y-83915745D01*
X146572401Y-83943715D01*
X146527750Y-83970353D01*
X146455512Y-83985965D01*
X146299792Y-84004697D01*
X146146099Y-84013169D01*
X146140780Y-84013200D01*
X145988061Y-84013666D01*
X145960600Y-84276396D01*
X145936164Y-84448126D01*
X145907724Y-84548777D01*
X145877982Y-84574638D01*
X145849638Y-84521995D01*
X145834246Y-84450102D01*
X145815804Y-84302906D01*
X145807201Y-84164444D01*
X145807132Y-84156718D01*
X145802570Y-84082051D01*
X145776053Y-84039607D01*
X145707330Y-84016107D01*
X145576148Y-83998270D01*
X145563250Y-83996792D01*
X145386539Y-83970465D01*
X145280501Y-83941156D01*
X145249167Y-83911157D01*
X145296568Y-83882763D01*
X145342877Y-83871474D01*
X145483339Y-83852488D01*
X145633935Y-83844338D01*
X145637171Y-83844333D01*
X145795759Y-83844333D01*
X145824746Y-83622083D01*
X145846771Y-83472081D01*
X145870130Y-83340947D01*
X145880496Y-83294000D01*
X145907258Y-83188166D01*
X145937409Y-83294000D01*
G37*
X145937409Y-83294000D02*
X145956095Y-83399209D01*
X145969000Y-83544915D01*
X145971780Y-83617151D01*
X145976000Y-83834469D01*
X146241937Y-83862949D01*
X146426397Y-83888229D01*
X146537585Y-83915745D01*
X146572401Y-83943715D01*
X146527750Y-83970353D01*
X146455512Y-83985965D01*
X146299792Y-84004697D01*
X146146099Y-84013169D01*
X146140780Y-84013200D01*
X145988061Y-84013666D01*
X145960600Y-84276396D01*
X145936164Y-84448126D01*
X145907724Y-84548777D01*
X145877982Y-84574638D01*
X145849638Y-84521995D01*
X145834246Y-84450102D01*
X145815804Y-84302906D01*
X145807201Y-84164444D01*
X145807132Y-84156718D01*
X145802570Y-84082051D01*
X145776053Y-84039607D01*
X145707330Y-84016107D01*
X145576148Y-83998270D01*
X145563250Y-83996792D01*
X145386539Y-83970465D01*
X145280501Y-83941156D01*
X145249167Y-83911157D01*
X145296568Y-83882763D01*
X145342877Y-83871474D01*
X145483339Y-83852488D01*
X145633935Y-83844338D01*
X145637171Y-83844333D01*
X145795759Y-83844333D01*
X145824746Y-83622083D01*
X145846771Y-83472081D01*
X145870130Y-83340947D01*
X145880496Y-83294000D01*
X145907258Y-83188166D01*
X145937409Y-83294000D01*
G36*
X151016622Y-76690000D02*
G01*
X151035562Y-76794496D01*
X151048744Y-76940472D01*
X151051780Y-77018083D01*
X151057516Y-77147757D01*
X151075166Y-77213902D01*
X151114992Y-77237638D01*
X151159749Y-77240333D01*
X151260681Y-77249432D01*
X151403286Y-77272649D01*
X151487832Y-77289886D01*
X151610521Y-77319300D01*
X151659266Y-77339865D01*
X151643416Y-77357925D01*
X151606333Y-77370333D01*
X151500962Y-77389507D01*
X151355322Y-77402679D01*
X151284280Y-77405446D01*
X151068061Y-77409666D01*
X151040600Y-77672396D01*
X151015574Y-77851817D01*
X150987857Y-77949531D01*
X150959492Y-77964872D01*
X150932525Y-77897175D01*
X150908998Y-77745774D01*
X150905939Y-77716277D01*
X150876693Y-77419474D01*
X150638263Y-77392228D01*
X150463544Y-77366035D01*
X150359229Y-77336712D01*
X150329449Y-77306652D01*
X150378334Y-77278247D01*
X150422877Y-77267474D01*
X150563128Y-77248525D01*
X150713910Y-77240341D01*
X150717818Y-77240333D01*
X150814075Y-77236276D01*
X150864522Y-77209344D01*
X150889730Y-77137390D01*
X150904630Y-77039250D01*
X150927491Y-76887250D01*
X150951659Y-76747861D01*
X150958946Y-76711166D01*
X150985685Y-76584166D01*
X151016622Y-76690000D01*
G37*
X151016622Y-76690000D02*
X151035562Y-76794496D01*
X151048744Y-76940472D01*
X151051780Y-77018083D01*
X151057516Y-77147757D01*
X151075166Y-77213902D01*
X151114992Y-77237638D01*
X151159749Y-77240333D01*
X151260681Y-77249432D01*
X151403286Y-77272649D01*
X151487832Y-77289886D01*
X151610521Y-77319300D01*
X151659266Y-77339865D01*
X151643416Y-77357925D01*
X151606333Y-77370333D01*
X151500962Y-77389507D01*
X151355322Y-77402679D01*
X151284280Y-77405446D01*
X151068061Y-77409666D01*
X151040600Y-77672396D01*
X151015574Y-77851817D01*
X150987857Y-77949531D01*
X150959492Y-77964872D01*
X150932525Y-77897175D01*
X150908998Y-77745774D01*
X150905939Y-77716277D01*
X150876693Y-77419474D01*
X150638263Y-77392228D01*
X150463544Y-77366035D01*
X150359229Y-77336712D01*
X150329449Y-77306652D01*
X150378334Y-77278247D01*
X150422877Y-77267474D01*
X150563128Y-77248525D01*
X150713910Y-77240341D01*
X150717818Y-77240333D01*
X150814075Y-77236276D01*
X150864522Y-77209344D01*
X150889730Y-77137390D01*
X150904630Y-77039250D01*
X150927491Y-76887250D01*
X150951659Y-76747861D01*
X150958946Y-76711166D01*
X150985685Y-76584166D01*
X151016622Y-76690000D01*
G36*
X143836835Y-74685649D02*
G01*
X143860133Y-74795603D01*
X143878879Y-74932618D01*
X143894212Y-75068709D01*
X143916151Y-75155456D01*
X143961747Y-75206806D01*
X144048052Y-75236709D01*
X144192118Y-75259111D01*
X144294069Y-75272238D01*
X144422587Y-75296359D01*
X144468295Y-75323130D01*
X144432919Y-75350530D01*
X144318186Y-75376534D01*
X144191099Y-75392874D01*
X144024557Y-75417155D01*
X143925107Y-75456769D01*
X143875176Y-75526447D01*
X143857190Y-75640922D01*
X143855761Y-75674000D01*
X143843606Y-75810158D01*
X143821414Y-75928000D01*
X143797274Y-75997227D01*
X143776755Y-75990124D01*
X143762134Y-75956287D01*
X143741052Y-75859565D01*
X143732333Y-75736793D01*
X143711673Y-75543293D01*
X143649730Y-75423574D01*
X143546555Y-75377731D01*
X143532297Y-75377200D01*
X143394657Y-75369634D01*
X143264285Y-75351166D01*
X143164419Y-75326549D01*
X143118299Y-75300538D01*
X143118752Y-75292592D01*
X143167918Y-75272133D01*
X143277353Y-75249672D01*
X143416978Y-75230832D01*
X143560855Y-75208754D01*
X143666777Y-75179955D01*
X143710831Y-75151754D01*
X143723699Y-75084935D01*
X143740827Y-74964050D01*
X143753548Y-74858511D01*
X143773365Y-74732046D01*
X143796970Y-74652015D01*
X143815122Y-74635673D01*
X143836835Y-74685649D01*
G37*
X143836835Y-74685649D02*
X143860133Y-74795603D01*
X143878879Y-74932618D01*
X143894212Y-75068709D01*
X143916151Y-75155456D01*
X143961747Y-75206806D01*
X144048052Y-75236709D01*
X144192118Y-75259111D01*
X144294069Y-75272238D01*
X144422587Y-75296359D01*
X144468295Y-75323130D01*
X144432919Y-75350530D01*
X144318186Y-75376534D01*
X144191099Y-75392874D01*
X144024557Y-75417155D01*
X143925107Y-75456769D01*
X143875176Y-75526447D01*
X143857190Y-75640922D01*
X143855761Y-75674000D01*
X143843606Y-75810158D01*
X143821414Y-75928000D01*
X143797274Y-75997227D01*
X143776755Y-75990124D01*
X143762134Y-75956287D01*
X143741052Y-75859565D01*
X143732333Y-75736793D01*
X143711673Y-75543293D01*
X143649730Y-75423574D01*
X143546555Y-75377731D01*
X143532297Y-75377200D01*
X143394657Y-75369634D01*
X143264285Y-75351166D01*
X143164419Y-75326549D01*
X143118299Y-75300538D01*
X143118752Y-75292592D01*
X143167918Y-75272133D01*
X143277353Y-75249672D01*
X143416978Y-75230832D01*
X143560855Y-75208754D01*
X143666777Y-75179955D01*
X143710831Y-75151754D01*
X143723699Y-75084935D01*
X143740827Y-74964050D01*
X143753548Y-74858511D01*
X143773365Y-74732046D01*
X143796970Y-74652015D01*
X143815122Y-74635673D01*
X143836835Y-74685649D01*
D12*
X105508095Y-137068380D02*
X105508095Y-136068380D01*
X105508095Y-136544571D02*
X106079523Y-136544571D01*
X106079523Y-137068380D02*
X106079523Y-136068380D01*
X106460476Y-136068380D02*
X107079523Y-136068380D01*
X106746190Y-136449333D01*
X106889047Y-136449333D01*
X106984285Y-136496952D01*
X107031904Y-136544571D01*
X107079523Y-136639809D01*
X107079523Y-136877904D01*
X107031904Y-136973142D01*
X106984285Y-137020761D01*
X106889047Y-137068380D01*
X106603333Y-137068380D01*
X106508095Y-137020761D01*
X106460476Y-136973142D01*
X185568095Y-137092380D02*
X185568095Y-136092380D01*
X185568095Y-136568571D02*
X186139523Y-136568571D01*
X186139523Y-137092380D02*
X186139523Y-136092380D01*
X187044285Y-136425714D02*
X187044285Y-137092380D01*
X186806190Y-136044761D02*
X186568095Y-136759047D01*
X187187142Y-136759047D01*
D10*
X178461904Y-51852380D02*
X177985714Y-51852380D01*
X177938095Y-52328571D01*
X177985714Y-52280952D01*
X178080952Y-52233333D01*
X178319047Y-52233333D01*
X178414285Y-52280952D01*
X178461904Y-52328571D01*
X178509523Y-52423809D01*
X178509523Y-52661904D01*
X178461904Y-52757142D01*
X178414285Y-52804761D01*
X178319047Y-52852380D01*
X178080952Y-52852380D01*
X177985714Y-52804761D01*
X177938095Y-52757142D01*
X178890476Y-51947619D02*
X178938095Y-51900000D01*
X179033333Y-51852380D01*
X179271428Y-51852380D01*
X179366666Y-51900000D01*
X179414285Y-51947619D01*
X179461904Y-52042857D01*
X179461904Y-52138095D01*
X179414285Y-52280952D01*
X178842857Y-52852380D01*
X179461904Y-52852380D01*
X181461904Y-56652380D02*
X180985714Y-56652380D01*
X180938095Y-57128571D01*
X180985714Y-57080952D01*
X181080952Y-57033333D01*
X181319047Y-57033333D01*
X181414285Y-57080952D01*
X181461904Y-57128571D01*
X181509523Y-57223809D01*
X181509523Y-57461904D01*
X181461904Y-57557142D01*
X181414285Y-57604761D01*
X181319047Y-57652380D01*
X181080952Y-57652380D01*
X180985714Y-57604761D01*
X180938095Y-57557142D01*
X182461904Y-57652380D02*
X181890476Y-57652380D01*
X182176190Y-57652380D02*
X182176190Y-56652380D01*
X182080952Y-56795238D01*
X181985714Y-56890476D01*
X181890476Y-56938095D01*
X114914285Y-51947619D02*
X114961904Y-51900000D01*
X115057142Y-51852380D01*
X115295238Y-51852380D01*
X115390476Y-51900000D01*
X115438095Y-51947619D01*
X115485714Y-52042857D01*
X115485714Y-52138095D01*
X115438095Y-52280952D01*
X114866666Y-52852380D01*
X115485714Y-52852380D01*
X112345714Y-57652380D02*
X111774285Y-57652380D01*
X112060000Y-57652380D02*
X112060000Y-56652380D01*
X111964761Y-56795238D01*
X111869523Y-56890476D01*
X111774285Y-56938095D01*
X181461904Y-59152380D02*
X180985714Y-59152380D01*
X180938095Y-59628571D01*
X180985714Y-59580952D01*
X181080952Y-59533333D01*
X181319047Y-59533333D01*
X181414285Y-59580952D01*
X181461904Y-59628571D01*
X181509523Y-59723809D01*
X181509523Y-59961904D01*
X181461904Y-60057142D01*
X181414285Y-60104761D01*
X181319047Y-60152380D01*
X181080952Y-60152380D01*
X180985714Y-60104761D01*
X180938095Y-60057142D01*
X181890476Y-59247619D02*
X181938095Y-59200000D01*
X182033333Y-59152380D01*
X182271428Y-59152380D01*
X182366666Y-59200000D01*
X182414285Y-59247619D01*
X182461904Y-59342857D01*
X182461904Y-59438095D01*
X182414285Y-59580952D01*
X181842857Y-60152380D01*
X182461904Y-60152380D01*
X181461904Y-61752380D02*
X180985714Y-61752380D01*
X180938095Y-62228571D01*
X180985714Y-62180952D01*
X181080952Y-62133333D01*
X181319047Y-62133333D01*
X181414285Y-62180952D01*
X181461904Y-62228571D01*
X181509523Y-62323809D01*
X181509523Y-62561904D01*
X181461904Y-62657142D01*
X181414285Y-62704761D01*
X181319047Y-62752380D01*
X181080952Y-62752380D01*
X180985714Y-62704761D01*
X180938095Y-62657142D01*
X182461904Y-62752380D02*
X181890476Y-62752380D01*
X182176190Y-62752380D02*
X182176190Y-61752380D01*
X182080952Y-61895238D01*
X181985714Y-61990476D01*
X181890476Y-62038095D01*
X111774285Y-59347619D02*
X111821904Y-59300000D01*
X111917142Y-59252380D01*
X112155238Y-59252380D01*
X112250476Y-59300000D01*
X112298095Y-59347619D01*
X112345714Y-59442857D01*
X112345714Y-59538095D01*
X112298095Y-59680952D01*
X111726666Y-60252380D01*
X112345714Y-60252380D01*
X112345714Y-62752380D02*
X111774285Y-62752380D01*
X112060000Y-62752380D02*
X112060000Y-61752380D01*
X111964761Y-61895238D01*
X111869523Y-61990476D01*
X111774285Y-62038095D01*
D12*
X182968095Y-58952380D02*
X182968095Y-57952380D01*
X182968095Y-58428571D02*
X183539523Y-58428571D01*
X183539523Y-58952380D02*
X183539523Y-57952380D01*
X183968095Y-58047619D02*
X184015714Y-58000000D01*
X184110952Y-57952380D01*
X184349047Y-57952380D01*
X184444285Y-58000000D01*
X184491904Y-58047619D01*
X184539523Y-58142857D01*
X184539523Y-58238095D01*
X184491904Y-58380952D01*
X183920476Y-58952380D01*
X184539523Y-58952380D01*
X109308095Y-59052380D02*
X109308095Y-58052380D01*
X109308095Y-58528571D02*
X109879523Y-58528571D01*
X109879523Y-59052380D02*
X109879523Y-58052380D01*
X110879523Y-59052380D02*
X110308095Y-59052380D01*
X110593809Y-59052380D02*
X110593809Y-58052380D01*
X110498571Y-58195238D01*
X110403333Y-58290476D01*
X110308095Y-58338095D01*
M02*
