G04 #@! TF.GenerationSoftware,KiCad,Pcbnew,7.0.9-1.fc38*
G04 #@! TF.CreationDate,2023-11-17T02:49:10-03:00*
G04 #@! TF.ProjectId,pc104-adapter-top,70633130-342d-4616-9461-707465722d74,v2.1*
G04 #@! TF.SameCoordinates,Original*
G04 #@! TF.FileFunction,Legend,Bot*
G04 #@! TF.FilePolarity,Positive*
%FSLAX46Y46*%
G04 Gerber Fmt 4.6, Leading zero omitted, Abs format (unit mm)*
G04 Created by KiCad (PCBNEW 7.0.9-1.fc38) date 2023-11-17 02:49:10*
%MOMM*%
%LPD*%
G01*
G04 APERTURE LIST*
%ADD10C,0.160000*%
%ADD11C,0.150000*%
%ADD12C,0.120000*%
G04 APERTURE END LIST*
D10*
X113430000Y-52916000D02*
X113430000Y-63976000D01*
X180370000Y-52916000D02*
X113430000Y-52916000D01*
X113430000Y-63976000D02*
X180370000Y-63976000D01*
X180370000Y-63976000D02*
X180370000Y-52916000D01*
X170552380Y-75454299D02*
X170552380Y-74454299D01*
X170552380Y-74930489D02*
X169980952Y-74930489D01*
X169980952Y-75454299D02*
X169980952Y-74454299D01*
X169552380Y-74549537D02*
X169504761Y-74501918D01*
X169504761Y-74501918D02*
X169409523Y-74454299D01*
X169409523Y-74454299D02*
X169171428Y-74454299D01*
X169171428Y-74454299D02*
X169076190Y-74501918D01*
X169076190Y-74501918D02*
X169028571Y-74549537D01*
X169028571Y-74549537D02*
X168980952Y-74644775D01*
X168980952Y-74644775D02*
X168980952Y-74740013D01*
X168980952Y-74740013D02*
X169028571Y-74882870D01*
X169028571Y-74882870D02*
X169599999Y-75454299D01*
X169599999Y-75454299D02*
X168980952Y-75454299D01*
X168552380Y-75359060D02*
X168504761Y-75406680D01*
X168504761Y-75406680D02*
X168552380Y-75454299D01*
X168552380Y-75454299D02*
X168599999Y-75406680D01*
X168599999Y-75406680D02*
X168552380Y-75359060D01*
X168552380Y-75359060D02*
X168552380Y-75454299D01*
X167600000Y-74454299D02*
X168076190Y-74454299D01*
X168076190Y-74454299D02*
X168123809Y-74930489D01*
X168123809Y-74930489D02*
X168076190Y-74882870D01*
X168076190Y-74882870D02*
X167980952Y-74835251D01*
X167980952Y-74835251D02*
X167742857Y-74835251D01*
X167742857Y-74835251D02*
X167647619Y-74882870D01*
X167647619Y-74882870D02*
X167600000Y-74930489D01*
X167600000Y-74930489D02*
X167552381Y-75025727D01*
X167552381Y-75025727D02*
X167552381Y-75263822D01*
X167552381Y-75263822D02*
X167600000Y-75359060D01*
X167600000Y-75359060D02*
X167647619Y-75406680D01*
X167647619Y-75406680D02*
X167742857Y-75454299D01*
X167742857Y-75454299D02*
X167980952Y-75454299D01*
X167980952Y-75454299D02*
X168076190Y-75406680D01*
X168076190Y-75406680D02*
X168123809Y-75359060D01*
X167171428Y-74549537D02*
X167123809Y-74501918D01*
X167123809Y-74501918D02*
X167028571Y-74454299D01*
X167028571Y-74454299D02*
X166790476Y-74454299D01*
X166790476Y-74454299D02*
X166695238Y-74501918D01*
X166695238Y-74501918D02*
X166647619Y-74549537D01*
X166647619Y-74549537D02*
X166600000Y-74644775D01*
X166600000Y-74644775D02*
X166600000Y-74740013D01*
X166600000Y-74740013D02*
X166647619Y-74882870D01*
X166647619Y-74882870D02*
X167219047Y-75454299D01*
X167219047Y-75454299D02*
X166600000Y-75454299D01*
X145254299Y-71447619D02*
X144254299Y-71447619D01*
X144730489Y-71447619D02*
X144730489Y-72019047D01*
X145254299Y-72019047D02*
X144254299Y-72019047D01*
X144349537Y-72447619D02*
X144301918Y-72495238D01*
X144301918Y-72495238D02*
X144254299Y-72590476D01*
X144254299Y-72590476D02*
X144254299Y-72828571D01*
X144254299Y-72828571D02*
X144301918Y-72923809D01*
X144301918Y-72923809D02*
X144349537Y-72971428D01*
X144349537Y-72971428D02*
X144444775Y-73019047D01*
X144444775Y-73019047D02*
X144540013Y-73019047D01*
X144540013Y-73019047D02*
X144682870Y-72971428D01*
X144682870Y-72971428D02*
X145254299Y-72400000D01*
X145254299Y-72400000D02*
X145254299Y-73019047D01*
X145159060Y-73447619D02*
X145206680Y-73495238D01*
X145206680Y-73495238D02*
X145254299Y-73447619D01*
X145254299Y-73447619D02*
X145206680Y-73400000D01*
X145206680Y-73400000D02*
X145159060Y-73447619D01*
X145159060Y-73447619D02*
X145254299Y-73447619D01*
X145254299Y-74447618D02*
X145254299Y-73876190D01*
X145254299Y-74161904D02*
X144254299Y-74161904D01*
X144254299Y-74161904D02*
X144397156Y-74066666D01*
X144397156Y-74066666D02*
X144492394Y-73971428D01*
X144492394Y-73971428D02*
X144540013Y-73876190D01*
X144587632Y-75304761D02*
X145254299Y-75304761D01*
X144206680Y-75066666D02*
X144920965Y-74828571D01*
X144920965Y-74828571D02*
X144920965Y-75447618D01*
X159952380Y-90554299D02*
X159952380Y-89554299D01*
X159952380Y-90030489D02*
X159380952Y-90030489D01*
X159380952Y-90554299D02*
X159380952Y-89554299D01*
X158952380Y-89649537D02*
X158904761Y-89601918D01*
X158904761Y-89601918D02*
X158809523Y-89554299D01*
X158809523Y-89554299D02*
X158571428Y-89554299D01*
X158571428Y-89554299D02*
X158476190Y-89601918D01*
X158476190Y-89601918D02*
X158428571Y-89649537D01*
X158428571Y-89649537D02*
X158380952Y-89744775D01*
X158380952Y-89744775D02*
X158380952Y-89840013D01*
X158380952Y-89840013D02*
X158428571Y-89982870D01*
X158428571Y-89982870D02*
X158999999Y-90554299D01*
X158999999Y-90554299D02*
X158380952Y-90554299D01*
X157952380Y-90459060D02*
X157904761Y-90506680D01*
X157904761Y-90506680D02*
X157952380Y-90554299D01*
X157952380Y-90554299D02*
X157999999Y-90506680D01*
X157999999Y-90506680D02*
X157952380Y-90459060D01*
X157952380Y-90459060D02*
X157952380Y-90554299D01*
X157523809Y-89649537D02*
X157476190Y-89601918D01*
X157476190Y-89601918D02*
X157380952Y-89554299D01*
X157380952Y-89554299D02*
X157142857Y-89554299D01*
X157142857Y-89554299D02*
X157047619Y-89601918D01*
X157047619Y-89601918D02*
X157000000Y-89649537D01*
X157000000Y-89649537D02*
X156952381Y-89744775D01*
X156952381Y-89744775D02*
X156952381Y-89840013D01*
X156952381Y-89840013D02*
X157000000Y-89982870D01*
X157000000Y-89982870D02*
X157571428Y-90554299D01*
X157571428Y-90554299D02*
X156952381Y-90554299D01*
X156619047Y-89554299D02*
X155952381Y-89554299D01*
X155952381Y-89554299D02*
X156380952Y-90554299D01*
X181052380Y-90554299D02*
X181052380Y-89554299D01*
X181052380Y-90030489D02*
X180480952Y-90030489D01*
X180480952Y-90554299D02*
X180480952Y-89554299D01*
X179480952Y-90554299D02*
X180052380Y-90554299D01*
X179766666Y-90554299D02*
X179766666Y-89554299D01*
X179766666Y-89554299D02*
X179861904Y-89697156D01*
X179861904Y-89697156D02*
X179957142Y-89792394D01*
X179957142Y-89792394D02*
X180052380Y-89840013D01*
X179052380Y-90459060D02*
X179004761Y-90506680D01*
X179004761Y-90506680D02*
X179052380Y-90554299D01*
X179052380Y-90554299D02*
X179099999Y-90506680D01*
X179099999Y-90506680D02*
X179052380Y-90459060D01*
X179052380Y-90459060D02*
X179052380Y-90554299D01*
X178147619Y-89887632D02*
X178147619Y-90554299D01*
X178385714Y-89506680D02*
X178623809Y-90220965D01*
X178623809Y-90220965D02*
X178004762Y-90220965D01*
X177433333Y-89554299D02*
X177338095Y-89554299D01*
X177338095Y-89554299D02*
X177242857Y-89601918D01*
X177242857Y-89601918D02*
X177195238Y-89649537D01*
X177195238Y-89649537D02*
X177147619Y-89744775D01*
X177147619Y-89744775D02*
X177100000Y-89935251D01*
X177100000Y-89935251D02*
X177100000Y-90173346D01*
X177100000Y-90173346D02*
X177147619Y-90363822D01*
X177147619Y-90363822D02*
X177195238Y-90459060D01*
X177195238Y-90459060D02*
X177242857Y-90506680D01*
X177242857Y-90506680D02*
X177338095Y-90554299D01*
X177338095Y-90554299D02*
X177433333Y-90554299D01*
X177433333Y-90554299D02*
X177528571Y-90506680D01*
X177528571Y-90506680D02*
X177576190Y-90459060D01*
X177576190Y-90459060D02*
X177623809Y-90363822D01*
X177623809Y-90363822D02*
X177671428Y-90173346D01*
X177671428Y-90173346D02*
X177671428Y-89935251D01*
X177671428Y-89935251D02*
X177623809Y-89744775D01*
X177623809Y-89744775D02*
X177576190Y-89649537D01*
X177576190Y-89649537D02*
X177528571Y-89601918D01*
X177528571Y-89601918D02*
X177433333Y-89554299D01*
X149454299Y-89747619D02*
X148454299Y-89747619D01*
X148930489Y-89747619D02*
X148930489Y-90319047D01*
X149454299Y-90319047D02*
X148454299Y-90319047D01*
X149454299Y-91319047D02*
X149454299Y-90747619D01*
X149454299Y-91033333D02*
X148454299Y-91033333D01*
X148454299Y-91033333D02*
X148597156Y-90938095D01*
X148597156Y-90938095D02*
X148692394Y-90842857D01*
X148692394Y-90842857D02*
X148740013Y-90747619D01*
X149359060Y-91747619D02*
X149406680Y-91795238D01*
X149406680Y-91795238D02*
X149454299Y-91747619D01*
X149454299Y-91747619D02*
X149406680Y-91700000D01*
X149406680Y-91700000D02*
X149359060Y-91747619D01*
X149359060Y-91747619D02*
X149454299Y-91747619D01*
X148549537Y-92176190D02*
X148501918Y-92223809D01*
X148501918Y-92223809D02*
X148454299Y-92319047D01*
X148454299Y-92319047D02*
X148454299Y-92557142D01*
X148454299Y-92557142D02*
X148501918Y-92652380D01*
X148501918Y-92652380D02*
X148549537Y-92699999D01*
X148549537Y-92699999D02*
X148644775Y-92747618D01*
X148644775Y-92747618D02*
X148740013Y-92747618D01*
X148740013Y-92747618D02*
X148882870Y-92699999D01*
X148882870Y-92699999D02*
X149454299Y-92128571D01*
X149454299Y-92128571D02*
X149454299Y-92747618D01*
X148454299Y-93080952D02*
X148454299Y-93747618D01*
X148454299Y-93747618D02*
X149454299Y-93319047D01*
X116652380Y-90454299D02*
X116652380Y-89454299D01*
X116652380Y-89930489D02*
X116080952Y-89930489D01*
X116080952Y-90454299D02*
X116080952Y-89454299D01*
X115080952Y-90454299D02*
X115652380Y-90454299D01*
X115366666Y-90454299D02*
X115366666Y-89454299D01*
X115366666Y-89454299D02*
X115461904Y-89597156D01*
X115461904Y-89597156D02*
X115557142Y-89692394D01*
X115557142Y-89692394D02*
X115652380Y-89740013D01*
X114652380Y-90359060D02*
X114604761Y-90406680D01*
X114604761Y-90406680D02*
X114652380Y-90454299D01*
X114652380Y-90454299D02*
X114699999Y-90406680D01*
X114699999Y-90406680D02*
X114652380Y-90359060D01*
X114652380Y-90359060D02*
X114652380Y-90454299D01*
X113652381Y-90454299D02*
X114223809Y-90454299D01*
X113938095Y-90454299D02*
X113938095Y-89454299D01*
X113938095Y-89454299D02*
X114033333Y-89597156D01*
X114033333Y-89597156D02*
X114128571Y-89692394D01*
X114128571Y-89692394D02*
X114223809Y-89740013D01*
X113319047Y-89454299D02*
X112700000Y-89454299D01*
X112700000Y-89454299D02*
X113033333Y-89835251D01*
X113033333Y-89835251D02*
X112890476Y-89835251D01*
X112890476Y-89835251D02*
X112795238Y-89882870D01*
X112795238Y-89882870D02*
X112747619Y-89930489D01*
X112747619Y-89930489D02*
X112700000Y-90025727D01*
X112700000Y-90025727D02*
X112700000Y-90263822D01*
X112700000Y-90263822D02*
X112747619Y-90359060D01*
X112747619Y-90359060D02*
X112795238Y-90406680D01*
X112795238Y-90406680D02*
X112890476Y-90454299D01*
X112890476Y-90454299D02*
X113176190Y-90454299D01*
X113176190Y-90454299D02*
X113271428Y-90406680D01*
X113271428Y-90406680D02*
X113319047Y-90359060D01*
X181052380Y-75454299D02*
X181052380Y-74454299D01*
X181052380Y-74930489D02*
X180480952Y-74930489D01*
X180480952Y-75454299D02*
X180480952Y-74454299D01*
X179480952Y-75454299D02*
X180052380Y-75454299D01*
X179766666Y-75454299D02*
X179766666Y-74454299D01*
X179766666Y-74454299D02*
X179861904Y-74597156D01*
X179861904Y-74597156D02*
X179957142Y-74692394D01*
X179957142Y-74692394D02*
X180052380Y-74740013D01*
X179052380Y-75359060D02*
X179004761Y-75406680D01*
X179004761Y-75406680D02*
X179052380Y-75454299D01*
X179052380Y-75454299D02*
X179099999Y-75406680D01*
X179099999Y-75406680D02*
X179052380Y-75359060D01*
X179052380Y-75359060D02*
X179052380Y-75454299D01*
X178100000Y-74454299D02*
X178576190Y-74454299D01*
X178576190Y-74454299D02*
X178623809Y-74930489D01*
X178623809Y-74930489D02*
X178576190Y-74882870D01*
X178576190Y-74882870D02*
X178480952Y-74835251D01*
X178480952Y-74835251D02*
X178242857Y-74835251D01*
X178242857Y-74835251D02*
X178147619Y-74882870D01*
X178147619Y-74882870D02*
X178100000Y-74930489D01*
X178100000Y-74930489D02*
X178052381Y-75025727D01*
X178052381Y-75025727D02*
X178052381Y-75263822D01*
X178052381Y-75263822D02*
X178100000Y-75359060D01*
X178100000Y-75359060D02*
X178147619Y-75406680D01*
X178147619Y-75406680D02*
X178242857Y-75454299D01*
X178242857Y-75454299D02*
X178480952Y-75454299D01*
X178480952Y-75454299D02*
X178576190Y-75406680D01*
X178576190Y-75406680D02*
X178623809Y-75359060D01*
X177671428Y-74549537D02*
X177623809Y-74501918D01*
X177623809Y-74501918D02*
X177528571Y-74454299D01*
X177528571Y-74454299D02*
X177290476Y-74454299D01*
X177290476Y-74454299D02*
X177195238Y-74501918D01*
X177195238Y-74501918D02*
X177147619Y-74549537D01*
X177147619Y-74549537D02*
X177100000Y-74644775D01*
X177100000Y-74644775D02*
X177100000Y-74740013D01*
X177100000Y-74740013D02*
X177147619Y-74882870D01*
X177147619Y-74882870D02*
X177719047Y-75454299D01*
X177719047Y-75454299D02*
X177100000Y-75454299D01*
X160052380Y-75554299D02*
X160052380Y-74554299D01*
X160052380Y-75030489D02*
X159480952Y-75030489D01*
X159480952Y-75554299D02*
X159480952Y-74554299D01*
X159052380Y-74649537D02*
X159004761Y-74601918D01*
X159004761Y-74601918D02*
X158909523Y-74554299D01*
X158909523Y-74554299D02*
X158671428Y-74554299D01*
X158671428Y-74554299D02*
X158576190Y-74601918D01*
X158576190Y-74601918D02*
X158528571Y-74649537D01*
X158528571Y-74649537D02*
X158480952Y-74744775D01*
X158480952Y-74744775D02*
X158480952Y-74840013D01*
X158480952Y-74840013D02*
X158528571Y-74982870D01*
X158528571Y-74982870D02*
X159099999Y-75554299D01*
X159099999Y-75554299D02*
X158480952Y-75554299D01*
X158052380Y-75459060D02*
X158004761Y-75506680D01*
X158004761Y-75506680D02*
X158052380Y-75554299D01*
X158052380Y-75554299D02*
X158099999Y-75506680D01*
X158099999Y-75506680D02*
X158052380Y-75459060D01*
X158052380Y-75459060D02*
X158052380Y-75554299D01*
X157671428Y-74554299D02*
X157052381Y-74554299D01*
X157052381Y-74554299D02*
X157385714Y-74935251D01*
X157385714Y-74935251D02*
X157242857Y-74935251D01*
X157242857Y-74935251D02*
X157147619Y-74982870D01*
X157147619Y-74982870D02*
X157100000Y-75030489D01*
X157100000Y-75030489D02*
X157052381Y-75125727D01*
X157052381Y-75125727D02*
X157052381Y-75363822D01*
X157052381Y-75363822D02*
X157100000Y-75459060D01*
X157100000Y-75459060D02*
X157147619Y-75506680D01*
X157147619Y-75506680D02*
X157242857Y-75554299D01*
X157242857Y-75554299D02*
X157528571Y-75554299D01*
X157528571Y-75554299D02*
X157623809Y-75506680D01*
X157623809Y-75506680D02*
X157671428Y-75459060D01*
X156576190Y-75554299D02*
X156385714Y-75554299D01*
X156385714Y-75554299D02*
X156290476Y-75506680D01*
X156290476Y-75506680D02*
X156242857Y-75459060D01*
X156242857Y-75459060D02*
X156147619Y-75316203D01*
X156147619Y-75316203D02*
X156100000Y-75125727D01*
X156100000Y-75125727D02*
X156100000Y-74744775D01*
X156100000Y-74744775D02*
X156147619Y-74649537D01*
X156147619Y-74649537D02*
X156195238Y-74601918D01*
X156195238Y-74601918D02*
X156290476Y-74554299D01*
X156290476Y-74554299D02*
X156480952Y-74554299D01*
X156480952Y-74554299D02*
X156576190Y-74601918D01*
X156576190Y-74601918D02*
X156623809Y-74649537D01*
X156623809Y-74649537D02*
X156671428Y-74744775D01*
X156671428Y-74744775D02*
X156671428Y-74982870D01*
X156671428Y-74982870D02*
X156623809Y-75078108D01*
X156623809Y-75078108D02*
X156576190Y-75125727D01*
X156576190Y-75125727D02*
X156480952Y-75173346D01*
X156480952Y-75173346D02*
X156290476Y-75173346D01*
X156290476Y-75173346D02*
X156195238Y-75125727D01*
X156195238Y-75125727D02*
X156147619Y-75078108D01*
X156147619Y-75078108D02*
X156100000Y-74982870D01*
X145354299Y-89747619D02*
X144354299Y-89747619D01*
X144830489Y-89747619D02*
X144830489Y-90319047D01*
X145354299Y-90319047D02*
X144354299Y-90319047D01*
X144449537Y-90747619D02*
X144401918Y-90795238D01*
X144401918Y-90795238D02*
X144354299Y-90890476D01*
X144354299Y-90890476D02*
X144354299Y-91128571D01*
X144354299Y-91128571D02*
X144401918Y-91223809D01*
X144401918Y-91223809D02*
X144449537Y-91271428D01*
X144449537Y-91271428D02*
X144544775Y-91319047D01*
X144544775Y-91319047D02*
X144640013Y-91319047D01*
X144640013Y-91319047D02*
X144782870Y-91271428D01*
X144782870Y-91271428D02*
X145354299Y-90700000D01*
X145354299Y-90700000D02*
X145354299Y-91319047D01*
X145259060Y-91747619D02*
X145306680Y-91795238D01*
X145306680Y-91795238D02*
X145354299Y-91747619D01*
X145354299Y-91747619D02*
X145306680Y-91700000D01*
X145306680Y-91700000D02*
X145259060Y-91747619D01*
X145259060Y-91747619D02*
X145354299Y-91747619D01*
X144449537Y-92176190D02*
X144401918Y-92223809D01*
X144401918Y-92223809D02*
X144354299Y-92319047D01*
X144354299Y-92319047D02*
X144354299Y-92557142D01*
X144354299Y-92557142D02*
X144401918Y-92652380D01*
X144401918Y-92652380D02*
X144449537Y-92699999D01*
X144449537Y-92699999D02*
X144544775Y-92747618D01*
X144544775Y-92747618D02*
X144640013Y-92747618D01*
X144640013Y-92747618D02*
X144782870Y-92699999D01*
X144782870Y-92699999D02*
X145354299Y-92128571D01*
X145354299Y-92128571D02*
X145354299Y-92747618D01*
X144354299Y-93604761D02*
X144354299Y-93414285D01*
X144354299Y-93414285D02*
X144401918Y-93319047D01*
X144401918Y-93319047D02*
X144449537Y-93271428D01*
X144449537Y-93271428D02*
X144592394Y-93176190D01*
X144592394Y-93176190D02*
X144782870Y-93128571D01*
X144782870Y-93128571D02*
X145163822Y-93128571D01*
X145163822Y-93128571D02*
X145259060Y-93176190D01*
X145259060Y-93176190D02*
X145306680Y-93223809D01*
X145306680Y-93223809D02*
X145354299Y-93319047D01*
X145354299Y-93319047D02*
X145354299Y-93509523D01*
X145354299Y-93509523D02*
X145306680Y-93604761D01*
X145306680Y-93604761D02*
X145259060Y-93652380D01*
X145259060Y-93652380D02*
X145163822Y-93699999D01*
X145163822Y-93699999D02*
X144925727Y-93699999D01*
X144925727Y-93699999D02*
X144830489Y-93652380D01*
X144830489Y-93652380D02*
X144782870Y-93604761D01*
X144782870Y-93604761D02*
X144735251Y-93509523D01*
X144735251Y-93509523D02*
X144735251Y-93319047D01*
X144735251Y-93319047D02*
X144782870Y-93223809D01*
X144782870Y-93223809D02*
X144830489Y-93176190D01*
X144830489Y-93176190D02*
X144925727Y-93128571D01*
X127152380Y-90454299D02*
X127152380Y-89454299D01*
X127152380Y-89930489D02*
X126580952Y-89930489D01*
X126580952Y-90454299D02*
X126580952Y-89454299D01*
X126152380Y-89549537D02*
X126104761Y-89501918D01*
X126104761Y-89501918D02*
X126009523Y-89454299D01*
X126009523Y-89454299D02*
X125771428Y-89454299D01*
X125771428Y-89454299D02*
X125676190Y-89501918D01*
X125676190Y-89501918D02*
X125628571Y-89549537D01*
X125628571Y-89549537D02*
X125580952Y-89644775D01*
X125580952Y-89644775D02*
X125580952Y-89740013D01*
X125580952Y-89740013D02*
X125628571Y-89882870D01*
X125628571Y-89882870D02*
X126199999Y-90454299D01*
X126199999Y-90454299D02*
X125580952Y-90454299D01*
X125152380Y-90359060D02*
X125104761Y-90406680D01*
X125104761Y-90406680D02*
X125152380Y-90454299D01*
X125152380Y-90454299D02*
X125199999Y-90406680D01*
X125199999Y-90406680D02*
X125152380Y-90359060D01*
X125152380Y-90359060D02*
X125152380Y-90454299D01*
X124152381Y-90454299D02*
X124723809Y-90454299D01*
X124438095Y-90454299D02*
X124438095Y-89454299D01*
X124438095Y-89454299D02*
X124533333Y-89597156D01*
X124533333Y-89597156D02*
X124628571Y-89692394D01*
X124628571Y-89692394D02*
X124723809Y-89740013D01*
X123819047Y-89454299D02*
X123200000Y-89454299D01*
X123200000Y-89454299D02*
X123533333Y-89835251D01*
X123533333Y-89835251D02*
X123390476Y-89835251D01*
X123390476Y-89835251D02*
X123295238Y-89882870D01*
X123295238Y-89882870D02*
X123247619Y-89930489D01*
X123247619Y-89930489D02*
X123200000Y-90025727D01*
X123200000Y-90025727D02*
X123200000Y-90263822D01*
X123200000Y-90263822D02*
X123247619Y-90359060D01*
X123247619Y-90359060D02*
X123295238Y-90406680D01*
X123295238Y-90406680D02*
X123390476Y-90454299D01*
X123390476Y-90454299D02*
X123676190Y-90454299D01*
X123676190Y-90454299D02*
X123771428Y-90406680D01*
X123771428Y-90406680D02*
X123819047Y-90359060D01*
X149554299Y-71347619D02*
X148554299Y-71347619D01*
X149030489Y-71347619D02*
X149030489Y-71919047D01*
X149554299Y-71919047D02*
X148554299Y-71919047D01*
X149554299Y-72919047D02*
X149554299Y-72347619D01*
X149554299Y-72633333D02*
X148554299Y-72633333D01*
X148554299Y-72633333D02*
X148697156Y-72538095D01*
X148697156Y-72538095D02*
X148792394Y-72442857D01*
X148792394Y-72442857D02*
X148840013Y-72347619D01*
X149459060Y-73347619D02*
X149506680Y-73395238D01*
X149506680Y-73395238D02*
X149554299Y-73347619D01*
X149554299Y-73347619D02*
X149506680Y-73300000D01*
X149506680Y-73300000D02*
X149459060Y-73347619D01*
X149459060Y-73347619D02*
X149554299Y-73347619D01*
X148554299Y-73728571D02*
X148554299Y-74347618D01*
X148554299Y-74347618D02*
X148935251Y-74014285D01*
X148935251Y-74014285D02*
X148935251Y-74157142D01*
X148935251Y-74157142D02*
X148982870Y-74252380D01*
X148982870Y-74252380D02*
X149030489Y-74299999D01*
X149030489Y-74299999D02*
X149125727Y-74347618D01*
X149125727Y-74347618D02*
X149363822Y-74347618D01*
X149363822Y-74347618D02*
X149459060Y-74299999D01*
X149459060Y-74299999D02*
X149506680Y-74252380D01*
X149506680Y-74252380D02*
X149554299Y-74157142D01*
X149554299Y-74157142D02*
X149554299Y-73871428D01*
X149554299Y-73871428D02*
X149506680Y-73776190D01*
X149506680Y-73776190D02*
X149459060Y-73728571D01*
X149554299Y-74823809D02*
X149554299Y-75014285D01*
X149554299Y-75014285D02*
X149506680Y-75109523D01*
X149506680Y-75109523D02*
X149459060Y-75157142D01*
X149459060Y-75157142D02*
X149316203Y-75252380D01*
X149316203Y-75252380D02*
X149125727Y-75299999D01*
X149125727Y-75299999D02*
X148744775Y-75299999D01*
X148744775Y-75299999D02*
X148649537Y-75252380D01*
X148649537Y-75252380D02*
X148601918Y-75204761D01*
X148601918Y-75204761D02*
X148554299Y-75109523D01*
X148554299Y-75109523D02*
X148554299Y-74919047D01*
X148554299Y-74919047D02*
X148601918Y-74823809D01*
X148601918Y-74823809D02*
X148649537Y-74776190D01*
X148649537Y-74776190D02*
X148744775Y-74728571D01*
X148744775Y-74728571D02*
X148982870Y-74728571D01*
X148982870Y-74728571D02*
X149078108Y-74776190D01*
X149078108Y-74776190D02*
X149125727Y-74823809D01*
X149125727Y-74823809D02*
X149173346Y-74919047D01*
X149173346Y-74919047D02*
X149173346Y-75109523D01*
X149173346Y-75109523D02*
X149125727Y-75204761D01*
X149125727Y-75204761D02*
X149078108Y-75252380D01*
X149078108Y-75252380D02*
X148982870Y-75299999D01*
X170552380Y-90554299D02*
X170552380Y-89554299D01*
X170552380Y-90030489D02*
X169980952Y-90030489D01*
X169980952Y-90554299D02*
X169980952Y-89554299D01*
X169552380Y-89649537D02*
X169504761Y-89601918D01*
X169504761Y-89601918D02*
X169409523Y-89554299D01*
X169409523Y-89554299D02*
X169171428Y-89554299D01*
X169171428Y-89554299D02*
X169076190Y-89601918D01*
X169076190Y-89601918D02*
X169028571Y-89649537D01*
X169028571Y-89649537D02*
X168980952Y-89744775D01*
X168980952Y-89744775D02*
X168980952Y-89840013D01*
X168980952Y-89840013D02*
X169028571Y-89982870D01*
X169028571Y-89982870D02*
X169599999Y-90554299D01*
X169599999Y-90554299D02*
X168980952Y-90554299D01*
X168552380Y-90459060D02*
X168504761Y-90506680D01*
X168504761Y-90506680D02*
X168552380Y-90554299D01*
X168552380Y-90554299D02*
X168599999Y-90506680D01*
X168599999Y-90506680D02*
X168552380Y-90459060D01*
X168552380Y-90459060D02*
X168552380Y-90554299D01*
X167647619Y-89887632D02*
X167647619Y-90554299D01*
X167885714Y-89506680D02*
X168123809Y-90220965D01*
X168123809Y-90220965D02*
X167504762Y-90220965D01*
X166933333Y-89554299D02*
X166838095Y-89554299D01*
X166838095Y-89554299D02*
X166742857Y-89601918D01*
X166742857Y-89601918D02*
X166695238Y-89649537D01*
X166695238Y-89649537D02*
X166647619Y-89744775D01*
X166647619Y-89744775D02*
X166600000Y-89935251D01*
X166600000Y-89935251D02*
X166600000Y-90173346D01*
X166600000Y-90173346D02*
X166647619Y-90363822D01*
X166647619Y-90363822D02*
X166695238Y-90459060D01*
X166695238Y-90459060D02*
X166742857Y-90506680D01*
X166742857Y-90506680D02*
X166838095Y-90554299D01*
X166838095Y-90554299D02*
X166933333Y-90554299D01*
X166933333Y-90554299D02*
X167028571Y-90506680D01*
X167028571Y-90506680D02*
X167076190Y-90459060D01*
X167076190Y-90459060D02*
X167123809Y-90363822D01*
X167123809Y-90363822D02*
X167171428Y-90173346D01*
X167171428Y-90173346D02*
X167171428Y-89935251D01*
X167171428Y-89935251D02*
X167123809Y-89744775D01*
X167123809Y-89744775D02*
X167076190Y-89649537D01*
X167076190Y-89649537D02*
X167028571Y-89601918D01*
X167028571Y-89601918D02*
X166933333Y-89554299D01*
X126176189Y-75554299D02*
X126176189Y-74554299D01*
X126176189Y-75030489D02*
X125604761Y-75030489D01*
X125604761Y-75554299D02*
X125604761Y-74554299D01*
X125176189Y-74649537D02*
X125128570Y-74601918D01*
X125128570Y-74601918D02*
X125033332Y-74554299D01*
X125033332Y-74554299D02*
X124795237Y-74554299D01*
X124795237Y-74554299D02*
X124699999Y-74601918D01*
X124699999Y-74601918D02*
X124652380Y-74649537D01*
X124652380Y-74649537D02*
X124604761Y-74744775D01*
X124604761Y-74744775D02*
X124604761Y-74840013D01*
X124604761Y-74840013D02*
X124652380Y-74982870D01*
X124652380Y-74982870D02*
X125223808Y-75554299D01*
X125223808Y-75554299D02*
X124604761Y-75554299D01*
X124176189Y-75459060D02*
X124128570Y-75506680D01*
X124128570Y-75506680D02*
X124176189Y-75554299D01*
X124176189Y-75554299D02*
X124223808Y-75506680D01*
X124223808Y-75506680D02*
X124176189Y-75459060D01*
X124176189Y-75459060D02*
X124176189Y-75554299D01*
X123176190Y-75554299D02*
X123747618Y-75554299D01*
X123461904Y-75554299D02*
X123461904Y-74554299D01*
X123461904Y-74554299D02*
X123557142Y-74697156D01*
X123557142Y-74697156D02*
X123652380Y-74792394D01*
X123652380Y-74792394D02*
X123747618Y-74840013D01*
X137652380Y-75554299D02*
X137652380Y-74554299D01*
X137652380Y-75030489D02*
X137080952Y-75030489D01*
X137080952Y-75554299D02*
X137080952Y-74554299D01*
X136080952Y-75554299D02*
X136652380Y-75554299D01*
X136366666Y-75554299D02*
X136366666Y-74554299D01*
X136366666Y-74554299D02*
X136461904Y-74697156D01*
X136461904Y-74697156D02*
X136557142Y-74792394D01*
X136557142Y-74792394D02*
X136652380Y-74840013D01*
X135652380Y-75459060D02*
X135604761Y-75506680D01*
X135604761Y-75506680D02*
X135652380Y-75554299D01*
X135652380Y-75554299D02*
X135699999Y-75506680D01*
X135699999Y-75506680D02*
X135652380Y-75459060D01*
X135652380Y-75459060D02*
X135652380Y-75554299D01*
X134652381Y-75554299D02*
X135223809Y-75554299D01*
X134938095Y-75554299D02*
X134938095Y-74554299D01*
X134938095Y-74554299D02*
X135033333Y-74697156D01*
X135033333Y-74697156D02*
X135128571Y-74792394D01*
X135128571Y-74792394D02*
X135223809Y-74840013D01*
X133795238Y-74887632D02*
X133795238Y-75554299D01*
X134033333Y-74506680D02*
X134271428Y-75220965D01*
X134271428Y-75220965D02*
X133652381Y-75220965D01*
X137652380Y-90454299D02*
X137652380Y-89454299D01*
X137652380Y-89930489D02*
X137080952Y-89930489D01*
X137080952Y-90454299D02*
X137080952Y-89454299D01*
X136080952Y-90454299D02*
X136652380Y-90454299D01*
X136366666Y-90454299D02*
X136366666Y-89454299D01*
X136366666Y-89454299D02*
X136461904Y-89597156D01*
X136461904Y-89597156D02*
X136557142Y-89692394D01*
X136557142Y-89692394D02*
X136652380Y-89740013D01*
X135652380Y-90359060D02*
X135604761Y-90406680D01*
X135604761Y-90406680D02*
X135652380Y-90454299D01*
X135652380Y-90454299D02*
X135699999Y-90406680D01*
X135699999Y-90406680D02*
X135652380Y-90359060D01*
X135652380Y-90359060D02*
X135652380Y-90454299D01*
X135223809Y-89549537D02*
X135176190Y-89501918D01*
X135176190Y-89501918D02*
X135080952Y-89454299D01*
X135080952Y-89454299D02*
X134842857Y-89454299D01*
X134842857Y-89454299D02*
X134747619Y-89501918D01*
X134747619Y-89501918D02*
X134700000Y-89549537D01*
X134700000Y-89549537D02*
X134652381Y-89644775D01*
X134652381Y-89644775D02*
X134652381Y-89740013D01*
X134652381Y-89740013D02*
X134700000Y-89882870D01*
X134700000Y-89882870D02*
X135271428Y-90454299D01*
X135271428Y-90454299D02*
X134652381Y-90454299D01*
X133795238Y-89454299D02*
X133985714Y-89454299D01*
X133985714Y-89454299D02*
X134080952Y-89501918D01*
X134080952Y-89501918D02*
X134128571Y-89549537D01*
X134128571Y-89549537D02*
X134223809Y-89692394D01*
X134223809Y-89692394D02*
X134271428Y-89882870D01*
X134271428Y-89882870D02*
X134271428Y-90263822D01*
X134271428Y-90263822D02*
X134223809Y-90359060D01*
X134223809Y-90359060D02*
X134176190Y-90406680D01*
X134176190Y-90406680D02*
X134080952Y-90454299D01*
X134080952Y-90454299D02*
X133890476Y-90454299D01*
X133890476Y-90454299D02*
X133795238Y-90406680D01*
X133795238Y-90406680D02*
X133747619Y-90359060D01*
X133747619Y-90359060D02*
X133700000Y-90263822D01*
X133700000Y-90263822D02*
X133700000Y-90025727D01*
X133700000Y-90025727D02*
X133747619Y-89930489D01*
X133747619Y-89930489D02*
X133795238Y-89882870D01*
X133795238Y-89882870D02*
X133890476Y-89835251D01*
X133890476Y-89835251D02*
X134080952Y-89835251D01*
X134080952Y-89835251D02*
X134176190Y-89882870D01*
X134176190Y-89882870D02*
X134223809Y-89930489D01*
X134223809Y-89930489D02*
X134271428Y-90025727D01*
X115676189Y-75554299D02*
X115676189Y-74554299D01*
X115676189Y-75030489D02*
X115104761Y-75030489D01*
X115104761Y-75554299D02*
X115104761Y-74554299D01*
X114104761Y-75554299D02*
X114676189Y-75554299D01*
X114390475Y-75554299D02*
X114390475Y-74554299D01*
X114390475Y-74554299D02*
X114485713Y-74697156D01*
X114485713Y-74697156D02*
X114580951Y-74792394D01*
X114580951Y-74792394D02*
X114676189Y-74840013D01*
X113676189Y-75459060D02*
X113628570Y-75506680D01*
X113628570Y-75506680D02*
X113676189Y-75554299D01*
X113676189Y-75554299D02*
X113723808Y-75506680D01*
X113723808Y-75506680D02*
X113676189Y-75459060D01*
X113676189Y-75459060D02*
X113676189Y-75554299D01*
X112676190Y-75554299D02*
X113247618Y-75554299D01*
X112961904Y-75554299D02*
X112961904Y-74554299D01*
X112961904Y-74554299D02*
X113057142Y-74697156D01*
X113057142Y-74697156D02*
X113152380Y-74792394D01*
X113152380Y-74792394D02*
X113247618Y-74840013D01*
X147233333Y-51854299D02*
X147233333Y-52568584D01*
X147233333Y-52568584D02*
X147280952Y-52711441D01*
X147280952Y-52711441D02*
X147376190Y-52806680D01*
X147376190Y-52806680D02*
X147519047Y-52854299D01*
X147519047Y-52854299D02*
X147614285Y-52854299D01*
X146709523Y-52854299D02*
X146519047Y-52854299D01*
X146519047Y-52854299D02*
X146423809Y-52806680D01*
X146423809Y-52806680D02*
X146376190Y-52759060D01*
X146376190Y-52759060D02*
X146280952Y-52616203D01*
X146280952Y-52616203D02*
X146233333Y-52425727D01*
X146233333Y-52425727D02*
X146233333Y-52044775D01*
X146233333Y-52044775D02*
X146280952Y-51949537D01*
X146280952Y-51949537D02*
X146328571Y-51901918D01*
X146328571Y-51901918D02*
X146423809Y-51854299D01*
X146423809Y-51854299D02*
X146614285Y-51854299D01*
X146614285Y-51854299D02*
X146709523Y-51901918D01*
X146709523Y-51901918D02*
X146757142Y-51949537D01*
X146757142Y-51949537D02*
X146804761Y-52044775D01*
X146804761Y-52044775D02*
X146804761Y-52282870D01*
X146804761Y-52282870D02*
X146757142Y-52378108D01*
X146757142Y-52378108D02*
X146709523Y-52425727D01*
X146709523Y-52425727D02*
X146614285Y-52473346D01*
X146614285Y-52473346D02*
X146423809Y-52473346D01*
X146423809Y-52473346D02*
X146328571Y-52425727D01*
X146328571Y-52425727D02*
X146280952Y-52378108D01*
X146280952Y-52378108D02*
X146233333Y-52282870D01*
X147709523Y-64454299D02*
X147709523Y-65168584D01*
X147709523Y-65168584D02*
X147757142Y-65311441D01*
X147757142Y-65311441D02*
X147852380Y-65406680D01*
X147852380Y-65406680D02*
X147995237Y-65454299D01*
X147995237Y-65454299D02*
X148090475Y-65454299D01*
X146709523Y-65454299D02*
X147280951Y-65454299D01*
X146995237Y-65454299D02*
X146995237Y-64454299D01*
X146995237Y-64454299D02*
X147090475Y-64597156D01*
X147090475Y-64597156D02*
X147185713Y-64692394D01*
X147185713Y-64692394D02*
X147280951Y-64740013D01*
X146090475Y-64454299D02*
X145995237Y-64454299D01*
X145995237Y-64454299D02*
X145899999Y-64501918D01*
X145899999Y-64501918D02*
X145852380Y-64549537D01*
X145852380Y-64549537D02*
X145804761Y-64644775D01*
X145804761Y-64644775D02*
X145757142Y-64835251D01*
X145757142Y-64835251D02*
X145757142Y-65073346D01*
X145757142Y-65073346D02*
X145804761Y-65263822D01*
X145804761Y-65263822D02*
X145852380Y-65359060D01*
X145852380Y-65359060D02*
X145899999Y-65406680D01*
X145899999Y-65406680D02*
X145995237Y-65454299D01*
X145995237Y-65454299D02*
X146090475Y-65454299D01*
X146090475Y-65454299D02*
X146185713Y-65406680D01*
X146185713Y-65406680D02*
X146233332Y-65359060D01*
X146233332Y-65359060D02*
X146280951Y-65263822D01*
X146280951Y-65263822D02*
X146328570Y-65073346D01*
X146328570Y-65073346D02*
X146328570Y-64835251D01*
X146328570Y-64835251D02*
X146280951Y-64644775D01*
X146280951Y-64644775D02*
X146233332Y-64549537D01*
X146233332Y-64549537D02*
X146185713Y-64501918D01*
X146185713Y-64501918D02*
X146090475Y-64454299D01*
D11*
X123139819Y-82166666D02*
X123854104Y-82166666D01*
X123854104Y-82166666D02*
X123996961Y-82119047D01*
X123996961Y-82119047D02*
X124092200Y-82023809D01*
X124092200Y-82023809D02*
X124139819Y-81880952D01*
X124139819Y-81880952D02*
X124139819Y-81785714D01*
X124139819Y-83166666D02*
X124139819Y-82595238D01*
X124139819Y-82880952D02*
X123139819Y-82880952D01*
X123139819Y-82880952D02*
X123282676Y-82785714D01*
X123282676Y-82785714D02*
X123377914Y-82690476D01*
X123377914Y-82690476D02*
X123425533Y-82595238D01*
X144188819Y-82166666D02*
X144903104Y-82166666D01*
X144903104Y-82166666D02*
X145045961Y-82119047D01*
X145045961Y-82119047D02*
X145141200Y-82023809D01*
X145141200Y-82023809D02*
X145188819Y-81880952D01*
X145188819Y-81880952D02*
X145188819Y-81785714D01*
X144284057Y-82595238D02*
X144236438Y-82642857D01*
X144236438Y-82642857D02*
X144188819Y-82738095D01*
X144188819Y-82738095D02*
X144188819Y-82976190D01*
X144188819Y-82976190D02*
X144236438Y-83071428D01*
X144236438Y-83071428D02*
X144284057Y-83119047D01*
X144284057Y-83119047D02*
X144379295Y-83166666D01*
X144379295Y-83166666D02*
X144474533Y-83166666D01*
X144474533Y-83166666D02*
X144617390Y-83119047D01*
X144617390Y-83119047D02*
X145188819Y-82547619D01*
X145188819Y-82547619D02*
X145188819Y-83166666D01*
X159037819Y-82166666D02*
X159752104Y-82166666D01*
X159752104Y-82166666D02*
X159894961Y-82119047D01*
X159894961Y-82119047D02*
X159990200Y-82023809D01*
X159990200Y-82023809D02*
X160037819Y-81880952D01*
X160037819Y-81880952D02*
X160037819Y-81785714D01*
X159037819Y-82547619D02*
X159037819Y-83166666D01*
X159037819Y-83166666D02*
X159418771Y-82833333D01*
X159418771Y-82833333D02*
X159418771Y-82976190D01*
X159418771Y-82976190D02*
X159466390Y-83071428D01*
X159466390Y-83071428D02*
X159514009Y-83119047D01*
X159514009Y-83119047D02*
X159609247Y-83166666D01*
X159609247Y-83166666D02*
X159847342Y-83166666D01*
X159847342Y-83166666D02*
X159942580Y-83119047D01*
X159942580Y-83119047D02*
X159990200Y-83071428D01*
X159990200Y-83071428D02*
X160037819Y-82976190D01*
X160037819Y-82976190D02*
X160037819Y-82690476D01*
X160037819Y-82690476D02*
X159990200Y-82595238D01*
X159990200Y-82595238D02*
X159942580Y-82547619D01*
X169562819Y-82166666D02*
X170277104Y-82166666D01*
X170277104Y-82166666D02*
X170419961Y-82119047D01*
X170419961Y-82119047D02*
X170515200Y-82023809D01*
X170515200Y-82023809D02*
X170562819Y-81880952D01*
X170562819Y-81880952D02*
X170562819Y-81785714D01*
X169896152Y-83071428D02*
X170562819Y-83071428D01*
X169515200Y-82833333D02*
X170229485Y-82595238D01*
X170229485Y-82595238D02*
X170229485Y-83214285D01*
X112614819Y-82166666D02*
X113329104Y-82166666D01*
X113329104Y-82166666D02*
X113471961Y-82119047D01*
X113471961Y-82119047D02*
X113567200Y-82023809D01*
X113567200Y-82023809D02*
X113614819Y-81880952D01*
X113614819Y-81880952D02*
X113614819Y-81785714D01*
X112614819Y-83119047D02*
X112614819Y-82642857D01*
X112614819Y-82642857D02*
X113091009Y-82595238D01*
X113091009Y-82595238D02*
X113043390Y-82642857D01*
X113043390Y-82642857D02*
X112995771Y-82738095D01*
X112995771Y-82738095D02*
X112995771Y-82976190D01*
X112995771Y-82976190D02*
X113043390Y-83071428D01*
X113043390Y-83071428D02*
X113091009Y-83119047D01*
X113091009Y-83119047D02*
X113186247Y-83166666D01*
X113186247Y-83166666D02*
X113424342Y-83166666D01*
X113424342Y-83166666D02*
X113519580Y-83119047D01*
X113519580Y-83119047D02*
X113567200Y-83071428D01*
X113567200Y-83071428D02*
X113614819Y-82976190D01*
X113614819Y-82976190D02*
X113614819Y-82738095D01*
X113614819Y-82738095D02*
X113567200Y-82642857D01*
X113567200Y-82642857D02*
X113519580Y-82595238D01*
X133663819Y-82166666D02*
X134378104Y-82166666D01*
X134378104Y-82166666D02*
X134520961Y-82119047D01*
X134520961Y-82119047D02*
X134616200Y-82023809D01*
X134616200Y-82023809D02*
X134663819Y-81880952D01*
X134663819Y-81880952D02*
X134663819Y-81785714D01*
X133663819Y-83071428D02*
X133663819Y-82880952D01*
X133663819Y-82880952D02*
X133711438Y-82785714D01*
X133711438Y-82785714D02*
X133759057Y-82738095D01*
X133759057Y-82738095D02*
X133901914Y-82642857D01*
X133901914Y-82642857D02*
X134092390Y-82595238D01*
X134092390Y-82595238D02*
X134473342Y-82595238D01*
X134473342Y-82595238D02*
X134568580Y-82642857D01*
X134568580Y-82642857D02*
X134616200Y-82690476D01*
X134616200Y-82690476D02*
X134663819Y-82785714D01*
X134663819Y-82785714D02*
X134663819Y-82976190D01*
X134663819Y-82976190D02*
X134616200Y-83071428D01*
X134616200Y-83071428D02*
X134568580Y-83119047D01*
X134568580Y-83119047D02*
X134473342Y-83166666D01*
X134473342Y-83166666D02*
X134235247Y-83166666D01*
X134235247Y-83166666D02*
X134140009Y-83119047D01*
X134140009Y-83119047D02*
X134092390Y-83071428D01*
X134092390Y-83071428D02*
X134044771Y-82976190D01*
X134044771Y-82976190D02*
X134044771Y-82785714D01*
X134044771Y-82785714D02*
X134092390Y-82690476D01*
X134092390Y-82690476D02*
X134140009Y-82642857D01*
X134140009Y-82642857D02*
X134235247Y-82595238D01*
X148512819Y-82166666D02*
X149227104Y-82166666D01*
X149227104Y-82166666D02*
X149369961Y-82119047D01*
X149369961Y-82119047D02*
X149465200Y-82023809D01*
X149465200Y-82023809D02*
X149512819Y-81880952D01*
X149512819Y-81880952D02*
X149512819Y-81785714D01*
X148512819Y-82547619D02*
X148512819Y-83214285D01*
X148512819Y-83214285D02*
X149512819Y-82785714D01*
X180086819Y-82166666D02*
X180801104Y-82166666D01*
X180801104Y-82166666D02*
X180943961Y-82119047D01*
X180943961Y-82119047D02*
X181039200Y-82023809D01*
X181039200Y-82023809D02*
X181086819Y-81880952D01*
X181086819Y-81880952D02*
X181086819Y-81785714D01*
X180515390Y-82785714D02*
X180467771Y-82690476D01*
X180467771Y-82690476D02*
X180420152Y-82642857D01*
X180420152Y-82642857D02*
X180324914Y-82595238D01*
X180324914Y-82595238D02*
X180277295Y-82595238D01*
X180277295Y-82595238D02*
X180182057Y-82642857D01*
X180182057Y-82642857D02*
X180134438Y-82690476D01*
X180134438Y-82690476D02*
X180086819Y-82785714D01*
X180086819Y-82785714D02*
X180086819Y-82976190D01*
X180086819Y-82976190D02*
X180134438Y-83071428D01*
X180134438Y-83071428D02*
X180182057Y-83119047D01*
X180182057Y-83119047D02*
X180277295Y-83166666D01*
X180277295Y-83166666D02*
X180324914Y-83166666D01*
X180324914Y-83166666D02*
X180420152Y-83119047D01*
X180420152Y-83119047D02*
X180467771Y-83071428D01*
X180467771Y-83071428D02*
X180515390Y-82976190D01*
X180515390Y-82976190D02*
X180515390Y-82785714D01*
X180515390Y-82785714D02*
X180563009Y-82690476D01*
X180563009Y-82690476D02*
X180610628Y-82642857D01*
X180610628Y-82642857D02*
X180705866Y-82595238D01*
X180705866Y-82595238D02*
X180896342Y-82595238D01*
X180896342Y-82595238D02*
X180991580Y-82642857D01*
X180991580Y-82642857D02*
X181039200Y-82690476D01*
X181039200Y-82690476D02*
X181086819Y-82785714D01*
X181086819Y-82785714D02*
X181086819Y-82976190D01*
X181086819Y-82976190D02*
X181039200Y-83071428D01*
X181039200Y-83071428D02*
X180991580Y-83119047D01*
X180991580Y-83119047D02*
X180896342Y-83166666D01*
X180896342Y-83166666D02*
X180705866Y-83166666D01*
X180705866Y-83166666D02*
X180610628Y-83119047D01*
X180610628Y-83119047D02*
X180563009Y-83071428D01*
X180563009Y-83071428D02*
X180515390Y-82976190D01*
D12*
X120845000Y-91610000D02*
X121795000Y-91610000D01*
X121795000Y-91610000D02*
X121795000Y-90660000D01*
X117875000Y-91240000D02*
X117875000Y-73760000D01*
X121795000Y-90660000D02*
X122485000Y-90660000D01*
X120845000Y-73390000D02*
X121795000Y-73390000D01*
X121795000Y-73390000D02*
X121795000Y-74340000D01*
X141894000Y-91610000D02*
X142844000Y-91610000D01*
X142844000Y-91610000D02*
X142844000Y-90660000D01*
X138924000Y-91240000D02*
X138924000Y-73760000D01*
X142844000Y-90660000D02*
X143534000Y-90660000D01*
X141894000Y-73390000D02*
X142844000Y-73390000D01*
X142844000Y-73390000D02*
X142844000Y-74340000D01*
X162423000Y-73390000D02*
X161473000Y-73390000D01*
X161473000Y-73390000D02*
X161473000Y-74340000D01*
X165393000Y-73760000D02*
X165393000Y-91240000D01*
X161473000Y-74340000D02*
X160783000Y-74340000D01*
X162423000Y-91610000D02*
X161473000Y-91610000D01*
X161473000Y-91610000D02*
X161473000Y-90660000D01*
X172948000Y-73390000D02*
X171998000Y-73390000D01*
X171998000Y-73390000D02*
X171998000Y-74340000D01*
X175918000Y-73760000D02*
X175918000Y-91240000D01*
X171998000Y-74340000D02*
X171308000Y-74340000D01*
X172948000Y-91610000D02*
X171998000Y-91610000D01*
X171998000Y-91610000D02*
X171998000Y-90660000D01*
X110320000Y-91610000D02*
X111270000Y-91610000D01*
X111270000Y-91610000D02*
X111270000Y-90660000D01*
X107350000Y-91240000D02*
X107350000Y-73760000D01*
X111270000Y-90660000D02*
X111960000Y-90660000D01*
X110320000Y-73390000D02*
X111270000Y-73390000D01*
X111270000Y-73390000D02*
X111270000Y-74340000D01*
X131369000Y-91610000D02*
X132319000Y-91610000D01*
X132319000Y-91610000D02*
X132319000Y-90660000D01*
X128399000Y-91240000D02*
X128399000Y-73760000D01*
X132319000Y-90660000D02*
X133009000Y-90660000D01*
X131369000Y-73390000D02*
X132319000Y-73390000D01*
X132319000Y-73390000D02*
X132319000Y-74340000D01*
X151898000Y-73390000D02*
X150948000Y-73390000D01*
X150948000Y-73390000D02*
X150948000Y-74340000D01*
X154868000Y-73760000D02*
X154868000Y-91240000D01*
X150948000Y-74340000D02*
X150258000Y-74340000D01*
X151898000Y-91610000D02*
X150948000Y-91610000D01*
X150948000Y-91610000D02*
X150948000Y-90660000D01*
X183472000Y-73390000D02*
X182522000Y-73390000D01*
X182522000Y-73390000D02*
X182522000Y-74340000D01*
X186442000Y-73760000D02*
X186442000Y-91240000D01*
X182522000Y-74340000D02*
X181832000Y-74340000D01*
X183472000Y-91610000D02*
X182522000Y-91610000D01*
X182522000Y-91610000D02*
X182522000Y-90660000D01*
M02*
