G04 #@! TF.GenerationSoftware,KiCad,Pcbnew,7.0.9-1.fc38*
G04 #@! TF.CreationDate,2023-11-17T02:49:10-03:00*
G04 #@! TF.ProjectId,pc104-adapter-top,70633130-342d-4616-9461-707465722d74,v2.1*
G04 #@! TF.SameCoordinates,Original*
G04 #@! TF.FileFunction,Profile,NP*
%FSLAX46Y46*%
G04 Gerber Fmt 4.6, Leading zero omitted, Abs format (unit mm)*
G04 Created by KiCad (PCBNEW 7.0.9-1.fc38) date 2023-11-17 02:49:10*
%MOMM*%
%LPD*%
G01*
G04 APERTURE LIST*
G04 #@! TA.AperFunction,Profile*
%ADD10C,0.150000*%
G04 #@! TD*
G04 APERTURE END LIST*
D10*
X175630000Y-133440000D02*
G75*
G03*
X180630000Y-128440000I0J5000000D01*
G01*
X110070000Y-51536000D02*
G75*
G03*
X106970000Y-54636000I0J-3100000D01*
G01*
X187530000Y-143436000D02*
G75*
G03*
X190630000Y-140336000I0J3100000D01*
G01*
X106270000Y-143436000D02*
X187530000Y-143436000D01*
X110070000Y-51536000D02*
X183730000Y-51536000D01*
X106970000Y-54636000D02*
X106970000Y-64236000D01*
X105470000Y-65736000D02*
X104670000Y-65736000D01*
X103170000Y-67236000D02*
X103170000Y-140336000D01*
X186830000Y-64436000D02*
G75*
G03*
X188130000Y-65736000I1300000J0D01*
G01*
X186830000Y-54636000D02*
X186830000Y-64436000D01*
X190630000Y-67036000D02*
X190630000Y-140336000D01*
X118170000Y-133440000D02*
X175630000Y-133440000D01*
X113170000Y-128440000D02*
X113170000Y-105800000D01*
X180630000Y-128440000D02*
X180630000Y-105800000D01*
X118170000Y-100800000D02*
X175630000Y-100800000D01*
X189338000Y-65744000D02*
X188130000Y-65736000D01*
X104670000Y-65736000D02*
G75*
G03*
X103170000Y-67236000I0J-1500000D01*
G01*
X118170000Y-100800000D02*
G75*
G03*
X113170000Y-105800000I0J-5000000D01*
G01*
X105470000Y-65736000D02*
G75*
G03*
X106970000Y-64236000I0J1500000D01*
G01*
X186830000Y-54636000D02*
G75*
G03*
X183730000Y-51536000I-3100000J0D01*
G01*
X180630000Y-105800000D02*
G75*
G03*
X175630000Y-100800000I-5000000J0D01*
G01*
X103170000Y-140336000D02*
G75*
G03*
X106270000Y-143436000I3100000J0D01*
G01*
X190630000Y-67036000D02*
G75*
G03*
X189338000Y-65744000I-1292000J0D01*
G01*
X113170000Y-128440000D02*
G75*
G03*
X118170000Y-133440000I5000000J0D01*
G01*
M02*
