%TF.GenerationSoftware,KiCad,Pcbnew,5.1.6-1.fc32*%
%TF.CreationDate,2020-07-10T21:32:06-03:00*%
%TF.ProjectId,pc104-adapter-top,70633130-342d-4616-9461-707465722d74,v1.0*%
%TF.SameCoordinates,Original*%
%TF.FileFunction,Soldermask,Top*%
%TF.FilePolarity,Negative*%
%FSLAX46Y46*%
G04 Gerber Fmt 4.6, Leading zero omitted, Abs format (unit mm)*
G04 Created by KiCad (PCBNEW 5.1.6-1.fc32) date 2020-07-10 21:32:06*
%MOMM*%
%LPD*%
G01*
G04 APERTURE LIST*
%ADD10C,0.100000*%
%ADD11C,5.600000*%
G04 APERTURE END LIST*
D10*
%TO.C,J9*%
X168911000Y-80436000D02*
G75*
G03*
X168911000Y-80436000I-861000J0D01*
G01*
X168911000Y-82976000D02*
G75*
G03*
X168911000Y-82976000I-861000J0D01*
G01*
X166371000Y-80436000D02*
G75*
G03*
X166371000Y-80436000I-861000J0D01*
G01*
X166371000Y-82976000D02*
G75*
G03*
X166371000Y-82976000I-861000J0D01*
G01*
X163831000Y-80436000D02*
G75*
G03*
X163831000Y-80436000I-861000J0D01*
G01*
X163831000Y-82976000D02*
G75*
G03*
X163831000Y-82976000I-861000J0D01*
G01*
X161291000Y-80436000D02*
G75*
G03*
X161291000Y-80436000I-861000J0D01*
G01*
X161291000Y-82976000D02*
G75*
G03*
X161291000Y-82976000I-861000J0D01*
G01*
X158751000Y-80436000D02*
G75*
G03*
X158751000Y-80436000I-861000J0D01*
G01*
X158751000Y-82976000D02*
G75*
G03*
X158751000Y-82976000I-861000J0D01*
G01*
X156211000Y-80436000D02*
G75*
G03*
X156211000Y-80436000I-861000J0D01*
G01*
X156211000Y-82976000D02*
G75*
G03*
X156211000Y-82976000I-861000J0D01*
G01*
X153671000Y-80436000D02*
G75*
G03*
X153671000Y-80436000I-861000J0D01*
G01*
X153671000Y-82976000D02*
G75*
G03*
X153671000Y-82976000I-861000J0D01*
G01*
X151131000Y-80436000D02*
G75*
G03*
X151131000Y-80436000I-861000J0D01*
G01*
X151131000Y-82976000D02*
G75*
G03*
X151131000Y-82976000I-861000J0D01*
G01*
X148591000Y-80436000D02*
G75*
G03*
X148591000Y-80436000I-861000J0D01*
G01*
X148591000Y-82976000D02*
G75*
G03*
X148591000Y-82976000I-861000J0D01*
G01*
X146051000Y-80436000D02*
G75*
G03*
X146051000Y-80436000I-861000J0D01*
G01*
X146051000Y-82976000D02*
G75*
G03*
X146051000Y-82976000I-861000J0D01*
G01*
X143511000Y-80436000D02*
G75*
G03*
X143511000Y-80436000I-861000J0D01*
G01*
X143511000Y-82976000D02*
G75*
G03*
X143511000Y-82976000I-861000J0D01*
G01*
X140971000Y-80436000D02*
G75*
G03*
X140971000Y-80436000I-861000J0D01*
G01*
X140971000Y-82976000D02*
G75*
G03*
X140971000Y-82976000I-861000J0D01*
G01*
X138431000Y-80436000D02*
G75*
G03*
X138431000Y-80436000I-861000J0D01*
G01*
X138431000Y-82976000D02*
G75*
G03*
X138431000Y-82976000I-861000J0D01*
G01*
X135891000Y-80436000D02*
G75*
G03*
X135891000Y-80436000I-861000J0D01*
G01*
X135891000Y-82976000D02*
G75*
G03*
X135891000Y-82976000I-861000J0D01*
G01*
X133351000Y-80436000D02*
G75*
G03*
X133351000Y-80436000I-861000J0D01*
G01*
X133351000Y-82976000D02*
G75*
G03*
X133351000Y-82976000I-861000J0D01*
G01*
X130811000Y-80436000D02*
G75*
G03*
X130811000Y-80436000I-861000J0D01*
G01*
X130811000Y-82976000D02*
G75*
G03*
X130811000Y-82976000I-861000J0D01*
G01*
X128271000Y-80436000D02*
G75*
G03*
X128271000Y-80436000I-861000J0D01*
G01*
X128271000Y-82976000D02*
G75*
G03*
X128271000Y-82976000I-861000J0D01*
G01*
X125731000Y-80436000D02*
G75*
G03*
X125731000Y-80436000I-861000J0D01*
G01*
X125731000Y-82976000D02*
G75*
G03*
X125731000Y-82976000I-861000J0D01*
G01*
X123191000Y-80436000D02*
G75*
G03*
X123191000Y-80436000I-861000J0D01*
G01*
X123191000Y-82976000D02*
G75*
G03*
X123191000Y-82976000I-861000J0D01*
G01*
X120651000Y-80436000D02*
G75*
G03*
X120651000Y-80436000I-861000J0D01*
G01*
X120651000Y-82976000D02*
G75*
G03*
X120651000Y-82976000I-861000J0D01*
G01*
X118111000Y-80436000D02*
G75*
G03*
X118111000Y-80436000I-861000J0D01*
G01*
X118111000Y-82976000D02*
G75*
G03*
X118111000Y-82976000I-861000J0D01*
G01*
X115571000Y-80436000D02*
G75*
G03*
X115571000Y-80436000I-861000J0D01*
G01*
X115571000Y-82976000D02*
G75*
G03*
X115571000Y-82976000I-861000J0D01*
G01*
X113031000Y-80436000D02*
G75*
G03*
X113031000Y-80436000I-861000J0D01*
G01*
X113031000Y-82976000D02*
G75*
G03*
X113031000Y-82976000I-861000J0D01*
G01*
X110491000Y-80436000D02*
G75*
G03*
X110491000Y-80436000I-861000J0D01*
G01*
X110491000Y-82976000D02*
G75*
G03*
X110491000Y-82976000I-861000J0D01*
G01*
X107951000Y-80436000D02*
G75*
G03*
X107951000Y-80436000I-861000J0D01*
G01*
X107951000Y-82976000D02*
G75*
G03*
X107951000Y-82976000I-861000J0D01*
G01*
X105411000Y-80436000D02*
G75*
G03*
X105411000Y-80436000I-861000J0D01*
G01*
X105411000Y-82976000D02*
G75*
G03*
X105411000Y-82976000I-861000J0D01*
G01*
%TO.C,J10*%
X168911000Y-85516000D02*
G75*
G03*
X168911000Y-85516000I-861000J0D01*
G01*
X168911000Y-88056000D02*
G75*
G03*
X168911000Y-88056000I-861000J0D01*
G01*
X166371000Y-85516000D02*
G75*
G03*
X166371000Y-85516000I-861000J0D01*
G01*
X166371000Y-88056000D02*
G75*
G03*
X166371000Y-88056000I-861000J0D01*
G01*
X163831000Y-85516000D02*
G75*
G03*
X163831000Y-85516000I-861000J0D01*
G01*
X163831000Y-88056000D02*
G75*
G03*
X163831000Y-88056000I-861000J0D01*
G01*
X161291000Y-85516000D02*
G75*
G03*
X161291000Y-85516000I-861000J0D01*
G01*
X161291000Y-88056000D02*
G75*
G03*
X161291000Y-88056000I-861000J0D01*
G01*
X158751000Y-85516000D02*
G75*
G03*
X158751000Y-85516000I-861000J0D01*
G01*
X158751000Y-88056000D02*
G75*
G03*
X158751000Y-88056000I-861000J0D01*
G01*
X156211000Y-85516000D02*
G75*
G03*
X156211000Y-85516000I-861000J0D01*
G01*
X156211000Y-88056000D02*
G75*
G03*
X156211000Y-88056000I-861000J0D01*
G01*
X153671000Y-85516000D02*
G75*
G03*
X153671000Y-85516000I-861000J0D01*
G01*
X153671000Y-88056000D02*
G75*
G03*
X153671000Y-88056000I-861000J0D01*
G01*
X151131000Y-85516000D02*
G75*
G03*
X151131000Y-85516000I-861000J0D01*
G01*
X151131000Y-88056000D02*
G75*
G03*
X151131000Y-88056000I-861000J0D01*
G01*
X148591000Y-85516000D02*
G75*
G03*
X148591000Y-85516000I-861000J0D01*
G01*
X148591000Y-88056000D02*
G75*
G03*
X148591000Y-88056000I-861000J0D01*
G01*
X146051000Y-85516000D02*
G75*
G03*
X146051000Y-85516000I-861000J0D01*
G01*
X146051000Y-88056000D02*
G75*
G03*
X146051000Y-88056000I-861000J0D01*
G01*
X143511000Y-85516000D02*
G75*
G03*
X143511000Y-85516000I-861000J0D01*
G01*
X143511000Y-88056000D02*
G75*
G03*
X143511000Y-88056000I-861000J0D01*
G01*
X140971000Y-85516000D02*
G75*
G03*
X140971000Y-85516000I-861000J0D01*
G01*
X140971000Y-88056000D02*
G75*
G03*
X140971000Y-88056000I-861000J0D01*
G01*
X138431000Y-85516000D02*
G75*
G03*
X138431000Y-85516000I-861000J0D01*
G01*
X138431000Y-88056000D02*
G75*
G03*
X138431000Y-88056000I-861000J0D01*
G01*
X135891000Y-85516000D02*
G75*
G03*
X135891000Y-85516000I-861000J0D01*
G01*
X135891000Y-88056000D02*
G75*
G03*
X135891000Y-88056000I-861000J0D01*
G01*
X133351000Y-85516000D02*
G75*
G03*
X133351000Y-85516000I-861000J0D01*
G01*
X133351000Y-88056000D02*
G75*
G03*
X133351000Y-88056000I-861000J0D01*
G01*
X130811000Y-85516000D02*
G75*
G03*
X130811000Y-85516000I-861000J0D01*
G01*
X130811000Y-88056000D02*
G75*
G03*
X130811000Y-88056000I-861000J0D01*
G01*
X128271000Y-85516000D02*
G75*
G03*
X128271000Y-85516000I-861000J0D01*
G01*
X128271000Y-88056000D02*
G75*
G03*
X128271000Y-88056000I-861000J0D01*
G01*
X125731000Y-85516000D02*
G75*
G03*
X125731000Y-85516000I-861000J0D01*
G01*
X125731000Y-88056000D02*
G75*
G03*
X125731000Y-88056000I-861000J0D01*
G01*
X123191000Y-85516000D02*
G75*
G03*
X123191000Y-85516000I-861000J0D01*
G01*
X123191000Y-88056000D02*
G75*
G03*
X123191000Y-88056000I-861000J0D01*
G01*
X120651000Y-85516000D02*
G75*
G03*
X120651000Y-85516000I-861000J0D01*
G01*
X120651000Y-88056000D02*
G75*
G03*
X120651000Y-88056000I-861000J0D01*
G01*
X118111000Y-85516000D02*
G75*
G03*
X118111000Y-85516000I-861000J0D01*
G01*
X118111000Y-88056000D02*
G75*
G03*
X118111000Y-88056000I-861000J0D01*
G01*
X115571000Y-85516000D02*
G75*
G03*
X115571000Y-85516000I-861000J0D01*
G01*
X115571000Y-88056000D02*
G75*
G03*
X115571000Y-88056000I-861000J0D01*
G01*
X113031000Y-85516000D02*
G75*
G03*
X113031000Y-85516000I-861000J0D01*
G01*
X113031000Y-88056000D02*
G75*
G03*
X113031000Y-88056000I-861000J0D01*
G01*
X110491000Y-85516000D02*
G75*
G03*
X110491000Y-85516000I-861000J0D01*
G01*
X110491000Y-88056000D02*
G75*
G03*
X110491000Y-88056000I-861000J0D01*
G01*
X107951000Y-85516000D02*
G75*
G03*
X107951000Y-85516000I-861000J0D01*
G01*
X107951000Y-88056000D02*
G75*
G03*
X107951000Y-88056000I-861000J0D01*
G01*
X105411000Y-85516000D02*
G75*
G03*
X105411000Y-85516000I-861000J0D01*
G01*
X105411000Y-88056000D02*
G75*
G03*
X105411000Y-88056000I-861000J0D01*
G01*
%TD*%
D11*
%TO.C,H2*%
X173140000Y-80436000D03*
%TD*%
%TO.C,H1*%
X99460000Y-80436000D03*
%TD*%
M02*
