%TF.GenerationSoftware,KiCad,Pcbnew,5.1.6-1.fc32*%
%TF.CreationDate,2020-09-11T22:13:51-03:00*%
%TF.ProjectId,pc104-adapter-top,70633130-342d-4616-9461-707465722d74,v2.0*%
%TF.SameCoordinates,Original*%
%TF.FileFunction,Copper,L4,Bot*%
%TF.FilePolarity,Positive*%
%FSLAX46Y46*%
G04 Gerber Fmt 4.6, Leading zero omitted, Abs format (unit mm)*
G04 Created by KiCad (PCBNEW 5.1.6-1.fc32) date 2020-09-11 22:13:51*
%MOMM*%
%LPD*%
G01*
G04 APERTURE LIST*
%TA.AperFunction,ComponentPad*%
%ADD10C,5.500000*%
%TD*%
%TA.AperFunction,ViaPad*%
%ADD11C,1.620000*%
%TD*%
%TA.AperFunction,ViaPad*%
%ADD12C,0.800000*%
%TD*%
%TA.AperFunction,Conductor*%
%ADD13C,0.250000*%
%TD*%
%TA.AperFunction,Conductor*%
%ADD14C,0.254000*%
%TD*%
G04 APERTURE END LIST*
D10*
%TO.P,H3,1*%
%TO.N,GND*%
X105350000Y-140866000D03*
%TD*%
%TO.P,H4,1*%
%TO.N,GND*%
X185390000Y-140866000D03*
%TD*%
D11*
%TO.N,/A52*%
%TO.C,J9*%
X177750000Y-55136000D03*
%TO.N,/A51*%
X177750000Y-57676000D03*
%TO.N,/A50*%
X175210000Y-55136000D03*
%TO.N,/A49*%
X175210000Y-57676000D03*
%TO.N,/A48*%
X172670000Y-55136000D03*
%TO.N,/A47*%
X172670000Y-57676000D03*
%TO.N,/A46*%
X170130000Y-55136000D03*
%TO.N,/A45*%
X170130000Y-57676000D03*
%TO.N,/A44*%
X167590000Y-55136000D03*
%TO.N,/A43*%
X167590000Y-57676000D03*
%TO.N,/A42*%
X165050000Y-55136000D03*
%TO.N,/A41*%
X165050000Y-57676000D03*
%TO.N,/A40*%
X162510000Y-55136000D03*
%TO.N,/A39*%
X162510000Y-57676000D03*
%TO.N,/A38*%
X159970000Y-55136000D03*
%TO.N,/A37*%
X159970000Y-57676000D03*
%TO.N,/A36*%
X157430000Y-55136000D03*
%TO.N,/A35*%
X157430000Y-57676000D03*
%TO.N,/A34*%
X154890000Y-55136000D03*
%TO.N,/A33*%
X154890000Y-57676000D03*
%TO.N,/A32*%
X152350000Y-55136000D03*
%TO.N,/A31*%
X152350000Y-57676000D03*
%TO.N,/A30*%
X149810000Y-55136000D03*
%TO.N,/A29*%
X149810000Y-57676000D03*
%TO.N,/A28*%
X147270000Y-55136000D03*
%TO.N,/A27*%
X147270000Y-57676000D03*
%TO.N,/A26*%
X144730000Y-55136000D03*
%TO.N,/A25*%
X144730000Y-57676000D03*
%TO.N,/A24*%
X142190000Y-55136000D03*
%TO.N,/A23*%
X142190000Y-57676000D03*
%TO.N,/A22*%
X139650000Y-55136000D03*
%TO.N,/A21*%
X139650000Y-57676000D03*
%TO.N,/A20*%
X137110000Y-55136000D03*
%TO.N,/A19*%
X137110000Y-57676000D03*
%TO.N,/A18*%
X134570000Y-55136000D03*
%TO.N,/A17*%
X134570000Y-57676000D03*
%TO.N,/A16*%
X132030000Y-55136000D03*
%TO.N,/A15*%
X132030000Y-57676000D03*
%TO.N,/A14*%
X129490000Y-55136000D03*
%TO.N,/A13*%
X129490000Y-57676000D03*
%TO.N,/A12*%
X126950000Y-55136000D03*
%TO.N,/A11*%
X126950000Y-57676000D03*
%TO.N,/A10*%
X124410000Y-55136000D03*
%TO.N,/A9*%
X124410000Y-57676000D03*
%TO.N,/A8*%
X121870000Y-55136000D03*
%TO.N,/A7*%
X121870000Y-57676000D03*
%TO.N,/A6*%
X119330000Y-55136000D03*
%TO.N,/A5*%
X119330000Y-57676000D03*
%TO.N,/A4*%
X116790000Y-55136000D03*
%TO.N,/A3*%
X116790000Y-57676000D03*
%TO.N,/A2*%
X114250000Y-55136000D03*
%TO.N,/A1*%
X114250000Y-57676000D03*
%TD*%
%TO.N,/B52*%
%TO.C,J10*%
X177750000Y-60216000D03*
%TO.N,/B51*%
X177750000Y-62756000D03*
%TO.N,/B50*%
X175210000Y-60216000D03*
%TO.N,/B49*%
X175210000Y-62756000D03*
%TO.N,/B48*%
X172670000Y-60216000D03*
%TO.N,/B47*%
X172670000Y-62756000D03*
%TO.N,/B46*%
X170130000Y-60216000D03*
%TO.N,/B45*%
X170130000Y-62756000D03*
%TO.N,/B44*%
X167590000Y-60216000D03*
%TO.N,/B43*%
X167590000Y-62756000D03*
%TO.N,/B42*%
X165050000Y-60216000D03*
%TO.N,/B41*%
X165050000Y-62756000D03*
%TO.N,/B40*%
X162510000Y-60216000D03*
%TO.N,/B39*%
X162510000Y-62756000D03*
%TO.N,/B38*%
X159970000Y-60216000D03*
%TO.N,/B37*%
X159970000Y-62756000D03*
%TO.N,/B36*%
X157430000Y-60216000D03*
%TO.N,/B35*%
X157430000Y-62756000D03*
%TO.N,/B34*%
X154890000Y-60216000D03*
%TO.N,/B33*%
X154890000Y-62756000D03*
%TO.N,/B32*%
X152350000Y-60216000D03*
%TO.N,/B31*%
X152350000Y-62756000D03*
%TO.N,/B30*%
X149810000Y-60216000D03*
%TO.N,/B29*%
X149810000Y-62756000D03*
%TO.N,/B28*%
X147270000Y-60216000D03*
%TO.N,/B27*%
X147270000Y-62756000D03*
%TO.N,/B26*%
X144730000Y-60216000D03*
%TO.N,/B25*%
X144730000Y-62756000D03*
%TO.N,/B24*%
X142190000Y-60216000D03*
%TO.N,/B23*%
X142190000Y-62756000D03*
%TO.N,/B22*%
X139650000Y-60216000D03*
%TO.N,/B21*%
X139650000Y-62756000D03*
%TO.N,/B20*%
X137110000Y-60216000D03*
%TO.N,/B19*%
X137110000Y-62756000D03*
%TO.N,/B18*%
X134570000Y-60216000D03*
%TO.N,/B17*%
X134570000Y-62756000D03*
%TO.N,/B16*%
X132030000Y-60216000D03*
%TO.N,/B15*%
X132030000Y-62756000D03*
%TO.N,/B14*%
X129490000Y-60216000D03*
%TO.N,/B13*%
X129490000Y-62756000D03*
%TO.N,/B12*%
X126950000Y-60216000D03*
%TO.N,/B11*%
X126950000Y-62756000D03*
%TO.N,/B10*%
X124410000Y-60216000D03*
%TO.N,/B9*%
X124410000Y-62756000D03*
%TO.N,/B8*%
X121870000Y-60216000D03*
%TO.N,/B7*%
X121870000Y-62756000D03*
%TO.N,/B6*%
X119330000Y-60216000D03*
%TO.N,/B5*%
X119330000Y-62756000D03*
%TO.N,/B4*%
X116790000Y-60216000D03*
%TO.N,/B3*%
X116790000Y-62756000D03*
%TO.N,/B2*%
X114250000Y-60216000D03*
%TO.N,/B1*%
X114250000Y-62756000D03*
%TD*%
%TO.P,J8,MP*%
%TO.N,N/C*%
%TA.AperFunction,SMDPad,CuDef*%
G36*
G01*
X183082000Y-92000000D02*
X185582000Y-92000000D01*
G75*
G02*
X185832000Y-92250000I0J-250000D01*
G01*
X185832000Y-93850000D01*
G75*
G02*
X185582000Y-94100000I-250000J0D01*
G01*
X183082000Y-94100000D01*
G75*
G02*
X182832000Y-93850000I0J250000D01*
G01*
X182832000Y-92250000D01*
G75*
G02*
X183082000Y-92000000I250000J0D01*
G01*
G37*
%TD.AperFunction*%
%TA.AperFunction,SMDPad,CuDef*%
G36*
G01*
X183082000Y-71900000D02*
X185582000Y-71900000D01*
G75*
G02*
X185832000Y-72150000I0J-250000D01*
G01*
X185832000Y-73750000D01*
G75*
G02*
X185582000Y-74000000I-250000J0D01*
G01*
X183082000Y-74000000D01*
G75*
G02*
X182832000Y-73750000I0J250000D01*
G01*
X182832000Y-72150000D01*
G75*
G02*
X183082000Y-71900000I250000J0D01*
G01*
G37*
%TD.AperFunction*%
%TO.P,J8,13*%
%TO.N,/B40*%
%TA.AperFunction,SMDPad,CuDef*%
G36*
G01*
X181132000Y-90100000D02*
X182032000Y-90100000D01*
G75*
G02*
X182232000Y-90300000I0J-200000D01*
G01*
X182232000Y-90700000D01*
G75*
G02*
X182032000Y-90900000I-200000J0D01*
G01*
X181132000Y-90900000D01*
G75*
G02*
X180932000Y-90700000I0J200000D01*
G01*
X180932000Y-90300000D01*
G75*
G02*
X181132000Y-90100000I200000J0D01*
G01*
G37*
%TD.AperFunction*%
%TO.P,J8,12*%
%TO.N,/B41*%
%TA.AperFunction,SMDPad,CuDef*%
G36*
G01*
X181132000Y-88850000D02*
X182032000Y-88850000D01*
G75*
G02*
X182232000Y-89050000I0J-200000D01*
G01*
X182232000Y-89450000D01*
G75*
G02*
X182032000Y-89650000I-200000J0D01*
G01*
X181132000Y-89650000D01*
G75*
G02*
X180932000Y-89450000I0J200000D01*
G01*
X180932000Y-89050000D01*
G75*
G02*
X181132000Y-88850000I200000J0D01*
G01*
G37*
%TD.AperFunction*%
%TO.P,J8,11*%
%TO.N,/B42*%
%TA.AperFunction,SMDPad,CuDef*%
G36*
G01*
X181132000Y-87600000D02*
X182032000Y-87600000D01*
G75*
G02*
X182232000Y-87800000I0J-200000D01*
G01*
X182232000Y-88200000D01*
G75*
G02*
X182032000Y-88400000I-200000J0D01*
G01*
X181132000Y-88400000D01*
G75*
G02*
X180932000Y-88200000I0J200000D01*
G01*
X180932000Y-87800000D01*
G75*
G02*
X181132000Y-87600000I200000J0D01*
G01*
G37*
%TD.AperFunction*%
%TO.P,J8,10*%
%TO.N,/B43*%
%TA.AperFunction,SMDPad,CuDef*%
G36*
G01*
X181132000Y-86350000D02*
X182032000Y-86350000D01*
G75*
G02*
X182232000Y-86550000I0J-200000D01*
G01*
X182232000Y-86950000D01*
G75*
G02*
X182032000Y-87150000I-200000J0D01*
G01*
X181132000Y-87150000D01*
G75*
G02*
X180932000Y-86950000I0J200000D01*
G01*
X180932000Y-86550000D01*
G75*
G02*
X181132000Y-86350000I200000J0D01*
G01*
G37*
%TD.AperFunction*%
%TO.P,J8,9*%
%TO.N,/B44*%
%TA.AperFunction,SMDPad,CuDef*%
G36*
G01*
X181132000Y-85100000D02*
X182032000Y-85100000D01*
G75*
G02*
X182232000Y-85300000I0J-200000D01*
G01*
X182232000Y-85700000D01*
G75*
G02*
X182032000Y-85900000I-200000J0D01*
G01*
X181132000Y-85900000D01*
G75*
G02*
X180932000Y-85700000I0J200000D01*
G01*
X180932000Y-85300000D01*
G75*
G02*
X181132000Y-85100000I200000J0D01*
G01*
G37*
%TD.AperFunction*%
%TO.P,J8,8*%
%TO.N,/B45*%
%TA.AperFunction,SMDPad,CuDef*%
G36*
G01*
X181132000Y-83850000D02*
X182032000Y-83850000D01*
G75*
G02*
X182232000Y-84050000I0J-200000D01*
G01*
X182232000Y-84450000D01*
G75*
G02*
X182032000Y-84650000I-200000J0D01*
G01*
X181132000Y-84650000D01*
G75*
G02*
X180932000Y-84450000I0J200000D01*
G01*
X180932000Y-84050000D01*
G75*
G02*
X181132000Y-83850000I200000J0D01*
G01*
G37*
%TD.AperFunction*%
%TO.P,J8,7*%
%TO.N,/B46*%
%TA.AperFunction,SMDPad,CuDef*%
G36*
G01*
X181132000Y-82600000D02*
X182032000Y-82600000D01*
G75*
G02*
X182232000Y-82800000I0J-200000D01*
G01*
X182232000Y-83200000D01*
G75*
G02*
X182032000Y-83400000I-200000J0D01*
G01*
X181132000Y-83400000D01*
G75*
G02*
X180932000Y-83200000I0J200000D01*
G01*
X180932000Y-82800000D01*
G75*
G02*
X181132000Y-82600000I200000J0D01*
G01*
G37*
%TD.AperFunction*%
%TO.P,J8,6*%
%TO.N,/B47*%
%TA.AperFunction,SMDPad,CuDef*%
G36*
G01*
X181132000Y-81350000D02*
X182032000Y-81350000D01*
G75*
G02*
X182232000Y-81550000I0J-200000D01*
G01*
X182232000Y-81950000D01*
G75*
G02*
X182032000Y-82150000I-200000J0D01*
G01*
X181132000Y-82150000D01*
G75*
G02*
X180932000Y-81950000I0J200000D01*
G01*
X180932000Y-81550000D01*
G75*
G02*
X181132000Y-81350000I200000J0D01*
G01*
G37*
%TD.AperFunction*%
%TO.P,J8,5*%
%TO.N,/B48*%
%TA.AperFunction,SMDPad,CuDef*%
G36*
G01*
X181132000Y-80100000D02*
X182032000Y-80100000D01*
G75*
G02*
X182232000Y-80300000I0J-200000D01*
G01*
X182232000Y-80700000D01*
G75*
G02*
X182032000Y-80900000I-200000J0D01*
G01*
X181132000Y-80900000D01*
G75*
G02*
X180932000Y-80700000I0J200000D01*
G01*
X180932000Y-80300000D01*
G75*
G02*
X181132000Y-80100000I200000J0D01*
G01*
G37*
%TD.AperFunction*%
%TO.P,J8,4*%
%TO.N,/B49*%
%TA.AperFunction,SMDPad,CuDef*%
G36*
G01*
X181132000Y-78850000D02*
X182032000Y-78850000D01*
G75*
G02*
X182232000Y-79050000I0J-200000D01*
G01*
X182232000Y-79450000D01*
G75*
G02*
X182032000Y-79650000I-200000J0D01*
G01*
X181132000Y-79650000D01*
G75*
G02*
X180932000Y-79450000I0J200000D01*
G01*
X180932000Y-79050000D01*
G75*
G02*
X181132000Y-78850000I200000J0D01*
G01*
G37*
%TD.AperFunction*%
%TO.P,J8,3*%
%TO.N,/B50*%
%TA.AperFunction,SMDPad,CuDef*%
G36*
G01*
X181132000Y-77600000D02*
X182032000Y-77600000D01*
G75*
G02*
X182232000Y-77800000I0J-200000D01*
G01*
X182232000Y-78200000D01*
G75*
G02*
X182032000Y-78400000I-200000J0D01*
G01*
X181132000Y-78400000D01*
G75*
G02*
X180932000Y-78200000I0J200000D01*
G01*
X180932000Y-77800000D01*
G75*
G02*
X181132000Y-77600000I200000J0D01*
G01*
G37*
%TD.AperFunction*%
%TO.P,J8,2*%
%TO.N,/B51*%
%TA.AperFunction,SMDPad,CuDef*%
G36*
G01*
X181132000Y-76350000D02*
X182032000Y-76350000D01*
G75*
G02*
X182232000Y-76550000I0J-200000D01*
G01*
X182232000Y-76950000D01*
G75*
G02*
X182032000Y-77150000I-200000J0D01*
G01*
X181132000Y-77150000D01*
G75*
G02*
X180932000Y-76950000I0J200000D01*
G01*
X180932000Y-76550000D01*
G75*
G02*
X181132000Y-76350000I200000J0D01*
G01*
G37*
%TD.AperFunction*%
%TO.P,J8,1*%
%TO.N,/B52*%
%TA.AperFunction,SMDPad,CuDef*%
G36*
G01*
X181132000Y-75100000D02*
X182032000Y-75100000D01*
G75*
G02*
X182232000Y-75300000I0J-200000D01*
G01*
X182232000Y-75700000D01*
G75*
G02*
X182032000Y-75900000I-200000J0D01*
G01*
X181132000Y-75900000D01*
G75*
G02*
X180932000Y-75700000I0J200000D01*
G01*
X180932000Y-75300000D01*
G75*
G02*
X181132000Y-75100000I200000J0D01*
G01*
G37*
%TD.AperFunction*%
%TD*%
%TO.P,J7,MP*%
%TO.N,N/C*%
%TA.AperFunction,SMDPad,CuDef*%
G36*
G01*
X151508000Y-92000000D02*
X154008000Y-92000000D01*
G75*
G02*
X154258000Y-92250000I0J-250000D01*
G01*
X154258000Y-93850000D01*
G75*
G02*
X154008000Y-94100000I-250000J0D01*
G01*
X151508000Y-94100000D01*
G75*
G02*
X151258000Y-93850000I0J250000D01*
G01*
X151258000Y-92250000D01*
G75*
G02*
X151508000Y-92000000I250000J0D01*
G01*
G37*
%TD.AperFunction*%
%TA.AperFunction,SMDPad,CuDef*%
G36*
G01*
X151508000Y-71900000D02*
X154008000Y-71900000D01*
G75*
G02*
X154258000Y-72150000I0J-250000D01*
G01*
X154258000Y-73750000D01*
G75*
G02*
X154008000Y-74000000I-250000J0D01*
G01*
X151508000Y-74000000D01*
G75*
G02*
X151258000Y-73750000I0J250000D01*
G01*
X151258000Y-72150000D01*
G75*
G02*
X151508000Y-71900000I250000J0D01*
G01*
G37*
%TD.AperFunction*%
%TO.P,J7,13*%
%TO.N,/B27*%
%TA.AperFunction,SMDPad,CuDef*%
G36*
G01*
X149558000Y-90100000D02*
X150458000Y-90100000D01*
G75*
G02*
X150658000Y-90300000I0J-200000D01*
G01*
X150658000Y-90700000D01*
G75*
G02*
X150458000Y-90900000I-200000J0D01*
G01*
X149558000Y-90900000D01*
G75*
G02*
X149358000Y-90700000I0J200000D01*
G01*
X149358000Y-90300000D01*
G75*
G02*
X149558000Y-90100000I200000J0D01*
G01*
G37*
%TD.AperFunction*%
%TO.P,J7,12*%
%TO.N,/B28*%
%TA.AperFunction,SMDPad,CuDef*%
G36*
G01*
X149558000Y-88850000D02*
X150458000Y-88850000D01*
G75*
G02*
X150658000Y-89050000I0J-200000D01*
G01*
X150658000Y-89450000D01*
G75*
G02*
X150458000Y-89650000I-200000J0D01*
G01*
X149558000Y-89650000D01*
G75*
G02*
X149358000Y-89450000I0J200000D01*
G01*
X149358000Y-89050000D01*
G75*
G02*
X149558000Y-88850000I200000J0D01*
G01*
G37*
%TD.AperFunction*%
%TO.P,J7,11*%
%TO.N,/B29*%
%TA.AperFunction,SMDPad,CuDef*%
G36*
G01*
X149558000Y-87600000D02*
X150458000Y-87600000D01*
G75*
G02*
X150658000Y-87800000I0J-200000D01*
G01*
X150658000Y-88200000D01*
G75*
G02*
X150458000Y-88400000I-200000J0D01*
G01*
X149558000Y-88400000D01*
G75*
G02*
X149358000Y-88200000I0J200000D01*
G01*
X149358000Y-87800000D01*
G75*
G02*
X149558000Y-87600000I200000J0D01*
G01*
G37*
%TD.AperFunction*%
%TO.P,J7,10*%
%TO.N,/B30*%
%TA.AperFunction,SMDPad,CuDef*%
G36*
G01*
X149558000Y-86350000D02*
X150458000Y-86350000D01*
G75*
G02*
X150658000Y-86550000I0J-200000D01*
G01*
X150658000Y-86950000D01*
G75*
G02*
X150458000Y-87150000I-200000J0D01*
G01*
X149558000Y-87150000D01*
G75*
G02*
X149358000Y-86950000I0J200000D01*
G01*
X149358000Y-86550000D01*
G75*
G02*
X149558000Y-86350000I200000J0D01*
G01*
G37*
%TD.AperFunction*%
%TO.P,J7,9*%
%TO.N,/B31*%
%TA.AperFunction,SMDPad,CuDef*%
G36*
G01*
X149558000Y-85100000D02*
X150458000Y-85100000D01*
G75*
G02*
X150658000Y-85300000I0J-200000D01*
G01*
X150658000Y-85700000D01*
G75*
G02*
X150458000Y-85900000I-200000J0D01*
G01*
X149558000Y-85900000D01*
G75*
G02*
X149358000Y-85700000I0J200000D01*
G01*
X149358000Y-85300000D01*
G75*
G02*
X149558000Y-85100000I200000J0D01*
G01*
G37*
%TD.AperFunction*%
%TO.P,J7,8*%
%TO.N,/B32*%
%TA.AperFunction,SMDPad,CuDef*%
G36*
G01*
X149558000Y-83850000D02*
X150458000Y-83850000D01*
G75*
G02*
X150658000Y-84050000I0J-200000D01*
G01*
X150658000Y-84450000D01*
G75*
G02*
X150458000Y-84650000I-200000J0D01*
G01*
X149558000Y-84650000D01*
G75*
G02*
X149358000Y-84450000I0J200000D01*
G01*
X149358000Y-84050000D01*
G75*
G02*
X149558000Y-83850000I200000J0D01*
G01*
G37*
%TD.AperFunction*%
%TO.P,J7,7*%
%TO.N,/B33*%
%TA.AperFunction,SMDPad,CuDef*%
G36*
G01*
X149558000Y-82600000D02*
X150458000Y-82600000D01*
G75*
G02*
X150658000Y-82800000I0J-200000D01*
G01*
X150658000Y-83200000D01*
G75*
G02*
X150458000Y-83400000I-200000J0D01*
G01*
X149558000Y-83400000D01*
G75*
G02*
X149358000Y-83200000I0J200000D01*
G01*
X149358000Y-82800000D01*
G75*
G02*
X149558000Y-82600000I200000J0D01*
G01*
G37*
%TD.AperFunction*%
%TO.P,J7,6*%
%TO.N,/B34*%
%TA.AperFunction,SMDPad,CuDef*%
G36*
G01*
X149558000Y-81350000D02*
X150458000Y-81350000D01*
G75*
G02*
X150658000Y-81550000I0J-200000D01*
G01*
X150658000Y-81950000D01*
G75*
G02*
X150458000Y-82150000I-200000J0D01*
G01*
X149558000Y-82150000D01*
G75*
G02*
X149358000Y-81950000I0J200000D01*
G01*
X149358000Y-81550000D01*
G75*
G02*
X149558000Y-81350000I200000J0D01*
G01*
G37*
%TD.AperFunction*%
%TO.P,J7,5*%
%TO.N,/B35*%
%TA.AperFunction,SMDPad,CuDef*%
G36*
G01*
X149558000Y-80100000D02*
X150458000Y-80100000D01*
G75*
G02*
X150658000Y-80300000I0J-200000D01*
G01*
X150658000Y-80700000D01*
G75*
G02*
X150458000Y-80900000I-200000J0D01*
G01*
X149558000Y-80900000D01*
G75*
G02*
X149358000Y-80700000I0J200000D01*
G01*
X149358000Y-80300000D01*
G75*
G02*
X149558000Y-80100000I200000J0D01*
G01*
G37*
%TD.AperFunction*%
%TO.P,J7,4*%
%TO.N,/B36*%
%TA.AperFunction,SMDPad,CuDef*%
G36*
G01*
X149558000Y-78850000D02*
X150458000Y-78850000D01*
G75*
G02*
X150658000Y-79050000I0J-200000D01*
G01*
X150658000Y-79450000D01*
G75*
G02*
X150458000Y-79650000I-200000J0D01*
G01*
X149558000Y-79650000D01*
G75*
G02*
X149358000Y-79450000I0J200000D01*
G01*
X149358000Y-79050000D01*
G75*
G02*
X149558000Y-78850000I200000J0D01*
G01*
G37*
%TD.AperFunction*%
%TO.P,J7,3*%
%TO.N,/B37*%
%TA.AperFunction,SMDPad,CuDef*%
G36*
G01*
X149558000Y-77600000D02*
X150458000Y-77600000D01*
G75*
G02*
X150658000Y-77800000I0J-200000D01*
G01*
X150658000Y-78200000D01*
G75*
G02*
X150458000Y-78400000I-200000J0D01*
G01*
X149558000Y-78400000D01*
G75*
G02*
X149358000Y-78200000I0J200000D01*
G01*
X149358000Y-77800000D01*
G75*
G02*
X149558000Y-77600000I200000J0D01*
G01*
G37*
%TD.AperFunction*%
%TO.P,J7,2*%
%TO.N,/B38*%
%TA.AperFunction,SMDPad,CuDef*%
G36*
G01*
X149558000Y-76350000D02*
X150458000Y-76350000D01*
G75*
G02*
X150658000Y-76550000I0J-200000D01*
G01*
X150658000Y-76950000D01*
G75*
G02*
X150458000Y-77150000I-200000J0D01*
G01*
X149558000Y-77150000D01*
G75*
G02*
X149358000Y-76950000I0J200000D01*
G01*
X149358000Y-76550000D01*
G75*
G02*
X149558000Y-76350000I200000J0D01*
G01*
G37*
%TD.AperFunction*%
%TO.P,J7,1*%
%TO.N,/B39*%
%TA.AperFunction,SMDPad,CuDef*%
G36*
G01*
X149558000Y-75100000D02*
X150458000Y-75100000D01*
G75*
G02*
X150658000Y-75300000I0J-200000D01*
G01*
X150658000Y-75700000D01*
G75*
G02*
X150458000Y-75900000I-200000J0D01*
G01*
X149558000Y-75900000D01*
G75*
G02*
X149358000Y-75700000I0J200000D01*
G01*
X149358000Y-75300000D01*
G75*
G02*
X149558000Y-75100000I200000J0D01*
G01*
G37*
%TD.AperFunction*%
%TD*%
%TO.P,J6,MP*%
%TO.N,N/C*%
%TA.AperFunction,SMDPad,CuDef*%
G36*
G01*
X129959000Y-74000000D02*
X127459000Y-74000000D01*
G75*
G02*
X127209000Y-73750000I0J250000D01*
G01*
X127209000Y-72150000D01*
G75*
G02*
X127459000Y-71900000I250000J0D01*
G01*
X129959000Y-71900000D01*
G75*
G02*
X130209000Y-72150000I0J-250000D01*
G01*
X130209000Y-73750000D01*
G75*
G02*
X129959000Y-74000000I-250000J0D01*
G01*
G37*
%TD.AperFunction*%
%TA.AperFunction,SMDPad,CuDef*%
G36*
G01*
X129959000Y-94100000D02*
X127459000Y-94100000D01*
G75*
G02*
X127209000Y-93850000I0J250000D01*
G01*
X127209000Y-92250000D01*
G75*
G02*
X127459000Y-92000000I250000J0D01*
G01*
X129959000Y-92000000D01*
G75*
G02*
X130209000Y-92250000I0J-250000D01*
G01*
X130209000Y-93850000D01*
G75*
G02*
X129959000Y-94100000I-250000J0D01*
G01*
G37*
%TD.AperFunction*%
%TO.P,J6,13*%
%TO.N,/B14*%
%TA.AperFunction,SMDPad,CuDef*%
G36*
G01*
X131909000Y-75900000D02*
X131009000Y-75900000D01*
G75*
G02*
X130809000Y-75700000I0J200000D01*
G01*
X130809000Y-75300000D01*
G75*
G02*
X131009000Y-75100000I200000J0D01*
G01*
X131909000Y-75100000D01*
G75*
G02*
X132109000Y-75300000I0J-200000D01*
G01*
X132109000Y-75700000D01*
G75*
G02*
X131909000Y-75900000I-200000J0D01*
G01*
G37*
%TD.AperFunction*%
%TO.P,J6,12*%
%TO.N,/B15*%
%TA.AperFunction,SMDPad,CuDef*%
G36*
G01*
X131909000Y-77150000D02*
X131009000Y-77150000D01*
G75*
G02*
X130809000Y-76950000I0J200000D01*
G01*
X130809000Y-76550000D01*
G75*
G02*
X131009000Y-76350000I200000J0D01*
G01*
X131909000Y-76350000D01*
G75*
G02*
X132109000Y-76550000I0J-200000D01*
G01*
X132109000Y-76950000D01*
G75*
G02*
X131909000Y-77150000I-200000J0D01*
G01*
G37*
%TD.AperFunction*%
%TO.P,J6,11*%
%TO.N,/B16*%
%TA.AperFunction,SMDPad,CuDef*%
G36*
G01*
X131909000Y-78400000D02*
X131009000Y-78400000D01*
G75*
G02*
X130809000Y-78200000I0J200000D01*
G01*
X130809000Y-77800000D01*
G75*
G02*
X131009000Y-77600000I200000J0D01*
G01*
X131909000Y-77600000D01*
G75*
G02*
X132109000Y-77800000I0J-200000D01*
G01*
X132109000Y-78200000D01*
G75*
G02*
X131909000Y-78400000I-200000J0D01*
G01*
G37*
%TD.AperFunction*%
%TO.P,J6,10*%
%TO.N,/B17*%
%TA.AperFunction,SMDPad,CuDef*%
G36*
G01*
X131909000Y-79650000D02*
X131009000Y-79650000D01*
G75*
G02*
X130809000Y-79450000I0J200000D01*
G01*
X130809000Y-79050000D01*
G75*
G02*
X131009000Y-78850000I200000J0D01*
G01*
X131909000Y-78850000D01*
G75*
G02*
X132109000Y-79050000I0J-200000D01*
G01*
X132109000Y-79450000D01*
G75*
G02*
X131909000Y-79650000I-200000J0D01*
G01*
G37*
%TD.AperFunction*%
%TO.P,J6,9*%
%TO.N,/B18*%
%TA.AperFunction,SMDPad,CuDef*%
G36*
G01*
X131909000Y-80900000D02*
X131009000Y-80900000D01*
G75*
G02*
X130809000Y-80700000I0J200000D01*
G01*
X130809000Y-80300000D01*
G75*
G02*
X131009000Y-80100000I200000J0D01*
G01*
X131909000Y-80100000D01*
G75*
G02*
X132109000Y-80300000I0J-200000D01*
G01*
X132109000Y-80700000D01*
G75*
G02*
X131909000Y-80900000I-200000J0D01*
G01*
G37*
%TD.AperFunction*%
%TO.P,J6,8*%
%TO.N,/B19*%
%TA.AperFunction,SMDPad,CuDef*%
G36*
G01*
X131909000Y-82150000D02*
X131009000Y-82150000D01*
G75*
G02*
X130809000Y-81950000I0J200000D01*
G01*
X130809000Y-81550000D01*
G75*
G02*
X131009000Y-81350000I200000J0D01*
G01*
X131909000Y-81350000D01*
G75*
G02*
X132109000Y-81550000I0J-200000D01*
G01*
X132109000Y-81950000D01*
G75*
G02*
X131909000Y-82150000I-200000J0D01*
G01*
G37*
%TD.AperFunction*%
%TO.P,J6,7*%
%TO.N,/B20*%
%TA.AperFunction,SMDPad,CuDef*%
G36*
G01*
X131909000Y-83400000D02*
X131009000Y-83400000D01*
G75*
G02*
X130809000Y-83200000I0J200000D01*
G01*
X130809000Y-82800000D01*
G75*
G02*
X131009000Y-82600000I200000J0D01*
G01*
X131909000Y-82600000D01*
G75*
G02*
X132109000Y-82800000I0J-200000D01*
G01*
X132109000Y-83200000D01*
G75*
G02*
X131909000Y-83400000I-200000J0D01*
G01*
G37*
%TD.AperFunction*%
%TO.P,J6,6*%
%TO.N,/B21*%
%TA.AperFunction,SMDPad,CuDef*%
G36*
G01*
X131909000Y-84650000D02*
X131009000Y-84650000D01*
G75*
G02*
X130809000Y-84450000I0J200000D01*
G01*
X130809000Y-84050000D01*
G75*
G02*
X131009000Y-83850000I200000J0D01*
G01*
X131909000Y-83850000D01*
G75*
G02*
X132109000Y-84050000I0J-200000D01*
G01*
X132109000Y-84450000D01*
G75*
G02*
X131909000Y-84650000I-200000J0D01*
G01*
G37*
%TD.AperFunction*%
%TO.P,J6,5*%
%TO.N,/B22*%
%TA.AperFunction,SMDPad,CuDef*%
G36*
G01*
X131909000Y-85900000D02*
X131009000Y-85900000D01*
G75*
G02*
X130809000Y-85700000I0J200000D01*
G01*
X130809000Y-85300000D01*
G75*
G02*
X131009000Y-85100000I200000J0D01*
G01*
X131909000Y-85100000D01*
G75*
G02*
X132109000Y-85300000I0J-200000D01*
G01*
X132109000Y-85700000D01*
G75*
G02*
X131909000Y-85900000I-200000J0D01*
G01*
G37*
%TD.AperFunction*%
%TO.P,J6,4*%
%TO.N,/B23*%
%TA.AperFunction,SMDPad,CuDef*%
G36*
G01*
X131909000Y-87150000D02*
X131009000Y-87150000D01*
G75*
G02*
X130809000Y-86950000I0J200000D01*
G01*
X130809000Y-86550000D01*
G75*
G02*
X131009000Y-86350000I200000J0D01*
G01*
X131909000Y-86350000D01*
G75*
G02*
X132109000Y-86550000I0J-200000D01*
G01*
X132109000Y-86950000D01*
G75*
G02*
X131909000Y-87150000I-200000J0D01*
G01*
G37*
%TD.AperFunction*%
%TO.P,J6,3*%
%TO.N,/B24*%
%TA.AperFunction,SMDPad,CuDef*%
G36*
G01*
X131909000Y-88400000D02*
X131009000Y-88400000D01*
G75*
G02*
X130809000Y-88200000I0J200000D01*
G01*
X130809000Y-87800000D01*
G75*
G02*
X131009000Y-87600000I200000J0D01*
G01*
X131909000Y-87600000D01*
G75*
G02*
X132109000Y-87800000I0J-200000D01*
G01*
X132109000Y-88200000D01*
G75*
G02*
X131909000Y-88400000I-200000J0D01*
G01*
G37*
%TD.AperFunction*%
%TO.P,J6,2*%
%TO.N,/B25*%
%TA.AperFunction,SMDPad,CuDef*%
G36*
G01*
X131909000Y-89650000D02*
X131009000Y-89650000D01*
G75*
G02*
X130809000Y-89450000I0J200000D01*
G01*
X130809000Y-89050000D01*
G75*
G02*
X131009000Y-88850000I200000J0D01*
G01*
X131909000Y-88850000D01*
G75*
G02*
X132109000Y-89050000I0J-200000D01*
G01*
X132109000Y-89450000D01*
G75*
G02*
X131909000Y-89650000I-200000J0D01*
G01*
G37*
%TD.AperFunction*%
%TO.P,J6,1*%
%TO.N,/B26*%
%TA.AperFunction,SMDPad,CuDef*%
G36*
G01*
X131909000Y-90900000D02*
X131009000Y-90900000D01*
G75*
G02*
X130809000Y-90700000I0J200000D01*
G01*
X130809000Y-90300000D01*
G75*
G02*
X131009000Y-90100000I200000J0D01*
G01*
X131909000Y-90100000D01*
G75*
G02*
X132109000Y-90300000I0J-200000D01*
G01*
X132109000Y-90700000D01*
G75*
G02*
X131909000Y-90900000I-200000J0D01*
G01*
G37*
%TD.AperFunction*%
%TD*%
%TO.P,J5,MP*%
%TO.N,N/C*%
%TA.AperFunction,SMDPad,CuDef*%
G36*
G01*
X108910000Y-74000000D02*
X106410000Y-74000000D01*
G75*
G02*
X106160000Y-73750000I0J250000D01*
G01*
X106160000Y-72150000D01*
G75*
G02*
X106410000Y-71900000I250000J0D01*
G01*
X108910000Y-71900000D01*
G75*
G02*
X109160000Y-72150000I0J-250000D01*
G01*
X109160000Y-73750000D01*
G75*
G02*
X108910000Y-74000000I-250000J0D01*
G01*
G37*
%TD.AperFunction*%
%TA.AperFunction,SMDPad,CuDef*%
G36*
G01*
X108910000Y-94100000D02*
X106410000Y-94100000D01*
G75*
G02*
X106160000Y-93850000I0J250000D01*
G01*
X106160000Y-92250000D01*
G75*
G02*
X106410000Y-92000000I250000J0D01*
G01*
X108910000Y-92000000D01*
G75*
G02*
X109160000Y-92250000I0J-250000D01*
G01*
X109160000Y-93850000D01*
G75*
G02*
X108910000Y-94100000I-250000J0D01*
G01*
G37*
%TD.AperFunction*%
%TO.P,J5,13*%
%TO.N,/B1*%
%TA.AperFunction,SMDPad,CuDef*%
G36*
G01*
X110860000Y-75900000D02*
X109960000Y-75900000D01*
G75*
G02*
X109760000Y-75700000I0J200000D01*
G01*
X109760000Y-75300000D01*
G75*
G02*
X109960000Y-75100000I200000J0D01*
G01*
X110860000Y-75100000D01*
G75*
G02*
X111060000Y-75300000I0J-200000D01*
G01*
X111060000Y-75700000D01*
G75*
G02*
X110860000Y-75900000I-200000J0D01*
G01*
G37*
%TD.AperFunction*%
%TO.P,J5,12*%
%TO.N,/B2*%
%TA.AperFunction,SMDPad,CuDef*%
G36*
G01*
X110860000Y-77150000D02*
X109960000Y-77150000D01*
G75*
G02*
X109760000Y-76950000I0J200000D01*
G01*
X109760000Y-76550000D01*
G75*
G02*
X109960000Y-76350000I200000J0D01*
G01*
X110860000Y-76350000D01*
G75*
G02*
X111060000Y-76550000I0J-200000D01*
G01*
X111060000Y-76950000D01*
G75*
G02*
X110860000Y-77150000I-200000J0D01*
G01*
G37*
%TD.AperFunction*%
%TO.P,J5,11*%
%TO.N,/B3*%
%TA.AperFunction,SMDPad,CuDef*%
G36*
G01*
X110860000Y-78400000D02*
X109960000Y-78400000D01*
G75*
G02*
X109760000Y-78200000I0J200000D01*
G01*
X109760000Y-77800000D01*
G75*
G02*
X109960000Y-77600000I200000J0D01*
G01*
X110860000Y-77600000D01*
G75*
G02*
X111060000Y-77800000I0J-200000D01*
G01*
X111060000Y-78200000D01*
G75*
G02*
X110860000Y-78400000I-200000J0D01*
G01*
G37*
%TD.AperFunction*%
%TO.P,J5,10*%
%TO.N,/B4*%
%TA.AperFunction,SMDPad,CuDef*%
G36*
G01*
X110860000Y-79650000D02*
X109960000Y-79650000D01*
G75*
G02*
X109760000Y-79450000I0J200000D01*
G01*
X109760000Y-79050000D01*
G75*
G02*
X109960000Y-78850000I200000J0D01*
G01*
X110860000Y-78850000D01*
G75*
G02*
X111060000Y-79050000I0J-200000D01*
G01*
X111060000Y-79450000D01*
G75*
G02*
X110860000Y-79650000I-200000J0D01*
G01*
G37*
%TD.AperFunction*%
%TO.P,J5,9*%
%TO.N,/B5*%
%TA.AperFunction,SMDPad,CuDef*%
G36*
G01*
X110860000Y-80900000D02*
X109960000Y-80900000D01*
G75*
G02*
X109760000Y-80700000I0J200000D01*
G01*
X109760000Y-80300000D01*
G75*
G02*
X109960000Y-80100000I200000J0D01*
G01*
X110860000Y-80100000D01*
G75*
G02*
X111060000Y-80300000I0J-200000D01*
G01*
X111060000Y-80700000D01*
G75*
G02*
X110860000Y-80900000I-200000J0D01*
G01*
G37*
%TD.AperFunction*%
%TO.P,J5,8*%
%TO.N,/B6*%
%TA.AperFunction,SMDPad,CuDef*%
G36*
G01*
X110860000Y-82150000D02*
X109960000Y-82150000D01*
G75*
G02*
X109760000Y-81950000I0J200000D01*
G01*
X109760000Y-81550000D01*
G75*
G02*
X109960000Y-81350000I200000J0D01*
G01*
X110860000Y-81350000D01*
G75*
G02*
X111060000Y-81550000I0J-200000D01*
G01*
X111060000Y-81950000D01*
G75*
G02*
X110860000Y-82150000I-200000J0D01*
G01*
G37*
%TD.AperFunction*%
%TO.P,J5,7*%
%TO.N,/B7*%
%TA.AperFunction,SMDPad,CuDef*%
G36*
G01*
X110860000Y-83400000D02*
X109960000Y-83400000D01*
G75*
G02*
X109760000Y-83200000I0J200000D01*
G01*
X109760000Y-82800000D01*
G75*
G02*
X109960000Y-82600000I200000J0D01*
G01*
X110860000Y-82600000D01*
G75*
G02*
X111060000Y-82800000I0J-200000D01*
G01*
X111060000Y-83200000D01*
G75*
G02*
X110860000Y-83400000I-200000J0D01*
G01*
G37*
%TD.AperFunction*%
%TO.P,J5,6*%
%TO.N,/B8*%
%TA.AperFunction,SMDPad,CuDef*%
G36*
G01*
X110860000Y-84650000D02*
X109960000Y-84650000D01*
G75*
G02*
X109760000Y-84450000I0J200000D01*
G01*
X109760000Y-84050000D01*
G75*
G02*
X109960000Y-83850000I200000J0D01*
G01*
X110860000Y-83850000D01*
G75*
G02*
X111060000Y-84050000I0J-200000D01*
G01*
X111060000Y-84450000D01*
G75*
G02*
X110860000Y-84650000I-200000J0D01*
G01*
G37*
%TD.AperFunction*%
%TO.P,J5,5*%
%TO.N,/B9*%
%TA.AperFunction,SMDPad,CuDef*%
G36*
G01*
X110860000Y-85900000D02*
X109960000Y-85900000D01*
G75*
G02*
X109760000Y-85700000I0J200000D01*
G01*
X109760000Y-85300000D01*
G75*
G02*
X109960000Y-85100000I200000J0D01*
G01*
X110860000Y-85100000D01*
G75*
G02*
X111060000Y-85300000I0J-200000D01*
G01*
X111060000Y-85700000D01*
G75*
G02*
X110860000Y-85900000I-200000J0D01*
G01*
G37*
%TD.AperFunction*%
%TO.P,J5,4*%
%TO.N,/B10*%
%TA.AperFunction,SMDPad,CuDef*%
G36*
G01*
X110860000Y-87150000D02*
X109960000Y-87150000D01*
G75*
G02*
X109760000Y-86950000I0J200000D01*
G01*
X109760000Y-86550000D01*
G75*
G02*
X109960000Y-86350000I200000J0D01*
G01*
X110860000Y-86350000D01*
G75*
G02*
X111060000Y-86550000I0J-200000D01*
G01*
X111060000Y-86950000D01*
G75*
G02*
X110860000Y-87150000I-200000J0D01*
G01*
G37*
%TD.AperFunction*%
%TO.P,J5,3*%
%TO.N,/B11*%
%TA.AperFunction,SMDPad,CuDef*%
G36*
G01*
X110860000Y-88400000D02*
X109960000Y-88400000D01*
G75*
G02*
X109760000Y-88200000I0J200000D01*
G01*
X109760000Y-87800000D01*
G75*
G02*
X109960000Y-87600000I200000J0D01*
G01*
X110860000Y-87600000D01*
G75*
G02*
X111060000Y-87800000I0J-200000D01*
G01*
X111060000Y-88200000D01*
G75*
G02*
X110860000Y-88400000I-200000J0D01*
G01*
G37*
%TD.AperFunction*%
%TO.P,J5,2*%
%TO.N,/B12*%
%TA.AperFunction,SMDPad,CuDef*%
G36*
G01*
X110860000Y-89650000D02*
X109960000Y-89650000D01*
G75*
G02*
X109760000Y-89450000I0J200000D01*
G01*
X109760000Y-89050000D01*
G75*
G02*
X109960000Y-88850000I200000J0D01*
G01*
X110860000Y-88850000D01*
G75*
G02*
X111060000Y-89050000I0J-200000D01*
G01*
X111060000Y-89450000D01*
G75*
G02*
X110860000Y-89650000I-200000J0D01*
G01*
G37*
%TD.AperFunction*%
%TO.P,J5,1*%
%TO.N,/B13*%
%TA.AperFunction,SMDPad,CuDef*%
G36*
G01*
X110860000Y-90900000D02*
X109960000Y-90900000D01*
G75*
G02*
X109760000Y-90700000I0J200000D01*
G01*
X109760000Y-90300000D01*
G75*
G02*
X109960000Y-90100000I200000J0D01*
G01*
X110860000Y-90100000D01*
G75*
G02*
X111060000Y-90300000I0J-200000D01*
G01*
X111060000Y-90700000D01*
G75*
G02*
X110860000Y-90900000I-200000J0D01*
G01*
G37*
%TD.AperFunction*%
%TD*%
%TO.P,J4,MP*%
%TO.N,N/C*%
%TA.AperFunction,SMDPad,CuDef*%
G36*
G01*
X172558000Y-92000000D02*
X175058000Y-92000000D01*
G75*
G02*
X175308000Y-92250000I0J-250000D01*
G01*
X175308000Y-93850000D01*
G75*
G02*
X175058000Y-94100000I-250000J0D01*
G01*
X172558000Y-94100000D01*
G75*
G02*
X172308000Y-93850000I0J250000D01*
G01*
X172308000Y-92250000D01*
G75*
G02*
X172558000Y-92000000I250000J0D01*
G01*
G37*
%TD.AperFunction*%
%TA.AperFunction,SMDPad,CuDef*%
G36*
G01*
X172558000Y-71900000D02*
X175058000Y-71900000D01*
G75*
G02*
X175308000Y-72150000I0J-250000D01*
G01*
X175308000Y-73750000D01*
G75*
G02*
X175058000Y-74000000I-250000J0D01*
G01*
X172558000Y-74000000D01*
G75*
G02*
X172308000Y-73750000I0J250000D01*
G01*
X172308000Y-72150000D01*
G75*
G02*
X172558000Y-71900000I250000J0D01*
G01*
G37*
%TD.AperFunction*%
%TO.P,J4,13*%
%TO.N,/A40*%
%TA.AperFunction,SMDPad,CuDef*%
G36*
G01*
X170608000Y-90100000D02*
X171508000Y-90100000D01*
G75*
G02*
X171708000Y-90300000I0J-200000D01*
G01*
X171708000Y-90700000D01*
G75*
G02*
X171508000Y-90900000I-200000J0D01*
G01*
X170608000Y-90900000D01*
G75*
G02*
X170408000Y-90700000I0J200000D01*
G01*
X170408000Y-90300000D01*
G75*
G02*
X170608000Y-90100000I200000J0D01*
G01*
G37*
%TD.AperFunction*%
%TO.P,J4,12*%
%TO.N,/A41*%
%TA.AperFunction,SMDPad,CuDef*%
G36*
G01*
X170608000Y-88850000D02*
X171508000Y-88850000D01*
G75*
G02*
X171708000Y-89050000I0J-200000D01*
G01*
X171708000Y-89450000D01*
G75*
G02*
X171508000Y-89650000I-200000J0D01*
G01*
X170608000Y-89650000D01*
G75*
G02*
X170408000Y-89450000I0J200000D01*
G01*
X170408000Y-89050000D01*
G75*
G02*
X170608000Y-88850000I200000J0D01*
G01*
G37*
%TD.AperFunction*%
%TO.P,J4,11*%
%TO.N,/A42*%
%TA.AperFunction,SMDPad,CuDef*%
G36*
G01*
X170608000Y-87600000D02*
X171508000Y-87600000D01*
G75*
G02*
X171708000Y-87800000I0J-200000D01*
G01*
X171708000Y-88200000D01*
G75*
G02*
X171508000Y-88400000I-200000J0D01*
G01*
X170608000Y-88400000D01*
G75*
G02*
X170408000Y-88200000I0J200000D01*
G01*
X170408000Y-87800000D01*
G75*
G02*
X170608000Y-87600000I200000J0D01*
G01*
G37*
%TD.AperFunction*%
%TO.P,J4,10*%
%TO.N,/A43*%
%TA.AperFunction,SMDPad,CuDef*%
G36*
G01*
X170608000Y-86350000D02*
X171508000Y-86350000D01*
G75*
G02*
X171708000Y-86550000I0J-200000D01*
G01*
X171708000Y-86950000D01*
G75*
G02*
X171508000Y-87150000I-200000J0D01*
G01*
X170608000Y-87150000D01*
G75*
G02*
X170408000Y-86950000I0J200000D01*
G01*
X170408000Y-86550000D01*
G75*
G02*
X170608000Y-86350000I200000J0D01*
G01*
G37*
%TD.AperFunction*%
%TO.P,J4,9*%
%TO.N,/A44*%
%TA.AperFunction,SMDPad,CuDef*%
G36*
G01*
X170608000Y-85100000D02*
X171508000Y-85100000D01*
G75*
G02*
X171708000Y-85300000I0J-200000D01*
G01*
X171708000Y-85700000D01*
G75*
G02*
X171508000Y-85900000I-200000J0D01*
G01*
X170608000Y-85900000D01*
G75*
G02*
X170408000Y-85700000I0J200000D01*
G01*
X170408000Y-85300000D01*
G75*
G02*
X170608000Y-85100000I200000J0D01*
G01*
G37*
%TD.AperFunction*%
%TO.P,J4,8*%
%TO.N,/A45*%
%TA.AperFunction,SMDPad,CuDef*%
G36*
G01*
X170608000Y-83850000D02*
X171508000Y-83850000D01*
G75*
G02*
X171708000Y-84050000I0J-200000D01*
G01*
X171708000Y-84450000D01*
G75*
G02*
X171508000Y-84650000I-200000J0D01*
G01*
X170608000Y-84650000D01*
G75*
G02*
X170408000Y-84450000I0J200000D01*
G01*
X170408000Y-84050000D01*
G75*
G02*
X170608000Y-83850000I200000J0D01*
G01*
G37*
%TD.AperFunction*%
%TO.P,J4,7*%
%TO.N,/A46*%
%TA.AperFunction,SMDPad,CuDef*%
G36*
G01*
X170608000Y-82600000D02*
X171508000Y-82600000D01*
G75*
G02*
X171708000Y-82800000I0J-200000D01*
G01*
X171708000Y-83200000D01*
G75*
G02*
X171508000Y-83400000I-200000J0D01*
G01*
X170608000Y-83400000D01*
G75*
G02*
X170408000Y-83200000I0J200000D01*
G01*
X170408000Y-82800000D01*
G75*
G02*
X170608000Y-82600000I200000J0D01*
G01*
G37*
%TD.AperFunction*%
%TO.P,J4,6*%
%TO.N,/A47*%
%TA.AperFunction,SMDPad,CuDef*%
G36*
G01*
X170608000Y-81350000D02*
X171508000Y-81350000D01*
G75*
G02*
X171708000Y-81550000I0J-200000D01*
G01*
X171708000Y-81950000D01*
G75*
G02*
X171508000Y-82150000I-200000J0D01*
G01*
X170608000Y-82150000D01*
G75*
G02*
X170408000Y-81950000I0J200000D01*
G01*
X170408000Y-81550000D01*
G75*
G02*
X170608000Y-81350000I200000J0D01*
G01*
G37*
%TD.AperFunction*%
%TO.P,J4,5*%
%TO.N,/A48*%
%TA.AperFunction,SMDPad,CuDef*%
G36*
G01*
X170608000Y-80100000D02*
X171508000Y-80100000D01*
G75*
G02*
X171708000Y-80300000I0J-200000D01*
G01*
X171708000Y-80700000D01*
G75*
G02*
X171508000Y-80900000I-200000J0D01*
G01*
X170608000Y-80900000D01*
G75*
G02*
X170408000Y-80700000I0J200000D01*
G01*
X170408000Y-80300000D01*
G75*
G02*
X170608000Y-80100000I200000J0D01*
G01*
G37*
%TD.AperFunction*%
%TO.P,J4,4*%
%TO.N,/A49*%
%TA.AperFunction,SMDPad,CuDef*%
G36*
G01*
X170608000Y-78850000D02*
X171508000Y-78850000D01*
G75*
G02*
X171708000Y-79050000I0J-200000D01*
G01*
X171708000Y-79450000D01*
G75*
G02*
X171508000Y-79650000I-200000J0D01*
G01*
X170608000Y-79650000D01*
G75*
G02*
X170408000Y-79450000I0J200000D01*
G01*
X170408000Y-79050000D01*
G75*
G02*
X170608000Y-78850000I200000J0D01*
G01*
G37*
%TD.AperFunction*%
%TO.P,J4,3*%
%TO.N,/A50*%
%TA.AperFunction,SMDPad,CuDef*%
G36*
G01*
X170608000Y-77600000D02*
X171508000Y-77600000D01*
G75*
G02*
X171708000Y-77800000I0J-200000D01*
G01*
X171708000Y-78200000D01*
G75*
G02*
X171508000Y-78400000I-200000J0D01*
G01*
X170608000Y-78400000D01*
G75*
G02*
X170408000Y-78200000I0J200000D01*
G01*
X170408000Y-77800000D01*
G75*
G02*
X170608000Y-77600000I200000J0D01*
G01*
G37*
%TD.AperFunction*%
%TO.P,J4,2*%
%TO.N,/A51*%
%TA.AperFunction,SMDPad,CuDef*%
G36*
G01*
X170608000Y-76350000D02*
X171508000Y-76350000D01*
G75*
G02*
X171708000Y-76550000I0J-200000D01*
G01*
X171708000Y-76950000D01*
G75*
G02*
X171508000Y-77150000I-200000J0D01*
G01*
X170608000Y-77150000D01*
G75*
G02*
X170408000Y-76950000I0J200000D01*
G01*
X170408000Y-76550000D01*
G75*
G02*
X170608000Y-76350000I200000J0D01*
G01*
G37*
%TD.AperFunction*%
%TO.P,J4,1*%
%TO.N,/A52*%
%TA.AperFunction,SMDPad,CuDef*%
G36*
G01*
X170608000Y-75100000D02*
X171508000Y-75100000D01*
G75*
G02*
X171708000Y-75300000I0J-200000D01*
G01*
X171708000Y-75700000D01*
G75*
G02*
X171508000Y-75900000I-200000J0D01*
G01*
X170608000Y-75900000D01*
G75*
G02*
X170408000Y-75700000I0J200000D01*
G01*
X170408000Y-75300000D01*
G75*
G02*
X170608000Y-75100000I200000J0D01*
G01*
G37*
%TD.AperFunction*%
%TD*%
%TO.P,J3,MP*%
%TO.N,N/C*%
%TA.AperFunction,SMDPad,CuDef*%
G36*
G01*
X162033000Y-92000000D02*
X164533000Y-92000000D01*
G75*
G02*
X164783000Y-92250000I0J-250000D01*
G01*
X164783000Y-93850000D01*
G75*
G02*
X164533000Y-94100000I-250000J0D01*
G01*
X162033000Y-94100000D01*
G75*
G02*
X161783000Y-93850000I0J250000D01*
G01*
X161783000Y-92250000D01*
G75*
G02*
X162033000Y-92000000I250000J0D01*
G01*
G37*
%TD.AperFunction*%
%TA.AperFunction,SMDPad,CuDef*%
G36*
G01*
X162033000Y-71900000D02*
X164533000Y-71900000D01*
G75*
G02*
X164783000Y-72150000I0J-250000D01*
G01*
X164783000Y-73750000D01*
G75*
G02*
X164533000Y-74000000I-250000J0D01*
G01*
X162033000Y-74000000D01*
G75*
G02*
X161783000Y-73750000I0J250000D01*
G01*
X161783000Y-72150000D01*
G75*
G02*
X162033000Y-71900000I250000J0D01*
G01*
G37*
%TD.AperFunction*%
%TO.P,J3,13*%
%TO.N,/A27*%
%TA.AperFunction,SMDPad,CuDef*%
G36*
G01*
X160083000Y-90100000D02*
X160983000Y-90100000D01*
G75*
G02*
X161183000Y-90300000I0J-200000D01*
G01*
X161183000Y-90700000D01*
G75*
G02*
X160983000Y-90900000I-200000J0D01*
G01*
X160083000Y-90900000D01*
G75*
G02*
X159883000Y-90700000I0J200000D01*
G01*
X159883000Y-90300000D01*
G75*
G02*
X160083000Y-90100000I200000J0D01*
G01*
G37*
%TD.AperFunction*%
%TO.P,J3,12*%
%TO.N,/A28*%
%TA.AperFunction,SMDPad,CuDef*%
G36*
G01*
X160083000Y-88850000D02*
X160983000Y-88850000D01*
G75*
G02*
X161183000Y-89050000I0J-200000D01*
G01*
X161183000Y-89450000D01*
G75*
G02*
X160983000Y-89650000I-200000J0D01*
G01*
X160083000Y-89650000D01*
G75*
G02*
X159883000Y-89450000I0J200000D01*
G01*
X159883000Y-89050000D01*
G75*
G02*
X160083000Y-88850000I200000J0D01*
G01*
G37*
%TD.AperFunction*%
%TO.P,J3,11*%
%TO.N,/A29*%
%TA.AperFunction,SMDPad,CuDef*%
G36*
G01*
X160083000Y-87600000D02*
X160983000Y-87600000D01*
G75*
G02*
X161183000Y-87800000I0J-200000D01*
G01*
X161183000Y-88200000D01*
G75*
G02*
X160983000Y-88400000I-200000J0D01*
G01*
X160083000Y-88400000D01*
G75*
G02*
X159883000Y-88200000I0J200000D01*
G01*
X159883000Y-87800000D01*
G75*
G02*
X160083000Y-87600000I200000J0D01*
G01*
G37*
%TD.AperFunction*%
%TO.P,J3,10*%
%TO.N,/A30*%
%TA.AperFunction,SMDPad,CuDef*%
G36*
G01*
X160083000Y-86350000D02*
X160983000Y-86350000D01*
G75*
G02*
X161183000Y-86550000I0J-200000D01*
G01*
X161183000Y-86950000D01*
G75*
G02*
X160983000Y-87150000I-200000J0D01*
G01*
X160083000Y-87150000D01*
G75*
G02*
X159883000Y-86950000I0J200000D01*
G01*
X159883000Y-86550000D01*
G75*
G02*
X160083000Y-86350000I200000J0D01*
G01*
G37*
%TD.AperFunction*%
%TO.P,J3,9*%
%TO.N,/A31*%
%TA.AperFunction,SMDPad,CuDef*%
G36*
G01*
X160083000Y-85100000D02*
X160983000Y-85100000D01*
G75*
G02*
X161183000Y-85300000I0J-200000D01*
G01*
X161183000Y-85700000D01*
G75*
G02*
X160983000Y-85900000I-200000J0D01*
G01*
X160083000Y-85900000D01*
G75*
G02*
X159883000Y-85700000I0J200000D01*
G01*
X159883000Y-85300000D01*
G75*
G02*
X160083000Y-85100000I200000J0D01*
G01*
G37*
%TD.AperFunction*%
%TO.P,J3,8*%
%TO.N,/A32*%
%TA.AperFunction,SMDPad,CuDef*%
G36*
G01*
X160083000Y-83850000D02*
X160983000Y-83850000D01*
G75*
G02*
X161183000Y-84050000I0J-200000D01*
G01*
X161183000Y-84450000D01*
G75*
G02*
X160983000Y-84650000I-200000J0D01*
G01*
X160083000Y-84650000D01*
G75*
G02*
X159883000Y-84450000I0J200000D01*
G01*
X159883000Y-84050000D01*
G75*
G02*
X160083000Y-83850000I200000J0D01*
G01*
G37*
%TD.AperFunction*%
%TO.P,J3,7*%
%TO.N,/A33*%
%TA.AperFunction,SMDPad,CuDef*%
G36*
G01*
X160083000Y-82600000D02*
X160983000Y-82600000D01*
G75*
G02*
X161183000Y-82800000I0J-200000D01*
G01*
X161183000Y-83200000D01*
G75*
G02*
X160983000Y-83400000I-200000J0D01*
G01*
X160083000Y-83400000D01*
G75*
G02*
X159883000Y-83200000I0J200000D01*
G01*
X159883000Y-82800000D01*
G75*
G02*
X160083000Y-82600000I200000J0D01*
G01*
G37*
%TD.AperFunction*%
%TO.P,J3,6*%
%TO.N,/A34*%
%TA.AperFunction,SMDPad,CuDef*%
G36*
G01*
X160083000Y-81350000D02*
X160983000Y-81350000D01*
G75*
G02*
X161183000Y-81550000I0J-200000D01*
G01*
X161183000Y-81950000D01*
G75*
G02*
X160983000Y-82150000I-200000J0D01*
G01*
X160083000Y-82150000D01*
G75*
G02*
X159883000Y-81950000I0J200000D01*
G01*
X159883000Y-81550000D01*
G75*
G02*
X160083000Y-81350000I200000J0D01*
G01*
G37*
%TD.AperFunction*%
%TO.P,J3,5*%
%TO.N,/A35*%
%TA.AperFunction,SMDPad,CuDef*%
G36*
G01*
X160083000Y-80100000D02*
X160983000Y-80100000D01*
G75*
G02*
X161183000Y-80300000I0J-200000D01*
G01*
X161183000Y-80700000D01*
G75*
G02*
X160983000Y-80900000I-200000J0D01*
G01*
X160083000Y-80900000D01*
G75*
G02*
X159883000Y-80700000I0J200000D01*
G01*
X159883000Y-80300000D01*
G75*
G02*
X160083000Y-80100000I200000J0D01*
G01*
G37*
%TD.AperFunction*%
%TO.P,J3,4*%
%TO.N,/A36*%
%TA.AperFunction,SMDPad,CuDef*%
G36*
G01*
X160083000Y-78850000D02*
X160983000Y-78850000D01*
G75*
G02*
X161183000Y-79050000I0J-200000D01*
G01*
X161183000Y-79450000D01*
G75*
G02*
X160983000Y-79650000I-200000J0D01*
G01*
X160083000Y-79650000D01*
G75*
G02*
X159883000Y-79450000I0J200000D01*
G01*
X159883000Y-79050000D01*
G75*
G02*
X160083000Y-78850000I200000J0D01*
G01*
G37*
%TD.AperFunction*%
%TO.P,J3,3*%
%TO.N,/A37*%
%TA.AperFunction,SMDPad,CuDef*%
G36*
G01*
X160083000Y-77600000D02*
X160983000Y-77600000D01*
G75*
G02*
X161183000Y-77800000I0J-200000D01*
G01*
X161183000Y-78200000D01*
G75*
G02*
X160983000Y-78400000I-200000J0D01*
G01*
X160083000Y-78400000D01*
G75*
G02*
X159883000Y-78200000I0J200000D01*
G01*
X159883000Y-77800000D01*
G75*
G02*
X160083000Y-77600000I200000J0D01*
G01*
G37*
%TD.AperFunction*%
%TO.P,J3,2*%
%TO.N,/A38*%
%TA.AperFunction,SMDPad,CuDef*%
G36*
G01*
X160083000Y-76350000D02*
X160983000Y-76350000D01*
G75*
G02*
X161183000Y-76550000I0J-200000D01*
G01*
X161183000Y-76950000D01*
G75*
G02*
X160983000Y-77150000I-200000J0D01*
G01*
X160083000Y-77150000D01*
G75*
G02*
X159883000Y-76950000I0J200000D01*
G01*
X159883000Y-76550000D01*
G75*
G02*
X160083000Y-76350000I200000J0D01*
G01*
G37*
%TD.AperFunction*%
%TO.P,J3,1*%
%TO.N,/A39*%
%TA.AperFunction,SMDPad,CuDef*%
G36*
G01*
X160083000Y-75100000D02*
X160983000Y-75100000D01*
G75*
G02*
X161183000Y-75300000I0J-200000D01*
G01*
X161183000Y-75700000D01*
G75*
G02*
X160983000Y-75900000I-200000J0D01*
G01*
X160083000Y-75900000D01*
G75*
G02*
X159883000Y-75700000I0J200000D01*
G01*
X159883000Y-75300000D01*
G75*
G02*
X160083000Y-75100000I200000J0D01*
G01*
G37*
%TD.AperFunction*%
%TD*%
%TO.P,J2,MP*%
%TO.N,N/C*%
%TA.AperFunction,SMDPad,CuDef*%
G36*
G01*
X140484000Y-74000000D02*
X137984000Y-74000000D01*
G75*
G02*
X137734000Y-73750000I0J250000D01*
G01*
X137734000Y-72150000D01*
G75*
G02*
X137984000Y-71900000I250000J0D01*
G01*
X140484000Y-71900000D01*
G75*
G02*
X140734000Y-72150000I0J-250000D01*
G01*
X140734000Y-73750000D01*
G75*
G02*
X140484000Y-74000000I-250000J0D01*
G01*
G37*
%TD.AperFunction*%
%TA.AperFunction,SMDPad,CuDef*%
G36*
G01*
X140484000Y-94100000D02*
X137984000Y-94100000D01*
G75*
G02*
X137734000Y-93850000I0J250000D01*
G01*
X137734000Y-92250000D01*
G75*
G02*
X137984000Y-92000000I250000J0D01*
G01*
X140484000Y-92000000D01*
G75*
G02*
X140734000Y-92250000I0J-250000D01*
G01*
X140734000Y-93850000D01*
G75*
G02*
X140484000Y-94100000I-250000J0D01*
G01*
G37*
%TD.AperFunction*%
%TO.P,J2,13*%
%TO.N,/A14*%
%TA.AperFunction,SMDPad,CuDef*%
G36*
G01*
X142434000Y-75900000D02*
X141534000Y-75900000D01*
G75*
G02*
X141334000Y-75700000I0J200000D01*
G01*
X141334000Y-75300000D01*
G75*
G02*
X141534000Y-75100000I200000J0D01*
G01*
X142434000Y-75100000D01*
G75*
G02*
X142634000Y-75300000I0J-200000D01*
G01*
X142634000Y-75700000D01*
G75*
G02*
X142434000Y-75900000I-200000J0D01*
G01*
G37*
%TD.AperFunction*%
%TO.P,J2,12*%
%TO.N,/A15*%
%TA.AperFunction,SMDPad,CuDef*%
G36*
G01*
X142434000Y-77150000D02*
X141534000Y-77150000D01*
G75*
G02*
X141334000Y-76950000I0J200000D01*
G01*
X141334000Y-76550000D01*
G75*
G02*
X141534000Y-76350000I200000J0D01*
G01*
X142434000Y-76350000D01*
G75*
G02*
X142634000Y-76550000I0J-200000D01*
G01*
X142634000Y-76950000D01*
G75*
G02*
X142434000Y-77150000I-200000J0D01*
G01*
G37*
%TD.AperFunction*%
%TO.P,J2,11*%
%TO.N,/A16*%
%TA.AperFunction,SMDPad,CuDef*%
G36*
G01*
X142434000Y-78400000D02*
X141534000Y-78400000D01*
G75*
G02*
X141334000Y-78200000I0J200000D01*
G01*
X141334000Y-77800000D01*
G75*
G02*
X141534000Y-77600000I200000J0D01*
G01*
X142434000Y-77600000D01*
G75*
G02*
X142634000Y-77800000I0J-200000D01*
G01*
X142634000Y-78200000D01*
G75*
G02*
X142434000Y-78400000I-200000J0D01*
G01*
G37*
%TD.AperFunction*%
%TO.P,J2,10*%
%TO.N,/A17*%
%TA.AperFunction,SMDPad,CuDef*%
G36*
G01*
X142434000Y-79650000D02*
X141534000Y-79650000D01*
G75*
G02*
X141334000Y-79450000I0J200000D01*
G01*
X141334000Y-79050000D01*
G75*
G02*
X141534000Y-78850000I200000J0D01*
G01*
X142434000Y-78850000D01*
G75*
G02*
X142634000Y-79050000I0J-200000D01*
G01*
X142634000Y-79450000D01*
G75*
G02*
X142434000Y-79650000I-200000J0D01*
G01*
G37*
%TD.AperFunction*%
%TO.P,J2,9*%
%TO.N,/A18*%
%TA.AperFunction,SMDPad,CuDef*%
G36*
G01*
X142434000Y-80900000D02*
X141534000Y-80900000D01*
G75*
G02*
X141334000Y-80700000I0J200000D01*
G01*
X141334000Y-80300000D01*
G75*
G02*
X141534000Y-80100000I200000J0D01*
G01*
X142434000Y-80100000D01*
G75*
G02*
X142634000Y-80300000I0J-200000D01*
G01*
X142634000Y-80700000D01*
G75*
G02*
X142434000Y-80900000I-200000J0D01*
G01*
G37*
%TD.AperFunction*%
%TO.P,J2,8*%
%TO.N,/A19*%
%TA.AperFunction,SMDPad,CuDef*%
G36*
G01*
X142434000Y-82150000D02*
X141534000Y-82150000D01*
G75*
G02*
X141334000Y-81950000I0J200000D01*
G01*
X141334000Y-81550000D01*
G75*
G02*
X141534000Y-81350000I200000J0D01*
G01*
X142434000Y-81350000D01*
G75*
G02*
X142634000Y-81550000I0J-200000D01*
G01*
X142634000Y-81950000D01*
G75*
G02*
X142434000Y-82150000I-200000J0D01*
G01*
G37*
%TD.AperFunction*%
%TO.P,J2,7*%
%TO.N,/A20*%
%TA.AperFunction,SMDPad,CuDef*%
G36*
G01*
X142434000Y-83400000D02*
X141534000Y-83400000D01*
G75*
G02*
X141334000Y-83200000I0J200000D01*
G01*
X141334000Y-82800000D01*
G75*
G02*
X141534000Y-82600000I200000J0D01*
G01*
X142434000Y-82600000D01*
G75*
G02*
X142634000Y-82800000I0J-200000D01*
G01*
X142634000Y-83200000D01*
G75*
G02*
X142434000Y-83400000I-200000J0D01*
G01*
G37*
%TD.AperFunction*%
%TO.P,J2,6*%
%TO.N,/A21*%
%TA.AperFunction,SMDPad,CuDef*%
G36*
G01*
X142434000Y-84650000D02*
X141534000Y-84650000D01*
G75*
G02*
X141334000Y-84450000I0J200000D01*
G01*
X141334000Y-84050000D01*
G75*
G02*
X141534000Y-83850000I200000J0D01*
G01*
X142434000Y-83850000D01*
G75*
G02*
X142634000Y-84050000I0J-200000D01*
G01*
X142634000Y-84450000D01*
G75*
G02*
X142434000Y-84650000I-200000J0D01*
G01*
G37*
%TD.AperFunction*%
%TO.P,J2,5*%
%TO.N,/A22*%
%TA.AperFunction,SMDPad,CuDef*%
G36*
G01*
X142434000Y-85900000D02*
X141534000Y-85900000D01*
G75*
G02*
X141334000Y-85700000I0J200000D01*
G01*
X141334000Y-85300000D01*
G75*
G02*
X141534000Y-85100000I200000J0D01*
G01*
X142434000Y-85100000D01*
G75*
G02*
X142634000Y-85300000I0J-200000D01*
G01*
X142634000Y-85700000D01*
G75*
G02*
X142434000Y-85900000I-200000J0D01*
G01*
G37*
%TD.AperFunction*%
%TO.P,J2,4*%
%TO.N,/A23*%
%TA.AperFunction,SMDPad,CuDef*%
G36*
G01*
X142434000Y-87150000D02*
X141534000Y-87150000D01*
G75*
G02*
X141334000Y-86950000I0J200000D01*
G01*
X141334000Y-86550000D01*
G75*
G02*
X141534000Y-86350000I200000J0D01*
G01*
X142434000Y-86350000D01*
G75*
G02*
X142634000Y-86550000I0J-200000D01*
G01*
X142634000Y-86950000D01*
G75*
G02*
X142434000Y-87150000I-200000J0D01*
G01*
G37*
%TD.AperFunction*%
%TO.P,J2,3*%
%TO.N,/A24*%
%TA.AperFunction,SMDPad,CuDef*%
G36*
G01*
X142434000Y-88400000D02*
X141534000Y-88400000D01*
G75*
G02*
X141334000Y-88200000I0J200000D01*
G01*
X141334000Y-87800000D01*
G75*
G02*
X141534000Y-87600000I200000J0D01*
G01*
X142434000Y-87600000D01*
G75*
G02*
X142634000Y-87800000I0J-200000D01*
G01*
X142634000Y-88200000D01*
G75*
G02*
X142434000Y-88400000I-200000J0D01*
G01*
G37*
%TD.AperFunction*%
%TO.P,J2,2*%
%TO.N,/A25*%
%TA.AperFunction,SMDPad,CuDef*%
G36*
G01*
X142434000Y-89650000D02*
X141534000Y-89650000D01*
G75*
G02*
X141334000Y-89450000I0J200000D01*
G01*
X141334000Y-89050000D01*
G75*
G02*
X141534000Y-88850000I200000J0D01*
G01*
X142434000Y-88850000D01*
G75*
G02*
X142634000Y-89050000I0J-200000D01*
G01*
X142634000Y-89450000D01*
G75*
G02*
X142434000Y-89650000I-200000J0D01*
G01*
G37*
%TD.AperFunction*%
%TO.P,J2,1*%
%TO.N,/A26*%
%TA.AperFunction,SMDPad,CuDef*%
G36*
G01*
X142434000Y-90900000D02*
X141534000Y-90900000D01*
G75*
G02*
X141334000Y-90700000I0J200000D01*
G01*
X141334000Y-90300000D01*
G75*
G02*
X141534000Y-90100000I200000J0D01*
G01*
X142434000Y-90100000D01*
G75*
G02*
X142634000Y-90300000I0J-200000D01*
G01*
X142634000Y-90700000D01*
G75*
G02*
X142434000Y-90900000I-200000J0D01*
G01*
G37*
%TD.AperFunction*%
%TD*%
%TO.P,J1,MP*%
%TO.N,N/C*%
%TA.AperFunction,SMDPad,CuDef*%
G36*
G01*
X119435000Y-74000000D02*
X116935000Y-74000000D01*
G75*
G02*
X116685000Y-73750000I0J250000D01*
G01*
X116685000Y-72150000D01*
G75*
G02*
X116935000Y-71900000I250000J0D01*
G01*
X119435000Y-71900000D01*
G75*
G02*
X119685000Y-72150000I0J-250000D01*
G01*
X119685000Y-73750000D01*
G75*
G02*
X119435000Y-74000000I-250000J0D01*
G01*
G37*
%TD.AperFunction*%
%TA.AperFunction,SMDPad,CuDef*%
G36*
G01*
X119435000Y-94100000D02*
X116935000Y-94100000D01*
G75*
G02*
X116685000Y-93850000I0J250000D01*
G01*
X116685000Y-92250000D01*
G75*
G02*
X116935000Y-92000000I250000J0D01*
G01*
X119435000Y-92000000D01*
G75*
G02*
X119685000Y-92250000I0J-250000D01*
G01*
X119685000Y-93850000D01*
G75*
G02*
X119435000Y-94100000I-250000J0D01*
G01*
G37*
%TD.AperFunction*%
%TO.P,J1,13*%
%TO.N,/A1*%
%TA.AperFunction,SMDPad,CuDef*%
G36*
G01*
X121385000Y-75900000D02*
X120485000Y-75900000D01*
G75*
G02*
X120285000Y-75700000I0J200000D01*
G01*
X120285000Y-75300000D01*
G75*
G02*
X120485000Y-75100000I200000J0D01*
G01*
X121385000Y-75100000D01*
G75*
G02*
X121585000Y-75300000I0J-200000D01*
G01*
X121585000Y-75700000D01*
G75*
G02*
X121385000Y-75900000I-200000J0D01*
G01*
G37*
%TD.AperFunction*%
%TO.P,J1,12*%
%TO.N,/A2*%
%TA.AperFunction,SMDPad,CuDef*%
G36*
G01*
X121385000Y-77150000D02*
X120485000Y-77150000D01*
G75*
G02*
X120285000Y-76950000I0J200000D01*
G01*
X120285000Y-76550000D01*
G75*
G02*
X120485000Y-76350000I200000J0D01*
G01*
X121385000Y-76350000D01*
G75*
G02*
X121585000Y-76550000I0J-200000D01*
G01*
X121585000Y-76950000D01*
G75*
G02*
X121385000Y-77150000I-200000J0D01*
G01*
G37*
%TD.AperFunction*%
%TO.P,J1,11*%
%TO.N,/A3*%
%TA.AperFunction,SMDPad,CuDef*%
G36*
G01*
X121385000Y-78400000D02*
X120485000Y-78400000D01*
G75*
G02*
X120285000Y-78200000I0J200000D01*
G01*
X120285000Y-77800000D01*
G75*
G02*
X120485000Y-77600000I200000J0D01*
G01*
X121385000Y-77600000D01*
G75*
G02*
X121585000Y-77800000I0J-200000D01*
G01*
X121585000Y-78200000D01*
G75*
G02*
X121385000Y-78400000I-200000J0D01*
G01*
G37*
%TD.AperFunction*%
%TO.P,J1,10*%
%TO.N,/A4*%
%TA.AperFunction,SMDPad,CuDef*%
G36*
G01*
X121385000Y-79650000D02*
X120485000Y-79650000D01*
G75*
G02*
X120285000Y-79450000I0J200000D01*
G01*
X120285000Y-79050000D01*
G75*
G02*
X120485000Y-78850000I200000J0D01*
G01*
X121385000Y-78850000D01*
G75*
G02*
X121585000Y-79050000I0J-200000D01*
G01*
X121585000Y-79450000D01*
G75*
G02*
X121385000Y-79650000I-200000J0D01*
G01*
G37*
%TD.AperFunction*%
%TO.P,J1,9*%
%TO.N,/A5*%
%TA.AperFunction,SMDPad,CuDef*%
G36*
G01*
X121385000Y-80900000D02*
X120485000Y-80900000D01*
G75*
G02*
X120285000Y-80700000I0J200000D01*
G01*
X120285000Y-80300000D01*
G75*
G02*
X120485000Y-80100000I200000J0D01*
G01*
X121385000Y-80100000D01*
G75*
G02*
X121585000Y-80300000I0J-200000D01*
G01*
X121585000Y-80700000D01*
G75*
G02*
X121385000Y-80900000I-200000J0D01*
G01*
G37*
%TD.AperFunction*%
%TO.P,J1,8*%
%TO.N,/A6*%
%TA.AperFunction,SMDPad,CuDef*%
G36*
G01*
X121385000Y-82150000D02*
X120485000Y-82150000D01*
G75*
G02*
X120285000Y-81950000I0J200000D01*
G01*
X120285000Y-81550000D01*
G75*
G02*
X120485000Y-81350000I200000J0D01*
G01*
X121385000Y-81350000D01*
G75*
G02*
X121585000Y-81550000I0J-200000D01*
G01*
X121585000Y-81950000D01*
G75*
G02*
X121385000Y-82150000I-200000J0D01*
G01*
G37*
%TD.AperFunction*%
%TO.P,J1,7*%
%TO.N,/A7*%
%TA.AperFunction,SMDPad,CuDef*%
G36*
G01*
X121385000Y-83400000D02*
X120485000Y-83400000D01*
G75*
G02*
X120285000Y-83200000I0J200000D01*
G01*
X120285000Y-82800000D01*
G75*
G02*
X120485000Y-82600000I200000J0D01*
G01*
X121385000Y-82600000D01*
G75*
G02*
X121585000Y-82800000I0J-200000D01*
G01*
X121585000Y-83200000D01*
G75*
G02*
X121385000Y-83400000I-200000J0D01*
G01*
G37*
%TD.AperFunction*%
%TO.P,J1,6*%
%TO.N,/A8*%
%TA.AperFunction,SMDPad,CuDef*%
G36*
G01*
X121385000Y-84650000D02*
X120485000Y-84650000D01*
G75*
G02*
X120285000Y-84450000I0J200000D01*
G01*
X120285000Y-84050000D01*
G75*
G02*
X120485000Y-83850000I200000J0D01*
G01*
X121385000Y-83850000D01*
G75*
G02*
X121585000Y-84050000I0J-200000D01*
G01*
X121585000Y-84450000D01*
G75*
G02*
X121385000Y-84650000I-200000J0D01*
G01*
G37*
%TD.AperFunction*%
%TO.P,J1,5*%
%TO.N,/A9*%
%TA.AperFunction,SMDPad,CuDef*%
G36*
G01*
X121385000Y-85900000D02*
X120485000Y-85900000D01*
G75*
G02*
X120285000Y-85700000I0J200000D01*
G01*
X120285000Y-85300000D01*
G75*
G02*
X120485000Y-85100000I200000J0D01*
G01*
X121385000Y-85100000D01*
G75*
G02*
X121585000Y-85300000I0J-200000D01*
G01*
X121585000Y-85700000D01*
G75*
G02*
X121385000Y-85900000I-200000J0D01*
G01*
G37*
%TD.AperFunction*%
%TO.P,J1,4*%
%TO.N,/A10*%
%TA.AperFunction,SMDPad,CuDef*%
G36*
G01*
X121385000Y-87150000D02*
X120485000Y-87150000D01*
G75*
G02*
X120285000Y-86950000I0J200000D01*
G01*
X120285000Y-86550000D01*
G75*
G02*
X120485000Y-86350000I200000J0D01*
G01*
X121385000Y-86350000D01*
G75*
G02*
X121585000Y-86550000I0J-200000D01*
G01*
X121585000Y-86950000D01*
G75*
G02*
X121385000Y-87150000I-200000J0D01*
G01*
G37*
%TD.AperFunction*%
%TO.P,J1,3*%
%TO.N,/A11*%
%TA.AperFunction,SMDPad,CuDef*%
G36*
G01*
X121385000Y-88400000D02*
X120485000Y-88400000D01*
G75*
G02*
X120285000Y-88200000I0J200000D01*
G01*
X120285000Y-87800000D01*
G75*
G02*
X120485000Y-87600000I200000J0D01*
G01*
X121385000Y-87600000D01*
G75*
G02*
X121585000Y-87800000I0J-200000D01*
G01*
X121585000Y-88200000D01*
G75*
G02*
X121385000Y-88400000I-200000J0D01*
G01*
G37*
%TD.AperFunction*%
%TO.P,J1,2*%
%TO.N,/A12*%
%TA.AperFunction,SMDPad,CuDef*%
G36*
G01*
X121385000Y-89650000D02*
X120485000Y-89650000D01*
G75*
G02*
X120285000Y-89450000I0J200000D01*
G01*
X120285000Y-89050000D01*
G75*
G02*
X120485000Y-88850000I200000J0D01*
G01*
X121385000Y-88850000D01*
G75*
G02*
X121585000Y-89050000I0J-200000D01*
G01*
X121585000Y-89450000D01*
G75*
G02*
X121385000Y-89650000I-200000J0D01*
G01*
G37*
%TD.AperFunction*%
%TO.P,J1,1*%
%TO.N,/A13*%
%TA.AperFunction,SMDPad,CuDef*%
G36*
G01*
X121385000Y-90900000D02*
X120485000Y-90900000D01*
G75*
G02*
X120285000Y-90700000I0J200000D01*
G01*
X120285000Y-90300000D01*
G75*
G02*
X120485000Y-90100000I200000J0D01*
G01*
X121385000Y-90100000D01*
G75*
G02*
X121585000Y-90300000I0J-200000D01*
G01*
X121585000Y-90700000D01*
G75*
G02*
X121385000Y-90900000I-200000J0D01*
G01*
G37*
%TD.AperFunction*%
%TD*%
D10*
%TO.P,H2,1*%
%TO.N,GND*%
X182840000Y-55136000D03*
%TD*%
%TO.P,H1,1*%
%TO.N,GND*%
X109160000Y-55136000D03*
%TD*%
D12*
%TO.N,GND*%
X104216400Y-98017200D03*
X186484400Y-98017200D03*
%TO.N,/A12*%
X123008400Y-89250000D03*
%TO.N,/A11*%
X123968200Y-86256800D03*
%TO.N,/A8*%
X119666200Y-83619600D03*
%TO.N,/A7*%
X122401300Y-81852200D03*
%TO.N,/A6*%
X122528100Y-70027700D03*
%TO.N,/A5*%
X119038500Y-78804600D03*
%TO.N,/A4*%
X119548300Y-77439900D03*
%TO.N,/A3*%
X121202300Y-72808700D03*
%TO.N,/A2*%
X119008000Y-75736900D03*
%TO.N,/A1*%
X121211500Y-74388100D03*
%TO.N,/A25*%
X144252600Y-78024700D03*
%TO.N,/A24*%
X143500400Y-86706300D03*
%TO.N,/A23*%
X143390200Y-85290900D03*
%TO.N,/A22*%
X140627600Y-83685900D03*
%TO.N,/A19*%
X139907100Y-79623100D03*
%TO.N,/A18*%
X138803400Y-77839800D03*
%TO.N,/A17*%
X136445300Y-73461300D03*
%TO.N,/A16*%
X135247000Y-70027700D03*
%TO.N,/A38*%
X160568500Y-68640200D03*
%TO.N,/A36*%
X159013100Y-77794400D03*
%TO.N,/A34*%
X156575900Y-77781100D03*
%TO.N,/A32*%
X155178100Y-68997000D03*
%TO.N,/A31*%
X158713300Y-85500000D03*
%TO.N,/A30*%
X157603500Y-85112700D03*
%TO.N,/A29*%
X155027600Y-86222100D03*
%TO.N,/A28*%
X151280400Y-83496800D03*
%TO.N,/A27*%
X158500700Y-90697200D03*
%TO.N,/A52*%
X172371900Y-69281200D03*
%TO.N,/A51*%
X173237400Y-75807400D03*
%TO.N,/A50*%
X170974700Y-67816900D03*
%TO.N,/A49*%
X172313400Y-77128900D03*
%TO.N,/A48*%
X170392500Y-66278600D03*
%TO.N,/A47*%
X172535200Y-79082600D03*
%TO.N,/A46*%
X169750000Y-82012900D03*
%TO.N,/A44*%
X168405500Y-65065100D03*
%TO.N,/A42*%
X169237700Y-86114600D03*
%TO.N,/A40*%
X169647400Y-89512900D03*
%TO.N,/B12*%
X112532500Y-89603300D03*
%TO.N,/B11*%
X112514600Y-87420800D03*
%TO.N,/B10*%
X115929800Y-86695600D03*
%TO.N,/B9*%
X112311500Y-84982700D03*
%TO.N,/B8*%
X112568100Y-82135100D03*
%TO.N,/B26*%
X132846100Y-90697200D03*
%TO.N,/B25*%
X135767000Y-90243400D03*
%TO.N,/B24*%
X133311300Y-87391400D03*
%TO.N,/B23*%
X133048800Y-86376700D03*
%TO.N,/B22*%
X132846100Y-85362100D03*
%TO.N,/B21*%
X132731200Y-83243400D03*
%TO.N,/B20*%
X134270300Y-80711900D03*
%TO.N,/B19*%
X132819600Y-81102900D03*
%TO.N,/B18*%
X133030200Y-78919300D03*
%TO.N,/B39*%
X151858900Y-75000100D03*
%TO.N,/B38*%
X151730700Y-76613100D03*
%TO.N,/B37*%
X153881200Y-75186100D03*
%TO.N,/B36*%
X154127500Y-66809200D03*
%TO.N,/B35*%
X155575600Y-80305900D03*
%TO.N,/B34*%
X152090300Y-81052400D03*
%TO.N,/B33*%
X152352800Y-82202800D03*
%TO.N,/B31*%
X151832900Y-85759600D03*
%TO.N,/B30*%
X151283900Y-87178800D03*
%TO.N,/B43*%
X179988500Y-85331100D03*
%TO.N,/B42*%
X178397300Y-82320600D03*
%TO.N,/B41*%
X178751100Y-87559400D03*
%TO.N,/B40*%
X177339900Y-87071900D03*
%TD*%
D13*
%TO.N,/A13*%
X120935000Y-90500000D02*
X122802200Y-90500000D01*
X122802200Y-90500000D02*
X126307600Y-86994600D01*
X126307600Y-86994600D02*
X126307600Y-67190000D01*
X126307600Y-67190000D02*
X128220000Y-65277600D01*
X128220000Y-65277600D02*
X128220000Y-58946000D01*
X128220000Y-58946000D02*
X129490000Y-57676000D01*
%TO.N,/A12*%
X120935000Y-89250000D02*
X123008400Y-89250000D01*
%TO.N,/A11*%
X120935000Y-88000000D02*
X122225000Y-88000000D01*
X122225000Y-88000000D02*
X123968200Y-86256800D01*
%TO.N,/A10*%
X120935000Y-86750000D02*
X121179000Y-86750000D01*
X121179000Y-86750000D02*
X125600600Y-82328400D01*
X125600600Y-82328400D02*
X125600600Y-56326600D01*
X125600600Y-56326600D02*
X124410000Y-55136000D01*
%TO.N,/A9*%
X120935000Y-85500000D02*
X121093900Y-85500000D01*
X121093900Y-85500000D02*
X123253400Y-83340500D01*
X123253400Y-83340500D02*
X123253400Y-58832600D01*
X123253400Y-58832600D02*
X124410000Y-57676000D01*
%TO.N,/A8*%
X120935000Y-84250000D02*
X120296600Y-84250000D01*
X120296600Y-84250000D02*
X119666200Y-83619600D01*
%TO.N,/A7*%
X120935000Y-83000000D02*
X121253500Y-83000000D01*
X121253500Y-83000000D02*
X122401300Y-81852200D01*
%TO.N,/A6*%
X120935000Y-81750000D02*
X121111500Y-81750000D01*
X121111500Y-81750000D02*
X122528100Y-80333400D01*
X122528100Y-80333400D02*
X122528100Y-70027700D01*
%TO.N,/A5*%
X120935000Y-80500000D02*
X120733900Y-80500000D01*
X120733900Y-80500000D02*
X119038500Y-78804600D01*
%TO.N,/A4*%
X120935000Y-79250000D02*
X120708700Y-79250000D01*
X120708700Y-79250000D02*
X119548300Y-78089600D01*
X119548300Y-78089600D02*
X119548300Y-77439900D01*
%TO.N,/A3*%
X120935000Y-78000000D02*
X121179200Y-78000000D01*
X121179200Y-78000000D02*
X121957000Y-77222200D01*
X121957000Y-77222200D02*
X121957000Y-73563400D01*
X121957000Y-73563400D02*
X121202300Y-72808700D01*
%TO.N,/A2*%
X120935000Y-76750000D02*
X120021100Y-76750000D01*
X120021100Y-76750000D02*
X119008000Y-75736900D01*
%TO.N,/A1*%
X120935000Y-75500000D02*
X121211500Y-75223500D01*
X121211500Y-75223500D02*
X121211500Y-74388100D01*
%TO.N,/A26*%
X141984000Y-90500000D02*
X142132300Y-90500000D01*
X142132300Y-90500000D02*
X145920600Y-86711700D01*
X145920600Y-86711700D02*
X145920600Y-56326600D01*
X145920600Y-56326600D02*
X144730000Y-55136000D01*
%TO.N,/A25*%
X141984000Y-89250000D02*
X142177700Y-89250000D01*
X142177700Y-89250000D02*
X144252600Y-87175100D01*
X144252600Y-87175100D02*
X144252600Y-78024700D01*
%TO.N,/A24*%
X141984000Y-88000000D02*
X142206700Y-88000000D01*
X142206700Y-88000000D02*
X143500400Y-86706300D01*
%TO.N,/A23*%
X141984000Y-86750000D02*
X142202400Y-86750000D01*
X142202400Y-86750000D02*
X143390200Y-85562200D01*
X143390200Y-85562200D02*
X143390200Y-85290900D01*
%TO.N,/A22*%
X141984000Y-85500000D02*
X141740000Y-85500000D01*
X141740000Y-85500000D02*
X140627600Y-84387600D01*
X140627600Y-84387600D02*
X140627600Y-83685900D01*
%TO.N,/A21*%
X141984000Y-84250000D02*
X142167300Y-84250000D01*
X142167300Y-84250000D02*
X143460000Y-82957300D01*
X143460000Y-82957300D02*
X143460000Y-62415200D01*
X143460000Y-62415200D02*
X142396200Y-61351400D01*
X142396200Y-61351400D02*
X141631100Y-61351400D01*
X141631100Y-61351400D02*
X140920000Y-60640300D01*
X140920000Y-60640300D02*
X140920000Y-58946000D01*
X140920000Y-58946000D02*
X139650000Y-57676000D01*
%TO.N,/A20*%
X141984000Y-83000000D02*
X142189700Y-83000000D01*
X142189700Y-83000000D02*
X142960200Y-82229500D01*
X142960200Y-82229500D02*
X142960200Y-67136600D01*
X142960200Y-67136600D02*
X141054600Y-65231000D01*
X141054600Y-65231000D02*
X141054600Y-62472300D01*
X141054600Y-62472300D02*
X140202900Y-61620600D01*
X140202900Y-61620600D02*
X139358700Y-61620600D01*
X139358700Y-61620600D02*
X138470500Y-60732400D01*
X138470500Y-60732400D02*
X138470500Y-56496500D01*
X138470500Y-56496500D02*
X137110000Y-55136000D01*
%TO.N,/A19*%
X141984000Y-81750000D02*
X141740000Y-81750000D01*
X141740000Y-81750000D02*
X139907100Y-79917100D01*
X139907100Y-79917100D02*
X139907100Y-79623100D01*
%TO.N,/A18*%
X141984000Y-80500000D02*
X141809800Y-80500000D01*
X141809800Y-80500000D02*
X139149600Y-77839800D01*
X139149600Y-77839800D02*
X138803400Y-77839800D01*
%TO.N,/A17*%
X141984000Y-79250000D02*
X141882700Y-79148700D01*
X141882700Y-79148700D02*
X141882700Y-79148600D01*
X141882700Y-79148600D02*
X141658300Y-79148600D01*
X141658300Y-79148600D02*
X136445300Y-73935600D01*
X136445300Y-73935600D02*
X136445300Y-73461300D01*
%TO.N,/A16*%
X141984000Y-78000000D02*
X141419300Y-78000000D01*
X141419300Y-78000000D02*
X137407700Y-73988400D01*
X137407700Y-73988400D02*
X137407700Y-72188400D01*
X137407700Y-72188400D02*
X135247000Y-70027700D01*
%TO.N,/A15*%
X132030000Y-57676000D02*
X133300000Y-58946000D01*
X133300000Y-58946000D02*
X133300000Y-60604000D01*
X133300000Y-60604000D02*
X134182000Y-61486000D01*
X134182000Y-61486000D02*
X134943800Y-61486000D01*
X134943800Y-61486000D02*
X135938800Y-62481000D01*
X135938800Y-62481000D02*
X135938800Y-65672300D01*
X135938800Y-65672300D02*
X141063900Y-70797400D01*
X141063900Y-70797400D02*
X141063900Y-74270200D01*
X141063900Y-74270200D02*
X140957500Y-74376600D01*
X140957500Y-74376600D02*
X140957500Y-75866500D01*
X140957500Y-75866500D02*
X141841000Y-76750000D01*
X141841000Y-76750000D02*
X141984000Y-76750000D01*
%TO.N,/A14*%
X129490000Y-55136000D02*
X130760000Y-56406000D01*
X130760000Y-56406000D02*
X134962500Y-56406000D01*
X134962500Y-56406000D02*
X135705400Y-57148900D01*
X135705400Y-57148900D02*
X135705400Y-60478700D01*
X135705400Y-60478700D02*
X136578100Y-61351400D01*
X136578100Y-61351400D02*
X137316300Y-61351400D01*
X137316300Y-61351400D02*
X138245400Y-62280500D01*
X138245400Y-62280500D02*
X138245400Y-64612900D01*
X138245400Y-64612900D02*
X141984000Y-68351500D01*
X141984000Y-68351500D02*
X141984000Y-75500000D01*
%TO.N,/A39*%
X160533000Y-75500000D02*
X161307200Y-74725800D01*
X161307200Y-74725800D02*
X161307200Y-58878800D01*
X161307200Y-58878800D02*
X162510000Y-57676000D01*
%TO.N,/A38*%
X160533000Y-76750000D02*
X160305900Y-76750000D01*
X160305900Y-76750000D02*
X159556800Y-76000900D01*
X159556800Y-76000900D02*
X159556800Y-69651900D01*
X159556800Y-69651900D02*
X160568500Y-68640200D01*
%TO.N,/A37*%
X160533000Y-78000000D02*
X160388500Y-78000000D01*
X160388500Y-78000000D02*
X158779400Y-76390900D01*
X158779400Y-76390900D02*
X158779400Y-58866600D01*
X158779400Y-58866600D02*
X159970000Y-57676000D01*
%TO.N,/A36*%
X160533000Y-79250000D02*
X160373300Y-79250000D01*
X160373300Y-79250000D02*
X159013100Y-77889800D01*
X159013100Y-77889800D02*
X159013100Y-77794400D01*
%TO.N,/A35*%
X160533000Y-80500000D02*
X160379800Y-80500000D01*
X160379800Y-80500000D02*
X156422100Y-76542300D01*
X156422100Y-76542300D02*
X156422100Y-66191400D01*
X156422100Y-66191400D02*
X156291000Y-66060300D01*
X156291000Y-66060300D02*
X156291000Y-58815000D01*
X156291000Y-58815000D02*
X157430000Y-57676000D01*
%TO.N,/A34*%
X160533000Y-81750000D02*
X160321200Y-81750000D01*
X160321200Y-81750000D02*
X156575900Y-78004700D01*
X156575900Y-78004700D02*
X156575900Y-77781100D01*
%TO.N,/A33*%
X160533000Y-83000000D02*
X160298800Y-83000000D01*
X160298800Y-83000000D02*
X155821200Y-78522400D01*
X155821200Y-78522400D02*
X155821200Y-69379700D01*
X155821200Y-69379700D02*
X155903400Y-69297500D01*
X155903400Y-69297500D02*
X155903400Y-66869800D01*
X155903400Y-66869800D02*
X153699400Y-64665800D01*
X153699400Y-64665800D02*
X153699400Y-58866600D01*
X153699400Y-58866600D02*
X154890000Y-57676000D01*
%TO.N,/A32*%
X160533000Y-84250000D02*
X160352300Y-84250000D01*
X160352300Y-84250000D02*
X159299400Y-83197100D01*
X159299400Y-83197100D02*
X159299400Y-82777500D01*
X159299400Y-82777500D02*
X155178100Y-78656200D01*
X155178100Y-78656200D02*
X155178100Y-68997000D01*
%TO.N,/A31*%
X160533000Y-85500000D02*
X158713300Y-85500000D01*
%TO.N,/A30*%
X160533000Y-86750000D02*
X158880700Y-86750000D01*
X158880700Y-86750000D02*
X157603500Y-85472800D01*
X157603500Y-85472800D02*
X157603500Y-85112700D01*
%TO.N,/A29*%
X155027600Y-86222100D02*
X156805500Y-88000000D01*
X156805500Y-88000000D02*
X160533000Y-88000000D01*
%TO.N,/A28*%
X160533000Y-89250000D02*
X157023300Y-89250000D01*
X157023300Y-89250000D02*
X151280400Y-83507100D01*
X151280400Y-83507100D02*
X151280400Y-83496800D01*
%TO.N,/A27*%
X160533000Y-90500000D02*
X158697900Y-90500000D01*
X158697900Y-90500000D02*
X158500700Y-90697200D01*
%TO.N,/A52*%
X171058000Y-75500000D02*
X171058000Y-70595100D01*
X171058000Y-70595100D02*
X172371900Y-69281200D01*
%TO.N,/A51*%
X173237400Y-75807400D02*
X172219200Y-75807400D01*
X172219200Y-75807400D02*
X171276600Y-76750000D01*
X171276600Y-76750000D02*
X171058000Y-76750000D01*
%TO.N,/A50*%
X171058000Y-78000000D02*
X170813800Y-78000000D01*
X170813800Y-78000000D02*
X170062900Y-77249100D01*
X170062900Y-77249100D02*
X170062900Y-68728700D01*
X170062900Y-68728700D02*
X170974700Y-67816900D01*
%TO.N,/A49*%
X172313400Y-77128900D02*
X172313400Y-78180400D01*
X172313400Y-78180400D02*
X171243800Y-79250000D01*
X171243800Y-79250000D02*
X171058000Y-79250000D01*
%TO.N,/A48*%
X171058000Y-80500000D02*
X170874800Y-80500000D01*
X170874800Y-80500000D02*
X169593600Y-79218800D01*
X169593600Y-79218800D02*
X169593600Y-67077500D01*
X169593600Y-67077500D02*
X170392500Y-66278600D01*
%TO.N,/A47*%
X171058000Y-81750000D02*
X171226200Y-81750000D01*
X171226200Y-81750000D02*
X172535200Y-80441000D01*
X172535200Y-80441000D02*
X172535200Y-79082600D01*
%TO.N,/A46*%
X171058000Y-83000000D02*
X170737100Y-83000000D01*
X170737100Y-83000000D02*
X169750000Y-82012900D01*
%TO.N,/A45*%
X171058000Y-84250000D02*
X170886400Y-84250000D01*
X170886400Y-84250000D02*
X168944800Y-82308400D01*
X168944800Y-82308400D02*
X168944800Y-65551600D01*
X168944800Y-65551600D02*
X169130800Y-65365600D01*
X169130800Y-65365600D02*
X169130800Y-64764600D01*
X169130800Y-64764600D02*
X168944800Y-64578600D01*
X168944800Y-64578600D02*
X168944800Y-58861200D01*
X168944800Y-58861200D02*
X170130000Y-57676000D01*
%TO.N,/A44*%
X171058000Y-85500000D02*
X170905400Y-85500000D01*
X170905400Y-85500000D02*
X168405500Y-83000100D01*
X168405500Y-83000100D02*
X168405500Y-65065100D01*
%TO.N,/A43*%
X171058000Y-86750000D02*
X170899200Y-86750000D01*
X170899200Y-86750000D02*
X166399400Y-82250200D01*
X166399400Y-82250200D02*
X166399400Y-58866600D01*
X166399400Y-58866600D02*
X167590000Y-57676000D01*
%TO.N,/A42*%
X171058000Y-88000000D02*
X170794100Y-88000000D01*
X170794100Y-88000000D02*
X169237700Y-86443600D01*
X169237700Y-86443600D02*
X169237700Y-86114600D01*
%TO.N,/A41*%
X171058000Y-89250000D02*
X170897800Y-89250000D01*
X170897800Y-89250000D02*
X165581400Y-83933600D01*
X165581400Y-83933600D02*
X165581400Y-67078900D01*
X165581400Y-67078900D02*
X163859400Y-65356900D01*
X163859400Y-65356900D02*
X163859400Y-58866600D01*
X163859400Y-58866600D02*
X165050000Y-57676000D01*
%TO.N,/A40*%
X171058000Y-90500000D02*
X170634500Y-90500000D01*
X170634500Y-90500000D02*
X169647400Y-89512900D01*
%TO.N,/B13*%
X110410000Y-90500000D02*
X111152500Y-91242500D01*
X111152500Y-91242500D02*
X122758200Y-91242500D01*
X122758200Y-91242500D02*
X126758000Y-87242700D01*
X126758000Y-87242700D02*
X126758000Y-69501000D01*
X126758000Y-69501000D02*
X129490000Y-66769000D01*
X129490000Y-66769000D02*
X129490000Y-62756000D01*
%TO.N,/B12*%
X110410000Y-89250000D02*
X112179200Y-89250000D01*
X112179200Y-89250000D02*
X112532500Y-89603300D01*
%TO.N,/B11*%
X110410000Y-88000000D02*
X111935400Y-88000000D01*
X111935400Y-88000000D02*
X112514600Y-87420800D01*
%TO.N,/B10*%
X115929800Y-86695600D02*
X115929700Y-86695500D01*
X115929700Y-86695500D02*
X110464500Y-86695500D01*
X110464500Y-86695500D02*
X110410000Y-86750000D01*
%TO.N,/B9*%
X110410000Y-85500000D02*
X111794200Y-85500000D01*
X111794200Y-85500000D02*
X112311500Y-84982700D01*
%TO.N,/B8*%
X110410000Y-84250000D02*
X110605500Y-84250000D01*
X110605500Y-84250000D02*
X112568100Y-82287400D01*
X112568100Y-82287400D02*
X112568100Y-82135100D01*
%TO.N,/B7*%
X121870000Y-62756000D02*
X120463700Y-64162300D01*
X120463700Y-64162300D02*
X120463700Y-74178300D01*
X120463700Y-74178300D02*
X119630400Y-75011600D01*
X119630400Y-75011600D02*
X118665900Y-75011600D01*
X118665900Y-75011600D02*
X110677500Y-83000000D01*
X110677500Y-83000000D02*
X110410000Y-83000000D01*
%TO.N,/B6*%
X110410000Y-81750000D02*
X110587700Y-81750000D01*
X110587700Y-81750000D02*
X117790700Y-74547000D01*
X117790700Y-74547000D02*
X119455800Y-74547000D01*
X119455800Y-74547000D02*
X120013300Y-73989500D01*
X120013300Y-73989500D02*
X120013300Y-63975800D01*
X120013300Y-63975800D02*
X120526700Y-63462400D01*
X120526700Y-63462400D02*
X120526700Y-61412700D01*
X120526700Y-61412700D02*
X119330000Y-60216000D01*
%TO.N,/B5*%
X110410000Y-80500000D02*
X110583000Y-80500000D01*
X110583000Y-80500000D02*
X116195700Y-74887300D01*
X116195700Y-74887300D02*
X116195700Y-65890300D01*
X116195700Y-65890300D02*
X119330000Y-62756000D01*
%TO.N,/B4*%
X110410000Y-79250000D02*
X110230800Y-79250000D01*
X110230800Y-79250000D02*
X108946200Y-77965400D01*
X108946200Y-77965400D02*
X108946200Y-74677100D01*
X108946200Y-74677100D02*
X111288200Y-72335100D01*
X111288200Y-72335100D02*
X111288200Y-61544200D01*
X111288200Y-61544200D02*
X113807000Y-59025400D01*
X113807000Y-59025400D02*
X115599400Y-59025400D01*
X115599400Y-59025400D02*
X116790000Y-60216000D01*
%TO.N,/B3*%
X110410000Y-78000000D02*
X110582400Y-78000000D01*
X110582400Y-78000000D02*
X115385400Y-73197000D01*
X115385400Y-73197000D02*
X115385400Y-64160600D01*
X115385400Y-64160600D02*
X116790000Y-62756000D01*
%TO.N,/B2*%
X110410000Y-76750000D02*
X110250000Y-76750000D01*
X110250000Y-76750000D02*
X109418600Y-75918600D01*
X109418600Y-75918600D02*
X109418600Y-74841600D01*
X109418600Y-74841600D02*
X112845400Y-71414800D01*
X112845400Y-71414800D02*
X112845400Y-61620600D01*
X112845400Y-61620600D02*
X114250000Y-60216000D01*
%TO.N,/B1*%
X110410000Y-75500000D02*
X114250000Y-71660000D01*
X114250000Y-71660000D02*
X114250000Y-62756000D01*
%TO.N,/B26*%
X131459000Y-90500000D02*
X132648900Y-90500000D01*
X132648900Y-90500000D02*
X132846100Y-90697200D01*
%TO.N,/B25*%
X131459000Y-89250000D02*
X134773600Y-89250000D01*
X134773600Y-89250000D02*
X135767000Y-90243400D01*
%TO.N,/B24*%
X131459000Y-88000000D02*
X132702700Y-88000000D01*
X132702700Y-88000000D02*
X133311300Y-87391400D01*
%TO.N,/B23*%
X131459000Y-86750000D02*
X131832300Y-86376700D01*
X131832300Y-86376700D02*
X133048800Y-86376700D01*
%TO.N,/B22*%
X131459000Y-85500000D02*
X132708200Y-85500000D01*
X132708200Y-85500000D02*
X132846100Y-85362100D01*
%TO.N,/B21*%
X131459000Y-84250000D02*
X131724600Y-84250000D01*
X131724600Y-84250000D02*
X132731200Y-83243400D01*
%TO.N,/B20*%
X134270300Y-80711900D02*
X134237000Y-80711900D01*
X134237000Y-80711900D02*
X131948900Y-83000000D01*
X131948900Y-83000000D02*
X131459000Y-83000000D01*
%TO.N,/B19*%
X131459000Y-81750000D02*
X132172500Y-81750000D01*
X132172500Y-81750000D02*
X132819600Y-81102900D01*
%TO.N,/B18*%
X131459000Y-80500000D02*
X131703000Y-80500000D01*
X131703000Y-80500000D02*
X133030200Y-79172800D01*
X133030200Y-79172800D02*
X133030200Y-78919300D01*
%TO.N,/B17*%
X134570000Y-62756000D02*
X134519400Y-62806600D01*
X134519400Y-62806600D02*
X134519400Y-76332600D01*
X134519400Y-76332600D02*
X131602000Y-79250000D01*
X131602000Y-79250000D02*
X131459000Y-79250000D01*
%TO.N,/B16*%
X132030000Y-60216000D02*
X133199900Y-61385900D01*
X133199900Y-61385900D02*
X133199900Y-76427800D01*
X133199900Y-76427800D02*
X131627700Y-78000000D01*
X131627700Y-78000000D02*
X131459000Y-78000000D01*
%TO.N,/B15*%
X131459000Y-76750000D02*
X131630900Y-76750000D01*
X131630900Y-76750000D02*
X132479700Y-75901200D01*
X132479700Y-75901200D02*
X132479700Y-63205700D01*
X132479700Y-63205700D02*
X132030000Y-62756000D01*
%TO.N,/B14*%
X131459000Y-75500000D02*
X130836300Y-74877300D01*
X130836300Y-74877300D02*
X130836300Y-61562300D01*
X130836300Y-61562300D02*
X129490000Y-60216000D01*
%TO.N,/B39*%
X150008000Y-75500000D02*
X150507900Y-75000100D01*
X150507900Y-75000100D02*
X151858900Y-75000100D01*
%TO.N,/B38*%
X150008000Y-76750000D02*
X151593800Y-76750000D01*
X151593800Y-76750000D02*
X151730700Y-76613100D01*
%TO.N,/B37*%
X150008000Y-78000000D02*
X151369600Y-78000000D01*
X151369600Y-78000000D02*
X153881200Y-75488400D01*
X153881200Y-75488400D02*
X153881200Y-75186100D01*
%TO.N,/B36*%
X154127500Y-66809200D02*
X154127500Y-68972100D01*
X154127500Y-68972100D02*
X154606500Y-69451100D01*
X154606500Y-69451100D02*
X154606500Y-75486600D01*
X154606500Y-75486600D02*
X150843100Y-79250000D01*
X150843100Y-79250000D02*
X150008000Y-79250000D01*
%TO.N,/B35*%
X155575600Y-80305900D02*
X150202100Y-80305900D01*
X150202100Y-80305900D02*
X150008000Y-80500000D01*
%TO.N,/B34*%
X150008000Y-81750000D02*
X151392700Y-81750000D01*
X151392700Y-81750000D02*
X152090300Y-81052400D01*
%TO.N,/B33*%
X150008000Y-83000000D02*
X150236600Y-82771400D01*
X150236600Y-82771400D02*
X151784200Y-82771400D01*
X151784200Y-82771400D02*
X152352800Y-82202800D01*
%TO.N,/B32*%
X150008000Y-84250000D02*
X149739000Y-84250000D01*
X149739000Y-84250000D02*
X149020500Y-83531500D01*
X149020500Y-83531500D02*
X149020500Y-66507000D01*
X149020500Y-66507000D02*
X151080000Y-64447500D01*
X151080000Y-64447500D02*
X151080000Y-61486000D01*
X151080000Y-61486000D02*
X152350000Y-60216000D01*
%TO.N,/B31*%
X150008000Y-85500000D02*
X151573300Y-85500000D01*
X151573300Y-85500000D02*
X151832900Y-85759600D01*
%TO.N,/B30*%
X150008000Y-86750000D02*
X150436800Y-87178800D01*
X150436800Y-87178800D02*
X151283900Y-87178800D01*
%TO.N,/B29*%
X150008000Y-88000000D02*
X149864900Y-88000000D01*
X149864900Y-88000000D02*
X148524900Y-86660000D01*
X148524900Y-86660000D02*
X148524900Y-64041100D01*
X148524900Y-64041100D02*
X149810000Y-62756000D01*
%TO.N,/B28*%
X150008000Y-89250000D02*
X149823300Y-89250000D01*
X149823300Y-89250000D02*
X148069600Y-87496300D01*
X148069600Y-87496300D02*
X148069600Y-63859500D01*
X148069600Y-63859500D02*
X148444700Y-63484400D01*
X148444700Y-63484400D02*
X148444700Y-61390700D01*
X148444700Y-61390700D02*
X147270000Y-60216000D01*
%TO.N,/B27*%
X150008000Y-90500000D02*
X149810000Y-90500000D01*
X149810000Y-90500000D02*
X147270000Y-87960000D01*
X147270000Y-87960000D02*
X147270000Y-62756000D01*
%TO.N,/B52*%
X181582000Y-75500000D02*
X181582000Y-64048000D01*
X181582000Y-64048000D02*
X177750000Y-60216000D01*
%TO.N,/B51*%
X181582000Y-76750000D02*
X181409600Y-76750000D01*
X181409600Y-76750000D02*
X179314800Y-74655200D01*
X179314800Y-74655200D02*
X179314800Y-64320800D01*
X179314800Y-64320800D02*
X177750000Y-62756000D01*
%TO.N,/B50*%
X181582000Y-78000000D02*
X181383100Y-78000000D01*
X181383100Y-78000000D02*
X178691700Y-75308600D01*
X178691700Y-75308600D02*
X178691700Y-65600800D01*
X178691700Y-65600800D02*
X176480000Y-63389100D01*
X176480000Y-63389100D02*
X176480000Y-61486000D01*
X176480000Y-61486000D02*
X175210000Y-60216000D01*
%TO.N,/B49*%
X181582000Y-79250000D02*
X181409100Y-79250000D01*
X181409100Y-79250000D02*
X177750000Y-75590900D01*
X177750000Y-75590900D02*
X177750000Y-65296000D01*
X177750000Y-65296000D02*
X175210000Y-62756000D01*
%TO.N,/B48*%
X181582000Y-80500000D02*
X181405400Y-80500000D01*
X181405400Y-80500000D02*
X177299600Y-76394200D01*
X177299600Y-76394200D02*
X177299600Y-66748700D01*
X177299600Y-66748700D02*
X173940000Y-63389100D01*
X173940000Y-63389100D02*
X173940000Y-61486000D01*
X173940000Y-61486000D02*
X172670000Y-60216000D01*
%TO.N,/B47*%
X181582000Y-81750000D02*
X181376100Y-81750000D01*
X181376100Y-81750000D02*
X176750000Y-77123900D01*
X176750000Y-77123900D02*
X176750000Y-66836000D01*
X176750000Y-66836000D02*
X172670000Y-62756000D01*
%TO.N,/B46*%
X181582000Y-83000000D02*
X181360500Y-83000000D01*
X181360500Y-83000000D02*
X176299600Y-77939100D01*
X176299600Y-77939100D02*
X176299600Y-68009200D01*
X176299600Y-68009200D02*
X171400000Y-63109600D01*
X171400000Y-63109600D02*
X171400000Y-61486000D01*
X171400000Y-61486000D02*
X170130000Y-60216000D01*
%TO.N,/B45*%
X181582000Y-84250000D02*
X181352600Y-84250000D01*
X181352600Y-84250000D02*
X175804600Y-78702000D01*
X175804600Y-78702000D02*
X175804600Y-68430600D01*
X175804600Y-68430600D02*
X170130000Y-62756000D01*
%TO.N,/B44*%
X181582000Y-85500000D02*
X181826200Y-85500000D01*
X181826200Y-85500000D02*
X182568500Y-84757700D01*
X182568500Y-84757700D02*
X182568500Y-74797200D01*
X182568500Y-74797200D02*
X182505600Y-74734300D01*
X182505600Y-74734300D02*
X182505600Y-63354700D01*
X182505600Y-63354700D02*
X177962300Y-58811400D01*
X177962300Y-58811400D02*
X172194500Y-58811400D01*
X172194500Y-58811400D02*
X171265400Y-57882300D01*
X171265400Y-57882300D02*
X171265400Y-57117100D01*
X171265400Y-57117100D02*
X170688900Y-56540600D01*
X170688900Y-56540600D02*
X169571100Y-56540600D01*
X169571100Y-56540600D02*
X168860000Y-57251700D01*
X168860000Y-57251700D02*
X168860000Y-58160500D01*
X168860000Y-58160500D02*
X167590000Y-59430500D01*
X167590000Y-59430500D02*
X167590000Y-60216000D01*
%TO.N,/B43*%
X181582000Y-86750000D02*
X181407400Y-86750000D01*
X181407400Y-86750000D02*
X179988500Y-85331100D01*
%TO.N,/B42*%
X181582000Y-88000000D02*
X181394600Y-88000000D01*
X181394600Y-88000000D02*
X178397300Y-85002700D01*
X178397300Y-85002700D02*
X178397300Y-82320600D01*
%TO.N,/B41*%
X181582000Y-89250000D02*
X180441700Y-89250000D01*
X180441700Y-89250000D02*
X178751100Y-87559400D01*
%TO.N,/B40*%
X181582000Y-90500000D02*
X180612700Y-90500000D01*
X180612700Y-90500000D02*
X177339900Y-87227200D01*
X177339900Y-87227200D02*
X177339900Y-87071900D01*
%TD*%
D14*
%TO.N,GND*%
G36*
X180459070Y-52934678D02*
G01*
X180015497Y-53240859D01*
X179700046Y-53828306D01*
X179505260Y-54466008D01*
X179438628Y-55129457D01*
X179502708Y-55793158D01*
X179695038Y-56431605D01*
X180008228Y-57020262D01*
X180015497Y-57031141D01*
X180459072Y-57337323D01*
X182660395Y-55136000D01*
X182646253Y-55121858D01*
X182825858Y-54942253D01*
X182840000Y-54956395D01*
X182854143Y-54942253D01*
X183033748Y-55121858D01*
X183019605Y-55136000D01*
X183033748Y-55150143D01*
X182854143Y-55329748D01*
X182840000Y-55315605D01*
X180638677Y-57516928D01*
X180944859Y-57960503D01*
X181532306Y-58275954D01*
X182170008Y-58470740D01*
X182833457Y-58537372D01*
X183497158Y-58473292D01*
X184135605Y-58280962D01*
X184724262Y-57967772D01*
X184735141Y-57960503D01*
X185041322Y-57516930D01*
X185130000Y-57605608D01*
X185130000Y-60670876D01*
X185133024Y-60701575D01*
X185132959Y-60710820D01*
X185133926Y-60720686D01*
X185164526Y-61011831D01*
X185177466Y-61074868D01*
X185189524Y-61138080D01*
X185192389Y-61147570D01*
X185278957Y-61427226D01*
X185303883Y-61486521D01*
X185328001Y-61546215D01*
X185332655Y-61554967D01*
X185471894Y-61812483D01*
X185507873Y-61865825D01*
X185543114Y-61919678D01*
X185549379Y-61927360D01*
X185735984Y-62152927D01*
X185781621Y-62198246D01*
X185826669Y-62244248D01*
X185834308Y-62250566D01*
X186061172Y-62435592D01*
X186114732Y-62471177D01*
X186167868Y-62507560D01*
X186176588Y-62512275D01*
X186435069Y-62649712D01*
X186494544Y-62674225D01*
X186553711Y-62699584D01*
X186563181Y-62702516D01*
X186843435Y-62787130D01*
X186906525Y-62799622D01*
X186969506Y-62813009D01*
X186979365Y-62814045D01*
X187270717Y-62842612D01*
X187270723Y-62842612D01*
X187305123Y-62846000D01*
X187690001Y-62846000D01*
X187690001Y-97773000D01*
X103010000Y-97773000D01*
X103010000Y-92250000D01*
X105521928Y-92250000D01*
X105521928Y-93850000D01*
X105538992Y-94023254D01*
X105589528Y-94189850D01*
X105671595Y-94343386D01*
X105782038Y-94477962D01*
X105916614Y-94588405D01*
X106070150Y-94670472D01*
X106236746Y-94721008D01*
X106410000Y-94738072D01*
X108910000Y-94738072D01*
X109083254Y-94721008D01*
X109249850Y-94670472D01*
X109403386Y-94588405D01*
X109537962Y-94477962D01*
X109648405Y-94343386D01*
X109730472Y-94189850D01*
X109781008Y-94023254D01*
X109798072Y-93850000D01*
X109798072Y-92250000D01*
X109781008Y-92076746D01*
X109730472Y-91910150D01*
X109648405Y-91756614D01*
X109537962Y-91622038D01*
X109403386Y-91511595D01*
X109249850Y-91429528D01*
X109083254Y-91378992D01*
X108910000Y-91361928D01*
X106410000Y-91361928D01*
X106236746Y-91378992D01*
X106070150Y-91429528D01*
X105916614Y-91511595D01*
X105782038Y-91622038D01*
X105671595Y-91756614D01*
X105589528Y-91910150D01*
X105538992Y-92076746D01*
X105521928Y-92250000D01*
X103010000Y-92250000D01*
X103010000Y-72150000D01*
X105521928Y-72150000D01*
X105521928Y-73750000D01*
X105538992Y-73923254D01*
X105589528Y-74089850D01*
X105671595Y-74243386D01*
X105782038Y-74377962D01*
X105916614Y-74488405D01*
X106070150Y-74570472D01*
X106236746Y-74621008D01*
X106410000Y-74638072D01*
X108186368Y-74638072D01*
X108182524Y-74677100D01*
X108186201Y-74714432D01*
X108186200Y-77928077D01*
X108182524Y-77965400D01*
X108186200Y-78002722D01*
X108186200Y-78002732D01*
X108197197Y-78114385D01*
X108234872Y-78238585D01*
X108240654Y-78257646D01*
X108311226Y-78389676D01*
X108327187Y-78409124D01*
X108406199Y-78505401D01*
X108435203Y-78529204D01*
X109121928Y-79215930D01*
X109121928Y-79450000D01*
X109138031Y-79613500D01*
X109185722Y-79770716D01*
X109241463Y-79875000D01*
X109185722Y-79979284D01*
X109138031Y-80136500D01*
X109121928Y-80300000D01*
X109121928Y-80700000D01*
X109138031Y-80863500D01*
X109185722Y-81020716D01*
X109241463Y-81125000D01*
X109185722Y-81229284D01*
X109138031Y-81386500D01*
X109121928Y-81550000D01*
X109121928Y-81950000D01*
X109138031Y-82113500D01*
X109185722Y-82270716D01*
X109241463Y-82375000D01*
X109185722Y-82479284D01*
X109138031Y-82636500D01*
X109121928Y-82800000D01*
X109121928Y-83200000D01*
X109138031Y-83363500D01*
X109185722Y-83520716D01*
X109241463Y-83625000D01*
X109185722Y-83729284D01*
X109138031Y-83886500D01*
X109121928Y-84050000D01*
X109121928Y-84450000D01*
X109138031Y-84613500D01*
X109185722Y-84770716D01*
X109241463Y-84875000D01*
X109185722Y-84979284D01*
X109138031Y-85136500D01*
X109121928Y-85300000D01*
X109121928Y-85700000D01*
X109138031Y-85863500D01*
X109185722Y-86020716D01*
X109241463Y-86125000D01*
X109185722Y-86229284D01*
X109138031Y-86386500D01*
X109121928Y-86550000D01*
X109121928Y-86950000D01*
X109138031Y-87113500D01*
X109185722Y-87270716D01*
X109241463Y-87375000D01*
X109185722Y-87479284D01*
X109138031Y-87636500D01*
X109121928Y-87800000D01*
X109121928Y-88200000D01*
X109138031Y-88363500D01*
X109185722Y-88520716D01*
X109241463Y-88625000D01*
X109185722Y-88729284D01*
X109138031Y-88886500D01*
X109121928Y-89050000D01*
X109121928Y-89450000D01*
X109138031Y-89613500D01*
X109185722Y-89770716D01*
X109241463Y-89875000D01*
X109185722Y-89979284D01*
X109138031Y-90136500D01*
X109121928Y-90300000D01*
X109121928Y-90700000D01*
X109138031Y-90863500D01*
X109185722Y-91020716D01*
X109263169Y-91165608D01*
X109367394Y-91292606D01*
X109494392Y-91396831D01*
X109639284Y-91474278D01*
X109796500Y-91521969D01*
X109960000Y-91538072D01*
X110373270Y-91538072D01*
X110588701Y-91753502D01*
X110612499Y-91782501D01*
X110641497Y-91806299D01*
X110728224Y-91877474D01*
X110860253Y-91948046D01*
X111003514Y-91991503D01*
X111152500Y-92006177D01*
X111189833Y-92002500D01*
X116086514Y-92002500D01*
X116063992Y-92076746D01*
X116046928Y-92250000D01*
X116046928Y-93850000D01*
X116063992Y-94023254D01*
X116114528Y-94189850D01*
X116196595Y-94343386D01*
X116307038Y-94477962D01*
X116441614Y-94588405D01*
X116595150Y-94670472D01*
X116761746Y-94721008D01*
X116935000Y-94738072D01*
X119435000Y-94738072D01*
X119608254Y-94721008D01*
X119774850Y-94670472D01*
X119928386Y-94588405D01*
X120062962Y-94477962D01*
X120173405Y-94343386D01*
X120255472Y-94189850D01*
X120306008Y-94023254D01*
X120323072Y-93850000D01*
X120323072Y-92250000D01*
X126570928Y-92250000D01*
X126570928Y-93850000D01*
X126587992Y-94023254D01*
X126638528Y-94189850D01*
X126720595Y-94343386D01*
X126831038Y-94477962D01*
X126965614Y-94588405D01*
X127119150Y-94670472D01*
X127285746Y-94721008D01*
X127459000Y-94738072D01*
X129959000Y-94738072D01*
X130132254Y-94721008D01*
X130298850Y-94670472D01*
X130452386Y-94588405D01*
X130586962Y-94477962D01*
X130697405Y-94343386D01*
X130779472Y-94189850D01*
X130830008Y-94023254D01*
X130847072Y-93850000D01*
X130847072Y-92250000D01*
X137095928Y-92250000D01*
X137095928Y-93850000D01*
X137112992Y-94023254D01*
X137163528Y-94189850D01*
X137245595Y-94343386D01*
X137356038Y-94477962D01*
X137490614Y-94588405D01*
X137644150Y-94670472D01*
X137810746Y-94721008D01*
X137984000Y-94738072D01*
X140484000Y-94738072D01*
X140657254Y-94721008D01*
X140823850Y-94670472D01*
X140977386Y-94588405D01*
X141111962Y-94477962D01*
X141222405Y-94343386D01*
X141304472Y-94189850D01*
X141355008Y-94023254D01*
X141372072Y-93850000D01*
X141372072Y-92250000D01*
X150619928Y-92250000D01*
X150619928Y-93850000D01*
X150636992Y-94023254D01*
X150687528Y-94189850D01*
X150769595Y-94343386D01*
X150880038Y-94477962D01*
X151014614Y-94588405D01*
X151168150Y-94670472D01*
X151334746Y-94721008D01*
X151508000Y-94738072D01*
X154008000Y-94738072D01*
X154181254Y-94721008D01*
X154347850Y-94670472D01*
X154501386Y-94588405D01*
X154635962Y-94477962D01*
X154746405Y-94343386D01*
X154828472Y-94189850D01*
X154879008Y-94023254D01*
X154896072Y-93850000D01*
X154896072Y-92250000D01*
X161144928Y-92250000D01*
X161144928Y-93850000D01*
X161161992Y-94023254D01*
X161212528Y-94189850D01*
X161294595Y-94343386D01*
X161405038Y-94477962D01*
X161539614Y-94588405D01*
X161693150Y-94670472D01*
X161859746Y-94721008D01*
X162033000Y-94738072D01*
X164533000Y-94738072D01*
X164706254Y-94721008D01*
X164872850Y-94670472D01*
X165026386Y-94588405D01*
X165160962Y-94477962D01*
X165271405Y-94343386D01*
X165353472Y-94189850D01*
X165404008Y-94023254D01*
X165421072Y-93850000D01*
X165421072Y-92250000D01*
X171669928Y-92250000D01*
X171669928Y-93850000D01*
X171686992Y-94023254D01*
X171737528Y-94189850D01*
X171819595Y-94343386D01*
X171930038Y-94477962D01*
X172064614Y-94588405D01*
X172218150Y-94670472D01*
X172384746Y-94721008D01*
X172558000Y-94738072D01*
X175058000Y-94738072D01*
X175231254Y-94721008D01*
X175397850Y-94670472D01*
X175551386Y-94588405D01*
X175685962Y-94477962D01*
X175796405Y-94343386D01*
X175878472Y-94189850D01*
X175929008Y-94023254D01*
X175946072Y-93850000D01*
X175946072Y-92250000D01*
X182193928Y-92250000D01*
X182193928Y-93850000D01*
X182210992Y-94023254D01*
X182261528Y-94189850D01*
X182343595Y-94343386D01*
X182454038Y-94477962D01*
X182588614Y-94588405D01*
X182742150Y-94670472D01*
X182908746Y-94721008D01*
X183082000Y-94738072D01*
X185582000Y-94738072D01*
X185755254Y-94721008D01*
X185921850Y-94670472D01*
X186075386Y-94588405D01*
X186209962Y-94477962D01*
X186320405Y-94343386D01*
X186402472Y-94189850D01*
X186453008Y-94023254D01*
X186470072Y-93850000D01*
X186470072Y-92250000D01*
X186453008Y-92076746D01*
X186402472Y-91910150D01*
X186320405Y-91756614D01*
X186209962Y-91622038D01*
X186075386Y-91511595D01*
X185921850Y-91429528D01*
X185755254Y-91378992D01*
X185582000Y-91361928D01*
X183082000Y-91361928D01*
X182908746Y-91378992D01*
X182742150Y-91429528D01*
X182588614Y-91511595D01*
X182454038Y-91622038D01*
X182343595Y-91756614D01*
X182261528Y-91910150D01*
X182210992Y-92076746D01*
X182193928Y-92250000D01*
X175946072Y-92250000D01*
X175929008Y-92076746D01*
X175878472Y-91910150D01*
X175796405Y-91756614D01*
X175685962Y-91622038D01*
X175551386Y-91511595D01*
X175397850Y-91429528D01*
X175231254Y-91378992D01*
X175058000Y-91361928D01*
X172558000Y-91361928D01*
X172384746Y-91378992D01*
X172218150Y-91429528D01*
X172064614Y-91511595D01*
X171930038Y-91622038D01*
X171819595Y-91756614D01*
X171737528Y-91910150D01*
X171686992Y-92076746D01*
X171669928Y-92250000D01*
X165421072Y-92250000D01*
X165404008Y-92076746D01*
X165353472Y-91910150D01*
X165271405Y-91756614D01*
X165160962Y-91622038D01*
X165026386Y-91511595D01*
X164872850Y-91429528D01*
X164706254Y-91378992D01*
X164533000Y-91361928D01*
X162033000Y-91361928D01*
X161859746Y-91378992D01*
X161693150Y-91429528D01*
X161539614Y-91511595D01*
X161405038Y-91622038D01*
X161294595Y-91756614D01*
X161212528Y-91910150D01*
X161161992Y-92076746D01*
X161144928Y-92250000D01*
X154896072Y-92250000D01*
X154879008Y-92076746D01*
X154828472Y-91910150D01*
X154746405Y-91756614D01*
X154635962Y-91622038D01*
X154501386Y-91511595D01*
X154347850Y-91429528D01*
X154181254Y-91378992D01*
X154008000Y-91361928D01*
X151508000Y-91361928D01*
X151334746Y-91378992D01*
X151168150Y-91429528D01*
X151014614Y-91511595D01*
X150880038Y-91622038D01*
X150769595Y-91756614D01*
X150687528Y-91910150D01*
X150636992Y-92076746D01*
X150619928Y-92250000D01*
X141372072Y-92250000D01*
X141355008Y-92076746D01*
X141304472Y-91910150D01*
X141222405Y-91756614D01*
X141111962Y-91622038D01*
X140977386Y-91511595D01*
X140823850Y-91429528D01*
X140657254Y-91378992D01*
X140484000Y-91361928D01*
X137984000Y-91361928D01*
X137810746Y-91378992D01*
X137644150Y-91429528D01*
X137490614Y-91511595D01*
X137356038Y-91622038D01*
X137245595Y-91756614D01*
X137163528Y-91910150D01*
X137112992Y-92076746D01*
X137095928Y-92250000D01*
X130847072Y-92250000D01*
X130830008Y-92076746D01*
X130779472Y-91910150D01*
X130697405Y-91756614D01*
X130586962Y-91622038D01*
X130452386Y-91511595D01*
X130298850Y-91429528D01*
X130132254Y-91378992D01*
X129959000Y-91361928D01*
X127459000Y-91361928D01*
X127285746Y-91378992D01*
X127119150Y-91429528D01*
X126965614Y-91511595D01*
X126831038Y-91622038D01*
X126720595Y-91756614D01*
X126638528Y-91910150D01*
X126587992Y-92076746D01*
X126570928Y-92250000D01*
X120323072Y-92250000D01*
X120306008Y-92076746D01*
X120283486Y-92002500D01*
X122720878Y-92002500D01*
X122758200Y-92006176D01*
X122795522Y-92002500D01*
X122795533Y-92002500D01*
X122907186Y-91991503D01*
X123050447Y-91948046D01*
X123182476Y-91877474D01*
X123298201Y-91782501D01*
X123322004Y-91753497D01*
X127269009Y-87806494D01*
X127298001Y-87782701D01*
X127321795Y-87753708D01*
X127321799Y-87753704D01*
X127391267Y-87669056D01*
X127392974Y-87666976D01*
X127463546Y-87534947D01*
X127507003Y-87391686D01*
X127518000Y-87280033D01*
X127518000Y-87280024D01*
X127521676Y-87242701D01*
X127518000Y-87205378D01*
X127518000Y-74638072D01*
X129959000Y-74638072D01*
X130076300Y-74626519D01*
X130076300Y-74839978D01*
X130072624Y-74877300D01*
X130076300Y-74914622D01*
X130076300Y-74914632D01*
X130087297Y-75026285D01*
X130121875Y-75140276D01*
X130130754Y-75169546D01*
X130175527Y-75253309D01*
X130170928Y-75300000D01*
X130170928Y-75700000D01*
X130187031Y-75863500D01*
X130234722Y-76020716D01*
X130290463Y-76125000D01*
X130234722Y-76229284D01*
X130187031Y-76386500D01*
X130170928Y-76550000D01*
X130170928Y-76950000D01*
X130187031Y-77113500D01*
X130234722Y-77270716D01*
X130290463Y-77375000D01*
X130234722Y-77479284D01*
X130187031Y-77636500D01*
X130170928Y-77800000D01*
X130170928Y-78200000D01*
X130187031Y-78363500D01*
X130234722Y-78520716D01*
X130290463Y-78625000D01*
X130234722Y-78729284D01*
X130187031Y-78886500D01*
X130170928Y-79050000D01*
X130170928Y-79450000D01*
X130187031Y-79613500D01*
X130234722Y-79770716D01*
X130290463Y-79875000D01*
X130234722Y-79979284D01*
X130187031Y-80136500D01*
X130170928Y-80300000D01*
X130170928Y-80700000D01*
X130187031Y-80863500D01*
X130234722Y-81020716D01*
X130290463Y-81125000D01*
X130234722Y-81229284D01*
X130187031Y-81386500D01*
X130170928Y-81550000D01*
X130170928Y-81950000D01*
X130187031Y-82113500D01*
X130234722Y-82270716D01*
X130290463Y-82375000D01*
X130234722Y-82479284D01*
X130187031Y-82636500D01*
X130170928Y-82800000D01*
X130170928Y-83200000D01*
X130187031Y-83363500D01*
X130234722Y-83520716D01*
X130290463Y-83625000D01*
X130234722Y-83729284D01*
X130187031Y-83886500D01*
X130170928Y-84050000D01*
X130170928Y-84450000D01*
X130187031Y-84613500D01*
X130234722Y-84770716D01*
X130290463Y-84875000D01*
X130234722Y-84979284D01*
X130187031Y-85136500D01*
X130170928Y-85300000D01*
X130170928Y-85700000D01*
X130187031Y-85863500D01*
X130234722Y-86020716D01*
X130290463Y-86125000D01*
X130234722Y-86229284D01*
X130187031Y-86386500D01*
X130170928Y-86550000D01*
X130170928Y-86950000D01*
X130187031Y-87113500D01*
X130234722Y-87270716D01*
X130290463Y-87375000D01*
X130234722Y-87479284D01*
X130187031Y-87636500D01*
X130170928Y-87800000D01*
X130170928Y-88200000D01*
X130187031Y-88363500D01*
X130234722Y-88520716D01*
X130290463Y-88625000D01*
X130234722Y-88729284D01*
X130187031Y-88886500D01*
X130170928Y-89050000D01*
X130170928Y-89450000D01*
X130187031Y-89613500D01*
X130234722Y-89770716D01*
X130290463Y-89875000D01*
X130234722Y-89979284D01*
X130187031Y-90136500D01*
X130170928Y-90300000D01*
X130170928Y-90700000D01*
X130187031Y-90863500D01*
X130234722Y-91020716D01*
X130312169Y-91165608D01*
X130416394Y-91292606D01*
X130543392Y-91396831D01*
X130688284Y-91474278D01*
X130845500Y-91521969D01*
X131009000Y-91538072D01*
X131909000Y-91538072D01*
X132072500Y-91521969D01*
X132175817Y-91490628D01*
X132186326Y-91501137D01*
X132355844Y-91614405D01*
X132544202Y-91692426D01*
X132744161Y-91732200D01*
X132948039Y-91732200D01*
X133147998Y-91692426D01*
X133336356Y-91614405D01*
X133505874Y-91501137D01*
X133650037Y-91356974D01*
X133763305Y-91187456D01*
X133841326Y-90999098D01*
X133881100Y-90799139D01*
X133881100Y-90595261D01*
X133841326Y-90395302D01*
X133763305Y-90206944D01*
X133650037Y-90037426D01*
X133622611Y-90010000D01*
X134458799Y-90010000D01*
X134732000Y-90283201D01*
X134732000Y-90345339D01*
X134771774Y-90545298D01*
X134849795Y-90733656D01*
X134963063Y-90903174D01*
X135107226Y-91047337D01*
X135276744Y-91160605D01*
X135465102Y-91238626D01*
X135665061Y-91278400D01*
X135868939Y-91278400D01*
X136068898Y-91238626D01*
X136257256Y-91160605D01*
X136426774Y-91047337D01*
X136570937Y-90903174D01*
X136684205Y-90733656D01*
X136762226Y-90545298D01*
X136802000Y-90345339D01*
X136802000Y-90141461D01*
X136762226Y-89941502D01*
X136684205Y-89753144D01*
X136570937Y-89583626D01*
X136426774Y-89439463D01*
X136257256Y-89326195D01*
X136068898Y-89248174D01*
X135868939Y-89208400D01*
X135806801Y-89208400D01*
X135337404Y-88739002D01*
X135313601Y-88709999D01*
X135197876Y-88615026D01*
X135065847Y-88544454D01*
X134922586Y-88500997D01*
X134810933Y-88490000D01*
X134810922Y-88490000D01*
X134773600Y-88486324D01*
X134736278Y-88490000D01*
X133287501Y-88490000D01*
X133351101Y-88426400D01*
X133413239Y-88426400D01*
X133613198Y-88386626D01*
X133801556Y-88308605D01*
X133971074Y-88195337D01*
X134115237Y-88051174D01*
X134228505Y-87881656D01*
X134306526Y-87693298D01*
X134346300Y-87493339D01*
X134346300Y-87289461D01*
X134306526Y-87089502D01*
X134228505Y-86901144D01*
X134115237Y-86731626D01*
X134047043Y-86663432D01*
X134083800Y-86478639D01*
X134083800Y-86274761D01*
X134044026Y-86074802D01*
X133966005Y-85886444D01*
X133852737Y-85716926D01*
X133829166Y-85693355D01*
X133841326Y-85663998D01*
X133881100Y-85464039D01*
X133881100Y-85260161D01*
X133841326Y-85060202D01*
X133763305Y-84871844D01*
X133650037Y-84702326D01*
X133505874Y-84558163D01*
X133336356Y-84444895D01*
X133147998Y-84366874D01*
X132948039Y-84327100D01*
X132747072Y-84327100D01*
X132747072Y-84302329D01*
X132771002Y-84278400D01*
X132833139Y-84278400D01*
X133033098Y-84238626D01*
X133221456Y-84160605D01*
X133390974Y-84047337D01*
X133535137Y-83903174D01*
X133648405Y-83733656D01*
X133726426Y-83545298D01*
X133766200Y-83345339D01*
X133766200Y-83141461D01*
X133726426Y-82941502D01*
X133648405Y-82753144D01*
X133535137Y-82583626D01*
X133487606Y-82536095D01*
X134276802Y-81746900D01*
X134372239Y-81746900D01*
X134572198Y-81707126D01*
X134760556Y-81629105D01*
X134930074Y-81515837D01*
X135074237Y-81371674D01*
X135187505Y-81202156D01*
X135265526Y-81013798D01*
X135305300Y-80813839D01*
X135305300Y-80609961D01*
X135265526Y-80410002D01*
X135187505Y-80221644D01*
X135074237Y-80052126D01*
X134930074Y-79907963D01*
X134760556Y-79794695D01*
X134572198Y-79716674D01*
X134372239Y-79676900D01*
X134168361Y-79676900D01*
X133968402Y-79716674D01*
X133780044Y-79794695D01*
X133610526Y-79907963D01*
X133466363Y-80052126D01*
X133356355Y-80216765D01*
X133309856Y-80185695D01*
X133155884Y-80121917D01*
X133385322Y-79892480D01*
X133520456Y-79836505D01*
X133689974Y-79723237D01*
X133834137Y-79579074D01*
X133947405Y-79409556D01*
X134025426Y-79221198D01*
X134065200Y-79021239D01*
X134065200Y-78817361D01*
X134025426Y-78617402D01*
X133947405Y-78429044D01*
X133834137Y-78259526D01*
X133750706Y-78176095D01*
X135030403Y-76896399D01*
X135059401Y-76872601D01*
X135154374Y-76756876D01*
X135224946Y-76624847D01*
X135268403Y-76481586D01*
X135279400Y-76369933D01*
X135279400Y-76369925D01*
X135283076Y-76332600D01*
X135279400Y-76295275D01*
X135279400Y-71134901D01*
X136576648Y-72432150D01*
X136547239Y-72426300D01*
X136343361Y-72426300D01*
X136143402Y-72466074D01*
X135955044Y-72544095D01*
X135785526Y-72657363D01*
X135641363Y-72801526D01*
X135528095Y-72971044D01*
X135450074Y-73159402D01*
X135410300Y-73359361D01*
X135410300Y-73563239D01*
X135450074Y-73763198D01*
X135528095Y-73951556D01*
X135641363Y-74121074D01*
X135736105Y-74215816D01*
X135739754Y-74227846D01*
X135810326Y-74359876D01*
X135841626Y-74398015D01*
X135905299Y-74475601D01*
X135934301Y-74499402D01*
X138344504Y-76909605D01*
X138313144Y-76922595D01*
X138143626Y-77035863D01*
X137999463Y-77180026D01*
X137886195Y-77349544D01*
X137808174Y-77537902D01*
X137768400Y-77737861D01*
X137768400Y-77941739D01*
X137808174Y-78141698D01*
X137886195Y-78330056D01*
X137999463Y-78499574D01*
X138143626Y-78643737D01*
X138313144Y-78757005D01*
X138501502Y-78835026D01*
X138701461Y-78874800D01*
X138905339Y-78874800D01*
X139075877Y-78840878D01*
X139150744Y-78915745D01*
X139103163Y-78963326D01*
X138989895Y-79132844D01*
X138911874Y-79321202D01*
X138872100Y-79521161D01*
X138872100Y-79725039D01*
X138911874Y-79924998D01*
X138989895Y-80113356D01*
X139103163Y-80282874D01*
X139247326Y-80427037D01*
X139416844Y-80540305D01*
X139482841Y-80567642D01*
X140695928Y-81780730D01*
X140695928Y-81950000D01*
X140712031Y-82113500D01*
X140759722Y-82270716D01*
X140815463Y-82375000D01*
X140759722Y-82479284D01*
X140712031Y-82636500D01*
X140710613Y-82650900D01*
X140525661Y-82650900D01*
X140325702Y-82690674D01*
X140137344Y-82768695D01*
X139967826Y-82881963D01*
X139823663Y-83026126D01*
X139710395Y-83195644D01*
X139632374Y-83384002D01*
X139592600Y-83583961D01*
X139592600Y-83787839D01*
X139632374Y-83987798D01*
X139710395Y-84176156D01*
X139823663Y-84345674D01*
X139864073Y-84386084D01*
X139863924Y-84387600D01*
X139867600Y-84424922D01*
X139867600Y-84424932D01*
X139878597Y-84536585D01*
X139909708Y-84639146D01*
X139922054Y-84679846D01*
X139992626Y-84811876D01*
X140011105Y-84834392D01*
X140087599Y-84927601D01*
X140116602Y-84951404D01*
X140695928Y-85530730D01*
X140695928Y-85700000D01*
X140712031Y-85863500D01*
X140759722Y-86020716D01*
X140815463Y-86125000D01*
X140759722Y-86229284D01*
X140712031Y-86386500D01*
X140695928Y-86550000D01*
X140695928Y-86950000D01*
X140712031Y-87113500D01*
X140759722Y-87270716D01*
X140815463Y-87375000D01*
X140759722Y-87479284D01*
X140712031Y-87636500D01*
X140695928Y-87800000D01*
X140695928Y-88200000D01*
X140712031Y-88363500D01*
X140759722Y-88520716D01*
X140815463Y-88625000D01*
X140759722Y-88729284D01*
X140712031Y-88886500D01*
X140695928Y-89050000D01*
X140695928Y-89450000D01*
X140712031Y-89613500D01*
X140759722Y-89770716D01*
X140815463Y-89875000D01*
X140759722Y-89979284D01*
X140712031Y-90136500D01*
X140695928Y-90300000D01*
X140695928Y-90700000D01*
X140712031Y-90863500D01*
X140759722Y-91020716D01*
X140837169Y-91165608D01*
X140941394Y-91292606D01*
X141068392Y-91396831D01*
X141213284Y-91474278D01*
X141370500Y-91521969D01*
X141534000Y-91538072D01*
X142434000Y-91538072D01*
X142597500Y-91521969D01*
X142754716Y-91474278D01*
X142899608Y-91396831D01*
X143026606Y-91292606D01*
X143130831Y-91165608D01*
X143208278Y-91020716D01*
X143255969Y-90863500D01*
X143272072Y-90700000D01*
X143272072Y-90435029D01*
X146431604Y-87275498D01*
X146460601Y-87251701D01*
X146510000Y-87191508D01*
X146510000Y-87922678D01*
X146506324Y-87960000D01*
X146510000Y-87997322D01*
X146510000Y-87997332D01*
X146520997Y-88108985D01*
X146557109Y-88228031D01*
X146564454Y-88252246D01*
X146635026Y-88384276D01*
X146636955Y-88386626D01*
X146729999Y-88500001D01*
X146759003Y-88523804D01*
X148719928Y-90484731D01*
X148719928Y-90700000D01*
X148736031Y-90863500D01*
X148783722Y-91020716D01*
X148861169Y-91165608D01*
X148965394Y-91292606D01*
X149092392Y-91396831D01*
X149237284Y-91474278D01*
X149394500Y-91521969D01*
X149558000Y-91538072D01*
X150458000Y-91538072D01*
X150621500Y-91521969D01*
X150778716Y-91474278D01*
X150923608Y-91396831D01*
X151050606Y-91292606D01*
X151154831Y-91165608D01*
X151232278Y-91020716D01*
X151279969Y-90863500D01*
X151296072Y-90700000D01*
X151296072Y-90300000D01*
X151279969Y-90136500D01*
X151232278Y-89979284D01*
X151176537Y-89875000D01*
X151232278Y-89770716D01*
X151279969Y-89613500D01*
X151296072Y-89450000D01*
X151296072Y-89050000D01*
X151279969Y-88886500D01*
X151232278Y-88729284D01*
X151176537Y-88625000D01*
X151232278Y-88520716D01*
X151279969Y-88363500D01*
X151294713Y-88213800D01*
X151385839Y-88213800D01*
X151585798Y-88174026D01*
X151774156Y-88096005D01*
X151943674Y-87982737D01*
X152087837Y-87838574D01*
X152201105Y-87669056D01*
X152279126Y-87480698D01*
X152318900Y-87280739D01*
X152318900Y-87076861D01*
X152279126Y-86876902D01*
X152214829Y-86721676D01*
X152323156Y-86676805D01*
X152492674Y-86563537D01*
X152636837Y-86419374D01*
X152750105Y-86249856D01*
X152808171Y-86109673D01*
X156459500Y-89761002D01*
X156483299Y-89790001D01*
X156512297Y-89813799D01*
X156599023Y-89884974D01*
X156704779Y-89941502D01*
X156731053Y-89955546D01*
X156874314Y-89999003D01*
X156985967Y-90010000D01*
X156985976Y-90010000D01*
X157023299Y-90013676D01*
X157060622Y-90010000D01*
X157724189Y-90010000D01*
X157696763Y-90037426D01*
X157583495Y-90206944D01*
X157505474Y-90395302D01*
X157465700Y-90595261D01*
X157465700Y-90799139D01*
X157505474Y-90999098D01*
X157583495Y-91187456D01*
X157696763Y-91356974D01*
X157840926Y-91501137D01*
X158010444Y-91614405D01*
X158198802Y-91692426D01*
X158398761Y-91732200D01*
X158602639Y-91732200D01*
X158802598Y-91692426D01*
X158990956Y-91614405D01*
X159160474Y-91501137D01*
X159304637Y-91356974D01*
X159369433Y-91260000D01*
X159463635Y-91260000D01*
X159490394Y-91292606D01*
X159617392Y-91396831D01*
X159762284Y-91474278D01*
X159919500Y-91521969D01*
X160083000Y-91538072D01*
X160983000Y-91538072D01*
X161146500Y-91521969D01*
X161303716Y-91474278D01*
X161448608Y-91396831D01*
X161575606Y-91292606D01*
X161679831Y-91165608D01*
X161757278Y-91020716D01*
X161804969Y-90863500D01*
X161821072Y-90700000D01*
X161821072Y-90300000D01*
X161804969Y-90136500D01*
X161757278Y-89979284D01*
X161701537Y-89875000D01*
X161757278Y-89770716D01*
X161804969Y-89613500D01*
X161821072Y-89450000D01*
X161821072Y-89050000D01*
X161804969Y-88886500D01*
X161757278Y-88729284D01*
X161701537Y-88625000D01*
X161757278Y-88520716D01*
X161804969Y-88363500D01*
X161821072Y-88200000D01*
X161821072Y-87800000D01*
X161804969Y-87636500D01*
X161757278Y-87479284D01*
X161701537Y-87375000D01*
X161757278Y-87270716D01*
X161804969Y-87113500D01*
X161821072Y-86950000D01*
X161821072Y-86550000D01*
X161804969Y-86386500D01*
X161757278Y-86229284D01*
X161701537Y-86125000D01*
X161757278Y-86020716D01*
X161804969Y-85863500D01*
X161821072Y-85700000D01*
X161821072Y-85300000D01*
X161804969Y-85136500D01*
X161757278Y-84979284D01*
X161701537Y-84875000D01*
X161757278Y-84770716D01*
X161804969Y-84613500D01*
X161821072Y-84450000D01*
X161821072Y-84050000D01*
X161804969Y-83886500D01*
X161757278Y-83729284D01*
X161701537Y-83625000D01*
X161757278Y-83520716D01*
X161804969Y-83363500D01*
X161821072Y-83200000D01*
X161821072Y-82800000D01*
X161804969Y-82636500D01*
X161757278Y-82479284D01*
X161701537Y-82375000D01*
X161757278Y-82270716D01*
X161804969Y-82113500D01*
X161821072Y-81950000D01*
X161821072Y-81550000D01*
X161804969Y-81386500D01*
X161757278Y-81229284D01*
X161701537Y-81125000D01*
X161757278Y-81020716D01*
X161804969Y-80863500D01*
X161821072Y-80700000D01*
X161821072Y-80300000D01*
X161804969Y-80136500D01*
X161757278Y-79979284D01*
X161701537Y-79875000D01*
X161757278Y-79770716D01*
X161804969Y-79613500D01*
X161821072Y-79450000D01*
X161821072Y-79050000D01*
X161804969Y-78886500D01*
X161757278Y-78729284D01*
X161701537Y-78625000D01*
X161757278Y-78520716D01*
X161804969Y-78363500D01*
X161821072Y-78200000D01*
X161821072Y-77800000D01*
X161804969Y-77636500D01*
X161757278Y-77479284D01*
X161701537Y-77375000D01*
X161757278Y-77270716D01*
X161804969Y-77113500D01*
X161821072Y-76950000D01*
X161821072Y-76550000D01*
X161804969Y-76386500D01*
X161757278Y-76229284D01*
X161701537Y-76125000D01*
X161757278Y-76020716D01*
X161804969Y-75863500D01*
X161821072Y-75700000D01*
X161821072Y-75300000D01*
X161819910Y-75288198D01*
X161847201Y-75265801D01*
X161887168Y-75217101D01*
X161942174Y-75150077D01*
X162012746Y-75018047D01*
X162014702Y-75011600D01*
X162056203Y-74874786D01*
X162067200Y-74763133D01*
X162067200Y-74763124D01*
X162070876Y-74725801D01*
X162067200Y-74688478D01*
X162067200Y-74638072D01*
X164533000Y-74638072D01*
X164706254Y-74621008D01*
X164821401Y-74586079D01*
X164821400Y-83896278D01*
X164817724Y-83933600D01*
X164821400Y-83970922D01*
X164821400Y-83970932D01*
X164832397Y-84082585D01*
X164854841Y-84156574D01*
X164875854Y-84225846D01*
X164946426Y-84357876D01*
X164986271Y-84406426D01*
X165041399Y-84473601D01*
X165070403Y-84497404D01*
X169165311Y-88592312D01*
X169157144Y-88595695D01*
X168987626Y-88708963D01*
X168843463Y-88853126D01*
X168730195Y-89022644D01*
X168652174Y-89211002D01*
X168612400Y-89410961D01*
X168612400Y-89614839D01*
X168652174Y-89814798D01*
X168730195Y-90003156D01*
X168843463Y-90172674D01*
X168987626Y-90316837D01*
X169157144Y-90430105D01*
X169345502Y-90508126D01*
X169545461Y-90547900D01*
X169607598Y-90547900D01*
X169771046Y-90711347D01*
X169786031Y-90863500D01*
X169833722Y-91020716D01*
X169911169Y-91165608D01*
X170015394Y-91292606D01*
X170142392Y-91396831D01*
X170287284Y-91474278D01*
X170444500Y-91521969D01*
X170608000Y-91538072D01*
X171508000Y-91538072D01*
X171671500Y-91521969D01*
X171828716Y-91474278D01*
X171973608Y-91396831D01*
X172100606Y-91292606D01*
X172204831Y-91165608D01*
X172282278Y-91020716D01*
X172329969Y-90863500D01*
X172346072Y-90700000D01*
X172346072Y-90300000D01*
X172329969Y-90136500D01*
X172282278Y-89979284D01*
X172226537Y-89875000D01*
X172282278Y-89770716D01*
X172329969Y-89613500D01*
X172346072Y-89450000D01*
X172346072Y-89050000D01*
X172329969Y-88886500D01*
X172282278Y-88729284D01*
X172226537Y-88625000D01*
X172282278Y-88520716D01*
X172329969Y-88363500D01*
X172346072Y-88200000D01*
X172346072Y-87800000D01*
X172329969Y-87636500D01*
X172282278Y-87479284D01*
X172226537Y-87375000D01*
X172282278Y-87270716D01*
X172329969Y-87113500D01*
X172346072Y-86950000D01*
X172346072Y-86550000D01*
X172329969Y-86386500D01*
X172282278Y-86229284D01*
X172226537Y-86125000D01*
X172282278Y-86020716D01*
X172329969Y-85863500D01*
X172346072Y-85700000D01*
X172346072Y-85300000D01*
X172329969Y-85136500D01*
X172282278Y-84979284D01*
X172226537Y-84875000D01*
X172282278Y-84770716D01*
X172329969Y-84613500D01*
X172346072Y-84450000D01*
X172346072Y-84050000D01*
X172329969Y-83886500D01*
X172282278Y-83729284D01*
X172226537Y-83625000D01*
X172282278Y-83520716D01*
X172329969Y-83363500D01*
X172346072Y-83200000D01*
X172346072Y-82800000D01*
X172329969Y-82636500D01*
X172282278Y-82479284D01*
X172226537Y-82375000D01*
X172282278Y-82270716D01*
X172329969Y-82113500D01*
X172346072Y-81950000D01*
X172346072Y-81704929D01*
X173046204Y-81004798D01*
X173075201Y-80981001D01*
X173170174Y-80865276D01*
X173240746Y-80733247D01*
X173284203Y-80589986D01*
X173295200Y-80478333D01*
X173295200Y-80478332D01*
X173298877Y-80441000D01*
X173295200Y-80403667D01*
X173295200Y-79786311D01*
X173339137Y-79742374D01*
X173452405Y-79572856D01*
X173530426Y-79384498D01*
X173570200Y-79184539D01*
X173570200Y-78980661D01*
X173530426Y-78780702D01*
X173452405Y-78592344D01*
X173339137Y-78422826D01*
X173194974Y-78278663D01*
X173075275Y-78198683D01*
X173077076Y-78180400D01*
X173073400Y-78143077D01*
X173073400Y-77832611D01*
X173117337Y-77788674D01*
X173230605Y-77619156D01*
X173308626Y-77430798D01*
X173348400Y-77230839D01*
X173348400Y-77026961D01*
X173311689Y-76842400D01*
X173339339Y-76842400D01*
X173539298Y-76802626D01*
X173727656Y-76724605D01*
X173897174Y-76611337D01*
X174041337Y-76467174D01*
X174154605Y-76297656D01*
X174232626Y-76109298D01*
X174272400Y-75909339D01*
X174272400Y-75705461D01*
X174232626Y-75505502D01*
X174154605Y-75317144D01*
X174041337Y-75147626D01*
X173897174Y-75003463D01*
X173727656Y-74890195D01*
X173539298Y-74812174D01*
X173339339Y-74772400D01*
X173135461Y-74772400D01*
X172935502Y-74812174D01*
X172747144Y-74890195D01*
X172577626Y-75003463D01*
X172533689Y-75047400D01*
X172302941Y-75047400D01*
X172282278Y-74979284D01*
X172204831Y-74834392D01*
X172100606Y-74707394D01*
X171973608Y-74603169D01*
X171828716Y-74525722D01*
X171818000Y-74522471D01*
X171818000Y-74240402D01*
X171819595Y-74243386D01*
X171930038Y-74377962D01*
X172064614Y-74488405D01*
X172218150Y-74570472D01*
X172384746Y-74621008D01*
X172558000Y-74638072D01*
X175044600Y-74638072D01*
X175044600Y-78664678D01*
X175040924Y-78702000D01*
X175044600Y-78739322D01*
X175044600Y-78739332D01*
X175055597Y-78850985D01*
X175089675Y-78963326D01*
X175099054Y-78994246D01*
X175169626Y-79126276D01*
X175203949Y-79168098D01*
X175264599Y-79242001D01*
X175293603Y-79265804D01*
X177640994Y-81613195D01*
X177593363Y-81660826D01*
X177480095Y-81830344D01*
X177402074Y-82018702D01*
X177362300Y-82218661D01*
X177362300Y-82422539D01*
X177402074Y-82622498D01*
X177480095Y-82810856D01*
X177593363Y-82980374D01*
X177637301Y-83024312D01*
X177637300Y-84965377D01*
X177633624Y-85002700D01*
X177637300Y-85040022D01*
X177637300Y-85040032D01*
X177648297Y-85151685D01*
X177688615Y-85284598D01*
X177691754Y-85294946D01*
X177762326Y-85426976D01*
X177792743Y-85464039D01*
X177857299Y-85542701D01*
X177886303Y-85566504D01*
X178844199Y-86524400D01*
X178649161Y-86524400D01*
X178449202Y-86564174D01*
X178279061Y-86634649D01*
X178257105Y-86581644D01*
X178143837Y-86412126D01*
X177999674Y-86267963D01*
X177830156Y-86154695D01*
X177641798Y-86076674D01*
X177441839Y-86036900D01*
X177237961Y-86036900D01*
X177038002Y-86076674D01*
X176849644Y-86154695D01*
X176680126Y-86267963D01*
X176535963Y-86412126D01*
X176422695Y-86581644D01*
X176344674Y-86770002D01*
X176304900Y-86969961D01*
X176304900Y-87173839D01*
X176344674Y-87373798D01*
X176422695Y-87562156D01*
X176535963Y-87731674D01*
X176680126Y-87875837D01*
X176849644Y-87989105D01*
X177038002Y-88067126D01*
X177121667Y-88083768D01*
X180048900Y-91011002D01*
X180072699Y-91040001D01*
X180101697Y-91063799D01*
X180188423Y-91134974D01*
X180245735Y-91165608D01*
X180320453Y-91205546D01*
X180463714Y-91249003D01*
X180507118Y-91253278D01*
X180539394Y-91292606D01*
X180666392Y-91396831D01*
X180811284Y-91474278D01*
X180968500Y-91521969D01*
X181132000Y-91538072D01*
X182032000Y-91538072D01*
X182195500Y-91521969D01*
X182352716Y-91474278D01*
X182497608Y-91396831D01*
X182624606Y-91292606D01*
X182728831Y-91165608D01*
X182806278Y-91020716D01*
X182853969Y-90863500D01*
X182870072Y-90700000D01*
X182870072Y-90300000D01*
X182853969Y-90136500D01*
X182806278Y-89979284D01*
X182750537Y-89875000D01*
X182806278Y-89770716D01*
X182853969Y-89613500D01*
X182870072Y-89450000D01*
X182870072Y-89050000D01*
X182853969Y-88886500D01*
X182806278Y-88729284D01*
X182750537Y-88625000D01*
X182806278Y-88520716D01*
X182853969Y-88363500D01*
X182870072Y-88200000D01*
X182870072Y-87800000D01*
X182853969Y-87636500D01*
X182806278Y-87479284D01*
X182750537Y-87375000D01*
X182806278Y-87270716D01*
X182853969Y-87113500D01*
X182870072Y-86950000D01*
X182870072Y-86550000D01*
X182853969Y-86386500D01*
X182806278Y-86229284D01*
X182750537Y-86125000D01*
X182806278Y-86020716D01*
X182853969Y-85863500D01*
X182870072Y-85700000D01*
X182870072Y-85530930D01*
X183079504Y-85321498D01*
X183108501Y-85297701D01*
X183203474Y-85181976D01*
X183274046Y-85049947D01*
X183317503Y-84906686D01*
X183328500Y-84795033D01*
X183328500Y-84795025D01*
X183332176Y-84757700D01*
X183328500Y-84720375D01*
X183328500Y-74834522D01*
X183332176Y-74797199D01*
X183328500Y-74759877D01*
X183328500Y-74759867D01*
X183317503Y-74648214D01*
X183314427Y-74638072D01*
X185582000Y-74638072D01*
X185755254Y-74621008D01*
X185921850Y-74570472D01*
X186075386Y-74488405D01*
X186209962Y-74377962D01*
X186320405Y-74243386D01*
X186402472Y-74089850D01*
X186453008Y-73923254D01*
X186470072Y-73750000D01*
X186470072Y-72150000D01*
X186453008Y-71976746D01*
X186402472Y-71810150D01*
X186320405Y-71656614D01*
X186209962Y-71522038D01*
X186075386Y-71411595D01*
X185921850Y-71329528D01*
X185755254Y-71278992D01*
X185582000Y-71261928D01*
X183265600Y-71261928D01*
X183265600Y-63392022D01*
X183269276Y-63354699D01*
X183265600Y-63317376D01*
X183265600Y-63317367D01*
X183254603Y-63205714D01*
X183211146Y-63062453D01*
X183140574Y-62930424D01*
X183119935Y-62905275D01*
X183069399Y-62843696D01*
X183069395Y-62843692D01*
X183045601Y-62814699D01*
X183016608Y-62790905D01*
X178847620Y-58621919D01*
X178872405Y-58597134D01*
X179030543Y-58360464D01*
X179139470Y-58097491D01*
X179195000Y-57818320D01*
X179195000Y-57533680D01*
X179139470Y-57254509D01*
X179030543Y-56991536D01*
X178872405Y-56754866D01*
X178671134Y-56553595D01*
X178450243Y-56406000D01*
X178671134Y-56258405D01*
X178872405Y-56057134D01*
X179030543Y-55820464D01*
X179139470Y-55557491D01*
X179195000Y-55278320D01*
X179195000Y-54993680D01*
X179139470Y-54714509D01*
X179030543Y-54451536D01*
X178872405Y-54214866D01*
X178671134Y-54013595D01*
X178434464Y-53855457D01*
X178171491Y-53746530D01*
X177892320Y-53691000D01*
X177607680Y-53691000D01*
X177328509Y-53746530D01*
X177065536Y-53855457D01*
X176828866Y-54013595D01*
X176627595Y-54214866D01*
X176480000Y-54435757D01*
X176332405Y-54214866D01*
X176131134Y-54013595D01*
X175894464Y-53855457D01*
X175631491Y-53746530D01*
X175352320Y-53691000D01*
X175067680Y-53691000D01*
X174788509Y-53746530D01*
X174525536Y-53855457D01*
X174288866Y-54013595D01*
X174087595Y-54214866D01*
X173940000Y-54435757D01*
X173792405Y-54214866D01*
X173591134Y-54013595D01*
X173354464Y-53855457D01*
X173091491Y-53746530D01*
X172812320Y-53691000D01*
X172527680Y-53691000D01*
X172248509Y-53746530D01*
X171985536Y-53855457D01*
X171748866Y-54013595D01*
X171547595Y-54214866D01*
X171400000Y-54435757D01*
X171252405Y-54214866D01*
X171051134Y-54013595D01*
X170814464Y-53855457D01*
X170551491Y-53746530D01*
X170272320Y-53691000D01*
X169987680Y-53691000D01*
X169708509Y-53746530D01*
X169445536Y-53855457D01*
X169208866Y-54013595D01*
X169007595Y-54214866D01*
X168860000Y-54435757D01*
X168712405Y-54214866D01*
X168511134Y-54013595D01*
X168274464Y-53855457D01*
X168011491Y-53746530D01*
X167732320Y-53691000D01*
X167447680Y-53691000D01*
X167168509Y-53746530D01*
X166905536Y-53855457D01*
X166668866Y-54013595D01*
X166467595Y-54214866D01*
X166320000Y-54435757D01*
X166172405Y-54214866D01*
X165971134Y-54013595D01*
X165734464Y-53855457D01*
X165471491Y-53746530D01*
X165192320Y-53691000D01*
X164907680Y-53691000D01*
X164628509Y-53746530D01*
X164365536Y-53855457D01*
X164128866Y-54013595D01*
X163927595Y-54214866D01*
X163780000Y-54435757D01*
X163632405Y-54214866D01*
X163431134Y-54013595D01*
X163194464Y-53855457D01*
X162931491Y-53746530D01*
X162652320Y-53691000D01*
X162367680Y-53691000D01*
X162088509Y-53746530D01*
X161825536Y-53855457D01*
X161588866Y-54013595D01*
X161387595Y-54214866D01*
X161240000Y-54435757D01*
X161092405Y-54214866D01*
X160891134Y-54013595D01*
X160654464Y-53855457D01*
X160391491Y-53746530D01*
X160112320Y-53691000D01*
X159827680Y-53691000D01*
X159548509Y-53746530D01*
X159285536Y-53855457D01*
X159048866Y-54013595D01*
X158847595Y-54214866D01*
X158700000Y-54435757D01*
X158552405Y-54214866D01*
X158351134Y-54013595D01*
X158114464Y-53855457D01*
X157851491Y-53746530D01*
X157572320Y-53691000D01*
X157287680Y-53691000D01*
X157008509Y-53746530D01*
X156745536Y-53855457D01*
X156508866Y-54013595D01*
X156307595Y-54214866D01*
X156160000Y-54435757D01*
X156012405Y-54214866D01*
X155811134Y-54013595D01*
X155574464Y-53855457D01*
X155311491Y-53746530D01*
X155032320Y-53691000D01*
X154747680Y-53691000D01*
X154468509Y-53746530D01*
X154205536Y-53855457D01*
X153968866Y-54013595D01*
X153767595Y-54214866D01*
X153620000Y-54435757D01*
X153472405Y-54214866D01*
X153271134Y-54013595D01*
X153034464Y-53855457D01*
X152771491Y-53746530D01*
X152492320Y-53691000D01*
X152207680Y-53691000D01*
X151928509Y-53746530D01*
X151665536Y-53855457D01*
X151428866Y-54013595D01*
X151227595Y-54214866D01*
X151080000Y-54435757D01*
X150932405Y-54214866D01*
X150731134Y-54013595D01*
X150494464Y-53855457D01*
X150231491Y-53746530D01*
X149952320Y-53691000D01*
X149667680Y-53691000D01*
X149388509Y-53746530D01*
X149125536Y-53855457D01*
X148888866Y-54013595D01*
X148687595Y-54214866D01*
X148540000Y-54435757D01*
X148392405Y-54214866D01*
X148191134Y-54013595D01*
X147954464Y-53855457D01*
X147691491Y-53746530D01*
X147412320Y-53691000D01*
X147127680Y-53691000D01*
X146848509Y-53746530D01*
X146585536Y-53855457D01*
X146348866Y-54013595D01*
X146147595Y-54214866D01*
X146000000Y-54435757D01*
X145852405Y-54214866D01*
X145651134Y-54013595D01*
X145414464Y-53855457D01*
X145151491Y-53746530D01*
X144872320Y-53691000D01*
X144587680Y-53691000D01*
X144308509Y-53746530D01*
X144045536Y-53855457D01*
X143808866Y-54013595D01*
X143607595Y-54214866D01*
X143460000Y-54435757D01*
X143312405Y-54214866D01*
X143111134Y-54013595D01*
X142874464Y-53855457D01*
X142611491Y-53746530D01*
X142332320Y-53691000D01*
X142047680Y-53691000D01*
X141768509Y-53746530D01*
X141505536Y-53855457D01*
X141268866Y-54013595D01*
X141067595Y-54214866D01*
X140920000Y-54435757D01*
X140772405Y-54214866D01*
X140571134Y-54013595D01*
X140334464Y-53855457D01*
X140071491Y-53746530D01*
X139792320Y-53691000D01*
X139507680Y-53691000D01*
X139228509Y-53746530D01*
X138965536Y-53855457D01*
X138728866Y-54013595D01*
X138527595Y-54214866D01*
X138380000Y-54435757D01*
X138232405Y-54214866D01*
X138031134Y-54013595D01*
X137794464Y-53855457D01*
X137531491Y-53746530D01*
X137252320Y-53691000D01*
X136967680Y-53691000D01*
X136688509Y-53746530D01*
X136425536Y-53855457D01*
X136188866Y-54013595D01*
X135987595Y-54214866D01*
X135840000Y-54435757D01*
X135692405Y-54214866D01*
X135491134Y-54013595D01*
X135254464Y-53855457D01*
X134991491Y-53746530D01*
X134712320Y-53691000D01*
X134427680Y-53691000D01*
X134148509Y-53746530D01*
X133885536Y-53855457D01*
X133648866Y-54013595D01*
X133447595Y-54214866D01*
X133300000Y-54435757D01*
X133152405Y-54214866D01*
X132951134Y-54013595D01*
X132714464Y-53855457D01*
X132451491Y-53746530D01*
X132172320Y-53691000D01*
X131887680Y-53691000D01*
X131608509Y-53746530D01*
X131345536Y-53855457D01*
X131108866Y-54013595D01*
X130907595Y-54214866D01*
X130760000Y-54435757D01*
X130612405Y-54214866D01*
X130411134Y-54013595D01*
X130174464Y-53855457D01*
X129911491Y-53746530D01*
X129632320Y-53691000D01*
X129347680Y-53691000D01*
X129068509Y-53746530D01*
X128805536Y-53855457D01*
X128568866Y-54013595D01*
X128367595Y-54214866D01*
X128220000Y-54435757D01*
X128072405Y-54214866D01*
X127871134Y-54013595D01*
X127634464Y-53855457D01*
X127371491Y-53746530D01*
X127092320Y-53691000D01*
X126807680Y-53691000D01*
X126528509Y-53746530D01*
X126265536Y-53855457D01*
X126028866Y-54013595D01*
X125827595Y-54214866D01*
X125680000Y-54435757D01*
X125532405Y-54214866D01*
X125331134Y-54013595D01*
X125094464Y-53855457D01*
X124831491Y-53746530D01*
X124552320Y-53691000D01*
X124267680Y-53691000D01*
X123988509Y-53746530D01*
X123725536Y-53855457D01*
X123488866Y-54013595D01*
X123287595Y-54214866D01*
X123140000Y-54435757D01*
X122992405Y-54214866D01*
X122791134Y-54013595D01*
X122554464Y-53855457D01*
X122291491Y-53746530D01*
X122012320Y-53691000D01*
X121727680Y-53691000D01*
X121448509Y-53746530D01*
X121185536Y-53855457D01*
X120948866Y-54013595D01*
X120747595Y-54214866D01*
X120600000Y-54435757D01*
X120452405Y-54214866D01*
X120251134Y-54013595D01*
X120014464Y-53855457D01*
X119751491Y-53746530D01*
X119472320Y-53691000D01*
X119187680Y-53691000D01*
X118908509Y-53746530D01*
X118645536Y-53855457D01*
X118408866Y-54013595D01*
X118207595Y-54214866D01*
X118060000Y-54435757D01*
X117912405Y-54214866D01*
X117711134Y-54013595D01*
X117474464Y-53855457D01*
X117211491Y-53746530D01*
X116932320Y-53691000D01*
X116647680Y-53691000D01*
X116368509Y-53746530D01*
X116105536Y-53855457D01*
X115868866Y-54013595D01*
X115667595Y-54214866D01*
X115520000Y-54435757D01*
X115372405Y-54214866D01*
X115171134Y-54013595D01*
X114934464Y-53855457D01*
X114671491Y-53746530D01*
X114392320Y-53691000D01*
X114107680Y-53691000D01*
X113828509Y-53746530D01*
X113565536Y-53855457D01*
X113328866Y-54013595D01*
X113127595Y-54214866D01*
X112969457Y-54451536D01*
X112860530Y-54714509D01*
X112805000Y-54993680D01*
X112805000Y-55278320D01*
X112860530Y-55557491D01*
X112969457Y-55820464D01*
X113127595Y-56057134D01*
X113328866Y-56258405D01*
X113549757Y-56406000D01*
X113328866Y-56553595D01*
X113127595Y-56754866D01*
X112969457Y-56991536D01*
X112860530Y-57254509D01*
X112805000Y-57533680D01*
X112805000Y-57818320D01*
X112860530Y-58097491D01*
X112969457Y-58360464D01*
X113127595Y-58597134D01*
X113144030Y-58613569D01*
X110777198Y-60980401D01*
X110748200Y-61004199D01*
X110724402Y-61033197D01*
X110724401Y-61033198D01*
X110653226Y-61119924D01*
X110582654Y-61251954D01*
X110555781Y-61340547D01*
X110539198Y-61395214D01*
X110537476Y-61412699D01*
X110524524Y-61544200D01*
X110528201Y-61581532D01*
X110528200Y-72020298D01*
X109798072Y-72750426D01*
X109798072Y-72150000D01*
X109781008Y-71976746D01*
X109730472Y-71810150D01*
X109648405Y-71656614D01*
X109537962Y-71522038D01*
X109403386Y-71411595D01*
X109249850Y-71329528D01*
X109083254Y-71278992D01*
X108910000Y-71261928D01*
X106410000Y-71261928D01*
X106236746Y-71278992D01*
X106070150Y-71329528D01*
X105916614Y-71411595D01*
X105782038Y-71522038D01*
X105671595Y-71656614D01*
X105589528Y-71810150D01*
X105538992Y-71976746D01*
X105521928Y-72150000D01*
X103010000Y-72150000D01*
X103010000Y-62846000D01*
X104694877Y-62846000D01*
X104725576Y-62842976D01*
X104734820Y-62843041D01*
X104744686Y-62842074D01*
X105035831Y-62811474D01*
X105098868Y-62798534D01*
X105162080Y-62786476D01*
X105171570Y-62783611D01*
X105451226Y-62697043D01*
X105510521Y-62672117D01*
X105570215Y-62647999D01*
X105578967Y-62643345D01*
X105836483Y-62504106D01*
X105889825Y-62468127D01*
X105943678Y-62432886D01*
X105951360Y-62426621D01*
X106176927Y-62240016D01*
X106222246Y-62194379D01*
X106268248Y-62149331D01*
X106274566Y-62141692D01*
X106459592Y-61914828D01*
X106495177Y-61861268D01*
X106531560Y-61808132D01*
X106536275Y-61799412D01*
X106673712Y-61540931D01*
X106698225Y-61481456D01*
X106723584Y-61422289D01*
X106726516Y-61412819D01*
X106811130Y-61132565D01*
X106823622Y-61069475D01*
X106837009Y-61006494D01*
X106838045Y-60996635D01*
X106866612Y-60705283D01*
X106866612Y-60705277D01*
X106870000Y-60670877D01*
X106870000Y-57605608D01*
X106958678Y-57516930D01*
X107264859Y-57960503D01*
X107852306Y-58275954D01*
X108490008Y-58470740D01*
X109153457Y-58537372D01*
X109817158Y-58473292D01*
X110455605Y-58280962D01*
X111044262Y-57967772D01*
X111055141Y-57960503D01*
X111361323Y-57516928D01*
X109160000Y-55315605D01*
X109145858Y-55329748D01*
X108966253Y-55150143D01*
X108980395Y-55136000D01*
X108966253Y-55121858D01*
X109145858Y-54942253D01*
X109160000Y-54956395D01*
X109174143Y-54942253D01*
X109353748Y-55121858D01*
X109339605Y-55136000D01*
X111540928Y-57337323D01*
X111984503Y-57031141D01*
X112299954Y-56443694D01*
X112494740Y-55805992D01*
X112561372Y-55142543D01*
X112497292Y-54478842D01*
X112304962Y-53840395D01*
X111991772Y-53251738D01*
X111984503Y-53240859D01*
X111540930Y-52934678D01*
X111629608Y-52846000D01*
X180370392Y-52846000D01*
X180459070Y-52934678D01*
G37*
X180459070Y-52934678D02*
X180015497Y-53240859D01*
X179700046Y-53828306D01*
X179505260Y-54466008D01*
X179438628Y-55129457D01*
X179502708Y-55793158D01*
X179695038Y-56431605D01*
X180008228Y-57020262D01*
X180015497Y-57031141D01*
X180459072Y-57337323D01*
X182660395Y-55136000D01*
X182646253Y-55121858D01*
X182825858Y-54942253D01*
X182840000Y-54956395D01*
X182854143Y-54942253D01*
X183033748Y-55121858D01*
X183019605Y-55136000D01*
X183033748Y-55150143D01*
X182854143Y-55329748D01*
X182840000Y-55315605D01*
X180638677Y-57516928D01*
X180944859Y-57960503D01*
X181532306Y-58275954D01*
X182170008Y-58470740D01*
X182833457Y-58537372D01*
X183497158Y-58473292D01*
X184135605Y-58280962D01*
X184724262Y-57967772D01*
X184735141Y-57960503D01*
X185041322Y-57516930D01*
X185130000Y-57605608D01*
X185130000Y-60670876D01*
X185133024Y-60701575D01*
X185132959Y-60710820D01*
X185133926Y-60720686D01*
X185164526Y-61011831D01*
X185177466Y-61074868D01*
X185189524Y-61138080D01*
X185192389Y-61147570D01*
X185278957Y-61427226D01*
X185303883Y-61486521D01*
X185328001Y-61546215D01*
X185332655Y-61554967D01*
X185471894Y-61812483D01*
X185507873Y-61865825D01*
X185543114Y-61919678D01*
X185549379Y-61927360D01*
X185735984Y-62152927D01*
X185781621Y-62198246D01*
X185826669Y-62244248D01*
X185834308Y-62250566D01*
X186061172Y-62435592D01*
X186114732Y-62471177D01*
X186167868Y-62507560D01*
X186176588Y-62512275D01*
X186435069Y-62649712D01*
X186494544Y-62674225D01*
X186553711Y-62699584D01*
X186563181Y-62702516D01*
X186843435Y-62787130D01*
X186906525Y-62799622D01*
X186969506Y-62813009D01*
X186979365Y-62814045D01*
X187270717Y-62842612D01*
X187270723Y-62842612D01*
X187305123Y-62846000D01*
X187690001Y-62846000D01*
X187690001Y-97773000D01*
X103010000Y-97773000D01*
X103010000Y-92250000D01*
X105521928Y-92250000D01*
X105521928Y-93850000D01*
X105538992Y-94023254D01*
X105589528Y-94189850D01*
X105671595Y-94343386D01*
X105782038Y-94477962D01*
X105916614Y-94588405D01*
X106070150Y-94670472D01*
X106236746Y-94721008D01*
X106410000Y-94738072D01*
X108910000Y-94738072D01*
X109083254Y-94721008D01*
X109249850Y-94670472D01*
X109403386Y-94588405D01*
X109537962Y-94477962D01*
X109648405Y-94343386D01*
X109730472Y-94189850D01*
X109781008Y-94023254D01*
X109798072Y-93850000D01*
X109798072Y-92250000D01*
X109781008Y-92076746D01*
X109730472Y-91910150D01*
X109648405Y-91756614D01*
X109537962Y-91622038D01*
X109403386Y-91511595D01*
X109249850Y-91429528D01*
X109083254Y-91378992D01*
X108910000Y-91361928D01*
X106410000Y-91361928D01*
X106236746Y-91378992D01*
X106070150Y-91429528D01*
X105916614Y-91511595D01*
X105782038Y-91622038D01*
X105671595Y-91756614D01*
X105589528Y-91910150D01*
X105538992Y-92076746D01*
X105521928Y-92250000D01*
X103010000Y-92250000D01*
X103010000Y-72150000D01*
X105521928Y-72150000D01*
X105521928Y-73750000D01*
X105538992Y-73923254D01*
X105589528Y-74089850D01*
X105671595Y-74243386D01*
X105782038Y-74377962D01*
X105916614Y-74488405D01*
X106070150Y-74570472D01*
X106236746Y-74621008D01*
X106410000Y-74638072D01*
X108186368Y-74638072D01*
X108182524Y-74677100D01*
X108186201Y-74714432D01*
X108186200Y-77928077D01*
X108182524Y-77965400D01*
X108186200Y-78002722D01*
X108186200Y-78002732D01*
X108197197Y-78114385D01*
X108234872Y-78238585D01*
X108240654Y-78257646D01*
X108311226Y-78389676D01*
X108327187Y-78409124D01*
X108406199Y-78505401D01*
X108435203Y-78529204D01*
X109121928Y-79215930D01*
X109121928Y-79450000D01*
X109138031Y-79613500D01*
X109185722Y-79770716D01*
X109241463Y-79875000D01*
X109185722Y-79979284D01*
X109138031Y-80136500D01*
X109121928Y-80300000D01*
X109121928Y-80700000D01*
X109138031Y-80863500D01*
X109185722Y-81020716D01*
X109241463Y-81125000D01*
X109185722Y-81229284D01*
X109138031Y-81386500D01*
X109121928Y-81550000D01*
X109121928Y-81950000D01*
X109138031Y-82113500D01*
X109185722Y-82270716D01*
X109241463Y-82375000D01*
X109185722Y-82479284D01*
X109138031Y-82636500D01*
X109121928Y-82800000D01*
X109121928Y-83200000D01*
X109138031Y-83363500D01*
X109185722Y-83520716D01*
X109241463Y-83625000D01*
X109185722Y-83729284D01*
X109138031Y-83886500D01*
X109121928Y-84050000D01*
X109121928Y-84450000D01*
X109138031Y-84613500D01*
X109185722Y-84770716D01*
X109241463Y-84875000D01*
X109185722Y-84979284D01*
X109138031Y-85136500D01*
X109121928Y-85300000D01*
X109121928Y-85700000D01*
X109138031Y-85863500D01*
X109185722Y-86020716D01*
X109241463Y-86125000D01*
X109185722Y-86229284D01*
X109138031Y-86386500D01*
X109121928Y-86550000D01*
X109121928Y-86950000D01*
X109138031Y-87113500D01*
X109185722Y-87270716D01*
X109241463Y-87375000D01*
X109185722Y-87479284D01*
X109138031Y-87636500D01*
X109121928Y-87800000D01*
X109121928Y-88200000D01*
X109138031Y-88363500D01*
X109185722Y-88520716D01*
X109241463Y-88625000D01*
X109185722Y-88729284D01*
X109138031Y-88886500D01*
X109121928Y-89050000D01*
X109121928Y-89450000D01*
X109138031Y-89613500D01*
X109185722Y-89770716D01*
X109241463Y-89875000D01*
X109185722Y-89979284D01*
X109138031Y-90136500D01*
X109121928Y-90300000D01*
X109121928Y-90700000D01*
X109138031Y-90863500D01*
X109185722Y-91020716D01*
X109263169Y-91165608D01*
X109367394Y-91292606D01*
X109494392Y-91396831D01*
X109639284Y-91474278D01*
X109796500Y-91521969D01*
X109960000Y-91538072D01*
X110373270Y-91538072D01*
X110588701Y-91753502D01*
X110612499Y-91782501D01*
X110641497Y-91806299D01*
X110728224Y-91877474D01*
X110860253Y-91948046D01*
X111003514Y-91991503D01*
X111152500Y-92006177D01*
X111189833Y-92002500D01*
X116086514Y-92002500D01*
X116063992Y-92076746D01*
X116046928Y-92250000D01*
X116046928Y-93850000D01*
X116063992Y-94023254D01*
X116114528Y-94189850D01*
X116196595Y-94343386D01*
X116307038Y-94477962D01*
X116441614Y-94588405D01*
X116595150Y-94670472D01*
X116761746Y-94721008D01*
X116935000Y-94738072D01*
X119435000Y-94738072D01*
X119608254Y-94721008D01*
X119774850Y-94670472D01*
X119928386Y-94588405D01*
X120062962Y-94477962D01*
X120173405Y-94343386D01*
X120255472Y-94189850D01*
X120306008Y-94023254D01*
X120323072Y-93850000D01*
X120323072Y-92250000D01*
X126570928Y-92250000D01*
X126570928Y-93850000D01*
X126587992Y-94023254D01*
X126638528Y-94189850D01*
X126720595Y-94343386D01*
X126831038Y-94477962D01*
X126965614Y-94588405D01*
X127119150Y-94670472D01*
X127285746Y-94721008D01*
X127459000Y-94738072D01*
X129959000Y-94738072D01*
X130132254Y-94721008D01*
X130298850Y-94670472D01*
X130452386Y-94588405D01*
X130586962Y-94477962D01*
X130697405Y-94343386D01*
X130779472Y-94189850D01*
X130830008Y-94023254D01*
X130847072Y-93850000D01*
X130847072Y-92250000D01*
X137095928Y-92250000D01*
X137095928Y-93850000D01*
X137112992Y-94023254D01*
X137163528Y-94189850D01*
X137245595Y-94343386D01*
X137356038Y-94477962D01*
X137490614Y-94588405D01*
X137644150Y-94670472D01*
X137810746Y-94721008D01*
X137984000Y-94738072D01*
X140484000Y-94738072D01*
X140657254Y-94721008D01*
X140823850Y-94670472D01*
X140977386Y-94588405D01*
X141111962Y-94477962D01*
X141222405Y-94343386D01*
X141304472Y-94189850D01*
X141355008Y-94023254D01*
X141372072Y-93850000D01*
X141372072Y-92250000D01*
X150619928Y-92250000D01*
X150619928Y-93850000D01*
X150636992Y-94023254D01*
X150687528Y-94189850D01*
X150769595Y-94343386D01*
X150880038Y-94477962D01*
X151014614Y-94588405D01*
X151168150Y-94670472D01*
X151334746Y-94721008D01*
X151508000Y-94738072D01*
X154008000Y-94738072D01*
X154181254Y-94721008D01*
X154347850Y-94670472D01*
X154501386Y-94588405D01*
X154635962Y-94477962D01*
X154746405Y-94343386D01*
X154828472Y-94189850D01*
X154879008Y-94023254D01*
X154896072Y-93850000D01*
X154896072Y-92250000D01*
X161144928Y-92250000D01*
X161144928Y-93850000D01*
X161161992Y-94023254D01*
X161212528Y-94189850D01*
X161294595Y-94343386D01*
X161405038Y-94477962D01*
X161539614Y-94588405D01*
X161693150Y-94670472D01*
X161859746Y-94721008D01*
X162033000Y-94738072D01*
X164533000Y-94738072D01*
X164706254Y-94721008D01*
X164872850Y-94670472D01*
X165026386Y-94588405D01*
X165160962Y-94477962D01*
X165271405Y-94343386D01*
X165353472Y-94189850D01*
X165404008Y-94023254D01*
X165421072Y-93850000D01*
X165421072Y-92250000D01*
X171669928Y-92250000D01*
X171669928Y-93850000D01*
X171686992Y-94023254D01*
X171737528Y-94189850D01*
X171819595Y-94343386D01*
X171930038Y-94477962D01*
X172064614Y-94588405D01*
X172218150Y-94670472D01*
X172384746Y-94721008D01*
X172558000Y-94738072D01*
X175058000Y-94738072D01*
X175231254Y-94721008D01*
X175397850Y-94670472D01*
X175551386Y-94588405D01*
X175685962Y-94477962D01*
X175796405Y-94343386D01*
X175878472Y-94189850D01*
X175929008Y-94023254D01*
X175946072Y-93850000D01*
X175946072Y-92250000D01*
X182193928Y-92250000D01*
X182193928Y-93850000D01*
X182210992Y-94023254D01*
X182261528Y-94189850D01*
X182343595Y-94343386D01*
X182454038Y-94477962D01*
X182588614Y-94588405D01*
X182742150Y-94670472D01*
X182908746Y-94721008D01*
X183082000Y-94738072D01*
X185582000Y-94738072D01*
X185755254Y-94721008D01*
X185921850Y-94670472D01*
X186075386Y-94588405D01*
X186209962Y-94477962D01*
X186320405Y-94343386D01*
X186402472Y-94189850D01*
X186453008Y-94023254D01*
X186470072Y-93850000D01*
X186470072Y-92250000D01*
X186453008Y-92076746D01*
X186402472Y-91910150D01*
X186320405Y-91756614D01*
X186209962Y-91622038D01*
X186075386Y-91511595D01*
X185921850Y-91429528D01*
X185755254Y-91378992D01*
X185582000Y-91361928D01*
X183082000Y-91361928D01*
X182908746Y-91378992D01*
X182742150Y-91429528D01*
X182588614Y-91511595D01*
X182454038Y-91622038D01*
X182343595Y-91756614D01*
X182261528Y-91910150D01*
X182210992Y-92076746D01*
X182193928Y-92250000D01*
X175946072Y-92250000D01*
X175929008Y-92076746D01*
X175878472Y-91910150D01*
X175796405Y-91756614D01*
X175685962Y-91622038D01*
X175551386Y-91511595D01*
X175397850Y-91429528D01*
X175231254Y-91378992D01*
X175058000Y-91361928D01*
X172558000Y-91361928D01*
X172384746Y-91378992D01*
X172218150Y-91429528D01*
X172064614Y-91511595D01*
X171930038Y-91622038D01*
X171819595Y-91756614D01*
X171737528Y-91910150D01*
X171686992Y-92076746D01*
X171669928Y-92250000D01*
X165421072Y-92250000D01*
X165404008Y-92076746D01*
X165353472Y-91910150D01*
X165271405Y-91756614D01*
X165160962Y-91622038D01*
X165026386Y-91511595D01*
X164872850Y-91429528D01*
X164706254Y-91378992D01*
X164533000Y-91361928D01*
X162033000Y-91361928D01*
X161859746Y-91378992D01*
X161693150Y-91429528D01*
X161539614Y-91511595D01*
X161405038Y-91622038D01*
X161294595Y-91756614D01*
X161212528Y-91910150D01*
X161161992Y-92076746D01*
X161144928Y-92250000D01*
X154896072Y-92250000D01*
X154879008Y-92076746D01*
X154828472Y-91910150D01*
X154746405Y-91756614D01*
X154635962Y-91622038D01*
X154501386Y-91511595D01*
X154347850Y-91429528D01*
X154181254Y-91378992D01*
X154008000Y-91361928D01*
X151508000Y-91361928D01*
X151334746Y-91378992D01*
X151168150Y-91429528D01*
X151014614Y-91511595D01*
X150880038Y-91622038D01*
X150769595Y-91756614D01*
X150687528Y-91910150D01*
X150636992Y-92076746D01*
X150619928Y-92250000D01*
X141372072Y-92250000D01*
X141355008Y-92076746D01*
X141304472Y-91910150D01*
X141222405Y-91756614D01*
X141111962Y-91622038D01*
X140977386Y-91511595D01*
X140823850Y-91429528D01*
X140657254Y-91378992D01*
X140484000Y-91361928D01*
X137984000Y-91361928D01*
X137810746Y-91378992D01*
X137644150Y-91429528D01*
X137490614Y-91511595D01*
X137356038Y-91622038D01*
X137245595Y-91756614D01*
X137163528Y-91910150D01*
X137112992Y-92076746D01*
X137095928Y-92250000D01*
X130847072Y-92250000D01*
X130830008Y-92076746D01*
X130779472Y-91910150D01*
X130697405Y-91756614D01*
X130586962Y-91622038D01*
X130452386Y-91511595D01*
X130298850Y-91429528D01*
X130132254Y-91378992D01*
X129959000Y-91361928D01*
X127459000Y-91361928D01*
X127285746Y-91378992D01*
X127119150Y-91429528D01*
X126965614Y-91511595D01*
X126831038Y-91622038D01*
X126720595Y-91756614D01*
X126638528Y-91910150D01*
X126587992Y-92076746D01*
X126570928Y-92250000D01*
X120323072Y-92250000D01*
X120306008Y-92076746D01*
X120283486Y-92002500D01*
X122720878Y-92002500D01*
X122758200Y-92006176D01*
X122795522Y-92002500D01*
X122795533Y-92002500D01*
X122907186Y-91991503D01*
X123050447Y-91948046D01*
X123182476Y-91877474D01*
X123298201Y-91782501D01*
X123322004Y-91753497D01*
X127269009Y-87806494D01*
X127298001Y-87782701D01*
X127321795Y-87753708D01*
X127321799Y-87753704D01*
X127391267Y-87669056D01*
X127392974Y-87666976D01*
X127463546Y-87534947D01*
X127507003Y-87391686D01*
X127518000Y-87280033D01*
X127518000Y-87280024D01*
X127521676Y-87242701D01*
X127518000Y-87205378D01*
X127518000Y-74638072D01*
X129959000Y-74638072D01*
X130076300Y-74626519D01*
X130076300Y-74839978D01*
X130072624Y-74877300D01*
X130076300Y-74914622D01*
X130076300Y-74914632D01*
X130087297Y-75026285D01*
X130121875Y-75140276D01*
X130130754Y-75169546D01*
X130175527Y-75253309D01*
X130170928Y-75300000D01*
X130170928Y-75700000D01*
X130187031Y-75863500D01*
X130234722Y-76020716D01*
X130290463Y-76125000D01*
X130234722Y-76229284D01*
X130187031Y-76386500D01*
X130170928Y-76550000D01*
X130170928Y-76950000D01*
X130187031Y-77113500D01*
X130234722Y-77270716D01*
X130290463Y-77375000D01*
X130234722Y-77479284D01*
X130187031Y-77636500D01*
X130170928Y-77800000D01*
X130170928Y-78200000D01*
X130187031Y-78363500D01*
X130234722Y-78520716D01*
X130290463Y-78625000D01*
X130234722Y-78729284D01*
X130187031Y-78886500D01*
X130170928Y-79050000D01*
X130170928Y-79450000D01*
X130187031Y-79613500D01*
X130234722Y-79770716D01*
X130290463Y-79875000D01*
X130234722Y-79979284D01*
X130187031Y-80136500D01*
X130170928Y-80300000D01*
X130170928Y-80700000D01*
X130187031Y-80863500D01*
X130234722Y-81020716D01*
X130290463Y-81125000D01*
X130234722Y-81229284D01*
X130187031Y-81386500D01*
X130170928Y-81550000D01*
X130170928Y-81950000D01*
X130187031Y-82113500D01*
X130234722Y-82270716D01*
X130290463Y-82375000D01*
X130234722Y-82479284D01*
X130187031Y-82636500D01*
X130170928Y-82800000D01*
X130170928Y-83200000D01*
X130187031Y-83363500D01*
X130234722Y-83520716D01*
X130290463Y-83625000D01*
X130234722Y-83729284D01*
X130187031Y-83886500D01*
X130170928Y-84050000D01*
X130170928Y-84450000D01*
X130187031Y-84613500D01*
X130234722Y-84770716D01*
X130290463Y-84875000D01*
X130234722Y-84979284D01*
X130187031Y-85136500D01*
X130170928Y-85300000D01*
X130170928Y-85700000D01*
X130187031Y-85863500D01*
X130234722Y-86020716D01*
X130290463Y-86125000D01*
X130234722Y-86229284D01*
X130187031Y-86386500D01*
X130170928Y-86550000D01*
X130170928Y-86950000D01*
X130187031Y-87113500D01*
X130234722Y-87270716D01*
X130290463Y-87375000D01*
X130234722Y-87479284D01*
X130187031Y-87636500D01*
X130170928Y-87800000D01*
X130170928Y-88200000D01*
X130187031Y-88363500D01*
X130234722Y-88520716D01*
X130290463Y-88625000D01*
X130234722Y-88729284D01*
X130187031Y-88886500D01*
X130170928Y-89050000D01*
X130170928Y-89450000D01*
X130187031Y-89613500D01*
X130234722Y-89770716D01*
X130290463Y-89875000D01*
X130234722Y-89979284D01*
X130187031Y-90136500D01*
X130170928Y-90300000D01*
X130170928Y-90700000D01*
X130187031Y-90863500D01*
X130234722Y-91020716D01*
X130312169Y-91165608D01*
X130416394Y-91292606D01*
X130543392Y-91396831D01*
X130688284Y-91474278D01*
X130845500Y-91521969D01*
X131009000Y-91538072D01*
X131909000Y-91538072D01*
X132072500Y-91521969D01*
X132175817Y-91490628D01*
X132186326Y-91501137D01*
X132355844Y-91614405D01*
X132544202Y-91692426D01*
X132744161Y-91732200D01*
X132948039Y-91732200D01*
X133147998Y-91692426D01*
X133336356Y-91614405D01*
X133505874Y-91501137D01*
X133650037Y-91356974D01*
X133763305Y-91187456D01*
X133841326Y-90999098D01*
X133881100Y-90799139D01*
X133881100Y-90595261D01*
X133841326Y-90395302D01*
X133763305Y-90206944D01*
X133650037Y-90037426D01*
X133622611Y-90010000D01*
X134458799Y-90010000D01*
X134732000Y-90283201D01*
X134732000Y-90345339D01*
X134771774Y-90545298D01*
X134849795Y-90733656D01*
X134963063Y-90903174D01*
X135107226Y-91047337D01*
X135276744Y-91160605D01*
X135465102Y-91238626D01*
X135665061Y-91278400D01*
X135868939Y-91278400D01*
X136068898Y-91238626D01*
X136257256Y-91160605D01*
X136426774Y-91047337D01*
X136570937Y-90903174D01*
X136684205Y-90733656D01*
X136762226Y-90545298D01*
X136802000Y-90345339D01*
X136802000Y-90141461D01*
X136762226Y-89941502D01*
X136684205Y-89753144D01*
X136570937Y-89583626D01*
X136426774Y-89439463D01*
X136257256Y-89326195D01*
X136068898Y-89248174D01*
X135868939Y-89208400D01*
X135806801Y-89208400D01*
X135337404Y-88739002D01*
X135313601Y-88709999D01*
X135197876Y-88615026D01*
X135065847Y-88544454D01*
X134922586Y-88500997D01*
X134810933Y-88490000D01*
X134810922Y-88490000D01*
X134773600Y-88486324D01*
X134736278Y-88490000D01*
X133287501Y-88490000D01*
X133351101Y-88426400D01*
X133413239Y-88426400D01*
X133613198Y-88386626D01*
X133801556Y-88308605D01*
X133971074Y-88195337D01*
X134115237Y-88051174D01*
X134228505Y-87881656D01*
X134306526Y-87693298D01*
X134346300Y-87493339D01*
X134346300Y-87289461D01*
X134306526Y-87089502D01*
X134228505Y-86901144D01*
X134115237Y-86731626D01*
X134047043Y-86663432D01*
X134083800Y-86478639D01*
X134083800Y-86274761D01*
X134044026Y-86074802D01*
X133966005Y-85886444D01*
X133852737Y-85716926D01*
X133829166Y-85693355D01*
X133841326Y-85663998D01*
X133881100Y-85464039D01*
X133881100Y-85260161D01*
X133841326Y-85060202D01*
X133763305Y-84871844D01*
X133650037Y-84702326D01*
X133505874Y-84558163D01*
X133336356Y-84444895D01*
X133147998Y-84366874D01*
X132948039Y-84327100D01*
X132747072Y-84327100D01*
X132747072Y-84302329D01*
X132771002Y-84278400D01*
X132833139Y-84278400D01*
X133033098Y-84238626D01*
X133221456Y-84160605D01*
X133390974Y-84047337D01*
X133535137Y-83903174D01*
X133648405Y-83733656D01*
X133726426Y-83545298D01*
X133766200Y-83345339D01*
X133766200Y-83141461D01*
X133726426Y-82941502D01*
X133648405Y-82753144D01*
X133535137Y-82583626D01*
X133487606Y-82536095D01*
X134276802Y-81746900D01*
X134372239Y-81746900D01*
X134572198Y-81707126D01*
X134760556Y-81629105D01*
X134930074Y-81515837D01*
X135074237Y-81371674D01*
X135187505Y-81202156D01*
X135265526Y-81013798D01*
X135305300Y-80813839D01*
X135305300Y-80609961D01*
X135265526Y-80410002D01*
X135187505Y-80221644D01*
X135074237Y-80052126D01*
X134930074Y-79907963D01*
X134760556Y-79794695D01*
X134572198Y-79716674D01*
X134372239Y-79676900D01*
X134168361Y-79676900D01*
X133968402Y-79716674D01*
X133780044Y-79794695D01*
X133610526Y-79907963D01*
X133466363Y-80052126D01*
X133356355Y-80216765D01*
X133309856Y-80185695D01*
X133155884Y-80121917D01*
X133385322Y-79892480D01*
X133520456Y-79836505D01*
X133689974Y-79723237D01*
X133834137Y-79579074D01*
X133947405Y-79409556D01*
X134025426Y-79221198D01*
X134065200Y-79021239D01*
X134065200Y-78817361D01*
X134025426Y-78617402D01*
X133947405Y-78429044D01*
X133834137Y-78259526D01*
X133750706Y-78176095D01*
X135030403Y-76896399D01*
X135059401Y-76872601D01*
X135154374Y-76756876D01*
X135224946Y-76624847D01*
X135268403Y-76481586D01*
X135279400Y-76369933D01*
X135279400Y-76369925D01*
X135283076Y-76332600D01*
X135279400Y-76295275D01*
X135279400Y-71134901D01*
X136576648Y-72432150D01*
X136547239Y-72426300D01*
X136343361Y-72426300D01*
X136143402Y-72466074D01*
X135955044Y-72544095D01*
X135785526Y-72657363D01*
X135641363Y-72801526D01*
X135528095Y-72971044D01*
X135450074Y-73159402D01*
X135410300Y-73359361D01*
X135410300Y-73563239D01*
X135450074Y-73763198D01*
X135528095Y-73951556D01*
X135641363Y-74121074D01*
X135736105Y-74215816D01*
X135739754Y-74227846D01*
X135810326Y-74359876D01*
X135841626Y-74398015D01*
X135905299Y-74475601D01*
X135934301Y-74499402D01*
X138344504Y-76909605D01*
X138313144Y-76922595D01*
X138143626Y-77035863D01*
X137999463Y-77180026D01*
X137886195Y-77349544D01*
X137808174Y-77537902D01*
X137768400Y-77737861D01*
X137768400Y-77941739D01*
X137808174Y-78141698D01*
X137886195Y-78330056D01*
X137999463Y-78499574D01*
X138143626Y-78643737D01*
X138313144Y-78757005D01*
X138501502Y-78835026D01*
X138701461Y-78874800D01*
X138905339Y-78874800D01*
X139075877Y-78840878D01*
X139150744Y-78915745D01*
X139103163Y-78963326D01*
X138989895Y-79132844D01*
X138911874Y-79321202D01*
X138872100Y-79521161D01*
X138872100Y-79725039D01*
X138911874Y-79924998D01*
X138989895Y-80113356D01*
X139103163Y-80282874D01*
X139247326Y-80427037D01*
X139416844Y-80540305D01*
X139482841Y-80567642D01*
X140695928Y-81780730D01*
X140695928Y-81950000D01*
X140712031Y-82113500D01*
X140759722Y-82270716D01*
X140815463Y-82375000D01*
X140759722Y-82479284D01*
X140712031Y-82636500D01*
X140710613Y-82650900D01*
X140525661Y-82650900D01*
X140325702Y-82690674D01*
X140137344Y-82768695D01*
X139967826Y-82881963D01*
X139823663Y-83026126D01*
X139710395Y-83195644D01*
X139632374Y-83384002D01*
X139592600Y-83583961D01*
X139592600Y-83787839D01*
X139632374Y-83987798D01*
X139710395Y-84176156D01*
X139823663Y-84345674D01*
X139864073Y-84386084D01*
X139863924Y-84387600D01*
X139867600Y-84424922D01*
X139867600Y-84424932D01*
X139878597Y-84536585D01*
X139909708Y-84639146D01*
X139922054Y-84679846D01*
X139992626Y-84811876D01*
X140011105Y-84834392D01*
X140087599Y-84927601D01*
X140116602Y-84951404D01*
X140695928Y-85530730D01*
X140695928Y-85700000D01*
X140712031Y-85863500D01*
X140759722Y-86020716D01*
X140815463Y-86125000D01*
X140759722Y-86229284D01*
X140712031Y-86386500D01*
X140695928Y-86550000D01*
X140695928Y-86950000D01*
X140712031Y-87113500D01*
X140759722Y-87270716D01*
X140815463Y-87375000D01*
X140759722Y-87479284D01*
X140712031Y-87636500D01*
X140695928Y-87800000D01*
X140695928Y-88200000D01*
X140712031Y-88363500D01*
X140759722Y-88520716D01*
X140815463Y-88625000D01*
X140759722Y-88729284D01*
X140712031Y-88886500D01*
X140695928Y-89050000D01*
X140695928Y-89450000D01*
X140712031Y-89613500D01*
X140759722Y-89770716D01*
X140815463Y-89875000D01*
X140759722Y-89979284D01*
X140712031Y-90136500D01*
X140695928Y-90300000D01*
X140695928Y-90700000D01*
X140712031Y-90863500D01*
X140759722Y-91020716D01*
X140837169Y-91165608D01*
X140941394Y-91292606D01*
X141068392Y-91396831D01*
X141213284Y-91474278D01*
X141370500Y-91521969D01*
X141534000Y-91538072D01*
X142434000Y-91538072D01*
X142597500Y-91521969D01*
X142754716Y-91474278D01*
X142899608Y-91396831D01*
X143026606Y-91292606D01*
X143130831Y-91165608D01*
X143208278Y-91020716D01*
X143255969Y-90863500D01*
X143272072Y-90700000D01*
X143272072Y-90435029D01*
X146431604Y-87275498D01*
X146460601Y-87251701D01*
X146510000Y-87191508D01*
X146510000Y-87922678D01*
X146506324Y-87960000D01*
X146510000Y-87997322D01*
X146510000Y-87997332D01*
X146520997Y-88108985D01*
X146557109Y-88228031D01*
X146564454Y-88252246D01*
X146635026Y-88384276D01*
X146636955Y-88386626D01*
X146729999Y-88500001D01*
X146759003Y-88523804D01*
X148719928Y-90484731D01*
X148719928Y-90700000D01*
X148736031Y-90863500D01*
X148783722Y-91020716D01*
X148861169Y-91165608D01*
X148965394Y-91292606D01*
X149092392Y-91396831D01*
X149237284Y-91474278D01*
X149394500Y-91521969D01*
X149558000Y-91538072D01*
X150458000Y-91538072D01*
X150621500Y-91521969D01*
X150778716Y-91474278D01*
X150923608Y-91396831D01*
X151050606Y-91292606D01*
X151154831Y-91165608D01*
X151232278Y-91020716D01*
X151279969Y-90863500D01*
X151296072Y-90700000D01*
X151296072Y-90300000D01*
X151279969Y-90136500D01*
X151232278Y-89979284D01*
X151176537Y-89875000D01*
X151232278Y-89770716D01*
X151279969Y-89613500D01*
X151296072Y-89450000D01*
X151296072Y-89050000D01*
X151279969Y-88886500D01*
X151232278Y-88729284D01*
X151176537Y-88625000D01*
X151232278Y-88520716D01*
X151279969Y-88363500D01*
X151294713Y-88213800D01*
X151385839Y-88213800D01*
X151585798Y-88174026D01*
X151774156Y-88096005D01*
X151943674Y-87982737D01*
X152087837Y-87838574D01*
X152201105Y-87669056D01*
X152279126Y-87480698D01*
X152318900Y-87280739D01*
X152318900Y-87076861D01*
X152279126Y-86876902D01*
X152214829Y-86721676D01*
X152323156Y-86676805D01*
X152492674Y-86563537D01*
X152636837Y-86419374D01*
X152750105Y-86249856D01*
X152808171Y-86109673D01*
X156459500Y-89761002D01*
X156483299Y-89790001D01*
X156512297Y-89813799D01*
X156599023Y-89884974D01*
X156704779Y-89941502D01*
X156731053Y-89955546D01*
X156874314Y-89999003D01*
X156985967Y-90010000D01*
X156985976Y-90010000D01*
X157023299Y-90013676D01*
X157060622Y-90010000D01*
X157724189Y-90010000D01*
X157696763Y-90037426D01*
X157583495Y-90206944D01*
X157505474Y-90395302D01*
X157465700Y-90595261D01*
X157465700Y-90799139D01*
X157505474Y-90999098D01*
X157583495Y-91187456D01*
X157696763Y-91356974D01*
X157840926Y-91501137D01*
X158010444Y-91614405D01*
X158198802Y-91692426D01*
X158398761Y-91732200D01*
X158602639Y-91732200D01*
X158802598Y-91692426D01*
X158990956Y-91614405D01*
X159160474Y-91501137D01*
X159304637Y-91356974D01*
X159369433Y-91260000D01*
X159463635Y-91260000D01*
X159490394Y-91292606D01*
X159617392Y-91396831D01*
X159762284Y-91474278D01*
X159919500Y-91521969D01*
X160083000Y-91538072D01*
X160983000Y-91538072D01*
X161146500Y-91521969D01*
X161303716Y-91474278D01*
X161448608Y-91396831D01*
X161575606Y-91292606D01*
X161679831Y-91165608D01*
X161757278Y-91020716D01*
X161804969Y-90863500D01*
X161821072Y-90700000D01*
X161821072Y-90300000D01*
X161804969Y-90136500D01*
X161757278Y-89979284D01*
X161701537Y-89875000D01*
X161757278Y-89770716D01*
X161804969Y-89613500D01*
X161821072Y-89450000D01*
X161821072Y-89050000D01*
X161804969Y-88886500D01*
X161757278Y-88729284D01*
X161701537Y-88625000D01*
X161757278Y-88520716D01*
X161804969Y-88363500D01*
X161821072Y-88200000D01*
X161821072Y-87800000D01*
X161804969Y-87636500D01*
X161757278Y-87479284D01*
X161701537Y-87375000D01*
X161757278Y-87270716D01*
X161804969Y-87113500D01*
X161821072Y-86950000D01*
X161821072Y-86550000D01*
X161804969Y-86386500D01*
X161757278Y-86229284D01*
X161701537Y-86125000D01*
X161757278Y-86020716D01*
X161804969Y-85863500D01*
X161821072Y-85700000D01*
X161821072Y-85300000D01*
X161804969Y-85136500D01*
X161757278Y-84979284D01*
X161701537Y-84875000D01*
X161757278Y-84770716D01*
X161804969Y-84613500D01*
X161821072Y-84450000D01*
X161821072Y-84050000D01*
X161804969Y-83886500D01*
X161757278Y-83729284D01*
X161701537Y-83625000D01*
X161757278Y-83520716D01*
X161804969Y-83363500D01*
X161821072Y-83200000D01*
X161821072Y-82800000D01*
X161804969Y-82636500D01*
X161757278Y-82479284D01*
X161701537Y-82375000D01*
X161757278Y-82270716D01*
X161804969Y-82113500D01*
X161821072Y-81950000D01*
X161821072Y-81550000D01*
X161804969Y-81386500D01*
X161757278Y-81229284D01*
X161701537Y-81125000D01*
X161757278Y-81020716D01*
X161804969Y-80863500D01*
X161821072Y-80700000D01*
X161821072Y-80300000D01*
X161804969Y-80136500D01*
X161757278Y-79979284D01*
X161701537Y-79875000D01*
X161757278Y-79770716D01*
X161804969Y-79613500D01*
X161821072Y-79450000D01*
X161821072Y-79050000D01*
X161804969Y-78886500D01*
X161757278Y-78729284D01*
X161701537Y-78625000D01*
X161757278Y-78520716D01*
X161804969Y-78363500D01*
X161821072Y-78200000D01*
X161821072Y-77800000D01*
X161804969Y-77636500D01*
X161757278Y-77479284D01*
X161701537Y-77375000D01*
X161757278Y-77270716D01*
X161804969Y-77113500D01*
X161821072Y-76950000D01*
X161821072Y-76550000D01*
X161804969Y-76386500D01*
X161757278Y-76229284D01*
X161701537Y-76125000D01*
X161757278Y-76020716D01*
X161804969Y-75863500D01*
X161821072Y-75700000D01*
X161821072Y-75300000D01*
X161819910Y-75288198D01*
X161847201Y-75265801D01*
X161887168Y-75217101D01*
X161942174Y-75150077D01*
X162012746Y-75018047D01*
X162014702Y-75011600D01*
X162056203Y-74874786D01*
X162067200Y-74763133D01*
X162067200Y-74763124D01*
X162070876Y-74725801D01*
X162067200Y-74688478D01*
X162067200Y-74638072D01*
X164533000Y-74638072D01*
X164706254Y-74621008D01*
X164821401Y-74586079D01*
X164821400Y-83896278D01*
X164817724Y-83933600D01*
X164821400Y-83970922D01*
X164821400Y-83970932D01*
X164832397Y-84082585D01*
X164854841Y-84156574D01*
X164875854Y-84225846D01*
X164946426Y-84357876D01*
X164986271Y-84406426D01*
X165041399Y-84473601D01*
X165070403Y-84497404D01*
X169165311Y-88592312D01*
X169157144Y-88595695D01*
X168987626Y-88708963D01*
X168843463Y-88853126D01*
X168730195Y-89022644D01*
X168652174Y-89211002D01*
X168612400Y-89410961D01*
X168612400Y-89614839D01*
X168652174Y-89814798D01*
X168730195Y-90003156D01*
X168843463Y-90172674D01*
X168987626Y-90316837D01*
X169157144Y-90430105D01*
X169345502Y-90508126D01*
X169545461Y-90547900D01*
X169607598Y-90547900D01*
X169771046Y-90711347D01*
X169786031Y-90863500D01*
X169833722Y-91020716D01*
X169911169Y-91165608D01*
X170015394Y-91292606D01*
X170142392Y-91396831D01*
X170287284Y-91474278D01*
X170444500Y-91521969D01*
X170608000Y-91538072D01*
X171508000Y-91538072D01*
X171671500Y-91521969D01*
X171828716Y-91474278D01*
X171973608Y-91396831D01*
X172100606Y-91292606D01*
X172204831Y-91165608D01*
X172282278Y-91020716D01*
X172329969Y-90863500D01*
X172346072Y-90700000D01*
X172346072Y-90300000D01*
X172329969Y-90136500D01*
X172282278Y-89979284D01*
X172226537Y-89875000D01*
X172282278Y-89770716D01*
X172329969Y-89613500D01*
X172346072Y-89450000D01*
X172346072Y-89050000D01*
X172329969Y-88886500D01*
X172282278Y-88729284D01*
X172226537Y-88625000D01*
X172282278Y-88520716D01*
X172329969Y-88363500D01*
X172346072Y-88200000D01*
X172346072Y-87800000D01*
X172329969Y-87636500D01*
X172282278Y-87479284D01*
X172226537Y-87375000D01*
X172282278Y-87270716D01*
X172329969Y-87113500D01*
X172346072Y-86950000D01*
X172346072Y-86550000D01*
X172329969Y-86386500D01*
X172282278Y-86229284D01*
X172226537Y-86125000D01*
X172282278Y-86020716D01*
X172329969Y-85863500D01*
X172346072Y-85700000D01*
X172346072Y-85300000D01*
X172329969Y-85136500D01*
X172282278Y-84979284D01*
X172226537Y-84875000D01*
X172282278Y-84770716D01*
X172329969Y-84613500D01*
X172346072Y-84450000D01*
X172346072Y-84050000D01*
X172329969Y-83886500D01*
X172282278Y-83729284D01*
X172226537Y-83625000D01*
X172282278Y-83520716D01*
X172329969Y-83363500D01*
X172346072Y-83200000D01*
X172346072Y-82800000D01*
X172329969Y-82636500D01*
X172282278Y-82479284D01*
X172226537Y-82375000D01*
X172282278Y-82270716D01*
X172329969Y-82113500D01*
X172346072Y-81950000D01*
X172346072Y-81704929D01*
X173046204Y-81004798D01*
X173075201Y-80981001D01*
X173170174Y-80865276D01*
X173240746Y-80733247D01*
X173284203Y-80589986D01*
X173295200Y-80478333D01*
X173295200Y-80478332D01*
X173298877Y-80441000D01*
X173295200Y-80403667D01*
X173295200Y-79786311D01*
X173339137Y-79742374D01*
X173452405Y-79572856D01*
X173530426Y-79384498D01*
X173570200Y-79184539D01*
X173570200Y-78980661D01*
X173530426Y-78780702D01*
X173452405Y-78592344D01*
X173339137Y-78422826D01*
X173194974Y-78278663D01*
X173075275Y-78198683D01*
X173077076Y-78180400D01*
X173073400Y-78143077D01*
X173073400Y-77832611D01*
X173117337Y-77788674D01*
X173230605Y-77619156D01*
X173308626Y-77430798D01*
X173348400Y-77230839D01*
X173348400Y-77026961D01*
X173311689Y-76842400D01*
X173339339Y-76842400D01*
X173539298Y-76802626D01*
X173727656Y-76724605D01*
X173897174Y-76611337D01*
X174041337Y-76467174D01*
X174154605Y-76297656D01*
X174232626Y-76109298D01*
X174272400Y-75909339D01*
X174272400Y-75705461D01*
X174232626Y-75505502D01*
X174154605Y-75317144D01*
X174041337Y-75147626D01*
X173897174Y-75003463D01*
X173727656Y-74890195D01*
X173539298Y-74812174D01*
X173339339Y-74772400D01*
X173135461Y-74772400D01*
X172935502Y-74812174D01*
X172747144Y-74890195D01*
X172577626Y-75003463D01*
X172533689Y-75047400D01*
X172302941Y-75047400D01*
X172282278Y-74979284D01*
X172204831Y-74834392D01*
X172100606Y-74707394D01*
X171973608Y-74603169D01*
X171828716Y-74525722D01*
X171818000Y-74522471D01*
X171818000Y-74240402D01*
X171819595Y-74243386D01*
X171930038Y-74377962D01*
X172064614Y-74488405D01*
X172218150Y-74570472D01*
X172384746Y-74621008D01*
X172558000Y-74638072D01*
X175044600Y-74638072D01*
X175044600Y-78664678D01*
X175040924Y-78702000D01*
X175044600Y-78739322D01*
X175044600Y-78739332D01*
X175055597Y-78850985D01*
X175089675Y-78963326D01*
X175099054Y-78994246D01*
X175169626Y-79126276D01*
X175203949Y-79168098D01*
X175264599Y-79242001D01*
X175293603Y-79265804D01*
X177640994Y-81613195D01*
X177593363Y-81660826D01*
X177480095Y-81830344D01*
X177402074Y-82018702D01*
X177362300Y-82218661D01*
X177362300Y-82422539D01*
X177402074Y-82622498D01*
X177480095Y-82810856D01*
X177593363Y-82980374D01*
X177637301Y-83024312D01*
X177637300Y-84965377D01*
X177633624Y-85002700D01*
X177637300Y-85040022D01*
X177637300Y-85040032D01*
X177648297Y-85151685D01*
X177688615Y-85284598D01*
X177691754Y-85294946D01*
X177762326Y-85426976D01*
X177792743Y-85464039D01*
X177857299Y-85542701D01*
X177886303Y-85566504D01*
X178844199Y-86524400D01*
X178649161Y-86524400D01*
X178449202Y-86564174D01*
X178279061Y-86634649D01*
X178257105Y-86581644D01*
X178143837Y-86412126D01*
X177999674Y-86267963D01*
X177830156Y-86154695D01*
X177641798Y-86076674D01*
X177441839Y-86036900D01*
X177237961Y-86036900D01*
X177038002Y-86076674D01*
X176849644Y-86154695D01*
X176680126Y-86267963D01*
X176535963Y-86412126D01*
X176422695Y-86581644D01*
X176344674Y-86770002D01*
X176304900Y-86969961D01*
X176304900Y-87173839D01*
X176344674Y-87373798D01*
X176422695Y-87562156D01*
X176535963Y-87731674D01*
X176680126Y-87875837D01*
X176849644Y-87989105D01*
X177038002Y-88067126D01*
X177121667Y-88083768D01*
X180048900Y-91011002D01*
X180072699Y-91040001D01*
X180101697Y-91063799D01*
X180188423Y-91134974D01*
X180245735Y-91165608D01*
X180320453Y-91205546D01*
X180463714Y-91249003D01*
X180507118Y-91253278D01*
X180539394Y-91292606D01*
X180666392Y-91396831D01*
X180811284Y-91474278D01*
X180968500Y-91521969D01*
X181132000Y-91538072D01*
X182032000Y-91538072D01*
X182195500Y-91521969D01*
X182352716Y-91474278D01*
X182497608Y-91396831D01*
X182624606Y-91292606D01*
X182728831Y-91165608D01*
X182806278Y-91020716D01*
X182853969Y-90863500D01*
X182870072Y-90700000D01*
X182870072Y-90300000D01*
X182853969Y-90136500D01*
X182806278Y-89979284D01*
X182750537Y-89875000D01*
X182806278Y-89770716D01*
X182853969Y-89613500D01*
X182870072Y-89450000D01*
X182870072Y-89050000D01*
X182853969Y-88886500D01*
X182806278Y-88729284D01*
X182750537Y-88625000D01*
X182806278Y-88520716D01*
X182853969Y-88363500D01*
X182870072Y-88200000D01*
X182870072Y-87800000D01*
X182853969Y-87636500D01*
X182806278Y-87479284D01*
X182750537Y-87375000D01*
X182806278Y-87270716D01*
X182853969Y-87113500D01*
X182870072Y-86950000D01*
X182870072Y-86550000D01*
X182853969Y-86386500D01*
X182806278Y-86229284D01*
X182750537Y-86125000D01*
X182806278Y-86020716D01*
X182853969Y-85863500D01*
X182870072Y-85700000D01*
X182870072Y-85530930D01*
X183079504Y-85321498D01*
X183108501Y-85297701D01*
X183203474Y-85181976D01*
X183274046Y-85049947D01*
X183317503Y-84906686D01*
X183328500Y-84795033D01*
X183328500Y-84795025D01*
X183332176Y-84757700D01*
X183328500Y-84720375D01*
X183328500Y-74834522D01*
X183332176Y-74797199D01*
X183328500Y-74759877D01*
X183328500Y-74759867D01*
X183317503Y-74648214D01*
X183314427Y-74638072D01*
X185582000Y-74638072D01*
X185755254Y-74621008D01*
X185921850Y-74570472D01*
X186075386Y-74488405D01*
X186209962Y-74377962D01*
X186320405Y-74243386D01*
X186402472Y-74089850D01*
X186453008Y-73923254D01*
X186470072Y-73750000D01*
X186470072Y-72150000D01*
X186453008Y-71976746D01*
X186402472Y-71810150D01*
X186320405Y-71656614D01*
X186209962Y-71522038D01*
X186075386Y-71411595D01*
X185921850Y-71329528D01*
X185755254Y-71278992D01*
X185582000Y-71261928D01*
X183265600Y-71261928D01*
X183265600Y-63392022D01*
X183269276Y-63354699D01*
X183265600Y-63317376D01*
X183265600Y-63317367D01*
X183254603Y-63205714D01*
X183211146Y-63062453D01*
X183140574Y-62930424D01*
X183119935Y-62905275D01*
X183069399Y-62843696D01*
X183069395Y-62843692D01*
X183045601Y-62814699D01*
X183016608Y-62790905D01*
X178847620Y-58621919D01*
X178872405Y-58597134D01*
X179030543Y-58360464D01*
X179139470Y-58097491D01*
X179195000Y-57818320D01*
X179195000Y-57533680D01*
X179139470Y-57254509D01*
X179030543Y-56991536D01*
X178872405Y-56754866D01*
X178671134Y-56553595D01*
X178450243Y-56406000D01*
X178671134Y-56258405D01*
X178872405Y-56057134D01*
X179030543Y-55820464D01*
X179139470Y-55557491D01*
X179195000Y-55278320D01*
X179195000Y-54993680D01*
X179139470Y-54714509D01*
X179030543Y-54451536D01*
X178872405Y-54214866D01*
X178671134Y-54013595D01*
X178434464Y-53855457D01*
X178171491Y-53746530D01*
X177892320Y-53691000D01*
X177607680Y-53691000D01*
X177328509Y-53746530D01*
X177065536Y-53855457D01*
X176828866Y-54013595D01*
X176627595Y-54214866D01*
X176480000Y-54435757D01*
X176332405Y-54214866D01*
X176131134Y-54013595D01*
X175894464Y-53855457D01*
X175631491Y-53746530D01*
X175352320Y-53691000D01*
X175067680Y-53691000D01*
X174788509Y-53746530D01*
X174525536Y-53855457D01*
X174288866Y-54013595D01*
X174087595Y-54214866D01*
X173940000Y-54435757D01*
X173792405Y-54214866D01*
X173591134Y-54013595D01*
X173354464Y-53855457D01*
X173091491Y-53746530D01*
X172812320Y-53691000D01*
X172527680Y-53691000D01*
X172248509Y-53746530D01*
X171985536Y-53855457D01*
X171748866Y-54013595D01*
X171547595Y-54214866D01*
X171400000Y-54435757D01*
X171252405Y-54214866D01*
X171051134Y-54013595D01*
X170814464Y-53855457D01*
X170551491Y-53746530D01*
X170272320Y-53691000D01*
X169987680Y-53691000D01*
X169708509Y-53746530D01*
X169445536Y-53855457D01*
X169208866Y-54013595D01*
X169007595Y-54214866D01*
X168860000Y-54435757D01*
X168712405Y-54214866D01*
X168511134Y-54013595D01*
X168274464Y-53855457D01*
X168011491Y-53746530D01*
X167732320Y-53691000D01*
X167447680Y-53691000D01*
X167168509Y-53746530D01*
X166905536Y-53855457D01*
X166668866Y-54013595D01*
X166467595Y-54214866D01*
X166320000Y-54435757D01*
X166172405Y-54214866D01*
X165971134Y-54013595D01*
X165734464Y-53855457D01*
X165471491Y-53746530D01*
X165192320Y-53691000D01*
X164907680Y-53691000D01*
X164628509Y-53746530D01*
X164365536Y-53855457D01*
X164128866Y-54013595D01*
X163927595Y-54214866D01*
X163780000Y-54435757D01*
X163632405Y-54214866D01*
X163431134Y-54013595D01*
X163194464Y-53855457D01*
X162931491Y-53746530D01*
X162652320Y-53691000D01*
X162367680Y-53691000D01*
X162088509Y-53746530D01*
X161825536Y-53855457D01*
X161588866Y-54013595D01*
X161387595Y-54214866D01*
X161240000Y-54435757D01*
X161092405Y-54214866D01*
X160891134Y-54013595D01*
X160654464Y-53855457D01*
X160391491Y-53746530D01*
X160112320Y-53691000D01*
X159827680Y-53691000D01*
X159548509Y-53746530D01*
X159285536Y-53855457D01*
X159048866Y-54013595D01*
X158847595Y-54214866D01*
X158700000Y-54435757D01*
X158552405Y-54214866D01*
X158351134Y-54013595D01*
X158114464Y-53855457D01*
X157851491Y-53746530D01*
X157572320Y-53691000D01*
X157287680Y-53691000D01*
X157008509Y-53746530D01*
X156745536Y-53855457D01*
X156508866Y-54013595D01*
X156307595Y-54214866D01*
X156160000Y-54435757D01*
X156012405Y-54214866D01*
X155811134Y-54013595D01*
X155574464Y-53855457D01*
X155311491Y-53746530D01*
X155032320Y-53691000D01*
X154747680Y-53691000D01*
X154468509Y-53746530D01*
X154205536Y-53855457D01*
X153968866Y-54013595D01*
X153767595Y-54214866D01*
X153620000Y-54435757D01*
X153472405Y-54214866D01*
X153271134Y-54013595D01*
X153034464Y-53855457D01*
X152771491Y-53746530D01*
X152492320Y-53691000D01*
X152207680Y-53691000D01*
X151928509Y-53746530D01*
X151665536Y-53855457D01*
X151428866Y-54013595D01*
X151227595Y-54214866D01*
X151080000Y-54435757D01*
X150932405Y-54214866D01*
X150731134Y-54013595D01*
X150494464Y-53855457D01*
X150231491Y-53746530D01*
X149952320Y-53691000D01*
X149667680Y-53691000D01*
X149388509Y-53746530D01*
X149125536Y-53855457D01*
X148888866Y-54013595D01*
X148687595Y-54214866D01*
X148540000Y-54435757D01*
X148392405Y-54214866D01*
X148191134Y-54013595D01*
X147954464Y-53855457D01*
X147691491Y-53746530D01*
X147412320Y-53691000D01*
X147127680Y-53691000D01*
X146848509Y-53746530D01*
X146585536Y-53855457D01*
X146348866Y-54013595D01*
X146147595Y-54214866D01*
X146000000Y-54435757D01*
X145852405Y-54214866D01*
X145651134Y-54013595D01*
X145414464Y-53855457D01*
X145151491Y-53746530D01*
X144872320Y-53691000D01*
X144587680Y-53691000D01*
X144308509Y-53746530D01*
X144045536Y-53855457D01*
X143808866Y-54013595D01*
X143607595Y-54214866D01*
X143460000Y-54435757D01*
X143312405Y-54214866D01*
X143111134Y-54013595D01*
X142874464Y-53855457D01*
X142611491Y-53746530D01*
X142332320Y-53691000D01*
X142047680Y-53691000D01*
X141768509Y-53746530D01*
X141505536Y-53855457D01*
X141268866Y-54013595D01*
X141067595Y-54214866D01*
X140920000Y-54435757D01*
X140772405Y-54214866D01*
X140571134Y-54013595D01*
X140334464Y-53855457D01*
X140071491Y-53746530D01*
X139792320Y-53691000D01*
X139507680Y-53691000D01*
X139228509Y-53746530D01*
X138965536Y-53855457D01*
X138728866Y-54013595D01*
X138527595Y-54214866D01*
X138380000Y-54435757D01*
X138232405Y-54214866D01*
X138031134Y-54013595D01*
X137794464Y-53855457D01*
X137531491Y-53746530D01*
X137252320Y-53691000D01*
X136967680Y-53691000D01*
X136688509Y-53746530D01*
X136425536Y-53855457D01*
X136188866Y-54013595D01*
X135987595Y-54214866D01*
X135840000Y-54435757D01*
X135692405Y-54214866D01*
X135491134Y-54013595D01*
X135254464Y-53855457D01*
X134991491Y-53746530D01*
X134712320Y-53691000D01*
X134427680Y-53691000D01*
X134148509Y-53746530D01*
X133885536Y-53855457D01*
X133648866Y-54013595D01*
X133447595Y-54214866D01*
X133300000Y-54435757D01*
X133152405Y-54214866D01*
X132951134Y-54013595D01*
X132714464Y-53855457D01*
X132451491Y-53746530D01*
X132172320Y-53691000D01*
X131887680Y-53691000D01*
X131608509Y-53746530D01*
X131345536Y-53855457D01*
X131108866Y-54013595D01*
X130907595Y-54214866D01*
X130760000Y-54435757D01*
X130612405Y-54214866D01*
X130411134Y-54013595D01*
X130174464Y-53855457D01*
X129911491Y-53746530D01*
X129632320Y-53691000D01*
X129347680Y-53691000D01*
X129068509Y-53746530D01*
X128805536Y-53855457D01*
X128568866Y-54013595D01*
X128367595Y-54214866D01*
X128220000Y-54435757D01*
X128072405Y-54214866D01*
X127871134Y-54013595D01*
X127634464Y-53855457D01*
X127371491Y-53746530D01*
X127092320Y-53691000D01*
X126807680Y-53691000D01*
X126528509Y-53746530D01*
X126265536Y-53855457D01*
X126028866Y-54013595D01*
X125827595Y-54214866D01*
X125680000Y-54435757D01*
X125532405Y-54214866D01*
X125331134Y-54013595D01*
X125094464Y-53855457D01*
X124831491Y-53746530D01*
X124552320Y-53691000D01*
X124267680Y-53691000D01*
X123988509Y-53746530D01*
X123725536Y-53855457D01*
X123488866Y-54013595D01*
X123287595Y-54214866D01*
X123140000Y-54435757D01*
X122992405Y-54214866D01*
X122791134Y-54013595D01*
X122554464Y-53855457D01*
X122291491Y-53746530D01*
X122012320Y-53691000D01*
X121727680Y-53691000D01*
X121448509Y-53746530D01*
X121185536Y-53855457D01*
X120948866Y-54013595D01*
X120747595Y-54214866D01*
X120600000Y-54435757D01*
X120452405Y-54214866D01*
X120251134Y-54013595D01*
X120014464Y-53855457D01*
X119751491Y-53746530D01*
X119472320Y-53691000D01*
X119187680Y-53691000D01*
X118908509Y-53746530D01*
X118645536Y-53855457D01*
X118408866Y-54013595D01*
X118207595Y-54214866D01*
X118060000Y-54435757D01*
X117912405Y-54214866D01*
X117711134Y-54013595D01*
X117474464Y-53855457D01*
X117211491Y-53746530D01*
X116932320Y-53691000D01*
X116647680Y-53691000D01*
X116368509Y-53746530D01*
X116105536Y-53855457D01*
X115868866Y-54013595D01*
X115667595Y-54214866D01*
X115520000Y-54435757D01*
X115372405Y-54214866D01*
X115171134Y-54013595D01*
X114934464Y-53855457D01*
X114671491Y-53746530D01*
X114392320Y-53691000D01*
X114107680Y-53691000D01*
X113828509Y-53746530D01*
X113565536Y-53855457D01*
X113328866Y-54013595D01*
X113127595Y-54214866D01*
X112969457Y-54451536D01*
X112860530Y-54714509D01*
X112805000Y-54993680D01*
X112805000Y-55278320D01*
X112860530Y-55557491D01*
X112969457Y-55820464D01*
X113127595Y-56057134D01*
X113328866Y-56258405D01*
X113549757Y-56406000D01*
X113328866Y-56553595D01*
X113127595Y-56754866D01*
X112969457Y-56991536D01*
X112860530Y-57254509D01*
X112805000Y-57533680D01*
X112805000Y-57818320D01*
X112860530Y-58097491D01*
X112969457Y-58360464D01*
X113127595Y-58597134D01*
X113144030Y-58613569D01*
X110777198Y-60980401D01*
X110748200Y-61004199D01*
X110724402Y-61033197D01*
X110724401Y-61033198D01*
X110653226Y-61119924D01*
X110582654Y-61251954D01*
X110555781Y-61340547D01*
X110539198Y-61395214D01*
X110537476Y-61412699D01*
X110524524Y-61544200D01*
X110528201Y-61581532D01*
X110528200Y-72020298D01*
X109798072Y-72750426D01*
X109798072Y-72150000D01*
X109781008Y-71976746D01*
X109730472Y-71810150D01*
X109648405Y-71656614D01*
X109537962Y-71522038D01*
X109403386Y-71411595D01*
X109249850Y-71329528D01*
X109083254Y-71278992D01*
X108910000Y-71261928D01*
X106410000Y-71261928D01*
X106236746Y-71278992D01*
X106070150Y-71329528D01*
X105916614Y-71411595D01*
X105782038Y-71522038D01*
X105671595Y-71656614D01*
X105589528Y-71810150D01*
X105538992Y-71976746D01*
X105521928Y-72150000D01*
X103010000Y-72150000D01*
X103010000Y-62846000D01*
X104694877Y-62846000D01*
X104725576Y-62842976D01*
X104734820Y-62843041D01*
X104744686Y-62842074D01*
X105035831Y-62811474D01*
X105098868Y-62798534D01*
X105162080Y-62786476D01*
X105171570Y-62783611D01*
X105451226Y-62697043D01*
X105510521Y-62672117D01*
X105570215Y-62647999D01*
X105578967Y-62643345D01*
X105836483Y-62504106D01*
X105889825Y-62468127D01*
X105943678Y-62432886D01*
X105951360Y-62426621D01*
X106176927Y-62240016D01*
X106222246Y-62194379D01*
X106268248Y-62149331D01*
X106274566Y-62141692D01*
X106459592Y-61914828D01*
X106495177Y-61861268D01*
X106531560Y-61808132D01*
X106536275Y-61799412D01*
X106673712Y-61540931D01*
X106698225Y-61481456D01*
X106723584Y-61422289D01*
X106726516Y-61412819D01*
X106811130Y-61132565D01*
X106823622Y-61069475D01*
X106837009Y-61006494D01*
X106838045Y-60996635D01*
X106866612Y-60705283D01*
X106866612Y-60705277D01*
X106870000Y-60670877D01*
X106870000Y-57605608D01*
X106958678Y-57516930D01*
X107264859Y-57960503D01*
X107852306Y-58275954D01*
X108490008Y-58470740D01*
X109153457Y-58537372D01*
X109817158Y-58473292D01*
X110455605Y-58280962D01*
X111044262Y-57967772D01*
X111055141Y-57960503D01*
X111361323Y-57516928D01*
X109160000Y-55315605D01*
X109145858Y-55329748D01*
X108966253Y-55150143D01*
X108980395Y-55136000D01*
X108966253Y-55121858D01*
X109145858Y-54942253D01*
X109160000Y-54956395D01*
X109174143Y-54942253D01*
X109353748Y-55121858D01*
X109339605Y-55136000D01*
X111540928Y-57337323D01*
X111984503Y-57031141D01*
X112299954Y-56443694D01*
X112494740Y-55805992D01*
X112561372Y-55142543D01*
X112497292Y-54478842D01*
X112304962Y-53840395D01*
X111991772Y-53251738D01*
X111984503Y-53240859D01*
X111540930Y-52934678D01*
X111629608Y-52846000D01*
X180370392Y-52846000D01*
X180459070Y-52934678D01*
%TD*%
M02*
