G04 #@! TF.GenerationSoftware,KiCad,Pcbnew,5.1.6-1.fc32*
G04 #@! TF.CreationDate,2020-09-20T21:59:19-03:00*
G04 #@! TF.ProjectId,pc104-adapter-top,70633130-342d-4616-9461-707465722d74,v2.0*
G04 #@! TF.SameCoordinates,Original*
G04 #@! TF.FileFunction,Copper,L2,Inr*
G04 #@! TF.FilePolarity,Positive*
%FSLAX46Y46*%
G04 Gerber Fmt 4.6, Leading zero omitted, Abs format (unit mm)*
G04 Created by KiCad (PCBNEW 5.1.6-1.fc32) date 2020-09-20 21:59:19*
%MOMM*%
%LPD*%
G01*
G04 APERTURE LIST*
G04 #@! TA.AperFunction,ViaPad*
%ADD10C,5.500000*%
G04 #@! TD*
G04 #@! TA.AperFunction,ViaPad*
%ADD11C,1.620000*%
G04 #@! TD*
G04 #@! TA.AperFunction,ViaPad*
%ADD12C,0.800000*%
G04 #@! TD*
G04 #@! TA.AperFunction,Conductor*
%ADD13C,0.250000*%
G04 #@! TD*
G04 #@! TA.AperFunction,NonConductor*
%ADD14C,0.254000*%
G04 #@! TD*
G04 APERTURE END LIST*
D10*
X106270000Y-140336000D03*
X186330000Y-140336000D03*
D11*
X178650000Y-54636000D03*
X178650000Y-57176000D03*
X176110000Y-54636000D03*
X176110000Y-57176000D03*
X173570000Y-54636000D03*
X173570000Y-57176000D03*
X171030000Y-54636000D03*
X171030000Y-57176000D03*
X168490000Y-54636000D03*
X168490000Y-57176000D03*
X165950000Y-54636000D03*
X165950000Y-57176000D03*
X163410000Y-54636000D03*
X163410000Y-57176000D03*
X160870000Y-54636000D03*
X160870000Y-57176000D03*
X158330000Y-54636000D03*
X158330000Y-57176000D03*
X155790000Y-54636000D03*
X155790000Y-57176000D03*
X153250000Y-54636000D03*
X153250000Y-57176000D03*
X150710000Y-54636000D03*
X150710000Y-57176000D03*
X148170000Y-54636000D03*
X148170000Y-57176000D03*
X145630000Y-54636000D03*
X145630000Y-57176000D03*
X143090000Y-54636000D03*
X143090000Y-57176000D03*
X140550000Y-54636000D03*
X140550000Y-57176000D03*
X138010000Y-54636000D03*
X138010000Y-57176000D03*
X135470000Y-54636000D03*
X135470000Y-57176000D03*
X132930000Y-54636000D03*
X132930000Y-57176000D03*
X130390000Y-54636000D03*
X130390000Y-57176000D03*
X127850000Y-54636000D03*
X127850000Y-57176000D03*
X125310000Y-54636000D03*
X125310000Y-57176000D03*
X122770000Y-54636000D03*
X122770000Y-57176000D03*
X120230000Y-54636000D03*
X120230000Y-57176000D03*
X117690000Y-54636000D03*
X117690000Y-57176000D03*
X115150000Y-54636000D03*
X115150000Y-57176000D03*
X178650000Y-59716000D03*
X178650000Y-62256000D03*
X176110000Y-59716000D03*
X176110000Y-62256000D03*
X173570000Y-59716000D03*
X173570000Y-62256000D03*
X171030000Y-59716000D03*
X171030000Y-62256000D03*
X168490000Y-59716000D03*
X168490000Y-62256000D03*
X165950000Y-59716000D03*
X165950000Y-62256000D03*
X163410000Y-59716000D03*
X163410000Y-62256000D03*
X160870000Y-59716000D03*
X160870000Y-62256000D03*
X158330000Y-59716000D03*
X158330000Y-62256000D03*
X155790000Y-59716000D03*
X155790000Y-62256000D03*
X153250000Y-59716000D03*
X153250000Y-62256000D03*
X150710000Y-59716000D03*
X150710000Y-62256000D03*
X148170000Y-59716000D03*
X148170000Y-62256000D03*
X145630000Y-59716000D03*
X145630000Y-62256000D03*
X143090000Y-59716000D03*
X143090000Y-62256000D03*
X140550000Y-59716000D03*
X140550000Y-62256000D03*
X138010000Y-59716000D03*
X138010000Y-62256000D03*
X135470000Y-59716000D03*
X135470000Y-62256000D03*
X132930000Y-59716000D03*
X132930000Y-62256000D03*
X130390000Y-59716000D03*
X130390000Y-62256000D03*
X127850000Y-59716000D03*
X127850000Y-62256000D03*
X125310000Y-59716000D03*
X125310000Y-62256000D03*
X122770000Y-59716000D03*
X122770000Y-62256000D03*
X120230000Y-59716000D03*
X120230000Y-62256000D03*
X117690000Y-59716000D03*
X117690000Y-62256000D03*
X115150000Y-59716000D03*
X115150000Y-62256000D03*
D10*
X183730000Y-54636000D03*
X110070000Y-54636000D03*
D12*
X105116400Y-97517200D03*
X187384400Y-97517200D03*
X123908400Y-88750000D03*
X124868200Y-85756800D03*
X120566200Y-83119600D03*
X123301300Y-81352200D03*
X123428100Y-69527700D03*
X119938500Y-78304600D03*
X120448300Y-76939900D03*
X122102300Y-72308700D03*
X119908000Y-75236900D03*
X122111500Y-73888100D03*
X145152600Y-77524700D03*
X144400400Y-86206300D03*
X144290200Y-84790900D03*
X141527600Y-83185900D03*
X140807100Y-79123100D03*
X139703400Y-77339800D03*
X137345300Y-72961300D03*
X136147000Y-69527700D03*
X161468500Y-68140200D03*
X159913100Y-77294400D03*
X157475900Y-77281100D03*
X156078100Y-68497000D03*
X159613300Y-85000000D03*
X158503500Y-84612700D03*
X155927600Y-85722100D03*
X152180400Y-82996800D03*
X159400700Y-90197200D03*
X173271900Y-68781200D03*
X174137400Y-75307400D03*
X171874700Y-67316900D03*
X173213400Y-76628900D03*
X171292500Y-65778600D03*
X173435200Y-78582600D03*
X170650000Y-81512900D03*
X169305500Y-64565100D03*
X170137700Y-85614600D03*
X170547400Y-89012900D03*
X113432500Y-89103300D03*
X113414600Y-86920800D03*
X116829800Y-86195600D03*
X113211500Y-84482700D03*
X113468100Y-81635100D03*
X133746100Y-90197200D03*
X136667000Y-89743400D03*
X134211300Y-86891400D03*
X133948800Y-85876700D03*
X133746100Y-84862100D03*
X133631200Y-82743400D03*
X135170300Y-80211900D03*
X133719600Y-80602900D03*
X133930200Y-78419300D03*
X152758900Y-74500100D03*
X152630700Y-76113100D03*
X154781200Y-74686100D03*
X155027500Y-66309200D03*
X156475600Y-79805900D03*
X152990300Y-80552400D03*
X153252800Y-81702800D03*
X152732900Y-85259600D03*
X152183900Y-86678800D03*
X180888500Y-84831100D03*
X179297300Y-81820600D03*
X179651100Y-87059400D03*
X178239900Y-86571900D03*
D13*
X186330000Y-98571600D02*
X187384400Y-97517200D01*
X186330000Y-140336000D02*
X186330000Y-98571600D01*
X124868200Y-85756800D02*
X129040600Y-81584400D01*
X129040600Y-81584400D02*
X129040600Y-58366600D01*
X129040600Y-58366600D02*
X127850000Y-57176000D01*
X123428100Y-69527700D02*
X123905400Y-69050400D01*
X123905400Y-69050400D02*
X123905400Y-59240500D01*
X123905400Y-59240500D02*
X122976300Y-58311400D01*
X122976300Y-58311400D02*
X122211100Y-58311400D01*
X122211100Y-58311400D02*
X121500000Y-57600300D01*
X121500000Y-57600300D02*
X121500000Y-55906000D01*
X121500000Y-55906000D02*
X120230000Y-54636000D01*
X144400400Y-86206300D02*
X146810400Y-83796300D01*
X146810400Y-83796300D02*
X146810400Y-59282200D01*
X146810400Y-59282200D02*
X146108800Y-58580600D01*
X146108800Y-58580600D02*
X145423700Y-58580600D01*
X145423700Y-58580600D02*
X144360000Y-57516900D01*
X144360000Y-57516900D02*
X144360000Y-55906000D01*
X144360000Y-55906000D02*
X143090000Y-54636000D01*
X140807100Y-79123100D02*
X140807100Y-68181100D01*
X140807100Y-68181100D02*
X139280000Y-66654000D01*
X139280000Y-66654000D02*
X139280000Y-58446000D01*
X139280000Y-58446000D02*
X138010000Y-57176000D01*
X137345300Y-72961300D02*
X137345300Y-66566600D01*
X137345300Y-66566600D02*
X136740000Y-65961300D01*
X136740000Y-65961300D02*
X136740000Y-58446000D01*
X136740000Y-58446000D02*
X135470000Y-57176000D01*
X153250000Y-54636000D02*
X154440600Y-55826600D01*
X154440600Y-55826600D02*
X154440600Y-63669500D01*
X154440600Y-63669500D02*
X154241100Y-63869000D01*
X154241100Y-63869000D02*
X154241100Y-66660000D01*
X154241100Y-66660000D02*
X156078100Y-68497000D01*
X150710000Y-54636000D02*
X151900600Y-55826600D01*
X151900600Y-55826600D02*
X151900600Y-64659000D01*
X151900600Y-64659000D02*
X151547400Y-65012200D01*
X151547400Y-65012200D02*
X151547400Y-77656600D01*
X151547400Y-77656600D02*
X158503500Y-84612700D01*
X159400700Y-90197200D02*
X158988900Y-90197200D01*
X158988900Y-90197200D02*
X152793200Y-84001500D01*
X152793200Y-84001500D02*
X152151300Y-84001500D01*
X152151300Y-84001500D02*
X149440000Y-81290200D01*
X149440000Y-81290200D02*
X149440000Y-58446000D01*
X149440000Y-58446000D02*
X148170000Y-57176000D01*
X173271900Y-68781200D02*
X177380000Y-64673100D01*
X177380000Y-64673100D02*
X177380000Y-55906000D01*
X177380000Y-55906000D02*
X178650000Y-54636000D01*
X171874700Y-67316900D02*
X174840000Y-64351600D01*
X174840000Y-64351600D02*
X174840000Y-55906000D01*
X174840000Y-55906000D02*
X176110000Y-54636000D01*
X171292500Y-65778600D02*
X172300000Y-64771100D01*
X172300000Y-64771100D02*
X172300000Y-55906000D01*
X172300000Y-55906000D02*
X173570000Y-54636000D01*
X169305500Y-64565100D02*
X169646400Y-64224200D01*
X169646400Y-64224200D02*
X169646400Y-55792400D01*
X169646400Y-55792400D02*
X168490000Y-54636000D01*
X113432500Y-89103300D02*
X112689200Y-88360000D01*
X112689200Y-88360000D02*
X112689200Y-86592500D01*
X112689200Y-86592500D02*
X126580000Y-72701700D01*
X126580000Y-72701700D02*
X126580000Y-60986000D01*
X126580000Y-60986000D02*
X127850000Y-59716000D01*
X113414600Y-86920800D02*
X127850000Y-72485400D01*
X127850000Y-72485400D02*
X127850000Y-62256000D01*
X125310000Y-62256000D02*
X125310000Y-71797400D01*
X125310000Y-71797400D02*
X121116000Y-75991400D01*
X121116000Y-75991400D02*
X120310100Y-75991400D01*
X120310100Y-75991400D02*
X113211500Y-83090000D01*
X113211500Y-83090000D02*
X113211500Y-84482700D01*
X113468100Y-81635100D02*
X113468100Y-79917100D01*
X113468100Y-79917100D02*
X121500000Y-71885200D01*
X121500000Y-71885200D02*
X121500000Y-60986000D01*
X121500000Y-60986000D02*
X122770000Y-59716000D01*
X133746100Y-90197200D02*
X133746100Y-89865900D01*
X133746100Y-89865900D02*
X144360000Y-79252000D01*
X144360000Y-79252000D02*
X144360000Y-60986000D01*
X144360000Y-60986000D02*
X145630000Y-59716000D01*
X136667000Y-89743400D02*
X145881900Y-80528500D01*
X145881900Y-80528500D02*
X145881900Y-62507900D01*
X145881900Y-62507900D02*
X145630000Y-62256000D01*
X133948800Y-85876700D02*
X135099900Y-85876700D01*
X135099900Y-85876700D02*
X143090000Y-77886600D01*
X143090000Y-77886600D02*
X143090000Y-62256000D01*
X138010000Y-62256000D02*
X138112400Y-62358400D01*
X138112400Y-62358400D02*
X138112400Y-76210100D01*
X138112400Y-76210100D02*
X133719600Y-80602900D01*
X133930200Y-78419300D02*
X134200000Y-78149500D01*
X134200000Y-78149500D02*
X134200000Y-60986000D01*
X134200000Y-60986000D02*
X135470000Y-59716000D01*
X152758900Y-74500100D02*
X163410000Y-63849000D01*
X163410000Y-63849000D02*
X163410000Y-62256000D01*
X152630700Y-76113100D02*
X152027400Y-75509800D01*
X152027400Y-75509800D02*
X152027400Y-74143800D01*
X152027400Y-74143800D02*
X159600000Y-66571200D01*
X159600000Y-66571200D02*
X159600000Y-60986000D01*
X159600000Y-60986000D02*
X160870000Y-59716000D01*
X168490000Y-62256000D02*
X168490000Y-65025000D01*
X168490000Y-65025000D02*
X180888500Y-77423500D01*
X180888500Y-77423500D02*
X180888500Y-84831100D01*
X179297300Y-81820600D02*
X179297300Y-76732000D01*
X179297300Y-76732000D02*
X167220000Y-64654700D01*
X167220000Y-64654700D02*
X167220000Y-60986000D01*
X167220000Y-60986000D02*
X165950000Y-59716000D01*
X179651100Y-87059400D02*
X179651100Y-83772700D01*
X179651100Y-83772700D02*
X173735700Y-77857300D01*
X173735700Y-77857300D02*
X173373000Y-77857300D01*
X173373000Y-77857300D02*
X165950000Y-70434300D01*
X165950000Y-70434300D02*
X165950000Y-62256000D01*
X178239900Y-86571900D02*
X178239900Y-86387000D01*
X178239900Y-86387000D02*
X164680000Y-72827100D01*
X164680000Y-72827100D02*
X164680000Y-60986000D01*
X164680000Y-60986000D02*
X163410000Y-59716000D01*
D14*
G36*
X181100698Y-52478188D02*
G01*
X180730252Y-53032601D01*
X180475083Y-53648632D01*
X180345000Y-54302607D01*
X180345000Y-54969393D01*
X180475083Y-55623368D01*
X180730252Y-56239399D01*
X181100698Y-56793812D01*
X181572188Y-57265302D01*
X182126601Y-57635748D01*
X182742632Y-57890917D01*
X183396607Y-58021000D01*
X184063393Y-58021000D01*
X184717368Y-57890917D01*
X185333399Y-57635748D01*
X185887812Y-57265302D01*
X186120000Y-57033114D01*
X186120001Y-64470877D01*
X186123010Y-64501427D01*
X186122954Y-64509424D01*
X186123921Y-64519290D01*
X186150441Y-64771615D01*
X186163379Y-64834646D01*
X186175439Y-64897864D01*
X186178305Y-64907354D01*
X186253331Y-65149724D01*
X186278266Y-65209041D01*
X186302373Y-65268709D01*
X186307027Y-65277462D01*
X186427700Y-65500643D01*
X186463670Y-65553971D01*
X186498922Y-65607841D01*
X186505188Y-65615523D01*
X186666913Y-65811014D01*
X186712531Y-65856314D01*
X186757596Y-65902333D01*
X186765234Y-65908652D01*
X186961849Y-66069007D01*
X187015393Y-66104582D01*
X187068547Y-66140977D01*
X187077267Y-66145691D01*
X187301285Y-66264803D01*
X187360748Y-66289312D01*
X187419925Y-66314675D01*
X187429395Y-66317607D01*
X187672282Y-66390939D01*
X187735379Y-66403432D01*
X187798353Y-66416818D01*
X187808212Y-66417854D01*
X188060717Y-66442612D01*
X188243937Y-66460577D01*
X188353536Y-66493667D01*
X188454615Y-66547411D01*
X188543336Y-66619770D01*
X188616309Y-66707979D01*
X188670761Y-66808687D01*
X188704614Y-66918046D01*
X188720000Y-67064441D01*
X188720000Y-97273000D01*
X188391103Y-97273000D01*
X188379626Y-97215302D01*
X188301605Y-97026944D01*
X188188337Y-96857426D01*
X188044174Y-96713263D01*
X187874656Y-96599995D01*
X187686298Y-96521974D01*
X187486339Y-96482200D01*
X187282461Y-96482200D01*
X187082502Y-96521974D01*
X186894144Y-96599995D01*
X186724626Y-96713263D01*
X186580463Y-96857426D01*
X186467195Y-97026944D01*
X186389174Y-97215302D01*
X186377697Y-97273000D01*
X106123103Y-97273000D01*
X106111626Y-97215302D01*
X106033605Y-97026944D01*
X105920337Y-96857426D01*
X105776174Y-96713263D01*
X105606656Y-96599995D01*
X105418298Y-96521974D01*
X105218339Y-96482200D01*
X105014461Y-96482200D01*
X104814502Y-96521974D01*
X104626144Y-96599995D01*
X104456626Y-96713263D01*
X104312463Y-96857426D01*
X104199195Y-97026944D01*
X104121174Y-97215302D01*
X104109697Y-97273000D01*
X103880000Y-97273000D01*
X103880000Y-86592500D01*
X111925524Y-86592500D01*
X111929201Y-86629832D01*
X111929200Y-88322677D01*
X111925524Y-88360000D01*
X111929200Y-88397322D01*
X111929200Y-88397332D01*
X111940197Y-88508985D01*
X111982385Y-88648061D01*
X111983654Y-88652246D01*
X112054226Y-88784276D01*
X112094071Y-88832826D01*
X112149199Y-88900001D01*
X112178202Y-88923803D01*
X112397500Y-89143101D01*
X112397500Y-89205239D01*
X112437274Y-89405198D01*
X112515295Y-89593556D01*
X112628563Y-89763074D01*
X112772726Y-89907237D01*
X112942244Y-90020505D01*
X113130602Y-90098526D01*
X113330561Y-90138300D01*
X113534439Y-90138300D01*
X113734398Y-90098526D01*
X113922756Y-90020505D01*
X114092274Y-89907237D01*
X114236437Y-89763074D01*
X114349705Y-89593556D01*
X114427726Y-89405198D01*
X114467500Y-89205239D01*
X114467500Y-89001361D01*
X114427726Y-88801402D01*
X114364210Y-88648061D01*
X122873400Y-88648061D01*
X122873400Y-88851939D01*
X122913174Y-89051898D01*
X122991195Y-89240256D01*
X123104463Y-89409774D01*
X123248626Y-89553937D01*
X123418144Y-89667205D01*
X123606502Y-89745226D01*
X123806461Y-89785000D01*
X124010339Y-89785000D01*
X124210298Y-89745226D01*
X124398656Y-89667205D01*
X124568174Y-89553937D01*
X124712337Y-89409774D01*
X124825605Y-89240256D01*
X124903626Y-89051898D01*
X124943400Y-88851939D01*
X124943400Y-88648061D01*
X124903626Y-88448102D01*
X124825605Y-88259744D01*
X124712337Y-88090226D01*
X124568174Y-87946063D01*
X124398656Y-87832795D01*
X124210298Y-87754774D01*
X124010339Y-87715000D01*
X123806461Y-87715000D01*
X123606502Y-87754774D01*
X123418144Y-87832795D01*
X123248626Y-87946063D01*
X123104463Y-88090226D01*
X122991195Y-88259744D01*
X122913174Y-88448102D01*
X122873400Y-88648061D01*
X114364210Y-88648061D01*
X114349705Y-88613044D01*
X114236437Y-88443526D01*
X114092274Y-88299363D01*
X113922756Y-88186095D01*
X113734398Y-88108074D01*
X113534439Y-88068300D01*
X113472301Y-88068300D01*
X113449200Y-88045199D01*
X113449200Y-87955800D01*
X113516539Y-87955800D01*
X113716498Y-87916026D01*
X113904856Y-87838005D01*
X114074374Y-87724737D01*
X114218537Y-87580574D01*
X114331805Y-87411056D01*
X114409826Y-87222698D01*
X114449600Y-87022739D01*
X114449600Y-86960601D01*
X115316540Y-86093661D01*
X115794800Y-86093661D01*
X115794800Y-86297539D01*
X115834574Y-86497498D01*
X115912595Y-86685856D01*
X116025863Y-86855374D01*
X116170026Y-86999537D01*
X116339544Y-87112805D01*
X116527902Y-87190826D01*
X116727861Y-87230600D01*
X116931739Y-87230600D01*
X117131698Y-87190826D01*
X117320056Y-87112805D01*
X117489574Y-86999537D01*
X117633737Y-86855374D01*
X117747005Y-86685856D01*
X117825026Y-86497498D01*
X117864800Y-86297539D01*
X117864800Y-86093661D01*
X117825026Y-85893702D01*
X117747005Y-85705344D01*
X117633737Y-85535826D01*
X117489574Y-85391663D01*
X117320056Y-85278395D01*
X117131698Y-85200374D01*
X116931739Y-85160600D01*
X116727861Y-85160600D01*
X116527902Y-85200374D01*
X116339544Y-85278395D01*
X116170026Y-85391663D01*
X116025863Y-85535826D01*
X115912595Y-85705344D01*
X115834574Y-85893702D01*
X115794800Y-86093661D01*
X115316540Y-86093661D01*
X118392540Y-83017661D01*
X119531200Y-83017661D01*
X119531200Y-83221539D01*
X119570974Y-83421498D01*
X119648995Y-83609856D01*
X119762263Y-83779374D01*
X119906426Y-83923537D01*
X120075944Y-84036805D01*
X120264302Y-84114826D01*
X120464261Y-84154600D01*
X120668139Y-84154600D01*
X120868098Y-84114826D01*
X121056456Y-84036805D01*
X121225974Y-83923537D01*
X121370137Y-83779374D01*
X121483405Y-83609856D01*
X121561426Y-83421498D01*
X121601200Y-83221539D01*
X121601200Y-83017661D01*
X121561426Y-82817702D01*
X121483405Y-82629344D01*
X121370137Y-82459826D01*
X121225974Y-82315663D01*
X121056456Y-82202395D01*
X120868098Y-82124374D01*
X120668139Y-82084600D01*
X120464261Y-82084600D01*
X120264302Y-82124374D01*
X120075944Y-82202395D01*
X119906426Y-82315663D01*
X119762263Y-82459826D01*
X119648995Y-82629344D01*
X119570974Y-82817702D01*
X119531200Y-83017661D01*
X118392540Y-83017661D01*
X120159940Y-81250261D01*
X122266300Y-81250261D01*
X122266300Y-81454139D01*
X122306074Y-81654098D01*
X122384095Y-81842456D01*
X122497363Y-82011974D01*
X122641526Y-82156137D01*
X122811044Y-82269405D01*
X122999402Y-82347426D01*
X123199361Y-82387200D01*
X123403239Y-82387200D01*
X123603198Y-82347426D01*
X123791556Y-82269405D01*
X123961074Y-82156137D01*
X124105237Y-82011974D01*
X124218505Y-81842456D01*
X124296526Y-81654098D01*
X124336300Y-81454139D01*
X124336300Y-81250261D01*
X124296526Y-81050302D01*
X124218505Y-80861944D01*
X124105237Y-80692426D01*
X123961074Y-80548263D01*
X123791556Y-80434995D01*
X123603198Y-80356974D01*
X123403239Y-80317200D01*
X123199361Y-80317200D01*
X122999402Y-80356974D01*
X122811044Y-80434995D01*
X122641526Y-80548263D01*
X122497363Y-80692426D01*
X122384095Y-80861944D01*
X122306074Y-81050302D01*
X122266300Y-81250261D01*
X120159940Y-81250261D01*
X128280600Y-73129603D01*
X128280600Y-81269598D01*
X124828399Y-84721800D01*
X124766261Y-84721800D01*
X124566302Y-84761574D01*
X124377944Y-84839595D01*
X124208426Y-84952863D01*
X124064263Y-85097026D01*
X123950995Y-85266544D01*
X123872974Y-85454902D01*
X123833200Y-85654861D01*
X123833200Y-85858739D01*
X123872974Y-86058698D01*
X123950995Y-86247056D01*
X124064263Y-86416574D01*
X124208426Y-86560737D01*
X124377944Y-86674005D01*
X124566302Y-86752026D01*
X124766261Y-86791800D01*
X124970139Y-86791800D01*
X125170098Y-86752026D01*
X125358456Y-86674005D01*
X125527974Y-86560737D01*
X125672137Y-86416574D01*
X125785405Y-86247056D01*
X125863426Y-86058698D01*
X125903200Y-85858739D01*
X125903200Y-85796601D01*
X129058340Y-82641461D01*
X132596200Y-82641461D01*
X132596200Y-82845339D01*
X132635974Y-83045298D01*
X132713995Y-83233656D01*
X132827263Y-83403174D01*
X132971426Y-83547337D01*
X133140944Y-83660605D01*
X133329302Y-83738626D01*
X133529261Y-83778400D01*
X133733139Y-83778400D01*
X133933098Y-83738626D01*
X134121456Y-83660605D01*
X134290974Y-83547337D01*
X134435137Y-83403174D01*
X134548405Y-83233656D01*
X134626426Y-83045298D01*
X134666200Y-82845339D01*
X134666200Y-82641461D01*
X134626426Y-82441502D01*
X134548405Y-82253144D01*
X134435137Y-82083626D01*
X134290974Y-81939463D01*
X134121456Y-81826195D01*
X133933098Y-81748174D01*
X133733139Y-81708400D01*
X133529261Y-81708400D01*
X133329302Y-81748174D01*
X133140944Y-81826195D01*
X132971426Y-81939463D01*
X132827263Y-82083626D01*
X132713995Y-82253144D01*
X132635974Y-82441502D01*
X132596200Y-82641461D01*
X129058340Y-82641461D01*
X129551604Y-82148198D01*
X129580601Y-82124401D01*
X129675574Y-82008676D01*
X129746146Y-81876647D01*
X129789603Y-81733386D01*
X129800600Y-81621733D01*
X129800600Y-81621725D01*
X129804276Y-81584400D01*
X129800600Y-81547075D01*
X129800600Y-63575920D01*
X129968509Y-63645470D01*
X130247680Y-63701000D01*
X130532320Y-63701000D01*
X130811491Y-63645470D01*
X131074464Y-63536543D01*
X131311134Y-63378405D01*
X131512405Y-63177134D01*
X131660000Y-62956243D01*
X131807595Y-63177134D01*
X132008866Y-63378405D01*
X132245536Y-63536543D01*
X132508509Y-63645470D01*
X132787680Y-63701000D01*
X133072320Y-63701000D01*
X133351491Y-63645470D01*
X133440001Y-63608808D01*
X133440000Y-77502072D01*
X133439944Y-77502095D01*
X133270426Y-77615363D01*
X133126263Y-77759526D01*
X133012995Y-77929044D01*
X132934974Y-78117402D01*
X132895200Y-78317361D01*
X132895200Y-78521239D01*
X132934974Y-78721198D01*
X133012995Y-78909556D01*
X133126263Y-79079074D01*
X133270426Y-79223237D01*
X133439944Y-79336505D01*
X133628302Y-79414526D01*
X133799183Y-79448516D01*
X133679799Y-79567900D01*
X133617661Y-79567900D01*
X133417702Y-79607674D01*
X133229344Y-79685695D01*
X133059826Y-79798963D01*
X132915663Y-79943126D01*
X132802395Y-80112644D01*
X132724374Y-80301002D01*
X132684600Y-80500961D01*
X132684600Y-80704839D01*
X132724374Y-80904798D01*
X132802395Y-81093156D01*
X132915663Y-81262674D01*
X133059826Y-81406837D01*
X133229344Y-81520105D01*
X133417702Y-81598126D01*
X133617661Y-81637900D01*
X133821539Y-81637900D01*
X134021498Y-81598126D01*
X134209856Y-81520105D01*
X134379374Y-81406837D01*
X134523537Y-81262674D01*
X134633545Y-81098035D01*
X134680044Y-81129105D01*
X134868402Y-81207126D01*
X135068361Y-81246900D01*
X135272239Y-81246900D01*
X135472198Y-81207126D01*
X135660556Y-81129105D01*
X135830074Y-81015837D01*
X135974237Y-80871674D01*
X136087505Y-80702156D01*
X136165526Y-80513798D01*
X136205300Y-80313839D01*
X136205300Y-80109961D01*
X136165526Y-79910002D01*
X136087505Y-79721644D01*
X135974237Y-79552126D01*
X135909706Y-79487595D01*
X138623403Y-76773899D01*
X138652401Y-76750101D01*
X138747374Y-76634376D01*
X138817946Y-76502347D01*
X138861403Y-76359086D01*
X138872400Y-76247433D01*
X138872400Y-76247424D01*
X138876076Y-76210101D01*
X138872400Y-76172778D01*
X138872400Y-67321201D01*
X140047101Y-68495903D01*
X140047100Y-76361889D01*
X140005298Y-76344574D01*
X139805339Y-76304800D01*
X139601461Y-76304800D01*
X139401502Y-76344574D01*
X139213144Y-76422595D01*
X139043626Y-76535863D01*
X138899463Y-76680026D01*
X138786195Y-76849544D01*
X138708174Y-77037902D01*
X138668400Y-77237861D01*
X138668400Y-77441739D01*
X138708174Y-77641698D01*
X138786195Y-77830056D01*
X138899463Y-77999574D01*
X139043626Y-78143737D01*
X139213144Y-78257005D01*
X139401502Y-78335026D01*
X139601461Y-78374800D01*
X139805339Y-78374800D01*
X140005298Y-78335026D01*
X140047100Y-78317711D01*
X140047100Y-78419389D01*
X140003163Y-78463326D01*
X139889895Y-78632844D01*
X139811874Y-78821202D01*
X139772100Y-79021161D01*
X139772100Y-79225039D01*
X139811874Y-79424998D01*
X139889895Y-79613356D01*
X140003163Y-79782874D01*
X140061044Y-79840755D01*
X134785099Y-85116700D01*
X134750734Y-85116700D01*
X134781100Y-84964039D01*
X134781100Y-84760161D01*
X134741326Y-84560202D01*
X134663305Y-84371844D01*
X134550037Y-84202326D01*
X134405874Y-84058163D01*
X134236356Y-83944895D01*
X134047998Y-83866874D01*
X133848039Y-83827100D01*
X133644161Y-83827100D01*
X133444202Y-83866874D01*
X133255844Y-83944895D01*
X133086326Y-84058163D01*
X132942163Y-84202326D01*
X132828895Y-84371844D01*
X132750874Y-84560202D01*
X132711100Y-84760161D01*
X132711100Y-84964039D01*
X132750874Y-85163998D01*
X132828895Y-85352356D01*
X132942163Y-85521874D01*
X132965734Y-85545445D01*
X132953574Y-85574802D01*
X132913800Y-85774761D01*
X132913800Y-85978639D01*
X132953574Y-86178598D01*
X133031595Y-86366956D01*
X133144863Y-86536474D01*
X133213057Y-86604668D01*
X133176300Y-86789461D01*
X133176300Y-86993339D01*
X133216074Y-87193298D01*
X133294095Y-87381656D01*
X133407363Y-87551174D01*
X133551526Y-87695337D01*
X133721044Y-87808605D01*
X133909402Y-87886626D01*
X134109361Y-87926400D01*
X134313239Y-87926400D01*
X134513198Y-87886626D01*
X134701556Y-87808605D01*
X134783039Y-87754160D01*
X133258166Y-89279033D01*
X133255844Y-89279995D01*
X133086326Y-89393263D01*
X132942163Y-89537426D01*
X132828895Y-89706944D01*
X132750874Y-89895302D01*
X132711100Y-90095261D01*
X132711100Y-90299139D01*
X132750874Y-90499098D01*
X132828895Y-90687456D01*
X132942163Y-90856974D01*
X133086326Y-91001137D01*
X133255844Y-91114405D01*
X133444202Y-91192426D01*
X133644161Y-91232200D01*
X133848039Y-91232200D01*
X134047998Y-91192426D01*
X134236356Y-91114405D01*
X134405874Y-91001137D01*
X134550037Y-90856974D01*
X134663305Y-90687456D01*
X134741326Y-90499098D01*
X134781100Y-90299139D01*
X134781100Y-90095261D01*
X134749650Y-89937151D01*
X140782395Y-83904406D01*
X140867826Y-83989837D01*
X141037344Y-84103105D01*
X141175335Y-84160263D01*
X136627199Y-88708400D01*
X136565061Y-88708400D01*
X136365102Y-88748174D01*
X136176744Y-88826195D01*
X136007226Y-88939463D01*
X135863063Y-89083626D01*
X135749795Y-89253144D01*
X135671774Y-89441502D01*
X135632000Y-89641461D01*
X135632000Y-89845339D01*
X135671774Y-90045298D01*
X135749795Y-90233656D01*
X135863063Y-90403174D01*
X136007226Y-90547337D01*
X136176744Y-90660605D01*
X136365102Y-90738626D01*
X136565061Y-90778400D01*
X136768939Y-90778400D01*
X136968898Y-90738626D01*
X137157256Y-90660605D01*
X137326774Y-90547337D01*
X137470937Y-90403174D01*
X137584205Y-90233656D01*
X137662226Y-90045298D01*
X137702000Y-89845339D01*
X137702000Y-89783201D01*
X146050400Y-81434802D01*
X146050400Y-83481498D01*
X145214390Y-84317508D01*
X145207405Y-84300644D01*
X145094137Y-84131126D01*
X144949974Y-83986963D01*
X144780456Y-83873695D01*
X144592098Y-83795674D01*
X144392139Y-83755900D01*
X144188261Y-83755900D01*
X143988302Y-83795674D01*
X143799944Y-83873695D01*
X143630426Y-83986963D01*
X143486263Y-84131126D01*
X143372995Y-84300644D01*
X143294974Y-84489002D01*
X143255200Y-84688961D01*
X143255200Y-84892839D01*
X143294974Y-85092798D01*
X143372995Y-85281156D01*
X143486263Y-85450674D01*
X143590716Y-85555127D01*
X143483195Y-85716044D01*
X143405174Y-85904402D01*
X143365400Y-86104361D01*
X143365400Y-86308239D01*
X143405174Y-86508198D01*
X143483195Y-86696556D01*
X143596463Y-86866074D01*
X143740626Y-87010237D01*
X143910144Y-87123505D01*
X144098502Y-87201526D01*
X144298461Y-87241300D01*
X144502339Y-87241300D01*
X144702298Y-87201526D01*
X144890656Y-87123505D01*
X145060174Y-87010237D01*
X145204337Y-86866074D01*
X145317605Y-86696556D01*
X145395626Y-86508198D01*
X145435400Y-86308239D01*
X145435400Y-86246101D01*
X147321404Y-84360098D01*
X147350401Y-84336301D01*
X147445374Y-84220576D01*
X147515946Y-84088547D01*
X147559403Y-83945286D01*
X147570400Y-83833633D01*
X147570400Y-83833625D01*
X147574076Y-83796300D01*
X147570400Y-83758975D01*
X147570400Y-63571695D01*
X147748509Y-63645470D01*
X148027680Y-63701000D01*
X148312320Y-63701000D01*
X148591491Y-63645470D01*
X148680001Y-63608808D01*
X148680000Y-81252878D01*
X148676324Y-81290200D01*
X148680000Y-81327522D01*
X148680000Y-81327532D01*
X148690997Y-81439185D01*
X148719504Y-81533161D01*
X148734454Y-81582446D01*
X148805026Y-81714476D01*
X148832682Y-81748174D01*
X148899999Y-81830201D01*
X148929003Y-81854004D01*
X151587500Y-84512502D01*
X151611299Y-84541501D01*
X151727024Y-84636474D01*
X151857777Y-84706364D01*
X151815695Y-84769344D01*
X151737674Y-84957702D01*
X151697900Y-85157661D01*
X151697900Y-85361539D01*
X151737674Y-85561498D01*
X151801971Y-85716724D01*
X151693644Y-85761595D01*
X151524126Y-85874863D01*
X151379963Y-86019026D01*
X151266695Y-86188544D01*
X151188674Y-86376902D01*
X151148900Y-86576861D01*
X151148900Y-86780739D01*
X151188674Y-86980698D01*
X151266695Y-87169056D01*
X151379963Y-87338574D01*
X151524126Y-87482737D01*
X151693644Y-87596005D01*
X151882002Y-87674026D01*
X152081961Y-87713800D01*
X152285839Y-87713800D01*
X152485798Y-87674026D01*
X152674156Y-87596005D01*
X152843674Y-87482737D01*
X152987837Y-87338574D01*
X153101105Y-87169056D01*
X153179126Y-86980698D01*
X153218900Y-86780739D01*
X153218900Y-86576861D01*
X153179126Y-86376902D01*
X153114829Y-86221676D01*
X153223156Y-86176805D01*
X153392674Y-86063537D01*
X153536837Y-85919374D01*
X153576665Y-85859767D01*
X158425101Y-90708203D01*
X158448899Y-90737201D01*
X158477897Y-90760999D01*
X158564623Y-90832174D01*
X158588842Y-90845119D01*
X158596763Y-90856974D01*
X158740926Y-91001137D01*
X158910444Y-91114405D01*
X159098802Y-91192426D01*
X159298761Y-91232200D01*
X159502639Y-91232200D01*
X159702598Y-91192426D01*
X159890956Y-91114405D01*
X160060474Y-91001137D01*
X160204637Y-90856974D01*
X160317905Y-90687456D01*
X160395926Y-90499098D01*
X160435700Y-90299139D01*
X160435700Y-90095261D01*
X160395926Y-89895302D01*
X160317905Y-89706944D01*
X160204637Y-89537426D01*
X160060474Y-89393263D01*
X159890956Y-89279995D01*
X159702598Y-89201974D01*
X159502639Y-89162200D01*
X159298761Y-89162200D01*
X159098802Y-89201974D01*
X159077358Y-89210856D01*
X158777463Y-88910961D01*
X169512400Y-88910961D01*
X169512400Y-89114839D01*
X169552174Y-89314798D01*
X169630195Y-89503156D01*
X169743463Y-89672674D01*
X169887626Y-89816837D01*
X170057144Y-89930105D01*
X170245502Y-90008126D01*
X170445461Y-90047900D01*
X170649339Y-90047900D01*
X170849298Y-90008126D01*
X171037656Y-89930105D01*
X171207174Y-89816837D01*
X171351337Y-89672674D01*
X171464605Y-89503156D01*
X171542626Y-89314798D01*
X171582400Y-89114839D01*
X171582400Y-88910961D01*
X171542626Y-88711002D01*
X171464605Y-88522644D01*
X171351337Y-88353126D01*
X171207174Y-88208963D01*
X171037656Y-88095695D01*
X170849298Y-88017674D01*
X170649339Y-87977900D01*
X170445461Y-87977900D01*
X170245502Y-88017674D01*
X170057144Y-88095695D01*
X169887626Y-88208963D01*
X169743463Y-88353126D01*
X169630195Y-88522644D01*
X169552174Y-88711002D01*
X169512400Y-88910961D01*
X158777463Y-88910961D01*
X156470579Y-86604077D01*
X156587374Y-86526037D01*
X156731537Y-86381874D01*
X156844805Y-86212356D01*
X156922826Y-86023998D01*
X156962600Y-85824039D01*
X156962600Y-85620161D01*
X156922826Y-85420202D01*
X156844805Y-85231844D01*
X156731537Y-85062326D01*
X156587374Y-84918163D01*
X156417856Y-84804895D01*
X156229498Y-84726874D01*
X156029539Y-84687100D01*
X155825661Y-84687100D01*
X155625702Y-84726874D01*
X155437344Y-84804895D01*
X155267826Y-84918163D01*
X155123663Y-85062326D01*
X155045623Y-85179122D01*
X153357004Y-83490503D01*
X153333201Y-83461499D01*
X153217476Y-83366526D01*
X153160210Y-83335916D01*
X153175626Y-83298698D01*
X153215400Y-83098739D01*
X153215400Y-82894861D01*
X153184159Y-82737800D01*
X153354739Y-82737800D01*
X153554698Y-82698026D01*
X153743056Y-82620005D01*
X153912574Y-82506737D01*
X154056737Y-82362574D01*
X154170005Y-82193056D01*
X154248026Y-82004698D01*
X154287800Y-81804739D01*
X154287800Y-81600861D01*
X154255754Y-81439756D01*
X157468500Y-84652502D01*
X157468500Y-84714639D01*
X157508274Y-84914598D01*
X157586295Y-85102956D01*
X157699563Y-85272474D01*
X157843726Y-85416637D01*
X158013244Y-85529905D01*
X158201602Y-85607926D01*
X158401561Y-85647700D01*
X158605439Y-85647700D01*
X158778318Y-85613312D01*
X158809363Y-85659774D01*
X158953526Y-85803937D01*
X159123044Y-85917205D01*
X159311402Y-85995226D01*
X159511361Y-86035000D01*
X159715239Y-86035000D01*
X159915198Y-85995226D01*
X160103556Y-85917205D01*
X160273074Y-85803937D01*
X160417237Y-85659774D01*
X160515534Y-85512661D01*
X169102700Y-85512661D01*
X169102700Y-85716539D01*
X169142474Y-85916498D01*
X169220495Y-86104856D01*
X169333763Y-86274374D01*
X169477926Y-86418537D01*
X169647444Y-86531805D01*
X169835802Y-86609826D01*
X170035761Y-86649600D01*
X170239639Y-86649600D01*
X170439598Y-86609826D01*
X170627956Y-86531805D01*
X170797474Y-86418537D01*
X170941637Y-86274374D01*
X171054905Y-86104856D01*
X171132926Y-85916498D01*
X171172700Y-85716539D01*
X171172700Y-85512661D01*
X171132926Y-85312702D01*
X171054905Y-85124344D01*
X170941637Y-84954826D01*
X170797474Y-84810663D01*
X170627956Y-84697395D01*
X170439598Y-84619374D01*
X170239639Y-84579600D01*
X170035761Y-84579600D01*
X169835802Y-84619374D01*
X169647444Y-84697395D01*
X169477926Y-84810663D01*
X169333763Y-84954826D01*
X169220495Y-85124344D01*
X169142474Y-85312702D01*
X169102700Y-85512661D01*
X160515534Y-85512661D01*
X160530505Y-85490256D01*
X160608526Y-85301898D01*
X160648300Y-85101939D01*
X160648300Y-84898061D01*
X160608526Y-84698102D01*
X160530505Y-84509744D01*
X160417237Y-84340226D01*
X160273074Y-84196063D01*
X160103556Y-84082795D01*
X159915198Y-84004774D01*
X159715239Y-83965000D01*
X159511361Y-83965000D01*
X159338482Y-83999388D01*
X159307437Y-83952926D01*
X159163274Y-83808763D01*
X158993756Y-83695495D01*
X158805398Y-83617474D01*
X158605439Y-83577700D01*
X158543302Y-83577700D01*
X156376563Y-81410961D01*
X169615000Y-81410961D01*
X169615000Y-81614839D01*
X169654774Y-81814798D01*
X169732795Y-82003156D01*
X169846063Y-82172674D01*
X169990226Y-82316837D01*
X170159744Y-82430105D01*
X170348102Y-82508126D01*
X170548061Y-82547900D01*
X170751939Y-82547900D01*
X170951898Y-82508126D01*
X171140256Y-82430105D01*
X171309774Y-82316837D01*
X171453937Y-82172674D01*
X171567205Y-82003156D01*
X171645226Y-81814798D01*
X171685000Y-81614839D01*
X171685000Y-81410961D01*
X171645226Y-81211002D01*
X171567205Y-81022644D01*
X171453937Y-80853126D01*
X171309774Y-80708963D01*
X171140256Y-80595695D01*
X170951898Y-80517674D01*
X170751939Y-80477900D01*
X170548061Y-80477900D01*
X170348102Y-80517674D01*
X170159744Y-80595695D01*
X169990226Y-80708963D01*
X169846063Y-80853126D01*
X169732795Y-81022644D01*
X169654774Y-81211002D01*
X169615000Y-81410961D01*
X156376563Y-81410961D01*
X154669563Y-79703961D01*
X155440600Y-79703961D01*
X155440600Y-79907839D01*
X155480374Y-80107798D01*
X155558395Y-80296156D01*
X155671663Y-80465674D01*
X155815826Y-80609837D01*
X155985344Y-80723105D01*
X156173702Y-80801126D01*
X156373661Y-80840900D01*
X156577539Y-80840900D01*
X156777498Y-80801126D01*
X156965856Y-80723105D01*
X157135374Y-80609837D01*
X157279537Y-80465674D01*
X157392805Y-80296156D01*
X157470826Y-80107798D01*
X157510600Y-79907839D01*
X157510600Y-79703961D01*
X157470826Y-79504002D01*
X157392805Y-79315644D01*
X157279537Y-79146126D01*
X157135374Y-79001963D01*
X156965856Y-78888695D01*
X156777498Y-78810674D01*
X156577539Y-78770900D01*
X156373661Y-78770900D01*
X156173702Y-78810674D01*
X155985344Y-78888695D01*
X155815826Y-79001963D01*
X155671663Y-79146126D01*
X155558395Y-79315644D01*
X155480374Y-79504002D01*
X155440600Y-79703961D01*
X154669563Y-79703961D01*
X152307400Y-77341799D01*
X152307400Y-77179161D01*
X156440900Y-77179161D01*
X156440900Y-77383039D01*
X156480674Y-77582998D01*
X156558695Y-77771356D01*
X156671963Y-77940874D01*
X156816126Y-78085037D01*
X156985644Y-78198305D01*
X157174002Y-78276326D01*
X157373961Y-78316100D01*
X157577839Y-78316100D01*
X157777798Y-78276326D01*
X157966156Y-78198305D01*
X158135674Y-78085037D01*
X158279837Y-77940874D01*
X158393105Y-77771356D01*
X158471126Y-77582998D01*
X158510900Y-77383039D01*
X158510900Y-77192461D01*
X158878100Y-77192461D01*
X158878100Y-77396339D01*
X158917874Y-77596298D01*
X158995895Y-77784656D01*
X159109163Y-77954174D01*
X159253326Y-78098337D01*
X159422844Y-78211605D01*
X159611202Y-78289626D01*
X159811161Y-78329400D01*
X160015039Y-78329400D01*
X160214998Y-78289626D01*
X160403356Y-78211605D01*
X160572874Y-78098337D01*
X160717037Y-77954174D01*
X160830305Y-77784656D01*
X160908326Y-77596298D01*
X160948100Y-77396339D01*
X160948100Y-77192461D01*
X160908326Y-76992502D01*
X160830305Y-76804144D01*
X160717037Y-76634626D01*
X160572874Y-76490463D01*
X160403356Y-76377195D01*
X160214998Y-76299174D01*
X160015039Y-76259400D01*
X159811161Y-76259400D01*
X159611202Y-76299174D01*
X159422844Y-76377195D01*
X159253326Y-76490463D01*
X159109163Y-76634626D01*
X158995895Y-76804144D01*
X158917874Y-76992502D01*
X158878100Y-77192461D01*
X158510900Y-77192461D01*
X158510900Y-77179161D01*
X158471126Y-76979202D01*
X158393105Y-76790844D01*
X158279837Y-76621326D01*
X158135674Y-76477163D01*
X157966156Y-76363895D01*
X157777798Y-76285874D01*
X157577839Y-76246100D01*
X157373961Y-76246100D01*
X157174002Y-76285874D01*
X156985644Y-76363895D01*
X156816126Y-76477163D01*
X156671963Y-76621326D01*
X156558695Y-76790844D01*
X156480674Y-76979202D01*
X156440900Y-77179161D01*
X152307400Y-77179161D01*
X152307400Y-77099461D01*
X152328802Y-77108326D01*
X152528761Y-77148100D01*
X152732639Y-77148100D01*
X152932598Y-77108326D01*
X153120956Y-77030305D01*
X153290474Y-76917037D01*
X153434637Y-76772874D01*
X153547905Y-76603356D01*
X153625926Y-76414998D01*
X153665700Y-76215039D01*
X153665700Y-76011161D01*
X153625926Y-75811202D01*
X153547905Y-75622844D01*
X153434637Y-75453326D01*
X153338751Y-75357440D01*
X153418674Y-75304037D01*
X153562837Y-75159874D01*
X153676105Y-74990356D01*
X153750647Y-74810397D01*
X153785974Y-74987998D01*
X153863995Y-75176356D01*
X153977263Y-75345874D01*
X154121426Y-75490037D01*
X154290944Y-75603305D01*
X154479302Y-75681326D01*
X154679261Y-75721100D01*
X154883139Y-75721100D01*
X155083098Y-75681326D01*
X155271456Y-75603305D01*
X155440974Y-75490037D01*
X155585137Y-75345874D01*
X155698405Y-75176356D01*
X155776426Y-74987998D01*
X155816200Y-74788039D01*
X155816200Y-74584161D01*
X155776426Y-74384202D01*
X155698405Y-74195844D01*
X155585137Y-74026326D01*
X155440974Y-73882163D01*
X155271456Y-73768895D01*
X155083098Y-73690874D01*
X154883139Y-73651100D01*
X154682701Y-73651100D01*
X160467755Y-67866046D01*
X160433500Y-68038261D01*
X160433500Y-68242139D01*
X160473274Y-68442098D01*
X160551295Y-68630456D01*
X160664563Y-68799974D01*
X160808726Y-68944137D01*
X160978244Y-69057405D01*
X161166602Y-69135426D01*
X161366561Y-69175200D01*
X161570439Y-69175200D01*
X161770398Y-69135426D01*
X161958756Y-69057405D01*
X162128274Y-68944137D01*
X162272437Y-68799974D01*
X162385705Y-68630456D01*
X162463726Y-68442098D01*
X162503500Y-68242139D01*
X162503500Y-68038261D01*
X162463726Y-67838302D01*
X162385705Y-67649944D01*
X162272437Y-67480426D01*
X162128274Y-67336263D01*
X161958756Y-67222995D01*
X161770398Y-67144974D01*
X161570439Y-67105200D01*
X161366561Y-67105200D01*
X161194346Y-67139455D01*
X163920001Y-64413801D01*
X163920000Y-72789778D01*
X163916324Y-72827100D01*
X163920000Y-72864422D01*
X163920000Y-72864432D01*
X163930997Y-72976085D01*
X163963782Y-73084163D01*
X163974454Y-73119346D01*
X164045026Y-73251376D01*
X164084871Y-73299926D01*
X164139999Y-73367101D01*
X164169003Y-73390904D01*
X177212060Y-86433963D01*
X177204900Y-86469961D01*
X177204900Y-86673839D01*
X177244674Y-86873798D01*
X177322695Y-87062156D01*
X177435963Y-87231674D01*
X177580126Y-87375837D01*
X177749644Y-87489105D01*
X177938002Y-87567126D01*
X178137961Y-87606900D01*
X178341839Y-87606900D01*
X178541798Y-87567126D01*
X178711939Y-87496651D01*
X178733895Y-87549656D01*
X178847163Y-87719174D01*
X178991326Y-87863337D01*
X179160844Y-87976605D01*
X179349202Y-88054626D01*
X179549161Y-88094400D01*
X179753039Y-88094400D01*
X179952998Y-88054626D01*
X180141356Y-87976605D01*
X180310874Y-87863337D01*
X180455037Y-87719174D01*
X180568305Y-87549656D01*
X180646326Y-87361298D01*
X180686100Y-87161339D01*
X180686100Y-86957461D01*
X180646326Y-86757502D01*
X180568305Y-86569144D01*
X180455037Y-86399626D01*
X180411100Y-86355689D01*
X180411100Y-85753630D01*
X180586602Y-85826326D01*
X180786561Y-85866100D01*
X180990439Y-85866100D01*
X181190398Y-85826326D01*
X181378756Y-85748305D01*
X181548274Y-85635037D01*
X181692437Y-85490874D01*
X181805705Y-85321356D01*
X181883726Y-85132998D01*
X181923500Y-84933039D01*
X181923500Y-84729161D01*
X181883726Y-84529202D01*
X181805705Y-84340844D01*
X181692437Y-84171326D01*
X181648500Y-84127389D01*
X181648500Y-77460823D01*
X181652176Y-77423500D01*
X181648500Y-77386177D01*
X181648500Y-77386167D01*
X181637503Y-77274514D01*
X181594046Y-77131253D01*
X181523474Y-76999224D01*
X181428501Y-76883499D01*
X181399504Y-76859702D01*
X174028306Y-69488505D01*
X174075837Y-69440974D01*
X174189105Y-69271456D01*
X174267126Y-69083098D01*
X174306900Y-68883139D01*
X174306900Y-68821001D01*
X177891004Y-65236898D01*
X177920001Y-65213101D01*
X178014974Y-65097376D01*
X178085546Y-64965347D01*
X178129003Y-64822086D01*
X178140000Y-64710433D01*
X178140000Y-64710425D01*
X178143676Y-64673100D01*
X178140000Y-64635775D01*
X178140000Y-63608808D01*
X178228509Y-63645470D01*
X178507680Y-63701000D01*
X178792320Y-63701000D01*
X179071491Y-63645470D01*
X179334464Y-63536543D01*
X179571134Y-63378405D01*
X179772405Y-63177134D01*
X179930543Y-62940464D01*
X180039470Y-62677491D01*
X180095000Y-62398320D01*
X180095000Y-62113680D01*
X180039470Y-61834509D01*
X179930543Y-61571536D01*
X179772405Y-61334866D01*
X179571134Y-61133595D01*
X179350243Y-60986000D01*
X179571134Y-60838405D01*
X179772405Y-60637134D01*
X179930543Y-60400464D01*
X180039470Y-60137491D01*
X180095000Y-59858320D01*
X180095000Y-59573680D01*
X180039470Y-59294509D01*
X179930543Y-59031536D01*
X179772405Y-58794866D01*
X179571134Y-58593595D01*
X179350243Y-58446000D01*
X179571134Y-58298405D01*
X179772405Y-58097134D01*
X179930543Y-57860464D01*
X180039470Y-57597491D01*
X180095000Y-57318320D01*
X180095000Y-57033680D01*
X180039470Y-56754509D01*
X179930543Y-56491536D01*
X179772405Y-56254866D01*
X179571134Y-56053595D01*
X179350243Y-55906000D01*
X179571134Y-55758405D01*
X179772405Y-55557134D01*
X179930543Y-55320464D01*
X180039470Y-55057491D01*
X180095000Y-54778320D01*
X180095000Y-54493680D01*
X180039470Y-54214509D01*
X179930543Y-53951536D01*
X179772405Y-53714866D01*
X179571134Y-53513595D01*
X179334464Y-53355457D01*
X179071491Y-53246530D01*
X178792320Y-53191000D01*
X178507680Y-53191000D01*
X178228509Y-53246530D01*
X177965536Y-53355457D01*
X177728866Y-53513595D01*
X177527595Y-53714866D01*
X177380000Y-53935757D01*
X177232405Y-53714866D01*
X177031134Y-53513595D01*
X176794464Y-53355457D01*
X176531491Y-53246530D01*
X176252320Y-53191000D01*
X175967680Y-53191000D01*
X175688509Y-53246530D01*
X175425536Y-53355457D01*
X175188866Y-53513595D01*
X174987595Y-53714866D01*
X174840000Y-53935757D01*
X174692405Y-53714866D01*
X174491134Y-53513595D01*
X174254464Y-53355457D01*
X173991491Y-53246530D01*
X173712320Y-53191000D01*
X173427680Y-53191000D01*
X173148509Y-53246530D01*
X172885536Y-53355457D01*
X172648866Y-53513595D01*
X172447595Y-53714866D01*
X172300000Y-53935757D01*
X172152405Y-53714866D01*
X171951134Y-53513595D01*
X171714464Y-53355457D01*
X171451491Y-53246530D01*
X171172320Y-53191000D01*
X170887680Y-53191000D01*
X170608509Y-53246530D01*
X170345536Y-53355457D01*
X170108866Y-53513595D01*
X169907595Y-53714866D01*
X169760000Y-53935757D01*
X169612405Y-53714866D01*
X169411134Y-53513595D01*
X169174464Y-53355457D01*
X168911491Y-53246530D01*
X168632320Y-53191000D01*
X168347680Y-53191000D01*
X168068509Y-53246530D01*
X167805536Y-53355457D01*
X167568866Y-53513595D01*
X167367595Y-53714866D01*
X167220000Y-53935757D01*
X167072405Y-53714866D01*
X166871134Y-53513595D01*
X166634464Y-53355457D01*
X166371491Y-53246530D01*
X166092320Y-53191000D01*
X165807680Y-53191000D01*
X165528509Y-53246530D01*
X165265536Y-53355457D01*
X165028866Y-53513595D01*
X164827595Y-53714866D01*
X164680000Y-53935757D01*
X164532405Y-53714866D01*
X164331134Y-53513595D01*
X164094464Y-53355457D01*
X163831491Y-53246530D01*
X163552320Y-53191000D01*
X163267680Y-53191000D01*
X162988509Y-53246530D01*
X162725536Y-53355457D01*
X162488866Y-53513595D01*
X162287595Y-53714866D01*
X162140000Y-53935757D01*
X161992405Y-53714866D01*
X161791134Y-53513595D01*
X161554464Y-53355457D01*
X161291491Y-53246530D01*
X161012320Y-53191000D01*
X160727680Y-53191000D01*
X160448509Y-53246530D01*
X160185536Y-53355457D01*
X159948866Y-53513595D01*
X159747595Y-53714866D01*
X159600000Y-53935757D01*
X159452405Y-53714866D01*
X159251134Y-53513595D01*
X159014464Y-53355457D01*
X158751491Y-53246530D01*
X158472320Y-53191000D01*
X158187680Y-53191000D01*
X157908509Y-53246530D01*
X157645536Y-53355457D01*
X157408866Y-53513595D01*
X157207595Y-53714866D01*
X157060000Y-53935757D01*
X156912405Y-53714866D01*
X156711134Y-53513595D01*
X156474464Y-53355457D01*
X156211491Y-53246530D01*
X155932320Y-53191000D01*
X155647680Y-53191000D01*
X155368509Y-53246530D01*
X155105536Y-53355457D01*
X154868866Y-53513595D01*
X154667595Y-53714866D01*
X154520000Y-53935757D01*
X154372405Y-53714866D01*
X154171134Y-53513595D01*
X153934464Y-53355457D01*
X153671491Y-53246530D01*
X153392320Y-53191000D01*
X153107680Y-53191000D01*
X152828509Y-53246530D01*
X152565536Y-53355457D01*
X152328866Y-53513595D01*
X152127595Y-53714866D01*
X151980000Y-53935757D01*
X151832405Y-53714866D01*
X151631134Y-53513595D01*
X151394464Y-53355457D01*
X151131491Y-53246530D01*
X150852320Y-53191000D01*
X150567680Y-53191000D01*
X150288509Y-53246530D01*
X150025536Y-53355457D01*
X149788866Y-53513595D01*
X149587595Y-53714866D01*
X149440000Y-53935757D01*
X149292405Y-53714866D01*
X149091134Y-53513595D01*
X148854464Y-53355457D01*
X148591491Y-53246530D01*
X148312320Y-53191000D01*
X148027680Y-53191000D01*
X147748509Y-53246530D01*
X147485536Y-53355457D01*
X147248866Y-53513595D01*
X147047595Y-53714866D01*
X146900000Y-53935757D01*
X146752405Y-53714866D01*
X146551134Y-53513595D01*
X146314464Y-53355457D01*
X146051491Y-53246530D01*
X145772320Y-53191000D01*
X145487680Y-53191000D01*
X145208509Y-53246530D01*
X144945536Y-53355457D01*
X144708866Y-53513595D01*
X144507595Y-53714866D01*
X144360000Y-53935757D01*
X144212405Y-53714866D01*
X144011134Y-53513595D01*
X143774464Y-53355457D01*
X143511491Y-53246530D01*
X143232320Y-53191000D01*
X142947680Y-53191000D01*
X142668509Y-53246530D01*
X142405536Y-53355457D01*
X142168866Y-53513595D01*
X141967595Y-53714866D01*
X141820000Y-53935757D01*
X141672405Y-53714866D01*
X141471134Y-53513595D01*
X141234464Y-53355457D01*
X140971491Y-53246530D01*
X140692320Y-53191000D01*
X140407680Y-53191000D01*
X140128509Y-53246530D01*
X139865536Y-53355457D01*
X139628866Y-53513595D01*
X139427595Y-53714866D01*
X139280000Y-53935757D01*
X139132405Y-53714866D01*
X138931134Y-53513595D01*
X138694464Y-53355457D01*
X138431491Y-53246530D01*
X138152320Y-53191000D01*
X137867680Y-53191000D01*
X137588509Y-53246530D01*
X137325536Y-53355457D01*
X137088866Y-53513595D01*
X136887595Y-53714866D01*
X136740000Y-53935757D01*
X136592405Y-53714866D01*
X136391134Y-53513595D01*
X136154464Y-53355457D01*
X135891491Y-53246530D01*
X135612320Y-53191000D01*
X135327680Y-53191000D01*
X135048509Y-53246530D01*
X134785536Y-53355457D01*
X134548866Y-53513595D01*
X134347595Y-53714866D01*
X134200000Y-53935757D01*
X134052405Y-53714866D01*
X133851134Y-53513595D01*
X133614464Y-53355457D01*
X133351491Y-53246530D01*
X133072320Y-53191000D01*
X132787680Y-53191000D01*
X132508509Y-53246530D01*
X132245536Y-53355457D01*
X132008866Y-53513595D01*
X131807595Y-53714866D01*
X131660000Y-53935757D01*
X131512405Y-53714866D01*
X131311134Y-53513595D01*
X131074464Y-53355457D01*
X130811491Y-53246530D01*
X130532320Y-53191000D01*
X130247680Y-53191000D01*
X129968509Y-53246530D01*
X129705536Y-53355457D01*
X129468866Y-53513595D01*
X129267595Y-53714866D01*
X129120000Y-53935757D01*
X128972405Y-53714866D01*
X128771134Y-53513595D01*
X128534464Y-53355457D01*
X128271491Y-53246530D01*
X127992320Y-53191000D01*
X127707680Y-53191000D01*
X127428509Y-53246530D01*
X127165536Y-53355457D01*
X126928866Y-53513595D01*
X126727595Y-53714866D01*
X126580000Y-53935757D01*
X126432405Y-53714866D01*
X126231134Y-53513595D01*
X125994464Y-53355457D01*
X125731491Y-53246530D01*
X125452320Y-53191000D01*
X125167680Y-53191000D01*
X124888509Y-53246530D01*
X124625536Y-53355457D01*
X124388866Y-53513595D01*
X124187595Y-53714866D01*
X124040000Y-53935757D01*
X123892405Y-53714866D01*
X123691134Y-53513595D01*
X123454464Y-53355457D01*
X123191491Y-53246530D01*
X122912320Y-53191000D01*
X122627680Y-53191000D01*
X122348509Y-53246530D01*
X122085536Y-53355457D01*
X121848866Y-53513595D01*
X121647595Y-53714866D01*
X121500000Y-53935757D01*
X121352405Y-53714866D01*
X121151134Y-53513595D01*
X120914464Y-53355457D01*
X120651491Y-53246530D01*
X120372320Y-53191000D01*
X120087680Y-53191000D01*
X119808509Y-53246530D01*
X119545536Y-53355457D01*
X119308866Y-53513595D01*
X119107595Y-53714866D01*
X118960000Y-53935757D01*
X118812405Y-53714866D01*
X118611134Y-53513595D01*
X118374464Y-53355457D01*
X118111491Y-53246530D01*
X117832320Y-53191000D01*
X117547680Y-53191000D01*
X117268509Y-53246530D01*
X117005536Y-53355457D01*
X116768866Y-53513595D01*
X116567595Y-53714866D01*
X116420000Y-53935757D01*
X116272405Y-53714866D01*
X116071134Y-53513595D01*
X115834464Y-53355457D01*
X115571491Y-53246530D01*
X115292320Y-53191000D01*
X115007680Y-53191000D01*
X114728509Y-53246530D01*
X114465536Y-53355457D01*
X114228866Y-53513595D01*
X114027595Y-53714866D01*
X113869457Y-53951536D01*
X113760530Y-54214509D01*
X113705000Y-54493680D01*
X113705000Y-54778320D01*
X113760530Y-55057491D01*
X113869457Y-55320464D01*
X114027595Y-55557134D01*
X114228866Y-55758405D01*
X114449757Y-55906000D01*
X114228866Y-56053595D01*
X114027595Y-56254866D01*
X113869457Y-56491536D01*
X113760530Y-56754509D01*
X113705000Y-57033680D01*
X113705000Y-57318320D01*
X113760530Y-57597491D01*
X113869457Y-57860464D01*
X114027595Y-58097134D01*
X114228866Y-58298405D01*
X114449757Y-58446000D01*
X114228866Y-58593595D01*
X114027595Y-58794866D01*
X113869457Y-59031536D01*
X113760530Y-59294509D01*
X113705000Y-59573680D01*
X113705000Y-59858320D01*
X113760530Y-60137491D01*
X113869457Y-60400464D01*
X114027595Y-60637134D01*
X114228866Y-60838405D01*
X114449757Y-60986000D01*
X114228866Y-61133595D01*
X114027595Y-61334866D01*
X113869457Y-61571536D01*
X113760530Y-61834509D01*
X113705000Y-62113680D01*
X113705000Y-62398320D01*
X113760530Y-62677491D01*
X113869457Y-62940464D01*
X114027595Y-63177134D01*
X114228866Y-63378405D01*
X114465536Y-63536543D01*
X114728509Y-63645470D01*
X115007680Y-63701000D01*
X115292320Y-63701000D01*
X115571491Y-63645470D01*
X115834464Y-63536543D01*
X116071134Y-63378405D01*
X116272405Y-63177134D01*
X116420000Y-62956243D01*
X116567595Y-63177134D01*
X116768866Y-63378405D01*
X117005536Y-63536543D01*
X117268509Y-63645470D01*
X117547680Y-63701000D01*
X117832320Y-63701000D01*
X118111491Y-63645470D01*
X118374464Y-63536543D01*
X118611134Y-63378405D01*
X118812405Y-63177134D01*
X118960000Y-62956243D01*
X119107595Y-63177134D01*
X119308866Y-63378405D01*
X119545536Y-63536543D01*
X119808509Y-63645470D01*
X120087680Y-63701000D01*
X120372320Y-63701000D01*
X120651491Y-63645470D01*
X120740001Y-63608808D01*
X120740000Y-71570398D01*
X112957098Y-79353301D01*
X112928100Y-79377099D01*
X112904302Y-79406097D01*
X112904301Y-79406098D01*
X112833126Y-79492824D01*
X112762554Y-79624854D01*
X112746956Y-79676276D01*
X112720097Y-79764823D01*
X112719098Y-79768115D01*
X112704424Y-79917100D01*
X112708101Y-79954432D01*
X112708100Y-80931389D01*
X112664163Y-80975326D01*
X112550895Y-81144844D01*
X112472874Y-81333202D01*
X112433100Y-81533161D01*
X112433100Y-81737039D01*
X112472874Y-81936998D01*
X112550895Y-82125356D01*
X112664163Y-82294874D01*
X112797994Y-82428705D01*
X112700503Y-82526196D01*
X112671499Y-82549999D01*
X112616371Y-82617174D01*
X112576526Y-82665724D01*
X112537998Y-82737805D01*
X112505954Y-82797754D01*
X112462497Y-82941015D01*
X112451500Y-83052668D01*
X112451500Y-83052678D01*
X112447824Y-83090000D01*
X112451500Y-83127323D01*
X112451500Y-83778989D01*
X112407563Y-83822926D01*
X112294295Y-83992444D01*
X112216274Y-84180802D01*
X112176500Y-84380761D01*
X112176500Y-84584639D01*
X112216274Y-84784598D01*
X112294295Y-84972956D01*
X112407563Y-85142474D01*
X112551726Y-85286637D01*
X112721244Y-85399905D01*
X112781878Y-85425021D01*
X112178198Y-86028701D01*
X112149200Y-86052499D01*
X112125402Y-86081497D01*
X112125401Y-86081498D01*
X112054226Y-86168224D01*
X111983654Y-86300254D01*
X111963421Y-86366956D01*
X111944133Y-86430544D01*
X111940198Y-86443515D01*
X111925524Y-86592500D01*
X103880000Y-86592500D01*
X103880000Y-67270729D01*
X103898386Y-67083215D01*
X103942757Y-66936252D01*
X104014829Y-66800703D01*
X104111852Y-66681742D01*
X104230144Y-66583882D01*
X104365181Y-66510868D01*
X104511833Y-66465471D01*
X104697092Y-66446000D01*
X105504877Y-66446000D01*
X105535576Y-66442976D01*
X105544820Y-66443041D01*
X105554686Y-66442074D01*
X105845831Y-66411474D01*
X105908868Y-66398534D01*
X105972080Y-66386476D01*
X105981570Y-66383611D01*
X106261226Y-66297043D01*
X106320521Y-66272117D01*
X106380215Y-66247999D01*
X106388967Y-66243345D01*
X106646483Y-66104106D01*
X106699825Y-66068127D01*
X106753678Y-66032886D01*
X106761360Y-66026621D01*
X106986927Y-65840016D01*
X107032246Y-65794379D01*
X107078248Y-65749331D01*
X107084566Y-65741692D01*
X107269592Y-65514828D01*
X107305177Y-65461268D01*
X107341560Y-65408132D01*
X107346275Y-65399412D01*
X107483712Y-65140931D01*
X107508225Y-65081456D01*
X107533584Y-65022289D01*
X107536516Y-65012819D01*
X107621130Y-64732565D01*
X107633622Y-64669475D01*
X107647009Y-64606494D01*
X107648045Y-64596635D01*
X107676612Y-64305283D01*
X107676612Y-64305277D01*
X107680000Y-64270877D01*
X107680000Y-57033114D01*
X107912188Y-57265302D01*
X108466601Y-57635748D01*
X109082632Y-57890917D01*
X109736607Y-58021000D01*
X110403393Y-58021000D01*
X111057368Y-57890917D01*
X111673399Y-57635748D01*
X112227812Y-57265302D01*
X112699302Y-56793812D01*
X113069748Y-56239399D01*
X113324917Y-55623368D01*
X113455000Y-54969393D01*
X113455000Y-54302607D01*
X113324917Y-53648632D01*
X113069748Y-53032601D01*
X112699302Y-52478188D01*
X112467114Y-52246000D01*
X181332886Y-52246000D01*
X181100698Y-52478188D01*
G37*
X181100698Y-52478188D02*
X180730252Y-53032601D01*
X180475083Y-53648632D01*
X180345000Y-54302607D01*
X180345000Y-54969393D01*
X180475083Y-55623368D01*
X180730252Y-56239399D01*
X181100698Y-56793812D01*
X181572188Y-57265302D01*
X182126601Y-57635748D01*
X182742632Y-57890917D01*
X183396607Y-58021000D01*
X184063393Y-58021000D01*
X184717368Y-57890917D01*
X185333399Y-57635748D01*
X185887812Y-57265302D01*
X186120000Y-57033114D01*
X186120001Y-64470877D01*
X186123010Y-64501427D01*
X186122954Y-64509424D01*
X186123921Y-64519290D01*
X186150441Y-64771615D01*
X186163379Y-64834646D01*
X186175439Y-64897864D01*
X186178305Y-64907354D01*
X186253331Y-65149724D01*
X186278266Y-65209041D01*
X186302373Y-65268709D01*
X186307027Y-65277462D01*
X186427700Y-65500643D01*
X186463670Y-65553971D01*
X186498922Y-65607841D01*
X186505188Y-65615523D01*
X186666913Y-65811014D01*
X186712531Y-65856314D01*
X186757596Y-65902333D01*
X186765234Y-65908652D01*
X186961849Y-66069007D01*
X187015393Y-66104582D01*
X187068547Y-66140977D01*
X187077267Y-66145691D01*
X187301285Y-66264803D01*
X187360748Y-66289312D01*
X187419925Y-66314675D01*
X187429395Y-66317607D01*
X187672282Y-66390939D01*
X187735379Y-66403432D01*
X187798353Y-66416818D01*
X187808212Y-66417854D01*
X188060717Y-66442612D01*
X188243937Y-66460577D01*
X188353536Y-66493667D01*
X188454615Y-66547411D01*
X188543336Y-66619770D01*
X188616309Y-66707979D01*
X188670761Y-66808687D01*
X188704614Y-66918046D01*
X188720000Y-67064441D01*
X188720000Y-97273000D01*
X188391103Y-97273000D01*
X188379626Y-97215302D01*
X188301605Y-97026944D01*
X188188337Y-96857426D01*
X188044174Y-96713263D01*
X187874656Y-96599995D01*
X187686298Y-96521974D01*
X187486339Y-96482200D01*
X187282461Y-96482200D01*
X187082502Y-96521974D01*
X186894144Y-96599995D01*
X186724626Y-96713263D01*
X186580463Y-96857426D01*
X186467195Y-97026944D01*
X186389174Y-97215302D01*
X186377697Y-97273000D01*
X106123103Y-97273000D01*
X106111626Y-97215302D01*
X106033605Y-97026944D01*
X105920337Y-96857426D01*
X105776174Y-96713263D01*
X105606656Y-96599995D01*
X105418298Y-96521974D01*
X105218339Y-96482200D01*
X105014461Y-96482200D01*
X104814502Y-96521974D01*
X104626144Y-96599995D01*
X104456626Y-96713263D01*
X104312463Y-96857426D01*
X104199195Y-97026944D01*
X104121174Y-97215302D01*
X104109697Y-97273000D01*
X103880000Y-97273000D01*
X103880000Y-86592500D01*
X111925524Y-86592500D01*
X111929201Y-86629832D01*
X111929200Y-88322677D01*
X111925524Y-88360000D01*
X111929200Y-88397322D01*
X111929200Y-88397332D01*
X111940197Y-88508985D01*
X111982385Y-88648061D01*
X111983654Y-88652246D01*
X112054226Y-88784276D01*
X112094071Y-88832826D01*
X112149199Y-88900001D01*
X112178202Y-88923803D01*
X112397500Y-89143101D01*
X112397500Y-89205239D01*
X112437274Y-89405198D01*
X112515295Y-89593556D01*
X112628563Y-89763074D01*
X112772726Y-89907237D01*
X112942244Y-90020505D01*
X113130602Y-90098526D01*
X113330561Y-90138300D01*
X113534439Y-90138300D01*
X113734398Y-90098526D01*
X113922756Y-90020505D01*
X114092274Y-89907237D01*
X114236437Y-89763074D01*
X114349705Y-89593556D01*
X114427726Y-89405198D01*
X114467500Y-89205239D01*
X114467500Y-89001361D01*
X114427726Y-88801402D01*
X114364210Y-88648061D01*
X122873400Y-88648061D01*
X122873400Y-88851939D01*
X122913174Y-89051898D01*
X122991195Y-89240256D01*
X123104463Y-89409774D01*
X123248626Y-89553937D01*
X123418144Y-89667205D01*
X123606502Y-89745226D01*
X123806461Y-89785000D01*
X124010339Y-89785000D01*
X124210298Y-89745226D01*
X124398656Y-89667205D01*
X124568174Y-89553937D01*
X124712337Y-89409774D01*
X124825605Y-89240256D01*
X124903626Y-89051898D01*
X124943400Y-88851939D01*
X124943400Y-88648061D01*
X124903626Y-88448102D01*
X124825605Y-88259744D01*
X124712337Y-88090226D01*
X124568174Y-87946063D01*
X124398656Y-87832795D01*
X124210298Y-87754774D01*
X124010339Y-87715000D01*
X123806461Y-87715000D01*
X123606502Y-87754774D01*
X123418144Y-87832795D01*
X123248626Y-87946063D01*
X123104463Y-88090226D01*
X122991195Y-88259744D01*
X122913174Y-88448102D01*
X122873400Y-88648061D01*
X114364210Y-88648061D01*
X114349705Y-88613044D01*
X114236437Y-88443526D01*
X114092274Y-88299363D01*
X113922756Y-88186095D01*
X113734398Y-88108074D01*
X113534439Y-88068300D01*
X113472301Y-88068300D01*
X113449200Y-88045199D01*
X113449200Y-87955800D01*
X113516539Y-87955800D01*
X113716498Y-87916026D01*
X113904856Y-87838005D01*
X114074374Y-87724737D01*
X114218537Y-87580574D01*
X114331805Y-87411056D01*
X114409826Y-87222698D01*
X114449600Y-87022739D01*
X114449600Y-86960601D01*
X115316540Y-86093661D01*
X115794800Y-86093661D01*
X115794800Y-86297539D01*
X115834574Y-86497498D01*
X115912595Y-86685856D01*
X116025863Y-86855374D01*
X116170026Y-86999537D01*
X116339544Y-87112805D01*
X116527902Y-87190826D01*
X116727861Y-87230600D01*
X116931739Y-87230600D01*
X117131698Y-87190826D01*
X117320056Y-87112805D01*
X117489574Y-86999537D01*
X117633737Y-86855374D01*
X117747005Y-86685856D01*
X117825026Y-86497498D01*
X117864800Y-86297539D01*
X117864800Y-86093661D01*
X117825026Y-85893702D01*
X117747005Y-85705344D01*
X117633737Y-85535826D01*
X117489574Y-85391663D01*
X117320056Y-85278395D01*
X117131698Y-85200374D01*
X116931739Y-85160600D01*
X116727861Y-85160600D01*
X116527902Y-85200374D01*
X116339544Y-85278395D01*
X116170026Y-85391663D01*
X116025863Y-85535826D01*
X115912595Y-85705344D01*
X115834574Y-85893702D01*
X115794800Y-86093661D01*
X115316540Y-86093661D01*
X118392540Y-83017661D01*
X119531200Y-83017661D01*
X119531200Y-83221539D01*
X119570974Y-83421498D01*
X119648995Y-83609856D01*
X119762263Y-83779374D01*
X119906426Y-83923537D01*
X120075944Y-84036805D01*
X120264302Y-84114826D01*
X120464261Y-84154600D01*
X120668139Y-84154600D01*
X120868098Y-84114826D01*
X121056456Y-84036805D01*
X121225974Y-83923537D01*
X121370137Y-83779374D01*
X121483405Y-83609856D01*
X121561426Y-83421498D01*
X121601200Y-83221539D01*
X121601200Y-83017661D01*
X121561426Y-82817702D01*
X121483405Y-82629344D01*
X121370137Y-82459826D01*
X121225974Y-82315663D01*
X121056456Y-82202395D01*
X120868098Y-82124374D01*
X120668139Y-82084600D01*
X120464261Y-82084600D01*
X120264302Y-82124374D01*
X120075944Y-82202395D01*
X119906426Y-82315663D01*
X119762263Y-82459826D01*
X119648995Y-82629344D01*
X119570974Y-82817702D01*
X119531200Y-83017661D01*
X118392540Y-83017661D01*
X120159940Y-81250261D01*
X122266300Y-81250261D01*
X122266300Y-81454139D01*
X122306074Y-81654098D01*
X122384095Y-81842456D01*
X122497363Y-82011974D01*
X122641526Y-82156137D01*
X122811044Y-82269405D01*
X122999402Y-82347426D01*
X123199361Y-82387200D01*
X123403239Y-82387200D01*
X123603198Y-82347426D01*
X123791556Y-82269405D01*
X123961074Y-82156137D01*
X124105237Y-82011974D01*
X124218505Y-81842456D01*
X124296526Y-81654098D01*
X124336300Y-81454139D01*
X124336300Y-81250261D01*
X124296526Y-81050302D01*
X124218505Y-80861944D01*
X124105237Y-80692426D01*
X123961074Y-80548263D01*
X123791556Y-80434995D01*
X123603198Y-80356974D01*
X123403239Y-80317200D01*
X123199361Y-80317200D01*
X122999402Y-80356974D01*
X122811044Y-80434995D01*
X122641526Y-80548263D01*
X122497363Y-80692426D01*
X122384095Y-80861944D01*
X122306074Y-81050302D01*
X122266300Y-81250261D01*
X120159940Y-81250261D01*
X128280600Y-73129603D01*
X128280600Y-81269598D01*
X124828399Y-84721800D01*
X124766261Y-84721800D01*
X124566302Y-84761574D01*
X124377944Y-84839595D01*
X124208426Y-84952863D01*
X124064263Y-85097026D01*
X123950995Y-85266544D01*
X123872974Y-85454902D01*
X123833200Y-85654861D01*
X123833200Y-85858739D01*
X123872974Y-86058698D01*
X123950995Y-86247056D01*
X124064263Y-86416574D01*
X124208426Y-86560737D01*
X124377944Y-86674005D01*
X124566302Y-86752026D01*
X124766261Y-86791800D01*
X124970139Y-86791800D01*
X125170098Y-86752026D01*
X125358456Y-86674005D01*
X125527974Y-86560737D01*
X125672137Y-86416574D01*
X125785405Y-86247056D01*
X125863426Y-86058698D01*
X125903200Y-85858739D01*
X125903200Y-85796601D01*
X129058340Y-82641461D01*
X132596200Y-82641461D01*
X132596200Y-82845339D01*
X132635974Y-83045298D01*
X132713995Y-83233656D01*
X132827263Y-83403174D01*
X132971426Y-83547337D01*
X133140944Y-83660605D01*
X133329302Y-83738626D01*
X133529261Y-83778400D01*
X133733139Y-83778400D01*
X133933098Y-83738626D01*
X134121456Y-83660605D01*
X134290974Y-83547337D01*
X134435137Y-83403174D01*
X134548405Y-83233656D01*
X134626426Y-83045298D01*
X134666200Y-82845339D01*
X134666200Y-82641461D01*
X134626426Y-82441502D01*
X134548405Y-82253144D01*
X134435137Y-82083626D01*
X134290974Y-81939463D01*
X134121456Y-81826195D01*
X133933098Y-81748174D01*
X133733139Y-81708400D01*
X133529261Y-81708400D01*
X133329302Y-81748174D01*
X133140944Y-81826195D01*
X132971426Y-81939463D01*
X132827263Y-82083626D01*
X132713995Y-82253144D01*
X132635974Y-82441502D01*
X132596200Y-82641461D01*
X129058340Y-82641461D01*
X129551604Y-82148198D01*
X129580601Y-82124401D01*
X129675574Y-82008676D01*
X129746146Y-81876647D01*
X129789603Y-81733386D01*
X129800600Y-81621733D01*
X129800600Y-81621725D01*
X129804276Y-81584400D01*
X129800600Y-81547075D01*
X129800600Y-63575920D01*
X129968509Y-63645470D01*
X130247680Y-63701000D01*
X130532320Y-63701000D01*
X130811491Y-63645470D01*
X131074464Y-63536543D01*
X131311134Y-63378405D01*
X131512405Y-63177134D01*
X131660000Y-62956243D01*
X131807595Y-63177134D01*
X132008866Y-63378405D01*
X132245536Y-63536543D01*
X132508509Y-63645470D01*
X132787680Y-63701000D01*
X133072320Y-63701000D01*
X133351491Y-63645470D01*
X133440001Y-63608808D01*
X133440000Y-77502072D01*
X133439944Y-77502095D01*
X133270426Y-77615363D01*
X133126263Y-77759526D01*
X133012995Y-77929044D01*
X132934974Y-78117402D01*
X132895200Y-78317361D01*
X132895200Y-78521239D01*
X132934974Y-78721198D01*
X133012995Y-78909556D01*
X133126263Y-79079074D01*
X133270426Y-79223237D01*
X133439944Y-79336505D01*
X133628302Y-79414526D01*
X133799183Y-79448516D01*
X133679799Y-79567900D01*
X133617661Y-79567900D01*
X133417702Y-79607674D01*
X133229344Y-79685695D01*
X133059826Y-79798963D01*
X132915663Y-79943126D01*
X132802395Y-80112644D01*
X132724374Y-80301002D01*
X132684600Y-80500961D01*
X132684600Y-80704839D01*
X132724374Y-80904798D01*
X132802395Y-81093156D01*
X132915663Y-81262674D01*
X133059826Y-81406837D01*
X133229344Y-81520105D01*
X133417702Y-81598126D01*
X133617661Y-81637900D01*
X133821539Y-81637900D01*
X134021498Y-81598126D01*
X134209856Y-81520105D01*
X134379374Y-81406837D01*
X134523537Y-81262674D01*
X134633545Y-81098035D01*
X134680044Y-81129105D01*
X134868402Y-81207126D01*
X135068361Y-81246900D01*
X135272239Y-81246900D01*
X135472198Y-81207126D01*
X135660556Y-81129105D01*
X135830074Y-81015837D01*
X135974237Y-80871674D01*
X136087505Y-80702156D01*
X136165526Y-80513798D01*
X136205300Y-80313839D01*
X136205300Y-80109961D01*
X136165526Y-79910002D01*
X136087505Y-79721644D01*
X135974237Y-79552126D01*
X135909706Y-79487595D01*
X138623403Y-76773899D01*
X138652401Y-76750101D01*
X138747374Y-76634376D01*
X138817946Y-76502347D01*
X138861403Y-76359086D01*
X138872400Y-76247433D01*
X138872400Y-76247424D01*
X138876076Y-76210101D01*
X138872400Y-76172778D01*
X138872400Y-67321201D01*
X140047101Y-68495903D01*
X140047100Y-76361889D01*
X140005298Y-76344574D01*
X139805339Y-76304800D01*
X139601461Y-76304800D01*
X139401502Y-76344574D01*
X139213144Y-76422595D01*
X139043626Y-76535863D01*
X138899463Y-76680026D01*
X138786195Y-76849544D01*
X138708174Y-77037902D01*
X138668400Y-77237861D01*
X138668400Y-77441739D01*
X138708174Y-77641698D01*
X138786195Y-77830056D01*
X138899463Y-77999574D01*
X139043626Y-78143737D01*
X139213144Y-78257005D01*
X139401502Y-78335026D01*
X139601461Y-78374800D01*
X139805339Y-78374800D01*
X140005298Y-78335026D01*
X140047100Y-78317711D01*
X140047100Y-78419389D01*
X140003163Y-78463326D01*
X139889895Y-78632844D01*
X139811874Y-78821202D01*
X139772100Y-79021161D01*
X139772100Y-79225039D01*
X139811874Y-79424998D01*
X139889895Y-79613356D01*
X140003163Y-79782874D01*
X140061044Y-79840755D01*
X134785099Y-85116700D01*
X134750734Y-85116700D01*
X134781100Y-84964039D01*
X134781100Y-84760161D01*
X134741326Y-84560202D01*
X134663305Y-84371844D01*
X134550037Y-84202326D01*
X134405874Y-84058163D01*
X134236356Y-83944895D01*
X134047998Y-83866874D01*
X133848039Y-83827100D01*
X133644161Y-83827100D01*
X133444202Y-83866874D01*
X133255844Y-83944895D01*
X133086326Y-84058163D01*
X132942163Y-84202326D01*
X132828895Y-84371844D01*
X132750874Y-84560202D01*
X132711100Y-84760161D01*
X132711100Y-84964039D01*
X132750874Y-85163998D01*
X132828895Y-85352356D01*
X132942163Y-85521874D01*
X132965734Y-85545445D01*
X132953574Y-85574802D01*
X132913800Y-85774761D01*
X132913800Y-85978639D01*
X132953574Y-86178598D01*
X133031595Y-86366956D01*
X133144863Y-86536474D01*
X133213057Y-86604668D01*
X133176300Y-86789461D01*
X133176300Y-86993339D01*
X133216074Y-87193298D01*
X133294095Y-87381656D01*
X133407363Y-87551174D01*
X133551526Y-87695337D01*
X133721044Y-87808605D01*
X133909402Y-87886626D01*
X134109361Y-87926400D01*
X134313239Y-87926400D01*
X134513198Y-87886626D01*
X134701556Y-87808605D01*
X134783039Y-87754160D01*
X133258166Y-89279033D01*
X133255844Y-89279995D01*
X133086326Y-89393263D01*
X132942163Y-89537426D01*
X132828895Y-89706944D01*
X132750874Y-89895302D01*
X132711100Y-90095261D01*
X132711100Y-90299139D01*
X132750874Y-90499098D01*
X132828895Y-90687456D01*
X132942163Y-90856974D01*
X133086326Y-91001137D01*
X133255844Y-91114405D01*
X133444202Y-91192426D01*
X133644161Y-91232200D01*
X133848039Y-91232200D01*
X134047998Y-91192426D01*
X134236356Y-91114405D01*
X134405874Y-91001137D01*
X134550037Y-90856974D01*
X134663305Y-90687456D01*
X134741326Y-90499098D01*
X134781100Y-90299139D01*
X134781100Y-90095261D01*
X134749650Y-89937151D01*
X140782395Y-83904406D01*
X140867826Y-83989837D01*
X141037344Y-84103105D01*
X141175335Y-84160263D01*
X136627199Y-88708400D01*
X136565061Y-88708400D01*
X136365102Y-88748174D01*
X136176744Y-88826195D01*
X136007226Y-88939463D01*
X135863063Y-89083626D01*
X135749795Y-89253144D01*
X135671774Y-89441502D01*
X135632000Y-89641461D01*
X135632000Y-89845339D01*
X135671774Y-90045298D01*
X135749795Y-90233656D01*
X135863063Y-90403174D01*
X136007226Y-90547337D01*
X136176744Y-90660605D01*
X136365102Y-90738626D01*
X136565061Y-90778400D01*
X136768939Y-90778400D01*
X136968898Y-90738626D01*
X137157256Y-90660605D01*
X137326774Y-90547337D01*
X137470937Y-90403174D01*
X137584205Y-90233656D01*
X137662226Y-90045298D01*
X137702000Y-89845339D01*
X137702000Y-89783201D01*
X146050400Y-81434802D01*
X146050400Y-83481498D01*
X145214390Y-84317508D01*
X145207405Y-84300644D01*
X145094137Y-84131126D01*
X144949974Y-83986963D01*
X144780456Y-83873695D01*
X144592098Y-83795674D01*
X144392139Y-83755900D01*
X144188261Y-83755900D01*
X143988302Y-83795674D01*
X143799944Y-83873695D01*
X143630426Y-83986963D01*
X143486263Y-84131126D01*
X143372995Y-84300644D01*
X143294974Y-84489002D01*
X143255200Y-84688961D01*
X143255200Y-84892839D01*
X143294974Y-85092798D01*
X143372995Y-85281156D01*
X143486263Y-85450674D01*
X143590716Y-85555127D01*
X143483195Y-85716044D01*
X143405174Y-85904402D01*
X143365400Y-86104361D01*
X143365400Y-86308239D01*
X143405174Y-86508198D01*
X143483195Y-86696556D01*
X143596463Y-86866074D01*
X143740626Y-87010237D01*
X143910144Y-87123505D01*
X144098502Y-87201526D01*
X144298461Y-87241300D01*
X144502339Y-87241300D01*
X144702298Y-87201526D01*
X144890656Y-87123505D01*
X145060174Y-87010237D01*
X145204337Y-86866074D01*
X145317605Y-86696556D01*
X145395626Y-86508198D01*
X145435400Y-86308239D01*
X145435400Y-86246101D01*
X147321404Y-84360098D01*
X147350401Y-84336301D01*
X147445374Y-84220576D01*
X147515946Y-84088547D01*
X147559403Y-83945286D01*
X147570400Y-83833633D01*
X147570400Y-83833625D01*
X147574076Y-83796300D01*
X147570400Y-83758975D01*
X147570400Y-63571695D01*
X147748509Y-63645470D01*
X148027680Y-63701000D01*
X148312320Y-63701000D01*
X148591491Y-63645470D01*
X148680001Y-63608808D01*
X148680000Y-81252878D01*
X148676324Y-81290200D01*
X148680000Y-81327522D01*
X148680000Y-81327532D01*
X148690997Y-81439185D01*
X148719504Y-81533161D01*
X148734454Y-81582446D01*
X148805026Y-81714476D01*
X148832682Y-81748174D01*
X148899999Y-81830201D01*
X148929003Y-81854004D01*
X151587500Y-84512502D01*
X151611299Y-84541501D01*
X151727024Y-84636474D01*
X151857777Y-84706364D01*
X151815695Y-84769344D01*
X151737674Y-84957702D01*
X151697900Y-85157661D01*
X151697900Y-85361539D01*
X151737674Y-85561498D01*
X151801971Y-85716724D01*
X151693644Y-85761595D01*
X151524126Y-85874863D01*
X151379963Y-86019026D01*
X151266695Y-86188544D01*
X151188674Y-86376902D01*
X151148900Y-86576861D01*
X151148900Y-86780739D01*
X151188674Y-86980698D01*
X151266695Y-87169056D01*
X151379963Y-87338574D01*
X151524126Y-87482737D01*
X151693644Y-87596005D01*
X151882002Y-87674026D01*
X152081961Y-87713800D01*
X152285839Y-87713800D01*
X152485798Y-87674026D01*
X152674156Y-87596005D01*
X152843674Y-87482737D01*
X152987837Y-87338574D01*
X153101105Y-87169056D01*
X153179126Y-86980698D01*
X153218900Y-86780739D01*
X153218900Y-86576861D01*
X153179126Y-86376902D01*
X153114829Y-86221676D01*
X153223156Y-86176805D01*
X153392674Y-86063537D01*
X153536837Y-85919374D01*
X153576665Y-85859767D01*
X158425101Y-90708203D01*
X158448899Y-90737201D01*
X158477897Y-90760999D01*
X158564623Y-90832174D01*
X158588842Y-90845119D01*
X158596763Y-90856974D01*
X158740926Y-91001137D01*
X158910444Y-91114405D01*
X159098802Y-91192426D01*
X159298761Y-91232200D01*
X159502639Y-91232200D01*
X159702598Y-91192426D01*
X159890956Y-91114405D01*
X160060474Y-91001137D01*
X160204637Y-90856974D01*
X160317905Y-90687456D01*
X160395926Y-90499098D01*
X160435700Y-90299139D01*
X160435700Y-90095261D01*
X160395926Y-89895302D01*
X160317905Y-89706944D01*
X160204637Y-89537426D01*
X160060474Y-89393263D01*
X159890956Y-89279995D01*
X159702598Y-89201974D01*
X159502639Y-89162200D01*
X159298761Y-89162200D01*
X159098802Y-89201974D01*
X159077358Y-89210856D01*
X158777463Y-88910961D01*
X169512400Y-88910961D01*
X169512400Y-89114839D01*
X169552174Y-89314798D01*
X169630195Y-89503156D01*
X169743463Y-89672674D01*
X169887626Y-89816837D01*
X170057144Y-89930105D01*
X170245502Y-90008126D01*
X170445461Y-90047900D01*
X170649339Y-90047900D01*
X170849298Y-90008126D01*
X171037656Y-89930105D01*
X171207174Y-89816837D01*
X171351337Y-89672674D01*
X171464605Y-89503156D01*
X171542626Y-89314798D01*
X171582400Y-89114839D01*
X171582400Y-88910961D01*
X171542626Y-88711002D01*
X171464605Y-88522644D01*
X171351337Y-88353126D01*
X171207174Y-88208963D01*
X171037656Y-88095695D01*
X170849298Y-88017674D01*
X170649339Y-87977900D01*
X170445461Y-87977900D01*
X170245502Y-88017674D01*
X170057144Y-88095695D01*
X169887626Y-88208963D01*
X169743463Y-88353126D01*
X169630195Y-88522644D01*
X169552174Y-88711002D01*
X169512400Y-88910961D01*
X158777463Y-88910961D01*
X156470579Y-86604077D01*
X156587374Y-86526037D01*
X156731537Y-86381874D01*
X156844805Y-86212356D01*
X156922826Y-86023998D01*
X156962600Y-85824039D01*
X156962600Y-85620161D01*
X156922826Y-85420202D01*
X156844805Y-85231844D01*
X156731537Y-85062326D01*
X156587374Y-84918163D01*
X156417856Y-84804895D01*
X156229498Y-84726874D01*
X156029539Y-84687100D01*
X155825661Y-84687100D01*
X155625702Y-84726874D01*
X155437344Y-84804895D01*
X155267826Y-84918163D01*
X155123663Y-85062326D01*
X155045623Y-85179122D01*
X153357004Y-83490503D01*
X153333201Y-83461499D01*
X153217476Y-83366526D01*
X153160210Y-83335916D01*
X153175626Y-83298698D01*
X153215400Y-83098739D01*
X153215400Y-82894861D01*
X153184159Y-82737800D01*
X153354739Y-82737800D01*
X153554698Y-82698026D01*
X153743056Y-82620005D01*
X153912574Y-82506737D01*
X154056737Y-82362574D01*
X154170005Y-82193056D01*
X154248026Y-82004698D01*
X154287800Y-81804739D01*
X154287800Y-81600861D01*
X154255754Y-81439756D01*
X157468500Y-84652502D01*
X157468500Y-84714639D01*
X157508274Y-84914598D01*
X157586295Y-85102956D01*
X157699563Y-85272474D01*
X157843726Y-85416637D01*
X158013244Y-85529905D01*
X158201602Y-85607926D01*
X158401561Y-85647700D01*
X158605439Y-85647700D01*
X158778318Y-85613312D01*
X158809363Y-85659774D01*
X158953526Y-85803937D01*
X159123044Y-85917205D01*
X159311402Y-85995226D01*
X159511361Y-86035000D01*
X159715239Y-86035000D01*
X159915198Y-85995226D01*
X160103556Y-85917205D01*
X160273074Y-85803937D01*
X160417237Y-85659774D01*
X160515534Y-85512661D01*
X169102700Y-85512661D01*
X169102700Y-85716539D01*
X169142474Y-85916498D01*
X169220495Y-86104856D01*
X169333763Y-86274374D01*
X169477926Y-86418537D01*
X169647444Y-86531805D01*
X169835802Y-86609826D01*
X170035761Y-86649600D01*
X170239639Y-86649600D01*
X170439598Y-86609826D01*
X170627956Y-86531805D01*
X170797474Y-86418537D01*
X170941637Y-86274374D01*
X171054905Y-86104856D01*
X171132926Y-85916498D01*
X171172700Y-85716539D01*
X171172700Y-85512661D01*
X171132926Y-85312702D01*
X171054905Y-85124344D01*
X170941637Y-84954826D01*
X170797474Y-84810663D01*
X170627956Y-84697395D01*
X170439598Y-84619374D01*
X170239639Y-84579600D01*
X170035761Y-84579600D01*
X169835802Y-84619374D01*
X169647444Y-84697395D01*
X169477926Y-84810663D01*
X169333763Y-84954826D01*
X169220495Y-85124344D01*
X169142474Y-85312702D01*
X169102700Y-85512661D01*
X160515534Y-85512661D01*
X160530505Y-85490256D01*
X160608526Y-85301898D01*
X160648300Y-85101939D01*
X160648300Y-84898061D01*
X160608526Y-84698102D01*
X160530505Y-84509744D01*
X160417237Y-84340226D01*
X160273074Y-84196063D01*
X160103556Y-84082795D01*
X159915198Y-84004774D01*
X159715239Y-83965000D01*
X159511361Y-83965000D01*
X159338482Y-83999388D01*
X159307437Y-83952926D01*
X159163274Y-83808763D01*
X158993756Y-83695495D01*
X158805398Y-83617474D01*
X158605439Y-83577700D01*
X158543302Y-83577700D01*
X156376563Y-81410961D01*
X169615000Y-81410961D01*
X169615000Y-81614839D01*
X169654774Y-81814798D01*
X169732795Y-82003156D01*
X169846063Y-82172674D01*
X169990226Y-82316837D01*
X170159744Y-82430105D01*
X170348102Y-82508126D01*
X170548061Y-82547900D01*
X170751939Y-82547900D01*
X170951898Y-82508126D01*
X171140256Y-82430105D01*
X171309774Y-82316837D01*
X171453937Y-82172674D01*
X171567205Y-82003156D01*
X171645226Y-81814798D01*
X171685000Y-81614839D01*
X171685000Y-81410961D01*
X171645226Y-81211002D01*
X171567205Y-81022644D01*
X171453937Y-80853126D01*
X171309774Y-80708963D01*
X171140256Y-80595695D01*
X170951898Y-80517674D01*
X170751939Y-80477900D01*
X170548061Y-80477900D01*
X170348102Y-80517674D01*
X170159744Y-80595695D01*
X169990226Y-80708963D01*
X169846063Y-80853126D01*
X169732795Y-81022644D01*
X169654774Y-81211002D01*
X169615000Y-81410961D01*
X156376563Y-81410961D01*
X154669563Y-79703961D01*
X155440600Y-79703961D01*
X155440600Y-79907839D01*
X155480374Y-80107798D01*
X155558395Y-80296156D01*
X155671663Y-80465674D01*
X155815826Y-80609837D01*
X155985344Y-80723105D01*
X156173702Y-80801126D01*
X156373661Y-80840900D01*
X156577539Y-80840900D01*
X156777498Y-80801126D01*
X156965856Y-80723105D01*
X157135374Y-80609837D01*
X157279537Y-80465674D01*
X157392805Y-80296156D01*
X157470826Y-80107798D01*
X157510600Y-79907839D01*
X157510600Y-79703961D01*
X157470826Y-79504002D01*
X157392805Y-79315644D01*
X157279537Y-79146126D01*
X157135374Y-79001963D01*
X156965856Y-78888695D01*
X156777498Y-78810674D01*
X156577539Y-78770900D01*
X156373661Y-78770900D01*
X156173702Y-78810674D01*
X155985344Y-78888695D01*
X155815826Y-79001963D01*
X155671663Y-79146126D01*
X155558395Y-79315644D01*
X155480374Y-79504002D01*
X155440600Y-79703961D01*
X154669563Y-79703961D01*
X152307400Y-77341799D01*
X152307400Y-77179161D01*
X156440900Y-77179161D01*
X156440900Y-77383039D01*
X156480674Y-77582998D01*
X156558695Y-77771356D01*
X156671963Y-77940874D01*
X156816126Y-78085037D01*
X156985644Y-78198305D01*
X157174002Y-78276326D01*
X157373961Y-78316100D01*
X157577839Y-78316100D01*
X157777798Y-78276326D01*
X157966156Y-78198305D01*
X158135674Y-78085037D01*
X158279837Y-77940874D01*
X158393105Y-77771356D01*
X158471126Y-77582998D01*
X158510900Y-77383039D01*
X158510900Y-77192461D01*
X158878100Y-77192461D01*
X158878100Y-77396339D01*
X158917874Y-77596298D01*
X158995895Y-77784656D01*
X159109163Y-77954174D01*
X159253326Y-78098337D01*
X159422844Y-78211605D01*
X159611202Y-78289626D01*
X159811161Y-78329400D01*
X160015039Y-78329400D01*
X160214998Y-78289626D01*
X160403356Y-78211605D01*
X160572874Y-78098337D01*
X160717037Y-77954174D01*
X160830305Y-77784656D01*
X160908326Y-77596298D01*
X160948100Y-77396339D01*
X160948100Y-77192461D01*
X160908326Y-76992502D01*
X160830305Y-76804144D01*
X160717037Y-76634626D01*
X160572874Y-76490463D01*
X160403356Y-76377195D01*
X160214998Y-76299174D01*
X160015039Y-76259400D01*
X159811161Y-76259400D01*
X159611202Y-76299174D01*
X159422844Y-76377195D01*
X159253326Y-76490463D01*
X159109163Y-76634626D01*
X158995895Y-76804144D01*
X158917874Y-76992502D01*
X158878100Y-77192461D01*
X158510900Y-77192461D01*
X158510900Y-77179161D01*
X158471126Y-76979202D01*
X158393105Y-76790844D01*
X158279837Y-76621326D01*
X158135674Y-76477163D01*
X157966156Y-76363895D01*
X157777798Y-76285874D01*
X157577839Y-76246100D01*
X157373961Y-76246100D01*
X157174002Y-76285874D01*
X156985644Y-76363895D01*
X156816126Y-76477163D01*
X156671963Y-76621326D01*
X156558695Y-76790844D01*
X156480674Y-76979202D01*
X156440900Y-77179161D01*
X152307400Y-77179161D01*
X152307400Y-77099461D01*
X152328802Y-77108326D01*
X152528761Y-77148100D01*
X152732639Y-77148100D01*
X152932598Y-77108326D01*
X153120956Y-77030305D01*
X153290474Y-76917037D01*
X153434637Y-76772874D01*
X153547905Y-76603356D01*
X153625926Y-76414998D01*
X153665700Y-76215039D01*
X153665700Y-76011161D01*
X153625926Y-75811202D01*
X153547905Y-75622844D01*
X153434637Y-75453326D01*
X153338751Y-75357440D01*
X153418674Y-75304037D01*
X153562837Y-75159874D01*
X153676105Y-74990356D01*
X153750647Y-74810397D01*
X153785974Y-74987998D01*
X153863995Y-75176356D01*
X153977263Y-75345874D01*
X154121426Y-75490037D01*
X154290944Y-75603305D01*
X154479302Y-75681326D01*
X154679261Y-75721100D01*
X154883139Y-75721100D01*
X155083098Y-75681326D01*
X155271456Y-75603305D01*
X155440974Y-75490037D01*
X155585137Y-75345874D01*
X155698405Y-75176356D01*
X155776426Y-74987998D01*
X155816200Y-74788039D01*
X155816200Y-74584161D01*
X155776426Y-74384202D01*
X155698405Y-74195844D01*
X155585137Y-74026326D01*
X155440974Y-73882163D01*
X155271456Y-73768895D01*
X155083098Y-73690874D01*
X154883139Y-73651100D01*
X154682701Y-73651100D01*
X160467755Y-67866046D01*
X160433500Y-68038261D01*
X160433500Y-68242139D01*
X160473274Y-68442098D01*
X160551295Y-68630456D01*
X160664563Y-68799974D01*
X160808726Y-68944137D01*
X160978244Y-69057405D01*
X161166602Y-69135426D01*
X161366561Y-69175200D01*
X161570439Y-69175200D01*
X161770398Y-69135426D01*
X161958756Y-69057405D01*
X162128274Y-68944137D01*
X162272437Y-68799974D01*
X162385705Y-68630456D01*
X162463726Y-68442098D01*
X162503500Y-68242139D01*
X162503500Y-68038261D01*
X162463726Y-67838302D01*
X162385705Y-67649944D01*
X162272437Y-67480426D01*
X162128274Y-67336263D01*
X161958756Y-67222995D01*
X161770398Y-67144974D01*
X161570439Y-67105200D01*
X161366561Y-67105200D01*
X161194346Y-67139455D01*
X163920001Y-64413801D01*
X163920000Y-72789778D01*
X163916324Y-72827100D01*
X163920000Y-72864422D01*
X163920000Y-72864432D01*
X163930997Y-72976085D01*
X163963782Y-73084163D01*
X163974454Y-73119346D01*
X164045026Y-73251376D01*
X164084871Y-73299926D01*
X164139999Y-73367101D01*
X164169003Y-73390904D01*
X177212060Y-86433963D01*
X177204900Y-86469961D01*
X177204900Y-86673839D01*
X177244674Y-86873798D01*
X177322695Y-87062156D01*
X177435963Y-87231674D01*
X177580126Y-87375837D01*
X177749644Y-87489105D01*
X177938002Y-87567126D01*
X178137961Y-87606900D01*
X178341839Y-87606900D01*
X178541798Y-87567126D01*
X178711939Y-87496651D01*
X178733895Y-87549656D01*
X178847163Y-87719174D01*
X178991326Y-87863337D01*
X179160844Y-87976605D01*
X179349202Y-88054626D01*
X179549161Y-88094400D01*
X179753039Y-88094400D01*
X179952998Y-88054626D01*
X180141356Y-87976605D01*
X180310874Y-87863337D01*
X180455037Y-87719174D01*
X180568305Y-87549656D01*
X180646326Y-87361298D01*
X180686100Y-87161339D01*
X180686100Y-86957461D01*
X180646326Y-86757502D01*
X180568305Y-86569144D01*
X180455037Y-86399626D01*
X180411100Y-86355689D01*
X180411100Y-85753630D01*
X180586602Y-85826326D01*
X180786561Y-85866100D01*
X180990439Y-85866100D01*
X181190398Y-85826326D01*
X181378756Y-85748305D01*
X181548274Y-85635037D01*
X181692437Y-85490874D01*
X181805705Y-85321356D01*
X181883726Y-85132998D01*
X181923500Y-84933039D01*
X181923500Y-84729161D01*
X181883726Y-84529202D01*
X181805705Y-84340844D01*
X181692437Y-84171326D01*
X181648500Y-84127389D01*
X181648500Y-77460823D01*
X181652176Y-77423500D01*
X181648500Y-77386177D01*
X181648500Y-77386167D01*
X181637503Y-77274514D01*
X181594046Y-77131253D01*
X181523474Y-76999224D01*
X181428501Y-76883499D01*
X181399504Y-76859702D01*
X174028306Y-69488505D01*
X174075837Y-69440974D01*
X174189105Y-69271456D01*
X174267126Y-69083098D01*
X174306900Y-68883139D01*
X174306900Y-68821001D01*
X177891004Y-65236898D01*
X177920001Y-65213101D01*
X178014974Y-65097376D01*
X178085546Y-64965347D01*
X178129003Y-64822086D01*
X178140000Y-64710433D01*
X178140000Y-64710425D01*
X178143676Y-64673100D01*
X178140000Y-64635775D01*
X178140000Y-63608808D01*
X178228509Y-63645470D01*
X178507680Y-63701000D01*
X178792320Y-63701000D01*
X179071491Y-63645470D01*
X179334464Y-63536543D01*
X179571134Y-63378405D01*
X179772405Y-63177134D01*
X179930543Y-62940464D01*
X180039470Y-62677491D01*
X180095000Y-62398320D01*
X180095000Y-62113680D01*
X180039470Y-61834509D01*
X179930543Y-61571536D01*
X179772405Y-61334866D01*
X179571134Y-61133595D01*
X179350243Y-60986000D01*
X179571134Y-60838405D01*
X179772405Y-60637134D01*
X179930543Y-60400464D01*
X180039470Y-60137491D01*
X180095000Y-59858320D01*
X180095000Y-59573680D01*
X180039470Y-59294509D01*
X179930543Y-59031536D01*
X179772405Y-58794866D01*
X179571134Y-58593595D01*
X179350243Y-58446000D01*
X179571134Y-58298405D01*
X179772405Y-58097134D01*
X179930543Y-57860464D01*
X180039470Y-57597491D01*
X180095000Y-57318320D01*
X180095000Y-57033680D01*
X180039470Y-56754509D01*
X179930543Y-56491536D01*
X179772405Y-56254866D01*
X179571134Y-56053595D01*
X179350243Y-55906000D01*
X179571134Y-55758405D01*
X179772405Y-55557134D01*
X179930543Y-55320464D01*
X180039470Y-55057491D01*
X180095000Y-54778320D01*
X180095000Y-54493680D01*
X180039470Y-54214509D01*
X179930543Y-53951536D01*
X179772405Y-53714866D01*
X179571134Y-53513595D01*
X179334464Y-53355457D01*
X179071491Y-53246530D01*
X178792320Y-53191000D01*
X178507680Y-53191000D01*
X178228509Y-53246530D01*
X177965536Y-53355457D01*
X177728866Y-53513595D01*
X177527595Y-53714866D01*
X177380000Y-53935757D01*
X177232405Y-53714866D01*
X177031134Y-53513595D01*
X176794464Y-53355457D01*
X176531491Y-53246530D01*
X176252320Y-53191000D01*
X175967680Y-53191000D01*
X175688509Y-53246530D01*
X175425536Y-53355457D01*
X175188866Y-53513595D01*
X174987595Y-53714866D01*
X174840000Y-53935757D01*
X174692405Y-53714866D01*
X174491134Y-53513595D01*
X174254464Y-53355457D01*
X173991491Y-53246530D01*
X173712320Y-53191000D01*
X173427680Y-53191000D01*
X173148509Y-53246530D01*
X172885536Y-53355457D01*
X172648866Y-53513595D01*
X172447595Y-53714866D01*
X172300000Y-53935757D01*
X172152405Y-53714866D01*
X171951134Y-53513595D01*
X171714464Y-53355457D01*
X171451491Y-53246530D01*
X171172320Y-53191000D01*
X170887680Y-53191000D01*
X170608509Y-53246530D01*
X170345536Y-53355457D01*
X170108866Y-53513595D01*
X169907595Y-53714866D01*
X169760000Y-53935757D01*
X169612405Y-53714866D01*
X169411134Y-53513595D01*
X169174464Y-53355457D01*
X168911491Y-53246530D01*
X168632320Y-53191000D01*
X168347680Y-53191000D01*
X168068509Y-53246530D01*
X167805536Y-53355457D01*
X167568866Y-53513595D01*
X167367595Y-53714866D01*
X167220000Y-53935757D01*
X167072405Y-53714866D01*
X166871134Y-53513595D01*
X166634464Y-53355457D01*
X166371491Y-53246530D01*
X166092320Y-53191000D01*
X165807680Y-53191000D01*
X165528509Y-53246530D01*
X165265536Y-53355457D01*
X165028866Y-53513595D01*
X164827595Y-53714866D01*
X164680000Y-53935757D01*
X164532405Y-53714866D01*
X164331134Y-53513595D01*
X164094464Y-53355457D01*
X163831491Y-53246530D01*
X163552320Y-53191000D01*
X163267680Y-53191000D01*
X162988509Y-53246530D01*
X162725536Y-53355457D01*
X162488866Y-53513595D01*
X162287595Y-53714866D01*
X162140000Y-53935757D01*
X161992405Y-53714866D01*
X161791134Y-53513595D01*
X161554464Y-53355457D01*
X161291491Y-53246530D01*
X161012320Y-53191000D01*
X160727680Y-53191000D01*
X160448509Y-53246530D01*
X160185536Y-53355457D01*
X159948866Y-53513595D01*
X159747595Y-53714866D01*
X159600000Y-53935757D01*
X159452405Y-53714866D01*
X159251134Y-53513595D01*
X159014464Y-53355457D01*
X158751491Y-53246530D01*
X158472320Y-53191000D01*
X158187680Y-53191000D01*
X157908509Y-53246530D01*
X157645536Y-53355457D01*
X157408866Y-53513595D01*
X157207595Y-53714866D01*
X157060000Y-53935757D01*
X156912405Y-53714866D01*
X156711134Y-53513595D01*
X156474464Y-53355457D01*
X156211491Y-53246530D01*
X155932320Y-53191000D01*
X155647680Y-53191000D01*
X155368509Y-53246530D01*
X155105536Y-53355457D01*
X154868866Y-53513595D01*
X154667595Y-53714866D01*
X154520000Y-53935757D01*
X154372405Y-53714866D01*
X154171134Y-53513595D01*
X153934464Y-53355457D01*
X153671491Y-53246530D01*
X153392320Y-53191000D01*
X153107680Y-53191000D01*
X152828509Y-53246530D01*
X152565536Y-53355457D01*
X152328866Y-53513595D01*
X152127595Y-53714866D01*
X151980000Y-53935757D01*
X151832405Y-53714866D01*
X151631134Y-53513595D01*
X151394464Y-53355457D01*
X151131491Y-53246530D01*
X150852320Y-53191000D01*
X150567680Y-53191000D01*
X150288509Y-53246530D01*
X150025536Y-53355457D01*
X149788866Y-53513595D01*
X149587595Y-53714866D01*
X149440000Y-53935757D01*
X149292405Y-53714866D01*
X149091134Y-53513595D01*
X148854464Y-53355457D01*
X148591491Y-53246530D01*
X148312320Y-53191000D01*
X148027680Y-53191000D01*
X147748509Y-53246530D01*
X147485536Y-53355457D01*
X147248866Y-53513595D01*
X147047595Y-53714866D01*
X146900000Y-53935757D01*
X146752405Y-53714866D01*
X146551134Y-53513595D01*
X146314464Y-53355457D01*
X146051491Y-53246530D01*
X145772320Y-53191000D01*
X145487680Y-53191000D01*
X145208509Y-53246530D01*
X144945536Y-53355457D01*
X144708866Y-53513595D01*
X144507595Y-53714866D01*
X144360000Y-53935757D01*
X144212405Y-53714866D01*
X144011134Y-53513595D01*
X143774464Y-53355457D01*
X143511491Y-53246530D01*
X143232320Y-53191000D01*
X142947680Y-53191000D01*
X142668509Y-53246530D01*
X142405536Y-53355457D01*
X142168866Y-53513595D01*
X141967595Y-53714866D01*
X141820000Y-53935757D01*
X141672405Y-53714866D01*
X141471134Y-53513595D01*
X141234464Y-53355457D01*
X140971491Y-53246530D01*
X140692320Y-53191000D01*
X140407680Y-53191000D01*
X140128509Y-53246530D01*
X139865536Y-53355457D01*
X139628866Y-53513595D01*
X139427595Y-53714866D01*
X139280000Y-53935757D01*
X139132405Y-53714866D01*
X138931134Y-53513595D01*
X138694464Y-53355457D01*
X138431491Y-53246530D01*
X138152320Y-53191000D01*
X137867680Y-53191000D01*
X137588509Y-53246530D01*
X137325536Y-53355457D01*
X137088866Y-53513595D01*
X136887595Y-53714866D01*
X136740000Y-53935757D01*
X136592405Y-53714866D01*
X136391134Y-53513595D01*
X136154464Y-53355457D01*
X135891491Y-53246530D01*
X135612320Y-53191000D01*
X135327680Y-53191000D01*
X135048509Y-53246530D01*
X134785536Y-53355457D01*
X134548866Y-53513595D01*
X134347595Y-53714866D01*
X134200000Y-53935757D01*
X134052405Y-53714866D01*
X133851134Y-53513595D01*
X133614464Y-53355457D01*
X133351491Y-53246530D01*
X133072320Y-53191000D01*
X132787680Y-53191000D01*
X132508509Y-53246530D01*
X132245536Y-53355457D01*
X132008866Y-53513595D01*
X131807595Y-53714866D01*
X131660000Y-53935757D01*
X131512405Y-53714866D01*
X131311134Y-53513595D01*
X131074464Y-53355457D01*
X130811491Y-53246530D01*
X130532320Y-53191000D01*
X130247680Y-53191000D01*
X129968509Y-53246530D01*
X129705536Y-53355457D01*
X129468866Y-53513595D01*
X129267595Y-53714866D01*
X129120000Y-53935757D01*
X128972405Y-53714866D01*
X128771134Y-53513595D01*
X128534464Y-53355457D01*
X128271491Y-53246530D01*
X127992320Y-53191000D01*
X127707680Y-53191000D01*
X127428509Y-53246530D01*
X127165536Y-53355457D01*
X126928866Y-53513595D01*
X126727595Y-53714866D01*
X126580000Y-53935757D01*
X126432405Y-53714866D01*
X126231134Y-53513595D01*
X125994464Y-53355457D01*
X125731491Y-53246530D01*
X125452320Y-53191000D01*
X125167680Y-53191000D01*
X124888509Y-53246530D01*
X124625536Y-53355457D01*
X124388866Y-53513595D01*
X124187595Y-53714866D01*
X124040000Y-53935757D01*
X123892405Y-53714866D01*
X123691134Y-53513595D01*
X123454464Y-53355457D01*
X123191491Y-53246530D01*
X122912320Y-53191000D01*
X122627680Y-53191000D01*
X122348509Y-53246530D01*
X122085536Y-53355457D01*
X121848866Y-53513595D01*
X121647595Y-53714866D01*
X121500000Y-53935757D01*
X121352405Y-53714866D01*
X121151134Y-53513595D01*
X120914464Y-53355457D01*
X120651491Y-53246530D01*
X120372320Y-53191000D01*
X120087680Y-53191000D01*
X119808509Y-53246530D01*
X119545536Y-53355457D01*
X119308866Y-53513595D01*
X119107595Y-53714866D01*
X118960000Y-53935757D01*
X118812405Y-53714866D01*
X118611134Y-53513595D01*
X118374464Y-53355457D01*
X118111491Y-53246530D01*
X117832320Y-53191000D01*
X117547680Y-53191000D01*
X117268509Y-53246530D01*
X117005536Y-53355457D01*
X116768866Y-53513595D01*
X116567595Y-53714866D01*
X116420000Y-53935757D01*
X116272405Y-53714866D01*
X116071134Y-53513595D01*
X115834464Y-53355457D01*
X115571491Y-53246530D01*
X115292320Y-53191000D01*
X115007680Y-53191000D01*
X114728509Y-53246530D01*
X114465536Y-53355457D01*
X114228866Y-53513595D01*
X114027595Y-53714866D01*
X113869457Y-53951536D01*
X113760530Y-54214509D01*
X113705000Y-54493680D01*
X113705000Y-54778320D01*
X113760530Y-55057491D01*
X113869457Y-55320464D01*
X114027595Y-55557134D01*
X114228866Y-55758405D01*
X114449757Y-55906000D01*
X114228866Y-56053595D01*
X114027595Y-56254866D01*
X113869457Y-56491536D01*
X113760530Y-56754509D01*
X113705000Y-57033680D01*
X113705000Y-57318320D01*
X113760530Y-57597491D01*
X113869457Y-57860464D01*
X114027595Y-58097134D01*
X114228866Y-58298405D01*
X114449757Y-58446000D01*
X114228866Y-58593595D01*
X114027595Y-58794866D01*
X113869457Y-59031536D01*
X113760530Y-59294509D01*
X113705000Y-59573680D01*
X113705000Y-59858320D01*
X113760530Y-60137491D01*
X113869457Y-60400464D01*
X114027595Y-60637134D01*
X114228866Y-60838405D01*
X114449757Y-60986000D01*
X114228866Y-61133595D01*
X114027595Y-61334866D01*
X113869457Y-61571536D01*
X113760530Y-61834509D01*
X113705000Y-62113680D01*
X113705000Y-62398320D01*
X113760530Y-62677491D01*
X113869457Y-62940464D01*
X114027595Y-63177134D01*
X114228866Y-63378405D01*
X114465536Y-63536543D01*
X114728509Y-63645470D01*
X115007680Y-63701000D01*
X115292320Y-63701000D01*
X115571491Y-63645470D01*
X115834464Y-63536543D01*
X116071134Y-63378405D01*
X116272405Y-63177134D01*
X116420000Y-62956243D01*
X116567595Y-63177134D01*
X116768866Y-63378405D01*
X117005536Y-63536543D01*
X117268509Y-63645470D01*
X117547680Y-63701000D01*
X117832320Y-63701000D01*
X118111491Y-63645470D01*
X118374464Y-63536543D01*
X118611134Y-63378405D01*
X118812405Y-63177134D01*
X118960000Y-62956243D01*
X119107595Y-63177134D01*
X119308866Y-63378405D01*
X119545536Y-63536543D01*
X119808509Y-63645470D01*
X120087680Y-63701000D01*
X120372320Y-63701000D01*
X120651491Y-63645470D01*
X120740001Y-63608808D01*
X120740000Y-71570398D01*
X112957098Y-79353301D01*
X112928100Y-79377099D01*
X112904302Y-79406097D01*
X112904301Y-79406098D01*
X112833126Y-79492824D01*
X112762554Y-79624854D01*
X112746956Y-79676276D01*
X112720097Y-79764823D01*
X112719098Y-79768115D01*
X112704424Y-79917100D01*
X112708101Y-79954432D01*
X112708100Y-80931389D01*
X112664163Y-80975326D01*
X112550895Y-81144844D01*
X112472874Y-81333202D01*
X112433100Y-81533161D01*
X112433100Y-81737039D01*
X112472874Y-81936998D01*
X112550895Y-82125356D01*
X112664163Y-82294874D01*
X112797994Y-82428705D01*
X112700503Y-82526196D01*
X112671499Y-82549999D01*
X112616371Y-82617174D01*
X112576526Y-82665724D01*
X112537998Y-82737805D01*
X112505954Y-82797754D01*
X112462497Y-82941015D01*
X112451500Y-83052668D01*
X112451500Y-83052678D01*
X112447824Y-83090000D01*
X112451500Y-83127323D01*
X112451500Y-83778989D01*
X112407563Y-83822926D01*
X112294295Y-83992444D01*
X112216274Y-84180802D01*
X112176500Y-84380761D01*
X112176500Y-84584639D01*
X112216274Y-84784598D01*
X112294295Y-84972956D01*
X112407563Y-85142474D01*
X112551726Y-85286637D01*
X112721244Y-85399905D01*
X112781878Y-85425021D01*
X112178198Y-86028701D01*
X112149200Y-86052499D01*
X112125402Y-86081497D01*
X112125401Y-86081498D01*
X112054226Y-86168224D01*
X111983654Y-86300254D01*
X111963421Y-86366956D01*
X111944133Y-86430544D01*
X111940198Y-86443515D01*
X111925524Y-86592500D01*
X103880000Y-86592500D01*
X103880000Y-67270729D01*
X103898386Y-67083215D01*
X103942757Y-66936252D01*
X104014829Y-66800703D01*
X104111852Y-66681742D01*
X104230144Y-66583882D01*
X104365181Y-66510868D01*
X104511833Y-66465471D01*
X104697092Y-66446000D01*
X105504877Y-66446000D01*
X105535576Y-66442976D01*
X105544820Y-66443041D01*
X105554686Y-66442074D01*
X105845831Y-66411474D01*
X105908868Y-66398534D01*
X105972080Y-66386476D01*
X105981570Y-66383611D01*
X106261226Y-66297043D01*
X106320521Y-66272117D01*
X106380215Y-66247999D01*
X106388967Y-66243345D01*
X106646483Y-66104106D01*
X106699825Y-66068127D01*
X106753678Y-66032886D01*
X106761360Y-66026621D01*
X106986927Y-65840016D01*
X107032246Y-65794379D01*
X107078248Y-65749331D01*
X107084566Y-65741692D01*
X107269592Y-65514828D01*
X107305177Y-65461268D01*
X107341560Y-65408132D01*
X107346275Y-65399412D01*
X107483712Y-65140931D01*
X107508225Y-65081456D01*
X107533584Y-65022289D01*
X107536516Y-65012819D01*
X107621130Y-64732565D01*
X107633622Y-64669475D01*
X107647009Y-64606494D01*
X107648045Y-64596635D01*
X107676612Y-64305283D01*
X107676612Y-64305277D01*
X107680000Y-64270877D01*
X107680000Y-57033114D01*
X107912188Y-57265302D01*
X108466601Y-57635748D01*
X109082632Y-57890917D01*
X109736607Y-58021000D01*
X110403393Y-58021000D01*
X111057368Y-57890917D01*
X111673399Y-57635748D01*
X112227812Y-57265302D01*
X112699302Y-56793812D01*
X113069748Y-56239399D01*
X113324917Y-55623368D01*
X113455000Y-54969393D01*
X113455000Y-54302607D01*
X113324917Y-53648632D01*
X113069748Y-53032601D01*
X112699302Y-52478188D01*
X112467114Y-52246000D01*
X181332886Y-52246000D01*
X181100698Y-52478188D01*
G36*
X143600000Y-78937198D02*
G01*
X135074060Y-87463139D01*
X135128505Y-87381656D01*
X135206526Y-87193298D01*
X135246300Y-86993339D01*
X135246300Y-86789461D01*
X135214402Y-86629099D01*
X135248886Y-86625703D01*
X135392147Y-86582246D01*
X135524176Y-86511674D01*
X135639901Y-86416701D01*
X135663704Y-86387697D01*
X143600000Y-78451402D01*
X143600000Y-78937198D01*
G37*
X143600000Y-78937198D02*
X135074060Y-87463139D01*
X135128505Y-87381656D01*
X135206526Y-87193298D01*
X135246300Y-86993339D01*
X135246300Y-86789461D01*
X135214402Y-86629099D01*
X135248886Y-86625703D01*
X135392147Y-86582246D01*
X135524176Y-86511674D01*
X135639901Y-86416701D01*
X135663704Y-86387697D01*
X143600000Y-78451402D01*
X143600000Y-78937198D01*
G36*
X172524102Y-78083204D02*
G01*
X172517995Y-78092344D01*
X172439974Y-78280702D01*
X172400200Y-78480661D01*
X172400200Y-78684539D01*
X172439974Y-78884498D01*
X172517995Y-79072856D01*
X172631263Y-79242374D01*
X172775426Y-79386537D01*
X172944944Y-79499805D01*
X173133302Y-79577826D01*
X173333261Y-79617600D01*
X173537139Y-79617600D01*
X173737098Y-79577826D01*
X173925456Y-79499805D01*
X174094974Y-79386537D01*
X174142555Y-79338956D01*
X178891101Y-84087503D01*
X178891100Y-85762234D01*
X178730156Y-85654695D01*
X178541798Y-85576674D01*
X178495085Y-85567382D01*
X165440000Y-72512299D01*
X165440000Y-70999101D01*
X172524102Y-78083204D01*
G37*
X172524102Y-78083204D02*
X172517995Y-78092344D01*
X172439974Y-78280702D01*
X172400200Y-78480661D01*
X172400200Y-78684539D01*
X172439974Y-78884498D01*
X172517995Y-79072856D01*
X172631263Y-79242374D01*
X172775426Y-79386537D01*
X172944944Y-79499805D01*
X173133302Y-79577826D01*
X173333261Y-79617600D01*
X173537139Y-79617600D01*
X173737098Y-79577826D01*
X173925456Y-79499805D01*
X174094974Y-79386537D01*
X174142555Y-79338956D01*
X178891101Y-84087503D01*
X178891100Y-85762234D01*
X178730156Y-85654695D01*
X178541798Y-85576674D01*
X178495085Y-85567382D01*
X165440000Y-72512299D01*
X165440000Y-70999101D01*
X172524102Y-78083204D01*
G36*
X118943274Y-78606498D02*
G01*
X119021295Y-78794856D01*
X119134563Y-78964374D01*
X119188544Y-79018355D01*
X114153821Y-84053078D01*
X114128705Y-83992444D01*
X114015437Y-83822926D01*
X113971500Y-83778989D01*
X113971500Y-83404801D01*
X118914494Y-78461809D01*
X118943274Y-78606498D01*
G37*
X118943274Y-78606498D02*
X119021295Y-78794856D01*
X119134563Y-78964374D01*
X119188544Y-79018355D01*
X114153821Y-84053078D01*
X114128705Y-83992444D01*
X114015437Y-83822926D01*
X113971500Y-83778989D01*
X113971500Y-83404801D01*
X118914494Y-78461809D01*
X118943274Y-78606498D01*
G36*
X180128501Y-83175299D02*
G01*
X179719286Y-82766084D01*
X179787556Y-82737805D01*
X179957074Y-82624537D01*
X180101237Y-82480374D01*
X180128501Y-82439571D01*
X180128501Y-83175299D01*
G37*
X180128501Y-83175299D02*
X179719286Y-82766084D01*
X179787556Y-82737805D01*
X179957074Y-82624537D01*
X180101237Y-82480374D01*
X180128501Y-82439571D01*
X180128501Y-83175299D01*
G36*
X145121900Y-80213698D02*
G01*
X142501963Y-82833635D01*
X142444805Y-82695644D01*
X142331537Y-82526126D01*
X142246106Y-82440695D01*
X144871004Y-79815798D01*
X144900001Y-79792001D01*
X144994974Y-79676276D01*
X145065546Y-79544247D01*
X145109003Y-79400986D01*
X145120000Y-79289333D01*
X145120000Y-79289324D01*
X145121900Y-79270032D01*
X145121900Y-80213698D01*
G37*
X145121900Y-80213698D02*
X142501963Y-82833635D01*
X142444805Y-82695644D01*
X142331537Y-82526126D01*
X142246106Y-82440695D01*
X144871004Y-79815798D01*
X144900001Y-79792001D01*
X144994974Y-79676276D01*
X145065546Y-79544247D01*
X145109003Y-79400986D01*
X145120000Y-79289333D01*
X145120000Y-79289324D01*
X145121900Y-79270032D01*
X145121900Y-80213698D01*
G36*
X150288509Y-63645470D02*
G01*
X150567680Y-63701000D01*
X150852320Y-63701000D01*
X151131491Y-63645470D01*
X151140601Y-63641697D01*
X151140601Y-64344198D01*
X151036403Y-64448396D01*
X151007399Y-64472199D01*
X150971087Y-64516446D01*
X150912426Y-64587924D01*
X150863881Y-64678745D01*
X150841854Y-64719954D01*
X150798397Y-64863215D01*
X150787400Y-64974868D01*
X150787400Y-64974878D01*
X150783724Y-65012200D01*
X150787400Y-65049522D01*
X150787401Y-77619268D01*
X150783724Y-77656600D01*
X150787401Y-77693933D01*
X150793862Y-77759526D01*
X150798398Y-77805585D01*
X150841854Y-77948846D01*
X150912426Y-78080876D01*
X150983601Y-78167602D01*
X151007400Y-78196601D01*
X151036398Y-78220399D01*
X152470760Y-79654762D01*
X152330526Y-79748463D01*
X152186363Y-79892626D01*
X152073095Y-80062144D01*
X151995074Y-80250502D01*
X151955300Y-80450461D01*
X151955300Y-80654339D01*
X151995074Y-80854298D01*
X152073095Y-81042656D01*
X152186363Y-81212174D01*
X152291994Y-81317805D01*
X152257574Y-81400902D01*
X152217800Y-81600861D01*
X152217800Y-81804739D01*
X152249041Y-81961800D01*
X152078461Y-81961800D01*
X151878502Y-82001574D01*
X151690144Y-82079595D01*
X151520626Y-82192863D01*
X151469045Y-82244444D01*
X150200000Y-80975399D01*
X150200000Y-63608808D01*
X150288509Y-63645470D01*
G37*
X150288509Y-63645470D02*
X150567680Y-63701000D01*
X150852320Y-63701000D01*
X151131491Y-63645470D01*
X151140601Y-63641697D01*
X151140601Y-64344198D01*
X151036403Y-64448396D01*
X151007399Y-64472199D01*
X150971087Y-64516446D01*
X150912426Y-64587924D01*
X150863881Y-64678745D01*
X150841854Y-64719954D01*
X150798397Y-64863215D01*
X150787400Y-64974868D01*
X150787400Y-64974878D01*
X150783724Y-65012200D01*
X150787400Y-65049522D01*
X150787401Y-77619268D01*
X150783724Y-77656600D01*
X150787401Y-77693933D01*
X150793862Y-77759526D01*
X150798398Y-77805585D01*
X150841854Y-77948846D01*
X150912426Y-78080876D01*
X150983601Y-78167602D01*
X151007400Y-78196601D01*
X151036398Y-78220399D01*
X152470760Y-79654762D01*
X152330526Y-79748463D01*
X152186363Y-79892626D01*
X152073095Y-80062144D01*
X151995074Y-80250502D01*
X151955300Y-80450461D01*
X151955300Y-80654339D01*
X151995074Y-80854298D01*
X152073095Y-81042656D01*
X152186363Y-81212174D01*
X152291994Y-81317805D01*
X152257574Y-81400902D01*
X152217800Y-81600861D01*
X152217800Y-81804739D01*
X152249041Y-81961800D01*
X152078461Y-81961800D01*
X151878502Y-82001574D01*
X151690144Y-82079595D01*
X151520626Y-82192863D01*
X151469045Y-82244444D01*
X150200000Y-80975399D01*
X150200000Y-63608808D01*
X150288509Y-63645470D01*
G36*
X178537301Y-77046804D02*
G01*
X178537300Y-81116889D01*
X178493363Y-81160826D01*
X178380095Y-81330344D01*
X178351816Y-81398615D01*
X174299504Y-77346303D01*
X174275701Y-77317299D01*
X174159976Y-77222326D01*
X174087540Y-77183608D01*
X174130605Y-77119156D01*
X174208626Y-76930798D01*
X174248400Y-76730839D01*
X174248400Y-76526961D01*
X174211689Y-76342400D01*
X174239339Y-76342400D01*
X174439298Y-76302626D01*
X174627656Y-76224605D01*
X174797174Y-76111337D01*
X174941337Y-75967174D01*
X175054605Y-75797656D01*
X175132626Y-75609298D01*
X175172400Y-75409339D01*
X175172400Y-75205461D01*
X175132626Y-75005502D01*
X175054605Y-74817144D01*
X174941337Y-74647626D01*
X174797174Y-74503463D01*
X174627656Y-74390195D01*
X174439298Y-74312174D01*
X174239339Y-74272400D01*
X174035461Y-74272400D01*
X173835502Y-74312174D01*
X173647144Y-74390195D01*
X173477626Y-74503463D01*
X173333463Y-74647626D01*
X173220195Y-74817144D01*
X173142174Y-75005502D01*
X173102400Y-75205461D01*
X173102400Y-75409339D01*
X173139111Y-75593900D01*
X173111461Y-75593900D01*
X172911502Y-75633674D01*
X172723144Y-75711695D01*
X172553626Y-75824963D01*
X172484545Y-75894044D01*
X166710000Y-70119499D01*
X166710000Y-65219501D01*
X178537301Y-77046804D01*
G37*
X178537301Y-77046804D02*
X178537300Y-81116889D01*
X178493363Y-81160826D01*
X178380095Y-81330344D01*
X178351816Y-81398615D01*
X174299504Y-77346303D01*
X174275701Y-77317299D01*
X174159976Y-77222326D01*
X174087540Y-77183608D01*
X174130605Y-77119156D01*
X174208626Y-76930798D01*
X174248400Y-76730839D01*
X174248400Y-76526961D01*
X174211689Y-76342400D01*
X174239339Y-76342400D01*
X174439298Y-76302626D01*
X174627656Y-76224605D01*
X174797174Y-76111337D01*
X174941337Y-75967174D01*
X175054605Y-75797656D01*
X175132626Y-75609298D01*
X175172400Y-75409339D01*
X175172400Y-75205461D01*
X175132626Y-75005502D01*
X175054605Y-74817144D01*
X174941337Y-74647626D01*
X174797174Y-74503463D01*
X174627656Y-74390195D01*
X174439298Y-74312174D01*
X174239339Y-74272400D01*
X174035461Y-74272400D01*
X173835502Y-74312174D01*
X173647144Y-74390195D01*
X173477626Y-74503463D01*
X173333463Y-74647626D01*
X173220195Y-74817144D01*
X173142174Y-75005502D01*
X173102400Y-75205461D01*
X173102400Y-75409339D01*
X173139111Y-75593900D01*
X173111461Y-75593900D01*
X172911502Y-75633674D01*
X172723144Y-75711695D01*
X172553626Y-75824963D01*
X172484545Y-75894044D01*
X166710000Y-70119499D01*
X166710000Y-65219501D01*
X178537301Y-77046804D01*
G36*
X180128500Y-77738302D02*
G01*
X180128501Y-81201629D01*
X180101237Y-81160826D01*
X180057300Y-81116889D01*
X180057300Y-77667102D01*
X180128500Y-77738302D01*
G37*
X180128500Y-77738302D02*
X180128501Y-81201629D01*
X180101237Y-81160826D01*
X180057300Y-81116889D01*
X180057300Y-77667102D01*
X180128500Y-77738302D01*
G36*
X118990795Y-75727156D02*
G01*
X119104063Y-75896674D01*
X119217043Y-76009654D01*
X114261705Y-80964994D01*
X114228100Y-80931389D01*
X114228100Y-80231901D01*
X118915243Y-75544759D01*
X118990795Y-75727156D01*
G37*
X118990795Y-75727156D02*
X119104063Y-75896674D01*
X119217043Y-76009654D01*
X114261705Y-80964994D01*
X114228100Y-80931389D01*
X114228100Y-80231901D01*
X118915243Y-75544759D01*
X118990795Y-75727156D01*
G36*
X145121900Y-79233970D02*
G01*
X145120000Y-79214678D01*
X145120000Y-78559700D01*
X145121900Y-78559700D01*
X145121900Y-79233970D01*
G37*
X145121900Y-79233970D02*
X145120000Y-79214678D01*
X145120000Y-78559700D01*
X145121900Y-78559700D01*
X145121900Y-79233970D01*
G36*
X141967595Y-63177134D02*
G01*
X142168866Y-63378405D01*
X142330001Y-63486072D01*
X142330000Y-77571798D01*
X141567100Y-78334698D01*
X141567100Y-68218433D01*
X141570777Y-68181100D01*
X141556103Y-68032114D01*
X141512646Y-67888853D01*
X141442074Y-67756824D01*
X141370899Y-67670097D01*
X141347101Y-67641099D01*
X141318103Y-67617301D01*
X140040000Y-66339199D01*
X140040000Y-63608808D01*
X140128509Y-63645470D01*
X140407680Y-63701000D01*
X140692320Y-63701000D01*
X140971491Y-63645470D01*
X141234464Y-63536543D01*
X141471134Y-63378405D01*
X141672405Y-63177134D01*
X141820000Y-62956243D01*
X141967595Y-63177134D01*
G37*
X141967595Y-63177134D02*
X142168866Y-63378405D01*
X142330001Y-63486072D01*
X142330000Y-77571798D01*
X141567100Y-78334698D01*
X141567100Y-68218433D01*
X141570777Y-68181100D01*
X141556103Y-68032114D01*
X141512646Y-67888853D01*
X141442074Y-67756824D01*
X141370899Y-67670097D01*
X141347101Y-67641099D01*
X141318103Y-67617301D01*
X140040000Y-66339199D01*
X140040000Y-63608808D01*
X140128509Y-63645470D01*
X140407680Y-63701000D01*
X140692320Y-63701000D01*
X140971491Y-63645470D01*
X141234464Y-63536543D01*
X141471134Y-63378405D01*
X141672405Y-63177134D01*
X141820000Y-62956243D01*
X141967595Y-63177134D01*
G36*
X135980000Y-65923978D02*
G01*
X135976324Y-65961300D01*
X135980000Y-65998622D01*
X135980000Y-65998632D01*
X135990997Y-66110285D01*
X136025919Y-66225409D01*
X136034454Y-66253546D01*
X136105026Y-66385576D01*
X136142307Y-66431002D01*
X136199999Y-66501301D01*
X136229002Y-66525103D01*
X136585301Y-66881403D01*
X136585301Y-68588974D01*
X136448898Y-68532474D01*
X136248939Y-68492700D01*
X136045061Y-68492700D01*
X135845102Y-68532474D01*
X135656744Y-68610495D01*
X135487226Y-68723763D01*
X135343063Y-68867926D01*
X135229795Y-69037444D01*
X135151774Y-69225802D01*
X135112000Y-69425761D01*
X135112000Y-69629639D01*
X135151774Y-69829598D01*
X135229795Y-70017956D01*
X135343063Y-70187474D01*
X135487226Y-70331637D01*
X135656744Y-70444905D01*
X135845102Y-70522926D01*
X136045061Y-70562700D01*
X136248939Y-70562700D01*
X136448898Y-70522926D01*
X136585300Y-70466426D01*
X136585300Y-72257589D01*
X136541363Y-72301526D01*
X136428095Y-72471044D01*
X136350074Y-72659402D01*
X136310300Y-72859361D01*
X136310300Y-73063239D01*
X136350074Y-73263198D01*
X136428095Y-73451556D01*
X136541363Y-73621074D01*
X136685526Y-73765237D01*
X136855044Y-73878505D01*
X137043402Y-73956526D01*
X137243361Y-73996300D01*
X137352401Y-73996300D01*
X137352401Y-75895297D01*
X134959416Y-78288283D01*
X134953124Y-78256649D01*
X134960000Y-78186833D01*
X134960000Y-78186823D01*
X134963676Y-78149500D01*
X134960000Y-78112177D01*
X134960000Y-63608808D01*
X135048509Y-63645470D01*
X135327680Y-63701000D01*
X135612320Y-63701000D01*
X135891491Y-63645470D01*
X135980000Y-63608808D01*
X135980000Y-65923978D01*
G37*
X135980000Y-65923978D02*
X135976324Y-65961300D01*
X135980000Y-65998622D01*
X135980000Y-65998632D01*
X135990997Y-66110285D01*
X136025919Y-66225409D01*
X136034454Y-66253546D01*
X136105026Y-66385576D01*
X136142307Y-66431002D01*
X136199999Y-66501301D01*
X136229002Y-66525103D01*
X136585301Y-66881403D01*
X136585301Y-68588974D01*
X136448898Y-68532474D01*
X136248939Y-68492700D01*
X136045061Y-68492700D01*
X135845102Y-68532474D01*
X135656744Y-68610495D01*
X135487226Y-68723763D01*
X135343063Y-68867926D01*
X135229795Y-69037444D01*
X135151774Y-69225802D01*
X135112000Y-69425761D01*
X135112000Y-69629639D01*
X135151774Y-69829598D01*
X135229795Y-70017956D01*
X135343063Y-70187474D01*
X135487226Y-70331637D01*
X135656744Y-70444905D01*
X135845102Y-70522926D01*
X136045061Y-70562700D01*
X136248939Y-70562700D01*
X136448898Y-70522926D01*
X136585300Y-70466426D01*
X136585300Y-72257589D01*
X136541363Y-72301526D01*
X136428095Y-72471044D01*
X136350074Y-72659402D01*
X136310300Y-72859361D01*
X136310300Y-73063239D01*
X136350074Y-73263198D01*
X136428095Y-73451556D01*
X136541363Y-73621074D01*
X136685526Y-73765237D01*
X136855044Y-73878505D01*
X137043402Y-73956526D01*
X137243361Y-73996300D01*
X137352401Y-73996300D01*
X137352401Y-75895297D01*
X134959416Y-78288283D01*
X134953124Y-78256649D01*
X134960000Y-78186833D01*
X134960000Y-78186823D01*
X134963676Y-78149500D01*
X134960000Y-78112177D01*
X134960000Y-63608808D01*
X135048509Y-63645470D01*
X135327680Y-63701000D01*
X135612320Y-63701000D01*
X135891491Y-63645470D01*
X135980000Y-63608808D01*
X135980000Y-65923978D01*
G36*
X125820000Y-72386898D02*
G01*
X121464326Y-76742572D01*
X121450733Y-76674236D01*
X121540276Y-76626374D01*
X121656001Y-76531401D01*
X121679804Y-76502397D01*
X125820000Y-72362202D01*
X125820000Y-72386898D01*
G37*
X125820000Y-72386898D02*
X121464326Y-76742572D01*
X121450733Y-76674236D01*
X121540276Y-76626374D01*
X121656001Y-76531401D01*
X121679804Y-76502397D01*
X125820000Y-72362202D01*
X125820000Y-72386898D01*
G36*
X145121901Y-63609596D02*
G01*
X145121900Y-76489700D01*
X145120000Y-76489700D01*
X145120000Y-63608808D01*
X145121901Y-63609596D01*
G37*
X145121901Y-63609596D02*
X145121900Y-76489700D01*
X145120000Y-76489700D01*
X145120000Y-63608808D01*
X145121901Y-63609596D01*
G36*
X121432889Y-73103000D02*
G01*
X121307563Y-73228326D01*
X121194295Y-73397844D01*
X121116274Y-73586202D01*
X121076500Y-73786161D01*
X121076500Y-73990039D01*
X121116274Y-74189998D01*
X121194295Y-74378356D01*
X121307563Y-74547874D01*
X121396144Y-74636455D01*
X120935474Y-75097125D01*
X120903226Y-74935002D01*
X120825205Y-74746644D01*
X120711937Y-74577126D01*
X120567774Y-74432963D01*
X120398256Y-74319695D01*
X120215859Y-74244143D01*
X121394945Y-73065056D01*
X121432889Y-73103000D01*
G37*
X121432889Y-73103000D02*
X121307563Y-73228326D01*
X121194295Y-73397844D01*
X121116274Y-73586202D01*
X121076500Y-73786161D01*
X121076500Y-73990039D01*
X121116274Y-74189998D01*
X121194295Y-74378356D01*
X121307563Y-74547874D01*
X121396144Y-74636455D01*
X120935474Y-75097125D01*
X120903226Y-74935002D01*
X120825205Y-74746644D01*
X120711937Y-74577126D01*
X120567774Y-74432963D01*
X120398256Y-74319695D01*
X120215859Y-74244143D01*
X121394945Y-73065056D01*
X121432889Y-73103000D01*
G36*
X122348509Y-63645470D02*
G01*
X122627680Y-63701000D01*
X122912320Y-63701000D01*
X123145401Y-63654638D01*
X123145400Y-68528655D01*
X123126202Y-68532474D01*
X122937844Y-68610495D01*
X122768326Y-68723763D01*
X122624163Y-68867926D01*
X122510895Y-69037444D01*
X122432874Y-69225802D01*
X122393100Y-69425761D01*
X122393100Y-69629639D01*
X122432874Y-69829598D01*
X122510895Y-70017956D01*
X122624163Y-70187474D01*
X122768326Y-70331637D01*
X122937844Y-70444905D01*
X123126202Y-70522926D01*
X123326161Y-70562700D01*
X123530039Y-70562700D01*
X123729998Y-70522926D01*
X123918356Y-70444905D01*
X124087874Y-70331637D01*
X124232037Y-70187474D01*
X124345305Y-70017956D01*
X124423326Y-69829598D01*
X124463100Y-69629639D01*
X124463100Y-69568835D01*
X124505431Y-69517254D01*
X124540374Y-69474677D01*
X124550001Y-69456667D01*
X124550001Y-71482597D01*
X122859855Y-73172744D01*
X122780911Y-73093800D01*
X122906237Y-72968474D01*
X123019505Y-72798956D01*
X123097526Y-72610598D01*
X123137300Y-72410639D01*
X123137300Y-72206761D01*
X123097526Y-72006802D01*
X123019505Y-71818444D01*
X122906237Y-71648926D01*
X122762074Y-71504763D01*
X122592556Y-71391495D01*
X122404198Y-71313474D01*
X122260000Y-71284791D01*
X122260000Y-63608808D01*
X122348509Y-63645470D01*
G37*
X122348509Y-63645470D02*
X122627680Y-63701000D01*
X122912320Y-63701000D01*
X123145401Y-63654638D01*
X123145400Y-68528655D01*
X123126202Y-68532474D01*
X122937844Y-68610495D01*
X122768326Y-68723763D01*
X122624163Y-68867926D01*
X122510895Y-69037444D01*
X122432874Y-69225802D01*
X122393100Y-69425761D01*
X122393100Y-69629639D01*
X122432874Y-69829598D01*
X122510895Y-70017956D01*
X122624163Y-70187474D01*
X122768326Y-70331637D01*
X122937844Y-70444905D01*
X123126202Y-70522926D01*
X123326161Y-70562700D01*
X123530039Y-70562700D01*
X123729998Y-70522926D01*
X123918356Y-70444905D01*
X124087874Y-70331637D01*
X124232037Y-70187474D01*
X124345305Y-70017956D01*
X124423326Y-69829598D01*
X124463100Y-69629639D01*
X124463100Y-69568835D01*
X124505431Y-69517254D01*
X124540374Y-69474677D01*
X124550001Y-69456667D01*
X124550001Y-71482597D01*
X122859855Y-73172744D01*
X122780911Y-73093800D01*
X122906237Y-72968474D01*
X123019505Y-72798956D01*
X123097526Y-72610598D01*
X123137300Y-72410639D01*
X123137300Y-72206761D01*
X123097526Y-72006802D01*
X123019505Y-71818444D01*
X122906237Y-71648926D01*
X122762074Y-71504763D01*
X122592556Y-71391495D01*
X122404198Y-71313474D01*
X122260000Y-71284791D01*
X122260000Y-63608808D01*
X122348509Y-63645470D01*
G36*
X152828509Y-63645470D02*
G01*
X153107680Y-63701000D01*
X153392320Y-63701000D01*
X153504642Y-63678658D01*
X153492097Y-63720015D01*
X153481100Y-63831668D01*
X153481100Y-63831678D01*
X153477424Y-63869000D01*
X153481100Y-63906323D01*
X153481101Y-66622668D01*
X153477424Y-66660000D01*
X153481101Y-66697333D01*
X153492098Y-66808986D01*
X153505280Y-66852442D01*
X153535554Y-66952246D01*
X153606126Y-67084276D01*
X153674768Y-67167915D01*
X153701100Y-67200001D01*
X153730098Y-67223799D01*
X155043100Y-68536802D01*
X155043100Y-68598939D01*
X155082874Y-68798898D01*
X155160895Y-68987256D01*
X155274163Y-69156774D01*
X155418326Y-69300937D01*
X155587844Y-69414205D01*
X155654559Y-69441839D01*
X152307400Y-72788999D01*
X152307400Y-65327001D01*
X152411597Y-65222804D01*
X152440601Y-65199001D01*
X152535574Y-65083276D01*
X152606146Y-64951247D01*
X152649603Y-64807986D01*
X152660600Y-64696333D01*
X152660600Y-64696324D01*
X152664276Y-64659001D01*
X152660600Y-64621678D01*
X152660600Y-63575920D01*
X152828509Y-63645470D01*
G37*
X152828509Y-63645470D02*
X153107680Y-63701000D01*
X153392320Y-63701000D01*
X153504642Y-63678658D01*
X153492097Y-63720015D01*
X153481100Y-63831668D01*
X153481100Y-63831678D01*
X153477424Y-63869000D01*
X153481100Y-63906323D01*
X153481101Y-66622668D01*
X153477424Y-66660000D01*
X153481101Y-66697333D01*
X153492098Y-66808986D01*
X153505280Y-66852442D01*
X153535554Y-66952246D01*
X153606126Y-67084276D01*
X153674768Y-67167915D01*
X153701100Y-67200001D01*
X153730098Y-67223799D01*
X155043100Y-68536802D01*
X155043100Y-68598939D01*
X155082874Y-68798898D01*
X155160895Y-68987256D01*
X155274163Y-69156774D01*
X155418326Y-69300937D01*
X155587844Y-69414205D01*
X155654559Y-69441839D01*
X152307400Y-72788999D01*
X152307400Y-65327001D01*
X152411597Y-65222804D01*
X152440601Y-65199001D01*
X152535574Y-65083276D01*
X152606146Y-64951247D01*
X152649603Y-64807986D01*
X152660600Y-64696333D01*
X152660600Y-64696324D01*
X152664276Y-64659001D01*
X152660600Y-64621678D01*
X152660600Y-63575920D01*
X152828509Y-63645470D01*
G36*
X157207595Y-63177134D02*
G01*
X157408866Y-63378405D01*
X157645536Y-63536543D01*
X157908509Y-63645470D01*
X158187680Y-63701000D01*
X158472320Y-63701000D01*
X158751491Y-63645470D01*
X158840001Y-63608808D01*
X158840000Y-66256398D01*
X157022939Y-68073459D01*
X156995305Y-68006744D01*
X156882037Y-67837226D01*
X156737874Y-67693063D01*
X156568356Y-67579795D01*
X156379998Y-67501774D01*
X156180039Y-67462000D01*
X156117902Y-67462000D01*
X155728156Y-67072255D01*
X155831437Y-66968974D01*
X155944705Y-66799456D01*
X156022726Y-66611098D01*
X156062500Y-66411139D01*
X156062500Y-66207261D01*
X156022726Y-66007302D01*
X155944705Y-65818944D01*
X155831437Y-65649426D01*
X155687274Y-65505263D01*
X155517756Y-65391995D01*
X155329398Y-65313974D01*
X155129439Y-65274200D01*
X155001100Y-65274200D01*
X155001100Y-64184523D01*
X155075574Y-64093776D01*
X155146146Y-63961747D01*
X155189603Y-63818486D01*
X155200600Y-63706833D01*
X155204277Y-63669500D01*
X155200600Y-63632167D01*
X155200600Y-63575920D01*
X155368509Y-63645470D01*
X155647680Y-63701000D01*
X155932320Y-63701000D01*
X156211491Y-63645470D01*
X156474464Y-63536543D01*
X156711134Y-63378405D01*
X156912405Y-63177134D01*
X157060000Y-62956243D01*
X157207595Y-63177134D01*
G37*
X157207595Y-63177134D02*
X157408866Y-63378405D01*
X157645536Y-63536543D01*
X157908509Y-63645470D01*
X158187680Y-63701000D01*
X158472320Y-63701000D01*
X158751491Y-63645470D01*
X158840001Y-63608808D01*
X158840000Y-66256398D01*
X157022939Y-68073459D01*
X156995305Y-68006744D01*
X156882037Y-67837226D01*
X156737874Y-67693063D01*
X156568356Y-67579795D01*
X156379998Y-67501774D01*
X156180039Y-67462000D01*
X156117902Y-67462000D01*
X155728156Y-67072255D01*
X155831437Y-66968974D01*
X155944705Y-66799456D01*
X156022726Y-66611098D01*
X156062500Y-66411139D01*
X156062500Y-66207261D01*
X156022726Y-66007302D01*
X155944705Y-65818944D01*
X155831437Y-65649426D01*
X155687274Y-65505263D01*
X155517756Y-65391995D01*
X155329398Y-65313974D01*
X155129439Y-65274200D01*
X155001100Y-65274200D01*
X155001100Y-64184523D01*
X155075574Y-64093776D01*
X155146146Y-63961747D01*
X155189603Y-63818486D01*
X155200600Y-63706833D01*
X155204277Y-63669500D01*
X155200600Y-63632167D01*
X155200600Y-63575920D01*
X155368509Y-63645470D01*
X155647680Y-63701000D01*
X155932320Y-63701000D01*
X156211491Y-63645470D01*
X156474464Y-63536543D01*
X156711134Y-63378405D01*
X156912405Y-63177134D01*
X157060000Y-62956243D01*
X157207595Y-63177134D01*
G36*
X176620000Y-64358298D02*
G01*
X173232099Y-67746200D01*
X173169961Y-67746200D01*
X172970002Y-67785974D01*
X172781644Y-67863995D01*
X172731571Y-67897453D01*
X172791905Y-67807156D01*
X172869926Y-67618798D01*
X172909700Y-67418839D01*
X172909700Y-67356701D01*
X175351009Y-64915394D01*
X175380001Y-64891601D01*
X175403795Y-64862608D01*
X175403799Y-64862604D01*
X175461811Y-64791915D01*
X175474974Y-64775876D01*
X175545546Y-64643847D01*
X175589003Y-64500586D01*
X175600000Y-64388933D01*
X175600000Y-64388924D01*
X175603676Y-64351601D01*
X175600000Y-64314278D01*
X175600000Y-63608808D01*
X175688509Y-63645470D01*
X175967680Y-63701000D01*
X176252320Y-63701000D01*
X176531491Y-63645470D01*
X176620000Y-63608808D01*
X176620000Y-64358298D01*
G37*
X176620000Y-64358298D02*
X173232099Y-67746200D01*
X173169961Y-67746200D01*
X172970002Y-67785974D01*
X172781644Y-67863995D01*
X172731571Y-67897453D01*
X172791905Y-67807156D01*
X172869926Y-67618798D01*
X172909700Y-67418839D01*
X172909700Y-67356701D01*
X175351009Y-64915394D01*
X175380001Y-64891601D01*
X175403795Y-64862608D01*
X175403799Y-64862604D01*
X175461811Y-64791915D01*
X175474974Y-64775876D01*
X175545546Y-64643847D01*
X175589003Y-64500586D01*
X175600000Y-64388933D01*
X175600000Y-64388924D01*
X175603676Y-64351601D01*
X175600000Y-64314278D01*
X175600000Y-63608808D01*
X175688509Y-63645470D01*
X175967680Y-63701000D01*
X176252320Y-63701000D01*
X176531491Y-63645470D01*
X176620000Y-63608808D01*
X176620000Y-64358298D01*
G36*
X162287595Y-63177134D02*
G01*
X162488866Y-63378405D01*
X162650000Y-63486072D01*
X162650000Y-63534198D01*
X160360000Y-65824198D01*
X160360000Y-63608808D01*
X160448509Y-63645470D01*
X160727680Y-63701000D01*
X161012320Y-63701000D01*
X161291491Y-63645470D01*
X161554464Y-63536543D01*
X161791134Y-63378405D01*
X161992405Y-63177134D01*
X162140000Y-62956243D01*
X162287595Y-63177134D01*
G37*
X162287595Y-63177134D02*
X162488866Y-63378405D01*
X162650000Y-63486072D01*
X162650000Y-63534198D01*
X160360000Y-65824198D01*
X160360000Y-63608808D01*
X160448509Y-63645470D01*
X160727680Y-63701000D01*
X161012320Y-63701000D01*
X161291491Y-63645470D01*
X161554464Y-63536543D01*
X161791134Y-63378405D01*
X161992405Y-63177134D01*
X162140000Y-62956243D01*
X162287595Y-63177134D01*
G36*
X170608509Y-63645470D02*
G01*
X170887680Y-63701000D01*
X171172320Y-63701000D01*
X171451491Y-63645470D01*
X171540000Y-63608808D01*
X171540000Y-64456298D01*
X171252699Y-64743600D01*
X171190561Y-64743600D01*
X170990602Y-64783374D01*
X170802244Y-64861395D01*
X170632726Y-64974663D01*
X170488563Y-65118826D01*
X170375295Y-65288344D01*
X170297274Y-65476702D01*
X170257500Y-65676661D01*
X170257500Y-65717699D01*
X169931443Y-65391642D01*
X169965274Y-65369037D01*
X170109437Y-65224874D01*
X170222705Y-65055356D01*
X170300726Y-64866998D01*
X170340500Y-64667039D01*
X170340500Y-64537861D01*
X170351946Y-64516447D01*
X170395403Y-64373186D01*
X170406400Y-64261533D01*
X170406400Y-64261524D01*
X170410076Y-64224201D01*
X170406400Y-64186878D01*
X170406400Y-63561754D01*
X170608509Y-63645470D01*
G37*
X170608509Y-63645470D02*
X170887680Y-63701000D01*
X171172320Y-63701000D01*
X171451491Y-63645470D01*
X171540000Y-63608808D01*
X171540000Y-64456298D01*
X171252699Y-64743600D01*
X171190561Y-64743600D01*
X170990602Y-64783374D01*
X170802244Y-64861395D01*
X170632726Y-64974663D01*
X170488563Y-65118826D01*
X170375295Y-65288344D01*
X170297274Y-65476702D01*
X170257500Y-65676661D01*
X170257500Y-65717699D01*
X169931443Y-65391642D01*
X169965274Y-65369037D01*
X170109437Y-65224874D01*
X170222705Y-65055356D01*
X170300726Y-64866998D01*
X170340500Y-64667039D01*
X170340500Y-64537861D01*
X170351946Y-64516447D01*
X170395403Y-64373186D01*
X170406400Y-64261533D01*
X170406400Y-64261524D01*
X170410076Y-64224201D01*
X170406400Y-64186878D01*
X170406400Y-63561754D01*
X170608509Y-63645470D01*
G36*
X174080000Y-64036797D02*
G01*
X172950536Y-65166262D01*
X173005546Y-65063347D01*
X173049003Y-64920086D01*
X173060000Y-64808433D01*
X173060000Y-64808424D01*
X173063676Y-64771101D01*
X173060000Y-64733778D01*
X173060000Y-63608808D01*
X173148509Y-63645470D01*
X173427680Y-63701000D01*
X173712320Y-63701000D01*
X173991491Y-63645470D01*
X174080000Y-63608808D01*
X174080000Y-64036797D01*
G37*
X174080000Y-64036797D02*
X172950536Y-65166262D01*
X173005546Y-65063347D01*
X173049003Y-64920086D01*
X173060000Y-64808433D01*
X173060000Y-64808424D01*
X173063676Y-64771101D01*
X173060000Y-64733778D01*
X173060000Y-63608808D01*
X173148509Y-63645470D01*
X173427680Y-63701000D01*
X173712320Y-63701000D01*
X173991491Y-63645470D01*
X174080000Y-63608808D01*
X174080000Y-64036797D01*
G36*
X157207595Y-60637134D02*
G01*
X157408866Y-60838405D01*
X157629757Y-60986000D01*
X157408866Y-61133595D01*
X157207595Y-61334866D01*
X157060000Y-61555757D01*
X156912405Y-61334866D01*
X156711134Y-61133595D01*
X156490243Y-60986000D01*
X156711134Y-60838405D01*
X156912405Y-60637134D01*
X157060000Y-60416243D01*
X157207595Y-60637134D01*
G37*
X157207595Y-60637134D02*
X157408866Y-60838405D01*
X157629757Y-60986000D01*
X157408866Y-61133595D01*
X157207595Y-61334866D01*
X157060000Y-61555757D01*
X156912405Y-61334866D01*
X156711134Y-61133595D01*
X156490243Y-60986000D01*
X156711134Y-60838405D01*
X156912405Y-60637134D01*
X157060000Y-60416243D01*
X157207595Y-60637134D01*
G36*
X116567595Y-60637134D02*
G01*
X116768866Y-60838405D01*
X116989757Y-60986000D01*
X116768866Y-61133595D01*
X116567595Y-61334866D01*
X116420000Y-61555757D01*
X116272405Y-61334866D01*
X116071134Y-61133595D01*
X115850243Y-60986000D01*
X116071134Y-60838405D01*
X116272405Y-60637134D01*
X116420000Y-60416243D01*
X116567595Y-60637134D01*
G37*
X116567595Y-60637134D02*
X116768866Y-60838405D01*
X116989757Y-60986000D01*
X116768866Y-61133595D01*
X116567595Y-61334866D01*
X116420000Y-61555757D01*
X116272405Y-61334866D01*
X116071134Y-61133595D01*
X115850243Y-60986000D01*
X116071134Y-60838405D01*
X116272405Y-60637134D01*
X116420000Y-60416243D01*
X116567595Y-60637134D01*
G36*
X119107595Y-60637134D02*
G01*
X119308866Y-60838405D01*
X119529757Y-60986000D01*
X119308866Y-61133595D01*
X119107595Y-61334866D01*
X118960000Y-61555757D01*
X118812405Y-61334866D01*
X118611134Y-61133595D01*
X118390243Y-60986000D01*
X118611134Y-60838405D01*
X118812405Y-60637134D01*
X118960000Y-60416243D01*
X119107595Y-60637134D01*
G37*
X119107595Y-60637134D02*
X119308866Y-60838405D01*
X119529757Y-60986000D01*
X119308866Y-61133595D01*
X119107595Y-61334866D01*
X118960000Y-61555757D01*
X118812405Y-61334866D01*
X118611134Y-61133595D01*
X118390243Y-60986000D01*
X118611134Y-60838405D01*
X118812405Y-60637134D01*
X118960000Y-60416243D01*
X119107595Y-60637134D01*
G36*
X131807595Y-60637134D02*
G01*
X132008866Y-60838405D01*
X132229757Y-60986000D01*
X132008866Y-61133595D01*
X131807595Y-61334866D01*
X131660000Y-61555757D01*
X131512405Y-61334866D01*
X131311134Y-61133595D01*
X131090243Y-60986000D01*
X131311134Y-60838405D01*
X131512405Y-60637134D01*
X131660000Y-60416243D01*
X131807595Y-60637134D01*
G37*
X131807595Y-60637134D02*
X132008866Y-60838405D01*
X132229757Y-60986000D01*
X132008866Y-61133595D01*
X131807595Y-61334866D01*
X131660000Y-61555757D01*
X131512405Y-61334866D01*
X131311134Y-61133595D01*
X131090243Y-60986000D01*
X131311134Y-60838405D01*
X131512405Y-60637134D01*
X131660000Y-60416243D01*
X131807595Y-60637134D01*
G36*
X162287595Y-60637134D02*
G01*
X162488866Y-60838405D01*
X162709757Y-60986000D01*
X162488866Y-61133595D01*
X162287595Y-61334866D01*
X162140000Y-61555757D01*
X161992405Y-61334866D01*
X161791134Y-61133595D01*
X161570243Y-60986000D01*
X161791134Y-60838405D01*
X161992405Y-60637134D01*
X162140000Y-60416243D01*
X162287595Y-60637134D01*
G37*
X162287595Y-60637134D02*
X162488866Y-60838405D01*
X162709757Y-60986000D01*
X162488866Y-61133595D01*
X162287595Y-61334866D01*
X162140000Y-61555757D01*
X161992405Y-61334866D01*
X161791134Y-61133595D01*
X161570243Y-60986000D01*
X161791134Y-60838405D01*
X161992405Y-60637134D01*
X162140000Y-60416243D01*
X162287595Y-60637134D01*
G36*
X141967595Y-60637134D02*
G01*
X142168866Y-60838405D01*
X142389757Y-60986000D01*
X142168866Y-61133595D01*
X141967595Y-61334866D01*
X141820000Y-61555757D01*
X141672405Y-61334866D01*
X141471134Y-61133595D01*
X141250243Y-60986000D01*
X141471134Y-60838405D01*
X141672405Y-60637134D01*
X141820000Y-60416243D01*
X141967595Y-60637134D01*
G37*
X141967595Y-60637134D02*
X142168866Y-60838405D01*
X142389757Y-60986000D01*
X142168866Y-61133595D01*
X141967595Y-61334866D01*
X141820000Y-61555757D01*
X141672405Y-61334866D01*
X141471134Y-61133595D01*
X141250243Y-60986000D01*
X141471134Y-60838405D01*
X141672405Y-60637134D01*
X141820000Y-60416243D01*
X141967595Y-60637134D01*
G36*
X126727595Y-58097134D02*
G01*
X126928866Y-58298405D01*
X127149757Y-58446000D01*
X126928866Y-58593595D01*
X126727595Y-58794866D01*
X126580000Y-59015757D01*
X126432405Y-58794866D01*
X126231134Y-58593595D01*
X126010243Y-58446000D01*
X126231134Y-58298405D01*
X126432405Y-58097134D01*
X126580000Y-57876243D01*
X126727595Y-58097134D01*
G37*
X126727595Y-58097134D02*
X126928866Y-58298405D01*
X127149757Y-58446000D01*
X126928866Y-58593595D01*
X126727595Y-58794866D01*
X126580000Y-59015757D01*
X126432405Y-58794866D01*
X126231134Y-58593595D01*
X126010243Y-58446000D01*
X126231134Y-58298405D01*
X126432405Y-58097134D01*
X126580000Y-57876243D01*
X126727595Y-58097134D01*
G36*
X134347595Y-58097134D02*
G01*
X134548866Y-58298405D01*
X134769757Y-58446000D01*
X134548866Y-58593595D01*
X134347595Y-58794866D01*
X134200000Y-59015757D01*
X134052405Y-58794866D01*
X133851134Y-58593595D01*
X133630243Y-58446000D01*
X133851134Y-58298405D01*
X134052405Y-58097134D01*
X134200000Y-57876243D01*
X134347595Y-58097134D01*
G37*
X134347595Y-58097134D02*
X134548866Y-58298405D01*
X134769757Y-58446000D01*
X134548866Y-58593595D01*
X134347595Y-58794866D01*
X134200000Y-59015757D01*
X134052405Y-58794866D01*
X133851134Y-58593595D01*
X133630243Y-58446000D01*
X133851134Y-58298405D01*
X134052405Y-58097134D01*
X134200000Y-57876243D01*
X134347595Y-58097134D01*
G36*
X131807595Y-58097134D02*
G01*
X132008866Y-58298405D01*
X132229757Y-58446000D01*
X132008866Y-58593595D01*
X131807595Y-58794866D01*
X131660000Y-59015757D01*
X131512405Y-58794866D01*
X131311134Y-58593595D01*
X131090243Y-58446000D01*
X131311134Y-58298405D01*
X131512405Y-58097134D01*
X131660000Y-57876243D01*
X131807595Y-58097134D01*
G37*
X131807595Y-58097134D02*
X132008866Y-58298405D01*
X132229757Y-58446000D01*
X132008866Y-58593595D01*
X131807595Y-58794866D01*
X131660000Y-59015757D01*
X131512405Y-58794866D01*
X131311134Y-58593595D01*
X131090243Y-58446000D01*
X131311134Y-58298405D01*
X131512405Y-58097134D01*
X131660000Y-57876243D01*
X131807595Y-58097134D01*
G36*
X157207595Y-58097134D02*
G01*
X157408866Y-58298405D01*
X157629757Y-58446000D01*
X157408866Y-58593595D01*
X157207595Y-58794866D01*
X157060000Y-59015757D01*
X156912405Y-58794866D01*
X156711134Y-58593595D01*
X156490243Y-58446000D01*
X156711134Y-58298405D01*
X156912405Y-58097134D01*
X157060000Y-57876243D01*
X157207595Y-58097134D01*
G37*
X157207595Y-58097134D02*
X157408866Y-58298405D01*
X157629757Y-58446000D01*
X157408866Y-58593595D01*
X157207595Y-58794866D01*
X157060000Y-59015757D01*
X156912405Y-58794866D01*
X156711134Y-58593595D01*
X156490243Y-58446000D01*
X156711134Y-58298405D01*
X156912405Y-58097134D01*
X157060000Y-57876243D01*
X157207595Y-58097134D01*
G36*
X144535380Y-58767081D02*
G01*
X144507595Y-58794866D01*
X144360000Y-59015757D01*
X144212405Y-58794866D01*
X144011134Y-58593595D01*
X143790243Y-58446000D01*
X144011134Y-58298405D01*
X144038919Y-58270620D01*
X144535380Y-58767081D01*
G37*
X144535380Y-58767081D02*
X144507595Y-58794866D01*
X144360000Y-59015757D01*
X144212405Y-58794866D01*
X144011134Y-58593595D01*
X143790243Y-58446000D01*
X144011134Y-58298405D01*
X144038919Y-58270620D01*
X144535380Y-58767081D01*
G36*
X116567595Y-58097134D02*
G01*
X116768866Y-58298405D01*
X116989757Y-58446000D01*
X116768866Y-58593595D01*
X116567595Y-58794866D01*
X116420000Y-59015757D01*
X116272405Y-58794866D01*
X116071134Y-58593595D01*
X115850243Y-58446000D01*
X116071134Y-58298405D01*
X116272405Y-58097134D01*
X116420000Y-57876243D01*
X116567595Y-58097134D01*
G37*
X116567595Y-58097134D02*
X116768866Y-58298405D01*
X116989757Y-58446000D01*
X116768866Y-58593595D01*
X116567595Y-58794866D01*
X116420000Y-59015757D01*
X116272405Y-58794866D01*
X116071134Y-58593595D01*
X115850243Y-58446000D01*
X116071134Y-58298405D01*
X116272405Y-58097134D01*
X116420000Y-57876243D01*
X116567595Y-58097134D01*
G36*
X159747595Y-58097134D02*
G01*
X159948866Y-58298405D01*
X160169757Y-58446000D01*
X159948866Y-58593595D01*
X159747595Y-58794866D01*
X159600000Y-59015757D01*
X159452405Y-58794866D01*
X159251134Y-58593595D01*
X159030243Y-58446000D01*
X159251134Y-58298405D01*
X159452405Y-58097134D01*
X159600000Y-57876243D01*
X159747595Y-58097134D01*
G37*
X159747595Y-58097134D02*
X159948866Y-58298405D01*
X160169757Y-58446000D01*
X159948866Y-58593595D01*
X159747595Y-58794866D01*
X159600000Y-59015757D01*
X159452405Y-58794866D01*
X159251134Y-58593595D01*
X159030243Y-58446000D01*
X159251134Y-58298405D01*
X159452405Y-58097134D01*
X159600000Y-57876243D01*
X159747595Y-58097134D01*
G36*
X162287595Y-58097134D02*
G01*
X162488866Y-58298405D01*
X162709757Y-58446000D01*
X162488866Y-58593595D01*
X162287595Y-58794866D01*
X162140000Y-59015757D01*
X161992405Y-58794866D01*
X161791134Y-58593595D01*
X161570243Y-58446000D01*
X161791134Y-58298405D01*
X161992405Y-58097134D01*
X162140000Y-57876243D01*
X162287595Y-58097134D01*
G37*
X162287595Y-58097134D02*
X162488866Y-58298405D01*
X162709757Y-58446000D01*
X162488866Y-58593595D01*
X162287595Y-58794866D01*
X162140000Y-59015757D01*
X161992405Y-58794866D01*
X161791134Y-58593595D01*
X161570243Y-58446000D01*
X161791134Y-58298405D01*
X161992405Y-58097134D01*
X162140000Y-57876243D01*
X162287595Y-58097134D01*
G36*
X141967595Y-58097134D02*
G01*
X142168866Y-58298405D01*
X142389757Y-58446000D01*
X142168866Y-58593595D01*
X141967595Y-58794866D01*
X141820000Y-59015757D01*
X141672405Y-58794866D01*
X141471134Y-58593595D01*
X141250243Y-58446000D01*
X141471134Y-58298405D01*
X141672405Y-58097134D01*
X141820000Y-57876243D01*
X141967595Y-58097134D01*
G37*
X141967595Y-58097134D02*
X142168866Y-58298405D01*
X142389757Y-58446000D01*
X142168866Y-58593595D01*
X141967595Y-58794866D01*
X141820000Y-59015757D01*
X141672405Y-58794866D01*
X141471134Y-58593595D01*
X141250243Y-58446000D01*
X141471134Y-58298405D01*
X141672405Y-58097134D01*
X141820000Y-57876243D01*
X141967595Y-58097134D01*
G36*
X167367595Y-58097134D02*
G01*
X167568866Y-58298405D01*
X167789757Y-58446000D01*
X167568866Y-58593595D01*
X167367595Y-58794866D01*
X167220000Y-59015757D01*
X167072405Y-58794866D01*
X166871134Y-58593595D01*
X166650243Y-58446000D01*
X166871134Y-58298405D01*
X167072405Y-58097134D01*
X167220000Y-57876243D01*
X167367595Y-58097134D01*
G37*
X167367595Y-58097134D02*
X167568866Y-58298405D01*
X167789757Y-58446000D01*
X167568866Y-58593595D01*
X167367595Y-58794866D01*
X167220000Y-59015757D01*
X167072405Y-58794866D01*
X166871134Y-58593595D01*
X166650243Y-58446000D01*
X166871134Y-58298405D01*
X167072405Y-58097134D01*
X167220000Y-57876243D01*
X167367595Y-58097134D01*
G36*
X121636447Y-58811549D02*
G01*
X121500000Y-59015757D01*
X121352405Y-58794866D01*
X121151134Y-58593595D01*
X120930243Y-58446000D01*
X121134451Y-58309552D01*
X121636447Y-58811549D01*
G37*
X121636447Y-58811549D02*
X121500000Y-59015757D01*
X121352405Y-58794866D01*
X121151134Y-58593595D01*
X120930243Y-58446000D01*
X121134451Y-58309552D01*
X121636447Y-58811549D01*
G36*
X119107595Y-58097134D02*
G01*
X119308866Y-58298405D01*
X119529757Y-58446000D01*
X119308866Y-58593595D01*
X119107595Y-58794866D01*
X118960000Y-59015757D01*
X118812405Y-58794866D01*
X118611134Y-58593595D01*
X118390243Y-58446000D01*
X118611134Y-58298405D01*
X118812405Y-58097134D01*
X118960000Y-57876243D01*
X119107595Y-58097134D01*
G37*
X119107595Y-58097134D02*
X119308866Y-58298405D01*
X119529757Y-58446000D01*
X119308866Y-58593595D01*
X119107595Y-58794866D01*
X118960000Y-59015757D01*
X118812405Y-58794866D01*
X118611134Y-58593595D01*
X118390243Y-58446000D01*
X118611134Y-58298405D01*
X118812405Y-58097134D01*
X118960000Y-57876243D01*
X119107595Y-58097134D01*
G36*
X164827595Y-58097134D02*
G01*
X165028866Y-58298405D01*
X165249757Y-58446000D01*
X165028866Y-58593595D01*
X164827595Y-58794866D01*
X164680000Y-59015757D01*
X164532405Y-58794866D01*
X164331134Y-58593595D01*
X164110243Y-58446000D01*
X164331134Y-58298405D01*
X164532405Y-58097134D01*
X164680000Y-57876243D01*
X164827595Y-58097134D01*
G37*
X164827595Y-58097134D02*
X165028866Y-58298405D01*
X165249757Y-58446000D01*
X165028866Y-58593595D01*
X164827595Y-58794866D01*
X164680000Y-59015757D01*
X164532405Y-58794866D01*
X164331134Y-58593595D01*
X164110243Y-58446000D01*
X164331134Y-58298405D01*
X164532405Y-58097134D01*
X164680000Y-57876243D01*
X164827595Y-58097134D01*
G36*
X124187595Y-58097134D02*
G01*
X124388866Y-58298405D01*
X124609757Y-58446000D01*
X124388866Y-58593595D01*
X124361081Y-58621380D01*
X123864620Y-58124919D01*
X123892405Y-58097134D01*
X124040000Y-57876243D01*
X124187595Y-58097134D01*
G37*
X124187595Y-58097134D02*
X124388866Y-58298405D01*
X124609757Y-58446000D01*
X124388866Y-58593595D01*
X124361081Y-58621380D01*
X123864620Y-58124919D01*
X123892405Y-58097134D01*
X124040000Y-57876243D01*
X124187595Y-58097134D01*
G36*
X147047595Y-58097134D02*
G01*
X147248866Y-58298405D01*
X147469757Y-58446000D01*
X147248866Y-58593595D01*
X147222731Y-58619730D01*
X146726270Y-58123269D01*
X146752405Y-58097134D01*
X146900000Y-57876243D01*
X147047595Y-58097134D01*
G37*
X147047595Y-58097134D02*
X147248866Y-58298405D01*
X147469757Y-58446000D01*
X147248866Y-58593595D01*
X147222731Y-58619730D01*
X146726270Y-58123269D01*
X146752405Y-58097134D01*
X146900000Y-57876243D01*
X147047595Y-58097134D01*
G36*
X136887595Y-55557134D02*
G01*
X137088866Y-55758405D01*
X137309757Y-55906000D01*
X137088866Y-56053595D01*
X136887595Y-56254866D01*
X136740000Y-56475757D01*
X136592405Y-56254866D01*
X136391134Y-56053595D01*
X136170243Y-55906000D01*
X136391134Y-55758405D01*
X136592405Y-55557134D01*
X136740000Y-55336243D01*
X136887595Y-55557134D01*
G37*
X136887595Y-55557134D02*
X137088866Y-55758405D01*
X137309757Y-55906000D01*
X137088866Y-56053595D01*
X136887595Y-56254866D01*
X136740000Y-56475757D01*
X136592405Y-56254866D01*
X136391134Y-56053595D01*
X136170243Y-55906000D01*
X136391134Y-55758405D01*
X136592405Y-55557134D01*
X136740000Y-55336243D01*
X136887595Y-55557134D01*
G36*
X116567595Y-55557134D02*
G01*
X116768866Y-55758405D01*
X116989757Y-55906000D01*
X116768866Y-56053595D01*
X116567595Y-56254866D01*
X116420000Y-56475757D01*
X116272405Y-56254866D01*
X116071134Y-56053595D01*
X115850243Y-55906000D01*
X116071134Y-55758405D01*
X116272405Y-55557134D01*
X116420000Y-55336243D01*
X116567595Y-55557134D01*
G37*
X116567595Y-55557134D02*
X116768866Y-55758405D01*
X116989757Y-55906000D01*
X116768866Y-56053595D01*
X116567595Y-56254866D01*
X116420000Y-56475757D01*
X116272405Y-56254866D01*
X116071134Y-56053595D01*
X115850243Y-55906000D01*
X116071134Y-55758405D01*
X116272405Y-55557134D01*
X116420000Y-55336243D01*
X116567595Y-55557134D01*
G36*
X119107595Y-55557134D02*
G01*
X119308866Y-55758405D01*
X119529757Y-55906000D01*
X119308866Y-56053595D01*
X119107595Y-56254866D01*
X118960000Y-56475757D01*
X118812405Y-56254866D01*
X118611134Y-56053595D01*
X118390243Y-55906000D01*
X118611134Y-55758405D01*
X118812405Y-55557134D01*
X118960000Y-55336243D01*
X119107595Y-55557134D01*
G37*
X119107595Y-55557134D02*
X119308866Y-55758405D01*
X119529757Y-55906000D01*
X119308866Y-56053595D01*
X119107595Y-56254866D01*
X118960000Y-56475757D01*
X118812405Y-56254866D01*
X118611134Y-56053595D01*
X118390243Y-55906000D01*
X118611134Y-55758405D01*
X118812405Y-55557134D01*
X118960000Y-55336243D01*
X119107595Y-55557134D01*
G36*
X124187595Y-55557134D02*
G01*
X124388866Y-55758405D01*
X124609757Y-55906000D01*
X124388866Y-56053595D01*
X124187595Y-56254866D01*
X124040000Y-56475757D01*
X123892405Y-56254866D01*
X123691134Y-56053595D01*
X123470243Y-55906000D01*
X123691134Y-55758405D01*
X123892405Y-55557134D01*
X124040000Y-55336243D01*
X124187595Y-55557134D01*
G37*
X124187595Y-55557134D02*
X124388866Y-55758405D01*
X124609757Y-55906000D01*
X124388866Y-56053595D01*
X124187595Y-56254866D01*
X124040000Y-56475757D01*
X123892405Y-56254866D01*
X123691134Y-56053595D01*
X123470243Y-55906000D01*
X123691134Y-55758405D01*
X123892405Y-55557134D01*
X124040000Y-55336243D01*
X124187595Y-55557134D01*
G36*
X126727595Y-55557134D02*
G01*
X126928866Y-55758405D01*
X127149757Y-55906000D01*
X126928866Y-56053595D01*
X126727595Y-56254866D01*
X126580000Y-56475757D01*
X126432405Y-56254866D01*
X126231134Y-56053595D01*
X126010243Y-55906000D01*
X126231134Y-55758405D01*
X126432405Y-55557134D01*
X126580000Y-55336243D01*
X126727595Y-55557134D01*
G37*
X126727595Y-55557134D02*
X126928866Y-55758405D01*
X127149757Y-55906000D01*
X126928866Y-56053595D01*
X126727595Y-56254866D01*
X126580000Y-56475757D01*
X126432405Y-56254866D01*
X126231134Y-56053595D01*
X126010243Y-55906000D01*
X126231134Y-55758405D01*
X126432405Y-55557134D01*
X126580000Y-55336243D01*
X126727595Y-55557134D01*
G36*
X129267595Y-55557134D02*
G01*
X129468866Y-55758405D01*
X129689757Y-55906000D01*
X129468866Y-56053595D01*
X129267595Y-56254866D01*
X129120000Y-56475757D01*
X128972405Y-56254866D01*
X128771134Y-56053595D01*
X128550243Y-55906000D01*
X128771134Y-55758405D01*
X128972405Y-55557134D01*
X129120000Y-55336243D01*
X129267595Y-55557134D01*
G37*
X129267595Y-55557134D02*
X129468866Y-55758405D01*
X129689757Y-55906000D01*
X129468866Y-56053595D01*
X129267595Y-56254866D01*
X129120000Y-56475757D01*
X128972405Y-56254866D01*
X128771134Y-56053595D01*
X128550243Y-55906000D01*
X128771134Y-55758405D01*
X128972405Y-55557134D01*
X129120000Y-55336243D01*
X129267595Y-55557134D01*
G36*
X131807595Y-55557134D02*
G01*
X132008866Y-55758405D01*
X132229757Y-55906000D01*
X132008866Y-56053595D01*
X131807595Y-56254866D01*
X131660000Y-56475757D01*
X131512405Y-56254866D01*
X131311134Y-56053595D01*
X131090243Y-55906000D01*
X131311134Y-55758405D01*
X131512405Y-55557134D01*
X131660000Y-55336243D01*
X131807595Y-55557134D01*
G37*
X131807595Y-55557134D02*
X132008866Y-55758405D01*
X132229757Y-55906000D01*
X132008866Y-56053595D01*
X131807595Y-56254866D01*
X131660000Y-56475757D01*
X131512405Y-56254866D01*
X131311134Y-56053595D01*
X131090243Y-55906000D01*
X131311134Y-55758405D01*
X131512405Y-55557134D01*
X131660000Y-55336243D01*
X131807595Y-55557134D01*
G36*
X134347595Y-55557134D02*
G01*
X134548866Y-55758405D01*
X134769757Y-55906000D01*
X134548866Y-56053595D01*
X134347595Y-56254866D01*
X134200000Y-56475757D01*
X134052405Y-56254866D01*
X133851134Y-56053595D01*
X133630243Y-55906000D01*
X133851134Y-55758405D01*
X134052405Y-55557134D01*
X134200000Y-55336243D01*
X134347595Y-55557134D01*
G37*
X134347595Y-55557134D02*
X134548866Y-55758405D01*
X134769757Y-55906000D01*
X134548866Y-56053595D01*
X134347595Y-56254866D01*
X134200000Y-56475757D01*
X134052405Y-56254866D01*
X133851134Y-56053595D01*
X133630243Y-55906000D01*
X133851134Y-55758405D01*
X134052405Y-55557134D01*
X134200000Y-55336243D01*
X134347595Y-55557134D01*
G36*
X139427595Y-55557134D02*
G01*
X139628866Y-55758405D01*
X139849757Y-55906000D01*
X139628866Y-56053595D01*
X139427595Y-56254866D01*
X139280000Y-56475757D01*
X139132405Y-56254866D01*
X138931134Y-56053595D01*
X138710243Y-55906000D01*
X138931134Y-55758405D01*
X139132405Y-55557134D01*
X139280000Y-55336243D01*
X139427595Y-55557134D01*
G37*
X139427595Y-55557134D02*
X139628866Y-55758405D01*
X139849757Y-55906000D01*
X139628866Y-56053595D01*
X139427595Y-56254866D01*
X139280000Y-56475757D01*
X139132405Y-56254866D01*
X138931134Y-56053595D01*
X138710243Y-55906000D01*
X138931134Y-55758405D01*
X139132405Y-55557134D01*
X139280000Y-55336243D01*
X139427595Y-55557134D01*
G36*
X141967595Y-55557134D02*
G01*
X142168866Y-55758405D01*
X142389757Y-55906000D01*
X142168866Y-56053595D01*
X141967595Y-56254866D01*
X141820000Y-56475757D01*
X141672405Y-56254866D01*
X141471134Y-56053595D01*
X141250243Y-55906000D01*
X141471134Y-55758405D01*
X141672405Y-55557134D01*
X141820000Y-55336243D01*
X141967595Y-55557134D01*
G37*
X141967595Y-55557134D02*
X142168866Y-55758405D01*
X142389757Y-55906000D01*
X142168866Y-56053595D01*
X141967595Y-56254866D01*
X141820000Y-56475757D01*
X141672405Y-56254866D01*
X141471134Y-56053595D01*
X141250243Y-55906000D01*
X141471134Y-55758405D01*
X141672405Y-55557134D01*
X141820000Y-55336243D01*
X141967595Y-55557134D01*
G36*
X149587595Y-55557134D02*
G01*
X149788866Y-55758405D01*
X150009757Y-55906000D01*
X149788866Y-56053595D01*
X149587595Y-56254866D01*
X149440000Y-56475757D01*
X149292405Y-56254866D01*
X149091134Y-56053595D01*
X148870243Y-55906000D01*
X149091134Y-55758405D01*
X149292405Y-55557134D01*
X149440000Y-55336243D01*
X149587595Y-55557134D01*
G37*
X149587595Y-55557134D02*
X149788866Y-55758405D01*
X150009757Y-55906000D01*
X149788866Y-56053595D01*
X149587595Y-56254866D01*
X149440000Y-56475757D01*
X149292405Y-56254866D01*
X149091134Y-56053595D01*
X148870243Y-55906000D01*
X149091134Y-55758405D01*
X149292405Y-55557134D01*
X149440000Y-55336243D01*
X149587595Y-55557134D01*
G36*
X157207595Y-55557134D02*
G01*
X157408866Y-55758405D01*
X157629757Y-55906000D01*
X157408866Y-56053595D01*
X157207595Y-56254866D01*
X157060000Y-56475757D01*
X156912405Y-56254866D01*
X156711134Y-56053595D01*
X156490243Y-55906000D01*
X156711134Y-55758405D01*
X156912405Y-55557134D01*
X157060000Y-55336243D01*
X157207595Y-55557134D01*
G37*
X157207595Y-55557134D02*
X157408866Y-55758405D01*
X157629757Y-55906000D01*
X157408866Y-56053595D01*
X157207595Y-56254866D01*
X157060000Y-56475757D01*
X156912405Y-56254866D01*
X156711134Y-56053595D01*
X156490243Y-55906000D01*
X156711134Y-55758405D01*
X156912405Y-55557134D01*
X157060000Y-55336243D01*
X157207595Y-55557134D01*
G36*
X159747595Y-55557134D02*
G01*
X159948866Y-55758405D01*
X160169757Y-55906000D01*
X159948866Y-56053595D01*
X159747595Y-56254866D01*
X159600000Y-56475757D01*
X159452405Y-56254866D01*
X159251134Y-56053595D01*
X159030243Y-55906000D01*
X159251134Y-55758405D01*
X159452405Y-55557134D01*
X159600000Y-55336243D01*
X159747595Y-55557134D01*
G37*
X159747595Y-55557134D02*
X159948866Y-55758405D01*
X160169757Y-55906000D01*
X159948866Y-56053595D01*
X159747595Y-56254866D01*
X159600000Y-56475757D01*
X159452405Y-56254866D01*
X159251134Y-56053595D01*
X159030243Y-55906000D01*
X159251134Y-55758405D01*
X159452405Y-55557134D01*
X159600000Y-55336243D01*
X159747595Y-55557134D01*
G36*
X162287595Y-55557134D02*
G01*
X162488866Y-55758405D01*
X162709757Y-55906000D01*
X162488866Y-56053595D01*
X162287595Y-56254866D01*
X162140000Y-56475757D01*
X161992405Y-56254866D01*
X161791134Y-56053595D01*
X161570243Y-55906000D01*
X161791134Y-55758405D01*
X161992405Y-55557134D01*
X162140000Y-55336243D01*
X162287595Y-55557134D01*
G37*
X162287595Y-55557134D02*
X162488866Y-55758405D01*
X162709757Y-55906000D01*
X162488866Y-56053595D01*
X162287595Y-56254866D01*
X162140000Y-56475757D01*
X161992405Y-56254866D01*
X161791134Y-56053595D01*
X161570243Y-55906000D01*
X161791134Y-55758405D01*
X161992405Y-55557134D01*
X162140000Y-55336243D01*
X162287595Y-55557134D01*
G36*
X164827595Y-55557134D02*
G01*
X165028866Y-55758405D01*
X165249757Y-55906000D01*
X165028866Y-56053595D01*
X164827595Y-56254866D01*
X164680000Y-56475757D01*
X164532405Y-56254866D01*
X164331134Y-56053595D01*
X164110243Y-55906000D01*
X164331134Y-55758405D01*
X164532405Y-55557134D01*
X164680000Y-55336243D01*
X164827595Y-55557134D01*
G37*
X164827595Y-55557134D02*
X165028866Y-55758405D01*
X165249757Y-55906000D01*
X165028866Y-56053595D01*
X164827595Y-56254866D01*
X164680000Y-56475757D01*
X164532405Y-56254866D01*
X164331134Y-56053595D01*
X164110243Y-55906000D01*
X164331134Y-55758405D01*
X164532405Y-55557134D01*
X164680000Y-55336243D01*
X164827595Y-55557134D01*
G36*
X167367595Y-55557134D02*
G01*
X167568866Y-55758405D01*
X167789757Y-55906000D01*
X167568866Y-56053595D01*
X167367595Y-56254866D01*
X167220000Y-56475757D01*
X167072405Y-56254866D01*
X166871134Y-56053595D01*
X166650243Y-55906000D01*
X166871134Y-55758405D01*
X167072405Y-55557134D01*
X167220000Y-55336243D01*
X167367595Y-55557134D01*
G37*
X167367595Y-55557134D02*
X167568866Y-55758405D01*
X167789757Y-55906000D01*
X167568866Y-56053595D01*
X167367595Y-56254866D01*
X167220000Y-56475757D01*
X167072405Y-56254866D01*
X166871134Y-56053595D01*
X166650243Y-55906000D01*
X166871134Y-55758405D01*
X167072405Y-55557134D01*
X167220000Y-55336243D01*
X167367595Y-55557134D01*
G36*
X147047595Y-55557134D02*
G01*
X147248866Y-55758405D01*
X147469757Y-55906000D01*
X147248866Y-56053595D01*
X147047595Y-56254866D01*
X146900000Y-56475757D01*
X146752405Y-56254866D01*
X146551134Y-56053595D01*
X146330243Y-55906000D01*
X146551134Y-55758405D01*
X146752405Y-55557134D01*
X146900000Y-55336243D01*
X147047595Y-55557134D01*
G37*
X147047595Y-55557134D02*
X147248866Y-55758405D01*
X147469757Y-55906000D01*
X147248866Y-56053595D01*
X147047595Y-56254866D01*
X146900000Y-56475757D01*
X146752405Y-56254866D01*
X146551134Y-56053595D01*
X146330243Y-55906000D01*
X146551134Y-55758405D01*
X146752405Y-55557134D01*
X146900000Y-55336243D01*
X147047595Y-55557134D01*
M02*
