G04 #@! TF.GenerationSoftware,KiCad,Pcbnew,7.0.9-1.fc38*
G04 #@! TF.CreationDate,2023-11-17T02:49:10-03:00*
G04 #@! TF.ProjectId,pc104-adapter-top,70633130-342d-4616-9461-707465722d74,v2.1*
G04 #@! TF.SameCoordinates,Original*
G04 #@! TF.FileFunction,Soldermask,Top*
G04 #@! TF.FilePolarity,Negative*
%FSLAX46Y46*%
G04 Gerber Fmt 4.6, Leading zero omitted, Abs format (unit mm)*
G04 Created by KiCad (PCBNEW 7.0.9-1.fc38) date 2023-11-17 02:49:10*
%MOMM*%
%LPD*%
G01*
G04 APERTURE LIST*
%ADD10C,0.100000*%
%ADD11C,5.600000*%
G04 APERTURE END LIST*
D10*
X116011000Y-54636000D02*
G75*
G03*
X116011000Y-54636000I-861000J0D01*
G01*
X116011000Y-57176000D02*
G75*
G03*
X116011000Y-57176000I-861000J0D01*
G01*
X118551000Y-54636000D02*
G75*
G03*
X118551000Y-54636000I-861000J0D01*
G01*
X118551000Y-57176000D02*
G75*
G03*
X118551000Y-57176000I-861000J0D01*
G01*
X121091000Y-54636000D02*
G75*
G03*
X121091000Y-54636000I-861000J0D01*
G01*
X121091000Y-57176000D02*
G75*
G03*
X121091000Y-57176000I-861000J0D01*
G01*
X123631000Y-54636000D02*
G75*
G03*
X123631000Y-54636000I-861000J0D01*
G01*
X123631000Y-57176000D02*
G75*
G03*
X123631000Y-57176000I-861000J0D01*
G01*
X126171000Y-54636000D02*
G75*
G03*
X126171000Y-54636000I-861000J0D01*
G01*
X126171000Y-57176000D02*
G75*
G03*
X126171000Y-57176000I-861000J0D01*
G01*
X128711000Y-54636000D02*
G75*
G03*
X128711000Y-54636000I-861000J0D01*
G01*
X128711000Y-57176000D02*
G75*
G03*
X128711000Y-57176000I-861000J0D01*
G01*
X131251000Y-54636000D02*
G75*
G03*
X131251000Y-54636000I-861000J0D01*
G01*
X131251000Y-57176000D02*
G75*
G03*
X131251000Y-57176000I-861000J0D01*
G01*
X133791000Y-54636000D02*
G75*
G03*
X133791000Y-54636000I-861000J0D01*
G01*
X133791000Y-57176000D02*
G75*
G03*
X133791000Y-57176000I-861000J0D01*
G01*
X136331000Y-54636000D02*
G75*
G03*
X136331000Y-54636000I-861000J0D01*
G01*
X136331000Y-57176000D02*
G75*
G03*
X136331000Y-57176000I-861000J0D01*
G01*
X138871000Y-54636000D02*
G75*
G03*
X138871000Y-54636000I-861000J0D01*
G01*
X138871000Y-57176000D02*
G75*
G03*
X138871000Y-57176000I-861000J0D01*
G01*
X141411000Y-54636000D02*
G75*
G03*
X141411000Y-54636000I-861000J0D01*
G01*
X141411000Y-57176000D02*
G75*
G03*
X141411000Y-57176000I-861000J0D01*
G01*
X143951000Y-54636000D02*
G75*
G03*
X143951000Y-54636000I-861000J0D01*
G01*
X143951000Y-57176000D02*
G75*
G03*
X143951000Y-57176000I-861000J0D01*
G01*
X146491000Y-54636000D02*
G75*
G03*
X146491000Y-54636000I-861000J0D01*
G01*
X146491000Y-57176000D02*
G75*
G03*
X146491000Y-57176000I-861000J0D01*
G01*
X149031000Y-54636000D02*
G75*
G03*
X149031000Y-54636000I-861000J0D01*
G01*
X149031000Y-57176000D02*
G75*
G03*
X149031000Y-57176000I-861000J0D01*
G01*
X151571000Y-54636000D02*
G75*
G03*
X151571000Y-54636000I-861000J0D01*
G01*
X151571000Y-57176000D02*
G75*
G03*
X151571000Y-57176000I-861000J0D01*
G01*
X154111000Y-54636000D02*
G75*
G03*
X154111000Y-54636000I-861000J0D01*
G01*
X154111000Y-57176000D02*
G75*
G03*
X154111000Y-57176000I-861000J0D01*
G01*
X156651000Y-54636000D02*
G75*
G03*
X156651000Y-54636000I-861000J0D01*
G01*
X156651000Y-57176000D02*
G75*
G03*
X156651000Y-57176000I-861000J0D01*
G01*
X159191000Y-54636000D02*
G75*
G03*
X159191000Y-54636000I-861000J0D01*
G01*
X159191000Y-57176000D02*
G75*
G03*
X159191000Y-57176000I-861000J0D01*
G01*
X161731000Y-54636000D02*
G75*
G03*
X161731000Y-54636000I-861000J0D01*
G01*
X161731000Y-57176000D02*
G75*
G03*
X161731000Y-57176000I-861000J0D01*
G01*
X164271000Y-54636000D02*
G75*
G03*
X164271000Y-54636000I-861000J0D01*
G01*
X164271000Y-57176000D02*
G75*
G03*
X164271000Y-57176000I-861000J0D01*
G01*
X166811000Y-54636000D02*
G75*
G03*
X166811000Y-54636000I-861000J0D01*
G01*
X166811000Y-57176000D02*
G75*
G03*
X166811000Y-57176000I-861000J0D01*
G01*
X169351000Y-54636000D02*
G75*
G03*
X169351000Y-54636000I-861000J0D01*
G01*
X169351000Y-57176000D02*
G75*
G03*
X169351000Y-57176000I-861000J0D01*
G01*
X171891000Y-54636000D02*
G75*
G03*
X171891000Y-54636000I-861000J0D01*
G01*
X171891000Y-57176000D02*
G75*
G03*
X171891000Y-57176000I-861000J0D01*
G01*
X174431000Y-54636000D02*
G75*
G03*
X174431000Y-54636000I-861000J0D01*
G01*
X174431000Y-57176000D02*
G75*
G03*
X174431000Y-57176000I-861000J0D01*
G01*
X176971000Y-54636000D02*
G75*
G03*
X176971000Y-54636000I-861000J0D01*
G01*
X176971000Y-57176000D02*
G75*
G03*
X176971000Y-57176000I-861000J0D01*
G01*
X179511000Y-54636000D02*
G75*
G03*
X179511000Y-54636000I-861000J0D01*
G01*
X179511000Y-57176000D02*
G75*
G03*
X179511000Y-57176000I-861000J0D01*
G01*
X116011000Y-59716000D02*
G75*
G03*
X116011000Y-59716000I-861000J0D01*
G01*
X116011000Y-62256000D02*
G75*
G03*
X116011000Y-62256000I-861000J0D01*
G01*
X118551000Y-59716000D02*
G75*
G03*
X118551000Y-59716000I-861000J0D01*
G01*
X118551000Y-62256000D02*
G75*
G03*
X118551000Y-62256000I-861000J0D01*
G01*
X121091000Y-59716000D02*
G75*
G03*
X121091000Y-59716000I-861000J0D01*
G01*
X121091000Y-62256000D02*
G75*
G03*
X121091000Y-62256000I-861000J0D01*
G01*
X123631000Y-59716000D02*
G75*
G03*
X123631000Y-59716000I-861000J0D01*
G01*
X123631000Y-62256000D02*
G75*
G03*
X123631000Y-62256000I-861000J0D01*
G01*
X126171000Y-59716000D02*
G75*
G03*
X126171000Y-59716000I-861000J0D01*
G01*
X126171000Y-62256000D02*
G75*
G03*
X126171000Y-62256000I-861000J0D01*
G01*
X128711000Y-59716000D02*
G75*
G03*
X128711000Y-59716000I-861000J0D01*
G01*
X128711000Y-62256000D02*
G75*
G03*
X128711000Y-62256000I-861000J0D01*
G01*
X131251000Y-59716000D02*
G75*
G03*
X131251000Y-59716000I-861000J0D01*
G01*
X131251000Y-62256000D02*
G75*
G03*
X131251000Y-62256000I-861000J0D01*
G01*
X133791000Y-59716000D02*
G75*
G03*
X133791000Y-59716000I-861000J0D01*
G01*
X133791000Y-62256000D02*
G75*
G03*
X133791000Y-62256000I-861000J0D01*
G01*
X136331000Y-59716000D02*
G75*
G03*
X136331000Y-59716000I-861000J0D01*
G01*
X136331000Y-62256000D02*
G75*
G03*
X136331000Y-62256000I-861000J0D01*
G01*
X138871000Y-59716000D02*
G75*
G03*
X138871000Y-59716000I-861000J0D01*
G01*
X138871000Y-62256000D02*
G75*
G03*
X138871000Y-62256000I-861000J0D01*
G01*
X141411000Y-59716000D02*
G75*
G03*
X141411000Y-59716000I-861000J0D01*
G01*
X141411000Y-62256000D02*
G75*
G03*
X141411000Y-62256000I-861000J0D01*
G01*
X143951000Y-59716000D02*
G75*
G03*
X143951000Y-59716000I-861000J0D01*
G01*
X143951000Y-62256000D02*
G75*
G03*
X143951000Y-62256000I-861000J0D01*
G01*
X146491000Y-59716000D02*
G75*
G03*
X146491000Y-59716000I-861000J0D01*
G01*
X146491000Y-62256000D02*
G75*
G03*
X146491000Y-62256000I-861000J0D01*
G01*
X149031000Y-59716000D02*
G75*
G03*
X149031000Y-59716000I-861000J0D01*
G01*
X149031000Y-62256000D02*
G75*
G03*
X149031000Y-62256000I-861000J0D01*
G01*
X151571000Y-59716000D02*
G75*
G03*
X151571000Y-59716000I-861000J0D01*
G01*
X151571000Y-62256000D02*
G75*
G03*
X151571000Y-62256000I-861000J0D01*
G01*
X154111000Y-59716000D02*
G75*
G03*
X154111000Y-59716000I-861000J0D01*
G01*
X154111000Y-62256000D02*
G75*
G03*
X154111000Y-62256000I-861000J0D01*
G01*
X156651000Y-59716000D02*
G75*
G03*
X156651000Y-59716000I-861000J0D01*
G01*
X156651000Y-62256000D02*
G75*
G03*
X156651000Y-62256000I-861000J0D01*
G01*
X159191000Y-59716000D02*
G75*
G03*
X159191000Y-59716000I-861000J0D01*
G01*
X159191000Y-62256000D02*
G75*
G03*
X159191000Y-62256000I-861000J0D01*
G01*
X161731000Y-59716000D02*
G75*
G03*
X161731000Y-59716000I-861000J0D01*
G01*
X161731000Y-62256000D02*
G75*
G03*
X161731000Y-62256000I-861000J0D01*
G01*
X164271000Y-59716000D02*
G75*
G03*
X164271000Y-59716000I-861000J0D01*
G01*
X164271000Y-62256000D02*
G75*
G03*
X164271000Y-62256000I-861000J0D01*
G01*
X166811000Y-59716000D02*
G75*
G03*
X166811000Y-59716000I-861000J0D01*
G01*
X166811000Y-62256000D02*
G75*
G03*
X166811000Y-62256000I-861000J0D01*
G01*
X169351000Y-59716000D02*
G75*
G03*
X169351000Y-59716000I-861000J0D01*
G01*
X169351000Y-62256000D02*
G75*
G03*
X169351000Y-62256000I-861000J0D01*
G01*
X171891000Y-59716000D02*
G75*
G03*
X171891000Y-59716000I-861000J0D01*
G01*
X171891000Y-62256000D02*
G75*
G03*
X171891000Y-62256000I-861000J0D01*
G01*
X174431000Y-59716000D02*
G75*
G03*
X174431000Y-59716000I-861000J0D01*
G01*
X174431000Y-62256000D02*
G75*
G03*
X174431000Y-62256000I-861000J0D01*
G01*
X176971000Y-59716000D02*
G75*
G03*
X176971000Y-59716000I-861000J0D01*
G01*
X176971000Y-62256000D02*
G75*
G03*
X176971000Y-62256000I-861000J0D01*
G01*
X179511000Y-59716000D02*
G75*
G03*
X179511000Y-59716000I-861000J0D01*
G01*
X179511000Y-62256000D02*
G75*
G03*
X179511000Y-62256000I-861000J0D01*
G01*
D11*
X110050000Y-54636000D03*
X183750000Y-54636000D03*
X106350000Y-140336000D03*
X186350000Y-140336000D03*
M02*
