M48
INCH,TZ
T1C0.0157
T2C0.0402
T3C0.1260
%
G90
G05
T1
X41384Y-38393
X44571Y-33261
X44651Y-34221
X44658Y-35080
X44672Y-32140
X45996Y-33935
X47208Y-29621
X47220Y-30829
X47421Y-30291
X47467Y-32724
X48072Y-28468
X48075Y-29090
X48544Y-32028
X48594Y-27373
X48783Y-34941
X49161Y-33763
X52611Y-32576
X52646Y-31733
X52656Y-33410
X52656Y-35511
X52728Y-30874
X52736Y-33810
X52839Y-34209
X53217Y-31579
X53601Y-27373
X53806Y-35332
X54073Y-28725
X55001Y-30449
X55436Y-31151
X55720Y-32750
X56807Y-33382
X56851Y-33939
X57147Y-30522
X59914Y-32676
X59915Y-34126
X60091Y-29966
X60131Y-33567
X60141Y-29331
X60232Y-31714
X60336Y-32166
X60937Y-29404
X61034Y-26106
X61389Y-33749
X61448Y-26967
X61605Y-31420
X61998Y-30426
X62403Y-33312
X62756Y-35511
X62840Y-33465
X62958Y-30431
X63570Y-26827
X66656Y-25419
X66983Y-33707
X67145Y-35044
X67185Y-32092
X67438Y-25897
X67667Y-26503
X68194Y-30169
X68217Y-27079
X68282Y-30938
X68558Y-29649
X70173Y-34083
X70589Y-32213
X70729Y-34275
X71216Y-33398
X73773Y-38393
T2
X45335Y-21510
X45335Y-22510
X45335Y-23510
X45335Y-24510
X46335Y-21510
X46335Y-22510
X46335Y-23510
X46335Y-24510
X47335Y-21510
X47335Y-22510
X47335Y-23510
X47335Y-24510
X48335Y-21510
X48335Y-22510
X48335Y-23510
X48335Y-24510
X49335Y-21510
X49335Y-22510
X49335Y-23510
X49335Y-24510
X50335Y-21510
X50335Y-22510
X50335Y-23510
X50335Y-24510
X51335Y-21510
X51335Y-22510
X51335Y-23510
X51335Y-24510
X52335Y-21510
X52335Y-22510
X52335Y-23510
X52335Y-24510
X53335Y-21510
X53335Y-22510
X53335Y-23510
X53335Y-24510
X54335Y-21510
X54335Y-22510
X54335Y-23510
X54335Y-24510
X55335Y-21510
X55335Y-22510
X55335Y-23510
X55335Y-24510
X56335Y-21510
X56335Y-22510
X56335Y-23510
X56335Y-24510
X57335Y-21510
X57335Y-22510
X57335Y-23510
X57335Y-24510
X58335Y-21510
X58335Y-22510
X58335Y-23510
X58335Y-24510
X59335Y-21510
X59335Y-22510
X59335Y-23510
X59335Y-24510
X60335Y-21510
X60335Y-22510
X60335Y-23510
X60335Y-24510
X61335Y-21510
X61335Y-22510
X61335Y-23510
X61335Y-24510
X62335Y-21510
X62335Y-22510
X62335Y-23510
X62335Y-24510
X63335Y-21510
X63335Y-22510
X63335Y-23510
X63335Y-24510
X64335Y-21510
X64335Y-22510
X64335Y-23510
X64335Y-24510
X65335Y-21510
X65335Y-22510
X65335Y-23510
X65335Y-24510
X66335Y-21510
X66335Y-22510
X66335Y-23510
X66335Y-24510
X67335Y-21510
X67335Y-22510
X67335Y-23510
X67335Y-24510
X68335Y-21510
X68335Y-22510
X68335Y-23510
X68335Y-24510
X69335Y-21510
X69335Y-22510
X69335Y-23510
X69335Y-24510
X70335Y-21510
X70335Y-22510
X70335Y-23510
X70335Y-24510
T3
X41870Y-55250
X43327Y-21510
X72343Y-21510
X73366Y-55250
T0
M30
