%TF.GenerationSoftware,KiCad,Pcbnew,5.1.6-1.fc32*%
%TF.CreationDate,2020-09-11T22:13:51-03:00*%
%TF.ProjectId,pc104-adapter-top,70633130-342d-4616-9461-707465722d74,v2.0*%
%TF.SameCoordinates,Original*%
%TF.FileFunction,Legend,Bot*%
%TF.FilePolarity,Positive*%
%FSLAX46Y46*%
G04 Gerber Fmt 4.6, Leading zero omitted, Abs format (unit mm)*
G04 Created by KiCad (PCBNEW 5.1.6-1.fc32) date 2020-09-11 22:13:51*
%MOMM*%
%LPD*%
G01*
G04 APERTURE LIST*
%ADD10C,0.160000*%
%ADD11C,0.120000*%
%ADD12C,0.150000*%
G04 APERTURE END LIST*
D10*
X169652380Y-75952380D02*
X169652380Y-74952380D01*
X169652380Y-75428571D02*
X169080952Y-75428571D01*
X169080952Y-75952380D02*
X169080952Y-74952380D01*
X168652380Y-75047619D02*
X168604761Y-75000000D01*
X168509523Y-74952380D01*
X168271428Y-74952380D01*
X168176190Y-75000000D01*
X168128571Y-75047619D01*
X168080952Y-75142857D01*
X168080952Y-75238095D01*
X168128571Y-75380952D01*
X168700000Y-75952380D01*
X168080952Y-75952380D01*
X167652380Y-75857142D02*
X167604761Y-75904761D01*
X167652380Y-75952380D01*
X167700000Y-75904761D01*
X167652380Y-75857142D01*
X167652380Y-75952380D01*
X166700000Y-74952380D02*
X167176190Y-74952380D01*
X167223809Y-75428571D01*
X167176190Y-75380952D01*
X167080952Y-75333333D01*
X166842857Y-75333333D01*
X166747619Y-75380952D01*
X166700000Y-75428571D01*
X166652380Y-75523809D01*
X166652380Y-75761904D01*
X166700000Y-75857142D01*
X166747619Y-75904761D01*
X166842857Y-75952380D01*
X167080952Y-75952380D01*
X167176190Y-75904761D01*
X167223809Y-75857142D01*
X166271428Y-75047619D02*
X166223809Y-75000000D01*
X166128571Y-74952380D01*
X165890476Y-74952380D01*
X165795238Y-75000000D01*
X165747619Y-75047619D01*
X165700000Y-75142857D01*
X165700000Y-75238095D01*
X165747619Y-75380952D01*
X166319047Y-75952380D01*
X165700000Y-75952380D01*
X169652380Y-91052380D02*
X169652380Y-90052380D01*
X169652380Y-90528571D02*
X169080952Y-90528571D01*
X169080952Y-91052380D02*
X169080952Y-90052380D01*
X168652380Y-90147619D02*
X168604761Y-90100000D01*
X168509523Y-90052380D01*
X168271428Y-90052380D01*
X168176190Y-90100000D01*
X168128571Y-90147619D01*
X168080952Y-90242857D01*
X168080952Y-90338095D01*
X168128571Y-90480952D01*
X168700000Y-91052380D01*
X168080952Y-91052380D01*
X167652380Y-90957142D02*
X167604761Y-91004761D01*
X167652380Y-91052380D01*
X167700000Y-91004761D01*
X167652380Y-90957142D01*
X167652380Y-91052380D01*
X166747619Y-90385714D02*
X166747619Y-91052380D01*
X166985714Y-90004761D02*
X167223809Y-90719047D01*
X166604761Y-90719047D01*
X166033333Y-90052380D02*
X165938095Y-90052380D01*
X165842857Y-90100000D01*
X165795238Y-90147619D01*
X165747619Y-90242857D01*
X165700000Y-90433333D01*
X165700000Y-90671428D01*
X165747619Y-90861904D01*
X165795238Y-90957142D01*
X165842857Y-91004761D01*
X165938095Y-91052380D01*
X166033333Y-91052380D01*
X166128571Y-91004761D01*
X166176190Y-90957142D01*
X166223809Y-90861904D01*
X166271428Y-90671428D01*
X166271428Y-90433333D01*
X166223809Y-90242857D01*
X166176190Y-90147619D01*
X166128571Y-90100000D01*
X166033333Y-90052380D01*
X159152380Y-76052380D02*
X159152380Y-75052380D01*
X159152380Y-75528571D02*
X158580952Y-75528571D01*
X158580952Y-76052380D02*
X158580952Y-75052380D01*
X158152380Y-75147619D02*
X158104761Y-75100000D01*
X158009523Y-75052380D01*
X157771428Y-75052380D01*
X157676190Y-75100000D01*
X157628571Y-75147619D01*
X157580952Y-75242857D01*
X157580952Y-75338095D01*
X157628571Y-75480952D01*
X158200000Y-76052380D01*
X157580952Y-76052380D01*
X157152380Y-75957142D02*
X157104761Y-76004761D01*
X157152380Y-76052380D01*
X157200000Y-76004761D01*
X157152380Y-75957142D01*
X157152380Y-76052380D01*
X156771428Y-75052380D02*
X156152380Y-75052380D01*
X156485714Y-75433333D01*
X156342857Y-75433333D01*
X156247619Y-75480952D01*
X156200000Y-75528571D01*
X156152380Y-75623809D01*
X156152380Y-75861904D01*
X156200000Y-75957142D01*
X156247619Y-76004761D01*
X156342857Y-76052380D01*
X156628571Y-76052380D01*
X156723809Y-76004761D01*
X156771428Y-75957142D01*
X155676190Y-76052380D02*
X155485714Y-76052380D01*
X155390476Y-76004761D01*
X155342857Y-75957142D01*
X155247619Y-75814285D01*
X155200000Y-75623809D01*
X155200000Y-75242857D01*
X155247619Y-75147619D01*
X155295238Y-75100000D01*
X155390476Y-75052380D01*
X155580952Y-75052380D01*
X155676190Y-75100000D01*
X155723809Y-75147619D01*
X155771428Y-75242857D01*
X155771428Y-75480952D01*
X155723809Y-75576190D01*
X155676190Y-75623809D01*
X155580952Y-75671428D01*
X155390476Y-75671428D01*
X155295238Y-75623809D01*
X155247619Y-75576190D01*
X155200000Y-75480952D01*
X159052380Y-91052380D02*
X159052380Y-90052380D01*
X159052380Y-90528571D02*
X158480952Y-90528571D01*
X158480952Y-91052380D02*
X158480952Y-90052380D01*
X158052380Y-90147619D02*
X158004761Y-90100000D01*
X157909523Y-90052380D01*
X157671428Y-90052380D01*
X157576190Y-90100000D01*
X157528571Y-90147619D01*
X157480952Y-90242857D01*
X157480952Y-90338095D01*
X157528571Y-90480952D01*
X158100000Y-91052380D01*
X157480952Y-91052380D01*
X157052380Y-90957142D02*
X157004761Y-91004761D01*
X157052380Y-91052380D01*
X157100000Y-91004761D01*
X157052380Y-90957142D01*
X157052380Y-91052380D01*
X156623809Y-90147619D02*
X156576190Y-90100000D01*
X156480952Y-90052380D01*
X156242857Y-90052380D01*
X156147619Y-90100000D01*
X156100000Y-90147619D01*
X156052380Y-90242857D01*
X156052380Y-90338095D01*
X156100000Y-90480952D01*
X156671428Y-91052380D01*
X156052380Y-91052380D01*
X155719047Y-90052380D02*
X155052380Y-90052380D01*
X155480952Y-91052380D01*
X144452380Y-90247619D02*
X143452380Y-90247619D01*
X143928571Y-90247619D02*
X143928571Y-90819047D01*
X144452380Y-90819047D02*
X143452380Y-90819047D01*
X143547619Y-91247619D02*
X143500000Y-91295238D01*
X143452380Y-91390476D01*
X143452380Y-91628571D01*
X143500000Y-91723809D01*
X143547619Y-91771428D01*
X143642857Y-91819047D01*
X143738095Y-91819047D01*
X143880952Y-91771428D01*
X144452380Y-91200000D01*
X144452380Y-91819047D01*
X144357142Y-92247619D02*
X144404761Y-92295238D01*
X144452380Y-92247619D01*
X144404761Y-92200000D01*
X144357142Y-92247619D01*
X144452380Y-92247619D01*
X143547619Y-92676190D02*
X143500000Y-92723809D01*
X143452380Y-92819047D01*
X143452380Y-93057142D01*
X143500000Y-93152380D01*
X143547619Y-93200000D01*
X143642857Y-93247619D01*
X143738095Y-93247619D01*
X143880952Y-93200000D01*
X144452380Y-92628571D01*
X144452380Y-93247619D01*
X143452380Y-94104761D02*
X143452380Y-93914285D01*
X143500000Y-93819047D01*
X143547619Y-93771428D01*
X143690476Y-93676190D01*
X143880952Y-93628571D01*
X144261904Y-93628571D01*
X144357142Y-93676190D01*
X144404761Y-93723809D01*
X144452380Y-93819047D01*
X144452380Y-94009523D01*
X144404761Y-94104761D01*
X144357142Y-94152380D01*
X144261904Y-94200000D01*
X144023809Y-94200000D01*
X143928571Y-94152380D01*
X143880952Y-94104761D01*
X143833333Y-94009523D01*
X143833333Y-93819047D01*
X143880952Y-93723809D01*
X143928571Y-93676190D01*
X144023809Y-93628571D01*
X144352380Y-71947619D02*
X143352380Y-71947619D01*
X143828571Y-71947619D02*
X143828571Y-72519047D01*
X144352380Y-72519047D02*
X143352380Y-72519047D01*
X143447619Y-72947619D02*
X143400000Y-72995238D01*
X143352380Y-73090476D01*
X143352380Y-73328571D01*
X143400000Y-73423809D01*
X143447619Y-73471428D01*
X143542857Y-73519047D01*
X143638095Y-73519047D01*
X143780952Y-73471428D01*
X144352380Y-72900000D01*
X144352380Y-73519047D01*
X144257142Y-73947619D02*
X144304761Y-73995238D01*
X144352380Y-73947619D01*
X144304761Y-73900000D01*
X144257142Y-73947619D01*
X144352380Y-73947619D01*
X144352380Y-74947619D02*
X144352380Y-74376190D01*
X144352380Y-74661904D02*
X143352380Y-74661904D01*
X143495238Y-74566666D01*
X143590476Y-74471428D01*
X143638095Y-74376190D01*
X143685714Y-75804761D02*
X144352380Y-75804761D01*
X143304761Y-75566666D02*
X144019047Y-75328571D01*
X144019047Y-75947619D01*
X126252380Y-90952380D02*
X126252380Y-89952380D01*
X126252380Y-90428571D02*
X125680952Y-90428571D01*
X125680952Y-90952380D02*
X125680952Y-89952380D01*
X125252380Y-90047619D02*
X125204761Y-90000000D01*
X125109523Y-89952380D01*
X124871428Y-89952380D01*
X124776190Y-90000000D01*
X124728571Y-90047619D01*
X124680952Y-90142857D01*
X124680952Y-90238095D01*
X124728571Y-90380952D01*
X125300000Y-90952380D01*
X124680952Y-90952380D01*
X124252380Y-90857142D02*
X124204761Y-90904761D01*
X124252380Y-90952380D01*
X124300000Y-90904761D01*
X124252380Y-90857142D01*
X124252380Y-90952380D01*
X123252380Y-90952380D02*
X123823809Y-90952380D01*
X123538095Y-90952380D02*
X123538095Y-89952380D01*
X123633333Y-90095238D01*
X123728571Y-90190476D01*
X123823809Y-90238095D01*
X122919047Y-89952380D02*
X122300000Y-89952380D01*
X122633333Y-90333333D01*
X122490476Y-90333333D01*
X122395238Y-90380952D01*
X122347619Y-90428571D01*
X122300000Y-90523809D01*
X122300000Y-90761904D01*
X122347619Y-90857142D01*
X122395238Y-90904761D01*
X122490476Y-90952380D01*
X122776190Y-90952380D01*
X122871428Y-90904761D01*
X122919047Y-90857142D01*
X125276190Y-76052380D02*
X125276190Y-75052380D01*
X125276190Y-75528571D02*
X124704761Y-75528571D01*
X124704761Y-76052380D02*
X124704761Y-75052380D01*
X124276190Y-75147619D02*
X124228571Y-75100000D01*
X124133333Y-75052380D01*
X123895238Y-75052380D01*
X123800000Y-75100000D01*
X123752380Y-75147619D01*
X123704761Y-75242857D01*
X123704761Y-75338095D01*
X123752380Y-75480952D01*
X124323809Y-76052380D01*
X123704761Y-76052380D01*
X123276190Y-75957142D02*
X123228571Y-76004761D01*
X123276190Y-76052380D01*
X123323809Y-76004761D01*
X123276190Y-75957142D01*
X123276190Y-76052380D01*
X122276190Y-76052380D02*
X122847619Y-76052380D01*
X122561904Y-76052380D02*
X122561904Y-75052380D01*
X122657142Y-75195238D01*
X122752380Y-75290476D01*
X122847619Y-75338095D01*
X180152380Y-75952380D02*
X180152380Y-74952380D01*
X180152380Y-75428571D02*
X179580952Y-75428571D01*
X179580952Y-75952380D02*
X179580952Y-74952380D01*
X178580952Y-75952380D02*
X179152380Y-75952380D01*
X178866666Y-75952380D02*
X178866666Y-74952380D01*
X178961904Y-75095238D01*
X179057142Y-75190476D01*
X179152380Y-75238095D01*
X178152380Y-75857142D02*
X178104761Y-75904761D01*
X178152380Y-75952380D01*
X178200000Y-75904761D01*
X178152380Y-75857142D01*
X178152380Y-75952380D01*
X177200000Y-74952380D02*
X177676190Y-74952380D01*
X177723809Y-75428571D01*
X177676190Y-75380952D01*
X177580952Y-75333333D01*
X177342857Y-75333333D01*
X177247619Y-75380952D01*
X177200000Y-75428571D01*
X177152380Y-75523809D01*
X177152380Y-75761904D01*
X177200000Y-75857142D01*
X177247619Y-75904761D01*
X177342857Y-75952380D01*
X177580952Y-75952380D01*
X177676190Y-75904761D01*
X177723809Y-75857142D01*
X176771428Y-75047619D02*
X176723809Y-75000000D01*
X176628571Y-74952380D01*
X176390476Y-74952380D01*
X176295238Y-75000000D01*
X176247619Y-75047619D01*
X176200000Y-75142857D01*
X176200000Y-75238095D01*
X176247619Y-75380952D01*
X176819047Y-75952380D01*
X176200000Y-75952380D01*
X180152380Y-91052380D02*
X180152380Y-90052380D01*
X180152380Y-90528571D02*
X179580952Y-90528571D01*
X179580952Y-91052380D02*
X179580952Y-90052380D01*
X178580952Y-91052380D02*
X179152380Y-91052380D01*
X178866666Y-91052380D02*
X178866666Y-90052380D01*
X178961904Y-90195238D01*
X179057142Y-90290476D01*
X179152380Y-90338095D01*
X178152380Y-90957142D02*
X178104761Y-91004761D01*
X178152380Y-91052380D01*
X178200000Y-91004761D01*
X178152380Y-90957142D01*
X178152380Y-91052380D01*
X177247619Y-90385714D02*
X177247619Y-91052380D01*
X177485714Y-90004761D02*
X177723809Y-90719047D01*
X177104761Y-90719047D01*
X176533333Y-90052380D02*
X176438095Y-90052380D01*
X176342857Y-90100000D01*
X176295238Y-90147619D01*
X176247619Y-90242857D01*
X176200000Y-90433333D01*
X176200000Y-90671428D01*
X176247619Y-90861904D01*
X176295238Y-90957142D01*
X176342857Y-91004761D01*
X176438095Y-91052380D01*
X176533333Y-91052380D01*
X176628571Y-91004761D01*
X176676190Y-90957142D01*
X176723809Y-90861904D01*
X176771428Y-90671428D01*
X176771428Y-90433333D01*
X176723809Y-90242857D01*
X176676190Y-90147619D01*
X176628571Y-90100000D01*
X176533333Y-90052380D01*
X148652380Y-71847619D02*
X147652380Y-71847619D01*
X148128571Y-71847619D02*
X148128571Y-72419047D01*
X148652380Y-72419047D02*
X147652380Y-72419047D01*
X148652380Y-73419047D02*
X148652380Y-72847619D01*
X148652380Y-73133333D02*
X147652380Y-73133333D01*
X147795238Y-73038095D01*
X147890476Y-72942857D01*
X147938095Y-72847619D01*
X148557142Y-73847619D02*
X148604761Y-73895238D01*
X148652380Y-73847619D01*
X148604761Y-73800000D01*
X148557142Y-73847619D01*
X148652380Y-73847619D01*
X147652380Y-74228571D02*
X147652380Y-74847619D01*
X148033333Y-74514285D01*
X148033333Y-74657142D01*
X148080952Y-74752380D01*
X148128571Y-74800000D01*
X148223809Y-74847619D01*
X148461904Y-74847619D01*
X148557142Y-74800000D01*
X148604761Y-74752380D01*
X148652380Y-74657142D01*
X148652380Y-74371428D01*
X148604761Y-74276190D01*
X148557142Y-74228571D01*
X148652380Y-75323809D02*
X148652380Y-75514285D01*
X148604761Y-75609523D01*
X148557142Y-75657142D01*
X148414285Y-75752380D01*
X148223809Y-75800000D01*
X147842857Y-75800000D01*
X147747619Y-75752380D01*
X147700000Y-75704761D01*
X147652380Y-75609523D01*
X147652380Y-75419047D01*
X147700000Y-75323809D01*
X147747619Y-75276190D01*
X147842857Y-75228571D01*
X148080952Y-75228571D01*
X148176190Y-75276190D01*
X148223809Y-75323809D01*
X148271428Y-75419047D01*
X148271428Y-75609523D01*
X148223809Y-75704761D01*
X148176190Y-75752380D01*
X148080952Y-75800000D01*
X148552380Y-90247619D02*
X147552380Y-90247619D01*
X148028571Y-90247619D02*
X148028571Y-90819047D01*
X148552380Y-90819047D02*
X147552380Y-90819047D01*
X148552380Y-91819047D02*
X148552380Y-91247619D01*
X148552380Y-91533333D02*
X147552380Y-91533333D01*
X147695238Y-91438095D01*
X147790476Y-91342857D01*
X147838095Y-91247619D01*
X148457142Y-92247619D02*
X148504761Y-92295238D01*
X148552380Y-92247619D01*
X148504761Y-92200000D01*
X148457142Y-92247619D01*
X148552380Y-92247619D01*
X147647619Y-92676190D02*
X147600000Y-92723809D01*
X147552380Y-92819047D01*
X147552380Y-93057142D01*
X147600000Y-93152380D01*
X147647619Y-93200000D01*
X147742857Y-93247619D01*
X147838095Y-93247619D01*
X147980952Y-93200000D01*
X148552380Y-92628571D01*
X148552380Y-93247619D01*
X147552380Y-93580952D02*
X147552380Y-94247619D01*
X148552380Y-93819047D01*
X136752380Y-90952380D02*
X136752380Y-89952380D01*
X136752380Y-90428571D02*
X136180952Y-90428571D01*
X136180952Y-90952380D02*
X136180952Y-89952380D01*
X135180952Y-90952380D02*
X135752380Y-90952380D01*
X135466666Y-90952380D02*
X135466666Y-89952380D01*
X135561904Y-90095238D01*
X135657142Y-90190476D01*
X135752380Y-90238095D01*
X134752380Y-90857142D02*
X134704761Y-90904761D01*
X134752380Y-90952380D01*
X134800000Y-90904761D01*
X134752380Y-90857142D01*
X134752380Y-90952380D01*
X134323809Y-90047619D02*
X134276190Y-90000000D01*
X134180952Y-89952380D01*
X133942857Y-89952380D01*
X133847619Y-90000000D01*
X133800000Y-90047619D01*
X133752380Y-90142857D01*
X133752380Y-90238095D01*
X133800000Y-90380952D01*
X134371428Y-90952380D01*
X133752380Y-90952380D01*
X132895238Y-89952380D02*
X133085714Y-89952380D01*
X133180952Y-90000000D01*
X133228571Y-90047619D01*
X133323809Y-90190476D01*
X133371428Y-90380952D01*
X133371428Y-90761904D01*
X133323809Y-90857142D01*
X133276190Y-90904761D01*
X133180952Y-90952380D01*
X132990476Y-90952380D01*
X132895238Y-90904761D01*
X132847619Y-90857142D01*
X132800000Y-90761904D01*
X132800000Y-90523809D01*
X132847619Y-90428571D01*
X132895238Y-90380952D01*
X132990476Y-90333333D01*
X133180952Y-90333333D01*
X133276190Y-90380952D01*
X133323809Y-90428571D01*
X133371428Y-90523809D01*
X136752380Y-76052380D02*
X136752380Y-75052380D01*
X136752380Y-75528571D02*
X136180952Y-75528571D01*
X136180952Y-76052380D02*
X136180952Y-75052380D01*
X135180952Y-76052380D02*
X135752380Y-76052380D01*
X135466666Y-76052380D02*
X135466666Y-75052380D01*
X135561904Y-75195238D01*
X135657142Y-75290476D01*
X135752380Y-75338095D01*
X134752380Y-75957142D02*
X134704761Y-76004761D01*
X134752380Y-76052380D01*
X134800000Y-76004761D01*
X134752380Y-75957142D01*
X134752380Y-76052380D01*
X133752380Y-76052380D02*
X134323809Y-76052380D01*
X134038095Y-76052380D02*
X134038095Y-75052380D01*
X134133333Y-75195238D01*
X134228571Y-75290476D01*
X134323809Y-75338095D01*
X132895238Y-75385714D02*
X132895238Y-76052380D01*
X133133333Y-75004761D02*
X133371428Y-75719047D01*
X132752380Y-75719047D01*
X115752380Y-90952380D02*
X115752380Y-89952380D01*
X115752380Y-90428571D02*
X115180952Y-90428571D01*
X115180952Y-90952380D02*
X115180952Y-89952380D01*
X114180952Y-90952380D02*
X114752380Y-90952380D01*
X114466666Y-90952380D02*
X114466666Y-89952380D01*
X114561904Y-90095238D01*
X114657142Y-90190476D01*
X114752380Y-90238095D01*
X113752380Y-90857142D02*
X113704761Y-90904761D01*
X113752380Y-90952380D01*
X113800000Y-90904761D01*
X113752380Y-90857142D01*
X113752380Y-90952380D01*
X112752380Y-90952380D02*
X113323809Y-90952380D01*
X113038095Y-90952380D02*
X113038095Y-89952380D01*
X113133333Y-90095238D01*
X113228571Y-90190476D01*
X113323809Y-90238095D01*
X112419047Y-89952380D02*
X111800000Y-89952380D01*
X112133333Y-90333333D01*
X111990476Y-90333333D01*
X111895238Y-90380952D01*
X111847619Y-90428571D01*
X111800000Y-90523809D01*
X111800000Y-90761904D01*
X111847619Y-90857142D01*
X111895238Y-90904761D01*
X111990476Y-90952380D01*
X112276190Y-90952380D01*
X112371428Y-90904761D01*
X112419047Y-90857142D01*
X114776190Y-76052380D02*
X114776190Y-75052380D01*
X114776190Y-75528571D02*
X114204761Y-75528571D01*
X114204761Y-76052380D02*
X114204761Y-75052380D01*
X113204761Y-76052380D02*
X113776190Y-76052380D01*
X113490476Y-76052380D02*
X113490476Y-75052380D01*
X113585714Y-75195238D01*
X113680952Y-75290476D01*
X113776190Y-75338095D01*
X112776190Y-75957142D02*
X112728571Y-76004761D01*
X112776190Y-76052380D01*
X112823809Y-76004761D01*
X112776190Y-75957142D01*
X112776190Y-76052380D01*
X111776190Y-76052380D02*
X112347619Y-76052380D01*
X112061904Y-76052380D02*
X112061904Y-75052380D01*
X112157142Y-75195238D01*
X112252380Y-75290476D01*
X112347619Y-75338095D01*
X179470000Y-53416000D02*
X112530000Y-53416000D01*
X179470000Y-64476000D02*
X179470000Y-53416000D01*
X112530000Y-64476000D02*
X179470000Y-64476000D01*
X112530000Y-53416000D02*
X112530000Y-64476000D01*
D11*
%TO.C,J8*%
X185542000Y-74260000D02*
X185542000Y-91740000D01*
X181622000Y-92110000D02*
X181622000Y-91160000D01*
X182572000Y-92110000D02*
X181622000Y-92110000D01*
X181622000Y-74840000D02*
X180932000Y-74840000D01*
X181622000Y-73890000D02*
X181622000Y-74840000D01*
X182572000Y-73890000D02*
X181622000Y-73890000D01*
%TO.C,J7*%
X153968000Y-74260000D02*
X153968000Y-91740000D01*
X150048000Y-92110000D02*
X150048000Y-91160000D01*
X150998000Y-92110000D02*
X150048000Y-92110000D01*
X150048000Y-74840000D02*
X149358000Y-74840000D01*
X150048000Y-73890000D02*
X150048000Y-74840000D01*
X150998000Y-73890000D02*
X150048000Y-73890000D01*
%TO.C,J6*%
X127499000Y-91740000D02*
X127499000Y-74260000D01*
X131419000Y-73890000D02*
X131419000Y-74840000D01*
X130469000Y-73890000D02*
X131419000Y-73890000D01*
X131419000Y-91160000D02*
X132109000Y-91160000D01*
X131419000Y-92110000D02*
X131419000Y-91160000D01*
X130469000Y-92110000D02*
X131419000Y-92110000D01*
%TO.C,J5*%
X106450000Y-91740000D02*
X106450000Y-74260000D01*
X110370000Y-73890000D02*
X110370000Y-74840000D01*
X109420000Y-73890000D02*
X110370000Y-73890000D01*
X110370000Y-91160000D02*
X111060000Y-91160000D01*
X110370000Y-92110000D02*
X110370000Y-91160000D01*
X109420000Y-92110000D02*
X110370000Y-92110000D01*
%TO.C,J4*%
X175018000Y-74260000D02*
X175018000Y-91740000D01*
X171098000Y-92110000D02*
X171098000Y-91160000D01*
X172048000Y-92110000D02*
X171098000Y-92110000D01*
X171098000Y-74840000D02*
X170408000Y-74840000D01*
X171098000Y-73890000D02*
X171098000Y-74840000D01*
X172048000Y-73890000D02*
X171098000Y-73890000D01*
%TO.C,J3*%
X164493000Y-74260000D02*
X164493000Y-91740000D01*
X160573000Y-92110000D02*
X160573000Y-91160000D01*
X161523000Y-92110000D02*
X160573000Y-92110000D01*
X160573000Y-74840000D02*
X159883000Y-74840000D01*
X160573000Y-73890000D02*
X160573000Y-74840000D01*
X161523000Y-73890000D02*
X160573000Y-73890000D01*
%TO.C,J2*%
X138024000Y-91740000D02*
X138024000Y-74260000D01*
X141944000Y-73890000D02*
X141944000Y-74840000D01*
X140994000Y-73890000D02*
X141944000Y-73890000D01*
X141944000Y-91160000D02*
X142634000Y-91160000D01*
X141944000Y-92110000D02*
X141944000Y-91160000D01*
X140994000Y-92110000D02*
X141944000Y-92110000D01*
%TO.C,J1*%
X116975000Y-91740000D02*
X116975000Y-74260000D01*
X120895000Y-73890000D02*
X120895000Y-74840000D01*
X119945000Y-73890000D02*
X120895000Y-73890000D01*
X120895000Y-91160000D02*
X121585000Y-91160000D01*
X120895000Y-92110000D02*
X120895000Y-91160000D01*
X119945000Y-92110000D02*
X120895000Y-92110000D01*
%TO.C,J9*%
D10*
X146333333Y-52352380D02*
X146333333Y-53066666D01*
X146380952Y-53209523D01*
X146476190Y-53304761D01*
X146619047Y-53352380D01*
X146714285Y-53352380D01*
X145809523Y-53352380D02*
X145619047Y-53352380D01*
X145523809Y-53304761D01*
X145476190Y-53257142D01*
X145380952Y-53114285D01*
X145333333Y-52923809D01*
X145333333Y-52542857D01*
X145380952Y-52447619D01*
X145428571Y-52400000D01*
X145523809Y-52352380D01*
X145714285Y-52352380D01*
X145809523Y-52400000D01*
X145857142Y-52447619D01*
X145904761Y-52542857D01*
X145904761Y-52780952D01*
X145857142Y-52876190D01*
X145809523Y-52923809D01*
X145714285Y-52971428D01*
X145523809Y-52971428D01*
X145428571Y-52923809D01*
X145380952Y-52876190D01*
X145333333Y-52780952D01*
%TO.C,J10*%
X146809523Y-64952380D02*
X146809523Y-65666666D01*
X146857142Y-65809523D01*
X146952380Y-65904761D01*
X147095238Y-65952380D01*
X147190476Y-65952380D01*
X145809523Y-65952380D02*
X146380952Y-65952380D01*
X146095238Y-65952380D02*
X146095238Y-64952380D01*
X146190476Y-65095238D01*
X146285714Y-65190476D01*
X146380952Y-65238095D01*
X145190476Y-64952380D02*
X145095238Y-64952380D01*
X145000000Y-65000000D01*
X144952380Y-65047619D01*
X144904761Y-65142857D01*
X144857142Y-65333333D01*
X144857142Y-65571428D01*
X144904761Y-65761904D01*
X144952380Y-65857142D01*
X145000000Y-65904761D01*
X145095238Y-65952380D01*
X145190476Y-65952380D01*
X145285714Y-65904761D01*
X145333333Y-65857142D01*
X145380952Y-65761904D01*
X145428571Y-65571428D01*
X145428571Y-65333333D01*
X145380952Y-65142857D01*
X145333333Y-65047619D01*
X145285714Y-65000000D01*
X145190476Y-64952380D01*
%TO.C,J8*%
D12*
X179184380Y-82666666D02*
X179898666Y-82666666D01*
X180041523Y-82619047D01*
X180136761Y-82523809D01*
X180184380Y-82380952D01*
X180184380Y-82285714D01*
X179612952Y-83285714D02*
X179565333Y-83190476D01*
X179517714Y-83142857D01*
X179422476Y-83095238D01*
X179374857Y-83095238D01*
X179279619Y-83142857D01*
X179232000Y-83190476D01*
X179184380Y-83285714D01*
X179184380Y-83476190D01*
X179232000Y-83571428D01*
X179279619Y-83619047D01*
X179374857Y-83666666D01*
X179422476Y-83666666D01*
X179517714Y-83619047D01*
X179565333Y-83571428D01*
X179612952Y-83476190D01*
X179612952Y-83285714D01*
X179660571Y-83190476D01*
X179708190Y-83142857D01*
X179803428Y-83095238D01*
X179993904Y-83095238D01*
X180089142Y-83142857D01*
X180136761Y-83190476D01*
X180184380Y-83285714D01*
X180184380Y-83476190D01*
X180136761Y-83571428D01*
X180089142Y-83619047D01*
X179993904Y-83666666D01*
X179803428Y-83666666D01*
X179708190Y-83619047D01*
X179660571Y-83571428D01*
X179612952Y-83476190D01*
%TO.C,J7*%
X147610380Y-82666666D02*
X148324666Y-82666666D01*
X148467523Y-82619047D01*
X148562761Y-82523809D01*
X148610380Y-82380952D01*
X148610380Y-82285714D01*
X147610380Y-83047619D02*
X147610380Y-83714285D01*
X148610380Y-83285714D01*
%TO.C,J6*%
X132761380Y-82666666D02*
X133475666Y-82666666D01*
X133618523Y-82619047D01*
X133713761Y-82523809D01*
X133761380Y-82380952D01*
X133761380Y-82285714D01*
X132761380Y-83571428D02*
X132761380Y-83380952D01*
X132809000Y-83285714D01*
X132856619Y-83238095D01*
X132999476Y-83142857D01*
X133189952Y-83095238D01*
X133570904Y-83095238D01*
X133666142Y-83142857D01*
X133713761Y-83190476D01*
X133761380Y-83285714D01*
X133761380Y-83476190D01*
X133713761Y-83571428D01*
X133666142Y-83619047D01*
X133570904Y-83666666D01*
X133332809Y-83666666D01*
X133237571Y-83619047D01*
X133189952Y-83571428D01*
X133142333Y-83476190D01*
X133142333Y-83285714D01*
X133189952Y-83190476D01*
X133237571Y-83142857D01*
X133332809Y-83095238D01*
%TO.C,J5*%
X111712380Y-82666666D02*
X112426666Y-82666666D01*
X112569523Y-82619047D01*
X112664761Y-82523809D01*
X112712380Y-82380952D01*
X112712380Y-82285714D01*
X111712380Y-83619047D02*
X111712380Y-83142857D01*
X112188571Y-83095238D01*
X112140952Y-83142857D01*
X112093333Y-83238095D01*
X112093333Y-83476190D01*
X112140952Y-83571428D01*
X112188571Y-83619047D01*
X112283809Y-83666666D01*
X112521904Y-83666666D01*
X112617142Y-83619047D01*
X112664761Y-83571428D01*
X112712380Y-83476190D01*
X112712380Y-83238095D01*
X112664761Y-83142857D01*
X112617142Y-83095238D01*
%TO.C,J4*%
X168660380Y-82666666D02*
X169374666Y-82666666D01*
X169517523Y-82619047D01*
X169612761Y-82523809D01*
X169660380Y-82380952D01*
X169660380Y-82285714D01*
X168993714Y-83571428D02*
X169660380Y-83571428D01*
X168612761Y-83333333D02*
X169327047Y-83095238D01*
X169327047Y-83714285D01*
%TO.C,J3*%
X158135380Y-82666666D02*
X158849666Y-82666666D01*
X158992523Y-82619047D01*
X159087761Y-82523809D01*
X159135380Y-82380952D01*
X159135380Y-82285714D01*
X158135380Y-83047619D02*
X158135380Y-83666666D01*
X158516333Y-83333333D01*
X158516333Y-83476190D01*
X158563952Y-83571428D01*
X158611571Y-83619047D01*
X158706809Y-83666666D01*
X158944904Y-83666666D01*
X159040142Y-83619047D01*
X159087761Y-83571428D01*
X159135380Y-83476190D01*
X159135380Y-83190476D01*
X159087761Y-83095238D01*
X159040142Y-83047619D01*
%TO.C,J2*%
X143286380Y-82666666D02*
X144000666Y-82666666D01*
X144143523Y-82619047D01*
X144238761Y-82523809D01*
X144286380Y-82380952D01*
X144286380Y-82285714D01*
X143381619Y-83095238D02*
X143334000Y-83142857D01*
X143286380Y-83238095D01*
X143286380Y-83476190D01*
X143334000Y-83571428D01*
X143381619Y-83619047D01*
X143476857Y-83666666D01*
X143572095Y-83666666D01*
X143714952Y-83619047D01*
X144286380Y-83047619D01*
X144286380Y-83666666D01*
%TO.C,J1*%
X122237380Y-82666666D02*
X122951666Y-82666666D01*
X123094523Y-82619047D01*
X123189761Y-82523809D01*
X123237380Y-82380952D01*
X123237380Y-82285714D01*
X123237380Y-83666666D02*
X123237380Y-83095238D01*
X123237380Y-83380952D02*
X122237380Y-83380952D01*
X122380238Y-83285714D01*
X122475476Y-83190476D01*
X122523095Y-83095238D01*
%TD*%
M02*
