M48
; DRILL file {KiCad 5.1.6-1.fc32} date Fri Sep 11 22:13:39 2020
; FORMAT={-:-/ absolute / metric / decimal}
; #@! TF.CreationDate,2020-09-11T22:13:39-03:00
; #@! TF.GenerationSoftware,Kicad,Pcbnew,5.1.6-1.fc32
; #@! TF.FileFunction,Plated,1,4,PTH
FMAT,2
METRIC
T1C0.400
T2C1.020
T3C3.200
%
G90
G05
T1
X104.216Y-98.017
X112.311Y-84.983
X112.515Y-87.421
X112.532Y-89.603
X112.568Y-82.135
X115.93Y-86.696
X119.008Y-75.737
X119.038Y-78.805
X119.548Y-77.44
X119.666Y-83.62
X121.202Y-72.809
X121.212Y-74.388
X122.401Y-81.852
X122.528Y-70.028
X123.008Y-89.25
X123.968Y-86.257
X132.731Y-83.243
X132.82Y-81.103
X132.846Y-85.362
X132.846Y-90.697
X133.03Y-78.919
X133.049Y-86.377
X133.311Y-87.391
X134.27Y-80.712
X135.247Y-70.028
X135.767Y-90.243
X136.445Y-73.461
X138.803Y-77.84
X139.907Y-79.623
X140.628Y-83.686
X143.39Y-85.291
X143.5Y-86.706
X144.253Y-78.025
X151.28Y-83.497
X151.284Y-87.179
X151.731Y-76.613
X151.833Y-85.76
X151.859Y-75.0
X152.09Y-81.052
X152.353Y-82.203
X153.881Y-75.186
X154.127Y-66.809
X155.028Y-86.222
X155.178Y-68.997
X155.576Y-80.306
X156.576Y-77.781
X157.603Y-85.113
X158.501Y-90.697
X158.713Y-85.5
X159.013Y-77.794
X160.569Y-68.64
X168.405Y-65.065
X169.238Y-86.115
X169.647Y-89.513
X169.75Y-82.013
X170.392Y-66.279
X170.975Y-67.817
X172.313Y-77.129
X172.372Y-69.281
X172.535Y-79.083
X173.237Y-75.807
X177.34Y-87.072
X178.397Y-82.321
X178.751Y-87.559
X179.988Y-85.331
X186.484Y-98.017
T2
X114.25Y-55.136
X114.25Y-57.676
X116.79Y-55.136
X116.79Y-57.676
X119.33Y-55.136
X119.33Y-57.676
X121.87Y-55.136
X121.87Y-57.676
X124.41Y-55.136
X124.41Y-57.676
X126.95Y-55.136
X126.95Y-57.676
X129.49Y-55.136
X129.49Y-57.676
X132.03Y-55.136
X132.03Y-57.676
X134.57Y-55.136
X134.57Y-57.676
X137.11Y-55.136
X137.11Y-57.676
X139.65Y-55.136
X139.65Y-57.676
X142.19Y-55.136
X142.19Y-57.676
X144.73Y-55.136
X144.73Y-57.676
X147.27Y-55.136
X147.27Y-57.676
X149.81Y-55.136
X149.81Y-57.676
X152.35Y-55.136
X152.35Y-57.676
X154.89Y-55.136
X154.89Y-57.676
X157.43Y-55.136
X157.43Y-57.676
X159.97Y-55.136
X159.97Y-57.676
X162.51Y-55.136
X162.51Y-57.676
X165.05Y-55.136
X165.05Y-57.676
X167.59Y-55.136
X167.59Y-57.676
X170.13Y-55.136
X170.13Y-57.676
X172.67Y-55.136
X172.67Y-57.676
X175.21Y-55.136
X175.21Y-57.676
X177.75Y-55.136
X177.75Y-57.676
X114.25Y-60.216
X114.25Y-62.756
X116.79Y-60.216
X116.79Y-62.756
X119.33Y-60.216
X119.33Y-62.756
X121.87Y-60.216
X121.87Y-62.756
X124.41Y-60.216
X124.41Y-62.756
X126.95Y-60.216
X126.95Y-62.756
X129.49Y-60.216
X129.49Y-62.756
X132.03Y-60.216
X132.03Y-62.756
X134.57Y-60.216
X134.57Y-62.756
X137.11Y-60.216
X137.11Y-62.756
X139.65Y-60.216
X139.65Y-62.756
X142.19Y-60.216
X142.19Y-62.756
X144.73Y-60.216
X144.73Y-62.756
X147.27Y-60.216
X147.27Y-62.756
X149.81Y-60.216
X149.81Y-62.756
X152.35Y-60.216
X152.35Y-62.756
X154.89Y-60.216
X154.89Y-62.756
X157.43Y-60.216
X157.43Y-62.756
X159.97Y-60.216
X159.97Y-62.756
X162.51Y-60.216
X162.51Y-62.756
X165.05Y-60.216
X165.05Y-62.756
X167.59Y-60.216
X167.59Y-62.756
X170.13Y-60.216
X170.13Y-62.756
X172.67Y-60.216
X172.67Y-62.756
X175.21Y-60.216
X175.21Y-62.756
X177.75Y-60.216
X177.75Y-62.756
T3
X185.39Y-140.866
X105.35Y-140.866
X182.84Y-55.136
X109.16Y-55.136
T0
M30
