G04 #@! TF.GenerationSoftware,KiCad,Pcbnew,5.1.6-1.fc32*
G04 #@! TF.CreationDate,2020-09-21T20:32:52-03:00*
G04 #@! TF.ProjectId,pc104-adapter-bottom,70633130-342d-4616-9461-707465722d62,v2.0*
G04 #@! TF.SameCoordinates,Original*
G04 #@! TF.FileFunction,Copper,L3,Inr*
G04 #@! TF.FilePolarity,Positive*
%FSLAX46Y46*%
G04 Gerber Fmt 4.6, Leading zero omitted, Abs format (unit mm)*
G04 Created by KiCad (PCBNEW 5.1.6-1.fc32) date 2020-09-21 20:32:52*
%MOMM*%
%LPD*%
G01*
G04 APERTURE LIST*
G04 #@! TA.AperFunction,ViaPad*
%ADD10C,5.500000*%
G04 #@! TD*
G04 #@! TA.AperFunction,ViaPad*
%ADD11C,1.620000*%
G04 #@! TD*
G04 #@! TA.AperFunction,ViaPad*
%ADD12C,0.800000*%
G04 #@! TD*
G04 #@! TA.AperFunction,Conductor*
%ADD13C,0.250000*%
G04 #@! TD*
G04 #@! TA.AperFunction,NonConductor*
%ADD14C,0.254000*%
G04 #@! TD*
G04 APERTURE END LIST*
D10*
X106370000Y-139936000D03*
X186430000Y-139936000D03*
D11*
X178750000Y-54236000D03*
X178750000Y-56776000D03*
X176210000Y-54236000D03*
X176210000Y-56776000D03*
X173670000Y-54236000D03*
X173670000Y-56776000D03*
X171130000Y-54236000D03*
X171130000Y-56776000D03*
X168590000Y-54236000D03*
X168590000Y-56776000D03*
X166050000Y-54236000D03*
X166050000Y-56776000D03*
X163510000Y-54236000D03*
X163510000Y-56776000D03*
X160970000Y-54236000D03*
X160970000Y-56776000D03*
X158430000Y-54236000D03*
X158430000Y-56776000D03*
X155890000Y-54236000D03*
X155890000Y-56776000D03*
X153350000Y-54236000D03*
X153350000Y-56776000D03*
X150810000Y-54236000D03*
X150810000Y-56776000D03*
X148270000Y-54236000D03*
X148270000Y-56776000D03*
X145730000Y-54236000D03*
X145730000Y-56776000D03*
X143190000Y-54236000D03*
X143190000Y-56776000D03*
X140650000Y-54236000D03*
X140650000Y-56776000D03*
X138110000Y-54236000D03*
X138110000Y-56776000D03*
X135570000Y-54236000D03*
X135570000Y-56776000D03*
X133030000Y-54236000D03*
X133030000Y-56776000D03*
X130490000Y-54236000D03*
X130490000Y-56776000D03*
X127950000Y-54236000D03*
X127950000Y-56776000D03*
X125410000Y-54236000D03*
X125410000Y-56776000D03*
X122870000Y-54236000D03*
X122870000Y-56776000D03*
X120330000Y-54236000D03*
X120330000Y-56776000D03*
X117790000Y-54236000D03*
X117790000Y-56776000D03*
X115250000Y-54236000D03*
X115250000Y-56776000D03*
X178750000Y-59316000D03*
X178750000Y-61856000D03*
X176210000Y-59316000D03*
X176210000Y-61856000D03*
X173670000Y-59316000D03*
X173670000Y-61856000D03*
X171130000Y-59316000D03*
X171130000Y-61856000D03*
X168590000Y-59316000D03*
X168590000Y-61856000D03*
X166050000Y-59316000D03*
X166050000Y-61856000D03*
X163510000Y-59316000D03*
X163510000Y-61856000D03*
X160970000Y-59316000D03*
X160970000Y-61856000D03*
X158430000Y-59316000D03*
X158430000Y-61856000D03*
X155890000Y-59316000D03*
X155890000Y-61856000D03*
X153350000Y-59316000D03*
X153350000Y-61856000D03*
X150810000Y-59316000D03*
X150810000Y-61856000D03*
X148270000Y-59316000D03*
X148270000Y-61856000D03*
X145730000Y-59316000D03*
X145730000Y-61856000D03*
X143190000Y-59316000D03*
X143190000Y-61856000D03*
X140650000Y-59316000D03*
X140650000Y-61856000D03*
X138110000Y-59316000D03*
X138110000Y-61856000D03*
X135570000Y-59316000D03*
X135570000Y-61856000D03*
X133030000Y-59316000D03*
X133030000Y-61856000D03*
X130490000Y-59316000D03*
X130490000Y-61856000D03*
X127950000Y-59316000D03*
X127950000Y-61856000D03*
X125410000Y-59316000D03*
X125410000Y-61856000D03*
X122870000Y-59316000D03*
X122870000Y-61856000D03*
X120330000Y-59316000D03*
X120330000Y-61856000D03*
X117790000Y-59316000D03*
X117790000Y-61856000D03*
X115250000Y-59316000D03*
X115250000Y-61856000D03*
D10*
X183820000Y-54236000D03*
X110170000Y-54236000D03*
D12*
X105300000Y-97000000D03*
X187300000Y-97000000D03*
X124703500Y-84477500D03*
X123174400Y-86552800D03*
X123455300Y-66611700D03*
X123218700Y-82209300D03*
X120326900Y-78344800D03*
X120663000Y-79758000D03*
X123204600Y-79668300D03*
X123350200Y-67831500D03*
X120679100Y-76940700D03*
X120630600Y-74519500D03*
X122269500Y-68349700D03*
X144245500Y-87315600D03*
X141722400Y-86679700D03*
X145643600Y-63691300D03*
X144485100Y-68885000D03*
X141611600Y-82068800D03*
X139021400Y-73728800D03*
X143960200Y-73086100D03*
X140851600Y-76999400D03*
X139963900Y-76332500D03*
X142188600Y-70721400D03*
X142984000Y-73561300D03*
X161695400Y-66650400D03*
X159762600Y-64700800D03*
X159003100Y-64018500D03*
X159628200Y-80152200D03*
X157557400Y-67273300D03*
X160263700Y-84600000D03*
X162795400Y-84831600D03*
X156766800Y-68102100D03*
X160273100Y-87945400D03*
X160271400Y-89600000D03*
X175181100Y-74090600D03*
X176182900Y-74114600D03*
X173746900Y-75628900D03*
X173342300Y-78247000D03*
X170667300Y-79443800D03*
X171472700Y-71279200D03*
X169038800Y-65355100D03*
X170791600Y-84760400D03*
X169774600Y-85001300D03*
X112684100Y-88553000D03*
X110148200Y-87272500D03*
X110138600Y-85992800D03*
X113432200Y-84071800D03*
X133714000Y-88585500D03*
X133728900Y-87303500D03*
X142191000Y-67910800D03*
X151008000Y-73584900D03*
X151595500Y-72751100D03*
X154506900Y-75548800D03*
X152761900Y-76793600D03*
X153776900Y-77049000D03*
X152472300Y-69302800D03*
X183861500Y-81061000D03*
X181303800Y-82046600D03*
X181320500Y-83569800D03*
X181304600Y-85051800D03*
X181328100Y-86134400D03*
X181325400Y-87415500D03*
X180294200Y-87462400D03*
D13*
X186430000Y-97870000D02*
X187300000Y-97000000D01*
X186430000Y-139936000D02*
X186430000Y-97870000D01*
X187300000Y-97000000D02*
X187300000Y-70600000D01*
X183820000Y-67120000D02*
X183820000Y-54236000D01*
X187300000Y-70600000D02*
X183820000Y-67120000D01*
X124703500Y-84477500D02*
X126680000Y-82501000D01*
X126680000Y-82501000D02*
X126680000Y-55506000D01*
X126680000Y-55506000D02*
X127950000Y-54236000D01*
X123174400Y-86552800D02*
X123654000Y-86552800D01*
X123654000Y-86552800D02*
X129140600Y-81066200D01*
X129140600Y-81066200D02*
X129140600Y-57966600D01*
X129140600Y-57966600D02*
X127950000Y-56776000D01*
X123218700Y-82209300D02*
X124207300Y-81220700D01*
X124207300Y-81220700D02*
X124207300Y-55573300D01*
X124207300Y-55573300D02*
X122870000Y-54236000D01*
X122870000Y-56776000D02*
X121544200Y-58101800D01*
X121544200Y-58101800D02*
X121544200Y-77127500D01*
X121544200Y-77127500D02*
X120326900Y-78344800D01*
X120330000Y-54236000D02*
X118925400Y-55640600D01*
X118925400Y-55640600D02*
X117266200Y-55640600D01*
X117266200Y-55640600D02*
X116626400Y-56280400D01*
X116626400Y-56280400D02*
X116626400Y-75721400D01*
X116626400Y-75721400D02*
X120663000Y-79758000D01*
X117790000Y-56776000D02*
X118941300Y-57927300D01*
X118941300Y-57927300D02*
X118941300Y-75202900D01*
X118941300Y-75202900D02*
X120679100Y-76940700D01*
X145730000Y-56776000D02*
X146920600Y-57966600D01*
X146920600Y-57966600D02*
X146920600Y-84640500D01*
X146920600Y-84640500D02*
X144245500Y-87315600D01*
X143190000Y-54236000D02*
X141920000Y-55506000D01*
X141920000Y-55506000D02*
X141920000Y-67050800D01*
X141920000Y-67050800D02*
X141460400Y-67510400D01*
X141460400Y-67510400D02*
X141460400Y-74312300D01*
X141460400Y-74312300D02*
X142336900Y-75188800D01*
X142336900Y-75188800D02*
X142336900Y-86065200D01*
X142336900Y-86065200D02*
X141722400Y-86679700D01*
X138110000Y-54236000D02*
X139380000Y-55506000D01*
X139380000Y-55506000D02*
X139380000Y-72868800D01*
X139380000Y-72868800D02*
X141611600Y-75100400D01*
X141611600Y-75100400D02*
X141611600Y-82068800D01*
X138110000Y-56776000D02*
X136919400Y-57966600D01*
X136919400Y-57966600D02*
X136919400Y-71626800D01*
X136919400Y-71626800D02*
X139021400Y-73728800D01*
X140851600Y-76999400D02*
X140851600Y-76109600D01*
X140851600Y-76109600D02*
X139642500Y-74900500D01*
X139642500Y-74900500D02*
X139163100Y-74900500D01*
X139163100Y-74900500D02*
X134379400Y-70116800D01*
X134379400Y-70116800D02*
X134379400Y-57966600D01*
X134379400Y-57966600D02*
X135570000Y-56776000D01*
X133030000Y-54236000D02*
X131839400Y-55426600D01*
X131839400Y-55426600D02*
X131839400Y-68285200D01*
X131839400Y-68285200D02*
X139886700Y-76332500D01*
X139886700Y-76332500D02*
X139963900Y-76332500D01*
X153350000Y-56776000D02*
X152080000Y-58046000D01*
X152080000Y-58046000D02*
X152080000Y-68442800D01*
X152080000Y-68442800D02*
X151713600Y-68809200D01*
X151713600Y-68809200D02*
X151713600Y-70817600D01*
X151713600Y-70817600D02*
X152346200Y-71450200D01*
X152346200Y-71450200D02*
X152346200Y-73037600D01*
X152346200Y-73037600D02*
X152009400Y-73374400D01*
X152009400Y-73374400D02*
X152009400Y-77072300D01*
X152009400Y-77072300D02*
X159537100Y-84600000D01*
X159537100Y-84600000D02*
X160263700Y-84600000D01*
X150810000Y-54236000D02*
X152080000Y-55506000D01*
X152080000Y-55506000D02*
X153774300Y-55506000D01*
X153774300Y-55506000D02*
X154485400Y-56217100D01*
X154485400Y-56217100D02*
X154485400Y-56982300D01*
X154485400Y-56982300D02*
X155414500Y-57911400D01*
X155414500Y-57911400D02*
X158651000Y-57911400D01*
X158651000Y-57911400D02*
X159565400Y-58825800D01*
X159565400Y-58825800D02*
X159565400Y-59605700D01*
X159565400Y-59605700D02*
X160411100Y-60451400D01*
X160411100Y-60451400D02*
X161176300Y-60451400D01*
X161176300Y-60451400D02*
X162105400Y-61380500D01*
X162105400Y-61380500D02*
X162105400Y-65655800D01*
X162105400Y-65655800D02*
X162795400Y-66345800D01*
X162795400Y-66345800D02*
X162795400Y-84831600D01*
X148270000Y-54236000D02*
X149540000Y-55506000D01*
X149540000Y-55506000D02*
X149540000Y-77212300D01*
X149540000Y-77212300D02*
X160273100Y-87945400D01*
X175181100Y-74090600D02*
X177480000Y-71791700D01*
X177480000Y-71791700D02*
X177480000Y-55506000D01*
X177480000Y-55506000D02*
X178750000Y-54236000D01*
X178750000Y-56776000D02*
X179886200Y-57912200D01*
X179886200Y-57912200D02*
X179886200Y-70411300D01*
X179886200Y-70411300D02*
X176182900Y-74114600D01*
X176210000Y-54236000D02*
X174940000Y-55506000D01*
X174940000Y-55506000D02*
X174940000Y-73306000D01*
X174940000Y-73306000D02*
X173746900Y-74499100D01*
X173746900Y-74499100D02*
X173746900Y-75628900D01*
X171130000Y-54236000D02*
X172270400Y-55376400D01*
X172270400Y-55376400D02*
X172270400Y-70481500D01*
X172270400Y-70481500D02*
X171472700Y-71279200D01*
X170791600Y-84760400D02*
X167432500Y-81401300D01*
X167432500Y-81401300D02*
X167432500Y-57933500D01*
X167432500Y-57933500D02*
X168590000Y-56776000D01*
X166050000Y-54236000D02*
X164859400Y-55426600D01*
X164859400Y-55426600D02*
X164859400Y-80086100D01*
X164859400Y-80086100D02*
X169774600Y-85001300D01*
X143190000Y-59316000D02*
X144380600Y-60506600D01*
X144380600Y-60506600D02*
X144380600Y-65721200D01*
X144380600Y-65721200D02*
X142191000Y-67910800D01*
X160970000Y-61856000D02*
X160970000Y-69085700D01*
X160970000Y-69085700D02*
X154506900Y-75548800D01*
X152761900Y-76793600D02*
X153212200Y-76343300D01*
X153212200Y-76343300D02*
X153212200Y-66436900D01*
X153212200Y-66436900D02*
X157160000Y-62489100D01*
X157160000Y-62489100D02*
X157160000Y-60586000D01*
X157160000Y-60586000D02*
X158430000Y-59316000D01*
X158430000Y-61856000D02*
X153776900Y-66509100D01*
X153776900Y-66509100D02*
X153776900Y-77049000D01*
X152472300Y-69302800D02*
X152665200Y-69109900D01*
X152665200Y-69109900D02*
X152665200Y-66068800D01*
X152665200Y-66068800D02*
X154540600Y-64193400D01*
X154540600Y-64193400D02*
X154540600Y-60506600D01*
X154540600Y-60506600D02*
X153350000Y-59316000D01*
X168590000Y-59316000D02*
X169990000Y-60716000D01*
X169990000Y-60716000D02*
X169990000Y-63992000D01*
X169990000Y-63992000D02*
X170440300Y-64442300D01*
X170440300Y-64442300D02*
X170440300Y-73348000D01*
X170440300Y-73348000D02*
X180662100Y-83569800D01*
X180662100Y-83569800D02*
X181320500Y-83569800D01*
X168590000Y-61856000D02*
X168590000Y-63341700D01*
X168590000Y-63341700D02*
X169990000Y-64741700D01*
X169990000Y-64741700D02*
X169990000Y-73737200D01*
X169990000Y-73737200D02*
X181304600Y-85051800D01*
D14*
G36*
X186210001Y-64070877D02*
G01*
X186213010Y-64101427D01*
X186212954Y-64109424D01*
X186213921Y-64119290D01*
X186240441Y-64371615D01*
X186253379Y-64434646D01*
X186265439Y-64497864D01*
X186268305Y-64507354D01*
X186343331Y-64749724D01*
X186368266Y-64809041D01*
X186392373Y-64868709D01*
X186397027Y-64877462D01*
X186517700Y-65100643D01*
X186553670Y-65153971D01*
X186588922Y-65207841D01*
X186595188Y-65215523D01*
X186756913Y-65411014D01*
X186802531Y-65456314D01*
X186847596Y-65502333D01*
X186855234Y-65508652D01*
X187051849Y-65669007D01*
X187105393Y-65704582D01*
X187158547Y-65740977D01*
X187167267Y-65745691D01*
X187391285Y-65864803D01*
X187450748Y-65889312D01*
X187509925Y-65914675D01*
X187519395Y-65917607D01*
X187762282Y-65990939D01*
X187825379Y-66003432D01*
X187888353Y-66016818D01*
X187898212Y-66017854D01*
X188150717Y-66042612D01*
X188333937Y-66060577D01*
X188443536Y-66093667D01*
X188544615Y-66147411D01*
X188633336Y-66219770D01*
X188706309Y-66307979D01*
X188760761Y-66408687D01*
X188794614Y-66518046D01*
X188810005Y-66664485D01*
X188814126Y-96873000D01*
X188330015Y-96873000D01*
X188295226Y-96698102D01*
X188217205Y-96509744D01*
X188103937Y-96340226D01*
X188060000Y-96296289D01*
X188060000Y-70637322D01*
X188063676Y-70599999D01*
X188060000Y-70562676D01*
X188060000Y-70562667D01*
X188049003Y-70451014D01*
X188005546Y-70307753D01*
X187934974Y-70175724D01*
X187840001Y-70059999D01*
X187811003Y-70036201D01*
X184580000Y-66805199D01*
X184580000Y-57536143D01*
X184807368Y-57490917D01*
X185423399Y-57235748D01*
X185977812Y-56865302D01*
X186210000Y-56633114D01*
X186210001Y-64070877D01*
G37*
X186210001Y-64070877D02*
X186213010Y-64101427D01*
X186212954Y-64109424D01*
X186213921Y-64119290D01*
X186240441Y-64371615D01*
X186253379Y-64434646D01*
X186265439Y-64497864D01*
X186268305Y-64507354D01*
X186343331Y-64749724D01*
X186368266Y-64809041D01*
X186392373Y-64868709D01*
X186397027Y-64877462D01*
X186517700Y-65100643D01*
X186553670Y-65153971D01*
X186588922Y-65207841D01*
X186595188Y-65215523D01*
X186756913Y-65411014D01*
X186802531Y-65456314D01*
X186847596Y-65502333D01*
X186855234Y-65508652D01*
X187051849Y-65669007D01*
X187105393Y-65704582D01*
X187158547Y-65740977D01*
X187167267Y-65745691D01*
X187391285Y-65864803D01*
X187450748Y-65889312D01*
X187509925Y-65914675D01*
X187519395Y-65917607D01*
X187762282Y-65990939D01*
X187825379Y-66003432D01*
X187888353Y-66016818D01*
X187898212Y-66017854D01*
X188150717Y-66042612D01*
X188333937Y-66060577D01*
X188443536Y-66093667D01*
X188544615Y-66147411D01*
X188633336Y-66219770D01*
X188706309Y-66307979D01*
X188760761Y-66408687D01*
X188794614Y-66518046D01*
X188810005Y-66664485D01*
X188814126Y-96873000D01*
X188330015Y-96873000D01*
X188295226Y-96698102D01*
X188217205Y-96509744D01*
X188103937Y-96340226D01*
X188060000Y-96296289D01*
X188060000Y-70637322D01*
X188063676Y-70599999D01*
X188060000Y-70562676D01*
X188060000Y-70562667D01*
X188049003Y-70451014D01*
X188005546Y-70307753D01*
X187934974Y-70175724D01*
X187840001Y-70059999D01*
X187811003Y-70036201D01*
X184580000Y-66805199D01*
X184580000Y-57536143D01*
X184807368Y-57490917D01*
X185423399Y-57235748D01*
X185977812Y-56865302D01*
X186210000Y-56633114D01*
X186210001Y-64070877D01*
G36*
X181190698Y-52078188D02*
G01*
X180820252Y-52632601D01*
X180565083Y-53248632D01*
X180435000Y-53902607D01*
X180435000Y-54569393D01*
X180565083Y-55223368D01*
X180820252Y-55839399D01*
X181190698Y-56393812D01*
X181662188Y-56865302D01*
X182216601Y-57235748D01*
X182832632Y-57490917D01*
X183060001Y-57536143D01*
X183060000Y-67082678D01*
X183056324Y-67120000D01*
X183060000Y-67157322D01*
X183060000Y-67157332D01*
X183070997Y-67268985D01*
X183105602Y-67383065D01*
X183114454Y-67412246D01*
X183185026Y-67544276D01*
X183223209Y-67590801D01*
X183279999Y-67660001D01*
X183309003Y-67683804D01*
X186540001Y-70914803D01*
X186540000Y-96296289D01*
X186496063Y-96340226D01*
X186382795Y-96509744D01*
X186304774Y-96698102D01*
X186269985Y-96873000D01*
X106330015Y-96873000D01*
X106295226Y-96698102D01*
X106217205Y-96509744D01*
X106103937Y-96340226D01*
X105959774Y-96196063D01*
X105790256Y-96082795D01*
X105601898Y-96004774D01*
X105401939Y-95965000D01*
X105198061Y-95965000D01*
X104998102Y-96004774D01*
X104809744Y-96082795D01*
X104640226Y-96196063D01*
X104496063Y-96340226D01*
X104382795Y-96509744D01*
X104304774Y-96698102D01*
X104269985Y-96873000D01*
X103980000Y-96873000D01*
X103980000Y-88451061D01*
X111649100Y-88451061D01*
X111649100Y-88654939D01*
X111688874Y-88854898D01*
X111766895Y-89043256D01*
X111880163Y-89212774D01*
X112024326Y-89356937D01*
X112193844Y-89470205D01*
X112382202Y-89548226D01*
X112582161Y-89588000D01*
X112786039Y-89588000D01*
X112985998Y-89548226D01*
X113174356Y-89470205D01*
X113343874Y-89356937D01*
X113488037Y-89212774D01*
X113601305Y-89043256D01*
X113679326Y-88854898D01*
X113719100Y-88654939D01*
X113719100Y-88483561D01*
X132679000Y-88483561D01*
X132679000Y-88687439D01*
X132718774Y-88887398D01*
X132796795Y-89075756D01*
X132910063Y-89245274D01*
X133054226Y-89389437D01*
X133223744Y-89502705D01*
X133412102Y-89580726D01*
X133612061Y-89620500D01*
X133815939Y-89620500D01*
X134015898Y-89580726D01*
X134204256Y-89502705D01*
X134373774Y-89389437D01*
X134517937Y-89245274D01*
X134631205Y-89075756D01*
X134709226Y-88887398D01*
X134749000Y-88687439D01*
X134749000Y-88483561D01*
X134709226Y-88283602D01*
X134631205Y-88095244D01*
X134537931Y-87955650D01*
X134646105Y-87793756D01*
X134724126Y-87605398D01*
X134763900Y-87405439D01*
X134763900Y-87201561D01*
X134724126Y-87001602D01*
X134646105Y-86813244D01*
X134532837Y-86643726D01*
X134388674Y-86499563D01*
X134219156Y-86386295D01*
X134030798Y-86308274D01*
X133830839Y-86268500D01*
X133626961Y-86268500D01*
X133427002Y-86308274D01*
X133238644Y-86386295D01*
X133069126Y-86499563D01*
X132924963Y-86643726D01*
X132811695Y-86813244D01*
X132733674Y-87001602D01*
X132693900Y-87201561D01*
X132693900Y-87405439D01*
X132733674Y-87605398D01*
X132811695Y-87793756D01*
X132904969Y-87933350D01*
X132796795Y-88095244D01*
X132718774Y-88283602D01*
X132679000Y-88483561D01*
X113719100Y-88483561D01*
X113719100Y-88451061D01*
X113679326Y-88251102D01*
X113601305Y-88062744D01*
X113488037Y-87893226D01*
X113343874Y-87749063D01*
X113174356Y-87635795D01*
X112985998Y-87557774D01*
X112786039Y-87518000D01*
X112582161Y-87518000D01*
X112382202Y-87557774D01*
X112193844Y-87635795D01*
X112024326Y-87749063D01*
X111880163Y-87893226D01*
X111766895Y-88062744D01*
X111688874Y-88251102D01*
X111649100Y-88451061D01*
X103980000Y-88451061D01*
X103980000Y-85890861D01*
X109103600Y-85890861D01*
X109103600Y-86094739D01*
X109143374Y-86294698D01*
X109221395Y-86483056D01*
X109326150Y-86639834D01*
X109230995Y-86782244D01*
X109152974Y-86970602D01*
X109113200Y-87170561D01*
X109113200Y-87374439D01*
X109152974Y-87574398D01*
X109230995Y-87762756D01*
X109344263Y-87932274D01*
X109488426Y-88076437D01*
X109657944Y-88189705D01*
X109846302Y-88267726D01*
X110046261Y-88307500D01*
X110250139Y-88307500D01*
X110450098Y-88267726D01*
X110638456Y-88189705D01*
X110807974Y-88076437D01*
X110952137Y-87932274D01*
X111065405Y-87762756D01*
X111143426Y-87574398D01*
X111183200Y-87374439D01*
X111183200Y-87170561D01*
X111143426Y-86970602D01*
X111065405Y-86782244D01*
X110960650Y-86625466D01*
X111055805Y-86483056D01*
X111133826Y-86294698D01*
X111173600Y-86094739D01*
X111173600Y-85890861D01*
X111133826Y-85690902D01*
X111055805Y-85502544D01*
X110942537Y-85333026D01*
X110798374Y-85188863D01*
X110628856Y-85075595D01*
X110440498Y-84997574D01*
X110240539Y-84957800D01*
X110036661Y-84957800D01*
X109836702Y-84997574D01*
X109648344Y-85075595D01*
X109478826Y-85188863D01*
X109334663Y-85333026D01*
X109221395Y-85502544D01*
X109143374Y-85690902D01*
X109103600Y-85890861D01*
X103980000Y-85890861D01*
X103980000Y-83969861D01*
X112397200Y-83969861D01*
X112397200Y-84173739D01*
X112436974Y-84373698D01*
X112514995Y-84562056D01*
X112628263Y-84731574D01*
X112772426Y-84875737D01*
X112941944Y-84989005D01*
X113130302Y-85067026D01*
X113330261Y-85106800D01*
X113534139Y-85106800D01*
X113734098Y-85067026D01*
X113922456Y-84989005D01*
X114091974Y-84875737D01*
X114236137Y-84731574D01*
X114349405Y-84562056D01*
X114427426Y-84373698D01*
X114467200Y-84173739D01*
X114467200Y-83969861D01*
X114427426Y-83769902D01*
X114349405Y-83581544D01*
X114236137Y-83412026D01*
X114091974Y-83267863D01*
X113922456Y-83154595D01*
X113734098Y-83076574D01*
X113534139Y-83036800D01*
X113330261Y-83036800D01*
X113130302Y-83076574D01*
X112941944Y-83154595D01*
X112772426Y-83267863D01*
X112628263Y-83412026D01*
X112514995Y-83581544D01*
X112436974Y-83769902D01*
X112397200Y-83969861D01*
X103980000Y-83969861D01*
X103980000Y-66870729D01*
X103998386Y-66683215D01*
X104042757Y-66536252D01*
X104114829Y-66400703D01*
X104211852Y-66281742D01*
X104330144Y-66183882D01*
X104465181Y-66110868D01*
X104611833Y-66065471D01*
X104797092Y-66046000D01*
X105604877Y-66046000D01*
X105635576Y-66042976D01*
X105644820Y-66043041D01*
X105654686Y-66042074D01*
X105945831Y-66011474D01*
X106008868Y-65998534D01*
X106072080Y-65986476D01*
X106081570Y-65983611D01*
X106361226Y-65897043D01*
X106420521Y-65872117D01*
X106480215Y-65847999D01*
X106488967Y-65843345D01*
X106746483Y-65704106D01*
X106799825Y-65668127D01*
X106853678Y-65632886D01*
X106861360Y-65626621D01*
X107086927Y-65440016D01*
X107132246Y-65394379D01*
X107178248Y-65349331D01*
X107184566Y-65341692D01*
X107369592Y-65114828D01*
X107405177Y-65061268D01*
X107441560Y-65008132D01*
X107446275Y-64999412D01*
X107583712Y-64740931D01*
X107608225Y-64681456D01*
X107633584Y-64622289D01*
X107636516Y-64612819D01*
X107721130Y-64332565D01*
X107733622Y-64269475D01*
X107747009Y-64206494D01*
X107748045Y-64196635D01*
X107776612Y-63905283D01*
X107776612Y-63905277D01*
X107780000Y-63870877D01*
X107780000Y-56633114D01*
X108012188Y-56865302D01*
X108566601Y-57235748D01*
X109182632Y-57490917D01*
X109836607Y-57621000D01*
X110503393Y-57621000D01*
X111157368Y-57490917D01*
X111773399Y-57235748D01*
X112327812Y-56865302D01*
X112799302Y-56393812D01*
X113169748Y-55839399D01*
X113424917Y-55223368D01*
X113555000Y-54569393D01*
X113555000Y-54093680D01*
X113805000Y-54093680D01*
X113805000Y-54378320D01*
X113860530Y-54657491D01*
X113969457Y-54920464D01*
X114127595Y-55157134D01*
X114328866Y-55358405D01*
X114549757Y-55506000D01*
X114328866Y-55653595D01*
X114127595Y-55854866D01*
X113969457Y-56091536D01*
X113860530Y-56354509D01*
X113805000Y-56633680D01*
X113805000Y-56918320D01*
X113860530Y-57197491D01*
X113969457Y-57460464D01*
X114127595Y-57697134D01*
X114328866Y-57898405D01*
X114549757Y-58046000D01*
X114328866Y-58193595D01*
X114127595Y-58394866D01*
X113969457Y-58631536D01*
X113860530Y-58894509D01*
X113805000Y-59173680D01*
X113805000Y-59458320D01*
X113860530Y-59737491D01*
X113969457Y-60000464D01*
X114127595Y-60237134D01*
X114328866Y-60438405D01*
X114549757Y-60586000D01*
X114328866Y-60733595D01*
X114127595Y-60934866D01*
X113969457Y-61171536D01*
X113860530Y-61434509D01*
X113805000Y-61713680D01*
X113805000Y-61998320D01*
X113860530Y-62277491D01*
X113969457Y-62540464D01*
X114127595Y-62777134D01*
X114328866Y-62978405D01*
X114565536Y-63136543D01*
X114828509Y-63245470D01*
X115107680Y-63301000D01*
X115392320Y-63301000D01*
X115671491Y-63245470D01*
X115866400Y-63164736D01*
X115866401Y-75684067D01*
X115862724Y-75721400D01*
X115866401Y-75758733D01*
X115868447Y-75779501D01*
X115877398Y-75870385D01*
X115920854Y-76013646D01*
X115991426Y-76145676D01*
X116032286Y-76195463D01*
X116086400Y-76261401D01*
X116115398Y-76285199D01*
X119628000Y-79797803D01*
X119628000Y-79859939D01*
X119667774Y-80059898D01*
X119745795Y-80248256D01*
X119859063Y-80417774D01*
X120003226Y-80561937D01*
X120172744Y-80675205D01*
X120361102Y-80753226D01*
X120561061Y-80793000D01*
X120764939Y-80793000D01*
X120964898Y-80753226D01*
X121153256Y-80675205D01*
X121322774Y-80561937D01*
X121466937Y-80417774D01*
X121580205Y-80248256D01*
X121658226Y-80059898D01*
X121698000Y-79859939D01*
X121698000Y-79656061D01*
X121658226Y-79456102D01*
X121580205Y-79267744D01*
X121466937Y-79098226D01*
X121322774Y-78954063D01*
X121213413Y-78880990D01*
X121244105Y-78835056D01*
X121322126Y-78646698D01*
X121361900Y-78446739D01*
X121361900Y-78384601D01*
X122055203Y-77691299D01*
X122084201Y-77667501D01*
X122179174Y-77551776D01*
X122249746Y-77419747D01*
X122293203Y-77276486D01*
X122304200Y-77164833D01*
X122304200Y-77164824D01*
X122307876Y-77127501D01*
X122304200Y-77090178D01*
X122304200Y-69384700D01*
X122371439Y-69384700D01*
X122571398Y-69344926D01*
X122759756Y-69266905D01*
X122929274Y-69153637D01*
X123073437Y-69009474D01*
X123178271Y-68852578D01*
X123248261Y-68866500D01*
X123447300Y-68866500D01*
X123447300Y-78661299D01*
X123306539Y-78633300D01*
X123102661Y-78633300D01*
X122902702Y-78673074D01*
X122714344Y-78751095D01*
X122544826Y-78864363D01*
X122400663Y-79008526D01*
X122287395Y-79178044D01*
X122209374Y-79366402D01*
X122169600Y-79566361D01*
X122169600Y-79770239D01*
X122209374Y-79970198D01*
X122287395Y-80158556D01*
X122400663Y-80328074D01*
X122544826Y-80472237D01*
X122714344Y-80585505D01*
X122902702Y-80663526D01*
X123102661Y-80703300D01*
X123306539Y-80703300D01*
X123447300Y-80675301D01*
X123447300Y-80905898D01*
X123178898Y-81174300D01*
X123116761Y-81174300D01*
X122916802Y-81214074D01*
X122728444Y-81292095D01*
X122558926Y-81405363D01*
X122414763Y-81549526D01*
X122301495Y-81719044D01*
X122223474Y-81907402D01*
X122183700Y-82107361D01*
X122183700Y-82311239D01*
X122223474Y-82511198D01*
X122301495Y-82699556D01*
X122414763Y-82869074D01*
X122558926Y-83013237D01*
X122728444Y-83126505D01*
X122916802Y-83204526D01*
X123116761Y-83244300D01*
X123320639Y-83244300D01*
X123520598Y-83204526D01*
X123708956Y-83126505D01*
X123878474Y-83013237D01*
X124022637Y-82869074D01*
X124135905Y-82699556D01*
X124213926Y-82511198D01*
X124253700Y-82311239D01*
X124253700Y-82249102D01*
X124718304Y-81784498D01*
X124747301Y-81760701D01*
X124842274Y-81644976D01*
X124912846Y-81512947D01*
X124956303Y-81369686D01*
X124967300Y-81258033D01*
X124967300Y-81258032D01*
X124970977Y-81220700D01*
X124967300Y-81183367D01*
X124967300Y-63236685D01*
X124988509Y-63245470D01*
X125267680Y-63301000D01*
X125552320Y-63301000D01*
X125831491Y-63245470D01*
X125920001Y-63208808D01*
X125920000Y-82186198D01*
X124663699Y-83442500D01*
X124601561Y-83442500D01*
X124401602Y-83482274D01*
X124213244Y-83560295D01*
X124043726Y-83673563D01*
X123899563Y-83817726D01*
X123786295Y-83987244D01*
X123708274Y-84175602D01*
X123668500Y-84375561D01*
X123668500Y-84579439D01*
X123708274Y-84779398D01*
X123786295Y-84967756D01*
X123899563Y-85137274D01*
X123947144Y-85184855D01*
X123545684Y-85586315D01*
X123476298Y-85557574D01*
X123276339Y-85517800D01*
X123072461Y-85517800D01*
X122872502Y-85557574D01*
X122684144Y-85635595D01*
X122514626Y-85748863D01*
X122370463Y-85893026D01*
X122257195Y-86062544D01*
X122179174Y-86250902D01*
X122139400Y-86450861D01*
X122139400Y-86654739D01*
X122179174Y-86854698D01*
X122257195Y-87043056D01*
X122370463Y-87212574D01*
X122514626Y-87356737D01*
X122684144Y-87470005D01*
X122872502Y-87548026D01*
X123072461Y-87587800D01*
X123276339Y-87587800D01*
X123476298Y-87548026D01*
X123664656Y-87470005D01*
X123834174Y-87356737D01*
X123926608Y-87264303D01*
X123946247Y-87258346D01*
X124078276Y-87187774D01*
X124194001Y-87092801D01*
X124217804Y-87063797D01*
X129651604Y-81629998D01*
X129680601Y-81606201D01*
X129757133Y-81512947D01*
X129775574Y-81490477D01*
X129846146Y-81358447D01*
X129866273Y-81292095D01*
X129889603Y-81215186D01*
X129900600Y-81103533D01*
X129900600Y-81103524D01*
X129904276Y-81066201D01*
X129900600Y-81028878D01*
X129900600Y-63175920D01*
X130068509Y-63245470D01*
X130347680Y-63301000D01*
X130632320Y-63301000D01*
X130911491Y-63245470D01*
X131079401Y-63175920D01*
X131079401Y-68247868D01*
X131075724Y-68285200D01*
X131090398Y-68434185D01*
X131133854Y-68577446D01*
X131204426Y-68709476D01*
X131271987Y-68791798D01*
X131299400Y-68825201D01*
X131328398Y-68848999D01*
X138932640Y-76453242D01*
X138968674Y-76634398D01*
X139046695Y-76822756D01*
X139159963Y-76992274D01*
X139304126Y-77136437D01*
X139473644Y-77249705D01*
X139662002Y-77327726D01*
X139861961Y-77367500D01*
X139883796Y-77367500D01*
X139934395Y-77489656D01*
X140047663Y-77659174D01*
X140191826Y-77803337D01*
X140361344Y-77916605D01*
X140549702Y-77994626D01*
X140749661Y-78034400D01*
X140851600Y-78034400D01*
X140851601Y-81365088D01*
X140807663Y-81409026D01*
X140694395Y-81578544D01*
X140616374Y-81766902D01*
X140576600Y-81966861D01*
X140576600Y-82170739D01*
X140616374Y-82370698D01*
X140694395Y-82559056D01*
X140807663Y-82728574D01*
X140951826Y-82872737D01*
X141121344Y-82986005D01*
X141309702Y-83064026D01*
X141509661Y-83103800D01*
X141576901Y-83103800D01*
X141576901Y-85653365D01*
X141420502Y-85684474D01*
X141232144Y-85762495D01*
X141062626Y-85875763D01*
X140918463Y-86019926D01*
X140805195Y-86189444D01*
X140727174Y-86377802D01*
X140687400Y-86577761D01*
X140687400Y-86781639D01*
X140727174Y-86981598D01*
X140805195Y-87169956D01*
X140918463Y-87339474D01*
X141062626Y-87483637D01*
X141232144Y-87596905D01*
X141420502Y-87674926D01*
X141620461Y-87714700D01*
X141824339Y-87714700D01*
X142024298Y-87674926D01*
X142212656Y-87596905D01*
X142382174Y-87483637D01*
X142526337Y-87339474D01*
X142639605Y-87169956D01*
X142717626Y-86981598D01*
X142757400Y-86781639D01*
X142757400Y-86719502D01*
X142847902Y-86629000D01*
X142876901Y-86605201D01*
X142971874Y-86489476D01*
X143042446Y-86357447D01*
X143085903Y-86214186D01*
X143096900Y-86102533D01*
X143096900Y-86102524D01*
X143100576Y-86065201D01*
X143096900Y-86027878D01*
X143096900Y-75226122D01*
X143100576Y-75188799D01*
X143096900Y-75151476D01*
X143096900Y-75151467D01*
X143085903Y-75039814D01*
X143042446Y-74896553D01*
X142971874Y-74764524D01*
X142876901Y-74648799D01*
X142847904Y-74625002D01*
X142803594Y-74580692D01*
X142882061Y-74596300D01*
X143085939Y-74596300D01*
X143285898Y-74556526D01*
X143474256Y-74478505D01*
X143643774Y-74365237D01*
X143787937Y-74221074D01*
X143855151Y-74120481D01*
X143858261Y-74121100D01*
X144062139Y-74121100D01*
X144262098Y-74081326D01*
X144450456Y-74003305D01*
X144619974Y-73890037D01*
X144764137Y-73745874D01*
X144877405Y-73576356D01*
X144955426Y-73387998D01*
X144995200Y-73188039D01*
X144995200Y-72984161D01*
X144955426Y-72784202D01*
X144877405Y-72595844D01*
X144764137Y-72426326D01*
X144619974Y-72282163D01*
X144450456Y-72168895D01*
X144262098Y-72090874D01*
X144062139Y-72051100D01*
X143858261Y-72051100D01*
X143658302Y-72090874D01*
X143469944Y-72168895D01*
X143300426Y-72282163D01*
X143156263Y-72426326D01*
X143089049Y-72526919D01*
X143085939Y-72526300D01*
X142882061Y-72526300D01*
X142682102Y-72566074D01*
X142493744Y-72644095D01*
X142324226Y-72757363D01*
X142220400Y-72861189D01*
X142220400Y-71756400D01*
X142290539Y-71756400D01*
X142490498Y-71716626D01*
X142678856Y-71638605D01*
X142848374Y-71525337D01*
X142992537Y-71381174D01*
X143105805Y-71211656D01*
X143183826Y-71023298D01*
X143223600Y-70823339D01*
X143223600Y-70619461D01*
X143183826Y-70419502D01*
X143105805Y-70231144D01*
X142992537Y-70061626D01*
X142848374Y-69917463D01*
X142678856Y-69804195D01*
X142490498Y-69726174D01*
X142290539Y-69686400D01*
X142220400Y-69686400D01*
X142220400Y-68945800D01*
X142292939Y-68945800D01*
X142492898Y-68906026D01*
X142681256Y-68828005D01*
X142748519Y-68783061D01*
X143450100Y-68783061D01*
X143450100Y-68986939D01*
X143489874Y-69186898D01*
X143567895Y-69375256D01*
X143681163Y-69544774D01*
X143825326Y-69688937D01*
X143994844Y-69802205D01*
X144183202Y-69880226D01*
X144383161Y-69920000D01*
X144587039Y-69920000D01*
X144786998Y-69880226D01*
X144975356Y-69802205D01*
X145144874Y-69688937D01*
X145289037Y-69544774D01*
X145402305Y-69375256D01*
X145480326Y-69186898D01*
X145520100Y-68986939D01*
X145520100Y-68783061D01*
X145480326Y-68583102D01*
X145402305Y-68394744D01*
X145289037Y-68225226D01*
X145144874Y-68081063D01*
X144975356Y-67967795D01*
X144786998Y-67889774D01*
X144587039Y-67850000D01*
X144383161Y-67850000D01*
X144183202Y-67889774D01*
X143994844Y-67967795D01*
X143825326Y-68081063D01*
X143681163Y-68225226D01*
X143567895Y-68394744D01*
X143489874Y-68583102D01*
X143450100Y-68783061D01*
X142748519Y-68783061D01*
X142850774Y-68714737D01*
X142994937Y-68570574D01*
X143108205Y-68401056D01*
X143186226Y-68212698D01*
X143226000Y-68012739D01*
X143226000Y-67950601D01*
X144891603Y-66284999D01*
X144920601Y-66261201D01*
X144956996Y-66216854D01*
X145015574Y-66145477D01*
X145086146Y-66013447D01*
X145092824Y-65991431D01*
X145129603Y-65870186D01*
X145140600Y-65758533D01*
X145140600Y-65758523D01*
X145144276Y-65721201D01*
X145140600Y-65683878D01*
X145140600Y-64599990D01*
X145153344Y-64608505D01*
X145341702Y-64686526D01*
X145541661Y-64726300D01*
X145745539Y-64726300D01*
X145945498Y-64686526D01*
X146133856Y-64608505D01*
X146160600Y-64590635D01*
X146160601Y-84325697D01*
X144205699Y-86280600D01*
X144143561Y-86280600D01*
X143943602Y-86320374D01*
X143755244Y-86398395D01*
X143585726Y-86511663D01*
X143441563Y-86655826D01*
X143328295Y-86825344D01*
X143250274Y-87013702D01*
X143210500Y-87213661D01*
X143210500Y-87417539D01*
X143250274Y-87617498D01*
X143328295Y-87805856D01*
X143441563Y-87975374D01*
X143585726Y-88119537D01*
X143755244Y-88232805D01*
X143943602Y-88310826D01*
X144143561Y-88350600D01*
X144347439Y-88350600D01*
X144547398Y-88310826D01*
X144735756Y-88232805D01*
X144905274Y-88119537D01*
X145049437Y-87975374D01*
X145162705Y-87805856D01*
X145240726Y-87617498D01*
X145280500Y-87417539D01*
X145280500Y-87355401D01*
X147431603Y-85204299D01*
X147460601Y-85180501D01*
X147555574Y-85064776D01*
X147626146Y-84932747D01*
X147669603Y-84789486D01*
X147680600Y-84677833D01*
X147680600Y-84677825D01*
X147684276Y-84640500D01*
X147680600Y-84603175D01*
X147680600Y-63175920D01*
X147848509Y-63245470D01*
X148127680Y-63301000D01*
X148412320Y-63301000D01*
X148691491Y-63245470D01*
X148780000Y-63208808D01*
X148780001Y-77174967D01*
X148776324Y-77212300D01*
X148780001Y-77249633D01*
X148789845Y-77349574D01*
X148790998Y-77361285D01*
X148834454Y-77504546D01*
X148905026Y-77636576D01*
X148963047Y-77707274D01*
X149000000Y-77752301D01*
X149028998Y-77776099D01*
X159238100Y-87985202D01*
X159238100Y-88047339D01*
X159277874Y-88247298D01*
X159355895Y-88435656D01*
X159469163Y-88605174D01*
X159613326Y-88749337D01*
X159647441Y-88772132D01*
X159611626Y-88796063D01*
X159467463Y-88940226D01*
X159354195Y-89109744D01*
X159276174Y-89298102D01*
X159236400Y-89498061D01*
X159236400Y-89701939D01*
X159276174Y-89901898D01*
X159354195Y-90090256D01*
X159467463Y-90259774D01*
X159611626Y-90403937D01*
X159781144Y-90517205D01*
X159969502Y-90595226D01*
X160169461Y-90635000D01*
X160373339Y-90635000D01*
X160573298Y-90595226D01*
X160761656Y-90517205D01*
X160931174Y-90403937D01*
X161075337Y-90259774D01*
X161188605Y-90090256D01*
X161266626Y-89901898D01*
X161306400Y-89701939D01*
X161306400Y-89498061D01*
X161266626Y-89298102D01*
X161188605Y-89109744D01*
X161075337Y-88940226D01*
X160931174Y-88796063D01*
X160897059Y-88773268D01*
X160932874Y-88749337D01*
X161077037Y-88605174D01*
X161190305Y-88435656D01*
X161268326Y-88247298D01*
X161308100Y-88047339D01*
X161308100Y-87843461D01*
X161268326Y-87643502D01*
X161190305Y-87455144D01*
X161077037Y-87285626D01*
X160932874Y-87141463D01*
X160763356Y-87028195D01*
X160574998Y-86950174D01*
X160375039Y-86910400D01*
X160312902Y-86910400D01*
X150300000Y-76897499D01*
X150300000Y-74340611D01*
X150348226Y-74388837D01*
X150517744Y-74502105D01*
X150706102Y-74580126D01*
X150906061Y-74619900D01*
X151109939Y-74619900D01*
X151249400Y-74592160D01*
X151249401Y-77034968D01*
X151245724Y-77072300D01*
X151260398Y-77221285D01*
X151303854Y-77364546D01*
X151374426Y-77496576D01*
X151419728Y-77551776D01*
X151469400Y-77612301D01*
X151498398Y-77636099D01*
X158973305Y-85111008D01*
X158997099Y-85140001D01*
X159026092Y-85163795D01*
X159026096Y-85163799D01*
X159091160Y-85217195D01*
X159112824Y-85234974D01*
X159244853Y-85305546D01*
X159388114Y-85349003D01*
X159499767Y-85360000D01*
X159499776Y-85360000D01*
X159537099Y-85363676D01*
X159561283Y-85361294D01*
X159603926Y-85403937D01*
X159773444Y-85517205D01*
X159961802Y-85595226D01*
X160161761Y-85635000D01*
X160365639Y-85635000D01*
X160565598Y-85595226D01*
X160753956Y-85517205D01*
X160923474Y-85403937D01*
X161067637Y-85259774D01*
X161180905Y-85090256D01*
X161258926Y-84901898D01*
X161298700Y-84701939D01*
X161298700Y-84498061D01*
X161258926Y-84298102D01*
X161180905Y-84109744D01*
X161067637Y-83940226D01*
X160923474Y-83796063D01*
X160753956Y-83682795D01*
X160565598Y-83604774D01*
X160365639Y-83565000D01*
X160161761Y-83565000D01*
X159961802Y-83604774D01*
X159773444Y-83682795D01*
X159726239Y-83714336D01*
X156062164Y-80050261D01*
X158593200Y-80050261D01*
X158593200Y-80254139D01*
X158632974Y-80454098D01*
X158710995Y-80642456D01*
X158824263Y-80811974D01*
X158968426Y-80956137D01*
X159137944Y-81069405D01*
X159326302Y-81147426D01*
X159526261Y-81187200D01*
X159730139Y-81187200D01*
X159930098Y-81147426D01*
X160118456Y-81069405D01*
X160287974Y-80956137D01*
X160432137Y-80811974D01*
X160545405Y-80642456D01*
X160623426Y-80454098D01*
X160663200Y-80254139D01*
X160663200Y-80050261D01*
X160623426Y-79850302D01*
X160545405Y-79661944D01*
X160432137Y-79492426D01*
X160287974Y-79348263D01*
X160118456Y-79234995D01*
X159930098Y-79156974D01*
X159730139Y-79117200D01*
X159526261Y-79117200D01*
X159326302Y-79156974D01*
X159137944Y-79234995D01*
X158968426Y-79348263D01*
X158824263Y-79492426D01*
X158710995Y-79661944D01*
X158632974Y-79850302D01*
X158593200Y-80050261D01*
X156062164Y-80050261D01*
X154059889Y-78047987D01*
X154078798Y-78044226D01*
X154267156Y-77966205D01*
X154436674Y-77852937D01*
X154580837Y-77708774D01*
X154694105Y-77539256D01*
X154772126Y-77350898D01*
X154811900Y-77150939D01*
X154811900Y-76947061D01*
X154772126Y-76747102D01*
X154697203Y-76566223D01*
X154808798Y-76544026D01*
X154997156Y-76466005D01*
X155166674Y-76352737D01*
X155310837Y-76208574D01*
X155424105Y-76039056D01*
X155502126Y-75850698D01*
X155541900Y-75650739D01*
X155541900Y-75588601D01*
X161481003Y-69649499D01*
X161510001Y-69625701D01*
X161604974Y-69509976D01*
X161675546Y-69377947D01*
X161719003Y-69234686D01*
X161730000Y-69123033D01*
X161730000Y-69123025D01*
X161733676Y-69085700D01*
X161730000Y-69048375D01*
X161730000Y-67685400D01*
X161797339Y-67685400D01*
X161997298Y-67645626D01*
X162035400Y-67629843D01*
X162035401Y-84127888D01*
X161991463Y-84171826D01*
X161878195Y-84341344D01*
X161800174Y-84529702D01*
X161760400Y-84729661D01*
X161760400Y-84933539D01*
X161800174Y-85133498D01*
X161878195Y-85321856D01*
X161991463Y-85491374D01*
X162135626Y-85635537D01*
X162305144Y-85748805D01*
X162493502Y-85826826D01*
X162693461Y-85866600D01*
X162897339Y-85866600D01*
X163097298Y-85826826D01*
X163285656Y-85748805D01*
X163455174Y-85635537D01*
X163599337Y-85491374D01*
X163712605Y-85321856D01*
X163790626Y-85133498D01*
X163830400Y-84933539D01*
X163830400Y-84729661D01*
X163790626Y-84529702D01*
X163712605Y-84341344D01*
X163599337Y-84171826D01*
X163555400Y-84127889D01*
X163555400Y-66383122D01*
X163559076Y-66345799D01*
X163555400Y-66308476D01*
X163555400Y-66308467D01*
X163544403Y-66196814D01*
X163500946Y-66053553D01*
X163430374Y-65921524D01*
X163335401Y-65805799D01*
X163306404Y-65782002D01*
X162865400Y-65340999D01*
X162865400Y-63153055D01*
X163088509Y-63245470D01*
X163367680Y-63301000D01*
X163652320Y-63301000D01*
X163931491Y-63245470D01*
X164099400Y-63175920D01*
X164099401Y-80048767D01*
X164095724Y-80086100D01*
X164110398Y-80235085D01*
X164153854Y-80378346D01*
X164224426Y-80510376D01*
X164286265Y-80585726D01*
X164319400Y-80626101D01*
X164348398Y-80649899D01*
X168739600Y-85041102D01*
X168739600Y-85103239D01*
X168779374Y-85303198D01*
X168857395Y-85491556D01*
X168970663Y-85661074D01*
X169114826Y-85805237D01*
X169284344Y-85918505D01*
X169472702Y-85996526D01*
X169672661Y-86036300D01*
X169876539Y-86036300D01*
X170076498Y-85996526D01*
X170264856Y-85918505D01*
X170434374Y-85805237D01*
X170485659Y-85753952D01*
X170489702Y-85755626D01*
X170689661Y-85795400D01*
X170893539Y-85795400D01*
X171093498Y-85755626D01*
X171281856Y-85677605D01*
X171451374Y-85564337D01*
X171595537Y-85420174D01*
X171708805Y-85250656D01*
X171786826Y-85062298D01*
X171826600Y-84862339D01*
X171826600Y-84658461D01*
X171786826Y-84458502D01*
X171708805Y-84270144D01*
X171595537Y-84100626D01*
X171451374Y-83956463D01*
X171281856Y-83843195D01*
X171093498Y-83765174D01*
X170893539Y-83725400D01*
X170831402Y-83725400D01*
X168192500Y-81086499D01*
X168192500Y-79341861D01*
X169632300Y-79341861D01*
X169632300Y-79545739D01*
X169672074Y-79745698D01*
X169750095Y-79934056D01*
X169863363Y-80103574D01*
X170007526Y-80247737D01*
X170177044Y-80361005D01*
X170365402Y-80439026D01*
X170565361Y-80478800D01*
X170769239Y-80478800D01*
X170969198Y-80439026D01*
X171157556Y-80361005D01*
X171327074Y-80247737D01*
X171471237Y-80103574D01*
X171584505Y-79934056D01*
X171662526Y-79745698D01*
X171702300Y-79545739D01*
X171702300Y-79341861D01*
X171662526Y-79141902D01*
X171584505Y-78953544D01*
X171471237Y-78784026D01*
X171327074Y-78639863D01*
X171157556Y-78526595D01*
X170969198Y-78448574D01*
X170769239Y-78408800D01*
X170565361Y-78408800D01*
X170365402Y-78448574D01*
X170177044Y-78526595D01*
X170007526Y-78639863D01*
X169863363Y-78784026D01*
X169750095Y-78953544D01*
X169672074Y-79141902D01*
X169632300Y-79341861D01*
X168192500Y-79341861D01*
X168192500Y-65951473D01*
X168234863Y-66014874D01*
X168379026Y-66159037D01*
X168548544Y-66272305D01*
X168736902Y-66350326D01*
X168936861Y-66390100D01*
X169140739Y-66390100D01*
X169230000Y-66372345D01*
X169230001Y-73699868D01*
X169226324Y-73737200D01*
X169240998Y-73886185D01*
X169284454Y-74029446D01*
X169355026Y-74161476D01*
X169419129Y-74239585D01*
X169450000Y-74277201D01*
X169478998Y-74300999D01*
X172651794Y-77473795D01*
X172538363Y-77587226D01*
X172425095Y-77756744D01*
X172347074Y-77945102D01*
X172307300Y-78145061D01*
X172307300Y-78348939D01*
X172347074Y-78548898D01*
X172425095Y-78737256D01*
X172538363Y-78906774D01*
X172682526Y-79050937D01*
X172852044Y-79164205D01*
X173040402Y-79242226D01*
X173240361Y-79282000D01*
X173444239Y-79282000D01*
X173644198Y-79242226D01*
X173832556Y-79164205D01*
X174002074Y-79050937D01*
X174115505Y-78937506D01*
X180269600Y-85091602D01*
X180269600Y-85153739D01*
X180309374Y-85353698D01*
X180387395Y-85542056D01*
X180433251Y-85610685D01*
X180410895Y-85644144D01*
X180332874Y-85832502D01*
X180293100Y-86032461D01*
X180293100Y-86236339D01*
X180331104Y-86427400D01*
X180192261Y-86427400D01*
X179992302Y-86467174D01*
X179803944Y-86545195D01*
X179634426Y-86658463D01*
X179490263Y-86802626D01*
X179376995Y-86972144D01*
X179298974Y-87160502D01*
X179259200Y-87360461D01*
X179259200Y-87564339D01*
X179298974Y-87764298D01*
X179376995Y-87952656D01*
X179490263Y-88122174D01*
X179634426Y-88266337D01*
X179803944Y-88379605D01*
X179992302Y-88457626D01*
X180192261Y-88497400D01*
X180396139Y-88497400D01*
X180596098Y-88457626D01*
X180784456Y-88379605D01*
X180847183Y-88337692D01*
X181023502Y-88410726D01*
X181223461Y-88450500D01*
X181427339Y-88450500D01*
X181627298Y-88410726D01*
X181815656Y-88332705D01*
X181985174Y-88219437D01*
X182129337Y-88075274D01*
X182242605Y-87905756D01*
X182320626Y-87717398D01*
X182360400Y-87517439D01*
X182360400Y-87313561D01*
X182320626Y-87113602D01*
X182242605Y-86925244D01*
X182143532Y-86776970D01*
X182245305Y-86624656D01*
X182323326Y-86436298D01*
X182363100Y-86236339D01*
X182363100Y-86032461D01*
X182323326Y-85832502D01*
X182245305Y-85644144D01*
X182199449Y-85575515D01*
X182221805Y-85542056D01*
X182299826Y-85353698D01*
X182339600Y-85153739D01*
X182339600Y-84949861D01*
X182299826Y-84749902D01*
X182221805Y-84561544D01*
X182108537Y-84392026D01*
X182035261Y-84318750D01*
X182124437Y-84229574D01*
X182237705Y-84060056D01*
X182315726Y-83871698D01*
X182355500Y-83671739D01*
X182355500Y-83467861D01*
X182315726Y-83267902D01*
X182237705Y-83079544D01*
X182124437Y-82910026D01*
X182014261Y-82799850D01*
X182107737Y-82706374D01*
X182221005Y-82536856D01*
X182299026Y-82348498D01*
X182338800Y-82148539D01*
X182338800Y-81944661D01*
X182299026Y-81744702D01*
X182221005Y-81556344D01*
X182107737Y-81386826D01*
X181963574Y-81242663D01*
X181794056Y-81129395D01*
X181605698Y-81051374D01*
X181405739Y-81011600D01*
X181201861Y-81011600D01*
X181001902Y-81051374D01*
X180813544Y-81129395D01*
X180644026Y-81242663D01*
X180499863Y-81386826D01*
X180386595Y-81556344D01*
X180308574Y-81744702D01*
X180268800Y-81944661D01*
X180268800Y-82101698D01*
X179126163Y-80959061D01*
X182826500Y-80959061D01*
X182826500Y-81162939D01*
X182866274Y-81362898D01*
X182944295Y-81551256D01*
X183057563Y-81720774D01*
X183201726Y-81864937D01*
X183371244Y-81978205D01*
X183559602Y-82056226D01*
X183759561Y-82096000D01*
X183963439Y-82096000D01*
X184163398Y-82056226D01*
X184351756Y-81978205D01*
X184521274Y-81864937D01*
X184665437Y-81720774D01*
X184778705Y-81551256D01*
X184856726Y-81362898D01*
X184896500Y-81162939D01*
X184896500Y-80959061D01*
X184856726Y-80759102D01*
X184778705Y-80570744D01*
X184665437Y-80401226D01*
X184521274Y-80257063D01*
X184351756Y-80143795D01*
X184163398Y-80065774D01*
X183963439Y-80026000D01*
X183759561Y-80026000D01*
X183559602Y-80065774D01*
X183371244Y-80143795D01*
X183201726Y-80257063D01*
X183057563Y-80401226D01*
X182944295Y-80570744D01*
X182866274Y-80759102D01*
X182826500Y-80959061D01*
X179126163Y-80959061D01*
X174503306Y-76336205D01*
X174550837Y-76288674D01*
X174664105Y-76119156D01*
X174742126Y-75930798D01*
X174781900Y-75730839D01*
X174781900Y-75526961D01*
X174742126Y-75327002D01*
X174664105Y-75138644D01*
X174550837Y-74969126D01*
X174506900Y-74925189D01*
X174506900Y-74880111D01*
X174521326Y-74894537D01*
X174690844Y-75007805D01*
X174879202Y-75085826D01*
X175079161Y-75125600D01*
X175283039Y-75125600D01*
X175482998Y-75085826D01*
X175662324Y-75011546D01*
X175692644Y-75031805D01*
X175881002Y-75109826D01*
X176080961Y-75149600D01*
X176284839Y-75149600D01*
X176484798Y-75109826D01*
X176673156Y-75031805D01*
X176842674Y-74918537D01*
X176986837Y-74774374D01*
X177100105Y-74604856D01*
X177178126Y-74416498D01*
X177217900Y-74216539D01*
X177217900Y-74154401D01*
X180397203Y-70975099D01*
X180426201Y-70951301D01*
X180463562Y-70905777D01*
X180521174Y-70835577D01*
X180591746Y-70703547D01*
X180613908Y-70630486D01*
X180635203Y-70560286D01*
X180646200Y-70448633D01*
X180646200Y-70448624D01*
X180649876Y-70411301D01*
X180646200Y-70373978D01*
X180646200Y-57949522D01*
X180649876Y-57912199D01*
X180646200Y-57874876D01*
X180646200Y-57874867D01*
X180635203Y-57763214D01*
X180591746Y-57619953D01*
X180521174Y-57487924D01*
X180470846Y-57426599D01*
X180449999Y-57401196D01*
X180449995Y-57401192D01*
X180426201Y-57372199D01*
X180397209Y-57348406D01*
X180157193Y-57108391D01*
X180195000Y-56918320D01*
X180195000Y-56633680D01*
X180139470Y-56354509D01*
X180030543Y-56091536D01*
X179872405Y-55854866D01*
X179671134Y-55653595D01*
X179450243Y-55506000D01*
X179671134Y-55358405D01*
X179872405Y-55157134D01*
X180030543Y-54920464D01*
X180139470Y-54657491D01*
X180195000Y-54378320D01*
X180195000Y-54093680D01*
X180139470Y-53814509D01*
X180030543Y-53551536D01*
X179872405Y-53314866D01*
X179671134Y-53113595D01*
X179434464Y-52955457D01*
X179171491Y-52846530D01*
X178892320Y-52791000D01*
X178607680Y-52791000D01*
X178328509Y-52846530D01*
X178065536Y-52955457D01*
X177828866Y-53113595D01*
X177627595Y-53314866D01*
X177480000Y-53535757D01*
X177332405Y-53314866D01*
X177131134Y-53113595D01*
X176894464Y-52955457D01*
X176631491Y-52846530D01*
X176352320Y-52791000D01*
X176067680Y-52791000D01*
X175788509Y-52846530D01*
X175525536Y-52955457D01*
X175288866Y-53113595D01*
X175087595Y-53314866D01*
X174940000Y-53535757D01*
X174792405Y-53314866D01*
X174591134Y-53113595D01*
X174354464Y-52955457D01*
X174091491Y-52846530D01*
X173812320Y-52791000D01*
X173527680Y-52791000D01*
X173248509Y-52846530D01*
X172985536Y-52955457D01*
X172748866Y-53113595D01*
X172547595Y-53314866D01*
X172400000Y-53535757D01*
X172252405Y-53314866D01*
X172051134Y-53113595D01*
X171814464Y-52955457D01*
X171551491Y-52846530D01*
X171272320Y-52791000D01*
X170987680Y-52791000D01*
X170708509Y-52846530D01*
X170445536Y-52955457D01*
X170208866Y-53113595D01*
X170007595Y-53314866D01*
X169860000Y-53535757D01*
X169712405Y-53314866D01*
X169511134Y-53113595D01*
X169274464Y-52955457D01*
X169011491Y-52846530D01*
X168732320Y-52791000D01*
X168447680Y-52791000D01*
X168168509Y-52846530D01*
X167905536Y-52955457D01*
X167668866Y-53113595D01*
X167467595Y-53314866D01*
X167320000Y-53535757D01*
X167172405Y-53314866D01*
X166971134Y-53113595D01*
X166734464Y-52955457D01*
X166471491Y-52846530D01*
X166192320Y-52791000D01*
X165907680Y-52791000D01*
X165628509Y-52846530D01*
X165365536Y-52955457D01*
X165128866Y-53113595D01*
X164927595Y-53314866D01*
X164780000Y-53535757D01*
X164632405Y-53314866D01*
X164431134Y-53113595D01*
X164194464Y-52955457D01*
X163931491Y-52846530D01*
X163652320Y-52791000D01*
X163367680Y-52791000D01*
X163088509Y-52846530D01*
X162825536Y-52955457D01*
X162588866Y-53113595D01*
X162387595Y-53314866D01*
X162240000Y-53535757D01*
X162092405Y-53314866D01*
X161891134Y-53113595D01*
X161654464Y-52955457D01*
X161391491Y-52846530D01*
X161112320Y-52791000D01*
X160827680Y-52791000D01*
X160548509Y-52846530D01*
X160285536Y-52955457D01*
X160048866Y-53113595D01*
X159847595Y-53314866D01*
X159700000Y-53535757D01*
X159552405Y-53314866D01*
X159351134Y-53113595D01*
X159114464Y-52955457D01*
X158851491Y-52846530D01*
X158572320Y-52791000D01*
X158287680Y-52791000D01*
X158008509Y-52846530D01*
X157745536Y-52955457D01*
X157508866Y-53113595D01*
X157307595Y-53314866D01*
X157160000Y-53535757D01*
X157012405Y-53314866D01*
X156811134Y-53113595D01*
X156574464Y-52955457D01*
X156311491Y-52846530D01*
X156032320Y-52791000D01*
X155747680Y-52791000D01*
X155468509Y-52846530D01*
X155205536Y-52955457D01*
X154968866Y-53113595D01*
X154767595Y-53314866D01*
X154620000Y-53535757D01*
X154472405Y-53314866D01*
X154271134Y-53113595D01*
X154034464Y-52955457D01*
X153771491Y-52846530D01*
X153492320Y-52791000D01*
X153207680Y-52791000D01*
X152928509Y-52846530D01*
X152665536Y-52955457D01*
X152428866Y-53113595D01*
X152227595Y-53314866D01*
X152080000Y-53535757D01*
X151932405Y-53314866D01*
X151731134Y-53113595D01*
X151494464Y-52955457D01*
X151231491Y-52846530D01*
X150952320Y-52791000D01*
X150667680Y-52791000D01*
X150388509Y-52846530D01*
X150125536Y-52955457D01*
X149888866Y-53113595D01*
X149687595Y-53314866D01*
X149540000Y-53535757D01*
X149392405Y-53314866D01*
X149191134Y-53113595D01*
X148954464Y-52955457D01*
X148691491Y-52846530D01*
X148412320Y-52791000D01*
X148127680Y-52791000D01*
X147848509Y-52846530D01*
X147585536Y-52955457D01*
X147348866Y-53113595D01*
X147147595Y-53314866D01*
X147000000Y-53535757D01*
X146852405Y-53314866D01*
X146651134Y-53113595D01*
X146414464Y-52955457D01*
X146151491Y-52846530D01*
X145872320Y-52791000D01*
X145587680Y-52791000D01*
X145308509Y-52846530D01*
X145045536Y-52955457D01*
X144808866Y-53113595D01*
X144607595Y-53314866D01*
X144460000Y-53535757D01*
X144312405Y-53314866D01*
X144111134Y-53113595D01*
X143874464Y-52955457D01*
X143611491Y-52846530D01*
X143332320Y-52791000D01*
X143047680Y-52791000D01*
X142768509Y-52846530D01*
X142505536Y-52955457D01*
X142268866Y-53113595D01*
X142067595Y-53314866D01*
X141920000Y-53535757D01*
X141772405Y-53314866D01*
X141571134Y-53113595D01*
X141334464Y-52955457D01*
X141071491Y-52846530D01*
X140792320Y-52791000D01*
X140507680Y-52791000D01*
X140228509Y-52846530D01*
X139965536Y-52955457D01*
X139728866Y-53113595D01*
X139527595Y-53314866D01*
X139380000Y-53535757D01*
X139232405Y-53314866D01*
X139031134Y-53113595D01*
X138794464Y-52955457D01*
X138531491Y-52846530D01*
X138252320Y-52791000D01*
X137967680Y-52791000D01*
X137688509Y-52846530D01*
X137425536Y-52955457D01*
X137188866Y-53113595D01*
X136987595Y-53314866D01*
X136840000Y-53535757D01*
X136692405Y-53314866D01*
X136491134Y-53113595D01*
X136254464Y-52955457D01*
X135991491Y-52846530D01*
X135712320Y-52791000D01*
X135427680Y-52791000D01*
X135148509Y-52846530D01*
X134885536Y-52955457D01*
X134648866Y-53113595D01*
X134447595Y-53314866D01*
X134300000Y-53535757D01*
X134152405Y-53314866D01*
X133951134Y-53113595D01*
X133714464Y-52955457D01*
X133451491Y-52846530D01*
X133172320Y-52791000D01*
X132887680Y-52791000D01*
X132608509Y-52846530D01*
X132345536Y-52955457D01*
X132108866Y-53113595D01*
X131907595Y-53314866D01*
X131760000Y-53535757D01*
X131612405Y-53314866D01*
X131411134Y-53113595D01*
X131174464Y-52955457D01*
X130911491Y-52846530D01*
X130632320Y-52791000D01*
X130347680Y-52791000D01*
X130068509Y-52846530D01*
X129805536Y-52955457D01*
X129568866Y-53113595D01*
X129367595Y-53314866D01*
X129220000Y-53535757D01*
X129072405Y-53314866D01*
X128871134Y-53113595D01*
X128634464Y-52955457D01*
X128371491Y-52846530D01*
X128092320Y-52791000D01*
X127807680Y-52791000D01*
X127528509Y-52846530D01*
X127265536Y-52955457D01*
X127028866Y-53113595D01*
X126827595Y-53314866D01*
X126680000Y-53535757D01*
X126532405Y-53314866D01*
X126331134Y-53113595D01*
X126094464Y-52955457D01*
X125831491Y-52846530D01*
X125552320Y-52791000D01*
X125267680Y-52791000D01*
X124988509Y-52846530D01*
X124725536Y-52955457D01*
X124488866Y-53113595D01*
X124287595Y-53314866D01*
X124140000Y-53535757D01*
X123992405Y-53314866D01*
X123791134Y-53113595D01*
X123554464Y-52955457D01*
X123291491Y-52846530D01*
X123012320Y-52791000D01*
X122727680Y-52791000D01*
X122448509Y-52846530D01*
X122185536Y-52955457D01*
X121948866Y-53113595D01*
X121747595Y-53314866D01*
X121600000Y-53535757D01*
X121452405Y-53314866D01*
X121251134Y-53113595D01*
X121014464Y-52955457D01*
X120751491Y-52846530D01*
X120472320Y-52791000D01*
X120187680Y-52791000D01*
X119908509Y-52846530D01*
X119645536Y-52955457D01*
X119408866Y-53113595D01*
X119207595Y-53314866D01*
X119060000Y-53535757D01*
X118912405Y-53314866D01*
X118711134Y-53113595D01*
X118474464Y-52955457D01*
X118211491Y-52846530D01*
X117932320Y-52791000D01*
X117647680Y-52791000D01*
X117368509Y-52846530D01*
X117105536Y-52955457D01*
X116868866Y-53113595D01*
X116667595Y-53314866D01*
X116520000Y-53535757D01*
X116372405Y-53314866D01*
X116171134Y-53113595D01*
X115934464Y-52955457D01*
X115671491Y-52846530D01*
X115392320Y-52791000D01*
X115107680Y-52791000D01*
X114828509Y-52846530D01*
X114565536Y-52955457D01*
X114328866Y-53113595D01*
X114127595Y-53314866D01*
X113969457Y-53551536D01*
X113860530Y-53814509D01*
X113805000Y-54093680D01*
X113555000Y-54093680D01*
X113555000Y-53902607D01*
X113424917Y-53248632D01*
X113169748Y-52632601D01*
X112799302Y-52078188D01*
X112567114Y-51846000D01*
X181422886Y-51846000D01*
X181190698Y-52078188D01*
G37*
X181190698Y-52078188D02*
X180820252Y-52632601D01*
X180565083Y-53248632D01*
X180435000Y-53902607D01*
X180435000Y-54569393D01*
X180565083Y-55223368D01*
X180820252Y-55839399D01*
X181190698Y-56393812D01*
X181662188Y-56865302D01*
X182216601Y-57235748D01*
X182832632Y-57490917D01*
X183060001Y-57536143D01*
X183060000Y-67082678D01*
X183056324Y-67120000D01*
X183060000Y-67157322D01*
X183060000Y-67157332D01*
X183070997Y-67268985D01*
X183105602Y-67383065D01*
X183114454Y-67412246D01*
X183185026Y-67544276D01*
X183223209Y-67590801D01*
X183279999Y-67660001D01*
X183309003Y-67683804D01*
X186540001Y-70914803D01*
X186540000Y-96296289D01*
X186496063Y-96340226D01*
X186382795Y-96509744D01*
X186304774Y-96698102D01*
X186269985Y-96873000D01*
X106330015Y-96873000D01*
X106295226Y-96698102D01*
X106217205Y-96509744D01*
X106103937Y-96340226D01*
X105959774Y-96196063D01*
X105790256Y-96082795D01*
X105601898Y-96004774D01*
X105401939Y-95965000D01*
X105198061Y-95965000D01*
X104998102Y-96004774D01*
X104809744Y-96082795D01*
X104640226Y-96196063D01*
X104496063Y-96340226D01*
X104382795Y-96509744D01*
X104304774Y-96698102D01*
X104269985Y-96873000D01*
X103980000Y-96873000D01*
X103980000Y-88451061D01*
X111649100Y-88451061D01*
X111649100Y-88654939D01*
X111688874Y-88854898D01*
X111766895Y-89043256D01*
X111880163Y-89212774D01*
X112024326Y-89356937D01*
X112193844Y-89470205D01*
X112382202Y-89548226D01*
X112582161Y-89588000D01*
X112786039Y-89588000D01*
X112985998Y-89548226D01*
X113174356Y-89470205D01*
X113343874Y-89356937D01*
X113488037Y-89212774D01*
X113601305Y-89043256D01*
X113679326Y-88854898D01*
X113719100Y-88654939D01*
X113719100Y-88483561D01*
X132679000Y-88483561D01*
X132679000Y-88687439D01*
X132718774Y-88887398D01*
X132796795Y-89075756D01*
X132910063Y-89245274D01*
X133054226Y-89389437D01*
X133223744Y-89502705D01*
X133412102Y-89580726D01*
X133612061Y-89620500D01*
X133815939Y-89620500D01*
X134015898Y-89580726D01*
X134204256Y-89502705D01*
X134373774Y-89389437D01*
X134517937Y-89245274D01*
X134631205Y-89075756D01*
X134709226Y-88887398D01*
X134749000Y-88687439D01*
X134749000Y-88483561D01*
X134709226Y-88283602D01*
X134631205Y-88095244D01*
X134537931Y-87955650D01*
X134646105Y-87793756D01*
X134724126Y-87605398D01*
X134763900Y-87405439D01*
X134763900Y-87201561D01*
X134724126Y-87001602D01*
X134646105Y-86813244D01*
X134532837Y-86643726D01*
X134388674Y-86499563D01*
X134219156Y-86386295D01*
X134030798Y-86308274D01*
X133830839Y-86268500D01*
X133626961Y-86268500D01*
X133427002Y-86308274D01*
X133238644Y-86386295D01*
X133069126Y-86499563D01*
X132924963Y-86643726D01*
X132811695Y-86813244D01*
X132733674Y-87001602D01*
X132693900Y-87201561D01*
X132693900Y-87405439D01*
X132733674Y-87605398D01*
X132811695Y-87793756D01*
X132904969Y-87933350D01*
X132796795Y-88095244D01*
X132718774Y-88283602D01*
X132679000Y-88483561D01*
X113719100Y-88483561D01*
X113719100Y-88451061D01*
X113679326Y-88251102D01*
X113601305Y-88062744D01*
X113488037Y-87893226D01*
X113343874Y-87749063D01*
X113174356Y-87635795D01*
X112985998Y-87557774D01*
X112786039Y-87518000D01*
X112582161Y-87518000D01*
X112382202Y-87557774D01*
X112193844Y-87635795D01*
X112024326Y-87749063D01*
X111880163Y-87893226D01*
X111766895Y-88062744D01*
X111688874Y-88251102D01*
X111649100Y-88451061D01*
X103980000Y-88451061D01*
X103980000Y-85890861D01*
X109103600Y-85890861D01*
X109103600Y-86094739D01*
X109143374Y-86294698D01*
X109221395Y-86483056D01*
X109326150Y-86639834D01*
X109230995Y-86782244D01*
X109152974Y-86970602D01*
X109113200Y-87170561D01*
X109113200Y-87374439D01*
X109152974Y-87574398D01*
X109230995Y-87762756D01*
X109344263Y-87932274D01*
X109488426Y-88076437D01*
X109657944Y-88189705D01*
X109846302Y-88267726D01*
X110046261Y-88307500D01*
X110250139Y-88307500D01*
X110450098Y-88267726D01*
X110638456Y-88189705D01*
X110807974Y-88076437D01*
X110952137Y-87932274D01*
X111065405Y-87762756D01*
X111143426Y-87574398D01*
X111183200Y-87374439D01*
X111183200Y-87170561D01*
X111143426Y-86970602D01*
X111065405Y-86782244D01*
X110960650Y-86625466D01*
X111055805Y-86483056D01*
X111133826Y-86294698D01*
X111173600Y-86094739D01*
X111173600Y-85890861D01*
X111133826Y-85690902D01*
X111055805Y-85502544D01*
X110942537Y-85333026D01*
X110798374Y-85188863D01*
X110628856Y-85075595D01*
X110440498Y-84997574D01*
X110240539Y-84957800D01*
X110036661Y-84957800D01*
X109836702Y-84997574D01*
X109648344Y-85075595D01*
X109478826Y-85188863D01*
X109334663Y-85333026D01*
X109221395Y-85502544D01*
X109143374Y-85690902D01*
X109103600Y-85890861D01*
X103980000Y-85890861D01*
X103980000Y-83969861D01*
X112397200Y-83969861D01*
X112397200Y-84173739D01*
X112436974Y-84373698D01*
X112514995Y-84562056D01*
X112628263Y-84731574D01*
X112772426Y-84875737D01*
X112941944Y-84989005D01*
X113130302Y-85067026D01*
X113330261Y-85106800D01*
X113534139Y-85106800D01*
X113734098Y-85067026D01*
X113922456Y-84989005D01*
X114091974Y-84875737D01*
X114236137Y-84731574D01*
X114349405Y-84562056D01*
X114427426Y-84373698D01*
X114467200Y-84173739D01*
X114467200Y-83969861D01*
X114427426Y-83769902D01*
X114349405Y-83581544D01*
X114236137Y-83412026D01*
X114091974Y-83267863D01*
X113922456Y-83154595D01*
X113734098Y-83076574D01*
X113534139Y-83036800D01*
X113330261Y-83036800D01*
X113130302Y-83076574D01*
X112941944Y-83154595D01*
X112772426Y-83267863D01*
X112628263Y-83412026D01*
X112514995Y-83581544D01*
X112436974Y-83769902D01*
X112397200Y-83969861D01*
X103980000Y-83969861D01*
X103980000Y-66870729D01*
X103998386Y-66683215D01*
X104042757Y-66536252D01*
X104114829Y-66400703D01*
X104211852Y-66281742D01*
X104330144Y-66183882D01*
X104465181Y-66110868D01*
X104611833Y-66065471D01*
X104797092Y-66046000D01*
X105604877Y-66046000D01*
X105635576Y-66042976D01*
X105644820Y-66043041D01*
X105654686Y-66042074D01*
X105945831Y-66011474D01*
X106008868Y-65998534D01*
X106072080Y-65986476D01*
X106081570Y-65983611D01*
X106361226Y-65897043D01*
X106420521Y-65872117D01*
X106480215Y-65847999D01*
X106488967Y-65843345D01*
X106746483Y-65704106D01*
X106799825Y-65668127D01*
X106853678Y-65632886D01*
X106861360Y-65626621D01*
X107086927Y-65440016D01*
X107132246Y-65394379D01*
X107178248Y-65349331D01*
X107184566Y-65341692D01*
X107369592Y-65114828D01*
X107405177Y-65061268D01*
X107441560Y-65008132D01*
X107446275Y-64999412D01*
X107583712Y-64740931D01*
X107608225Y-64681456D01*
X107633584Y-64622289D01*
X107636516Y-64612819D01*
X107721130Y-64332565D01*
X107733622Y-64269475D01*
X107747009Y-64206494D01*
X107748045Y-64196635D01*
X107776612Y-63905283D01*
X107776612Y-63905277D01*
X107780000Y-63870877D01*
X107780000Y-56633114D01*
X108012188Y-56865302D01*
X108566601Y-57235748D01*
X109182632Y-57490917D01*
X109836607Y-57621000D01*
X110503393Y-57621000D01*
X111157368Y-57490917D01*
X111773399Y-57235748D01*
X112327812Y-56865302D01*
X112799302Y-56393812D01*
X113169748Y-55839399D01*
X113424917Y-55223368D01*
X113555000Y-54569393D01*
X113555000Y-54093680D01*
X113805000Y-54093680D01*
X113805000Y-54378320D01*
X113860530Y-54657491D01*
X113969457Y-54920464D01*
X114127595Y-55157134D01*
X114328866Y-55358405D01*
X114549757Y-55506000D01*
X114328866Y-55653595D01*
X114127595Y-55854866D01*
X113969457Y-56091536D01*
X113860530Y-56354509D01*
X113805000Y-56633680D01*
X113805000Y-56918320D01*
X113860530Y-57197491D01*
X113969457Y-57460464D01*
X114127595Y-57697134D01*
X114328866Y-57898405D01*
X114549757Y-58046000D01*
X114328866Y-58193595D01*
X114127595Y-58394866D01*
X113969457Y-58631536D01*
X113860530Y-58894509D01*
X113805000Y-59173680D01*
X113805000Y-59458320D01*
X113860530Y-59737491D01*
X113969457Y-60000464D01*
X114127595Y-60237134D01*
X114328866Y-60438405D01*
X114549757Y-60586000D01*
X114328866Y-60733595D01*
X114127595Y-60934866D01*
X113969457Y-61171536D01*
X113860530Y-61434509D01*
X113805000Y-61713680D01*
X113805000Y-61998320D01*
X113860530Y-62277491D01*
X113969457Y-62540464D01*
X114127595Y-62777134D01*
X114328866Y-62978405D01*
X114565536Y-63136543D01*
X114828509Y-63245470D01*
X115107680Y-63301000D01*
X115392320Y-63301000D01*
X115671491Y-63245470D01*
X115866400Y-63164736D01*
X115866401Y-75684067D01*
X115862724Y-75721400D01*
X115866401Y-75758733D01*
X115868447Y-75779501D01*
X115877398Y-75870385D01*
X115920854Y-76013646D01*
X115991426Y-76145676D01*
X116032286Y-76195463D01*
X116086400Y-76261401D01*
X116115398Y-76285199D01*
X119628000Y-79797803D01*
X119628000Y-79859939D01*
X119667774Y-80059898D01*
X119745795Y-80248256D01*
X119859063Y-80417774D01*
X120003226Y-80561937D01*
X120172744Y-80675205D01*
X120361102Y-80753226D01*
X120561061Y-80793000D01*
X120764939Y-80793000D01*
X120964898Y-80753226D01*
X121153256Y-80675205D01*
X121322774Y-80561937D01*
X121466937Y-80417774D01*
X121580205Y-80248256D01*
X121658226Y-80059898D01*
X121698000Y-79859939D01*
X121698000Y-79656061D01*
X121658226Y-79456102D01*
X121580205Y-79267744D01*
X121466937Y-79098226D01*
X121322774Y-78954063D01*
X121213413Y-78880990D01*
X121244105Y-78835056D01*
X121322126Y-78646698D01*
X121361900Y-78446739D01*
X121361900Y-78384601D01*
X122055203Y-77691299D01*
X122084201Y-77667501D01*
X122179174Y-77551776D01*
X122249746Y-77419747D01*
X122293203Y-77276486D01*
X122304200Y-77164833D01*
X122304200Y-77164824D01*
X122307876Y-77127501D01*
X122304200Y-77090178D01*
X122304200Y-69384700D01*
X122371439Y-69384700D01*
X122571398Y-69344926D01*
X122759756Y-69266905D01*
X122929274Y-69153637D01*
X123073437Y-69009474D01*
X123178271Y-68852578D01*
X123248261Y-68866500D01*
X123447300Y-68866500D01*
X123447300Y-78661299D01*
X123306539Y-78633300D01*
X123102661Y-78633300D01*
X122902702Y-78673074D01*
X122714344Y-78751095D01*
X122544826Y-78864363D01*
X122400663Y-79008526D01*
X122287395Y-79178044D01*
X122209374Y-79366402D01*
X122169600Y-79566361D01*
X122169600Y-79770239D01*
X122209374Y-79970198D01*
X122287395Y-80158556D01*
X122400663Y-80328074D01*
X122544826Y-80472237D01*
X122714344Y-80585505D01*
X122902702Y-80663526D01*
X123102661Y-80703300D01*
X123306539Y-80703300D01*
X123447300Y-80675301D01*
X123447300Y-80905898D01*
X123178898Y-81174300D01*
X123116761Y-81174300D01*
X122916802Y-81214074D01*
X122728444Y-81292095D01*
X122558926Y-81405363D01*
X122414763Y-81549526D01*
X122301495Y-81719044D01*
X122223474Y-81907402D01*
X122183700Y-82107361D01*
X122183700Y-82311239D01*
X122223474Y-82511198D01*
X122301495Y-82699556D01*
X122414763Y-82869074D01*
X122558926Y-83013237D01*
X122728444Y-83126505D01*
X122916802Y-83204526D01*
X123116761Y-83244300D01*
X123320639Y-83244300D01*
X123520598Y-83204526D01*
X123708956Y-83126505D01*
X123878474Y-83013237D01*
X124022637Y-82869074D01*
X124135905Y-82699556D01*
X124213926Y-82511198D01*
X124253700Y-82311239D01*
X124253700Y-82249102D01*
X124718304Y-81784498D01*
X124747301Y-81760701D01*
X124842274Y-81644976D01*
X124912846Y-81512947D01*
X124956303Y-81369686D01*
X124967300Y-81258033D01*
X124967300Y-81258032D01*
X124970977Y-81220700D01*
X124967300Y-81183367D01*
X124967300Y-63236685D01*
X124988509Y-63245470D01*
X125267680Y-63301000D01*
X125552320Y-63301000D01*
X125831491Y-63245470D01*
X125920001Y-63208808D01*
X125920000Y-82186198D01*
X124663699Y-83442500D01*
X124601561Y-83442500D01*
X124401602Y-83482274D01*
X124213244Y-83560295D01*
X124043726Y-83673563D01*
X123899563Y-83817726D01*
X123786295Y-83987244D01*
X123708274Y-84175602D01*
X123668500Y-84375561D01*
X123668500Y-84579439D01*
X123708274Y-84779398D01*
X123786295Y-84967756D01*
X123899563Y-85137274D01*
X123947144Y-85184855D01*
X123545684Y-85586315D01*
X123476298Y-85557574D01*
X123276339Y-85517800D01*
X123072461Y-85517800D01*
X122872502Y-85557574D01*
X122684144Y-85635595D01*
X122514626Y-85748863D01*
X122370463Y-85893026D01*
X122257195Y-86062544D01*
X122179174Y-86250902D01*
X122139400Y-86450861D01*
X122139400Y-86654739D01*
X122179174Y-86854698D01*
X122257195Y-87043056D01*
X122370463Y-87212574D01*
X122514626Y-87356737D01*
X122684144Y-87470005D01*
X122872502Y-87548026D01*
X123072461Y-87587800D01*
X123276339Y-87587800D01*
X123476298Y-87548026D01*
X123664656Y-87470005D01*
X123834174Y-87356737D01*
X123926608Y-87264303D01*
X123946247Y-87258346D01*
X124078276Y-87187774D01*
X124194001Y-87092801D01*
X124217804Y-87063797D01*
X129651604Y-81629998D01*
X129680601Y-81606201D01*
X129757133Y-81512947D01*
X129775574Y-81490477D01*
X129846146Y-81358447D01*
X129866273Y-81292095D01*
X129889603Y-81215186D01*
X129900600Y-81103533D01*
X129900600Y-81103524D01*
X129904276Y-81066201D01*
X129900600Y-81028878D01*
X129900600Y-63175920D01*
X130068509Y-63245470D01*
X130347680Y-63301000D01*
X130632320Y-63301000D01*
X130911491Y-63245470D01*
X131079401Y-63175920D01*
X131079401Y-68247868D01*
X131075724Y-68285200D01*
X131090398Y-68434185D01*
X131133854Y-68577446D01*
X131204426Y-68709476D01*
X131271987Y-68791798D01*
X131299400Y-68825201D01*
X131328398Y-68848999D01*
X138932640Y-76453242D01*
X138968674Y-76634398D01*
X139046695Y-76822756D01*
X139159963Y-76992274D01*
X139304126Y-77136437D01*
X139473644Y-77249705D01*
X139662002Y-77327726D01*
X139861961Y-77367500D01*
X139883796Y-77367500D01*
X139934395Y-77489656D01*
X140047663Y-77659174D01*
X140191826Y-77803337D01*
X140361344Y-77916605D01*
X140549702Y-77994626D01*
X140749661Y-78034400D01*
X140851600Y-78034400D01*
X140851601Y-81365088D01*
X140807663Y-81409026D01*
X140694395Y-81578544D01*
X140616374Y-81766902D01*
X140576600Y-81966861D01*
X140576600Y-82170739D01*
X140616374Y-82370698D01*
X140694395Y-82559056D01*
X140807663Y-82728574D01*
X140951826Y-82872737D01*
X141121344Y-82986005D01*
X141309702Y-83064026D01*
X141509661Y-83103800D01*
X141576901Y-83103800D01*
X141576901Y-85653365D01*
X141420502Y-85684474D01*
X141232144Y-85762495D01*
X141062626Y-85875763D01*
X140918463Y-86019926D01*
X140805195Y-86189444D01*
X140727174Y-86377802D01*
X140687400Y-86577761D01*
X140687400Y-86781639D01*
X140727174Y-86981598D01*
X140805195Y-87169956D01*
X140918463Y-87339474D01*
X141062626Y-87483637D01*
X141232144Y-87596905D01*
X141420502Y-87674926D01*
X141620461Y-87714700D01*
X141824339Y-87714700D01*
X142024298Y-87674926D01*
X142212656Y-87596905D01*
X142382174Y-87483637D01*
X142526337Y-87339474D01*
X142639605Y-87169956D01*
X142717626Y-86981598D01*
X142757400Y-86781639D01*
X142757400Y-86719502D01*
X142847902Y-86629000D01*
X142876901Y-86605201D01*
X142971874Y-86489476D01*
X143042446Y-86357447D01*
X143085903Y-86214186D01*
X143096900Y-86102533D01*
X143096900Y-86102524D01*
X143100576Y-86065201D01*
X143096900Y-86027878D01*
X143096900Y-75226122D01*
X143100576Y-75188799D01*
X143096900Y-75151476D01*
X143096900Y-75151467D01*
X143085903Y-75039814D01*
X143042446Y-74896553D01*
X142971874Y-74764524D01*
X142876901Y-74648799D01*
X142847904Y-74625002D01*
X142803594Y-74580692D01*
X142882061Y-74596300D01*
X143085939Y-74596300D01*
X143285898Y-74556526D01*
X143474256Y-74478505D01*
X143643774Y-74365237D01*
X143787937Y-74221074D01*
X143855151Y-74120481D01*
X143858261Y-74121100D01*
X144062139Y-74121100D01*
X144262098Y-74081326D01*
X144450456Y-74003305D01*
X144619974Y-73890037D01*
X144764137Y-73745874D01*
X144877405Y-73576356D01*
X144955426Y-73387998D01*
X144995200Y-73188039D01*
X144995200Y-72984161D01*
X144955426Y-72784202D01*
X144877405Y-72595844D01*
X144764137Y-72426326D01*
X144619974Y-72282163D01*
X144450456Y-72168895D01*
X144262098Y-72090874D01*
X144062139Y-72051100D01*
X143858261Y-72051100D01*
X143658302Y-72090874D01*
X143469944Y-72168895D01*
X143300426Y-72282163D01*
X143156263Y-72426326D01*
X143089049Y-72526919D01*
X143085939Y-72526300D01*
X142882061Y-72526300D01*
X142682102Y-72566074D01*
X142493744Y-72644095D01*
X142324226Y-72757363D01*
X142220400Y-72861189D01*
X142220400Y-71756400D01*
X142290539Y-71756400D01*
X142490498Y-71716626D01*
X142678856Y-71638605D01*
X142848374Y-71525337D01*
X142992537Y-71381174D01*
X143105805Y-71211656D01*
X143183826Y-71023298D01*
X143223600Y-70823339D01*
X143223600Y-70619461D01*
X143183826Y-70419502D01*
X143105805Y-70231144D01*
X142992537Y-70061626D01*
X142848374Y-69917463D01*
X142678856Y-69804195D01*
X142490498Y-69726174D01*
X142290539Y-69686400D01*
X142220400Y-69686400D01*
X142220400Y-68945800D01*
X142292939Y-68945800D01*
X142492898Y-68906026D01*
X142681256Y-68828005D01*
X142748519Y-68783061D01*
X143450100Y-68783061D01*
X143450100Y-68986939D01*
X143489874Y-69186898D01*
X143567895Y-69375256D01*
X143681163Y-69544774D01*
X143825326Y-69688937D01*
X143994844Y-69802205D01*
X144183202Y-69880226D01*
X144383161Y-69920000D01*
X144587039Y-69920000D01*
X144786998Y-69880226D01*
X144975356Y-69802205D01*
X145144874Y-69688937D01*
X145289037Y-69544774D01*
X145402305Y-69375256D01*
X145480326Y-69186898D01*
X145520100Y-68986939D01*
X145520100Y-68783061D01*
X145480326Y-68583102D01*
X145402305Y-68394744D01*
X145289037Y-68225226D01*
X145144874Y-68081063D01*
X144975356Y-67967795D01*
X144786998Y-67889774D01*
X144587039Y-67850000D01*
X144383161Y-67850000D01*
X144183202Y-67889774D01*
X143994844Y-67967795D01*
X143825326Y-68081063D01*
X143681163Y-68225226D01*
X143567895Y-68394744D01*
X143489874Y-68583102D01*
X143450100Y-68783061D01*
X142748519Y-68783061D01*
X142850774Y-68714737D01*
X142994937Y-68570574D01*
X143108205Y-68401056D01*
X143186226Y-68212698D01*
X143226000Y-68012739D01*
X143226000Y-67950601D01*
X144891603Y-66284999D01*
X144920601Y-66261201D01*
X144956996Y-66216854D01*
X145015574Y-66145477D01*
X145086146Y-66013447D01*
X145092824Y-65991431D01*
X145129603Y-65870186D01*
X145140600Y-65758533D01*
X145140600Y-65758523D01*
X145144276Y-65721201D01*
X145140600Y-65683878D01*
X145140600Y-64599990D01*
X145153344Y-64608505D01*
X145341702Y-64686526D01*
X145541661Y-64726300D01*
X145745539Y-64726300D01*
X145945498Y-64686526D01*
X146133856Y-64608505D01*
X146160600Y-64590635D01*
X146160601Y-84325697D01*
X144205699Y-86280600D01*
X144143561Y-86280600D01*
X143943602Y-86320374D01*
X143755244Y-86398395D01*
X143585726Y-86511663D01*
X143441563Y-86655826D01*
X143328295Y-86825344D01*
X143250274Y-87013702D01*
X143210500Y-87213661D01*
X143210500Y-87417539D01*
X143250274Y-87617498D01*
X143328295Y-87805856D01*
X143441563Y-87975374D01*
X143585726Y-88119537D01*
X143755244Y-88232805D01*
X143943602Y-88310826D01*
X144143561Y-88350600D01*
X144347439Y-88350600D01*
X144547398Y-88310826D01*
X144735756Y-88232805D01*
X144905274Y-88119537D01*
X145049437Y-87975374D01*
X145162705Y-87805856D01*
X145240726Y-87617498D01*
X145280500Y-87417539D01*
X145280500Y-87355401D01*
X147431603Y-85204299D01*
X147460601Y-85180501D01*
X147555574Y-85064776D01*
X147626146Y-84932747D01*
X147669603Y-84789486D01*
X147680600Y-84677833D01*
X147680600Y-84677825D01*
X147684276Y-84640500D01*
X147680600Y-84603175D01*
X147680600Y-63175920D01*
X147848509Y-63245470D01*
X148127680Y-63301000D01*
X148412320Y-63301000D01*
X148691491Y-63245470D01*
X148780000Y-63208808D01*
X148780001Y-77174967D01*
X148776324Y-77212300D01*
X148780001Y-77249633D01*
X148789845Y-77349574D01*
X148790998Y-77361285D01*
X148834454Y-77504546D01*
X148905026Y-77636576D01*
X148963047Y-77707274D01*
X149000000Y-77752301D01*
X149028998Y-77776099D01*
X159238100Y-87985202D01*
X159238100Y-88047339D01*
X159277874Y-88247298D01*
X159355895Y-88435656D01*
X159469163Y-88605174D01*
X159613326Y-88749337D01*
X159647441Y-88772132D01*
X159611626Y-88796063D01*
X159467463Y-88940226D01*
X159354195Y-89109744D01*
X159276174Y-89298102D01*
X159236400Y-89498061D01*
X159236400Y-89701939D01*
X159276174Y-89901898D01*
X159354195Y-90090256D01*
X159467463Y-90259774D01*
X159611626Y-90403937D01*
X159781144Y-90517205D01*
X159969502Y-90595226D01*
X160169461Y-90635000D01*
X160373339Y-90635000D01*
X160573298Y-90595226D01*
X160761656Y-90517205D01*
X160931174Y-90403937D01*
X161075337Y-90259774D01*
X161188605Y-90090256D01*
X161266626Y-89901898D01*
X161306400Y-89701939D01*
X161306400Y-89498061D01*
X161266626Y-89298102D01*
X161188605Y-89109744D01*
X161075337Y-88940226D01*
X160931174Y-88796063D01*
X160897059Y-88773268D01*
X160932874Y-88749337D01*
X161077037Y-88605174D01*
X161190305Y-88435656D01*
X161268326Y-88247298D01*
X161308100Y-88047339D01*
X161308100Y-87843461D01*
X161268326Y-87643502D01*
X161190305Y-87455144D01*
X161077037Y-87285626D01*
X160932874Y-87141463D01*
X160763356Y-87028195D01*
X160574998Y-86950174D01*
X160375039Y-86910400D01*
X160312902Y-86910400D01*
X150300000Y-76897499D01*
X150300000Y-74340611D01*
X150348226Y-74388837D01*
X150517744Y-74502105D01*
X150706102Y-74580126D01*
X150906061Y-74619900D01*
X151109939Y-74619900D01*
X151249400Y-74592160D01*
X151249401Y-77034968D01*
X151245724Y-77072300D01*
X151260398Y-77221285D01*
X151303854Y-77364546D01*
X151374426Y-77496576D01*
X151419728Y-77551776D01*
X151469400Y-77612301D01*
X151498398Y-77636099D01*
X158973305Y-85111008D01*
X158997099Y-85140001D01*
X159026092Y-85163795D01*
X159026096Y-85163799D01*
X159091160Y-85217195D01*
X159112824Y-85234974D01*
X159244853Y-85305546D01*
X159388114Y-85349003D01*
X159499767Y-85360000D01*
X159499776Y-85360000D01*
X159537099Y-85363676D01*
X159561283Y-85361294D01*
X159603926Y-85403937D01*
X159773444Y-85517205D01*
X159961802Y-85595226D01*
X160161761Y-85635000D01*
X160365639Y-85635000D01*
X160565598Y-85595226D01*
X160753956Y-85517205D01*
X160923474Y-85403937D01*
X161067637Y-85259774D01*
X161180905Y-85090256D01*
X161258926Y-84901898D01*
X161298700Y-84701939D01*
X161298700Y-84498061D01*
X161258926Y-84298102D01*
X161180905Y-84109744D01*
X161067637Y-83940226D01*
X160923474Y-83796063D01*
X160753956Y-83682795D01*
X160565598Y-83604774D01*
X160365639Y-83565000D01*
X160161761Y-83565000D01*
X159961802Y-83604774D01*
X159773444Y-83682795D01*
X159726239Y-83714336D01*
X156062164Y-80050261D01*
X158593200Y-80050261D01*
X158593200Y-80254139D01*
X158632974Y-80454098D01*
X158710995Y-80642456D01*
X158824263Y-80811974D01*
X158968426Y-80956137D01*
X159137944Y-81069405D01*
X159326302Y-81147426D01*
X159526261Y-81187200D01*
X159730139Y-81187200D01*
X159930098Y-81147426D01*
X160118456Y-81069405D01*
X160287974Y-80956137D01*
X160432137Y-80811974D01*
X160545405Y-80642456D01*
X160623426Y-80454098D01*
X160663200Y-80254139D01*
X160663200Y-80050261D01*
X160623426Y-79850302D01*
X160545405Y-79661944D01*
X160432137Y-79492426D01*
X160287974Y-79348263D01*
X160118456Y-79234995D01*
X159930098Y-79156974D01*
X159730139Y-79117200D01*
X159526261Y-79117200D01*
X159326302Y-79156974D01*
X159137944Y-79234995D01*
X158968426Y-79348263D01*
X158824263Y-79492426D01*
X158710995Y-79661944D01*
X158632974Y-79850302D01*
X158593200Y-80050261D01*
X156062164Y-80050261D01*
X154059889Y-78047987D01*
X154078798Y-78044226D01*
X154267156Y-77966205D01*
X154436674Y-77852937D01*
X154580837Y-77708774D01*
X154694105Y-77539256D01*
X154772126Y-77350898D01*
X154811900Y-77150939D01*
X154811900Y-76947061D01*
X154772126Y-76747102D01*
X154697203Y-76566223D01*
X154808798Y-76544026D01*
X154997156Y-76466005D01*
X155166674Y-76352737D01*
X155310837Y-76208574D01*
X155424105Y-76039056D01*
X155502126Y-75850698D01*
X155541900Y-75650739D01*
X155541900Y-75588601D01*
X161481003Y-69649499D01*
X161510001Y-69625701D01*
X161604974Y-69509976D01*
X161675546Y-69377947D01*
X161719003Y-69234686D01*
X161730000Y-69123033D01*
X161730000Y-69123025D01*
X161733676Y-69085700D01*
X161730000Y-69048375D01*
X161730000Y-67685400D01*
X161797339Y-67685400D01*
X161997298Y-67645626D01*
X162035400Y-67629843D01*
X162035401Y-84127888D01*
X161991463Y-84171826D01*
X161878195Y-84341344D01*
X161800174Y-84529702D01*
X161760400Y-84729661D01*
X161760400Y-84933539D01*
X161800174Y-85133498D01*
X161878195Y-85321856D01*
X161991463Y-85491374D01*
X162135626Y-85635537D01*
X162305144Y-85748805D01*
X162493502Y-85826826D01*
X162693461Y-85866600D01*
X162897339Y-85866600D01*
X163097298Y-85826826D01*
X163285656Y-85748805D01*
X163455174Y-85635537D01*
X163599337Y-85491374D01*
X163712605Y-85321856D01*
X163790626Y-85133498D01*
X163830400Y-84933539D01*
X163830400Y-84729661D01*
X163790626Y-84529702D01*
X163712605Y-84341344D01*
X163599337Y-84171826D01*
X163555400Y-84127889D01*
X163555400Y-66383122D01*
X163559076Y-66345799D01*
X163555400Y-66308476D01*
X163555400Y-66308467D01*
X163544403Y-66196814D01*
X163500946Y-66053553D01*
X163430374Y-65921524D01*
X163335401Y-65805799D01*
X163306404Y-65782002D01*
X162865400Y-65340999D01*
X162865400Y-63153055D01*
X163088509Y-63245470D01*
X163367680Y-63301000D01*
X163652320Y-63301000D01*
X163931491Y-63245470D01*
X164099400Y-63175920D01*
X164099401Y-80048767D01*
X164095724Y-80086100D01*
X164110398Y-80235085D01*
X164153854Y-80378346D01*
X164224426Y-80510376D01*
X164286265Y-80585726D01*
X164319400Y-80626101D01*
X164348398Y-80649899D01*
X168739600Y-85041102D01*
X168739600Y-85103239D01*
X168779374Y-85303198D01*
X168857395Y-85491556D01*
X168970663Y-85661074D01*
X169114826Y-85805237D01*
X169284344Y-85918505D01*
X169472702Y-85996526D01*
X169672661Y-86036300D01*
X169876539Y-86036300D01*
X170076498Y-85996526D01*
X170264856Y-85918505D01*
X170434374Y-85805237D01*
X170485659Y-85753952D01*
X170489702Y-85755626D01*
X170689661Y-85795400D01*
X170893539Y-85795400D01*
X171093498Y-85755626D01*
X171281856Y-85677605D01*
X171451374Y-85564337D01*
X171595537Y-85420174D01*
X171708805Y-85250656D01*
X171786826Y-85062298D01*
X171826600Y-84862339D01*
X171826600Y-84658461D01*
X171786826Y-84458502D01*
X171708805Y-84270144D01*
X171595537Y-84100626D01*
X171451374Y-83956463D01*
X171281856Y-83843195D01*
X171093498Y-83765174D01*
X170893539Y-83725400D01*
X170831402Y-83725400D01*
X168192500Y-81086499D01*
X168192500Y-79341861D01*
X169632300Y-79341861D01*
X169632300Y-79545739D01*
X169672074Y-79745698D01*
X169750095Y-79934056D01*
X169863363Y-80103574D01*
X170007526Y-80247737D01*
X170177044Y-80361005D01*
X170365402Y-80439026D01*
X170565361Y-80478800D01*
X170769239Y-80478800D01*
X170969198Y-80439026D01*
X171157556Y-80361005D01*
X171327074Y-80247737D01*
X171471237Y-80103574D01*
X171584505Y-79934056D01*
X171662526Y-79745698D01*
X171702300Y-79545739D01*
X171702300Y-79341861D01*
X171662526Y-79141902D01*
X171584505Y-78953544D01*
X171471237Y-78784026D01*
X171327074Y-78639863D01*
X171157556Y-78526595D01*
X170969198Y-78448574D01*
X170769239Y-78408800D01*
X170565361Y-78408800D01*
X170365402Y-78448574D01*
X170177044Y-78526595D01*
X170007526Y-78639863D01*
X169863363Y-78784026D01*
X169750095Y-78953544D01*
X169672074Y-79141902D01*
X169632300Y-79341861D01*
X168192500Y-79341861D01*
X168192500Y-65951473D01*
X168234863Y-66014874D01*
X168379026Y-66159037D01*
X168548544Y-66272305D01*
X168736902Y-66350326D01*
X168936861Y-66390100D01*
X169140739Y-66390100D01*
X169230000Y-66372345D01*
X169230001Y-73699868D01*
X169226324Y-73737200D01*
X169240998Y-73886185D01*
X169284454Y-74029446D01*
X169355026Y-74161476D01*
X169419129Y-74239585D01*
X169450000Y-74277201D01*
X169478998Y-74300999D01*
X172651794Y-77473795D01*
X172538363Y-77587226D01*
X172425095Y-77756744D01*
X172347074Y-77945102D01*
X172307300Y-78145061D01*
X172307300Y-78348939D01*
X172347074Y-78548898D01*
X172425095Y-78737256D01*
X172538363Y-78906774D01*
X172682526Y-79050937D01*
X172852044Y-79164205D01*
X173040402Y-79242226D01*
X173240361Y-79282000D01*
X173444239Y-79282000D01*
X173644198Y-79242226D01*
X173832556Y-79164205D01*
X174002074Y-79050937D01*
X174115505Y-78937506D01*
X180269600Y-85091602D01*
X180269600Y-85153739D01*
X180309374Y-85353698D01*
X180387395Y-85542056D01*
X180433251Y-85610685D01*
X180410895Y-85644144D01*
X180332874Y-85832502D01*
X180293100Y-86032461D01*
X180293100Y-86236339D01*
X180331104Y-86427400D01*
X180192261Y-86427400D01*
X179992302Y-86467174D01*
X179803944Y-86545195D01*
X179634426Y-86658463D01*
X179490263Y-86802626D01*
X179376995Y-86972144D01*
X179298974Y-87160502D01*
X179259200Y-87360461D01*
X179259200Y-87564339D01*
X179298974Y-87764298D01*
X179376995Y-87952656D01*
X179490263Y-88122174D01*
X179634426Y-88266337D01*
X179803944Y-88379605D01*
X179992302Y-88457626D01*
X180192261Y-88497400D01*
X180396139Y-88497400D01*
X180596098Y-88457626D01*
X180784456Y-88379605D01*
X180847183Y-88337692D01*
X181023502Y-88410726D01*
X181223461Y-88450500D01*
X181427339Y-88450500D01*
X181627298Y-88410726D01*
X181815656Y-88332705D01*
X181985174Y-88219437D01*
X182129337Y-88075274D01*
X182242605Y-87905756D01*
X182320626Y-87717398D01*
X182360400Y-87517439D01*
X182360400Y-87313561D01*
X182320626Y-87113602D01*
X182242605Y-86925244D01*
X182143532Y-86776970D01*
X182245305Y-86624656D01*
X182323326Y-86436298D01*
X182363100Y-86236339D01*
X182363100Y-86032461D01*
X182323326Y-85832502D01*
X182245305Y-85644144D01*
X182199449Y-85575515D01*
X182221805Y-85542056D01*
X182299826Y-85353698D01*
X182339600Y-85153739D01*
X182339600Y-84949861D01*
X182299826Y-84749902D01*
X182221805Y-84561544D01*
X182108537Y-84392026D01*
X182035261Y-84318750D01*
X182124437Y-84229574D01*
X182237705Y-84060056D01*
X182315726Y-83871698D01*
X182355500Y-83671739D01*
X182355500Y-83467861D01*
X182315726Y-83267902D01*
X182237705Y-83079544D01*
X182124437Y-82910026D01*
X182014261Y-82799850D01*
X182107737Y-82706374D01*
X182221005Y-82536856D01*
X182299026Y-82348498D01*
X182338800Y-82148539D01*
X182338800Y-81944661D01*
X182299026Y-81744702D01*
X182221005Y-81556344D01*
X182107737Y-81386826D01*
X181963574Y-81242663D01*
X181794056Y-81129395D01*
X181605698Y-81051374D01*
X181405739Y-81011600D01*
X181201861Y-81011600D01*
X181001902Y-81051374D01*
X180813544Y-81129395D01*
X180644026Y-81242663D01*
X180499863Y-81386826D01*
X180386595Y-81556344D01*
X180308574Y-81744702D01*
X180268800Y-81944661D01*
X180268800Y-82101698D01*
X179126163Y-80959061D01*
X182826500Y-80959061D01*
X182826500Y-81162939D01*
X182866274Y-81362898D01*
X182944295Y-81551256D01*
X183057563Y-81720774D01*
X183201726Y-81864937D01*
X183371244Y-81978205D01*
X183559602Y-82056226D01*
X183759561Y-82096000D01*
X183963439Y-82096000D01*
X184163398Y-82056226D01*
X184351756Y-81978205D01*
X184521274Y-81864937D01*
X184665437Y-81720774D01*
X184778705Y-81551256D01*
X184856726Y-81362898D01*
X184896500Y-81162939D01*
X184896500Y-80959061D01*
X184856726Y-80759102D01*
X184778705Y-80570744D01*
X184665437Y-80401226D01*
X184521274Y-80257063D01*
X184351756Y-80143795D01*
X184163398Y-80065774D01*
X183963439Y-80026000D01*
X183759561Y-80026000D01*
X183559602Y-80065774D01*
X183371244Y-80143795D01*
X183201726Y-80257063D01*
X183057563Y-80401226D01*
X182944295Y-80570744D01*
X182866274Y-80759102D01*
X182826500Y-80959061D01*
X179126163Y-80959061D01*
X174503306Y-76336205D01*
X174550837Y-76288674D01*
X174664105Y-76119156D01*
X174742126Y-75930798D01*
X174781900Y-75730839D01*
X174781900Y-75526961D01*
X174742126Y-75327002D01*
X174664105Y-75138644D01*
X174550837Y-74969126D01*
X174506900Y-74925189D01*
X174506900Y-74880111D01*
X174521326Y-74894537D01*
X174690844Y-75007805D01*
X174879202Y-75085826D01*
X175079161Y-75125600D01*
X175283039Y-75125600D01*
X175482998Y-75085826D01*
X175662324Y-75011546D01*
X175692644Y-75031805D01*
X175881002Y-75109826D01*
X176080961Y-75149600D01*
X176284839Y-75149600D01*
X176484798Y-75109826D01*
X176673156Y-75031805D01*
X176842674Y-74918537D01*
X176986837Y-74774374D01*
X177100105Y-74604856D01*
X177178126Y-74416498D01*
X177217900Y-74216539D01*
X177217900Y-74154401D01*
X180397203Y-70975099D01*
X180426201Y-70951301D01*
X180463562Y-70905777D01*
X180521174Y-70835577D01*
X180591746Y-70703547D01*
X180613908Y-70630486D01*
X180635203Y-70560286D01*
X180646200Y-70448633D01*
X180646200Y-70448624D01*
X180649876Y-70411301D01*
X180646200Y-70373978D01*
X180646200Y-57949522D01*
X180649876Y-57912199D01*
X180646200Y-57874876D01*
X180646200Y-57874867D01*
X180635203Y-57763214D01*
X180591746Y-57619953D01*
X180521174Y-57487924D01*
X180470846Y-57426599D01*
X180449999Y-57401196D01*
X180449995Y-57401192D01*
X180426201Y-57372199D01*
X180397209Y-57348406D01*
X180157193Y-57108391D01*
X180195000Y-56918320D01*
X180195000Y-56633680D01*
X180139470Y-56354509D01*
X180030543Y-56091536D01*
X179872405Y-55854866D01*
X179671134Y-55653595D01*
X179450243Y-55506000D01*
X179671134Y-55358405D01*
X179872405Y-55157134D01*
X180030543Y-54920464D01*
X180139470Y-54657491D01*
X180195000Y-54378320D01*
X180195000Y-54093680D01*
X180139470Y-53814509D01*
X180030543Y-53551536D01*
X179872405Y-53314866D01*
X179671134Y-53113595D01*
X179434464Y-52955457D01*
X179171491Y-52846530D01*
X178892320Y-52791000D01*
X178607680Y-52791000D01*
X178328509Y-52846530D01*
X178065536Y-52955457D01*
X177828866Y-53113595D01*
X177627595Y-53314866D01*
X177480000Y-53535757D01*
X177332405Y-53314866D01*
X177131134Y-53113595D01*
X176894464Y-52955457D01*
X176631491Y-52846530D01*
X176352320Y-52791000D01*
X176067680Y-52791000D01*
X175788509Y-52846530D01*
X175525536Y-52955457D01*
X175288866Y-53113595D01*
X175087595Y-53314866D01*
X174940000Y-53535757D01*
X174792405Y-53314866D01*
X174591134Y-53113595D01*
X174354464Y-52955457D01*
X174091491Y-52846530D01*
X173812320Y-52791000D01*
X173527680Y-52791000D01*
X173248509Y-52846530D01*
X172985536Y-52955457D01*
X172748866Y-53113595D01*
X172547595Y-53314866D01*
X172400000Y-53535757D01*
X172252405Y-53314866D01*
X172051134Y-53113595D01*
X171814464Y-52955457D01*
X171551491Y-52846530D01*
X171272320Y-52791000D01*
X170987680Y-52791000D01*
X170708509Y-52846530D01*
X170445536Y-52955457D01*
X170208866Y-53113595D01*
X170007595Y-53314866D01*
X169860000Y-53535757D01*
X169712405Y-53314866D01*
X169511134Y-53113595D01*
X169274464Y-52955457D01*
X169011491Y-52846530D01*
X168732320Y-52791000D01*
X168447680Y-52791000D01*
X168168509Y-52846530D01*
X167905536Y-52955457D01*
X167668866Y-53113595D01*
X167467595Y-53314866D01*
X167320000Y-53535757D01*
X167172405Y-53314866D01*
X166971134Y-53113595D01*
X166734464Y-52955457D01*
X166471491Y-52846530D01*
X166192320Y-52791000D01*
X165907680Y-52791000D01*
X165628509Y-52846530D01*
X165365536Y-52955457D01*
X165128866Y-53113595D01*
X164927595Y-53314866D01*
X164780000Y-53535757D01*
X164632405Y-53314866D01*
X164431134Y-53113595D01*
X164194464Y-52955457D01*
X163931491Y-52846530D01*
X163652320Y-52791000D01*
X163367680Y-52791000D01*
X163088509Y-52846530D01*
X162825536Y-52955457D01*
X162588866Y-53113595D01*
X162387595Y-53314866D01*
X162240000Y-53535757D01*
X162092405Y-53314866D01*
X161891134Y-53113595D01*
X161654464Y-52955457D01*
X161391491Y-52846530D01*
X161112320Y-52791000D01*
X160827680Y-52791000D01*
X160548509Y-52846530D01*
X160285536Y-52955457D01*
X160048866Y-53113595D01*
X159847595Y-53314866D01*
X159700000Y-53535757D01*
X159552405Y-53314866D01*
X159351134Y-53113595D01*
X159114464Y-52955457D01*
X158851491Y-52846530D01*
X158572320Y-52791000D01*
X158287680Y-52791000D01*
X158008509Y-52846530D01*
X157745536Y-52955457D01*
X157508866Y-53113595D01*
X157307595Y-53314866D01*
X157160000Y-53535757D01*
X157012405Y-53314866D01*
X156811134Y-53113595D01*
X156574464Y-52955457D01*
X156311491Y-52846530D01*
X156032320Y-52791000D01*
X155747680Y-52791000D01*
X155468509Y-52846530D01*
X155205536Y-52955457D01*
X154968866Y-53113595D01*
X154767595Y-53314866D01*
X154620000Y-53535757D01*
X154472405Y-53314866D01*
X154271134Y-53113595D01*
X154034464Y-52955457D01*
X153771491Y-52846530D01*
X153492320Y-52791000D01*
X153207680Y-52791000D01*
X152928509Y-52846530D01*
X152665536Y-52955457D01*
X152428866Y-53113595D01*
X152227595Y-53314866D01*
X152080000Y-53535757D01*
X151932405Y-53314866D01*
X151731134Y-53113595D01*
X151494464Y-52955457D01*
X151231491Y-52846530D01*
X150952320Y-52791000D01*
X150667680Y-52791000D01*
X150388509Y-52846530D01*
X150125536Y-52955457D01*
X149888866Y-53113595D01*
X149687595Y-53314866D01*
X149540000Y-53535757D01*
X149392405Y-53314866D01*
X149191134Y-53113595D01*
X148954464Y-52955457D01*
X148691491Y-52846530D01*
X148412320Y-52791000D01*
X148127680Y-52791000D01*
X147848509Y-52846530D01*
X147585536Y-52955457D01*
X147348866Y-53113595D01*
X147147595Y-53314866D01*
X147000000Y-53535757D01*
X146852405Y-53314866D01*
X146651134Y-53113595D01*
X146414464Y-52955457D01*
X146151491Y-52846530D01*
X145872320Y-52791000D01*
X145587680Y-52791000D01*
X145308509Y-52846530D01*
X145045536Y-52955457D01*
X144808866Y-53113595D01*
X144607595Y-53314866D01*
X144460000Y-53535757D01*
X144312405Y-53314866D01*
X144111134Y-53113595D01*
X143874464Y-52955457D01*
X143611491Y-52846530D01*
X143332320Y-52791000D01*
X143047680Y-52791000D01*
X142768509Y-52846530D01*
X142505536Y-52955457D01*
X142268866Y-53113595D01*
X142067595Y-53314866D01*
X141920000Y-53535757D01*
X141772405Y-53314866D01*
X141571134Y-53113595D01*
X141334464Y-52955457D01*
X141071491Y-52846530D01*
X140792320Y-52791000D01*
X140507680Y-52791000D01*
X140228509Y-52846530D01*
X139965536Y-52955457D01*
X139728866Y-53113595D01*
X139527595Y-53314866D01*
X139380000Y-53535757D01*
X139232405Y-53314866D01*
X139031134Y-53113595D01*
X138794464Y-52955457D01*
X138531491Y-52846530D01*
X138252320Y-52791000D01*
X137967680Y-52791000D01*
X137688509Y-52846530D01*
X137425536Y-52955457D01*
X137188866Y-53113595D01*
X136987595Y-53314866D01*
X136840000Y-53535757D01*
X136692405Y-53314866D01*
X136491134Y-53113595D01*
X136254464Y-52955457D01*
X135991491Y-52846530D01*
X135712320Y-52791000D01*
X135427680Y-52791000D01*
X135148509Y-52846530D01*
X134885536Y-52955457D01*
X134648866Y-53113595D01*
X134447595Y-53314866D01*
X134300000Y-53535757D01*
X134152405Y-53314866D01*
X133951134Y-53113595D01*
X133714464Y-52955457D01*
X133451491Y-52846530D01*
X133172320Y-52791000D01*
X132887680Y-52791000D01*
X132608509Y-52846530D01*
X132345536Y-52955457D01*
X132108866Y-53113595D01*
X131907595Y-53314866D01*
X131760000Y-53535757D01*
X131612405Y-53314866D01*
X131411134Y-53113595D01*
X131174464Y-52955457D01*
X130911491Y-52846530D01*
X130632320Y-52791000D01*
X130347680Y-52791000D01*
X130068509Y-52846530D01*
X129805536Y-52955457D01*
X129568866Y-53113595D01*
X129367595Y-53314866D01*
X129220000Y-53535757D01*
X129072405Y-53314866D01*
X128871134Y-53113595D01*
X128634464Y-52955457D01*
X128371491Y-52846530D01*
X128092320Y-52791000D01*
X127807680Y-52791000D01*
X127528509Y-52846530D01*
X127265536Y-52955457D01*
X127028866Y-53113595D01*
X126827595Y-53314866D01*
X126680000Y-53535757D01*
X126532405Y-53314866D01*
X126331134Y-53113595D01*
X126094464Y-52955457D01*
X125831491Y-52846530D01*
X125552320Y-52791000D01*
X125267680Y-52791000D01*
X124988509Y-52846530D01*
X124725536Y-52955457D01*
X124488866Y-53113595D01*
X124287595Y-53314866D01*
X124140000Y-53535757D01*
X123992405Y-53314866D01*
X123791134Y-53113595D01*
X123554464Y-52955457D01*
X123291491Y-52846530D01*
X123012320Y-52791000D01*
X122727680Y-52791000D01*
X122448509Y-52846530D01*
X122185536Y-52955457D01*
X121948866Y-53113595D01*
X121747595Y-53314866D01*
X121600000Y-53535757D01*
X121452405Y-53314866D01*
X121251134Y-53113595D01*
X121014464Y-52955457D01*
X120751491Y-52846530D01*
X120472320Y-52791000D01*
X120187680Y-52791000D01*
X119908509Y-52846530D01*
X119645536Y-52955457D01*
X119408866Y-53113595D01*
X119207595Y-53314866D01*
X119060000Y-53535757D01*
X118912405Y-53314866D01*
X118711134Y-53113595D01*
X118474464Y-52955457D01*
X118211491Y-52846530D01*
X117932320Y-52791000D01*
X117647680Y-52791000D01*
X117368509Y-52846530D01*
X117105536Y-52955457D01*
X116868866Y-53113595D01*
X116667595Y-53314866D01*
X116520000Y-53535757D01*
X116372405Y-53314866D01*
X116171134Y-53113595D01*
X115934464Y-52955457D01*
X115671491Y-52846530D01*
X115392320Y-52791000D01*
X115107680Y-52791000D01*
X114828509Y-52846530D01*
X114565536Y-52955457D01*
X114328866Y-53113595D01*
X114127595Y-53314866D01*
X113969457Y-53551536D01*
X113860530Y-53814509D01*
X113805000Y-54093680D01*
X113555000Y-54093680D01*
X113555000Y-53902607D01*
X113424917Y-53248632D01*
X113169748Y-52632601D01*
X112799302Y-52078188D01*
X112567114Y-51846000D01*
X181422886Y-51846000D01*
X181190698Y-52078188D01*
G36*
X127528509Y-63245470D02*
G01*
X127807680Y-63301000D01*
X128092320Y-63301000D01*
X128371491Y-63245470D01*
X128380601Y-63241697D01*
X128380600Y-80751398D01*
X127440000Y-81691998D01*
X127440000Y-63208808D01*
X127528509Y-63245470D01*
G37*
X127528509Y-63245470D02*
X127807680Y-63301000D01*
X128092320Y-63301000D01*
X128371491Y-63245470D01*
X128380601Y-63241697D01*
X128380600Y-80751398D01*
X127440000Y-81691998D01*
X127440000Y-63208808D01*
X127528509Y-63245470D01*
G36*
X166672500Y-80824399D02*
G01*
X165619400Y-79771299D01*
X165619400Y-63241697D01*
X165628509Y-63245470D01*
X165907680Y-63301000D01*
X166192320Y-63301000D01*
X166471491Y-63245470D01*
X166672501Y-63162209D01*
X166672500Y-80824399D01*
G37*
X166672500Y-80824399D02*
X165619400Y-79771299D01*
X165619400Y-63241697D01*
X165628509Y-63245470D01*
X165907680Y-63301000D01*
X166192320Y-63301000D01*
X166471491Y-63245470D01*
X166672501Y-63162209D01*
X166672500Y-80824399D01*
G36*
X117647680Y-63301000D02*
G01*
X117932320Y-63301000D01*
X118181300Y-63251475D01*
X118181301Y-75165567D01*
X118177624Y-75202900D01*
X118181301Y-75240233D01*
X118192298Y-75351886D01*
X118204662Y-75392646D01*
X118235754Y-75495146D01*
X118306326Y-75627176D01*
X118364274Y-75697785D01*
X118401300Y-75742901D01*
X118430298Y-75766699D01*
X119644100Y-76980502D01*
X119644100Y-77042639D01*
X119683874Y-77242598D01*
X119761895Y-77430956D01*
X119783414Y-77463162D01*
X119667126Y-77540863D01*
X119593896Y-77614093D01*
X117386400Y-75406599D01*
X117386400Y-63249029D01*
X117647680Y-63301000D01*
G37*
X117647680Y-63301000D02*
X117932320Y-63301000D01*
X118181300Y-63251475D01*
X118181301Y-75165567D01*
X118177624Y-75202900D01*
X118181301Y-75240233D01*
X118192298Y-75351886D01*
X118204662Y-75392646D01*
X118235754Y-75495146D01*
X118306326Y-75627176D01*
X118364274Y-75697785D01*
X118401300Y-75742901D01*
X118430298Y-75766699D01*
X119644100Y-76980502D01*
X119644100Y-77042639D01*
X119683874Y-77242598D01*
X119761895Y-77430956D01*
X119783414Y-77463162D01*
X119667126Y-77540863D01*
X119593896Y-77614093D01*
X117386400Y-75406599D01*
X117386400Y-63249029D01*
X117647680Y-63301000D01*
G36*
X120328702Y-75514726D02*
G01*
X120528661Y-75554500D01*
X120732539Y-75554500D01*
X120784201Y-75544224D01*
X120784201Y-75906329D01*
X120781039Y-75905700D01*
X120718902Y-75905700D01*
X120327380Y-75514178D01*
X120328702Y-75514726D01*
G37*
X120328702Y-75514726D02*
X120528661Y-75554500D01*
X120732539Y-75554500D01*
X120784201Y-75544224D01*
X120784201Y-75906329D01*
X120781039Y-75905700D01*
X120718902Y-75905700D01*
X120327380Y-75514178D01*
X120328702Y-75514726D01*
G36*
X173248509Y-63245470D02*
G01*
X173527680Y-63301000D01*
X173812320Y-63301000D01*
X174091491Y-63245470D01*
X174180000Y-63208808D01*
X174180001Y-72991197D01*
X173235903Y-73935296D01*
X173206899Y-73959099D01*
X173162942Y-74012661D01*
X173111926Y-74074824D01*
X173078786Y-74136824D01*
X173041354Y-74206854D01*
X172997897Y-74350115D01*
X172986900Y-74461768D01*
X172986900Y-74461778D01*
X172983224Y-74499100D01*
X172986900Y-74536423D01*
X172986900Y-74819799D01*
X171200300Y-73033199D01*
X171200300Y-72280293D01*
X171370761Y-72314200D01*
X171574639Y-72314200D01*
X171774598Y-72274426D01*
X171962956Y-72196405D01*
X172132474Y-72083137D01*
X172276637Y-71938974D01*
X172389905Y-71769456D01*
X172467926Y-71581098D01*
X172507700Y-71381139D01*
X172507700Y-71319002D01*
X172781402Y-71045299D01*
X172810401Y-71021501D01*
X172905374Y-70905776D01*
X172975946Y-70773747D01*
X173019403Y-70630486D01*
X173030400Y-70518833D01*
X173030400Y-70518824D01*
X173034076Y-70481501D01*
X173030400Y-70444178D01*
X173030400Y-63155126D01*
X173248509Y-63245470D01*
G37*
X173248509Y-63245470D02*
X173527680Y-63301000D01*
X173812320Y-63301000D01*
X174091491Y-63245470D01*
X174180000Y-63208808D01*
X174180001Y-72991197D01*
X173235903Y-73935296D01*
X173206899Y-73959099D01*
X173162942Y-74012661D01*
X173111926Y-74074824D01*
X173078786Y-74136824D01*
X173041354Y-74206854D01*
X172997897Y-74350115D01*
X172986900Y-74461768D01*
X172986900Y-74461778D01*
X172983224Y-74499100D01*
X172986900Y-74536423D01*
X172986900Y-74819799D01*
X171200300Y-73033199D01*
X171200300Y-72280293D01*
X171370761Y-72314200D01*
X171574639Y-72314200D01*
X171774598Y-72274426D01*
X171962956Y-72196405D01*
X172132474Y-72083137D01*
X172276637Y-71938974D01*
X172389905Y-71769456D01*
X172467926Y-71581098D01*
X172507700Y-71381139D01*
X172507700Y-71319002D01*
X172781402Y-71045299D01*
X172810401Y-71021501D01*
X172905374Y-70905776D01*
X172975946Y-70773747D01*
X173019403Y-70630486D01*
X173030400Y-70518833D01*
X173030400Y-70518824D01*
X173034076Y-70481501D01*
X173030400Y-70444178D01*
X173030400Y-63155126D01*
X173248509Y-63245470D01*
G36*
X158261998Y-63295891D02*
G01*
X158199163Y-63358726D01*
X158085895Y-63528244D01*
X158007874Y-63716602D01*
X157968100Y-63916561D01*
X157968100Y-64120439D01*
X158007874Y-64320398D01*
X158085895Y-64508756D01*
X158199163Y-64678274D01*
X158343326Y-64822437D01*
X158512844Y-64935705D01*
X158701202Y-65013726D01*
X158778294Y-65029060D01*
X158845395Y-65191056D01*
X158958663Y-65360574D01*
X159102826Y-65504737D01*
X159272344Y-65618005D01*
X159460702Y-65696026D01*
X159660661Y-65735800D01*
X159864539Y-65735800D01*
X160064498Y-65696026D01*
X160210001Y-65635756D01*
X160210001Y-68770897D01*
X154536900Y-74443999D01*
X154536900Y-68000161D01*
X155731800Y-68000161D01*
X155731800Y-68204039D01*
X155771574Y-68403998D01*
X155849595Y-68592356D01*
X155962863Y-68761874D01*
X156107026Y-68906037D01*
X156276544Y-69019305D01*
X156464902Y-69097326D01*
X156664861Y-69137100D01*
X156868739Y-69137100D01*
X157068698Y-69097326D01*
X157257056Y-69019305D01*
X157426574Y-68906037D01*
X157570737Y-68761874D01*
X157684005Y-68592356D01*
X157762026Y-68403998D01*
X157786076Y-68283091D01*
X157859298Y-68268526D01*
X158047656Y-68190505D01*
X158217174Y-68077237D01*
X158361337Y-67933074D01*
X158474605Y-67763556D01*
X158552626Y-67575198D01*
X158592400Y-67375239D01*
X158592400Y-67171361D01*
X158552626Y-66971402D01*
X158474605Y-66783044D01*
X158361337Y-66613526D01*
X158217174Y-66469363D01*
X158047656Y-66356095D01*
X157859298Y-66278074D01*
X157659339Y-66238300D01*
X157455461Y-66238300D01*
X157255502Y-66278074D01*
X157067144Y-66356095D01*
X156897626Y-66469363D01*
X156753463Y-66613526D01*
X156640195Y-66783044D01*
X156562174Y-66971402D01*
X156538124Y-67092309D01*
X156464902Y-67106874D01*
X156276544Y-67184895D01*
X156107026Y-67298163D01*
X155962863Y-67442326D01*
X155849595Y-67611844D01*
X155771574Y-67800202D01*
X155731800Y-68000161D01*
X154536900Y-68000161D01*
X154536900Y-66823901D01*
X158097609Y-63263193D01*
X158261998Y-63295891D01*
G37*
X158261998Y-63295891D02*
X158199163Y-63358726D01*
X158085895Y-63528244D01*
X158007874Y-63716602D01*
X157968100Y-63916561D01*
X157968100Y-64120439D01*
X158007874Y-64320398D01*
X158085895Y-64508756D01*
X158199163Y-64678274D01*
X158343326Y-64822437D01*
X158512844Y-64935705D01*
X158701202Y-65013726D01*
X158778294Y-65029060D01*
X158845395Y-65191056D01*
X158958663Y-65360574D01*
X159102826Y-65504737D01*
X159272344Y-65618005D01*
X159460702Y-65696026D01*
X159660661Y-65735800D01*
X159864539Y-65735800D01*
X160064498Y-65696026D01*
X160210001Y-65635756D01*
X160210001Y-68770897D01*
X154536900Y-74443999D01*
X154536900Y-68000161D01*
X155731800Y-68000161D01*
X155731800Y-68204039D01*
X155771574Y-68403998D01*
X155849595Y-68592356D01*
X155962863Y-68761874D01*
X156107026Y-68906037D01*
X156276544Y-69019305D01*
X156464902Y-69097326D01*
X156664861Y-69137100D01*
X156868739Y-69137100D01*
X157068698Y-69097326D01*
X157257056Y-69019305D01*
X157426574Y-68906037D01*
X157570737Y-68761874D01*
X157684005Y-68592356D01*
X157762026Y-68403998D01*
X157786076Y-68283091D01*
X157859298Y-68268526D01*
X158047656Y-68190505D01*
X158217174Y-68077237D01*
X158361337Y-67933074D01*
X158474605Y-67763556D01*
X158552626Y-67575198D01*
X158592400Y-67375239D01*
X158592400Y-67171361D01*
X158552626Y-66971402D01*
X158474605Y-66783044D01*
X158361337Y-66613526D01*
X158217174Y-66469363D01*
X158047656Y-66356095D01*
X157859298Y-66278074D01*
X157659339Y-66238300D01*
X157455461Y-66238300D01*
X157255502Y-66278074D01*
X157067144Y-66356095D01*
X156897626Y-66469363D01*
X156753463Y-66613526D01*
X156640195Y-66783044D01*
X156562174Y-66971402D01*
X156538124Y-67092309D01*
X156464902Y-67106874D01*
X156276544Y-67184895D01*
X156107026Y-67298163D01*
X155962863Y-67442326D01*
X155849595Y-67611844D01*
X155771574Y-67800202D01*
X155731800Y-68000161D01*
X154536900Y-68000161D01*
X154536900Y-66823901D01*
X158097609Y-63263193D01*
X158261998Y-63295891D01*
G36*
X119908509Y-63245470D02*
G01*
X120187680Y-63301000D01*
X120472320Y-63301000D01*
X120751491Y-63245470D01*
X120784200Y-63231921D01*
X120784201Y-73494776D01*
X120732539Y-73484500D01*
X120528661Y-73484500D01*
X120328702Y-73524274D01*
X120140344Y-73602295D01*
X119970826Y-73715563D01*
X119826663Y-73859726D01*
X119713395Y-74029244D01*
X119701300Y-74058444D01*
X119701300Y-63159641D01*
X119908509Y-63245470D01*
G37*
X119908509Y-63245470D02*
X120187680Y-63301000D01*
X120472320Y-63301000D01*
X120751491Y-63245470D01*
X120784200Y-63231921D01*
X120784201Y-73494776D01*
X120732539Y-73484500D01*
X120528661Y-73484500D01*
X120328702Y-73524274D01*
X120140344Y-73602295D01*
X119970826Y-73715563D01*
X119826663Y-73859726D01*
X119713395Y-74029244D01*
X119701300Y-74058444D01*
X119701300Y-63159641D01*
X119908509Y-63245470D01*
G36*
X141160001Y-66735998D02*
G01*
X140949403Y-66946596D01*
X140920399Y-66970399D01*
X140895533Y-67000699D01*
X140825426Y-67086124D01*
X140772093Y-67185902D01*
X140754854Y-67218154D01*
X140711397Y-67361415D01*
X140700400Y-67473068D01*
X140700400Y-67473078D01*
X140696724Y-67510400D01*
X140700400Y-67547723D01*
X140700401Y-73114399D01*
X140140000Y-72553999D01*
X140140000Y-63208808D01*
X140228509Y-63245470D01*
X140507680Y-63301000D01*
X140792320Y-63301000D01*
X141071491Y-63245470D01*
X141160001Y-63208808D01*
X141160001Y-66735998D01*
G37*
X141160001Y-66735998D02*
X140949403Y-66946596D01*
X140920399Y-66970399D01*
X140895533Y-67000699D01*
X140825426Y-67086124D01*
X140772093Y-67185902D01*
X140754854Y-67218154D01*
X140711397Y-67361415D01*
X140700400Y-67473068D01*
X140700400Y-67473078D01*
X140696724Y-67510400D01*
X140700400Y-67547723D01*
X140700401Y-73114399D01*
X140140000Y-72553999D01*
X140140000Y-63208808D01*
X140228509Y-63245470D01*
X140507680Y-63301000D01*
X140792320Y-63301000D01*
X141071491Y-63245470D01*
X141160001Y-63208808D01*
X141160001Y-66735998D01*
G36*
X151320001Y-68127998D02*
G01*
X151202603Y-68245396D01*
X151173599Y-68269199D01*
X151119536Y-68335076D01*
X151078626Y-68384924D01*
X151021780Y-68491274D01*
X151008054Y-68516954D01*
X150964597Y-68660215D01*
X150953600Y-68771868D01*
X150953600Y-68771878D01*
X150949924Y-68809200D01*
X150953600Y-68846523D01*
X150953601Y-70780268D01*
X150949924Y-70817600D01*
X150953601Y-70854933D01*
X150964598Y-70966586D01*
X150972254Y-70991826D01*
X151008054Y-71109846D01*
X151078626Y-71241876D01*
X151149801Y-71328602D01*
X151173600Y-71357601D01*
X151202597Y-71381398D01*
X151537298Y-71716100D01*
X151493561Y-71716100D01*
X151293602Y-71755874D01*
X151105244Y-71833895D01*
X150935726Y-71947163D01*
X150791563Y-72091326D01*
X150678295Y-72260844D01*
X150600274Y-72449202D01*
X150560500Y-72649161D01*
X150560500Y-72649985D01*
X150517744Y-72667695D01*
X150348226Y-72780963D01*
X150300000Y-72829189D01*
X150300000Y-63208808D01*
X150388509Y-63245470D01*
X150667680Y-63301000D01*
X150952320Y-63301000D01*
X151231491Y-63245470D01*
X151320000Y-63208808D01*
X151320001Y-68127998D01*
G37*
X151320001Y-68127998D02*
X151202603Y-68245396D01*
X151173599Y-68269199D01*
X151119536Y-68335076D01*
X151078626Y-68384924D01*
X151021780Y-68491274D01*
X151008054Y-68516954D01*
X150964597Y-68660215D01*
X150953600Y-68771868D01*
X150953600Y-68771878D01*
X150949924Y-68809200D01*
X150953600Y-68846523D01*
X150953601Y-70780268D01*
X150949924Y-70817600D01*
X150953601Y-70854933D01*
X150964598Y-70966586D01*
X150972254Y-70991826D01*
X151008054Y-71109846D01*
X151078626Y-71241876D01*
X151149801Y-71328602D01*
X151173600Y-71357601D01*
X151202597Y-71381398D01*
X151537298Y-71716100D01*
X151493561Y-71716100D01*
X151293602Y-71755874D01*
X151105244Y-71833895D01*
X150935726Y-71947163D01*
X150791563Y-72091326D01*
X150678295Y-72260844D01*
X150600274Y-72449202D01*
X150560500Y-72649161D01*
X150560500Y-72649985D01*
X150517744Y-72667695D01*
X150348226Y-72780963D01*
X150300000Y-72829189D01*
X150300000Y-63208808D01*
X150388509Y-63245470D01*
X150667680Y-63301000D01*
X150952320Y-63301000D01*
X151231491Y-63245470D01*
X151320000Y-63208808D01*
X151320001Y-68127998D01*
G36*
X176720000Y-71476898D02*
G01*
X175700000Y-72496899D01*
X175700000Y-63208808D01*
X175788509Y-63245470D01*
X176067680Y-63301000D01*
X176352320Y-63301000D01*
X176631491Y-63245470D01*
X176720001Y-63208808D01*
X176720000Y-71476898D01*
G37*
X176720000Y-71476898D02*
X175700000Y-72496899D01*
X175700000Y-63208808D01*
X175788509Y-63245470D01*
X176067680Y-63301000D01*
X176352320Y-63301000D01*
X176631491Y-63245470D01*
X176720001Y-63208808D01*
X176720000Y-71476898D01*
G36*
X138620001Y-72252599D02*
G01*
X137679400Y-71311999D01*
X137679400Y-63241697D01*
X137688509Y-63245470D01*
X137967680Y-63301000D01*
X138252320Y-63301000D01*
X138531491Y-63245470D01*
X138620000Y-63208808D01*
X138620001Y-72252599D01*
G37*
X138620001Y-72252599D02*
X137679400Y-71311999D01*
X137679400Y-63241697D01*
X137688509Y-63245470D01*
X137967680Y-63301000D01*
X138252320Y-63301000D01*
X138531491Y-63245470D01*
X138620000Y-63208808D01*
X138620001Y-72252599D01*
G36*
X178328509Y-63245470D02*
G01*
X178607680Y-63301000D01*
X178892320Y-63301000D01*
X179126200Y-63254479D01*
X179126201Y-70096497D01*
X178240000Y-70982698D01*
X178240000Y-63208808D01*
X178328509Y-63245470D01*
G37*
X178328509Y-63245470D02*
X178607680Y-63301000D01*
X178892320Y-63301000D01*
X179126200Y-63254479D01*
X179126201Y-70096497D01*
X178240000Y-70982698D01*
X178240000Y-63208808D01*
X178328509Y-63245470D01*
G36*
X136159401Y-70821999D02*
G01*
X135139400Y-69801999D01*
X135139400Y-63241697D01*
X135148509Y-63245470D01*
X135427680Y-63301000D01*
X135712320Y-63301000D01*
X135991491Y-63245470D01*
X136159400Y-63175920D01*
X136159401Y-70821999D01*
G37*
X136159401Y-70821999D02*
X135139400Y-69801999D01*
X135139400Y-63241697D01*
X135148509Y-63245470D01*
X135427680Y-63301000D01*
X135712320Y-63301000D01*
X135991491Y-63245470D01*
X136159400Y-63175920D01*
X136159401Y-70821999D01*
G36*
X171510401Y-70166697D02*
G01*
X171432898Y-70244200D01*
X171370761Y-70244200D01*
X171200300Y-70278107D01*
X171200300Y-64479622D01*
X171203976Y-64442299D01*
X171200300Y-64404976D01*
X171200300Y-64404967D01*
X171189303Y-64293314D01*
X171145846Y-64150053D01*
X171075274Y-64018024D01*
X170980301Y-63902299D01*
X170951298Y-63878497D01*
X170750000Y-63677199D01*
X170750000Y-63253723D01*
X170987680Y-63301000D01*
X171272320Y-63301000D01*
X171510401Y-63253643D01*
X171510401Y-70166697D01*
G37*
X171510401Y-70166697D02*
X171432898Y-70244200D01*
X171370761Y-70244200D01*
X171200300Y-70278107D01*
X171200300Y-64479622D01*
X171203976Y-64442299D01*
X171200300Y-64404976D01*
X171200300Y-64404967D01*
X171189303Y-64293314D01*
X171145846Y-64150053D01*
X171075274Y-64018024D01*
X170980301Y-63902299D01*
X170951298Y-63878497D01*
X170750000Y-63677199D01*
X170750000Y-63253723D01*
X170987680Y-63301000D01*
X171272320Y-63301000D01*
X171510401Y-63253643D01*
X171510401Y-70166697D01*
G36*
X133619400Y-68990399D02*
G01*
X132599400Y-67970399D01*
X132599400Y-63241697D01*
X132608509Y-63245470D01*
X132887680Y-63301000D01*
X133172320Y-63301000D01*
X133451491Y-63245470D01*
X133619401Y-63175920D01*
X133619400Y-68990399D01*
G37*
X133619400Y-68990399D02*
X132599400Y-67970399D01*
X132599400Y-63241697D01*
X132608509Y-63245470D01*
X132887680Y-63301000D01*
X133172320Y-63301000D01*
X133451491Y-63245470D01*
X133619401Y-63175920D01*
X133619400Y-68990399D01*
G36*
X123447301Y-65576700D02*
G01*
X123353361Y-65576700D01*
X123153402Y-65616474D01*
X122965044Y-65694495D01*
X122795526Y-65807763D01*
X122651363Y-65951926D01*
X122538095Y-66121444D01*
X122460074Y-66309802D01*
X122420300Y-66509761D01*
X122420300Y-66713639D01*
X122460074Y-66913598D01*
X122538095Y-67101956D01*
X122569313Y-67148676D01*
X122546263Y-67171726D01*
X122441429Y-67328622D01*
X122371439Y-67314700D01*
X122304200Y-67314700D01*
X122304200Y-63185695D01*
X122448509Y-63245470D01*
X122727680Y-63301000D01*
X123012320Y-63301000D01*
X123291491Y-63245470D01*
X123447301Y-63180931D01*
X123447301Y-65576700D01*
G37*
X123447301Y-65576700D02*
X123353361Y-65576700D01*
X123153402Y-65616474D01*
X122965044Y-65694495D01*
X122795526Y-65807763D01*
X122651363Y-65951926D01*
X122538095Y-66121444D01*
X122460074Y-66309802D01*
X122420300Y-66509761D01*
X122420300Y-66713639D01*
X122460074Y-66913598D01*
X122538095Y-67101956D01*
X122569313Y-67148676D01*
X122546263Y-67171726D01*
X122441429Y-67328622D01*
X122371439Y-67314700D01*
X122304200Y-67314700D01*
X122304200Y-63185695D01*
X122448509Y-63245470D01*
X122727680Y-63301000D01*
X123012320Y-63301000D01*
X123291491Y-63245470D01*
X123447301Y-63180931D01*
X123447301Y-65576700D01*
G36*
X142768509Y-63245470D02*
G01*
X143047680Y-63301000D01*
X143332320Y-63301000D01*
X143611491Y-63245470D01*
X143620601Y-63241697D01*
X143620601Y-65406397D01*
X142680000Y-66346999D01*
X142680000Y-63208808D01*
X142768509Y-63245470D01*
G37*
X142768509Y-63245470D02*
X143047680Y-63301000D01*
X143332320Y-63301000D01*
X143611491Y-63245470D01*
X143620601Y-63241697D01*
X143620601Y-65406397D01*
X142680000Y-66346999D01*
X142680000Y-63208808D01*
X142768509Y-63245470D01*
G36*
X152928509Y-63245470D02*
G01*
X153207680Y-63301000D01*
X153492320Y-63301000D01*
X153771491Y-63245470D01*
X153780600Y-63241697D01*
X153780600Y-63878598D01*
X152840000Y-64819199D01*
X152840000Y-63208808D01*
X152928509Y-63245470D01*
G37*
X152928509Y-63245470D02*
X153207680Y-63301000D01*
X153492320Y-63301000D01*
X153771491Y-63245470D01*
X153780600Y-63241697D01*
X153780600Y-63878598D01*
X152840000Y-64819199D01*
X152840000Y-63208808D01*
X152928509Y-63245470D01*
G36*
X168592985Y-64419487D02*
G01*
X168548544Y-64437895D01*
X168379026Y-64551163D01*
X168234863Y-64695326D01*
X168192500Y-64758727D01*
X168192500Y-64019001D01*
X168592985Y-64419487D01*
G37*
X168592985Y-64419487D02*
X168548544Y-64437895D01*
X168379026Y-64551163D01*
X168234863Y-64695326D01*
X168192500Y-64758727D01*
X168192500Y-64019001D01*
X168592985Y-64419487D01*
G36*
X159847595Y-62777134D02*
G01*
X160048866Y-62978405D01*
X160210000Y-63086072D01*
X160210000Y-63765843D01*
X160064498Y-63705574D01*
X159987406Y-63690240D01*
X159920305Y-63528244D01*
X159807037Y-63358726D01*
X159662874Y-63214563D01*
X159493356Y-63101295D01*
X159304998Y-63023274D01*
X159288804Y-63020053D01*
X159351134Y-62978405D01*
X159552405Y-62777134D01*
X159700000Y-62556243D01*
X159847595Y-62777134D01*
G37*
X159847595Y-62777134D02*
X160048866Y-62978405D01*
X160210000Y-63086072D01*
X160210000Y-63765843D01*
X160064498Y-63705574D01*
X159987406Y-63690240D01*
X159920305Y-63528244D01*
X159807037Y-63358726D01*
X159662874Y-63214563D01*
X159493356Y-63101295D01*
X159304998Y-63023274D01*
X159288804Y-63020053D01*
X159351134Y-62978405D01*
X159552405Y-62777134D01*
X159700000Y-62556243D01*
X159847595Y-62777134D01*
G36*
X155369740Y-63204558D02*
G01*
X155300600Y-63273698D01*
X155300600Y-63175920D01*
X155369740Y-63204558D01*
G37*
X155369740Y-63204558D02*
X155300600Y-63273698D01*
X155300600Y-63175920D01*
X155369740Y-63204558D01*
G36*
X159836447Y-60951550D02*
G01*
X159700000Y-61155757D01*
X159552405Y-60934866D01*
X159351134Y-60733595D01*
X159130243Y-60586000D01*
X159334451Y-60449552D01*
X159836447Y-60951550D01*
G37*
X159836447Y-60951550D02*
X159700000Y-61155757D01*
X159552405Y-60934866D01*
X159351134Y-60733595D01*
X159130243Y-60586000D01*
X159334451Y-60449552D01*
X159836447Y-60951550D01*
G36*
X162387595Y-60237134D02*
G01*
X162588866Y-60438405D01*
X162809757Y-60586000D01*
X162588866Y-60733595D01*
X162561081Y-60761380D01*
X162064620Y-60264919D01*
X162092405Y-60237134D01*
X162240000Y-60016243D01*
X162387595Y-60237134D01*
G37*
X162387595Y-60237134D02*
X162588866Y-60438405D01*
X162809757Y-60586000D01*
X162588866Y-60733595D01*
X162561081Y-60761380D01*
X162064620Y-60264919D01*
X162092405Y-60237134D01*
X162240000Y-60016243D01*
X162387595Y-60237134D01*
G36*
X154795380Y-58367081D02*
G01*
X154767595Y-58394866D01*
X154620000Y-58615757D01*
X154472405Y-58394866D01*
X154271134Y-58193595D01*
X154050243Y-58046000D01*
X154271134Y-57898405D01*
X154298919Y-57870620D01*
X154795380Y-58367081D01*
G37*
X154795380Y-58367081D02*
X154767595Y-58394866D01*
X154620000Y-58615757D01*
X154472405Y-58394866D01*
X154271134Y-58193595D01*
X154050243Y-58046000D01*
X154271134Y-57898405D01*
X154298919Y-57870620D01*
X154795380Y-58367081D01*
G36*
X170007595Y-57697134D02*
G01*
X170208866Y-57898405D01*
X170429757Y-58046000D01*
X170208866Y-58193595D01*
X170007595Y-58394866D01*
X169860000Y-58615757D01*
X169712405Y-58394866D01*
X169511134Y-58193595D01*
X169290243Y-58046000D01*
X169511134Y-57898405D01*
X169712405Y-57697134D01*
X169860000Y-57476243D01*
X170007595Y-57697134D01*
G37*
X170007595Y-57697134D02*
X170208866Y-57898405D01*
X170429757Y-58046000D01*
X170208866Y-58193595D01*
X170007595Y-58394866D01*
X169860000Y-58615757D01*
X169712405Y-58394866D01*
X169511134Y-58193595D01*
X169290243Y-58046000D01*
X169511134Y-57898405D01*
X169712405Y-57697134D01*
X169860000Y-57476243D01*
X170007595Y-57697134D01*
G36*
X162387595Y-57697134D02*
G01*
X162588866Y-57898405D01*
X162809757Y-58046000D01*
X162588866Y-58193595D01*
X162387595Y-58394866D01*
X162240000Y-58615757D01*
X162092405Y-58394866D01*
X161891134Y-58193595D01*
X161670243Y-58046000D01*
X161891134Y-57898405D01*
X162092405Y-57697134D01*
X162240000Y-57476243D01*
X162387595Y-57697134D01*
G37*
X162387595Y-57697134D02*
X162588866Y-57898405D01*
X162809757Y-58046000D01*
X162588866Y-58193595D01*
X162387595Y-58394866D01*
X162240000Y-58615757D01*
X162092405Y-58394866D01*
X161891134Y-58193595D01*
X161670243Y-58046000D01*
X161891134Y-57898405D01*
X162092405Y-57697134D01*
X162240000Y-57476243D01*
X162387595Y-57697134D01*
G36*
X144607595Y-57697134D02*
G01*
X144808866Y-57898405D01*
X145029757Y-58046000D01*
X144808866Y-58193595D01*
X144607595Y-58394866D01*
X144460000Y-58615757D01*
X144312405Y-58394866D01*
X144111134Y-58193595D01*
X143890243Y-58046000D01*
X144111134Y-57898405D01*
X144312405Y-57697134D01*
X144460000Y-57476243D01*
X144607595Y-57697134D01*
G37*
X144607595Y-57697134D02*
X144808866Y-57898405D01*
X145029757Y-58046000D01*
X144808866Y-58193595D01*
X144607595Y-58394866D01*
X144460000Y-58615757D01*
X144312405Y-58394866D01*
X144111134Y-58193595D01*
X143890243Y-58046000D01*
X144111134Y-57898405D01*
X144312405Y-57697134D01*
X144460000Y-57476243D01*
X144607595Y-57697134D01*
G36*
X159847595Y-57697134D02*
G01*
X160048866Y-57898405D01*
X160269757Y-58046000D01*
X160048866Y-58193595D01*
X160028431Y-58214030D01*
X159531970Y-57717569D01*
X159552405Y-57697134D01*
X159700000Y-57476243D01*
X159847595Y-57697134D01*
G37*
X159847595Y-57697134D02*
X160048866Y-57898405D01*
X160269757Y-58046000D01*
X160048866Y-58193595D01*
X160028431Y-58214030D01*
X159531970Y-57717569D01*
X159552405Y-57697134D01*
X159700000Y-57476243D01*
X159847595Y-57697134D01*
G36*
X121747595Y-55157134D02*
G01*
X121948866Y-55358405D01*
X122169757Y-55506000D01*
X121948866Y-55653595D01*
X121747595Y-55854866D01*
X121600000Y-56075757D01*
X121452405Y-55854866D01*
X121251134Y-55653595D01*
X121030243Y-55506000D01*
X121251134Y-55358405D01*
X121452405Y-55157134D01*
X121600000Y-54936243D01*
X121747595Y-55157134D01*
G37*
X121747595Y-55157134D02*
X121948866Y-55358405D01*
X122169757Y-55506000D01*
X121948866Y-55653595D01*
X121747595Y-55854866D01*
X121600000Y-56075757D01*
X121452405Y-55854866D01*
X121251134Y-55653595D01*
X121030243Y-55506000D01*
X121251134Y-55358405D01*
X121452405Y-55157134D01*
X121600000Y-54936243D01*
X121747595Y-55157134D01*
G36*
X129367595Y-55157134D02*
G01*
X129568866Y-55358405D01*
X129789757Y-55506000D01*
X129568866Y-55653595D01*
X129367595Y-55854866D01*
X129220000Y-56075757D01*
X129072405Y-55854866D01*
X128871134Y-55653595D01*
X128650243Y-55506000D01*
X128871134Y-55358405D01*
X129072405Y-55157134D01*
X129220000Y-54936243D01*
X129367595Y-55157134D01*
G37*
X129367595Y-55157134D02*
X129568866Y-55358405D01*
X129789757Y-55506000D01*
X129568866Y-55653595D01*
X129367595Y-55854866D01*
X129220000Y-56075757D01*
X129072405Y-55854866D01*
X128871134Y-55653595D01*
X128650243Y-55506000D01*
X128871134Y-55358405D01*
X129072405Y-55157134D01*
X129220000Y-54936243D01*
X129367595Y-55157134D01*
G36*
X134447595Y-55157134D02*
G01*
X134648866Y-55358405D01*
X134869757Y-55506000D01*
X134648866Y-55653595D01*
X134447595Y-55854866D01*
X134300000Y-56075757D01*
X134152405Y-55854866D01*
X133951134Y-55653595D01*
X133730243Y-55506000D01*
X133951134Y-55358405D01*
X134152405Y-55157134D01*
X134300000Y-54936243D01*
X134447595Y-55157134D01*
G37*
X134447595Y-55157134D02*
X134648866Y-55358405D01*
X134869757Y-55506000D01*
X134648866Y-55653595D01*
X134447595Y-55854866D01*
X134300000Y-56075757D01*
X134152405Y-55854866D01*
X133951134Y-55653595D01*
X133730243Y-55506000D01*
X133951134Y-55358405D01*
X134152405Y-55157134D01*
X134300000Y-54936243D01*
X134447595Y-55157134D01*
G36*
X136987595Y-55157134D02*
G01*
X137188866Y-55358405D01*
X137409757Y-55506000D01*
X137188866Y-55653595D01*
X136987595Y-55854866D01*
X136840000Y-56075757D01*
X136692405Y-55854866D01*
X136491134Y-55653595D01*
X136270243Y-55506000D01*
X136491134Y-55358405D01*
X136692405Y-55157134D01*
X136840000Y-54936243D01*
X136987595Y-55157134D01*
G37*
X136987595Y-55157134D02*
X137188866Y-55358405D01*
X137409757Y-55506000D01*
X137188866Y-55653595D01*
X136987595Y-55854866D01*
X136840000Y-56075757D01*
X136692405Y-55854866D01*
X136491134Y-55653595D01*
X136270243Y-55506000D01*
X136491134Y-55358405D01*
X136692405Y-55157134D01*
X136840000Y-54936243D01*
X136987595Y-55157134D01*
G36*
X159847595Y-55157134D02*
G01*
X160048866Y-55358405D01*
X160269757Y-55506000D01*
X160048866Y-55653595D01*
X159847595Y-55854866D01*
X159700000Y-56075757D01*
X159552405Y-55854866D01*
X159351134Y-55653595D01*
X159130243Y-55506000D01*
X159351134Y-55358405D01*
X159552405Y-55157134D01*
X159700000Y-54936243D01*
X159847595Y-55157134D01*
G37*
X159847595Y-55157134D02*
X160048866Y-55358405D01*
X160269757Y-55506000D01*
X160048866Y-55653595D01*
X159847595Y-55854866D01*
X159700000Y-56075757D01*
X159552405Y-55854866D01*
X159351134Y-55653595D01*
X159130243Y-55506000D01*
X159351134Y-55358405D01*
X159552405Y-55157134D01*
X159700000Y-54936243D01*
X159847595Y-55157134D01*
G36*
X162387595Y-55157134D02*
G01*
X162588866Y-55358405D01*
X162809757Y-55506000D01*
X162588866Y-55653595D01*
X162387595Y-55854866D01*
X162240000Y-56075757D01*
X162092405Y-55854866D01*
X161891134Y-55653595D01*
X161670243Y-55506000D01*
X161891134Y-55358405D01*
X162092405Y-55157134D01*
X162240000Y-54936243D01*
X162387595Y-55157134D01*
G37*
X162387595Y-55157134D02*
X162588866Y-55358405D01*
X162809757Y-55506000D01*
X162588866Y-55653595D01*
X162387595Y-55854866D01*
X162240000Y-56075757D01*
X162092405Y-55854866D01*
X161891134Y-55653595D01*
X161670243Y-55506000D01*
X161891134Y-55358405D01*
X162092405Y-55157134D01*
X162240000Y-54936243D01*
X162387595Y-55157134D01*
G36*
X167467595Y-55157134D02*
G01*
X167668866Y-55358405D01*
X167889757Y-55506000D01*
X167668866Y-55653595D01*
X167467595Y-55854866D01*
X167320000Y-56075757D01*
X167172405Y-55854866D01*
X166971134Y-55653595D01*
X166750243Y-55506000D01*
X166971134Y-55358405D01*
X167172405Y-55157134D01*
X167320000Y-54936243D01*
X167467595Y-55157134D01*
G37*
X167467595Y-55157134D02*
X167668866Y-55358405D01*
X167889757Y-55506000D01*
X167668866Y-55653595D01*
X167467595Y-55854866D01*
X167320000Y-56075757D01*
X167172405Y-55854866D01*
X166971134Y-55653595D01*
X166750243Y-55506000D01*
X166971134Y-55358405D01*
X167172405Y-55157134D01*
X167320000Y-54936243D01*
X167467595Y-55157134D01*
G36*
X170007595Y-55157134D02*
G01*
X170208866Y-55358405D01*
X170429757Y-55506000D01*
X170208866Y-55653595D01*
X170007595Y-55854866D01*
X169860000Y-56075757D01*
X169712405Y-55854866D01*
X169511134Y-55653595D01*
X169290243Y-55506000D01*
X169511134Y-55358405D01*
X169712405Y-55157134D01*
X169860000Y-54936243D01*
X170007595Y-55157134D01*
G37*
X170007595Y-55157134D02*
X170208866Y-55358405D01*
X170429757Y-55506000D01*
X170208866Y-55653595D01*
X170007595Y-55854866D01*
X169860000Y-56075757D01*
X169712405Y-55854866D01*
X169511134Y-55653595D01*
X169290243Y-55506000D01*
X169511134Y-55358405D01*
X169712405Y-55157134D01*
X169860000Y-54936243D01*
X170007595Y-55157134D01*
G36*
X147147595Y-55157134D02*
G01*
X147348866Y-55358405D01*
X147569757Y-55506000D01*
X147348866Y-55653595D01*
X147147595Y-55854866D01*
X147000000Y-56075757D01*
X146852405Y-55854866D01*
X146651134Y-55653595D01*
X146430243Y-55506000D01*
X146651134Y-55358405D01*
X146852405Y-55157134D01*
X147000000Y-54936243D01*
X147147595Y-55157134D01*
G37*
X147147595Y-55157134D02*
X147348866Y-55358405D01*
X147569757Y-55506000D01*
X147348866Y-55653595D01*
X147147595Y-55854866D01*
X147000000Y-56075757D01*
X146852405Y-55854866D01*
X146651134Y-55653595D01*
X146430243Y-55506000D01*
X146651134Y-55358405D01*
X146852405Y-55157134D01*
X147000000Y-54936243D01*
X147147595Y-55157134D01*
G36*
X157307595Y-55157134D02*
G01*
X157508866Y-55358405D01*
X157729757Y-55506000D01*
X157508866Y-55653595D01*
X157307595Y-55854866D01*
X157160000Y-56075757D01*
X157012405Y-55854866D01*
X156811134Y-55653595D01*
X156590243Y-55506000D01*
X156811134Y-55358405D01*
X157012405Y-55157134D01*
X157160000Y-54936243D01*
X157307595Y-55157134D01*
G37*
X157307595Y-55157134D02*
X157508866Y-55358405D01*
X157729757Y-55506000D01*
X157508866Y-55653595D01*
X157307595Y-55854866D01*
X157160000Y-56075757D01*
X157012405Y-55854866D01*
X156811134Y-55653595D01*
X156590243Y-55506000D01*
X156811134Y-55358405D01*
X157012405Y-55157134D01*
X157160000Y-54936243D01*
X157307595Y-55157134D01*
G36*
X144607595Y-55157134D02*
G01*
X144808866Y-55358405D01*
X145029757Y-55506000D01*
X144808866Y-55653595D01*
X144607595Y-55854866D01*
X144460000Y-56075757D01*
X144312405Y-55854866D01*
X144111134Y-55653595D01*
X143890243Y-55506000D01*
X144111134Y-55358405D01*
X144312405Y-55157134D01*
X144460000Y-54936243D01*
X144607595Y-55157134D01*
G37*
X144607595Y-55157134D02*
X144808866Y-55358405D01*
X145029757Y-55506000D01*
X144808866Y-55653595D01*
X144607595Y-55854866D01*
X144460000Y-56075757D01*
X144312405Y-55854866D01*
X144111134Y-55653595D01*
X143890243Y-55506000D01*
X144111134Y-55358405D01*
X144312405Y-55157134D01*
X144460000Y-54936243D01*
X144607595Y-55157134D01*
G36*
X116667595Y-55157134D02*
G01*
X116671230Y-55160769D01*
X116174769Y-55657230D01*
X116171134Y-55653595D01*
X115950243Y-55506000D01*
X116171134Y-55358405D01*
X116372405Y-55157134D01*
X116520000Y-54936243D01*
X116667595Y-55157134D01*
G37*
X116667595Y-55157134D02*
X116671230Y-55160769D01*
X116174769Y-55657230D01*
X116171134Y-55653595D01*
X115950243Y-55506000D01*
X116171134Y-55358405D01*
X116372405Y-55157134D01*
X116520000Y-54936243D01*
X116667595Y-55157134D01*
G36*
X154767595Y-55157134D02*
G01*
X154968866Y-55358405D01*
X155189757Y-55506000D01*
X154985549Y-55642447D01*
X154483552Y-55140451D01*
X154620000Y-54936243D01*
X154767595Y-55157134D01*
G37*
X154767595Y-55157134D02*
X154968866Y-55358405D01*
X155189757Y-55506000D01*
X154985549Y-55642447D01*
X154483552Y-55140451D01*
X154620000Y-54936243D01*
X154767595Y-55157134D01*
M02*
