%TF.GenerationSoftware,KiCad,Pcbnew,5.1.6-1.fc32*%
%TF.CreationDate,2020-09-11T21:55:50-03:00*%
%TF.ProjectId,pc104-adapter-bottom,70633130-342d-4616-9461-707465722d62,v2.0*%
%TF.SameCoordinates,Original*%
%TF.FileFunction,Legend,Top*%
%TF.FilePolarity,Positive*%
%FSLAX46Y46*%
G04 Gerber Fmt 4.6, Leading zero omitted, Abs format (unit mm)*
G04 Created by KiCad (PCBNEW 5.1.6-1.fc32) date 2020-09-11 21:55:50*
%MOMM*%
%LPD*%
G01*
G04 APERTURE LIST*
%ADD10C,0.160000*%
%ADD11C,0.120000*%
%ADD12C,0.150000*%
G04 APERTURE END LIST*
D10*
X165747619Y-75952380D02*
X165747619Y-74952380D01*
X165747619Y-75428571D02*
X166319047Y-75428571D01*
X166319047Y-75952380D02*
X166319047Y-74952380D01*
X166747619Y-75047619D02*
X166795238Y-75000000D01*
X166890476Y-74952380D01*
X167128571Y-74952380D01*
X167223809Y-75000000D01*
X167271428Y-75047619D01*
X167319047Y-75142857D01*
X167319047Y-75238095D01*
X167271428Y-75380952D01*
X166700000Y-75952380D01*
X167319047Y-75952380D01*
X167747619Y-75857142D02*
X167795238Y-75904761D01*
X167747619Y-75952380D01*
X167700000Y-75904761D01*
X167747619Y-75857142D01*
X167747619Y-75952380D01*
X168700000Y-74952380D02*
X168223809Y-74952380D01*
X168176190Y-75428571D01*
X168223809Y-75380952D01*
X168319047Y-75333333D01*
X168557142Y-75333333D01*
X168652380Y-75380952D01*
X168700000Y-75428571D01*
X168747619Y-75523809D01*
X168747619Y-75761904D01*
X168700000Y-75857142D01*
X168652380Y-75904761D01*
X168557142Y-75952380D01*
X168319047Y-75952380D01*
X168223809Y-75904761D01*
X168176190Y-75857142D01*
X169128571Y-75047619D02*
X169176190Y-75000000D01*
X169271428Y-74952380D01*
X169509523Y-74952380D01*
X169604761Y-75000000D01*
X169652380Y-75047619D01*
X169700000Y-75142857D01*
X169700000Y-75238095D01*
X169652380Y-75380952D01*
X169080952Y-75952380D01*
X169700000Y-75952380D01*
X165747619Y-91052380D02*
X165747619Y-90052380D01*
X165747619Y-90528571D02*
X166319047Y-90528571D01*
X166319047Y-91052380D02*
X166319047Y-90052380D01*
X166747619Y-90147619D02*
X166795238Y-90100000D01*
X166890476Y-90052380D01*
X167128571Y-90052380D01*
X167223809Y-90100000D01*
X167271428Y-90147619D01*
X167319047Y-90242857D01*
X167319047Y-90338095D01*
X167271428Y-90480952D01*
X166700000Y-91052380D01*
X167319047Y-91052380D01*
X167747619Y-90957142D02*
X167795238Y-91004761D01*
X167747619Y-91052380D01*
X167700000Y-91004761D01*
X167747619Y-90957142D01*
X167747619Y-91052380D01*
X168652380Y-90385714D02*
X168652380Y-91052380D01*
X168414285Y-90004761D02*
X168176190Y-90719047D01*
X168795238Y-90719047D01*
X169366666Y-90052380D02*
X169461904Y-90052380D01*
X169557142Y-90100000D01*
X169604761Y-90147619D01*
X169652380Y-90242857D01*
X169700000Y-90433333D01*
X169700000Y-90671428D01*
X169652380Y-90861904D01*
X169604761Y-90957142D01*
X169557142Y-91004761D01*
X169461904Y-91052380D01*
X169366666Y-91052380D01*
X169271428Y-91004761D01*
X169223809Y-90957142D01*
X169176190Y-90861904D01*
X169128571Y-90671428D01*
X169128571Y-90433333D01*
X169176190Y-90242857D01*
X169223809Y-90147619D01*
X169271428Y-90100000D01*
X169366666Y-90052380D01*
X155247619Y-76052380D02*
X155247619Y-75052380D01*
X155247619Y-75528571D02*
X155819047Y-75528571D01*
X155819047Y-76052380D02*
X155819047Y-75052380D01*
X156247619Y-75147619D02*
X156295238Y-75100000D01*
X156390476Y-75052380D01*
X156628571Y-75052380D01*
X156723809Y-75100000D01*
X156771428Y-75147619D01*
X156819047Y-75242857D01*
X156819047Y-75338095D01*
X156771428Y-75480952D01*
X156200000Y-76052380D01*
X156819047Y-76052380D01*
X157247619Y-75957142D02*
X157295238Y-76004761D01*
X157247619Y-76052380D01*
X157200000Y-76004761D01*
X157247619Y-75957142D01*
X157247619Y-76052380D01*
X157628571Y-75052380D02*
X158247619Y-75052380D01*
X157914285Y-75433333D01*
X158057142Y-75433333D01*
X158152380Y-75480952D01*
X158200000Y-75528571D01*
X158247619Y-75623809D01*
X158247619Y-75861904D01*
X158200000Y-75957142D01*
X158152380Y-76004761D01*
X158057142Y-76052380D01*
X157771428Y-76052380D01*
X157676190Y-76004761D01*
X157628571Y-75957142D01*
X158723809Y-76052380D02*
X158914285Y-76052380D01*
X159009523Y-76004761D01*
X159057142Y-75957142D01*
X159152380Y-75814285D01*
X159200000Y-75623809D01*
X159200000Y-75242857D01*
X159152380Y-75147619D01*
X159104761Y-75100000D01*
X159009523Y-75052380D01*
X158819047Y-75052380D01*
X158723809Y-75100000D01*
X158676190Y-75147619D01*
X158628571Y-75242857D01*
X158628571Y-75480952D01*
X158676190Y-75576190D01*
X158723809Y-75623809D01*
X158819047Y-75671428D01*
X159009523Y-75671428D01*
X159104761Y-75623809D01*
X159152380Y-75576190D01*
X159200000Y-75480952D01*
X155147619Y-91052380D02*
X155147619Y-90052380D01*
X155147619Y-90528571D02*
X155719047Y-90528571D01*
X155719047Y-91052380D02*
X155719047Y-90052380D01*
X156147619Y-90147619D02*
X156195238Y-90100000D01*
X156290476Y-90052380D01*
X156528571Y-90052380D01*
X156623809Y-90100000D01*
X156671428Y-90147619D01*
X156719047Y-90242857D01*
X156719047Y-90338095D01*
X156671428Y-90480952D01*
X156100000Y-91052380D01*
X156719047Y-91052380D01*
X157147619Y-90957142D02*
X157195238Y-91004761D01*
X157147619Y-91052380D01*
X157100000Y-91004761D01*
X157147619Y-90957142D01*
X157147619Y-91052380D01*
X157576190Y-90147619D02*
X157623809Y-90100000D01*
X157719047Y-90052380D01*
X157957142Y-90052380D01*
X158052380Y-90100000D01*
X158100000Y-90147619D01*
X158147619Y-90242857D01*
X158147619Y-90338095D01*
X158100000Y-90480952D01*
X157528571Y-91052380D01*
X158147619Y-91052380D01*
X158480952Y-90052380D02*
X159147619Y-90052380D01*
X158719047Y-91052380D01*
X144452380Y-94152380D02*
X143452380Y-94152380D01*
X143928571Y-94152380D02*
X143928571Y-93580952D01*
X144452380Y-93580952D02*
X143452380Y-93580952D01*
X143547619Y-93152380D02*
X143500000Y-93104761D01*
X143452380Y-93009523D01*
X143452380Y-92771428D01*
X143500000Y-92676190D01*
X143547619Y-92628571D01*
X143642857Y-92580952D01*
X143738095Y-92580952D01*
X143880952Y-92628571D01*
X144452380Y-93200000D01*
X144452380Y-92580952D01*
X144357142Y-92152380D02*
X144404761Y-92104761D01*
X144452380Y-92152380D01*
X144404761Y-92200000D01*
X144357142Y-92152380D01*
X144452380Y-92152380D01*
X143547619Y-91723809D02*
X143500000Y-91676190D01*
X143452380Y-91580952D01*
X143452380Y-91342857D01*
X143500000Y-91247619D01*
X143547619Y-91200000D01*
X143642857Y-91152380D01*
X143738095Y-91152380D01*
X143880952Y-91200000D01*
X144452380Y-91771428D01*
X144452380Y-91152380D01*
X143452380Y-90295238D02*
X143452380Y-90485714D01*
X143500000Y-90580952D01*
X143547619Y-90628571D01*
X143690476Y-90723809D01*
X143880952Y-90771428D01*
X144261904Y-90771428D01*
X144357142Y-90723809D01*
X144404761Y-90676190D01*
X144452380Y-90580952D01*
X144452380Y-90390476D01*
X144404761Y-90295238D01*
X144357142Y-90247619D01*
X144261904Y-90200000D01*
X144023809Y-90200000D01*
X143928571Y-90247619D01*
X143880952Y-90295238D01*
X143833333Y-90390476D01*
X143833333Y-90580952D01*
X143880952Y-90676190D01*
X143928571Y-90723809D01*
X144023809Y-90771428D01*
X144352380Y-75852380D02*
X143352380Y-75852380D01*
X143828571Y-75852380D02*
X143828571Y-75280952D01*
X144352380Y-75280952D02*
X143352380Y-75280952D01*
X143447619Y-74852380D02*
X143400000Y-74804761D01*
X143352380Y-74709523D01*
X143352380Y-74471428D01*
X143400000Y-74376190D01*
X143447619Y-74328571D01*
X143542857Y-74280952D01*
X143638095Y-74280952D01*
X143780952Y-74328571D01*
X144352380Y-74900000D01*
X144352380Y-74280952D01*
X144257142Y-73852380D02*
X144304761Y-73804761D01*
X144352380Y-73852380D01*
X144304761Y-73900000D01*
X144257142Y-73852380D01*
X144352380Y-73852380D01*
X144352380Y-72852380D02*
X144352380Y-73423809D01*
X144352380Y-73138095D02*
X143352380Y-73138095D01*
X143495238Y-73233333D01*
X143590476Y-73328571D01*
X143638095Y-73423809D01*
X143685714Y-71995238D02*
X144352380Y-71995238D01*
X143304761Y-72233333D02*
X144019047Y-72471428D01*
X144019047Y-71852380D01*
X122347619Y-90952380D02*
X122347619Y-89952380D01*
X122347619Y-90428571D02*
X122919047Y-90428571D01*
X122919047Y-90952380D02*
X122919047Y-89952380D01*
X123347619Y-90047619D02*
X123395238Y-90000000D01*
X123490476Y-89952380D01*
X123728571Y-89952380D01*
X123823809Y-90000000D01*
X123871428Y-90047619D01*
X123919047Y-90142857D01*
X123919047Y-90238095D01*
X123871428Y-90380952D01*
X123300000Y-90952380D01*
X123919047Y-90952380D01*
X124347619Y-90857142D02*
X124395238Y-90904761D01*
X124347619Y-90952380D01*
X124300000Y-90904761D01*
X124347619Y-90857142D01*
X124347619Y-90952380D01*
X125347619Y-90952380D02*
X124776190Y-90952380D01*
X125061904Y-90952380D02*
X125061904Y-89952380D01*
X124966666Y-90095238D01*
X124871428Y-90190476D01*
X124776190Y-90238095D01*
X125680952Y-89952380D02*
X126300000Y-89952380D01*
X125966666Y-90333333D01*
X126109523Y-90333333D01*
X126204761Y-90380952D01*
X126252380Y-90428571D01*
X126300000Y-90523809D01*
X126300000Y-90761904D01*
X126252380Y-90857142D01*
X126204761Y-90904761D01*
X126109523Y-90952380D01*
X125823809Y-90952380D01*
X125728571Y-90904761D01*
X125680952Y-90857142D01*
X122323809Y-76052380D02*
X122323809Y-75052380D01*
X122323809Y-75528571D02*
X122895238Y-75528571D01*
X122895238Y-76052380D02*
X122895238Y-75052380D01*
X123323809Y-75147619D02*
X123371428Y-75100000D01*
X123466666Y-75052380D01*
X123704761Y-75052380D01*
X123800000Y-75100000D01*
X123847619Y-75147619D01*
X123895238Y-75242857D01*
X123895238Y-75338095D01*
X123847619Y-75480952D01*
X123276190Y-76052380D01*
X123895238Y-76052380D01*
X124323809Y-75957142D02*
X124371428Y-76004761D01*
X124323809Y-76052380D01*
X124276190Y-76004761D01*
X124323809Y-75957142D01*
X124323809Y-76052380D01*
X125323809Y-76052380D02*
X124752380Y-76052380D01*
X125038095Y-76052380D02*
X125038095Y-75052380D01*
X124942857Y-75195238D01*
X124847619Y-75290476D01*
X124752380Y-75338095D01*
X176247619Y-75952380D02*
X176247619Y-74952380D01*
X176247619Y-75428571D02*
X176819047Y-75428571D01*
X176819047Y-75952380D02*
X176819047Y-74952380D01*
X177819047Y-75952380D02*
X177247619Y-75952380D01*
X177533333Y-75952380D02*
X177533333Y-74952380D01*
X177438095Y-75095238D01*
X177342857Y-75190476D01*
X177247619Y-75238095D01*
X178247619Y-75857142D02*
X178295238Y-75904761D01*
X178247619Y-75952380D01*
X178200000Y-75904761D01*
X178247619Y-75857142D01*
X178247619Y-75952380D01*
X179200000Y-74952380D02*
X178723809Y-74952380D01*
X178676190Y-75428571D01*
X178723809Y-75380952D01*
X178819047Y-75333333D01*
X179057142Y-75333333D01*
X179152380Y-75380952D01*
X179200000Y-75428571D01*
X179247619Y-75523809D01*
X179247619Y-75761904D01*
X179200000Y-75857142D01*
X179152380Y-75904761D01*
X179057142Y-75952380D01*
X178819047Y-75952380D01*
X178723809Y-75904761D01*
X178676190Y-75857142D01*
X179628571Y-75047619D02*
X179676190Y-75000000D01*
X179771428Y-74952380D01*
X180009523Y-74952380D01*
X180104761Y-75000000D01*
X180152380Y-75047619D01*
X180200000Y-75142857D01*
X180200000Y-75238095D01*
X180152380Y-75380952D01*
X179580952Y-75952380D01*
X180200000Y-75952380D01*
X176247619Y-91052380D02*
X176247619Y-90052380D01*
X176247619Y-90528571D02*
X176819047Y-90528571D01*
X176819047Y-91052380D02*
X176819047Y-90052380D01*
X177819047Y-91052380D02*
X177247619Y-91052380D01*
X177533333Y-91052380D02*
X177533333Y-90052380D01*
X177438095Y-90195238D01*
X177342857Y-90290476D01*
X177247619Y-90338095D01*
X178247619Y-90957142D02*
X178295238Y-91004761D01*
X178247619Y-91052380D01*
X178200000Y-91004761D01*
X178247619Y-90957142D01*
X178247619Y-91052380D01*
X179152380Y-90385714D02*
X179152380Y-91052380D01*
X178914285Y-90004761D02*
X178676190Y-90719047D01*
X179295238Y-90719047D01*
X179866666Y-90052380D02*
X179961904Y-90052380D01*
X180057142Y-90100000D01*
X180104761Y-90147619D01*
X180152380Y-90242857D01*
X180200000Y-90433333D01*
X180200000Y-90671428D01*
X180152380Y-90861904D01*
X180104761Y-90957142D01*
X180057142Y-91004761D01*
X179961904Y-91052380D01*
X179866666Y-91052380D01*
X179771428Y-91004761D01*
X179723809Y-90957142D01*
X179676190Y-90861904D01*
X179628571Y-90671428D01*
X179628571Y-90433333D01*
X179676190Y-90242857D01*
X179723809Y-90147619D01*
X179771428Y-90100000D01*
X179866666Y-90052380D01*
X148652380Y-75752380D02*
X147652380Y-75752380D01*
X148128571Y-75752380D02*
X148128571Y-75180952D01*
X148652380Y-75180952D02*
X147652380Y-75180952D01*
X148652380Y-74180952D02*
X148652380Y-74752380D01*
X148652380Y-74466666D02*
X147652380Y-74466666D01*
X147795238Y-74561904D01*
X147890476Y-74657142D01*
X147938095Y-74752380D01*
X148557142Y-73752380D02*
X148604761Y-73704761D01*
X148652380Y-73752380D01*
X148604761Y-73800000D01*
X148557142Y-73752380D01*
X148652380Y-73752380D01*
X147652380Y-73371428D02*
X147652380Y-72752380D01*
X148033333Y-73085714D01*
X148033333Y-72942857D01*
X148080952Y-72847619D01*
X148128571Y-72800000D01*
X148223809Y-72752380D01*
X148461904Y-72752380D01*
X148557142Y-72800000D01*
X148604761Y-72847619D01*
X148652380Y-72942857D01*
X148652380Y-73228571D01*
X148604761Y-73323809D01*
X148557142Y-73371428D01*
X148652380Y-72276190D02*
X148652380Y-72085714D01*
X148604761Y-71990476D01*
X148557142Y-71942857D01*
X148414285Y-71847619D01*
X148223809Y-71800000D01*
X147842857Y-71800000D01*
X147747619Y-71847619D01*
X147700000Y-71895238D01*
X147652380Y-71990476D01*
X147652380Y-72180952D01*
X147700000Y-72276190D01*
X147747619Y-72323809D01*
X147842857Y-72371428D01*
X148080952Y-72371428D01*
X148176190Y-72323809D01*
X148223809Y-72276190D01*
X148271428Y-72180952D01*
X148271428Y-71990476D01*
X148223809Y-71895238D01*
X148176190Y-71847619D01*
X148080952Y-71800000D01*
X148552380Y-94152380D02*
X147552380Y-94152380D01*
X148028571Y-94152380D02*
X148028571Y-93580952D01*
X148552380Y-93580952D02*
X147552380Y-93580952D01*
X148552380Y-92580952D02*
X148552380Y-93152380D01*
X148552380Y-92866666D02*
X147552380Y-92866666D01*
X147695238Y-92961904D01*
X147790476Y-93057142D01*
X147838095Y-93152380D01*
X148457142Y-92152380D02*
X148504761Y-92104761D01*
X148552380Y-92152380D01*
X148504761Y-92200000D01*
X148457142Y-92152380D01*
X148552380Y-92152380D01*
X147647619Y-91723809D02*
X147600000Y-91676190D01*
X147552380Y-91580952D01*
X147552380Y-91342857D01*
X147600000Y-91247619D01*
X147647619Y-91200000D01*
X147742857Y-91152380D01*
X147838095Y-91152380D01*
X147980952Y-91200000D01*
X148552380Y-91771428D01*
X148552380Y-91152380D01*
X147552380Y-90819047D02*
X147552380Y-90152380D01*
X148552380Y-90580952D01*
X132847619Y-90952380D02*
X132847619Y-89952380D01*
X132847619Y-90428571D02*
X133419047Y-90428571D01*
X133419047Y-90952380D02*
X133419047Y-89952380D01*
X134419047Y-90952380D02*
X133847619Y-90952380D01*
X134133333Y-90952380D02*
X134133333Y-89952380D01*
X134038095Y-90095238D01*
X133942857Y-90190476D01*
X133847619Y-90238095D01*
X134847619Y-90857142D02*
X134895238Y-90904761D01*
X134847619Y-90952380D01*
X134800000Y-90904761D01*
X134847619Y-90857142D01*
X134847619Y-90952380D01*
X135276190Y-90047619D02*
X135323809Y-90000000D01*
X135419047Y-89952380D01*
X135657142Y-89952380D01*
X135752380Y-90000000D01*
X135800000Y-90047619D01*
X135847619Y-90142857D01*
X135847619Y-90238095D01*
X135800000Y-90380952D01*
X135228571Y-90952380D01*
X135847619Y-90952380D01*
X136704761Y-89952380D02*
X136514285Y-89952380D01*
X136419047Y-90000000D01*
X136371428Y-90047619D01*
X136276190Y-90190476D01*
X136228571Y-90380952D01*
X136228571Y-90761904D01*
X136276190Y-90857142D01*
X136323809Y-90904761D01*
X136419047Y-90952380D01*
X136609523Y-90952380D01*
X136704761Y-90904761D01*
X136752380Y-90857142D01*
X136800000Y-90761904D01*
X136800000Y-90523809D01*
X136752380Y-90428571D01*
X136704761Y-90380952D01*
X136609523Y-90333333D01*
X136419047Y-90333333D01*
X136323809Y-90380952D01*
X136276190Y-90428571D01*
X136228571Y-90523809D01*
X132847619Y-76052380D02*
X132847619Y-75052380D01*
X132847619Y-75528571D02*
X133419047Y-75528571D01*
X133419047Y-76052380D02*
X133419047Y-75052380D01*
X134419047Y-76052380D02*
X133847619Y-76052380D01*
X134133333Y-76052380D02*
X134133333Y-75052380D01*
X134038095Y-75195238D01*
X133942857Y-75290476D01*
X133847619Y-75338095D01*
X134847619Y-75957142D02*
X134895238Y-76004761D01*
X134847619Y-76052380D01*
X134800000Y-76004761D01*
X134847619Y-75957142D01*
X134847619Y-76052380D01*
X135847619Y-76052380D02*
X135276190Y-76052380D01*
X135561904Y-76052380D02*
X135561904Y-75052380D01*
X135466666Y-75195238D01*
X135371428Y-75290476D01*
X135276190Y-75338095D01*
X136704761Y-75385714D02*
X136704761Y-76052380D01*
X136466666Y-75004761D02*
X136228571Y-75719047D01*
X136847619Y-75719047D01*
X111847619Y-90952380D02*
X111847619Y-89952380D01*
X111847619Y-90428571D02*
X112419047Y-90428571D01*
X112419047Y-90952380D02*
X112419047Y-89952380D01*
X113419047Y-90952380D02*
X112847619Y-90952380D01*
X113133333Y-90952380D02*
X113133333Y-89952380D01*
X113038095Y-90095238D01*
X112942857Y-90190476D01*
X112847619Y-90238095D01*
X113847619Y-90857142D02*
X113895238Y-90904761D01*
X113847619Y-90952380D01*
X113800000Y-90904761D01*
X113847619Y-90857142D01*
X113847619Y-90952380D01*
X114847619Y-90952380D02*
X114276190Y-90952380D01*
X114561904Y-90952380D02*
X114561904Y-89952380D01*
X114466666Y-90095238D01*
X114371428Y-90190476D01*
X114276190Y-90238095D01*
X115180952Y-89952380D02*
X115800000Y-89952380D01*
X115466666Y-90333333D01*
X115609523Y-90333333D01*
X115704761Y-90380952D01*
X115752380Y-90428571D01*
X115800000Y-90523809D01*
X115800000Y-90761904D01*
X115752380Y-90857142D01*
X115704761Y-90904761D01*
X115609523Y-90952380D01*
X115323809Y-90952380D01*
X115228571Y-90904761D01*
X115180952Y-90857142D01*
X111823809Y-76052380D02*
X111823809Y-75052380D01*
X111823809Y-75528571D02*
X112395238Y-75528571D01*
X112395238Y-76052380D02*
X112395238Y-75052380D01*
X113395238Y-76052380D02*
X112823809Y-76052380D01*
X113109523Y-76052380D02*
X113109523Y-75052380D01*
X113014285Y-75195238D01*
X112919047Y-75290476D01*
X112823809Y-75338095D01*
X113823809Y-75957142D02*
X113871428Y-76004761D01*
X113823809Y-76052380D01*
X113776190Y-76004761D01*
X113823809Y-75957142D01*
X113823809Y-76052380D01*
X114823809Y-76052380D02*
X114252380Y-76052380D01*
X114538095Y-76052380D02*
X114538095Y-75052380D01*
X114442857Y-75195238D01*
X114347619Y-75290476D01*
X114252380Y-75338095D01*
D11*
%TO.C,J8*%
X185542000Y-91740000D02*
X185542000Y-74260000D01*
X181622000Y-73890000D02*
X181622000Y-74840000D01*
X182572000Y-73890000D02*
X181622000Y-73890000D01*
X181622000Y-91160000D02*
X180932000Y-91160000D01*
X181622000Y-92110000D02*
X181622000Y-91160000D01*
X182572000Y-92110000D02*
X181622000Y-92110000D01*
%TO.C,J7*%
X153968000Y-91740000D02*
X153968000Y-74260000D01*
X150048000Y-73890000D02*
X150048000Y-74840000D01*
X150998000Y-73890000D02*
X150048000Y-73890000D01*
X150048000Y-91160000D02*
X149358000Y-91160000D01*
X150048000Y-92110000D02*
X150048000Y-91160000D01*
X150998000Y-92110000D02*
X150048000Y-92110000D01*
%TO.C,J6*%
X127499000Y-74260000D02*
X127499000Y-91740000D01*
X131419000Y-92110000D02*
X131419000Y-91160000D01*
X130469000Y-92110000D02*
X131419000Y-92110000D01*
X131419000Y-74840000D02*
X132109000Y-74840000D01*
X131419000Y-73890000D02*
X131419000Y-74840000D01*
X130469000Y-73890000D02*
X131419000Y-73890000D01*
%TO.C,J5*%
X106450000Y-74260000D02*
X106450000Y-91740000D01*
X110370000Y-92110000D02*
X110370000Y-91160000D01*
X109420000Y-92110000D02*
X110370000Y-92110000D01*
X110370000Y-74840000D02*
X111060000Y-74840000D01*
X110370000Y-73890000D02*
X110370000Y-74840000D01*
X109420000Y-73890000D02*
X110370000Y-73890000D01*
%TO.C,J4*%
X175018000Y-91740000D02*
X175018000Y-74260000D01*
X171098000Y-73890000D02*
X171098000Y-74840000D01*
X172048000Y-73890000D02*
X171098000Y-73890000D01*
X171098000Y-91160000D02*
X170408000Y-91160000D01*
X171098000Y-92110000D02*
X171098000Y-91160000D01*
X172048000Y-92110000D02*
X171098000Y-92110000D01*
%TO.C,J3*%
X164493000Y-91740000D02*
X164493000Y-74260000D01*
X160573000Y-73890000D02*
X160573000Y-74840000D01*
X161523000Y-73890000D02*
X160573000Y-73890000D01*
X160573000Y-91160000D02*
X159883000Y-91160000D01*
X160573000Y-92110000D02*
X160573000Y-91160000D01*
X161523000Y-92110000D02*
X160573000Y-92110000D01*
%TO.C,J2*%
X138024000Y-74260000D02*
X138024000Y-91740000D01*
X141944000Y-92110000D02*
X141944000Y-91160000D01*
X140994000Y-92110000D02*
X141944000Y-92110000D01*
X141944000Y-74840000D02*
X142634000Y-74840000D01*
X141944000Y-73890000D02*
X141944000Y-74840000D01*
X140994000Y-73890000D02*
X141944000Y-73890000D01*
%TO.C,J1*%
X116975000Y-74260000D02*
X116975000Y-91740000D01*
X120895000Y-92110000D02*
X120895000Y-91160000D01*
X119945000Y-92110000D02*
X120895000Y-92110000D01*
X120895000Y-74840000D02*
X121585000Y-74840000D01*
X120895000Y-73890000D02*
X120895000Y-74840000D01*
X119945000Y-73890000D02*
X120895000Y-73890000D01*
%TO.C,H3*%
D12*
X104588095Y-137568380D02*
X104588095Y-136568380D01*
X104588095Y-137044571D02*
X105159523Y-137044571D01*
X105159523Y-137568380D02*
X105159523Y-136568380D01*
X105540476Y-136568380D02*
X106159523Y-136568380D01*
X105826190Y-136949333D01*
X105969047Y-136949333D01*
X106064285Y-136996952D01*
X106111904Y-137044571D01*
X106159523Y-137139809D01*
X106159523Y-137377904D01*
X106111904Y-137473142D01*
X106064285Y-137520761D01*
X105969047Y-137568380D01*
X105683333Y-137568380D01*
X105588095Y-137520761D01*
X105540476Y-137473142D01*
%TO.C,H4*%
X184628095Y-137568380D02*
X184628095Y-136568380D01*
X184628095Y-137044571D02*
X185199523Y-137044571D01*
X185199523Y-137568380D02*
X185199523Y-136568380D01*
X186104285Y-136901714D02*
X186104285Y-137568380D01*
X185866190Y-136520761D02*
X185628095Y-137235047D01*
X186247142Y-137235047D01*
%TO.C,J9*%
D10*
X177561904Y-52352380D02*
X177085714Y-52352380D01*
X177038095Y-52828571D01*
X177085714Y-52780952D01*
X177180952Y-52733333D01*
X177419047Y-52733333D01*
X177514285Y-52780952D01*
X177561904Y-52828571D01*
X177609523Y-52923809D01*
X177609523Y-53161904D01*
X177561904Y-53257142D01*
X177514285Y-53304761D01*
X177419047Y-53352380D01*
X177180952Y-53352380D01*
X177085714Y-53304761D01*
X177038095Y-53257142D01*
X177990476Y-52447619D02*
X178038095Y-52400000D01*
X178133333Y-52352380D01*
X178371428Y-52352380D01*
X178466666Y-52400000D01*
X178514285Y-52447619D01*
X178561904Y-52542857D01*
X178561904Y-52638095D01*
X178514285Y-52780952D01*
X177942857Y-53352380D01*
X178561904Y-53352380D01*
X180561904Y-57152380D02*
X180085714Y-57152380D01*
X180038095Y-57628571D01*
X180085714Y-57580952D01*
X180180952Y-57533333D01*
X180419047Y-57533333D01*
X180514285Y-57580952D01*
X180561904Y-57628571D01*
X180609523Y-57723809D01*
X180609523Y-57961904D01*
X180561904Y-58057142D01*
X180514285Y-58104761D01*
X180419047Y-58152380D01*
X180180952Y-58152380D01*
X180085714Y-58104761D01*
X180038095Y-58057142D01*
X181561904Y-58152380D02*
X180990476Y-58152380D01*
X181276190Y-58152380D02*
X181276190Y-57152380D01*
X181180952Y-57295238D01*
X181085714Y-57390476D01*
X180990476Y-57438095D01*
X114014285Y-52447619D02*
X114061904Y-52400000D01*
X114157142Y-52352380D01*
X114395238Y-52352380D01*
X114490476Y-52400000D01*
X114538095Y-52447619D01*
X114585714Y-52542857D01*
X114585714Y-52638095D01*
X114538095Y-52780952D01*
X113966666Y-53352380D01*
X114585714Y-53352380D01*
X111445714Y-58152380D02*
X110874285Y-58152380D01*
X111160000Y-58152380D02*
X111160000Y-57152380D01*
X111064761Y-57295238D01*
X110969523Y-57390476D01*
X110874285Y-57438095D01*
%TO.C,J10*%
X180561904Y-59652380D02*
X180085714Y-59652380D01*
X180038095Y-60128571D01*
X180085714Y-60080952D01*
X180180952Y-60033333D01*
X180419047Y-60033333D01*
X180514285Y-60080952D01*
X180561904Y-60128571D01*
X180609523Y-60223809D01*
X180609523Y-60461904D01*
X180561904Y-60557142D01*
X180514285Y-60604761D01*
X180419047Y-60652380D01*
X180180952Y-60652380D01*
X180085714Y-60604761D01*
X180038095Y-60557142D01*
X180990476Y-59747619D02*
X181038095Y-59700000D01*
X181133333Y-59652380D01*
X181371428Y-59652380D01*
X181466666Y-59700000D01*
X181514285Y-59747619D01*
X181561904Y-59842857D01*
X181561904Y-59938095D01*
X181514285Y-60080952D01*
X180942857Y-60652380D01*
X181561904Y-60652380D01*
X180561904Y-62252380D02*
X180085714Y-62252380D01*
X180038095Y-62728571D01*
X180085714Y-62680952D01*
X180180952Y-62633333D01*
X180419047Y-62633333D01*
X180514285Y-62680952D01*
X180561904Y-62728571D01*
X180609523Y-62823809D01*
X180609523Y-63061904D01*
X180561904Y-63157142D01*
X180514285Y-63204761D01*
X180419047Y-63252380D01*
X180180952Y-63252380D01*
X180085714Y-63204761D01*
X180038095Y-63157142D01*
X181561904Y-63252380D02*
X180990476Y-63252380D01*
X181276190Y-63252380D02*
X181276190Y-62252380D01*
X181180952Y-62395238D01*
X181085714Y-62490476D01*
X180990476Y-62538095D01*
X110874285Y-59847619D02*
X110921904Y-59800000D01*
X111017142Y-59752380D01*
X111255238Y-59752380D01*
X111350476Y-59800000D01*
X111398095Y-59847619D01*
X111445714Y-59942857D01*
X111445714Y-60038095D01*
X111398095Y-60180952D01*
X110826666Y-60752380D01*
X111445714Y-60752380D01*
X111445714Y-63252380D02*
X110874285Y-63252380D01*
X111160000Y-63252380D02*
X111160000Y-62252380D01*
X111064761Y-62395238D01*
X110969523Y-62490476D01*
X110874285Y-62538095D01*
%TO.C,J8*%
D12*
X179184380Y-83333333D02*
X179898666Y-83333333D01*
X180041523Y-83380952D01*
X180136761Y-83476190D01*
X180184380Y-83619047D01*
X180184380Y-83714285D01*
X179612952Y-82714285D02*
X179565333Y-82809523D01*
X179517714Y-82857142D01*
X179422476Y-82904761D01*
X179374857Y-82904761D01*
X179279619Y-82857142D01*
X179232000Y-82809523D01*
X179184380Y-82714285D01*
X179184380Y-82523809D01*
X179232000Y-82428571D01*
X179279619Y-82380952D01*
X179374857Y-82333333D01*
X179422476Y-82333333D01*
X179517714Y-82380952D01*
X179565333Y-82428571D01*
X179612952Y-82523809D01*
X179612952Y-82714285D01*
X179660571Y-82809523D01*
X179708190Y-82857142D01*
X179803428Y-82904761D01*
X179993904Y-82904761D01*
X180089142Y-82857142D01*
X180136761Y-82809523D01*
X180184380Y-82714285D01*
X180184380Y-82523809D01*
X180136761Y-82428571D01*
X180089142Y-82380952D01*
X179993904Y-82333333D01*
X179803428Y-82333333D01*
X179708190Y-82380952D01*
X179660571Y-82428571D01*
X179612952Y-82523809D01*
%TO.C,J7*%
X147610380Y-83333333D02*
X148324666Y-83333333D01*
X148467523Y-83380952D01*
X148562761Y-83476190D01*
X148610380Y-83619047D01*
X148610380Y-83714285D01*
X147610380Y-82952380D02*
X147610380Y-82285714D01*
X148610380Y-82714285D01*
%TO.C,J6*%
X132761380Y-83333333D02*
X133475666Y-83333333D01*
X133618523Y-83380952D01*
X133713761Y-83476190D01*
X133761380Y-83619047D01*
X133761380Y-83714285D01*
X132761380Y-82428571D02*
X132761380Y-82619047D01*
X132809000Y-82714285D01*
X132856619Y-82761904D01*
X132999476Y-82857142D01*
X133189952Y-82904761D01*
X133570904Y-82904761D01*
X133666142Y-82857142D01*
X133713761Y-82809523D01*
X133761380Y-82714285D01*
X133761380Y-82523809D01*
X133713761Y-82428571D01*
X133666142Y-82380952D01*
X133570904Y-82333333D01*
X133332809Y-82333333D01*
X133237571Y-82380952D01*
X133189952Y-82428571D01*
X133142333Y-82523809D01*
X133142333Y-82714285D01*
X133189952Y-82809523D01*
X133237571Y-82857142D01*
X133332809Y-82904761D01*
%TO.C,J5*%
X111712380Y-83333333D02*
X112426666Y-83333333D01*
X112569523Y-83380952D01*
X112664761Y-83476190D01*
X112712380Y-83619047D01*
X112712380Y-83714285D01*
X111712380Y-82380952D02*
X111712380Y-82857142D01*
X112188571Y-82904761D01*
X112140952Y-82857142D01*
X112093333Y-82761904D01*
X112093333Y-82523809D01*
X112140952Y-82428571D01*
X112188571Y-82380952D01*
X112283809Y-82333333D01*
X112521904Y-82333333D01*
X112617142Y-82380952D01*
X112664761Y-82428571D01*
X112712380Y-82523809D01*
X112712380Y-82761904D01*
X112664761Y-82857142D01*
X112617142Y-82904761D01*
%TO.C,J4*%
X168660380Y-83333333D02*
X169374666Y-83333333D01*
X169517523Y-83380952D01*
X169612761Y-83476190D01*
X169660380Y-83619047D01*
X169660380Y-83714285D01*
X168993714Y-82428571D02*
X169660380Y-82428571D01*
X168612761Y-82666666D02*
X169327047Y-82904761D01*
X169327047Y-82285714D01*
%TO.C,J3*%
X158135380Y-83333333D02*
X158849666Y-83333333D01*
X158992523Y-83380952D01*
X159087761Y-83476190D01*
X159135380Y-83619047D01*
X159135380Y-83714285D01*
X158135380Y-82952380D02*
X158135380Y-82333333D01*
X158516333Y-82666666D01*
X158516333Y-82523809D01*
X158563952Y-82428571D01*
X158611571Y-82380952D01*
X158706809Y-82333333D01*
X158944904Y-82333333D01*
X159040142Y-82380952D01*
X159087761Y-82428571D01*
X159135380Y-82523809D01*
X159135380Y-82809523D01*
X159087761Y-82904761D01*
X159040142Y-82952380D01*
%TO.C,J2*%
X143286380Y-83333333D02*
X144000666Y-83333333D01*
X144143523Y-83380952D01*
X144238761Y-83476190D01*
X144286380Y-83619047D01*
X144286380Y-83714285D01*
X143381619Y-82904761D02*
X143334000Y-82857142D01*
X143286380Y-82761904D01*
X143286380Y-82523809D01*
X143334000Y-82428571D01*
X143381619Y-82380952D01*
X143476857Y-82333333D01*
X143572095Y-82333333D01*
X143714952Y-82380952D01*
X144286380Y-82952380D01*
X144286380Y-82333333D01*
%TO.C,J1*%
X122237380Y-83333333D02*
X122951666Y-83333333D01*
X123094523Y-83380952D01*
X123189761Y-83476190D01*
X123237380Y-83619047D01*
X123237380Y-83714285D01*
X123237380Y-82333333D02*
X123237380Y-82904761D01*
X123237380Y-82619047D02*
X122237380Y-82619047D01*
X122380238Y-82714285D01*
X122475476Y-82809523D01*
X122523095Y-82904761D01*
%TO.C,H2*%
X182078095Y-59452380D02*
X182078095Y-58452380D01*
X182078095Y-58928571D02*
X182649523Y-58928571D01*
X182649523Y-59452380D02*
X182649523Y-58452380D01*
X183078095Y-58547619D02*
X183125714Y-58500000D01*
X183220952Y-58452380D01*
X183459047Y-58452380D01*
X183554285Y-58500000D01*
X183601904Y-58547619D01*
X183649523Y-58642857D01*
X183649523Y-58738095D01*
X183601904Y-58880952D01*
X183030476Y-59452380D01*
X183649523Y-59452380D01*
%TO.C,H1*%
X108398095Y-59552380D02*
X108398095Y-58552380D01*
X108398095Y-59028571D02*
X108969523Y-59028571D01*
X108969523Y-59552380D02*
X108969523Y-58552380D01*
X109969523Y-59552380D02*
X109398095Y-59552380D01*
X109683809Y-59552380D02*
X109683809Y-58552380D01*
X109588571Y-58695238D01*
X109493333Y-58790476D01*
X109398095Y-58838095D01*
%TD*%
M02*
