%TF.GenerationSoftware,KiCad,Pcbnew,5.1.6-1.fc32*%
%TF.CreationDate,2020-07-10T21:29:07-03:00*%
%TF.ProjectId,pc104-adapter-bottom,70633130-342d-4616-9461-707465722d62,rev?*%
%TF.SameCoordinates,Original*%
%TF.FileFunction,Legend,Top*%
%TF.FilePolarity,Positive*%
%FSLAX46Y46*%
G04 Gerber Fmt 4.6, Leading zero omitted, Abs format (unit mm)*
G04 Created by KiCad (PCBNEW 5.1.6-1.fc32) date 2020-07-10 21:29:07*
%MOMM*%
%LPD*%
G01*
G04 APERTURE LIST*
%ADD10C,0.160000*%
%ADD11C,0.120000*%
%ADD12C,0.150000*%
G04 APERTURE END LIST*
D10*
X179152380Y-103652380D02*
X178152380Y-103652380D01*
X178628571Y-103652380D02*
X178628571Y-103080952D01*
X179152380Y-103080952D02*
X178152380Y-103080952D01*
X178247619Y-102652380D02*
X178200000Y-102604761D01*
X178152380Y-102509523D01*
X178152380Y-102271428D01*
X178200000Y-102176190D01*
X178247619Y-102128571D01*
X178342857Y-102080952D01*
X178438095Y-102080952D01*
X178580952Y-102128571D01*
X179152380Y-102700000D01*
X179152380Y-102080952D01*
X179057142Y-101652380D02*
X179104761Y-101604761D01*
X179152380Y-101652380D01*
X179104761Y-101700000D01*
X179057142Y-101652380D01*
X179152380Y-101652380D01*
X178152380Y-100700000D02*
X178152380Y-101176190D01*
X178628571Y-101223809D01*
X178580952Y-101176190D01*
X178533333Y-101080952D01*
X178533333Y-100842857D01*
X178580952Y-100747619D01*
X178628571Y-100700000D01*
X178723809Y-100652380D01*
X178961904Y-100652380D01*
X179057142Y-100700000D01*
X179104761Y-100747619D01*
X179152380Y-100842857D01*
X179152380Y-101080952D01*
X179104761Y-101176190D01*
X179057142Y-101223809D01*
X178247619Y-100271428D02*
X178200000Y-100223809D01*
X178152380Y-100128571D01*
X178152380Y-99890476D01*
X178200000Y-99795238D01*
X178247619Y-99747619D01*
X178342857Y-99700000D01*
X178438095Y-99700000D01*
X178580952Y-99747619D01*
X179152380Y-100319047D01*
X179152380Y-99700000D01*
X164152380Y-103652380D02*
X163152380Y-103652380D01*
X163628571Y-103652380D02*
X163628571Y-103080952D01*
X164152380Y-103080952D02*
X163152380Y-103080952D01*
X163247619Y-102652380D02*
X163200000Y-102604761D01*
X163152380Y-102509523D01*
X163152380Y-102271428D01*
X163200000Y-102176190D01*
X163247619Y-102128571D01*
X163342857Y-102080952D01*
X163438095Y-102080952D01*
X163580952Y-102128571D01*
X164152380Y-102700000D01*
X164152380Y-102080952D01*
X164057142Y-101652380D02*
X164104761Y-101604761D01*
X164152380Y-101652380D01*
X164104761Y-101700000D01*
X164057142Y-101652380D01*
X164152380Y-101652380D01*
X163485714Y-100747619D02*
X164152380Y-100747619D01*
X163104761Y-100985714D02*
X163819047Y-101223809D01*
X163819047Y-100604761D01*
X163152380Y-100033333D02*
X163152380Y-99938095D01*
X163200000Y-99842857D01*
X163247619Y-99795238D01*
X163342857Y-99747619D01*
X163533333Y-99700000D01*
X163771428Y-99700000D01*
X163961904Y-99747619D01*
X164057142Y-99795238D01*
X164104761Y-99842857D01*
X164152380Y-99938095D01*
X164152380Y-100033333D01*
X164104761Y-100128571D01*
X164057142Y-100176190D01*
X163961904Y-100223809D01*
X163771428Y-100271428D01*
X163533333Y-100271428D01*
X163342857Y-100223809D01*
X163247619Y-100176190D01*
X163200000Y-100128571D01*
X163152380Y-100033333D01*
X155952380Y-103652380D02*
X154952380Y-103652380D01*
X155428571Y-103652380D02*
X155428571Y-103080952D01*
X155952380Y-103080952D02*
X154952380Y-103080952D01*
X155047619Y-102652380D02*
X155000000Y-102604761D01*
X154952380Y-102509523D01*
X154952380Y-102271428D01*
X155000000Y-102176190D01*
X155047619Y-102128571D01*
X155142857Y-102080952D01*
X155238095Y-102080952D01*
X155380952Y-102128571D01*
X155952380Y-102700000D01*
X155952380Y-102080952D01*
X155857142Y-101652380D02*
X155904761Y-101604761D01*
X155952380Y-101652380D01*
X155904761Y-101700000D01*
X155857142Y-101652380D01*
X155952380Y-101652380D01*
X154952380Y-101271428D02*
X154952380Y-100652380D01*
X155333333Y-100985714D01*
X155333333Y-100842857D01*
X155380952Y-100747619D01*
X155428571Y-100700000D01*
X155523809Y-100652380D01*
X155761904Y-100652380D01*
X155857142Y-100700000D01*
X155904761Y-100747619D01*
X155952380Y-100842857D01*
X155952380Y-101128571D01*
X155904761Y-101223809D01*
X155857142Y-101271428D01*
X155952380Y-100176190D02*
X155952380Y-99985714D01*
X155904761Y-99890476D01*
X155857142Y-99842857D01*
X155714285Y-99747619D01*
X155523809Y-99700000D01*
X155142857Y-99700000D01*
X155047619Y-99747619D01*
X155000000Y-99795238D01*
X154952380Y-99890476D01*
X154952380Y-100080952D01*
X155000000Y-100176190D01*
X155047619Y-100223809D01*
X155142857Y-100271428D01*
X155380952Y-100271428D01*
X155476190Y-100223809D01*
X155523809Y-100176190D01*
X155571428Y-100080952D01*
X155571428Y-99890476D01*
X155523809Y-99795238D01*
X155476190Y-99747619D01*
X155380952Y-99700000D01*
X140952380Y-103652380D02*
X139952380Y-103652380D01*
X140428571Y-103652380D02*
X140428571Y-103080952D01*
X140952380Y-103080952D02*
X139952380Y-103080952D01*
X140047619Y-102652380D02*
X140000000Y-102604761D01*
X139952380Y-102509523D01*
X139952380Y-102271428D01*
X140000000Y-102176190D01*
X140047619Y-102128571D01*
X140142857Y-102080952D01*
X140238095Y-102080952D01*
X140380952Y-102128571D01*
X140952380Y-102700000D01*
X140952380Y-102080952D01*
X140857142Y-101652380D02*
X140904761Y-101604761D01*
X140952380Y-101652380D01*
X140904761Y-101700000D01*
X140857142Y-101652380D01*
X140952380Y-101652380D01*
X140047619Y-101223809D02*
X140000000Y-101176190D01*
X139952380Y-101080952D01*
X139952380Y-100842857D01*
X140000000Y-100747619D01*
X140047619Y-100700000D01*
X140142857Y-100652380D01*
X140238095Y-100652380D01*
X140380952Y-100700000D01*
X140952380Y-101271428D01*
X140952380Y-100652380D01*
X139952380Y-100319047D02*
X139952380Y-99652380D01*
X140952380Y-100080952D01*
X132652380Y-103652380D02*
X131652380Y-103652380D01*
X132128571Y-103652380D02*
X132128571Y-103080952D01*
X132652380Y-103080952D02*
X131652380Y-103080952D01*
X131747619Y-102652380D02*
X131700000Y-102604761D01*
X131652380Y-102509523D01*
X131652380Y-102271428D01*
X131700000Y-102176190D01*
X131747619Y-102128571D01*
X131842857Y-102080952D01*
X131938095Y-102080952D01*
X132080952Y-102128571D01*
X132652380Y-102700000D01*
X132652380Y-102080952D01*
X132557142Y-101652380D02*
X132604761Y-101604761D01*
X132652380Y-101652380D01*
X132604761Y-101700000D01*
X132557142Y-101652380D01*
X132652380Y-101652380D01*
X131747619Y-101223809D02*
X131700000Y-101176190D01*
X131652380Y-101080952D01*
X131652380Y-100842857D01*
X131700000Y-100747619D01*
X131747619Y-100700000D01*
X131842857Y-100652380D01*
X131938095Y-100652380D01*
X132080952Y-100700000D01*
X132652380Y-101271428D01*
X132652380Y-100652380D01*
X131652380Y-99795238D02*
X131652380Y-99985714D01*
X131700000Y-100080952D01*
X131747619Y-100128571D01*
X131890476Y-100223809D01*
X132080952Y-100271428D01*
X132461904Y-100271428D01*
X132557142Y-100223809D01*
X132604761Y-100176190D01*
X132652380Y-100080952D01*
X132652380Y-99890476D01*
X132604761Y-99795238D01*
X132557142Y-99747619D01*
X132461904Y-99700000D01*
X132223809Y-99700000D01*
X132128571Y-99747619D01*
X132080952Y-99795238D01*
X132033333Y-99890476D01*
X132033333Y-100080952D01*
X132080952Y-100176190D01*
X132128571Y-100223809D01*
X132223809Y-100271428D01*
X117752380Y-103652380D02*
X116752380Y-103652380D01*
X117228571Y-103652380D02*
X117228571Y-103080952D01*
X117752380Y-103080952D02*
X116752380Y-103080952D01*
X116847619Y-102652380D02*
X116800000Y-102604761D01*
X116752380Y-102509523D01*
X116752380Y-102271428D01*
X116800000Y-102176190D01*
X116847619Y-102128571D01*
X116942857Y-102080952D01*
X117038095Y-102080952D01*
X117180952Y-102128571D01*
X117752380Y-102700000D01*
X117752380Y-102080952D01*
X117657142Y-101652380D02*
X117704761Y-101604761D01*
X117752380Y-101652380D01*
X117704761Y-101700000D01*
X117657142Y-101652380D01*
X117752380Y-101652380D01*
X117752380Y-100652380D02*
X117752380Y-101223809D01*
X117752380Y-100938095D02*
X116752380Y-100938095D01*
X116895238Y-101033333D01*
X116990476Y-101128571D01*
X117038095Y-101223809D01*
X117085714Y-99795238D02*
X117752380Y-99795238D01*
X116704761Y-100033333D02*
X117419047Y-100271428D01*
X117419047Y-99652380D01*
X109552380Y-103652380D02*
X108552380Y-103652380D01*
X109028571Y-103652380D02*
X109028571Y-103080952D01*
X109552380Y-103080952D02*
X108552380Y-103080952D01*
X108647619Y-102652380D02*
X108600000Y-102604761D01*
X108552380Y-102509523D01*
X108552380Y-102271428D01*
X108600000Y-102176190D01*
X108647619Y-102128571D01*
X108742857Y-102080952D01*
X108838095Y-102080952D01*
X108980952Y-102128571D01*
X109552380Y-102700000D01*
X109552380Y-102080952D01*
X109457142Y-101652380D02*
X109504761Y-101604761D01*
X109552380Y-101652380D01*
X109504761Y-101700000D01*
X109457142Y-101652380D01*
X109552380Y-101652380D01*
X109552380Y-100652380D02*
X109552380Y-101223809D01*
X109552380Y-100938095D02*
X108552380Y-100938095D01*
X108695238Y-101033333D01*
X108790476Y-101128571D01*
X108838095Y-101223809D01*
X108552380Y-100319047D02*
X108552380Y-99700000D01*
X108933333Y-100033333D01*
X108933333Y-99890476D01*
X108980952Y-99795238D01*
X109028571Y-99747619D01*
X109123809Y-99700000D01*
X109361904Y-99700000D01*
X109457142Y-99747619D01*
X109504761Y-99795238D01*
X109552380Y-99890476D01*
X109552380Y-100176190D01*
X109504761Y-100271428D01*
X109457142Y-100319047D01*
X94552380Y-103676190D02*
X93552380Y-103676190D01*
X94028571Y-103676190D02*
X94028571Y-103104761D01*
X94552380Y-103104761D02*
X93552380Y-103104761D01*
X93647619Y-102676190D02*
X93600000Y-102628571D01*
X93552380Y-102533333D01*
X93552380Y-102295238D01*
X93600000Y-102200000D01*
X93647619Y-102152380D01*
X93742857Y-102104761D01*
X93838095Y-102104761D01*
X93980952Y-102152380D01*
X94552380Y-102723809D01*
X94552380Y-102104761D01*
X94457142Y-101676190D02*
X94504761Y-101628571D01*
X94552380Y-101676190D01*
X94504761Y-101723809D01*
X94457142Y-101676190D01*
X94552380Y-101676190D01*
X94552380Y-100676190D02*
X94552380Y-101247619D01*
X94552380Y-100961904D02*
X93552380Y-100961904D01*
X93695238Y-101057142D01*
X93790476Y-101152380D01*
X93838095Y-101247619D01*
X179152380Y-93652380D02*
X178152380Y-93652380D01*
X178628571Y-93652380D02*
X178628571Y-93080952D01*
X179152380Y-93080952D02*
X178152380Y-93080952D01*
X179152380Y-92080952D02*
X179152380Y-92652380D01*
X179152380Y-92366666D02*
X178152380Y-92366666D01*
X178295238Y-92461904D01*
X178390476Y-92557142D01*
X178438095Y-92652380D01*
X179057142Y-91652380D02*
X179104761Y-91604761D01*
X179152380Y-91652380D01*
X179104761Y-91700000D01*
X179057142Y-91652380D01*
X179152380Y-91652380D01*
X178152380Y-90700000D02*
X178152380Y-91176190D01*
X178628571Y-91223809D01*
X178580952Y-91176190D01*
X178533333Y-91080952D01*
X178533333Y-90842857D01*
X178580952Y-90747619D01*
X178628571Y-90700000D01*
X178723809Y-90652380D01*
X178961904Y-90652380D01*
X179057142Y-90700000D01*
X179104761Y-90747619D01*
X179152380Y-90842857D01*
X179152380Y-91080952D01*
X179104761Y-91176190D01*
X179057142Y-91223809D01*
X178247619Y-90271428D02*
X178200000Y-90223809D01*
X178152380Y-90128571D01*
X178152380Y-89890476D01*
X178200000Y-89795238D01*
X178247619Y-89747619D01*
X178342857Y-89700000D01*
X178438095Y-89700000D01*
X178580952Y-89747619D01*
X179152380Y-90319047D01*
X179152380Y-89700000D01*
X164152380Y-93652380D02*
X163152380Y-93652380D01*
X163628571Y-93652380D02*
X163628571Y-93080952D01*
X164152380Y-93080952D02*
X163152380Y-93080952D01*
X164152380Y-92080952D02*
X164152380Y-92652380D01*
X164152380Y-92366666D02*
X163152380Y-92366666D01*
X163295238Y-92461904D01*
X163390476Y-92557142D01*
X163438095Y-92652380D01*
X164057142Y-91652380D02*
X164104761Y-91604761D01*
X164152380Y-91652380D01*
X164104761Y-91700000D01*
X164057142Y-91652380D01*
X164152380Y-91652380D01*
X163485714Y-90747619D02*
X164152380Y-90747619D01*
X163104761Y-90985714D02*
X163819047Y-91223809D01*
X163819047Y-90604761D01*
X163152380Y-90033333D02*
X163152380Y-89938095D01*
X163200000Y-89842857D01*
X163247619Y-89795238D01*
X163342857Y-89747619D01*
X163533333Y-89700000D01*
X163771428Y-89700000D01*
X163961904Y-89747619D01*
X164057142Y-89795238D01*
X164104761Y-89842857D01*
X164152380Y-89938095D01*
X164152380Y-90033333D01*
X164104761Y-90128571D01*
X164057142Y-90176190D01*
X163961904Y-90223809D01*
X163771428Y-90271428D01*
X163533333Y-90271428D01*
X163342857Y-90223809D01*
X163247619Y-90176190D01*
X163200000Y-90128571D01*
X163152380Y-90033333D01*
X155852380Y-93652380D02*
X154852380Y-93652380D01*
X155328571Y-93652380D02*
X155328571Y-93080952D01*
X155852380Y-93080952D02*
X154852380Y-93080952D01*
X155852380Y-92080952D02*
X155852380Y-92652380D01*
X155852380Y-92366666D02*
X154852380Y-92366666D01*
X154995238Y-92461904D01*
X155090476Y-92557142D01*
X155138095Y-92652380D01*
X155757142Y-91652380D02*
X155804761Y-91604761D01*
X155852380Y-91652380D01*
X155804761Y-91700000D01*
X155757142Y-91652380D01*
X155852380Y-91652380D01*
X154852380Y-91271428D02*
X154852380Y-90652380D01*
X155233333Y-90985714D01*
X155233333Y-90842857D01*
X155280952Y-90747619D01*
X155328571Y-90700000D01*
X155423809Y-90652380D01*
X155661904Y-90652380D01*
X155757142Y-90700000D01*
X155804761Y-90747619D01*
X155852380Y-90842857D01*
X155852380Y-91128571D01*
X155804761Y-91223809D01*
X155757142Y-91271428D01*
X155852380Y-90176190D02*
X155852380Y-89985714D01*
X155804761Y-89890476D01*
X155757142Y-89842857D01*
X155614285Y-89747619D01*
X155423809Y-89700000D01*
X155042857Y-89700000D01*
X154947619Y-89747619D01*
X154900000Y-89795238D01*
X154852380Y-89890476D01*
X154852380Y-90080952D01*
X154900000Y-90176190D01*
X154947619Y-90223809D01*
X155042857Y-90271428D01*
X155280952Y-90271428D01*
X155376190Y-90223809D01*
X155423809Y-90176190D01*
X155471428Y-90080952D01*
X155471428Y-89890476D01*
X155423809Y-89795238D01*
X155376190Y-89747619D01*
X155280952Y-89700000D01*
X140952380Y-93652380D02*
X139952380Y-93652380D01*
X140428571Y-93652380D02*
X140428571Y-93080952D01*
X140952380Y-93080952D02*
X139952380Y-93080952D01*
X140952380Y-92080952D02*
X140952380Y-92652380D01*
X140952380Y-92366666D02*
X139952380Y-92366666D01*
X140095238Y-92461904D01*
X140190476Y-92557142D01*
X140238095Y-92652380D01*
X140857142Y-91652380D02*
X140904761Y-91604761D01*
X140952380Y-91652380D01*
X140904761Y-91700000D01*
X140857142Y-91652380D01*
X140952380Y-91652380D01*
X140047619Y-91223809D02*
X140000000Y-91176190D01*
X139952380Y-91080952D01*
X139952380Y-90842857D01*
X140000000Y-90747619D01*
X140047619Y-90700000D01*
X140142857Y-90652380D01*
X140238095Y-90652380D01*
X140380952Y-90700000D01*
X140952380Y-91271428D01*
X140952380Y-90652380D01*
X139952380Y-90319047D02*
X139952380Y-89652380D01*
X140952380Y-90080952D01*
X132752380Y-93652380D02*
X131752380Y-93652380D01*
X132228571Y-93652380D02*
X132228571Y-93080952D01*
X132752380Y-93080952D02*
X131752380Y-93080952D01*
X132752380Y-92080952D02*
X132752380Y-92652380D01*
X132752380Y-92366666D02*
X131752380Y-92366666D01*
X131895238Y-92461904D01*
X131990476Y-92557142D01*
X132038095Y-92652380D01*
X132657142Y-91652380D02*
X132704761Y-91604761D01*
X132752380Y-91652380D01*
X132704761Y-91700000D01*
X132657142Y-91652380D01*
X132752380Y-91652380D01*
X131847619Y-91223809D02*
X131800000Y-91176190D01*
X131752380Y-91080952D01*
X131752380Y-90842857D01*
X131800000Y-90747619D01*
X131847619Y-90700000D01*
X131942857Y-90652380D01*
X132038095Y-90652380D01*
X132180952Y-90700000D01*
X132752380Y-91271428D01*
X132752380Y-90652380D01*
X131752380Y-89795238D02*
X131752380Y-89985714D01*
X131800000Y-90080952D01*
X131847619Y-90128571D01*
X131990476Y-90223809D01*
X132180952Y-90271428D01*
X132561904Y-90271428D01*
X132657142Y-90223809D01*
X132704761Y-90176190D01*
X132752380Y-90080952D01*
X132752380Y-89890476D01*
X132704761Y-89795238D01*
X132657142Y-89747619D01*
X132561904Y-89700000D01*
X132323809Y-89700000D01*
X132228571Y-89747619D01*
X132180952Y-89795238D01*
X132133333Y-89890476D01*
X132133333Y-90080952D01*
X132180952Y-90176190D01*
X132228571Y-90223809D01*
X132323809Y-90271428D01*
X117752380Y-93652380D02*
X116752380Y-93652380D01*
X117228571Y-93652380D02*
X117228571Y-93080952D01*
X117752380Y-93080952D02*
X116752380Y-93080952D01*
X117752380Y-92080952D02*
X117752380Y-92652380D01*
X117752380Y-92366666D02*
X116752380Y-92366666D01*
X116895238Y-92461904D01*
X116990476Y-92557142D01*
X117038095Y-92652380D01*
X117657142Y-91652380D02*
X117704761Y-91604761D01*
X117752380Y-91652380D01*
X117704761Y-91700000D01*
X117657142Y-91652380D01*
X117752380Y-91652380D01*
X117752380Y-90652380D02*
X117752380Y-91223809D01*
X117752380Y-90938095D02*
X116752380Y-90938095D01*
X116895238Y-91033333D01*
X116990476Y-91128571D01*
X117038095Y-91223809D01*
X116752380Y-89747619D02*
X116752380Y-90223809D01*
X117228571Y-90271428D01*
X117180952Y-90223809D01*
X117133333Y-90128571D01*
X117133333Y-89890476D01*
X117180952Y-89795238D01*
X117228571Y-89747619D01*
X117323809Y-89700000D01*
X117561904Y-89700000D01*
X117657142Y-89747619D01*
X117704761Y-89795238D01*
X117752380Y-89890476D01*
X117752380Y-90128571D01*
X117704761Y-90223809D01*
X117657142Y-90271428D01*
X109552380Y-93652380D02*
X108552380Y-93652380D01*
X109028571Y-93652380D02*
X109028571Y-93080952D01*
X109552380Y-93080952D02*
X108552380Y-93080952D01*
X109552380Y-92080952D02*
X109552380Y-92652380D01*
X109552380Y-92366666D02*
X108552380Y-92366666D01*
X108695238Y-92461904D01*
X108790476Y-92557142D01*
X108838095Y-92652380D01*
X109457142Y-91652380D02*
X109504761Y-91604761D01*
X109552380Y-91652380D01*
X109504761Y-91700000D01*
X109457142Y-91652380D01*
X109552380Y-91652380D01*
X109552380Y-90652380D02*
X109552380Y-91223809D01*
X109552380Y-90938095D02*
X108552380Y-90938095D01*
X108695238Y-91033333D01*
X108790476Y-91128571D01*
X108838095Y-91223809D01*
X108552380Y-90319047D02*
X108552380Y-89700000D01*
X108933333Y-90033333D01*
X108933333Y-89890476D01*
X108980952Y-89795238D01*
X109028571Y-89747619D01*
X109123809Y-89700000D01*
X109361904Y-89700000D01*
X109457142Y-89747619D01*
X109504761Y-89795238D01*
X109552380Y-89890476D01*
X109552380Y-90176190D01*
X109504761Y-90271428D01*
X109457142Y-90319047D01*
X94552380Y-93676190D02*
X93552380Y-93676190D01*
X94028571Y-93676190D02*
X94028571Y-93104761D01*
X94552380Y-93104761D02*
X93552380Y-93104761D01*
X94552380Y-92104761D02*
X94552380Y-92676190D01*
X94552380Y-92390476D02*
X93552380Y-92390476D01*
X93695238Y-92485714D01*
X93790476Y-92580952D01*
X93838095Y-92676190D01*
X94457142Y-91676190D02*
X94504761Y-91628571D01*
X94552380Y-91676190D01*
X94504761Y-91723809D01*
X94457142Y-91676190D01*
X94552380Y-91676190D01*
X94552380Y-90676190D02*
X94552380Y-91247619D01*
X94552380Y-90961904D02*
X93552380Y-90961904D01*
X93695238Y-91057142D01*
X93790476Y-91152380D01*
X93838095Y-91247619D01*
D11*
%TO.C,J8*%
X162360000Y-98910000D02*
X179840000Y-98910000D01*
X180210000Y-94990000D02*
X179260000Y-94990000D01*
X180210000Y-95940000D02*
X180210000Y-94990000D01*
X162940000Y-94990000D02*
X162940000Y-94300000D01*
X161990000Y-94990000D02*
X162940000Y-94990000D01*
X161990000Y-95940000D02*
X161990000Y-94990000D01*
%TO.C,J7*%
X139160000Y-98910000D02*
X156640000Y-98910000D01*
X157010000Y-94990000D02*
X156060000Y-94990000D01*
X157010000Y-95940000D02*
X157010000Y-94990000D01*
X139740000Y-94990000D02*
X139740000Y-94300000D01*
X138790000Y-94990000D02*
X139740000Y-94990000D01*
X138790000Y-95940000D02*
X138790000Y-94990000D01*
%TO.C,J6*%
X115960000Y-98910000D02*
X133440000Y-98910000D01*
X133810000Y-94990000D02*
X132860000Y-94990000D01*
X133810000Y-95940000D02*
X133810000Y-94990000D01*
X116540000Y-94990000D02*
X116540000Y-94300000D01*
X115590000Y-94990000D02*
X116540000Y-94990000D01*
X115590000Y-95940000D02*
X115590000Y-94990000D01*
%TO.C,J5*%
X92760000Y-98910000D02*
X110240000Y-98910000D01*
X110610000Y-94990000D02*
X109660000Y-94990000D01*
X110610000Y-95940000D02*
X110610000Y-94990000D01*
X93340000Y-94990000D02*
X93340000Y-94300000D01*
X92390000Y-94990000D02*
X93340000Y-94990000D01*
X92390000Y-95940000D02*
X92390000Y-94990000D01*
%TO.C,J4*%
X162360000Y-108910000D02*
X179840000Y-108910000D01*
X180210000Y-104990000D02*
X179260000Y-104990000D01*
X180210000Y-105940000D02*
X180210000Y-104990000D01*
X162940000Y-104990000D02*
X162940000Y-104300000D01*
X161990000Y-104990000D02*
X162940000Y-104990000D01*
X161990000Y-105940000D02*
X161990000Y-104990000D01*
%TO.C,J3*%
X139160000Y-108910000D02*
X156640000Y-108910000D01*
X157010000Y-104990000D02*
X156060000Y-104990000D01*
X157010000Y-105940000D02*
X157010000Y-104990000D01*
X139740000Y-104990000D02*
X139740000Y-104300000D01*
X138790000Y-104990000D02*
X139740000Y-104990000D01*
X138790000Y-105940000D02*
X138790000Y-104990000D01*
%TO.C,J2*%
X115960000Y-108910000D02*
X133440000Y-108910000D01*
X133810000Y-104990000D02*
X132860000Y-104990000D01*
X133810000Y-105940000D02*
X133810000Y-104990000D01*
X116540000Y-104990000D02*
X116540000Y-104300000D01*
X115590000Y-104990000D02*
X116540000Y-104990000D01*
X115590000Y-105940000D02*
X115590000Y-104990000D01*
%TO.C,J1*%
X92760000Y-108910000D02*
X110240000Y-108910000D01*
X110610000Y-104990000D02*
X109660000Y-104990000D01*
X110610000Y-105940000D02*
X110610000Y-104990000D01*
X93340000Y-104990000D02*
X93340000Y-104300000D01*
X92390000Y-104990000D02*
X93340000Y-104990000D01*
X92390000Y-105940000D02*
X92390000Y-104990000D01*
%TO.C,J9*%
D10*
X167861904Y-77652380D02*
X167385714Y-77652380D01*
X167338095Y-78128571D01*
X167385714Y-78080952D01*
X167480952Y-78033333D01*
X167719047Y-78033333D01*
X167814285Y-78080952D01*
X167861904Y-78128571D01*
X167909523Y-78223809D01*
X167909523Y-78461904D01*
X167861904Y-78557142D01*
X167814285Y-78604761D01*
X167719047Y-78652380D01*
X167480952Y-78652380D01*
X167385714Y-78604761D01*
X167338095Y-78557142D01*
X168290476Y-77747619D02*
X168338095Y-77700000D01*
X168433333Y-77652380D01*
X168671428Y-77652380D01*
X168766666Y-77700000D01*
X168814285Y-77747619D01*
X168861904Y-77842857D01*
X168861904Y-77938095D01*
X168814285Y-78080952D01*
X168242857Y-78652380D01*
X168861904Y-78652380D01*
X170861904Y-82452380D02*
X170385714Y-82452380D01*
X170338095Y-82928571D01*
X170385714Y-82880952D01*
X170480952Y-82833333D01*
X170719047Y-82833333D01*
X170814285Y-82880952D01*
X170861904Y-82928571D01*
X170909523Y-83023809D01*
X170909523Y-83261904D01*
X170861904Y-83357142D01*
X170814285Y-83404761D01*
X170719047Y-83452380D01*
X170480952Y-83452380D01*
X170385714Y-83404761D01*
X170338095Y-83357142D01*
X171861904Y-83452380D02*
X171290476Y-83452380D01*
X171576190Y-83452380D02*
X171576190Y-82452380D01*
X171480952Y-82595238D01*
X171385714Y-82690476D01*
X171290476Y-82738095D01*
X104314285Y-77747619D02*
X104361904Y-77700000D01*
X104457142Y-77652380D01*
X104695238Y-77652380D01*
X104790476Y-77700000D01*
X104838095Y-77747619D01*
X104885714Y-77842857D01*
X104885714Y-77938095D01*
X104838095Y-78080952D01*
X104266666Y-78652380D01*
X104885714Y-78652380D01*
X101745714Y-83452380D02*
X101174285Y-83452380D01*
X101460000Y-83452380D02*
X101460000Y-82452380D01*
X101364761Y-82595238D01*
X101269523Y-82690476D01*
X101174285Y-82738095D01*
%TO.C,J10*%
X170861904Y-84952380D02*
X170385714Y-84952380D01*
X170338095Y-85428571D01*
X170385714Y-85380952D01*
X170480952Y-85333333D01*
X170719047Y-85333333D01*
X170814285Y-85380952D01*
X170861904Y-85428571D01*
X170909523Y-85523809D01*
X170909523Y-85761904D01*
X170861904Y-85857142D01*
X170814285Y-85904761D01*
X170719047Y-85952380D01*
X170480952Y-85952380D01*
X170385714Y-85904761D01*
X170338095Y-85857142D01*
X171290476Y-85047619D02*
X171338095Y-85000000D01*
X171433333Y-84952380D01*
X171671428Y-84952380D01*
X171766666Y-85000000D01*
X171814285Y-85047619D01*
X171861904Y-85142857D01*
X171861904Y-85238095D01*
X171814285Y-85380952D01*
X171242857Y-85952380D01*
X171861904Y-85952380D01*
X170861904Y-87552380D02*
X170385714Y-87552380D01*
X170338095Y-88028571D01*
X170385714Y-87980952D01*
X170480952Y-87933333D01*
X170719047Y-87933333D01*
X170814285Y-87980952D01*
X170861904Y-88028571D01*
X170909523Y-88123809D01*
X170909523Y-88361904D01*
X170861904Y-88457142D01*
X170814285Y-88504761D01*
X170719047Y-88552380D01*
X170480952Y-88552380D01*
X170385714Y-88504761D01*
X170338095Y-88457142D01*
X171861904Y-88552380D02*
X171290476Y-88552380D01*
X171576190Y-88552380D02*
X171576190Y-87552380D01*
X171480952Y-87695238D01*
X171385714Y-87790476D01*
X171290476Y-87838095D01*
X101174285Y-85147619D02*
X101221904Y-85100000D01*
X101317142Y-85052380D01*
X101555238Y-85052380D01*
X101650476Y-85100000D01*
X101698095Y-85147619D01*
X101745714Y-85242857D01*
X101745714Y-85338095D01*
X101698095Y-85480952D01*
X101126666Y-86052380D01*
X101745714Y-86052380D01*
X101745714Y-88552380D02*
X101174285Y-88552380D01*
X101460000Y-88552380D02*
X101460000Y-87552380D01*
X101364761Y-87695238D01*
X101269523Y-87790476D01*
X101174285Y-87838095D01*
%TO.C,J8*%
D12*
X170766666Y-92552380D02*
X170766666Y-93266666D01*
X170719047Y-93409523D01*
X170623809Y-93504761D01*
X170480952Y-93552380D01*
X170385714Y-93552380D01*
X171385714Y-92980952D02*
X171290476Y-92933333D01*
X171242857Y-92885714D01*
X171195238Y-92790476D01*
X171195238Y-92742857D01*
X171242857Y-92647619D01*
X171290476Y-92600000D01*
X171385714Y-92552380D01*
X171576190Y-92552380D01*
X171671428Y-92600000D01*
X171719047Y-92647619D01*
X171766666Y-92742857D01*
X171766666Y-92790476D01*
X171719047Y-92885714D01*
X171671428Y-92933333D01*
X171576190Y-92980952D01*
X171385714Y-92980952D01*
X171290476Y-93028571D01*
X171242857Y-93076190D01*
X171195238Y-93171428D01*
X171195238Y-93361904D01*
X171242857Y-93457142D01*
X171290476Y-93504761D01*
X171385714Y-93552380D01*
X171576190Y-93552380D01*
X171671428Y-93504761D01*
X171719047Y-93457142D01*
X171766666Y-93361904D01*
X171766666Y-93171428D01*
X171719047Y-93076190D01*
X171671428Y-93028571D01*
X171576190Y-92980952D01*
%TO.C,J7*%
X147566666Y-92552380D02*
X147566666Y-93266666D01*
X147519047Y-93409523D01*
X147423809Y-93504761D01*
X147280952Y-93552380D01*
X147185714Y-93552380D01*
X147947619Y-92552380D02*
X148614285Y-92552380D01*
X148185714Y-93552380D01*
%TO.C,J6*%
X124366666Y-92552380D02*
X124366666Y-93266666D01*
X124319047Y-93409523D01*
X124223809Y-93504761D01*
X124080952Y-93552380D01*
X123985714Y-93552380D01*
X125271428Y-92552380D02*
X125080952Y-92552380D01*
X124985714Y-92600000D01*
X124938095Y-92647619D01*
X124842857Y-92790476D01*
X124795238Y-92980952D01*
X124795238Y-93361904D01*
X124842857Y-93457142D01*
X124890476Y-93504761D01*
X124985714Y-93552380D01*
X125176190Y-93552380D01*
X125271428Y-93504761D01*
X125319047Y-93457142D01*
X125366666Y-93361904D01*
X125366666Y-93123809D01*
X125319047Y-93028571D01*
X125271428Y-92980952D01*
X125176190Y-92933333D01*
X124985714Y-92933333D01*
X124890476Y-92980952D01*
X124842857Y-93028571D01*
X124795238Y-93123809D01*
%TO.C,J5*%
X101166666Y-92552380D02*
X101166666Y-93266666D01*
X101119047Y-93409523D01*
X101023809Y-93504761D01*
X100880952Y-93552380D01*
X100785714Y-93552380D01*
X102119047Y-92552380D02*
X101642857Y-92552380D01*
X101595238Y-93028571D01*
X101642857Y-92980952D01*
X101738095Y-92933333D01*
X101976190Y-92933333D01*
X102071428Y-92980952D01*
X102119047Y-93028571D01*
X102166666Y-93123809D01*
X102166666Y-93361904D01*
X102119047Y-93457142D01*
X102071428Y-93504761D01*
X101976190Y-93552380D01*
X101738095Y-93552380D01*
X101642857Y-93504761D01*
X101595238Y-93457142D01*
%TO.C,J4*%
X170766666Y-102552380D02*
X170766666Y-103266666D01*
X170719047Y-103409523D01*
X170623809Y-103504761D01*
X170480952Y-103552380D01*
X170385714Y-103552380D01*
X171671428Y-102885714D02*
X171671428Y-103552380D01*
X171433333Y-102504761D02*
X171195238Y-103219047D01*
X171814285Y-103219047D01*
%TO.C,J3*%
X147566666Y-102552380D02*
X147566666Y-103266666D01*
X147519047Y-103409523D01*
X147423809Y-103504761D01*
X147280952Y-103552380D01*
X147185714Y-103552380D01*
X147947619Y-102552380D02*
X148566666Y-102552380D01*
X148233333Y-102933333D01*
X148376190Y-102933333D01*
X148471428Y-102980952D01*
X148519047Y-103028571D01*
X148566666Y-103123809D01*
X148566666Y-103361904D01*
X148519047Y-103457142D01*
X148471428Y-103504761D01*
X148376190Y-103552380D01*
X148090476Y-103552380D01*
X147995238Y-103504761D01*
X147947619Y-103457142D01*
%TO.C,J2*%
X124366666Y-102552380D02*
X124366666Y-103266666D01*
X124319047Y-103409523D01*
X124223809Y-103504761D01*
X124080952Y-103552380D01*
X123985714Y-103552380D01*
X124795238Y-102647619D02*
X124842857Y-102600000D01*
X124938095Y-102552380D01*
X125176190Y-102552380D01*
X125271428Y-102600000D01*
X125319047Y-102647619D01*
X125366666Y-102742857D01*
X125366666Y-102838095D01*
X125319047Y-102980952D01*
X124747619Y-103552380D01*
X125366666Y-103552380D01*
%TO.C,J1*%
X101166666Y-102552380D02*
X101166666Y-103266666D01*
X101119047Y-103409523D01*
X101023809Y-103504761D01*
X100880952Y-103552380D01*
X100785714Y-103552380D01*
X102166666Y-103552380D02*
X101595238Y-103552380D01*
X101880952Y-103552380D02*
X101880952Y-102552380D01*
X101785714Y-102695238D01*
X101690476Y-102790476D01*
X101595238Y-102838095D01*
%TO.C,H2*%
X172378095Y-84752380D02*
X172378095Y-83752380D01*
X172378095Y-84228571D02*
X172949523Y-84228571D01*
X172949523Y-84752380D02*
X172949523Y-83752380D01*
X173378095Y-83847619D02*
X173425714Y-83800000D01*
X173520952Y-83752380D01*
X173759047Y-83752380D01*
X173854285Y-83800000D01*
X173901904Y-83847619D01*
X173949523Y-83942857D01*
X173949523Y-84038095D01*
X173901904Y-84180952D01*
X173330476Y-84752380D01*
X173949523Y-84752380D01*
%TO.C,H1*%
X98698095Y-84852380D02*
X98698095Y-83852380D01*
X98698095Y-84328571D02*
X99269523Y-84328571D01*
X99269523Y-84852380D02*
X99269523Y-83852380D01*
X100269523Y-84852380D02*
X99698095Y-84852380D01*
X99983809Y-84852380D02*
X99983809Y-83852380D01*
X99888571Y-83995238D01*
X99793333Y-84090476D01*
X99698095Y-84138095D01*
%TD*%
M02*
