G04 #@! TF.GenerationSoftware,KiCad,Pcbnew,7.0.9-1.fc38*
G04 #@! TF.CreationDate,2023-11-17T02:46:57-03:00*
G04 #@! TF.ProjectId,pc104-adapter-bottom,70633130-342d-4616-9461-707465722d62,v2.1*
G04 #@! TF.SameCoordinates,Original*
G04 #@! TF.FileFunction,Copper,L1,Top*
G04 #@! TF.FilePolarity,Positive*
%FSLAX46Y46*%
G04 Gerber Fmt 4.6, Leading zero omitted, Abs format (unit mm)*
G04 Created by KiCad (PCBNEW 7.0.9-1.fc38) date 2023-11-17 02:46:57*
%MOMM*%
%LPD*%
G01*
G04 APERTURE LIST*
G04 Aperture macros list*
%AMRoundRect*
0 Rectangle with rounded corners*
0 $1 Rounding radius*
0 $2 $3 $4 $5 $6 $7 $8 $9 X,Y pos of 4 corners*
0 Add a 4 corners polygon primitive as box body*
4,1,4,$2,$3,$4,$5,$6,$7,$8,$9,$2,$3,0*
0 Add four circle primitives for the rounded corners*
1,1,$1+$1,$2,$3*
1,1,$1+$1,$4,$5*
1,1,$1+$1,$6,$7*
1,1,$1+$1,$8,$9*
0 Add four rect primitives between the rounded corners*
20,1,$1+$1,$2,$3,$4,$5,0*
20,1,$1+$1,$4,$5,$6,$7,0*
20,1,$1+$1,$6,$7,$8,$9,0*
20,1,$1+$1,$8,$9,$2,$3,0*%
G04 Aperture macros list end*
G04 #@! TA.AperFunction,ComponentPad*
%ADD10C,5.500000*%
G04 #@! TD*
G04 #@! TA.AperFunction,SMDPad,CuDef*
%ADD11RoundRect,0.200000X-0.450000X0.200000X-0.450000X-0.200000X0.450000X-0.200000X0.450000X0.200000X0*%
G04 #@! TD*
G04 #@! TA.AperFunction,SMDPad,CuDef*
%ADD12RoundRect,0.250001X-1.249999X0.799999X-1.249999X-0.799999X1.249999X-0.799999X1.249999X0.799999X0*%
G04 #@! TD*
G04 #@! TA.AperFunction,SMDPad,CuDef*
%ADD13RoundRect,0.200000X0.450000X-0.200000X0.450000X0.200000X-0.450000X0.200000X-0.450000X-0.200000X0*%
G04 #@! TD*
G04 #@! TA.AperFunction,SMDPad,CuDef*
%ADD14RoundRect,0.250001X1.249999X-0.799999X1.249999X0.799999X-1.249999X0.799999X-1.249999X-0.799999X0*%
G04 #@! TD*
G04 #@! TA.AperFunction,ComponentPad*
%ADD15C,1.620000*%
G04 #@! TD*
G04 #@! TA.AperFunction,ViaPad*
%ADD16C,0.800000*%
G04 #@! TD*
G04 #@! TA.AperFunction,Conductor*
%ADD17C,0.250000*%
G04 #@! TD*
G04 APERTURE END LIST*
D10*
X110150000Y-54234000D03*
X183840000Y-54236000D03*
D11*
X121935000Y-74600000D03*
X121935000Y-75850000D03*
X121935000Y-77100000D03*
X121935000Y-78350000D03*
X121935000Y-79600000D03*
X121935000Y-80850000D03*
X121935000Y-82100000D03*
X121935000Y-83350000D03*
X121935000Y-84600000D03*
X121935000Y-85850000D03*
X121935000Y-87100000D03*
X121935000Y-88350000D03*
X121935000Y-89600000D03*
D12*
X119185000Y-72050000D03*
X119185000Y-92150000D03*
D11*
X142984000Y-74600000D03*
X142984000Y-75850000D03*
X142984000Y-77100000D03*
X142984000Y-78350000D03*
X142984000Y-79600000D03*
X142984000Y-80850000D03*
X142984000Y-82100000D03*
X142984000Y-83350000D03*
X142984000Y-84600000D03*
X142984000Y-85850000D03*
X142984000Y-87100000D03*
X142984000Y-88350000D03*
X142984000Y-89600000D03*
D12*
X140234000Y-72050000D03*
X140234000Y-92150000D03*
D13*
X161533000Y-89600000D03*
X161533000Y-88350000D03*
X161533000Y-87100000D03*
X161533000Y-85850000D03*
X161533000Y-84600000D03*
X161533000Y-83350000D03*
X161533000Y-82100000D03*
X161533000Y-80850000D03*
X161533000Y-79600000D03*
X161533000Y-78350000D03*
X161533000Y-77100000D03*
X161533000Y-75850000D03*
X161533000Y-74600000D03*
D14*
X164283000Y-92150000D03*
X164283000Y-72050000D03*
D13*
X172058000Y-89600000D03*
X172058000Y-88350000D03*
X172058000Y-87100000D03*
X172058000Y-85850000D03*
X172058000Y-84600000D03*
X172058000Y-83350000D03*
X172058000Y-82100000D03*
X172058000Y-80850000D03*
X172058000Y-79600000D03*
X172058000Y-78350000D03*
X172058000Y-77100000D03*
X172058000Y-75850000D03*
X172058000Y-74600000D03*
D14*
X174808000Y-92150000D03*
X174808000Y-72050000D03*
D11*
X111410000Y-74600000D03*
X111410000Y-75850000D03*
X111410000Y-77100000D03*
X111410000Y-78350000D03*
X111410000Y-79600000D03*
X111410000Y-80850000D03*
X111410000Y-82100000D03*
X111410000Y-83350000D03*
X111410000Y-84600000D03*
X111410000Y-85850000D03*
X111410000Y-87100000D03*
X111410000Y-88350000D03*
X111410000Y-89600000D03*
D12*
X108660000Y-72050000D03*
X108660000Y-92150000D03*
D11*
X132459000Y-74600000D03*
X132459000Y-75850000D03*
X132459000Y-77100000D03*
X132459000Y-78350000D03*
X132459000Y-79600000D03*
X132459000Y-80850000D03*
X132459000Y-82100000D03*
X132459000Y-83350000D03*
X132459000Y-84600000D03*
X132459000Y-85850000D03*
X132459000Y-87100000D03*
X132459000Y-88350000D03*
X132459000Y-89600000D03*
D12*
X129709000Y-72050000D03*
X129709000Y-92150000D03*
D13*
X151008000Y-89600000D03*
X151008000Y-88350000D03*
X151008000Y-87100000D03*
X151008000Y-85850000D03*
X151008000Y-84600000D03*
X151008000Y-83350000D03*
X151008000Y-82100000D03*
X151008000Y-80850000D03*
X151008000Y-79600000D03*
X151008000Y-78350000D03*
X151008000Y-77100000D03*
X151008000Y-75850000D03*
X151008000Y-74600000D03*
D14*
X153758000Y-92150000D03*
X153758000Y-72050000D03*
D13*
X182582000Y-89600000D03*
X182582000Y-88350000D03*
X182582000Y-87100000D03*
X182582000Y-85850000D03*
X182582000Y-84600000D03*
X182582000Y-83350000D03*
X182582000Y-82100000D03*
X182582000Y-80850000D03*
X182582000Y-79600000D03*
X182582000Y-78350000D03*
X182582000Y-77100000D03*
X182582000Y-75850000D03*
X182582000Y-74600000D03*
D14*
X185332000Y-92150000D03*
X185332000Y-72050000D03*
D15*
X115250000Y-56776000D03*
X115250000Y-54236000D03*
X117790000Y-56776000D03*
X117790000Y-54236000D03*
X120330000Y-56776000D03*
X120330000Y-54236000D03*
X122870000Y-56776000D03*
X122870000Y-54236000D03*
X125410000Y-56776000D03*
X125410000Y-54236000D03*
X127950000Y-56776000D03*
X127950000Y-54236000D03*
X130490000Y-56776000D03*
X130490000Y-54236000D03*
X133030000Y-56776000D03*
X133030000Y-54236000D03*
X135570000Y-56776000D03*
X135570000Y-54236000D03*
X138110000Y-56776000D03*
X138110000Y-54236000D03*
X140650000Y-56776000D03*
X140650000Y-54236000D03*
X143190000Y-56776000D03*
X143190000Y-54236000D03*
X145730000Y-56776000D03*
X145730000Y-54236000D03*
X148270000Y-56776000D03*
X148270000Y-54236000D03*
X150810000Y-56776000D03*
X150810000Y-54236000D03*
X153350000Y-56776000D03*
X153350000Y-54236000D03*
X155890000Y-56776000D03*
X155890000Y-54236000D03*
X158430000Y-56776000D03*
X158430000Y-54236000D03*
X160970000Y-56776000D03*
X160970000Y-54236000D03*
X163510000Y-56776000D03*
X163510000Y-54236000D03*
X166050000Y-56776000D03*
X166050000Y-54236000D03*
X168590000Y-56776000D03*
X168590000Y-54236000D03*
X171130000Y-56776000D03*
X171130000Y-54236000D03*
X173670000Y-56776000D03*
X173670000Y-54236000D03*
X176210000Y-56776000D03*
X176210000Y-54236000D03*
X178750000Y-56776000D03*
X178750000Y-54236000D03*
X115250000Y-61856000D03*
X115250000Y-59316000D03*
X117790000Y-61856000D03*
X117790000Y-59316000D03*
X120330000Y-61856000D03*
X120330000Y-59316000D03*
X122870000Y-61856000D03*
X122870000Y-59316000D03*
X125410000Y-61856000D03*
X125410000Y-59316000D03*
X127950000Y-61856000D03*
X127950000Y-59316000D03*
X130490000Y-61856000D03*
X130490000Y-59316000D03*
X133030000Y-61856000D03*
X133030000Y-59316000D03*
X135570000Y-61856000D03*
X135570000Y-59316000D03*
X138110000Y-61856000D03*
X138110000Y-59316000D03*
X140650000Y-61856000D03*
X140650000Y-59316000D03*
X143190000Y-61856000D03*
X143190000Y-59316000D03*
X145730000Y-61856000D03*
X145730000Y-59316000D03*
X148270000Y-61856000D03*
X148270000Y-59316000D03*
X150810000Y-61856000D03*
X150810000Y-59316000D03*
X153350000Y-61856000D03*
X153350000Y-59316000D03*
X155890000Y-61856000D03*
X155890000Y-59316000D03*
X158430000Y-61856000D03*
X158430000Y-59316000D03*
X160970000Y-61856000D03*
X160970000Y-59316000D03*
X163510000Y-61856000D03*
X163510000Y-59316000D03*
X166050000Y-61856000D03*
X166050000Y-59316000D03*
X168590000Y-61856000D03*
X168590000Y-59316000D03*
X171130000Y-61856000D03*
X171130000Y-59316000D03*
X173670000Y-61856000D03*
X173670000Y-59316000D03*
X176210000Y-61856000D03*
X176210000Y-59316000D03*
X178750000Y-61856000D03*
X178750000Y-59316000D03*
D10*
X106450000Y-139936000D03*
X186450000Y-139936000D03*
D16*
X105300000Y-97000000D03*
X187300000Y-97000000D03*
X124703500Y-84477500D03*
X123174400Y-86552800D03*
X123455300Y-66611700D03*
X123218700Y-82209300D03*
X120326900Y-78344800D03*
X120663000Y-79758000D03*
X123204600Y-79668300D03*
X123350200Y-67831500D03*
X120679100Y-76940700D03*
X120630600Y-74519500D03*
X122269500Y-68349700D03*
X144245500Y-87315600D03*
X141722400Y-86679700D03*
X145643600Y-63691300D03*
X144485100Y-68885000D03*
X141611600Y-82068800D03*
X139021400Y-73728800D03*
X143960200Y-73086100D03*
X140851600Y-76999400D03*
X139963900Y-76332500D03*
X142188600Y-70721400D03*
X142984000Y-73561300D03*
X161695400Y-66650400D03*
X159762600Y-64700800D03*
X159003100Y-64018500D03*
X159628200Y-80152200D03*
X157557400Y-67273300D03*
X160263700Y-84600000D03*
X162795400Y-84831600D03*
X156766800Y-68102100D03*
X160273100Y-87945400D03*
X160271400Y-89600000D03*
X175181100Y-74090600D03*
X176182900Y-74114600D03*
X173746900Y-75628900D03*
X173342300Y-78247000D03*
X170667300Y-79443800D03*
X171472700Y-71279200D03*
X169038800Y-65355100D03*
X170791600Y-84760400D03*
X169774600Y-85001300D03*
X112684100Y-88553000D03*
X110148200Y-87272500D03*
X110138600Y-85992800D03*
X113432200Y-84071800D03*
X133714000Y-88585500D03*
X133728900Y-87303500D03*
X142191000Y-67910800D03*
X151008000Y-73584900D03*
X151595500Y-72751100D03*
X154506900Y-75548800D03*
X152761900Y-76793600D03*
X153776900Y-77049000D03*
X152472300Y-69302800D03*
X183861500Y-81061000D03*
X181303800Y-82046600D03*
X181320500Y-83569800D03*
X181304600Y-85051800D03*
X181328100Y-86134400D03*
X181325400Y-87415500D03*
X180294200Y-87462400D03*
D17*
X121935000Y-89600000D02*
X122159700Y-89600000D01*
X122159700Y-89600000D02*
X127580800Y-84178900D01*
X129220000Y-64377600D02*
X129220000Y-58046000D01*
X127580800Y-66016800D02*
X129220000Y-64377600D01*
X129220000Y-58046000D02*
X130490000Y-56776000D01*
X127580800Y-84178900D02*
X127580800Y-66016800D01*
X122431500Y-88350000D02*
X124703500Y-86078000D01*
X124703500Y-86078000D02*
X124703500Y-84477500D01*
X121935000Y-88350000D02*
X122431500Y-88350000D01*
X122627200Y-87100000D02*
X123174400Y-86552800D01*
X121935000Y-87100000D02*
X122627200Y-87100000D01*
X126600600Y-55426600D02*
X125410000Y-54236000D01*
X126600600Y-81346800D02*
X126600600Y-55426600D01*
X121935000Y-85850000D02*
X122097400Y-85850000D01*
X122097400Y-85850000D02*
X126600600Y-81346800D01*
X122084800Y-84600000D02*
X124110300Y-82574500D01*
X124110300Y-82574500D02*
X124110300Y-67266700D01*
X121935000Y-84600000D02*
X122084800Y-84600000D01*
X124110300Y-67266700D02*
X123455300Y-66611700D01*
X122078000Y-83350000D02*
X123218700Y-82209300D01*
X121935000Y-83350000D02*
X122078000Y-83350000D01*
X119905200Y-78766500D02*
X120326900Y-78344800D01*
X121935000Y-82100000D02*
X121788100Y-82100000D01*
X119905200Y-80217100D02*
X119905200Y-78766500D01*
X121788100Y-82100000D02*
X119905200Y-80217100D01*
X121935000Y-80850000D02*
X121755000Y-80850000D01*
X121755000Y-80850000D02*
X120663000Y-79758000D01*
X123136300Y-79600000D02*
X123204600Y-79668300D01*
X121935000Y-79600000D02*
X123136300Y-79600000D01*
X123350200Y-77180400D02*
X123350200Y-67831500D01*
X121935000Y-78350000D02*
X122180600Y-78350000D01*
X122180600Y-78350000D02*
X123350200Y-77180400D01*
X120838400Y-77100000D02*
X120679100Y-76940700D01*
X121935000Y-77100000D02*
X120838400Y-77100000D01*
X121935000Y-75850000D02*
X121752700Y-75850000D01*
X120630600Y-74727900D02*
X120630600Y-74519500D01*
X121752700Y-75850000D02*
X120630600Y-74727900D01*
X122269500Y-74265500D02*
X122269500Y-68349700D01*
X121935000Y-74600000D02*
X122269500Y-74265500D01*
X146920600Y-85883400D02*
X146920600Y-55426600D01*
X142984000Y-89600000D02*
X143204000Y-89600000D01*
X143204000Y-89600000D02*
X146920600Y-85883400D01*
X146920600Y-55426600D02*
X145730000Y-54236000D01*
X143211100Y-88350000D02*
X144245500Y-87315600D01*
X142984000Y-88350000D02*
X143211100Y-88350000D01*
X142142700Y-87100000D02*
X141722400Y-86679700D01*
X142984000Y-87100000D02*
X142142700Y-87100000D01*
X143143900Y-85850000D02*
X145684000Y-83309900D01*
X145684000Y-63731700D02*
X145643600Y-63691300D01*
X142984000Y-85850000D02*
X143143900Y-85850000D01*
X145684000Y-83309900D02*
X145684000Y-63731700D01*
X144325400Y-61297100D02*
X143614300Y-60586000D01*
X142984000Y-84600000D02*
X143190200Y-84600000D01*
X143614300Y-60586000D02*
X142821200Y-60586000D01*
X141920000Y-55506000D02*
X140650000Y-54236000D01*
X143190200Y-84600000D02*
X145215800Y-82574400D01*
X144325400Y-63668600D02*
X144325400Y-61297100D01*
X142821200Y-60586000D02*
X141920000Y-59684800D01*
X141920000Y-59684800D02*
X141920000Y-55506000D01*
X145215800Y-64559000D02*
X144325400Y-63668600D01*
X145215800Y-82574400D02*
X145215800Y-64559000D01*
X144730800Y-81779800D02*
X144730800Y-69130700D01*
X143160600Y-83350000D02*
X144730800Y-81779800D01*
X144730800Y-69130700D02*
X144485100Y-68885000D01*
X142984000Y-83350000D02*
X143160600Y-83350000D01*
X142984000Y-82100000D02*
X141642800Y-82100000D01*
X141642800Y-82100000D02*
X141611600Y-82068800D01*
X142723800Y-80850000D02*
X139021400Y-77147600D01*
X142984000Y-80850000D02*
X142723800Y-80850000D01*
X139021400Y-77147600D02*
X139021400Y-73728800D01*
X142984000Y-79600000D02*
X143228200Y-79600000D01*
X143960200Y-78868000D02*
X143960200Y-73086100D01*
X143228200Y-79600000D02*
X143960200Y-78868000D01*
X142984000Y-78350000D02*
X142202200Y-78350000D01*
X142202200Y-78350000D02*
X140851600Y-76999400D01*
X141434900Y-76229900D02*
X140066500Y-76229900D01*
X142305000Y-77100000D02*
X141434900Y-76229900D01*
X142984000Y-77100000D02*
X142305000Y-77100000D01*
X140066500Y-76229900D02*
X139963900Y-76332500D01*
X142833200Y-75850000D02*
X141953800Y-74970600D01*
X142984000Y-75850000D02*
X142833200Y-75850000D01*
X141953800Y-74970600D02*
X141953800Y-73379800D01*
X141953800Y-73379800D02*
X142188600Y-73145000D01*
X142188600Y-73145000D02*
X142188600Y-70721400D01*
X142984000Y-74600000D02*
X142984000Y-73561300D01*
X161533000Y-74600000D02*
X161533000Y-66812800D01*
X161533000Y-66812800D02*
X161695400Y-66650400D01*
X161385900Y-75850000D02*
X160526500Y-74990600D01*
X159803100Y-63378700D02*
X159803100Y-55402900D01*
X160526500Y-64102100D02*
X159803100Y-63378700D01*
X159803100Y-55402900D02*
X160970000Y-54236000D01*
X160526500Y-74990600D02*
X160526500Y-64102100D01*
X161533000Y-75850000D02*
X161385900Y-75850000D01*
X161533000Y-77100000D02*
X161777200Y-77100000D01*
X162420900Y-73798600D02*
X162420900Y-65971300D01*
X162240000Y-58046000D02*
X160970000Y-56776000D01*
X162519500Y-76357700D02*
X162519500Y-73897200D01*
X162519500Y-73897200D02*
X162420900Y-73798600D01*
X161777200Y-77100000D02*
X162519500Y-76357700D01*
X162240000Y-65790400D02*
X162240000Y-58046000D01*
X162420900Y-65971300D02*
X162240000Y-65790400D01*
X161305900Y-78350000D02*
X159762600Y-76806700D01*
X159762600Y-76806700D02*
X159762600Y-64700800D01*
X161533000Y-78350000D02*
X161305900Y-78350000D01*
X161533000Y-79600000D02*
X161324500Y-79600000D01*
X159003100Y-77278600D02*
X159003100Y-64018500D01*
X161324500Y-79600000D02*
X159003100Y-77278600D01*
X157264300Y-65954300D02*
X158351900Y-67041900D01*
X158351900Y-77825100D02*
X161376800Y-80850000D01*
X157264300Y-55610300D02*
X157264300Y-65954300D01*
X158351900Y-67041900D02*
X158351900Y-77825100D01*
X155890000Y-54236000D02*
X157264300Y-55610300D01*
X161376800Y-80850000D02*
X161533000Y-80850000D01*
X161308600Y-82100000D02*
X159628200Y-80419600D01*
X159628200Y-80419600D02*
X159628200Y-80152200D01*
X161533000Y-82100000D02*
X161308600Y-82100000D01*
X161316700Y-83350000D02*
X157557400Y-79590700D01*
X161533000Y-83350000D02*
X161316700Y-83350000D01*
X157557400Y-79590700D02*
X157557400Y-67273300D01*
X161533000Y-84600000D02*
X160263700Y-84600000D01*
X161533000Y-85850000D02*
X161777000Y-85850000D01*
X161777000Y-85850000D02*
X162795400Y-84831600D01*
X156766800Y-82498600D02*
X156766800Y-68102100D01*
X161368200Y-87100000D02*
X156766800Y-82498600D01*
X161533000Y-87100000D02*
X161368200Y-87100000D01*
X161533000Y-88350000D02*
X160677700Y-88350000D01*
X160677700Y-88350000D02*
X160273100Y-87945400D01*
X161533000Y-89600000D02*
X160271400Y-89600000D01*
X172567400Y-74090600D02*
X175181100Y-74090600D01*
X172058000Y-74600000D02*
X172567400Y-74090600D01*
X172500200Y-75849900D02*
X173534200Y-74815900D01*
X175481600Y-74815900D02*
X176182900Y-74114600D01*
X173534200Y-74815900D02*
X175481600Y-74815900D01*
X172500200Y-75850000D02*
X172500200Y-75849900D01*
X172058000Y-75850000D02*
X172500200Y-75850000D01*
X172275800Y-77100000D02*
X173746900Y-75628900D01*
X172058000Y-77100000D02*
X172275800Y-77100000D01*
X173239300Y-78350000D02*
X173342300Y-78247000D01*
X172058000Y-78350000D02*
X173239300Y-78350000D01*
X171075600Y-78794700D02*
X171880900Y-79600000D01*
X171880900Y-79600000D02*
X172058000Y-79600000D01*
X172400000Y-55506000D02*
X172400000Y-71494800D01*
X171075600Y-72819200D02*
X171075600Y-78794700D01*
X173670000Y-54236000D02*
X172400000Y-55506000D01*
X172400000Y-71494800D02*
X171075600Y-72819200D01*
X172058000Y-80850000D02*
X171834300Y-80850000D01*
X170667300Y-79683000D02*
X170667300Y-79443800D01*
X171834300Y-80850000D02*
X170667300Y-79683000D01*
X172058000Y-82100000D02*
X171913900Y-82100000D01*
X169939400Y-72812500D02*
X171472700Y-71279200D01*
X171913900Y-82100000D02*
X169939400Y-80125500D01*
X169939400Y-80125500D02*
X169939400Y-72812500D01*
X171868900Y-83350000D02*
X172058000Y-83350000D01*
X169939600Y-66254500D02*
X169489100Y-66705000D01*
X171130000Y-56776000D02*
X169939600Y-57966400D01*
X169939600Y-57966400D02*
X169939600Y-66254500D01*
X169489100Y-66705000D02*
X169489100Y-80970200D01*
X169489100Y-80970200D02*
X171868900Y-83350000D01*
X169038800Y-65355100D02*
X169038800Y-81814900D01*
X171823900Y-84600000D02*
X172058000Y-84600000D01*
X169038800Y-81814900D02*
X171823900Y-84600000D01*
X170791600Y-84760400D02*
X171881200Y-85850000D01*
X171881200Y-85850000D02*
X172058000Y-85850000D01*
X172058000Y-87100000D02*
X171873300Y-87100000D01*
X171873300Y-87100000D02*
X169774600Y-85001300D01*
X172058000Y-88350000D02*
X171903800Y-88350000D01*
X171903800Y-88350000D02*
X167320000Y-83766200D01*
X167320000Y-83766200D02*
X167320000Y-58046000D01*
X167320000Y-58046000D02*
X166050000Y-56776000D01*
X172058000Y-89600000D02*
X171849000Y-89600000D01*
X166648800Y-66246300D02*
X164780000Y-64377500D01*
X164780000Y-55506000D02*
X163510000Y-54236000D01*
X164780000Y-64377500D02*
X164780000Y-55506000D01*
X166648800Y-84399800D02*
X166648800Y-66246300D01*
X171849000Y-89600000D02*
X166648800Y-84399800D01*
X111637100Y-89600000D02*
X112684100Y-88553000D01*
X111410000Y-89600000D02*
X111637100Y-89600000D01*
X111410000Y-88350000D02*
X111225700Y-88350000D01*
X111225700Y-88350000D02*
X110148200Y-87272500D01*
X111245800Y-87100000D02*
X110138600Y-85992800D01*
X111410000Y-87100000D02*
X111245800Y-87100000D01*
X111410000Y-85850000D02*
X111654000Y-85850000D01*
X111654000Y-85850000D02*
X113432200Y-84071800D01*
X121244700Y-67780300D02*
X125410000Y-63615000D01*
X111410000Y-84600000D02*
X111644000Y-84600000D01*
X117584000Y-78660000D02*
X117584000Y-76514800D01*
X111644000Y-84600000D02*
X117584000Y-78660000D01*
X121244700Y-72854100D02*
X121244700Y-67780300D01*
X117584000Y-76514800D02*
X121244700Y-72854100D01*
X125410000Y-63615000D02*
X125410000Y-61856000D01*
X116840500Y-78131300D02*
X111621800Y-83350000D01*
X124005400Y-60451400D02*
X124005400Y-63888800D01*
X111621800Y-83350000D02*
X111410000Y-83350000D01*
X122870000Y-59316000D02*
X124005400Y-60451400D01*
X116840500Y-71053700D02*
X116840500Y-78131300D01*
X124005400Y-63888800D02*
X116840500Y-71053700D01*
X116390200Y-70707400D02*
X116390200Y-77262800D01*
X122870000Y-61856000D02*
X122870000Y-64227600D01*
X116390200Y-77262800D02*
X111553000Y-82100000D01*
X122870000Y-64227600D02*
X116390200Y-70707400D01*
X111553000Y-82100000D02*
X111410000Y-82100000D01*
X115885400Y-70575300D02*
X115885400Y-76517600D01*
X111553000Y-80850000D02*
X111410000Y-80850000D01*
X115885400Y-76517600D02*
X111553000Y-80850000D01*
X121466100Y-60452100D02*
X121466100Y-64994600D01*
X120330000Y-59316000D02*
X121466100Y-60452100D01*
X121466100Y-64994600D02*
X115885400Y-70575300D01*
X115264500Y-75892700D02*
X111557200Y-79600000D01*
X115264500Y-66921500D02*
X115264500Y-75892700D01*
X120330000Y-61856000D02*
X115264500Y-66921500D01*
X111557200Y-79600000D02*
X111410000Y-79600000D01*
X112288200Y-71435100D02*
X112288200Y-60644200D01*
X111410000Y-78350000D02*
X111266200Y-78350000D01*
X109948100Y-77031900D02*
X109948100Y-73775200D01*
X116599400Y-58125400D02*
X117790000Y-59316000D01*
X109948100Y-73775200D02*
X112288200Y-71435100D01*
X111266200Y-78350000D02*
X109948100Y-77031900D01*
X114807000Y-58125400D02*
X116599400Y-58125400D01*
X112288200Y-60644200D02*
X114807000Y-58125400D01*
X114814100Y-64831900D02*
X114814100Y-73838900D01*
X114814100Y-73838900D02*
X111553000Y-77100000D01*
X117790000Y-61856000D02*
X114814100Y-64831900D01*
X111553000Y-77100000D02*
X111410000Y-77100000D01*
X111230100Y-75850000D02*
X110430900Y-75050800D01*
X110430900Y-75050800D02*
X110430900Y-73929300D01*
X111410000Y-75850000D02*
X111230100Y-75850000D01*
X113845400Y-70514800D02*
X113845400Y-60720600D01*
X110430900Y-73929300D02*
X113845400Y-70514800D01*
X113845400Y-60720600D02*
X115250000Y-59316000D01*
X115250000Y-61856000D02*
X114363800Y-62742200D01*
X114363800Y-62742200D02*
X114363800Y-71646200D01*
X114363800Y-71646200D02*
X111410000Y-74600000D01*
X132459000Y-89600000D02*
X132699500Y-89600000D01*
X132699500Y-89600000D02*
X133714000Y-88585500D01*
X132459000Y-88350000D02*
X132682400Y-88350000D01*
X132682400Y-88350000D02*
X133728900Y-87303500D01*
X138166300Y-71254100D02*
X141509600Y-67910800D01*
X138166300Y-81594500D02*
X138166300Y-71254100D01*
X132660800Y-87100000D02*
X138166300Y-81594500D01*
X132459000Y-87100000D02*
X132660800Y-87100000D01*
X141509600Y-67910800D02*
X142191000Y-67910800D01*
X137716000Y-71067500D02*
X143190000Y-65593500D01*
X137716000Y-80739400D02*
X137716000Y-71067500D01*
X132459000Y-85850000D02*
X132605400Y-85850000D01*
X143190000Y-65593500D02*
X143190000Y-61856000D01*
X132605400Y-85850000D02*
X137716000Y-80739400D01*
X132459000Y-84600000D02*
X132610100Y-84600000D01*
X141785400Y-66361200D02*
X141785400Y-60451400D01*
X137265700Y-79944400D02*
X137265700Y-70880900D01*
X132610100Y-84600000D02*
X137265700Y-79944400D01*
X141785400Y-60451400D02*
X140650000Y-59316000D01*
X137265700Y-70880900D02*
X141785400Y-66361200D01*
X132612000Y-83350000D02*
X136815400Y-79146600D01*
X136815400Y-79146600D02*
X136815400Y-70694200D01*
X140650000Y-66859600D02*
X140650000Y-61856000D01*
X136815400Y-70694200D02*
X140650000Y-66859600D01*
X132459000Y-83350000D02*
X132612000Y-83350000D01*
X136311400Y-70561300D02*
X139245300Y-67627400D01*
X136311400Y-78426900D02*
X136311400Y-70561300D01*
X139245300Y-67627400D02*
X139245300Y-60451300D01*
X132459000Y-82100000D02*
X132638300Y-82100000D01*
X139245300Y-60451300D02*
X138110000Y-59316000D01*
X132638300Y-82100000D02*
X136311400Y-78426900D01*
X138110000Y-67742200D02*
X138110000Y-61856000D01*
X135795100Y-77687100D02*
X135795100Y-70057100D01*
X132632200Y-80850000D02*
X135795100Y-77687100D01*
X135795100Y-70057100D02*
X138110000Y-67742200D01*
X132459000Y-80850000D02*
X132632200Y-80850000D01*
X135185800Y-77090600D02*
X132676400Y-79600000D01*
X132676400Y-79600000D02*
X132459000Y-79600000D01*
X136706100Y-68190900D02*
X135185800Y-69711200D01*
X135185800Y-69711200D02*
X135185800Y-77090600D01*
X136706100Y-60452100D02*
X136706100Y-68190900D01*
X135570000Y-59316000D02*
X136706100Y-60452100D01*
X135570000Y-61856000D02*
X134735500Y-62690500D01*
X134735500Y-62690500D02*
X134735500Y-76279200D01*
X132664700Y-78350000D02*
X132459000Y-78350000D01*
X134735500Y-76279200D02*
X132664700Y-78350000D01*
X132640000Y-77100000D02*
X132459000Y-77100000D01*
X134165400Y-75574600D02*
X132640000Y-77100000D01*
X134165400Y-60451400D02*
X134165400Y-75574600D01*
X133030000Y-59316000D02*
X134165400Y-60451400D01*
X133438000Y-62264000D02*
X133438000Y-75044400D01*
X132632400Y-75850000D02*
X132459000Y-75850000D01*
X133438000Y-75044400D02*
X132632400Y-75850000D01*
X133030000Y-61856000D02*
X133438000Y-62264000D01*
X132459000Y-74600000D02*
X131647500Y-73788500D01*
X131647500Y-60473500D02*
X130490000Y-59316000D01*
X131647500Y-73788500D02*
X131647500Y-60473500D01*
X151008000Y-74600000D02*
X151008000Y-73584900D01*
X151984200Y-75037900D02*
X151984200Y-73139800D01*
X151172100Y-75850000D02*
X151984200Y-75037900D01*
X151984200Y-73139800D02*
X151595500Y-72751100D01*
X151008000Y-75850000D02*
X151172100Y-75850000D01*
X151199600Y-77100000D02*
X152750800Y-75548800D01*
X152750800Y-75548800D02*
X154506900Y-75548800D01*
X151008000Y-77100000D02*
X151199600Y-77100000D01*
X151008000Y-78350000D02*
X151205500Y-78350000D01*
X151205500Y-78350000D02*
X152761900Y-76793600D01*
X151008000Y-79600000D02*
X151225900Y-79600000D01*
X151225900Y-79600000D02*
X153776900Y-77049000D01*
X151159700Y-80850000D02*
X155598700Y-76411000D01*
X151008000Y-80850000D02*
X151159700Y-80850000D01*
X154742300Y-60463700D02*
X155890000Y-59316000D01*
X155598700Y-70832700D02*
X154742300Y-69976300D01*
X155598700Y-76411000D02*
X155598700Y-70832700D01*
X154742300Y-69976300D02*
X154742300Y-60463700D01*
X156049100Y-77281000D02*
X156049100Y-68472600D01*
X151230100Y-82100000D02*
X156049100Y-77281000D01*
X155890000Y-68313500D02*
X155890000Y-61856000D01*
X156049100Y-68472600D02*
X155890000Y-68313500D01*
X151008000Y-82100000D02*
X151230100Y-82100000D01*
X151008000Y-83350000D02*
X150824100Y-83350000D01*
X150005900Y-82531800D02*
X150005900Y-71769200D01*
X150824100Y-83350000D02*
X150005900Y-82531800D01*
X150005900Y-71769200D02*
X152472300Y-69302800D01*
X150795800Y-84600000D02*
X151008000Y-84600000D01*
X149555600Y-68147900D02*
X149555600Y-83359800D01*
X153350000Y-61856000D02*
X153350000Y-64353500D01*
X149555600Y-83359800D02*
X150795800Y-84600000D01*
X153350000Y-64353500D02*
X149555600Y-68147900D01*
X150825400Y-85850000D02*
X151008000Y-85850000D01*
X151967400Y-60473400D02*
X151967400Y-62987000D01*
X149105300Y-84129900D02*
X150825400Y-85850000D01*
X151967400Y-62987000D02*
X149105300Y-65849100D01*
X150810000Y-59316000D02*
X151967400Y-60473400D01*
X149105300Y-65849100D02*
X149105300Y-84129900D01*
X150810000Y-63507500D02*
X148655000Y-65662500D01*
X150810000Y-61856000D02*
X150810000Y-63507500D01*
X148655000Y-65662500D02*
X148655000Y-84930500D01*
X150824500Y-87100000D02*
X151008000Y-87100000D01*
X148655000Y-84930500D02*
X150824500Y-87100000D01*
X149410200Y-60456200D02*
X149410200Y-63202800D01*
X148270000Y-59316000D02*
X149410200Y-60456200D01*
X150834500Y-88350000D02*
X151008000Y-88350000D01*
X148204700Y-85720200D02*
X150834500Y-88350000D01*
X148204700Y-64408300D02*
X148204700Y-85720200D01*
X149410200Y-63202800D02*
X148204700Y-64408300D01*
X150826600Y-89600000D02*
X151008000Y-89600000D01*
X148270000Y-61856000D02*
X147754400Y-62371600D01*
X147754400Y-86527800D02*
X150826600Y-89600000D01*
X147754400Y-62371600D02*
X147754400Y-86527800D01*
X182582000Y-63148000D02*
X178750000Y-59316000D01*
X182582000Y-74600000D02*
X182582000Y-63148000D01*
X181605900Y-75050400D02*
X181605900Y-64711900D01*
X182405500Y-75850000D02*
X181605900Y-75050400D01*
X181605900Y-64711900D02*
X178750000Y-61856000D01*
X182582000Y-75850000D02*
X182405500Y-75850000D01*
X177480000Y-63229500D02*
X177480000Y-60586000D01*
X181155500Y-66905000D02*
X177480000Y-63229500D01*
X177480000Y-60586000D02*
X176210000Y-59316000D01*
X182378700Y-77100000D02*
X181155500Y-75876800D01*
X181155500Y-75876800D02*
X181155500Y-66905000D01*
X182582000Y-77100000D02*
X182378700Y-77100000D01*
X176210000Y-66943700D02*
X176210000Y-61856000D01*
X180693600Y-71427300D02*
X176210000Y-66943700D01*
X182395800Y-78350000D02*
X180693600Y-76647800D01*
X180693600Y-76647800D02*
X180693600Y-71427300D01*
X182582000Y-78350000D02*
X182395800Y-78350000D01*
X182385300Y-79600000D02*
X180243200Y-77457900D01*
X180243200Y-77457900D02*
X180243200Y-73425700D01*
X182582000Y-79600000D02*
X182385300Y-79600000D01*
X180243200Y-73425700D02*
X174940000Y-68122500D01*
X174940000Y-60586000D02*
X173670000Y-59316000D01*
X174940000Y-68122500D02*
X174940000Y-60586000D01*
X178699500Y-77117400D02*
X182432100Y-80850000D01*
X178699500Y-72518900D02*
X178699500Y-77117400D01*
X173670000Y-61856000D02*
X173670000Y-67489400D01*
X182432100Y-80850000D02*
X182582000Y-80850000D01*
X173670000Y-67489400D02*
X178699500Y-72518900D01*
X182822500Y-82100000D02*
X183861500Y-81061000D01*
X182582000Y-82100000D02*
X182822500Y-82100000D01*
X182582000Y-83350000D02*
X182426000Y-83350000D01*
X181303800Y-82227800D02*
X181303800Y-82046600D01*
X182426000Y-83350000D02*
X181303800Y-82227800D01*
X181320500Y-83569800D02*
X182350700Y-84600000D01*
X182350700Y-84600000D02*
X182582000Y-84600000D01*
X182582000Y-85850000D02*
X182102800Y-85850000D01*
X182102800Y-85850000D02*
X181304600Y-85051800D01*
X182293700Y-87100000D02*
X181328100Y-86134400D01*
X182582000Y-87100000D02*
X182293700Y-87100000D01*
X182259900Y-88350000D02*
X181325400Y-87415500D01*
X182582000Y-88350000D02*
X182259900Y-88350000D01*
X182431800Y-89600000D02*
X182582000Y-89600000D01*
X180294200Y-87462400D02*
X182431800Y-89600000D01*
G04 #@! TA.AperFunction,Conductor*
G36*
X182161651Y-51231502D02*
G01*
X182208144Y-51285158D01*
X182218248Y-51355432D01*
X182188754Y-51420012D01*
X182158490Y-51445464D01*
X182008969Y-51535427D01*
X181727715Y-51749231D01*
X181727709Y-51749237D01*
X181719870Y-51756661D01*
X182899204Y-52935995D01*
X182896635Y-52937570D01*
X182705130Y-53101130D01*
X182541570Y-53292635D01*
X182539995Y-53295204D01*
X181363641Y-52118850D01*
X181242517Y-52261449D01*
X181044258Y-52553859D01*
X181044256Y-52553863D01*
X180878776Y-52865994D01*
X180878772Y-52866003D01*
X180748010Y-53194188D01*
X180748009Y-53194191D01*
X180653496Y-53534598D01*
X180653496Y-53534601D01*
X180596342Y-53883230D01*
X180577215Y-54235997D01*
X180577215Y-54236002D01*
X180596342Y-54588769D01*
X180653496Y-54937398D01*
X180653496Y-54937401D01*
X180748009Y-55277808D01*
X180748010Y-55277811D01*
X180878772Y-55605996D01*
X180878776Y-55606005D01*
X181044256Y-55918136D01*
X181044258Y-55918140D01*
X181242518Y-56210551D01*
X181242517Y-56210551D01*
X181363640Y-56353148D01*
X182539994Y-55176794D01*
X182541570Y-55179365D01*
X182705130Y-55370870D01*
X182896635Y-55534430D01*
X182899203Y-55536004D01*
X181719870Y-56715337D01*
X181727713Y-56722766D01*
X181727719Y-56722771D01*
X182008969Y-56936572D01*
X182311678Y-57118706D01*
X182632316Y-57267049D01*
X182632320Y-57267051D01*
X182967103Y-57379852D01*
X182967117Y-57379856D01*
X183312127Y-57455800D01*
X183312151Y-57455804D01*
X183663348Y-57493999D01*
X183663364Y-57494000D01*
X184016636Y-57494000D01*
X184016651Y-57493999D01*
X184367848Y-57455804D01*
X184367872Y-57455800D01*
X184712882Y-57379856D01*
X184712896Y-57379852D01*
X185047679Y-57267051D01*
X185047683Y-57267049D01*
X185368321Y-57118706D01*
X185671030Y-56936572D01*
X185952276Y-56722774D01*
X185952282Y-56722769D01*
X185960127Y-56715338D01*
X185960127Y-56715336D01*
X184780795Y-55536004D01*
X184783365Y-55534430D01*
X184974870Y-55370870D01*
X185138430Y-55179365D01*
X185140004Y-55176795D01*
X186316357Y-56353148D01*
X186437482Y-56210551D01*
X186569711Y-56015527D01*
X186624495Y-55970369D01*
X186694996Y-55961998D01*
X186758831Y-55993071D01*
X186795733Y-56053724D01*
X186800000Y-56086236D01*
X186800000Y-64100002D01*
X186868144Y-64304435D01*
X186873058Y-64324566D01*
X186878368Y-64358088D01*
X186878371Y-64358103D01*
X186943755Y-64559334D01*
X186945274Y-64564009D01*
X187038551Y-64747074D01*
X187040912Y-64752281D01*
X187099999Y-64899999D01*
X187100000Y-64900000D01*
X187291033Y-65052826D01*
X187296213Y-65057463D01*
X187323922Y-65085172D01*
X187404922Y-65144022D01*
X187407188Y-65145750D01*
X187600000Y-65300000D01*
X187711831Y-65318638D01*
X187730034Y-65323086D01*
X187897903Y-65377630D01*
X188111746Y-65411500D01*
X188192520Y-65411500D01*
X189405469Y-65411500D01*
X189412425Y-65411500D01*
X189412779Y-65411503D01*
X189430259Y-65411669D01*
X189434558Y-65411858D01*
X189611679Y-65425798D01*
X189631186Y-65428888D01*
X189798755Y-65469117D01*
X189817544Y-65475222D01*
X189976753Y-65541169D01*
X189994363Y-65550142D01*
X190011507Y-65560648D01*
X190141288Y-65640178D01*
X190157284Y-65651800D01*
X190288311Y-65763708D01*
X190302291Y-65777688D01*
X190414199Y-65908715D01*
X190425821Y-65924711D01*
X190515855Y-66071633D01*
X190524831Y-66089249D01*
X190590774Y-66248447D01*
X190596884Y-66267252D01*
X190627746Y-66395805D01*
X190637109Y-66434803D01*
X190640202Y-66454331D01*
X190654306Y-66633537D01*
X190654500Y-66638482D01*
X190654500Y-96874000D01*
X190634498Y-96942121D01*
X190580842Y-96988614D01*
X190528500Y-97000000D01*
X103471500Y-97000000D01*
X103403379Y-96979998D01*
X103356886Y-96926342D01*
X103345500Y-96874000D01*
X103345500Y-93000552D01*
X106651499Y-93000552D01*
X106662112Y-93104421D01*
X106662112Y-93104423D01*
X106662113Y-93104425D01*
X106717885Y-93272738D01*
X106717886Y-93272739D01*
X106810970Y-93423651D01*
X106810975Y-93423657D01*
X106936342Y-93549024D01*
X106936348Y-93549029D01*
X106936349Y-93549030D01*
X107087262Y-93642115D01*
X107255575Y-93697887D01*
X107283906Y-93700781D01*
X107359448Y-93708500D01*
X107359456Y-93708500D01*
X109960552Y-93708500D01*
X110029798Y-93701424D01*
X110064425Y-93697887D01*
X110232738Y-93642115D01*
X110383651Y-93549030D01*
X110509030Y-93423651D01*
X110602115Y-93272738D01*
X110657887Y-93104425D01*
X110661424Y-93069798D01*
X110668500Y-93000552D01*
X117176499Y-93000552D01*
X117187112Y-93104421D01*
X117187112Y-93104423D01*
X117187113Y-93104425D01*
X117242885Y-93272738D01*
X117242886Y-93272739D01*
X117335970Y-93423651D01*
X117335975Y-93423657D01*
X117461342Y-93549024D01*
X117461348Y-93549029D01*
X117461349Y-93549030D01*
X117612262Y-93642115D01*
X117780575Y-93697887D01*
X117808906Y-93700781D01*
X117884448Y-93708500D01*
X117884456Y-93708500D01*
X120485552Y-93708500D01*
X120554798Y-93701424D01*
X120589425Y-93697887D01*
X120757738Y-93642115D01*
X120908651Y-93549030D01*
X121034030Y-93423651D01*
X121127115Y-93272738D01*
X121182887Y-93104425D01*
X121186424Y-93069798D01*
X121193500Y-93000552D01*
X127700499Y-93000552D01*
X127711112Y-93104421D01*
X127711112Y-93104423D01*
X127711113Y-93104425D01*
X127766885Y-93272738D01*
X127766886Y-93272739D01*
X127859970Y-93423651D01*
X127859975Y-93423657D01*
X127985342Y-93549024D01*
X127985348Y-93549029D01*
X127985349Y-93549030D01*
X128136262Y-93642115D01*
X128304575Y-93697887D01*
X128332906Y-93700781D01*
X128408448Y-93708500D01*
X128408456Y-93708500D01*
X131009552Y-93708500D01*
X131078798Y-93701424D01*
X131113425Y-93697887D01*
X131281738Y-93642115D01*
X131432651Y-93549030D01*
X131558030Y-93423651D01*
X131651115Y-93272738D01*
X131706887Y-93104425D01*
X131710424Y-93069798D01*
X131717500Y-93000552D01*
X138225499Y-93000552D01*
X138236112Y-93104421D01*
X138236112Y-93104423D01*
X138236113Y-93104425D01*
X138291885Y-93272738D01*
X138291886Y-93272739D01*
X138384970Y-93423651D01*
X138384975Y-93423657D01*
X138510342Y-93549024D01*
X138510348Y-93549029D01*
X138510349Y-93549030D01*
X138661262Y-93642115D01*
X138829575Y-93697887D01*
X138857906Y-93700781D01*
X138933448Y-93708500D01*
X138933456Y-93708500D01*
X141534552Y-93708500D01*
X141603798Y-93701424D01*
X141638425Y-93697887D01*
X141806738Y-93642115D01*
X141957651Y-93549030D01*
X142083030Y-93423651D01*
X142176115Y-93272738D01*
X142231887Y-93104425D01*
X142235424Y-93069798D01*
X142242500Y-93000552D01*
X151749499Y-93000552D01*
X151760112Y-93104421D01*
X151760112Y-93104423D01*
X151760113Y-93104425D01*
X151815885Y-93272738D01*
X151815886Y-93272739D01*
X151908970Y-93423651D01*
X151908975Y-93423657D01*
X152034342Y-93549024D01*
X152034348Y-93549029D01*
X152034349Y-93549030D01*
X152185262Y-93642115D01*
X152353575Y-93697887D01*
X152381906Y-93700781D01*
X152457448Y-93708500D01*
X152457456Y-93708500D01*
X155058552Y-93708500D01*
X155127798Y-93701424D01*
X155162425Y-93697887D01*
X155330738Y-93642115D01*
X155481651Y-93549030D01*
X155607030Y-93423651D01*
X155700115Y-93272738D01*
X155755887Y-93104425D01*
X155759424Y-93069798D01*
X155766500Y-93000552D01*
X162274499Y-93000552D01*
X162285112Y-93104421D01*
X162285112Y-93104423D01*
X162285113Y-93104425D01*
X162340885Y-93272738D01*
X162340886Y-93272739D01*
X162433970Y-93423651D01*
X162433975Y-93423657D01*
X162559342Y-93549024D01*
X162559348Y-93549029D01*
X162559349Y-93549030D01*
X162710262Y-93642115D01*
X162878575Y-93697887D01*
X162906906Y-93700781D01*
X162982448Y-93708500D01*
X162982456Y-93708500D01*
X165583552Y-93708500D01*
X165652798Y-93701424D01*
X165687425Y-93697887D01*
X165855738Y-93642115D01*
X166006651Y-93549030D01*
X166132030Y-93423651D01*
X166225115Y-93272738D01*
X166280887Y-93104425D01*
X166284424Y-93069798D01*
X166291500Y-93000552D01*
X172799499Y-93000552D01*
X172810112Y-93104421D01*
X172810112Y-93104423D01*
X172810113Y-93104425D01*
X172865885Y-93272738D01*
X172865886Y-93272739D01*
X172958970Y-93423651D01*
X172958975Y-93423657D01*
X173084342Y-93549024D01*
X173084348Y-93549029D01*
X173084349Y-93549030D01*
X173235262Y-93642115D01*
X173403575Y-93697887D01*
X173431906Y-93700781D01*
X173507448Y-93708500D01*
X173507456Y-93708500D01*
X176108552Y-93708500D01*
X176177798Y-93701424D01*
X176212425Y-93697887D01*
X176380738Y-93642115D01*
X176531651Y-93549030D01*
X176657030Y-93423651D01*
X176750115Y-93272738D01*
X176805887Y-93104425D01*
X176809424Y-93069798D01*
X176816500Y-93000552D01*
X183323499Y-93000552D01*
X183334112Y-93104421D01*
X183334112Y-93104423D01*
X183334113Y-93104425D01*
X183389885Y-93272738D01*
X183389886Y-93272739D01*
X183482970Y-93423651D01*
X183482975Y-93423657D01*
X183608342Y-93549024D01*
X183608348Y-93549029D01*
X183608349Y-93549030D01*
X183759262Y-93642115D01*
X183927575Y-93697887D01*
X183955906Y-93700781D01*
X184031448Y-93708500D01*
X184031456Y-93708500D01*
X186632552Y-93708500D01*
X186701798Y-93701424D01*
X186736425Y-93697887D01*
X186904738Y-93642115D01*
X187055651Y-93549030D01*
X187181030Y-93423651D01*
X187274115Y-93272738D01*
X187329887Y-93104425D01*
X187333424Y-93069798D01*
X187340500Y-93000552D01*
X187340500Y-91299447D01*
X187329887Y-91195578D01*
X187329887Y-91195575D01*
X187274115Y-91027262D01*
X187181030Y-90876349D01*
X187181029Y-90876348D01*
X187181024Y-90876342D01*
X187055657Y-90750975D01*
X187055651Y-90750970D01*
X186904738Y-90657885D01*
X186736425Y-90602113D01*
X186736423Y-90602112D01*
X186736421Y-90602112D01*
X186632552Y-90591500D01*
X186632544Y-90591500D01*
X184031456Y-90591500D01*
X184031448Y-90591500D01*
X183927578Y-90602112D01*
X183759262Y-90657885D01*
X183759260Y-90657886D01*
X183608348Y-90750970D01*
X183608342Y-90750975D01*
X183482975Y-90876342D01*
X183482970Y-90876348D01*
X183389886Y-91027260D01*
X183389885Y-91027262D01*
X183334112Y-91195578D01*
X183323500Y-91299447D01*
X183323500Y-93000552D01*
X183323499Y-93000552D01*
X176816500Y-93000552D01*
X176816500Y-91299447D01*
X176805887Y-91195578D01*
X176805887Y-91195575D01*
X176750115Y-91027262D01*
X176657030Y-90876349D01*
X176657029Y-90876348D01*
X176657024Y-90876342D01*
X176531657Y-90750975D01*
X176531651Y-90750970D01*
X176380738Y-90657885D01*
X176212425Y-90602113D01*
X176212423Y-90602112D01*
X176212421Y-90602112D01*
X176108552Y-90591500D01*
X176108544Y-90591500D01*
X173507456Y-90591500D01*
X173507448Y-90591500D01*
X173403578Y-90602112D01*
X173235262Y-90657885D01*
X173235260Y-90657886D01*
X173084348Y-90750970D01*
X173084342Y-90750975D01*
X172958975Y-90876342D01*
X172958970Y-90876348D01*
X172865886Y-91027260D01*
X172865885Y-91027262D01*
X172810112Y-91195578D01*
X172799500Y-91299447D01*
X172799500Y-93000552D01*
X172799499Y-93000552D01*
X166291500Y-93000552D01*
X166291500Y-91299447D01*
X166280887Y-91195578D01*
X166280887Y-91195575D01*
X166225115Y-91027262D01*
X166132030Y-90876349D01*
X166132029Y-90876348D01*
X166132024Y-90876342D01*
X166006657Y-90750975D01*
X166006651Y-90750970D01*
X165855738Y-90657885D01*
X165687425Y-90602113D01*
X165687423Y-90602112D01*
X165687421Y-90602112D01*
X165583552Y-90591500D01*
X165583544Y-90591500D01*
X162982456Y-90591500D01*
X162982448Y-90591500D01*
X162878578Y-90602112D01*
X162710262Y-90657885D01*
X162710260Y-90657886D01*
X162559348Y-90750970D01*
X162559342Y-90750975D01*
X162433975Y-90876342D01*
X162433970Y-90876348D01*
X162340886Y-91027260D01*
X162340885Y-91027262D01*
X162285112Y-91195578D01*
X162274500Y-91299447D01*
X162274500Y-93000552D01*
X162274499Y-93000552D01*
X155766500Y-93000552D01*
X155766500Y-91299447D01*
X155755887Y-91195578D01*
X155755887Y-91195575D01*
X155700115Y-91027262D01*
X155607030Y-90876349D01*
X155607029Y-90876348D01*
X155607024Y-90876342D01*
X155481657Y-90750975D01*
X155481651Y-90750970D01*
X155330738Y-90657885D01*
X155162425Y-90602113D01*
X155162423Y-90602112D01*
X155162421Y-90602112D01*
X155058552Y-90591500D01*
X155058544Y-90591500D01*
X152457456Y-90591500D01*
X152457448Y-90591500D01*
X152353578Y-90602112D01*
X152185262Y-90657885D01*
X152185260Y-90657886D01*
X152034348Y-90750970D01*
X152034342Y-90750975D01*
X151908975Y-90876342D01*
X151908970Y-90876348D01*
X151815886Y-91027260D01*
X151815885Y-91027262D01*
X151760112Y-91195578D01*
X151749500Y-91299447D01*
X151749500Y-93000552D01*
X151749499Y-93000552D01*
X142242500Y-93000552D01*
X142242500Y-91299447D01*
X142231887Y-91195578D01*
X142231887Y-91195575D01*
X142176115Y-91027262D01*
X142083030Y-90876349D01*
X142083029Y-90876348D01*
X142083024Y-90876342D01*
X141957657Y-90750975D01*
X141957651Y-90750970D01*
X141806738Y-90657885D01*
X141638425Y-90602113D01*
X141638423Y-90602112D01*
X141638421Y-90602112D01*
X141534552Y-90591500D01*
X141534544Y-90591500D01*
X138933456Y-90591500D01*
X138933448Y-90591500D01*
X138829578Y-90602112D01*
X138661262Y-90657885D01*
X138661260Y-90657886D01*
X138510348Y-90750970D01*
X138510342Y-90750975D01*
X138384975Y-90876342D01*
X138384970Y-90876348D01*
X138291886Y-91027260D01*
X138291885Y-91027262D01*
X138236112Y-91195578D01*
X138225500Y-91299447D01*
X138225500Y-93000552D01*
X138225499Y-93000552D01*
X131717500Y-93000552D01*
X131717500Y-91299447D01*
X131706887Y-91195578D01*
X131706887Y-91195575D01*
X131651115Y-91027262D01*
X131558030Y-90876349D01*
X131558029Y-90876348D01*
X131558024Y-90876342D01*
X131432657Y-90750975D01*
X131432651Y-90750970D01*
X131281738Y-90657885D01*
X131113425Y-90602113D01*
X131113423Y-90602112D01*
X131113421Y-90602112D01*
X131009552Y-90591500D01*
X131009544Y-90591500D01*
X128408456Y-90591500D01*
X128408448Y-90591500D01*
X128304578Y-90602112D01*
X128136262Y-90657885D01*
X128136260Y-90657886D01*
X127985348Y-90750970D01*
X127985342Y-90750975D01*
X127859975Y-90876342D01*
X127859970Y-90876348D01*
X127766886Y-91027260D01*
X127766885Y-91027262D01*
X127711112Y-91195578D01*
X127700500Y-91299447D01*
X127700500Y-93000552D01*
X127700499Y-93000552D01*
X121193500Y-93000552D01*
X121193500Y-91299447D01*
X121182887Y-91195578D01*
X121182887Y-91195575D01*
X121127115Y-91027262D01*
X121034030Y-90876349D01*
X121034029Y-90876348D01*
X121034024Y-90876342D01*
X120908657Y-90750975D01*
X120908651Y-90750970D01*
X120757738Y-90657885D01*
X120589425Y-90602113D01*
X120589423Y-90602112D01*
X120589421Y-90602112D01*
X120485552Y-90591500D01*
X120485544Y-90591500D01*
X117884456Y-90591500D01*
X117884448Y-90591500D01*
X117780578Y-90602112D01*
X117612262Y-90657885D01*
X117612260Y-90657886D01*
X117461348Y-90750970D01*
X117461342Y-90750975D01*
X117335975Y-90876342D01*
X117335970Y-90876348D01*
X117242886Y-91027260D01*
X117242885Y-91027262D01*
X117187112Y-91195578D01*
X117176500Y-91299447D01*
X117176500Y-93000552D01*
X117176499Y-93000552D01*
X110668500Y-93000552D01*
X110668500Y-91299447D01*
X110657887Y-91195578D01*
X110657887Y-91195575D01*
X110602115Y-91027262D01*
X110509030Y-90876349D01*
X110509029Y-90876348D01*
X110509024Y-90876342D01*
X110383657Y-90750975D01*
X110383651Y-90750970D01*
X110232738Y-90657885D01*
X110064425Y-90602113D01*
X110064423Y-90602112D01*
X110064421Y-90602112D01*
X109960552Y-90591500D01*
X109960544Y-90591500D01*
X107359456Y-90591500D01*
X107359448Y-90591500D01*
X107255578Y-90602112D01*
X107087262Y-90657885D01*
X107087260Y-90657886D01*
X106936348Y-90750970D01*
X106936342Y-90750975D01*
X106810975Y-90876342D01*
X106810970Y-90876348D01*
X106717886Y-91027260D01*
X106717885Y-91027262D01*
X106662112Y-91195578D01*
X106651500Y-91299447D01*
X106651500Y-93000552D01*
X106651499Y-93000552D01*
X103345500Y-93000552D01*
X103345500Y-72900552D01*
X106651499Y-72900552D01*
X106662112Y-73004421D01*
X106662112Y-73004423D01*
X106662113Y-73004425D01*
X106717885Y-73172738D01*
X106776740Y-73268156D01*
X106810970Y-73323651D01*
X106810975Y-73323657D01*
X106936342Y-73449024D01*
X106936348Y-73449029D01*
X106936349Y-73449030D01*
X107087262Y-73542115D01*
X107255575Y-73597887D01*
X107283906Y-73600781D01*
X107359448Y-73608500D01*
X107359456Y-73608500D01*
X109185579Y-73608500D01*
X109253700Y-73628502D01*
X109300193Y-73682158D01*
X109309544Y-73747201D01*
X109310129Y-73747220D01*
X109310024Y-73750538D01*
X109310297Y-73752432D01*
X109310027Y-73754214D01*
X109309880Y-73755141D01*
X109309880Y-73755143D01*
X109314320Y-73802117D01*
X109314600Y-73808050D01*
X109314600Y-76948046D01*
X109312851Y-76963888D01*
X109313144Y-76963916D01*
X109312398Y-76971807D01*
X109314600Y-77041857D01*
X109314600Y-77071751D01*
X109314601Y-77071772D01*
X109315478Y-77078720D01*
X109315944Y-77084632D01*
X109317426Y-77131788D01*
X109317427Y-77131793D01*
X109323077Y-77151239D01*
X109327086Y-77170597D01*
X109329625Y-77190693D01*
X109329626Y-77190699D01*
X109346993Y-77234562D01*
X109348916Y-77240179D01*
X109362082Y-77285493D01*
X109372394Y-77302931D01*
X109381088Y-77320679D01*
X109388544Y-77339509D01*
X109388550Y-77339520D01*
X109416277Y-77377683D01*
X109419537Y-77382646D01*
X109443560Y-77423265D01*
X109457879Y-77437584D01*
X109470717Y-77452614D01*
X109480146Y-77465591D01*
X109482628Y-77469007D01*
X109496232Y-77480261D01*
X109518986Y-77499085D01*
X109523367Y-77503071D01*
X109877383Y-77857087D01*
X110214595Y-78194299D01*
X110248621Y-78256611D01*
X110251500Y-78283394D01*
X110251500Y-78607261D01*
X110257986Y-78678646D01*
X110257986Y-78678647D01*
X110309172Y-78842912D01*
X110349616Y-78909816D01*
X110367739Y-78978461D01*
X110349616Y-79040184D01*
X110309172Y-79107087D01*
X110257986Y-79271353D01*
X110251500Y-79342737D01*
X110251500Y-79857261D01*
X110257986Y-79928646D01*
X110257986Y-79928647D01*
X110309172Y-80092912D01*
X110349616Y-80159816D01*
X110367739Y-80228461D01*
X110349616Y-80290184D01*
X110309172Y-80357087D01*
X110257986Y-80521353D01*
X110255874Y-80544599D01*
X110251914Y-80588186D01*
X110251500Y-80592737D01*
X110251500Y-81107261D01*
X110257986Y-81178646D01*
X110257986Y-81178647D01*
X110309172Y-81342912D01*
X110349616Y-81409816D01*
X110367739Y-81478461D01*
X110349616Y-81540184D01*
X110309172Y-81607087D01*
X110257986Y-81771353D01*
X110251500Y-81842737D01*
X110251500Y-82357261D01*
X110257986Y-82428646D01*
X110257986Y-82428647D01*
X110309172Y-82592912D01*
X110349616Y-82659816D01*
X110367739Y-82728461D01*
X110349616Y-82790184D01*
X110309172Y-82857087D01*
X110257986Y-83021353D01*
X110251500Y-83092737D01*
X110251500Y-83607261D01*
X110257986Y-83678646D01*
X110257986Y-83678647D01*
X110309172Y-83842912D01*
X110349616Y-83909816D01*
X110367739Y-83978461D01*
X110349616Y-84040184D01*
X110309172Y-84107087D01*
X110257986Y-84271353D01*
X110251500Y-84342737D01*
X110251500Y-84857261D01*
X110257985Y-84928639D01*
X110258995Y-84933712D01*
X110252670Y-85004427D01*
X110209119Y-85060496D01*
X110142168Y-85084119D01*
X110135417Y-85084300D01*
X110043113Y-85084300D01*
X109856311Y-85124006D01*
X109681847Y-85201682D01*
X109527344Y-85313935D01*
X109399565Y-85455848D01*
X109399558Y-85455858D01*
X109304076Y-85621238D01*
X109304073Y-85621244D01*
X109303594Y-85622718D01*
X109245057Y-85802872D01*
X109225096Y-85992800D01*
X109245057Y-86182727D01*
X109264842Y-86243616D01*
X109304073Y-86364356D01*
X109319267Y-86390672D01*
X109399558Y-86529741D01*
X109399561Y-86529745D01*
X109421104Y-86553671D01*
X109451821Y-86617679D01*
X109443056Y-86688132D01*
X109421106Y-86722288D01*
X109409159Y-86735556D01*
X109409158Y-86735558D01*
X109313676Y-86900938D01*
X109313673Y-86900944D01*
X109303600Y-86931945D01*
X109254657Y-87082572D01*
X109234696Y-87272500D01*
X109254657Y-87462427D01*
X109282622Y-87548493D01*
X109313673Y-87644056D01*
X109313676Y-87644061D01*
X109409158Y-87809441D01*
X109409165Y-87809451D01*
X109536944Y-87951364D01*
X109536947Y-87951366D01*
X109691448Y-88063618D01*
X109865912Y-88141294D01*
X110052713Y-88181000D01*
X110108606Y-88181000D01*
X110176727Y-88201002D01*
X110197701Y-88217905D01*
X110214595Y-88234799D01*
X110248621Y-88297111D01*
X110251500Y-88323894D01*
X110251500Y-88607261D01*
X110257986Y-88678646D01*
X110257986Y-88678647D01*
X110309172Y-88842912D01*
X110349616Y-88909816D01*
X110367739Y-88978461D01*
X110349616Y-89040184D01*
X110309172Y-89107087D01*
X110257986Y-89271353D01*
X110251500Y-89342737D01*
X110251500Y-89857261D01*
X110257986Y-89928646D01*
X110257986Y-89928647D01*
X110309170Y-90092906D01*
X110309172Y-90092911D01*
X110398184Y-90240155D01*
X110398188Y-90240160D01*
X110519839Y-90361811D01*
X110519844Y-90361815D01*
X110519845Y-90361816D01*
X110667087Y-90450827D01*
X110831351Y-90502013D01*
X110902735Y-90508500D01*
X111917264Y-90508499D01*
X111988649Y-90502013D01*
X112152913Y-90450827D01*
X112300155Y-90361816D01*
X112421816Y-90240155D01*
X112510827Y-90092913D01*
X112562013Y-89928649D01*
X112568500Y-89857265D01*
X112568499Y-89616695D01*
X112588501Y-89548575D01*
X112605405Y-89527598D01*
X112634601Y-89498403D01*
X112696914Y-89464379D01*
X112723695Y-89461500D01*
X112779587Y-89461500D01*
X112966388Y-89421794D01*
X113140852Y-89344118D01*
X113295353Y-89231866D01*
X113393880Y-89122441D01*
X113423134Y-89089951D01*
X113423135Y-89089949D01*
X113423140Y-89089944D01*
X113518627Y-88924556D01*
X113577642Y-88742928D01*
X113597604Y-88553000D01*
X113577642Y-88363072D01*
X113518627Y-88181444D01*
X113423140Y-88016056D01*
X113423138Y-88016054D01*
X113423134Y-88016048D01*
X113295355Y-87874135D01*
X113140852Y-87761882D01*
X112966388Y-87684206D01*
X112779587Y-87644500D01*
X112665990Y-87644500D01*
X112597869Y-87624498D01*
X112551376Y-87570842D01*
X112541272Y-87500568D01*
X112545695Y-87481015D01*
X112562013Y-87428649D01*
X112568500Y-87357265D01*
X112568499Y-86842736D01*
X112562013Y-86771351D01*
X112510827Y-86607087D01*
X112470380Y-86540181D01*
X112452257Y-86471542D01*
X112470380Y-86409819D01*
X112510827Y-86342913D01*
X112562013Y-86178649D01*
X112568500Y-86107265D01*
X112568499Y-85883594D01*
X112588501Y-85815474D01*
X112605399Y-85794503D01*
X113382700Y-85017204D01*
X113445012Y-84983179D01*
X113471795Y-84980300D01*
X113527687Y-84980300D01*
X113714488Y-84940594D01*
X113888952Y-84862918D01*
X114043453Y-84750666D01*
X114082402Y-84707409D01*
X114171234Y-84608751D01*
X114171235Y-84608749D01*
X114171240Y-84608744D01*
X114266727Y-84443356D01*
X114325742Y-84261728D01*
X114345704Y-84071800D01*
X114325742Y-83881872D01*
X114266727Y-83700244D01*
X114171240Y-83534856D01*
X114171238Y-83534854D01*
X114171234Y-83534848D01*
X114043455Y-83392935D01*
X114043454Y-83392934D01*
X113991082Y-83354883D01*
X113947729Y-83298661D01*
X113941654Y-83227925D01*
X113974786Y-83165133D01*
X113975974Y-83163928D01*
X117972657Y-79167245D01*
X117985092Y-79157284D01*
X117984905Y-79157057D01*
X117991009Y-79152005D01*
X117991018Y-79152000D01*
X118038999Y-79100904D01*
X118060135Y-79079769D01*
X118064437Y-79074221D01*
X118068267Y-79069735D01*
X118100586Y-79035321D01*
X118110345Y-79017567D01*
X118121204Y-79001038D01*
X118133614Y-78985040D01*
X118152354Y-78941732D01*
X118154965Y-78936404D01*
X118177695Y-78895060D01*
X118182733Y-78875435D01*
X118189138Y-78856730D01*
X118197181Y-78838145D01*
X118204561Y-78791547D01*
X118205762Y-78785740D01*
X118217500Y-78740030D01*
X118217500Y-78719775D01*
X118219051Y-78700063D01*
X118222220Y-78680057D01*
X118219629Y-78652651D01*
X118217780Y-78633080D01*
X118217500Y-78627148D01*
X118217500Y-76829393D01*
X118237502Y-76761272D01*
X118254400Y-76740303D01*
X119819800Y-75174902D01*
X119882110Y-75140879D01*
X119952925Y-75145943D01*
X120002529Y-75179689D01*
X120019344Y-75198364D01*
X120019347Y-75198366D01*
X120173848Y-75310618D01*
X120348312Y-75388294D01*
X120371207Y-75393160D01*
X120433681Y-75426886D01*
X120434108Y-75427312D01*
X120739595Y-75732799D01*
X120773621Y-75795111D01*
X120776500Y-75821894D01*
X120776500Y-75906200D01*
X120756498Y-75974321D01*
X120702842Y-76020814D01*
X120650500Y-76032200D01*
X120583613Y-76032200D01*
X120396811Y-76071906D01*
X120222347Y-76149582D01*
X120067844Y-76261835D01*
X119940065Y-76403748D01*
X119940058Y-76403758D01*
X119846128Y-76566450D01*
X119844573Y-76569144D01*
X119832244Y-76607088D01*
X119785557Y-76750772D01*
X119765596Y-76940700D01*
X119785557Y-77130627D01*
X119805074Y-77190693D01*
X119844573Y-77312256D01*
X119844574Y-77312257D01*
X119844575Y-77312261D01*
X119893602Y-77397176D01*
X119910340Y-77466171D01*
X119887120Y-77533263D01*
X119858544Y-77562112D01*
X119715644Y-77665935D01*
X119587865Y-77807848D01*
X119587858Y-77807858D01*
X119492376Y-77973238D01*
X119492373Y-77973245D01*
X119433357Y-78154872D01*
X119415417Y-78325568D01*
X119392049Y-78386450D01*
X119388613Y-78391179D01*
X119378851Y-78408935D01*
X119368003Y-78425450D01*
X119355586Y-78441458D01*
X119336845Y-78484764D01*
X119334234Y-78490094D01*
X119311505Y-78531439D01*
X119311503Y-78531444D01*
X119306467Y-78551059D01*
X119300064Y-78569762D01*
X119292019Y-78588352D01*
X119284637Y-78634956D01*
X119283433Y-78640768D01*
X119271700Y-78686468D01*
X119271700Y-78706723D01*
X119270149Y-78726433D01*
X119266980Y-78746442D01*
X119266980Y-78746443D01*
X119271420Y-78793417D01*
X119271700Y-78799350D01*
X119271700Y-80133246D01*
X119269951Y-80149088D01*
X119270244Y-80149116D01*
X119269498Y-80157007D01*
X119271700Y-80227057D01*
X119271700Y-80256951D01*
X119271701Y-80256972D01*
X119272578Y-80263920D01*
X119273044Y-80269832D01*
X119274526Y-80316988D01*
X119274527Y-80316993D01*
X119280177Y-80336439D01*
X119284186Y-80355797D01*
X119286725Y-80375893D01*
X119286726Y-80375899D01*
X119304093Y-80419762D01*
X119306016Y-80425379D01*
X119319182Y-80470693D01*
X119329494Y-80488131D01*
X119338188Y-80505879D01*
X119345644Y-80524709D01*
X119345650Y-80524720D01*
X119373377Y-80562883D01*
X119376637Y-80567846D01*
X119400660Y-80608465D01*
X119414979Y-80622784D01*
X119427817Y-80637814D01*
X119437356Y-80650943D01*
X119439728Y-80654207D01*
X119467994Y-80677591D01*
X119476086Y-80684285D01*
X119480467Y-80688271D01*
X120127560Y-81335364D01*
X120739595Y-81947399D01*
X120773621Y-82009711D01*
X120776500Y-82036494D01*
X120776500Y-82357261D01*
X120782986Y-82428646D01*
X120782986Y-82428647D01*
X120834172Y-82592912D01*
X120874616Y-82659816D01*
X120892739Y-82728461D01*
X120874616Y-82790184D01*
X120834172Y-82857087D01*
X120782986Y-83021353D01*
X120776500Y-83092737D01*
X120776500Y-83607261D01*
X120782986Y-83678646D01*
X120782986Y-83678647D01*
X120834172Y-83842912D01*
X120874616Y-83909816D01*
X120892739Y-83978461D01*
X120874616Y-84040184D01*
X120834172Y-84107087D01*
X120782986Y-84271353D01*
X120776500Y-84342737D01*
X120776500Y-84857261D01*
X120782986Y-84928646D01*
X120782986Y-84928647D01*
X120834172Y-85092912D01*
X120874616Y-85159816D01*
X120892739Y-85228461D01*
X120874616Y-85290184D01*
X120834172Y-85357087D01*
X120782986Y-85521353D01*
X120776500Y-85592737D01*
X120776500Y-86107261D01*
X120782986Y-86178646D01*
X120782986Y-86178647D01*
X120834172Y-86342912D01*
X120874616Y-86409816D01*
X120892739Y-86478461D01*
X120874616Y-86540184D01*
X120834172Y-86607087D01*
X120782986Y-86771353D01*
X120776500Y-86842737D01*
X120776500Y-87357261D01*
X120782986Y-87428646D01*
X120782986Y-87428647D01*
X120834172Y-87592912D01*
X120874616Y-87659816D01*
X120892739Y-87728461D01*
X120874616Y-87790184D01*
X120834172Y-87857087D01*
X120782986Y-88021353D01*
X120776500Y-88092737D01*
X120776500Y-88607261D01*
X120782986Y-88678646D01*
X120782986Y-88678647D01*
X120834172Y-88842912D01*
X120874616Y-88909816D01*
X120892739Y-88978461D01*
X120874616Y-89040184D01*
X120834172Y-89107087D01*
X120782986Y-89271353D01*
X120776500Y-89342737D01*
X120776500Y-89857261D01*
X120782986Y-89928646D01*
X120782986Y-89928647D01*
X120834170Y-90092906D01*
X120834172Y-90092911D01*
X120923184Y-90240155D01*
X120923188Y-90240160D01*
X121044839Y-90361811D01*
X121044844Y-90361815D01*
X121044845Y-90361816D01*
X121192087Y-90450827D01*
X121356351Y-90502013D01*
X121427735Y-90508500D01*
X122442264Y-90508499D01*
X122513649Y-90502013D01*
X122677913Y-90450827D01*
X122825155Y-90361816D01*
X122946816Y-90240155D01*
X123035827Y-90092913D01*
X123087013Y-89928649D01*
X123093500Y-89857265D01*
X123093499Y-89614293D01*
X123113501Y-89546173D01*
X123130399Y-89525203D01*
X127969457Y-84686145D01*
X127981892Y-84676184D01*
X127981705Y-84675957D01*
X127987809Y-84670905D01*
X127987818Y-84670900D01*
X128035799Y-84619804D01*
X128056934Y-84598670D01*
X128061229Y-84593132D01*
X128065071Y-84588631D01*
X128097386Y-84554221D01*
X128107145Y-84536467D01*
X128117997Y-84519946D01*
X128130413Y-84503941D01*
X128149147Y-84460648D01*
X128151761Y-84455312D01*
X128174494Y-84413961D01*
X128174495Y-84413960D01*
X128179533Y-84394335D01*
X128185938Y-84375630D01*
X128187105Y-84372934D01*
X128193981Y-84357045D01*
X128201361Y-84310447D01*
X128202562Y-84304640D01*
X128214300Y-84258930D01*
X128214300Y-84238675D01*
X128215851Y-84218963D01*
X128216057Y-84217661D01*
X128219020Y-84198957D01*
X128214651Y-84152734D01*
X128214580Y-84151980D01*
X128214300Y-84146048D01*
X128214300Y-73728192D01*
X128234302Y-73660071D01*
X128287958Y-73613578D01*
X128353107Y-73602845D01*
X128377270Y-73605313D01*
X128408450Y-73608500D01*
X130885927Y-73608500D01*
X130954048Y-73628502D01*
X131000541Y-73682158D01*
X131011865Y-73730541D01*
X131014000Y-73798457D01*
X131014000Y-73828351D01*
X131014001Y-73828372D01*
X131014878Y-73835320D01*
X131015344Y-73841232D01*
X131016826Y-73888388D01*
X131016827Y-73888393D01*
X131022477Y-73907839D01*
X131026486Y-73927197D01*
X131029025Y-73947293D01*
X131029026Y-73947299D01*
X131046393Y-73991162D01*
X131048316Y-73996779D01*
X131061482Y-74042093D01*
X131071794Y-74059531D01*
X131080488Y-74077279D01*
X131087944Y-74096109D01*
X131087950Y-74096120D01*
X131115677Y-74134283D01*
X131118937Y-74139246D01*
X131142960Y-74179865D01*
X131157279Y-74194184D01*
X131170117Y-74209214D01*
X131179656Y-74222343D01*
X131182028Y-74225607D01*
X131210294Y-74248991D01*
X131218386Y-74255685D01*
X131222767Y-74259671D01*
X131263594Y-74300498D01*
X131263595Y-74300499D01*
X131297621Y-74362811D01*
X131300500Y-74389594D01*
X131300500Y-74857261D01*
X131306986Y-74928646D01*
X131306986Y-74928647D01*
X131358172Y-75092912D01*
X131398616Y-75159816D01*
X131416739Y-75228461D01*
X131398616Y-75290184D01*
X131358172Y-75357087D01*
X131306986Y-75521353D01*
X131305041Y-75542761D01*
X131300879Y-75588570D01*
X131300500Y-75592737D01*
X131300500Y-76107261D01*
X131306986Y-76178646D01*
X131306986Y-76178647D01*
X131358172Y-76342912D01*
X131398616Y-76409816D01*
X131416739Y-76478461D01*
X131398616Y-76540184D01*
X131358172Y-76607087D01*
X131306986Y-76771353D01*
X131300500Y-76842737D01*
X131300500Y-77357261D01*
X131306986Y-77428646D01*
X131306986Y-77428647D01*
X131358172Y-77592912D01*
X131398616Y-77659816D01*
X131416739Y-77728461D01*
X131398616Y-77790184D01*
X131358172Y-77857087D01*
X131306986Y-78021353D01*
X131300500Y-78092737D01*
X131300500Y-78607261D01*
X131306986Y-78678646D01*
X131306986Y-78678647D01*
X131358172Y-78842912D01*
X131398616Y-78909816D01*
X131416739Y-78978461D01*
X131398616Y-79040184D01*
X131358172Y-79107087D01*
X131306986Y-79271353D01*
X131300500Y-79342737D01*
X131300500Y-79857261D01*
X131306986Y-79928646D01*
X131306986Y-79928647D01*
X131358172Y-80092912D01*
X131398616Y-80159816D01*
X131416739Y-80228461D01*
X131398616Y-80290184D01*
X131358172Y-80357087D01*
X131306986Y-80521353D01*
X131304874Y-80544599D01*
X131300914Y-80588186D01*
X131300500Y-80592737D01*
X131300500Y-81107261D01*
X131306986Y-81178646D01*
X131306986Y-81178647D01*
X131358172Y-81342912D01*
X131398616Y-81409816D01*
X131416739Y-81478461D01*
X131398616Y-81540184D01*
X131358172Y-81607087D01*
X131306986Y-81771353D01*
X131300500Y-81842737D01*
X131300500Y-82357261D01*
X131306986Y-82428646D01*
X131306986Y-82428647D01*
X131358172Y-82592912D01*
X131398616Y-82659816D01*
X131416739Y-82728461D01*
X131398616Y-82790184D01*
X131358172Y-82857087D01*
X131306986Y-83021353D01*
X131300500Y-83092737D01*
X131300500Y-83607261D01*
X131306986Y-83678646D01*
X131306986Y-83678647D01*
X131358172Y-83842912D01*
X131398616Y-83909816D01*
X131416739Y-83978461D01*
X131398616Y-84040184D01*
X131358172Y-84107087D01*
X131306986Y-84271353D01*
X131300500Y-84342737D01*
X131300500Y-84857261D01*
X131306986Y-84928646D01*
X131306986Y-84928647D01*
X131358172Y-85092912D01*
X131398616Y-85159816D01*
X131416739Y-85228461D01*
X131398616Y-85290184D01*
X131358172Y-85357087D01*
X131306986Y-85521353D01*
X131300500Y-85592737D01*
X131300500Y-86107261D01*
X131306986Y-86178646D01*
X131306986Y-86178647D01*
X131358172Y-86342912D01*
X131398616Y-86409816D01*
X131416739Y-86478461D01*
X131398616Y-86540184D01*
X131358172Y-86607087D01*
X131306986Y-86771353D01*
X131300500Y-86842737D01*
X131300500Y-87357261D01*
X131306986Y-87428646D01*
X131306986Y-87428647D01*
X131358172Y-87592912D01*
X131398616Y-87659816D01*
X131416739Y-87728461D01*
X131398616Y-87790184D01*
X131358172Y-87857087D01*
X131306986Y-88021353D01*
X131300500Y-88092737D01*
X131300500Y-88607261D01*
X131306986Y-88678646D01*
X131306986Y-88678647D01*
X131358172Y-88842912D01*
X131398616Y-88909816D01*
X131416739Y-88978461D01*
X131398616Y-89040184D01*
X131358172Y-89107087D01*
X131306986Y-89271353D01*
X131300500Y-89342737D01*
X131300500Y-89857261D01*
X131306986Y-89928646D01*
X131306986Y-89928647D01*
X131358170Y-90092906D01*
X131358172Y-90092911D01*
X131447184Y-90240155D01*
X131447188Y-90240160D01*
X131568839Y-90361811D01*
X131568844Y-90361815D01*
X131568845Y-90361816D01*
X131716087Y-90450827D01*
X131880351Y-90502013D01*
X131951735Y-90508500D01*
X132966264Y-90508499D01*
X133037649Y-90502013D01*
X133201913Y-90450827D01*
X133349155Y-90361816D01*
X133470816Y-90240155D01*
X133559827Y-90092913D01*
X133611013Y-89928649D01*
X133617500Y-89857265D01*
X133617499Y-89630095D01*
X133637501Y-89561975D01*
X133654408Y-89540995D01*
X133664504Y-89530900D01*
X133726818Y-89496878D01*
X133753595Y-89494000D01*
X133809487Y-89494000D01*
X133996288Y-89454294D01*
X134170752Y-89376618D01*
X134325253Y-89264366D01*
X134354518Y-89231864D01*
X134453034Y-89122451D01*
X134453035Y-89122449D01*
X134453040Y-89122444D01*
X134548527Y-88957056D01*
X134607542Y-88775428D01*
X134627504Y-88585500D01*
X134607542Y-88395572D01*
X134548527Y-88213944D01*
X134453040Y-88048556D01*
X134453038Y-88048554D01*
X134453034Y-88048548D01*
X134442712Y-88037085D01*
X134411994Y-87973078D01*
X134420757Y-87902624D01*
X134442711Y-87868463D01*
X134467940Y-87840444D01*
X134563427Y-87675056D01*
X134622442Y-87493428D01*
X134642404Y-87303500D01*
X134622442Y-87113572D01*
X134563427Y-86931944D01*
X134467940Y-86766556D01*
X134467938Y-86766554D01*
X134467934Y-86766548D01*
X134340155Y-86624635D01*
X134281064Y-86581703D01*
X134237710Y-86525481D01*
X134231635Y-86454744D01*
X134264767Y-86391953D01*
X134265958Y-86390744D01*
X138554960Y-82101743D01*
X138567398Y-82091780D01*
X138567210Y-82091553D01*
X138573313Y-82086502D01*
X138573318Y-82086500D01*
X138621283Y-82035421D01*
X138642435Y-82014270D01*
X138646745Y-82008712D01*
X138650574Y-82004229D01*
X138682886Y-81969821D01*
X138692646Y-81952065D01*
X138703495Y-81935550D01*
X138715914Y-81919541D01*
X138734663Y-81876210D01*
X138737253Y-81870923D01*
X138759995Y-81829560D01*
X138765033Y-81809934D01*
X138771437Y-81791232D01*
X138779480Y-81772647D01*
X138779479Y-81772647D01*
X138779481Y-81772645D01*
X138786861Y-81726047D01*
X138788062Y-81720240D01*
X138799800Y-81674530D01*
X138799800Y-81654275D01*
X138801351Y-81634563D01*
X138804520Y-81614557D01*
X138801929Y-81587151D01*
X138800080Y-81567580D01*
X138799800Y-81561648D01*
X138799800Y-78126094D01*
X138819802Y-78057973D01*
X138873458Y-78011480D01*
X138943732Y-78001376D01*
X139008312Y-78030870D01*
X139014895Y-78036999D01*
X141788595Y-80810699D01*
X141822621Y-80873011D01*
X141825500Y-80899793D01*
X141825501Y-81034299D01*
X141805499Y-81102420D01*
X141751844Y-81148913D01*
X141699501Y-81160300D01*
X141516113Y-81160300D01*
X141329311Y-81200006D01*
X141154847Y-81277682D01*
X141000344Y-81389935D01*
X140872565Y-81531848D01*
X140872558Y-81531858D01*
X140777076Y-81697238D01*
X140777073Y-81697245D01*
X140718057Y-81878872D01*
X140698096Y-82068800D01*
X140718057Y-82258727D01*
X140733968Y-82307695D01*
X140777073Y-82440356D01*
X140777076Y-82440361D01*
X140872558Y-82605741D01*
X140872565Y-82605751D01*
X141000344Y-82747664D01*
X141000347Y-82747666D01*
X141154848Y-82859918D01*
X141329312Y-82937594D01*
X141516113Y-82977300D01*
X141699500Y-82977300D01*
X141767621Y-82997302D01*
X141814114Y-83050958D01*
X141825500Y-83103300D01*
X141825500Y-83607261D01*
X141831986Y-83678646D01*
X141831986Y-83678647D01*
X141883172Y-83842912D01*
X141923616Y-83909816D01*
X141941739Y-83978461D01*
X141923616Y-84040184D01*
X141883172Y-84107087D01*
X141831986Y-84271353D01*
X141825500Y-84342737D01*
X141825500Y-84857261D01*
X141831986Y-84928646D01*
X141831986Y-84928647D01*
X141883172Y-85092912D01*
X141923616Y-85159816D01*
X141941739Y-85228461D01*
X141923616Y-85290184D01*
X141883172Y-85357087D01*
X141831986Y-85521353D01*
X141825500Y-85592737D01*
X141825500Y-85645200D01*
X141805498Y-85713321D01*
X141751842Y-85759814D01*
X141699500Y-85771200D01*
X141626913Y-85771200D01*
X141440111Y-85810906D01*
X141265647Y-85888582D01*
X141111144Y-86000835D01*
X140983365Y-86142748D01*
X140983358Y-86142758D01*
X140887876Y-86308138D01*
X140887873Y-86308144D01*
X140879653Y-86333442D01*
X140828857Y-86489772D01*
X140808896Y-86679700D01*
X140828857Y-86869627D01*
X140846998Y-86925458D01*
X140887873Y-87051256D01*
X140887876Y-87051261D01*
X140983358Y-87216641D01*
X140983365Y-87216651D01*
X141111144Y-87358564D01*
X141111147Y-87358566D01*
X141265648Y-87470818D01*
X141440112Y-87548494D01*
X141626913Y-87588200D01*
X141687369Y-87588200D01*
X141755490Y-87608202D01*
X141761429Y-87612263D01*
X141767376Y-87616583D01*
X141767379Y-87616586D01*
X141785131Y-87626345D01*
X141801644Y-87637192D01*
X141817659Y-87649614D01*
X141836551Y-87657789D01*
X141891125Y-87703197D01*
X141912487Y-87770904D01*
X141894343Y-87838606D01*
X141883173Y-87857084D01*
X141883172Y-87857086D01*
X141831986Y-88021353D01*
X141825500Y-88092737D01*
X141825500Y-88607261D01*
X141831986Y-88678646D01*
X141831986Y-88678647D01*
X141883172Y-88842912D01*
X141923616Y-88909816D01*
X141941739Y-88978461D01*
X141923616Y-89040184D01*
X141883172Y-89107087D01*
X141831986Y-89271353D01*
X141825500Y-89342737D01*
X141825500Y-89857261D01*
X141831986Y-89928646D01*
X141831986Y-89928647D01*
X141883170Y-90092906D01*
X141883172Y-90092911D01*
X141972184Y-90240155D01*
X141972188Y-90240160D01*
X142093839Y-90361811D01*
X142093844Y-90361815D01*
X142093845Y-90361816D01*
X142241087Y-90450827D01*
X142405351Y-90502013D01*
X142476735Y-90508500D01*
X143491264Y-90508499D01*
X143562649Y-90502013D01*
X143726913Y-90450827D01*
X143874155Y-90361816D01*
X143995816Y-90240155D01*
X144084827Y-90092913D01*
X144136013Y-89928649D01*
X144142500Y-89857265D01*
X144142499Y-89609593D01*
X144162501Y-89541473D01*
X144179399Y-89520503D01*
X146961814Y-86738089D01*
X147024124Y-86704065D01*
X147094940Y-86709130D01*
X147151775Y-86751677D01*
X147166544Y-86777145D01*
X147168382Y-86781394D01*
X147178694Y-86798831D01*
X147187388Y-86816579D01*
X147194844Y-86835409D01*
X147194850Y-86835420D01*
X147222577Y-86873583D01*
X147225837Y-86878546D01*
X147249860Y-86919165D01*
X147264179Y-86933484D01*
X147277017Y-86948514D01*
X147286556Y-86961643D01*
X147288928Y-86964907D01*
X147289448Y-86965337D01*
X147325286Y-86994985D01*
X147329667Y-86998971D01*
X149204712Y-88874017D01*
X149812595Y-89481900D01*
X149846621Y-89544212D01*
X149849500Y-89570995D01*
X149849500Y-89857261D01*
X149855986Y-89928646D01*
X149855986Y-89928647D01*
X149907170Y-90092906D01*
X149907172Y-90092911D01*
X149996184Y-90240155D01*
X149996188Y-90240160D01*
X150117839Y-90361811D01*
X150117844Y-90361815D01*
X150117845Y-90361816D01*
X150265087Y-90450827D01*
X150429351Y-90502013D01*
X150500735Y-90508500D01*
X151515264Y-90508499D01*
X151586649Y-90502013D01*
X151750913Y-90450827D01*
X151898155Y-90361816D01*
X152019816Y-90240155D01*
X152108827Y-90092913D01*
X152160013Y-89928649D01*
X152166500Y-89857265D01*
X152166499Y-89342736D01*
X152160013Y-89271351D01*
X152108827Y-89107087D01*
X152068380Y-89040181D01*
X152050257Y-88971542D01*
X152068380Y-88909819D01*
X152108827Y-88842913D01*
X152160013Y-88678649D01*
X152166500Y-88607265D01*
X152166499Y-88092736D01*
X152160013Y-88021351D01*
X152108827Y-87857087D01*
X152068380Y-87790181D01*
X152050257Y-87721542D01*
X152068380Y-87659819D01*
X152108827Y-87592913D01*
X152160013Y-87428649D01*
X152166500Y-87357265D01*
X152166499Y-86842736D01*
X152160013Y-86771351D01*
X152108827Y-86607087D01*
X152068380Y-86540181D01*
X152050257Y-86471542D01*
X152068380Y-86409819D01*
X152108827Y-86342913D01*
X152160013Y-86178649D01*
X152166500Y-86107265D01*
X152166499Y-85592736D01*
X152160013Y-85521351D01*
X152108827Y-85357087D01*
X152068380Y-85290181D01*
X152050257Y-85221542D01*
X152068380Y-85159819D01*
X152108827Y-85092913D01*
X152160013Y-84928649D01*
X152166500Y-84857265D01*
X152166499Y-84342736D01*
X152160013Y-84271351D01*
X152108827Y-84107087D01*
X152068380Y-84040181D01*
X152050257Y-83971542D01*
X152068380Y-83909819D01*
X152108827Y-83842913D01*
X152160013Y-83678649D01*
X152166500Y-83607265D01*
X152166499Y-83092736D01*
X152160013Y-83021351D01*
X152108827Y-82857087D01*
X152068380Y-82790181D01*
X152050257Y-82721542D01*
X152068380Y-82659819D01*
X152108827Y-82592913D01*
X152160013Y-82428649D01*
X152166500Y-82357265D01*
X152166499Y-82111693D01*
X152186501Y-82043573D01*
X152203399Y-82022603D01*
X155918207Y-78307796D01*
X155980517Y-78273772D01*
X156051333Y-78278837D01*
X156108168Y-78321384D01*
X156132979Y-78387904D01*
X156133300Y-78396893D01*
X156133300Y-82414746D01*
X156131551Y-82430588D01*
X156131844Y-82430616D01*
X156131098Y-82438507D01*
X156133300Y-82508557D01*
X156133300Y-82538451D01*
X156133301Y-82538472D01*
X156134178Y-82545420D01*
X156134644Y-82551332D01*
X156136126Y-82598488D01*
X156136127Y-82598493D01*
X156141777Y-82617939D01*
X156145786Y-82637297D01*
X156148325Y-82657393D01*
X156148326Y-82657399D01*
X156165693Y-82701262D01*
X156167616Y-82706879D01*
X156180782Y-82752193D01*
X156191094Y-82769631D01*
X156199788Y-82787379D01*
X156207244Y-82806209D01*
X156207250Y-82806220D01*
X156234977Y-82844383D01*
X156238237Y-82849346D01*
X156262260Y-82889965D01*
X156276579Y-82904284D01*
X156289417Y-82919314D01*
X156298956Y-82932443D01*
X156301328Y-82935707D01*
X156329594Y-82959091D01*
X156337686Y-82965785D01*
X156342067Y-82969771D01*
X158300773Y-84928477D01*
X160204506Y-86832210D01*
X160238532Y-86894522D01*
X160233467Y-86965337D01*
X160190920Y-87022173D01*
X160141609Y-87044551D01*
X159990815Y-87076604D01*
X159816347Y-87154282D01*
X159661844Y-87266535D01*
X159534065Y-87408448D01*
X159534058Y-87408458D01*
X159440306Y-87570842D01*
X159438573Y-87573844D01*
X159432377Y-87592913D01*
X159379557Y-87755472D01*
X159359596Y-87945400D01*
X159379557Y-88135327D01*
X159381487Y-88141266D01*
X159438573Y-88316956D01*
X159438576Y-88316961D01*
X159534058Y-88482341D01*
X159534065Y-88482351D01*
X159661844Y-88624264D01*
X159724995Y-88670146D01*
X159768349Y-88726368D01*
X159774424Y-88797105D01*
X159741293Y-88859896D01*
X159724996Y-88874017D01*
X159660145Y-88921134D01*
X159660144Y-88921135D01*
X159532365Y-89063048D01*
X159532358Y-89063058D01*
X159436876Y-89228438D01*
X159436873Y-89228445D01*
X159377857Y-89410072D01*
X159357896Y-89600000D01*
X159377857Y-89789927D01*
X159399736Y-89857261D01*
X159436873Y-89971556D01*
X159436876Y-89971561D01*
X159532358Y-90136941D01*
X159532365Y-90136951D01*
X159660144Y-90278864D01*
X159660147Y-90278866D01*
X159814648Y-90391118D01*
X159989112Y-90468794D01*
X160175913Y-90508500D01*
X160366887Y-90508500D01*
X160553688Y-90468794D01*
X160646822Y-90427327D01*
X160717188Y-90417893D01*
X160763254Y-90434606D01*
X160790087Y-90450827D01*
X160954351Y-90502013D01*
X161025735Y-90508500D01*
X162040264Y-90508499D01*
X162111649Y-90502013D01*
X162275913Y-90450827D01*
X162423155Y-90361816D01*
X162544816Y-90240155D01*
X162633827Y-90092913D01*
X162685013Y-89928649D01*
X162691500Y-89857265D01*
X162691499Y-89342736D01*
X162685013Y-89271351D01*
X162633827Y-89107087D01*
X162593380Y-89040181D01*
X162575257Y-88971542D01*
X162593380Y-88909819D01*
X162633827Y-88842913D01*
X162685013Y-88678649D01*
X162691500Y-88607265D01*
X162691499Y-88092736D01*
X162685013Y-88021351D01*
X162633827Y-87857087D01*
X162593380Y-87790181D01*
X162575257Y-87721542D01*
X162593380Y-87659819D01*
X162633827Y-87592913D01*
X162685013Y-87428649D01*
X162691500Y-87357265D01*
X162691499Y-86842736D01*
X162685013Y-86771351D01*
X162633827Y-86607087D01*
X162593380Y-86540181D01*
X162575257Y-86471542D01*
X162593380Y-86409819D01*
X162633827Y-86342913D01*
X162685013Y-86178649D01*
X162691500Y-86107265D01*
X162691499Y-85883596D01*
X162711501Y-85815476D01*
X162728406Y-85794498D01*
X162745903Y-85777002D01*
X162808216Y-85742979D01*
X162834996Y-85740100D01*
X162890887Y-85740100D01*
X163077688Y-85700394D01*
X163252152Y-85622718D01*
X163406653Y-85510466D01*
X163534440Y-85368544D01*
X163629927Y-85203156D01*
X163688942Y-85021528D01*
X163708904Y-84831600D01*
X163688942Y-84641672D01*
X163629927Y-84460044D01*
X163534440Y-84294656D01*
X163534438Y-84294654D01*
X163534434Y-84294648D01*
X163406655Y-84152735D01*
X163252152Y-84040482D01*
X163077688Y-83962806D01*
X162890887Y-83923100D01*
X162780078Y-83923100D01*
X162711957Y-83903098D01*
X162665464Y-83849442D01*
X162655360Y-83779168D01*
X162659783Y-83759615D01*
X162685013Y-83678649D01*
X162691500Y-83607265D01*
X162691499Y-83092736D01*
X162685013Y-83021351D01*
X162633827Y-82857087D01*
X162593380Y-82790181D01*
X162575257Y-82721542D01*
X162593380Y-82659819D01*
X162633827Y-82592913D01*
X162685013Y-82428649D01*
X162691500Y-82357265D01*
X162691499Y-81842736D01*
X162685013Y-81771351D01*
X162633827Y-81607087D01*
X162593380Y-81540181D01*
X162575257Y-81471542D01*
X162593380Y-81409819D01*
X162633827Y-81342913D01*
X162685013Y-81178649D01*
X162691500Y-81107265D01*
X162691499Y-80592736D01*
X162685013Y-80521351D01*
X162633827Y-80357087D01*
X162593380Y-80290181D01*
X162575257Y-80221542D01*
X162593380Y-80159819D01*
X162633827Y-80092913D01*
X162685013Y-79928649D01*
X162691500Y-79857265D01*
X162691499Y-79342736D01*
X162685013Y-79271351D01*
X162633827Y-79107087D01*
X162593380Y-79040181D01*
X162575257Y-78971542D01*
X162593380Y-78909819D01*
X162633827Y-78842913D01*
X162685013Y-78678649D01*
X162691500Y-78607265D01*
X162691499Y-78092736D01*
X162685013Y-78021351D01*
X162633827Y-77857087D01*
X162593380Y-77790181D01*
X162575257Y-77721542D01*
X162593380Y-77659819D01*
X162633827Y-77592913D01*
X162685013Y-77428649D01*
X162691500Y-77357265D01*
X162691499Y-77133795D01*
X162711501Y-77065675D01*
X162728399Y-77044704D01*
X162908159Y-76864943D01*
X162920597Y-76854982D01*
X162920408Y-76854754D01*
X162926519Y-76849699D01*
X162974484Y-76798620D01*
X162995628Y-76777477D01*
X162995628Y-76777476D01*
X162995635Y-76777470D01*
X162999945Y-76771912D01*
X163003774Y-76767429D01*
X163036086Y-76733021D01*
X163045846Y-76715265D01*
X163056695Y-76698750D01*
X163069114Y-76682741D01*
X163087863Y-76639410D01*
X163090453Y-76634123D01*
X163113195Y-76592760D01*
X163118233Y-76573134D01*
X163124637Y-76554432D01*
X163132680Y-76535847D01*
X163132679Y-76535847D01*
X163132681Y-76535845D01*
X163140061Y-76489247D01*
X163141262Y-76483440D01*
X163153000Y-76437730D01*
X163153000Y-76417475D01*
X163154551Y-76397763D01*
X163157720Y-76377757D01*
X163155129Y-76350351D01*
X163153280Y-76330780D01*
X163153000Y-76324848D01*
X163153000Y-73981049D01*
X163154749Y-73965212D01*
X163154455Y-73965185D01*
X163155201Y-73957292D01*
X163153000Y-73887259D01*
X163153000Y-73857351D01*
X163153000Y-73857344D01*
X163152120Y-73850385D01*
X163151655Y-73844480D01*
X163150173Y-73797310D01*
X163144522Y-73777863D01*
X163140512Y-73758500D01*
X163139971Y-73754214D01*
X163139475Y-73750288D01*
X163150782Y-73680201D01*
X163198188Y-73627350D01*
X163264482Y-73608500D01*
X165583552Y-73608500D01*
X165657150Y-73600980D01*
X165687425Y-73597887D01*
X165849672Y-73544124D01*
X165920622Y-73541685D01*
X165981632Y-73577993D01*
X166013328Y-73641522D01*
X166015300Y-73663730D01*
X166015300Y-84315946D01*
X166013551Y-84331788D01*
X166013844Y-84331816D01*
X166013098Y-84339707D01*
X166015300Y-84409757D01*
X166015300Y-84439651D01*
X166015301Y-84439672D01*
X166016178Y-84446620D01*
X166016644Y-84452532D01*
X166018126Y-84499688D01*
X166018127Y-84499693D01*
X166023777Y-84519139D01*
X166027786Y-84538497D01*
X166030325Y-84558593D01*
X166030326Y-84558599D01*
X166047693Y-84602462D01*
X166049616Y-84608079D01*
X166062782Y-84653393D01*
X166073094Y-84670831D01*
X166081788Y-84688579D01*
X166089244Y-84707409D01*
X166089250Y-84707420D01*
X166116977Y-84745583D01*
X166120237Y-84750546D01*
X166144260Y-84791165D01*
X166158579Y-84805484D01*
X166171417Y-84820514D01*
X166179472Y-84831600D01*
X166183328Y-84836907D01*
X166207937Y-84857265D01*
X166219686Y-84866985D01*
X166224067Y-84870971D01*
X168569737Y-87216641D01*
X170862595Y-89509499D01*
X170896621Y-89571811D01*
X170899500Y-89598594D01*
X170899500Y-89857261D01*
X170905986Y-89928646D01*
X170905986Y-89928647D01*
X170957170Y-90092906D01*
X170957172Y-90092911D01*
X171046184Y-90240155D01*
X171046188Y-90240160D01*
X171167839Y-90361811D01*
X171167844Y-90361815D01*
X171167845Y-90361816D01*
X171315087Y-90450827D01*
X171479351Y-90502013D01*
X171550735Y-90508500D01*
X172565264Y-90508499D01*
X172636649Y-90502013D01*
X172800913Y-90450827D01*
X172948155Y-90361816D01*
X173069816Y-90240155D01*
X173158827Y-90092913D01*
X173210013Y-89928649D01*
X173216500Y-89857265D01*
X173216499Y-89342736D01*
X173210013Y-89271351D01*
X173158827Y-89107087D01*
X173118380Y-89040181D01*
X173100257Y-88971542D01*
X173118380Y-88909819D01*
X173158827Y-88842913D01*
X173210013Y-88678649D01*
X173216500Y-88607265D01*
X173216499Y-88092736D01*
X173210013Y-88021351D01*
X173158827Y-87857087D01*
X173118380Y-87790181D01*
X173100257Y-87721542D01*
X173118380Y-87659819D01*
X173158827Y-87592913D01*
X173210013Y-87428649D01*
X173216500Y-87357265D01*
X173216499Y-86842736D01*
X173210013Y-86771351D01*
X173158827Y-86607087D01*
X173118380Y-86540181D01*
X173100257Y-86471542D01*
X173118380Y-86409819D01*
X173158827Y-86342913D01*
X173210013Y-86178649D01*
X173216500Y-86107265D01*
X173216499Y-85592736D01*
X173210013Y-85521351D01*
X173158827Y-85357087D01*
X173118380Y-85290181D01*
X173100257Y-85221542D01*
X173118380Y-85159819D01*
X173158827Y-85092913D01*
X173210013Y-84928649D01*
X173216500Y-84857265D01*
X173216499Y-84342736D01*
X173210013Y-84271351D01*
X173158827Y-84107087D01*
X173118380Y-84040181D01*
X173100257Y-83971542D01*
X173118380Y-83909819D01*
X173158827Y-83842913D01*
X173210013Y-83678649D01*
X173216500Y-83607265D01*
X173216499Y-83092736D01*
X173210013Y-83021351D01*
X173158827Y-82857087D01*
X173118380Y-82790181D01*
X173100257Y-82721542D01*
X173118380Y-82659819D01*
X173158827Y-82592913D01*
X173210013Y-82428649D01*
X173216500Y-82357265D01*
X173216499Y-81842736D01*
X173210013Y-81771351D01*
X173158827Y-81607087D01*
X173118380Y-81540181D01*
X173100257Y-81471542D01*
X173118380Y-81409819D01*
X173158827Y-81342913D01*
X173210013Y-81178649D01*
X173216500Y-81107265D01*
X173216499Y-80592736D01*
X173210013Y-80521351D01*
X173158827Y-80357087D01*
X173118380Y-80290181D01*
X173100257Y-80221542D01*
X173118380Y-80159819D01*
X173158827Y-80092913D01*
X173210013Y-79928649D01*
X173216500Y-79857265D01*
X173216499Y-79342736D01*
X173211971Y-79292900D01*
X173225727Y-79223249D01*
X173274956Y-79172092D01*
X173337454Y-79155500D01*
X173437787Y-79155500D01*
X173624588Y-79115794D01*
X173799052Y-79038118D01*
X173953553Y-78925866D01*
X173959256Y-78919532D01*
X174081334Y-78783951D01*
X174081335Y-78783949D01*
X174081340Y-78783944D01*
X174176827Y-78618556D01*
X174235842Y-78436928D01*
X174255804Y-78247000D01*
X174235842Y-78057072D01*
X174176827Y-77875444D01*
X174081340Y-77710056D01*
X174081338Y-77710054D01*
X174081334Y-77710048D01*
X173953555Y-77568135D01*
X173799052Y-77455882D01*
X173624588Y-77378206D01*
X173437787Y-77338500D01*
X173342499Y-77338500D01*
X173274378Y-77318498D01*
X173227885Y-77264842D01*
X173216499Y-77212500D01*
X173216499Y-77107395D01*
X173236501Y-77039274D01*
X173253404Y-77018299D01*
X173697400Y-76574304D01*
X173759712Y-76540279D01*
X173786495Y-76537400D01*
X173842387Y-76537400D01*
X174029188Y-76497694D01*
X174203652Y-76420018D01*
X174358153Y-76307766D01*
X174358155Y-76307764D01*
X174485934Y-76165851D01*
X174485935Y-76165849D01*
X174485940Y-76165844D01*
X174581427Y-76000456D01*
X174640442Y-75818828D01*
X174660404Y-75628900D01*
X174656165Y-75588569D01*
X174668937Y-75518732D01*
X174717439Y-75466885D01*
X174781475Y-75449400D01*
X175397747Y-75449400D01*
X175413588Y-75451149D01*
X175413616Y-75450856D01*
X175421502Y-75451600D01*
X175421509Y-75451602D01*
X175491558Y-75449400D01*
X175521456Y-75449400D01*
X175528418Y-75448519D01*
X175534319Y-75448054D01*
X175581489Y-75446573D01*
X175600947Y-75440919D01*
X175620294Y-75436913D01*
X175640397Y-75434374D01*
X175642115Y-75433694D01*
X175648897Y-75431008D01*
X175684279Y-75416999D01*
X175689874Y-75415083D01*
X175718416Y-75406791D01*
X175735191Y-75401919D01*
X175735195Y-75401917D01*
X175752626Y-75391608D01*
X175770380Y-75382909D01*
X175789217Y-75375452D01*
X175827386Y-75347718D01*
X175832344Y-75344462D01*
X175872962Y-75320442D01*
X175887285Y-75306118D01*
X175902324Y-75293274D01*
X175918707Y-75281372D01*
X175948788Y-75245008D01*
X175952767Y-75240635D01*
X176133400Y-75060004D01*
X176195712Y-75025979D01*
X176222495Y-75023100D01*
X176278387Y-75023100D01*
X176465188Y-74983394D01*
X176639652Y-74905718D01*
X176794153Y-74793466D01*
X176894476Y-74682046D01*
X176921934Y-74651551D01*
X176921935Y-74651549D01*
X176921940Y-74651544D01*
X177017427Y-74486156D01*
X177076442Y-74304528D01*
X177096404Y-74114600D01*
X177076442Y-73924672D01*
X177017427Y-73743044D01*
X176921940Y-73577656D01*
X176921938Y-73577654D01*
X176921934Y-73577648D01*
X176794158Y-73435738D01*
X176794153Y-73435735D01*
X176794153Y-73435734D01*
X176746225Y-73400912D01*
X176702874Y-73344691D01*
X176696799Y-73273955D01*
X176713048Y-73232832D01*
X176750115Y-73172738D01*
X176805887Y-73004425D01*
X176811040Y-72953984D01*
X176816500Y-72900552D01*
X176816500Y-71835994D01*
X176836502Y-71767873D01*
X176890158Y-71721380D01*
X176960432Y-71711276D01*
X177025012Y-71740770D01*
X177031595Y-71746899D01*
X178029095Y-72744399D01*
X178063121Y-72806711D01*
X178066000Y-72833494D01*
X178066000Y-77033546D01*
X178064251Y-77049388D01*
X178064544Y-77049416D01*
X178063798Y-77057307D01*
X178063798Y-77057309D01*
X178066000Y-77127357D01*
X178066000Y-77157251D01*
X178066001Y-77157272D01*
X178066878Y-77164220D01*
X178067344Y-77170132D01*
X178068826Y-77217288D01*
X178068827Y-77217293D01*
X178074477Y-77236739D01*
X178078486Y-77256097D01*
X178081025Y-77276193D01*
X178081026Y-77276199D01*
X178098393Y-77320062D01*
X178100316Y-77325679D01*
X178113482Y-77370993D01*
X178123794Y-77388431D01*
X178132488Y-77406179D01*
X178139944Y-77425009D01*
X178139950Y-77425020D01*
X178167677Y-77463183D01*
X178170937Y-77468146D01*
X178194960Y-77508765D01*
X178209279Y-77523084D01*
X178222117Y-77538114D01*
X178231656Y-77551243D01*
X178234028Y-77554507D01*
X178262294Y-77577891D01*
X178270386Y-77584585D01*
X178274767Y-77588571D01*
X179838196Y-79152000D01*
X181386595Y-80700399D01*
X181420621Y-80762711D01*
X181423500Y-80789493D01*
X181423501Y-81012099D01*
X181403499Y-81080220D01*
X181349844Y-81126713D01*
X181297501Y-81138100D01*
X181208313Y-81138100D01*
X181021511Y-81177806D01*
X180847047Y-81255482D01*
X180692544Y-81367735D01*
X180564765Y-81509648D01*
X180564758Y-81509658D01*
X180469569Y-81674531D01*
X180469273Y-81675044D01*
X180454799Y-81719586D01*
X180410257Y-81856672D01*
X180390296Y-82046600D01*
X180410257Y-82236527D01*
X180417471Y-82258728D01*
X180469273Y-82418156D01*
X180475330Y-82428647D01*
X180564758Y-82583541D01*
X180564765Y-82583551D01*
X180696965Y-82730374D01*
X180695454Y-82731734D01*
X180727648Y-82783973D01*
X180726307Y-82854957D01*
X180699740Y-82901491D01*
X180581461Y-83032854D01*
X180581458Y-83032858D01*
X180485976Y-83198238D01*
X180485973Y-83198245D01*
X180426957Y-83379872D01*
X180406996Y-83569800D01*
X180426957Y-83759727D01*
X180453986Y-83842911D01*
X180485973Y-83941356D01*
X180485976Y-83941361D01*
X180581458Y-84106741D01*
X180581461Y-84106745D01*
X180681329Y-84217661D01*
X180712046Y-84281669D01*
X180703281Y-84352122D01*
X180681329Y-84386281D01*
X180565561Y-84514854D01*
X180565558Y-84514858D01*
X180470076Y-84680238D01*
X180470073Y-84680244D01*
X180461244Y-84707417D01*
X180411057Y-84861872D01*
X180391096Y-85051800D01*
X180411057Y-85241727D01*
X180426802Y-85290184D01*
X180470073Y-85423356D01*
X180470076Y-85423361D01*
X180543451Y-85550451D01*
X180560189Y-85619446D01*
X180543452Y-85676450D01*
X180493574Y-85762841D01*
X180434557Y-85944472D01*
X180414596Y-86134400D01*
X180434557Y-86324328D01*
X180455559Y-86388964D01*
X180457587Y-86459932D01*
X180420924Y-86520729D01*
X180357212Y-86552055D01*
X180335726Y-86553900D01*
X180198713Y-86553900D01*
X180011911Y-86593606D01*
X179837447Y-86671282D01*
X179682944Y-86783535D01*
X179555165Y-86925448D01*
X179555158Y-86925458D01*
X179459676Y-87090838D01*
X179459673Y-87090845D01*
X179400657Y-87272472D01*
X179380696Y-87462400D01*
X179400657Y-87652327D01*
X179414099Y-87693695D01*
X179459673Y-87833956D01*
X179473026Y-87857084D01*
X179555158Y-87999341D01*
X179555165Y-87999351D01*
X179682944Y-88141264D01*
X179737636Y-88181000D01*
X179837448Y-88253518D01*
X180011912Y-88331194D01*
X180198713Y-88370900D01*
X180254606Y-88370900D01*
X180322727Y-88390902D01*
X180343701Y-88407805D01*
X181386595Y-89450700D01*
X181420621Y-89513012D01*
X181423500Y-89539795D01*
X181423500Y-89857261D01*
X181429986Y-89928646D01*
X181429986Y-89928647D01*
X181481170Y-90092906D01*
X181481172Y-90092911D01*
X181570184Y-90240155D01*
X181570188Y-90240160D01*
X181691839Y-90361811D01*
X181691844Y-90361815D01*
X181691845Y-90361816D01*
X181839087Y-90450827D01*
X182003351Y-90502013D01*
X182074735Y-90508500D01*
X183089264Y-90508499D01*
X183160649Y-90502013D01*
X183324913Y-90450827D01*
X183472155Y-90361816D01*
X183593816Y-90240155D01*
X183682827Y-90092913D01*
X183734013Y-89928649D01*
X183740500Y-89857265D01*
X183740499Y-89342736D01*
X183734013Y-89271351D01*
X183682827Y-89107087D01*
X183642380Y-89040181D01*
X183624257Y-88971542D01*
X183642380Y-88909819D01*
X183682827Y-88842913D01*
X183734013Y-88678649D01*
X183740500Y-88607265D01*
X183740499Y-88092736D01*
X183734013Y-88021351D01*
X183682827Y-87857087D01*
X183642380Y-87790181D01*
X183624257Y-87721542D01*
X183642380Y-87659819D01*
X183682827Y-87592913D01*
X183734013Y-87428649D01*
X183740500Y-87357265D01*
X183740499Y-86842736D01*
X183734013Y-86771351D01*
X183682827Y-86607087D01*
X183642380Y-86540181D01*
X183624257Y-86471542D01*
X183642380Y-86409819D01*
X183682827Y-86342913D01*
X183734013Y-86178649D01*
X183740500Y-86107265D01*
X183740499Y-85592736D01*
X183734013Y-85521351D01*
X183682827Y-85357087D01*
X183642380Y-85290181D01*
X183624257Y-85221542D01*
X183642380Y-85159819D01*
X183682827Y-85092913D01*
X183734013Y-84928649D01*
X183740500Y-84857265D01*
X183740499Y-84342736D01*
X183734013Y-84271351D01*
X183682827Y-84107087D01*
X183642380Y-84040181D01*
X183624257Y-83971542D01*
X183642380Y-83909819D01*
X183682827Y-83842913D01*
X183734013Y-83678649D01*
X183740500Y-83607265D01*
X183740499Y-83092736D01*
X183734013Y-83021351D01*
X183682827Y-82857087D01*
X183642380Y-82790181D01*
X183624257Y-82721542D01*
X183642380Y-82659819D01*
X183682827Y-82592913D01*
X183734013Y-82428649D01*
X183740500Y-82357265D01*
X183740499Y-82130096D01*
X183760501Y-82061976D01*
X183777405Y-82040999D01*
X183812002Y-82006403D01*
X183874315Y-81972379D01*
X183901096Y-81969500D01*
X183956987Y-81969500D01*
X184143788Y-81929794D01*
X184318252Y-81852118D01*
X184472753Y-81739866D01*
X184487840Y-81723110D01*
X184600534Y-81597951D01*
X184600535Y-81597949D01*
X184600540Y-81597944D01*
X184696027Y-81432556D01*
X184755042Y-81250928D01*
X184775004Y-81061000D01*
X184755042Y-80871072D01*
X184696027Y-80689444D01*
X184600540Y-80524056D01*
X184600538Y-80524054D01*
X184600534Y-80524048D01*
X184472755Y-80382135D01*
X184318252Y-80269882D01*
X184143788Y-80192206D01*
X183956987Y-80152500D01*
X183835497Y-80152500D01*
X183767376Y-80132498D01*
X183720883Y-80078842D01*
X183710779Y-80008568D01*
X183715202Y-79989015D01*
X183734013Y-79928649D01*
X183740500Y-79857265D01*
X183740499Y-79342736D01*
X183734013Y-79271351D01*
X183682827Y-79107087D01*
X183642380Y-79040181D01*
X183624257Y-78971542D01*
X183642380Y-78909819D01*
X183682827Y-78842913D01*
X183734013Y-78678649D01*
X183740500Y-78607265D01*
X183740499Y-78092736D01*
X183734013Y-78021351D01*
X183682827Y-77857087D01*
X183642380Y-77790181D01*
X183624257Y-77721542D01*
X183642380Y-77659819D01*
X183682827Y-77592913D01*
X183734013Y-77428649D01*
X183740500Y-77357265D01*
X183740499Y-76842736D01*
X183734013Y-76771351D01*
X183682827Y-76607087D01*
X183642380Y-76540181D01*
X183624257Y-76471542D01*
X183642380Y-76409819D01*
X183682827Y-76342913D01*
X183734013Y-76178649D01*
X183740500Y-76107265D01*
X183740499Y-75592736D01*
X183734013Y-75521351D01*
X183682827Y-75357087D01*
X183642380Y-75290181D01*
X183624257Y-75221542D01*
X183642380Y-75159819D01*
X183682827Y-75092913D01*
X183734013Y-74928649D01*
X183740500Y-74857265D01*
X183740499Y-74342736D01*
X183734013Y-74271351D01*
X183692052Y-74136691D01*
X183682829Y-74107093D01*
X183682827Y-74107088D01*
X183682827Y-74107087D01*
X183593816Y-73959845D01*
X183593815Y-73959844D01*
X183593811Y-73959839D01*
X183472160Y-73838188D01*
X183472155Y-73838184D01*
X183455924Y-73828372D01*
X183324913Y-73749173D01*
X183324912Y-73749172D01*
X183324911Y-73749172D01*
X183324904Y-73749169D01*
X183304013Y-73742659D01*
X183244928Y-73703296D01*
X183216504Y-73638238D01*
X183215500Y-73622365D01*
X183215500Y-73334303D01*
X183235502Y-73266182D01*
X183289158Y-73219689D01*
X183359432Y-73209585D01*
X183424012Y-73239079D01*
X183448737Y-73268151D01*
X183482970Y-73323651D01*
X183482975Y-73323657D01*
X183608342Y-73449024D01*
X183608348Y-73449029D01*
X183608349Y-73449030D01*
X183759262Y-73542115D01*
X183927575Y-73597887D01*
X183955906Y-73600781D01*
X184031448Y-73608500D01*
X184031456Y-73608500D01*
X186632552Y-73608500D01*
X186706150Y-73600980D01*
X186736425Y-73597887D01*
X186904738Y-73542115D01*
X187055651Y-73449030D01*
X187181030Y-73323651D01*
X187274115Y-73172738D01*
X187329887Y-73004425D01*
X187335040Y-72953984D01*
X187340500Y-72900552D01*
X187340500Y-71199447D01*
X187329887Y-71095578D01*
X187329887Y-71095575D01*
X187274115Y-70927262D01*
X187181030Y-70776349D01*
X187181029Y-70776348D01*
X187181024Y-70776342D01*
X187055657Y-70650975D01*
X187055651Y-70650970D01*
X186904738Y-70557885D01*
X186736425Y-70502113D01*
X186736423Y-70502112D01*
X186736421Y-70502112D01*
X186632552Y-70491500D01*
X186632544Y-70491500D01*
X184031456Y-70491500D01*
X184031448Y-70491500D01*
X183927578Y-70502112D01*
X183759262Y-70557885D01*
X183759260Y-70557886D01*
X183608348Y-70650970D01*
X183608342Y-70650975D01*
X183482975Y-70776342D01*
X183482970Y-70776348D01*
X183448741Y-70831843D01*
X183395955Y-70879321D01*
X183325880Y-70890724D01*
X183260764Y-70862431D01*
X183221282Y-70803426D01*
X183215500Y-70765696D01*
X183215500Y-63231849D01*
X183217249Y-63216012D01*
X183216955Y-63215985D01*
X183217701Y-63208092D01*
X183217225Y-63192962D01*
X183215500Y-63138059D01*
X183215500Y-63108144D01*
X183214620Y-63101185D01*
X183214155Y-63095280D01*
X183212673Y-63048110D01*
X183207022Y-63028663D01*
X183203012Y-63009300D01*
X183202729Y-63007057D01*
X183200474Y-62989203D01*
X183183100Y-62945323D01*
X183181184Y-62939725D01*
X183168018Y-62894406D01*
X183157700Y-62876961D01*
X183149005Y-62859209D01*
X183141553Y-62840385D01*
X183141550Y-62840379D01*
X183113818Y-62802210D01*
X183110562Y-62797253D01*
X183086542Y-62756637D01*
X183086540Y-62756635D01*
X183086540Y-62756634D01*
X183072218Y-62742312D01*
X183059377Y-62727279D01*
X183047471Y-62710892D01*
X183040029Y-62704735D01*
X183011108Y-62680810D01*
X183006736Y-62676831D01*
X180067316Y-59737411D01*
X180033290Y-59675099D01*
X180034704Y-59615707D01*
X180053429Y-59545830D01*
X180073536Y-59316000D01*
X180053429Y-59086170D01*
X179993717Y-58863324D01*
X179896216Y-58654232D01*
X179763887Y-58465247D01*
X179600753Y-58302113D01*
X179490799Y-58225122D01*
X179411766Y-58169782D01*
X179391205Y-58160195D01*
X179337919Y-58113278D01*
X179318458Y-58045001D01*
X179338999Y-57977041D01*
X179391205Y-57931805D01*
X179411766Y-57922217D01*
X179411766Y-57922216D01*
X179411768Y-57922216D01*
X179600753Y-57789887D01*
X179763887Y-57626753D01*
X179896216Y-57437768D01*
X179993717Y-57228676D01*
X180053429Y-57005830D01*
X180073536Y-56776000D01*
X180053429Y-56546170D01*
X179993717Y-56323324D01*
X179896216Y-56114232D01*
X179763887Y-55925247D01*
X179600753Y-55762113D01*
X179598301Y-55760396D01*
X179411766Y-55629782D01*
X179391205Y-55620195D01*
X179337919Y-55573278D01*
X179318458Y-55505001D01*
X179338999Y-55437041D01*
X179391205Y-55391805D01*
X179411766Y-55382217D01*
X179411766Y-55382216D01*
X179411768Y-55382216D01*
X179600753Y-55249887D01*
X179763887Y-55086753D01*
X179896216Y-54897768D01*
X179993717Y-54688676D01*
X180053429Y-54465830D01*
X180073536Y-54236000D01*
X180053429Y-54006170D01*
X179993717Y-53783324D01*
X179896216Y-53574232D01*
X179763887Y-53385247D01*
X179600753Y-53222113D01*
X179560876Y-53194191D01*
X179411768Y-53089784D01*
X179202679Y-52992284D01*
X179202673Y-52992282D01*
X179108490Y-52967045D01*
X178979830Y-52932571D01*
X178750000Y-52912464D01*
X178520170Y-52932571D01*
X178297326Y-52992282D01*
X178297320Y-52992284D01*
X178088231Y-53089784D01*
X177899250Y-53222110D01*
X177899244Y-53222115D01*
X177736115Y-53385244D01*
X177736110Y-53385250D01*
X177603782Y-53574233D01*
X177594194Y-53594796D01*
X177547277Y-53648081D01*
X177478999Y-53667541D01*
X177411039Y-53646999D01*
X177365806Y-53594796D01*
X177356217Y-53574233D01*
X177223889Y-53385250D01*
X177223884Y-53385244D01*
X177060755Y-53222115D01*
X177060749Y-53222110D01*
X176871768Y-53089784D01*
X176662679Y-52992284D01*
X176662673Y-52992282D01*
X176568490Y-52967045D01*
X176439830Y-52932571D01*
X176210000Y-52912464D01*
X175980170Y-52932571D01*
X175757326Y-52992282D01*
X175757320Y-52992284D01*
X175548231Y-53089784D01*
X175359250Y-53222110D01*
X175359244Y-53222115D01*
X175196115Y-53385244D01*
X175196110Y-53385250D01*
X175063782Y-53574233D01*
X175054194Y-53594796D01*
X175007277Y-53648081D01*
X174938999Y-53667541D01*
X174871039Y-53646999D01*
X174825806Y-53594796D01*
X174816217Y-53574233D01*
X174683889Y-53385250D01*
X174683884Y-53385244D01*
X174520755Y-53222115D01*
X174520749Y-53222110D01*
X174331768Y-53089784D01*
X174122679Y-52992284D01*
X174122673Y-52992282D01*
X174028490Y-52967045D01*
X173899830Y-52932571D01*
X173670000Y-52912464D01*
X173440170Y-52932571D01*
X173217326Y-52992282D01*
X173217320Y-52992284D01*
X173008231Y-53089784D01*
X172819250Y-53222110D01*
X172819244Y-53222115D01*
X172656115Y-53385244D01*
X172656110Y-53385250D01*
X172523782Y-53574233D01*
X172514194Y-53594796D01*
X172467277Y-53648081D01*
X172398999Y-53667541D01*
X172331039Y-53646999D01*
X172285806Y-53594796D01*
X172276217Y-53574233D01*
X172143889Y-53385250D01*
X172143884Y-53385244D01*
X171980755Y-53222115D01*
X171980749Y-53222110D01*
X171791768Y-53089784D01*
X171582679Y-52992284D01*
X171582673Y-52992282D01*
X171488490Y-52967045D01*
X171359830Y-52932571D01*
X171130000Y-52912464D01*
X170900170Y-52932571D01*
X170677326Y-52992282D01*
X170677320Y-52992284D01*
X170468231Y-53089784D01*
X170279250Y-53222110D01*
X170279244Y-53222115D01*
X170116115Y-53385244D01*
X170116110Y-53385250D01*
X169983782Y-53574233D01*
X169974194Y-53594796D01*
X169927277Y-53648081D01*
X169858999Y-53667541D01*
X169791039Y-53646999D01*
X169745806Y-53594796D01*
X169736217Y-53574233D01*
X169603889Y-53385250D01*
X169603884Y-53385244D01*
X169440755Y-53222115D01*
X169440749Y-53222110D01*
X169251768Y-53089784D01*
X169042679Y-52992284D01*
X169042673Y-52992282D01*
X168948490Y-52967045D01*
X168819830Y-52932571D01*
X168590000Y-52912464D01*
X168360170Y-52932571D01*
X168137326Y-52992282D01*
X168137320Y-52992284D01*
X167928231Y-53089784D01*
X167739250Y-53222110D01*
X167739244Y-53222115D01*
X167576115Y-53385244D01*
X167576110Y-53385250D01*
X167443782Y-53574233D01*
X167434194Y-53594796D01*
X167387277Y-53648081D01*
X167318999Y-53667541D01*
X167251039Y-53646999D01*
X167205806Y-53594796D01*
X167196217Y-53574233D01*
X167063889Y-53385250D01*
X167063884Y-53385244D01*
X166900755Y-53222115D01*
X166900749Y-53222110D01*
X166711768Y-53089784D01*
X166502679Y-52992284D01*
X166502673Y-52992282D01*
X166408490Y-52967045D01*
X166279830Y-52932571D01*
X166050000Y-52912464D01*
X165820170Y-52932571D01*
X165597326Y-52992282D01*
X165597320Y-52992284D01*
X165388231Y-53089784D01*
X165199250Y-53222110D01*
X165199244Y-53222115D01*
X165036115Y-53385244D01*
X165036110Y-53385250D01*
X164903782Y-53574233D01*
X164894194Y-53594796D01*
X164847277Y-53648081D01*
X164778999Y-53667541D01*
X164711039Y-53646999D01*
X164665806Y-53594796D01*
X164656217Y-53574233D01*
X164523889Y-53385250D01*
X164523884Y-53385244D01*
X164360755Y-53222115D01*
X164360749Y-53222110D01*
X164171768Y-53089784D01*
X163962679Y-52992284D01*
X163962673Y-52992282D01*
X163868490Y-52967045D01*
X163739830Y-52932571D01*
X163510000Y-52912464D01*
X163280170Y-52932571D01*
X163057326Y-52992282D01*
X163057320Y-52992284D01*
X162848231Y-53089784D01*
X162659250Y-53222110D01*
X162659244Y-53222115D01*
X162496115Y-53385244D01*
X162496110Y-53385250D01*
X162363782Y-53574233D01*
X162354194Y-53594796D01*
X162307277Y-53648081D01*
X162238999Y-53667541D01*
X162171039Y-53646999D01*
X162125806Y-53594796D01*
X162116217Y-53574233D01*
X161983889Y-53385250D01*
X161983884Y-53385244D01*
X161820755Y-53222115D01*
X161820749Y-53222110D01*
X161631768Y-53089784D01*
X161422679Y-52992284D01*
X161422673Y-52992282D01*
X161328490Y-52967045D01*
X161199830Y-52932571D01*
X160970000Y-52912464D01*
X160740170Y-52932571D01*
X160517326Y-52992282D01*
X160517320Y-52992284D01*
X160308231Y-53089784D01*
X160119250Y-53222110D01*
X160119244Y-53222115D01*
X159956115Y-53385244D01*
X159956110Y-53385250D01*
X159823782Y-53574233D01*
X159814194Y-53594796D01*
X159767277Y-53648081D01*
X159698999Y-53667541D01*
X159631039Y-53646999D01*
X159585806Y-53594796D01*
X159576217Y-53574233D01*
X159443889Y-53385250D01*
X159443884Y-53385244D01*
X159280755Y-53222115D01*
X159280749Y-53222110D01*
X159091768Y-53089784D01*
X158882679Y-52992284D01*
X158882673Y-52992282D01*
X158788490Y-52967045D01*
X158659830Y-52932571D01*
X158430000Y-52912464D01*
X158200170Y-52932571D01*
X157977326Y-52992282D01*
X157977320Y-52992284D01*
X157768231Y-53089784D01*
X157579250Y-53222110D01*
X157579244Y-53222115D01*
X157416115Y-53385244D01*
X157416110Y-53385250D01*
X157283782Y-53574233D01*
X157274194Y-53594796D01*
X157227277Y-53648081D01*
X157158999Y-53667541D01*
X157091039Y-53646999D01*
X157045806Y-53594796D01*
X157036217Y-53574233D01*
X156903889Y-53385250D01*
X156903884Y-53385244D01*
X156740755Y-53222115D01*
X156740749Y-53222110D01*
X156551768Y-53089784D01*
X156342679Y-52992284D01*
X156342673Y-52992282D01*
X156248490Y-52967045D01*
X156119830Y-52932571D01*
X155890000Y-52912464D01*
X155660170Y-52932571D01*
X155437326Y-52992282D01*
X155437320Y-52992284D01*
X155228231Y-53089784D01*
X155039250Y-53222110D01*
X155039244Y-53222115D01*
X154876115Y-53385244D01*
X154876110Y-53385250D01*
X154743782Y-53574233D01*
X154734194Y-53594796D01*
X154687277Y-53648081D01*
X154618999Y-53667541D01*
X154551039Y-53646999D01*
X154505806Y-53594796D01*
X154496217Y-53574233D01*
X154363889Y-53385250D01*
X154363884Y-53385244D01*
X154200755Y-53222115D01*
X154200749Y-53222110D01*
X154011768Y-53089784D01*
X153802679Y-52992284D01*
X153802673Y-52992282D01*
X153708490Y-52967045D01*
X153579830Y-52932571D01*
X153350000Y-52912464D01*
X153120170Y-52932571D01*
X152897326Y-52992282D01*
X152897320Y-52992284D01*
X152688231Y-53089784D01*
X152499250Y-53222110D01*
X152499244Y-53222115D01*
X152336115Y-53385244D01*
X152336110Y-53385250D01*
X152203782Y-53574233D01*
X152194194Y-53594796D01*
X152147277Y-53648081D01*
X152078999Y-53667541D01*
X152011039Y-53646999D01*
X151965806Y-53594796D01*
X151956217Y-53574233D01*
X151823889Y-53385250D01*
X151823884Y-53385244D01*
X151660755Y-53222115D01*
X151660749Y-53222110D01*
X151471768Y-53089784D01*
X151262679Y-52992284D01*
X151262673Y-52992282D01*
X151168490Y-52967045D01*
X151039830Y-52932571D01*
X150810000Y-52912464D01*
X150580170Y-52932571D01*
X150357326Y-52992282D01*
X150357320Y-52992284D01*
X150148231Y-53089784D01*
X149959250Y-53222110D01*
X149959244Y-53222115D01*
X149796115Y-53385244D01*
X149796110Y-53385250D01*
X149663782Y-53574233D01*
X149654194Y-53594796D01*
X149607277Y-53648081D01*
X149538999Y-53667541D01*
X149471039Y-53646999D01*
X149425806Y-53594796D01*
X149416217Y-53574233D01*
X149283889Y-53385250D01*
X149283884Y-53385244D01*
X149120755Y-53222115D01*
X149120749Y-53222110D01*
X148931768Y-53089784D01*
X148722679Y-52992284D01*
X148722673Y-52992282D01*
X148628490Y-52967045D01*
X148499830Y-52932571D01*
X148270000Y-52912464D01*
X148040170Y-52932571D01*
X147817326Y-52992282D01*
X147817320Y-52992284D01*
X147608231Y-53089784D01*
X147419250Y-53222110D01*
X147419244Y-53222115D01*
X147256115Y-53385244D01*
X147256110Y-53385250D01*
X147123782Y-53574233D01*
X147114194Y-53594796D01*
X147067277Y-53648081D01*
X146998999Y-53667541D01*
X146931039Y-53646999D01*
X146885806Y-53594796D01*
X146876217Y-53574233D01*
X146743889Y-53385250D01*
X146743884Y-53385244D01*
X146580755Y-53222115D01*
X146580749Y-53222110D01*
X146391768Y-53089784D01*
X146182679Y-52992284D01*
X146182673Y-52992282D01*
X146088490Y-52967045D01*
X145959830Y-52932571D01*
X145730000Y-52912464D01*
X145500170Y-52932571D01*
X145277326Y-52992282D01*
X145277320Y-52992284D01*
X145068231Y-53089784D01*
X144879250Y-53222110D01*
X144879244Y-53222115D01*
X144716115Y-53385244D01*
X144716110Y-53385250D01*
X144583782Y-53574233D01*
X144574194Y-53594796D01*
X144527277Y-53648081D01*
X144458999Y-53667541D01*
X144391039Y-53646999D01*
X144345806Y-53594796D01*
X144336217Y-53574233D01*
X144203889Y-53385250D01*
X144203884Y-53385244D01*
X144040755Y-53222115D01*
X144040749Y-53222110D01*
X143851768Y-53089784D01*
X143642679Y-52992284D01*
X143642673Y-52992282D01*
X143548490Y-52967045D01*
X143419830Y-52932571D01*
X143190000Y-52912464D01*
X142960170Y-52932571D01*
X142737326Y-52992282D01*
X142737320Y-52992284D01*
X142528231Y-53089784D01*
X142339250Y-53222110D01*
X142339244Y-53222115D01*
X142176115Y-53385244D01*
X142176110Y-53385250D01*
X142043782Y-53574233D01*
X142034194Y-53594796D01*
X141987277Y-53648081D01*
X141918999Y-53667541D01*
X141851039Y-53646999D01*
X141805806Y-53594796D01*
X141796217Y-53574233D01*
X141663889Y-53385250D01*
X141663884Y-53385244D01*
X141500755Y-53222115D01*
X141500749Y-53222110D01*
X141311768Y-53089784D01*
X141102679Y-52992284D01*
X141102673Y-52992282D01*
X141008490Y-52967045D01*
X140879830Y-52932571D01*
X140650000Y-52912464D01*
X140420170Y-52932571D01*
X140197326Y-52992282D01*
X140197320Y-52992284D01*
X139988231Y-53089784D01*
X139799250Y-53222110D01*
X139799244Y-53222115D01*
X139636115Y-53385244D01*
X139636110Y-53385250D01*
X139503782Y-53574233D01*
X139494194Y-53594796D01*
X139447277Y-53648081D01*
X139378999Y-53667541D01*
X139311039Y-53646999D01*
X139265806Y-53594796D01*
X139256217Y-53574233D01*
X139123889Y-53385250D01*
X139123884Y-53385244D01*
X138960755Y-53222115D01*
X138960749Y-53222110D01*
X138771768Y-53089784D01*
X138562679Y-52992284D01*
X138562673Y-52992282D01*
X138468490Y-52967045D01*
X138339830Y-52932571D01*
X138110000Y-52912464D01*
X137880170Y-52932571D01*
X137657326Y-52992282D01*
X137657320Y-52992284D01*
X137448231Y-53089784D01*
X137259250Y-53222110D01*
X137259244Y-53222115D01*
X137096115Y-53385244D01*
X137096110Y-53385250D01*
X136963782Y-53574233D01*
X136954194Y-53594796D01*
X136907277Y-53648081D01*
X136838999Y-53667541D01*
X136771039Y-53646999D01*
X136725806Y-53594796D01*
X136716217Y-53574233D01*
X136583889Y-53385250D01*
X136583884Y-53385244D01*
X136420755Y-53222115D01*
X136420749Y-53222110D01*
X136231768Y-53089784D01*
X136022679Y-52992284D01*
X136022673Y-52992282D01*
X135928490Y-52967045D01*
X135799830Y-52932571D01*
X135570000Y-52912464D01*
X135340170Y-52932571D01*
X135117326Y-52992282D01*
X135117320Y-52992284D01*
X134908231Y-53089784D01*
X134719250Y-53222110D01*
X134719244Y-53222115D01*
X134556115Y-53385244D01*
X134556110Y-53385250D01*
X134423782Y-53574233D01*
X134414194Y-53594796D01*
X134367277Y-53648081D01*
X134298999Y-53667541D01*
X134231039Y-53646999D01*
X134185806Y-53594796D01*
X134176217Y-53574233D01*
X134043889Y-53385250D01*
X134043884Y-53385244D01*
X133880755Y-53222115D01*
X133880749Y-53222110D01*
X133691768Y-53089784D01*
X133482679Y-52992284D01*
X133482673Y-52992282D01*
X133388490Y-52967045D01*
X133259830Y-52932571D01*
X133030000Y-52912464D01*
X132800170Y-52932571D01*
X132577326Y-52992282D01*
X132577320Y-52992284D01*
X132368231Y-53089784D01*
X132179250Y-53222110D01*
X132179244Y-53222115D01*
X132016115Y-53385244D01*
X132016110Y-53385250D01*
X131883782Y-53574233D01*
X131874194Y-53594796D01*
X131827277Y-53648081D01*
X131758999Y-53667541D01*
X131691039Y-53646999D01*
X131645806Y-53594796D01*
X131636217Y-53574233D01*
X131503889Y-53385250D01*
X131503884Y-53385244D01*
X131340755Y-53222115D01*
X131340749Y-53222110D01*
X131151768Y-53089784D01*
X130942679Y-52992284D01*
X130942673Y-52992282D01*
X130848490Y-52967045D01*
X130719830Y-52932571D01*
X130490000Y-52912464D01*
X130260170Y-52932571D01*
X130037326Y-52992282D01*
X130037320Y-52992284D01*
X129828231Y-53089784D01*
X129639250Y-53222110D01*
X129639244Y-53222115D01*
X129476115Y-53385244D01*
X129476110Y-53385250D01*
X129343782Y-53574233D01*
X129334194Y-53594796D01*
X129287277Y-53648081D01*
X129218999Y-53667541D01*
X129151039Y-53646999D01*
X129105806Y-53594796D01*
X129096217Y-53574233D01*
X128963889Y-53385250D01*
X128963884Y-53385244D01*
X128800755Y-53222115D01*
X128800749Y-53222110D01*
X128611768Y-53089784D01*
X128402679Y-52992284D01*
X128402673Y-52992282D01*
X128308490Y-52967045D01*
X128179830Y-52932571D01*
X127950000Y-52912464D01*
X127720170Y-52932571D01*
X127497326Y-52992282D01*
X127497320Y-52992284D01*
X127288231Y-53089784D01*
X127099250Y-53222110D01*
X127099244Y-53222115D01*
X126936115Y-53385244D01*
X126936110Y-53385250D01*
X126803782Y-53574233D01*
X126794194Y-53594796D01*
X126747277Y-53648081D01*
X126678999Y-53667541D01*
X126611039Y-53646999D01*
X126565806Y-53594796D01*
X126556217Y-53574233D01*
X126423889Y-53385250D01*
X126423884Y-53385244D01*
X126260755Y-53222115D01*
X126260749Y-53222110D01*
X126071768Y-53089784D01*
X125862679Y-52992284D01*
X125862673Y-52992282D01*
X125768490Y-52967045D01*
X125639830Y-52932571D01*
X125410000Y-52912464D01*
X125180170Y-52932571D01*
X124957326Y-52992282D01*
X124957320Y-52992284D01*
X124748231Y-53089784D01*
X124559250Y-53222110D01*
X124559244Y-53222115D01*
X124396115Y-53385244D01*
X124396110Y-53385250D01*
X124263782Y-53574233D01*
X124254194Y-53594796D01*
X124207277Y-53648081D01*
X124138999Y-53667541D01*
X124071039Y-53646999D01*
X124025806Y-53594796D01*
X124016217Y-53574233D01*
X123883889Y-53385250D01*
X123883884Y-53385244D01*
X123720755Y-53222115D01*
X123720749Y-53222110D01*
X123531768Y-53089784D01*
X123322679Y-52992284D01*
X123322673Y-52992282D01*
X123228490Y-52967045D01*
X123099830Y-52932571D01*
X122870000Y-52912464D01*
X122640170Y-52932571D01*
X122417326Y-52992282D01*
X122417320Y-52992284D01*
X122208231Y-53089784D01*
X122019250Y-53222110D01*
X122019244Y-53222115D01*
X121856115Y-53385244D01*
X121856110Y-53385250D01*
X121723782Y-53574233D01*
X121714194Y-53594796D01*
X121667277Y-53648081D01*
X121598999Y-53667541D01*
X121531039Y-53646999D01*
X121485806Y-53594796D01*
X121476217Y-53574233D01*
X121343889Y-53385250D01*
X121343884Y-53385244D01*
X121180755Y-53222115D01*
X121180749Y-53222110D01*
X120991768Y-53089784D01*
X120782679Y-52992284D01*
X120782673Y-52992282D01*
X120688490Y-52967045D01*
X120559830Y-52932571D01*
X120330000Y-52912464D01*
X120100170Y-52932571D01*
X119877326Y-52992282D01*
X119877320Y-52992284D01*
X119668231Y-53089784D01*
X119479250Y-53222110D01*
X119479244Y-53222115D01*
X119316115Y-53385244D01*
X119316110Y-53385250D01*
X119183782Y-53574233D01*
X119174194Y-53594796D01*
X119127277Y-53648081D01*
X119058999Y-53667541D01*
X118991039Y-53646999D01*
X118945806Y-53594796D01*
X118936217Y-53574233D01*
X118803889Y-53385250D01*
X118803884Y-53385244D01*
X118640755Y-53222115D01*
X118640749Y-53222110D01*
X118451768Y-53089784D01*
X118242679Y-52992284D01*
X118242673Y-52992282D01*
X118148490Y-52967045D01*
X118019830Y-52932571D01*
X117790000Y-52912464D01*
X117560170Y-52932571D01*
X117337326Y-52992282D01*
X117337320Y-52992284D01*
X117128231Y-53089784D01*
X116939250Y-53222110D01*
X116939244Y-53222115D01*
X116776115Y-53385244D01*
X116776110Y-53385250D01*
X116643782Y-53574233D01*
X116634194Y-53594796D01*
X116587277Y-53648081D01*
X116518999Y-53667541D01*
X116451039Y-53646999D01*
X116405806Y-53594796D01*
X116396217Y-53574233D01*
X116263889Y-53385250D01*
X116263884Y-53385244D01*
X116100755Y-53222115D01*
X116100749Y-53222110D01*
X115911768Y-53089784D01*
X115702679Y-52992284D01*
X115702673Y-52992282D01*
X115608490Y-52967045D01*
X115479830Y-52932571D01*
X115250000Y-52912464D01*
X115020170Y-52932571D01*
X114797326Y-52992282D01*
X114797320Y-52992284D01*
X114588231Y-53089784D01*
X114399250Y-53222110D01*
X114399244Y-53222115D01*
X114236115Y-53385244D01*
X114236110Y-53385250D01*
X114103784Y-53574231D01*
X114006284Y-53783320D01*
X114006282Y-53783326D01*
X113946571Y-54006170D01*
X113926464Y-54236000D01*
X113946571Y-54465829D01*
X114006282Y-54688673D01*
X114006284Y-54688679D01*
X114060273Y-54804458D01*
X114103784Y-54897768D01*
X114236113Y-55086753D01*
X114399247Y-55249887D01*
X114399250Y-55249889D01*
X114588233Y-55382217D01*
X114608796Y-55391806D01*
X114662081Y-55438723D01*
X114681541Y-55507001D01*
X114660999Y-55574961D01*
X114608796Y-55620194D01*
X114588233Y-55629782D01*
X114399250Y-55762110D01*
X114399244Y-55762115D01*
X114236115Y-55925244D01*
X114236110Y-55925250D01*
X114103784Y-56114231D01*
X114006284Y-56323320D01*
X114006282Y-56323326D01*
X113946571Y-56546170D01*
X113926464Y-56776000D01*
X113946571Y-57005829D01*
X114006282Y-57228673D01*
X114006284Y-57228679D01*
X114103784Y-57437768D01*
X114236110Y-57626749D01*
X114239644Y-57630960D01*
X114238087Y-57632265D01*
X114267858Y-57686784D01*
X114262793Y-57757599D01*
X114233832Y-57802662D01*
X111899536Y-60136957D01*
X111887101Y-60146921D01*
X111887289Y-60147148D01*
X111881180Y-60152201D01*
X111833216Y-60203278D01*
X111812066Y-60224427D01*
X111807760Y-60229977D01*
X111803914Y-60234479D01*
X111771617Y-60268874D01*
X111771611Y-60268883D01*
X111761851Y-60286635D01*
X111751003Y-60303150D01*
X111738586Y-60319158D01*
X111719845Y-60362464D01*
X111717234Y-60367794D01*
X111694505Y-60409139D01*
X111694503Y-60409144D01*
X111689467Y-60428759D01*
X111683064Y-60447462D01*
X111675019Y-60466052D01*
X111667637Y-60512656D01*
X111666433Y-60518468D01*
X111654700Y-60564168D01*
X111654700Y-60584423D01*
X111653149Y-60604133D01*
X111649980Y-60624142D01*
X111649980Y-60624143D01*
X111654420Y-60671117D01*
X111654700Y-60677050D01*
X111654700Y-71120505D01*
X111634698Y-71188626D01*
X111617795Y-71209600D01*
X110883595Y-71943800D01*
X110821283Y-71977826D01*
X110750468Y-71972761D01*
X110693632Y-71930214D01*
X110668821Y-71863694D01*
X110668500Y-71854705D01*
X110668500Y-71199447D01*
X110657887Y-71095578D01*
X110657887Y-71095575D01*
X110602115Y-70927262D01*
X110509030Y-70776349D01*
X110509029Y-70776348D01*
X110509024Y-70776342D01*
X110383657Y-70650975D01*
X110383651Y-70650970D01*
X110232738Y-70557885D01*
X110064425Y-70502113D01*
X110064423Y-70502112D01*
X110064421Y-70502112D01*
X109960552Y-70491500D01*
X109960544Y-70491500D01*
X107359456Y-70491500D01*
X107359448Y-70491500D01*
X107255578Y-70502112D01*
X107087262Y-70557885D01*
X107087260Y-70557886D01*
X106936348Y-70650970D01*
X106936342Y-70650975D01*
X106810975Y-70776342D01*
X106810970Y-70776348D01*
X106717886Y-70927260D01*
X106717885Y-70927262D01*
X106662112Y-71095578D01*
X106651500Y-71199447D01*
X106651500Y-72900552D01*
X106651499Y-72900552D01*
X103345500Y-72900552D01*
X103345500Y-66838482D01*
X103345694Y-66833537D01*
X103356565Y-66695404D01*
X103362064Y-66625525D01*
X103368139Y-66595580D01*
X103490595Y-66228213D01*
X103521031Y-66178968D01*
X104078968Y-65621031D01*
X104128213Y-65590595D01*
X104618602Y-65427132D01*
X104648540Y-65421059D01*
X104754343Y-65412732D01*
X104767537Y-65411694D01*
X104772481Y-65411500D01*
X105682684Y-65411500D01*
X105682684Y-65411499D01*
X105753742Y-65401282D01*
X105771674Y-65400000D01*
X105999999Y-65400000D01*
X106000000Y-65400000D01*
X106194832Y-65283100D01*
X106201065Y-65279820D01*
X106326985Y-65222315D01*
X106516573Y-65100474D01*
X106686892Y-64952892D01*
X106834474Y-64782573D01*
X106857813Y-64746256D01*
X106874704Y-64725295D01*
X107000000Y-64600000D01*
X107200000Y-64000000D01*
X107200000Y-56098985D01*
X107220002Y-56030864D01*
X107273658Y-55984371D01*
X107343932Y-55974267D01*
X107408512Y-56003761D01*
X107430289Y-56028276D01*
X107552518Y-56208551D01*
X107673640Y-56351148D01*
X108849994Y-55174794D01*
X108851570Y-55177365D01*
X109015130Y-55368870D01*
X109206635Y-55532430D01*
X109209203Y-55534004D01*
X108029870Y-56713337D01*
X108037713Y-56720766D01*
X108037719Y-56720771D01*
X108318969Y-56934572D01*
X108621678Y-57116706D01*
X108942316Y-57265049D01*
X108942320Y-57265051D01*
X109277103Y-57377852D01*
X109277117Y-57377856D01*
X109622127Y-57453800D01*
X109622151Y-57453804D01*
X109973348Y-57491999D01*
X109973364Y-57492000D01*
X110326636Y-57492000D01*
X110326651Y-57491999D01*
X110677848Y-57453804D01*
X110677872Y-57453800D01*
X111022882Y-57377856D01*
X111022896Y-57377852D01*
X111357679Y-57265051D01*
X111357683Y-57265049D01*
X111678321Y-57116706D01*
X111981030Y-56934572D01*
X112262276Y-56720774D01*
X112262282Y-56720769D01*
X112270127Y-56713338D01*
X112270127Y-56713336D01*
X111090795Y-55534004D01*
X111093365Y-55532430D01*
X111284870Y-55368870D01*
X111448430Y-55177365D01*
X111450004Y-55174795D01*
X112626357Y-56351148D01*
X112747482Y-56208551D01*
X112945741Y-55916140D01*
X112945743Y-55916136D01*
X113111223Y-55604005D01*
X113111227Y-55603996D01*
X113241989Y-55275811D01*
X113241990Y-55275808D01*
X113336503Y-54935401D01*
X113336503Y-54935398D01*
X113393657Y-54586769D01*
X113412785Y-54234002D01*
X113412785Y-54233997D01*
X113393657Y-53881230D01*
X113336503Y-53532601D01*
X113336503Y-53532598D01*
X113241990Y-53192191D01*
X113241989Y-53192188D01*
X113111227Y-52864003D01*
X113111223Y-52863994D01*
X112945743Y-52551863D01*
X112945741Y-52551859D01*
X112747481Y-52259448D01*
X112747482Y-52259448D01*
X112626357Y-52116850D01*
X111450004Y-53293203D01*
X111448430Y-53290635D01*
X111284870Y-53099130D01*
X111093365Y-52935570D01*
X111090794Y-52933994D01*
X112270128Y-51754661D01*
X112262286Y-51747233D01*
X112262280Y-51747228D01*
X111981030Y-51533427D01*
X111834834Y-51445464D01*
X111786777Y-51393205D01*
X111774601Y-51323260D01*
X111802174Y-51257836D01*
X111860740Y-51217705D01*
X111899794Y-51211500D01*
X182093530Y-51211500D01*
X182161651Y-51231502D01*
G37*
G04 #@! TD.AperFunction*
M02*
