G04 #@! TF.GenerationSoftware,KiCad,Pcbnew,5.1.6-1.fc32*
G04 #@! TF.CreationDate,2020-09-21T20:32:52-03:00*
G04 #@! TF.ProjectId,pc104-adapter-bottom,70633130-342d-4616-9461-707465722d62,v2.0*
G04 #@! TF.SameCoordinates,Original*
G04 #@! TF.FileFunction,Soldermask,Top*
G04 #@! TF.FilePolarity,Negative*
%FSLAX46Y46*%
G04 Gerber Fmt 4.6, Leading zero omitted, Abs format (unit mm)*
G04 Created by KiCad (PCBNEW 5.1.6-1.fc32) date 2020-09-21 20:32:52*
%MOMM*%
%LPD*%
G01*
G04 APERTURE LIST*
%ADD10C,0.100000*%
%ADD11C,5.600000*%
G04 APERTURE END LIST*
D10*
X116111000Y-56776000D02*
G75*
G03*
X116111000Y-56776000I-861000J0D01*
G01*
X116111000Y-54236000D02*
G75*
G03*
X116111000Y-54236000I-861000J0D01*
G01*
X118651000Y-56776000D02*
G75*
G03*
X118651000Y-56776000I-861000J0D01*
G01*
X118651000Y-54236000D02*
G75*
G03*
X118651000Y-54236000I-861000J0D01*
G01*
X121191000Y-56776000D02*
G75*
G03*
X121191000Y-56776000I-861000J0D01*
G01*
X121191000Y-54236000D02*
G75*
G03*
X121191000Y-54236000I-861000J0D01*
G01*
X123731000Y-56776000D02*
G75*
G03*
X123731000Y-56776000I-861000J0D01*
G01*
X123731000Y-54236000D02*
G75*
G03*
X123731000Y-54236000I-861000J0D01*
G01*
X126271000Y-56776000D02*
G75*
G03*
X126271000Y-56776000I-861000J0D01*
G01*
X126271000Y-54236000D02*
G75*
G03*
X126271000Y-54236000I-861000J0D01*
G01*
X128811000Y-56776000D02*
G75*
G03*
X128811000Y-56776000I-861000J0D01*
G01*
X128811000Y-54236000D02*
G75*
G03*
X128811000Y-54236000I-861000J0D01*
G01*
X131351000Y-56776000D02*
G75*
G03*
X131351000Y-56776000I-861000J0D01*
G01*
X131351000Y-54236000D02*
G75*
G03*
X131351000Y-54236000I-861000J0D01*
G01*
X133891000Y-56776000D02*
G75*
G03*
X133891000Y-56776000I-861000J0D01*
G01*
X133891000Y-54236000D02*
G75*
G03*
X133891000Y-54236000I-861000J0D01*
G01*
X136431000Y-56776000D02*
G75*
G03*
X136431000Y-56776000I-861000J0D01*
G01*
X136431000Y-54236000D02*
G75*
G03*
X136431000Y-54236000I-861000J0D01*
G01*
X138971000Y-56776000D02*
G75*
G03*
X138971000Y-56776000I-861000J0D01*
G01*
X138971000Y-54236000D02*
G75*
G03*
X138971000Y-54236000I-861000J0D01*
G01*
X141511000Y-56776000D02*
G75*
G03*
X141511000Y-56776000I-861000J0D01*
G01*
X141511000Y-54236000D02*
G75*
G03*
X141511000Y-54236000I-861000J0D01*
G01*
X144051000Y-56776000D02*
G75*
G03*
X144051000Y-56776000I-861000J0D01*
G01*
X144051000Y-54236000D02*
G75*
G03*
X144051000Y-54236000I-861000J0D01*
G01*
X146591000Y-56776000D02*
G75*
G03*
X146591000Y-56776000I-861000J0D01*
G01*
X146591000Y-54236000D02*
G75*
G03*
X146591000Y-54236000I-861000J0D01*
G01*
X149131000Y-56776000D02*
G75*
G03*
X149131000Y-56776000I-861000J0D01*
G01*
X149131000Y-54236000D02*
G75*
G03*
X149131000Y-54236000I-861000J0D01*
G01*
X151671000Y-56776000D02*
G75*
G03*
X151671000Y-56776000I-861000J0D01*
G01*
X151671000Y-54236000D02*
G75*
G03*
X151671000Y-54236000I-861000J0D01*
G01*
X154211000Y-56776000D02*
G75*
G03*
X154211000Y-56776000I-861000J0D01*
G01*
X154211000Y-54236000D02*
G75*
G03*
X154211000Y-54236000I-861000J0D01*
G01*
X156751000Y-56776000D02*
G75*
G03*
X156751000Y-56776000I-861000J0D01*
G01*
X156751000Y-54236000D02*
G75*
G03*
X156751000Y-54236000I-861000J0D01*
G01*
X159291000Y-56776000D02*
G75*
G03*
X159291000Y-56776000I-861000J0D01*
G01*
X159291000Y-54236000D02*
G75*
G03*
X159291000Y-54236000I-861000J0D01*
G01*
X161831000Y-56776000D02*
G75*
G03*
X161831000Y-56776000I-861000J0D01*
G01*
X161831000Y-54236000D02*
G75*
G03*
X161831000Y-54236000I-861000J0D01*
G01*
X164371000Y-56776000D02*
G75*
G03*
X164371000Y-56776000I-861000J0D01*
G01*
X164371000Y-54236000D02*
G75*
G03*
X164371000Y-54236000I-861000J0D01*
G01*
X166911000Y-56776000D02*
G75*
G03*
X166911000Y-56776000I-861000J0D01*
G01*
X166911000Y-54236000D02*
G75*
G03*
X166911000Y-54236000I-861000J0D01*
G01*
X169451000Y-56776000D02*
G75*
G03*
X169451000Y-56776000I-861000J0D01*
G01*
X169451000Y-54236000D02*
G75*
G03*
X169451000Y-54236000I-861000J0D01*
G01*
X171991000Y-56776000D02*
G75*
G03*
X171991000Y-56776000I-861000J0D01*
G01*
X171991000Y-54236000D02*
G75*
G03*
X171991000Y-54236000I-861000J0D01*
G01*
X174531000Y-56776000D02*
G75*
G03*
X174531000Y-56776000I-861000J0D01*
G01*
X174531000Y-54236000D02*
G75*
G03*
X174531000Y-54236000I-861000J0D01*
G01*
X177071000Y-56776000D02*
G75*
G03*
X177071000Y-56776000I-861000J0D01*
G01*
X177071000Y-54236000D02*
G75*
G03*
X177071000Y-54236000I-861000J0D01*
G01*
X179611000Y-56776000D02*
G75*
G03*
X179611000Y-56776000I-861000J0D01*
G01*
X179611000Y-54236000D02*
G75*
G03*
X179611000Y-54236000I-861000J0D01*
G01*
X116111000Y-61856000D02*
G75*
G03*
X116111000Y-61856000I-861000J0D01*
G01*
X116111000Y-59316000D02*
G75*
G03*
X116111000Y-59316000I-861000J0D01*
G01*
X118651000Y-61856000D02*
G75*
G03*
X118651000Y-61856000I-861000J0D01*
G01*
X118651000Y-59316000D02*
G75*
G03*
X118651000Y-59316000I-861000J0D01*
G01*
X121191000Y-61856000D02*
G75*
G03*
X121191000Y-61856000I-861000J0D01*
G01*
X121191000Y-59316000D02*
G75*
G03*
X121191000Y-59316000I-861000J0D01*
G01*
X123731000Y-61856000D02*
G75*
G03*
X123731000Y-61856000I-861000J0D01*
G01*
X123731000Y-59316000D02*
G75*
G03*
X123731000Y-59316000I-861000J0D01*
G01*
X126271000Y-61856000D02*
G75*
G03*
X126271000Y-61856000I-861000J0D01*
G01*
X126271000Y-59316000D02*
G75*
G03*
X126271000Y-59316000I-861000J0D01*
G01*
X128811000Y-61856000D02*
G75*
G03*
X128811000Y-61856000I-861000J0D01*
G01*
X128811000Y-59316000D02*
G75*
G03*
X128811000Y-59316000I-861000J0D01*
G01*
X131351000Y-61856000D02*
G75*
G03*
X131351000Y-61856000I-861000J0D01*
G01*
X131351000Y-59316000D02*
G75*
G03*
X131351000Y-59316000I-861000J0D01*
G01*
X133891000Y-61856000D02*
G75*
G03*
X133891000Y-61856000I-861000J0D01*
G01*
X133891000Y-59316000D02*
G75*
G03*
X133891000Y-59316000I-861000J0D01*
G01*
X136431000Y-61856000D02*
G75*
G03*
X136431000Y-61856000I-861000J0D01*
G01*
X136431000Y-59316000D02*
G75*
G03*
X136431000Y-59316000I-861000J0D01*
G01*
X138971000Y-61856000D02*
G75*
G03*
X138971000Y-61856000I-861000J0D01*
G01*
X138971000Y-59316000D02*
G75*
G03*
X138971000Y-59316000I-861000J0D01*
G01*
X141511000Y-61856000D02*
G75*
G03*
X141511000Y-61856000I-861000J0D01*
G01*
X141511000Y-59316000D02*
G75*
G03*
X141511000Y-59316000I-861000J0D01*
G01*
X144051000Y-61856000D02*
G75*
G03*
X144051000Y-61856000I-861000J0D01*
G01*
X144051000Y-59316000D02*
G75*
G03*
X144051000Y-59316000I-861000J0D01*
G01*
X146591000Y-61856000D02*
G75*
G03*
X146591000Y-61856000I-861000J0D01*
G01*
X146591000Y-59316000D02*
G75*
G03*
X146591000Y-59316000I-861000J0D01*
G01*
X149131000Y-61856000D02*
G75*
G03*
X149131000Y-61856000I-861000J0D01*
G01*
X149131000Y-59316000D02*
G75*
G03*
X149131000Y-59316000I-861000J0D01*
G01*
X151671000Y-61856000D02*
G75*
G03*
X151671000Y-61856000I-861000J0D01*
G01*
X151671000Y-59316000D02*
G75*
G03*
X151671000Y-59316000I-861000J0D01*
G01*
X154211000Y-61856000D02*
G75*
G03*
X154211000Y-61856000I-861000J0D01*
G01*
X154211000Y-59316000D02*
G75*
G03*
X154211000Y-59316000I-861000J0D01*
G01*
X156751000Y-61856000D02*
G75*
G03*
X156751000Y-61856000I-861000J0D01*
G01*
X156751000Y-59316000D02*
G75*
G03*
X156751000Y-59316000I-861000J0D01*
G01*
X159291000Y-61856000D02*
G75*
G03*
X159291000Y-61856000I-861000J0D01*
G01*
X159291000Y-59316000D02*
G75*
G03*
X159291000Y-59316000I-861000J0D01*
G01*
X161831000Y-61856000D02*
G75*
G03*
X161831000Y-61856000I-861000J0D01*
G01*
X161831000Y-59316000D02*
G75*
G03*
X161831000Y-59316000I-861000J0D01*
G01*
X164371000Y-61856000D02*
G75*
G03*
X164371000Y-61856000I-861000J0D01*
G01*
X164371000Y-59316000D02*
G75*
G03*
X164371000Y-59316000I-861000J0D01*
G01*
X166911000Y-61856000D02*
G75*
G03*
X166911000Y-61856000I-861000J0D01*
G01*
X166911000Y-59316000D02*
G75*
G03*
X166911000Y-59316000I-861000J0D01*
G01*
X169451000Y-61856000D02*
G75*
G03*
X169451000Y-61856000I-861000J0D01*
G01*
X169451000Y-59316000D02*
G75*
G03*
X169451000Y-59316000I-861000J0D01*
G01*
X171991000Y-61856000D02*
G75*
G03*
X171991000Y-61856000I-861000J0D01*
G01*
X171991000Y-59316000D02*
G75*
G03*
X171991000Y-59316000I-861000J0D01*
G01*
X174531000Y-61856000D02*
G75*
G03*
X174531000Y-61856000I-861000J0D01*
G01*
X174531000Y-59316000D02*
G75*
G03*
X174531000Y-59316000I-861000J0D01*
G01*
X177071000Y-61856000D02*
G75*
G03*
X177071000Y-61856000I-861000J0D01*
G01*
X177071000Y-59316000D02*
G75*
G03*
X177071000Y-59316000I-861000J0D01*
G01*
X179611000Y-61856000D02*
G75*
G03*
X179611000Y-61856000I-861000J0D01*
G01*
X179611000Y-59316000D02*
G75*
G03*
X179611000Y-59316000I-861000J0D01*
G01*
D11*
X106370000Y-139936000D03*
X186430000Y-139936000D03*
G36*
G01*
X186620095Y-73150000D02*
X184043905Y-73150000D01*
G75*
G02*
X183782000Y-72888095I0J261905D01*
G01*
X183782000Y-71211905D01*
G75*
G02*
X184043905Y-70950000I261905J0D01*
G01*
X186620095Y-70950000D01*
G75*
G02*
X186882000Y-71211905I0J-261905D01*
G01*
X186882000Y-72888095D01*
G75*
G02*
X186620095Y-73150000I-261905J0D01*
G01*
G37*
G36*
G01*
X186620095Y-93250000D02*
X184043905Y-93250000D01*
G75*
G02*
X183782000Y-92988095I0J261905D01*
G01*
X183782000Y-91311905D01*
G75*
G02*
X184043905Y-91050000I261905J0D01*
G01*
X186620095Y-91050000D01*
G75*
G02*
X186882000Y-91311905I0J-261905D01*
G01*
X186882000Y-92988095D01*
G75*
G02*
X186620095Y-93250000I-261905J0D01*
G01*
G37*
G36*
G01*
X183057000Y-75050000D02*
X182107000Y-75050000D01*
G75*
G02*
X181882000Y-74825000I0J225000D01*
G01*
X181882000Y-74375000D01*
G75*
G02*
X182107000Y-74150000I225000J0D01*
G01*
X183057000Y-74150000D01*
G75*
G02*
X183282000Y-74375000I0J-225000D01*
G01*
X183282000Y-74825000D01*
G75*
G02*
X183057000Y-75050000I-225000J0D01*
G01*
G37*
G36*
G01*
X183057000Y-76300000D02*
X182107000Y-76300000D01*
G75*
G02*
X181882000Y-76075000I0J225000D01*
G01*
X181882000Y-75625000D01*
G75*
G02*
X182107000Y-75400000I225000J0D01*
G01*
X183057000Y-75400000D01*
G75*
G02*
X183282000Y-75625000I0J-225000D01*
G01*
X183282000Y-76075000D01*
G75*
G02*
X183057000Y-76300000I-225000J0D01*
G01*
G37*
G36*
G01*
X183057000Y-77550000D02*
X182107000Y-77550000D01*
G75*
G02*
X181882000Y-77325000I0J225000D01*
G01*
X181882000Y-76875000D01*
G75*
G02*
X182107000Y-76650000I225000J0D01*
G01*
X183057000Y-76650000D01*
G75*
G02*
X183282000Y-76875000I0J-225000D01*
G01*
X183282000Y-77325000D01*
G75*
G02*
X183057000Y-77550000I-225000J0D01*
G01*
G37*
G36*
G01*
X183057000Y-78800000D02*
X182107000Y-78800000D01*
G75*
G02*
X181882000Y-78575000I0J225000D01*
G01*
X181882000Y-78125000D01*
G75*
G02*
X182107000Y-77900000I225000J0D01*
G01*
X183057000Y-77900000D01*
G75*
G02*
X183282000Y-78125000I0J-225000D01*
G01*
X183282000Y-78575000D01*
G75*
G02*
X183057000Y-78800000I-225000J0D01*
G01*
G37*
G36*
G01*
X183057000Y-80050000D02*
X182107000Y-80050000D01*
G75*
G02*
X181882000Y-79825000I0J225000D01*
G01*
X181882000Y-79375000D01*
G75*
G02*
X182107000Y-79150000I225000J0D01*
G01*
X183057000Y-79150000D01*
G75*
G02*
X183282000Y-79375000I0J-225000D01*
G01*
X183282000Y-79825000D01*
G75*
G02*
X183057000Y-80050000I-225000J0D01*
G01*
G37*
G36*
G01*
X183057000Y-81300000D02*
X182107000Y-81300000D01*
G75*
G02*
X181882000Y-81075000I0J225000D01*
G01*
X181882000Y-80625000D01*
G75*
G02*
X182107000Y-80400000I225000J0D01*
G01*
X183057000Y-80400000D01*
G75*
G02*
X183282000Y-80625000I0J-225000D01*
G01*
X183282000Y-81075000D01*
G75*
G02*
X183057000Y-81300000I-225000J0D01*
G01*
G37*
G36*
G01*
X183057000Y-82550000D02*
X182107000Y-82550000D01*
G75*
G02*
X181882000Y-82325000I0J225000D01*
G01*
X181882000Y-81875000D01*
G75*
G02*
X182107000Y-81650000I225000J0D01*
G01*
X183057000Y-81650000D01*
G75*
G02*
X183282000Y-81875000I0J-225000D01*
G01*
X183282000Y-82325000D01*
G75*
G02*
X183057000Y-82550000I-225000J0D01*
G01*
G37*
G36*
G01*
X183057000Y-83800000D02*
X182107000Y-83800000D01*
G75*
G02*
X181882000Y-83575000I0J225000D01*
G01*
X181882000Y-83125000D01*
G75*
G02*
X182107000Y-82900000I225000J0D01*
G01*
X183057000Y-82900000D01*
G75*
G02*
X183282000Y-83125000I0J-225000D01*
G01*
X183282000Y-83575000D01*
G75*
G02*
X183057000Y-83800000I-225000J0D01*
G01*
G37*
G36*
G01*
X183057000Y-85050000D02*
X182107000Y-85050000D01*
G75*
G02*
X181882000Y-84825000I0J225000D01*
G01*
X181882000Y-84375000D01*
G75*
G02*
X182107000Y-84150000I225000J0D01*
G01*
X183057000Y-84150000D01*
G75*
G02*
X183282000Y-84375000I0J-225000D01*
G01*
X183282000Y-84825000D01*
G75*
G02*
X183057000Y-85050000I-225000J0D01*
G01*
G37*
G36*
G01*
X183057000Y-86300000D02*
X182107000Y-86300000D01*
G75*
G02*
X181882000Y-86075000I0J225000D01*
G01*
X181882000Y-85625000D01*
G75*
G02*
X182107000Y-85400000I225000J0D01*
G01*
X183057000Y-85400000D01*
G75*
G02*
X183282000Y-85625000I0J-225000D01*
G01*
X183282000Y-86075000D01*
G75*
G02*
X183057000Y-86300000I-225000J0D01*
G01*
G37*
G36*
G01*
X183057000Y-87550000D02*
X182107000Y-87550000D01*
G75*
G02*
X181882000Y-87325000I0J225000D01*
G01*
X181882000Y-86875000D01*
G75*
G02*
X182107000Y-86650000I225000J0D01*
G01*
X183057000Y-86650000D01*
G75*
G02*
X183282000Y-86875000I0J-225000D01*
G01*
X183282000Y-87325000D01*
G75*
G02*
X183057000Y-87550000I-225000J0D01*
G01*
G37*
G36*
G01*
X183057000Y-88800000D02*
X182107000Y-88800000D01*
G75*
G02*
X181882000Y-88575000I0J225000D01*
G01*
X181882000Y-88125000D01*
G75*
G02*
X182107000Y-87900000I225000J0D01*
G01*
X183057000Y-87900000D01*
G75*
G02*
X183282000Y-88125000I0J-225000D01*
G01*
X183282000Y-88575000D01*
G75*
G02*
X183057000Y-88800000I-225000J0D01*
G01*
G37*
G36*
G01*
X183057000Y-90050000D02*
X182107000Y-90050000D01*
G75*
G02*
X181882000Y-89825000I0J225000D01*
G01*
X181882000Y-89375000D01*
G75*
G02*
X182107000Y-89150000I225000J0D01*
G01*
X183057000Y-89150000D01*
G75*
G02*
X183282000Y-89375000I0J-225000D01*
G01*
X183282000Y-89825000D01*
G75*
G02*
X183057000Y-90050000I-225000J0D01*
G01*
G37*
G36*
G01*
X155046095Y-73150000D02*
X152469905Y-73150000D01*
G75*
G02*
X152208000Y-72888095I0J261905D01*
G01*
X152208000Y-71211905D01*
G75*
G02*
X152469905Y-70950000I261905J0D01*
G01*
X155046095Y-70950000D01*
G75*
G02*
X155308000Y-71211905I0J-261905D01*
G01*
X155308000Y-72888095D01*
G75*
G02*
X155046095Y-73150000I-261905J0D01*
G01*
G37*
G36*
G01*
X155046095Y-93250000D02*
X152469905Y-93250000D01*
G75*
G02*
X152208000Y-92988095I0J261905D01*
G01*
X152208000Y-91311905D01*
G75*
G02*
X152469905Y-91050000I261905J0D01*
G01*
X155046095Y-91050000D01*
G75*
G02*
X155308000Y-91311905I0J-261905D01*
G01*
X155308000Y-92988095D01*
G75*
G02*
X155046095Y-93250000I-261905J0D01*
G01*
G37*
G36*
G01*
X151483000Y-75050000D02*
X150533000Y-75050000D01*
G75*
G02*
X150308000Y-74825000I0J225000D01*
G01*
X150308000Y-74375000D01*
G75*
G02*
X150533000Y-74150000I225000J0D01*
G01*
X151483000Y-74150000D01*
G75*
G02*
X151708000Y-74375000I0J-225000D01*
G01*
X151708000Y-74825000D01*
G75*
G02*
X151483000Y-75050000I-225000J0D01*
G01*
G37*
G36*
G01*
X151483000Y-76300000D02*
X150533000Y-76300000D01*
G75*
G02*
X150308000Y-76075000I0J225000D01*
G01*
X150308000Y-75625000D01*
G75*
G02*
X150533000Y-75400000I225000J0D01*
G01*
X151483000Y-75400000D01*
G75*
G02*
X151708000Y-75625000I0J-225000D01*
G01*
X151708000Y-76075000D01*
G75*
G02*
X151483000Y-76300000I-225000J0D01*
G01*
G37*
G36*
G01*
X151483000Y-77550000D02*
X150533000Y-77550000D01*
G75*
G02*
X150308000Y-77325000I0J225000D01*
G01*
X150308000Y-76875000D01*
G75*
G02*
X150533000Y-76650000I225000J0D01*
G01*
X151483000Y-76650000D01*
G75*
G02*
X151708000Y-76875000I0J-225000D01*
G01*
X151708000Y-77325000D01*
G75*
G02*
X151483000Y-77550000I-225000J0D01*
G01*
G37*
G36*
G01*
X151483000Y-78800000D02*
X150533000Y-78800000D01*
G75*
G02*
X150308000Y-78575000I0J225000D01*
G01*
X150308000Y-78125000D01*
G75*
G02*
X150533000Y-77900000I225000J0D01*
G01*
X151483000Y-77900000D01*
G75*
G02*
X151708000Y-78125000I0J-225000D01*
G01*
X151708000Y-78575000D01*
G75*
G02*
X151483000Y-78800000I-225000J0D01*
G01*
G37*
G36*
G01*
X151483000Y-80050000D02*
X150533000Y-80050000D01*
G75*
G02*
X150308000Y-79825000I0J225000D01*
G01*
X150308000Y-79375000D01*
G75*
G02*
X150533000Y-79150000I225000J0D01*
G01*
X151483000Y-79150000D01*
G75*
G02*
X151708000Y-79375000I0J-225000D01*
G01*
X151708000Y-79825000D01*
G75*
G02*
X151483000Y-80050000I-225000J0D01*
G01*
G37*
G36*
G01*
X151483000Y-81300000D02*
X150533000Y-81300000D01*
G75*
G02*
X150308000Y-81075000I0J225000D01*
G01*
X150308000Y-80625000D01*
G75*
G02*
X150533000Y-80400000I225000J0D01*
G01*
X151483000Y-80400000D01*
G75*
G02*
X151708000Y-80625000I0J-225000D01*
G01*
X151708000Y-81075000D01*
G75*
G02*
X151483000Y-81300000I-225000J0D01*
G01*
G37*
G36*
G01*
X151483000Y-82550000D02*
X150533000Y-82550000D01*
G75*
G02*
X150308000Y-82325000I0J225000D01*
G01*
X150308000Y-81875000D01*
G75*
G02*
X150533000Y-81650000I225000J0D01*
G01*
X151483000Y-81650000D01*
G75*
G02*
X151708000Y-81875000I0J-225000D01*
G01*
X151708000Y-82325000D01*
G75*
G02*
X151483000Y-82550000I-225000J0D01*
G01*
G37*
G36*
G01*
X151483000Y-83800000D02*
X150533000Y-83800000D01*
G75*
G02*
X150308000Y-83575000I0J225000D01*
G01*
X150308000Y-83125000D01*
G75*
G02*
X150533000Y-82900000I225000J0D01*
G01*
X151483000Y-82900000D01*
G75*
G02*
X151708000Y-83125000I0J-225000D01*
G01*
X151708000Y-83575000D01*
G75*
G02*
X151483000Y-83800000I-225000J0D01*
G01*
G37*
G36*
G01*
X151483000Y-85050000D02*
X150533000Y-85050000D01*
G75*
G02*
X150308000Y-84825000I0J225000D01*
G01*
X150308000Y-84375000D01*
G75*
G02*
X150533000Y-84150000I225000J0D01*
G01*
X151483000Y-84150000D01*
G75*
G02*
X151708000Y-84375000I0J-225000D01*
G01*
X151708000Y-84825000D01*
G75*
G02*
X151483000Y-85050000I-225000J0D01*
G01*
G37*
G36*
G01*
X151483000Y-86300000D02*
X150533000Y-86300000D01*
G75*
G02*
X150308000Y-86075000I0J225000D01*
G01*
X150308000Y-85625000D01*
G75*
G02*
X150533000Y-85400000I225000J0D01*
G01*
X151483000Y-85400000D01*
G75*
G02*
X151708000Y-85625000I0J-225000D01*
G01*
X151708000Y-86075000D01*
G75*
G02*
X151483000Y-86300000I-225000J0D01*
G01*
G37*
G36*
G01*
X151483000Y-87550000D02*
X150533000Y-87550000D01*
G75*
G02*
X150308000Y-87325000I0J225000D01*
G01*
X150308000Y-86875000D01*
G75*
G02*
X150533000Y-86650000I225000J0D01*
G01*
X151483000Y-86650000D01*
G75*
G02*
X151708000Y-86875000I0J-225000D01*
G01*
X151708000Y-87325000D01*
G75*
G02*
X151483000Y-87550000I-225000J0D01*
G01*
G37*
G36*
G01*
X151483000Y-88800000D02*
X150533000Y-88800000D01*
G75*
G02*
X150308000Y-88575000I0J225000D01*
G01*
X150308000Y-88125000D01*
G75*
G02*
X150533000Y-87900000I225000J0D01*
G01*
X151483000Y-87900000D01*
G75*
G02*
X151708000Y-88125000I0J-225000D01*
G01*
X151708000Y-88575000D01*
G75*
G02*
X151483000Y-88800000I-225000J0D01*
G01*
G37*
G36*
G01*
X151483000Y-90050000D02*
X150533000Y-90050000D01*
G75*
G02*
X150308000Y-89825000I0J225000D01*
G01*
X150308000Y-89375000D01*
G75*
G02*
X150533000Y-89150000I225000J0D01*
G01*
X151483000Y-89150000D01*
G75*
G02*
X151708000Y-89375000I0J-225000D01*
G01*
X151708000Y-89825000D01*
G75*
G02*
X151483000Y-90050000I-225000J0D01*
G01*
G37*
G36*
G01*
X128420905Y-91050000D02*
X130997095Y-91050000D01*
G75*
G02*
X131259000Y-91311905I0J-261905D01*
G01*
X131259000Y-92988095D01*
G75*
G02*
X130997095Y-93250000I-261905J0D01*
G01*
X128420905Y-93250000D01*
G75*
G02*
X128159000Y-92988095I0J261905D01*
G01*
X128159000Y-91311905D01*
G75*
G02*
X128420905Y-91050000I261905J0D01*
G01*
G37*
G36*
G01*
X128420905Y-70950000D02*
X130997095Y-70950000D01*
G75*
G02*
X131259000Y-71211905I0J-261905D01*
G01*
X131259000Y-72888095D01*
G75*
G02*
X130997095Y-73150000I-261905J0D01*
G01*
X128420905Y-73150000D01*
G75*
G02*
X128159000Y-72888095I0J261905D01*
G01*
X128159000Y-71211905D01*
G75*
G02*
X128420905Y-70950000I261905J0D01*
G01*
G37*
G36*
G01*
X131984000Y-89150000D02*
X132934000Y-89150000D01*
G75*
G02*
X133159000Y-89375000I0J-225000D01*
G01*
X133159000Y-89825000D01*
G75*
G02*
X132934000Y-90050000I-225000J0D01*
G01*
X131984000Y-90050000D01*
G75*
G02*
X131759000Y-89825000I0J225000D01*
G01*
X131759000Y-89375000D01*
G75*
G02*
X131984000Y-89150000I225000J0D01*
G01*
G37*
G36*
G01*
X131984000Y-87900000D02*
X132934000Y-87900000D01*
G75*
G02*
X133159000Y-88125000I0J-225000D01*
G01*
X133159000Y-88575000D01*
G75*
G02*
X132934000Y-88800000I-225000J0D01*
G01*
X131984000Y-88800000D01*
G75*
G02*
X131759000Y-88575000I0J225000D01*
G01*
X131759000Y-88125000D01*
G75*
G02*
X131984000Y-87900000I225000J0D01*
G01*
G37*
G36*
G01*
X131984000Y-86650000D02*
X132934000Y-86650000D01*
G75*
G02*
X133159000Y-86875000I0J-225000D01*
G01*
X133159000Y-87325000D01*
G75*
G02*
X132934000Y-87550000I-225000J0D01*
G01*
X131984000Y-87550000D01*
G75*
G02*
X131759000Y-87325000I0J225000D01*
G01*
X131759000Y-86875000D01*
G75*
G02*
X131984000Y-86650000I225000J0D01*
G01*
G37*
G36*
G01*
X131984000Y-85400000D02*
X132934000Y-85400000D01*
G75*
G02*
X133159000Y-85625000I0J-225000D01*
G01*
X133159000Y-86075000D01*
G75*
G02*
X132934000Y-86300000I-225000J0D01*
G01*
X131984000Y-86300000D01*
G75*
G02*
X131759000Y-86075000I0J225000D01*
G01*
X131759000Y-85625000D01*
G75*
G02*
X131984000Y-85400000I225000J0D01*
G01*
G37*
G36*
G01*
X131984000Y-84150000D02*
X132934000Y-84150000D01*
G75*
G02*
X133159000Y-84375000I0J-225000D01*
G01*
X133159000Y-84825000D01*
G75*
G02*
X132934000Y-85050000I-225000J0D01*
G01*
X131984000Y-85050000D01*
G75*
G02*
X131759000Y-84825000I0J225000D01*
G01*
X131759000Y-84375000D01*
G75*
G02*
X131984000Y-84150000I225000J0D01*
G01*
G37*
G36*
G01*
X131984000Y-82900000D02*
X132934000Y-82900000D01*
G75*
G02*
X133159000Y-83125000I0J-225000D01*
G01*
X133159000Y-83575000D01*
G75*
G02*
X132934000Y-83800000I-225000J0D01*
G01*
X131984000Y-83800000D01*
G75*
G02*
X131759000Y-83575000I0J225000D01*
G01*
X131759000Y-83125000D01*
G75*
G02*
X131984000Y-82900000I225000J0D01*
G01*
G37*
G36*
G01*
X131984000Y-81650000D02*
X132934000Y-81650000D01*
G75*
G02*
X133159000Y-81875000I0J-225000D01*
G01*
X133159000Y-82325000D01*
G75*
G02*
X132934000Y-82550000I-225000J0D01*
G01*
X131984000Y-82550000D01*
G75*
G02*
X131759000Y-82325000I0J225000D01*
G01*
X131759000Y-81875000D01*
G75*
G02*
X131984000Y-81650000I225000J0D01*
G01*
G37*
G36*
G01*
X131984000Y-80400000D02*
X132934000Y-80400000D01*
G75*
G02*
X133159000Y-80625000I0J-225000D01*
G01*
X133159000Y-81075000D01*
G75*
G02*
X132934000Y-81300000I-225000J0D01*
G01*
X131984000Y-81300000D01*
G75*
G02*
X131759000Y-81075000I0J225000D01*
G01*
X131759000Y-80625000D01*
G75*
G02*
X131984000Y-80400000I225000J0D01*
G01*
G37*
G36*
G01*
X131984000Y-79150000D02*
X132934000Y-79150000D01*
G75*
G02*
X133159000Y-79375000I0J-225000D01*
G01*
X133159000Y-79825000D01*
G75*
G02*
X132934000Y-80050000I-225000J0D01*
G01*
X131984000Y-80050000D01*
G75*
G02*
X131759000Y-79825000I0J225000D01*
G01*
X131759000Y-79375000D01*
G75*
G02*
X131984000Y-79150000I225000J0D01*
G01*
G37*
G36*
G01*
X131984000Y-77900000D02*
X132934000Y-77900000D01*
G75*
G02*
X133159000Y-78125000I0J-225000D01*
G01*
X133159000Y-78575000D01*
G75*
G02*
X132934000Y-78800000I-225000J0D01*
G01*
X131984000Y-78800000D01*
G75*
G02*
X131759000Y-78575000I0J225000D01*
G01*
X131759000Y-78125000D01*
G75*
G02*
X131984000Y-77900000I225000J0D01*
G01*
G37*
G36*
G01*
X131984000Y-76650000D02*
X132934000Y-76650000D01*
G75*
G02*
X133159000Y-76875000I0J-225000D01*
G01*
X133159000Y-77325000D01*
G75*
G02*
X132934000Y-77550000I-225000J0D01*
G01*
X131984000Y-77550000D01*
G75*
G02*
X131759000Y-77325000I0J225000D01*
G01*
X131759000Y-76875000D01*
G75*
G02*
X131984000Y-76650000I225000J0D01*
G01*
G37*
G36*
G01*
X131984000Y-75400000D02*
X132934000Y-75400000D01*
G75*
G02*
X133159000Y-75625000I0J-225000D01*
G01*
X133159000Y-76075000D01*
G75*
G02*
X132934000Y-76300000I-225000J0D01*
G01*
X131984000Y-76300000D01*
G75*
G02*
X131759000Y-76075000I0J225000D01*
G01*
X131759000Y-75625000D01*
G75*
G02*
X131984000Y-75400000I225000J0D01*
G01*
G37*
G36*
G01*
X131984000Y-74150000D02*
X132934000Y-74150000D01*
G75*
G02*
X133159000Y-74375000I0J-225000D01*
G01*
X133159000Y-74825000D01*
G75*
G02*
X132934000Y-75050000I-225000J0D01*
G01*
X131984000Y-75050000D01*
G75*
G02*
X131759000Y-74825000I0J225000D01*
G01*
X131759000Y-74375000D01*
G75*
G02*
X131984000Y-74150000I225000J0D01*
G01*
G37*
G36*
G01*
X107371905Y-91050000D02*
X109948095Y-91050000D01*
G75*
G02*
X110210000Y-91311905I0J-261905D01*
G01*
X110210000Y-92988095D01*
G75*
G02*
X109948095Y-93250000I-261905J0D01*
G01*
X107371905Y-93250000D01*
G75*
G02*
X107110000Y-92988095I0J261905D01*
G01*
X107110000Y-91311905D01*
G75*
G02*
X107371905Y-91050000I261905J0D01*
G01*
G37*
G36*
G01*
X107371905Y-70950000D02*
X109948095Y-70950000D01*
G75*
G02*
X110210000Y-71211905I0J-261905D01*
G01*
X110210000Y-72888095D01*
G75*
G02*
X109948095Y-73150000I-261905J0D01*
G01*
X107371905Y-73150000D01*
G75*
G02*
X107110000Y-72888095I0J261905D01*
G01*
X107110000Y-71211905D01*
G75*
G02*
X107371905Y-70950000I261905J0D01*
G01*
G37*
G36*
G01*
X110935000Y-89150000D02*
X111885000Y-89150000D01*
G75*
G02*
X112110000Y-89375000I0J-225000D01*
G01*
X112110000Y-89825000D01*
G75*
G02*
X111885000Y-90050000I-225000J0D01*
G01*
X110935000Y-90050000D01*
G75*
G02*
X110710000Y-89825000I0J225000D01*
G01*
X110710000Y-89375000D01*
G75*
G02*
X110935000Y-89150000I225000J0D01*
G01*
G37*
G36*
G01*
X110935000Y-87900000D02*
X111885000Y-87900000D01*
G75*
G02*
X112110000Y-88125000I0J-225000D01*
G01*
X112110000Y-88575000D01*
G75*
G02*
X111885000Y-88800000I-225000J0D01*
G01*
X110935000Y-88800000D01*
G75*
G02*
X110710000Y-88575000I0J225000D01*
G01*
X110710000Y-88125000D01*
G75*
G02*
X110935000Y-87900000I225000J0D01*
G01*
G37*
G36*
G01*
X110935000Y-86650000D02*
X111885000Y-86650000D01*
G75*
G02*
X112110000Y-86875000I0J-225000D01*
G01*
X112110000Y-87325000D01*
G75*
G02*
X111885000Y-87550000I-225000J0D01*
G01*
X110935000Y-87550000D01*
G75*
G02*
X110710000Y-87325000I0J225000D01*
G01*
X110710000Y-86875000D01*
G75*
G02*
X110935000Y-86650000I225000J0D01*
G01*
G37*
G36*
G01*
X110935000Y-85400000D02*
X111885000Y-85400000D01*
G75*
G02*
X112110000Y-85625000I0J-225000D01*
G01*
X112110000Y-86075000D01*
G75*
G02*
X111885000Y-86300000I-225000J0D01*
G01*
X110935000Y-86300000D01*
G75*
G02*
X110710000Y-86075000I0J225000D01*
G01*
X110710000Y-85625000D01*
G75*
G02*
X110935000Y-85400000I225000J0D01*
G01*
G37*
G36*
G01*
X110935000Y-84150000D02*
X111885000Y-84150000D01*
G75*
G02*
X112110000Y-84375000I0J-225000D01*
G01*
X112110000Y-84825000D01*
G75*
G02*
X111885000Y-85050000I-225000J0D01*
G01*
X110935000Y-85050000D01*
G75*
G02*
X110710000Y-84825000I0J225000D01*
G01*
X110710000Y-84375000D01*
G75*
G02*
X110935000Y-84150000I225000J0D01*
G01*
G37*
G36*
G01*
X110935000Y-82900000D02*
X111885000Y-82900000D01*
G75*
G02*
X112110000Y-83125000I0J-225000D01*
G01*
X112110000Y-83575000D01*
G75*
G02*
X111885000Y-83800000I-225000J0D01*
G01*
X110935000Y-83800000D01*
G75*
G02*
X110710000Y-83575000I0J225000D01*
G01*
X110710000Y-83125000D01*
G75*
G02*
X110935000Y-82900000I225000J0D01*
G01*
G37*
G36*
G01*
X110935000Y-81650000D02*
X111885000Y-81650000D01*
G75*
G02*
X112110000Y-81875000I0J-225000D01*
G01*
X112110000Y-82325000D01*
G75*
G02*
X111885000Y-82550000I-225000J0D01*
G01*
X110935000Y-82550000D01*
G75*
G02*
X110710000Y-82325000I0J225000D01*
G01*
X110710000Y-81875000D01*
G75*
G02*
X110935000Y-81650000I225000J0D01*
G01*
G37*
G36*
G01*
X110935000Y-80400000D02*
X111885000Y-80400000D01*
G75*
G02*
X112110000Y-80625000I0J-225000D01*
G01*
X112110000Y-81075000D01*
G75*
G02*
X111885000Y-81300000I-225000J0D01*
G01*
X110935000Y-81300000D01*
G75*
G02*
X110710000Y-81075000I0J225000D01*
G01*
X110710000Y-80625000D01*
G75*
G02*
X110935000Y-80400000I225000J0D01*
G01*
G37*
G36*
G01*
X110935000Y-79150000D02*
X111885000Y-79150000D01*
G75*
G02*
X112110000Y-79375000I0J-225000D01*
G01*
X112110000Y-79825000D01*
G75*
G02*
X111885000Y-80050000I-225000J0D01*
G01*
X110935000Y-80050000D01*
G75*
G02*
X110710000Y-79825000I0J225000D01*
G01*
X110710000Y-79375000D01*
G75*
G02*
X110935000Y-79150000I225000J0D01*
G01*
G37*
G36*
G01*
X110935000Y-77900000D02*
X111885000Y-77900000D01*
G75*
G02*
X112110000Y-78125000I0J-225000D01*
G01*
X112110000Y-78575000D01*
G75*
G02*
X111885000Y-78800000I-225000J0D01*
G01*
X110935000Y-78800000D01*
G75*
G02*
X110710000Y-78575000I0J225000D01*
G01*
X110710000Y-78125000D01*
G75*
G02*
X110935000Y-77900000I225000J0D01*
G01*
G37*
G36*
G01*
X110935000Y-76650000D02*
X111885000Y-76650000D01*
G75*
G02*
X112110000Y-76875000I0J-225000D01*
G01*
X112110000Y-77325000D01*
G75*
G02*
X111885000Y-77550000I-225000J0D01*
G01*
X110935000Y-77550000D01*
G75*
G02*
X110710000Y-77325000I0J225000D01*
G01*
X110710000Y-76875000D01*
G75*
G02*
X110935000Y-76650000I225000J0D01*
G01*
G37*
G36*
G01*
X110935000Y-75400000D02*
X111885000Y-75400000D01*
G75*
G02*
X112110000Y-75625000I0J-225000D01*
G01*
X112110000Y-76075000D01*
G75*
G02*
X111885000Y-76300000I-225000J0D01*
G01*
X110935000Y-76300000D01*
G75*
G02*
X110710000Y-76075000I0J225000D01*
G01*
X110710000Y-75625000D01*
G75*
G02*
X110935000Y-75400000I225000J0D01*
G01*
G37*
G36*
G01*
X110935000Y-74150000D02*
X111885000Y-74150000D01*
G75*
G02*
X112110000Y-74375000I0J-225000D01*
G01*
X112110000Y-74825000D01*
G75*
G02*
X111885000Y-75050000I-225000J0D01*
G01*
X110935000Y-75050000D01*
G75*
G02*
X110710000Y-74825000I0J225000D01*
G01*
X110710000Y-74375000D01*
G75*
G02*
X110935000Y-74150000I225000J0D01*
G01*
G37*
G36*
G01*
X176096095Y-73150000D02*
X173519905Y-73150000D01*
G75*
G02*
X173258000Y-72888095I0J261905D01*
G01*
X173258000Y-71211905D01*
G75*
G02*
X173519905Y-70950000I261905J0D01*
G01*
X176096095Y-70950000D01*
G75*
G02*
X176358000Y-71211905I0J-261905D01*
G01*
X176358000Y-72888095D01*
G75*
G02*
X176096095Y-73150000I-261905J0D01*
G01*
G37*
G36*
G01*
X176096095Y-93250000D02*
X173519905Y-93250000D01*
G75*
G02*
X173258000Y-92988095I0J261905D01*
G01*
X173258000Y-91311905D01*
G75*
G02*
X173519905Y-91050000I261905J0D01*
G01*
X176096095Y-91050000D01*
G75*
G02*
X176358000Y-91311905I0J-261905D01*
G01*
X176358000Y-92988095D01*
G75*
G02*
X176096095Y-93250000I-261905J0D01*
G01*
G37*
G36*
G01*
X172533000Y-75050000D02*
X171583000Y-75050000D01*
G75*
G02*
X171358000Y-74825000I0J225000D01*
G01*
X171358000Y-74375000D01*
G75*
G02*
X171583000Y-74150000I225000J0D01*
G01*
X172533000Y-74150000D01*
G75*
G02*
X172758000Y-74375000I0J-225000D01*
G01*
X172758000Y-74825000D01*
G75*
G02*
X172533000Y-75050000I-225000J0D01*
G01*
G37*
G36*
G01*
X172533000Y-76300000D02*
X171583000Y-76300000D01*
G75*
G02*
X171358000Y-76075000I0J225000D01*
G01*
X171358000Y-75625000D01*
G75*
G02*
X171583000Y-75400000I225000J0D01*
G01*
X172533000Y-75400000D01*
G75*
G02*
X172758000Y-75625000I0J-225000D01*
G01*
X172758000Y-76075000D01*
G75*
G02*
X172533000Y-76300000I-225000J0D01*
G01*
G37*
G36*
G01*
X172533000Y-77550000D02*
X171583000Y-77550000D01*
G75*
G02*
X171358000Y-77325000I0J225000D01*
G01*
X171358000Y-76875000D01*
G75*
G02*
X171583000Y-76650000I225000J0D01*
G01*
X172533000Y-76650000D01*
G75*
G02*
X172758000Y-76875000I0J-225000D01*
G01*
X172758000Y-77325000D01*
G75*
G02*
X172533000Y-77550000I-225000J0D01*
G01*
G37*
G36*
G01*
X172533000Y-78800000D02*
X171583000Y-78800000D01*
G75*
G02*
X171358000Y-78575000I0J225000D01*
G01*
X171358000Y-78125000D01*
G75*
G02*
X171583000Y-77900000I225000J0D01*
G01*
X172533000Y-77900000D01*
G75*
G02*
X172758000Y-78125000I0J-225000D01*
G01*
X172758000Y-78575000D01*
G75*
G02*
X172533000Y-78800000I-225000J0D01*
G01*
G37*
G36*
G01*
X172533000Y-80050000D02*
X171583000Y-80050000D01*
G75*
G02*
X171358000Y-79825000I0J225000D01*
G01*
X171358000Y-79375000D01*
G75*
G02*
X171583000Y-79150000I225000J0D01*
G01*
X172533000Y-79150000D01*
G75*
G02*
X172758000Y-79375000I0J-225000D01*
G01*
X172758000Y-79825000D01*
G75*
G02*
X172533000Y-80050000I-225000J0D01*
G01*
G37*
G36*
G01*
X172533000Y-81300000D02*
X171583000Y-81300000D01*
G75*
G02*
X171358000Y-81075000I0J225000D01*
G01*
X171358000Y-80625000D01*
G75*
G02*
X171583000Y-80400000I225000J0D01*
G01*
X172533000Y-80400000D01*
G75*
G02*
X172758000Y-80625000I0J-225000D01*
G01*
X172758000Y-81075000D01*
G75*
G02*
X172533000Y-81300000I-225000J0D01*
G01*
G37*
G36*
G01*
X172533000Y-82550000D02*
X171583000Y-82550000D01*
G75*
G02*
X171358000Y-82325000I0J225000D01*
G01*
X171358000Y-81875000D01*
G75*
G02*
X171583000Y-81650000I225000J0D01*
G01*
X172533000Y-81650000D01*
G75*
G02*
X172758000Y-81875000I0J-225000D01*
G01*
X172758000Y-82325000D01*
G75*
G02*
X172533000Y-82550000I-225000J0D01*
G01*
G37*
G36*
G01*
X172533000Y-83800000D02*
X171583000Y-83800000D01*
G75*
G02*
X171358000Y-83575000I0J225000D01*
G01*
X171358000Y-83125000D01*
G75*
G02*
X171583000Y-82900000I225000J0D01*
G01*
X172533000Y-82900000D01*
G75*
G02*
X172758000Y-83125000I0J-225000D01*
G01*
X172758000Y-83575000D01*
G75*
G02*
X172533000Y-83800000I-225000J0D01*
G01*
G37*
G36*
G01*
X172533000Y-85050000D02*
X171583000Y-85050000D01*
G75*
G02*
X171358000Y-84825000I0J225000D01*
G01*
X171358000Y-84375000D01*
G75*
G02*
X171583000Y-84150000I225000J0D01*
G01*
X172533000Y-84150000D01*
G75*
G02*
X172758000Y-84375000I0J-225000D01*
G01*
X172758000Y-84825000D01*
G75*
G02*
X172533000Y-85050000I-225000J0D01*
G01*
G37*
G36*
G01*
X172533000Y-86300000D02*
X171583000Y-86300000D01*
G75*
G02*
X171358000Y-86075000I0J225000D01*
G01*
X171358000Y-85625000D01*
G75*
G02*
X171583000Y-85400000I225000J0D01*
G01*
X172533000Y-85400000D01*
G75*
G02*
X172758000Y-85625000I0J-225000D01*
G01*
X172758000Y-86075000D01*
G75*
G02*
X172533000Y-86300000I-225000J0D01*
G01*
G37*
G36*
G01*
X172533000Y-87550000D02*
X171583000Y-87550000D01*
G75*
G02*
X171358000Y-87325000I0J225000D01*
G01*
X171358000Y-86875000D01*
G75*
G02*
X171583000Y-86650000I225000J0D01*
G01*
X172533000Y-86650000D01*
G75*
G02*
X172758000Y-86875000I0J-225000D01*
G01*
X172758000Y-87325000D01*
G75*
G02*
X172533000Y-87550000I-225000J0D01*
G01*
G37*
G36*
G01*
X172533000Y-88800000D02*
X171583000Y-88800000D01*
G75*
G02*
X171358000Y-88575000I0J225000D01*
G01*
X171358000Y-88125000D01*
G75*
G02*
X171583000Y-87900000I225000J0D01*
G01*
X172533000Y-87900000D01*
G75*
G02*
X172758000Y-88125000I0J-225000D01*
G01*
X172758000Y-88575000D01*
G75*
G02*
X172533000Y-88800000I-225000J0D01*
G01*
G37*
G36*
G01*
X172533000Y-90050000D02*
X171583000Y-90050000D01*
G75*
G02*
X171358000Y-89825000I0J225000D01*
G01*
X171358000Y-89375000D01*
G75*
G02*
X171583000Y-89150000I225000J0D01*
G01*
X172533000Y-89150000D01*
G75*
G02*
X172758000Y-89375000I0J-225000D01*
G01*
X172758000Y-89825000D01*
G75*
G02*
X172533000Y-90050000I-225000J0D01*
G01*
G37*
G36*
G01*
X165571095Y-73150000D02*
X162994905Y-73150000D01*
G75*
G02*
X162733000Y-72888095I0J261905D01*
G01*
X162733000Y-71211905D01*
G75*
G02*
X162994905Y-70950000I261905J0D01*
G01*
X165571095Y-70950000D01*
G75*
G02*
X165833000Y-71211905I0J-261905D01*
G01*
X165833000Y-72888095D01*
G75*
G02*
X165571095Y-73150000I-261905J0D01*
G01*
G37*
G36*
G01*
X165571095Y-93250000D02*
X162994905Y-93250000D01*
G75*
G02*
X162733000Y-92988095I0J261905D01*
G01*
X162733000Y-91311905D01*
G75*
G02*
X162994905Y-91050000I261905J0D01*
G01*
X165571095Y-91050000D01*
G75*
G02*
X165833000Y-91311905I0J-261905D01*
G01*
X165833000Y-92988095D01*
G75*
G02*
X165571095Y-93250000I-261905J0D01*
G01*
G37*
G36*
G01*
X162008000Y-75050000D02*
X161058000Y-75050000D01*
G75*
G02*
X160833000Y-74825000I0J225000D01*
G01*
X160833000Y-74375000D01*
G75*
G02*
X161058000Y-74150000I225000J0D01*
G01*
X162008000Y-74150000D01*
G75*
G02*
X162233000Y-74375000I0J-225000D01*
G01*
X162233000Y-74825000D01*
G75*
G02*
X162008000Y-75050000I-225000J0D01*
G01*
G37*
G36*
G01*
X162008000Y-76300000D02*
X161058000Y-76300000D01*
G75*
G02*
X160833000Y-76075000I0J225000D01*
G01*
X160833000Y-75625000D01*
G75*
G02*
X161058000Y-75400000I225000J0D01*
G01*
X162008000Y-75400000D01*
G75*
G02*
X162233000Y-75625000I0J-225000D01*
G01*
X162233000Y-76075000D01*
G75*
G02*
X162008000Y-76300000I-225000J0D01*
G01*
G37*
G36*
G01*
X162008000Y-77550000D02*
X161058000Y-77550000D01*
G75*
G02*
X160833000Y-77325000I0J225000D01*
G01*
X160833000Y-76875000D01*
G75*
G02*
X161058000Y-76650000I225000J0D01*
G01*
X162008000Y-76650000D01*
G75*
G02*
X162233000Y-76875000I0J-225000D01*
G01*
X162233000Y-77325000D01*
G75*
G02*
X162008000Y-77550000I-225000J0D01*
G01*
G37*
G36*
G01*
X162008000Y-78800000D02*
X161058000Y-78800000D01*
G75*
G02*
X160833000Y-78575000I0J225000D01*
G01*
X160833000Y-78125000D01*
G75*
G02*
X161058000Y-77900000I225000J0D01*
G01*
X162008000Y-77900000D01*
G75*
G02*
X162233000Y-78125000I0J-225000D01*
G01*
X162233000Y-78575000D01*
G75*
G02*
X162008000Y-78800000I-225000J0D01*
G01*
G37*
G36*
G01*
X162008000Y-80050000D02*
X161058000Y-80050000D01*
G75*
G02*
X160833000Y-79825000I0J225000D01*
G01*
X160833000Y-79375000D01*
G75*
G02*
X161058000Y-79150000I225000J0D01*
G01*
X162008000Y-79150000D01*
G75*
G02*
X162233000Y-79375000I0J-225000D01*
G01*
X162233000Y-79825000D01*
G75*
G02*
X162008000Y-80050000I-225000J0D01*
G01*
G37*
G36*
G01*
X162008000Y-81300000D02*
X161058000Y-81300000D01*
G75*
G02*
X160833000Y-81075000I0J225000D01*
G01*
X160833000Y-80625000D01*
G75*
G02*
X161058000Y-80400000I225000J0D01*
G01*
X162008000Y-80400000D01*
G75*
G02*
X162233000Y-80625000I0J-225000D01*
G01*
X162233000Y-81075000D01*
G75*
G02*
X162008000Y-81300000I-225000J0D01*
G01*
G37*
G36*
G01*
X162008000Y-82550000D02*
X161058000Y-82550000D01*
G75*
G02*
X160833000Y-82325000I0J225000D01*
G01*
X160833000Y-81875000D01*
G75*
G02*
X161058000Y-81650000I225000J0D01*
G01*
X162008000Y-81650000D01*
G75*
G02*
X162233000Y-81875000I0J-225000D01*
G01*
X162233000Y-82325000D01*
G75*
G02*
X162008000Y-82550000I-225000J0D01*
G01*
G37*
G36*
G01*
X162008000Y-83800000D02*
X161058000Y-83800000D01*
G75*
G02*
X160833000Y-83575000I0J225000D01*
G01*
X160833000Y-83125000D01*
G75*
G02*
X161058000Y-82900000I225000J0D01*
G01*
X162008000Y-82900000D01*
G75*
G02*
X162233000Y-83125000I0J-225000D01*
G01*
X162233000Y-83575000D01*
G75*
G02*
X162008000Y-83800000I-225000J0D01*
G01*
G37*
G36*
G01*
X162008000Y-85050000D02*
X161058000Y-85050000D01*
G75*
G02*
X160833000Y-84825000I0J225000D01*
G01*
X160833000Y-84375000D01*
G75*
G02*
X161058000Y-84150000I225000J0D01*
G01*
X162008000Y-84150000D01*
G75*
G02*
X162233000Y-84375000I0J-225000D01*
G01*
X162233000Y-84825000D01*
G75*
G02*
X162008000Y-85050000I-225000J0D01*
G01*
G37*
G36*
G01*
X162008000Y-86300000D02*
X161058000Y-86300000D01*
G75*
G02*
X160833000Y-86075000I0J225000D01*
G01*
X160833000Y-85625000D01*
G75*
G02*
X161058000Y-85400000I225000J0D01*
G01*
X162008000Y-85400000D01*
G75*
G02*
X162233000Y-85625000I0J-225000D01*
G01*
X162233000Y-86075000D01*
G75*
G02*
X162008000Y-86300000I-225000J0D01*
G01*
G37*
G36*
G01*
X162008000Y-87550000D02*
X161058000Y-87550000D01*
G75*
G02*
X160833000Y-87325000I0J225000D01*
G01*
X160833000Y-86875000D01*
G75*
G02*
X161058000Y-86650000I225000J0D01*
G01*
X162008000Y-86650000D01*
G75*
G02*
X162233000Y-86875000I0J-225000D01*
G01*
X162233000Y-87325000D01*
G75*
G02*
X162008000Y-87550000I-225000J0D01*
G01*
G37*
G36*
G01*
X162008000Y-88800000D02*
X161058000Y-88800000D01*
G75*
G02*
X160833000Y-88575000I0J225000D01*
G01*
X160833000Y-88125000D01*
G75*
G02*
X161058000Y-87900000I225000J0D01*
G01*
X162008000Y-87900000D01*
G75*
G02*
X162233000Y-88125000I0J-225000D01*
G01*
X162233000Y-88575000D01*
G75*
G02*
X162008000Y-88800000I-225000J0D01*
G01*
G37*
G36*
G01*
X162008000Y-90050000D02*
X161058000Y-90050000D01*
G75*
G02*
X160833000Y-89825000I0J225000D01*
G01*
X160833000Y-89375000D01*
G75*
G02*
X161058000Y-89150000I225000J0D01*
G01*
X162008000Y-89150000D01*
G75*
G02*
X162233000Y-89375000I0J-225000D01*
G01*
X162233000Y-89825000D01*
G75*
G02*
X162008000Y-90050000I-225000J0D01*
G01*
G37*
G36*
G01*
X138945905Y-91050000D02*
X141522095Y-91050000D01*
G75*
G02*
X141784000Y-91311905I0J-261905D01*
G01*
X141784000Y-92988095D01*
G75*
G02*
X141522095Y-93250000I-261905J0D01*
G01*
X138945905Y-93250000D01*
G75*
G02*
X138684000Y-92988095I0J261905D01*
G01*
X138684000Y-91311905D01*
G75*
G02*
X138945905Y-91050000I261905J0D01*
G01*
G37*
G36*
G01*
X138945905Y-70950000D02*
X141522095Y-70950000D01*
G75*
G02*
X141784000Y-71211905I0J-261905D01*
G01*
X141784000Y-72888095D01*
G75*
G02*
X141522095Y-73150000I-261905J0D01*
G01*
X138945905Y-73150000D01*
G75*
G02*
X138684000Y-72888095I0J261905D01*
G01*
X138684000Y-71211905D01*
G75*
G02*
X138945905Y-70950000I261905J0D01*
G01*
G37*
G36*
G01*
X142509000Y-89150000D02*
X143459000Y-89150000D01*
G75*
G02*
X143684000Y-89375000I0J-225000D01*
G01*
X143684000Y-89825000D01*
G75*
G02*
X143459000Y-90050000I-225000J0D01*
G01*
X142509000Y-90050000D01*
G75*
G02*
X142284000Y-89825000I0J225000D01*
G01*
X142284000Y-89375000D01*
G75*
G02*
X142509000Y-89150000I225000J0D01*
G01*
G37*
G36*
G01*
X142509000Y-87900000D02*
X143459000Y-87900000D01*
G75*
G02*
X143684000Y-88125000I0J-225000D01*
G01*
X143684000Y-88575000D01*
G75*
G02*
X143459000Y-88800000I-225000J0D01*
G01*
X142509000Y-88800000D01*
G75*
G02*
X142284000Y-88575000I0J225000D01*
G01*
X142284000Y-88125000D01*
G75*
G02*
X142509000Y-87900000I225000J0D01*
G01*
G37*
G36*
G01*
X142509000Y-86650000D02*
X143459000Y-86650000D01*
G75*
G02*
X143684000Y-86875000I0J-225000D01*
G01*
X143684000Y-87325000D01*
G75*
G02*
X143459000Y-87550000I-225000J0D01*
G01*
X142509000Y-87550000D01*
G75*
G02*
X142284000Y-87325000I0J225000D01*
G01*
X142284000Y-86875000D01*
G75*
G02*
X142509000Y-86650000I225000J0D01*
G01*
G37*
G36*
G01*
X142509000Y-85400000D02*
X143459000Y-85400000D01*
G75*
G02*
X143684000Y-85625000I0J-225000D01*
G01*
X143684000Y-86075000D01*
G75*
G02*
X143459000Y-86300000I-225000J0D01*
G01*
X142509000Y-86300000D01*
G75*
G02*
X142284000Y-86075000I0J225000D01*
G01*
X142284000Y-85625000D01*
G75*
G02*
X142509000Y-85400000I225000J0D01*
G01*
G37*
G36*
G01*
X142509000Y-84150000D02*
X143459000Y-84150000D01*
G75*
G02*
X143684000Y-84375000I0J-225000D01*
G01*
X143684000Y-84825000D01*
G75*
G02*
X143459000Y-85050000I-225000J0D01*
G01*
X142509000Y-85050000D01*
G75*
G02*
X142284000Y-84825000I0J225000D01*
G01*
X142284000Y-84375000D01*
G75*
G02*
X142509000Y-84150000I225000J0D01*
G01*
G37*
G36*
G01*
X142509000Y-82900000D02*
X143459000Y-82900000D01*
G75*
G02*
X143684000Y-83125000I0J-225000D01*
G01*
X143684000Y-83575000D01*
G75*
G02*
X143459000Y-83800000I-225000J0D01*
G01*
X142509000Y-83800000D01*
G75*
G02*
X142284000Y-83575000I0J225000D01*
G01*
X142284000Y-83125000D01*
G75*
G02*
X142509000Y-82900000I225000J0D01*
G01*
G37*
G36*
G01*
X142509000Y-81650000D02*
X143459000Y-81650000D01*
G75*
G02*
X143684000Y-81875000I0J-225000D01*
G01*
X143684000Y-82325000D01*
G75*
G02*
X143459000Y-82550000I-225000J0D01*
G01*
X142509000Y-82550000D01*
G75*
G02*
X142284000Y-82325000I0J225000D01*
G01*
X142284000Y-81875000D01*
G75*
G02*
X142509000Y-81650000I225000J0D01*
G01*
G37*
G36*
G01*
X142509000Y-80400000D02*
X143459000Y-80400000D01*
G75*
G02*
X143684000Y-80625000I0J-225000D01*
G01*
X143684000Y-81075000D01*
G75*
G02*
X143459000Y-81300000I-225000J0D01*
G01*
X142509000Y-81300000D01*
G75*
G02*
X142284000Y-81075000I0J225000D01*
G01*
X142284000Y-80625000D01*
G75*
G02*
X142509000Y-80400000I225000J0D01*
G01*
G37*
G36*
G01*
X142509000Y-79150000D02*
X143459000Y-79150000D01*
G75*
G02*
X143684000Y-79375000I0J-225000D01*
G01*
X143684000Y-79825000D01*
G75*
G02*
X143459000Y-80050000I-225000J0D01*
G01*
X142509000Y-80050000D01*
G75*
G02*
X142284000Y-79825000I0J225000D01*
G01*
X142284000Y-79375000D01*
G75*
G02*
X142509000Y-79150000I225000J0D01*
G01*
G37*
G36*
G01*
X142509000Y-77900000D02*
X143459000Y-77900000D01*
G75*
G02*
X143684000Y-78125000I0J-225000D01*
G01*
X143684000Y-78575000D01*
G75*
G02*
X143459000Y-78800000I-225000J0D01*
G01*
X142509000Y-78800000D01*
G75*
G02*
X142284000Y-78575000I0J225000D01*
G01*
X142284000Y-78125000D01*
G75*
G02*
X142509000Y-77900000I225000J0D01*
G01*
G37*
G36*
G01*
X142509000Y-76650000D02*
X143459000Y-76650000D01*
G75*
G02*
X143684000Y-76875000I0J-225000D01*
G01*
X143684000Y-77325000D01*
G75*
G02*
X143459000Y-77550000I-225000J0D01*
G01*
X142509000Y-77550000D01*
G75*
G02*
X142284000Y-77325000I0J225000D01*
G01*
X142284000Y-76875000D01*
G75*
G02*
X142509000Y-76650000I225000J0D01*
G01*
G37*
G36*
G01*
X142509000Y-75400000D02*
X143459000Y-75400000D01*
G75*
G02*
X143684000Y-75625000I0J-225000D01*
G01*
X143684000Y-76075000D01*
G75*
G02*
X143459000Y-76300000I-225000J0D01*
G01*
X142509000Y-76300000D01*
G75*
G02*
X142284000Y-76075000I0J225000D01*
G01*
X142284000Y-75625000D01*
G75*
G02*
X142509000Y-75400000I225000J0D01*
G01*
G37*
G36*
G01*
X142509000Y-74150000D02*
X143459000Y-74150000D01*
G75*
G02*
X143684000Y-74375000I0J-225000D01*
G01*
X143684000Y-74825000D01*
G75*
G02*
X143459000Y-75050000I-225000J0D01*
G01*
X142509000Y-75050000D01*
G75*
G02*
X142284000Y-74825000I0J225000D01*
G01*
X142284000Y-74375000D01*
G75*
G02*
X142509000Y-74150000I225000J0D01*
G01*
G37*
G36*
G01*
X117896905Y-91050000D02*
X120473095Y-91050000D01*
G75*
G02*
X120735000Y-91311905I0J-261905D01*
G01*
X120735000Y-92988095D01*
G75*
G02*
X120473095Y-93250000I-261905J0D01*
G01*
X117896905Y-93250000D01*
G75*
G02*
X117635000Y-92988095I0J261905D01*
G01*
X117635000Y-91311905D01*
G75*
G02*
X117896905Y-91050000I261905J0D01*
G01*
G37*
G36*
G01*
X117896905Y-70950000D02*
X120473095Y-70950000D01*
G75*
G02*
X120735000Y-71211905I0J-261905D01*
G01*
X120735000Y-72888095D01*
G75*
G02*
X120473095Y-73150000I-261905J0D01*
G01*
X117896905Y-73150000D01*
G75*
G02*
X117635000Y-72888095I0J261905D01*
G01*
X117635000Y-71211905D01*
G75*
G02*
X117896905Y-70950000I261905J0D01*
G01*
G37*
G36*
G01*
X121460000Y-89150000D02*
X122410000Y-89150000D01*
G75*
G02*
X122635000Y-89375000I0J-225000D01*
G01*
X122635000Y-89825000D01*
G75*
G02*
X122410000Y-90050000I-225000J0D01*
G01*
X121460000Y-90050000D01*
G75*
G02*
X121235000Y-89825000I0J225000D01*
G01*
X121235000Y-89375000D01*
G75*
G02*
X121460000Y-89150000I225000J0D01*
G01*
G37*
G36*
G01*
X121460000Y-87900000D02*
X122410000Y-87900000D01*
G75*
G02*
X122635000Y-88125000I0J-225000D01*
G01*
X122635000Y-88575000D01*
G75*
G02*
X122410000Y-88800000I-225000J0D01*
G01*
X121460000Y-88800000D01*
G75*
G02*
X121235000Y-88575000I0J225000D01*
G01*
X121235000Y-88125000D01*
G75*
G02*
X121460000Y-87900000I225000J0D01*
G01*
G37*
G36*
G01*
X121460000Y-86650000D02*
X122410000Y-86650000D01*
G75*
G02*
X122635000Y-86875000I0J-225000D01*
G01*
X122635000Y-87325000D01*
G75*
G02*
X122410000Y-87550000I-225000J0D01*
G01*
X121460000Y-87550000D01*
G75*
G02*
X121235000Y-87325000I0J225000D01*
G01*
X121235000Y-86875000D01*
G75*
G02*
X121460000Y-86650000I225000J0D01*
G01*
G37*
G36*
G01*
X121460000Y-85400000D02*
X122410000Y-85400000D01*
G75*
G02*
X122635000Y-85625000I0J-225000D01*
G01*
X122635000Y-86075000D01*
G75*
G02*
X122410000Y-86300000I-225000J0D01*
G01*
X121460000Y-86300000D01*
G75*
G02*
X121235000Y-86075000I0J225000D01*
G01*
X121235000Y-85625000D01*
G75*
G02*
X121460000Y-85400000I225000J0D01*
G01*
G37*
G36*
G01*
X121460000Y-84150000D02*
X122410000Y-84150000D01*
G75*
G02*
X122635000Y-84375000I0J-225000D01*
G01*
X122635000Y-84825000D01*
G75*
G02*
X122410000Y-85050000I-225000J0D01*
G01*
X121460000Y-85050000D01*
G75*
G02*
X121235000Y-84825000I0J225000D01*
G01*
X121235000Y-84375000D01*
G75*
G02*
X121460000Y-84150000I225000J0D01*
G01*
G37*
G36*
G01*
X121460000Y-82900000D02*
X122410000Y-82900000D01*
G75*
G02*
X122635000Y-83125000I0J-225000D01*
G01*
X122635000Y-83575000D01*
G75*
G02*
X122410000Y-83800000I-225000J0D01*
G01*
X121460000Y-83800000D01*
G75*
G02*
X121235000Y-83575000I0J225000D01*
G01*
X121235000Y-83125000D01*
G75*
G02*
X121460000Y-82900000I225000J0D01*
G01*
G37*
G36*
G01*
X121460000Y-81650000D02*
X122410000Y-81650000D01*
G75*
G02*
X122635000Y-81875000I0J-225000D01*
G01*
X122635000Y-82325000D01*
G75*
G02*
X122410000Y-82550000I-225000J0D01*
G01*
X121460000Y-82550000D01*
G75*
G02*
X121235000Y-82325000I0J225000D01*
G01*
X121235000Y-81875000D01*
G75*
G02*
X121460000Y-81650000I225000J0D01*
G01*
G37*
G36*
G01*
X121460000Y-80400000D02*
X122410000Y-80400000D01*
G75*
G02*
X122635000Y-80625000I0J-225000D01*
G01*
X122635000Y-81075000D01*
G75*
G02*
X122410000Y-81300000I-225000J0D01*
G01*
X121460000Y-81300000D01*
G75*
G02*
X121235000Y-81075000I0J225000D01*
G01*
X121235000Y-80625000D01*
G75*
G02*
X121460000Y-80400000I225000J0D01*
G01*
G37*
G36*
G01*
X121460000Y-79150000D02*
X122410000Y-79150000D01*
G75*
G02*
X122635000Y-79375000I0J-225000D01*
G01*
X122635000Y-79825000D01*
G75*
G02*
X122410000Y-80050000I-225000J0D01*
G01*
X121460000Y-80050000D01*
G75*
G02*
X121235000Y-79825000I0J225000D01*
G01*
X121235000Y-79375000D01*
G75*
G02*
X121460000Y-79150000I225000J0D01*
G01*
G37*
G36*
G01*
X121460000Y-77900000D02*
X122410000Y-77900000D01*
G75*
G02*
X122635000Y-78125000I0J-225000D01*
G01*
X122635000Y-78575000D01*
G75*
G02*
X122410000Y-78800000I-225000J0D01*
G01*
X121460000Y-78800000D01*
G75*
G02*
X121235000Y-78575000I0J225000D01*
G01*
X121235000Y-78125000D01*
G75*
G02*
X121460000Y-77900000I225000J0D01*
G01*
G37*
G36*
G01*
X121460000Y-76650000D02*
X122410000Y-76650000D01*
G75*
G02*
X122635000Y-76875000I0J-225000D01*
G01*
X122635000Y-77325000D01*
G75*
G02*
X122410000Y-77550000I-225000J0D01*
G01*
X121460000Y-77550000D01*
G75*
G02*
X121235000Y-77325000I0J225000D01*
G01*
X121235000Y-76875000D01*
G75*
G02*
X121460000Y-76650000I225000J0D01*
G01*
G37*
G36*
G01*
X121460000Y-75400000D02*
X122410000Y-75400000D01*
G75*
G02*
X122635000Y-75625000I0J-225000D01*
G01*
X122635000Y-76075000D01*
G75*
G02*
X122410000Y-76300000I-225000J0D01*
G01*
X121460000Y-76300000D01*
G75*
G02*
X121235000Y-76075000I0J225000D01*
G01*
X121235000Y-75625000D01*
G75*
G02*
X121460000Y-75400000I225000J0D01*
G01*
G37*
G36*
G01*
X121460000Y-74150000D02*
X122410000Y-74150000D01*
G75*
G02*
X122635000Y-74375000I0J-225000D01*
G01*
X122635000Y-74825000D01*
G75*
G02*
X122410000Y-75050000I-225000J0D01*
G01*
X121460000Y-75050000D01*
G75*
G02*
X121235000Y-74825000I0J225000D01*
G01*
X121235000Y-74375000D01*
G75*
G02*
X121460000Y-74150000I225000J0D01*
G01*
G37*
X183820000Y-54236000D03*
X110170000Y-54236000D03*
M02*
