G04 #@! TF.GenerationSoftware,KiCad,Pcbnew,5.1.6-1.fc32*
G04 #@! TF.CreationDate,2020-09-21T20:32:52-03:00*
G04 #@! TF.ProjectId,pc104-adapter-bottom,70633130-342d-4616-9461-707465722d62,v2.0*
G04 #@! TF.SameCoordinates,Original*
G04 #@! TF.FileFunction,Legend,Top*
G04 #@! TF.FilePolarity,Positive*
%FSLAX46Y46*%
G04 Gerber Fmt 4.6, Leading zero omitted, Abs format (unit mm)*
G04 Created by KiCad (PCBNEW 5.1.6-1.fc32) date 2020-09-21 20:32:52*
%MOMM*%
%LPD*%
G01*
G04 APERTURE LIST*
%ADD10C,0.160000*%
%ADD11C,0.120000*%
%ADD12C,0.150000*%
G04 APERTURE END LIST*
D10*
X166747619Y-75052380D02*
X166747619Y-74052380D01*
X166747619Y-74528571D02*
X167319047Y-74528571D01*
X167319047Y-75052380D02*
X167319047Y-74052380D01*
X167747619Y-74147619D02*
X167795238Y-74100000D01*
X167890476Y-74052380D01*
X168128571Y-74052380D01*
X168223809Y-74100000D01*
X168271428Y-74147619D01*
X168319047Y-74242857D01*
X168319047Y-74338095D01*
X168271428Y-74480952D01*
X167700000Y-75052380D01*
X168319047Y-75052380D01*
X168747619Y-74957142D02*
X168795238Y-75004761D01*
X168747619Y-75052380D01*
X168700000Y-75004761D01*
X168747619Y-74957142D01*
X168747619Y-75052380D01*
X169700000Y-74052380D02*
X169223809Y-74052380D01*
X169176190Y-74528571D01*
X169223809Y-74480952D01*
X169319047Y-74433333D01*
X169557142Y-74433333D01*
X169652380Y-74480952D01*
X169700000Y-74528571D01*
X169747619Y-74623809D01*
X169747619Y-74861904D01*
X169700000Y-74957142D01*
X169652380Y-75004761D01*
X169557142Y-75052380D01*
X169319047Y-75052380D01*
X169223809Y-75004761D01*
X169176190Y-74957142D01*
X170128571Y-74147619D02*
X170176190Y-74100000D01*
X170271428Y-74052380D01*
X170509523Y-74052380D01*
X170604761Y-74100000D01*
X170652380Y-74147619D01*
X170700000Y-74242857D01*
X170700000Y-74338095D01*
X170652380Y-74480952D01*
X170080952Y-75052380D01*
X170700000Y-75052380D01*
X166747619Y-90152380D02*
X166747619Y-89152380D01*
X166747619Y-89628571D02*
X167319047Y-89628571D01*
X167319047Y-90152380D02*
X167319047Y-89152380D01*
X167747619Y-89247619D02*
X167795238Y-89200000D01*
X167890476Y-89152380D01*
X168128571Y-89152380D01*
X168223809Y-89200000D01*
X168271428Y-89247619D01*
X168319047Y-89342857D01*
X168319047Y-89438095D01*
X168271428Y-89580952D01*
X167700000Y-90152380D01*
X168319047Y-90152380D01*
X168747619Y-90057142D02*
X168795238Y-90104761D01*
X168747619Y-90152380D01*
X168700000Y-90104761D01*
X168747619Y-90057142D01*
X168747619Y-90152380D01*
X169652380Y-89485714D02*
X169652380Y-90152380D01*
X169414285Y-89104761D02*
X169176190Y-89819047D01*
X169795238Y-89819047D01*
X170366666Y-89152380D02*
X170461904Y-89152380D01*
X170557142Y-89200000D01*
X170604761Y-89247619D01*
X170652380Y-89342857D01*
X170700000Y-89533333D01*
X170700000Y-89771428D01*
X170652380Y-89961904D01*
X170604761Y-90057142D01*
X170557142Y-90104761D01*
X170461904Y-90152380D01*
X170366666Y-90152380D01*
X170271428Y-90104761D01*
X170223809Y-90057142D01*
X170176190Y-89961904D01*
X170128571Y-89771428D01*
X170128571Y-89533333D01*
X170176190Y-89342857D01*
X170223809Y-89247619D01*
X170271428Y-89200000D01*
X170366666Y-89152380D01*
X156247619Y-75152380D02*
X156247619Y-74152380D01*
X156247619Y-74628571D02*
X156819047Y-74628571D01*
X156819047Y-75152380D02*
X156819047Y-74152380D01*
X157247619Y-74247619D02*
X157295238Y-74200000D01*
X157390476Y-74152380D01*
X157628571Y-74152380D01*
X157723809Y-74200000D01*
X157771428Y-74247619D01*
X157819047Y-74342857D01*
X157819047Y-74438095D01*
X157771428Y-74580952D01*
X157200000Y-75152380D01*
X157819047Y-75152380D01*
X158247619Y-75057142D02*
X158295238Y-75104761D01*
X158247619Y-75152380D01*
X158200000Y-75104761D01*
X158247619Y-75057142D01*
X158247619Y-75152380D01*
X158628571Y-74152380D02*
X159247619Y-74152380D01*
X158914285Y-74533333D01*
X159057142Y-74533333D01*
X159152380Y-74580952D01*
X159200000Y-74628571D01*
X159247619Y-74723809D01*
X159247619Y-74961904D01*
X159200000Y-75057142D01*
X159152380Y-75104761D01*
X159057142Y-75152380D01*
X158771428Y-75152380D01*
X158676190Y-75104761D01*
X158628571Y-75057142D01*
X159723809Y-75152380D02*
X159914285Y-75152380D01*
X160009523Y-75104761D01*
X160057142Y-75057142D01*
X160152380Y-74914285D01*
X160200000Y-74723809D01*
X160200000Y-74342857D01*
X160152380Y-74247619D01*
X160104761Y-74200000D01*
X160009523Y-74152380D01*
X159819047Y-74152380D01*
X159723809Y-74200000D01*
X159676190Y-74247619D01*
X159628571Y-74342857D01*
X159628571Y-74580952D01*
X159676190Y-74676190D01*
X159723809Y-74723809D01*
X159819047Y-74771428D01*
X160009523Y-74771428D01*
X160104761Y-74723809D01*
X160152380Y-74676190D01*
X160200000Y-74580952D01*
X156147619Y-90152380D02*
X156147619Y-89152380D01*
X156147619Y-89628571D02*
X156719047Y-89628571D01*
X156719047Y-90152380D02*
X156719047Y-89152380D01*
X157147619Y-89247619D02*
X157195238Y-89200000D01*
X157290476Y-89152380D01*
X157528571Y-89152380D01*
X157623809Y-89200000D01*
X157671428Y-89247619D01*
X157719047Y-89342857D01*
X157719047Y-89438095D01*
X157671428Y-89580952D01*
X157100000Y-90152380D01*
X157719047Y-90152380D01*
X158147619Y-90057142D02*
X158195238Y-90104761D01*
X158147619Y-90152380D01*
X158100000Y-90104761D01*
X158147619Y-90057142D01*
X158147619Y-90152380D01*
X158576190Y-89247619D02*
X158623809Y-89200000D01*
X158719047Y-89152380D01*
X158957142Y-89152380D01*
X159052380Y-89200000D01*
X159100000Y-89247619D01*
X159147619Y-89342857D01*
X159147619Y-89438095D01*
X159100000Y-89580952D01*
X158528571Y-90152380D01*
X159147619Y-90152380D01*
X159480952Y-89152380D02*
X160147619Y-89152380D01*
X159719047Y-90152380D01*
X145452380Y-93252380D02*
X144452380Y-93252380D01*
X144928571Y-93252380D02*
X144928571Y-92680952D01*
X145452380Y-92680952D02*
X144452380Y-92680952D01*
X144547619Y-92252380D02*
X144500000Y-92204761D01*
X144452380Y-92109523D01*
X144452380Y-91871428D01*
X144500000Y-91776190D01*
X144547619Y-91728571D01*
X144642857Y-91680952D01*
X144738095Y-91680952D01*
X144880952Y-91728571D01*
X145452380Y-92300000D01*
X145452380Y-91680952D01*
X145357142Y-91252380D02*
X145404761Y-91204761D01*
X145452380Y-91252380D01*
X145404761Y-91300000D01*
X145357142Y-91252380D01*
X145452380Y-91252380D01*
X144547619Y-90823809D02*
X144500000Y-90776190D01*
X144452380Y-90680952D01*
X144452380Y-90442857D01*
X144500000Y-90347619D01*
X144547619Y-90300000D01*
X144642857Y-90252380D01*
X144738095Y-90252380D01*
X144880952Y-90300000D01*
X145452380Y-90871428D01*
X145452380Y-90252380D01*
X144452380Y-89395238D02*
X144452380Y-89585714D01*
X144500000Y-89680952D01*
X144547619Y-89728571D01*
X144690476Y-89823809D01*
X144880952Y-89871428D01*
X145261904Y-89871428D01*
X145357142Y-89823809D01*
X145404761Y-89776190D01*
X145452380Y-89680952D01*
X145452380Y-89490476D01*
X145404761Y-89395238D01*
X145357142Y-89347619D01*
X145261904Y-89300000D01*
X145023809Y-89300000D01*
X144928571Y-89347619D01*
X144880952Y-89395238D01*
X144833333Y-89490476D01*
X144833333Y-89680952D01*
X144880952Y-89776190D01*
X144928571Y-89823809D01*
X145023809Y-89871428D01*
X145352380Y-74952380D02*
X144352380Y-74952380D01*
X144828571Y-74952380D02*
X144828571Y-74380952D01*
X145352380Y-74380952D02*
X144352380Y-74380952D01*
X144447619Y-73952380D02*
X144400000Y-73904761D01*
X144352380Y-73809523D01*
X144352380Y-73571428D01*
X144400000Y-73476190D01*
X144447619Y-73428571D01*
X144542857Y-73380952D01*
X144638095Y-73380952D01*
X144780952Y-73428571D01*
X145352380Y-74000000D01*
X145352380Y-73380952D01*
X145257142Y-72952380D02*
X145304761Y-72904761D01*
X145352380Y-72952380D01*
X145304761Y-73000000D01*
X145257142Y-72952380D01*
X145352380Y-72952380D01*
X145352380Y-71952380D02*
X145352380Y-72523809D01*
X145352380Y-72238095D02*
X144352380Y-72238095D01*
X144495238Y-72333333D01*
X144590476Y-72428571D01*
X144638095Y-72523809D01*
X144685714Y-71095238D02*
X145352380Y-71095238D01*
X144304761Y-71333333D02*
X145019047Y-71571428D01*
X145019047Y-70952380D01*
X123347619Y-90052380D02*
X123347619Y-89052380D01*
X123347619Y-89528571D02*
X123919047Y-89528571D01*
X123919047Y-90052380D02*
X123919047Y-89052380D01*
X124347619Y-89147619D02*
X124395238Y-89100000D01*
X124490476Y-89052380D01*
X124728571Y-89052380D01*
X124823809Y-89100000D01*
X124871428Y-89147619D01*
X124919047Y-89242857D01*
X124919047Y-89338095D01*
X124871428Y-89480952D01*
X124300000Y-90052380D01*
X124919047Y-90052380D01*
X125347619Y-89957142D02*
X125395238Y-90004761D01*
X125347619Y-90052380D01*
X125300000Y-90004761D01*
X125347619Y-89957142D01*
X125347619Y-90052380D01*
X126347619Y-90052380D02*
X125776190Y-90052380D01*
X126061904Y-90052380D02*
X126061904Y-89052380D01*
X125966666Y-89195238D01*
X125871428Y-89290476D01*
X125776190Y-89338095D01*
X126680952Y-89052380D02*
X127300000Y-89052380D01*
X126966666Y-89433333D01*
X127109523Y-89433333D01*
X127204761Y-89480952D01*
X127252380Y-89528571D01*
X127300000Y-89623809D01*
X127300000Y-89861904D01*
X127252380Y-89957142D01*
X127204761Y-90004761D01*
X127109523Y-90052380D01*
X126823809Y-90052380D01*
X126728571Y-90004761D01*
X126680952Y-89957142D01*
X123323809Y-75152380D02*
X123323809Y-74152380D01*
X123323809Y-74628571D02*
X123895238Y-74628571D01*
X123895238Y-75152380D02*
X123895238Y-74152380D01*
X124323809Y-74247619D02*
X124371428Y-74200000D01*
X124466666Y-74152380D01*
X124704761Y-74152380D01*
X124800000Y-74200000D01*
X124847619Y-74247619D01*
X124895238Y-74342857D01*
X124895238Y-74438095D01*
X124847619Y-74580952D01*
X124276190Y-75152380D01*
X124895238Y-75152380D01*
X125323809Y-75057142D02*
X125371428Y-75104761D01*
X125323809Y-75152380D01*
X125276190Y-75104761D01*
X125323809Y-75057142D01*
X125323809Y-75152380D01*
X126323809Y-75152380D02*
X125752380Y-75152380D01*
X126038095Y-75152380D02*
X126038095Y-74152380D01*
X125942857Y-74295238D01*
X125847619Y-74390476D01*
X125752380Y-74438095D01*
X177247619Y-75052380D02*
X177247619Y-74052380D01*
X177247619Y-74528571D02*
X177819047Y-74528571D01*
X177819047Y-75052380D02*
X177819047Y-74052380D01*
X178819047Y-75052380D02*
X178247619Y-75052380D01*
X178533333Y-75052380D02*
X178533333Y-74052380D01*
X178438095Y-74195238D01*
X178342857Y-74290476D01*
X178247619Y-74338095D01*
X179247619Y-74957142D02*
X179295238Y-75004761D01*
X179247619Y-75052380D01*
X179200000Y-75004761D01*
X179247619Y-74957142D01*
X179247619Y-75052380D01*
X180200000Y-74052380D02*
X179723809Y-74052380D01*
X179676190Y-74528571D01*
X179723809Y-74480952D01*
X179819047Y-74433333D01*
X180057142Y-74433333D01*
X180152380Y-74480952D01*
X180200000Y-74528571D01*
X180247619Y-74623809D01*
X180247619Y-74861904D01*
X180200000Y-74957142D01*
X180152380Y-75004761D01*
X180057142Y-75052380D01*
X179819047Y-75052380D01*
X179723809Y-75004761D01*
X179676190Y-74957142D01*
X180628571Y-74147619D02*
X180676190Y-74100000D01*
X180771428Y-74052380D01*
X181009523Y-74052380D01*
X181104761Y-74100000D01*
X181152380Y-74147619D01*
X181200000Y-74242857D01*
X181200000Y-74338095D01*
X181152380Y-74480952D01*
X180580952Y-75052380D01*
X181200000Y-75052380D01*
X177247619Y-90152380D02*
X177247619Y-89152380D01*
X177247619Y-89628571D02*
X177819047Y-89628571D01*
X177819047Y-90152380D02*
X177819047Y-89152380D01*
X178819047Y-90152380D02*
X178247619Y-90152380D01*
X178533333Y-90152380D02*
X178533333Y-89152380D01*
X178438095Y-89295238D01*
X178342857Y-89390476D01*
X178247619Y-89438095D01*
X179247619Y-90057142D02*
X179295238Y-90104761D01*
X179247619Y-90152380D01*
X179200000Y-90104761D01*
X179247619Y-90057142D01*
X179247619Y-90152380D01*
X180152380Y-89485714D02*
X180152380Y-90152380D01*
X179914285Y-89104761D02*
X179676190Y-89819047D01*
X180295238Y-89819047D01*
X180866666Y-89152380D02*
X180961904Y-89152380D01*
X181057142Y-89200000D01*
X181104761Y-89247619D01*
X181152380Y-89342857D01*
X181200000Y-89533333D01*
X181200000Y-89771428D01*
X181152380Y-89961904D01*
X181104761Y-90057142D01*
X181057142Y-90104761D01*
X180961904Y-90152380D01*
X180866666Y-90152380D01*
X180771428Y-90104761D01*
X180723809Y-90057142D01*
X180676190Y-89961904D01*
X180628571Y-89771428D01*
X180628571Y-89533333D01*
X180676190Y-89342857D01*
X180723809Y-89247619D01*
X180771428Y-89200000D01*
X180866666Y-89152380D01*
X149652380Y-74852380D02*
X148652380Y-74852380D01*
X149128571Y-74852380D02*
X149128571Y-74280952D01*
X149652380Y-74280952D02*
X148652380Y-74280952D01*
X149652380Y-73280952D02*
X149652380Y-73852380D01*
X149652380Y-73566666D02*
X148652380Y-73566666D01*
X148795238Y-73661904D01*
X148890476Y-73757142D01*
X148938095Y-73852380D01*
X149557142Y-72852380D02*
X149604761Y-72804761D01*
X149652380Y-72852380D01*
X149604761Y-72900000D01*
X149557142Y-72852380D01*
X149652380Y-72852380D01*
X148652380Y-72471428D02*
X148652380Y-71852380D01*
X149033333Y-72185714D01*
X149033333Y-72042857D01*
X149080952Y-71947619D01*
X149128571Y-71900000D01*
X149223809Y-71852380D01*
X149461904Y-71852380D01*
X149557142Y-71900000D01*
X149604761Y-71947619D01*
X149652380Y-72042857D01*
X149652380Y-72328571D01*
X149604761Y-72423809D01*
X149557142Y-72471428D01*
X149652380Y-71376190D02*
X149652380Y-71185714D01*
X149604761Y-71090476D01*
X149557142Y-71042857D01*
X149414285Y-70947619D01*
X149223809Y-70900000D01*
X148842857Y-70900000D01*
X148747619Y-70947619D01*
X148700000Y-70995238D01*
X148652380Y-71090476D01*
X148652380Y-71280952D01*
X148700000Y-71376190D01*
X148747619Y-71423809D01*
X148842857Y-71471428D01*
X149080952Y-71471428D01*
X149176190Y-71423809D01*
X149223809Y-71376190D01*
X149271428Y-71280952D01*
X149271428Y-71090476D01*
X149223809Y-70995238D01*
X149176190Y-70947619D01*
X149080952Y-70900000D01*
X149552380Y-93252380D02*
X148552380Y-93252380D01*
X149028571Y-93252380D02*
X149028571Y-92680952D01*
X149552380Y-92680952D02*
X148552380Y-92680952D01*
X149552380Y-91680952D02*
X149552380Y-92252380D01*
X149552380Y-91966666D02*
X148552380Y-91966666D01*
X148695238Y-92061904D01*
X148790476Y-92157142D01*
X148838095Y-92252380D01*
X149457142Y-91252380D02*
X149504761Y-91204761D01*
X149552380Y-91252380D01*
X149504761Y-91300000D01*
X149457142Y-91252380D01*
X149552380Y-91252380D01*
X148647619Y-90823809D02*
X148600000Y-90776190D01*
X148552380Y-90680952D01*
X148552380Y-90442857D01*
X148600000Y-90347619D01*
X148647619Y-90300000D01*
X148742857Y-90252380D01*
X148838095Y-90252380D01*
X148980952Y-90300000D01*
X149552380Y-90871428D01*
X149552380Y-90252380D01*
X148552380Y-89919047D02*
X148552380Y-89252380D01*
X149552380Y-89680952D01*
X133847619Y-90052380D02*
X133847619Y-89052380D01*
X133847619Y-89528571D02*
X134419047Y-89528571D01*
X134419047Y-90052380D02*
X134419047Y-89052380D01*
X135419047Y-90052380D02*
X134847619Y-90052380D01*
X135133333Y-90052380D02*
X135133333Y-89052380D01*
X135038095Y-89195238D01*
X134942857Y-89290476D01*
X134847619Y-89338095D01*
X135847619Y-89957142D02*
X135895238Y-90004761D01*
X135847619Y-90052380D01*
X135800000Y-90004761D01*
X135847619Y-89957142D01*
X135847619Y-90052380D01*
X136276190Y-89147619D02*
X136323809Y-89100000D01*
X136419047Y-89052380D01*
X136657142Y-89052380D01*
X136752380Y-89100000D01*
X136800000Y-89147619D01*
X136847619Y-89242857D01*
X136847619Y-89338095D01*
X136800000Y-89480952D01*
X136228571Y-90052380D01*
X136847619Y-90052380D01*
X137704761Y-89052380D02*
X137514285Y-89052380D01*
X137419047Y-89100000D01*
X137371428Y-89147619D01*
X137276190Y-89290476D01*
X137228571Y-89480952D01*
X137228571Y-89861904D01*
X137276190Y-89957142D01*
X137323809Y-90004761D01*
X137419047Y-90052380D01*
X137609523Y-90052380D01*
X137704761Y-90004761D01*
X137752380Y-89957142D01*
X137800000Y-89861904D01*
X137800000Y-89623809D01*
X137752380Y-89528571D01*
X137704761Y-89480952D01*
X137609523Y-89433333D01*
X137419047Y-89433333D01*
X137323809Y-89480952D01*
X137276190Y-89528571D01*
X137228571Y-89623809D01*
X133847619Y-75152380D02*
X133847619Y-74152380D01*
X133847619Y-74628571D02*
X134419047Y-74628571D01*
X134419047Y-75152380D02*
X134419047Y-74152380D01*
X135419047Y-75152380D02*
X134847619Y-75152380D01*
X135133333Y-75152380D02*
X135133333Y-74152380D01*
X135038095Y-74295238D01*
X134942857Y-74390476D01*
X134847619Y-74438095D01*
X135847619Y-75057142D02*
X135895238Y-75104761D01*
X135847619Y-75152380D01*
X135800000Y-75104761D01*
X135847619Y-75057142D01*
X135847619Y-75152380D01*
X136847619Y-75152380D02*
X136276190Y-75152380D01*
X136561904Y-75152380D02*
X136561904Y-74152380D01*
X136466666Y-74295238D01*
X136371428Y-74390476D01*
X136276190Y-74438095D01*
X137704761Y-74485714D02*
X137704761Y-75152380D01*
X137466666Y-74104761D02*
X137228571Y-74819047D01*
X137847619Y-74819047D01*
X112847619Y-90052380D02*
X112847619Y-89052380D01*
X112847619Y-89528571D02*
X113419047Y-89528571D01*
X113419047Y-90052380D02*
X113419047Y-89052380D01*
X114419047Y-90052380D02*
X113847619Y-90052380D01*
X114133333Y-90052380D02*
X114133333Y-89052380D01*
X114038095Y-89195238D01*
X113942857Y-89290476D01*
X113847619Y-89338095D01*
X114847619Y-89957142D02*
X114895238Y-90004761D01*
X114847619Y-90052380D01*
X114800000Y-90004761D01*
X114847619Y-89957142D01*
X114847619Y-90052380D01*
X115847619Y-90052380D02*
X115276190Y-90052380D01*
X115561904Y-90052380D02*
X115561904Y-89052380D01*
X115466666Y-89195238D01*
X115371428Y-89290476D01*
X115276190Y-89338095D01*
X116180952Y-89052380D02*
X116800000Y-89052380D01*
X116466666Y-89433333D01*
X116609523Y-89433333D01*
X116704761Y-89480952D01*
X116752380Y-89528571D01*
X116800000Y-89623809D01*
X116800000Y-89861904D01*
X116752380Y-89957142D01*
X116704761Y-90004761D01*
X116609523Y-90052380D01*
X116323809Y-90052380D01*
X116228571Y-90004761D01*
X116180952Y-89957142D01*
X112823809Y-75152380D02*
X112823809Y-74152380D01*
X112823809Y-74628571D02*
X113395238Y-74628571D01*
X113395238Y-75152380D02*
X113395238Y-74152380D01*
X114395238Y-75152380D02*
X113823809Y-75152380D01*
X114109523Y-75152380D02*
X114109523Y-74152380D01*
X114014285Y-74295238D01*
X113919047Y-74390476D01*
X113823809Y-74438095D01*
X114823809Y-75057142D02*
X114871428Y-75104761D01*
X114823809Y-75152380D01*
X114776190Y-75104761D01*
X114823809Y-75057142D01*
X114823809Y-75152380D01*
X115823809Y-75152380D02*
X115252380Y-75152380D01*
X115538095Y-75152380D02*
X115538095Y-74152380D01*
X115442857Y-74295238D01*
X115347619Y-74390476D01*
X115252380Y-74438095D01*
D11*
X183572000Y-91210000D02*
X182622000Y-91210000D01*
X182622000Y-91210000D02*
X182622000Y-90260000D01*
X182622000Y-90260000D02*
X181932000Y-90260000D01*
X183572000Y-72990000D02*
X182622000Y-72990000D01*
X182622000Y-72990000D02*
X182622000Y-73940000D01*
X186542000Y-90840000D02*
X186542000Y-73360000D01*
X151998000Y-91210000D02*
X151048000Y-91210000D01*
X151048000Y-91210000D02*
X151048000Y-90260000D01*
X151048000Y-90260000D02*
X150358000Y-90260000D01*
X151998000Y-72990000D02*
X151048000Y-72990000D01*
X151048000Y-72990000D02*
X151048000Y-73940000D01*
X154968000Y-90840000D02*
X154968000Y-73360000D01*
X131469000Y-72990000D02*
X132419000Y-72990000D01*
X132419000Y-72990000D02*
X132419000Y-73940000D01*
X132419000Y-73940000D02*
X133109000Y-73940000D01*
X131469000Y-91210000D02*
X132419000Y-91210000D01*
X132419000Y-91210000D02*
X132419000Y-90260000D01*
X128499000Y-73360000D02*
X128499000Y-90840000D01*
X110420000Y-72990000D02*
X111370000Y-72990000D01*
X111370000Y-72990000D02*
X111370000Y-73940000D01*
X111370000Y-73940000D02*
X112060000Y-73940000D01*
X110420000Y-91210000D02*
X111370000Y-91210000D01*
X111370000Y-91210000D02*
X111370000Y-90260000D01*
X107450000Y-73360000D02*
X107450000Y-90840000D01*
X173048000Y-91210000D02*
X172098000Y-91210000D01*
X172098000Y-91210000D02*
X172098000Y-90260000D01*
X172098000Y-90260000D02*
X171408000Y-90260000D01*
X173048000Y-72990000D02*
X172098000Y-72990000D01*
X172098000Y-72990000D02*
X172098000Y-73940000D01*
X176018000Y-90840000D02*
X176018000Y-73360000D01*
X162523000Y-91210000D02*
X161573000Y-91210000D01*
X161573000Y-91210000D02*
X161573000Y-90260000D01*
X161573000Y-90260000D02*
X160883000Y-90260000D01*
X162523000Y-72990000D02*
X161573000Y-72990000D01*
X161573000Y-72990000D02*
X161573000Y-73940000D01*
X165493000Y-90840000D02*
X165493000Y-73360000D01*
X141994000Y-72990000D02*
X142944000Y-72990000D01*
X142944000Y-72990000D02*
X142944000Y-73940000D01*
X142944000Y-73940000D02*
X143634000Y-73940000D01*
X141994000Y-91210000D02*
X142944000Y-91210000D01*
X142944000Y-91210000D02*
X142944000Y-90260000D01*
X139024000Y-73360000D02*
X139024000Y-90840000D01*
X120945000Y-72990000D02*
X121895000Y-72990000D01*
X121895000Y-72990000D02*
X121895000Y-73940000D01*
X121895000Y-73940000D02*
X122585000Y-73940000D01*
X120945000Y-91210000D02*
X121895000Y-91210000D01*
X121895000Y-91210000D02*
X121895000Y-90260000D01*
X117975000Y-73360000D02*
X117975000Y-90840000D01*
D12*
X105608095Y-136638380D02*
X105608095Y-135638380D01*
X105608095Y-136114571D02*
X106179523Y-136114571D01*
X106179523Y-136638380D02*
X106179523Y-135638380D01*
X106560476Y-135638380D02*
X107179523Y-135638380D01*
X106846190Y-136019333D01*
X106989047Y-136019333D01*
X107084285Y-136066952D01*
X107131904Y-136114571D01*
X107179523Y-136209809D01*
X107179523Y-136447904D01*
X107131904Y-136543142D01*
X107084285Y-136590761D01*
X106989047Y-136638380D01*
X106703333Y-136638380D01*
X106608095Y-136590761D01*
X106560476Y-136543142D01*
X185668095Y-136638380D02*
X185668095Y-135638380D01*
X185668095Y-136114571D02*
X186239523Y-136114571D01*
X186239523Y-136638380D02*
X186239523Y-135638380D01*
X187144285Y-135971714D02*
X187144285Y-136638380D01*
X186906190Y-135590761D02*
X186668095Y-136305047D01*
X187287142Y-136305047D01*
D10*
X178561904Y-51452380D02*
X178085714Y-51452380D01*
X178038095Y-51928571D01*
X178085714Y-51880952D01*
X178180952Y-51833333D01*
X178419047Y-51833333D01*
X178514285Y-51880952D01*
X178561904Y-51928571D01*
X178609523Y-52023809D01*
X178609523Y-52261904D01*
X178561904Y-52357142D01*
X178514285Y-52404761D01*
X178419047Y-52452380D01*
X178180952Y-52452380D01*
X178085714Y-52404761D01*
X178038095Y-52357142D01*
X178990476Y-51547619D02*
X179038095Y-51500000D01*
X179133333Y-51452380D01*
X179371428Y-51452380D01*
X179466666Y-51500000D01*
X179514285Y-51547619D01*
X179561904Y-51642857D01*
X179561904Y-51738095D01*
X179514285Y-51880952D01*
X178942857Y-52452380D01*
X179561904Y-52452380D01*
X181561904Y-56252380D02*
X181085714Y-56252380D01*
X181038095Y-56728571D01*
X181085714Y-56680952D01*
X181180952Y-56633333D01*
X181419047Y-56633333D01*
X181514285Y-56680952D01*
X181561904Y-56728571D01*
X181609523Y-56823809D01*
X181609523Y-57061904D01*
X181561904Y-57157142D01*
X181514285Y-57204761D01*
X181419047Y-57252380D01*
X181180952Y-57252380D01*
X181085714Y-57204761D01*
X181038095Y-57157142D01*
X182561904Y-57252380D02*
X181990476Y-57252380D01*
X182276190Y-57252380D02*
X182276190Y-56252380D01*
X182180952Y-56395238D01*
X182085714Y-56490476D01*
X181990476Y-56538095D01*
X115014285Y-51547619D02*
X115061904Y-51500000D01*
X115157142Y-51452380D01*
X115395238Y-51452380D01*
X115490476Y-51500000D01*
X115538095Y-51547619D01*
X115585714Y-51642857D01*
X115585714Y-51738095D01*
X115538095Y-51880952D01*
X114966666Y-52452380D01*
X115585714Y-52452380D01*
X112445714Y-57252380D02*
X111874285Y-57252380D01*
X112160000Y-57252380D02*
X112160000Y-56252380D01*
X112064761Y-56395238D01*
X111969523Y-56490476D01*
X111874285Y-56538095D01*
X181561904Y-58752380D02*
X181085714Y-58752380D01*
X181038095Y-59228571D01*
X181085714Y-59180952D01*
X181180952Y-59133333D01*
X181419047Y-59133333D01*
X181514285Y-59180952D01*
X181561904Y-59228571D01*
X181609523Y-59323809D01*
X181609523Y-59561904D01*
X181561904Y-59657142D01*
X181514285Y-59704761D01*
X181419047Y-59752380D01*
X181180952Y-59752380D01*
X181085714Y-59704761D01*
X181038095Y-59657142D01*
X181990476Y-58847619D02*
X182038095Y-58800000D01*
X182133333Y-58752380D01*
X182371428Y-58752380D01*
X182466666Y-58800000D01*
X182514285Y-58847619D01*
X182561904Y-58942857D01*
X182561904Y-59038095D01*
X182514285Y-59180952D01*
X181942857Y-59752380D01*
X182561904Y-59752380D01*
X181561904Y-61352380D02*
X181085714Y-61352380D01*
X181038095Y-61828571D01*
X181085714Y-61780952D01*
X181180952Y-61733333D01*
X181419047Y-61733333D01*
X181514285Y-61780952D01*
X181561904Y-61828571D01*
X181609523Y-61923809D01*
X181609523Y-62161904D01*
X181561904Y-62257142D01*
X181514285Y-62304761D01*
X181419047Y-62352380D01*
X181180952Y-62352380D01*
X181085714Y-62304761D01*
X181038095Y-62257142D01*
X182561904Y-62352380D02*
X181990476Y-62352380D01*
X182276190Y-62352380D02*
X182276190Y-61352380D01*
X182180952Y-61495238D01*
X182085714Y-61590476D01*
X181990476Y-61638095D01*
X111874285Y-58947619D02*
X111921904Y-58900000D01*
X112017142Y-58852380D01*
X112255238Y-58852380D01*
X112350476Y-58900000D01*
X112398095Y-58947619D01*
X112445714Y-59042857D01*
X112445714Y-59138095D01*
X112398095Y-59280952D01*
X111826666Y-59852380D01*
X112445714Y-59852380D01*
X112445714Y-62352380D02*
X111874285Y-62352380D01*
X112160000Y-62352380D02*
X112160000Y-61352380D01*
X112064761Y-61495238D01*
X111969523Y-61590476D01*
X111874285Y-61638095D01*
D12*
X180184380Y-82433333D02*
X180898666Y-82433333D01*
X181041523Y-82480952D01*
X181136761Y-82576190D01*
X181184380Y-82719047D01*
X181184380Y-82814285D01*
X180612952Y-81814285D02*
X180565333Y-81909523D01*
X180517714Y-81957142D01*
X180422476Y-82004761D01*
X180374857Y-82004761D01*
X180279619Y-81957142D01*
X180232000Y-81909523D01*
X180184380Y-81814285D01*
X180184380Y-81623809D01*
X180232000Y-81528571D01*
X180279619Y-81480952D01*
X180374857Y-81433333D01*
X180422476Y-81433333D01*
X180517714Y-81480952D01*
X180565333Y-81528571D01*
X180612952Y-81623809D01*
X180612952Y-81814285D01*
X180660571Y-81909523D01*
X180708190Y-81957142D01*
X180803428Y-82004761D01*
X180993904Y-82004761D01*
X181089142Y-81957142D01*
X181136761Y-81909523D01*
X181184380Y-81814285D01*
X181184380Y-81623809D01*
X181136761Y-81528571D01*
X181089142Y-81480952D01*
X180993904Y-81433333D01*
X180803428Y-81433333D01*
X180708190Y-81480952D01*
X180660571Y-81528571D01*
X180612952Y-81623809D01*
X148610380Y-82433333D02*
X149324666Y-82433333D01*
X149467523Y-82480952D01*
X149562761Y-82576190D01*
X149610380Y-82719047D01*
X149610380Y-82814285D01*
X148610380Y-82052380D02*
X148610380Y-81385714D01*
X149610380Y-81814285D01*
X133761380Y-82433333D02*
X134475666Y-82433333D01*
X134618523Y-82480952D01*
X134713761Y-82576190D01*
X134761380Y-82719047D01*
X134761380Y-82814285D01*
X133761380Y-81528571D02*
X133761380Y-81719047D01*
X133809000Y-81814285D01*
X133856619Y-81861904D01*
X133999476Y-81957142D01*
X134189952Y-82004761D01*
X134570904Y-82004761D01*
X134666142Y-81957142D01*
X134713761Y-81909523D01*
X134761380Y-81814285D01*
X134761380Y-81623809D01*
X134713761Y-81528571D01*
X134666142Y-81480952D01*
X134570904Y-81433333D01*
X134332809Y-81433333D01*
X134237571Y-81480952D01*
X134189952Y-81528571D01*
X134142333Y-81623809D01*
X134142333Y-81814285D01*
X134189952Y-81909523D01*
X134237571Y-81957142D01*
X134332809Y-82004761D01*
X112712380Y-82433333D02*
X113426666Y-82433333D01*
X113569523Y-82480952D01*
X113664761Y-82576190D01*
X113712380Y-82719047D01*
X113712380Y-82814285D01*
X112712380Y-81480952D02*
X112712380Y-81957142D01*
X113188571Y-82004761D01*
X113140952Y-81957142D01*
X113093333Y-81861904D01*
X113093333Y-81623809D01*
X113140952Y-81528571D01*
X113188571Y-81480952D01*
X113283809Y-81433333D01*
X113521904Y-81433333D01*
X113617142Y-81480952D01*
X113664761Y-81528571D01*
X113712380Y-81623809D01*
X113712380Y-81861904D01*
X113664761Y-81957142D01*
X113617142Y-82004761D01*
X169660380Y-82433333D02*
X170374666Y-82433333D01*
X170517523Y-82480952D01*
X170612761Y-82576190D01*
X170660380Y-82719047D01*
X170660380Y-82814285D01*
X169993714Y-81528571D02*
X170660380Y-81528571D01*
X169612761Y-81766666D02*
X170327047Y-82004761D01*
X170327047Y-81385714D01*
X159135380Y-82433333D02*
X159849666Y-82433333D01*
X159992523Y-82480952D01*
X160087761Y-82576190D01*
X160135380Y-82719047D01*
X160135380Y-82814285D01*
X159135380Y-82052380D02*
X159135380Y-81433333D01*
X159516333Y-81766666D01*
X159516333Y-81623809D01*
X159563952Y-81528571D01*
X159611571Y-81480952D01*
X159706809Y-81433333D01*
X159944904Y-81433333D01*
X160040142Y-81480952D01*
X160087761Y-81528571D01*
X160135380Y-81623809D01*
X160135380Y-81909523D01*
X160087761Y-82004761D01*
X160040142Y-82052380D01*
X144286380Y-82433333D02*
X145000666Y-82433333D01*
X145143523Y-82480952D01*
X145238761Y-82576190D01*
X145286380Y-82719047D01*
X145286380Y-82814285D01*
X144381619Y-82004761D02*
X144334000Y-81957142D01*
X144286380Y-81861904D01*
X144286380Y-81623809D01*
X144334000Y-81528571D01*
X144381619Y-81480952D01*
X144476857Y-81433333D01*
X144572095Y-81433333D01*
X144714952Y-81480952D01*
X145286380Y-82052380D01*
X145286380Y-81433333D01*
X123237380Y-82433333D02*
X123951666Y-82433333D01*
X124094523Y-82480952D01*
X124189761Y-82576190D01*
X124237380Y-82719047D01*
X124237380Y-82814285D01*
X124237380Y-81433333D02*
X124237380Y-82004761D01*
X124237380Y-81719047D02*
X123237380Y-81719047D01*
X123380238Y-81814285D01*
X123475476Y-81909523D01*
X123523095Y-82004761D01*
X183068095Y-58552380D02*
X183068095Y-57552380D01*
X183068095Y-58028571D02*
X183639523Y-58028571D01*
X183639523Y-58552380D02*
X183639523Y-57552380D01*
X184068095Y-57647619D02*
X184115714Y-57600000D01*
X184210952Y-57552380D01*
X184449047Y-57552380D01*
X184544285Y-57600000D01*
X184591904Y-57647619D01*
X184639523Y-57742857D01*
X184639523Y-57838095D01*
X184591904Y-57980952D01*
X184020476Y-58552380D01*
X184639523Y-58552380D01*
X109408095Y-58652380D02*
X109408095Y-57652380D01*
X109408095Y-58128571D02*
X109979523Y-58128571D01*
X109979523Y-58652380D02*
X109979523Y-57652380D01*
X110979523Y-58652380D02*
X110408095Y-58652380D01*
X110693809Y-58652380D02*
X110693809Y-57652380D01*
X110598571Y-57795238D01*
X110503333Y-57890476D01*
X110408095Y-57938095D01*
M02*
