M48
; DRILL file {KiCad 5.1.6-1.fc32} date Fri Sep 11 21:54:14 2020
; FORMAT={-:-/ absolute / metric / decimal}
; #@! TF.CreationDate,2020-09-11T21:54:14-03:00
; #@! TF.GenerationSoftware,Kicad,Pcbnew,5.1.6-1.fc32
; #@! TF.FileFunction,Plated,1,4,PTH
FMAT,2
METRIC
T1C0.400
T2C1.020
T3C3.200
%
G90
G05
T1
X109.139Y-86.893
X109.148Y-88.172
X111.684Y-89.453
X112.432Y-84.972
X119.327Y-79.245
X119.631Y-75.419
X119.663Y-80.658
X119.679Y-77.841
X121.269Y-69.25
X122.174Y-87.453
X122.205Y-80.568
X122.219Y-83.109
X122.35Y-68.731
X122.455Y-67.512
X123.703Y-85.377
X132.714Y-89.486
X132.729Y-88.203
X138.021Y-74.629
X138.964Y-77.233
X139.852Y-77.899
X140.612Y-82.969
X140.722Y-87.58
X141.189Y-71.621
X141.191Y-68.811
X141.984Y-74.461
X142.96Y-73.986
X143.245Y-88.216
X143.485Y-69.785
X144.644Y-64.591
X150.008Y-74.485
X150.595Y-73.651
X151.472Y-70.203
X151.762Y-77.694
X152.777Y-77.949
X153.507Y-76.449
X155.767Y-69.002
X156.557Y-68.173
X158.003Y-64.918
X158.628Y-81.052
X158.763Y-65.601
X159.264Y-85.5
X159.271Y-90.5
X159.273Y-88.845
X160.695Y-67.55
X161.795Y-85.732
X168.039Y-66.255
X168.775Y-85.901
X169.667Y-80.344
X169.792Y-85.66
X170.473Y-72.179
X172.342Y-79.147
X172.747Y-76.529
X174.181Y-74.991
X175.183Y-75.015
X179.294Y-88.362
X180.304Y-82.947
X180.305Y-85.952
X180.32Y-84.47
X180.325Y-88.316
X180.328Y-87.034
X182.861Y-81.961
T2
X114.25Y-55.136
X114.25Y-57.676
X116.79Y-55.136
X116.79Y-57.676
X119.33Y-55.136
X119.33Y-57.676
X121.87Y-55.136
X121.87Y-57.676
X124.41Y-55.136
X124.41Y-57.676
X126.95Y-55.136
X126.95Y-57.676
X129.49Y-55.136
X129.49Y-57.676
X132.03Y-55.136
X132.03Y-57.676
X134.57Y-55.136
X134.57Y-57.676
X137.11Y-55.136
X137.11Y-57.676
X139.65Y-55.136
X139.65Y-57.676
X142.19Y-55.136
X142.19Y-57.676
X144.73Y-55.136
X144.73Y-57.676
X147.27Y-55.136
X147.27Y-57.676
X149.81Y-55.136
X149.81Y-57.676
X152.35Y-55.136
X152.35Y-57.676
X154.89Y-55.136
X154.89Y-57.676
X157.43Y-55.136
X157.43Y-57.676
X159.97Y-55.136
X159.97Y-57.676
X162.51Y-55.136
X162.51Y-57.676
X165.05Y-55.136
X165.05Y-57.676
X167.59Y-55.136
X167.59Y-57.676
X170.13Y-55.136
X170.13Y-57.676
X172.67Y-55.136
X172.67Y-57.676
X175.21Y-55.136
X175.21Y-57.676
X177.75Y-55.136
X177.75Y-57.676
X114.25Y-60.216
X114.25Y-62.756
X116.79Y-60.216
X116.79Y-62.756
X119.33Y-60.216
X119.33Y-62.756
X121.87Y-60.216
X121.87Y-62.756
X124.41Y-60.216
X124.41Y-62.756
X126.95Y-60.216
X126.95Y-62.756
X129.49Y-60.216
X129.49Y-62.756
X132.03Y-60.216
X132.03Y-62.756
X134.57Y-60.216
X134.57Y-62.756
X137.11Y-60.216
X137.11Y-62.756
X139.65Y-60.216
X139.65Y-62.756
X142.19Y-60.216
X142.19Y-62.756
X144.73Y-60.216
X144.73Y-62.756
X147.27Y-60.216
X147.27Y-62.756
X149.81Y-60.216
X149.81Y-62.756
X152.35Y-60.216
X152.35Y-62.756
X154.89Y-60.216
X154.89Y-62.756
X157.43Y-60.216
X157.43Y-62.756
X159.97Y-60.216
X159.97Y-62.756
X162.51Y-60.216
X162.51Y-62.756
X165.05Y-60.216
X165.05Y-62.756
X167.59Y-60.216
X167.59Y-62.756
X170.13Y-60.216
X170.13Y-62.756
X172.67Y-60.216
X172.67Y-62.756
X175.21Y-60.216
X175.21Y-62.756
X177.75Y-60.216
X177.75Y-62.756
T3
X185.39Y-140.866
X105.35Y-140.866
X182.84Y-55.136
X109.16Y-55.136
T0
M30
