M48
INCH,TZ
T1C0.0157
T2C0.0402
T3C0.1260
%
G90
G05
T1
X42968Y-34210
X42972Y-34714
X43970Y-35218
X44265Y-33453
X46979Y-31199
X47099Y-29693
X47111Y-31755
X47118Y-30646
X47744Y-27264
X48100Y-34430
X48112Y-31720
X48118Y-32720
X48169Y-27060
X48211Y-26579
X48702Y-33613
X52250Y-35231
X52255Y-34726
X54339Y-29381
X54710Y-30406
X55060Y-30669
X55359Y-32665
X55403Y-34480
X55586Y-28197
X55587Y-27091
X55899Y-29315
X56284Y-29128
X56396Y-34731
X56490Y-27474
X56946Y-25430
X59058Y-29325
X59290Y-28996
X59635Y-27639
X59749Y-30588
X60148Y-30689
X60436Y-30098
X61326Y-27166
X61637Y-26840
X62206Y-25558
X62452Y-31910
X62505Y-25827
X62702Y-33661
X62705Y-35630
X62706Y-34979
X63266Y-26595
X63699Y-33753
X66157Y-26085
X66447Y-33819
X66798Y-31631
X66847Y-33725
X67115Y-28417
X67851Y-31160
X68011Y-30129
X68575Y-29524
X68970Y-29533
X70588Y-34788
X70986Y-32656
X70986Y-33839
X70992Y-33256
X70994Y-34770
X70995Y-34266
X71993Y-32268
T2
X44980Y-23707
X44980Y-24707
X45980Y-23707
X45980Y-24707
X46980Y-23707
X46980Y-24707
X47980Y-23707
X47980Y-24707
X48980Y-23707
X48980Y-24707
X49980Y-23707
X49980Y-24707
X50980Y-23707
X50980Y-24707
X51980Y-23707
X51980Y-24707
X52980Y-23707
X52980Y-24707
X53980Y-23707
X53980Y-24707
X54980Y-23707
X54980Y-24707
X55980Y-23707
X55980Y-24707
X56980Y-23707
X56980Y-24707
X57980Y-23707
X57980Y-24707
X58980Y-23707
X58980Y-24707
X59980Y-23707
X59980Y-24707
X60980Y-23707
X60980Y-24707
X61980Y-23707
X61980Y-24707
X62980Y-23707
X62980Y-24707
X63980Y-23707
X63980Y-24707
X64980Y-23707
X64980Y-24707
X65980Y-23707
X65980Y-24707
X66980Y-23707
X66980Y-24707
X67980Y-23707
X67980Y-24707
X68980Y-23707
X68980Y-24707
X69980Y-23707
X69980Y-24707
X44980Y-21707
X44980Y-22707
X45980Y-21707
X45980Y-22707
X46980Y-21707
X46980Y-22707
X47980Y-21707
X47980Y-22707
X48980Y-21707
X48980Y-22707
X49980Y-21707
X49980Y-22707
X50980Y-21707
X50980Y-22707
X51980Y-21707
X51980Y-22707
X52980Y-21707
X52980Y-22707
X53980Y-21707
X53980Y-22707
X54980Y-21707
X54980Y-22707
X55980Y-21707
X55980Y-22707
X56980Y-21707
X56980Y-22707
X57980Y-21707
X57980Y-22707
X58980Y-21707
X58980Y-22707
X59980Y-21707
X59980Y-22707
X60980Y-21707
X60980Y-22707
X61980Y-21707
X61980Y-22707
X62980Y-21707
X62980Y-22707
X63980Y-21707
X63980Y-22707
X64980Y-21707
X64980Y-22707
X65980Y-21707
X65980Y-22707
X66980Y-21707
X66980Y-22707
X67980Y-21707
X67980Y-22707
X68980Y-21707
X68980Y-22707
X69980Y-21707
X69980Y-22707
T3
X72988Y-55459
X71984Y-21707
X41476Y-55459
X42976Y-21707
T0
M30
