G04 #@! TF.GenerationSoftware,KiCad,Pcbnew,5.1.6-1.fc32*
G04 #@! TF.CreationDate,2020-09-21T20:32:52-03:00*
G04 #@! TF.ProjectId,pc104-adapter-bottom,70633130-342d-4616-9461-707465722d62,v2.0*
G04 #@! TF.SameCoordinates,Original*
G04 #@! TF.FileFunction,Profile,NP*
%FSLAX46Y46*%
G04 Gerber Fmt 4.6, Leading zero omitted, Abs format (unit mm)*
G04 Created by KiCad (PCBNEW 5.1.6-1.fc32) date 2020-09-21 20:32:52*
%MOMM*%
%LPD*%
G01*
G04 APERTURE LIST*
G04 #@! TA.AperFunction,Profile*
%ADD10C,0.150000*%
G04 #@! TD*
G04 APERTURE END LIST*
D10*
X118270000Y-100400000D02*
X174530000Y-100400000D01*
X113270000Y-128040000D02*
X113270000Y-105400000D01*
X179530000Y-128040000D02*
X179530000Y-105400000D01*
X118270000Y-133040000D02*
X174530000Y-133040000D01*
X103270000Y-66836000D02*
X103270000Y-139936000D01*
X104770000Y-65336000D02*
X105570000Y-65336000D01*
X107070000Y-54236000D02*
X107070000Y-63836000D01*
X106370000Y-143036000D02*
X186430000Y-143036000D01*
X189520000Y-66636000D02*
X189530000Y-139936000D01*
X186920000Y-54236000D02*
X186920000Y-64036000D01*
X103270000Y-66836000D02*
G75*
G02*
X104770000Y-65336000I1500000J0D01*
G01*
X107070000Y-63836000D02*
G75*
G02*
X105570000Y-65336000I-1500000J0D01*
G01*
X188220000Y-65336000D02*
G75*
G02*
X189520000Y-66636000I0J-1300000D01*
G01*
X188220000Y-65336000D02*
G75*
G02*
X186920000Y-64036000I0J1300000D01*
G01*
X189530000Y-139936000D02*
G75*
G02*
X186430000Y-143036000I-3100000J0D01*
G01*
X106370000Y-143036000D02*
G75*
G02*
X103270000Y-139936000I0J3100000D01*
G01*
X183820000Y-51136000D02*
X110170000Y-51136000D01*
X183820000Y-51136000D02*
G75*
G02*
X186920000Y-54236000I0J-3100000D01*
G01*
X107070000Y-54236000D02*
G75*
G02*
X110170000Y-51136000I3100000J0D01*
G01*
X179530000Y-128040000D02*
G75*
G02*
X174530000Y-133040000I-5000000J0D01*
G01*
X118270000Y-133040000D02*
G75*
G02*
X113270000Y-128040000I0J5000000D01*
G01*
X174530000Y-100400000D02*
G75*
G02*
X179530000Y-105400000I0J-5000000D01*
G01*
X113270000Y-105400000D02*
G75*
G02*
X118270000Y-100400000I5000000J0D01*
G01*
M02*
