G04 #@! TF.GenerationSoftware,KiCad,Pcbnew,7.0.9-1.fc38*
G04 #@! TF.CreationDate,2023-11-17T02:46:57-03:00*
G04 #@! TF.ProjectId,pc104-adapter-bottom,70633130-342d-4616-9461-707465722d62,v2.1*
G04 #@! TF.SameCoordinates,Original*
G04 #@! TF.FileFunction,Copper,L4,Bot*
G04 #@! TF.FilePolarity,Positive*
%FSLAX46Y46*%
G04 Gerber Fmt 4.6, Leading zero omitted, Abs format (unit mm)*
G04 Created by KiCad (PCBNEW 7.0.9-1.fc38) date 2023-11-17 02:46:57*
%MOMM*%
%LPD*%
G01*
G04 APERTURE LIST*
G04 #@! TA.AperFunction,ComponentPad*
%ADD10C,5.500000*%
G04 #@! TD*
G04 #@! TA.AperFunction,ComponentPad*
%ADD11C,1.620000*%
G04 #@! TD*
G04 #@! TA.AperFunction,ViaPad*
%ADD12C,0.800000*%
G04 #@! TD*
G04 #@! TA.AperFunction,Conductor*
%ADD13C,0.250000*%
G04 #@! TD*
G04 APERTURE END LIST*
D10*
X110150000Y-54234000D03*
X183840000Y-54236000D03*
D11*
X115250000Y-56776000D03*
X115250000Y-54236000D03*
X117790000Y-56776000D03*
X117790000Y-54236000D03*
X120330000Y-56776000D03*
X120330000Y-54236000D03*
X122870000Y-56776000D03*
X122870000Y-54236000D03*
X125410000Y-56776000D03*
X125410000Y-54236000D03*
X127950000Y-56776000D03*
X127950000Y-54236000D03*
X130490000Y-56776000D03*
X130490000Y-54236000D03*
X133030000Y-56776000D03*
X133030000Y-54236000D03*
X135570000Y-56776000D03*
X135570000Y-54236000D03*
X138110000Y-56776000D03*
X138110000Y-54236000D03*
X140650000Y-56776000D03*
X140650000Y-54236000D03*
X143190000Y-56776000D03*
X143190000Y-54236000D03*
X145730000Y-56776000D03*
X145730000Y-54236000D03*
X148270000Y-56776000D03*
X148270000Y-54236000D03*
X150810000Y-56776000D03*
X150810000Y-54236000D03*
X153350000Y-56776000D03*
X153350000Y-54236000D03*
X155890000Y-56776000D03*
X155890000Y-54236000D03*
X158430000Y-56776000D03*
X158430000Y-54236000D03*
X160970000Y-56776000D03*
X160970000Y-54236000D03*
X163510000Y-56776000D03*
X163510000Y-54236000D03*
X166050000Y-56776000D03*
X166050000Y-54236000D03*
X168590000Y-56776000D03*
X168590000Y-54236000D03*
X171130000Y-56776000D03*
X171130000Y-54236000D03*
X173670000Y-56776000D03*
X173670000Y-54236000D03*
X176210000Y-56776000D03*
X176210000Y-54236000D03*
X178750000Y-56776000D03*
X178750000Y-54236000D03*
X115250000Y-61856000D03*
X115250000Y-59316000D03*
X117790000Y-61856000D03*
X117790000Y-59316000D03*
X120330000Y-61856000D03*
X120330000Y-59316000D03*
X122870000Y-61856000D03*
X122870000Y-59316000D03*
X125410000Y-61856000D03*
X125410000Y-59316000D03*
X127950000Y-61856000D03*
X127950000Y-59316000D03*
X130490000Y-61856000D03*
X130490000Y-59316000D03*
X133030000Y-61856000D03*
X133030000Y-59316000D03*
X135570000Y-61856000D03*
X135570000Y-59316000D03*
X138110000Y-61856000D03*
X138110000Y-59316000D03*
X140650000Y-61856000D03*
X140650000Y-59316000D03*
X143190000Y-61856000D03*
X143190000Y-59316000D03*
X145730000Y-61856000D03*
X145730000Y-59316000D03*
X148270000Y-61856000D03*
X148270000Y-59316000D03*
X150810000Y-61856000D03*
X150810000Y-59316000D03*
X153350000Y-61856000D03*
X153350000Y-59316000D03*
X155890000Y-61856000D03*
X155890000Y-59316000D03*
X158430000Y-61856000D03*
X158430000Y-59316000D03*
X160970000Y-61856000D03*
X160970000Y-59316000D03*
X163510000Y-61856000D03*
X163510000Y-59316000D03*
X166050000Y-61856000D03*
X166050000Y-59316000D03*
X168590000Y-61856000D03*
X168590000Y-59316000D03*
X171130000Y-61856000D03*
X171130000Y-59316000D03*
X173670000Y-61856000D03*
X173670000Y-59316000D03*
X176210000Y-61856000D03*
X176210000Y-59316000D03*
X178750000Y-61856000D03*
X178750000Y-59316000D03*
D10*
X106450000Y-139936000D03*
X186450000Y-139936000D03*
D12*
X105300000Y-97000000D03*
X187300000Y-97000000D03*
X124703500Y-84477500D03*
X123174400Y-86552800D03*
X123455300Y-66611700D03*
X123218700Y-82209300D03*
X120326900Y-78344800D03*
X120663000Y-79758000D03*
X123204600Y-79668300D03*
X123350200Y-67831500D03*
X120679100Y-76940700D03*
X120630600Y-74519500D03*
X122269500Y-68349700D03*
X144245500Y-87315600D03*
X141722400Y-86679700D03*
X145643600Y-63691300D03*
X144485100Y-68885000D03*
X141611600Y-82068800D03*
X139021400Y-73728800D03*
X143960200Y-73086100D03*
X140851600Y-76999400D03*
X139963900Y-76332500D03*
X142188600Y-70721400D03*
X142984000Y-73561300D03*
X161695400Y-66650400D03*
X159762600Y-64700800D03*
X159003100Y-64018500D03*
X159628200Y-80152200D03*
X157557400Y-67273300D03*
X160263700Y-84600000D03*
X162795400Y-84831600D03*
X156766800Y-68102100D03*
X160273100Y-87945400D03*
X160271400Y-89600000D03*
X175181100Y-74090600D03*
X176182900Y-74114600D03*
X173746900Y-75628900D03*
X173342300Y-78247000D03*
X170667300Y-79443800D03*
X171472700Y-71279200D03*
X169038800Y-65355100D03*
X170791600Y-84760400D03*
X169774600Y-85001300D03*
X112684100Y-88553000D03*
X110148200Y-87272500D03*
X110138600Y-85992800D03*
X113432200Y-84071800D03*
X133714000Y-88585500D03*
X133728900Y-87303500D03*
X142191000Y-67910800D03*
X151008000Y-73584900D03*
X151595500Y-72751100D03*
X154506900Y-75548800D03*
X152761900Y-76793600D03*
X153776900Y-77049000D03*
X152472300Y-69302800D03*
X183861500Y-81061000D03*
X181303800Y-82046600D03*
X181320500Y-83569800D03*
X181304600Y-85051800D03*
X181328100Y-86134400D03*
X181325400Y-87415500D03*
X180294200Y-87462400D03*
D13*
X121465400Y-57911400D02*
X120330000Y-56776000D01*
X123204600Y-79668300D02*
X121465400Y-77929100D01*
X121465400Y-77929100D02*
X121465400Y-57911400D01*
X116654600Y-70543500D02*
X120630600Y-74519500D01*
X116654600Y-55640600D02*
X116654600Y-70543500D01*
X115250000Y-54236000D02*
X116654600Y-55640600D01*
X163510000Y-56776000D02*
X162182700Y-58103300D01*
X162182700Y-66163100D02*
X161695400Y-66650400D01*
X162182700Y-58103300D02*
X162182700Y-66163100D01*
X159762600Y-64700800D02*
X159762600Y-55568600D01*
X159762600Y-55568600D02*
X158430000Y-54236000D01*
X157294600Y-58180600D02*
X155890000Y-56776000D01*
X157294600Y-65259400D02*
X157294600Y-58180600D01*
X159628200Y-67593000D02*
X157294600Y-65259400D01*
X159628200Y-80152200D02*
X159628200Y-67593000D01*
X174543200Y-77046100D02*
X173342300Y-78247000D01*
X174455800Y-74391000D02*
X174543200Y-74478400D01*
X174805400Y-58180600D02*
X174805400Y-73440600D01*
X174455800Y-73790200D02*
X174455800Y-74391000D01*
X174543200Y-74478400D02*
X174543200Y-77046100D01*
X174805400Y-73440600D02*
X174455800Y-73790200D01*
X176210000Y-56776000D02*
X174805400Y-58180600D01*
X170667300Y-79443800D02*
X172301100Y-77810000D01*
X172301100Y-77810000D02*
X172301100Y-58144900D01*
X172301100Y-58144900D02*
X173670000Y-56776000D01*
G04 #@! TA.AperFunction,Conductor*
G36*
X182161651Y-51231502D02*
G01*
X182208144Y-51285158D01*
X182218248Y-51355432D01*
X182188754Y-51420012D01*
X182158490Y-51445464D01*
X182008969Y-51535427D01*
X181727715Y-51749231D01*
X181727709Y-51749237D01*
X181719870Y-51756661D01*
X182899204Y-52935995D01*
X182896635Y-52937570D01*
X182705130Y-53101130D01*
X182541570Y-53292635D01*
X182539995Y-53295204D01*
X181363641Y-52118850D01*
X181242517Y-52261449D01*
X181044258Y-52553859D01*
X181044256Y-52553863D01*
X180878776Y-52865994D01*
X180878772Y-52866003D01*
X180748010Y-53194188D01*
X180748009Y-53194191D01*
X180653496Y-53534598D01*
X180653496Y-53534601D01*
X180596342Y-53883230D01*
X180577215Y-54235997D01*
X180577215Y-54236002D01*
X180596342Y-54588769D01*
X180653496Y-54937398D01*
X180653496Y-54937401D01*
X180748009Y-55277808D01*
X180748010Y-55277811D01*
X180878772Y-55605996D01*
X180878776Y-55606005D01*
X181044256Y-55918136D01*
X181044258Y-55918140D01*
X181242518Y-56210551D01*
X181242517Y-56210551D01*
X181363640Y-56353148D01*
X182539994Y-55176794D01*
X182541570Y-55179365D01*
X182705130Y-55370870D01*
X182896635Y-55534430D01*
X182899203Y-55536004D01*
X181719870Y-56715337D01*
X181727713Y-56722766D01*
X181727719Y-56722771D01*
X182008969Y-56936572D01*
X182311678Y-57118706D01*
X182632316Y-57267049D01*
X182632320Y-57267051D01*
X182967103Y-57379852D01*
X182967117Y-57379856D01*
X183312127Y-57455800D01*
X183312151Y-57455804D01*
X183663348Y-57493999D01*
X183663364Y-57494000D01*
X184016636Y-57494000D01*
X184016651Y-57493999D01*
X184367848Y-57455804D01*
X184367872Y-57455800D01*
X184712882Y-57379856D01*
X184712896Y-57379852D01*
X185047679Y-57267051D01*
X185047683Y-57267049D01*
X185368321Y-57118706D01*
X185671030Y-56936572D01*
X185952276Y-56722774D01*
X185952282Y-56722769D01*
X185960127Y-56715338D01*
X185960127Y-56715336D01*
X184780795Y-55536004D01*
X184783365Y-55534430D01*
X184974870Y-55370870D01*
X185138430Y-55179365D01*
X185140004Y-55176795D01*
X186316357Y-56353148D01*
X186437482Y-56210551D01*
X186569711Y-56015527D01*
X186624495Y-55970369D01*
X186694996Y-55961998D01*
X186758831Y-55993071D01*
X186795733Y-56053724D01*
X186800000Y-56086236D01*
X186800000Y-64100002D01*
X186868144Y-64304435D01*
X186873058Y-64324566D01*
X186878368Y-64358088D01*
X186878371Y-64358103D01*
X186944002Y-64560094D01*
X186945274Y-64564009D01*
X187038551Y-64747074D01*
X187040912Y-64752281D01*
X187099999Y-64899999D01*
X187100000Y-64900000D01*
X187291033Y-65052826D01*
X187296213Y-65057463D01*
X187323922Y-65085172D01*
X187404922Y-65144022D01*
X187407188Y-65145750D01*
X187600000Y-65300000D01*
X187711831Y-65318638D01*
X187730034Y-65323086D01*
X187897903Y-65377630D01*
X188111746Y-65411500D01*
X188192520Y-65411500D01*
X188577857Y-65411500D01*
X188660000Y-65414000D01*
X189459283Y-65414000D01*
X189464228Y-65414194D01*
X189483814Y-65415735D01*
X189611677Y-65425798D01*
X189631186Y-65428888D01*
X189798755Y-65469117D01*
X189817544Y-65475222D01*
X189976753Y-65541169D01*
X189994366Y-65550144D01*
X190141288Y-65640178D01*
X190157284Y-65651800D01*
X190288311Y-65763708D01*
X190302291Y-65777688D01*
X190414199Y-65908715D01*
X190425821Y-65924711D01*
X190497931Y-66042384D01*
X190500559Y-66047119D01*
X190514374Y-66074748D01*
X190539316Y-66124633D01*
X190541171Y-66128699D01*
X190590772Y-66248442D01*
X190596882Y-66267247D01*
X190637109Y-66434803D01*
X190640202Y-66454331D01*
X190654306Y-66633537D01*
X190654500Y-66638482D01*
X190654500Y-96874000D01*
X190634498Y-96942121D01*
X190580842Y-96988614D01*
X190528500Y-97000000D01*
X103471500Y-97000000D01*
X103403379Y-96979998D01*
X103356886Y-96926342D01*
X103345500Y-96874000D01*
X103345500Y-89600000D01*
X159357896Y-89600000D01*
X159377857Y-89789927D01*
X159407926Y-89882470D01*
X159436873Y-89971556D01*
X159436876Y-89971561D01*
X159532358Y-90136941D01*
X159532365Y-90136951D01*
X159660144Y-90278864D01*
X159660147Y-90278866D01*
X159814648Y-90391118D01*
X159989112Y-90468794D01*
X160175913Y-90508500D01*
X160366887Y-90508500D01*
X160553688Y-90468794D01*
X160728152Y-90391118D01*
X160882653Y-90278866D01*
X161010440Y-90136944D01*
X161105927Y-89971556D01*
X161164942Y-89789928D01*
X161184904Y-89600000D01*
X161164942Y-89410072D01*
X161105927Y-89228444D01*
X161010440Y-89063056D01*
X161010438Y-89063054D01*
X161010434Y-89063048D01*
X160882655Y-88921135D01*
X160819504Y-88875253D01*
X160776150Y-88819030D01*
X160770075Y-88748294D01*
X160803207Y-88685503D01*
X160819497Y-88671386D01*
X160884353Y-88624266D01*
X161012140Y-88482344D01*
X161107627Y-88316956D01*
X161166642Y-88135328D01*
X161186604Y-87945400D01*
X161166642Y-87755472D01*
X161107627Y-87573844D01*
X161043285Y-87462400D01*
X179380696Y-87462400D01*
X179400657Y-87652327D01*
X179411974Y-87687156D01*
X179459673Y-87833956D01*
X179470041Y-87851914D01*
X179555158Y-87999341D01*
X179555165Y-87999351D01*
X179682944Y-88141264D01*
X179737636Y-88181000D01*
X179837448Y-88253518D01*
X180011912Y-88331194D01*
X180198713Y-88370900D01*
X180389687Y-88370900D01*
X180576488Y-88331194D01*
X180750952Y-88253518D01*
X180776844Y-88234705D01*
X180843708Y-88210848D01*
X180902151Y-88221534D01*
X181043112Y-88284294D01*
X181229913Y-88324000D01*
X181420887Y-88324000D01*
X181607688Y-88284294D01*
X181782152Y-88206618D01*
X181936653Y-88094366D01*
X181964339Y-88063618D01*
X182064434Y-87952451D01*
X182064435Y-87952449D01*
X182064440Y-87952444D01*
X182159927Y-87787056D01*
X182218942Y-87605428D01*
X182238904Y-87415500D01*
X182218942Y-87225572D01*
X182159927Y-87043944D01*
X182064440Y-86878556D01*
X182048415Y-86860759D01*
X182017699Y-86796753D01*
X182026462Y-86726299D01*
X182048415Y-86692139D01*
X182067140Y-86671344D01*
X182162627Y-86505956D01*
X182221642Y-86324328D01*
X182241604Y-86134400D01*
X182221642Y-85944472D01*
X182162627Y-85762844D01*
X182114892Y-85680164D01*
X182089248Y-85635747D01*
X182072510Y-85566751D01*
X182089248Y-85509747D01*
X182139127Y-85423356D01*
X182198142Y-85241728D01*
X182218104Y-85051800D01*
X182198142Y-84861872D01*
X182139127Y-84680244D01*
X182043640Y-84514856D01*
X182043638Y-84514854D01*
X182043634Y-84514848D01*
X181943771Y-84403939D01*
X181913053Y-84339932D01*
X181921818Y-84269478D01*
X181943769Y-84235320D01*
X182059540Y-84106744D01*
X182155027Y-83941356D01*
X182214042Y-83759728D01*
X182234004Y-83569800D01*
X182214042Y-83379872D01*
X182155027Y-83198244D01*
X182059540Y-83032856D01*
X182059538Y-83032854D01*
X182059534Y-83032848D01*
X181927335Y-82886026D01*
X181928844Y-82884666D01*
X181896650Y-82832423D01*
X181897993Y-82761439D01*
X181924560Y-82714908D01*
X182042834Y-82583551D01*
X182042835Y-82583549D01*
X182042840Y-82583544D01*
X182138327Y-82418156D01*
X182197342Y-82236528D01*
X182217304Y-82046600D01*
X182197342Y-81856672D01*
X182138327Y-81675044D01*
X182042840Y-81509656D01*
X182042838Y-81509654D01*
X182042834Y-81509648D01*
X181915055Y-81367735D01*
X181760552Y-81255482D01*
X181586088Y-81177806D01*
X181399287Y-81138100D01*
X181208313Y-81138100D01*
X181021511Y-81177806D01*
X180847047Y-81255482D01*
X180692544Y-81367735D01*
X180564765Y-81509648D01*
X180564758Y-81509658D01*
X180469276Y-81675038D01*
X180469273Y-81675044D01*
X180454799Y-81719586D01*
X180410257Y-81856672D01*
X180390296Y-82046600D01*
X180410257Y-82236527D01*
X180417471Y-82258728D01*
X180469273Y-82418156D01*
X180469276Y-82418161D01*
X180564758Y-82583541D01*
X180564765Y-82583551D01*
X180696965Y-82730374D01*
X180695454Y-82731734D01*
X180727648Y-82783973D01*
X180726307Y-82854957D01*
X180699740Y-82901491D01*
X180581461Y-83032854D01*
X180581458Y-83032858D01*
X180485976Y-83198238D01*
X180485973Y-83198245D01*
X180426957Y-83379872D01*
X180406996Y-83569800D01*
X180426957Y-83759727D01*
X180442929Y-83808882D01*
X180485973Y-83941356D01*
X180485976Y-83941361D01*
X180581458Y-84106741D01*
X180581461Y-84106745D01*
X180681329Y-84217661D01*
X180712046Y-84281669D01*
X180703281Y-84352122D01*
X180681329Y-84386281D01*
X180565561Y-84514854D01*
X180565558Y-84514858D01*
X180470076Y-84680238D01*
X180470073Y-84680245D01*
X180411057Y-84861872D01*
X180391096Y-85051800D01*
X180411057Y-85241727D01*
X180419795Y-85268618D01*
X180470073Y-85423356D01*
X180470075Y-85423359D01*
X180470076Y-85423361D01*
X180543451Y-85550451D01*
X180560189Y-85619446D01*
X180543452Y-85676450D01*
X180493574Y-85762841D01*
X180434557Y-85944472D01*
X180414596Y-86134400D01*
X180434557Y-86324328D01*
X180455559Y-86388964D01*
X180457587Y-86459932D01*
X180420924Y-86520729D01*
X180357212Y-86552055D01*
X180335726Y-86553900D01*
X180198713Y-86553900D01*
X180011911Y-86593606D01*
X179837447Y-86671282D01*
X179682944Y-86783535D01*
X179555165Y-86925448D01*
X179555158Y-86925458D01*
X179459676Y-87090838D01*
X179459673Y-87090845D01*
X179400657Y-87272472D01*
X179380696Y-87462400D01*
X161043285Y-87462400D01*
X161012140Y-87408456D01*
X161012138Y-87408454D01*
X161012134Y-87408448D01*
X160884355Y-87266535D01*
X160729852Y-87154282D01*
X160555388Y-87076606D01*
X160368587Y-87036900D01*
X160177613Y-87036900D01*
X159990811Y-87076606D01*
X159816347Y-87154282D01*
X159661844Y-87266535D01*
X159534065Y-87408448D01*
X159534058Y-87408458D01*
X159438576Y-87573838D01*
X159438573Y-87573844D01*
X159428311Y-87605427D01*
X159379557Y-87755472D01*
X159359596Y-87945400D01*
X159379557Y-88135327D01*
X159402721Y-88206617D01*
X159438573Y-88316956D01*
X159438576Y-88316961D01*
X159534058Y-88482341D01*
X159534065Y-88482351D01*
X159661844Y-88624264D01*
X159724995Y-88670146D01*
X159768349Y-88726368D01*
X159774424Y-88797105D01*
X159741293Y-88859896D01*
X159724996Y-88874017D01*
X159660145Y-88921134D01*
X159660144Y-88921135D01*
X159532365Y-89063048D01*
X159532358Y-89063058D01*
X159436876Y-89228438D01*
X159436873Y-89228445D01*
X159377857Y-89410072D01*
X159357896Y-89600000D01*
X103345500Y-89600000D01*
X103345500Y-88553000D01*
X111770596Y-88553000D01*
X111790557Y-88742927D01*
X111801118Y-88775428D01*
X111849573Y-88924556D01*
X111849576Y-88924561D01*
X111945058Y-89089941D01*
X111945065Y-89089951D01*
X112072844Y-89231864D01*
X112072847Y-89231866D01*
X112227348Y-89344118D01*
X112401812Y-89421794D01*
X112588613Y-89461500D01*
X112779587Y-89461500D01*
X112966388Y-89421794D01*
X113140852Y-89344118D01*
X113295353Y-89231866D01*
X113423140Y-89089944D01*
X113518627Y-88924556D01*
X113577642Y-88742928D01*
X113594188Y-88585500D01*
X132800496Y-88585500D01*
X132820457Y-88775427D01*
X132850526Y-88867970D01*
X132879473Y-88957056D01*
X132879476Y-88957061D01*
X132974958Y-89122441D01*
X132974965Y-89122451D01*
X133102744Y-89264364D01*
X133102747Y-89264366D01*
X133257248Y-89376618D01*
X133431712Y-89454294D01*
X133618513Y-89494000D01*
X133809487Y-89494000D01*
X133996288Y-89454294D01*
X134170752Y-89376618D01*
X134325253Y-89264366D01*
X134354518Y-89231864D01*
X134453034Y-89122451D01*
X134453035Y-89122449D01*
X134453040Y-89122444D01*
X134548527Y-88957056D01*
X134607542Y-88775428D01*
X134627504Y-88585500D01*
X134607542Y-88395572D01*
X134548527Y-88213944D01*
X134453040Y-88048556D01*
X134453038Y-88048554D01*
X134453034Y-88048548D01*
X134442712Y-88037085D01*
X134411994Y-87973078D01*
X134420757Y-87902624D01*
X134442711Y-87868463D01*
X134467940Y-87840444D01*
X134563427Y-87675056D01*
X134622442Y-87493428D01*
X134642404Y-87303500D01*
X134622442Y-87113572D01*
X134563427Y-86931944D01*
X134467940Y-86766556D01*
X134467938Y-86766554D01*
X134467934Y-86766548D01*
X134389736Y-86679700D01*
X140808896Y-86679700D01*
X140828857Y-86869627D01*
X140846998Y-86925458D01*
X140887873Y-87051256D01*
X140887876Y-87051261D01*
X140983358Y-87216641D01*
X140983365Y-87216651D01*
X141111144Y-87358564D01*
X141111147Y-87358566D01*
X141265648Y-87470818D01*
X141440112Y-87548494D01*
X141626913Y-87588200D01*
X141817887Y-87588200D01*
X142004688Y-87548494D01*
X142179152Y-87470818D01*
X142333653Y-87358566D01*
X142372340Y-87315600D01*
X143331996Y-87315600D01*
X143351957Y-87505527D01*
X143374153Y-87573838D01*
X143410973Y-87687156D01*
X143410976Y-87687161D01*
X143506458Y-87852541D01*
X143506465Y-87852551D01*
X143634244Y-87994464D01*
X143663952Y-88016048D01*
X143788748Y-88106718D01*
X143963212Y-88184394D01*
X144150013Y-88224100D01*
X144340987Y-88224100D01*
X144527788Y-88184394D01*
X144702252Y-88106718D01*
X144856753Y-87994466D01*
X144894293Y-87952774D01*
X144984534Y-87852551D01*
X144984535Y-87852549D01*
X144984540Y-87852544D01*
X145080027Y-87687156D01*
X145139042Y-87505528D01*
X145159004Y-87315600D01*
X145139042Y-87125672D01*
X145080027Y-86944044D01*
X144984540Y-86778656D01*
X144984538Y-86778654D01*
X144984534Y-86778648D01*
X144856755Y-86636735D01*
X144702252Y-86524482D01*
X144527788Y-86446806D01*
X144340987Y-86407100D01*
X144150013Y-86407100D01*
X143963211Y-86446806D01*
X143788747Y-86524482D01*
X143634244Y-86636735D01*
X143506465Y-86778648D01*
X143506458Y-86778658D01*
X143410976Y-86944038D01*
X143410973Y-86944045D01*
X143351957Y-87125672D01*
X143331996Y-87315600D01*
X142372340Y-87315600D01*
X142411147Y-87272500D01*
X142461434Y-87216651D01*
X142461435Y-87216649D01*
X142461440Y-87216644D01*
X142556927Y-87051256D01*
X142615942Y-86869628D01*
X142635904Y-86679700D01*
X142615942Y-86489772D01*
X142556927Y-86308144D01*
X142461440Y-86142756D01*
X142461438Y-86142754D01*
X142461434Y-86142748D01*
X142333655Y-86000835D01*
X142179152Y-85888582D01*
X142004688Y-85810906D01*
X141817887Y-85771200D01*
X141626913Y-85771200D01*
X141440111Y-85810906D01*
X141265647Y-85888582D01*
X141111144Y-86000835D01*
X140983365Y-86142748D01*
X140983358Y-86142758D01*
X140887876Y-86308138D01*
X140887873Y-86308144D01*
X140873399Y-86352686D01*
X140828857Y-86489772D01*
X140808896Y-86679700D01*
X134389736Y-86679700D01*
X134340155Y-86624635D01*
X134185652Y-86512382D01*
X134011188Y-86434706D01*
X133824387Y-86395000D01*
X133633413Y-86395000D01*
X133446611Y-86434706D01*
X133272147Y-86512382D01*
X133117644Y-86624635D01*
X132989865Y-86766548D01*
X132989858Y-86766558D01*
X132894376Y-86931938D01*
X132894373Y-86931944D01*
X132890441Y-86944045D01*
X132835357Y-87113572D01*
X132815396Y-87303500D01*
X132835357Y-87493427D01*
X132853250Y-87548493D01*
X132894373Y-87675056D01*
X132894376Y-87675061D01*
X132989858Y-87840441D01*
X132989861Y-87840445D01*
X133000188Y-87851914D01*
X133030905Y-87915921D01*
X133022142Y-87986375D01*
X133000190Y-88020533D01*
X132974960Y-88048555D01*
X132974958Y-88048557D01*
X132879476Y-88213938D01*
X132879473Y-88213945D01*
X132820457Y-88395572D01*
X132800496Y-88585500D01*
X113594188Y-88585500D01*
X113597604Y-88553000D01*
X113577642Y-88363072D01*
X113518627Y-88181444D01*
X113423140Y-88016056D01*
X113423138Y-88016054D01*
X113423134Y-88016048D01*
X113295355Y-87874135D01*
X113140852Y-87761882D01*
X112966388Y-87684206D01*
X112779587Y-87644500D01*
X112588613Y-87644500D01*
X112401811Y-87684206D01*
X112227347Y-87761882D01*
X112072844Y-87874135D01*
X111945065Y-88016048D01*
X111945058Y-88016058D01*
X111849829Y-88181000D01*
X111849573Y-88181444D01*
X111840019Y-88210848D01*
X111790557Y-88363072D01*
X111770596Y-88553000D01*
X103345500Y-88553000D01*
X103345500Y-85992800D01*
X109225096Y-85992800D01*
X109245057Y-86182727D01*
X109275126Y-86275270D01*
X109304073Y-86364356D01*
X109321765Y-86395000D01*
X109399558Y-86529741D01*
X109399561Y-86529745D01*
X109421104Y-86553671D01*
X109451821Y-86617679D01*
X109443056Y-86688132D01*
X109421106Y-86722288D01*
X109409159Y-86735556D01*
X109409158Y-86735558D01*
X109313676Y-86900938D01*
X109313673Y-86900944D01*
X109303600Y-86931945D01*
X109254657Y-87082572D01*
X109234696Y-87272500D01*
X109254657Y-87462427D01*
X109268662Y-87505528D01*
X109313673Y-87644056D01*
X109313676Y-87644061D01*
X109409158Y-87809441D01*
X109409165Y-87809451D01*
X109536944Y-87951364D01*
X109538440Y-87952451D01*
X109691448Y-88063618D01*
X109865912Y-88141294D01*
X110052713Y-88181000D01*
X110243687Y-88181000D01*
X110430488Y-88141294D01*
X110604952Y-88063618D01*
X110759453Y-87951366D01*
X110791368Y-87915921D01*
X110887234Y-87809451D01*
X110887235Y-87809449D01*
X110887240Y-87809444D01*
X110982727Y-87644056D01*
X111041742Y-87462428D01*
X111061704Y-87272500D01*
X111041742Y-87082572D01*
X110982727Y-86900944D01*
X110887240Y-86735556D01*
X110865696Y-86711629D01*
X110834979Y-86647624D01*
X110843742Y-86577170D01*
X110859403Y-86552800D01*
X122260896Y-86552800D01*
X122280857Y-86742727D01*
X122294117Y-86783535D01*
X122339873Y-86924356D01*
X122368241Y-86973491D01*
X122435358Y-87089741D01*
X122435365Y-87089751D01*
X122563144Y-87231664D01*
X122563147Y-87231666D01*
X122717648Y-87343918D01*
X122892112Y-87421594D01*
X123078913Y-87461300D01*
X123269887Y-87461300D01*
X123456688Y-87421594D01*
X123631152Y-87343918D01*
X123785653Y-87231666D01*
X123855330Y-87154282D01*
X123913434Y-87089751D01*
X123913435Y-87089749D01*
X123913440Y-87089744D01*
X124008927Y-86924356D01*
X124067942Y-86742728D01*
X124087904Y-86552800D01*
X124067942Y-86362872D01*
X124008927Y-86181244D01*
X123913440Y-86015856D01*
X123913438Y-86015854D01*
X123913434Y-86015848D01*
X123785655Y-85873935D01*
X123631152Y-85761682D01*
X123456688Y-85684006D01*
X123269887Y-85644300D01*
X123078913Y-85644300D01*
X122892111Y-85684006D01*
X122717647Y-85761682D01*
X122563144Y-85873935D01*
X122435365Y-86015848D01*
X122435358Y-86015858D01*
X122339876Y-86181238D01*
X122339873Y-86181245D01*
X122280857Y-86362872D01*
X122260896Y-86552800D01*
X110859403Y-86552800D01*
X110865695Y-86543009D01*
X110877640Y-86529744D01*
X110973127Y-86364356D01*
X111032142Y-86182728D01*
X111052104Y-85992800D01*
X111032142Y-85802872D01*
X110973127Y-85621244D01*
X110877640Y-85455856D01*
X110877638Y-85455854D01*
X110877634Y-85455848D01*
X110749855Y-85313935D01*
X110595352Y-85201682D01*
X110420888Y-85124006D01*
X110234087Y-85084300D01*
X110043113Y-85084300D01*
X109856311Y-85124006D01*
X109681847Y-85201682D01*
X109527344Y-85313935D01*
X109399565Y-85455848D01*
X109399558Y-85455858D01*
X109305111Y-85619446D01*
X109304073Y-85621244D01*
X109299361Y-85635747D01*
X109245057Y-85802872D01*
X109225096Y-85992800D01*
X103345500Y-85992800D01*
X103345500Y-84071800D01*
X112518696Y-84071800D01*
X112538657Y-84261727D01*
X112556479Y-84316576D01*
X112597673Y-84443356D01*
X112597676Y-84443361D01*
X112693158Y-84608741D01*
X112693165Y-84608751D01*
X112820944Y-84750664D01*
X112874985Y-84789927D01*
X112975448Y-84862918D01*
X113149912Y-84940594D01*
X113336713Y-84980300D01*
X113527687Y-84980300D01*
X113714488Y-84940594D01*
X113888952Y-84862918D01*
X114043453Y-84750666D01*
X114043455Y-84750664D01*
X114171234Y-84608751D01*
X114171235Y-84608749D01*
X114171240Y-84608744D01*
X114247014Y-84477500D01*
X123789996Y-84477500D01*
X123809957Y-84667427D01*
X123837003Y-84750664D01*
X123868973Y-84849056D01*
X123868976Y-84849061D01*
X123964458Y-85014441D01*
X123964465Y-85014451D01*
X124092244Y-85156364D01*
X124092247Y-85156366D01*
X124246748Y-85268618D01*
X124421212Y-85346294D01*
X124608013Y-85386000D01*
X124798987Y-85386000D01*
X124985788Y-85346294D01*
X125160252Y-85268618D01*
X125314753Y-85156366D01*
X125314755Y-85156364D01*
X125442534Y-85014451D01*
X125442535Y-85014449D01*
X125442540Y-85014444D01*
X125538027Y-84849056D01*
X125597042Y-84667428D01*
X125604129Y-84600000D01*
X159350196Y-84600000D01*
X159370157Y-84789927D01*
X159393534Y-84861872D01*
X159429173Y-84971556D01*
X159457541Y-85020691D01*
X159524658Y-85136941D01*
X159524665Y-85136951D01*
X159652444Y-85278864D01*
X159677880Y-85297344D01*
X159806948Y-85391118D01*
X159981412Y-85468794D01*
X160168213Y-85508500D01*
X160359187Y-85508500D01*
X160545988Y-85468794D01*
X160720452Y-85391118D01*
X160874953Y-85278866D01*
X160874955Y-85278864D01*
X161002734Y-85136951D01*
X161002735Y-85136949D01*
X161002740Y-85136944D01*
X161098227Y-84971556D01*
X161143702Y-84831600D01*
X161881896Y-84831600D01*
X161901857Y-85021527D01*
X161911694Y-85051800D01*
X161960873Y-85203156D01*
X161960876Y-85203161D01*
X162056358Y-85368541D01*
X162056365Y-85368551D01*
X162184144Y-85510464D01*
X162184147Y-85510466D01*
X162338648Y-85622718D01*
X162513112Y-85700394D01*
X162699913Y-85740100D01*
X162890887Y-85740100D01*
X163077688Y-85700394D01*
X163252152Y-85622718D01*
X163406653Y-85510466D01*
X163444175Y-85468794D01*
X163534434Y-85368551D01*
X163534435Y-85368549D01*
X163534440Y-85368544D01*
X163629927Y-85203156D01*
X163688942Y-85021528D01*
X163691068Y-85001300D01*
X168861096Y-85001300D01*
X168881057Y-85191227D01*
X168906203Y-85268617D01*
X168940073Y-85372856D01*
X168940076Y-85372861D01*
X169035558Y-85538241D01*
X169035565Y-85538251D01*
X169163344Y-85680164D01*
X169163347Y-85680166D01*
X169317848Y-85792418D01*
X169492312Y-85870094D01*
X169679113Y-85909800D01*
X169870087Y-85909800D01*
X170056888Y-85870094D01*
X170231352Y-85792418D01*
X170385853Y-85680166D01*
X170395530Y-85669418D01*
X170455974Y-85632178D01*
X170515362Y-85630480D01*
X170696113Y-85668900D01*
X170887087Y-85668900D01*
X171073888Y-85629194D01*
X171248352Y-85551518D01*
X171402853Y-85439266D01*
X171417176Y-85423359D01*
X171530634Y-85297351D01*
X171530635Y-85297349D01*
X171530640Y-85297344D01*
X171626127Y-85131956D01*
X171685142Y-84950328D01*
X171705104Y-84760400D01*
X171685142Y-84570472D01*
X171626127Y-84388844D01*
X171530640Y-84223456D01*
X171530638Y-84223454D01*
X171530634Y-84223448D01*
X171402855Y-84081535D01*
X171248352Y-83969282D01*
X171073888Y-83891606D01*
X170887087Y-83851900D01*
X170696113Y-83851900D01*
X170509311Y-83891606D01*
X170334847Y-83969282D01*
X170180349Y-84081532D01*
X170180345Y-84081535D01*
X170170664Y-84092287D01*
X170110217Y-84129524D01*
X170050835Y-84131219D01*
X169870087Y-84092800D01*
X169679113Y-84092800D01*
X169492311Y-84132506D01*
X169317847Y-84210182D01*
X169163344Y-84322435D01*
X169035565Y-84464348D01*
X169035558Y-84464358D01*
X168952199Y-84608741D01*
X168940073Y-84629744D01*
X168927829Y-84667427D01*
X168881057Y-84811372D01*
X168861096Y-85001300D01*
X163691068Y-85001300D01*
X163708904Y-84831600D01*
X163688942Y-84641672D01*
X163629927Y-84460044D01*
X163534440Y-84294656D01*
X163534438Y-84294654D01*
X163534434Y-84294648D01*
X163406655Y-84152735D01*
X163252152Y-84040482D01*
X163077688Y-83962806D01*
X162890887Y-83923100D01*
X162699913Y-83923100D01*
X162513111Y-83962806D01*
X162338647Y-84040482D01*
X162184144Y-84152735D01*
X162056365Y-84294648D01*
X162056358Y-84294658D01*
X161960876Y-84460038D01*
X161960873Y-84460044D01*
X161955201Y-84477500D01*
X161901857Y-84641672D01*
X161881896Y-84831600D01*
X161143702Y-84831600D01*
X161157242Y-84789928D01*
X161177204Y-84600000D01*
X161157242Y-84410072D01*
X161098227Y-84228444D01*
X161002740Y-84063056D01*
X161002738Y-84063054D01*
X161002734Y-84063048D01*
X160874955Y-83921135D01*
X160720452Y-83808882D01*
X160545988Y-83731206D01*
X160359187Y-83691500D01*
X160168213Y-83691500D01*
X159981411Y-83731206D01*
X159806947Y-83808882D01*
X159652444Y-83921135D01*
X159524665Y-84063048D01*
X159524658Y-84063058D01*
X159429176Y-84228438D01*
X159429173Y-84228444D01*
X159418359Y-84261727D01*
X159370157Y-84410072D01*
X159350196Y-84600000D01*
X125604129Y-84600000D01*
X125617004Y-84477500D01*
X125597042Y-84287572D01*
X125538027Y-84105944D01*
X125442540Y-83940556D01*
X125442538Y-83940554D01*
X125442534Y-83940548D01*
X125314755Y-83798635D01*
X125160252Y-83686382D01*
X124985788Y-83608706D01*
X124798987Y-83569000D01*
X124608013Y-83569000D01*
X124421211Y-83608706D01*
X124246747Y-83686382D01*
X124092244Y-83798635D01*
X123964465Y-83940548D01*
X123964458Y-83940558D01*
X123868976Y-84105938D01*
X123868973Y-84105944D01*
X123854499Y-84150486D01*
X123809957Y-84287572D01*
X123789996Y-84477500D01*
X114247014Y-84477500D01*
X114266727Y-84443356D01*
X114325742Y-84261728D01*
X114345704Y-84071800D01*
X114325742Y-83881872D01*
X114266727Y-83700244D01*
X114171240Y-83534856D01*
X114171238Y-83534854D01*
X114171234Y-83534848D01*
X114043455Y-83392935D01*
X113888952Y-83280682D01*
X113714488Y-83203006D01*
X113527687Y-83163300D01*
X113336713Y-83163300D01*
X113149911Y-83203006D01*
X112975447Y-83280682D01*
X112820944Y-83392935D01*
X112693165Y-83534848D01*
X112693158Y-83534858D01*
X112597676Y-83700238D01*
X112597673Y-83700245D01*
X112538657Y-83881872D01*
X112518696Y-84071800D01*
X103345500Y-84071800D01*
X103345500Y-82209300D01*
X122305196Y-82209300D01*
X122325157Y-82399227D01*
X122338521Y-82440356D01*
X122384173Y-82580856D01*
X122384176Y-82580861D01*
X122479658Y-82746241D01*
X122479665Y-82746251D01*
X122607444Y-82888164D01*
X122607447Y-82888166D01*
X122761948Y-83000418D01*
X122936412Y-83078094D01*
X123123213Y-83117800D01*
X123314187Y-83117800D01*
X123500988Y-83078094D01*
X123675452Y-83000418D01*
X123829953Y-82888166D01*
X123831880Y-82886026D01*
X123957734Y-82746251D01*
X123957735Y-82746249D01*
X123957740Y-82746244D01*
X124053227Y-82580856D01*
X124112242Y-82399228D01*
X124132204Y-82209300D01*
X124117437Y-82068800D01*
X140698096Y-82068800D01*
X140718057Y-82258727D01*
X140748126Y-82351270D01*
X140777073Y-82440356D01*
X140777076Y-82440361D01*
X140872558Y-82605741D01*
X140872565Y-82605751D01*
X141000344Y-82747664D01*
X141000347Y-82747666D01*
X141154848Y-82859918D01*
X141329312Y-82937594D01*
X141516113Y-82977300D01*
X141707087Y-82977300D01*
X141893888Y-82937594D01*
X142068352Y-82859918D01*
X142222853Y-82747666D01*
X142224127Y-82746251D01*
X142350634Y-82605751D01*
X142350635Y-82605749D01*
X142350640Y-82605744D01*
X142446127Y-82440356D01*
X142505142Y-82258728D01*
X142525104Y-82068800D01*
X142505142Y-81878872D01*
X142446127Y-81697244D01*
X142350640Y-81531856D01*
X142350638Y-81531854D01*
X142350634Y-81531848D01*
X142222855Y-81389935D01*
X142068352Y-81277682D01*
X141893888Y-81200006D01*
X141707087Y-81160300D01*
X141516113Y-81160300D01*
X141329311Y-81200006D01*
X141154847Y-81277682D01*
X141000344Y-81389935D01*
X140872565Y-81531848D01*
X140872558Y-81531858D01*
X140777076Y-81697238D01*
X140777073Y-81697245D01*
X140718057Y-81878872D01*
X140698096Y-82068800D01*
X124117437Y-82068800D01*
X124112242Y-82019372D01*
X124053227Y-81837744D01*
X123957740Y-81672356D01*
X123957738Y-81672354D01*
X123957734Y-81672348D01*
X123829955Y-81530435D01*
X123675452Y-81418182D01*
X123500988Y-81340506D01*
X123314187Y-81300800D01*
X123123213Y-81300800D01*
X122936411Y-81340506D01*
X122761947Y-81418182D01*
X122607444Y-81530435D01*
X122479665Y-81672348D01*
X122479658Y-81672358D01*
X122384176Y-81837738D01*
X122384173Y-81837745D01*
X122325157Y-82019372D01*
X122305196Y-82209300D01*
X103345500Y-82209300D01*
X103345500Y-81061000D01*
X182947996Y-81061000D01*
X182967957Y-81250927D01*
X182997064Y-81340506D01*
X183026973Y-81432556D01*
X183026976Y-81432561D01*
X183122458Y-81597941D01*
X183122465Y-81597951D01*
X183250244Y-81739864D01*
X183250247Y-81739866D01*
X183404748Y-81852118D01*
X183579212Y-81929794D01*
X183766013Y-81969500D01*
X183956987Y-81969500D01*
X184143788Y-81929794D01*
X184318252Y-81852118D01*
X184472753Y-81739866D01*
X184511130Y-81697244D01*
X184600534Y-81597951D01*
X184600535Y-81597949D01*
X184600540Y-81597944D01*
X184696027Y-81432556D01*
X184755042Y-81250928D01*
X184775004Y-81061000D01*
X184755042Y-80871072D01*
X184696027Y-80689444D01*
X184600540Y-80524056D01*
X184600538Y-80524054D01*
X184600534Y-80524048D01*
X184472755Y-80382135D01*
X184318252Y-80269882D01*
X184143788Y-80192206D01*
X183956987Y-80152500D01*
X183766013Y-80152500D01*
X183579211Y-80192206D01*
X183404747Y-80269882D01*
X183250244Y-80382135D01*
X183122465Y-80524048D01*
X183122458Y-80524058D01*
X183026976Y-80689438D01*
X183026973Y-80689445D01*
X182967957Y-80871072D01*
X182947996Y-81061000D01*
X103345500Y-81061000D01*
X103345500Y-66838482D01*
X103345694Y-66833537D01*
X103354368Y-66723318D01*
X103362064Y-66625525D01*
X103368139Y-66595580D01*
X103490595Y-66228213D01*
X103521031Y-66178968D01*
X104078968Y-65621031D01*
X104128213Y-65590595D01*
X104618602Y-65427132D01*
X104648540Y-65421059D01*
X104754343Y-65412732D01*
X104767537Y-65411694D01*
X104772481Y-65411500D01*
X105682684Y-65411500D01*
X105682684Y-65411499D01*
X105753742Y-65401282D01*
X105771674Y-65400000D01*
X105999999Y-65400000D01*
X106000000Y-65400000D01*
X106194832Y-65283100D01*
X106201065Y-65279820D01*
X106326985Y-65222315D01*
X106516573Y-65100474D01*
X106686892Y-64952892D01*
X106834474Y-64782573D01*
X106857813Y-64746256D01*
X106874704Y-64725295D01*
X107000000Y-64600000D01*
X107200000Y-64000000D01*
X107200000Y-61856000D01*
X113926464Y-61856000D01*
X113946571Y-62085830D01*
X114006283Y-62308676D01*
X114103784Y-62517768D01*
X114236113Y-62706753D01*
X114399247Y-62869887D01*
X114588232Y-63002216D01*
X114797324Y-63099717D01*
X115020170Y-63159429D01*
X115250000Y-63179536D01*
X115479830Y-63159429D01*
X115702676Y-63099717D01*
X115841850Y-63034818D01*
X115912042Y-63024158D01*
X115976854Y-63053138D01*
X116015711Y-63112558D01*
X116021100Y-63149014D01*
X116021100Y-70459646D01*
X116019351Y-70475488D01*
X116019644Y-70475516D01*
X116018898Y-70483407D01*
X116021100Y-70553457D01*
X116021100Y-70583351D01*
X116021101Y-70583372D01*
X116021978Y-70590320D01*
X116022444Y-70596232D01*
X116023926Y-70643388D01*
X116023927Y-70643393D01*
X116029577Y-70662839D01*
X116033586Y-70682197D01*
X116036125Y-70702293D01*
X116036126Y-70702299D01*
X116053493Y-70746162D01*
X116055416Y-70751779D01*
X116068582Y-70797093D01*
X116078894Y-70814531D01*
X116087588Y-70832279D01*
X116095044Y-70851109D01*
X116095050Y-70851120D01*
X116122777Y-70889283D01*
X116126037Y-70894246D01*
X116150060Y-70934865D01*
X116164379Y-70949184D01*
X116177217Y-70964214D01*
X116186756Y-70977343D01*
X116189128Y-70980607D01*
X116217394Y-71003991D01*
X116225486Y-71010685D01*
X116229867Y-71014671D01*
X118823079Y-73607884D01*
X119683477Y-74468282D01*
X119717503Y-74530594D01*
X119719692Y-74544206D01*
X119737057Y-74709427D01*
X119753524Y-74760106D01*
X119796073Y-74891056D01*
X119796076Y-74891061D01*
X119891558Y-75056441D01*
X119891565Y-75056451D01*
X120019344Y-75198364D01*
X120019347Y-75198366D01*
X120173848Y-75310618D01*
X120348312Y-75388294D01*
X120535113Y-75428000D01*
X120705900Y-75428000D01*
X120774021Y-75448002D01*
X120820514Y-75501658D01*
X120831900Y-75554000D01*
X120831900Y-75906200D01*
X120811898Y-75974321D01*
X120758242Y-76020814D01*
X120705900Y-76032200D01*
X120583613Y-76032200D01*
X120396811Y-76071906D01*
X120222347Y-76149582D01*
X120067844Y-76261835D01*
X119940065Y-76403748D01*
X119940058Y-76403758D01*
X119844576Y-76569138D01*
X119844573Y-76569145D01*
X119785557Y-76750772D01*
X119765596Y-76940700D01*
X119785557Y-77130627D01*
X119808519Y-77201294D01*
X119844573Y-77312256D01*
X119844574Y-77312257D01*
X119844575Y-77312261D01*
X119878466Y-77370961D01*
X119887807Y-77387140D01*
X119893602Y-77397176D01*
X119910340Y-77466171D01*
X119887120Y-77533263D01*
X119858544Y-77562112D01*
X119715644Y-77665935D01*
X119587865Y-77807848D01*
X119587858Y-77807858D01*
X119492376Y-77973238D01*
X119492373Y-77973245D01*
X119433357Y-78154872D01*
X119413396Y-78344800D01*
X119433357Y-78534727D01*
X119446445Y-78575006D01*
X119492373Y-78716356D01*
X119492376Y-78716361D01*
X119587858Y-78881741D01*
X119587865Y-78881751D01*
X119715642Y-79023662D01*
X119715646Y-79023664D01*
X119715647Y-79023666D01*
X119782500Y-79072238D01*
X119850903Y-79121936D01*
X119894256Y-79178159D01*
X119900331Y-79248895D01*
X119885961Y-79286871D01*
X119828474Y-79386441D01*
X119828473Y-79386445D01*
X119769457Y-79568072D01*
X119749496Y-79758000D01*
X119769457Y-79947927D01*
X119799327Y-80039854D01*
X119828473Y-80129556D01*
X119828476Y-80129561D01*
X119923958Y-80294941D01*
X119923965Y-80294951D01*
X120051744Y-80436864D01*
X120051747Y-80436866D01*
X120206248Y-80549118D01*
X120380712Y-80626794D01*
X120567513Y-80666500D01*
X120758487Y-80666500D01*
X120945288Y-80626794D01*
X121119752Y-80549118D01*
X121274253Y-80436866D01*
X121323534Y-80382134D01*
X121402034Y-80294951D01*
X121402035Y-80294949D01*
X121402040Y-80294944D01*
X121497527Y-80129556D01*
X121556542Y-79947928D01*
X121576504Y-79758000D01*
X121556542Y-79568072D01*
X121497527Y-79386444D01*
X121402040Y-79221056D01*
X121402038Y-79221054D01*
X121402034Y-79221048D01*
X121274255Y-79079135D01*
X121138996Y-78980864D01*
X121095642Y-78924642D01*
X121089567Y-78853906D01*
X121103935Y-78815934D01*
X121150819Y-78734728D01*
X121202201Y-78685737D01*
X121271915Y-78672302D01*
X121337826Y-78698689D01*
X121349032Y-78708636D01*
X122257477Y-79617081D01*
X122291503Y-79679393D01*
X122293692Y-79693005D01*
X122311057Y-79858227D01*
X122340203Y-79947927D01*
X122370073Y-80039856D01*
X122370076Y-80039861D01*
X122465558Y-80205241D01*
X122465565Y-80205251D01*
X122593344Y-80347164D01*
X122654599Y-80391668D01*
X122747848Y-80459418D01*
X122922312Y-80537094D01*
X123109113Y-80576800D01*
X123300087Y-80576800D01*
X123486888Y-80537094D01*
X123661352Y-80459418D01*
X123815853Y-80347166D01*
X123885440Y-80269882D01*
X123943634Y-80205251D01*
X123943635Y-80205249D01*
X123943640Y-80205244D01*
X124039127Y-80039856D01*
X124098142Y-79858228D01*
X124118104Y-79668300D01*
X124098142Y-79478372D01*
X124039127Y-79296744D01*
X123943640Y-79131356D01*
X123943638Y-79131354D01*
X123943634Y-79131348D01*
X123815855Y-78989435D01*
X123661352Y-78877182D01*
X123486888Y-78799506D01*
X123300087Y-78759800D01*
X123244195Y-78759800D01*
X123176074Y-78739798D01*
X123155100Y-78722895D01*
X122135805Y-77703600D01*
X122101779Y-77641288D01*
X122098900Y-77614505D01*
X122098900Y-76332500D01*
X139050396Y-76332500D01*
X139070357Y-76522427D01*
X139082841Y-76560847D01*
X139129373Y-76704056D01*
X139129376Y-76704061D01*
X139224858Y-76869441D01*
X139224865Y-76869451D01*
X139352644Y-77011364D01*
X139352647Y-77011366D01*
X139507148Y-77123618D01*
X139681612Y-77201294D01*
X139868413Y-77241000D01*
X139883303Y-77241000D01*
X139951424Y-77261002D01*
X139997917Y-77314658D01*
X140003133Y-77328056D01*
X140017072Y-77370954D01*
X140017075Y-77370961D01*
X140112558Y-77536341D01*
X140112565Y-77536351D01*
X140240344Y-77678264D01*
X140275216Y-77703600D01*
X140394848Y-77790518D01*
X140569312Y-77868194D01*
X140756113Y-77907900D01*
X140947087Y-77907900D01*
X141133888Y-77868194D01*
X141308352Y-77790518D01*
X141462853Y-77678266D01*
X141547280Y-77584500D01*
X141590634Y-77536351D01*
X141590635Y-77536349D01*
X141590640Y-77536344D01*
X141686127Y-77370956D01*
X141745142Y-77189328D01*
X141765104Y-76999400D01*
X141745142Y-76809472D01*
X141739985Y-76793600D01*
X151848396Y-76793600D01*
X151868357Y-76983527D01*
X151879942Y-77019180D01*
X151927373Y-77165156D01*
X151927376Y-77165161D01*
X152022858Y-77330541D01*
X152022865Y-77330551D01*
X152150644Y-77472464D01*
X152150647Y-77472466D01*
X152305148Y-77584718D01*
X152479612Y-77662394D01*
X152666413Y-77702100D01*
X152857391Y-77702100D01*
X153025497Y-77666367D01*
X153096288Y-77671768D01*
X153145331Y-77705303D01*
X153165644Y-77727863D01*
X153165649Y-77727868D01*
X153251878Y-77790517D01*
X153320148Y-77840118D01*
X153494612Y-77917794D01*
X153681413Y-77957500D01*
X153872387Y-77957500D01*
X154059188Y-77917794D01*
X154233652Y-77840118D01*
X154388153Y-77727866D01*
X154447105Y-77662393D01*
X154515934Y-77585951D01*
X154515935Y-77585949D01*
X154515940Y-77585944D01*
X154611427Y-77420556D01*
X154670442Y-77238928D01*
X154690404Y-77049000D01*
X154670442Y-76859072D01*
X154611427Y-76677444D01*
X154583942Y-76629839D01*
X154567205Y-76560847D01*
X154590425Y-76493755D01*
X154646232Y-76449867D01*
X154666860Y-76443595D01*
X154789188Y-76417594D01*
X154963652Y-76339918D01*
X155118153Y-76227666D01*
X155118155Y-76227664D01*
X155245934Y-76085751D01*
X155245935Y-76085749D01*
X155245940Y-76085744D01*
X155341427Y-75920356D01*
X155400442Y-75738728D01*
X155420404Y-75548800D01*
X155400442Y-75358872D01*
X155341427Y-75177244D01*
X155245940Y-75011856D01*
X155245938Y-75011854D01*
X155245934Y-75011848D01*
X155118155Y-74869935D01*
X154963652Y-74757682D01*
X154789188Y-74680006D01*
X154602387Y-74640300D01*
X154411413Y-74640300D01*
X154224611Y-74680006D01*
X154050147Y-74757682D01*
X153895644Y-74869935D01*
X153767865Y-75011848D01*
X153767858Y-75011858D01*
X153672376Y-75177238D01*
X153672373Y-75177245D01*
X153613357Y-75358872D01*
X153593396Y-75548800D01*
X153613357Y-75738727D01*
X153631823Y-75795558D01*
X153672373Y-75920356D01*
X153672376Y-75920361D01*
X153699856Y-75967958D01*
X153716594Y-76036953D01*
X153693374Y-76104045D01*
X153637567Y-76147932D01*
X153616934Y-76154205D01*
X153513301Y-76176233D01*
X153442510Y-76170831D01*
X153393468Y-76137297D01*
X153373153Y-76114734D01*
X153373152Y-76114733D01*
X153373150Y-76114731D01*
X153218652Y-76002482D01*
X153044188Y-75924806D01*
X152857387Y-75885100D01*
X152666413Y-75885100D01*
X152479611Y-75924806D01*
X152305147Y-76002482D01*
X152150644Y-76114735D01*
X152022865Y-76256648D01*
X152022858Y-76256658D01*
X151927376Y-76422038D01*
X151927373Y-76422045D01*
X151868357Y-76603672D01*
X151848396Y-76793600D01*
X141739985Y-76793600D01*
X141686127Y-76627844D01*
X141590640Y-76462456D01*
X141590638Y-76462454D01*
X141590634Y-76462448D01*
X141462855Y-76320535D01*
X141308352Y-76208282D01*
X141133888Y-76130606D01*
X140947087Y-76090900D01*
X140932197Y-76090900D01*
X140864076Y-76070898D01*
X140817583Y-76017242D01*
X140812364Y-76003838D01*
X140798427Y-75960944D01*
X140774996Y-75920361D01*
X140702941Y-75795558D01*
X140702934Y-75795548D01*
X140575155Y-75653635D01*
X140420652Y-75541382D01*
X140246188Y-75463706D01*
X140059387Y-75424000D01*
X139868413Y-75424000D01*
X139681611Y-75463706D01*
X139507147Y-75541382D01*
X139352644Y-75653635D01*
X139224865Y-75795548D01*
X139224858Y-75795558D01*
X139129376Y-75960938D01*
X139129373Y-75960945D01*
X139070357Y-76142572D01*
X139050396Y-76332500D01*
X122098900Y-76332500D01*
X122098900Y-73728800D01*
X138107896Y-73728800D01*
X138127857Y-73918727D01*
X138156982Y-74008361D01*
X138186873Y-74100356D01*
X138186876Y-74100361D01*
X138282358Y-74265741D01*
X138282365Y-74265751D01*
X138410144Y-74407664D01*
X138410147Y-74407666D01*
X138564648Y-74519918D01*
X138739112Y-74597594D01*
X138925913Y-74637300D01*
X139116887Y-74637300D01*
X139303688Y-74597594D01*
X139478152Y-74519918D01*
X139632653Y-74407666D01*
X139661150Y-74376017D01*
X139760434Y-74265751D01*
X139760435Y-74265749D01*
X139760440Y-74265744D01*
X139855927Y-74100356D01*
X139914942Y-73918728D01*
X139934904Y-73728800D01*
X139917299Y-73561300D01*
X142070496Y-73561300D01*
X142090457Y-73751227D01*
X142120526Y-73843770D01*
X142149473Y-73932856D01*
X142163101Y-73956461D01*
X142244958Y-74098241D01*
X142244965Y-74098251D01*
X142372744Y-74240164D01*
X142433999Y-74284668D01*
X142527248Y-74352418D01*
X142701712Y-74430094D01*
X142888513Y-74469800D01*
X143079487Y-74469800D01*
X143266288Y-74430094D01*
X143440752Y-74352418D01*
X143595253Y-74240166D01*
X143595255Y-74240164D01*
X143723036Y-74098249D01*
X143723037Y-74098247D01*
X143723040Y-74098244D01*
X143746647Y-74057353D01*
X143798026Y-74008361D01*
X143858109Y-73996779D01*
X143858109Y-73994600D01*
X144055687Y-73994600D01*
X144242488Y-73954894D01*
X144416952Y-73877218D01*
X144571453Y-73764966D01*
X144604017Y-73728800D01*
X144699234Y-73623051D01*
X144699235Y-73623049D01*
X144699240Y-73623044D01*
X144721262Y-73584900D01*
X150094496Y-73584900D01*
X150114457Y-73774827D01*
X150130126Y-73823050D01*
X150173473Y-73956456D01*
X150196754Y-73996779D01*
X150268958Y-74121841D01*
X150268965Y-74121851D01*
X150396744Y-74263764D01*
X150396747Y-74263766D01*
X150551248Y-74376018D01*
X150725712Y-74453694D01*
X150912513Y-74493400D01*
X151103487Y-74493400D01*
X151290288Y-74453694D01*
X151464752Y-74376018D01*
X151619253Y-74263766D01*
X151640503Y-74240166D01*
X151747034Y-74121851D01*
X151747035Y-74121849D01*
X151747040Y-74121844D01*
X151842527Y-73956456D01*
X151901542Y-73774828D01*
X151912187Y-73673540D01*
X151939200Y-73607884D01*
X151986246Y-73571604D01*
X152052252Y-73542218D01*
X152206753Y-73429966D01*
X152220334Y-73414883D01*
X152334534Y-73288051D01*
X152334535Y-73288049D01*
X152334540Y-73288044D01*
X152430027Y-73122656D01*
X152489042Y-72941028D01*
X152509004Y-72751100D01*
X152489042Y-72561172D01*
X152430027Y-72379544D01*
X152334540Y-72214156D01*
X152334538Y-72214154D01*
X152334534Y-72214148D01*
X152206755Y-72072235D01*
X152052252Y-71959982D01*
X151877788Y-71882306D01*
X151690987Y-71842600D01*
X151500013Y-71842600D01*
X151313211Y-71882306D01*
X151138747Y-71959982D01*
X150984244Y-72072235D01*
X150856465Y-72214148D01*
X150856458Y-72214158D01*
X150760976Y-72379538D01*
X150760973Y-72379545D01*
X150701959Y-72561167D01*
X150701958Y-72561169D01*
X150701958Y-72561172D01*
X150693774Y-72639040D01*
X150691312Y-72662460D01*
X150664298Y-72728116D01*
X150617252Y-72764394D01*
X150551251Y-72793780D01*
X150551248Y-72793782D01*
X150396744Y-72906035D01*
X150268965Y-73047948D01*
X150268958Y-73047958D01*
X150173476Y-73213338D01*
X150173473Y-73213345D01*
X150114457Y-73394972D01*
X150094496Y-73584900D01*
X144721262Y-73584900D01*
X144794727Y-73457656D01*
X144853742Y-73276028D01*
X144873704Y-73086100D01*
X144853742Y-72896172D01*
X144794727Y-72714544D01*
X144699240Y-72549156D01*
X144699238Y-72549154D01*
X144699234Y-72549148D01*
X144571455Y-72407235D01*
X144416952Y-72294982D01*
X144242488Y-72217306D01*
X144055687Y-72177600D01*
X143864713Y-72177600D01*
X143677911Y-72217306D01*
X143503447Y-72294982D01*
X143348944Y-72407235D01*
X143221165Y-72549148D01*
X143221158Y-72549159D01*
X143197552Y-72590046D01*
X143146169Y-72639040D01*
X143086090Y-72650618D01*
X143086090Y-72652800D01*
X142888513Y-72652800D01*
X142701711Y-72692506D01*
X142527247Y-72770182D01*
X142372744Y-72882435D01*
X142244965Y-73024348D01*
X142244958Y-73024358D01*
X142149476Y-73189738D01*
X142149473Y-73189744D01*
X142144159Y-73206100D01*
X142090457Y-73371372D01*
X142070496Y-73561300D01*
X139917299Y-73561300D01*
X139914942Y-73538872D01*
X139855927Y-73357244D01*
X139760440Y-73191856D01*
X139760438Y-73191854D01*
X139760434Y-73191848D01*
X139632655Y-73049935D01*
X139478152Y-72937682D01*
X139303688Y-72860006D01*
X139116887Y-72820300D01*
X138925913Y-72820300D01*
X138739111Y-72860006D01*
X138564647Y-72937682D01*
X138410144Y-73049935D01*
X138282365Y-73191848D01*
X138282358Y-73191858D01*
X138186876Y-73357238D01*
X138186873Y-73357244D01*
X138174614Y-73394972D01*
X138127857Y-73538872D01*
X138107896Y-73728800D01*
X122098900Y-73728800D01*
X122098900Y-70721400D01*
X141275096Y-70721400D01*
X141295057Y-70911327D01*
X141307358Y-70949184D01*
X141354073Y-71092956D01*
X141354076Y-71092961D01*
X141449558Y-71258341D01*
X141449565Y-71258351D01*
X141577344Y-71400264D01*
X141577347Y-71400266D01*
X141731848Y-71512518D01*
X141906312Y-71590194D01*
X142093113Y-71629900D01*
X142284087Y-71629900D01*
X142470888Y-71590194D01*
X142645352Y-71512518D01*
X142799853Y-71400266D01*
X142927640Y-71258344D01*
X143023127Y-71092956D01*
X143082142Y-70911328D01*
X143102104Y-70721400D01*
X143082142Y-70531472D01*
X143023127Y-70349844D01*
X142927640Y-70184456D01*
X142927638Y-70184454D01*
X142927634Y-70184448D01*
X142799855Y-70042535D01*
X142645352Y-69930282D01*
X142470888Y-69852606D01*
X142284087Y-69812900D01*
X142093113Y-69812900D01*
X141906311Y-69852606D01*
X141731847Y-69930282D01*
X141577344Y-70042535D01*
X141449565Y-70184448D01*
X141449558Y-70184458D01*
X141393765Y-70281095D01*
X141354073Y-70349844D01*
X141339599Y-70394386D01*
X141295057Y-70531472D01*
X141275096Y-70721400D01*
X122098900Y-70721400D01*
X122098900Y-69384200D01*
X122118902Y-69316079D01*
X122172558Y-69269586D01*
X122224900Y-69258200D01*
X122364987Y-69258200D01*
X122551788Y-69218494D01*
X122726252Y-69140818D01*
X122880753Y-69028566D01*
X122968382Y-68931244D01*
X123008534Y-68886651D01*
X123008535Y-68886649D01*
X123008540Y-68886644D01*
X123009489Y-68885000D01*
X143571596Y-68885000D01*
X143591557Y-69074927D01*
X143612967Y-69140817D01*
X143650573Y-69256556D01*
X143650576Y-69256561D01*
X143746058Y-69421941D01*
X143746065Y-69421951D01*
X143873844Y-69563864D01*
X143873847Y-69563866D01*
X144028348Y-69676118D01*
X144202812Y-69753794D01*
X144389613Y-69793500D01*
X144580587Y-69793500D01*
X144767388Y-69753794D01*
X144941852Y-69676118D01*
X145096353Y-69563866D01*
X145224140Y-69421944D01*
X145292928Y-69302800D01*
X151558796Y-69302800D01*
X151578757Y-69492727D01*
X151601872Y-69563864D01*
X151637773Y-69674356D01*
X151637776Y-69674361D01*
X151733258Y-69839741D01*
X151733265Y-69839751D01*
X151861044Y-69981664D01*
X151861047Y-69981666D01*
X152015548Y-70093918D01*
X152190012Y-70171594D01*
X152376813Y-70211300D01*
X152567787Y-70211300D01*
X152754588Y-70171594D01*
X152929052Y-70093918D01*
X153083553Y-69981666D01*
X153083555Y-69981664D01*
X153211334Y-69839751D01*
X153211335Y-69839749D01*
X153211340Y-69839744D01*
X153306827Y-69674356D01*
X153365842Y-69492728D01*
X153385804Y-69302800D01*
X153365842Y-69112872D01*
X153306827Y-68931244D01*
X153211340Y-68765856D01*
X153211338Y-68765854D01*
X153211334Y-68765848D01*
X153083555Y-68623935D01*
X152929052Y-68511682D01*
X152754588Y-68434006D01*
X152567787Y-68394300D01*
X152376813Y-68394300D01*
X152190011Y-68434006D01*
X152015547Y-68511682D01*
X151861044Y-68623935D01*
X151733265Y-68765848D01*
X151733258Y-68765858D01*
X151637776Y-68931238D01*
X151637773Y-68931245D01*
X151578757Y-69112872D01*
X151558796Y-69302800D01*
X145292928Y-69302800D01*
X145319627Y-69256556D01*
X145378642Y-69074928D01*
X145398604Y-68885000D01*
X145378642Y-68695072D01*
X145319627Y-68513444D01*
X145224140Y-68348056D01*
X145224138Y-68348054D01*
X145224134Y-68348048D01*
X145096355Y-68206135D01*
X144941852Y-68093882D01*
X144767388Y-68016206D01*
X144580587Y-67976500D01*
X144389613Y-67976500D01*
X144202811Y-68016206D01*
X144028347Y-68093882D01*
X143873844Y-68206135D01*
X143746065Y-68348048D01*
X143746058Y-68348058D01*
X143650576Y-68513438D01*
X143650573Y-68513445D01*
X143591557Y-68695072D01*
X143571596Y-68885000D01*
X123009489Y-68885000D01*
X123065089Y-68788697D01*
X123116467Y-68739708D01*
X123186181Y-68726271D01*
X123200387Y-68728452D01*
X123254713Y-68740000D01*
X123254715Y-68740000D01*
X123445687Y-68740000D01*
X123632488Y-68700294D01*
X123806952Y-68622618D01*
X123961453Y-68510366D01*
X123961455Y-68510364D01*
X124089234Y-68368451D01*
X124089235Y-68368449D01*
X124089240Y-68368444D01*
X124184727Y-68203056D01*
X124243742Y-68021428D01*
X124255369Y-67910800D01*
X141277496Y-67910800D01*
X141297457Y-68100727D01*
X141316270Y-68158626D01*
X141356473Y-68282356D01*
X141356476Y-68282361D01*
X141451958Y-68447741D01*
X141451965Y-68447751D01*
X141579744Y-68589664D01*
X141579747Y-68589666D01*
X141734248Y-68701918D01*
X141908712Y-68779594D01*
X142095513Y-68819300D01*
X142286487Y-68819300D01*
X142473288Y-68779594D01*
X142647752Y-68701918D01*
X142802253Y-68589666D01*
X142873657Y-68510364D01*
X142930034Y-68447751D01*
X142930035Y-68447749D01*
X142930040Y-68447744D01*
X143025527Y-68282356D01*
X143084542Y-68100728D01*
X143104504Y-67910800D01*
X143084542Y-67720872D01*
X143025527Y-67539244D01*
X142930040Y-67373856D01*
X142930038Y-67373854D01*
X142930034Y-67373848D01*
X142802255Y-67231935D01*
X142647752Y-67119682D01*
X142473288Y-67042006D01*
X142286487Y-67002300D01*
X142095513Y-67002300D01*
X141908711Y-67042006D01*
X141734247Y-67119682D01*
X141579744Y-67231935D01*
X141451965Y-67373848D01*
X141451958Y-67373858D01*
X141356476Y-67539238D01*
X141356473Y-67539244D01*
X141348056Y-67565148D01*
X141297457Y-67720872D01*
X141277496Y-67910800D01*
X124255369Y-67910800D01*
X124263704Y-67831500D01*
X124243742Y-67641572D01*
X124184727Y-67459944D01*
X124160169Y-67417410D01*
X124124745Y-67356051D01*
X124108007Y-67287055D01*
X124131228Y-67219963D01*
X124140229Y-67208740D01*
X124194334Y-67148651D01*
X124194335Y-67148649D01*
X124194340Y-67148644D01*
X124289827Y-66983256D01*
X124348842Y-66801628D01*
X124368804Y-66611700D01*
X124348842Y-66421772D01*
X124289827Y-66240144D01*
X124194340Y-66074756D01*
X124194338Y-66074754D01*
X124194334Y-66074748D01*
X124066555Y-65932835D01*
X123912052Y-65820582D01*
X123737588Y-65742906D01*
X123550787Y-65703200D01*
X123359813Y-65703200D01*
X123173011Y-65742906D01*
X122998547Y-65820582D01*
X122844044Y-65932835D01*
X122716265Y-66074748D01*
X122716258Y-66074758D01*
X122627661Y-66228213D01*
X122620773Y-66240144D01*
X122618077Y-66248442D01*
X122561757Y-66421772D01*
X122541796Y-66611700D01*
X122561757Y-66801627D01*
X122574332Y-66840327D01*
X122620773Y-66983256D01*
X122620776Y-66983261D01*
X122680754Y-67087147D01*
X122697492Y-67156143D01*
X122674271Y-67223234D01*
X122665272Y-67234456D01*
X122611160Y-67294554D01*
X122554612Y-67392497D01*
X122503228Y-67441490D01*
X122433515Y-67454925D01*
X122419297Y-67452743D01*
X122364989Y-67441200D01*
X122364987Y-67441200D01*
X122224900Y-67441200D01*
X122156779Y-67421198D01*
X122110286Y-67367542D01*
X122098900Y-67315200D01*
X122098900Y-63149014D01*
X122118902Y-63080893D01*
X122172558Y-63034400D01*
X122242832Y-63024296D01*
X122278148Y-63034818D01*
X122417324Y-63099717D01*
X122640170Y-63159429D01*
X122870000Y-63179536D01*
X123099830Y-63159429D01*
X123322676Y-63099717D01*
X123531768Y-63002216D01*
X123720753Y-62869887D01*
X123883887Y-62706753D01*
X124016216Y-62517768D01*
X124025805Y-62497205D01*
X124072722Y-62443919D01*
X124140999Y-62424458D01*
X124208959Y-62444999D01*
X124254195Y-62497205D01*
X124263782Y-62517766D01*
X124396110Y-62706749D01*
X124396113Y-62706753D01*
X124559247Y-62869887D01*
X124748232Y-63002216D01*
X124957324Y-63099717D01*
X125180170Y-63159429D01*
X125410000Y-63179536D01*
X125639830Y-63159429D01*
X125862676Y-63099717D01*
X126071768Y-63002216D01*
X126260753Y-62869887D01*
X126423887Y-62706753D01*
X126556216Y-62517768D01*
X126565805Y-62497205D01*
X126612722Y-62443919D01*
X126680999Y-62424458D01*
X126748959Y-62444999D01*
X126794195Y-62497205D01*
X126803782Y-62517766D01*
X126936110Y-62706749D01*
X126936113Y-62706753D01*
X127099247Y-62869887D01*
X127288232Y-63002216D01*
X127497324Y-63099717D01*
X127720170Y-63159429D01*
X127950000Y-63179536D01*
X128179830Y-63159429D01*
X128402676Y-63099717D01*
X128611768Y-63002216D01*
X128800753Y-62869887D01*
X128963887Y-62706753D01*
X129096216Y-62517768D01*
X129105805Y-62497205D01*
X129152722Y-62443919D01*
X129220999Y-62424458D01*
X129288959Y-62444999D01*
X129334195Y-62497205D01*
X129343782Y-62517766D01*
X129476110Y-62706749D01*
X129476113Y-62706753D01*
X129639247Y-62869887D01*
X129828232Y-63002216D01*
X130037324Y-63099717D01*
X130260170Y-63159429D01*
X130490000Y-63179536D01*
X130719830Y-63159429D01*
X130942676Y-63099717D01*
X131151768Y-63002216D01*
X131340753Y-62869887D01*
X131503887Y-62706753D01*
X131636216Y-62517768D01*
X131645805Y-62497205D01*
X131692722Y-62443919D01*
X131760999Y-62424458D01*
X131828959Y-62444999D01*
X131874195Y-62497205D01*
X131883782Y-62517766D01*
X132016110Y-62706749D01*
X132016113Y-62706753D01*
X132179247Y-62869887D01*
X132368232Y-63002216D01*
X132577324Y-63099717D01*
X132800170Y-63159429D01*
X133030000Y-63179536D01*
X133259830Y-63159429D01*
X133482676Y-63099717D01*
X133691768Y-63002216D01*
X133880753Y-62869887D01*
X134043887Y-62706753D01*
X134176216Y-62517768D01*
X134185805Y-62497205D01*
X134232722Y-62443919D01*
X134300999Y-62424458D01*
X134368959Y-62444999D01*
X134414195Y-62497205D01*
X134423782Y-62517766D01*
X134556110Y-62706749D01*
X134556113Y-62706753D01*
X134719247Y-62869887D01*
X134908232Y-63002216D01*
X135117324Y-63099717D01*
X135340170Y-63159429D01*
X135570000Y-63179536D01*
X135799830Y-63159429D01*
X136022676Y-63099717D01*
X136231768Y-63002216D01*
X136420753Y-62869887D01*
X136583887Y-62706753D01*
X136716216Y-62517768D01*
X136725805Y-62497205D01*
X136772722Y-62443919D01*
X136840999Y-62424458D01*
X136908959Y-62444999D01*
X136954195Y-62497205D01*
X136963782Y-62517766D01*
X137096110Y-62706749D01*
X137096113Y-62706753D01*
X137259247Y-62869887D01*
X137448232Y-63002216D01*
X137657324Y-63099717D01*
X137880170Y-63159429D01*
X138110000Y-63179536D01*
X138339830Y-63159429D01*
X138562676Y-63099717D01*
X138771768Y-63002216D01*
X138960753Y-62869887D01*
X139123887Y-62706753D01*
X139256216Y-62517768D01*
X139265805Y-62497205D01*
X139312722Y-62443919D01*
X139380999Y-62424458D01*
X139448959Y-62444999D01*
X139494195Y-62497205D01*
X139503782Y-62517766D01*
X139636110Y-62706749D01*
X139636113Y-62706753D01*
X139799247Y-62869887D01*
X139988232Y-63002216D01*
X140197324Y-63099717D01*
X140420170Y-63159429D01*
X140650000Y-63179536D01*
X140879830Y-63159429D01*
X141102676Y-63099717D01*
X141311768Y-63002216D01*
X141500753Y-62869887D01*
X141663887Y-62706753D01*
X141796216Y-62517768D01*
X141805805Y-62497205D01*
X141852722Y-62443919D01*
X141920999Y-62424458D01*
X141988959Y-62444999D01*
X142034195Y-62497205D01*
X142043782Y-62517766D01*
X142176110Y-62706749D01*
X142176113Y-62706753D01*
X142339247Y-62869887D01*
X142528232Y-63002216D01*
X142737324Y-63099717D01*
X142960170Y-63159429D01*
X143190000Y-63179536D01*
X143419830Y-63159429D01*
X143642676Y-63099717D01*
X143851768Y-63002216D01*
X144040753Y-62869887D01*
X144203887Y-62706753D01*
X144336216Y-62517768D01*
X144345805Y-62497205D01*
X144392722Y-62443919D01*
X144460999Y-62424458D01*
X144528959Y-62444999D01*
X144574195Y-62497205D01*
X144583782Y-62517766D01*
X144716110Y-62706749D01*
X144716113Y-62706753D01*
X144879247Y-62869887D01*
X144879250Y-62869889D01*
X144879255Y-62869893D01*
X144935204Y-62909069D01*
X144979533Y-62964526D01*
X144986842Y-63035145D01*
X144956570Y-63096592D01*
X144904565Y-63154348D01*
X144904558Y-63154358D01*
X144809076Y-63319738D01*
X144809073Y-63319745D01*
X144750057Y-63501372D01*
X144730096Y-63691300D01*
X144750057Y-63881227D01*
X144771975Y-63948682D01*
X144809073Y-64062856D01*
X144809076Y-64062861D01*
X144904558Y-64228241D01*
X144904565Y-64228251D01*
X145032344Y-64370164D01*
X145056875Y-64387987D01*
X145186848Y-64482418D01*
X145361312Y-64560094D01*
X145548113Y-64599800D01*
X145739087Y-64599800D01*
X145925888Y-64560094D01*
X146100352Y-64482418D01*
X146254853Y-64370166D01*
X146275259Y-64347503D01*
X146382634Y-64228251D01*
X146382635Y-64228249D01*
X146382640Y-64228244D01*
X146478127Y-64062856D01*
X146537142Y-63881228D01*
X146557104Y-63691300D01*
X146537142Y-63501372D01*
X146478127Y-63319744D01*
X146404356Y-63191969D01*
X146380446Y-63150555D01*
X146363708Y-63081560D01*
X146386928Y-63014468D01*
X146417295Y-62984342D01*
X146580744Y-62869893D01*
X146580753Y-62869887D01*
X146743887Y-62706753D01*
X146876216Y-62517768D01*
X146885805Y-62497205D01*
X146932722Y-62443919D01*
X147000999Y-62424458D01*
X147068959Y-62444999D01*
X147114195Y-62497205D01*
X147123782Y-62517766D01*
X147256110Y-62706749D01*
X147256113Y-62706753D01*
X147419247Y-62869887D01*
X147608232Y-63002216D01*
X147817324Y-63099717D01*
X148040170Y-63159429D01*
X148270000Y-63179536D01*
X148499830Y-63159429D01*
X148722676Y-63099717D01*
X148931768Y-63002216D01*
X149120753Y-62869887D01*
X149283887Y-62706753D01*
X149416216Y-62517768D01*
X149425805Y-62497205D01*
X149472722Y-62443919D01*
X149540999Y-62424458D01*
X149608959Y-62444999D01*
X149654195Y-62497205D01*
X149663782Y-62517766D01*
X149796110Y-62706749D01*
X149796113Y-62706753D01*
X149959247Y-62869887D01*
X150148232Y-63002216D01*
X150357324Y-63099717D01*
X150580170Y-63159429D01*
X150810000Y-63179536D01*
X151039830Y-63159429D01*
X151262676Y-63099717D01*
X151471768Y-63002216D01*
X151660753Y-62869887D01*
X151823887Y-62706753D01*
X151956216Y-62517768D01*
X151965805Y-62497205D01*
X152012722Y-62443919D01*
X152080999Y-62424458D01*
X152148959Y-62444999D01*
X152194195Y-62497205D01*
X152203782Y-62517766D01*
X152336110Y-62706749D01*
X152336113Y-62706753D01*
X152499247Y-62869887D01*
X152688232Y-63002216D01*
X152897324Y-63099717D01*
X153120170Y-63159429D01*
X153350000Y-63179536D01*
X153579830Y-63159429D01*
X153802676Y-63099717D01*
X154011768Y-63002216D01*
X154200753Y-62869887D01*
X154363887Y-62706753D01*
X154496216Y-62517768D01*
X154505805Y-62497205D01*
X154552722Y-62443919D01*
X154620999Y-62424458D01*
X154688959Y-62444999D01*
X154734195Y-62497205D01*
X154743782Y-62517766D01*
X154876110Y-62706749D01*
X154876113Y-62706753D01*
X155039247Y-62869887D01*
X155228232Y-63002216D01*
X155437324Y-63099717D01*
X155660170Y-63159429D01*
X155890000Y-63179536D01*
X156119830Y-63159429D01*
X156342676Y-63099717D01*
X156481850Y-63034818D01*
X156552042Y-63024158D01*
X156616854Y-63053138D01*
X156655711Y-63112558D01*
X156661100Y-63149014D01*
X156661100Y-65175546D01*
X156659351Y-65191388D01*
X156659644Y-65191416D01*
X156658898Y-65199307D01*
X156661100Y-65269357D01*
X156661100Y-65299251D01*
X156661101Y-65299272D01*
X156661978Y-65306220D01*
X156662444Y-65312132D01*
X156663926Y-65359288D01*
X156663927Y-65359293D01*
X156669577Y-65378739D01*
X156673586Y-65398097D01*
X156676125Y-65418193D01*
X156676126Y-65418199D01*
X156693493Y-65462062D01*
X156695416Y-65467679D01*
X156708582Y-65512993D01*
X156718894Y-65530431D01*
X156727588Y-65548179D01*
X156735044Y-65567009D01*
X156735050Y-65567020D01*
X156762777Y-65605183D01*
X156766037Y-65610146D01*
X156772475Y-65621031D01*
X156789989Y-65650646D01*
X156790060Y-65650765D01*
X156804379Y-65665084D01*
X156817217Y-65680114D01*
X156826756Y-65693243D01*
X156829128Y-65696507D01*
X156856036Y-65718767D01*
X156865486Y-65726585D01*
X156869867Y-65730571D01*
X157110830Y-65971534D01*
X157332608Y-66193312D01*
X157366634Y-66255624D01*
X157361569Y-66326439D01*
X157319022Y-66383275D01*
X157280795Y-66400629D01*
X157281392Y-66402465D01*
X157275116Y-66404503D01*
X157100647Y-66482182D01*
X156946144Y-66594435D01*
X156818365Y-66736348D01*
X156818358Y-66736358D01*
X156722876Y-66901738D01*
X156722873Y-66901745D01*
X156663858Y-67083370D01*
X156663858Y-67083371D01*
X156661405Y-67106701D01*
X156634389Y-67172357D01*
X156576166Y-67212984D01*
X156562295Y-67216771D01*
X156484514Y-67233304D01*
X156310047Y-67310982D01*
X156155544Y-67423235D01*
X156027765Y-67565148D01*
X156027758Y-67565158D01*
X155932276Y-67730538D01*
X155932273Y-67730545D01*
X155873257Y-67912172D01*
X155853296Y-68102100D01*
X155873257Y-68292027D01*
X155903326Y-68384570D01*
X155932273Y-68473656D01*
X155932276Y-68473661D01*
X156027758Y-68639041D01*
X156027765Y-68639051D01*
X156155544Y-68780964D01*
X156208309Y-68819300D01*
X156310048Y-68893218D01*
X156484512Y-68970894D01*
X156671313Y-69010600D01*
X156862287Y-69010600D01*
X157049088Y-68970894D01*
X157223552Y-68893218D01*
X157378053Y-68780966D01*
X157378055Y-68780964D01*
X157505834Y-68639051D01*
X157505835Y-68639049D01*
X157505840Y-68639044D01*
X157601327Y-68473656D01*
X157660342Y-68292028D01*
X157662793Y-68268705D01*
X157689804Y-68203048D01*
X157748025Y-68162417D01*
X157761894Y-68158629D01*
X157839688Y-68142094D01*
X158014152Y-68064418D01*
X158168653Y-67952166D01*
X158208785Y-67907595D01*
X158296434Y-67810251D01*
X158296435Y-67810249D01*
X158296440Y-67810244D01*
X158391927Y-67644856D01*
X158424577Y-67544369D01*
X158464651Y-67485764D01*
X158530047Y-67458127D01*
X158600004Y-67470234D01*
X158633505Y-67494210D01*
X158957795Y-67818499D01*
X158991820Y-67880812D01*
X158994700Y-67907595D01*
X158994700Y-79449674D01*
X158974698Y-79517795D01*
X158962337Y-79533984D01*
X158889157Y-79615259D01*
X158793676Y-79780638D01*
X158793673Y-79780645D01*
X158734657Y-79962272D01*
X158714696Y-80152200D01*
X158734657Y-80342127D01*
X158747657Y-80382135D01*
X158793673Y-80523756D01*
X158793676Y-80523761D01*
X158889158Y-80689141D01*
X158889165Y-80689151D01*
X159016944Y-80831064D01*
X159016947Y-80831066D01*
X159171448Y-80943318D01*
X159345912Y-81020994D01*
X159532713Y-81060700D01*
X159723687Y-81060700D01*
X159910488Y-81020994D01*
X160084952Y-80943318D01*
X160239453Y-80831066D01*
X160366970Y-80689444D01*
X160367234Y-80689151D01*
X160367235Y-80689149D01*
X160367240Y-80689144D01*
X160462727Y-80523756D01*
X160521742Y-80342128D01*
X160541704Y-80152200D01*
X160521742Y-79962272D01*
X160462727Y-79780644D01*
X160367240Y-79615256D01*
X160294063Y-79533984D01*
X160263346Y-79469976D01*
X160261700Y-79449674D01*
X160261700Y-67676854D01*
X160263449Y-67661012D01*
X160263156Y-67660985D01*
X160263900Y-67653099D01*
X160263902Y-67653092D01*
X160261700Y-67583028D01*
X160261700Y-67553144D01*
X160260820Y-67546182D01*
X160260356Y-67540293D01*
X160258874Y-67493111D01*
X160253217Y-67473642D01*
X160249212Y-67454298D01*
X160246674Y-67434203D01*
X160229300Y-67390322D01*
X160227381Y-67384716D01*
X160214218Y-67339407D01*
X160203906Y-67321970D01*
X160195210Y-67304221D01*
X160187752Y-67285383D01*
X160160012Y-67247203D01*
X160156764Y-67242258D01*
X160132742Y-67201638D01*
X160118414Y-67187310D01*
X160105584Y-67172289D01*
X160093672Y-67155893D01*
X160093669Y-67155891D01*
X160093669Y-67155890D01*
X160057307Y-67125808D01*
X160052926Y-67121822D01*
X157965005Y-65033900D01*
X157930979Y-64971588D01*
X157928100Y-64944805D01*
X157928100Y-64442727D01*
X157948102Y-64374606D01*
X158001758Y-64328113D01*
X158072032Y-64318009D01*
X158136612Y-64347503D01*
X158164318Y-64384887D01*
X158165271Y-64384337D01*
X158264058Y-64555441D01*
X158264065Y-64555451D01*
X158391844Y-64697364D01*
X158391847Y-64697366D01*
X158546348Y-64809618D01*
X158720812Y-64887294D01*
X158807701Y-64905762D01*
X158870174Y-64939490D01*
X158901337Y-64990072D01*
X158928074Y-65072360D01*
X159023558Y-65237741D01*
X159023565Y-65237751D01*
X159151344Y-65379664D01*
X159204375Y-65418193D01*
X159305848Y-65491918D01*
X159480312Y-65569594D01*
X159667113Y-65609300D01*
X159858087Y-65609300D01*
X160044888Y-65569594D01*
X160219352Y-65491918D01*
X160373853Y-65379666D01*
X160392201Y-65359289D01*
X160501634Y-65237751D01*
X160501635Y-65237749D01*
X160501640Y-65237744D01*
X160597127Y-65072356D01*
X160656142Y-64890728D01*
X160676104Y-64700800D01*
X160656142Y-64510872D01*
X160597127Y-64329244D01*
X160501640Y-64163856D01*
X160428463Y-64082584D01*
X160397746Y-64018576D01*
X160396100Y-63998274D01*
X160396100Y-63231441D01*
X160416102Y-63163320D01*
X160469758Y-63116827D01*
X160540032Y-63106723D01*
X160554693Y-63109730D01*
X160740170Y-63159429D01*
X160970000Y-63179536D01*
X161199830Y-63159429D01*
X161390591Y-63108314D01*
X161461565Y-63110004D01*
X161520361Y-63149798D01*
X161548309Y-63215062D01*
X161549200Y-63230021D01*
X161549200Y-65650646D01*
X161529198Y-65718767D01*
X161475542Y-65765260D01*
X161449398Y-65773892D01*
X161413115Y-65781604D01*
X161238647Y-65859282D01*
X161084144Y-65971535D01*
X160956365Y-66113448D01*
X160956358Y-66113458D01*
X160860876Y-66278838D01*
X160860873Y-66278844D01*
X160856693Y-66291710D01*
X160801857Y-66460472D01*
X160781896Y-66650400D01*
X160801857Y-66840327D01*
X160821811Y-66901738D01*
X160860873Y-67021956D01*
X160860876Y-67021961D01*
X160956358Y-67187341D01*
X160956365Y-67187351D01*
X161084144Y-67329264D01*
X161084147Y-67329266D01*
X161238648Y-67441518D01*
X161413112Y-67519194D01*
X161599913Y-67558900D01*
X161790887Y-67558900D01*
X161977688Y-67519194D01*
X162152152Y-67441518D01*
X162306653Y-67329266D01*
X162309537Y-67326063D01*
X162434434Y-67187351D01*
X162434435Y-67187349D01*
X162434440Y-67187344D01*
X162529927Y-67021956D01*
X162588942Y-66840328D01*
X162606307Y-66675106D01*
X162633320Y-66609450D01*
X162642524Y-66599179D01*
X162647269Y-66594434D01*
X162658834Y-66582870D01*
X162663129Y-66577332D01*
X162666971Y-66572831D01*
X162699286Y-66538421D01*
X162709045Y-66520667D01*
X162719897Y-66504146D01*
X162732313Y-66488141D01*
X162751047Y-66444848D01*
X162753661Y-66439512D01*
X162772906Y-66404506D01*
X162776395Y-66398160D01*
X162781433Y-66378535D01*
X162787838Y-66359830D01*
X162795881Y-66341245D01*
X162803261Y-66294647D01*
X162804462Y-66288840D01*
X162816200Y-66243130D01*
X162816200Y-66222875D01*
X162817751Y-66203163D01*
X162820920Y-66183157D01*
X162818329Y-66155751D01*
X162816480Y-66136180D01*
X162816200Y-66130248D01*
X162816200Y-65355100D01*
X168125296Y-65355100D01*
X168145257Y-65545027D01*
X168165586Y-65607591D01*
X168204273Y-65726656D01*
X168204276Y-65726661D01*
X168299758Y-65892041D01*
X168299765Y-65892051D01*
X168427544Y-66033964D01*
X168427547Y-66033966D01*
X168582048Y-66146218D01*
X168756512Y-66223894D01*
X168943313Y-66263600D01*
X169134287Y-66263600D01*
X169321088Y-66223894D01*
X169495552Y-66146218D01*
X169650053Y-66033966D01*
X169756039Y-65916257D01*
X169777834Y-65892051D01*
X169777835Y-65892049D01*
X169777840Y-65892044D01*
X169873327Y-65726656D01*
X169932342Y-65545028D01*
X169952304Y-65355100D01*
X169932342Y-65165172D01*
X169873327Y-64983544D01*
X169777840Y-64818156D01*
X169777838Y-64818154D01*
X169777834Y-64818148D01*
X169650055Y-64676235D01*
X169495552Y-64563982D01*
X169321088Y-64486306D01*
X169134287Y-64446600D01*
X168943313Y-64446600D01*
X168756511Y-64486306D01*
X168582047Y-64563982D01*
X168427544Y-64676235D01*
X168299765Y-64818148D01*
X168299758Y-64818158D01*
X168204276Y-64983538D01*
X168204273Y-64983544D01*
X168190270Y-65026641D01*
X168145257Y-65165172D01*
X168125296Y-65355100D01*
X162816200Y-65355100D01*
X162816200Y-63185059D01*
X162836202Y-63116938D01*
X162889858Y-63070445D01*
X162960132Y-63060341D01*
X162995449Y-63070864D01*
X163057324Y-63099717D01*
X163280170Y-63159429D01*
X163510000Y-63179536D01*
X163739830Y-63159429D01*
X163962676Y-63099717D01*
X164171768Y-63002216D01*
X164360753Y-62869887D01*
X164523887Y-62706753D01*
X164656216Y-62517768D01*
X164665805Y-62497205D01*
X164712722Y-62443919D01*
X164780999Y-62424458D01*
X164848959Y-62444999D01*
X164894195Y-62497205D01*
X164903782Y-62517766D01*
X165036110Y-62706749D01*
X165036113Y-62706753D01*
X165199247Y-62869887D01*
X165388232Y-63002216D01*
X165597324Y-63099717D01*
X165820170Y-63159429D01*
X166050000Y-63179536D01*
X166279830Y-63159429D01*
X166502676Y-63099717D01*
X166711768Y-63002216D01*
X166900753Y-62869887D01*
X167063887Y-62706753D01*
X167196216Y-62517768D01*
X167205805Y-62497205D01*
X167252722Y-62443919D01*
X167320999Y-62424458D01*
X167388959Y-62444999D01*
X167434195Y-62497205D01*
X167443782Y-62517766D01*
X167576110Y-62706749D01*
X167576113Y-62706753D01*
X167739247Y-62869887D01*
X167928232Y-63002216D01*
X168137324Y-63099717D01*
X168360170Y-63159429D01*
X168590000Y-63179536D01*
X168819830Y-63159429D01*
X169042676Y-63099717D01*
X169251768Y-63002216D01*
X169440753Y-62869887D01*
X169603887Y-62706753D01*
X169736216Y-62517768D01*
X169745805Y-62497205D01*
X169792722Y-62443919D01*
X169860999Y-62424458D01*
X169928959Y-62444999D01*
X169974195Y-62497205D01*
X169983782Y-62517766D01*
X170116110Y-62706749D01*
X170116113Y-62706753D01*
X170279247Y-62869887D01*
X170468232Y-63002216D01*
X170677324Y-63099717D01*
X170900170Y-63159429D01*
X171130000Y-63179536D01*
X171359830Y-63159429D01*
X171508990Y-63119461D01*
X171579965Y-63121151D01*
X171638761Y-63160945D01*
X171666709Y-63226209D01*
X171667600Y-63241168D01*
X171667600Y-70244700D01*
X171647598Y-70312821D01*
X171593942Y-70359314D01*
X171541600Y-70370700D01*
X171377213Y-70370700D01*
X171190411Y-70410406D01*
X171015947Y-70488082D01*
X170861444Y-70600335D01*
X170733665Y-70742248D01*
X170733658Y-70742258D01*
X170647383Y-70891691D01*
X170638173Y-70907644D01*
X170636976Y-70911328D01*
X170579157Y-71089272D01*
X170559196Y-71279200D01*
X170579157Y-71469127D01*
X170593256Y-71512517D01*
X170638173Y-71650756D01*
X170638176Y-71650761D01*
X170733658Y-71816141D01*
X170733665Y-71816151D01*
X170861444Y-71958064D01*
X170861447Y-71958066D01*
X171015948Y-72070318D01*
X171190412Y-72147994D01*
X171377213Y-72187700D01*
X171541600Y-72187700D01*
X171609721Y-72207702D01*
X171656214Y-72261358D01*
X171667600Y-72313700D01*
X171667600Y-77495405D01*
X171647598Y-77563526D01*
X171630695Y-77584500D01*
X170716800Y-78498395D01*
X170654488Y-78532421D01*
X170627705Y-78535300D01*
X170571813Y-78535300D01*
X170385011Y-78575006D01*
X170210547Y-78652682D01*
X170056044Y-78764935D01*
X169928265Y-78906848D01*
X169928258Y-78906858D01*
X169832776Y-79072238D01*
X169832773Y-79072244D01*
X169830534Y-79079135D01*
X169773757Y-79253872D01*
X169753796Y-79443800D01*
X169773757Y-79633727D01*
X169793018Y-79693005D01*
X169832773Y-79815356D01*
X169832776Y-79815361D01*
X169928258Y-79980741D01*
X169928265Y-79980751D01*
X170056044Y-80122664D01*
X170056047Y-80122666D01*
X170210548Y-80234918D01*
X170385012Y-80312594D01*
X170571813Y-80352300D01*
X170762787Y-80352300D01*
X170949588Y-80312594D01*
X171124052Y-80234918D01*
X171278553Y-80122666D01*
X171353111Y-80039861D01*
X171406334Y-79980751D01*
X171406335Y-79980749D01*
X171406340Y-79980744D01*
X171501827Y-79815356D01*
X171560842Y-79633728D01*
X171578207Y-79468504D01*
X171605220Y-79402849D01*
X171614413Y-79392590D01*
X172347987Y-78659016D01*
X172410297Y-78624992D01*
X172481112Y-78630057D01*
X172537948Y-78672604D01*
X172546199Y-78685112D01*
X172603260Y-78783944D01*
X172603262Y-78783947D01*
X172603265Y-78783951D01*
X172731044Y-78925864D01*
X172731047Y-78925866D01*
X172885548Y-79038118D01*
X173060012Y-79115794D01*
X173246813Y-79155500D01*
X173437787Y-79155500D01*
X173624588Y-79115794D01*
X173799052Y-79038118D01*
X173953553Y-78925866D01*
X173970677Y-78906848D01*
X174081334Y-78783951D01*
X174081335Y-78783949D01*
X174081340Y-78783944D01*
X174176827Y-78618556D01*
X174235842Y-78436928D01*
X174253207Y-78271704D01*
X174280220Y-78206049D01*
X174289413Y-78195790D01*
X174931860Y-77553343D01*
X174944298Y-77543380D01*
X174944110Y-77543153D01*
X174950213Y-77538102D01*
X174950218Y-77538100D01*
X174998184Y-77487020D01*
X175019335Y-77465870D01*
X175023645Y-77460312D01*
X175027474Y-77455829D01*
X175059786Y-77421421D01*
X175069546Y-77403665D01*
X175080395Y-77387150D01*
X175092814Y-77371141D01*
X175111563Y-77327810D01*
X175114153Y-77322523D01*
X175136895Y-77281160D01*
X175141933Y-77261534D01*
X175148337Y-77242832D01*
X175156380Y-77224247D01*
X175156379Y-77224247D01*
X175156381Y-77224245D01*
X175163761Y-77177647D01*
X175164962Y-77171840D01*
X175176700Y-77126130D01*
X175176700Y-77105875D01*
X175178251Y-77086163D01*
X175181420Y-77066157D01*
X175178829Y-77038751D01*
X175176980Y-77019180D01*
X175176700Y-77013248D01*
X175176700Y-75122364D01*
X175196702Y-75054243D01*
X175250358Y-75007750D01*
X175276503Y-74999117D01*
X175276583Y-74999100D01*
X175276587Y-74999100D01*
X175463388Y-74959394D01*
X175605662Y-74896049D01*
X175676027Y-74886616D01*
X175719276Y-74904416D01*
X175720431Y-74902417D01*
X175726142Y-74905713D01*
X175726148Y-74905718D01*
X175900612Y-74983394D01*
X176087413Y-75023100D01*
X176278387Y-75023100D01*
X176465188Y-74983394D01*
X176639652Y-74905718D01*
X176794153Y-74793466D01*
X176794155Y-74793464D01*
X176921934Y-74651551D01*
X176921935Y-74651549D01*
X176921940Y-74651544D01*
X177017427Y-74486156D01*
X177076442Y-74304528D01*
X177096404Y-74114600D01*
X177076442Y-73924672D01*
X177017427Y-73743044D01*
X176921940Y-73577656D01*
X176921938Y-73577654D01*
X176921934Y-73577648D01*
X176794155Y-73435735D01*
X176639652Y-73323482D01*
X176465188Y-73245806D01*
X176278387Y-73206100D01*
X176087413Y-73206100D01*
X175900609Y-73245806D01*
X175758339Y-73309149D01*
X175687972Y-73318583D01*
X175644730Y-73300785D01*
X175643576Y-73302786D01*
X175637857Y-73299484D01*
X175513651Y-73244184D01*
X175459555Y-73198203D01*
X175438906Y-73130276D01*
X175438900Y-73129077D01*
X175438900Y-63149014D01*
X175458902Y-63080893D01*
X175512558Y-63034400D01*
X175582832Y-63024296D01*
X175618148Y-63034818D01*
X175757324Y-63099717D01*
X175980170Y-63159429D01*
X176210000Y-63179536D01*
X176439830Y-63159429D01*
X176662676Y-63099717D01*
X176871768Y-63002216D01*
X177060753Y-62869887D01*
X177223887Y-62706753D01*
X177356216Y-62517768D01*
X177365805Y-62497205D01*
X177412722Y-62443919D01*
X177480999Y-62424458D01*
X177548959Y-62444999D01*
X177594195Y-62497205D01*
X177603782Y-62517766D01*
X177736110Y-62706749D01*
X177736113Y-62706753D01*
X177899247Y-62869887D01*
X178088232Y-63002216D01*
X178297324Y-63099717D01*
X178520170Y-63159429D01*
X178750000Y-63179536D01*
X178979830Y-63159429D01*
X179202676Y-63099717D01*
X179411768Y-63002216D01*
X179600753Y-62869887D01*
X179763887Y-62706753D01*
X179896216Y-62517768D01*
X179993717Y-62308676D01*
X180053429Y-62085830D01*
X180073536Y-61856000D01*
X180053429Y-61626170D01*
X179993717Y-61403324D01*
X179896216Y-61194232D01*
X179763887Y-61005247D01*
X179600753Y-60842113D01*
X179521100Y-60786339D01*
X179411766Y-60709782D01*
X179391205Y-60700195D01*
X179337919Y-60653278D01*
X179318458Y-60585001D01*
X179338999Y-60517041D01*
X179391205Y-60471805D01*
X179411766Y-60462217D01*
X179411766Y-60462216D01*
X179411768Y-60462216D01*
X179600753Y-60329887D01*
X179763887Y-60166753D01*
X179896216Y-59977768D01*
X179993717Y-59768676D01*
X180053429Y-59545830D01*
X180073536Y-59316000D01*
X180053429Y-59086170D01*
X179993717Y-58863324D01*
X179896216Y-58654232D01*
X179763887Y-58465247D01*
X179600753Y-58302113D01*
X179449100Y-58195924D01*
X179411766Y-58169782D01*
X179391205Y-58160195D01*
X179337919Y-58113278D01*
X179318458Y-58045001D01*
X179338999Y-57977041D01*
X179391205Y-57931805D01*
X179411766Y-57922217D01*
X179411766Y-57922216D01*
X179411768Y-57922216D01*
X179600753Y-57789887D01*
X179763887Y-57626753D01*
X179896216Y-57437768D01*
X179993717Y-57228676D01*
X180053429Y-57005830D01*
X180073536Y-56776000D01*
X180053429Y-56546170D01*
X179993717Y-56323324D01*
X179896216Y-56114232D01*
X179763887Y-55925247D01*
X179600753Y-55762113D01*
X179598301Y-55760396D01*
X179411766Y-55629782D01*
X179391205Y-55620195D01*
X179337919Y-55573278D01*
X179318458Y-55505001D01*
X179338999Y-55437041D01*
X179391205Y-55391805D01*
X179411766Y-55382217D01*
X179411766Y-55382216D01*
X179411768Y-55382216D01*
X179600753Y-55249887D01*
X179763887Y-55086753D01*
X179896216Y-54897768D01*
X179993717Y-54688676D01*
X180053429Y-54465830D01*
X180073536Y-54236000D01*
X180053429Y-54006170D01*
X179993717Y-53783324D01*
X179896216Y-53574232D01*
X179763887Y-53385247D01*
X179600753Y-53222113D01*
X179560876Y-53194191D01*
X179411768Y-53089784D01*
X179202679Y-52992284D01*
X179202673Y-52992282D01*
X179108490Y-52967045D01*
X178979830Y-52932571D01*
X178750000Y-52912464D01*
X178520170Y-52932571D01*
X178297326Y-52992282D01*
X178297320Y-52992284D01*
X178088231Y-53089784D01*
X177899250Y-53222110D01*
X177899244Y-53222115D01*
X177736115Y-53385244D01*
X177736110Y-53385250D01*
X177603782Y-53574233D01*
X177594194Y-53594796D01*
X177547277Y-53648081D01*
X177478999Y-53667541D01*
X177411039Y-53646999D01*
X177365806Y-53594796D01*
X177356217Y-53574233D01*
X177223889Y-53385250D01*
X177223884Y-53385244D01*
X177060755Y-53222115D01*
X177060749Y-53222110D01*
X176871768Y-53089784D01*
X176662679Y-52992284D01*
X176662673Y-52992282D01*
X176568490Y-52967045D01*
X176439830Y-52932571D01*
X176210000Y-52912464D01*
X175980170Y-52932571D01*
X175757326Y-52992282D01*
X175757320Y-52992284D01*
X175548231Y-53089784D01*
X175359250Y-53222110D01*
X175359244Y-53222115D01*
X175196115Y-53385244D01*
X175196110Y-53385250D01*
X175063782Y-53574233D01*
X175054194Y-53594796D01*
X175007277Y-53648081D01*
X174938999Y-53667541D01*
X174871039Y-53646999D01*
X174825806Y-53594796D01*
X174816217Y-53574233D01*
X174683889Y-53385250D01*
X174683884Y-53385244D01*
X174520755Y-53222115D01*
X174520749Y-53222110D01*
X174331768Y-53089784D01*
X174122679Y-52992284D01*
X174122673Y-52992282D01*
X174028490Y-52967045D01*
X173899830Y-52932571D01*
X173670000Y-52912464D01*
X173440170Y-52932571D01*
X173217326Y-52992282D01*
X173217320Y-52992284D01*
X173008231Y-53089784D01*
X172819250Y-53222110D01*
X172819244Y-53222115D01*
X172656115Y-53385244D01*
X172656110Y-53385250D01*
X172523782Y-53574233D01*
X172514194Y-53594796D01*
X172467277Y-53648081D01*
X172398999Y-53667541D01*
X172331039Y-53646999D01*
X172285806Y-53594796D01*
X172276217Y-53574233D01*
X172143889Y-53385250D01*
X172143884Y-53385244D01*
X171980755Y-53222115D01*
X171980749Y-53222110D01*
X171791768Y-53089784D01*
X171582679Y-52992284D01*
X171582673Y-52992282D01*
X171488490Y-52967045D01*
X171359830Y-52932571D01*
X171130000Y-52912464D01*
X170900170Y-52932571D01*
X170677326Y-52992282D01*
X170677320Y-52992284D01*
X170468231Y-53089784D01*
X170279250Y-53222110D01*
X170279244Y-53222115D01*
X170116115Y-53385244D01*
X170116110Y-53385250D01*
X169983782Y-53574233D01*
X169974194Y-53594796D01*
X169927277Y-53648081D01*
X169858999Y-53667541D01*
X169791039Y-53646999D01*
X169745806Y-53594796D01*
X169736217Y-53574233D01*
X169603889Y-53385250D01*
X169603884Y-53385244D01*
X169440755Y-53222115D01*
X169440749Y-53222110D01*
X169251768Y-53089784D01*
X169042679Y-52992284D01*
X169042673Y-52992282D01*
X168948490Y-52967045D01*
X168819830Y-52932571D01*
X168590000Y-52912464D01*
X168360170Y-52932571D01*
X168137326Y-52992282D01*
X168137320Y-52992284D01*
X167928231Y-53089784D01*
X167739250Y-53222110D01*
X167739244Y-53222115D01*
X167576115Y-53385244D01*
X167576110Y-53385250D01*
X167443782Y-53574233D01*
X167434194Y-53594796D01*
X167387277Y-53648081D01*
X167318999Y-53667541D01*
X167251039Y-53646999D01*
X167205806Y-53594796D01*
X167196217Y-53574233D01*
X167063889Y-53385250D01*
X167063884Y-53385244D01*
X166900755Y-53222115D01*
X166900749Y-53222110D01*
X166711768Y-53089784D01*
X166502679Y-52992284D01*
X166502673Y-52992282D01*
X166408490Y-52967045D01*
X166279830Y-52932571D01*
X166050000Y-52912464D01*
X165820170Y-52932571D01*
X165597326Y-52992282D01*
X165597320Y-52992284D01*
X165388231Y-53089784D01*
X165199250Y-53222110D01*
X165199244Y-53222115D01*
X165036115Y-53385244D01*
X165036110Y-53385250D01*
X164903782Y-53574233D01*
X164894194Y-53594796D01*
X164847277Y-53648081D01*
X164778999Y-53667541D01*
X164711039Y-53646999D01*
X164665806Y-53594796D01*
X164656217Y-53574233D01*
X164523889Y-53385250D01*
X164523884Y-53385244D01*
X164360755Y-53222115D01*
X164360749Y-53222110D01*
X164171768Y-53089784D01*
X163962679Y-52992284D01*
X163962673Y-52992282D01*
X163868490Y-52967045D01*
X163739830Y-52932571D01*
X163510000Y-52912464D01*
X163280170Y-52932571D01*
X163057326Y-52992282D01*
X163057320Y-52992284D01*
X162848231Y-53089784D01*
X162659250Y-53222110D01*
X162659244Y-53222115D01*
X162496115Y-53385244D01*
X162496110Y-53385250D01*
X162363782Y-53574233D01*
X162354194Y-53594796D01*
X162307277Y-53648081D01*
X162238999Y-53667541D01*
X162171039Y-53646999D01*
X162125806Y-53594796D01*
X162116217Y-53574233D01*
X161983889Y-53385250D01*
X161983884Y-53385244D01*
X161820755Y-53222115D01*
X161820749Y-53222110D01*
X161631768Y-53089784D01*
X161422679Y-52992284D01*
X161422673Y-52992282D01*
X161328490Y-52967045D01*
X161199830Y-52932571D01*
X160970000Y-52912464D01*
X160740170Y-52932571D01*
X160517326Y-52992282D01*
X160517320Y-52992284D01*
X160308231Y-53089784D01*
X160119250Y-53222110D01*
X160119244Y-53222115D01*
X159956115Y-53385244D01*
X159956110Y-53385250D01*
X159823782Y-53574233D01*
X159814194Y-53594796D01*
X159767277Y-53648081D01*
X159698999Y-53667541D01*
X159631039Y-53646999D01*
X159585806Y-53594796D01*
X159576217Y-53574233D01*
X159443889Y-53385250D01*
X159443884Y-53385244D01*
X159280755Y-53222115D01*
X159280749Y-53222110D01*
X159091768Y-53089784D01*
X158882679Y-52992284D01*
X158882673Y-52992282D01*
X158788490Y-52967045D01*
X158659830Y-52932571D01*
X158430000Y-52912464D01*
X158200170Y-52932571D01*
X157977326Y-52992282D01*
X157977320Y-52992284D01*
X157768231Y-53089784D01*
X157579250Y-53222110D01*
X157579244Y-53222115D01*
X157416115Y-53385244D01*
X157416110Y-53385250D01*
X157283782Y-53574233D01*
X157274194Y-53594796D01*
X157227277Y-53648081D01*
X157158999Y-53667541D01*
X157091039Y-53646999D01*
X157045806Y-53594796D01*
X157036217Y-53574233D01*
X156903889Y-53385250D01*
X156903884Y-53385244D01*
X156740755Y-53222115D01*
X156740749Y-53222110D01*
X156551768Y-53089784D01*
X156342679Y-52992284D01*
X156342673Y-52992282D01*
X156248490Y-52967045D01*
X156119830Y-52932571D01*
X155890000Y-52912464D01*
X155660170Y-52932571D01*
X155437326Y-52992282D01*
X155437320Y-52992284D01*
X155228231Y-53089784D01*
X155039250Y-53222110D01*
X155039244Y-53222115D01*
X154876115Y-53385244D01*
X154876110Y-53385250D01*
X154743782Y-53574233D01*
X154734194Y-53594796D01*
X154687277Y-53648081D01*
X154618999Y-53667541D01*
X154551039Y-53646999D01*
X154505806Y-53594796D01*
X154496217Y-53574233D01*
X154363889Y-53385250D01*
X154363884Y-53385244D01*
X154200755Y-53222115D01*
X154200749Y-53222110D01*
X154011768Y-53089784D01*
X153802679Y-52992284D01*
X153802673Y-52992282D01*
X153708490Y-52967045D01*
X153579830Y-52932571D01*
X153350000Y-52912464D01*
X153120170Y-52932571D01*
X152897326Y-52992282D01*
X152897320Y-52992284D01*
X152688231Y-53089784D01*
X152499250Y-53222110D01*
X152499244Y-53222115D01*
X152336115Y-53385244D01*
X152336110Y-53385250D01*
X152203782Y-53574233D01*
X152194194Y-53594796D01*
X152147277Y-53648081D01*
X152078999Y-53667541D01*
X152011039Y-53646999D01*
X151965806Y-53594796D01*
X151956217Y-53574233D01*
X151823889Y-53385250D01*
X151823884Y-53385244D01*
X151660755Y-53222115D01*
X151660749Y-53222110D01*
X151471768Y-53089784D01*
X151262679Y-52992284D01*
X151262673Y-52992282D01*
X151168490Y-52967045D01*
X151039830Y-52932571D01*
X150810000Y-52912464D01*
X150580170Y-52932571D01*
X150357326Y-52992282D01*
X150357320Y-52992284D01*
X150148231Y-53089784D01*
X149959250Y-53222110D01*
X149959244Y-53222115D01*
X149796115Y-53385244D01*
X149796110Y-53385250D01*
X149663782Y-53574233D01*
X149654194Y-53594796D01*
X149607277Y-53648081D01*
X149538999Y-53667541D01*
X149471039Y-53646999D01*
X149425806Y-53594796D01*
X149416217Y-53574233D01*
X149283889Y-53385250D01*
X149283884Y-53385244D01*
X149120755Y-53222115D01*
X149120749Y-53222110D01*
X148931768Y-53089784D01*
X148722679Y-52992284D01*
X148722673Y-52992282D01*
X148628490Y-52967045D01*
X148499830Y-52932571D01*
X148270000Y-52912464D01*
X148040170Y-52932571D01*
X147817326Y-52992282D01*
X147817320Y-52992284D01*
X147608231Y-53089784D01*
X147419250Y-53222110D01*
X147419244Y-53222115D01*
X147256115Y-53385244D01*
X147256110Y-53385250D01*
X147123782Y-53574233D01*
X147114194Y-53594796D01*
X147067277Y-53648081D01*
X146998999Y-53667541D01*
X146931039Y-53646999D01*
X146885806Y-53594796D01*
X146876217Y-53574233D01*
X146743889Y-53385250D01*
X146743884Y-53385244D01*
X146580755Y-53222115D01*
X146580749Y-53222110D01*
X146391768Y-53089784D01*
X146182679Y-52992284D01*
X146182673Y-52992282D01*
X146088490Y-52967045D01*
X145959830Y-52932571D01*
X145730000Y-52912464D01*
X145500170Y-52932571D01*
X145277326Y-52992282D01*
X145277320Y-52992284D01*
X145068231Y-53089784D01*
X144879250Y-53222110D01*
X144879244Y-53222115D01*
X144716115Y-53385244D01*
X144716110Y-53385250D01*
X144583782Y-53574233D01*
X144574194Y-53594796D01*
X144527277Y-53648081D01*
X144458999Y-53667541D01*
X144391039Y-53646999D01*
X144345806Y-53594796D01*
X144336217Y-53574233D01*
X144203889Y-53385250D01*
X144203884Y-53385244D01*
X144040755Y-53222115D01*
X144040749Y-53222110D01*
X143851768Y-53089784D01*
X143642679Y-52992284D01*
X143642673Y-52992282D01*
X143548490Y-52967045D01*
X143419830Y-52932571D01*
X143190000Y-52912464D01*
X142960170Y-52932571D01*
X142737326Y-52992282D01*
X142737320Y-52992284D01*
X142528231Y-53089784D01*
X142339250Y-53222110D01*
X142339244Y-53222115D01*
X142176115Y-53385244D01*
X142176110Y-53385250D01*
X142043782Y-53574233D01*
X142034194Y-53594796D01*
X141987277Y-53648081D01*
X141918999Y-53667541D01*
X141851039Y-53646999D01*
X141805806Y-53594796D01*
X141796217Y-53574233D01*
X141663889Y-53385250D01*
X141663884Y-53385244D01*
X141500755Y-53222115D01*
X141500749Y-53222110D01*
X141311768Y-53089784D01*
X141102679Y-52992284D01*
X141102673Y-52992282D01*
X141008490Y-52967045D01*
X140879830Y-52932571D01*
X140650000Y-52912464D01*
X140420170Y-52932571D01*
X140197326Y-52992282D01*
X140197320Y-52992284D01*
X139988231Y-53089784D01*
X139799250Y-53222110D01*
X139799244Y-53222115D01*
X139636115Y-53385244D01*
X139636110Y-53385250D01*
X139503782Y-53574233D01*
X139494194Y-53594796D01*
X139447277Y-53648081D01*
X139378999Y-53667541D01*
X139311039Y-53646999D01*
X139265806Y-53594796D01*
X139256217Y-53574233D01*
X139123889Y-53385250D01*
X139123884Y-53385244D01*
X138960755Y-53222115D01*
X138960749Y-53222110D01*
X138771768Y-53089784D01*
X138562679Y-52992284D01*
X138562673Y-52992282D01*
X138468490Y-52967045D01*
X138339830Y-52932571D01*
X138110000Y-52912464D01*
X137880170Y-52932571D01*
X137657326Y-52992282D01*
X137657320Y-52992284D01*
X137448231Y-53089784D01*
X137259250Y-53222110D01*
X137259244Y-53222115D01*
X137096115Y-53385244D01*
X137096110Y-53385250D01*
X136963782Y-53574233D01*
X136954194Y-53594796D01*
X136907277Y-53648081D01*
X136838999Y-53667541D01*
X136771039Y-53646999D01*
X136725806Y-53594796D01*
X136716217Y-53574233D01*
X136583889Y-53385250D01*
X136583884Y-53385244D01*
X136420755Y-53222115D01*
X136420749Y-53222110D01*
X136231768Y-53089784D01*
X136022679Y-52992284D01*
X136022673Y-52992282D01*
X135928490Y-52967045D01*
X135799830Y-52932571D01*
X135570000Y-52912464D01*
X135340170Y-52932571D01*
X135117326Y-52992282D01*
X135117320Y-52992284D01*
X134908231Y-53089784D01*
X134719250Y-53222110D01*
X134719244Y-53222115D01*
X134556115Y-53385244D01*
X134556110Y-53385250D01*
X134423782Y-53574233D01*
X134414194Y-53594796D01*
X134367277Y-53648081D01*
X134298999Y-53667541D01*
X134231039Y-53646999D01*
X134185806Y-53594796D01*
X134176217Y-53574233D01*
X134043889Y-53385250D01*
X134043884Y-53385244D01*
X133880755Y-53222115D01*
X133880749Y-53222110D01*
X133691768Y-53089784D01*
X133482679Y-52992284D01*
X133482673Y-52992282D01*
X133388490Y-52967045D01*
X133259830Y-52932571D01*
X133030000Y-52912464D01*
X132800170Y-52932571D01*
X132577326Y-52992282D01*
X132577320Y-52992284D01*
X132368231Y-53089784D01*
X132179250Y-53222110D01*
X132179244Y-53222115D01*
X132016115Y-53385244D01*
X132016110Y-53385250D01*
X131883782Y-53574233D01*
X131874194Y-53594796D01*
X131827277Y-53648081D01*
X131758999Y-53667541D01*
X131691039Y-53646999D01*
X131645806Y-53594796D01*
X131636217Y-53574233D01*
X131503889Y-53385250D01*
X131503884Y-53385244D01*
X131340755Y-53222115D01*
X131340749Y-53222110D01*
X131151768Y-53089784D01*
X130942679Y-52992284D01*
X130942673Y-52992282D01*
X130848490Y-52967045D01*
X130719830Y-52932571D01*
X130490000Y-52912464D01*
X130260170Y-52932571D01*
X130037326Y-52992282D01*
X130037320Y-52992284D01*
X129828231Y-53089784D01*
X129639250Y-53222110D01*
X129639244Y-53222115D01*
X129476115Y-53385244D01*
X129476110Y-53385250D01*
X129343782Y-53574233D01*
X129334194Y-53594796D01*
X129287277Y-53648081D01*
X129218999Y-53667541D01*
X129151039Y-53646999D01*
X129105806Y-53594796D01*
X129096217Y-53574233D01*
X128963889Y-53385250D01*
X128963884Y-53385244D01*
X128800755Y-53222115D01*
X128800749Y-53222110D01*
X128611768Y-53089784D01*
X128402679Y-52992284D01*
X128402673Y-52992282D01*
X128308490Y-52967045D01*
X128179830Y-52932571D01*
X127950000Y-52912464D01*
X127720170Y-52932571D01*
X127497326Y-52992282D01*
X127497320Y-52992284D01*
X127288231Y-53089784D01*
X127099250Y-53222110D01*
X127099244Y-53222115D01*
X126936115Y-53385244D01*
X126936110Y-53385250D01*
X126803782Y-53574233D01*
X126794194Y-53594796D01*
X126747277Y-53648081D01*
X126678999Y-53667541D01*
X126611039Y-53646999D01*
X126565806Y-53594796D01*
X126556217Y-53574233D01*
X126423889Y-53385250D01*
X126423884Y-53385244D01*
X126260755Y-53222115D01*
X126260749Y-53222110D01*
X126071768Y-53089784D01*
X125862679Y-52992284D01*
X125862673Y-52992282D01*
X125768490Y-52967045D01*
X125639830Y-52932571D01*
X125410000Y-52912464D01*
X125180170Y-52932571D01*
X124957326Y-52992282D01*
X124957320Y-52992284D01*
X124748231Y-53089784D01*
X124559250Y-53222110D01*
X124559244Y-53222115D01*
X124396115Y-53385244D01*
X124396110Y-53385250D01*
X124263782Y-53574233D01*
X124254194Y-53594796D01*
X124207277Y-53648081D01*
X124138999Y-53667541D01*
X124071039Y-53646999D01*
X124025806Y-53594796D01*
X124016217Y-53574233D01*
X123883889Y-53385250D01*
X123883884Y-53385244D01*
X123720755Y-53222115D01*
X123720749Y-53222110D01*
X123531768Y-53089784D01*
X123322679Y-52992284D01*
X123322673Y-52992282D01*
X123228490Y-52967045D01*
X123099830Y-52932571D01*
X122870000Y-52912464D01*
X122640170Y-52932571D01*
X122417326Y-52992282D01*
X122417320Y-52992284D01*
X122208231Y-53089784D01*
X122019250Y-53222110D01*
X122019244Y-53222115D01*
X121856115Y-53385244D01*
X121856110Y-53385250D01*
X121723782Y-53574233D01*
X121714194Y-53594796D01*
X121667277Y-53648081D01*
X121598999Y-53667541D01*
X121531039Y-53646999D01*
X121485806Y-53594796D01*
X121476217Y-53574233D01*
X121343889Y-53385250D01*
X121343884Y-53385244D01*
X121180755Y-53222115D01*
X121180749Y-53222110D01*
X120991768Y-53089784D01*
X120782679Y-52992284D01*
X120782673Y-52992282D01*
X120688490Y-52967045D01*
X120559830Y-52932571D01*
X120330000Y-52912464D01*
X120100170Y-52932571D01*
X119877326Y-52992282D01*
X119877320Y-52992284D01*
X119668231Y-53089784D01*
X119479250Y-53222110D01*
X119479244Y-53222115D01*
X119316115Y-53385244D01*
X119316110Y-53385250D01*
X119183782Y-53574233D01*
X119174194Y-53594796D01*
X119127277Y-53648081D01*
X119058999Y-53667541D01*
X118991039Y-53646999D01*
X118945806Y-53594796D01*
X118936217Y-53574233D01*
X118803889Y-53385250D01*
X118803884Y-53385244D01*
X118640755Y-53222115D01*
X118640749Y-53222110D01*
X118451768Y-53089784D01*
X118242679Y-52992284D01*
X118242673Y-52992282D01*
X118148490Y-52967045D01*
X118019830Y-52932571D01*
X117790000Y-52912464D01*
X117560170Y-52932571D01*
X117337326Y-52992282D01*
X117337320Y-52992284D01*
X117128231Y-53089784D01*
X116939250Y-53222110D01*
X116939244Y-53222115D01*
X116776115Y-53385244D01*
X116776110Y-53385250D01*
X116643782Y-53574233D01*
X116634194Y-53594796D01*
X116587277Y-53648081D01*
X116518999Y-53667541D01*
X116451039Y-53646999D01*
X116405806Y-53594796D01*
X116396217Y-53574233D01*
X116263889Y-53385250D01*
X116263884Y-53385244D01*
X116100755Y-53222115D01*
X116100749Y-53222110D01*
X115911768Y-53089784D01*
X115702679Y-52992284D01*
X115702673Y-52992282D01*
X115608490Y-52967045D01*
X115479830Y-52932571D01*
X115250000Y-52912464D01*
X115020170Y-52932571D01*
X114797326Y-52992282D01*
X114797320Y-52992284D01*
X114588231Y-53089784D01*
X114399250Y-53222110D01*
X114399244Y-53222115D01*
X114236115Y-53385244D01*
X114236110Y-53385250D01*
X114103784Y-53574231D01*
X114006284Y-53783320D01*
X114006282Y-53783326D01*
X113946571Y-54006170D01*
X113926464Y-54236000D01*
X113946571Y-54465829D01*
X114006282Y-54688673D01*
X114006284Y-54688679D01*
X114060273Y-54804458D01*
X114103784Y-54897768D01*
X114236113Y-55086753D01*
X114399247Y-55249887D01*
X114399250Y-55249889D01*
X114588233Y-55382217D01*
X114608796Y-55391806D01*
X114662081Y-55438723D01*
X114681541Y-55507001D01*
X114660999Y-55574961D01*
X114608796Y-55620194D01*
X114588233Y-55629782D01*
X114399250Y-55762110D01*
X114399244Y-55762115D01*
X114236115Y-55925244D01*
X114236110Y-55925250D01*
X114103784Y-56114231D01*
X114006284Y-56323320D01*
X114006282Y-56323326D01*
X113946571Y-56546170D01*
X113926464Y-56776000D01*
X113946571Y-57005829D01*
X114006282Y-57228673D01*
X114006284Y-57228679D01*
X114060273Y-57344458D01*
X114103784Y-57437768D01*
X114236113Y-57626753D01*
X114399247Y-57789887D01*
X114399250Y-57789889D01*
X114588233Y-57922217D01*
X114608796Y-57931806D01*
X114662081Y-57978723D01*
X114681541Y-58047001D01*
X114660999Y-58114961D01*
X114608796Y-58160194D01*
X114588233Y-58169782D01*
X114399250Y-58302110D01*
X114399244Y-58302115D01*
X114236115Y-58465244D01*
X114236110Y-58465250D01*
X114103784Y-58654231D01*
X114006284Y-58863320D01*
X114006283Y-58863324D01*
X113946571Y-59086170D01*
X113926464Y-59316000D01*
X113946571Y-59545830D01*
X114006283Y-59768676D01*
X114103784Y-59977768D01*
X114236113Y-60166753D01*
X114399247Y-60329887D01*
X114399250Y-60329889D01*
X114588233Y-60462217D01*
X114608796Y-60471806D01*
X114662081Y-60518723D01*
X114681541Y-60587001D01*
X114660999Y-60654961D01*
X114608796Y-60700194D01*
X114588233Y-60709782D01*
X114399250Y-60842110D01*
X114399244Y-60842115D01*
X114236115Y-61005244D01*
X114236110Y-61005250D01*
X114103784Y-61194231D01*
X114006284Y-61403320D01*
X114006283Y-61403324D01*
X113946571Y-61626170D01*
X113926464Y-61856000D01*
X107200000Y-61856000D01*
X107200000Y-56098985D01*
X107220002Y-56030864D01*
X107273658Y-55984371D01*
X107343932Y-55974267D01*
X107408512Y-56003761D01*
X107430289Y-56028276D01*
X107552518Y-56208551D01*
X107673640Y-56351148D01*
X108849994Y-55174794D01*
X108851570Y-55177365D01*
X109015130Y-55368870D01*
X109206635Y-55532430D01*
X109209203Y-55534004D01*
X108029870Y-56713337D01*
X108037713Y-56720766D01*
X108037719Y-56720771D01*
X108318969Y-56934572D01*
X108621678Y-57116706D01*
X108942316Y-57265049D01*
X108942320Y-57265051D01*
X109277103Y-57377852D01*
X109277117Y-57377856D01*
X109622127Y-57453800D01*
X109622151Y-57453804D01*
X109973348Y-57491999D01*
X109973364Y-57492000D01*
X110326636Y-57492000D01*
X110326651Y-57491999D01*
X110677848Y-57453804D01*
X110677872Y-57453800D01*
X111022882Y-57377856D01*
X111022896Y-57377852D01*
X111357679Y-57265051D01*
X111357683Y-57265049D01*
X111678321Y-57116706D01*
X111981030Y-56934572D01*
X112262276Y-56720774D01*
X112262282Y-56720769D01*
X112270127Y-56713338D01*
X112270127Y-56713336D01*
X111090795Y-55534004D01*
X111093365Y-55532430D01*
X111284870Y-55368870D01*
X111448430Y-55177365D01*
X111450004Y-55174795D01*
X112626357Y-56351148D01*
X112747482Y-56208551D01*
X112945741Y-55916140D01*
X112945743Y-55916136D01*
X113111223Y-55604005D01*
X113111227Y-55603996D01*
X113241989Y-55275811D01*
X113241990Y-55275808D01*
X113336503Y-54935401D01*
X113336503Y-54935398D01*
X113393657Y-54586769D01*
X113412785Y-54234002D01*
X113412785Y-54233997D01*
X113393657Y-53881230D01*
X113336503Y-53532601D01*
X113336503Y-53532598D01*
X113241990Y-53192191D01*
X113241989Y-53192188D01*
X113111227Y-52864003D01*
X113111223Y-52863994D01*
X112945743Y-52551863D01*
X112945741Y-52551859D01*
X112747481Y-52259448D01*
X112747482Y-52259448D01*
X112626357Y-52116850D01*
X111450004Y-53293203D01*
X111448430Y-53290635D01*
X111284870Y-53099130D01*
X111093365Y-52935570D01*
X111090794Y-52933994D01*
X112270128Y-51754661D01*
X112262286Y-51747233D01*
X112262280Y-51747228D01*
X111981030Y-51533427D01*
X111834834Y-51445464D01*
X111786777Y-51393205D01*
X111774601Y-51323260D01*
X111802174Y-51257836D01*
X111860740Y-51217705D01*
X111899794Y-51211500D01*
X182093530Y-51211500D01*
X182161651Y-51231502D01*
G37*
G04 #@! TD.AperFunction*
M02*
