G04 #@! TF.GenerationSoftware,KiCad,Pcbnew,5.1.6-1.fc32*
G04 #@! TF.CreationDate,2020-09-17T12:37:49-03:00*
G04 #@! TF.ProjectId,pc104-adapter-bottom,70633130-342d-4616-9461-707465722d62,v2.0*
G04 #@! TF.SameCoordinates,Original*
G04 #@! TF.FileFunction,Copper,L4,Bot*
G04 #@! TF.FilePolarity,Positive*
%FSLAX46Y46*%
G04 Gerber Fmt 4.6, Leading zero omitted, Abs format (unit mm)*
G04 Created by KiCad (PCBNEW 5.1.6-1.fc32) date 2020-09-17 12:37:49*
%MOMM*%
%LPD*%
G01*
G04 APERTURE LIST*
G04 #@! TA.AperFunction,ComponentPad*
%ADD10C,5.500000*%
G04 #@! TD*
G04 #@! TA.AperFunction,ViaPad*
%ADD11C,1.620000*%
G04 #@! TD*
G04 #@! TA.AperFunction,ViaPad*
%ADD12C,0.800000*%
G04 #@! TD*
G04 #@! TA.AperFunction,Conductor*
%ADD13C,0.250000*%
G04 #@! TD*
G04 #@! TA.AperFunction,Conductor*
%ADD14C,0.254000*%
G04 #@! TD*
G04 APERTURE END LIST*
D10*
X105350000Y-140866000D03*
X185390000Y-140866000D03*
D11*
X177750000Y-55136000D03*
X177750000Y-57676000D03*
X175210000Y-55136000D03*
X175210000Y-57676000D03*
X172670000Y-55136000D03*
X172670000Y-57676000D03*
X170130000Y-55136000D03*
X170130000Y-57676000D03*
X167590000Y-55136000D03*
X167590000Y-57676000D03*
X165050000Y-55136000D03*
X165050000Y-57676000D03*
X162510000Y-55136000D03*
X162510000Y-57676000D03*
X159970000Y-55136000D03*
X159970000Y-57676000D03*
X157430000Y-55136000D03*
X157430000Y-57676000D03*
X154890000Y-55136000D03*
X154890000Y-57676000D03*
X152350000Y-55136000D03*
X152350000Y-57676000D03*
X149810000Y-55136000D03*
X149810000Y-57676000D03*
X147270000Y-55136000D03*
X147270000Y-57676000D03*
X144730000Y-55136000D03*
X144730000Y-57676000D03*
X142190000Y-55136000D03*
X142190000Y-57676000D03*
X139650000Y-55136000D03*
X139650000Y-57676000D03*
X137110000Y-55136000D03*
X137110000Y-57676000D03*
X134570000Y-55136000D03*
X134570000Y-57676000D03*
X132030000Y-55136000D03*
X132030000Y-57676000D03*
X129490000Y-55136000D03*
X129490000Y-57676000D03*
X126950000Y-55136000D03*
X126950000Y-57676000D03*
X124410000Y-55136000D03*
X124410000Y-57676000D03*
X121870000Y-55136000D03*
X121870000Y-57676000D03*
X119330000Y-55136000D03*
X119330000Y-57676000D03*
X116790000Y-55136000D03*
X116790000Y-57676000D03*
X114250000Y-55136000D03*
X114250000Y-57676000D03*
X177750000Y-60216000D03*
X177750000Y-62756000D03*
X175210000Y-60216000D03*
X175210000Y-62756000D03*
X172670000Y-60216000D03*
X172670000Y-62756000D03*
X170130000Y-60216000D03*
X170130000Y-62756000D03*
X167590000Y-60216000D03*
X167590000Y-62756000D03*
X165050000Y-60216000D03*
X165050000Y-62756000D03*
X162510000Y-60216000D03*
X162510000Y-62756000D03*
X159970000Y-60216000D03*
X159970000Y-62756000D03*
X157430000Y-60216000D03*
X157430000Y-62756000D03*
X154890000Y-60216000D03*
X154890000Y-62756000D03*
X152350000Y-60216000D03*
X152350000Y-62756000D03*
X149810000Y-60216000D03*
X149810000Y-62756000D03*
X147270000Y-60216000D03*
X147270000Y-62756000D03*
X144730000Y-60216000D03*
X144730000Y-62756000D03*
X142190000Y-60216000D03*
X142190000Y-62756000D03*
X139650000Y-60216000D03*
X139650000Y-62756000D03*
X137110000Y-60216000D03*
X137110000Y-62756000D03*
X134570000Y-60216000D03*
X134570000Y-62756000D03*
X132030000Y-60216000D03*
X132030000Y-62756000D03*
X129490000Y-60216000D03*
X129490000Y-62756000D03*
X126950000Y-60216000D03*
X126950000Y-62756000D03*
X124410000Y-60216000D03*
X124410000Y-62756000D03*
X121870000Y-60216000D03*
X121870000Y-62756000D03*
X119330000Y-60216000D03*
X119330000Y-62756000D03*
X116790000Y-60216000D03*
X116790000Y-62756000D03*
X114250000Y-60216000D03*
X114250000Y-62756000D03*
D10*
X182840000Y-55136000D03*
X109160000Y-55136000D03*
D12*
X123703500Y-85377500D03*
X122174400Y-87452800D03*
X122455300Y-67511700D03*
X122218700Y-83109300D03*
X119326900Y-79244800D03*
X119663000Y-80658000D03*
X122204600Y-80568300D03*
X122350200Y-68731500D03*
X119679100Y-77840700D03*
X119630600Y-75419500D03*
X121269500Y-69249700D03*
X143245500Y-88215600D03*
X140722400Y-87579700D03*
X144643600Y-64591300D03*
X143485100Y-69785000D03*
X140611600Y-82968800D03*
X138021400Y-74628800D03*
X142960200Y-73986100D03*
X139851600Y-77899400D03*
X138963900Y-77232500D03*
X141188600Y-71621400D03*
X141984000Y-74461300D03*
X160695400Y-67550400D03*
X158762600Y-65600800D03*
X158003100Y-64918500D03*
X158628200Y-81052200D03*
X156557400Y-68173300D03*
X159263700Y-85500000D03*
X161795400Y-85731600D03*
X155766800Y-69002100D03*
X159273100Y-88845400D03*
X159271400Y-90500000D03*
X174181100Y-74990600D03*
X175182900Y-75014600D03*
X172746900Y-76528900D03*
X172342300Y-79147000D03*
X169667300Y-80343800D03*
X170472700Y-72179200D03*
X168038800Y-66255100D03*
X169791600Y-85660400D03*
X168774600Y-85901300D03*
X111684100Y-89453000D03*
X109148200Y-88172500D03*
X109138600Y-86892800D03*
X112432200Y-84971800D03*
X132714000Y-89485500D03*
X132728900Y-88203500D03*
X141191000Y-68810800D03*
X150008000Y-74484900D03*
X150595500Y-73651100D03*
X153506900Y-76448800D03*
X151761900Y-77693600D03*
X152776900Y-77949000D03*
X151472300Y-70202800D03*
X182861500Y-81961000D03*
X180303800Y-82946600D03*
X180320500Y-84469800D03*
X180304600Y-85951800D03*
X180328100Y-87034400D03*
X180325400Y-88315500D03*
X179294200Y-88362400D03*
D13*
X122204600Y-80568300D02*
X120465400Y-78829100D01*
X120465400Y-78829100D02*
X120465400Y-58811400D01*
X120465400Y-58811400D02*
X119330000Y-57676000D01*
X114250000Y-55136000D02*
X115654600Y-56540600D01*
X115654600Y-56540600D02*
X115654600Y-71443500D01*
X115654600Y-71443500D02*
X119630600Y-75419500D01*
X162510000Y-57676000D02*
X161182700Y-59003300D01*
X161182700Y-59003300D02*
X161182700Y-67063100D01*
X161182700Y-67063100D02*
X160695400Y-67550400D01*
X158762600Y-65600800D02*
X158762600Y-56468600D01*
X158762600Y-56468600D02*
X157430000Y-55136000D01*
X158628200Y-81052200D02*
X158628200Y-68493000D01*
X158628200Y-68493000D02*
X156294600Y-66159400D01*
X156294600Y-66159400D02*
X156294600Y-59080600D01*
X156294600Y-59080600D02*
X154890000Y-57676000D01*
X175210000Y-57676000D02*
X173805400Y-59080600D01*
X173805400Y-59080600D02*
X173805400Y-74340600D01*
X173805400Y-74340600D02*
X173455800Y-74690200D01*
X173455800Y-74690200D02*
X173455800Y-75291000D01*
X173455800Y-75291000D02*
X173543200Y-75378400D01*
X173543200Y-75378400D02*
X173543200Y-77946100D01*
X173543200Y-77946100D02*
X172342300Y-79147000D01*
X169667300Y-80343800D02*
X171301100Y-78710000D01*
X171301100Y-78710000D02*
X171301100Y-59044900D01*
X171301100Y-59044900D02*
X172670000Y-57676000D01*
D14*
G36*
X180459070Y-52934678D02*
G01*
X180015497Y-53240859D01*
X179700046Y-53828306D01*
X179505260Y-54466008D01*
X179438628Y-55129457D01*
X179502708Y-55793158D01*
X179695038Y-56431605D01*
X180008228Y-57020262D01*
X180015497Y-57031141D01*
X180459072Y-57337323D01*
X182660395Y-55136000D01*
X182646253Y-55121858D01*
X182825858Y-54942253D01*
X182840000Y-54956395D01*
X182854143Y-54942253D01*
X183033748Y-55121858D01*
X183019605Y-55136000D01*
X183033748Y-55150143D01*
X182854143Y-55329748D01*
X182840000Y-55315605D01*
X180638677Y-57516928D01*
X180944859Y-57960503D01*
X181532306Y-58275954D01*
X182170008Y-58470740D01*
X182833457Y-58537372D01*
X183497158Y-58473292D01*
X184135605Y-58280962D01*
X184724262Y-57967772D01*
X184735141Y-57960503D01*
X185041322Y-57516930D01*
X185130000Y-57605608D01*
X185130000Y-60670876D01*
X185133024Y-60701575D01*
X185132959Y-60710820D01*
X185133926Y-60720686D01*
X185164526Y-61011831D01*
X185177466Y-61074868D01*
X185189524Y-61138080D01*
X185192389Y-61147570D01*
X185278957Y-61427226D01*
X185303883Y-61486521D01*
X185328001Y-61546215D01*
X185332655Y-61554967D01*
X185471894Y-61812483D01*
X185507873Y-61865825D01*
X185543114Y-61919678D01*
X185549379Y-61927360D01*
X185735984Y-62152927D01*
X185781621Y-62198246D01*
X185826669Y-62244248D01*
X185834308Y-62250566D01*
X186061172Y-62435592D01*
X186114732Y-62471177D01*
X186167868Y-62507560D01*
X186176588Y-62512275D01*
X186435069Y-62649712D01*
X186494544Y-62674225D01*
X186553711Y-62699584D01*
X186563181Y-62702516D01*
X186843435Y-62787130D01*
X186906525Y-62799622D01*
X186969506Y-62813009D01*
X186979365Y-62814045D01*
X187270717Y-62842612D01*
X187270723Y-62842612D01*
X187305123Y-62846000D01*
X187690001Y-62846000D01*
X187690001Y-97773000D01*
X103010000Y-97773000D01*
X103010000Y-89351061D01*
X110649100Y-89351061D01*
X110649100Y-89554939D01*
X110688874Y-89754898D01*
X110766895Y-89943256D01*
X110880163Y-90112774D01*
X111024326Y-90256937D01*
X111193844Y-90370205D01*
X111382202Y-90448226D01*
X111582161Y-90488000D01*
X111786039Y-90488000D01*
X111985998Y-90448226D01*
X112174356Y-90370205D01*
X112343874Y-90256937D01*
X112488037Y-90112774D01*
X112601305Y-89943256D01*
X112679326Y-89754898D01*
X112719100Y-89554939D01*
X112719100Y-89383561D01*
X131679000Y-89383561D01*
X131679000Y-89587439D01*
X131718774Y-89787398D01*
X131796795Y-89975756D01*
X131910063Y-90145274D01*
X132054226Y-90289437D01*
X132223744Y-90402705D01*
X132412102Y-90480726D01*
X132612061Y-90520500D01*
X132815939Y-90520500D01*
X133015898Y-90480726D01*
X133204256Y-90402705D01*
X133211206Y-90398061D01*
X158236400Y-90398061D01*
X158236400Y-90601939D01*
X158276174Y-90801898D01*
X158354195Y-90990256D01*
X158467463Y-91159774D01*
X158611626Y-91303937D01*
X158781144Y-91417205D01*
X158969502Y-91495226D01*
X159169461Y-91535000D01*
X159373339Y-91535000D01*
X159573298Y-91495226D01*
X159761656Y-91417205D01*
X159931174Y-91303937D01*
X160075337Y-91159774D01*
X160188605Y-90990256D01*
X160266626Y-90801898D01*
X160306400Y-90601939D01*
X160306400Y-90398061D01*
X160266626Y-90198102D01*
X160188605Y-90009744D01*
X160075337Y-89840226D01*
X159931174Y-89696063D01*
X159897059Y-89673268D01*
X159932874Y-89649337D01*
X160077037Y-89505174D01*
X160190305Y-89335656D01*
X160268326Y-89147298D01*
X160308100Y-88947339D01*
X160308100Y-88743461D01*
X160268326Y-88543502D01*
X160190305Y-88355144D01*
X160127041Y-88260461D01*
X178259200Y-88260461D01*
X178259200Y-88464339D01*
X178298974Y-88664298D01*
X178376995Y-88852656D01*
X178490263Y-89022174D01*
X178634426Y-89166337D01*
X178803944Y-89279605D01*
X178992302Y-89357626D01*
X179192261Y-89397400D01*
X179396139Y-89397400D01*
X179596098Y-89357626D01*
X179784456Y-89279605D01*
X179847183Y-89237692D01*
X180023502Y-89310726D01*
X180223461Y-89350500D01*
X180427339Y-89350500D01*
X180627298Y-89310726D01*
X180815656Y-89232705D01*
X180985174Y-89119437D01*
X181129337Y-88975274D01*
X181242605Y-88805756D01*
X181320626Y-88617398D01*
X181360400Y-88417439D01*
X181360400Y-88213561D01*
X181320626Y-88013602D01*
X181242605Y-87825244D01*
X181143532Y-87676970D01*
X181245305Y-87524656D01*
X181323326Y-87336298D01*
X181363100Y-87136339D01*
X181363100Y-86932461D01*
X181323326Y-86732502D01*
X181245305Y-86544144D01*
X181199449Y-86475515D01*
X181221805Y-86442056D01*
X181299826Y-86253698D01*
X181339600Y-86053739D01*
X181339600Y-85849861D01*
X181299826Y-85649902D01*
X181221805Y-85461544D01*
X181108537Y-85292026D01*
X181035261Y-85218750D01*
X181124437Y-85129574D01*
X181237705Y-84960056D01*
X181315726Y-84771698D01*
X181355500Y-84571739D01*
X181355500Y-84367861D01*
X181315726Y-84167902D01*
X181237705Y-83979544D01*
X181124437Y-83810026D01*
X181014261Y-83699850D01*
X181107737Y-83606374D01*
X181221005Y-83436856D01*
X181299026Y-83248498D01*
X181338800Y-83048539D01*
X181338800Y-82844661D01*
X181299026Y-82644702D01*
X181221005Y-82456344D01*
X181107737Y-82286826D01*
X180963574Y-82142663D01*
X180794056Y-82029395D01*
X180605698Y-81951374D01*
X180405739Y-81911600D01*
X180201861Y-81911600D01*
X180001902Y-81951374D01*
X179813544Y-82029395D01*
X179644026Y-82142663D01*
X179499863Y-82286826D01*
X179386595Y-82456344D01*
X179308574Y-82644702D01*
X179268800Y-82844661D01*
X179268800Y-83048539D01*
X179308574Y-83248498D01*
X179386595Y-83436856D01*
X179499863Y-83606374D01*
X179610039Y-83716550D01*
X179516563Y-83810026D01*
X179403295Y-83979544D01*
X179325274Y-84167902D01*
X179285500Y-84367861D01*
X179285500Y-84571739D01*
X179325274Y-84771698D01*
X179403295Y-84960056D01*
X179516563Y-85129574D01*
X179589839Y-85202850D01*
X179500663Y-85292026D01*
X179387395Y-85461544D01*
X179309374Y-85649902D01*
X179269600Y-85849861D01*
X179269600Y-86053739D01*
X179309374Y-86253698D01*
X179387395Y-86442056D01*
X179433251Y-86510685D01*
X179410895Y-86544144D01*
X179332874Y-86732502D01*
X179293100Y-86932461D01*
X179293100Y-87136339D01*
X179331104Y-87327400D01*
X179192261Y-87327400D01*
X178992302Y-87367174D01*
X178803944Y-87445195D01*
X178634426Y-87558463D01*
X178490263Y-87702626D01*
X178376995Y-87872144D01*
X178298974Y-88060502D01*
X178259200Y-88260461D01*
X160127041Y-88260461D01*
X160077037Y-88185626D01*
X159932874Y-88041463D01*
X159763356Y-87928195D01*
X159574998Y-87850174D01*
X159375039Y-87810400D01*
X159171161Y-87810400D01*
X158971202Y-87850174D01*
X158782844Y-87928195D01*
X158613326Y-88041463D01*
X158469163Y-88185626D01*
X158355895Y-88355144D01*
X158277874Y-88543502D01*
X158238100Y-88743461D01*
X158238100Y-88947339D01*
X158277874Y-89147298D01*
X158355895Y-89335656D01*
X158469163Y-89505174D01*
X158613326Y-89649337D01*
X158647441Y-89672132D01*
X158611626Y-89696063D01*
X158467463Y-89840226D01*
X158354195Y-90009744D01*
X158276174Y-90198102D01*
X158236400Y-90398061D01*
X133211206Y-90398061D01*
X133373774Y-90289437D01*
X133517937Y-90145274D01*
X133631205Y-89975756D01*
X133709226Y-89787398D01*
X133749000Y-89587439D01*
X133749000Y-89383561D01*
X133709226Y-89183602D01*
X133631205Y-88995244D01*
X133537931Y-88855650D01*
X133646105Y-88693756D01*
X133724126Y-88505398D01*
X133763900Y-88305439D01*
X133763900Y-88101561D01*
X133724126Y-87901602D01*
X133646105Y-87713244D01*
X133532837Y-87543726D01*
X133466872Y-87477761D01*
X139687400Y-87477761D01*
X139687400Y-87681639D01*
X139727174Y-87881598D01*
X139805195Y-88069956D01*
X139918463Y-88239474D01*
X140062626Y-88383637D01*
X140232144Y-88496905D01*
X140420502Y-88574926D01*
X140620461Y-88614700D01*
X140824339Y-88614700D01*
X141024298Y-88574926D01*
X141212656Y-88496905D01*
X141382174Y-88383637D01*
X141526337Y-88239474D01*
X141610402Y-88113661D01*
X142210500Y-88113661D01*
X142210500Y-88317539D01*
X142250274Y-88517498D01*
X142328295Y-88705856D01*
X142441563Y-88875374D01*
X142585726Y-89019537D01*
X142755244Y-89132805D01*
X142943602Y-89210826D01*
X143143561Y-89250600D01*
X143347439Y-89250600D01*
X143547398Y-89210826D01*
X143735756Y-89132805D01*
X143905274Y-89019537D01*
X144049437Y-88875374D01*
X144162705Y-88705856D01*
X144240726Y-88517498D01*
X144280500Y-88317539D01*
X144280500Y-88113661D01*
X144240726Y-87913702D01*
X144162705Y-87725344D01*
X144049437Y-87555826D01*
X143905274Y-87411663D01*
X143735756Y-87298395D01*
X143547398Y-87220374D01*
X143347439Y-87180600D01*
X143143561Y-87180600D01*
X142943602Y-87220374D01*
X142755244Y-87298395D01*
X142585726Y-87411663D01*
X142441563Y-87555826D01*
X142328295Y-87725344D01*
X142250274Y-87913702D01*
X142210500Y-88113661D01*
X141610402Y-88113661D01*
X141639605Y-88069956D01*
X141717626Y-87881598D01*
X141757400Y-87681639D01*
X141757400Y-87477761D01*
X141717626Y-87277802D01*
X141639605Y-87089444D01*
X141526337Y-86919926D01*
X141382174Y-86775763D01*
X141212656Y-86662495D01*
X141024298Y-86584474D01*
X140824339Y-86544700D01*
X140620461Y-86544700D01*
X140420502Y-86584474D01*
X140232144Y-86662495D01*
X140062626Y-86775763D01*
X139918463Y-86919926D01*
X139805195Y-87089444D01*
X139727174Y-87277802D01*
X139687400Y-87477761D01*
X133466872Y-87477761D01*
X133388674Y-87399563D01*
X133219156Y-87286295D01*
X133030798Y-87208274D01*
X132830839Y-87168500D01*
X132626961Y-87168500D01*
X132427002Y-87208274D01*
X132238644Y-87286295D01*
X132069126Y-87399563D01*
X131924963Y-87543726D01*
X131811695Y-87713244D01*
X131733674Y-87901602D01*
X131693900Y-88101561D01*
X131693900Y-88305439D01*
X131733674Y-88505398D01*
X131811695Y-88693756D01*
X131904969Y-88833350D01*
X131796795Y-88995244D01*
X131718774Y-89183602D01*
X131679000Y-89383561D01*
X112719100Y-89383561D01*
X112719100Y-89351061D01*
X112679326Y-89151102D01*
X112601305Y-88962744D01*
X112488037Y-88793226D01*
X112343874Y-88649063D01*
X112174356Y-88535795D01*
X111985998Y-88457774D01*
X111786039Y-88418000D01*
X111582161Y-88418000D01*
X111382202Y-88457774D01*
X111193844Y-88535795D01*
X111024326Y-88649063D01*
X110880163Y-88793226D01*
X110766895Y-88962744D01*
X110688874Y-89151102D01*
X110649100Y-89351061D01*
X103010000Y-89351061D01*
X103010000Y-86790861D01*
X108103600Y-86790861D01*
X108103600Y-86994739D01*
X108143374Y-87194698D01*
X108221395Y-87383056D01*
X108326150Y-87539834D01*
X108230995Y-87682244D01*
X108152974Y-87870602D01*
X108113200Y-88070561D01*
X108113200Y-88274439D01*
X108152974Y-88474398D01*
X108230995Y-88662756D01*
X108344263Y-88832274D01*
X108488426Y-88976437D01*
X108657944Y-89089705D01*
X108846302Y-89167726D01*
X109046261Y-89207500D01*
X109250139Y-89207500D01*
X109450098Y-89167726D01*
X109638456Y-89089705D01*
X109807974Y-88976437D01*
X109952137Y-88832274D01*
X110065405Y-88662756D01*
X110143426Y-88474398D01*
X110183200Y-88274439D01*
X110183200Y-88070561D01*
X110143426Y-87870602D01*
X110065405Y-87682244D01*
X109960650Y-87525466D01*
X110055805Y-87383056D01*
X110069140Y-87350861D01*
X121139400Y-87350861D01*
X121139400Y-87554739D01*
X121179174Y-87754698D01*
X121257195Y-87943056D01*
X121370463Y-88112574D01*
X121514626Y-88256737D01*
X121684144Y-88370005D01*
X121872502Y-88448026D01*
X122072461Y-88487800D01*
X122276339Y-88487800D01*
X122476298Y-88448026D01*
X122664656Y-88370005D01*
X122834174Y-88256737D01*
X122978337Y-88112574D01*
X123091605Y-87943056D01*
X123169626Y-87754698D01*
X123209400Y-87554739D01*
X123209400Y-87350861D01*
X123169626Y-87150902D01*
X123091605Y-86962544D01*
X122978337Y-86793026D01*
X122834174Y-86648863D01*
X122664656Y-86535595D01*
X122476298Y-86457574D01*
X122276339Y-86417800D01*
X122072461Y-86417800D01*
X121872502Y-86457574D01*
X121684144Y-86535595D01*
X121514626Y-86648863D01*
X121370463Y-86793026D01*
X121257195Y-86962544D01*
X121179174Y-87150902D01*
X121139400Y-87350861D01*
X110069140Y-87350861D01*
X110133826Y-87194698D01*
X110173600Y-86994739D01*
X110173600Y-86790861D01*
X110133826Y-86590902D01*
X110055805Y-86402544D01*
X109942537Y-86233026D01*
X109798374Y-86088863D01*
X109628856Y-85975595D01*
X109440498Y-85897574D01*
X109240539Y-85857800D01*
X109036661Y-85857800D01*
X108836702Y-85897574D01*
X108648344Y-85975595D01*
X108478826Y-86088863D01*
X108334663Y-86233026D01*
X108221395Y-86402544D01*
X108143374Y-86590902D01*
X108103600Y-86790861D01*
X103010000Y-86790861D01*
X103010000Y-84869861D01*
X111397200Y-84869861D01*
X111397200Y-85073739D01*
X111436974Y-85273698D01*
X111514995Y-85462056D01*
X111628263Y-85631574D01*
X111772426Y-85775737D01*
X111941944Y-85889005D01*
X112130302Y-85967026D01*
X112330261Y-86006800D01*
X112534139Y-86006800D01*
X112734098Y-85967026D01*
X112922456Y-85889005D01*
X113091974Y-85775737D01*
X113236137Y-85631574D01*
X113349405Y-85462056D01*
X113426654Y-85275561D01*
X122668500Y-85275561D01*
X122668500Y-85479439D01*
X122708274Y-85679398D01*
X122786295Y-85867756D01*
X122899563Y-86037274D01*
X123043726Y-86181437D01*
X123213244Y-86294705D01*
X123401602Y-86372726D01*
X123601561Y-86412500D01*
X123805439Y-86412500D01*
X124005398Y-86372726D01*
X124193756Y-86294705D01*
X124363274Y-86181437D01*
X124507437Y-86037274D01*
X124620705Y-85867756D01*
X124698726Y-85679398D01*
X124738500Y-85479439D01*
X124738500Y-85398061D01*
X158228700Y-85398061D01*
X158228700Y-85601939D01*
X158268474Y-85801898D01*
X158346495Y-85990256D01*
X158459763Y-86159774D01*
X158603926Y-86303937D01*
X158773444Y-86417205D01*
X158961802Y-86495226D01*
X159161761Y-86535000D01*
X159365639Y-86535000D01*
X159565598Y-86495226D01*
X159753956Y-86417205D01*
X159923474Y-86303937D01*
X160067637Y-86159774D01*
X160180905Y-85990256D01*
X160258926Y-85801898D01*
X160293185Y-85629661D01*
X160760400Y-85629661D01*
X160760400Y-85833539D01*
X160800174Y-86033498D01*
X160878195Y-86221856D01*
X160991463Y-86391374D01*
X161135626Y-86535537D01*
X161305144Y-86648805D01*
X161493502Y-86726826D01*
X161693461Y-86766600D01*
X161897339Y-86766600D01*
X162097298Y-86726826D01*
X162285656Y-86648805D01*
X162455174Y-86535537D01*
X162599337Y-86391374D01*
X162712605Y-86221856D01*
X162790626Y-86033498D01*
X162830400Y-85833539D01*
X162830400Y-85799361D01*
X167739600Y-85799361D01*
X167739600Y-86003239D01*
X167779374Y-86203198D01*
X167857395Y-86391556D01*
X167970663Y-86561074D01*
X168114826Y-86705237D01*
X168284344Y-86818505D01*
X168472702Y-86896526D01*
X168672661Y-86936300D01*
X168876539Y-86936300D01*
X169076498Y-86896526D01*
X169264856Y-86818505D01*
X169434374Y-86705237D01*
X169485659Y-86653952D01*
X169489702Y-86655626D01*
X169689661Y-86695400D01*
X169893539Y-86695400D01*
X170093498Y-86655626D01*
X170281856Y-86577605D01*
X170451374Y-86464337D01*
X170595537Y-86320174D01*
X170708805Y-86150656D01*
X170786826Y-85962298D01*
X170826600Y-85762339D01*
X170826600Y-85558461D01*
X170786826Y-85358502D01*
X170708805Y-85170144D01*
X170595537Y-85000626D01*
X170451374Y-84856463D01*
X170281856Y-84743195D01*
X170093498Y-84665174D01*
X169893539Y-84625400D01*
X169689661Y-84625400D01*
X169489702Y-84665174D01*
X169301344Y-84743195D01*
X169131826Y-84856463D01*
X169080541Y-84907748D01*
X169076498Y-84906074D01*
X168876539Y-84866300D01*
X168672661Y-84866300D01*
X168472702Y-84906074D01*
X168284344Y-84984095D01*
X168114826Y-85097363D01*
X167970663Y-85241526D01*
X167857395Y-85411044D01*
X167779374Y-85599402D01*
X167739600Y-85799361D01*
X162830400Y-85799361D01*
X162830400Y-85629661D01*
X162790626Y-85429702D01*
X162712605Y-85241344D01*
X162599337Y-85071826D01*
X162455174Y-84927663D01*
X162285656Y-84814395D01*
X162097298Y-84736374D01*
X161897339Y-84696600D01*
X161693461Y-84696600D01*
X161493502Y-84736374D01*
X161305144Y-84814395D01*
X161135626Y-84927663D01*
X160991463Y-85071826D01*
X160878195Y-85241344D01*
X160800174Y-85429702D01*
X160760400Y-85629661D01*
X160293185Y-85629661D01*
X160298700Y-85601939D01*
X160298700Y-85398061D01*
X160258926Y-85198102D01*
X160180905Y-85009744D01*
X160067637Y-84840226D01*
X159923474Y-84696063D01*
X159753956Y-84582795D01*
X159565598Y-84504774D01*
X159365639Y-84465000D01*
X159161761Y-84465000D01*
X158961802Y-84504774D01*
X158773444Y-84582795D01*
X158603926Y-84696063D01*
X158459763Y-84840226D01*
X158346495Y-85009744D01*
X158268474Y-85198102D01*
X158228700Y-85398061D01*
X124738500Y-85398061D01*
X124738500Y-85275561D01*
X124698726Y-85075602D01*
X124620705Y-84887244D01*
X124507437Y-84717726D01*
X124363274Y-84573563D01*
X124193756Y-84460295D01*
X124005398Y-84382274D01*
X123805439Y-84342500D01*
X123601561Y-84342500D01*
X123401602Y-84382274D01*
X123213244Y-84460295D01*
X123043726Y-84573563D01*
X122899563Y-84717726D01*
X122786295Y-84887244D01*
X122708274Y-85075602D01*
X122668500Y-85275561D01*
X113426654Y-85275561D01*
X113427426Y-85273698D01*
X113467200Y-85073739D01*
X113467200Y-84869861D01*
X113427426Y-84669902D01*
X113349405Y-84481544D01*
X113236137Y-84312026D01*
X113091974Y-84167863D01*
X112922456Y-84054595D01*
X112734098Y-83976574D01*
X112534139Y-83936800D01*
X112330261Y-83936800D01*
X112130302Y-83976574D01*
X111941944Y-84054595D01*
X111772426Y-84167863D01*
X111628263Y-84312026D01*
X111514995Y-84481544D01*
X111436974Y-84669902D01*
X111397200Y-84869861D01*
X103010000Y-84869861D01*
X103010000Y-83007361D01*
X121183700Y-83007361D01*
X121183700Y-83211239D01*
X121223474Y-83411198D01*
X121301495Y-83599556D01*
X121414763Y-83769074D01*
X121558926Y-83913237D01*
X121728444Y-84026505D01*
X121916802Y-84104526D01*
X122116761Y-84144300D01*
X122320639Y-84144300D01*
X122520598Y-84104526D01*
X122708956Y-84026505D01*
X122878474Y-83913237D01*
X123022637Y-83769074D01*
X123135905Y-83599556D01*
X123213926Y-83411198D01*
X123253700Y-83211239D01*
X123253700Y-83007361D01*
X123225754Y-82866861D01*
X139576600Y-82866861D01*
X139576600Y-83070739D01*
X139616374Y-83270698D01*
X139694395Y-83459056D01*
X139807663Y-83628574D01*
X139951826Y-83772737D01*
X140121344Y-83886005D01*
X140309702Y-83964026D01*
X140509661Y-84003800D01*
X140713539Y-84003800D01*
X140913498Y-83964026D01*
X141101856Y-83886005D01*
X141271374Y-83772737D01*
X141415537Y-83628574D01*
X141528805Y-83459056D01*
X141606826Y-83270698D01*
X141646600Y-83070739D01*
X141646600Y-82866861D01*
X141606826Y-82666902D01*
X141528805Y-82478544D01*
X141415537Y-82309026D01*
X141271374Y-82164863D01*
X141101856Y-82051595D01*
X140913498Y-81973574D01*
X140713539Y-81933800D01*
X140509661Y-81933800D01*
X140309702Y-81973574D01*
X140121344Y-82051595D01*
X139951826Y-82164863D01*
X139807663Y-82309026D01*
X139694395Y-82478544D01*
X139616374Y-82666902D01*
X139576600Y-82866861D01*
X123225754Y-82866861D01*
X123213926Y-82807402D01*
X123135905Y-82619044D01*
X123022637Y-82449526D01*
X122878474Y-82305363D01*
X122708956Y-82192095D01*
X122520598Y-82114074D01*
X122320639Y-82074300D01*
X122116761Y-82074300D01*
X121916802Y-82114074D01*
X121728444Y-82192095D01*
X121558926Y-82305363D01*
X121414763Y-82449526D01*
X121301495Y-82619044D01*
X121223474Y-82807402D01*
X121183700Y-83007361D01*
X103010000Y-83007361D01*
X103010000Y-62846000D01*
X104694877Y-62846000D01*
X104725576Y-62842976D01*
X104734820Y-62843041D01*
X104744686Y-62842074D01*
X105035831Y-62811474D01*
X105098868Y-62798534D01*
X105162080Y-62786476D01*
X105171570Y-62783611D01*
X105451226Y-62697043D01*
X105510521Y-62672117D01*
X105570215Y-62647999D01*
X105578967Y-62643345D01*
X105836483Y-62504106D01*
X105889825Y-62468127D01*
X105943678Y-62432886D01*
X105951360Y-62426621D01*
X106176927Y-62240016D01*
X106222246Y-62194379D01*
X106268248Y-62149331D01*
X106274566Y-62141692D01*
X106459592Y-61914828D01*
X106495177Y-61861268D01*
X106531560Y-61808132D01*
X106536275Y-61799412D01*
X106673712Y-61540931D01*
X106698225Y-61481456D01*
X106723584Y-61422289D01*
X106726516Y-61412819D01*
X106811130Y-61132565D01*
X106823622Y-61069475D01*
X106837009Y-61006494D01*
X106838045Y-60996635D01*
X106866612Y-60705283D01*
X106866612Y-60705277D01*
X106870000Y-60670877D01*
X106870000Y-57605608D01*
X106958678Y-57516930D01*
X107264859Y-57960503D01*
X107852306Y-58275954D01*
X108490008Y-58470740D01*
X109153457Y-58537372D01*
X109817158Y-58473292D01*
X110455605Y-58280962D01*
X111044262Y-57967772D01*
X111055141Y-57960503D01*
X111361323Y-57516928D01*
X109160000Y-55315605D01*
X109145858Y-55329748D01*
X108966253Y-55150143D01*
X108980395Y-55136000D01*
X108966253Y-55121858D01*
X109145858Y-54942253D01*
X109160000Y-54956395D01*
X109174143Y-54942253D01*
X109353748Y-55121858D01*
X109339605Y-55136000D01*
X111540928Y-57337323D01*
X111984503Y-57031141D01*
X112299954Y-56443694D01*
X112494740Y-55805992D01*
X112561372Y-55142543D01*
X112547000Y-54993680D01*
X112805000Y-54993680D01*
X112805000Y-55278320D01*
X112860530Y-55557491D01*
X112969457Y-55820464D01*
X113127595Y-56057134D01*
X113328866Y-56258405D01*
X113549757Y-56406000D01*
X113328866Y-56553595D01*
X113127595Y-56754866D01*
X112969457Y-56991536D01*
X112860530Y-57254509D01*
X112805000Y-57533680D01*
X112805000Y-57818320D01*
X112860530Y-58097491D01*
X112969457Y-58360464D01*
X113127595Y-58597134D01*
X113328866Y-58798405D01*
X113549757Y-58946000D01*
X113328866Y-59093595D01*
X113127595Y-59294866D01*
X112969457Y-59531536D01*
X112860530Y-59794509D01*
X112805000Y-60073680D01*
X112805000Y-60358320D01*
X112860530Y-60637491D01*
X112969457Y-60900464D01*
X113127595Y-61137134D01*
X113328866Y-61338405D01*
X113549757Y-61486000D01*
X113328866Y-61633595D01*
X113127595Y-61834866D01*
X112969457Y-62071536D01*
X112860530Y-62334509D01*
X112805000Y-62613680D01*
X112805000Y-62898320D01*
X112860530Y-63177491D01*
X112969457Y-63440464D01*
X113127595Y-63677134D01*
X113328866Y-63878405D01*
X113565536Y-64036543D01*
X113828509Y-64145470D01*
X114107680Y-64201000D01*
X114392320Y-64201000D01*
X114671491Y-64145470D01*
X114894601Y-64053055D01*
X114894601Y-71406168D01*
X114890924Y-71443500D01*
X114905598Y-71592485D01*
X114949054Y-71735746D01*
X115019626Y-71867776D01*
X115090801Y-71954502D01*
X115114600Y-71983501D01*
X115143598Y-72007299D01*
X118595600Y-75459302D01*
X118595600Y-75521439D01*
X118635374Y-75721398D01*
X118713395Y-75909756D01*
X118826663Y-76079274D01*
X118970826Y-76223437D01*
X119140344Y-76336705D01*
X119328702Y-76414726D01*
X119528661Y-76454500D01*
X119705400Y-76454500D01*
X119705400Y-76805700D01*
X119577161Y-76805700D01*
X119377202Y-76845474D01*
X119188844Y-76923495D01*
X119019326Y-77036763D01*
X118875163Y-77180926D01*
X118761895Y-77350444D01*
X118683874Y-77538802D01*
X118644100Y-77738761D01*
X118644100Y-77942639D01*
X118683874Y-78142598D01*
X118761895Y-78330956D01*
X118783414Y-78363162D01*
X118667126Y-78440863D01*
X118522963Y-78585026D01*
X118409695Y-78754544D01*
X118331674Y-78942902D01*
X118291900Y-79142861D01*
X118291900Y-79346739D01*
X118331674Y-79546698D01*
X118409695Y-79735056D01*
X118522963Y-79904574D01*
X118667126Y-80048737D01*
X118776487Y-80121810D01*
X118745795Y-80167744D01*
X118667774Y-80356102D01*
X118628000Y-80556061D01*
X118628000Y-80759939D01*
X118667774Y-80959898D01*
X118745795Y-81148256D01*
X118859063Y-81317774D01*
X119003226Y-81461937D01*
X119172744Y-81575205D01*
X119361102Y-81653226D01*
X119561061Y-81693000D01*
X119764939Y-81693000D01*
X119964898Y-81653226D01*
X120153256Y-81575205D01*
X120322774Y-81461937D01*
X120466937Y-81317774D01*
X120580205Y-81148256D01*
X120658226Y-80959898D01*
X120698000Y-80759939D01*
X120698000Y-80556061D01*
X120658226Y-80356102D01*
X120580205Y-80167744D01*
X120466937Y-79998226D01*
X120322774Y-79854063D01*
X120213413Y-79780990D01*
X120244105Y-79735056D01*
X120259467Y-79697968D01*
X121169600Y-80608102D01*
X121169600Y-80670239D01*
X121209374Y-80870198D01*
X121287395Y-81058556D01*
X121400663Y-81228074D01*
X121544826Y-81372237D01*
X121714344Y-81485505D01*
X121902702Y-81563526D01*
X122102661Y-81603300D01*
X122306539Y-81603300D01*
X122506498Y-81563526D01*
X122694856Y-81485505D01*
X122864374Y-81372237D01*
X123008537Y-81228074D01*
X123121805Y-81058556D01*
X123199826Y-80870198D01*
X123239600Y-80670239D01*
X123239600Y-80466361D01*
X123199826Y-80266402D01*
X123121805Y-80078044D01*
X123008537Y-79908526D01*
X122864374Y-79764363D01*
X122694856Y-79651095D01*
X122506498Y-79573074D01*
X122306539Y-79533300D01*
X122244402Y-79533300D01*
X121225400Y-78514299D01*
X121225400Y-77130561D01*
X137928900Y-77130561D01*
X137928900Y-77334439D01*
X137968674Y-77534398D01*
X138046695Y-77722756D01*
X138159963Y-77892274D01*
X138304126Y-78036437D01*
X138473644Y-78149705D01*
X138662002Y-78227726D01*
X138861961Y-78267500D01*
X138883796Y-78267500D01*
X138934395Y-78389656D01*
X139047663Y-78559174D01*
X139191826Y-78703337D01*
X139361344Y-78816605D01*
X139549702Y-78894626D01*
X139749661Y-78934400D01*
X139953539Y-78934400D01*
X140153498Y-78894626D01*
X140341856Y-78816605D01*
X140511374Y-78703337D01*
X140655537Y-78559174D01*
X140768805Y-78389656D01*
X140846826Y-78201298D01*
X140886600Y-78001339D01*
X140886600Y-77797461D01*
X140846826Y-77597502D01*
X140844407Y-77591661D01*
X150726900Y-77591661D01*
X150726900Y-77795539D01*
X150766674Y-77995498D01*
X150844695Y-78183856D01*
X150957963Y-78353374D01*
X151102126Y-78497537D01*
X151271644Y-78610805D01*
X151460002Y-78688826D01*
X151659961Y-78728600D01*
X151863839Y-78728600D01*
X152054804Y-78690615D01*
X152117126Y-78752937D01*
X152286644Y-78866205D01*
X152475002Y-78944226D01*
X152674961Y-78984000D01*
X152878839Y-78984000D01*
X153078798Y-78944226D01*
X153267156Y-78866205D01*
X153436674Y-78752937D01*
X153580837Y-78608774D01*
X153694105Y-78439256D01*
X153772126Y-78250898D01*
X153811900Y-78050939D01*
X153811900Y-77847061D01*
X153772126Y-77647102D01*
X153697203Y-77466223D01*
X153808798Y-77444026D01*
X153997156Y-77366005D01*
X154166674Y-77252737D01*
X154310837Y-77108574D01*
X154424105Y-76939056D01*
X154502126Y-76750698D01*
X154541900Y-76550739D01*
X154541900Y-76346861D01*
X154502126Y-76146902D01*
X154424105Y-75958544D01*
X154310837Y-75789026D01*
X154166674Y-75644863D01*
X153997156Y-75531595D01*
X153808798Y-75453574D01*
X153608839Y-75413800D01*
X153404961Y-75413800D01*
X153205002Y-75453574D01*
X153016644Y-75531595D01*
X152847126Y-75644863D01*
X152702963Y-75789026D01*
X152589695Y-75958544D01*
X152511674Y-76146902D01*
X152471900Y-76346861D01*
X152471900Y-76550739D01*
X152511674Y-76750698D01*
X152586597Y-76931577D01*
X152483996Y-76951985D01*
X152421674Y-76889663D01*
X152252156Y-76776395D01*
X152063798Y-76698374D01*
X151863839Y-76658600D01*
X151659961Y-76658600D01*
X151460002Y-76698374D01*
X151271644Y-76776395D01*
X151102126Y-76889663D01*
X150957963Y-77033826D01*
X150844695Y-77203344D01*
X150766674Y-77391702D01*
X150726900Y-77591661D01*
X140844407Y-77591661D01*
X140768805Y-77409144D01*
X140655537Y-77239626D01*
X140511374Y-77095463D01*
X140341856Y-76982195D01*
X140153498Y-76904174D01*
X139953539Y-76864400D01*
X139931704Y-76864400D01*
X139881105Y-76742244D01*
X139767837Y-76572726D01*
X139623674Y-76428563D01*
X139454156Y-76315295D01*
X139265798Y-76237274D01*
X139065839Y-76197500D01*
X138861961Y-76197500D01*
X138662002Y-76237274D01*
X138473644Y-76315295D01*
X138304126Y-76428563D01*
X138159963Y-76572726D01*
X138046695Y-76742244D01*
X137968674Y-76930602D01*
X137928900Y-77130561D01*
X121225400Y-77130561D01*
X121225400Y-74526861D01*
X136986400Y-74526861D01*
X136986400Y-74730739D01*
X137026174Y-74930698D01*
X137104195Y-75119056D01*
X137217463Y-75288574D01*
X137361626Y-75432737D01*
X137531144Y-75546005D01*
X137719502Y-75624026D01*
X137919461Y-75663800D01*
X138123339Y-75663800D01*
X138323298Y-75624026D01*
X138511656Y-75546005D01*
X138681174Y-75432737D01*
X138825337Y-75288574D01*
X138938605Y-75119056D01*
X139016626Y-74930698D01*
X139056400Y-74730739D01*
X139056400Y-74526861D01*
X139023083Y-74359361D01*
X140949000Y-74359361D01*
X140949000Y-74563239D01*
X140988774Y-74763198D01*
X141066795Y-74951556D01*
X141180063Y-75121074D01*
X141324226Y-75265237D01*
X141493744Y-75378505D01*
X141682102Y-75456526D01*
X141882061Y-75496300D01*
X142085939Y-75496300D01*
X142285898Y-75456526D01*
X142474256Y-75378505D01*
X142643774Y-75265237D01*
X142787937Y-75121074D01*
X142855151Y-75020481D01*
X142858261Y-75021100D01*
X143062139Y-75021100D01*
X143262098Y-74981326D01*
X143450456Y-74903305D01*
X143619974Y-74790037D01*
X143764137Y-74645874D01*
X143877405Y-74476356D01*
X143916090Y-74382961D01*
X148973000Y-74382961D01*
X148973000Y-74586839D01*
X149012774Y-74786798D01*
X149090795Y-74975156D01*
X149204063Y-75144674D01*
X149348226Y-75288837D01*
X149517744Y-75402105D01*
X149706102Y-75480126D01*
X149906061Y-75519900D01*
X150109939Y-75519900D01*
X150309898Y-75480126D01*
X150498256Y-75402105D01*
X150667774Y-75288837D01*
X150811937Y-75144674D01*
X150925205Y-74975156D01*
X151003226Y-74786798D01*
X151043000Y-74586839D01*
X151043000Y-74586015D01*
X151085756Y-74568305D01*
X151255274Y-74455037D01*
X151399437Y-74310874D01*
X151512705Y-74141356D01*
X151590726Y-73952998D01*
X151630500Y-73753039D01*
X151630500Y-73549161D01*
X151590726Y-73349202D01*
X151512705Y-73160844D01*
X151399437Y-72991326D01*
X151255274Y-72847163D01*
X151085756Y-72733895D01*
X150897398Y-72655874D01*
X150697439Y-72616100D01*
X150493561Y-72616100D01*
X150293602Y-72655874D01*
X150105244Y-72733895D01*
X149935726Y-72847163D01*
X149791563Y-72991326D01*
X149678295Y-73160844D01*
X149600274Y-73349202D01*
X149560500Y-73549161D01*
X149560500Y-73549985D01*
X149517744Y-73567695D01*
X149348226Y-73680963D01*
X149204063Y-73825126D01*
X149090795Y-73994644D01*
X149012774Y-74183002D01*
X148973000Y-74382961D01*
X143916090Y-74382961D01*
X143955426Y-74287998D01*
X143995200Y-74088039D01*
X143995200Y-73884161D01*
X143955426Y-73684202D01*
X143877405Y-73495844D01*
X143764137Y-73326326D01*
X143619974Y-73182163D01*
X143450456Y-73068895D01*
X143262098Y-72990874D01*
X143062139Y-72951100D01*
X142858261Y-72951100D01*
X142658302Y-72990874D01*
X142469944Y-73068895D01*
X142300426Y-73182163D01*
X142156263Y-73326326D01*
X142089049Y-73426919D01*
X142085939Y-73426300D01*
X141882061Y-73426300D01*
X141682102Y-73466074D01*
X141493744Y-73544095D01*
X141324226Y-73657363D01*
X141180063Y-73801526D01*
X141066795Y-73971044D01*
X140988774Y-74159402D01*
X140949000Y-74359361D01*
X139023083Y-74359361D01*
X139016626Y-74326902D01*
X138938605Y-74138544D01*
X138825337Y-73969026D01*
X138681174Y-73824863D01*
X138511656Y-73711595D01*
X138323298Y-73633574D01*
X138123339Y-73593800D01*
X137919461Y-73593800D01*
X137719502Y-73633574D01*
X137531144Y-73711595D01*
X137361626Y-73824863D01*
X137217463Y-73969026D01*
X137104195Y-74138544D01*
X137026174Y-74326902D01*
X136986400Y-74526861D01*
X121225400Y-74526861D01*
X121225400Y-71519461D01*
X140153600Y-71519461D01*
X140153600Y-71723339D01*
X140193374Y-71923298D01*
X140271395Y-72111656D01*
X140384663Y-72281174D01*
X140528826Y-72425337D01*
X140698344Y-72538605D01*
X140886702Y-72616626D01*
X141086661Y-72656400D01*
X141290539Y-72656400D01*
X141490498Y-72616626D01*
X141678856Y-72538605D01*
X141848374Y-72425337D01*
X141992537Y-72281174D01*
X142105805Y-72111656D01*
X142183826Y-71923298D01*
X142223600Y-71723339D01*
X142223600Y-71519461D01*
X142183826Y-71319502D01*
X142105805Y-71131144D01*
X141992537Y-70961626D01*
X141848374Y-70817463D01*
X141678856Y-70704195D01*
X141490498Y-70626174D01*
X141290539Y-70586400D01*
X141086661Y-70586400D01*
X140886702Y-70626174D01*
X140698344Y-70704195D01*
X140528826Y-70817463D01*
X140384663Y-70961626D01*
X140271395Y-71131144D01*
X140193374Y-71319502D01*
X140153600Y-71519461D01*
X121225400Y-71519461D01*
X121225400Y-70284700D01*
X121371439Y-70284700D01*
X121571398Y-70244926D01*
X121759756Y-70166905D01*
X121929274Y-70053637D01*
X122073437Y-69909474D01*
X122178271Y-69752578D01*
X122248261Y-69766500D01*
X122452139Y-69766500D01*
X122652098Y-69726726D01*
X122840456Y-69648705D01*
X123009974Y-69535437D01*
X123154137Y-69391274D01*
X123267405Y-69221756D01*
X123345426Y-69033398D01*
X123385200Y-68833439D01*
X123385200Y-68708861D01*
X140156000Y-68708861D01*
X140156000Y-68912739D01*
X140195774Y-69112698D01*
X140273795Y-69301056D01*
X140387063Y-69470574D01*
X140531226Y-69614737D01*
X140700744Y-69728005D01*
X140889102Y-69806026D01*
X141089061Y-69845800D01*
X141292939Y-69845800D01*
X141492898Y-69806026D01*
X141681256Y-69728005D01*
X141748519Y-69683061D01*
X142450100Y-69683061D01*
X142450100Y-69886939D01*
X142489874Y-70086898D01*
X142567895Y-70275256D01*
X142681163Y-70444774D01*
X142825326Y-70588937D01*
X142994844Y-70702205D01*
X143183202Y-70780226D01*
X143383161Y-70820000D01*
X143587039Y-70820000D01*
X143786998Y-70780226D01*
X143975356Y-70702205D01*
X144144874Y-70588937D01*
X144289037Y-70444774D01*
X144402305Y-70275256D01*
X144474542Y-70100861D01*
X150437300Y-70100861D01*
X150437300Y-70304739D01*
X150477074Y-70504698D01*
X150555095Y-70693056D01*
X150668363Y-70862574D01*
X150812526Y-71006737D01*
X150982044Y-71120005D01*
X151170402Y-71198026D01*
X151370361Y-71237800D01*
X151574239Y-71237800D01*
X151774198Y-71198026D01*
X151962556Y-71120005D01*
X152132074Y-71006737D01*
X152276237Y-70862574D01*
X152389505Y-70693056D01*
X152467526Y-70504698D01*
X152507300Y-70304739D01*
X152507300Y-70100861D01*
X152467526Y-69900902D01*
X152389505Y-69712544D01*
X152276237Y-69543026D01*
X152132074Y-69398863D01*
X151962556Y-69285595D01*
X151774198Y-69207574D01*
X151574239Y-69167800D01*
X151370361Y-69167800D01*
X151170402Y-69207574D01*
X150982044Y-69285595D01*
X150812526Y-69398863D01*
X150668363Y-69543026D01*
X150555095Y-69712544D01*
X150477074Y-69900902D01*
X150437300Y-70100861D01*
X144474542Y-70100861D01*
X144480326Y-70086898D01*
X144520100Y-69886939D01*
X144520100Y-69683061D01*
X144480326Y-69483102D01*
X144402305Y-69294744D01*
X144289037Y-69125226D01*
X144144874Y-68981063D01*
X143975356Y-68867795D01*
X143786998Y-68789774D01*
X143587039Y-68750000D01*
X143383161Y-68750000D01*
X143183202Y-68789774D01*
X142994844Y-68867795D01*
X142825326Y-68981063D01*
X142681163Y-69125226D01*
X142567895Y-69294744D01*
X142489874Y-69483102D01*
X142450100Y-69683061D01*
X141748519Y-69683061D01*
X141850774Y-69614737D01*
X141994937Y-69470574D01*
X142108205Y-69301056D01*
X142186226Y-69112698D01*
X142226000Y-68912739D01*
X142226000Y-68708861D01*
X142186226Y-68508902D01*
X142108205Y-68320544D01*
X141994937Y-68151026D01*
X141850774Y-68006863D01*
X141681256Y-67893595D01*
X141492898Y-67815574D01*
X141292939Y-67775800D01*
X141089061Y-67775800D01*
X140889102Y-67815574D01*
X140700744Y-67893595D01*
X140531226Y-68006863D01*
X140387063Y-68151026D01*
X140273795Y-68320544D01*
X140195774Y-68508902D01*
X140156000Y-68708861D01*
X123385200Y-68708861D01*
X123385200Y-68629561D01*
X123345426Y-68429602D01*
X123267405Y-68241244D01*
X123236187Y-68194524D01*
X123259237Y-68171474D01*
X123372505Y-68001956D01*
X123450526Y-67813598D01*
X123490300Y-67613639D01*
X123490300Y-67409761D01*
X123450526Y-67209802D01*
X123372505Y-67021444D01*
X123259237Y-66851926D01*
X123115074Y-66707763D01*
X122945556Y-66594495D01*
X122757198Y-66516474D01*
X122557239Y-66476700D01*
X122353361Y-66476700D01*
X122153402Y-66516474D01*
X121965044Y-66594495D01*
X121795526Y-66707763D01*
X121651363Y-66851926D01*
X121538095Y-67021444D01*
X121460074Y-67209802D01*
X121420300Y-67409761D01*
X121420300Y-67613639D01*
X121460074Y-67813598D01*
X121538095Y-68001956D01*
X121569313Y-68048676D01*
X121546263Y-68071726D01*
X121441429Y-68228622D01*
X121371439Y-68214700D01*
X121225400Y-68214700D01*
X121225400Y-64053055D01*
X121448509Y-64145470D01*
X121727680Y-64201000D01*
X122012320Y-64201000D01*
X122291491Y-64145470D01*
X122554464Y-64036543D01*
X122791134Y-63878405D01*
X122992405Y-63677134D01*
X123140000Y-63456243D01*
X123287595Y-63677134D01*
X123488866Y-63878405D01*
X123725536Y-64036543D01*
X123988509Y-64145470D01*
X124267680Y-64201000D01*
X124552320Y-64201000D01*
X124831491Y-64145470D01*
X125094464Y-64036543D01*
X125331134Y-63878405D01*
X125532405Y-63677134D01*
X125680000Y-63456243D01*
X125827595Y-63677134D01*
X126028866Y-63878405D01*
X126265536Y-64036543D01*
X126528509Y-64145470D01*
X126807680Y-64201000D01*
X127092320Y-64201000D01*
X127371491Y-64145470D01*
X127634464Y-64036543D01*
X127871134Y-63878405D01*
X128072405Y-63677134D01*
X128220000Y-63456243D01*
X128367595Y-63677134D01*
X128568866Y-63878405D01*
X128805536Y-64036543D01*
X129068509Y-64145470D01*
X129347680Y-64201000D01*
X129632320Y-64201000D01*
X129911491Y-64145470D01*
X130174464Y-64036543D01*
X130411134Y-63878405D01*
X130612405Y-63677134D01*
X130760000Y-63456243D01*
X130907595Y-63677134D01*
X131108866Y-63878405D01*
X131345536Y-64036543D01*
X131608509Y-64145470D01*
X131887680Y-64201000D01*
X132172320Y-64201000D01*
X132451491Y-64145470D01*
X132714464Y-64036543D01*
X132951134Y-63878405D01*
X133152405Y-63677134D01*
X133300000Y-63456243D01*
X133447595Y-63677134D01*
X133648866Y-63878405D01*
X133885536Y-64036543D01*
X134148509Y-64145470D01*
X134427680Y-64201000D01*
X134712320Y-64201000D01*
X134991491Y-64145470D01*
X135254464Y-64036543D01*
X135491134Y-63878405D01*
X135692405Y-63677134D01*
X135840000Y-63456243D01*
X135987595Y-63677134D01*
X136188866Y-63878405D01*
X136425536Y-64036543D01*
X136688509Y-64145470D01*
X136967680Y-64201000D01*
X137252320Y-64201000D01*
X137531491Y-64145470D01*
X137794464Y-64036543D01*
X138031134Y-63878405D01*
X138232405Y-63677134D01*
X138380000Y-63456243D01*
X138527595Y-63677134D01*
X138728866Y-63878405D01*
X138965536Y-64036543D01*
X139228509Y-64145470D01*
X139507680Y-64201000D01*
X139792320Y-64201000D01*
X140071491Y-64145470D01*
X140334464Y-64036543D01*
X140571134Y-63878405D01*
X140772405Y-63677134D01*
X140920000Y-63456243D01*
X141067595Y-63677134D01*
X141268866Y-63878405D01*
X141505536Y-64036543D01*
X141768509Y-64145470D01*
X142047680Y-64201000D01*
X142332320Y-64201000D01*
X142611491Y-64145470D01*
X142874464Y-64036543D01*
X143111134Y-63878405D01*
X143312405Y-63677134D01*
X143460000Y-63456243D01*
X143607595Y-63677134D01*
X143808866Y-63878405D01*
X143859171Y-63912018D01*
X143839663Y-63931526D01*
X143726395Y-64101044D01*
X143648374Y-64289402D01*
X143608600Y-64489361D01*
X143608600Y-64693239D01*
X143648374Y-64893198D01*
X143726395Y-65081556D01*
X143839663Y-65251074D01*
X143983826Y-65395237D01*
X144153344Y-65508505D01*
X144341702Y-65586526D01*
X144541661Y-65626300D01*
X144745539Y-65626300D01*
X144945498Y-65586526D01*
X145133856Y-65508505D01*
X145303374Y-65395237D01*
X145447537Y-65251074D01*
X145560805Y-65081556D01*
X145638826Y-64893198D01*
X145678600Y-64693239D01*
X145678600Y-64489361D01*
X145638826Y-64289402D01*
X145560805Y-64101044D01*
X145485840Y-63988851D01*
X145651134Y-63878405D01*
X145852405Y-63677134D01*
X146000000Y-63456243D01*
X146147595Y-63677134D01*
X146348866Y-63878405D01*
X146585536Y-64036543D01*
X146848509Y-64145470D01*
X147127680Y-64201000D01*
X147412320Y-64201000D01*
X147691491Y-64145470D01*
X147954464Y-64036543D01*
X148191134Y-63878405D01*
X148392405Y-63677134D01*
X148540000Y-63456243D01*
X148687595Y-63677134D01*
X148888866Y-63878405D01*
X149125536Y-64036543D01*
X149388509Y-64145470D01*
X149667680Y-64201000D01*
X149952320Y-64201000D01*
X150231491Y-64145470D01*
X150494464Y-64036543D01*
X150731134Y-63878405D01*
X150932405Y-63677134D01*
X151080000Y-63456243D01*
X151227595Y-63677134D01*
X151428866Y-63878405D01*
X151665536Y-64036543D01*
X151928509Y-64145470D01*
X152207680Y-64201000D01*
X152492320Y-64201000D01*
X152771491Y-64145470D01*
X153034464Y-64036543D01*
X153271134Y-63878405D01*
X153472405Y-63677134D01*
X153620000Y-63456243D01*
X153767595Y-63677134D01*
X153968866Y-63878405D01*
X154205536Y-64036543D01*
X154468509Y-64145470D01*
X154747680Y-64201000D01*
X155032320Y-64201000D01*
X155311491Y-64145470D01*
X155534600Y-64053055D01*
X155534600Y-66122077D01*
X155530924Y-66159400D01*
X155534600Y-66196722D01*
X155534600Y-66196732D01*
X155545597Y-66308385D01*
X155574825Y-66404737D01*
X155589054Y-66451646D01*
X155659626Y-66583676D01*
X155699471Y-66632226D01*
X155754599Y-66699401D01*
X155783603Y-66723204D01*
X156243461Y-67183062D01*
X156067144Y-67256095D01*
X155897626Y-67369363D01*
X155753463Y-67513526D01*
X155640195Y-67683044D01*
X155562174Y-67871402D01*
X155538124Y-67992309D01*
X155464902Y-68006874D01*
X155276544Y-68084895D01*
X155107026Y-68198163D01*
X154962863Y-68342326D01*
X154849595Y-68511844D01*
X154771574Y-68700202D01*
X154731800Y-68900161D01*
X154731800Y-69104039D01*
X154771574Y-69303998D01*
X154849595Y-69492356D01*
X154962863Y-69661874D01*
X155107026Y-69806037D01*
X155276544Y-69919305D01*
X155464902Y-69997326D01*
X155664861Y-70037100D01*
X155868739Y-70037100D01*
X156068698Y-69997326D01*
X156257056Y-69919305D01*
X156426574Y-69806037D01*
X156570737Y-69661874D01*
X156684005Y-69492356D01*
X156762026Y-69303998D01*
X156786076Y-69183091D01*
X156859298Y-69168526D01*
X157047656Y-69090505D01*
X157217174Y-68977237D01*
X157361337Y-68833074D01*
X157474605Y-68663556D01*
X157547638Y-68487240D01*
X157868201Y-68807803D01*
X157868200Y-80348489D01*
X157824263Y-80392426D01*
X157710995Y-80561944D01*
X157632974Y-80750302D01*
X157593200Y-80950261D01*
X157593200Y-81154139D01*
X157632974Y-81354098D01*
X157710995Y-81542456D01*
X157824263Y-81711974D01*
X157968426Y-81856137D01*
X158137944Y-81969405D01*
X158326302Y-82047426D01*
X158526261Y-82087200D01*
X158730139Y-82087200D01*
X158930098Y-82047426D01*
X159118456Y-81969405D01*
X159283597Y-81859061D01*
X181826500Y-81859061D01*
X181826500Y-82062939D01*
X181866274Y-82262898D01*
X181944295Y-82451256D01*
X182057563Y-82620774D01*
X182201726Y-82764937D01*
X182371244Y-82878205D01*
X182559602Y-82956226D01*
X182759561Y-82996000D01*
X182963439Y-82996000D01*
X183163398Y-82956226D01*
X183351756Y-82878205D01*
X183521274Y-82764937D01*
X183665437Y-82620774D01*
X183778705Y-82451256D01*
X183856726Y-82262898D01*
X183896500Y-82062939D01*
X183896500Y-81859061D01*
X183856726Y-81659102D01*
X183778705Y-81470744D01*
X183665437Y-81301226D01*
X183521274Y-81157063D01*
X183351756Y-81043795D01*
X183163398Y-80965774D01*
X182963439Y-80926000D01*
X182759561Y-80926000D01*
X182559602Y-80965774D01*
X182371244Y-81043795D01*
X182201726Y-81157063D01*
X182057563Y-81301226D01*
X181944295Y-81470744D01*
X181866274Y-81659102D01*
X181826500Y-81859061D01*
X159283597Y-81859061D01*
X159287974Y-81856137D01*
X159432137Y-81711974D01*
X159545405Y-81542456D01*
X159623426Y-81354098D01*
X159663200Y-81154139D01*
X159663200Y-80950261D01*
X159623426Y-80750302D01*
X159545405Y-80561944D01*
X159432137Y-80392426D01*
X159388200Y-80348489D01*
X159388200Y-68530325D01*
X159391876Y-68493000D01*
X159388200Y-68455675D01*
X159388200Y-68455667D01*
X159377203Y-68344014D01*
X159333746Y-68200753D01*
X159263174Y-68068724D01*
X159168201Y-67952999D01*
X159139203Y-67929201D01*
X157054600Y-65844599D01*
X157054600Y-65333204D01*
X157085895Y-65408756D01*
X157199163Y-65578274D01*
X157343326Y-65722437D01*
X157512844Y-65835705D01*
X157701202Y-65913726D01*
X157778294Y-65929060D01*
X157845395Y-66091056D01*
X157958663Y-66260574D01*
X158102826Y-66404737D01*
X158272344Y-66518005D01*
X158460702Y-66596026D01*
X158660661Y-66635800D01*
X158864539Y-66635800D01*
X159064498Y-66596026D01*
X159252856Y-66518005D01*
X159422374Y-66404737D01*
X159566537Y-66260574D01*
X159679805Y-66091056D01*
X159757826Y-65902698D01*
X159797600Y-65702739D01*
X159797600Y-65498861D01*
X159757826Y-65298902D01*
X159679805Y-65110544D01*
X159566537Y-64941026D01*
X159522600Y-64897089D01*
X159522600Y-64134738D01*
X159548509Y-64145470D01*
X159827680Y-64201000D01*
X160112320Y-64201000D01*
X160391491Y-64145470D01*
X160422701Y-64132543D01*
X160422701Y-66549366D01*
X160393502Y-66555174D01*
X160205144Y-66633195D01*
X160035626Y-66746463D01*
X159891463Y-66890626D01*
X159778195Y-67060144D01*
X159700174Y-67248502D01*
X159660400Y-67448461D01*
X159660400Y-67652339D01*
X159700174Y-67852298D01*
X159778195Y-68040656D01*
X159891463Y-68210174D01*
X160035626Y-68354337D01*
X160205144Y-68467605D01*
X160393502Y-68545626D01*
X160593461Y-68585400D01*
X160797339Y-68585400D01*
X160997298Y-68545626D01*
X161185656Y-68467605D01*
X161355174Y-68354337D01*
X161499337Y-68210174D01*
X161612605Y-68040656D01*
X161690626Y-67852298D01*
X161730400Y-67652339D01*
X161730400Y-67593720D01*
X161817674Y-67487376D01*
X161888246Y-67355347D01*
X161931703Y-67212086D01*
X161942700Y-67100433D01*
X161942700Y-67100424D01*
X161946376Y-67063101D01*
X161942700Y-67025778D01*
X161942700Y-66153161D01*
X167003800Y-66153161D01*
X167003800Y-66357039D01*
X167043574Y-66556998D01*
X167121595Y-66745356D01*
X167234863Y-66914874D01*
X167379026Y-67059037D01*
X167548544Y-67172305D01*
X167736902Y-67250326D01*
X167936861Y-67290100D01*
X168140739Y-67290100D01*
X168340698Y-67250326D01*
X168529056Y-67172305D01*
X168698574Y-67059037D01*
X168842737Y-66914874D01*
X168956005Y-66745356D01*
X169034026Y-66556998D01*
X169073800Y-66357039D01*
X169073800Y-66153161D01*
X169034026Y-65953202D01*
X168956005Y-65764844D01*
X168842737Y-65595326D01*
X168698574Y-65451163D01*
X168529056Y-65337895D01*
X168340698Y-65259874D01*
X168140739Y-65220100D01*
X167936861Y-65220100D01*
X167736902Y-65259874D01*
X167548544Y-65337895D01*
X167379026Y-65451163D01*
X167234863Y-65595326D01*
X167121595Y-65764844D01*
X167043574Y-65953202D01*
X167003800Y-66153161D01*
X161942700Y-66153161D01*
X161942700Y-64085074D01*
X162088509Y-64145470D01*
X162367680Y-64201000D01*
X162652320Y-64201000D01*
X162931491Y-64145470D01*
X163194464Y-64036543D01*
X163431134Y-63878405D01*
X163632405Y-63677134D01*
X163780000Y-63456243D01*
X163927595Y-63677134D01*
X164128866Y-63878405D01*
X164365536Y-64036543D01*
X164628509Y-64145470D01*
X164907680Y-64201000D01*
X165192320Y-64201000D01*
X165471491Y-64145470D01*
X165734464Y-64036543D01*
X165971134Y-63878405D01*
X166172405Y-63677134D01*
X166320000Y-63456243D01*
X166467595Y-63677134D01*
X166668866Y-63878405D01*
X166905536Y-64036543D01*
X167168509Y-64145470D01*
X167447680Y-64201000D01*
X167732320Y-64201000D01*
X168011491Y-64145470D01*
X168274464Y-64036543D01*
X168511134Y-63878405D01*
X168712405Y-63677134D01*
X168860000Y-63456243D01*
X169007595Y-63677134D01*
X169208866Y-63878405D01*
X169445536Y-64036543D01*
X169708509Y-64145470D01*
X169987680Y-64201000D01*
X170272320Y-64201000D01*
X170541101Y-64147537D01*
X170541100Y-71144200D01*
X170370761Y-71144200D01*
X170170802Y-71183974D01*
X169982444Y-71261995D01*
X169812926Y-71375263D01*
X169668763Y-71519426D01*
X169555495Y-71688944D01*
X169477474Y-71877302D01*
X169437700Y-72077261D01*
X169437700Y-72281139D01*
X169477474Y-72481098D01*
X169555495Y-72669456D01*
X169668763Y-72838974D01*
X169812926Y-72983137D01*
X169982444Y-73096405D01*
X170170802Y-73174426D01*
X170370761Y-73214200D01*
X170541100Y-73214200D01*
X170541100Y-78395198D01*
X169627499Y-79308800D01*
X169565361Y-79308800D01*
X169365402Y-79348574D01*
X169177044Y-79426595D01*
X169007526Y-79539863D01*
X168863363Y-79684026D01*
X168750095Y-79853544D01*
X168672074Y-80041902D01*
X168632300Y-80241861D01*
X168632300Y-80445739D01*
X168672074Y-80645698D01*
X168750095Y-80834056D01*
X168863363Y-81003574D01*
X169007526Y-81147737D01*
X169177044Y-81261005D01*
X169365402Y-81339026D01*
X169565361Y-81378800D01*
X169769239Y-81378800D01*
X169969198Y-81339026D01*
X170157556Y-81261005D01*
X170327074Y-81147737D01*
X170471237Y-81003574D01*
X170584505Y-80834056D01*
X170662526Y-80645698D01*
X170702300Y-80445739D01*
X170702300Y-80383601D01*
X171434528Y-79651374D01*
X171538363Y-79806774D01*
X171682526Y-79950937D01*
X171852044Y-80064205D01*
X172040402Y-80142226D01*
X172240361Y-80182000D01*
X172444239Y-80182000D01*
X172644198Y-80142226D01*
X172832556Y-80064205D01*
X173002074Y-79950937D01*
X173146237Y-79806774D01*
X173259505Y-79637256D01*
X173337526Y-79448898D01*
X173377300Y-79248939D01*
X173377300Y-79186801D01*
X174054203Y-78509899D01*
X174083201Y-78486101D01*
X174139292Y-78417754D01*
X174178174Y-78370377D01*
X174248746Y-78238347D01*
X174265275Y-78183856D01*
X174292203Y-78095086D01*
X174303200Y-77983433D01*
X174303200Y-77983424D01*
X174306876Y-77946101D01*
X174303200Y-77908778D01*
X174303200Y-76021590D01*
X174482998Y-75985826D01*
X174662324Y-75911546D01*
X174692644Y-75931805D01*
X174881002Y-76009826D01*
X175080961Y-76049600D01*
X175284839Y-76049600D01*
X175484798Y-76009826D01*
X175673156Y-75931805D01*
X175842674Y-75818537D01*
X175986837Y-75674374D01*
X176100105Y-75504856D01*
X176178126Y-75316498D01*
X176217900Y-75116539D01*
X176217900Y-74912661D01*
X176178126Y-74712702D01*
X176100105Y-74524344D01*
X175986837Y-74354826D01*
X175842674Y-74210663D01*
X175673156Y-74097395D01*
X175484798Y-74019374D01*
X175284839Y-73979600D01*
X175080961Y-73979600D01*
X174881002Y-74019374D01*
X174701676Y-74093654D01*
X174671356Y-74073395D01*
X174565400Y-74029506D01*
X174565400Y-64053055D01*
X174788509Y-64145470D01*
X175067680Y-64201000D01*
X175352320Y-64201000D01*
X175631491Y-64145470D01*
X175894464Y-64036543D01*
X176131134Y-63878405D01*
X176332405Y-63677134D01*
X176480000Y-63456243D01*
X176627595Y-63677134D01*
X176828866Y-63878405D01*
X177065536Y-64036543D01*
X177328509Y-64145470D01*
X177607680Y-64201000D01*
X177892320Y-64201000D01*
X178171491Y-64145470D01*
X178434464Y-64036543D01*
X178671134Y-63878405D01*
X178872405Y-63677134D01*
X179030543Y-63440464D01*
X179139470Y-63177491D01*
X179195000Y-62898320D01*
X179195000Y-62613680D01*
X179139470Y-62334509D01*
X179030543Y-62071536D01*
X178872405Y-61834866D01*
X178671134Y-61633595D01*
X178450243Y-61486000D01*
X178671134Y-61338405D01*
X178872405Y-61137134D01*
X179030543Y-60900464D01*
X179139470Y-60637491D01*
X179195000Y-60358320D01*
X179195000Y-60073680D01*
X179139470Y-59794509D01*
X179030543Y-59531536D01*
X178872405Y-59294866D01*
X178671134Y-59093595D01*
X178450243Y-58946000D01*
X178671134Y-58798405D01*
X178872405Y-58597134D01*
X179030543Y-58360464D01*
X179139470Y-58097491D01*
X179195000Y-57818320D01*
X179195000Y-57533680D01*
X179139470Y-57254509D01*
X179030543Y-56991536D01*
X178872405Y-56754866D01*
X178671134Y-56553595D01*
X178450243Y-56406000D01*
X178671134Y-56258405D01*
X178872405Y-56057134D01*
X179030543Y-55820464D01*
X179139470Y-55557491D01*
X179195000Y-55278320D01*
X179195000Y-54993680D01*
X179139470Y-54714509D01*
X179030543Y-54451536D01*
X178872405Y-54214866D01*
X178671134Y-54013595D01*
X178434464Y-53855457D01*
X178171491Y-53746530D01*
X177892320Y-53691000D01*
X177607680Y-53691000D01*
X177328509Y-53746530D01*
X177065536Y-53855457D01*
X176828866Y-54013595D01*
X176627595Y-54214866D01*
X176480000Y-54435757D01*
X176332405Y-54214866D01*
X176131134Y-54013595D01*
X175894464Y-53855457D01*
X175631491Y-53746530D01*
X175352320Y-53691000D01*
X175067680Y-53691000D01*
X174788509Y-53746530D01*
X174525536Y-53855457D01*
X174288866Y-54013595D01*
X174087595Y-54214866D01*
X173940000Y-54435757D01*
X173792405Y-54214866D01*
X173591134Y-54013595D01*
X173354464Y-53855457D01*
X173091491Y-53746530D01*
X172812320Y-53691000D01*
X172527680Y-53691000D01*
X172248509Y-53746530D01*
X171985536Y-53855457D01*
X171748866Y-54013595D01*
X171547595Y-54214866D01*
X171400000Y-54435757D01*
X171252405Y-54214866D01*
X171051134Y-54013595D01*
X170814464Y-53855457D01*
X170551491Y-53746530D01*
X170272320Y-53691000D01*
X169987680Y-53691000D01*
X169708509Y-53746530D01*
X169445536Y-53855457D01*
X169208866Y-54013595D01*
X169007595Y-54214866D01*
X168860000Y-54435757D01*
X168712405Y-54214866D01*
X168511134Y-54013595D01*
X168274464Y-53855457D01*
X168011491Y-53746530D01*
X167732320Y-53691000D01*
X167447680Y-53691000D01*
X167168509Y-53746530D01*
X166905536Y-53855457D01*
X166668866Y-54013595D01*
X166467595Y-54214866D01*
X166320000Y-54435757D01*
X166172405Y-54214866D01*
X165971134Y-54013595D01*
X165734464Y-53855457D01*
X165471491Y-53746530D01*
X165192320Y-53691000D01*
X164907680Y-53691000D01*
X164628509Y-53746530D01*
X164365536Y-53855457D01*
X164128866Y-54013595D01*
X163927595Y-54214866D01*
X163780000Y-54435757D01*
X163632405Y-54214866D01*
X163431134Y-54013595D01*
X163194464Y-53855457D01*
X162931491Y-53746530D01*
X162652320Y-53691000D01*
X162367680Y-53691000D01*
X162088509Y-53746530D01*
X161825536Y-53855457D01*
X161588866Y-54013595D01*
X161387595Y-54214866D01*
X161240000Y-54435757D01*
X161092405Y-54214866D01*
X160891134Y-54013595D01*
X160654464Y-53855457D01*
X160391491Y-53746530D01*
X160112320Y-53691000D01*
X159827680Y-53691000D01*
X159548509Y-53746530D01*
X159285536Y-53855457D01*
X159048866Y-54013595D01*
X158847595Y-54214866D01*
X158700000Y-54435757D01*
X158552405Y-54214866D01*
X158351134Y-54013595D01*
X158114464Y-53855457D01*
X157851491Y-53746530D01*
X157572320Y-53691000D01*
X157287680Y-53691000D01*
X157008509Y-53746530D01*
X156745536Y-53855457D01*
X156508866Y-54013595D01*
X156307595Y-54214866D01*
X156160000Y-54435757D01*
X156012405Y-54214866D01*
X155811134Y-54013595D01*
X155574464Y-53855457D01*
X155311491Y-53746530D01*
X155032320Y-53691000D01*
X154747680Y-53691000D01*
X154468509Y-53746530D01*
X154205536Y-53855457D01*
X153968866Y-54013595D01*
X153767595Y-54214866D01*
X153620000Y-54435757D01*
X153472405Y-54214866D01*
X153271134Y-54013595D01*
X153034464Y-53855457D01*
X152771491Y-53746530D01*
X152492320Y-53691000D01*
X152207680Y-53691000D01*
X151928509Y-53746530D01*
X151665536Y-53855457D01*
X151428866Y-54013595D01*
X151227595Y-54214866D01*
X151080000Y-54435757D01*
X150932405Y-54214866D01*
X150731134Y-54013595D01*
X150494464Y-53855457D01*
X150231491Y-53746530D01*
X149952320Y-53691000D01*
X149667680Y-53691000D01*
X149388509Y-53746530D01*
X149125536Y-53855457D01*
X148888866Y-54013595D01*
X148687595Y-54214866D01*
X148540000Y-54435757D01*
X148392405Y-54214866D01*
X148191134Y-54013595D01*
X147954464Y-53855457D01*
X147691491Y-53746530D01*
X147412320Y-53691000D01*
X147127680Y-53691000D01*
X146848509Y-53746530D01*
X146585536Y-53855457D01*
X146348866Y-54013595D01*
X146147595Y-54214866D01*
X146000000Y-54435757D01*
X145852405Y-54214866D01*
X145651134Y-54013595D01*
X145414464Y-53855457D01*
X145151491Y-53746530D01*
X144872320Y-53691000D01*
X144587680Y-53691000D01*
X144308509Y-53746530D01*
X144045536Y-53855457D01*
X143808866Y-54013595D01*
X143607595Y-54214866D01*
X143460000Y-54435757D01*
X143312405Y-54214866D01*
X143111134Y-54013595D01*
X142874464Y-53855457D01*
X142611491Y-53746530D01*
X142332320Y-53691000D01*
X142047680Y-53691000D01*
X141768509Y-53746530D01*
X141505536Y-53855457D01*
X141268866Y-54013595D01*
X141067595Y-54214866D01*
X140920000Y-54435757D01*
X140772405Y-54214866D01*
X140571134Y-54013595D01*
X140334464Y-53855457D01*
X140071491Y-53746530D01*
X139792320Y-53691000D01*
X139507680Y-53691000D01*
X139228509Y-53746530D01*
X138965536Y-53855457D01*
X138728866Y-54013595D01*
X138527595Y-54214866D01*
X138380000Y-54435757D01*
X138232405Y-54214866D01*
X138031134Y-54013595D01*
X137794464Y-53855457D01*
X137531491Y-53746530D01*
X137252320Y-53691000D01*
X136967680Y-53691000D01*
X136688509Y-53746530D01*
X136425536Y-53855457D01*
X136188866Y-54013595D01*
X135987595Y-54214866D01*
X135840000Y-54435757D01*
X135692405Y-54214866D01*
X135491134Y-54013595D01*
X135254464Y-53855457D01*
X134991491Y-53746530D01*
X134712320Y-53691000D01*
X134427680Y-53691000D01*
X134148509Y-53746530D01*
X133885536Y-53855457D01*
X133648866Y-54013595D01*
X133447595Y-54214866D01*
X133300000Y-54435757D01*
X133152405Y-54214866D01*
X132951134Y-54013595D01*
X132714464Y-53855457D01*
X132451491Y-53746530D01*
X132172320Y-53691000D01*
X131887680Y-53691000D01*
X131608509Y-53746530D01*
X131345536Y-53855457D01*
X131108866Y-54013595D01*
X130907595Y-54214866D01*
X130760000Y-54435757D01*
X130612405Y-54214866D01*
X130411134Y-54013595D01*
X130174464Y-53855457D01*
X129911491Y-53746530D01*
X129632320Y-53691000D01*
X129347680Y-53691000D01*
X129068509Y-53746530D01*
X128805536Y-53855457D01*
X128568866Y-54013595D01*
X128367595Y-54214866D01*
X128220000Y-54435757D01*
X128072405Y-54214866D01*
X127871134Y-54013595D01*
X127634464Y-53855457D01*
X127371491Y-53746530D01*
X127092320Y-53691000D01*
X126807680Y-53691000D01*
X126528509Y-53746530D01*
X126265536Y-53855457D01*
X126028866Y-54013595D01*
X125827595Y-54214866D01*
X125680000Y-54435757D01*
X125532405Y-54214866D01*
X125331134Y-54013595D01*
X125094464Y-53855457D01*
X124831491Y-53746530D01*
X124552320Y-53691000D01*
X124267680Y-53691000D01*
X123988509Y-53746530D01*
X123725536Y-53855457D01*
X123488866Y-54013595D01*
X123287595Y-54214866D01*
X123140000Y-54435757D01*
X122992405Y-54214866D01*
X122791134Y-54013595D01*
X122554464Y-53855457D01*
X122291491Y-53746530D01*
X122012320Y-53691000D01*
X121727680Y-53691000D01*
X121448509Y-53746530D01*
X121185536Y-53855457D01*
X120948866Y-54013595D01*
X120747595Y-54214866D01*
X120600000Y-54435757D01*
X120452405Y-54214866D01*
X120251134Y-54013595D01*
X120014464Y-53855457D01*
X119751491Y-53746530D01*
X119472320Y-53691000D01*
X119187680Y-53691000D01*
X118908509Y-53746530D01*
X118645536Y-53855457D01*
X118408866Y-54013595D01*
X118207595Y-54214866D01*
X118060000Y-54435757D01*
X117912405Y-54214866D01*
X117711134Y-54013595D01*
X117474464Y-53855457D01*
X117211491Y-53746530D01*
X116932320Y-53691000D01*
X116647680Y-53691000D01*
X116368509Y-53746530D01*
X116105536Y-53855457D01*
X115868866Y-54013595D01*
X115667595Y-54214866D01*
X115520000Y-54435757D01*
X115372405Y-54214866D01*
X115171134Y-54013595D01*
X114934464Y-53855457D01*
X114671491Y-53746530D01*
X114392320Y-53691000D01*
X114107680Y-53691000D01*
X113828509Y-53746530D01*
X113565536Y-53855457D01*
X113328866Y-54013595D01*
X113127595Y-54214866D01*
X112969457Y-54451536D01*
X112860530Y-54714509D01*
X112805000Y-54993680D01*
X112547000Y-54993680D01*
X112497292Y-54478842D01*
X112304962Y-53840395D01*
X111991772Y-53251738D01*
X111984503Y-53240859D01*
X111540930Y-52934678D01*
X111629608Y-52846000D01*
X180370392Y-52846000D01*
X180459070Y-52934678D01*
G37*
X180459070Y-52934678D02*
X180015497Y-53240859D01*
X179700046Y-53828306D01*
X179505260Y-54466008D01*
X179438628Y-55129457D01*
X179502708Y-55793158D01*
X179695038Y-56431605D01*
X180008228Y-57020262D01*
X180015497Y-57031141D01*
X180459072Y-57337323D01*
X182660395Y-55136000D01*
X182646253Y-55121858D01*
X182825858Y-54942253D01*
X182840000Y-54956395D01*
X182854143Y-54942253D01*
X183033748Y-55121858D01*
X183019605Y-55136000D01*
X183033748Y-55150143D01*
X182854143Y-55329748D01*
X182840000Y-55315605D01*
X180638677Y-57516928D01*
X180944859Y-57960503D01*
X181532306Y-58275954D01*
X182170008Y-58470740D01*
X182833457Y-58537372D01*
X183497158Y-58473292D01*
X184135605Y-58280962D01*
X184724262Y-57967772D01*
X184735141Y-57960503D01*
X185041322Y-57516930D01*
X185130000Y-57605608D01*
X185130000Y-60670876D01*
X185133024Y-60701575D01*
X185132959Y-60710820D01*
X185133926Y-60720686D01*
X185164526Y-61011831D01*
X185177466Y-61074868D01*
X185189524Y-61138080D01*
X185192389Y-61147570D01*
X185278957Y-61427226D01*
X185303883Y-61486521D01*
X185328001Y-61546215D01*
X185332655Y-61554967D01*
X185471894Y-61812483D01*
X185507873Y-61865825D01*
X185543114Y-61919678D01*
X185549379Y-61927360D01*
X185735984Y-62152927D01*
X185781621Y-62198246D01*
X185826669Y-62244248D01*
X185834308Y-62250566D01*
X186061172Y-62435592D01*
X186114732Y-62471177D01*
X186167868Y-62507560D01*
X186176588Y-62512275D01*
X186435069Y-62649712D01*
X186494544Y-62674225D01*
X186553711Y-62699584D01*
X186563181Y-62702516D01*
X186843435Y-62787130D01*
X186906525Y-62799622D01*
X186969506Y-62813009D01*
X186979365Y-62814045D01*
X187270717Y-62842612D01*
X187270723Y-62842612D01*
X187305123Y-62846000D01*
X187690001Y-62846000D01*
X187690001Y-97773000D01*
X103010000Y-97773000D01*
X103010000Y-89351061D01*
X110649100Y-89351061D01*
X110649100Y-89554939D01*
X110688874Y-89754898D01*
X110766895Y-89943256D01*
X110880163Y-90112774D01*
X111024326Y-90256937D01*
X111193844Y-90370205D01*
X111382202Y-90448226D01*
X111582161Y-90488000D01*
X111786039Y-90488000D01*
X111985998Y-90448226D01*
X112174356Y-90370205D01*
X112343874Y-90256937D01*
X112488037Y-90112774D01*
X112601305Y-89943256D01*
X112679326Y-89754898D01*
X112719100Y-89554939D01*
X112719100Y-89383561D01*
X131679000Y-89383561D01*
X131679000Y-89587439D01*
X131718774Y-89787398D01*
X131796795Y-89975756D01*
X131910063Y-90145274D01*
X132054226Y-90289437D01*
X132223744Y-90402705D01*
X132412102Y-90480726D01*
X132612061Y-90520500D01*
X132815939Y-90520500D01*
X133015898Y-90480726D01*
X133204256Y-90402705D01*
X133211206Y-90398061D01*
X158236400Y-90398061D01*
X158236400Y-90601939D01*
X158276174Y-90801898D01*
X158354195Y-90990256D01*
X158467463Y-91159774D01*
X158611626Y-91303937D01*
X158781144Y-91417205D01*
X158969502Y-91495226D01*
X159169461Y-91535000D01*
X159373339Y-91535000D01*
X159573298Y-91495226D01*
X159761656Y-91417205D01*
X159931174Y-91303937D01*
X160075337Y-91159774D01*
X160188605Y-90990256D01*
X160266626Y-90801898D01*
X160306400Y-90601939D01*
X160306400Y-90398061D01*
X160266626Y-90198102D01*
X160188605Y-90009744D01*
X160075337Y-89840226D01*
X159931174Y-89696063D01*
X159897059Y-89673268D01*
X159932874Y-89649337D01*
X160077037Y-89505174D01*
X160190305Y-89335656D01*
X160268326Y-89147298D01*
X160308100Y-88947339D01*
X160308100Y-88743461D01*
X160268326Y-88543502D01*
X160190305Y-88355144D01*
X160127041Y-88260461D01*
X178259200Y-88260461D01*
X178259200Y-88464339D01*
X178298974Y-88664298D01*
X178376995Y-88852656D01*
X178490263Y-89022174D01*
X178634426Y-89166337D01*
X178803944Y-89279605D01*
X178992302Y-89357626D01*
X179192261Y-89397400D01*
X179396139Y-89397400D01*
X179596098Y-89357626D01*
X179784456Y-89279605D01*
X179847183Y-89237692D01*
X180023502Y-89310726D01*
X180223461Y-89350500D01*
X180427339Y-89350500D01*
X180627298Y-89310726D01*
X180815656Y-89232705D01*
X180985174Y-89119437D01*
X181129337Y-88975274D01*
X181242605Y-88805756D01*
X181320626Y-88617398D01*
X181360400Y-88417439D01*
X181360400Y-88213561D01*
X181320626Y-88013602D01*
X181242605Y-87825244D01*
X181143532Y-87676970D01*
X181245305Y-87524656D01*
X181323326Y-87336298D01*
X181363100Y-87136339D01*
X181363100Y-86932461D01*
X181323326Y-86732502D01*
X181245305Y-86544144D01*
X181199449Y-86475515D01*
X181221805Y-86442056D01*
X181299826Y-86253698D01*
X181339600Y-86053739D01*
X181339600Y-85849861D01*
X181299826Y-85649902D01*
X181221805Y-85461544D01*
X181108537Y-85292026D01*
X181035261Y-85218750D01*
X181124437Y-85129574D01*
X181237705Y-84960056D01*
X181315726Y-84771698D01*
X181355500Y-84571739D01*
X181355500Y-84367861D01*
X181315726Y-84167902D01*
X181237705Y-83979544D01*
X181124437Y-83810026D01*
X181014261Y-83699850D01*
X181107737Y-83606374D01*
X181221005Y-83436856D01*
X181299026Y-83248498D01*
X181338800Y-83048539D01*
X181338800Y-82844661D01*
X181299026Y-82644702D01*
X181221005Y-82456344D01*
X181107737Y-82286826D01*
X180963574Y-82142663D01*
X180794056Y-82029395D01*
X180605698Y-81951374D01*
X180405739Y-81911600D01*
X180201861Y-81911600D01*
X180001902Y-81951374D01*
X179813544Y-82029395D01*
X179644026Y-82142663D01*
X179499863Y-82286826D01*
X179386595Y-82456344D01*
X179308574Y-82644702D01*
X179268800Y-82844661D01*
X179268800Y-83048539D01*
X179308574Y-83248498D01*
X179386595Y-83436856D01*
X179499863Y-83606374D01*
X179610039Y-83716550D01*
X179516563Y-83810026D01*
X179403295Y-83979544D01*
X179325274Y-84167902D01*
X179285500Y-84367861D01*
X179285500Y-84571739D01*
X179325274Y-84771698D01*
X179403295Y-84960056D01*
X179516563Y-85129574D01*
X179589839Y-85202850D01*
X179500663Y-85292026D01*
X179387395Y-85461544D01*
X179309374Y-85649902D01*
X179269600Y-85849861D01*
X179269600Y-86053739D01*
X179309374Y-86253698D01*
X179387395Y-86442056D01*
X179433251Y-86510685D01*
X179410895Y-86544144D01*
X179332874Y-86732502D01*
X179293100Y-86932461D01*
X179293100Y-87136339D01*
X179331104Y-87327400D01*
X179192261Y-87327400D01*
X178992302Y-87367174D01*
X178803944Y-87445195D01*
X178634426Y-87558463D01*
X178490263Y-87702626D01*
X178376995Y-87872144D01*
X178298974Y-88060502D01*
X178259200Y-88260461D01*
X160127041Y-88260461D01*
X160077037Y-88185626D01*
X159932874Y-88041463D01*
X159763356Y-87928195D01*
X159574998Y-87850174D01*
X159375039Y-87810400D01*
X159171161Y-87810400D01*
X158971202Y-87850174D01*
X158782844Y-87928195D01*
X158613326Y-88041463D01*
X158469163Y-88185626D01*
X158355895Y-88355144D01*
X158277874Y-88543502D01*
X158238100Y-88743461D01*
X158238100Y-88947339D01*
X158277874Y-89147298D01*
X158355895Y-89335656D01*
X158469163Y-89505174D01*
X158613326Y-89649337D01*
X158647441Y-89672132D01*
X158611626Y-89696063D01*
X158467463Y-89840226D01*
X158354195Y-90009744D01*
X158276174Y-90198102D01*
X158236400Y-90398061D01*
X133211206Y-90398061D01*
X133373774Y-90289437D01*
X133517937Y-90145274D01*
X133631205Y-89975756D01*
X133709226Y-89787398D01*
X133749000Y-89587439D01*
X133749000Y-89383561D01*
X133709226Y-89183602D01*
X133631205Y-88995244D01*
X133537931Y-88855650D01*
X133646105Y-88693756D01*
X133724126Y-88505398D01*
X133763900Y-88305439D01*
X133763900Y-88101561D01*
X133724126Y-87901602D01*
X133646105Y-87713244D01*
X133532837Y-87543726D01*
X133466872Y-87477761D01*
X139687400Y-87477761D01*
X139687400Y-87681639D01*
X139727174Y-87881598D01*
X139805195Y-88069956D01*
X139918463Y-88239474D01*
X140062626Y-88383637D01*
X140232144Y-88496905D01*
X140420502Y-88574926D01*
X140620461Y-88614700D01*
X140824339Y-88614700D01*
X141024298Y-88574926D01*
X141212656Y-88496905D01*
X141382174Y-88383637D01*
X141526337Y-88239474D01*
X141610402Y-88113661D01*
X142210500Y-88113661D01*
X142210500Y-88317539D01*
X142250274Y-88517498D01*
X142328295Y-88705856D01*
X142441563Y-88875374D01*
X142585726Y-89019537D01*
X142755244Y-89132805D01*
X142943602Y-89210826D01*
X143143561Y-89250600D01*
X143347439Y-89250600D01*
X143547398Y-89210826D01*
X143735756Y-89132805D01*
X143905274Y-89019537D01*
X144049437Y-88875374D01*
X144162705Y-88705856D01*
X144240726Y-88517498D01*
X144280500Y-88317539D01*
X144280500Y-88113661D01*
X144240726Y-87913702D01*
X144162705Y-87725344D01*
X144049437Y-87555826D01*
X143905274Y-87411663D01*
X143735756Y-87298395D01*
X143547398Y-87220374D01*
X143347439Y-87180600D01*
X143143561Y-87180600D01*
X142943602Y-87220374D01*
X142755244Y-87298395D01*
X142585726Y-87411663D01*
X142441563Y-87555826D01*
X142328295Y-87725344D01*
X142250274Y-87913702D01*
X142210500Y-88113661D01*
X141610402Y-88113661D01*
X141639605Y-88069956D01*
X141717626Y-87881598D01*
X141757400Y-87681639D01*
X141757400Y-87477761D01*
X141717626Y-87277802D01*
X141639605Y-87089444D01*
X141526337Y-86919926D01*
X141382174Y-86775763D01*
X141212656Y-86662495D01*
X141024298Y-86584474D01*
X140824339Y-86544700D01*
X140620461Y-86544700D01*
X140420502Y-86584474D01*
X140232144Y-86662495D01*
X140062626Y-86775763D01*
X139918463Y-86919926D01*
X139805195Y-87089444D01*
X139727174Y-87277802D01*
X139687400Y-87477761D01*
X133466872Y-87477761D01*
X133388674Y-87399563D01*
X133219156Y-87286295D01*
X133030798Y-87208274D01*
X132830839Y-87168500D01*
X132626961Y-87168500D01*
X132427002Y-87208274D01*
X132238644Y-87286295D01*
X132069126Y-87399563D01*
X131924963Y-87543726D01*
X131811695Y-87713244D01*
X131733674Y-87901602D01*
X131693900Y-88101561D01*
X131693900Y-88305439D01*
X131733674Y-88505398D01*
X131811695Y-88693756D01*
X131904969Y-88833350D01*
X131796795Y-88995244D01*
X131718774Y-89183602D01*
X131679000Y-89383561D01*
X112719100Y-89383561D01*
X112719100Y-89351061D01*
X112679326Y-89151102D01*
X112601305Y-88962744D01*
X112488037Y-88793226D01*
X112343874Y-88649063D01*
X112174356Y-88535795D01*
X111985998Y-88457774D01*
X111786039Y-88418000D01*
X111582161Y-88418000D01*
X111382202Y-88457774D01*
X111193844Y-88535795D01*
X111024326Y-88649063D01*
X110880163Y-88793226D01*
X110766895Y-88962744D01*
X110688874Y-89151102D01*
X110649100Y-89351061D01*
X103010000Y-89351061D01*
X103010000Y-86790861D01*
X108103600Y-86790861D01*
X108103600Y-86994739D01*
X108143374Y-87194698D01*
X108221395Y-87383056D01*
X108326150Y-87539834D01*
X108230995Y-87682244D01*
X108152974Y-87870602D01*
X108113200Y-88070561D01*
X108113200Y-88274439D01*
X108152974Y-88474398D01*
X108230995Y-88662756D01*
X108344263Y-88832274D01*
X108488426Y-88976437D01*
X108657944Y-89089705D01*
X108846302Y-89167726D01*
X109046261Y-89207500D01*
X109250139Y-89207500D01*
X109450098Y-89167726D01*
X109638456Y-89089705D01*
X109807974Y-88976437D01*
X109952137Y-88832274D01*
X110065405Y-88662756D01*
X110143426Y-88474398D01*
X110183200Y-88274439D01*
X110183200Y-88070561D01*
X110143426Y-87870602D01*
X110065405Y-87682244D01*
X109960650Y-87525466D01*
X110055805Y-87383056D01*
X110069140Y-87350861D01*
X121139400Y-87350861D01*
X121139400Y-87554739D01*
X121179174Y-87754698D01*
X121257195Y-87943056D01*
X121370463Y-88112574D01*
X121514626Y-88256737D01*
X121684144Y-88370005D01*
X121872502Y-88448026D01*
X122072461Y-88487800D01*
X122276339Y-88487800D01*
X122476298Y-88448026D01*
X122664656Y-88370005D01*
X122834174Y-88256737D01*
X122978337Y-88112574D01*
X123091605Y-87943056D01*
X123169626Y-87754698D01*
X123209400Y-87554739D01*
X123209400Y-87350861D01*
X123169626Y-87150902D01*
X123091605Y-86962544D01*
X122978337Y-86793026D01*
X122834174Y-86648863D01*
X122664656Y-86535595D01*
X122476298Y-86457574D01*
X122276339Y-86417800D01*
X122072461Y-86417800D01*
X121872502Y-86457574D01*
X121684144Y-86535595D01*
X121514626Y-86648863D01*
X121370463Y-86793026D01*
X121257195Y-86962544D01*
X121179174Y-87150902D01*
X121139400Y-87350861D01*
X110069140Y-87350861D01*
X110133826Y-87194698D01*
X110173600Y-86994739D01*
X110173600Y-86790861D01*
X110133826Y-86590902D01*
X110055805Y-86402544D01*
X109942537Y-86233026D01*
X109798374Y-86088863D01*
X109628856Y-85975595D01*
X109440498Y-85897574D01*
X109240539Y-85857800D01*
X109036661Y-85857800D01*
X108836702Y-85897574D01*
X108648344Y-85975595D01*
X108478826Y-86088863D01*
X108334663Y-86233026D01*
X108221395Y-86402544D01*
X108143374Y-86590902D01*
X108103600Y-86790861D01*
X103010000Y-86790861D01*
X103010000Y-84869861D01*
X111397200Y-84869861D01*
X111397200Y-85073739D01*
X111436974Y-85273698D01*
X111514995Y-85462056D01*
X111628263Y-85631574D01*
X111772426Y-85775737D01*
X111941944Y-85889005D01*
X112130302Y-85967026D01*
X112330261Y-86006800D01*
X112534139Y-86006800D01*
X112734098Y-85967026D01*
X112922456Y-85889005D01*
X113091974Y-85775737D01*
X113236137Y-85631574D01*
X113349405Y-85462056D01*
X113426654Y-85275561D01*
X122668500Y-85275561D01*
X122668500Y-85479439D01*
X122708274Y-85679398D01*
X122786295Y-85867756D01*
X122899563Y-86037274D01*
X123043726Y-86181437D01*
X123213244Y-86294705D01*
X123401602Y-86372726D01*
X123601561Y-86412500D01*
X123805439Y-86412500D01*
X124005398Y-86372726D01*
X124193756Y-86294705D01*
X124363274Y-86181437D01*
X124507437Y-86037274D01*
X124620705Y-85867756D01*
X124698726Y-85679398D01*
X124738500Y-85479439D01*
X124738500Y-85398061D01*
X158228700Y-85398061D01*
X158228700Y-85601939D01*
X158268474Y-85801898D01*
X158346495Y-85990256D01*
X158459763Y-86159774D01*
X158603926Y-86303937D01*
X158773444Y-86417205D01*
X158961802Y-86495226D01*
X159161761Y-86535000D01*
X159365639Y-86535000D01*
X159565598Y-86495226D01*
X159753956Y-86417205D01*
X159923474Y-86303937D01*
X160067637Y-86159774D01*
X160180905Y-85990256D01*
X160258926Y-85801898D01*
X160293185Y-85629661D01*
X160760400Y-85629661D01*
X160760400Y-85833539D01*
X160800174Y-86033498D01*
X160878195Y-86221856D01*
X160991463Y-86391374D01*
X161135626Y-86535537D01*
X161305144Y-86648805D01*
X161493502Y-86726826D01*
X161693461Y-86766600D01*
X161897339Y-86766600D01*
X162097298Y-86726826D01*
X162285656Y-86648805D01*
X162455174Y-86535537D01*
X162599337Y-86391374D01*
X162712605Y-86221856D01*
X162790626Y-86033498D01*
X162830400Y-85833539D01*
X162830400Y-85799361D01*
X167739600Y-85799361D01*
X167739600Y-86003239D01*
X167779374Y-86203198D01*
X167857395Y-86391556D01*
X167970663Y-86561074D01*
X168114826Y-86705237D01*
X168284344Y-86818505D01*
X168472702Y-86896526D01*
X168672661Y-86936300D01*
X168876539Y-86936300D01*
X169076498Y-86896526D01*
X169264856Y-86818505D01*
X169434374Y-86705237D01*
X169485659Y-86653952D01*
X169489702Y-86655626D01*
X169689661Y-86695400D01*
X169893539Y-86695400D01*
X170093498Y-86655626D01*
X170281856Y-86577605D01*
X170451374Y-86464337D01*
X170595537Y-86320174D01*
X170708805Y-86150656D01*
X170786826Y-85962298D01*
X170826600Y-85762339D01*
X170826600Y-85558461D01*
X170786826Y-85358502D01*
X170708805Y-85170144D01*
X170595537Y-85000626D01*
X170451374Y-84856463D01*
X170281856Y-84743195D01*
X170093498Y-84665174D01*
X169893539Y-84625400D01*
X169689661Y-84625400D01*
X169489702Y-84665174D01*
X169301344Y-84743195D01*
X169131826Y-84856463D01*
X169080541Y-84907748D01*
X169076498Y-84906074D01*
X168876539Y-84866300D01*
X168672661Y-84866300D01*
X168472702Y-84906074D01*
X168284344Y-84984095D01*
X168114826Y-85097363D01*
X167970663Y-85241526D01*
X167857395Y-85411044D01*
X167779374Y-85599402D01*
X167739600Y-85799361D01*
X162830400Y-85799361D01*
X162830400Y-85629661D01*
X162790626Y-85429702D01*
X162712605Y-85241344D01*
X162599337Y-85071826D01*
X162455174Y-84927663D01*
X162285656Y-84814395D01*
X162097298Y-84736374D01*
X161897339Y-84696600D01*
X161693461Y-84696600D01*
X161493502Y-84736374D01*
X161305144Y-84814395D01*
X161135626Y-84927663D01*
X160991463Y-85071826D01*
X160878195Y-85241344D01*
X160800174Y-85429702D01*
X160760400Y-85629661D01*
X160293185Y-85629661D01*
X160298700Y-85601939D01*
X160298700Y-85398061D01*
X160258926Y-85198102D01*
X160180905Y-85009744D01*
X160067637Y-84840226D01*
X159923474Y-84696063D01*
X159753956Y-84582795D01*
X159565598Y-84504774D01*
X159365639Y-84465000D01*
X159161761Y-84465000D01*
X158961802Y-84504774D01*
X158773444Y-84582795D01*
X158603926Y-84696063D01*
X158459763Y-84840226D01*
X158346495Y-85009744D01*
X158268474Y-85198102D01*
X158228700Y-85398061D01*
X124738500Y-85398061D01*
X124738500Y-85275561D01*
X124698726Y-85075602D01*
X124620705Y-84887244D01*
X124507437Y-84717726D01*
X124363274Y-84573563D01*
X124193756Y-84460295D01*
X124005398Y-84382274D01*
X123805439Y-84342500D01*
X123601561Y-84342500D01*
X123401602Y-84382274D01*
X123213244Y-84460295D01*
X123043726Y-84573563D01*
X122899563Y-84717726D01*
X122786295Y-84887244D01*
X122708274Y-85075602D01*
X122668500Y-85275561D01*
X113426654Y-85275561D01*
X113427426Y-85273698D01*
X113467200Y-85073739D01*
X113467200Y-84869861D01*
X113427426Y-84669902D01*
X113349405Y-84481544D01*
X113236137Y-84312026D01*
X113091974Y-84167863D01*
X112922456Y-84054595D01*
X112734098Y-83976574D01*
X112534139Y-83936800D01*
X112330261Y-83936800D01*
X112130302Y-83976574D01*
X111941944Y-84054595D01*
X111772426Y-84167863D01*
X111628263Y-84312026D01*
X111514995Y-84481544D01*
X111436974Y-84669902D01*
X111397200Y-84869861D01*
X103010000Y-84869861D01*
X103010000Y-83007361D01*
X121183700Y-83007361D01*
X121183700Y-83211239D01*
X121223474Y-83411198D01*
X121301495Y-83599556D01*
X121414763Y-83769074D01*
X121558926Y-83913237D01*
X121728444Y-84026505D01*
X121916802Y-84104526D01*
X122116761Y-84144300D01*
X122320639Y-84144300D01*
X122520598Y-84104526D01*
X122708956Y-84026505D01*
X122878474Y-83913237D01*
X123022637Y-83769074D01*
X123135905Y-83599556D01*
X123213926Y-83411198D01*
X123253700Y-83211239D01*
X123253700Y-83007361D01*
X123225754Y-82866861D01*
X139576600Y-82866861D01*
X139576600Y-83070739D01*
X139616374Y-83270698D01*
X139694395Y-83459056D01*
X139807663Y-83628574D01*
X139951826Y-83772737D01*
X140121344Y-83886005D01*
X140309702Y-83964026D01*
X140509661Y-84003800D01*
X140713539Y-84003800D01*
X140913498Y-83964026D01*
X141101856Y-83886005D01*
X141271374Y-83772737D01*
X141415537Y-83628574D01*
X141528805Y-83459056D01*
X141606826Y-83270698D01*
X141646600Y-83070739D01*
X141646600Y-82866861D01*
X141606826Y-82666902D01*
X141528805Y-82478544D01*
X141415537Y-82309026D01*
X141271374Y-82164863D01*
X141101856Y-82051595D01*
X140913498Y-81973574D01*
X140713539Y-81933800D01*
X140509661Y-81933800D01*
X140309702Y-81973574D01*
X140121344Y-82051595D01*
X139951826Y-82164863D01*
X139807663Y-82309026D01*
X139694395Y-82478544D01*
X139616374Y-82666902D01*
X139576600Y-82866861D01*
X123225754Y-82866861D01*
X123213926Y-82807402D01*
X123135905Y-82619044D01*
X123022637Y-82449526D01*
X122878474Y-82305363D01*
X122708956Y-82192095D01*
X122520598Y-82114074D01*
X122320639Y-82074300D01*
X122116761Y-82074300D01*
X121916802Y-82114074D01*
X121728444Y-82192095D01*
X121558926Y-82305363D01*
X121414763Y-82449526D01*
X121301495Y-82619044D01*
X121223474Y-82807402D01*
X121183700Y-83007361D01*
X103010000Y-83007361D01*
X103010000Y-62846000D01*
X104694877Y-62846000D01*
X104725576Y-62842976D01*
X104734820Y-62843041D01*
X104744686Y-62842074D01*
X105035831Y-62811474D01*
X105098868Y-62798534D01*
X105162080Y-62786476D01*
X105171570Y-62783611D01*
X105451226Y-62697043D01*
X105510521Y-62672117D01*
X105570215Y-62647999D01*
X105578967Y-62643345D01*
X105836483Y-62504106D01*
X105889825Y-62468127D01*
X105943678Y-62432886D01*
X105951360Y-62426621D01*
X106176927Y-62240016D01*
X106222246Y-62194379D01*
X106268248Y-62149331D01*
X106274566Y-62141692D01*
X106459592Y-61914828D01*
X106495177Y-61861268D01*
X106531560Y-61808132D01*
X106536275Y-61799412D01*
X106673712Y-61540931D01*
X106698225Y-61481456D01*
X106723584Y-61422289D01*
X106726516Y-61412819D01*
X106811130Y-61132565D01*
X106823622Y-61069475D01*
X106837009Y-61006494D01*
X106838045Y-60996635D01*
X106866612Y-60705283D01*
X106866612Y-60705277D01*
X106870000Y-60670877D01*
X106870000Y-57605608D01*
X106958678Y-57516930D01*
X107264859Y-57960503D01*
X107852306Y-58275954D01*
X108490008Y-58470740D01*
X109153457Y-58537372D01*
X109817158Y-58473292D01*
X110455605Y-58280962D01*
X111044262Y-57967772D01*
X111055141Y-57960503D01*
X111361323Y-57516928D01*
X109160000Y-55315605D01*
X109145858Y-55329748D01*
X108966253Y-55150143D01*
X108980395Y-55136000D01*
X108966253Y-55121858D01*
X109145858Y-54942253D01*
X109160000Y-54956395D01*
X109174143Y-54942253D01*
X109353748Y-55121858D01*
X109339605Y-55136000D01*
X111540928Y-57337323D01*
X111984503Y-57031141D01*
X112299954Y-56443694D01*
X112494740Y-55805992D01*
X112561372Y-55142543D01*
X112547000Y-54993680D01*
X112805000Y-54993680D01*
X112805000Y-55278320D01*
X112860530Y-55557491D01*
X112969457Y-55820464D01*
X113127595Y-56057134D01*
X113328866Y-56258405D01*
X113549757Y-56406000D01*
X113328866Y-56553595D01*
X113127595Y-56754866D01*
X112969457Y-56991536D01*
X112860530Y-57254509D01*
X112805000Y-57533680D01*
X112805000Y-57818320D01*
X112860530Y-58097491D01*
X112969457Y-58360464D01*
X113127595Y-58597134D01*
X113328866Y-58798405D01*
X113549757Y-58946000D01*
X113328866Y-59093595D01*
X113127595Y-59294866D01*
X112969457Y-59531536D01*
X112860530Y-59794509D01*
X112805000Y-60073680D01*
X112805000Y-60358320D01*
X112860530Y-60637491D01*
X112969457Y-60900464D01*
X113127595Y-61137134D01*
X113328866Y-61338405D01*
X113549757Y-61486000D01*
X113328866Y-61633595D01*
X113127595Y-61834866D01*
X112969457Y-62071536D01*
X112860530Y-62334509D01*
X112805000Y-62613680D01*
X112805000Y-62898320D01*
X112860530Y-63177491D01*
X112969457Y-63440464D01*
X113127595Y-63677134D01*
X113328866Y-63878405D01*
X113565536Y-64036543D01*
X113828509Y-64145470D01*
X114107680Y-64201000D01*
X114392320Y-64201000D01*
X114671491Y-64145470D01*
X114894601Y-64053055D01*
X114894601Y-71406168D01*
X114890924Y-71443500D01*
X114905598Y-71592485D01*
X114949054Y-71735746D01*
X115019626Y-71867776D01*
X115090801Y-71954502D01*
X115114600Y-71983501D01*
X115143598Y-72007299D01*
X118595600Y-75459302D01*
X118595600Y-75521439D01*
X118635374Y-75721398D01*
X118713395Y-75909756D01*
X118826663Y-76079274D01*
X118970826Y-76223437D01*
X119140344Y-76336705D01*
X119328702Y-76414726D01*
X119528661Y-76454500D01*
X119705400Y-76454500D01*
X119705400Y-76805700D01*
X119577161Y-76805700D01*
X119377202Y-76845474D01*
X119188844Y-76923495D01*
X119019326Y-77036763D01*
X118875163Y-77180926D01*
X118761895Y-77350444D01*
X118683874Y-77538802D01*
X118644100Y-77738761D01*
X118644100Y-77942639D01*
X118683874Y-78142598D01*
X118761895Y-78330956D01*
X118783414Y-78363162D01*
X118667126Y-78440863D01*
X118522963Y-78585026D01*
X118409695Y-78754544D01*
X118331674Y-78942902D01*
X118291900Y-79142861D01*
X118291900Y-79346739D01*
X118331674Y-79546698D01*
X118409695Y-79735056D01*
X118522963Y-79904574D01*
X118667126Y-80048737D01*
X118776487Y-80121810D01*
X118745795Y-80167744D01*
X118667774Y-80356102D01*
X118628000Y-80556061D01*
X118628000Y-80759939D01*
X118667774Y-80959898D01*
X118745795Y-81148256D01*
X118859063Y-81317774D01*
X119003226Y-81461937D01*
X119172744Y-81575205D01*
X119361102Y-81653226D01*
X119561061Y-81693000D01*
X119764939Y-81693000D01*
X119964898Y-81653226D01*
X120153256Y-81575205D01*
X120322774Y-81461937D01*
X120466937Y-81317774D01*
X120580205Y-81148256D01*
X120658226Y-80959898D01*
X120698000Y-80759939D01*
X120698000Y-80556061D01*
X120658226Y-80356102D01*
X120580205Y-80167744D01*
X120466937Y-79998226D01*
X120322774Y-79854063D01*
X120213413Y-79780990D01*
X120244105Y-79735056D01*
X120259467Y-79697968D01*
X121169600Y-80608102D01*
X121169600Y-80670239D01*
X121209374Y-80870198D01*
X121287395Y-81058556D01*
X121400663Y-81228074D01*
X121544826Y-81372237D01*
X121714344Y-81485505D01*
X121902702Y-81563526D01*
X122102661Y-81603300D01*
X122306539Y-81603300D01*
X122506498Y-81563526D01*
X122694856Y-81485505D01*
X122864374Y-81372237D01*
X123008537Y-81228074D01*
X123121805Y-81058556D01*
X123199826Y-80870198D01*
X123239600Y-80670239D01*
X123239600Y-80466361D01*
X123199826Y-80266402D01*
X123121805Y-80078044D01*
X123008537Y-79908526D01*
X122864374Y-79764363D01*
X122694856Y-79651095D01*
X122506498Y-79573074D01*
X122306539Y-79533300D01*
X122244402Y-79533300D01*
X121225400Y-78514299D01*
X121225400Y-77130561D01*
X137928900Y-77130561D01*
X137928900Y-77334439D01*
X137968674Y-77534398D01*
X138046695Y-77722756D01*
X138159963Y-77892274D01*
X138304126Y-78036437D01*
X138473644Y-78149705D01*
X138662002Y-78227726D01*
X138861961Y-78267500D01*
X138883796Y-78267500D01*
X138934395Y-78389656D01*
X139047663Y-78559174D01*
X139191826Y-78703337D01*
X139361344Y-78816605D01*
X139549702Y-78894626D01*
X139749661Y-78934400D01*
X139953539Y-78934400D01*
X140153498Y-78894626D01*
X140341856Y-78816605D01*
X140511374Y-78703337D01*
X140655537Y-78559174D01*
X140768805Y-78389656D01*
X140846826Y-78201298D01*
X140886600Y-78001339D01*
X140886600Y-77797461D01*
X140846826Y-77597502D01*
X140844407Y-77591661D01*
X150726900Y-77591661D01*
X150726900Y-77795539D01*
X150766674Y-77995498D01*
X150844695Y-78183856D01*
X150957963Y-78353374D01*
X151102126Y-78497537D01*
X151271644Y-78610805D01*
X151460002Y-78688826D01*
X151659961Y-78728600D01*
X151863839Y-78728600D01*
X152054804Y-78690615D01*
X152117126Y-78752937D01*
X152286644Y-78866205D01*
X152475002Y-78944226D01*
X152674961Y-78984000D01*
X152878839Y-78984000D01*
X153078798Y-78944226D01*
X153267156Y-78866205D01*
X153436674Y-78752937D01*
X153580837Y-78608774D01*
X153694105Y-78439256D01*
X153772126Y-78250898D01*
X153811900Y-78050939D01*
X153811900Y-77847061D01*
X153772126Y-77647102D01*
X153697203Y-77466223D01*
X153808798Y-77444026D01*
X153997156Y-77366005D01*
X154166674Y-77252737D01*
X154310837Y-77108574D01*
X154424105Y-76939056D01*
X154502126Y-76750698D01*
X154541900Y-76550739D01*
X154541900Y-76346861D01*
X154502126Y-76146902D01*
X154424105Y-75958544D01*
X154310837Y-75789026D01*
X154166674Y-75644863D01*
X153997156Y-75531595D01*
X153808798Y-75453574D01*
X153608839Y-75413800D01*
X153404961Y-75413800D01*
X153205002Y-75453574D01*
X153016644Y-75531595D01*
X152847126Y-75644863D01*
X152702963Y-75789026D01*
X152589695Y-75958544D01*
X152511674Y-76146902D01*
X152471900Y-76346861D01*
X152471900Y-76550739D01*
X152511674Y-76750698D01*
X152586597Y-76931577D01*
X152483996Y-76951985D01*
X152421674Y-76889663D01*
X152252156Y-76776395D01*
X152063798Y-76698374D01*
X151863839Y-76658600D01*
X151659961Y-76658600D01*
X151460002Y-76698374D01*
X151271644Y-76776395D01*
X151102126Y-76889663D01*
X150957963Y-77033826D01*
X150844695Y-77203344D01*
X150766674Y-77391702D01*
X150726900Y-77591661D01*
X140844407Y-77591661D01*
X140768805Y-77409144D01*
X140655537Y-77239626D01*
X140511374Y-77095463D01*
X140341856Y-76982195D01*
X140153498Y-76904174D01*
X139953539Y-76864400D01*
X139931704Y-76864400D01*
X139881105Y-76742244D01*
X139767837Y-76572726D01*
X139623674Y-76428563D01*
X139454156Y-76315295D01*
X139265798Y-76237274D01*
X139065839Y-76197500D01*
X138861961Y-76197500D01*
X138662002Y-76237274D01*
X138473644Y-76315295D01*
X138304126Y-76428563D01*
X138159963Y-76572726D01*
X138046695Y-76742244D01*
X137968674Y-76930602D01*
X137928900Y-77130561D01*
X121225400Y-77130561D01*
X121225400Y-74526861D01*
X136986400Y-74526861D01*
X136986400Y-74730739D01*
X137026174Y-74930698D01*
X137104195Y-75119056D01*
X137217463Y-75288574D01*
X137361626Y-75432737D01*
X137531144Y-75546005D01*
X137719502Y-75624026D01*
X137919461Y-75663800D01*
X138123339Y-75663800D01*
X138323298Y-75624026D01*
X138511656Y-75546005D01*
X138681174Y-75432737D01*
X138825337Y-75288574D01*
X138938605Y-75119056D01*
X139016626Y-74930698D01*
X139056400Y-74730739D01*
X139056400Y-74526861D01*
X139023083Y-74359361D01*
X140949000Y-74359361D01*
X140949000Y-74563239D01*
X140988774Y-74763198D01*
X141066795Y-74951556D01*
X141180063Y-75121074D01*
X141324226Y-75265237D01*
X141493744Y-75378505D01*
X141682102Y-75456526D01*
X141882061Y-75496300D01*
X142085939Y-75496300D01*
X142285898Y-75456526D01*
X142474256Y-75378505D01*
X142643774Y-75265237D01*
X142787937Y-75121074D01*
X142855151Y-75020481D01*
X142858261Y-75021100D01*
X143062139Y-75021100D01*
X143262098Y-74981326D01*
X143450456Y-74903305D01*
X143619974Y-74790037D01*
X143764137Y-74645874D01*
X143877405Y-74476356D01*
X143916090Y-74382961D01*
X148973000Y-74382961D01*
X148973000Y-74586839D01*
X149012774Y-74786798D01*
X149090795Y-74975156D01*
X149204063Y-75144674D01*
X149348226Y-75288837D01*
X149517744Y-75402105D01*
X149706102Y-75480126D01*
X149906061Y-75519900D01*
X150109939Y-75519900D01*
X150309898Y-75480126D01*
X150498256Y-75402105D01*
X150667774Y-75288837D01*
X150811937Y-75144674D01*
X150925205Y-74975156D01*
X151003226Y-74786798D01*
X151043000Y-74586839D01*
X151043000Y-74586015D01*
X151085756Y-74568305D01*
X151255274Y-74455037D01*
X151399437Y-74310874D01*
X151512705Y-74141356D01*
X151590726Y-73952998D01*
X151630500Y-73753039D01*
X151630500Y-73549161D01*
X151590726Y-73349202D01*
X151512705Y-73160844D01*
X151399437Y-72991326D01*
X151255274Y-72847163D01*
X151085756Y-72733895D01*
X150897398Y-72655874D01*
X150697439Y-72616100D01*
X150493561Y-72616100D01*
X150293602Y-72655874D01*
X150105244Y-72733895D01*
X149935726Y-72847163D01*
X149791563Y-72991326D01*
X149678295Y-73160844D01*
X149600274Y-73349202D01*
X149560500Y-73549161D01*
X149560500Y-73549985D01*
X149517744Y-73567695D01*
X149348226Y-73680963D01*
X149204063Y-73825126D01*
X149090795Y-73994644D01*
X149012774Y-74183002D01*
X148973000Y-74382961D01*
X143916090Y-74382961D01*
X143955426Y-74287998D01*
X143995200Y-74088039D01*
X143995200Y-73884161D01*
X143955426Y-73684202D01*
X143877405Y-73495844D01*
X143764137Y-73326326D01*
X143619974Y-73182163D01*
X143450456Y-73068895D01*
X143262098Y-72990874D01*
X143062139Y-72951100D01*
X142858261Y-72951100D01*
X142658302Y-72990874D01*
X142469944Y-73068895D01*
X142300426Y-73182163D01*
X142156263Y-73326326D01*
X142089049Y-73426919D01*
X142085939Y-73426300D01*
X141882061Y-73426300D01*
X141682102Y-73466074D01*
X141493744Y-73544095D01*
X141324226Y-73657363D01*
X141180063Y-73801526D01*
X141066795Y-73971044D01*
X140988774Y-74159402D01*
X140949000Y-74359361D01*
X139023083Y-74359361D01*
X139016626Y-74326902D01*
X138938605Y-74138544D01*
X138825337Y-73969026D01*
X138681174Y-73824863D01*
X138511656Y-73711595D01*
X138323298Y-73633574D01*
X138123339Y-73593800D01*
X137919461Y-73593800D01*
X137719502Y-73633574D01*
X137531144Y-73711595D01*
X137361626Y-73824863D01*
X137217463Y-73969026D01*
X137104195Y-74138544D01*
X137026174Y-74326902D01*
X136986400Y-74526861D01*
X121225400Y-74526861D01*
X121225400Y-71519461D01*
X140153600Y-71519461D01*
X140153600Y-71723339D01*
X140193374Y-71923298D01*
X140271395Y-72111656D01*
X140384663Y-72281174D01*
X140528826Y-72425337D01*
X140698344Y-72538605D01*
X140886702Y-72616626D01*
X141086661Y-72656400D01*
X141290539Y-72656400D01*
X141490498Y-72616626D01*
X141678856Y-72538605D01*
X141848374Y-72425337D01*
X141992537Y-72281174D01*
X142105805Y-72111656D01*
X142183826Y-71923298D01*
X142223600Y-71723339D01*
X142223600Y-71519461D01*
X142183826Y-71319502D01*
X142105805Y-71131144D01*
X141992537Y-70961626D01*
X141848374Y-70817463D01*
X141678856Y-70704195D01*
X141490498Y-70626174D01*
X141290539Y-70586400D01*
X141086661Y-70586400D01*
X140886702Y-70626174D01*
X140698344Y-70704195D01*
X140528826Y-70817463D01*
X140384663Y-70961626D01*
X140271395Y-71131144D01*
X140193374Y-71319502D01*
X140153600Y-71519461D01*
X121225400Y-71519461D01*
X121225400Y-70284700D01*
X121371439Y-70284700D01*
X121571398Y-70244926D01*
X121759756Y-70166905D01*
X121929274Y-70053637D01*
X122073437Y-69909474D01*
X122178271Y-69752578D01*
X122248261Y-69766500D01*
X122452139Y-69766500D01*
X122652098Y-69726726D01*
X122840456Y-69648705D01*
X123009974Y-69535437D01*
X123154137Y-69391274D01*
X123267405Y-69221756D01*
X123345426Y-69033398D01*
X123385200Y-68833439D01*
X123385200Y-68708861D01*
X140156000Y-68708861D01*
X140156000Y-68912739D01*
X140195774Y-69112698D01*
X140273795Y-69301056D01*
X140387063Y-69470574D01*
X140531226Y-69614737D01*
X140700744Y-69728005D01*
X140889102Y-69806026D01*
X141089061Y-69845800D01*
X141292939Y-69845800D01*
X141492898Y-69806026D01*
X141681256Y-69728005D01*
X141748519Y-69683061D01*
X142450100Y-69683061D01*
X142450100Y-69886939D01*
X142489874Y-70086898D01*
X142567895Y-70275256D01*
X142681163Y-70444774D01*
X142825326Y-70588937D01*
X142994844Y-70702205D01*
X143183202Y-70780226D01*
X143383161Y-70820000D01*
X143587039Y-70820000D01*
X143786998Y-70780226D01*
X143975356Y-70702205D01*
X144144874Y-70588937D01*
X144289037Y-70444774D01*
X144402305Y-70275256D01*
X144474542Y-70100861D01*
X150437300Y-70100861D01*
X150437300Y-70304739D01*
X150477074Y-70504698D01*
X150555095Y-70693056D01*
X150668363Y-70862574D01*
X150812526Y-71006737D01*
X150982044Y-71120005D01*
X151170402Y-71198026D01*
X151370361Y-71237800D01*
X151574239Y-71237800D01*
X151774198Y-71198026D01*
X151962556Y-71120005D01*
X152132074Y-71006737D01*
X152276237Y-70862574D01*
X152389505Y-70693056D01*
X152467526Y-70504698D01*
X152507300Y-70304739D01*
X152507300Y-70100861D01*
X152467526Y-69900902D01*
X152389505Y-69712544D01*
X152276237Y-69543026D01*
X152132074Y-69398863D01*
X151962556Y-69285595D01*
X151774198Y-69207574D01*
X151574239Y-69167800D01*
X151370361Y-69167800D01*
X151170402Y-69207574D01*
X150982044Y-69285595D01*
X150812526Y-69398863D01*
X150668363Y-69543026D01*
X150555095Y-69712544D01*
X150477074Y-69900902D01*
X150437300Y-70100861D01*
X144474542Y-70100861D01*
X144480326Y-70086898D01*
X144520100Y-69886939D01*
X144520100Y-69683061D01*
X144480326Y-69483102D01*
X144402305Y-69294744D01*
X144289037Y-69125226D01*
X144144874Y-68981063D01*
X143975356Y-68867795D01*
X143786998Y-68789774D01*
X143587039Y-68750000D01*
X143383161Y-68750000D01*
X143183202Y-68789774D01*
X142994844Y-68867795D01*
X142825326Y-68981063D01*
X142681163Y-69125226D01*
X142567895Y-69294744D01*
X142489874Y-69483102D01*
X142450100Y-69683061D01*
X141748519Y-69683061D01*
X141850774Y-69614737D01*
X141994937Y-69470574D01*
X142108205Y-69301056D01*
X142186226Y-69112698D01*
X142226000Y-68912739D01*
X142226000Y-68708861D01*
X142186226Y-68508902D01*
X142108205Y-68320544D01*
X141994937Y-68151026D01*
X141850774Y-68006863D01*
X141681256Y-67893595D01*
X141492898Y-67815574D01*
X141292939Y-67775800D01*
X141089061Y-67775800D01*
X140889102Y-67815574D01*
X140700744Y-67893595D01*
X140531226Y-68006863D01*
X140387063Y-68151026D01*
X140273795Y-68320544D01*
X140195774Y-68508902D01*
X140156000Y-68708861D01*
X123385200Y-68708861D01*
X123385200Y-68629561D01*
X123345426Y-68429602D01*
X123267405Y-68241244D01*
X123236187Y-68194524D01*
X123259237Y-68171474D01*
X123372505Y-68001956D01*
X123450526Y-67813598D01*
X123490300Y-67613639D01*
X123490300Y-67409761D01*
X123450526Y-67209802D01*
X123372505Y-67021444D01*
X123259237Y-66851926D01*
X123115074Y-66707763D01*
X122945556Y-66594495D01*
X122757198Y-66516474D01*
X122557239Y-66476700D01*
X122353361Y-66476700D01*
X122153402Y-66516474D01*
X121965044Y-66594495D01*
X121795526Y-66707763D01*
X121651363Y-66851926D01*
X121538095Y-67021444D01*
X121460074Y-67209802D01*
X121420300Y-67409761D01*
X121420300Y-67613639D01*
X121460074Y-67813598D01*
X121538095Y-68001956D01*
X121569313Y-68048676D01*
X121546263Y-68071726D01*
X121441429Y-68228622D01*
X121371439Y-68214700D01*
X121225400Y-68214700D01*
X121225400Y-64053055D01*
X121448509Y-64145470D01*
X121727680Y-64201000D01*
X122012320Y-64201000D01*
X122291491Y-64145470D01*
X122554464Y-64036543D01*
X122791134Y-63878405D01*
X122992405Y-63677134D01*
X123140000Y-63456243D01*
X123287595Y-63677134D01*
X123488866Y-63878405D01*
X123725536Y-64036543D01*
X123988509Y-64145470D01*
X124267680Y-64201000D01*
X124552320Y-64201000D01*
X124831491Y-64145470D01*
X125094464Y-64036543D01*
X125331134Y-63878405D01*
X125532405Y-63677134D01*
X125680000Y-63456243D01*
X125827595Y-63677134D01*
X126028866Y-63878405D01*
X126265536Y-64036543D01*
X126528509Y-64145470D01*
X126807680Y-64201000D01*
X127092320Y-64201000D01*
X127371491Y-64145470D01*
X127634464Y-64036543D01*
X127871134Y-63878405D01*
X128072405Y-63677134D01*
X128220000Y-63456243D01*
X128367595Y-63677134D01*
X128568866Y-63878405D01*
X128805536Y-64036543D01*
X129068509Y-64145470D01*
X129347680Y-64201000D01*
X129632320Y-64201000D01*
X129911491Y-64145470D01*
X130174464Y-64036543D01*
X130411134Y-63878405D01*
X130612405Y-63677134D01*
X130760000Y-63456243D01*
X130907595Y-63677134D01*
X131108866Y-63878405D01*
X131345536Y-64036543D01*
X131608509Y-64145470D01*
X131887680Y-64201000D01*
X132172320Y-64201000D01*
X132451491Y-64145470D01*
X132714464Y-64036543D01*
X132951134Y-63878405D01*
X133152405Y-63677134D01*
X133300000Y-63456243D01*
X133447595Y-63677134D01*
X133648866Y-63878405D01*
X133885536Y-64036543D01*
X134148509Y-64145470D01*
X134427680Y-64201000D01*
X134712320Y-64201000D01*
X134991491Y-64145470D01*
X135254464Y-64036543D01*
X135491134Y-63878405D01*
X135692405Y-63677134D01*
X135840000Y-63456243D01*
X135987595Y-63677134D01*
X136188866Y-63878405D01*
X136425536Y-64036543D01*
X136688509Y-64145470D01*
X136967680Y-64201000D01*
X137252320Y-64201000D01*
X137531491Y-64145470D01*
X137794464Y-64036543D01*
X138031134Y-63878405D01*
X138232405Y-63677134D01*
X138380000Y-63456243D01*
X138527595Y-63677134D01*
X138728866Y-63878405D01*
X138965536Y-64036543D01*
X139228509Y-64145470D01*
X139507680Y-64201000D01*
X139792320Y-64201000D01*
X140071491Y-64145470D01*
X140334464Y-64036543D01*
X140571134Y-63878405D01*
X140772405Y-63677134D01*
X140920000Y-63456243D01*
X141067595Y-63677134D01*
X141268866Y-63878405D01*
X141505536Y-64036543D01*
X141768509Y-64145470D01*
X142047680Y-64201000D01*
X142332320Y-64201000D01*
X142611491Y-64145470D01*
X142874464Y-64036543D01*
X143111134Y-63878405D01*
X143312405Y-63677134D01*
X143460000Y-63456243D01*
X143607595Y-63677134D01*
X143808866Y-63878405D01*
X143859171Y-63912018D01*
X143839663Y-63931526D01*
X143726395Y-64101044D01*
X143648374Y-64289402D01*
X143608600Y-64489361D01*
X143608600Y-64693239D01*
X143648374Y-64893198D01*
X143726395Y-65081556D01*
X143839663Y-65251074D01*
X143983826Y-65395237D01*
X144153344Y-65508505D01*
X144341702Y-65586526D01*
X144541661Y-65626300D01*
X144745539Y-65626300D01*
X144945498Y-65586526D01*
X145133856Y-65508505D01*
X145303374Y-65395237D01*
X145447537Y-65251074D01*
X145560805Y-65081556D01*
X145638826Y-64893198D01*
X145678600Y-64693239D01*
X145678600Y-64489361D01*
X145638826Y-64289402D01*
X145560805Y-64101044D01*
X145485840Y-63988851D01*
X145651134Y-63878405D01*
X145852405Y-63677134D01*
X146000000Y-63456243D01*
X146147595Y-63677134D01*
X146348866Y-63878405D01*
X146585536Y-64036543D01*
X146848509Y-64145470D01*
X147127680Y-64201000D01*
X147412320Y-64201000D01*
X147691491Y-64145470D01*
X147954464Y-64036543D01*
X148191134Y-63878405D01*
X148392405Y-63677134D01*
X148540000Y-63456243D01*
X148687595Y-63677134D01*
X148888866Y-63878405D01*
X149125536Y-64036543D01*
X149388509Y-64145470D01*
X149667680Y-64201000D01*
X149952320Y-64201000D01*
X150231491Y-64145470D01*
X150494464Y-64036543D01*
X150731134Y-63878405D01*
X150932405Y-63677134D01*
X151080000Y-63456243D01*
X151227595Y-63677134D01*
X151428866Y-63878405D01*
X151665536Y-64036543D01*
X151928509Y-64145470D01*
X152207680Y-64201000D01*
X152492320Y-64201000D01*
X152771491Y-64145470D01*
X153034464Y-64036543D01*
X153271134Y-63878405D01*
X153472405Y-63677134D01*
X153620000Y-63456243D01*
X153767595Y-63677134D01*
X153968866Y-63878405D01*
X154205536Y-64036543D01*
X154468509Y-64145470D01*
X154747680Y-64201000D01*
X155032320Y-64201000D01*
X155311491Y-64145470D01*
X155534600Y-64053055D01*
X155534600Y-66122077D01*
X155530924Y-66159400D01*
X155534600Y-66196722D01*
X155534600Y-66196732D01*
X155545597Y-66308385D01*
X155574825Y-66404737D01*
X155589054Y-66451646D01*
X155659626Y-66583676D01*
X155699471Y-66632226D01*
X155754599Y-66699401D01*
X155783603Y-66723204D01*
X156243461Y-67183062D01*
X156067144Y-67256095D01*
X155897626Y-67369363D01*
X155753463Y-67513526D01*
X155640195Y-67683044D01*
X155562174Y-67871402D01*
X155538124Y-67992309D01*
X155464902Y-68006874D01*
X155276544Y-68084895D01*
X155107026Y-68198163D01*
X154962863Y-68342326D01*
X154849595Y-68511844D01*
X154771574Y-68700202D01*
X154731800Y-68900161D01*
X154731800Y-69104039D01*
X154771574Y-69303998D01*
X154849595Y-69492356D01*
X154962863Y-69661874D01*
X155107026Y-69806037D01*
X155276544Y-69919305D01*
X155464902Y-69997326D01*
X155664861Y-70037100D01*
X155868739Y-70037100D01*
X156068698Y-69997326D01*
X156257056Y-69919305D01*
X156426574Y-69806037D01*
X156570737Y-69661874D01*
X156684005Y-69492356D01*
X156762026Y-69303998D01*
X156786076Y-69183091D01*
X156859298Y-69168526D01*
X157047656Y-69090505D01*
X157217174Y-68977237D01*
X157361337Y-68833074D01*
X157474605Y-68663556D01*
X157547638Y-68487240D01*
X157868201Y-68807803D01*
X157868200Y-80348489D01*
X157824263Y-80392426D01*
X157710995Y-80561944D01*
X157632974Y-80750302D01*
X157593200Y-80950261D01*
X157593200Y-81154139D01*
X157632974Y-81354098D01*
X157710995Y-81542456D01*
X157824263Y-81711974D01*
X157968426Y-81856137D01*
X158137944Y-81969405D01*
X158326302Y-82047426D01*
X158526261Y-82087200D01*
X158730139Y-82087200D01*
X158930098Y-82047426D01*
X159118456Y-81969405D01*
X159283597Y-81859061D01*
X181826500Y-81859061D01*
X181826500Y-82062939D01*
X181866274Y-82262898D01*
X181944295Y-82451256D01*
X182057563Y-82620774D01*
X182201726Y-82764937D01*
X182371244Y-82878205D01*
X182559602Y-82956226D01*
X182759561Y-82996000D01*
X182963439Y-82996000D01*
X183163398Y-82956226D01*
X183351756Y-82878205D01*
X183521274Y-82764937D01*
X183665437Y-82620774D01*
X183778705Y-82451256D01*
X183856726Y-82262898D01*
X183896500Y-82062939D01*
X183896500Y-81859061D01*
X183856726Y-81659102D01*
X183778705Y-81470744D01*
X183665437Y-81301226D01*
X183521274Y-81157063D01*
X183351756Y-81043795D01*
X183163398Y-80965774D01*
X182963439Y-80926000D01*
X182759561Y-80926000D01*
X182559602Y-80965774D01*
X182371244Y-81043795D01*
X182201726Y-81157063D01*
X182057563Y-81301226D01*
X181944295Y-81470744D01*
X181866274Y-81659102D01*
X181826500Y-81859061D01*
X159283597Y-81859061D01*
X159287974Y-81856137D01*
X159432137Y-81711974D01*
X159545405Y-81542456D01*
X159623426Y-81354098D01*
X159663200Y-81154139D01*
X159663200Y-80950261D01*
X159623426Y-80750302D01*
X159545405Y-80561944D01*
X159432137Y-80392426D01*
X159388200Y-80348489D01*
X159388200Y-68530325D01*
X159391876Y-68493000D01*
X159388200Y-68455675D01*
X159388200Y-68455667D01*
X159377203Y-68344014D01*
X159333746Y-68200753D01*
X159263174Y-68068724D01*
X159168201Y-67952999D01*
X159139203Y-67929201D01*
X157054600Y-65844599D01*
X157054600Y-65333204D01*
X157085895Y-65408756D01*
X157199163Y-65578274D01*
X157343326Y-65722437D01*
X157512844Y-65835705D01*
X157701202Y-65913726D01*
X157778294Y-65929060D01*
X157845395Y-66091056D01*
X157958663Y-66260574D01*
X158102826Y-66404737D01*
X158272344Y-66518005D01*
X158460702Y-66596026D01*
X158660661Y-66635800D01*
X158864539Y-66635800D01*
X159064498Y-66596026D01*
X159252856Y-66518005D01*
X159422374Y-66404737D01*
X159566537Y-66260574D01*
X159679805Y-66091056D01*
X159757826Y-65902698D01*
X159797600Y-65702739D01*
X159797600Y-65498861D01*
X159757826Y-65298902D01*
X159679805Y-65110544D01*
X159566537Y-64941026D01*
X159522600Y-64897089D01*
X159522600Y-64134738D01*
X159548509Y-64145470D01*
X159827680Y-64201000D01*
X160112320Y-64201000D01*
X160391491Y-64145470D01*
X160422701Y-64132543D01*
X160422701Y-66549366D01*
X160393502Y-66555174D01*
X160205144Y-66633195D01*
X160035626Y-66746463D01*
X159891463Y-66890626D01*
X159778195Y-67060144D01*
X159700174Y-67248502D01*
X159660400Y-67448461D01*
X159660400Y-67652339D01*
X159700174Y-67852298D01*
X159778195Y-68040656D01*
X159891463Y-68210174D01*
X160035626Y-68354337D01*
X160205144Y-68467605D01*
X160393502Y-68545626D01*
X160593461Y-68585400D01*
X160797339Y-68585400D01*
X160997298Y-68545626D01*
X161185656Y-68467605D01*
X161355174Y-68354337D01*
X161499337Y-68210174D01*
X161612605Y-68040656D01*
X161690626Y-67852298D01*
X161730400Y-67652339D01*
X161730400Y-67593720D01*
X161817674Y-67487376D01*
X161888246Y-67355347D01*
X161931703Y-67212086D01*
X161942700Y-67100433D01*
X161942700Y-67100424D01*
X161946376Y-67063101D01*
X161942700Y-67025778D01*
X161942700Y-66153161D01*
X167003800Y-66153161D01*
X167003800Y-66357039D01*
X167043574Y-66556998D01*
X167121595Y-66745356D01*
X167234863Y-66914874D01*
X167379026Y-67059037D01*
X167548544Y-67172305D01*
X167736902Y-67250326D01*
X167936861Y-67290100D01*
X168140739Y-67290100D01*
X168340698Y-67250326D01*
X168529056Y-67172305D01*
X168698574Y-67059037D01*
X168842737Y-66914874D01*
X168956005Y-66745356D01*
X169034026Y-66556998D01*
X169073800Y-66357039D01*
X169073800Y-66153161D01*
X169034026Y-65953202D01*
X168956005Y-65764844D01*
X168842737Y-65595326D01*
X168698574Y-65451163D01*
X168529056Y-65337895D01*
X168340698Y-65259874D01*
X168140739Y-65220100D01*
X167936861Y-65220100D01*
X167736902Y-65259874D01*
X167548544Y-65337895D01*
X167379026Y-65451163D01*
X167234863Y-65595326D01*
X167121595Y-65764844D01*
X167043574Y-65953202D01*
X167003800Y-66153161D01*
X161942700Y-66153161D01*
X161942700Y-64085074D01*
X162088509Y-64145470D01*
X162367680Y-64201000D01*
X162652320Y-64201000D01*
X162931491Y-64145470D01*
X163194464Y-64036543D01*
X163431134Y-63878405D01*
X163632405Y-63677134D01*
X163780000Y-63456243D01*
X163927595Y-63677134D01*
X164128866Y-63878405D01*
X164365536Y-64036543D01*
X164628509Y-64145470D01*
X164907680Y-64201000D01*
X165192320Y-64201000D01*
X165471491Y-64145470D01*
X165734464Y-64036543D01*
X165971134Y-63878405D01*
X166172405Y-63677134D01*
X166320000Y-63456243D01*
X166467595Y-63677134D01*
X166668866Y-63878405D01*
X166905536Y-64036543D01*
X167168509Y-64145470D01*
X167447680Y-64201000D01*
X167732320Y-64201000D01*
X168011491Y-64145470D01*
X168274464Y-64036543D01*
X168511134Y-63878405D01*
X168712405Y-63677134D01*
X168860000Y-63456243D01*
X169007595Y-63677134D01*
X169208866Y-63878405D01*
X169445536Y-64036543D01*
X169708509Y-64145470D01*
X169987680Y-64201000D01*
X170272320Y-64201000D01*
X170541101Y-64147537D01*
X170541100Y-71144200D01*
X170370761Y-71144200D01*
X170170802Y-71183974D01*
X169982444Y-71261995D01*
X169812926Y-71375263D01*
X169668763Y-71519426D01*
X169555495Y-71688944D01*
X169477474Y-71877302D01*
X169437700Y-72077261D01*
X169437700Y-72281139D01*
X169477474Y-72481098D01*
X169555495Y-72669456D01*
X169668763Y-72838974D01*
X169812926Y-72983137D01*
X169982444Y-73096405D01*
X170170802Y-73174426D01*
X170370761Y-73214200D01*
X170541100Y-73214200D01*
X170541100Y-78395198D01*
X169627499Y-79308800D01*
X169565361Y-79308800D01*
X169365402Y-79348574D01*
X169177044Y-79426595D01*
X169007526Y-79539863D01*
X168863363Y-79684026D01*
X168750095Y-79853544D01*
X168672074Y-80041902D01*
X168632300Y-80241861D01*
X168632300Y-80445739D01*
X168672074Y-80645698D01*
X168750095Y-80834056D01*
X168863363Y-81003574D01*
X169007526Y-81147737D01*
X169177044Y-81261005D01*
X169365402Y-81339026D01*
X169565361Y-81378800D01*
X169769239Y-81378800D01*
X169969198Y-81339026D01*
X170157556Y-81261005D01*
X170327074Y-81147737D01*
X170471237Y-81003574D01*
X170584505Y-80834056D01*
X170662526Y-80645698D01*
X170702300Y-80445739D01*
X170702300Y-80383601D01*
X171434528Y-79651374D01*
X171538363Y-79806774D01*
X171682526Y-79950937D01*
X171852044Y-80064205D01*
X172040402Y-80142226D01*
X172240361Y-80182000D01*
X172444239Y-80182000D01*
X172644198Y-80142226D01*
X172832556Y-80064205D01*
X173002074Y-79950937D01*
X173146237Y-79806774D01*
X173259505Y-79637256D01*
X173337526Y-79448898D01*
X173377300Y-79248939D01*
X173377300Y-79186801D01*
X174054203Y-78509899D01*
X174083201Y-78486101D01*
X174139292Y-78417754D01*
X174178174Y-78370377D01*
X174248746Y-78238347D01*
X174265275Y-78183856D01*
X174292203Y-78095086D01*
X174303200Y-77983433D01*
X174303200Y-77983424D01*
X174306876Y-77946101D01*
X174303200Y-77908778D01*
X174303200Y-76021590D01*
X174482998Y-75985826D01*
X174662324Y-75911546D01*
X174692644Y-75931805D01*
X174881002Y-76009826D01*
X175080961Y-76049600D01*
X175284839Y-76049600D01*
X175484798Y-76009826D01*
X175673156Y-75931805D01*
X175842674Y-75818537D01*
X175986837Y-75674374D01*
X176100105Y-75504856D01*
X176178126Y-75316498D01*
X176217900Y-75116539D01*
X176217900Y-74912661D01*
X176178126Y-74712702D01*
X176100105Y-74524344D01*
X175986837Y-74354826D01*
X175842674Y-74210663D01*
X175673156Y-74097395D01*
X175484798Y-74019374D01*
X175284839Y-73979600D01*
X175080961Y-73979600D01*
X174881002Y-74019374D01*
X174701676Y-74093654D01*
X174671356Y-74073395D01*
X174565400Y-74029506D01*
X174565400Y-64053055D01*
X174788509Y-64145470D01*
X175067680Y-64201000D01*
X175352320Y-64201000D01*
X175631491Y-64145470D01*
X175894464Y-64036543D01*
X176131134Y-63878405D01*
X176332405Y-63677134D01*
X176480000Y-63456243D01*
X176627595Y-63677134D01*
X176828866Y-63878405D01*
X177065536Y-64036543D01*
X177328509Y-64145470D01*
X177607680Y-64201000D01*
X177892320Y-64201000D01*
X178171491Y-64145470D01*
X178434464Y-64036543D01*
X178671134Y-63878405D01*
X178872405Y-63677134D01*
X179030543Y-63440464D01*
X179139470Y-63177491D01*
X179195000Y-62898320D01*
X179195000Y-62613680D01*
X179139470Y-62334509D01*
X179030543Y-62071536D01*
X178872405Y-61834866D01*
X178671134Y-61633595D01*
X178450243Y-61486000D01*
X178671134Y-61338405D01*
X178872405Y-61137134D01*
X179030543Y-60900464D01*
X179139470Y-60637491D01*
X179195000Y-60358320D01*
X179195000Y-60073680D01*
X179139470Y-59794509D01*
X179030543Y-59531536D01*
X178872405Y-59294866D01*
X178671134Y-59093595D01*
X178450243Y-58946000D01*
X178671134Y-58798405D01*
X178872405Y-58597134D01*
X179030543Y-58360464D01*
X179139470Y-58097491D01*
X179195000Y-57818320D01*
X179195000Y-57533680D01*
X179139470Y-57254509D01*
X179030543Y-56991536D01*
X178872405Y-56754866D01*
X178671134Y-56553595D01*
X178450243Y-56406000D01*
X178671134Y-56258405D01*
X178872405Y-56057134D01*
X179030543Y-55820464D01*
X179139470Y-55557491D01*
X179195000Y-55278320D01*
X179195000Y-54993680D01*
X179139470Y-54714509D01*
X179030543Y-54451536D01*
X178872405Y-54214866D01*
X178671134Y-54013595D01*
X178434464Y-53855457D01*
X178171491Y-53746530D01*
X177892320Y-53691000D01*
X177607680Y-53691000D01*
X177328509Y-53746530D01*
X177065536Y-53855457D01*
X176828866Y-54013595D01*
X176627595Y-54214866D01*
X176480000Y-54435757D01*
X176332405Y-54214866D01*
X176131134Y-54013595D01*
X175894464Y-53855457D01*
X175631491Y-53746530D01*
X175352320Y-53691000D01*
X175067680Y-53691000D01*
X174788509Y-53746530D01*
X174525536Y-53855457D01*
X174288866Y-54013595D01*
X174087595Y-54214866D01*
X173940000Y-54435757D01*
X173792405Y-54214866D01*
X173591134Y-54013595D01*
X173354464Y-53855457D01*
X173091491Y-53746530D01*
X172812320Y-53691000D01*
X172527680Y-53691000D01*
X172248509Y-53746530D01*
X171985536Y-53855457D01*
X171748866Y-54013595D01*
X171547595Y-54214866D01*
X171400000Y-54435757D01*
X171252405Y-54214866D01*
X171051134Y-54013595D01*
X170814464Y-53855457D01*
X170551491Y-53746530D01*
X170272320Y-53691000D01*
X169987680Y-53691000D01*
X169708509Y-53746530D01*
X169445536Y-53855457D01*
X169208866Y-54013595D01*
X169007595Y-54214866D01*
X168860000Y-54435757D01*
X168712405Y-54214866D01*
X168511134Y-54013595D01*
X168274464Y-53855457D01*
X168011491Y-53746530D01*
X167732320Y-53691000D01*
X167447680Y-53691000D01*
X167168509Y-53746530D01*
X166905536Y-53855457D01*
X166668866Y-54013595D01*
X166467595Y-54214866D01*
X166320000Y-54435757D01*
X166172405Y-54214866D01*
X165971134Y-54013595D01*
X165734464Y-53855457D01*
X165471491Y-53746530D01*
X165192320Y-53691000D01*
X164907680Y-53691000D01*
X164628509Y-53746530D01*
X164365536Y-53855457D01*
X164128866Y-54013595D01*
X163927595Y-54214866D01*
X163780000Y-54435757D01*
X163632405Y-54214866D01*
X163431134Y-54013595D01*
X163194464Y-53855457D01*
X162931491Y-53746530D01*
X162652320Y-53691000D01*
X162367680Y-53691000D01*
X162088509Y-53746530D01*
X161825536Y-53855457D01*
X161588866Y-54013595D01*
X161387595Y-54214866D01*
X161240000Y-54435757D01*
X161092405Y-54214866D01*
X160891134Y-54013595D01*
X160654464Y-53855457D01*
X160391491Y-53746530D01*
X160112320Y-53691000D01*
X159827680Y-53691000D01*
X159548509Y-53746530D01*
X159285536Y-53855457D01*
X159048866Y-54013595D01*
X158847595Y-54214866D01*
X158700000Y-54435757D01*
X158552405Y-54214866D01*
X158351134Y-54013595D01*
X158114464Y-53855457D01*
X157851491Y-53746530D01*
X157572320Y-53691000D01*
X157287680Y-53691000D01*
X157008509Y-53746530D01*
X156745536Y-53855457D01*
X156508866Y-54013595D01*
X156307595Y-54214866D01*
X156160000Y-54435757D01*
X156012405Y-54214866D01*
X155811134Y-54013595D01*
X155574464Y-53855457D01*
X155311491Y-53746530D01*
X155032320Y-53691000D01*
X154747680Y-53691000D01*
X154468509Y-53746530D01*
X154205536Y-53855457D01*
X153968866Y-54013595D01*
X153767595Y-54214866D01*
X153620000Y-54435757D01*
X153472405Y-54214866D01*
X153271134Y-54013595D01*
X153034464Y-53855457D01*
X152771491Y-53746530D01*
X152492320Y-53691000D01*
X152207680Y-53691000D01*
X151928509Y-53746530D01*
X151665536Y-53855457D01*
X151428866Y-54013595D01*
X151227595Y-54214866D01*
X151080000Y-54435757D01*
X150932405Y-54214866D01*
X150731134Y-54013595D01*
X150494464Y-53855457D01*
X150231491Y-53746530D01*
X149952320Y-53691000D01*
X149667680Y-53691000D01*
X149388509Y-53746530D01*
X149125536Y-53855457D01*
X148888866Y-54013595D01*
X148687595Y-54214866D01*
X148540000Y-54435757D01*
X148392405Y-54214866D01*
X148191134Y-54013595D01*
X147954464Y-53855457D01*
X147691491Y-53746530D01*
X147412320Y-53691000D01*
X147127680Y-53691000D01*
X146848509Y-53746530D01*
X146585536Y-53855457D01*
X146348866Y-54013595D01*
X146147595Y-54214866D01*
X146000000Y-54435757D01*
X145852405Y-54214866D01*
X145651134Y-54013595D01*
X145414464Y-53855457D01*
X145151491Y-53746530D01*
X144872320Y-53691000D01*
X144587680Y-53691000D01*
X144308509Y-53746530D01*
X144045536Y-53855457D01*
X143808866Y-54013595D01*
X143607595Y-54214866D01*
X143460000Y-54435757D01*
X143312405Y-54214866D01*
X143111134Y-54013595D01*
X142874464Y-53855457D01*
X142611491Y-53746530D01*
X142332320Y-53691000D01*
X142047680Y-53691000D01*
X141768509Y-53746530D01*
X141505536Y-53855457D01*
X141268866Y-54013595D01*
X141067595Y-54214866D01*
X140920000Y-54435757D01*
X140772405Y-54214866D01*
X140571134Y-54013595D01*
X140334464Y-53855457D01*
X140071491Y-53746530D01*
X139792320Y-53691000D01*
X139507680Y-53691000D01*
X139228509Y-53746530D01*
X138965536Y-53855457D01*
X138728866Y-54013595D01*
X138527595Y-54214866D01*
X138380000Y-54435757D01*
X138232405Y-54214866D01*
X138031134Y-54013595D01*
X137794464Y-53855457D01*
X137531491Y-53746530D01*
X137252320Y-53691000D01*
X136967680Y-53691000D01*
X136688509Y-53746530D01*
X136425536Y-53855457D01*
X136188866Y-54013595D01*
X135987595Y-54214866D01*
X135840000Y-54435757D01*
X135692405Y-54214866D01*
X135491134Y-54013595D01*
X135254464Y-53855457D01*
X134991491Y-53746530D01*
X134712320Y-53691000D01*
X134427680Y-53691000D01*
X134148509Y-53746530D01*
X133885536Y-53855457D01*
X133648866Y-54013595D01*
X133447595Y-54214866D01*
X133300000Y-54435757D01*
X133152405Y-54214866D01*
X132951134Y-54013595D01*
X132714464Y-53855457D01*
X132451491Y-53746530D01*
X132172320Y-53691000D01*
X131887680Y-53691000D01*
X131608509Y-53746530D01*
X131345536Y-53855457D01*
X131108866Y-54013595D01*
X130907595Y-54214866D01*
X130760000Y-54435757D01*
X130612405Y-54214866D01*
X130411134Y-54013595D01*
X130174464Y-53855457D01*
X129911491Y-53746530D01*
X129632320Y-53691000D01*
X129347680Y-53691000D01*
X129068509Y-53746530D01*
X128805536Y-53855457D01*
X128568866Y-54013595D01*
X128367595Y-54214866D01*
X128220000Y-54435757D01*
X128072405Y-54214866D01*
X127871134Y-54013595D01*
X127634464Y-53855457D01*
X127371491Y-53746530D01*
X127092320Y-53691000D01*
X126807680Y-53691000D01*
X126528509Y-53746530D01*
X126265536Y-53855457D01*
X126028866Y-54013595D01*
X125827595Y-54214866D01*
X125680000Y-54435757D01*
X125532405Y-54214866D01*
X125331134Y-54013595D01*
X125094464Y-53855457D01*
X124831491Y-53746530D01*
X124552320Y-53691000D01*
X124267680Y-53691000D01*
X123988509Y-53746530D01*
X123725536Y-53855457D01*
X123488866Y-54013595D01*
X123287595Y-54214866D01*
X123140000Y-54435757D01*
X122992405Y-54214866D01*
X122791134Y-54013595D01*
X122554464Y-53855457D01*
X122291491Y-53746530D01*
X122012320Y-53691000D01*
X121727680Y-53691000D01*
X121448509Y-53746530D01*
X121185536Y-53855457D01*
X120948866Y-54013595D01*
X120747595Y-54214866D01*
X120600000Y-54435757D01*
X120452405Y-54214866D01*
X120251134Y-54013595D01*
X120014464Y-53855457D01*
X119751491Y-53746530D01*
X119472320Y-53691000D01*
X119187680Y-53691000D01*
X118908509Y-53746530D01*
X118645536Y-53855457D01*
X118408866Y-54013595D01*
X118207595Y-54214866D01*
X118060000Y-54435757D01*
X117912405Y-54214866D01*
X117711134Y-54013595D01*
X117474464Y-53855457D01*
X117211491Y-53746530D01*
X116932320Y-53691000D01*
X116647680Y-53691000D01*
X116368509Y-53746530D01*
X116105536Y-53855457D01*
X115868866Y-54013595D01*
X115667595Y-54214866D01*
X115520000Y-54435757D01*
X115372405Y-54214866D01*
X115171134Y-54013595D01*
X114934464Y-53855457D01*
X114671491Y-53746530D01*
X114392320Y-53691000D01*
X114107680Y-53691000D01*
X113828509Y-53746530D01*
X113565536Y-53855457D01*
X113328866Y-54013595D01*
X113127595Y-54214866D01*
X112969457Y-54451536D01*
X112860530Y-54714509D01*
X112805000Y-54993680D01*
X112547000Y-54993680D01*
X112497292Y-54478842D01*
X112304962Y-53840395D01*
X111991772Y-53251738D01*
X111984503Y-53240859D01*
X111540930Y-52934678D01*
X111629608Y-52846000D01*
X180370392Y-52846000D01*
X180459070Y-52934678D01*
M02*
