G04 #@! TF.GenerationSoftware,KiCad,Pcbnew,5.1.6-1.fc32*
G04 #@! TF.CreationDate,2020-09-21T20:32:52-03:00*
G04 #@! TF.ProjectId,pc104-adapter-bottom,70633130-342d-4616-9461-707465722d62,v2.0*
G04 #@! TF.SameCoordinates,Original*
G04 #@! TF.FileFunction,Copper,L2,Inr*
G04 #@! TF.FilePolarity,Positive*
%FSLAX46Y46*%
G04 Gerber Fmt 4.6, Leading zero omitted, Abs format (unit mm)*
G04 Created by KiCad (PCBNEW 5.1.6-1.fc32) date 2020-09-21 20:32:52*
%MOMM*%
%LPD*%
G01*
G04 APERTURE LIST*
G04 #@! TA.AperFunction,ViaPad*
%ADD10C,5.500000*%
G04 #@! TD*
G04 #@! TA.AperFunction,ViaPad*
%ADD11C,1.620000*%
G04 #@! TD*
G04 #@! TA.AperFunction,ViaPad*
%ADD12C,0.800000*%
G04 #@! TD*
G04 #@! TA.AperFunction,Conductor*
%ADD13C,0.250000*%
G04 #@! TD*
G04 #@! TA.AperFunction,NonConductor*
%ADD14C,0.254000*%
G04 #@! TD*
G04 APERTURE END LIST*
D10*
X106370000Y-139936000D03*
X186430000Y-139936000D03*
D11*
X178750000Y-54236000D03*
X178750000Y-56776000D03*
X176210000Y-54236000D03*
X176210000Y-56776000D03*
X173670000Y-54236000D03*
X173670000Y-56776000D03*
X171130000Y-54236000D03*
X171130000Y-56776000D03*
X168590000Y-54236000D03*
X168590000Y-56776000D03*
X166050000Y-54236000D03*
X166050000Y-56776000D03*
X163510000Y-54236000D03*
X163510000Y-56776000D03*
X160970000Y-54236000D03*
X160970000Y-56776000D03*
X158430000Y-54236000D03*
X158430000Y-56776000D03*
X155890000Y-54236000D03*
X155890000Y-56776000D03*
X153350000Y-54236000D03*
X153350000Y-56776000D03*
X150810000Y-54236000D03*
X150810000Y-56776000D03*
X148270000Y-54236000D03*
X148270000Y-56776000D03*
X145730000Y-54236000D03*
X145730000Y-56776000D03*
X143190000Y-54236000D03*
X143190000Y-56776000D03*
X140650000Y-54236000D03*
X140650000Y-56776000D03*
X138110000Y-54236000D03*
X138110000Y-56776000D03*
X135570000Y-54236000D03*
X135570000Y-56776000D03*
X133030000Y-54236000D03*
X133030000Y-56776000D03*
X130490000Y-54236000D03*
X130490000Y-56776000D03*
X127950000Y-54236000D03*
X127950000Y-56776000D03*
X125410000Y-54236000D03*
X125410000Y-56776000D03*
X122870000Y-54236000D03*
X122870000Y-56776000D03*
X120330000Y-54236000D03*
X120330000Y-56776000D03*
X117790000Y-54236000D03*
X117790000Y-56776000D03*
X115250000Y-54236000D03*
X115250000Y-56776000D03*
X178750000Y-59316000D03*
X178750000Y-61856000D03*
X176210000Y-59316000D03*
X176210000Y-61856000D03*
X173670000Y-59316000D03*
X173670000Y-61856000D03*
X171130000Y-59316000D03*
X171130000Y-61856000D03*
X168590000Y-59316000D03*
X168590000Y-61856000D03*
X166050000Y-59316000D03*
X166050000Y-61856000D03*
X163510000Y-59316000D03*
X163510000Y-61856000D03*
X160970000Y-59316000D03*
X160970000Y-61856000D03*
X158430000Y-59316000D03*
X158430000Y-61856000D03*
X155890000Y-59316000D03*
X155890000Y-61856000D03*
X153350000Y-59316000D03*
X153350000Y-61856000D03*
X150810000Y-59316000D03*
X150810000Y-61856000D03*
X148270000Y-59316000D03*
X148270000Y-61856000D03*
X145730000Y-59316000D03*
X145730000Y-61856000D03*
X143190000Y-59316000D03*
X143190000Y-61856000D03*
X140650000Y-59316000D03*
X140650000Y-61856000D03*
X138110000Y-59316000D03*
X138110000Y-61856000D03*
X135570000Y-59316000D03*
X135570000Y-61856000D03*
X133030000Y-59316000D03*
X133030000Y-61856000D03*
X130490000Y-59316000D03*
X130490000Y-61856000D03*
X127950000Y-59316000D03*
X127950000Y-61856000D03*
X125410000Y-59316000D03*
X125410000Y-61856000D03*
X122870000Y-59316000D03*
X122870000Y-61856000D03*
X120330000Y-59316000D03*
X120330000Y-61856000D03*
X117790000Y-59316000D03*
X117790000Y-61856000D03*
X115250000Y-59316000D03*
X115250000Y-61856000D03*
D10*
X183820000Y-54236000D03*
X110170000Y-54236000D03*
D12*
X105300000Y-97000000D03*
X187300000Y-97000000D03*
X124703500Y-84477500D03*
X123174400Y-86552800D03*
X123455300Y-66611700D03*
X123218700Y-82209300D03*
X120326900Y-78344800D03*
X120663000Y-79758000D03*
X123204600Y-79668300D03*
X123350200Y-67831500D03*
X120679100Y-76940700D03*
X120630600Y-74519500D03*
X122269500Y-68349700D03*
X144245500Y-87315600D03*
X141722400Y-86679700D03*
X145643600Y-63691300D03*
X144485100Y-68885000D03*
X141611600Y-82068800D03*
X139021400Y-73728800D03*
X143960200Y-73086100D03*
X140851600Y-76999400D03*
X139963900Y-76332500D03*
X142188600Y-70721400D03*
X142984000Y-73561300D03*
X161695400Y-66650400D03*
X159762600Y-64700800D03*
X159003100Y-64018500D03*
X159628200Y-80152200D03*
X157557400Y-67273300D03*
X160263700Y-84600000D03*
X162795400Y-84831600D03*
X156766800Y-68102100D03*
X160273100Y-87945400D03*
X160271400Y-89600000D03*
X175181100Y-74090600D03*
X176182900Y-74114600D03*
X173746900Y-75628900D03*
X173342300Y-78247000D03*
X170667300Y-79443800D03*
X171472700Y-71279200D03*
X169038800Y-65355100D03*
X170791600Y-84760400D03*
X169774600Y-85001300D03*
X112684100Y-88553000D03*
X110148200Y-87272500D03*
X110138600Y-85992800D03*
X113432200Y-84071800D03*
X133714000Y-88585500D03*
X133728900Y-87303500D03*
X142191000Y-67910800D03*
X151008000Y-73584900D03*
X151595500Y-72751100D03*
X154506900Y-75548800D03*
X152761900Y-76793600D03*
X153776900Y-77049000D03*
X152472300Y-69302800D03*
X183861500Y-81061000D03*
X181303800Y-82046600D03*
X181320500Y-83569800D03*
X181304600Y-85051800D03*
X181328100Y-86134400D03*
X181325400Y-87415500D03*
X180294200Y-87462400D03*
D13*
X106370000Y-98070000D02*
X105300000Y-97000000D01*
X106370000Y-139936000D02*
X106370000Y-98070000D01*
X105300000Y-97000000D02*
X105300000Y-71600000D01*
X110170000Y-66730000D02*
X110170000Y-54236000D01*
X105300000Y-71600000D02*
X110170000Y-66730000D01*
X125410000Y-56776000D02*
X124140000Y-58046000D01*
X124140000Y-58046000D02*
X124140000Y-65927000D01*
X124140000Y-65927000D02*
X123455300Y-66611700D01*
X117790000Y-54236000D02*
X119060000Y-55506000D01*
X119060000Y-55506000D02*
X119060000Y-63541300D01*
X119060000Y-63541300D02*
X123350200Y-67831500D01*
X122269500Y-68349700D02*
X116520000Y-62600200D01*
X116520000Y-62600200D02*
X116520000Y-58046000D01*
X116520000Y-58046000D02*
X115250000Y-56776000D01*
X143190000Y-56776000D02*
X144460000Y-58046000D01*
X144460000Y-58046000D02*
X144460000Y-62507700D01*
X144460000Y-62507700D02*
X145643600Y-63691300D01*
X140650000Y-56776000D02*
X141920000Y-58046000D01*
X141920000Y-58046000D02*
X141920000Y-66319900D01*
X141920000Y-66319900D02*
X144485100Y-68885000D01*
X135570000Y-54236000D02*
X136840000Y-55506000D01*
X136840000Y-55506000D02*
X136840000Y-59713300D01*
X136840000Y-59713300D02*
X137578100Y-60451400D01*
X137578100Y-60451400D02*
X138316300Y-60451400D01*
X138316300Y-60451400D02*
X139245400Y-61380500D01*
X139245400Y-61380500D02*
X139245400Y-66279100D01*
X139245400Y-66279100D02*
X143960200Y-70993900D01*
X143960200Y-70993900D02*
X143960200Y-73086100D01*
X133030000Y-56776000D02*
X134300000Y-58046000D01*
X134300000Y-58046000D02*
X134300000Y-59740300D01*
X134300000Y-59740300D02*
X135011100Y-60451400D01*
X135011100Y-60451400D02*
X135776300Y-60451400D01*
X135776300Y-60451400D02*
X136974600Y-61649700D01*
X136974600Y-61649700D02*
X136974600Y-65507400D01*
X136974600Y-65507400D02*
X142188600Y-70721400D01*
X130490000Y-54236000D02*
X131760000Y-55506000D01*
X131760000Y-55506000D02*
X131760000Y-59713800D01*
X131760000Y-59713800D02*
X132629400Y-60583200D01*
X132629400Y-60583200D02*
X133364100Y-60583200D01*
X133364100Y-60583200D02*
X134165400Y-61384500D01*
X134165400Y-61384500D02*
X134165400Y-64742700D01*
X134165400Y-64742700D02*
X142984000Y-73561300D01*
X158430000Y-56776000D02*
X159626700Y-57972700D01*
X159626700Y-57972700D02*
X159626700Y-63394900D01*
X159626700Y-63394900D02*
X159003100Y-64018500D01*
X153350000Y-54236000D02*
X154620000Y-55506000D01*
X154620000Y-55506000D02*
X154620000Y-57200300D01*
X154620000Y-57200300D02*
X155331100Y-57911400D01*
X155331100Y-57911400D02*
X156096200Y-57911400D01*
X156096200Y-57911400D02*
X157160000Y-58975200D01*
X157160000Y-58975200D02*
X157160000Y-66875900D01*
X157160000Y-66875900D02*
X157557400Y-67273300D01*
X150810000Y-56776000D02*
X152214600Y-58180600D01*
X152214600Y-58180600D02*
X152214600Y-63549900D01*
X152214600Y-63549900D02*
X156766800Y-68102100D01*
X148270000Y-56776000D02*
X149540000Y-58046000D01*
X149540000Y-58046000D02*
X149540000Y-78868600D01*
X149540000Y-78868600D02*
X160271400Y-89600000D01*
X168590000Y-54236000D02*
X169785600Y-55431600D01*
X169785600Y-55431600D02*
X169785600Y-64608300D01*
X169785600Y-64608300D02*
X169038800Y-65355100D01*
X112684100Y-88553000D02*
X112684100Y-80803200D01*
X112684100Y-80803200D02*
X130490000Y-62997300D01*
X130490000Y-62997300D02*
X130490000Y-61856000D01*
X127950000Y-59316000D02*
X126680000Y-60586000D01*
X126680000Y-60586000D02*
X126680000Y-65533400D01*
X126680000Y-65533400D02*
X109386200Y-82827200D01*
X109386200Y-82827200D02*
X109386200Y-86510500D01*
X109386200Y-86510500D02*
X110148200Y-87272500D01*
X110138600Y-85992800D02*
X110138600Y-82711800D01*
X110138600Y-82711800D02*
X127950000Y-64900400D01*
X127950000Y-64900400D02*
X127950000Y-61856000D01*
X113432200Y-84071800D02*
X113432200Y-80692000D01*
X113432200Y-80692000D02*
X131625400Y-62498800D01*
X131625400Y-62498800D02*
X131625400Y-61297100D01*
X131625400Y-61297100D02*
X130914300Y-60586000D01*
X130914300Y-60586000D02*
X130147600Y-60586000D01*
X130147600Y-60586000D02*
X129085400Y-59523800D01*
X129085400Y-59523800D02*
X129085400Y-58757100D01*
X129085400Y-58757100D02*
X128463200Y-58134900D01*
X128463200Y-58134900D02*
X126591100Y-58134900D01*
X126591100Y-58134900D02*
X125410000Y-59316000D01*
X145730000Y-59316000D02*
X146920600Y-60506600D01*
X146920600Y-60506600D02*
X146920600Y-75378900D01*
X146920600Y-75378900D02*
X133714000Y-88585500D01*
X145730000Y-61856000D02*
X146377700Y-62503700D01*
X146377700Y-62503700D02*
X146377700Y-74654700D01*
X146377700Y-74654700D02*
X133728900Y-87303500D01*
X151008000Y-73584900D02*
X152952900Y-73584900D01*
X152952900Y-73584900D02*
X163510000Y-63027800D01*
X163510000Y-63027800D02*
X163510000Y-61856000D01*
X160970000Y-59316000D02*
X162160600Y-60506600D01*
X162160600Y-60506600D02*
X162160600Y-63740300D01*
X162160600Y-63740300D02*
X153149900Y-72751000D01*
X153149900Y-72751000D02*
X151595500Y-72751000D01*
X151595500Y-72751000D02*
X151595500Y-72751100D01*
X171130000Y-59316000D02*
X172400000Y-60586000D01*
X172400000Y-60586000D02*
X172400000Y-62489100D01*
X172400000Y-62489100D02*
X183861500Y-73950600D01*
X183861500Y-73950600D02*
X183861500Y-81061000D01*
X171130000Y-61856000D02*
X181303800Y-72029800D01*
X181303800Y-72029800D02*
X181303800Y-82046600D01*
X181328100Y-86134400D02*
X179840100Y-84646400D01*
X179840100Y-84646400D02*
X179840100Y-80696200D01*
X179840100Y-80696200D02*
X167320100Y-68176200D01*
X167320100Y-68176200D02*
X167320100Y-60586000D01*
X167320100Y-60586000D02*
X167320000Y-60586000D01*
X167320000Y-60586000D02*
X166050000Y-59316000D01*
X166050000Y-61856000D02*
X166050000Y-72140100D01*
X166050000Y-72140100D02*
X181325400Y-87415500D01*
X163510000Y-59316000D02*
X164780000Y-60586000D01*
X164780000Y-60586000D02*
X164780000Y-71948200D01*
X164780000Y-71948200D02*
X180294200Y-87462400D01*
D14*
G36*
X108012188Y-56865302D02*
G01*
X108566601Y-57235748D01*
X109182632Y-57490917D01*
X109410001Y-57536143D01*
X109410000Y-66415198D01*
X104788998Y-71036201D01*
X104760000Y-71059999D01*
X104736202Y-71088997D01*
X104736201Y-71088998D01*
X104665026Y-71175724D01*
X104594454Y-71307754D01*
X104550998Y-71451015D01*
X104536324Y-71600000D01*
X104540001Y-71637333D01*
X104540000Y-96296289D01*
X104496063Y-96340226D01*
X104382795Y-96509744D01*
X104304774Y-96698102D01*
X104269985Y-96873000D01*
X103980000Y-96873000D01*
X103980000Y-66870729D01*
X103998386Y-66683215D01*
X104042757Y-66536252D01*
X104114829Y-66400703D01*
X104211852Y-66281742D01*
X104330144Y-66183882D01*
X104465181Y-66110868D01*
X104611833Y-66065471D01*
X104797092Y-66046000D01*
X105604877Y-66046000D01*
X105635576Y-66042976D01*
X105644820Y-66043041D01*
X105654686Y-66042074D01*
X105945831Y-66011474D01*
X106008868Y-65998534D01*
X106072080Y-65986476D01*
X106081570Y-65983611D01*
X106361226Y-65897043D01*
X106420521Y-65872117D01*
X106480215Y-65847999D01*
X106488967Y-65843345D01*
X106746483Y-65704106D01*
X106799825Y-65668127D01*
X106853678Y-65632886D01*
X106861360Y-65626621D01*
X107086927Y-65440016D01*
X107132246Y-65394379D01*
X107178248Y-65349331D01*
X107184566Y-65341692D01*
X107369592Y-65114828D01*
X107405177Y-65061268D01*
X107441560Y-65008132D01*
X107446275Y-64999412D01*
X107583712Y-64740931D01*
X107608225Y-64681456D01*
X107633584Y-64622289D01*
X107636516Y-64612819D01*
X107721130Y-64332565D01*
X107733622Y-64269475D01*
X107747009Y-64206494D01*
X107748045Y-64196635D01*
X107776612Y-63905283D01*
X107776612Y-63905277D01*
X107780000Y-63870877D01*
X107780000Y-56633114D01*
X108012188Y-56865302D01*
G37*
X108012188Y-56865302D02*
X108566601Y-57235748D01*
X109182632Y-57490917D01*
X109410001Y-57536143D01*
X109410000Y-66415198D01*
X104788998Y-71036201D01*
X104760000Y-71059999D01*
X104736202Y-71088997D01*
X104736201Y-71088998D01*
X104665026Y-71175724D01*
X104594454Y-71307754D01*
X104550998Y-71451015D01*
X104536324Y-71600000D01*
X104540001Y-71637333D01*
X104540000Y-96296289D01*
X104496063Y-96340226D01*
X104382795Y-96509744D01*
X104304774Y-96698102D01*
X104269985Y-96873000D01*
X103980000Y-96873000D01*
X103980000Y-66870729D01*
X103998386Y-66683215D01*
X104042757Y-66536252D01*
X104114829Y-66400703D01*
X104211852Y-66281742D01*
X104330144Y-66183882D01*
X104465181Y-66110868D01*
X104611833Y-66065471D01*
X104797092Y-66046000D01*
X105604877Y-66046000D01*
X105635576Y-66042976D01*
X105644820Y-66043041D01*
X105654686Y-66042074D01*
X105945831Y-66011474D01*
X106008868Y-65998534D01*
X106072080Y-65986476D01*
X106081570Y-65983611D01*
X106361226Y-65897043D01*
X106420521Y-65872117D01*
X106480215Y-65847999D01*
X106488967Y-65843345D01*
X106746483Y-65704106D01*
X106799825Y-65668127D01*
X106853678Y-65632886D01*
X106861360Y-65626621D01*
X107086927Y-65440016D01*
X107132246Y-65394379D01*
X107178248Y-65349331D01*
X107184566Y-65341692D01*
X107369592Y-65114828D01*
X107405177Y-65061268D01*
X107441560Y-65008132D01*
X107446275Y-64999412D01*
X107583712Y-64740931D01*
X107608225Y-64681456D01*
X107633584Y-64622289D01*
X107636516Y-64612819D01*
X107721130Y-64332565D01*
X107733622Y-64269475D01*
X107747009Y-64206494D01*
X107748045Y-64196635D01*
X107776612Y-63905283D01*
X107776612Y-63905277D01*
X107780000Y-63870877D01*
X107780000Y-56633114D01*
X108012188Y-56865302D01*
G36*
X181190698Y-52078188D02*
G01*
X180820252Y-52632601D01*
X180565083Y-53248632D01*
X180435000Y-53902607D01*
X180435000Y-54569393D01*
X180565083Y-55223368D01*
X180820252Y-55839399D01*
X181190698Y-56393812D01*
X181662188Y-56865302D01*
X182216601Y-57235748D01*
X182832632Y-57490917D01*
X183486607Y-57621000D01*
X184153393Y-57621000D01*
X184807368Y-57490917D01*
X185423399Y-57235748D01*
X185977812Y-56865302D01*
X186210000Y-56633114D01*
X186210001Y-64070877D01*
X186213010Y-64101427D01*
X186212954Y-64109424D01*
X186213921Y-64119290D01*
X186240441Y-64371615D01*
X186253379Y-64434646D01*
X186265439Y-64497864D01*
X186268305Y-64507354D01*
X186343331Y-64749724D01*
X186368266Y-64809041D01*
X186392373Y-64868709D01*
X186397027Y-64877462D01*
X186517700Y-65100643D01*
X186553670Y-65153971D01*
X186588922Y-65207841D01*
X186595188Y-65215523D01*
X186756913Y-65411014D01*
X186802531Y-65456314D01*
X186847596Y-65502333D01*
X186855234Y-65508652D01*
X187051849Y-65669007D01*
X187105393Y-65704582D01*
X187158547Y-65740977D01*
X187167267Y-65745691D01*
X187391285Y-65864803D01*
X187450748Y-65889312D01*
X187509925Y-65914675D01*
X187519395Y-65917607D01*
X187762282Y-65990939D01*
X187825379Y-66003432D01*
X187888353Y-66016818D01*
X187898212Y-66017854D01*
X188150717Y-66042612D01*
X188333937Y-66060577D01*
X188443536Y-66093667D01*
X188544615Y-66147411D01*
X188633336Y-66219770D01*
X188706309Y-66307979D01*
X188760761Y-66408687D01*
X188794614Y-66518046D01*
X188810005Y-66664485D01*
X188814126Y-96873000D01*
X188330015Y-96873000D01*
X188295226Y-96698102D01*
X188217205Y-96509744D01*
X188103937Y-96340226D01*
X187959774Y-96196063D01*
X187790256Y-96082795D01*
X187601898Y-96004774D01*
X187401939Y-95965000D01*
X187198061Y-95965000D01*
X186998102Y-96004774D01*
X186809744Y-96082795D01*
X186640226Y-96196063D01*
X186496063Y-96340226D01*
X186382795Y-96509744D01*
X186304774Y-96698102D01*
X186269985Y-96873000D01*
X106330015Y-96873000D01*
X106295226Y-96698102D01*
X106217205Y-96509744D01*
X106103937Y-96340226D01*
X106060000Y-96296289D01*
X106060000Y-82827200D01*
X108622524Y-82827200D01*
X108626200Y-82864523D01*
X108626201Y-86473168D01*
X108622524Y-86510500D01*
X108626201Y-86547833D01*
X108637198Y-86659486D01*
X108648941Y-86698199D01*
X108680654Y-86802746D01*
X108751226Y-86934776D01*
X108813991Y-87011254D01*
X108846200Y-87050501D01*
X108875198Y-87074299D01*
X109113200Y-87312301D01*
X109113200Y-87374439D01*
X109152974Y-87574398D01*
X109230995Y-87762756D01*
X109344263Y-87932274D01*
X109488426Y-88076437D01*
X109657944Y-88189705D01*
X109846302Y-88267726D01*
X110046261Y-88307500D01*
X110250139Y-88307500D01*
X110450098Y-88267726D01*
X110638456Y-88189705D01*
X110807974Y-88076437D01*
X110952137Y-87932274D01*
X111065405Y-87762756D01*
X111143426Y-87574398D01*
X111183200Y-87374439D01*
X111183200Y-87170561D01*
X111143426Y-86970602D01*
X111065405Y-86782244D01*
X110960650Y-86625466D01*
X111055805Y-86483056D01*
X111133826Y-86294698D01*
X111173600Y-86094739D01*
X111173600Y-85890861D01*
X111133826Y-85690902D01*
X111055805Y-85502544D01*
X110942537Y-85333026D01*
X110898600Y-85289089D01*
X110898600Y-83026601D01*
X111924101Y-82001100D01*
X111924100Y-87849289D01*
X111880163Y-87893226D01*
X111766895Y-88062744D01*
X111688874Y-88251102D01*
X111649100Y-88451061D01*
X111649100Y-88654939D01*
X111688874Y-88854898D01*
X111766895Y-89043256D01*
X111880163Y-89212774D01*
X112024326Y-89356937D01*
X112193844Y-89470205D01*
X112382202Y-89548226D01*
X112582161Y-89588000D01*
X112786039Y-89588000D01*
X112985998Y-89548226D01*
X113174356Y-89470205D01*
X113343874Y-89356937D01*
X113488037Y-89212774D01*
X113601305Y-89043256D01*
X113679326Y-88854898D01*
X113719100Y-88654939D01*
X113719100Y-88451061D01*
X113679326Y-88251102D01*
X113601305Y-88062744D01*
X113488037Y-87893226D01*
X113444100Y-87849289D01*
X113444100Y-86450861D01*
X122139400Y-86450861D01*
X122139400Y-86654739D01*
X122179174Y-86854698D01*
X122257195Y-87043056D01*
X122370463Y-87212574D01*
X122514626Y-87356737D01*
X122684144Y-87470005D01*
X122872502Y-87548026D01*
X123072461Y-87587800D01*
X123276339Y-87587800D01*
X123476298Y-87548026D01*
X123664656Y-87470005D01*
X123834174Y-87356737D01*
X123978337Y-87212574D01*
X124091605Y-87043056D01*
X124169626Y-86854698D01*
X124209400Y-86654739D01*
X124209400Y-86450861D01*
X124169626Y-86250902D01*
X124091605Y-86062544D01*
X123978337Y-85893026D01*
X123834174Y-85748863D01*
X123664656Y-85635595D01*
X123476298Y-85557574D01*
X123276339Y-85517800D01*
X123072461Y-85517800D01*
X122872502Y-85557574D01*
X122684144Y-85635595D01*
X122514626Y-85748863D01*
X122370463Y-85893026D01*
X122257195Y-86062544D01*
X122179174Y-86250902D01*
X122139400Y-86450861D01*
X113444100Y-86450861D01*
X113444100Y-85106800D01*
X113534139Y-85106800D01*
X113734098Y-85067026D01*
X113922456Y-84989005D01*
X114091974Y-84875737D01*
X114236137Y-84731574D01*
X114349405Y-84562056D01*
X114426654Y-84375561D01*
X123668500Y-84375561D01*
X123668500Y-84579439D01*
X123708274Y-84779398D01*
X123786295Y-84967756D01*
X123899563Y-85137274D01*
X124043726Y-85281437D01*
X124213244Y-85394705D01*
X124401602Y-85472726D01*
X124601561Y-85512500D01*
X124805439Y-85512500D01*
X125005398Y-85472726D01*
X125193756Y-85394705D01*
X125363274Y-85281437D01*
X125507437Y-85137274D01*
X125620705Y-84967756D01*
X125698726Y-84779398D01*
X125738500Y-84579439D01*
X125738500Y-84375561D01*
X125698726Y-84175602D01*
X125620705Y-83987244D01*
X125507437Y-83817726D01*
X125363274Y-83673563D01*
X125193756Y-83560295D01*
X125005398Y-83482274D01*
X124805439Y-83442500D01*
X124601561Y-83442500D01*
X124401602Y-83482274D01*
X124213244Y-83560295D01*
X124043726Y-83673563D01*
X123899563Y-83817726D01*
X123786295Y-83987244D01*
X123708274Y-84175602D01*
X123668500Y-84375561D01*
X114426654Y-84375561D01*
X114427426Y-84373698D01*
X114467200Y-84173739D01*
X114467200Y-83969861D01*
X114427426Y-83769902D01*
X114349405Y-83581544D01*
X114236137Y-83412026D01*
X114192200Y-83368089D01*
X114192200Y-82107361D01*
X122183700Y-82107361D01*
X122183700Y-82311239D01*
X122223474Y-82511198D01*
X122301495Y-82699556D01*
X122414763Y-82869074D01*
X122558926Y-83013237D01*
X122728444Y-83126505D01*
X122916802Y-83204526D01*
X123116761Y-83244300D01*
X123320639Y-83244300D01*
X123520598Y-83204526D01*
X123708956Y-83126505D01*
X123878474Y-83013237D01*
X124022637Y-82869074D01*
X124135905Y-82699556D01*
X124213926Y-82511198D01*
X124253700Y-82311239D01*
X124253700Y-82107361D01*
X124213926Y-81907402D01*
X124135905Y-81719044D01*
X124022637Y-81549526D01*
X123878474Y-81405363D01*
X123708956Y-81292095D01*
X123520598Y-81214074D01*
X123320639Y-81174300D01*
X123116761Y-81174300D01*
X122916802Y-81214074D01*
X122728444Y-81292095D01*
X122558926Y-81405363D01*
X122414763Y-81549526D01*
X122301495Y-81719044D01*
X122223474Y-81907402D01*
X122183700Y-82107361D01*
X114192200Y-82107361D01*
X114192200Y-81006801D01*
X116956140Y-78242861D01*
X119291900Y-78242861D01*
X119291900Y-78446739D01*
X119331674Y-78646698D01*
X119409695Y-78835056D01*
X119522963Y-79004574D01*
X119667126Y-79148737D01*
X119776487Y-79221810D01*
X119745795Y-79267744D01*
X119667774Y-79456102D01*
X119628000Y-79656061D01*
X119628000Y-79859939D01*
X119667774Y-80059898D01*
X119745795Y-80248256D01*
X119859063Y-80417774D01*
X120003226Y-80561937D01*
X120172744Y-80675205D01*
X120361102Y-80753226D01*
X120561061Y-80793000D01*
X120764939Y-80793000D01*
X120964898Y-80753226D01*
X121153256Y-80675205D01*
X121322774Y-80561937D01*
X121466937Y-80417774D01*
X121580205Y-80248256D01*
X121658226Y-80059898D01*
X121698000Y-79859939D01*
X121698000Y-79656061D01*
X121680158Y-79566361D01*
X122169600Y-79566361D01*
X122169600Y-79770239D01*
X122209374Y-79970198D01*
X122287395Y-80158556D01*
X122400663Y-80328074D01*
X122544826Y-80472237D01*
X122714344Y-80585505D01*
X122902702Y-80663526D01*
X123102661Y-80703300D01*
X123306539Y-80703300D01*
X123506498Y-80663526D01*
X123694856Y-80585505D01*
X123864374Y-80472237D01*
X124008537Y-80328074D01*
X124121805Y-80158556D01*
X124199826Y-79970198D01*
X124239600Y-79770239D01*
X124239600Y-79566361D01*
X124199826Y-79366402D01*
X124121805Y-79178044D01*
X124008537Y-79008526D01*
X123864374Y-78864363D01*
X123694856Y-78751095D01*
X123506498Y-78673074D01*
X123306539Y-78633300D01*
X123102661Y-78633300D01*
X122902702Y-78673074D01*
X122714344Y-78751095D01*
X122544826Y-78864363D01*
X122400663Y-79008526D01*
X122287395Y-79178044D01*
X122209374Y-79366402D01*
X122169600Y-79566361D01*
X121680158Y-79566361D01*
X121658226Y-79456102D01*
X121580205Y-79267744D01*
X121466937Y-79098226D01*
X121322774Y-78954063D01*
X121213413Y-78880990D01*
X121244105Y-78835056D01*
X121322126Y-78646698D01*
X121361900Y-78446739D01*
X121361900Y-78242861D01*
X121322126Y-78042902D01*
X121244105Y-77854544D01*
X121222586Y-77822338D01*
X121338874Y-77744637D01*
X121483037Y-77600474D01*
X121596305Y-77430956D01*
X121674326Y-77242598D01*
X121714100Y-77042639D01*
X121714100Y-76838761D01*
X121674326Y-76638802D01*
X121596305Y-76450444D01*
X121483037Y-76280926D01*
X121432672Y-76230561D01*
X138928900Y-76230561D01*
X138928900Y-76434439D01*
X138968674Y-76634398D01*
X139046695Y-76822756D01*
X139159963Y-76992274D01*
X139304126Y-77136437D01*
X139473644Y-77249705D01*
X139662002Y-77327726D01*
X139861961Y-77367500D01*
X139883796Y-77367500D01*
X139934395Y-77489656D01*
X140047663Y-77659174D01*
X140191826Y-77803337D01*
X140361344Y-77916605D01*
X140549702Y-77994626D01*
X140749661Y-78034400D01*
X140953539Y-78034400D01*
X141153498Y-77994626D01*
X141341856Y-77916605D01*
X141511374Y-77803337D01*
X141655537Y-77659174D01*
X141768805Y-77489656D01*
X141846826Y-77301298D01*
X141886600Y-77101339D01*
X141886600Y-76897461D01*
X141846826Y-76697502D01*
X141768805Y-76509144D01*
X141655537Y-76339626D01*
X141511374Y-76195463D01*
X141341856Y-76082195D01*
X141153498Y-76004174D01*
X140953539Y-75964400D01*
X140931704Y-75964400D01*
X140881105Y-75842244D01*
X140767837Y-75672726D01*
X140623674Y-75528563D01*
X140454156Y-75415295D01*
X140265798Y-75337274D01*
X140065839Y-75297500D01*
X139861961Y-75297500D01*
X139662002Y-75337274D01*
X139473644Y-75415295D01*
X139304126Y-75528563D01*
X139159963Y-75672726D01*
X139046695Y-75842244D01*
X138968674Y-76030602D01*
X138928900Y-76230561D01*
X121432672Y-76230561D01*
X121338874Y-76136763D01*
X121169356Y-76023495D01*
X120980998Y-75945474D01*
X120781039Y-75905700D01*
X120577161Y-75905700D01*
X120377202Y-75945474D01*
X120188844Y-76023495D01*
X120019326Y-76136763D01*
X119875163Y-76280926D01*
X119761895Y-76450444D01*
X119683874Y-76638802D01*
X119644100Y-76838761D01*
X119644100Y-77042639D01*
X119683874Y-77242598D01*
X119761895Y-77430956D01*
X119783414Y-77463162D01*
X119667126Y-77540863D01*
X119522963Y-77685026D01*
X119409695Y-77854544D01*
X119331674Y-78042902D01*
X119291900Y-78242861D01*
X116956140Y-78242861D01*
X119923195Y-75275806D01*
X119970826Y-75323437D01*
X120140344Y-75436705D01*
X120328702Y-75514726D01*
X120528661Y-75554500D01*
X120732539Y-75554500D01*
X120932498Y-75514726D01*
X121120856Y-75436705D01*
X121290374Y-75323437D01*
X121434537Y-75179274D01*
X121547805Y-75009756D01*
X121625826Y-74821398D01*
X121665600Y-74621439D01*
X121665600Y-74417561D01*
X121625826Y-74217602D01*
X121547805Y-74029244D01*
X121434537Y-73859726D01*
X121386906Y-73812095D01*
X121572140Y-73626861D01*
X137986400Y-73626861D01*
X137986400Y-73830739D01*
X138026174Y-74030698D01*
X138104195Y-74219056D01*
X138217463Y-74388574D01*
X138361626Y-74532737D01*
X138531144Y-74646005D01*
X138719502Y-74724026D01*
X138919461Y-74763800D01*
X139123339Y-74763800D01*
X139323298Y-74724026D01*
X139511656Y-74646005D01*
X139681174Y-74532737D01*
X139825337Y-74388574D01*
X139938605Y-74219056D01*
X140016626Y-74030698D01*
X140056400Y-73830739D01*
X140056400Y-73626861D01*
X140016626Y-73426902D01*
X139938605Y-73238544D01*
X139825337Y-73069026D01*
X139681174Y-72924863D01*
X139511656Y-72811595D01*
X139323298Y-72733574D01*
X139123339Y-72693800D01*
X138919461Y-72693800D01*
X138719502Y-72733574D01*
X138531144Y-72811595D01*
X138361626Y-72924863D01*
X138217463Y-73069026D01*
X138104195Y-73238544D01*
X138026174Y-73426902D01*
X137986400Y-73626861D01*
X121572140Y-73626861D01*
X132136404Y-63062598D01*
X132165401Y-63038801D01*
X132177391Y-63024192D01*
X132345536Y-63136543D01*
X132608509Y-63245470D01*
X132887680Y-63301000D01*
X133172320Y-63301000D01*
X133405401Y-63254638D01*
X133405401Y-64705368D01*
X133401724Y-64742700D01*
X133405401Y-64780033D01*
X133416398Y-64891686D01*
X133421403Y-64908186D01*
X133459854Y-65034946D01*
X133530426Y-65166976D01*
X133587138Y-65236079D01*
X133625400Y-65282701D01*
X133654398Y-65306499D01*
X141949000Y-73601102D01*
X141949000Y-73663239D01*
X141988774Y-73863198D01*
X142066795Y-74051556D01*
X142180063Y-74221074D01*
X142324226Y-74365237D01*
X142493744Y-74478505D01*
X142682102Y-74556526D01*
X142882061Y-74596300D01*
X143085939Y-74596300D01*
X143285898Y-74556526D01*
X143474256Y-74478505D01*
X143643774Y-74365237D01*
X143787937Y-74221074D01*
X143855151Y-74120481D01*
X143858261Y-74121100D01*
X144062139Y-74121100D01*
X144262098Y-74081326D01*
X144450456Y-74003305D01*
X144619974Y-73890037D01*
X144764137Y-73745874D01*
X144877405Y-73576356D01*
X144955426Y-73387998D01*
X144995200Y-73188039D01*
X144995200Y-72984161D01*
X144955426Y-72784202D01*
X144877405Y-72595844D01*
X144764137Y-72426326D01*
X144720200Y-72382389D01*
X144720200Y-71031222D01*
X144723876Y-70993899D01*
X144720200Y-70956576D01*
X144720200Y-70956567D01*
X144709203Y-70844914D01*
X144665746Y-70701653D01*
X144621794Y-70619426D01*
X144595174Y-70569623D01*
X144523999Y-70482897D01*
X144500201Y-70453899D01*
X144471204Y-70430102D01*
X142793864Y-68752763D01*
X142850774Y-68714737D01*
X142994937Y-68570574D01*
X143035366Y-68510068D01*
X143450100Y-68924802D01*
X143450100Y-68986939D01*
X143489874Y-69186898D01*
X143567895Y-69375256D01*
X143681163Y-69544774D01*
X143825326Y-69688937D01*
X143994844Y-69802205D01*
X144183202Y-69880226D01*
X144383161Y-69920000D01*
X144587039Y-69920000D01*
X144786998Y-69880226D01*
X144975356Y-69802205D01*
X145144874Y-69688937D01*
X145289037Y-69544774D01*
X145402305Y-69375256D01*
X145480326Y-69186898D01*
X145520100Y-68986939D01*
X145520100Y-68783061D01*
X145480326Y-68583102D01*
X145402305Y-68394744D01*
X145289037Y-68225226D01*
X145144874Y-68081063D01*
X144975356Y-67967795D01*
X144786998Y-67889774D01*
X144587039Y-67850000D01*
X144524902Y-67850000D01*
X142680000Y-66005099D01*
X142680000Y-63208808D01*
X142768509Y-63245470D01*
X143047680Y-63301000D01*
X143332320Y-63301000D01*
X143611491Y-63245470D01*
X143874464Y-63136543D01*
X143958135Y-63080636D01*
X144608600Y-63731102D01*
X144608600Y-63793239D01*
X144648374Y-63993198D01*
X144726395Y-64181556D01*
X144839663Y-64351074D01*
X144983826Y-64495237D01*
X145153344Y-64608505D01*
X145341702Y-64686526D01*
X145541661Y-64726300D01*
X145617700Y-64726300D01*
X145617701Y-74339897D01*
X133689099Y-86268500D01*
X133626961Y-86268500D01*
X133427002Y-86308274D01*
X133238644Y-86386295D01*
X133069126Y-86499563D01*
X132924963Y-86643726D01*
X132811695Y-86813244D01*
X132733674Y-87001602D01*
X132693900Y-87201561D01*
X132693900Y-87405439D01*
X132733674Y-87605398D01*
X132811695Y-87793756D01*
X132904969Y-87933350D01*
X132796795Y-88095244D01*
X132718774Y-88283602D01*
X132679000Y-88483561D01*
X132679000Y-88687439D01*
X132718774Y-88887398D01*
X132796795Y-89075756D01*
X132910063Y-89245274D01*
X133054226Y-89389437D01*
X133223744Y-89502705D01*
X133412102Y-89580726D01*
X133612061Y-89620500D01*
X133815939Y-89620500D01*
X134015898Y-89580726D01*
X134204256Y-89502705D01*
X134373774Y-89389437D01*
X134517937Y-89245274D01*
X134631205Y-89075756D01*
X134709226Y-88887398D01*
X134749000Y-88687439D01*
X134749000Y-88625301D01*
X136796540Y-86577761D01*
X140687400Y-86577761D01*
X140687400Y-86781639D01*
X140727174Y-86981598D01*
X140805195Y-87169956D01*
X140918463Y-87339474D01*
X141062626Y-87483637D01*
X141232144Y-87596905D01*
X141420502Y-87674926D01*
X141620461Y-87714700D01*
X141824339Y-87714700D01*
X142024298Y-87674926D01*
X142212656Y-87596905D01*
X142382174Y-87483637D01*
X142526337Y-87339474D01*
X142610402Y-87213661D01*
X143210500Y-87213661D01*
X143210500Y-87417539D01*
X143250274Y-87617498D01*
X143328295Y-87805856D01*
X143441563Y-87975374D01*
X143585726Y-88119537D01*
X143755244Y-88232805D01*
X143943602Y-88310826D01*
X144143561Y-88350600D01*
X144347439Y-88350600D01*
X144547398Y-88310826D01*
X144735756Y-88232805D01*
X144905274Y-88119537D01*
X145049437Y-87975374D01*
X145162705Y-87805856D01*
X145240726Y-87617498D01*
X145280500Y-87417539D01*
X145280500Y-87213661D01*
X145240726Y-87013702D01*
X145162705Y-86825344D01*
X145049437Y-86655826D01*
X144905274Y-86511663D01*
X144735756Y-86398395D01*
X144547398Y-86320374D01*
X144347439Y-86280600D01*
X144143561Y-86280600D01*
X143943602Y-86320374D01*
X143755244Y-86398395D01*
X143585726Y-86511663D01*
X143441563Y-86655826D01*
X143328295Y-86825344D01*
X143250274Y-87013702D01*
X143210500Y-87213661D01*
X142610402Y-87213661D01*
X142639605Y-87169956D01*
X142717626Y-86981598D01*
X142757400Y-86781639D01*
X142757400Y-86577761D01*
X142717626Y-86377802D01*
X142639605Y-86189444D01*
X142526337Y-86019926D01*
X142382174Y-85875763D01*
X142212656Y-85762495D01*
X142024298Y-85684474D01*
X141824339Y-85644700D01*
X141620461Y-85644700D01*
X141420502Y-85684474D01*
X141232144Y-85762495D01*
X141062626Y-85875763D01*
X140918463Y-86019926D01*
X140805195Y-86189444D01*
X140727174Y-86377802D01*
X140687400Y-86577761D01*
X136796540Y-86577761D01*
X140742801Y-82631501D01*
X140807663Y-82728574D01*
X140951826Y-82872737D01*
X141121344Y-82986005D01*
X141309702Y-83064026D01*
X141509661Y-83103800D01*
X141713539Y-83103800D01*
X141913498Y-83064026D01*
X142101856Y-82986005D01*
X142271374Y-82872737D01*
X142415537Y-82728574D01*
X142528805Y-82559056D01*
X142606826Y-82370698D01*
X142646600Y-82170739D01*
X142646600Y-81966861D01*
X142606826Y-81766902D01*
X142528805Y-81578544D01*
X142415537Y-81409026D01*
X142271374Y-81264863D01*
X142174301Y-81200001D01*
X147431603Y-75942699D01*
X147460601Y-75918901D01*
X147555574Y-75803176D01*
X147626146Y-75671147D01*
X147669603Y-75527886D01*
X147680600Y-75416233D01*
X147680600Y-75416223D01*
X147684276Y-75378900D01*
X147680600Y-75341577D01*
X147680600Y-63175920D01*
X147848509Y-63245470D01*
X148127680Y-63301000D01*
X148412320Y-63301000D01*
X148691491Y-63245470D01*
X148780000Y-63208808D01*
X148780001Y-78831267D01*
X148776324Y-78868600D01*
X148780001Y-78905933D01*
X148789717Y-79004574D01*
X148790998Y-79017585D01*
X148834454Y-79160846D01*
X148905026Y-79292876D01*
X148965368Y-79366402D01*
X149000000Y-79408601D01*
X149028998Y-79432399D01*
X159236400Y-89639803D01*
X159236400Y-89701939D01*
X159276174Y-89901898D01*
X159354195Y-90090256D01*
X159467463Y-90259774D01*
X159611626Y-90403937D01*
X159781144Y-90517205D01*
X159969502Y-90595226D01*
X160169461Y-90635000D01*
X160373339Y-90635000D01*
X160573298Y-90595226D01*
X160761656Y-90517205D01*
X160931174Y-90403937D01*
X161075337Y-90259774D01*
X161188605Y-90090256D01*
X161266626Y-89901898D01*
X161306400Y-89701939D01*
X161306400Y-89498061D01*
X161266626Y-89298102D01*
X161188605Y-89109744D01*
X161075337Y-88940226D01*
X160931174Y-88796063D01*
X160897059Y-88773268D01*
X160932874Y-88749337D01*
X161077037Y-88605174D01*
X161190305Y-88435656D01*
X161268326Y-88247298D01*
X161308100Y-88047339D01*
X161308100Y-87843461D01*
X161268326Y-87643502D01*
X161190305Y-87455144D01*
X161077037Y-87285626D01*
X160932874Y-87141463D01*
X160763356Y-87028195D01*
X160574998Y-86950174D01*
X160375039Y-86910400D01*
X160171161Y-86910400D01*
X159971202Y-86950174D01*
X159782844Y-87028195D01*
X159613326Y-87141463D01*
X159469163Y-87285626D01*
X159355895Y-87455144D01*
X159310629Y-87564426D01*
X156244264Y-84498061D01*
X159228700Y-84498061D01*
X159228700Y-84701939D01*
X159268474Y-84901898D01*
X159346495Y-85090256D01*
X159459763Y-85259774D01*
X159603926Y-85403937D01*
X159773444Y-85517205D01*
X159961802Y-85595226D01*
X160161761Y-85635000D01*
X160365639Y-85635000D01*
X160565598Y-85595226D01*
X160753956Y-85517205D01*
X160923474Y-85403937D01*
X161067637Y-85259774D01*
X161180905Y-85090256D01*
X161258926Y-84901898D01*
X161293185Y-84729661D01*
X161760400Y-84729661D01*
X161760400Y-84933539D01*
X161800174Y-85133498D01*
X161878195Y-85321856D01*
X161991463Y-85491374D01*
X162135626Y-85635537D01*
X162305144Y-85748805D01*
X162493502Y-85826826D01*
X162693461Y-85866600D01*
X162897339Y-85866600D01*
X163097298Y-85826826D01*
X163285656Y-85748805D01*
X163455174Y-85635537D01*
X163599337Y-85491374D01*
X163712605Y-85321856D01*
X163790626Y-85133498D01*
X163830400Y-84933539D01*
X163830400Y-84899361D01*
X168739600Y-84899361D01*
X168739600Y-85103239D01*
X168779374Y-85303198D01*
X168857395Y-85491556D01*
X168970663Y-85661074D01*
X169114826Y-85805237D01*
X169284344Y-85918505D01*
X169472702Y-85996526D01*
X169672661Y-86036300D01*
X169876539Y-86036300D01*
X170076498Y-85996526D01*
X170264856Y-85918505D01*
X170434374Y-85805237D01*
X170485659Y-85753952D01*
X170489702Y-85755626D01*
X170689661Y-85795400D01*
X170893539Y-85795400D01*
X171093498Y-85755626D01*
X171281856Y-85677605D01*
X171451374Y-85564337D01*
X171595537Y-85420174D01*
X171708805Y-85250656D01*
X171786826Y-85062298D01*
X171826600Y-84862339D01*
X171826600Y-84658461D01*
X171786826Y-84458502D01*
X171708805Y-84270144D01*
X171595537Y-84100626D01*
X171451374Y-83956463D01*
X171281856Y-83843195D01*
X171093498Y-83765174D01*
X170893539Y-83725400D01*
X170689661Y-83725400D01*
X170489702Y-83765174D01*
X170301344Y-83843195D01*
X170131826Y-83956463D01*
X170080541Y-84007748D01*
X170076498Y-84006074D01*
X169876539Y-83966300D01*
X169672661Y-83966300D01*
X169472702Y-84006074D01*
X169284344Y-84084095D01*
X169114826Y-84197363D01*
X168970663Y-84341526D01*
X168857395Y-84511044D01*
X168779374Y-84699402D01*
X168739600Y-84899361D01*
X163830400Y-84899361D01*
X163830400Y-84729661D01*
X163790626Y-84529702D01*
X163712605Y-84341344D01*
X163599337Y-84171826D01*
X163455174Y-84027663D01*
X163285656Y-83914395D01*
X163097298Y-83836374D01*
X162897339Y-83796600D01*
X162693461Y-83796600D01*
X162493502Y-83836374D01*
X162305144Y-83914395D01*
X162135626Y-84027663D01*
X161991463Y-84171826D01*
X161878195Y-84341344D01*
X161800174Y-84529702D01*
X161760400Y-84729661D01*
X161293185Y-84729661D01*
X161298700Y-84701939D01*
X161298700Y-84498061D01*
X161258926Y-84298102D01*
X161180905Y-84109744D01*
X161067637Y-83940226D01*
X160923474Y-83796063D01*
X160753956Y-83682795D01*
X160565598Y-83604774D01*
X160365639Y-83565000D01*
X160161761Y-83565000D01*
X159961802Y-83604774D01*
X159773444Y-83682795D01*
X159603926Y-83796063D01*
X159459763Y-83940226D01*
X159346495Y-84109744D01*
X159268474Y-84298102D01*
X159228700Y-84498061D01*
X156244264Y-84498061D01*
X151796463Y-80050261D01*
X158593200Y-80050261D01*
X158593200Y-80254139D01*
X158632974Y-80454098D01*
X158710995Y-80642456D01*
X158824263Y-80811974D01*
X158968426Y-80956137D01*
X159137944Y-81069405D01*
X159326302Y-81147426D01*
X159526261Y-81187200D01*
X159730139Y-81187200D01*
X159930098Y-81147426D01*
X160118456Y-81069405D01*
X160287974Y-80956137D01*
X160432137Y-80811974D01*
X160545405Y-80642456D01*
X160623426Y-80454098D01*
X160663200Y-80254139D01*
X160663200Y-80050261D01*
X160623426Y-79850302D01*
X160545405Y-79661944D01*
X160432137Y-79492426D01*
X160287974Y-79348263D01*
X160118456Y-79234995D01*
X159930098Y-79156974D01*
X159730139Y-79117200D01*
X159526261Y-79117200D01*
X159326302Y-79156974D01*
X159137944Y-79234995D01*
X158968426Y-79348263D01*
X158824263Y-79492426D01*
X158710995Y-79661944D01*
X158632974Y-79850302D01*
X158593200Y-80050261D01*
X151796463Y-80050261D01*
X150300000Y-78553799D01*
X150300000Y-76691661D01*
X151726900Y-76691661D01*
X151726900Y-76895539D01*
X151766674Y-77095498D01*
X151844695Y-77283856D01*
X151957963Y-77453374D01*
X152102126Y-77597537D01*
X152271644Y-77710805D01*
X152460002Y-77788826D01*
X152659961Y-77828600D01*
X152863839Y-77828600D01*
X153054804Y-77790615D01*
X153117126Y-77852937D01*
X153286644Y-77966205D01*
X153475002Y-78044226D01*
X153674961Y-78084000D01*
X153878839Y-78084000D01*
X154078798Y-78044226D01*
X154267156Y-77966205D01*
X154436674Y-77852937D01*
X154580837Y-77708774D01*
X154694105Y-77539256D01*
X154772126Y-77350898D01*
X154811900Y-77150939D01*
X154811900Y-76947061D01*
X154772126Y-76747102D01*
X154697203Y-76566223D01*
X154808798Y-76544026D01*
X154997156Y-76466005D01*
X155166674Y-76352737D01*
X155310837Y-76208574D01*
X155424105Y-76039056D01*
X155502126Y-75850698D01*
X155541900Y-75650739D01*
X155541900Y-75446861D01*
X155502126Y-75246902D01*
X155424105Y-75058544D01*
X155310837Y-74889026D01*
X155166674Y-74744863D01*
X154997156Y-74631595D01*
X154808798Y-74553574D01*
X154608839Y-74513800D01*
X154404961Y-74513800D01*
X154205002Y-74553574D01*
X154016644Y-74631595D01*
X153847126Y-74744863D01*
X153702963Y-74889026D01*
X153589695Y-75058544D01*
X153511674Y-75246902D01*
X153471900Y-75446861D01*
X153471900Y-75650739D01*
X153511674Y-75850698D01*
X153586597Y-76031577D01*
X153483996Y-76051985D01*
X153421674Y-75989663D01*
X153252156Y-75876395D01*
X153063798Y-75798374D01*
X152863839Y-75758600D01*
X152659961Y-75758600D01*
X152460002Y-75798374D01*
X152271644Y-75876395D01*
X152102126Y-75989663D01*
X151957963Y-76133826D01*
X151844695Y-76303344D01*
X151766674Y-76491702D01*
X151726900Y-76691661D01*
X150300000Y-76691661D01*
X150300000Y-74340611D01*
X150348226Y-74388837D01*
X150517744Y-74502105D01*
X150706102Y-74580126D01*
X150906061Y-74619900D01*
X151109939Y-74619900D01*
X151309898Y-74580126D01*
X151498256Y-74502105D01*
X151667774Y-74388837D01*
X151711711Y-74344900D01*
X152915578Y-74344900D01*
X152952900Y-74348576D01*
X152990222Y-74344900D01*
X152990233Y-74344900D01*
X153101886Y-74333903D01*
X153245147Y-74290446D01*
X153377176Y-74219874D01*
X153492901Y-74124901D01*
X153516704Y-74095897D01*
X160693559Y-66919043D01*
X160700174Y-66952298D01*
X160778195Y-67140656D01*
X160891463Y-67310174D01*
X161035626Y-67454337D01*
X161205144Y-67567605D01*
X161393502Y-67645626D01*
X161593461Y-67685400D01*
X161797339Y-67685400D01*
X161997298Y-67645626D01*
X162185656Y-67567605D01*
X162355174Y-67454337D01*
X162499337Y-67310174D01*
X162612605Y-67140656D01*
X162690626Y-66952298D01*
X162730400Y-66752339D01*
X162730400Y-66548461D01*
X162690626Y-66348502D01*
X162612605Y-66160144D01*
X162499337Y-65990626D01*
X162355174Y-65846463D01*
X162185656Y-65733195D01*
X161997298Y-65655174D01*
X161964043Y-65648559D01*
X164020000Y-63592602D01*
X164020001Y-71910868D01*
X164016324Y-71948200D01*
X164020001Y-71985533D01*
X164020540Y-71991000D01*
X164030998Y-72097185D01*
X164074454Y-72240446D01*
X164145026Y-72372476D01*
X164207994Y-72449202D01*
X164240000Y-72488201D01*
X164268998Y-72511999D01*
X170252386Y-78495387D01*
X170177044Y-78526595D01*
X170007526Y-78639863D01*
X169863363Y-78784026D01*
X169750095Y-78953544D01*
X169672074Y-79141902D01*
X169632300Y-79341861D01*
X169632300Y-79545739D01*
X169672074Y-79745698D01*
X169750095Y-79934056D01*
X169863363Y-80103574D01*
X170007526Y-80247737D01*
X170177044Y-80361005D01*
X170365402Y-80439026D01*
X170565361Y-80478800D01*
X170769239Y-80478800D01*
X170969198Y-80439026D01*
X171157556Y-80361005D01*
X171327074Y-80247737D01*
X171471237Y-80103574D01*
X171584505Y-79934056D01*
X171615713Y-79858714D01*
X179259200Y-87502202D01*
X179259200Y-87564339D01*
X179298974Y-87764298D01*
X179376995Y-87952656D01*
X179490263Y-88122174D01*
X179634426Y-88266337D01*
X179803944Y-88379605D01*
X179992302Y-88457626D01*
X180192261Y-88497400D01*
X180396139Y-88497400D01*
X180596098Y-88457626D01*
X180784456Y-88379605D01*
X180847183Y-88337692D01*
X181023502Y-88410726D01*
X181223461Y-88450500D01*
X181427339Y-88450500D01*
X181627298Y-88410726D01*
X181815656Y-88332705D01*
X181985174Y-88219437D01*
X182129337Y-88075274D01*
X182242605Y-87905756D01*
X182320626Y-87717398D01*
X182360400Y-87517439D01*
X182360400Y-87313561D01*
X182320626Y-87113602D01*
X182242605Y-86925244D01*
X182143532Y-86776970D01*
X182245305Y-86624656D01*
X182323326Y-86436298D01*
X182363100Y-86236339D01*
X182363100Y-86032461D01*
X182323326Y-85832502D01*
X182245305Y-85644144D01*
X182199449Y-85575515D01*
X182221805Y-85542056D01*
X182299826Y-85353698D01*
X182339600Y-85153739D01*
X182339600Y-84949861D01*
X182299826Y-84749902D01*
X182221805Y-84561544D01*
X182108537Y-84392026D01*
X182035261Y-84318750D01*
X182124437Y-84229574D01*
X182237705Y-84060056D01*
X182315726Y-83871698D01*
X182355500Y-83671739D01*
X182355500Y-83467861D01*
X182315726Y-83267902D01*
X182237705Y-83079544D01*
X182124437Y-82910026D01*
X182014261Y-82799850D01*
X182107737Y-82706374D01*
X182221005Y-82536856D01*
X182299026Y-82348498D01*
X182338800Y-82148539D01*
X182338800Y-81944661D01*
X182299026Y-81744702D01*
X182221005Y-81556344D01*
X182107737Y-81386826D01*
X182063800Y-81342889D01*
X182063800Y-73227702D01*
X183101500Y-74265402D01*
X183101501Y-80357288D01*
X183057563Y-80401226D01*
X182944295Y-80570744D01*
X182866274Y-80759102D01*
X182826500Y-80959061D01*
X182826500Y-81162939D01*
X182866274Y-81362898D01*
X182944295Y-81551256D01*
X183057563Y-81720774D01*
X183201726Y-81864937D01*
X183371244Y-81978205D01*
X183559602Y-82056226D01*
X183759561Y-82096000D01*
X183963439Y-82096000D01*
X184163398Y-82056226D01*
X184351756Y-81978205D01*
X184521274Y-81864937D01*
X184665437Y-81720774D01*
X184778705Y-81551256D01*
X184856726Y-81362898D01*
X184896500Y-81162939D01*
X184896500Y-80959061D01*
X184856726Y-80759102D01*
X184778705Y-80570744D01*
X184665437Y-80401226D01*
X184621500Y-80357289D01*
X184621500Y-73987925D01*
X184625176Y-73950600D01*
X184621500Y-73913275D01*
X184621500Y-73913267D01*
X184610503Y-73801614D01*
X184567046Y-73658353D01*
X184496474Y-73526324D01*
X184401501Y-73410599D01*
X184372504Y-73386802D01*
X174190260Y-63204559D01*
X174354464Y-63136543D01*
X174591134Y-62978405D01*
X174792405Y-62777134D01*
X174940000Y-62556243D01*
X175087595Y-62777134D01*
X175288866Y-62978405D01*
X175525536Y-63136543D01*
X175788509Y-63245470D01*
X176067680Y-63301000D01*
X176352320Y-63301000D01*
X176631491Y-63245470D01*
X176894464Y-63136543D01*
X177131134Y-62978405D01*
X177332405Y-62777134D01*
X177480000Y-62556243D01*
X177627595Y-62777134D01*
X177828866Y-62978405D01*
X178065536Y-63136543D01*
X178328509Y-63245470D01*
X178607680Y-63301000D01*
X178892320Y-63301000D01*
X179171491Y-63245470D01*
X179434464Y-63136543D01*
X179671134Y-62978405D01*
X179872405Y-62777134D01*
X180030543Y-62540464D01*
X180139470Y-62277491D01*
X180195000Y-61998320D01*
X180195000Y-61713680D01*
X180139470Y-61434509D01*
X180030543Y-61171536D01*
X179872405Y-60934866D01*
X179671134Y-60733595D01*
X179450243Y-60586000D01*
X179671134Y-60438405D01*
X179872405Y-60237134D01*
X180030543Y-60000464D01*
X180139470Y-59737491D01*
X180195000Y-59458320D01*
X180195000Y-59173680D01*
X180139470Y-58894509D01*
X180030543Y-58631536D01*
X179872405Y-58394866D01*
X179671134Y-58193595D01*
X179450243Y-58046000D01*
X179671134Y-57898405D01*
X179872405Y-57697134D01*
X180030543Y-57460464D01*
X180139470Y-57197491D01*
X180195000Y-56918320D01*
X180195000Y-56633680D01*
X180139470Y-56354509D01*
X180030543Y-56091536D01*
X179872405Y-55854866D01*
X179671134Y-55653595D01*
X179450243Y-55506000D01*
X179671134Y-55358405D01*
X179872405Y-55157134D01*
X180030543Y-54920464D01*
X180139470Y-54657491D01*
X180195000Y-54378320D01*
X180195000Y-54093680D01*
X180139470Y-53814509D01*
X180030543Y-53551536D01*
X179872405Y-53314866D01*
X179671134Y-53113595D01*
X179434464Y-52955457D01*
X179171491Y-52846530D01*
X178892320Y-52791000D01*
X178607680Y-52791000D01*
X178328509Y-52846530D01*
X178065536Y-52955457D01*
X177828866Y-53113595D01*
X177627595Y-53314866D01*
X177480000Y-53535757D01*
X177332405Y-53314866D01*
X177131134Y-53113595D01*
X176894464Y-52955457D01*
X176631491Y-52846530D01*
X176352320Y-52791000D01*
X176067680Y-52791000D01*
X175788509Y-52846530D01*
X175525536Y-52955457D01*
X175288866Y-53113595D01*
X175087595Y-53314866D01*
X174940000Y-53535757D01*
X174792405Y-53314866D01*
X174591134Y-53113595D01*
X174354464Y-52955457D01*
X174091491Y-52846530D01*
X173812320Y-52791000D01*
X173527680Y-52791000D01*
X173248509Y-52846530D01*
X172985536Y-52955457D01*
X172748866Y-53113595D01*
X172547595Y-53314866D01*
X172400000Y-53535757D01*
X172252405Y-53314866D01*
X172051134Y-53113595D01*
X171814464Y-52955457D01*
X171551491Y-52846530D01*
X171272320Y-52791000D01*
X170987680Y-52791000D01*
X170708509Y-52846530D01*
X170445536Y-52955457D01*
X170208866Y-53113595D01*
X170007595Y-53314866D01*
X169860000Y-53535757D01*
X169712405Y-53314866D01*
X169511134Y-53113595D01*
X169274464Y-52955457D01*
X169011491Y-52846530D01*
X168732320Y-52791000D01*
X168447680Y-52791000D01*
X168168509Y-52846530D01*
X167905536Y-52955457D01*
X167668866Y-53113595D01*
X167467595Y-53314866D01*
X167320000Y-53535757D01*
X167172405Y-53314866D01*
X166971134Y-53113595D01*
X166734464Y-52955457D01*
X166471491Y-52846530D01*
X166192320Y-52791000D01*
X165907680Y-52791000D01*
X165628509Y-52846530D01*
X165365536Y-52955457D01*
X165128866Y-53113595D01*
X164927595Y-53314866D01*
X164780000Y-53535757D01*
X164632405Y-53314866D01*
X164431134Y-53113595D01*
X164194464Y-52955457D01*
X163931491Y-52846530D01*
X163652320Y-52791000D01*
X163367680Y-52791000D01*
X163088509Y-52846530D01*
X162825536Y-52955457D01*
X162588866Y-53113595D01*
X162387595Y-53314866D01*
X162240000Y-53535757D01*
X162092405Y-53314866D01*
X161891134Y-53113595D01*
X161654464Y-52955457D01*
X161391491Y-52846530D01*
X161112320Y-52791000D01*
X160827680Y-52791000D01*
X160548509Y-52846530D01*
X160285536Y-52955457D01*
X160048866Y-53113595D01*
X159847595Y-53314866D01*
X159700000Y-53535757D01*
X159552405Y-53314866D01*
X159351134Y-53113595D01*
X159114464Y-52955457D01*
X158851491Y-52846530D01*
X158572320Y-52791000D01*
X158287680Y-52791000D01*
X158008509Y-52846530D01*
X157745536Y-52955457D01*
X157508866Y-53113595D01*
X157307595Y-53314866D01*
X157160000Y-53535757D01*
X157012405Y-53314866D01*
X156811134Y-53113595D01*
X156574464Y-52955457D01*
X156311491Y-52846530D01*
X156032320Y-52791000D01*
X155747680Y-52791000D01*
X155468509Y-52846530D01*
X155205536Y-52955457D01*
X154968866Y-53113595D01*
X154767595Y-53314866D01*
X154620000Y-53535757D01*
X154472405Y-53314866D01*
X154271134Y-53113595D01*
X154034464Y-52955457D01*
X153771491Y-52846530D01*
X153492320Y-52791000D01*
X153207680Y-52791000D01*
X152928509Y-52846530D01*
X152665536Y-52955457D01*
X152428866Y-53113595D01*
X152227595Y-53314866D01*
X152080000Y-53535757D01*
X151932405Y-53314866D01*
X151731134Y-53113595D01*
X151494464Y-52955457D01*
X151231491Y-52846530D01*
X150952320Y-52791000D01*
X150667680Y-52791000D01*
X150388509Y-52846530D01*
X150125536Y-52955457D01*
X149888866Y-53113595D01*
X149687595Y-53314866D01*
X149540000Y-53535757D01*
X149392405Y-53314866D01*
X149191134Y-53113595D01*
X148954464Y-52955457D01*
X148691491Y-52846530D01*
X148412320Y-52791000D01*
X148127680Y-52791000D01*
X147848509Y-52846530D01*
X147585536Y-52955457D01*
X147348866Y-53113595D01*
X147147595Y-53314866D01*
X147000000Y-53535757D01*
X146852405Y-53314866D01*
X146651134Y-53113595D01*
X146414464Y-52955457D01*
X146151491Y-52846530D01*
X145872320Y-52791000D01*
X145587680Y-52791000D01*
X145308509Y-52846530D01*
X145045536Y-52955457D01*
X144808866Y-53113595D01*
X144607595Y-53314866D01*
X144460000Y-53535757D01*
X144312405Y-53314866D01*
X144111134Y-53113595D01*
X143874464Y-52955457D01*
X143611491Y-52846530D01*
X143332320Y-52791000D01*
X143047680Y-52791000D01*
X142768509Y-52846530D01*
X142505536Y-52955457D01*
X142268866Y-53113595D01*
X142067595Y-53314866D01*
X141920000Y-53535757D01*
X141772405Y-53314866D01*
X141571134Y-53113595D01*
X141334464Y-52955457D01*
X141071491Y-52846530D01*
X140792320Y-52791000D01*
X140507680Y-52791000D01*
X140228509Y-52846530D01*
X139965536Y-52955457D01*
X139728866Y-53113595D01*
X139527595Y-53314866D01*
X139380000Y-53535757D01*
X139232405Y-53314866D01*
X139031134Y-53113595D01*
X138794464Y-52955457D01*
X138531491Y-52846530D01*
X138252320Y-52791000D01*
X137967680Y-52791000D01*
X137688509Y-52846530D01*
X137425536Y-52955457D01*
X137188866Y-53113595D01*
X136987595Y-53314866D01*
X136840000Y-53535757D01*
X136692405Y-53314866D01*
X136491134Y-53113595D01*
X136254464Y-52955457D01*
X135991491Y-52846530D01*
X135712320Y-52791000D01*
X135427680Y-52791000D01*
X135148509Y-52846530D01*
X134885536Y-52955457D01*
X134648866Y-53113595D01*
X134447595Y-53314866D01*
X134300000Y-53535757D01*
X134152405Y-53314866D01*
X133951134Y-53113595D01*
X133714464Y-52955457D01*
X133451491Y-52846530D01*
X133172320Y-52791000D01*
X132887680Y-52791000D01*
X132608509Y-52846530D01*
X132345536Y-52955457D01*
X132108866Y-53113595D01*
X131907595Y-53314866D01*
X131760000Y-53535757D01*
X131612405Y-53314866D01*
X131411134Y-53113595D01*
X131174464Y-52955457D01*
X130911491Y-52846530D01*
X130632320Y-52791000D01*
X130347680Y-52791000D01*
X130068509Y-52846530D01*
X129805536Y-52955457D01*
X129568866Y-53113595D01*
X129367595Y-53314866D01*
X129220000Y-53535757D01*
X129072405Y-53314866D01*
X128871134Y-53113595D01*
X128634464Y-52955457D01*
X128371491Y-52846530D01*
X128092320Y-52791000D01*
X127807680Y-52791000D01*
X127528509Y-52846530D01*
X127265536Y-52955457D01*
X127028866Y-53113595D01*
X126827595Y-53314866D01*
X126680000Y-53535757D01*
X126532405Y-53314866D01*
X126331134Y-53113595D01*
X126094464Y-52955457D01*
X125831491Y-52846530D01*
X125552320Y-52791000D01*
X125267680Y-52791000D01*
X124988509Y-52846530D01*
X124725536Y-52955457D01*
X124488866Y-53113595D01*
X124287595Y-53314866D01*
X124140000Y-53535757D01*
X123992405Y-53314866D01*
X123791134Y-53113595D01*
X123554464Y-52955457D01*
X123291491Y-52846530D01*
X123012320Y-52791000D01*
X122727680Y-52791000D01*
X122448509Y-52846530D01*
X122185536Y-52955457D01*
X121948866Y-53113595D01*
X121747595Y-53314866D01*
X121600000Y-53535757D01*
X121452405Y-53314866D01*
X121251134Y-53113595D01*
X121014464Y-52955457D01*
X120751491Y-52846530D01*
X120472320Y-52791000D01*
X120187680Y-52791000D01*
X119908509Y-52846530D01*
X119645536Y-52955457D01*
X119408866Y-53113595D01*
X119207595Y-53314866D01*
X119060000Y-53535757D01*
X118912405Y-53314866D01*
X118711134Y-53113595D01*
X118474464Y-52955457D01*
X118211491Y-52846530D01*
X117932320Y-52791000D01*
X117647680Y-52791000D01*
X117368509Y-52846530D01*
X117105536Y-52955457D01*
X116868866Y-53113595D01*
X116667595Y-53314866D01*
X116520000Y-53535757D01*
X116372405Y-53314866D01*
X116171134Y-53113595D01*
X115934464Y-52955457D01*
X115671491Y-52846530D01*
X115392320Y-52791000D01*
X115107680Y-52791000D01*
X114828509Y-52846530D01*
X114565536Y-52955457D01*
X114328866Y-53113595D01*
X114127595Y-53314866D01*
X113969457Y-53551536D01*
X113860530Y-53814509D01*
X113805000Y-54093680D01*
X113805000Y-54378320D01*
X113860530Y-54657491D01*
X113969457Y-54920464D01*
X114127595Y-55157134D01*
X114328866Y-55358405D01*
X114549757Y-55506000D01*
X114328866Y-55653595D01*
X114127595Y-55854866D01*
X113969457Y-56091536D01*
X113860530Y-56354509D01*
X113805000Y-56633680D01*
X113805000Y-56918320D01*
X113860530Y-57197491D01*
X113969457Y-57460464D01*
X114127595Y-57697134D01*
X114328866Y-57898405D01*
X114549757Y-58046000D01*
X114328866Y-58193595D01*
X114127595Y-58394866D01*
X113969457Y-58631536D01*
X113860530Y-58894509D01*
X113805000Y-59173680D01*
X113805000Y-59458320D01*
X113860530Y-59737491D01*
X113969457Y-60000464D01*
X114127595Y-60237134D01*
X114328866Y-60438405D01*
X114549757Y-60586000D01*
X114328866Y-60733595D01*
X114127595Y-60934866D01*
X113969457Y-61171536D01*
X113860530Y-61434509D01*
X113805000Y-61713680D01*
X113805000Y-61998320D01*
X113860530Y-62277491D01*
X113969457Y-62540464D01*
X114127595Y-62777134D01*
X114328866Y-62978405D01*
X114565536Y-63136543D01*
X114828509Y-63245470D01*
X115107680Y-63301000D01*
X115392320Y-63301000D01*
X115671491Y-63245470D01*
X115934464Y-63136543D01*
X115961934Y-63118188D01*
X115979999Y-63140201D01*
X116009003Y-63164004D01*
X121234500Y-68389502D01*
X121234500Y-68451639D01*
X121274274Y-68651598D01*
X121352295Y-68839956D01*
X121465563Y-69009474D01*
X121609726Y-69153637D01*
X121779244Y-69266905D01*
X121844615Y-69293983D01*
X108875203Y-82263396D01*
X108846199Y-82287199D01*
X108803813Y-82338847D01*
X108751226Y-82402924D01*
X108742338Y-82419553D01*
X108680654Y-82534954D01*
X108637197Y-82678215D01*
X108626200Y-82789868D01*
X108626200Y-82789878D01*
X108622524Y-82827200D01*
X106060000Y-82827200D01*
X106060000Y-71914801D01*
X110681004Y-67293798D01*
X110710001Y-67270001D01*
X110779846Y-67184895D01*
X110804974Y-67154277D01*
X110875546Y-67022247D01*
X110881842Y-67001492D01*
X110919003Y-66878986D01*
X110930000Y-66767333D01*
X110930000Y-66767324D01*
X110933676Y-66730001D01*
X110930000Y-66692678D01*
X110930000Y-57536143D01*
X111157368Y-57490917D01*
X111773399Y-57235748D01*
X112327812Y-56865302D01*
X112799302Y-56393812D01*
X113169748Y-55839399D01*
X113424917Y-55223368D01*
X113555000Y-54569393D01*
X113555000Y-53902607D01*
X113424917Y-53248632D01*
X113169748Y-52632601D01*
X112799302Y-52078188D01*
X112567114Y-51846000D01*
X181422886Y-51846000D01*
X181190698Y-52078188D01*
G37*
X181190698Y-52078188D02*
X180820252Y-52632601D01*
X180565083Y-53248632D01*
X180435000Y-53902607D01*
X180435000Y-54569393D01*
X180565083Y-55223368D01*
X180820252Y-55839399D01*
X181190698Y-56393812D01*
X181662188Y-56865302D01*
X182216601Y-57235748D01*
X182832632Y-57490917D01*
X183486607Y-57621000D01*
X184153393Y-57621000D01*
X184807368Y-57490917D01*
X185423399Y-57235748D01*
X185977812Y-56865302D01*
X186210000Y-56633114D01*
X186210001Y-64070877D01*
X186213010Y-64101427D01*
X186212954Y-64109424D01*
X186213921Y-64119290D01*
X186240441Y-64371615D01*
X186253379Y-64434646D01*
X186265439Y-64497864D01*
X186268305Y-64507354D01*
X186343331Y-64749724D01*
X186368266Y-64809041D01*
X186392373Y-64868709D01*
X186397027Y-64877462D01*
X186517700Y-65100643D01*
X186553670Y-65153971D01*
X186588922Y-65207841D01*
X186595188Y-65215523D01*
X186756913Y-65411014D01*
X186802531Y-65456314D01*
X186847596Y-65502333D01*
X186855234Y-65508652D01*
X187051849Y-65669007D01*
X187105393Y-65704582D01*
X187158547Y-65740977D01*
X187167267Y-65745691D01*
X187391285Y-65864803D01*
X187450748Y-65889312D01*
X187509925Y-65914675D01*
X187519395Y-65917607D01*
X187762282Y-65990939D01*
X187825379Y-66003432D01*
X187888353Y-66016818D01*
X187898212Y-66017854D01*
X188150717Y-66042612D01*
X188333937Y-66060577D01*
X188443536Y-66093667D01*
X188544615Y-66147411D01*
X188633336Y-66219770D01*
X188706309Y-66307979D01*
X188760761Y-66408687D01*
X188794614Y-66518046D01*
X188810005Y-66664485D01*
X188814126Y-96873000D01*
X188330015Y-96873000D01*
X188295226Y-96698102D01*
X188217205Y-96509744D01*
X188103937Y-96340226D01*
X187959774Y-96196063D01*
X187790256Y-96082795D01*
X187601898Y-96004774D01*
X187401939Y-95965000D01*
X187198061Y-95965000D01*
X186998102Y-96004774D01*
X186809744Y-96082795D01*
X186640226Y-96196063D01*
X186496063Y-96340226D01*
X186382795Y-96509744D01*
X186304774Y-96698102D01*
X186269985Y-96873000D01*
X106330015Y-96873000D01*
X106295226Y-96698102D01*
X106217205Y-96509744D01*
X106103937Y-96340226D01*
X106060000Y-96296289D01*
X106060000Y-82827200D01*
X108622524Y-82827200D01*
X108626200Y-82864523D01*
X108626201Y-86473168D01*
X108622524Y-86510500D01*
X108626201Y-86547833D01*
X108637198Y-86659486D01*
X108648941Y-86698199D01*
X108680654Y-86802746D01*
X108751226Y-86934776D01*
X108813991Y-87011254D01*
X108846200Y-87050501D01*
X108875198Y-87074299D01*
X109113200Y-87312301D01*
X109113200Y-87374439D01*
X109152974Y-87574398D01*
X109230995Y-87762756D01*
X109344263Y-87932274D01*
X109488426Y-88076437D01*
X109657944Y-88189705D01*
X109846302Y-88267726D01*
X110046261Y-88307500D01*
X110250139Y-88307500D01*
X110450098Y-88267726D01*
X110638456Y-88189705D01*
X110807974Y-88076437D01*
X110952137Y-87932274D01*
X111065405Y-87762756D01*
X111143426Y-87574398D01*
X111183200Y-87374439D01*
X111183200Y-87170561D01*
X111143426Y-86970602D01*
X111065405Y-86782244D01*
X110960650Y-86625466D01*
X111055805Y-86483056D01*
X111133826Y-86294698D01*
X111173600Y-86094739D01*
X111173600Y-85890861D01*
X111133826Y-85690902D01*
X111055805Y-85502544D01*
X110942537Y-85333026D01*
X110898600Y-85289089D01*
X110898600Y-83026601D01*
X111924101Y-82001100D01*
X111924100Y-87849289D01*
X111880163Y-87893226D01*
X111766895Y-88062744D01*
X111688874Y-88251102D01*
X111649100Y-88451061D01*
X111649100Y-88654939D01*
X111688874Y-88854898D01*
X111766895Y-89043256D01*
X111880163Y-89212774D01*
X112024326Y-89356937D01*
X112193844Y-89470205D01*
X112382202Y-89548226D01*
X112582161Y-89588000D01*
X112786039Y-89588000D01*
X112985998Y-89548226D01*
X113174356Y-89470205D01*
X113343874Y-89356937D01*
X113488037Y-89212774D01*
X113601305Y-89043256D01*
X113679326Y-88854898D01*
X113719100Y-88654939D01*
X113719100Y-88451061D01*
X113679326Y-88251102D01*
X113601305Y-88062744D01*
X113488037Y-87893226D01*
X113444100Y-87849289D01*
X113444100Y-86450861D01*
X122139400Y-86450861D01*
X122139400Y-86654739D01*
X122179174Y-86854698D01*
X122257195Y-87043056D01*
X122370463Y-87212574D01*
X122514626Y-87356737D01*
X122684144Y-87470005D01*
X122872502Y-87548026D01*
X123072461Y-87587800D01*
X123276339Y-87587800D01*
X123476298Y-87548026D01*
X123664656Y-87470005D01*
X123834174Y-87356737D01*
X123978337Y-87212574D01*
X124091605Y-87043056D01*
X124169626Y-86854698D01*
X124209400Y-86654739D01*
X124209400Y-86450861D01*
X124169626Y-86250902D01*
X124091605Y-86062544D01*
X123978337Y-85893026D01*
X123834174Y-85748863D01*
X123664656Y-85635595D01*
X123476298Y-85557574D01*
X123276339Y-85517800D01*
X123072461Y-85517800D01*
X122872502Y-85557574D01*
X122684144Y-85635595D01*
X122514626Y-85748863D01*
X122370463Y-85893026D01*
X122257195Y-86062544D01*
X122179174Y-86250902D01*
X122139400Y-86450861D01*
X113444100Y-86450861D01*
X113444100Y-85106800D01*
X113534139Y-85106800D01*
X113734098Y-85067026D01*
X113922456Y-84989005D01*
X114091974Y-84875737D01*
X114236137Y-84731574D01*
X114349405Y-84562056D01*
X114426654Y-84375561D01*
X123668500Y-84375561D01*
X123668500Y-84579439D01*
X123708274Y-84779398D01*
X123786295Y-84967756D01*
X123899563Y-85137274D01*
X124043726Y-85281437D01*
X124213244Y-85394705D01*
X124401602Y-85472726D01*
X124601561Y-85512500D01*
X124805439Y-85512500D01*
X125005398Y-85472726D01*
X125193756Y-85394705D01*
X125363274Y-85281437D01*
X125507437Y-85137274D01*
X125620705Y-84967756D01*
X125698726Y-84779398D01*
X125738500Y-84579439D01*
X125738500Y-84375561D01*
X125698726Y-84175602D01*
X125620705Y-83987244D01*
X125507437Y-83817726D01*
X125363274Y-83673563D01*
X125193756Y-83560295D01*
X125005398Y-83482274D01*
X124805439Y-83442500D01*
X124601561Y-83442500D01*
X124401602Y-83482274D01*
X124213244Y-83560295D01*
X124043726Y-83673563D01*
X123899563Y-83817726D01*
X123786295Y-83987244D01*
X123708274Y-84175602D01*
X123668500Y-84375561D01*
X114426654Y-84375561D01*
X114427426Y-84373698D01*
X114467200Y-84173739D01*
X114467200Y-83969861D01*
X114427426Y-83769902D01*
X114349405Y-83581544D01*
X114236137Y-83412026D01*
X114192200Y-83368089D01*
X114192200Y-82107361D01*
X122183700Y-82107361D01*
X122183700Y-82311239D01*
X122223474Y-82511198D01*
X122301495Y-82699556D01*
X122414763Y-82869074D01*
X122558926Y-83013237D01*
X122728444Y-83126505D01*
X122916802Y-83204526D01*
X123116761Y-83244300D01*
X123320639Y-83244300D01*
X123520598Y-83204526D01*
X123708956Y-83126505D01*
X123878474Y-83013237D01*
X124022637Y-82869074D01*
X124135905Y-82699556D01*
X124213926Y-82511198D01*
X124253700Y-82311239D01*
X124253700Y-82107361D01*
X124213926Y-81907402D01*
X124135905Y-81719044D01*
X124022637Y-81549526D01*
X123878474Y-81405363D01*
X123708956Y-81292095D01*
X123520598Y-81214074D01*
X123320639Y-81174300D01*
X123116761Y-81174300D01*
X122916802Y-81214074D01*
X122728444Y-81292095D01*
X122558926Y-81405363D01*
X122414763Y-81549526D01*
X122301495Y-81719044D01*
X122223474Y-81907402D01*
X122183700Y-82107361D01*
X114192200Y-82107361D01*
X114192200Y-81006801D01*
X116956140Y-78242861D01*
X119291900Y-78242861D01*
X119291900Y-78446739D01*
X119331674Y-78646698D01*
X119409695Y-78835056D01*
X119522963Y-79004574D01*
X119667126Y-79148737D01*
X119776487Y-79221810D01*
X119745795Y-79267744D01*
X119667774Y-79456102D01*
X119628000Y-79656061D01*
X119628000Y-79859939D01*
X119667774Y-80059898D01*
X119745795Y-80248256D01*
X119859063Y-80417774D01*
X120003226Y-80561937D01*
X120172744Y-80675205D01*
X120361102Y-80753226D01*
X120561061Y-80793000D01*
X120764939Y-80793000D01*
X120964898Y-80753226D01*
X121153256Y-80675205D01*
X121322774Y-80561937D01*
X121466937Y-80417774D01*
X121580205Y-80248256D01*
X121658226Y-80059898D01*
X121698000Y-79859939D01*
X121698000Y-79656061D01*
X121680158Y-79566361D01*
X122169600Y-79566361D01*
X122169600Y-79770239D01*
X122209374Y-79970198D01*
X122287395Y-80158556D01*
X122400663Y-80328074D01*
X122544826Y-80472237D01*
X122714344Y-80585505D01*
X122902702Y-80663526D01*
X123102661Y-80703300D01*
X123306539Y-80703300D01*
X123506498Y-80663526D01*
X123694856Y-80585505D01*
X123864374Y-80472237D01*
X124008537Y-80328074D01*
X124121805Y-80158556D01*
X124199826Y-79970198D01*
X124239600Y-79770239D01*
X124239600Y-79566361D01*
X124199826Y-79366402D01*
X124121805Y-79178044D01*
X124008537Y-79008526D01*
X123864374Y-78864363D01*
X123694856Y-78751095D01*
X123506498Y-78673074D01*
X123306539Y-78633300D01*
X123102661Y-78633300D01*
X122902702Y-78673074D01*
X122714344Y-78751095D01*
X122544826Y-78864363D01*
X122400663Y-79008526D01*
X122287395Y-79178044D01*
X122209374Y-79366402D01*
X122169600Y-79566361D01*
X121680158Y-79566361D01*
X121658226Y-79456102D01*
X121580205Y-79267744D01*
X121466937Y-79098226D01*
X121322774Y-78954063D01*
X121213413Y-78880990D01*
X121244105Y-78835056D01*
X121322126Y-78646698D01*
X121361900Y-78446739D01*
X121361900Y-78242861D01*
X121322126Y-78042902D01*
X121244105Y-77854544D01*
X121222586Y-77822338D01*
X121338874Y-77744637D01*
X121483037Y-77600474D01*
X121596305Y-77430956D01*
X121674326Y-77242598D01*
X121714100Y-77042639D01*
X121714100Y-76838761D01*
X121674326Y-76638802D01*
X121596305Y-76450444D01*
X121483037Y-76280926D01*
X121432672Y-76230561D01*
X138928900Y-76230561D01*
X138928900Y-76434439D01*
X138968674Y-76634398D01*
X139046695Y-76822756D01*
X139159963Y-76992274D01*
X139304126Y-77136437D01*
X139473644Y-77249705D01*
X139662002Y-77327726D01*
X139861961Y-77367500D01*
X139883796Y-77367500D01*
X139934395Y-77489656D01*
X140047663Y-77659174D01*
X140191826Y-77803337D01*
X140361344Y-77916605D01*
X140549702Y-77994626D01*
X140749661Y-78034400D01*
X140953539Y-78034400D01*
X141153498Y-77994626D01*
X141341856Y-77916605D01*
X141511374Y-77803337D01*
X141655537Y-77659174D01*
X141768805Y-77489656D01*
X141846826Y-77301298D01*
X141886600Y-77101339D01*
X141886600Y-76897461D01*
X141846826Y-76697502D01*
X141768805Y-76509144D01*
X141655537Y-76339626D01*
X141511374Y-76195463D01*
X141341856Y-76082195D01*
X141153498Y-76004174D01*
X140953539Y-75964400D01*
X140931704Y-75964400D01*
X140881105Y-75842244D01*
X140767837Y-75672726D01*
X140623674Y-75528563D01*
X140454156Y-75415295D01*
X140265798Y-75337274D01*
X140065839Y-75297500D01*
X139861961Y-75297500D01*
X139662002Y-75337274D01*
X139473644Y-75415295D01*
X139304126Y-75528563D01*
X139159963Y-75672726D01*
X139046695Y-75842244D01*
X138968674Y-76030602D01*
X138928900Y-76230561D01*
X121432672Y-76230561D01*
X121338874Y-76136763D01*
X121169356Y-76023495D01*
X120980998Y-75945474D01*
X120781039Y-75905700D01*
X120577161Y-75905700D01*
X120377202Y-75945474D01*
X120188844Y-76023495D01*
X120019326Y-76136763D01*
X119875163Y-76280926D01*
X119761895Y-76450444D01*
X119683874Y-76638802D01*
X119644100Y-76838761D01*
X119644100Y-77042639D01*
X119683874Y-77242598D01*
X119761895Y-77430956D01*
X119783414Y-77463162D01*
X119667126Y-77540863D01*
X119522963Y-77685026D01*
X119409695Y-77854544D01*
X119331674Y-78042902D01*
X119291900Y-78242861D01*
X116956140Y-78242861D01*
X119923195Y-75275806D01*
X119970826Y-75323437D01*
X120140344Y-75436705D01*
X120328702Y-75514726D01*
X120528661Y-75554500D01*
X120732539Y-75554500D01*
X120932498Y-75514726D01*
X121120856Y-75436705D01*
X121290374Y-75323437D01*
X121434537Y-75179274D01*
X121547805Y-75009756D01*
X121625826Y-74821398D01*
X121665600Y-74621439D01*
X121665600Y-74417561D01*
X121625826Y-74217602D01*
X121547805Y-74029244D01*
X121434537Y-73859726D01*
X121386906Y-73812095D01*
X121572140Y-73626861D01*
X137986400Y-73626861D01*
X137986400Y-73830739D01*
X138026174Y-74030698D01*
X138104195Y-74219056D01*
X138217463Y-74388574D01*
X138361626Y-74532737D01*
X138531144Y-74646005D01*
X138719502Y-74724026D01*
X138919461Y-74763800D01*
X139123339Y-74763800D01*
X139323298Y-74724026D01*
X139511656Y-74646005D01*
X139681174Y-74532737D01*
X139825337Y-74388574D01*
X139938605Y-74219056D01*
X140016626Y-74030698D01*
X140056400Y-73830739D01*
X140056400Y-73626861D01*
X140016626Y-73426902D01*
X139938605Y-73238544D01*
X139825337Y-73069026D01*
X139681174Y-72924863D01*
X139511656Y-72811595D01*
X139323298Y-72733574D01*
X139123339Y-72693800D01*
X138919461Y-72693800D01*
X138719502Y-72733574D01*
X138531144Y-72811595D01*
X138361626Y-72924863D01*
X138217463Y-73069026D01*
X138104195Y-73238544D01*
X138026174Y-73426902D01*
X137986400Y-73626861D01*
X121572140Y-73626861D01*
X132136404Y-63062598D01*
X132165401Y-63038801D01*
X132177391Y-63024192D01*
X132345536Y-63136543D01*
X132608509Y-63245470D01*
X132887680Y-63301000D01*
X133172320Y-63301000D01*
X133405401Y-63254638D01*
X133405401Y-64705368D01*
X133401724Y-64742700D01*
X133405401Y-64780033D01*
X133416398Y-64891686D01*
X133421403Y-64908186D01*
X133459854Y-65034946D01*
X133530426Y-65166976D01*
X133587138Y-65236079D01*
X133625400Y-65282701D01*
X133654398Y-65306499D01*
X141949000Y-73601102D01*
X141949000Y-73663239D01*
X141988774Y-73863198D01*
X142066795Y-74051556D01*
X142180063Y-74221074D01*
X142324226Y-74365237D01*
X142493744Y-74478505D01*
X142682102Y-74556526D01*
X142882061Y-74596300D01*
X143085939Y-74596300D01*
X143285898Y-74556526D01*
X143474256Y-74478505D01*
X143643774Y-74365237D01*
X143787937Y-74221074D01*
X143855151Y-74120481D01*
X143858261Y-74121100D01*
X144062139Y-74121100D01*
X144262098Y-74081326D01*
X144450456Y-74003305D01*
X144619974Y-73890037D01*
X144764137Y-73745874D01*
X144877405Y-73576356D01*
X144955426Y-73387998D01*
X144995200Y-73188039D01*
X144995200Y-72984161D01*
X144955426Y-72784202D01*
X144877405Y-72595844D01*
X144764137Y-72426326D01*
X144720200Y-72382389D01*
X144720200Y-71031222D01*
X144723876Y-70993899D01*
X144720200Y-70956576D01*
X144720200Y-70956567D01*
X144709203Y-70844914D01*
X144665746Y-70701653D01*
X144621794Y-70619426D01*
X144595174Y-70569623D01*
X144523999Y-70482897D01*
X144500201Y-70453899D01*
X144471204Y-70430102D01*
X142793864Y-68752763D01*
X142850774Y-68714737D01*
X142994937Y-68570574D01*
X143035366Y-68510068D01*
X143450100Y-68924802D01*
X143450100Y-68986939D01*
X143489874Y-69186898D01*
X143567895Y-69375256D01*
X143681163Y-69544774D01*
X143825326Y-69688937D01*
X143994844Y-69802205D01*
X144183202Y-69880226D01*
X144383161Y-69920000D01*
X144587039Y-69920000D01*
X144786998Y-69880226D01*
X144975356Y-69802205D01*
X145144874Y-69688937D01*
X145289037Y-69544774D01*
X145402305Y-69375256D01*
X145480326Y-69186898D01*
X145520100Y-68986939D01*
X145520100Y-68783061D01*
X145480326Y-68583102D01*
X145402305Y-68394744D01*
X145289037Y-68225226D01*
X145144874Y-68081063D01*
X144975356Y-67967795D01*
X144786998Y-67889774D01*
X144587039Y-67850000D01*
X144524902Y-67850000D01*
X142680000Y-66005099D01*
X142680000Y-63208808D01*
X142768509Y-63245470D01*
X143047680Y-63301000D01*
X143332320Y-63301000D01*
X143611491Y-63245470D01*
X143874464Y-63136543D01*
X143958135Y-63080636D01*
X144608600Y-63731102D01*
X144608600Y-63793239D01*
X144648374Y-63993198D01*
X144726395Y-64181556D01*
X144839663Y-64351074D01*
X144983826Y-64495237D01*
X145153344Y-64608505D01*
X145341702Y-64686526D01*
X145541661Y-64726300D01*
X145617700Y-64726300D01*
X145617701Y-74339897D01*
X133689099Y-86268500D01*
X133626961Y-86268500D01*
X133427002Y-86308274D01*
X133238644Y-86386295D01*
X133069126Y-86499563D01*
X132924963Y-86643726D01*
X132811695Y-86813244D01*
X132733674Y-87001602D01*
X132693900Y-87201561D01*
X132693900Y-87405439D01*
X132733674Y-87605398D01*
X132811695Y-87793756D01*
X132904969Y-87933350D01*
X132796795Y-88095244D01*
X132718774Y-88283602D01*
X132679000Y-88483561D01*
X132679000Y-88687439D01*
X132718774Y-88887398D01*
X132796795Y-89075756D01*
X132910063Y-89245274D01*
X133054226Y-89389437D01*
X133223744Y-89502705D01*
X133412102Y-89580726D01*
X133612061Y-89620500D01*
X133815939Y-89620500D01*
X134015898Y-89580726D01*
X134204256Y-89502705D01*
X134373774Y-89389437D01*
X134517937Y-89245274D01*
X134631205Y-89075756D01*
X134709226Y-88887398D01*
X134749000Y-88687439D01*
X134749000Y-88625301D01*
X136796540Y-86577761D01*
X140687400Y-86577761D01*
X140687400Y-86781639D01*
X140727174Y-86981598D01*
X140805195Y-87169956D01*
X140918463Y-87339474D01*
X141062626Y-87483637D01*
X141232144Y-87596905D01*
X141420502Y-87674926D01*
X141620461Y-87714700D01*
X141824339Y-87714700D01*
X142024298Y-87674926D01*
X142212656Y-87596905D01*
X142382174Y-87483637D01*
X142526337Y-87339474D01*
X142610402Y-87213661D01*
X143210500Y-87213661D01*
X143210500Y-87417539D01*
X143250274Y-87617498D01*
X143328295Y-87805856D01*
X143441563Y-87975374D01*
X143585726Y-88119537D01*
X143755244Y-88232805D01*
X143943602Y-88310826D01*
X144143561Y-88350600D01*
X144347439Y-88350600D01*
X144547398Y-88310826D01*
X144735756Y-88232805D01*
X144905274Y-88119537D01*
X145049437Y-87975374D01*
X145162705Y-87805856D01*
X145240726Y-87617498D01*
X145280500Y-87417539D01*
X145280500Y-87213661D01*
X145240726Y-87013702D01*
X145162705Y-86825344D01*
X145049437Y-86655826D01*
X144905274Y-86511663D01*
X144735756Y-86398395D01*
X144547398Y-86320374D01*
X144347439Y-86280600D01*
X144143561Y-86280600D01*
X143943602Y-86320374D01*
X143755244Y-86398395D01*
X143585726Y-86511663D01*
X143441563Y-86655826D01*
X143328295Y-86825344D01*
X143250274Y-87013702D01*
X143210500Y-87213661D01*
X142610402Y-87213661D01*
X142639605Y-87169956D01*
X142717626Y-86981598D01*
X142757400Y-86781639D01*
X142757400Y-86577761D01*
X142717626Y-86377802D01*
X142639605Y-86189444D01*
X142526337Y-86019926D01*
X142382174Y-85875763D01*
X142212656Y-85762495D01*
X142024298Y-85684474D01*
X141824339Y-85644700D01*
X141620461Y-85644700D01*
X141420502Y-85684474D01*
X141232144Y-85762495D01*
X141062626Y-85875763D01*
X140918463Y-86019926D01*
X140805195Y-86189444D01*
X140727174Y-86377802D01*
X140687400Y-86577761D01*
X136796540Y-86577761D01*
X140742801Y-82631501D01*
X140807663Y-82728574D01*
X140951826Y-82872737D01*
X141121344Y-82986005D01*
X141309702Y-83064026D01*
X141509661Y-83103800D01*
X141713539Y-83103800D01*
X141913498Y-83064026D01*
X142101856Y-82986005D01*
X142271374Y-82872737D01*
X142415537Y-82728574D01*
X142528805Y-82559056D01*
X142606826Y-82370698D01*
X142646600Y-82170739D01*
X142646600Y-81966861D01*
X142606826Y-81766902D01*
X142528805Y-81578544D01*
X142415537Y-81409026D01*
X142271374Y-81264863D01*
X142174301Y-81200001D01*
X147431603Y-75942699D01*
X147460601Y-75918901D01*
X147555574Y-75803176D01*
X147626146Y-75671147D01*
X147669603Y-75527886D01*
X147680600Y-75416233D01*
X147680600Y-75416223D01*
X147684276Y-75378900D01*
X147680600Y-75341577D01*
X147680600Y-63175920D01*
X147848509Y-63245470D01*
X148127680Y-63301000D01*
X148412320Y-63301000D01*
X148691491Y-63245470D01*
X148780000Y-63208808D01*
X148780001Y-78831267D01*
X148776324Y-78868600D01*
X148780001Y-78905933D01*
X148789717Y-79004574D01*
X148790998Y-79017585D01*
X148834454Y-79160846D01*
X148905026Y-79292876D01*
X148965368Y-79366402D01*
X149000000Y-79408601D01*
X149028998Y-79432399D01*
X159236400Y-89639803D01*
X159236400Y-89701939D01*
X159276174Y-89901898D01*
X159354195Y-90090256D01*
X159467463Y-90259774D01*
X159611626Y-90403937D01*
X159781144Y-90517205D01*
X159969502Y-90595226D01*
X160169461Y-90635000D01*
X160373339Y-90635000D01*
X160573298Y-90595226D01*
X160761656Y-90517205D01*
X160931174Y-90403937D01*
X161075337Y-90259774D01*
X161188605Y-90090256D01*
X161266626Y-89901898D01*
X161306400Y-89701939D01*
X161306400Y-89498061D01*
X161266626Y-89298102D01*
X161188605Y-89109744D01*
X161075337Y-88940226D01*
X160931174Y-88796063D01*
X160897059Y-88773268D01*
X160932874Y-88749337D01*
X161077037Y-88605174D01*
X161190305Y-88435656D01*
X161268326Y-88247298D01*
X161308100Y-88047339D01*
X161308100Y-87843461D01*
X161268326Y-87643502D01*
X161190305Y-87455144D01*
X161077037Y-87285626D01*
X160932874Y-87141463D01*
X160763356Y-87028195D01*
X160574998Y-86950174D01*
X160375039Y-86910400D01*
X160171161Y-86910400D01*
X159971202Y-86950174D01*
X159782844Y-87028195D01*
X159613326Y-87141463D01*
X159469163Y-87285626D01*
X159355895Y-87455144D01*
X159310629Y-87564426D01*
X156244264Y-84498061D01*
X159228700Y-84498061D01*
X159228700Y-84701939D01*
X159268474Y-84901898D01*
X159346495Y-85090256D01*
X159459763Y-85259774D01*
X159603926Y-85403937D01*
X159773444Y-85517205D01*
X159961802Y-85595226D01*
X160161761Y-85635000D01*
X160365639Y-85635000D01*
X160565598Y-85595226D01*
X160753956Y-85517205D01*
X160923474Y-85403937D01*
X161067637Y-85259774D01*
X161180905Y-85090256D01*
X161258926Y-84901898D01*
X161293185Y-84729661D01*
X161760400Y-84729661D01*
X161760400Y-84933539D01*
X161800174Y-85133498D01*
X161878195Y-85321856D01*
X161991463Y-85491374D01*
X162135626Y-85635537D01*
X162305144Y-85748805D01*
X162493502Y-85826826D01*
X162693461Y-85866600D01*
X162897339Y-85866600D01*
X163097298Y-85826826D01*
X163285656Y-85748805D01*
X163455174Y-85635537D01*
X163599337Y-85491374D01*
X163712605Y-85321856D01*
X163790626Y-85133498D01*
X163830400Y-84933539D01*
X163830400Y-84899361D01*
X168739600Y-84899361D01*
X168739600Y-85103239D01*
X168779374Y-85303198D01*
X168857395Y-85491556D01*
X168970663Y-85661074D01*
X169114826Y-85805237D01*
X169284344Y-85918505D01*
X169472702Y-85996526D01*
X169672661Y-86036300D01*
X169876539Y-86036300D01*
X170076498Y-85996526D01*
X170264856Y-85918505D01*
X170434374Y-85805237D01*
X170485659Y-85753952D01*
X170489702Y-85755626D01*
X170689661Y-85795400D01*
X170893539Y-85795400D01*
X171093498Y-85755626D01*
X171281856Y-85677605D01*
X171451374Y-85564337D01*
X171595537Y-85420174D01*
X171708805Y-85250656D01*
X171786826Y-85062298D01*
X171826600Y-84862339D01*
X171826600Y-84658461D01*
X171786826Y-84458502D01*
X171708805Y-84270144D01*
X171595537Y-84100626D01*
X171451374Y-83956463D01*
X171281856Y-83843195D01*
X171093498Y-83765174D01*
X170893539Y-83725400D01*
X170689661Y-83725400D01*
X170489702Y-83765174D01*
X170301344Y-83843195D01*
X170131826Y-83956463D01*
X170080541Y-84007748D01*
X170076498Y-84006074D01*
X169876539Y-83966300D01*
X169672661Y-83966300D01*
X169472702Y-84006074D01*
X169284344Y-84084095D01*
X169114826Y-84197363D01*
X168970663Y-84341526D01*
X168857395Y-84511044D01*
X168779374Y-84699402D01*
X168739600Y-84899361D01*
X163830400Y-84899361D01*
X163830400Y-84729661D01*
X163790626Y-84529702D01*
X163712605Y-84341344D01*
X163599337Y-84171826D01*
X163455174Y-84027663D01*
X163285656Y-83914395D01*
X163097298Y-83836374D01*
X162897339Y-83796600D01*
X162693461Y-83796600D01*
X162493502Y-83836374D01*
X162305144Y-83914395D01*
X162135626Y-84027663D01*
X161991463Y-84171826D01*
X161878195Y-84341344D01*
X161800174Y-84529702D01*
X161760400Y-84729661D01*
X161293185Y-84729661D01*
X161298700Y-84701939D01*
X161298700Y-84498061D01*
X161258926Y-84298102D01*
X161180905Y-84109744D01*
X161067637Y-83940226D01*
X160923474Y-83796063D01*
X160753956Y-83682795D01*
X160565598Y-83604774D01*
X160365639Y-83565000D01*
X160161761Y-83565000D01*
X159961802Y-83604774D01*
X159773444Y-83682795D01*
X159603926Y-83796063D01*
X159459763Y-83940226D01*
X159346495Y-84109744D01*
X159268474Y-84298102D01*
X159228700Y-84498061D01*
X156244264Y-84498061D01*
X151796463Y-80050261D01*
X158593200Y-80050261D01*
X158593200Y-80254139D01*
X158632974Y-80454098D01*
X158710995Y-80642456D01*
X158824263Y-80811974D01*
X158968426Y-80956137D01*
X159137944Y-81069405D01*
X159326302Y-81147426D01*
X159526261Y-81187200D01*
X159730139Y-81187200D01*
X159930098Y-81147426D01*
X160118456Y-81069405D01*
X160287974Y-80956137D01*
X160432137Y-80811974D01*
X160545405Y-80642456D01*
X160623426Y-80454098D01*
X160663200Y-80254139D01*
X160663200Y-80050261D01*
X160623426Y-79850302D01*
X160545405Y-79661944D01*
X160432137Y-79492426D01*
X160287974Y-79348263D01*
X160118456Y-79234995D01*
X159930098Y-79156974D01*
X159730139Y-79117200D01*
X159526261Y-79117200D01*
X159326302Y-79156974D01*
X159137944Y-79234995D01*
X158968426Y-79348263D01*
X158824263Y-79492426D01*
X158710995Y-79661944D01*
X158632974Y-79850302D01*
X158593200Y-80050261D01*
X151796463Y-80050261D01*
X150300000Y-78553799D01*
X150300000Y-76691661D01*
X151726900Y-76691661D01*
X151726900Y-76895539D01*
X151766674Y-77095498D01*
X151844695Y-77283856D01*
X151957963Y-77453374D01*
X152102126Y-77597537D01*
X152271644Y-77710805D01*
X152460002Y-77788826D01*
X152659961Y-77828600D01*
X152863839Y-77828600D01*
X153054804Y-77790615D01*
X153117126Y-77852937D01*
X153286644Y-77966205D01*
X153475002Y-78044226D01*
X153674961Y-78084000D01*
X153878839Y-78084000D01*
X154078798Y-78044226D01*
X154267156Y-77966205D01*
X154436674Y-77852937D01*
X154580837Y-77708774D01*
X154694105Y-77539256D01*
X154772126Y-77350898D01*
X154811900Y-77150939D01*
X154811900Y-76947061D01*
X154772126Y-76747102D01*
X154697203Y-76566223D01*
X154808798Y-76544026D01*
X154997156Y-76466005D01*
X155166674Y-76352737D01*
X155310837Y-76208574D01*
X155424105Y-76039056D01*
X155502126Y-75850698D01*
X155541900Y-75650739D01*
X155541900Y-75446861D01*
X155502126Y-75246902D01*
X155424105Y-75058544D01*
X155310837Y-74889026D01*
X155166674Y-74744863D01*
X154997156Y-74631595D01*
X154808798Y-74553574D01*
X154608839Y-74513800D01*
X154404961Y-74513800D01*
X154205002Y-74553574D01*
X154016644Y-74631595D01*
X153847126Y-74744863D01*
X153702963Y-74889026D01*
X153589695Y-75058544D01*
X153511674Y-75246902D01*
X153471900Y-75446861D01*
X153471900Y-75650739D01*
X153511674Y-75850698D01*
X153586597Y-76031577D01*
X153483996Y-76051985D01*
X153421674Y-75989663D01*
X153252156Y-75876395D01*
X153063798Y-75798374D01*
X152863839Y-75758600D01*
X152659961Y-75758600D01*
X152460002Y-75798374D01*
X152271644Y-75876395D01*
X152102126Y-75989663D01*
X151957963Y-76133826D01*
X151844695Y-76303344D01*
X151766674Y-76491702D01*
X151726900Y-76691661D01*
X150300000Y-76691661D01*
X150300000Y-74340611D01*
X150348226Y-74388837D01*
X150517744Y-74502105D01*
X150706102Y-74580126D01*
X150906061Y-74619900D01*
X151109939Y-74619900D01*
X151309898Y-74580126D01*
X151498256Y-74502105D01*
X151667774Y-74388837D01*
X151711711Y-74344900D01*
X152915578Y-74344900D01*
X152952900Y-74348576D01*
X152990222Y-74344900D01*
X152990233Y-74344900D01*
X153101886Y-74333903D01*
X153245147Y-74290446D01*
X153377176Y-74219874D01*
X153492901Y-74124901D01*
X153516704Y-74095897D01*
X160693559Y-66919043D01*
X160700174Y-66952298D01*
X160778195Y-67140656D01*
X160891463Y-67310174D01*
X161035626Y-67454337D01*
X161205144Y-67567605D01*
X161393502Y-67645626D01*
X161593461Y-67685400D01*
X161797339Y-67685400D01*
X161997298Y-67645626D01*
X162185656Y-67567605D01*
X162355174Y-67454337D01*
X162499337Y-67310174D01*
X162612605Y-67140656D01*
X162690626Y-66952298D01*
X162730400Y-66752339D01*
X162730400Y-66548461D01*
X162690626Y-66348502D01*
X162612605Y-66160144D01*
X162499337Y-65990626D01*
X162355174Y-65846463D01*
X162185656Y-65733195D01*
X161997298Y-65655174D01*
X161964043Y-65648559D01*
X164020000Y-63592602D01*
X164020001Y-71910868D01*
X164016324Y-71948200D01*
X164020001Y-71985533D01*
X164020540Y-71991000D01*
X164030998Y-72097185D01*
X164074454Y-72240446D01*
X164145026Y-72372476D01*
X164207994Y-72449202D01*
X164240000Y-72488201D01*
X164268998Y-72511999D01*
X170252386Y-78495387D01*
X170177044Y-78526595D01*
X170007526Y-78639863D01*
X169863363Y-78784026D01*
X169750095Y-78953544D01*
X169672074Y-79141902D01*
X169632300Y-79341861D01*
X169632300Y-79545739D01*
X169672074Y-79745698D01*
X169750095Y-79934056D01*
X169863363Y-80103574D01*
X170007526Y-80247737D01*
X170177044Y-80361005D01*
X170365402Y-80439026D01*
X170565361Y-80478800D01*
X170769239Y-80478800D01*
X170969198Y-80439026D01*
X171157556Y-80361005D01*
X171327074Y-80247737D01*
X171471237Y-80103574D01*
X171584505Y-79934056D01*
X171615713Y-79858714D01*
X179259200Y-87502202D01*
X179259200Y-87564339D01*
X179298974Y-87764298D01*
X179376995Y-87952656D01*
X179490263Y-88122174D01*
X179634426Y-88266337D01*
X179803944Y-88379605D01*
X179992302Y-88457626D01*
X180192261Y-88497400D01*
X180396139Y-88497400D01*
X180596098Y-88457626D01*
X180784456Y-88379605D01*
X180847183Y-88337692D01*
X181023502Y-88410726D01*
X181223461Y-88450500D01*
X181427339Y-88450500D01*
X181627298Y-88410726D01*
X181815656Y-88332705D01*
X181985174Y-88219437D01*
X182129337Y-88075274D01*
X182242605Y-87905756D01*
X182320626Y-87717398D01*
X182360400Y-87517439D01*
X182360400Y-87313561D01*
X182320626Y-87113602D01*
X182242605Y-86925244D01*
X182143532Y-86776970D01*
X182245305Y-86624656D01*
X182323326Y-86436298D01*
X182363100Y-86236339D01*
X182363100Y-86032461D01*
X182323326Y-85832502D01*
X182245305Y-85644144D01*
X182199449Y-85575515D01*
X182221805Y-85542056D01*
X182299826Y-85353698D01*
X182339600Y-85153739D01*
X182339600Y-84949861D01*
X182299826Y-84749902D01*
X182221805Y-84561544D01*
X182108537Y-84392026D01*
X182035261Y-84318750D01*
X182124437Y-84229574D01*
X182237705Y-84060056D01*
X182315726Y-83871698D01*
X182355500Y-83671739D01*
X182355500Y-83467861D01*
X182315726Y-83267902D01*
X182237705Y-83079544D01*
X182124437Y-82910026D01*
X182014261Y-82799850D01*
X182107737Y-82706374D01*
X182221005Y-82536856D01*
X182299026Y-82348498D01*
X182338800Y-82148539D01*
X182338800Y-81944661D01*
X182299026Y-81744702D01*
X182221005Y-81556344D01*
X182107737Y-81386826D01*
X182063800Y-81342889D01*
X182063800Y-73227702D01*
X183101500Y-74265402D01*
X183101501Y-80357288D01*
X183057563Y-80401226D01*
X182944295Y-80570744D01*
X182866274Y-80759102D01*
X182826500Y-80959061D01*
X182826500Y-81162939D01*
X182866274Y-81362898D01*
X182944295Y-81551256D01*
X183057563Y-81720774D01*
X183201726Y-81864937D01*
X183371244Y-81978205D01*
X183559602Y-82056226D01*
X183759561Y-82096000D01*
X183963439Y-82096000D01*
X184163398Y-82056226D01*
X184351756Y-81978205D01*
X184521274Y-81864937D01*
X184665437Y-81720774D01*
X184778705Y-81551256D01*
X184856726Y-81362898D01*
X184896500Y-81162939D01*
X184896500Y-80959061D01*
X184856726Y-80759102D01*
X184778705Y-80570744D01*
X184665437Y-80401226D01*
X184621500Y-80357289D01*
X184621500Y-73987925D01*
X184625176Y-73950600D01*
X184621500Y-73913275D01*
X184621500Y-73913267D01*
X184610503Y-73801614D01*
X184567046Y-73658353D01*
X184496474Y-73526324D01*
X184401501Y-73410599D01*
X184372504Y-73386802D01*
X174190260Y-63204559D01*
X174354464Y-63136543D01*
X174591134Y-62978405D01*
X174792405Y-62777134D01*
X174940000Y-62556243D01*
X175087595Y-62777134D01*
X175288866Y-62978405D01*
X175525536Y-63136543D01*
X175788509Y-63245470D01*
X176067680Y-63301000D01*
X176352320Y-63301000D01*
X176631491Y-63245470D01*
X176894464Y-63136543D01*
X177131134Y-62978405D01*
X177332405Y-62777134D01*
X177480000Y-62556243D01*
X177627595Y-62777134D01*
X177828866Y-62978405D01*
X178065536Y-63136543D01*
X178328509Y-63245470D01*
X178607680Y-63301000D01*
X178892320Y-63301000D01*
X179171491Y-63245470D01*
X179434464Y-63136543D01*
X179671134Y-62978405D01*
X179872405Y-62777134D01*
X180030543Y-62540464D01*
X180139470Y-62277491D01*
X180195000Y-61998320D01*
X180195000Y-61713680D01*
X180139470Y-61434509D01*
X180030543Y-61171536D01*
X179872405Y-60934866D01*
X179671134Y-60733595D01*
X179450243Y-60586000D01*
X179671134Y-60438405D01*
X179872405Y-60237134D01*
X180030543Y-60000464D01*
X180139470Y-59737491D01*
X180195000Y-59458320D01*
X180195000Y-59173680D01*
X180139470Y-58894509D01*
X180030543Y-58631536D01*
X179872405Y-58394866D01*
X179671134Y-58193595D01*
X179450243Y-58046000D01*
X179671134Y-57898405D01*
X179872405Y-57697134D01*
X180030543Y-57460464D01*
X180139470Y-57197491D01*
X180195000Y-56918320D01*
X180195000Y-56633680D01*
X180139470Y-56354509D01*
X180030543Y-56091536D01*
X179872405Y-55854866D01*
X179671134Y-55653595D01*
X179450243Y-55506000D01*
X179671134Y-55358405D01*
X179872405Y-55157134D01*
X180030543Y-54920464D01*
X180139470Y-54657491D01*
X180195000Y-54378320D01*
X180195000Y-54093680D01*
X180139470Y-53814509D01*
X180030543Y-53551536D01*
X179872405Y-53314866D01*
X179671134Y-53113595D01*
X179434464Y-52955457D01*
X179171491Y-52846530D01*
X178892320Y-52791000D01*
X178607680Y-52791000D01*
X178328509Y-52846530D01*
X178065536Y-52955457D01*
X177828866Y-53113595D01*
X177627595Y-53314866D01*
X177480000Y-53535757D01*
X177332405Y-53314866D01*
X177131134Y-53113595D01*
X176894464Y-52955457D01*
X176631491Y-52846530D01*
X176352320Y-52791000D01*
X176067680Y-52791000D01*
X175788509Y-52846530D01*
X175525536Y-52955457D01*
X175288866Y-53113595D01*
X175087595Y-53314866D01*
X174940000Y-53535757D01*
X174792405Y-53314866D01*
X174591134Y-53113595D01*
X174354464Y-52955457D01*
X174091491Y-52846530D01*
X173812320Y-52791000D01*
X173527680Y-52791000D01*
X173248509Y-52846530D01*
X172985536Y-52955457D01*
X172748866Y-53113595D01*
X172547595Y-53314866D01*
X172400000Y-53535757D01*
X172252405Y-53314866D01*
X172051134Y-53113595D01*
X171814464Y-52955457D01*
X171551491Y-52846530D01*
X171272320Y-52791000D01*
X170987680Y-52791000D01*
X170708509Y-52846530D01*
X170445536Y-52955457D01*
X170208866Y-53113595D01*
X170007595Y-53314866D01*
X169860000Y-53535757D01*
X169712405Y-53314866D01*
X169511134Y-53113595D01*
X169274464Y-52955457D01*
X169011491Y-52846530D01*
X168732320Y-52791000D01*
X168447680Y-52791000D01*
X168168509Y-52846530D01*
X167905536Y-52955457D01*
X167668866Y-53113595D01*
X167467595Y-53314866D01*
X167320000Y-53535757D01*
X167172405Y-53314866D01*
X166971134Y-53113595D01*
X166734464Y-52955457D01*
X166471491Y-52846530D01*
X166192320Y-52791000D01*
X165907680Y-52791000D01*
X165628509Y-52846530D01*
X165365536Y-52955457D01*
X165128866Y-53113595D01*
X164927595Y-53314866D01*
X164780000Y-53535757D01*
X164632405Y-53314866D01*
X164431134Y-53113595D01*
X164194464Y-52955457D01*
X163931491Y-52846530D01*
X163652320Y-52791000D01*
X163367680Y-52791000D01*
X163088509Y-52846530D01*
X162825536Y-52955457D01*
X162588866Y-53113595D01*
X162387595Y-53314866D01*
X162240000Y-53535757D01*
X162092405Y-53314866D01*
X161891134Y-53113595D01*
X161654464Y-52955457D01*
X161391491Y-52846530D01*
X161112320Y-52791000D01*
X160827680Y-52791000D01*
X160548509Y-52846530D01*
X160285536Y-52955457D01*
X160048866Y-53113595D01*
X159847595Y-53314866D01*
X159700000Y-53535757D01*
X159552405Y-53314866D01*
X159351134Y-53113595D01*
X159114464Y-52955457D01*
X158851491Y-52846530D01*
X158572320Y-52791000D01*
X158287680Y-52791000D01*
X158008509Y-52846530D01*
X157745536Y-52955457D01*
X157508866Y-53113595D01*
X157307595Y-53314866D01*
X157160000Y-53535757D01*
X157012405Y-53314866D01*
X156811134Y-53113595D01*
X156574464Y-52955457D01*
X156311491Y-52846530D01*
X156032320Y-52791000D01*
X155747680Y-52791000D01*
X155468509Y-52846530D01*
X155205536Y-52955457D01*
X154968866Y-53113595D01*
X154767595Y-53314866D01*
X154620000Y-53535757D01*
X154472405Y-53314866D01*
X154271134Y-53113595D01*
X154034464Y-52955457D01*
X153771491Y-52846530D01*
X153492320Y-52791000D01*
X153207680Y-52791000D01*
X152928509Y-52846530D01*
X152665536Y-52955457D01*
X152428866Y-53113595D01*
X152227595Y-53314866D01*
X152080000Y-53535757D01*
X151932405Y-53314866D01*
X151731134Y-53113595D01*
X151494464Y-52955457D01*
X151231491Y-52846530D01*
X150952320Y-52791000D01*
X150667680Y-52791000D01*
X150388509Y-52846530D01*
X150125536Y-52955457D01*
X149888866Y-53113595D01*
X149687595Y-53314866D01*
X149540000Y-53535757D01*
X149392405Y-53314866D01*
X149191134Y-53113595D01*
X148954464Y-52955457D01*
X148691491Y-52846530D01*
X148412320Y-52791000D01*
X148127680Y-52791000D01*
X147848509Y-52846530D01*
X147585536Y-52955457D01*
X147348866Y-53113595D01*
X147147595Y-53314866D01*
X147000000Y-53535757D01*
X146852405Y-53314866D01*
X146651134Y-53113595D01*
X146414464Y-52955457D01*
X146151491Y-52846530D01*
X145872320Y-52791000D01*
X145587680Y-52791000D01*
X145308509Y-52846530D01*
X145045536Y-52955457D01*
X144808866Y-53113595D01*
X144607595Y-53314866D01*
X144460000Y-53535757D01*
X144312405Y-53314866D01*
X144111134Y-53113595D01*
X143874464Y-52955457D01*
X143611491Y-52846530D01*
X143332320Y-52791000D01*
X143047680Y-52791000D01*
X142768509Y-52846530D01*
X142505536Y-52955457D01*
X142268866Y-53113595D01*
X142067595Y-53314866D01*
X141920000Y-53535757D01*
X141772405Y-53314866D01*
X141571134Y-53113595D01*
X141334464Y-52955457D01*
X141071491Y-52846530D01*
X140792320Y-52791000D01*
X140507680Y-52791000D01*
X140228509Y-52846530D01*
X139965536Y-52955457D01*
X139728866Y-53113595D01*
X139527595Y-53314866D01*
X139380000Y-53535757D01*
X139232405Y-53314866D01*
X139031134Y-53113595D01*
X138794464Y-52955457D01*
X138531491Y-52846530D01*
X138252320Y-52791000D01*
X137967680Y-52791000D01*
X137688509Y-52846530D01*
X137425536Y-52955457D01*
X137188866Y-53113595D01*
X136987595Y-53314866D01*
X136840000Y-53535757D01*
X136692405Y-53314866D01*
X136491134Y-53113595D01*
X136254464Y-52955457D01*
X135991491Y-52846530D01*
X135712320Y-52791000D01*
X135427680Y-52791000D01*
X135148509Y-52846530D01*
X134885536Y-52955457D01*
X134648866Y-53113595D01*
X134447595Y-53314866D01*
X134300000Y-53535757D01*
X134152405Y-53314866D01*
X133951134Y-53113595D01*
X133714464Y-52955457D01*
X133451491Y-52846530D01*
X133172320Y-52791000D01*
X132887680Y-52791000D01*
X132608509Y-52846530D01*
X132345536Y-52955457D01*
X132108866Y-53113595D01*
X131907595Y-53314866D01*
X131760000Y-53535757D01*
X131612405Y-53314866D01*
X131411134Y-53113595D01*
X131174464Y-52955457D01*
X130911491Y-52846530D01*
X130632320Y-52791000D01*
X130347680Y-52791000D01*
X130068509Y-52846530D01*
X129805536Y-52955457D01*
X129568866Y-53113595D01*
X129367595Y-53314866D01*
X129220000Y-53535757D01*
X129072405Y-53314866D01*
X128871134Y-53113595D01*
X128634464Y-52955457D01*
X128371491Y-52846530D01*
X128092320Y-52791000D01*
X127807680Y-52791000D01*
X127528509Y-52846530D01*
X127265536Y-52955457D01*
X127028866Y-53113595D01*
X126827595Y-53314866D01*
X126680000Y-53535757D01*
X126532405Y-53314866D01*
X126331134Y-53113595D01*
X126094464Y-52955457D01*
X125831491Y-52846530D01*
X125552320Y-52791000D01*
X125267680Y-52791000D01*
X124988509Y-52846530D01*
X124725536Y-52955457D01*
X124488866Y-53113595D01*
X124287595Y-53314866D01*
X124140000Y-53535757D01*
X123992405Y-53314866D01*
X123791134Y-53113595D01*
X123554464Y-52955457D01*
X123291491Y-52846530D01*
X123012320Y-52791000D01*
X122727680Y-52791000D01*
X122448509Y-52846530D01*
X122185536Y-52955457D01*
X121948866Y-53113595D01*
X121747595Y-53314866D01*
X121600000Y-53535757D01*
X121452405Y-53314866D01*
X121251134Y-53113595D01*
X121014464Y-52955457D01*
X120751491Y-52846530D01*
X120472320Y-52791000D01*
X120187680Y-52791000D01*
X119908509Y-52846530D01*
X119645536Y-52955457D01*
X119408866Y-53113595D01*
X119207595Y-53314866D01*
X119060000Y-53535757D01*
X118912405Y-53314866D01*
X118711134Y-53113595D01*
X118474464Y-52955457D01*
X118211491Y-52846530D01*
X117932320Y-52791000D01*
X117647680Y-52791000D01*
X117368509Y-52846530D01*
X117105536Y-52955457D01*
X116868866Y-53113595D01*
X116667595Y-53314866D01*
X116520000Y-53535757D01*
X116372405Y-53314866D01*
X116171134Y-53113595D01*
X115934464Y-52955457D01*
X115671491Y-52846530D01*
X115392320Y-52791000D01*
X115107680Y-52791000D01*
X114828509Y-52846530D01*
X114565536Y-52955457D01*
X114328866Y-53113595D01*
X114127595Y-53314866D01*
X113969457Y-53551536D01*
X113860530Y-53814509D01*
X113805000Y-54093680D01*
X113805000Y-54378320D01*
X113860530Y-54657491D01*
X113969457Y-54920464D01*
X114127595Y-55157134D01*
X114328866Y-55358405D01*
X114549757Y-55506000D01*
X114328866Y-55653595D01*
X114127595Y-55854866D01*
X113969457Y-56091536D01*
X113860530Y-56354509D01*
X113805000Y-56633680D01*
X113805000Y-56918320D01*
X113860530Y-57197491D01*
X113969457Y-57460464D01*
X114127595Y-57697134D01*
X114328866Y-57898405D01*
X114549757Y-58046000D01*
X114328866Y-58193595D01*
X114127595Y-58394866D01*
X113969457Y-58631536D01*
X113860530Y-58894509D01*
X113805000Y-59173680D01*
X113805000Y-59458320D01*
X113860530Y-59737491D01*
X113969457Y-60000464D01*
X114127595Y-60237134D01*
X114328866Y-60438405D01*
X114549757Y-60586000D01*
X114328866Y-60733595D01*
X114127595Y-60934866D01*
X113969457Y-61171536D01*
X113860530Y-61434509D01*
X113805000Y-61713680D01*
X113805000Y-61998320D01*
X113860530Y-62277491D01*
X113969457Y-62540464D01*
X114127595Y-62777134D01*
X114328866Y-62978405D01*
X114565536Y-63136543D01*
X114828509Y-63245470D01*
X115107680Y-63301000D01*
X115392320Y-63301000D01*
X115671491Y-63245470D01*
X115934464Y-63136543D01*
X115961934Y-63118188D01*
X115979999Y-63140201D01*
X116009003Y-63164004D01*
X121234500Y-68389502D01*
X121234500Y-68451639D01*
X121274274Y-68651598D01*
X121352295Y-68839956D01*
X121465563Y-69009474D01*
X121609726Y-69153637D01*
X121779244Y-69266905D01*
X121844615Y-69293983D01*
X108875203Y-82263396D01*
X108846199Y-82287199D01*
X108803813Y-82338847D01*
X108751226Y-82402924D01*
X108742338Y-82419553D01*
X108680654Y-82534954D01*
X108637197Y-82678215D01*
X108626200Y-82789868D01*
X108626200Y-82789878D01*
X108622524Y-82827200D01*
X106060000Y-82827200D01*
X106060000Y-71914801D01*
X110681004Y-67293798D01*
X110710001Y-67270001D01*
X110779846Y-67184895D01*
X110804974Y-67154277D01*
X110875546Y-67022247D01*
X110881842Y-67001492D01*
X110919003Y-66878986D01*
X110930000Y-66767333D01*
X110930000Y-66767324D01*
X110933676Y-66730001D01*
X110930000Y-66692678D01*
X110930000Y-57536143D01*
X111157368Y-57490917D01*
X111773399Y-57235748D01*
X112327812Y-56865302D01*
X112799302Y-56393812D01*
X113169748Y-55839399D01*
X113424917Y-55223368D01*
X113555000Y-54569393D01*
X113555000Y-53902607D01*
X113424917Y-53248632D01*
X113169748Y-52632601D01*
X112799302Y-52078188D01*
X112567114Y-51846000D01*
X181422886Y-51846000D01*
X181190698Y-52078188D01*
G36*
X172990594Y-74921495D02*
G01*
X172942963Y-74969126D01*
X172829695Y-75138644D01*
X172751674Y-75327002D01*
X172711900Y-75526961D01*
X172711900Y-75730839D01*
X172751674Y-75930798D01*
X172829695Y-76119156D01*
X172942963Y-76288674D01*
X173087126Y-76432837D01*
X173256644Y-76546105D01*
X173445002Y-76624126D01*
X173644961Y-76663900D01*
X173848839Y-76663900D01*
X174048798Y-76624126D01*
X174237156Y-76546105D01*
X174406674Y-76432837D01*
X174454305Y-76385206D01*
X179080101Y-81011003D01*
X179080100Y-84095398D01*
X174018856Y-79034155D01*
X174146237Y-78906774D01*
X174259505Y-78737256D01*
X174337526Y-78548898D01*
X174377300Y-78348939D01*
X174377300Y-78145061D01*
X174337526Y-77945102D01*
X174259505Y-77756744D01*
X174146237Y-77587226D01*
X174002074Y-77443063D01*
X173832556Y-77329795D01*
X173644198Y-77251774D01*
X173444239Y-77212000D01*
X173240361Y-77212000D01*
X173040402Y-77251774D01*
X172852044Y-77329795D01*
X172682526Y-77443063D01*
X172555145Y-77570444D01*
X166810000Y-71825299D01*
X166810000Y-68740901D01*
X172990594Y-74921495D01*
G37*
X172990594Y-74921495D02*
X172942963Y-74969126D01*
X172829695Y-75138644D01*
X172751674Y-75327002D01*
X172711900Y-75526961D01*
X172711900Y-75730839D01*
X172751674Y-75930798D01*
X172829695Y-76119156D01*
X172942963Y-76288674D01*
X173087126Y-76432837D01*
X173256644Y-76546105D01*
X173445002Y-76624126D01*
X173644961Y-76663900D01*
X173848839Y-76663900D01*
X174048798Y-76624126D01*
X174237156Y-76546105D01*
X174406674Y-76432837D01*
X174454305Y-76385206D01*
X179080101Y-81011003D01*
X179080100Y-84095398D01*
X174018856Y-79034155D01*
X174146237Y-78906774D01*
X174259505Y-78737256D01*
X174337526Y-78548898D01*
X174377300Y-78348939D01*
X174377300Y-78145061D01*
X174337526Y-77945102D01*
X174259505Y-77756744D01*
X174146237Y-77587226D01*
X174002074Y-77443063D01*
X173832556Y-77329795D01*
X173644198Y-77251774D01*
X173444239Y-77212000D01*
X173240361Y-77212000D01*
X173040402Y-77251774D01*
X172852044Y-77329795D01*
X172682526Y-77443063D01*
X172555145Y-77570444D01*
X166810000Y-71825299D01*
X166810000Y-68740901D01*
X172990594Y-74921495D01*
G36*
X180610039Y-82816550D02*
G01*
X180600100Y-82826489D01*
X180600100Y-82806611D01*
X180610039Y-82816550D01*
G37*
X180610039Y-82816550D02*
X180600100Y-82826489D01*
X180600100Y-82806611D01*
X180610039Y-82816550D01*
G36*
X170708509Y-63245470D02*
G01*
X170987680Y-63301000D01*
X171272320Y-63301000D01*
X171462392Y-63263193D01*
X180543800Y-72344602D01*
X180543801Y-80400501D01*
X180475074Y-80271924D01*
X180380101Y-80156199D01*
X180351103Y-80132401D01*
X175334138Y-75115436D01*
X175482998Y-75085826D01*
X175662324Y-75011546D01*
X175692644Y-75031805D01*
X175881002Y-75109826D01*
X176080961Y-75149600D01*
X176284839Y-75149600D01*
X176484798Y-75109826D01*
X176673156Y-75031805D01*
X176842674Y-74918537D01*
X176986837Y-74774374D01*
X177100105Y-74604856D01*
X177178126Y-74416498D01*
X177217900Y-74216539D01*
X177217900Y-74012661D01*
X177178126Y-73812702D01*
X177100105Y-73624344D01*
X176986837Y-73454826D01*
X176842674Y-73310663D01*
X176673156Y-73197395D01*
X176484798Y-73119374D01*
X176284839Y-73079600D01*
X176080961Y-73079600D01*
X175881002Y-73119374D01*
X175701676Y-73193654D01*
X175671356Y-73173395D01*
X175482998Y-73095374D01*
X175283039Y-73055600D01*
X175079161Y-73055600D01*
X174879202Y-73095374D01*
X174690844Y-73173395D01*
X174521326Y-73286663D01*
X174377163Y-73430826D01*
X174263895Y-73600344D01*
X174185874Y-73788702D01*
X174156264Y-73937563D01*
X172217156Y-71998455D01*
X172276637Y-71938974D01*
X172389905Y-71769456D01*
X172467926Y-71581098D01*
X172507700Y-71381139D01*
X172507700Y-71177261D01*
X172467926Y-70977302D01*
X172389905Y-70788944D01*
X172276637Y-70619426D01*
X172132474Y-70475263D01*
X171962956Y-70361995D01*
X171774598Y-70283974D01*
X171574639Y-70244200D01*
X171370761Y-70244200D01*
X171170802Y-70283974D01*
X170982444Y-70361995D01*
X170812926Y-70475263D01*
X170753445Y-70534744D01*
X168080100Y-67861399D01*
X168080100Y-65745179D01*
X168121595Y-65845356D01*
X168234863Y-66014874D01*
X168379026Y-66159037D01*
X168548544Y-66272305D01*
X168736902Y-66350326D01*
X168936861Y-66390100D01*
X169140739Y-66390100D01*
X169340698Y-66350326D01*
X169529056Y-66272305D01*
X169698574Y-66159037D01*
X169842737Y-66014874D01*
X169956005Y-65845356D01*
X170034026Y-65656998D01*
X170073800Y-65457039D01*
X170073800Y-65394902D01*
X170296602Y-65172099D01*
X170325601Y-65148301D01*
X170420574Y-65032576D01*
X170491146Y-64900547D01*
X170534603Y-64757286D01*
X170545600Y-64645633D01*
X170545600Y-64645625D01*
X170549276Y-64608300D01*
X170545600Y-64570975D01*
X170545600Y-63177991D01*
X170708509Y-63245470D01*
G37*
X170708509Y-63245470D02*
X170987680Y-63301000D01*
X171272320Y-63301000D01*
X171462392Y-63263193D01*
X180543800Y-72344602D01*
X180543801Y-80400501D01*
X180475074Y-80271924D01*
X180380101Y-80156199D01*
X180351103Y-80132401D01*
X175334138Y-75115436D01*
X175482998Y-75085826D01*
X175662324Y-75011546D01*
X175692644Y-75031805D01*
X175881002Y-75109826D01*
X176080961Y-75149600D01*
X176284839Y-75149600D01*
X176484798Y-75109826D01*
X176673156Y-75031805D01*
X176842674Y-74918537D01*
X176986837Y-74774374D01*
X177100105Y-74604856D01*
X177178126Y-74416498D01*
X177217900Y-74216539D01*
X177217900Y-74012661D01*
X177178126Y-73812702D01*
X177100105Y-73624344D01*
X176986837Y-73454826D01*
X176842674Y-73310663D01*
X176673156Y-73197395D01*
X176484798Y-73119374D01*
X176284839Y-73079600D01*
X176080961Y-73079600D01*
X175881002Y-73119374D01*
X175701676Y-73193654D01*
X175671356Y-73173395D01*
X175482998Y-73095374D01*
X175283039Y-73055600D01*
X175079161Y-73055600D01*
X174879202Y-73095374D01*
X174690844Y-73173395D01*
X174521326Y-73286663D01*
X174377163Y-73430826D01*
X174263895Y-73600344D01*
X174185874Y-73788702D01*
X174156264Y-73937563D01*
X172217156Y-71998455D01*
X172276637Y-71938974D01*
X172389905Y-71769456D01*
X172467926Y-71581098D01*
X172507700Y-71381139D01*
X172507700Y-71177261D01*
X172467926Y-70977302D01*
X172389905Y-70788944D01*
X172276637Y-70619426D01*
X172132474Y-70475263D01*
X171962956Y-70361995D01*
X171774598Y-70283974D01*
X171574639Y-70244200D01*
X171370761Y-70244200D01*
X171170802Y-70283974D01*
X170982444Y-70361995D01*
X170812926Y-70475263D01*
X170753445Y-70534744D01*
X168080100Y-67861399D01*
X168080100Y-65745179D01*
X168121595Y-65845356D01*
X168234863Y-66014874D01*
X168379026Y-66159037D01*
X168548544Y-66272305D01*
X168736902Y-66350326D01*
X168936861Y-66390100D01*
X169140739Y-66390100D01*
X169340698Y-66350326D01*
X169529056Y-66272305D01*
X169698574Y-66159037D01*
X169842737Y-66014874D01*
X169956005Y-65845356D01*
X170034026Y-65656998D01*
X170073800Y-65457039D01*
X170073800Y-65394902D01*
X170296602Y-65172099D01*
X170325601Y-65148301D01*
X170420574Y-65032576D01*
X170491146Y-64900547D01*
X170534603Y-64757286D01*
X170545600Y-64645633D01*
X170545600Y-64645625D01*
X170549276Y-64608300D01*
X170545600Y-64570975D01*
X170545600Y-63177991D01*
X170708509Y-63245470D01*
G36*
X151454601Y-63512568D02*
G01*
X151450924Y-63549900D01*
X151454601Y-63587233D01*
X151465598Y-63698886D01*
X151476051Y-63733346D01*
X151509054Y-63842146D01*
X151579626Y-63974176D01*
X151634489Y-64041026D01*
X151674600Y-64089901D01*
X151703598Y-64113699D01*
X155731800Y-68141902D01*
X155731800Y-68204039D01*
X155771574Y-68403998D01*
X155849595Y-68592356D01*
X155962863Y-68761874D01*
X156013544Y-68812555D01*
X152835099Y-71991000D01*
X152299111Y-71991000D01*
X152255274Y-71947163D01*
X152085756Y-71833895D01*
X151897398Y-71755874D01*
X151697439Y-71716100D01*
X151493561Y-71716100D01*
X151293602Y-71755874D01*
X151105244Y-71833895D01*
X150935726Y-71947163D01*
X150791563Y-72091326D01*
X150678295Y-72260844D01*
X150600274Y-72449202D01*
X150560500Y-72649161D01*
X150560500Y-72649985D01*
X150517744Y-72667695D01*
X150348226Y-72780963D01*
X150300000Y-72829189D01*
X150300000Y-69200861D01*
X151437300Y-69200861D01*
X151437300Y-69404739D01*
X151477074Y-69604698D01*
X151555095Y-69793056D01*
X151668363Y-69962574D01*
X151812526Y-70106737D01*
X151982044Y-70220005D01*
X152170402Y-70298026D01*
X152370361Y-70337800D01*
X152574239Y-70337800D01*
X152774198Y-70298026D01*
X152962556Y-70220005D01*
X153132074Y-70106737D01*
X153276237Y-69962574D01*
X153389505Y-69793056D01*
X153467526Y-69604698D01*
X153507300Y-69404739D01*
X153507300Y-69200861D01*
X153467526Y-69000902D01*
X153389505Y-68812544D01*
X153276237Y-68643026D01*
X153132074Y-68498863D01*
X152962556Y-68385595D01*
X152774198Y-68307574D01*
X152574239Y-68267800D01*
X152370361Y-68267800D01*
X152170402Y-68307574D01*
X151982044Y-68385595D01*
X151812526Y-68498863D01*
X151668363Y-68643026D01*
X151555095Y-68812544D01*
X151477074Y-69000902D01*
X151437300Y-69200861D01*
X150300000Y-69200861D01*
X150300000Y-63208808D01*
X150388509Y-63245470D01*
X150667680Y-63301000D01*
X150952320Y-63301000D01*
X151231491Y-63245470D01*
X151454601Y-63153055D01*
X151454601Y-63512568D01*
G37*
X151454601Y-63512568D02*
X151450924Y-63549900D01*
X151454601Y-63587233D01*
X151465598Y-63698886D01*
X151476051Y-63733346D01*
X151509054Y-63842146D01*
X151579626Y-63974176D01*
X151634489Y-64041026D01*
X151674600Y-64089901D01*
X151703598Y-64113699D01*
X155731800Y-68141902D01*
X155731800Y-68204039D01*
X155771574Y-68403998D01*
X155849595Y-68592356D01*
X155962863Y-68761874D01*
X156013544Y-68812555D01*
X152835099Y-71991000D01*
X152299111Y-71991000D01*
X152255274Y-71947163D01*
X152085756Y-71833895D01*
X151897398Y-71755874D01*
X151697439Y-71716100D01*
X151493561Y-71716100D01*
X151293602Y-71755874D01*
X151105244Y-71833895D01*
X150935726Y-71947163D01*
X150791563Y-72091326D01*
X150678295Y-72260844D01*
X150600274Y-72449202D01*
X150560500Y-72649161D01*
X150560500Y-72649985D01*
X150517744Y-72667695D01*
X150348226Y-72780963D01*
X150300000Y-72829189D01*
X150300000Y-69200861D01*
X151437300Y-69200861D01*
X151437300Y-69404739D01*
X151477074Y-69604698D01*
X151555095Y-69793056D01*
X151668363Y-69962574D01*
X151812526Y-70106737D01*
X151982044Y-70220005D01*
X152170402Y-70298026D01*
X152370361Y-70337800D01*
X152574239Y-70337800D01*
X152774198Y-70298026D01*
X152962556Y-70220005D01*
X153132074Y-70106737D01*
X153276237Y-69962574D01*
X153389505Y-69793056D01*
X153467526Y-69604698D01*
X153507300Y-69404739D01*
X153507300Y-69200861D01*
X153467526Y-69000902D01*
X153389505Y-68812544D01*
X153276237Y-68643026D01*
X153132074Y-68498863D01*
X152962556Y-68385595D01*
X152774198Y-68307574D01*
X152574239Y-68267800D01*
X152370361Y-68267800D01*
X152170402Y-68307574D01*
X151982044Y-68385595D01*
X151812526Y-68498863D01*
X151668363Y-68643026D01*
X151555095Y-68812544D01*
X151477074Y-69000902D01*
X151437300Y-69200861D01*
X150300000Y-69200861D01*
X150300000Y-63208808D01*
X150388509Y-63245470D01*
X150667680Y-63301000D01*
X150952320Y-63301000D01*
X151231491Y-63245470D01*
X151454601Y-63153055D01*
X151454601Y-63512568D01*
G36*
X143200200Y-71308702D02*
G01*
X143200201Y-72382388D01*
X143156263Y-72426326D01*
X143089049Y-72526919D01*
X143085939Y-72526300D01*
X143023802Y-72526300D01*
X142253902Y-71756400D01*
X142290539Y-71756400D01*
X142490498Y-71716626D01*
X142678856Y-71638605D01*
X142848374Y-71525337D01*
X142992537Y-71381174D01*
X143104743Y-71213245D01*
X143200200Y-71308702D01*
G37*
X143200200Y-71308702D02*
X143200201Y-72382388D01*
X143156263Y-72426326D01*
X143089049Y-72526919D01*
X143085939Y-72526300D01*
X143023802Y-72526300D01*
X142253902Y-71756400D01*
X142290539Y-71756400D01*
X142490498Y-71716626D01*
X142678856Y-71638605D01*
X142848374Y-71525337D01*
X142992537Y-71381174D01*
X143104743Y-71213245D01*
X143200200Y-71308702D01*
G36*
X140228509Y-63245470D02*
G01*
X140507680Y-63301000D01*
X140792320Y-63301000D01*
X141071491Y-63245470D01*
X141160001Y-63208808D01*
X141160001Y-66282568D01*
X141156324Y-66319900D01*
X141160001Y-66357233D01*
X141170998Y-66468886D01*
X141183397Y-66509761D01*
X141214454Y-66612146D01*
X141285026Y-66744176D01*
X141345386Y-66817724D01*
X141380000Y-66859901D01*
X141408998Y-66883699D01*
X141591733Y-67066434D01*
X141531226Y-67106863D01*
X141387063Y-67251026D01*
X141349037Y-67307936D01*
X140005400Y-65964299D01*
X140005400Y-63153055D01*
X140228509Y-63245470D01*
G37*
X140228509Y-63245470D02*
X140507680Y-63301000D01*
X140792320Y-63301000D01*
X141071491Y-63245470D01*
X141160001Y-63208808D01*
X141160001Y-66282568D01*
X141156324Y-66319900D01*
X141160001Y-66357233D01*
X141170998Y-66468886D01*
X141183397Y-66509761D01*
X141214454Y-66612146D01*
X141285026Y-66744176D01*
X141345386Y-66817724D01*
X141380000Y-66859901D01*
X141408998Y-66883699D01*
X141591733Y-67066434D01*
X141531226Y-67106863D01*
X141387063Y-67251026D01*
X141349037Y-67307936D01*
X140005400Y-65964299D01*
X140005400Y-63153055D01*
X140228509Y-63245470D01*
G36*
X154767595Y-62777134D02*
G01*
X154968866Y-62978405D01*
X155205536Y-63136543D01*
X155468509Y-63245470D01*
X155747680Y-63301000D01*
X156032320Y-63301000D01*
X156311491Y-63245470D01*
X156400001Y-63208808D01*
X156400001Y-66660499D01*
X152998991Y-63259490D01*
X153207680Y-63301000D01*
X153492320Y-63301000D01*
X153771491Y-63245470D01*
X154034464Y-63136543D01*
X154271134Y-62978405D01*
X154472405Y-62777134D01*
X154620000Y-62556243D01*
X154767595Y-62777134D01*
G37*
X154767595Y-62777134D02*
X154968866Y-62978405D01*
X155205536Y-63136543D01*
X155468509Y-63245470D01*
X155747680Y-63301000D01*
X156032320Y-63301000D01*
X156311491Y-63245470D01*
X156400001Y-63208808D01*
X156400001Y-66660499D01*
X152998991Y-63259490D01*
X153207680Y-63301000D01*
X153492320Y-63301000D01*
X153771491Y-63245470D01*
X154034464Y-63136543D01*
X154271134Y-62978405D01*
X154472405Y-62777134D01*
X154620000Y-62556243D01*
X154767595Y-62777134D01*
G36*
X158008509Y-63245470D02*
G01*
X158261998Y-63295891D01*
X158199163Y-63358726D01*
X158085895Y-63528244D01*
X158007874Y-63716602D01*
X157968100Y-63916561D01*
X157968100Y-64120439D01*
X158007874Y-64320398D01*
X158085895Y-64508756D01*
X158199163Y-64678274D01*
X158343326Y-64822437D01*
X158512844Y-64935705D01*
X158701202Y-65013726D01*
X158778294Y-65029060D01*
X158845395Y-65191056D01*
X158958663Y-65360574D01*
X159102826Y-65504737D01*
X159233828Y-65592270D01*
X158286955Y-66539144D01*
X158217174Y-66469363D01*
X158047656Y-66356095D01*
X157920000Y-66303218D01*
X157920000Y-63208808D01*
X158008509Y-63245470D01*
G37*
X158008509Y-63245470D02*
X158261998Y-63295891D01*
X158199163Y-63358726D01*
X158085895Y-63528244D01*
X158007874Y-63716602D01*
X157968100Y-63916561D01*
X157968100Y-64120439D01*
X158007874Y-64320398D01*
X158085895Y-64508756D01*
X158199163Y-64678274D01*
X158343326Y-64822437D01*
X158512844Y-64935705D01*
X158701202Y-65013726D01*
X158778294Y-65029060D01*
X158845395Y-65191056D01*
X158958663Y-65360574D01*
X159102826Y-65504737D01*
X159233828Y-65592270D01*
X158286955Y-66539144D01*
X158217174Y-66469363D01*
X158047656Y-66356095D01*
X157920000Y-66303218D01*
X157920000Y-63208808D01*
X158008509Y-63245470D01*
G36*
X125920001Y-65218597D02*
G01*
X124718463Y-66420135D01*
X124774974Y-66351277D01*
X124845546Y-66219247D01*
X124861637Y-66166201D01*
X124889003Y-66075986D01*
X124900000Y-65964333D01*
X124900000Y-65964324D01*
X124903676Y-65927001D01*
X124900000Y-65889678D01*
X124900000Y-63208808D01*
X124988509Y-63245470D01*
X125267680Y-63301000D01*
X125552320Y-63301000D01*
X125831491Y-63245470D01*
X125920001Y-63208808D01*
X125920001Y-65218597D01*
G37*
X125920001Y-65218597D02*
X124718463Y-66420135D01*
X124774974Y-66351277D01*
X124845546Y-66219247D01*
X124861637Y-66166201D01*
X124889003Y-66075986D01*
X124900000Y-65964333D01*
X124900000Y-65964324D01*
X124903676Y-65927001D01*
X124900000Y-65889678D01*
X124900000Y-63208808D01*
X124988509Y-63245470D01*
X125267680Y-63301000D01*
X125552320Y-63301000D01*
X125831491Y-63245470D01*
X125920001Y-63208808D01*
X125920001Y-65218597D01*
G36*
X121747595Y-62777134D02*
G01*
X121948866Y-62978405D01*
X122185536Y-63136543D01*
X122448509Y-63245470D01*
X122727680Y-63301000D01*
X123012320Y-63301000D01*
X123291491Y-63245470D01*
X123380001Y-63208808D01*
X123380001Y-65576700D01*
X123353361Y-65576700D01*
X123153402Y-65616474D01*
X122965044Y-65694495D01*
X122795526Y-65807763D01*
X122651363Y-65951926D01*
X122608931Y-66015430D01*
X119820000Y-63226499D01*
X119820000Y-63208808D01*
X119908509Y-63245470D01*
X120187680Y-63301000D01*
X120472320Y-63301000D01*
X120751491Y-63245470D01*
X121014464Y-63136543D01*
X121251134Y-62978405D01*
X121452405Y-62777134D01*
X121600000Y-62556243D01*
X121747595Y-62777134D01*
G37*
X121747595Y-62777134D02*
X121948866Y-62978405D01*
X122185536Y-63136543D01*
X122448509Y-63245470D01*
X122727680Y-63301000D01*
X123012320Y-63301000D01*
X123291491Y-63245470D01*
X123380001Y-63208808D01*
X123380001Y-65576700D01*
X123353361Y-65576700D01*
X123153402Y-65616474D01*
X122965044Y-65694495D01*
X122795526Y-65807763D01*
X122651363Y-65951926D01*
X122608931Y-66015430D01*
X119820000Y-63226499D01*
X119820000Y-63208808D01*
X119908509Y-63245470D01*
X120187680Y-63301000D01*
X120472320Y-63301000D01*
X120751491Y-63245470D01*
X121014464Y-63136543D01*
X121251134Y-62978405D01*
X121452405Y-62777134D01*
X121600000Y-62556243D01*
X121747595Y-62777134D01*
G36*
X138485401Y-65943400D02*
G01*
X137734600Y-65192599D01*
X137734600Y-63254638D01*
X137967680Y-63301000D01*
X138252320Y-63301000D01*
X138485400Y-63254638D01*
X138485401Y-65943400D01*
G37*
X138485401Y-65943400D02*
X137734600Y-65192599D01*
X137734600Y-63254638D01*
X137967680Y-63301000D01*
X138252320Y-63301000D01*
X138485400Y-63254638D01*
X138485401Y-65943400D01*
G36*
X136214601Y-65470068D02*
G01*
X136210924Y-65507400D01*
X136214601Y-65544733D01*
X136225598Y-65656386D01*
X136237622Y-65696026D01*
X136256822Y-65759321D01*
X134925400Y-64427899D01*
X134925400Y-63153055D01*
X135148509Y-63245470D01*
X135427680Y-63301000D01*
X135712320Y-63301000D01*
X135991491Y-63245470D01*
X136214600Y-63153055D01*
X136214601Y-65470068D01*
G37*
X136214601Y-65470068D02*
X136210924Y-65507400D01*
X136214601Y-65544733D01*
X136225598Y-65656386D01*
X136237622Y-65696026D01*
X136256822Y-65759321D01*
X134925400Y-64427899D01*
X134925400Y-63153055D01*
X135148509Y-63245470D01*
X135427680Y-63301000D01*
X135712320Y-63301000D01*
X135991491Y-63245470D01*
X136214600Y-63153055D01*
X136214601Y-65470068D01*
G36*
X168168509Y-63245470D02*
G01*
X168447680Y-63301000D01*
X168732320Y-63301000D01*
X169011491Y-63245470D01*
X169025601Y-63239626D01*
X169025601Y-64293497D01*
X168998998Y-64320100D01*
X168936861Y-64320100D01*
X168736902Y-64359874D01*
X168548544Y-64437895D01*
X168379026Y-64551163D01*
X168234863Y-64695326D01*
X168121595Y-64864844D01*
X168080100Y-64965021D01*
X168080100Y-63208850D01*
X168168509Y-63245470D01*
G37*
X168168509Y-63245470D02*
X168447680Y-63301000D01*
X168732320Y-63301000D01*
X169011491Y-63245470D01*
X169025601Y-63239626D01*
X169025601Y-64293497D01*
X168998998Y-64320100D01*
X168936861Y-64320100D01*
X168736902Y-64359874D01*
X168548544Y-64437895D01*
X168379026Y-64551163D01*
X168234863Y-64695326D01*
X168121595Y-64864844D01*
X168080100Y-64965021D01*
X168080100Y-63208850D01*
X168168509Y-63245470D01*
G36*
X160548509Y-63245470D02*
G01*
X160827680Y-63301000D01*
X161112320Y-63301000D01*
X161391491Y-63245470D01*
X161400601Y-63241697D01*
X161400601Y-63425497D01*
X160654070Y-64172028D01*
X160566537Y-64041026D01*
X160422374Y-63896863D01*
X160273367Y-63797300D01*
X160332246Y-63687147D01*
X160375703Y-63543886D01*
X160386700Y-63432233D01*
X160390377Y-63394900D01*
X160386700Y-63357567D01*
X160386700Y-63178447D01*
X160548509Y-63245470D01*
G37*
X160548509Y-63245470D02*
X160827680Y-63301000D01*
X161112320Y-63301000D01*
X161391491Y-63245470D01*
X161400601Y-63241697D01*
X161400601Y-63425497D01*
X160654070Y-64172028D01*
X160566537Y-64041026D01*
X160422374Y-63896863D01*
X160273367Y-63797300D01*
X160332246Y-63687147D01*
X160375703Y-63543886D01*
X160386700Y-63432233D01*
X160390377Y-63394900D01*
X160386700Y-63357567D01*
X160386700Y-63178447D01*
X160548509Y-63245470D01*
G36*
X129367595Y-62777134D02*
G01*
X129501480Y-62911019D01*
X128710000Y-63702498D01*
X128710000Y-63086071D01*
X128871134Y-62978405D01*
X129072405Y-62777134D01*
X129220000Y-62556243D01*
X129367595Y-62777134D01*
G37*
X129367595Y-62777134D02*
X129501480Y-62911019D01*
X128710000Y-63702498D01*
X128710000Y-63086071D01*
X128871134Y-62978405D01*
X129072405Y-62777134D01*
X129220000Y-62556243D01*
X129367595Y-62777134D01*
G36*
X118300001Y-63305400D02*
G01*
X118231700Y-63237099D01*
X118300001Y-63208808D01*
X118300001Y-63305400D01*
G37*
X118300001Y-63305400D02*
X118231700Y-63237099D01*
X118300001Y-63208808D01*
X118300001Y-63305400D01*
G36*
X121747595Y-60237134D02*
G01*
X121948866Y-60438405D01*
X122169757Y-60586000D01*
X121948866Y-60733595D01*
X121747595Y-60934866D01*
X121600000Y-61155757D01*
X121452405Y-60934866D01*
X121251134Y-60733595D01*
X121030243Y-60586000D01*
X121251134Y-60438405D01*
X121452405Y-60237134D01*
X121600000Y-60016243D01*
X121747595Y-60237134D01*
G37*
X121747595Y-60237134D02*
X121948866Y-60438405D01*
X122169757Y-60586000D01*
X121948866Y-60733595D01*
X121747595Y-60934866D01*
X121600000Y-61155757D01*
X121452405Y-60934866D01*
X121251134Y-60733595D01*
X121030243Y-60586000D01*
X121251134Y-60438405D01*
X121452405Y-60237134D01*
X121600000Y-60016243D01*
X121747595Y-60237134D01*
G36*
X129394630Y-60907831D02*
G01*
X129367595Y-60934866D01*
X129220000Y-61155757D01*
X129072405Y-60934866D01*
X128871134Y-60733595D01*
X128650243Y-60586000D01*
X128871134Y-60438405D01*
X128898169Y-60411370D01*
X129394630Y-60907831D01*
G37*
X129394630Y-60907831D02*
X129367595Y-60934866D01*
X129220000Y-61155757D01*
X129072405Y-60934866D01*
X128871134Y-60733595D01*
X128650243Y-60586000D01*
X128871134Y-60438405D01*
X128898169Y-60411370D01*
X129394630Y-60907831D01*
G36*
X175087595Y-60237134D02*
G01*
X175288866Y-60438405D01*
X175509757Y-60586000D01*
X175288866Y-60733595D01*
X175087595Y-60934866D01*
X174940000Y-61155757D01*
X174792405Y-60934866D01*
X174591134Y-60733595D01*
X174370243Y-60586000D01*
X174591134Y-60438405D01*
X174792405Y-60237134D01*
X174940000Y-60016243D01*
X175087595Y-60237134D01*
G37*
X175087595Y-60237134D02*
X175288866Y-60438405D01*
X175509757Y-60586000D01*
X175288866Y-60733595D01*
X175087595Y-60934866D01*
X174940000Y-61155757D01*
X174792405Y-60934866D01*
X174591134Y-60733595D01*
X174370243Y-60586000D01*
X174591134Y-60438405D01*
X174792405Y-60237134D01*
X174940000Y-60016243D01*
X175087595Y-60237134D01*
G36*
X177627595Y-60237134D02*
G01*
X177828866Y-60438405D01*
X178049757Y-60586000D01*
X177828866Y-60733595D01*
X177627595Y-60934866D01*
X177480000Y-61155757D01*
X177332405Y-60934866D01*
X177131134Y-60733595D01*
X176910243Y-60586000D01*
X177131134Y-60438405D01*
X177332405Y-60237134D01*
X177480000Y-60016243D01*
X177627595Y-60237134D01*
G37*
X177627595Y-60237134D02*
X177828866Y-60438405D01*
X178049757Y-60586000D01*
X177828866Y-60733595D01*
X177627595Y-60934866D01*
X177480000Y-61155757D01*
X177332405Y-60934866D01*
X177131134Y-60733595D01*
X176910243Y-60586000D01*
X177131134Y-60438405D01*
X177332405Y-60237134D01*
X177480000Y-60016243D01*
X177627595Y-60237134D01*
G36*
X154767595Y-60237134D02*
G01*
X154968866Y-60438405D01*
X155189757Y-60586000D01*
X154968866Y-60733595D01*
X154767595Y-60934866D01*
X154620000Y-61155757D01*
X154472405Y-60934866D01*
X154271134Y-60733595D01*
X154050243Y-60586000D01*
X154271134Y-60438405D01*
X154472405Y-60237134D01*
X154620000Y-60016243D01*
X154767595Y-60237134D01*
G37*
X154767595Y-60237134D02*
X154968866Y-60438405D01*
X155189757Y-60586000D01*
X154968866Y-60733595D01*
X154767595Y-60934866D01*
X154620000Y-61155757D01*
X154472405Y-60934866D01*
X154271134Y-60733595D01*
X154050243Y-60586000D01*
X154271134Y-60438405D01*
X154472405Y-60237134D01*
X154620000Y-60016243D01*
X154767595Y-60237134D01*
G36*
X139527595Y-60237134D02*
G01*
X139728866Y-60438405D01*
X139949757Y-60586000D01*
X139728866Y-60733595D01*
X139701081Y-60761380D01*
X139204620Y-60264919D01*
X139232405Y-60237134D01*
X139380000Y-60016243D01*
X139527595Y-60237134D01*
G37*
X139527595Y-60237134D02*
X139728866Y-60438405D01*
X139949757Y-60586000D01*
X139728866Y-60733595D01*
X139701081Y-60761380D01*
X139204620Y-60264919D01*
X139232405Y-60237134D01*
X139380000Y-60016243D01*
X139527595Y-60237134D01*
G36*
X162387595Y-57697134D02*
G01*
X162588866Y-57898405D01*
X162809757Y-58046000D01*
X162588866Y-58193595D01*
X162387595Y-58394866D01*
X162240000Y-58615757D01*
X162092405Y-58394866D01*
X161891134Y-58193595D01*
X161670243Y-58046000D01*
X161891134Y-57898405D01*
X162092405Y-57697134D01*
X162240000Y-57476243D01*
X162387595Y-57697134D01*
G37*
X162387595Y-57697134D02*
X162588866Y-57898405D01*
X162809757Y-58046000D01*
X162588866Y-58193595D01*
X162387595Y-58394866D01*
X162240000Y-58615757D01*
X162092405Y-58394866D01*
X161891134Y-58193595D01*
X161670243Y-58046000D01*
X161891134Y-57898405D01*
X162092405Y-57697134D01*
X162240000Y-57476243D01*
X162387595Y-57697134D01*
G36*
X167467595Y-57697134D02*
G01*
X167668866Y-57898405D01*
X167889757Y-58046000D01*
X167668866Y-58193595D01*
X167467595Y-58394866D01*
X167320000Y-58615757D01*
X167172405Y-58394866D01*
X166971134Y-58193595D01*
X166750243Y-58046000D01*
X166971134Y-57898405D01*
X167172405Y-57697134D01*
X167320000Y-57476243D01*
X167467595Y-57697134D01*
G37*
X167467595Y-57697134D02*
X167668866Y-57898405D01*
X167889757Y-58046000D01*
X167668866Y-58193595D01*
X167467595Y-58394866D01*
X167320000Y-58615757D01*
X167172405Y-58394866D01*
X166971134Y-58193595D01*
X166750243Y-58046000D01*
X166971134Y-57898405D01*
X167172405Y-57697134D01*
X167320000Y-57476243D01*
X167467595Y-57697134D01*
G36*
X172547595Y-57697134D02*
G01*
X172748866Y-57898405D01*
X172969757Y-58046000D01*
X172748866Y-58193595D01*
X172547595Y-58394866D01*
X172400000Y-58615757D01*
X172252405Y-58394866D01*
X172051134Y-58193595D01*
X171830243Y-58046000D01*
X172051134Y-57898405D01*
X172252405Y-57697134D01*
X172400000Y-57476243D01*
X172547595Y-57697134D01*
G37*
X172547595Y-57697134D02*
X172748866Y-57898405D01*
X172969757Y-58046000D01*
X172748866Y-58193595D01*
X172547595Y-58394866D01*
X172400000Y-58615757D01*
X172252405Y-58394866D01*
X172051134Y-58193595D01*
X171830243Y-58046000D01*
X172051134Y-57898405D01*
X172252405Y-57697134D01*
X172400000Y-57476243D01*
X172547595Y-57697134D01*
G36*
X154756447Y-58411549D02*
G01*
X154620000Y-58615757D01*
X154472405Y-58394866D01*
X154271134Y-58193595D01*
X154050243Y-58046000D01*
X154254451Y-57909552D01*
X154756447Y-58411549D01*
G37*
X154756447Y-58411549D02*
X154620000Y-58615757D01*
X154472405Y-58394866D01*
X154271134Y-58193595D01*
X154050243Y-58046000D01*
X154254451Y-57909552D01*
X154756447Y-58411549D01*
G36*
X175087595Y-57697134D02*
G01*
X175288866Y-57898405D01*
X175509757Y-58046000D01*
X175288866Y-58193595D01*
X175087595Y-58394866D01*
X174940000Y-58615757D01*
X174792405Y-58394866D01*
X174591134Y-58193595D01*
X174370243Y-58046000D01*
X174591134Y-57898405D01*
X174792405Y-57697134D01*
X174940000Y-57476243D01*
X175087595Y-57697134D01*
G37*
X175087595Y-57697134D02*
X175288866Y-57898405D01*
X175509757Y-58046000D01*
X175288866Y-58193595D01*
X175087595Y-58394866D01*
X174940000Y-58615757D01*
X174792405Y-58394866D01*
X174591134Y-58193595D01*
X174370243Y-58046000D01*
X174591134Y-57898405D01*
X174792405Y-57697134D01*
X174940000Y-57476243D01*
X175087595Y-57697134D01*
G36*
X147147595Y-57697134D02*
G01*
X147348866Y-57898405D01*
X147569757Y-58046000D01*
X147348866Y-58193595D01*
X147147595Y-58394866D01*
X147000000Y-58615757D01*
X146852405Y-58394866D01*
X146651134Y-58193595D01*
X146430243Y-58046000D01*
X146651134Y-57898405D01*
X146852405Y-57697134D01*
X147000000Y-57476243D01*
X147147595Y-57697134D01*
G37*
X147147595Y-57697134D02*
X147348866Y-57898405D01*
X147569757Y-58046000D01*
X147348866Y-58193595D01*
X147147595Y-58394866D01*
X147000000Y-58615757D01*
X146852405Y-58394866D01*
X146651134Y-58193595D01*
X146430243Y-58046000D01*
X146651134Y-57898405D01*
X146852405Y-57697134D01*
X147000000Y-57476243D01*
X147147595Y-57697134D01*
G36*
X164927595Y-57697134D02*
G01*
X165128866Y-57898405D01*
X165349757Y-58046000D01*
X165128866Y-58193595D01*
X164927595Y-58394866D01*
X164780000Y-58615757D01*
X164632405Y-58394866D01*
X164431134Y-58193595D01*
X164210243Y-58046000D01*
X164431134Y-57898405D01*
X164632405Y-57697134D01*
X164780000Y-57476243D01*
X164927595Y-57697134D01*
G37*
X164927595Y-57697134D02*
X165128866Y-57898405D01*
X165349757Y-58046000D01*
X165128866Y-58193595D01*
X164927595Y-58394866D01*
X164780000Y-58615757D01*
X164632405Y-58394866D01*
X164431134Y-58193595D01*
X164210243Y-58046000D01*
X164431134Y-57898405D01*
X164632405Y-57697134D01*
X164780000Y-57476243D01*
X164927595Y-57697134D01*
G36*
X121747595Y-57697134D02*
G01*
X121948866Y-57898405D01*
X122169757Y-58046000D01*
X121948866Y-58193595D01*
X121747595Y-58394866D01*
X121600000Y-58615757D01*
X121452405Y-58394866D01*
X121251134Y-58193595D01*
X121030243Y-58046000D01*
X121251134Y-57898405D01*
X121452405Y-57697134D01*
X121600000Y-57476243D01*
X121747595Y-57697134D01*
G37*
X121747595Y-57697134D02*
X121948866Y-57898405D01*
X122169757Y-58046000D01*
X121948866Y-58193595D01*
X121747595Y-58394866D01*
X121600000Y-58615757D01*
X121452405Y-58394866D01*
X121251134Y-58193595D01*
X121030243Y-58046000D01*
X121251134Y-57898405D01*
X121452405Y-57697134D01*
X121600000Y-57476243D01*
X121747595Y-57697134D01*
G36*
X177627595Y-57697134D02*
G01*
X177828866Y-57898405D01*
X178049757Y-58046000D01*
X177828866Y-58193595D01*
X177627595Y-58394866D01*
X177480000Y-58615757D01*
X177332405Y-58394866D01*
X177131134Y-58193595D01*
X176910243Y-58046000D01*
X177131134Y-57898405D01*
X177332405Y-57697134D01*
X177480000Y-57476243D01*
X177627595Y-57697134D01*
G37*
X177627595Y-57697134D02*
X177828866Y-57898405D01*
X178049757Y-58046000D01*
X177828866Y-58193595D01*
X177627595Y-58394866D01*
X177480000Y-58615757D01*
X177332405Y-58394866D01*
X177131134Y-58193595D01*
X176910243Y-58046000D01*
X177131134Y-57898405D01*
X177332405Y-57697134D01*
X177480000Y-57476243D01*
X177627595Y-57697134D01*
G36*
X139527595Y-57697134D02*
G01*
X139728866Y-57898405D01*
X139949757Y-58046000D01*
X139728866Y-58193595D01*
X139527595Y-58394866D01*
X139380000Y-58615757D01*
X139232405Y-58394866D01*
X139031134Y-58193595D01*
X138810243Y-58046000D01*
X139031134Y-57898405D01*
X139232405Y-57697134D01*
X139380000Y-57476243D01*
X139527595Y-57697134D01*
G37*
X139527595Y-57697134D02*
X139728866Y-57898405D01*
X139949757Y-58046000D01*
X139728866Y-58193595D01*
X139527595Y-58394866D01*
X139380000Y-58615757D01*
X139232405Y-58394866D01*
X139031134Y-58193595D01*
X138810243Y-58046000D01*
X139031134Y-57898405D01*
X139232405Y-57697134D01*
X139380000Y-57476243D01*
X139527595Y-57697134D01*
G36*
X157307595Y-57697134D02*
G01*
X157508866Y-57898405D01*
X157729757Y-58046000D01*
X157508866Y-58193595D01*
X157481032Y-58221429D01*
X156984570Y-57724969D01*
X157012405Y-57697134D01*
X157160000Y-57476243D01*
X157307595Y-57697134D01*
G37*
X157307595Y-57697134D02*
X157508866Y-57898405D01*
X157729757Y-58046000D01*
X157508866Y-58193595D01*
X157481032Y-58221429D01*
X156984570Y-57724969D01*
X157012405Y-57697134D01*
X157160000Y-57476243D01*
X157307595Y-57697134D01*
G36*
X129367595Y-57697134D02*
G01*
X129568866Y-57898405D01*
X129789757Y-58046000D01*
X129585549Y-58182447D01*
X129083552Y-57680451D01*
X129220000Y-57476243D01*
X129367595Y-57697134D01*
G37*
X129367595Y-57697134D02*
X129568866Y-57898405D01*
X129789757Y-58046000D01*
X129585549Y-58182447D01*
X129083552Y-57680451D01*
X129220000Y-57476243D01*
X129367595Y-57697134D01*
G36*
X139527595Y-55157134D02*
G01*
X139728866Y-55358405D01*
X139949757Y-55506000D01*
X139728866Y-55653595D01*
X139527595Y-55854866D01*
X139380000Y-56075757D01*
X139232405Y-55854866D01*
X139031134Y-55653595D01*
X138810243Y-55506000D01*
X139031134Y-55358405D01*
X139232405Y-55157134D01*
X139380000Y-54936243D01*
X139527595Y-55157134D01*
G37*
X139527595Y-55157134D02*
X139728866Y-55358405D01*
X139949757Y-55506000D01*
X139728866Y-55653595D01*
X139527595Y-55854866D01*
X139380000Y-56075757D01*
X139232405Y-55854866D01*
X139031134Y-55653595D01*
X138810243Y-55506000D01*
X139031134Y-55358405D01*
X139232405Y-55157134D01*
X139380000Y-54936243D01*
X139527595Y-55157134D01*
G36*
X134447595Y-55157134D02*
G01*
X134648866Y-55358405D01*
X134869757Y-55506000D01*
X134648866Y-55653595D01*
X134447595Y-55854866D01*
X134300000Y-56075757D01*
X134152405Y-55854866D01*
X133951134Y-55653595D01*
X133730243Y-55506000D01*
X133951134Y-55358405D01*
X134152405Y-55157134D01*
X134300000Y-54936243D01*
X134447595Y-55157134D01*
G37*
X134447595Y-55157134D02*
X134648866Y-55358405D01*
X134869757Y-55506000D01*
X134648866Y-55653595D01*
X134447595Y-55854866D01*
X134300000Y-56075757D01*
X134152405Y-55854866D01*
X133951134Y-55653595D01*
X133730243Y-55506000D01*
X133951134Y-55358405D01*
X134152405Y-55157134D01*
X134300000Y-54936243D01*
X134447595Y-55157134D01*
G36*
X129367595Y-55157134D02*
G01*
X129568866Y-55358405D01*
X129789757Y-55506000D01*
X129568866Y-55653595D01*
X129367595Y-55854866D01*
X129220000Y-56075757D01*
X129072405Y-55854866D01*
X128871134Y-55653595D01*
X128650243Y-55506000D01*
X128871134Y-55358405D01*
X129072405Y-55157134D01*
X129220000Y-54936243D01*
X129367595Y-55157134D01*
G37*
X129367595Y-55157134D02*
X129568866Y-55358405D01*
X129789757Y-55506000D01*
X129568866Y-55653595D01*
X129367595Y-55854866D01*
X129220000Y-56075757D01*
X129072405Y-55854866D01*
X128871134Y-55653595D01*
X128650243Y-55506000D01*
X128871134Y-55358405D01*
X129072405Y-55157134D01*
X129220000Y-54936243D01*
X129367595Y-55157134D01*
G36*
X126827595Y-55157134D02*
G01*
X127028866Y-55358405D01*
X127249757Y-55506000D01*
X127028866Y-55653595D01*
X126827595Y-55854866D01*
X126680000Y-56075757D01*
X126532405Y-55854866D01*
X126331134Y-55653595D01*
X126110243Y-55506000D01*
X126331134Y-55358405D01*
X126532405Y-55157134D01*
X126680000Y-54936243D01*
X126827595Y-55157134D01*
G37*
X126827595Y-55157134D02*
X127028866Y-55358405D01*
X127249757Y-55506000D01*
X127028866Y-55653595D01*
X126827595Y-55854866D01*
X126680000Y-56075757D01*
X126532405Y-55854866D01*
X126331134Y-55653595D01*
X126110243Y-55506000D01*
X126331134Y-55358405D01*
X126532405Y-55157134D01*
X126680000Y-54936243D01*
X126827595Y-55157134D01*
G36*
X124287595Y-55157134D02*
G01*
X124488866Y-55358405D01*
X124709757Y-55506000D01*
X124488866Y-55653595D01*
X124287595Y-55854866D01*
X124140000Y-56075757D01*
X123992405Y-55854866D01*
X123791134Y-55653595D01*
X123570243Y-55506000D01*
X123791134Y-55358405D01*
X123992405Y-55157134D01*
X124140000Y-54936243D01*
X124287595Y-55157134D01*
G37*
X124287595Y-55157134D02*
X124488866Y-55358405D01*
X124709757Y-55506000D01*
X124488866Y-55653595D01*
X124287595Y-55854866D01*
X124140000Y-56075757D01*
X123992405Y-55854866D01*
X123791134Y-55653595D01*
X123570243Y-55506000D01*
X123791134Y-55358405D01*
X123992405Y-55157134D01*
X124140000Y-54936243D01*
X124287595Y-55157134D01*
G36*
X121747595Y-55157134D02*
G01*
X121948866Y-55358405D01*
X122169757Y-55506000D01*
X121948866Y-55653595D01*
X121747595Y-55854866D01*
X121600000Y-56075757D01*
X121452405Y-55854866D01*
X121251134Y-55653595D01*
X121030243Y-55506000D01*
X121251134Y-55358405D01*
X121452405Y-55157134D01*
X121600000Y-54936243D01*
X121747595Y-55157134D01*
G37*
X121747595Y-55157134D02*
X121948866Y-55358405D01*
X122169757Y-55506000D01*
X121948866Y-55653595D01*
X121747595Y-55854866D01*
X121600000Y-56075757D01*
X121452405Y-55854866D01*
X121251134Y-55653595D01*
X121030243Y-55506000D01*
X121251134Y-55358405D01*
X121452405Y-55157134D01*
X121600000Y-54936243D01*
X121747595Y-55157134D01*
G36*
X152227595Y-55157134D02*
G01*
X152428866Y-55358405D01*
X152649757Y-55506000D01*
X152428866Y-55653595D01*
X152227595Y-55854866D01*
X152080000Y-56075757D01*
X151932405Y-55854866D01*
X151731134Y-55653595D01*
X151510243Y-55506000D01*
X151731134Y-55358405D01*
X151932405Y-55157134D01*
X152080000Y-54936243D01*
X152227595Y-55157134D01*
G37*
X152227595Y-55157134D02*
X152428866Y-55358405D01*
X152649757Y-55506000D01*
X152428866Y-55653595D01*
X152227595Y-55854866D01*
X152080000Y-56075757D01*
X151932405Y-55854866D01*
X151731134Y-55653595D01*
X151510243Y-55506000D01*
X151731134Y-55358405D01*
X151932405Y-55157134D01*
X152080000Y-54936243D01*
X152227595Y-55157134D01*
G36*
X142067595Y-55157134D02*
G01*
X142268866Y-55358405D01*
X142489757Y-55506000D01*
X142268866Y-55653595D01*
X142067595Y-55854866D01*
X141920000Y-56075757D01*
X141772405Y-55854866D01*
X141571134Y-55653595D01*
X141350243Y-55506000D01*
X141571134Y-55358405D01*
X141772405Y-55157134D01*
X141920000Y-54936243D01*
X142067595Y-55157134D01*
G37*
X142067595Y-55157134D02*
X142268866Y-55358405D01*
X142489757Y-55506000D01*
X142268866Y-55653595D01*
X142067595Y-55854866D01*
X141920000Y-56075757D01*
X141772405Y-55854866D01*
X141571134Y-55653595D01*
X141350243Y-55506000D01*
X141571134Y-55358405D01*
X141772405Y-55157134D01*
X141920000Y-54936243D01*
X142067595Y-55157134D01*
G36*
X116667595Y-55157134D02*
G01*
X116868866Y-55358405D01*
X117089757Y-55506000D01*
X116868866Y-55653595D01*
X116667595Y-55854866D01*
X116520000Y-56075757D01*
X116372405Y-55854866D01*
X116171134Y-55653595D01*
X115950243Y-55506000D01*
X116171134Y-55358405D01*
X116372405Y-55157134D01*
X116520000Y-54936243D01*
X116667595Y-55157134D01*
G37*
X116667595Y-55157134D02*
X116868866Y-55358405D01*
X117089757Y-55506000D01*
X116868866Y-55653595D01*
X116667595Y-55854866D01*
X116520000Y-56075757D01*
X116372405Y-55854866D01*
X116171134Y-55653595D01*
X115950243Y-55506000D01*
X116171134Y-55358405D01*
X116372405Y-55157134D01*
X116520000Y-54936243D01*
X116667595Y-55157134D01*
G36*
X149687595Y-55157134D02*
G01*
X149888866Y-55358405D01*
X150109757Y-55506000D01*
X149888866Y-55653595D01*
X149687595Y-55854866D01*
X149540000Y-56075757D01*
X149392405Y-55854866D01*
X149191134Y-55653595D01*
X148970243Y-55506000D01*
X149191134Y-55358405D01*
X149392405Y-55157134D01*
X149540000Y-54936243D01*
X149687595Y-55157134D01*
G37*
X149687595Y-55157134D02*
X149888866Y-55358405D01*
X150109757Y-55506000D01*
X149888866Y-55653595D01*
X149687595Y-55854866D01*
X149540000Y-56075757D01*
X149392405Y-55854866D01*
X149191134Y-55653595D01*
X148970243Y-55506000D01*
X149191134Y-55358405D01*
X149392405Y-55157134D01*
X149540000Y-54936243D01*
X149687595Y-55157134D01*
G36*
X157307595Y-55157134D02*
G01*
X157508866Y-55358405D01*
X157729757Y-55506000D01*
X157508866Y-55653595D01*
X157307595Y-55854866D01*
X157160000Y-56075757D01*
X157012405Y-55854866D01*
X156811134Y-55653595D01*
X156590243Y-55506000D01*
X156811134Y-55358405D01*
X157012405Y-55157134D01*
X157160000Y-54936243D01*
X157307595Y-55157134D01*
G37*
X157307595Y-55157134D02*
X157508866Y-55358405D01*
X157729757Y-55506000D01*
X157508866Y-55653595D01*
X157307595Y-55854866D01*
X157160000Y-56075757D01*
X157012405Y-55854866D01*
X156811134Y-55653595D01*
X156590243Y-55506000D01*
X156811134Y-55358405D01*
X157012405Y-55157134D01*
X157160000Y-54936243D01*
X157307595Y-55157134D01*
G36*
X159847595Y-55157134D02*
G01*
X160048866Y-55358405D01*
X160269757Y-55506000D01*
X160048866Y-55653595D01*
X159847595Y-55854866D01*
X159700000Y-56075757D01*
X159552405Y-55854866D01*
X159351134Y-55653595D01*
X159130243Y-55506000D01*
X159351134Y-55358405D01*
X159552405Y-55157134D01*
X159700000Y-54936243D01*
X159847595Y-55157134D01*
G37*
X159847595Y-55157134D02*
X160048866Y-55358405D01*
X160269757Y-55506000D01*
X160048866Y-55653595D01*
X159847595Y-55854866D01*
X159700000Y-56075757D01*
X159552405Y-55854866D01*
X159351134Y-55653595D01*
X159130243Y-55506000D01*
X159351134Y-55358405D01*
X159552405Y-55157134D01*
X159700000Y-54936243D01*
X159847595Y-55157134D01*
G36*
X164927595Y-55157134D02*
G01*
X165128866Y-55358405D01*
X165349757Y-55506000D01*
X165128866Y-55653595D01*
X164927595Y-55854866D01*
X164780000Y-56075757D01*
X164632405Y-55854866D01*
X164431134Y-55653595D01*
X164210243Y-55506000D01*
X164431134Y-55358405D01*
X164632405Y-55157134D01*
X164780000Y-54936243D01*
X164927595Y-55157134D01*
G37*
X164927595Y-55157134D02*
X165128866Y-55358405D01*
X165349757Y-55506000D01*
X165128866Y-55653595D01*
X164927595Y-55854866D01*
X164780000Y-56075757D01*
X164632405Y-55854866D01*
X164431134Y-55653595D01*
X164210243Y-55506000D01*
X164431134Y-55358405D01*
X164632405Y-55157134D01*
X164780000Y-54936243D01*
X164927595Y-55157134D01*
G36*
X167467595Y-55157134D02*
G01*
X167668866Y-55358405D01*
X167889757Y-55506000D01*
X167668866Y-55653595D01*
X167467595Y-55854866D01*
X167320000Y-56075757D01*
X167172405Y-55854866D01*
X166971134Y-55653595D01*
X166750243Y-55506000D01*
X166971134Y-55358405D01*
X167172405Y-55157134D01*
X167320000Y-54936243D01*
X167467595Y-55157134D01*
G37*
X167467595Y-55157134D02*
X167668866Y-55358405D01*
X167889757Y-55506000D01*
X167668866Y-55653595D01*
X167467595Y-55854866D01*
X167320000Y-56075757D01*
X167172405Y-55854866D01*
X166971134Y-55653595D01*
X166750243Y-55506000D01*
X166971134Y-55358405D01*
X167172405Y-55157134D01*
X167320000Y-54936243D01*
X167467595Y-55157134D01*
G36*
X162387595Y-55157134D02*
G01*
X162588866Y-55358405D01*
X162809757Y-55506000D01*
X162588866Y-55653595D01*
X162387595Y-55854866D01*
X162240000Y-56075757D01*
X162092405Y-55854866D01*
X161891134Y-55653595D01*
X161670243Y-55506000D01*
X161891134Y-55358405D01*
X162092405Y-55157134D01*
X162240000Y-54936243D01*
X162387595Y-55157134D01*
G37*
X162387595Y-55157134D02*
X162588866Y-55358405D01*
X162809757Y-55506000D01*
X162588866Y-55653595D01*
X162387595Y-55854866D01*
X162240000Y-56075757D01*
X162092405Y-55854866D01*
X161891134Y-55653595D01*
X161670243Y-55506000D01*
X161891134Y-55358405D01*
X162092405Y-55157134D01*
X162240000Y-54936243D01*
X162387595Y-55157134D01*
G36*
X172547595Y-55157134D02*
G01*
X172748866Y-55358405D01*
X172969757Y-55506000D01*
X172748866Y-55653595D01*
X172547595Y-55854866D01*
X172400000Y-56075757D01*
X172252405Y-55854866D01*
X172051134Y-55653595D01*
X171830243Y-55506000D01*
X172051134Y-55358405D01*
X172252405Y-55157134D01*
X172400000Y-54936243D01*
X172547595Y-55157134D01*
G37*
X172547595Y-55157134D02*
X172748866Y-55358405D01*
X172969757Y-55506000D01*
X172748866Y-55653595D01*
X172547595Y-55854866D01*
X172400000Y-56075757D01*
X172252405Y-55854866D01*
X172051134Y-55653595D01*
X171830243Y-55506000D01*
X172051134Y-55358405D01*
X172252405Y-55157134D01*
X172400000Y-54936243D01*
X172547595Y-55157134D01*
G36*
X175087595Y-55157134D02*
G01*
X175288866Y-55358405D01*
X175509757Y-55506000D01*
X175288866Y-55653595D01*
X175087595Y-55854866D01*
X174940000Y-56075757D01*
X174792405Y-55854866D01*
X174591134Y-55653595D01*
X174370243Y-55506000D01*
X174591134Y-55358405D01*
X174792405Y-55157134D01*
X174940000Y-54936243D01*
X175087595Y-55157134D01*
G37*
X175087595Y-55157134D02*
X175288866Y-55358405D01*
X175509757Y-55506000D01*
X175288866Y-55653595D01*
X175087595Y-55854866D01*
X174940000Y-56075757D01*
X174792405Y-55854866D01*
X174591134Y-55653595D01*
X174370243Y-55506000D01*
X174591134Y-55358405D01*
X174792405Y-55157134D01*
X174940000Y-54936243D01*
X175087595Y-55157134D01*
G36*
X177627595Y-55157134D02*
G01*
X177828866Y-55358405D01*
X178049757Y-55506000D01*
X177828866Y-55653595D01*
X177627595Y-55854866D01*
X177480000Y-56075757D01*
X177332405Y-55854866D01*
X177131134Y-55653595D01*
X176910243Y-55506000D01*
X177131134Y-55358405D01*
X177332405Y-55157134D01*
X177480000Y-54936243D01*
X177627595Y-55157134D01*
G37*
X177627595Y-55157134D02*
X177828866Y-55358405D01*
X178049757Y-55506000D01*
X177828866Y-55653595D01*
X177627595Y-55854866D01*
X177480000Y-56075757D01*
X177332405Y-55854866D01*
X177131134Y-55653595D01*
X176910243Y-55506000D01*
X177131134Y-55358405D01*
X177332405Y-55157134D01*
X177480000Y-54936243D01*
X177627595Y-55157134D01*
G36*
X147147595Y-55157134D02*
G01*
X147348866Y-55358405D01*
X147569757Y-55506000D01*
X147348866Y-55653595D01*
X147147595Y-55854866D01*
X147000000Y-56075757D01*
X146852405Y-55854866D01*
X146651134Y-55653595D01*
X146430243Y-55506000D01*
X146651134Y-55358405D01*
X146852405Y-55157134D01*
X147000000Y-54936243D01*
X147147595Y-55157134D01*
G37*
X147147595Y-55157134D02*
X147348866Y-55358405D01*
X147569757Y-55506000D01*
X147348866Y-55653595D01*
X147147595Y-55854866D01*
X147000000Y-56075757D01*
X146852405Y-55854866D01*
X146651134Y-55653595D01*
X146430243Y-55506000D01*
X146651134Y-55358405D01*
X146852405Y-55157134D01*
X147000000Y-54936243D01*
X147147595Y-55157134D01*
G36*
X144607595Y-55157134D02*
G01*
X144808866Y-55358405D01*
X145029757Y-55506000D01*
X144808866Y-55653595D01*
X144607595Y-55854866D01*
X144460000Y-56075757D01*
X144312405Y-55854866D01*
X144111134Y-55653595D01*
X143890243Y-55506000D01*
X144111134Y-55358405D01*
X144312405Y-55157134D01*
X144460000Y-54936243D01*
X144607595Y-55157134D01*
G37*
X144607595Y-55157134D02*
X144808866Y-55358405D01*
X145029757Y-55506000D01*
X144808866Y-55653595D01*
X144607595Y-55854866D01*
X144460000Y-56075757D01*
X144312405Y-55854866D01*
X144111134Y-55653595D01*
X143890243Y-55506000D01*
X144111134Y-55358405D01*
X144312405Y-55157134D01*
X144460000Y-54936243D01*
X144607595Y-55157134D01*
M02*
