G04 #@! TF.GenerationSoftware,KiCad,Pcbnew,7.0.9-1.fc38*
G04 #@! TF.CreationDate,2023-11-17T02:46:57-03:00*
G04 #@! TF.ProjectId,pc104-adapter-bottom,70633130-342d-4616-9461-707465722d62,v2.1*
G04 #@! TF.SameCoordinates,Original*
G04 #@! TF.FileFunction,Legend,Top*
G04 #@! TF.FilePolarity,Positive*
%FSLAX46Y46*%
G04 Gerber Fmt 4.6, Leading zero omitted, Abs format (unit mm)*
G04 Created by KiCad (PCBNEW 7.0.9-1.fc38) date 2023-11-17 02:46:57*
%MOMM*%
%LPD*%
G01*
G04 APERTURE LIST*
%ADD10C,0.160000*%
%ADD11C,0.150000*%
%ADD12C,0.120000*%
G04 APERTURE END LIST*
D10*
X166747619Y-75054299D02*
X166747619Y-74054299D01*
X166747619Y-74530489D02*
X167319047Y-74530489D01*
X167319047Y-75054299D02*
X167319047Y-74054299D01*
X167747619Y-74149537D02*
X167795238Y-74101918D01*
X167795238Y-74101918D02*
X167890476Y-74054299D01*
X167890476Y-74054299D02*
X168128571Y-74054299D01*
X168128571Y-74054299D02*
X168223809Y-74101918D01*
X168223809Y-74101918D02*
X168271428Y-74149537D01*
X168271428Y-74149537D02*
X168319047Y-74244775D01*
X168319047Y-74244775D02*
X168319047Y-74340013D01*
X168319047Y-74340013D02*
X168271428Y-74482870D01*
X168271428Y-74482870D02*
X167700000Y-75054299D01*
X167700000Y-75054299D02*
X168319047Y-75054299D01*
X168747619Y-74959060D02*
X168795238Y-75006680D01*
X168795238Y-75006680D02*
X168747619Y-75054299D01*
X168747619Y-75054299D02*
X168700000Y-75006680D01*
X168700000Y-75006680D02*
X168747619Y-74959060D01*
X168747619Y-74959060D02*
X168747619Y-75054299D01*
X169699999Y-74054299D02*
X169223809Y-74054299D01*
X169223809Y-74054299D02*
X169176190Y-74530489D01*
X169176190Y-74530489D02*
X169223809Y-74482870D01*
X169223809Y-74482870D02*
X169319047Y-74435251D01*
X169319047Y-74435251D02*
X169557142Y-74435251D01*
X169557142Y-74435251D02*
X169652380Y-74482870D01*
X169652380Y-74482870D02*
X169699999Y-74530489D01*
X169699999Y-74530489D02*
X169747618Y-74625727D01*
X169747618Y-74625727D02*
X169747618Y-74863822D01*
X169747618Y-74863822D02*
X169699999Y-74959060D01*
X169699999Y-74959060D02*
X169652380Y-75006680D01*
X169652380Y-75006680D02*
X169557142Y-75054299D01*
X169557142Y-75054299D02*
X169319047Y-75054299D01*
X169319047Y-75054299D02*
X169223809Y-75006680D01*
X169223809Y-75006680D02*
X169176190Y-74959060D01*
X170128571Y-74149537D02*
X170176190Y-74101918D01*
X170176190Y-74101918D02*
X170271428Y-74054299D01*
X170271428Y-74054299D02*
X170509523Y-74054299D01*
X170509523Y-74054299D02*
X170604761Y-74101918D01*
X170604761Y-74101918D02*
X170652380Y-74149537D01*
X170652380Y-74149537D02*
X170699999Y-74244775D01*
X170699999Y-74244775D02*
X170699999Y-74340013D01*
X170699999Y-74340013D02*
X170652380Y-74482870D01*
X170652380Y-74482870D02*
X170080952Y-75054299D01*
X170080952Y-75054299D02*
X170699999Y-75054299D01*
X145354299Y-74952380D02*
X144354299Y-74952380D01*
X144830489Y-74952380D02*
X144830489Y-74380952D01*
X145354299Y-74380952D02*
X144354299Y-74380952D01*
X144449537Y-73952380D02*
X144401918Y-73904761D01*
X144401918Y-73904761D02*
X144354299Y-73809523D01*
X144354299Y-73809523D02*
X144354299Y-73571428D01*
X144354299Y-73571428D02*
X144401918Y-73476190D01*
X144401918Y-73476190D02*
X144449537Y-73428571D01*
X144449537Y-73428571D02*
X144544775Y-73380952D01*
X144544775Y-73380952D02*
X144640013Y-73380952D01*
X144640013Y-73380952D02*
X144782870Y-73428571D01*
X144782870Y-73428571D02*
X145354299Y-73999999D01*
X145354299Y-73999999D02*
X145354299Y-73380952D01*
X145259060Y-72952380D02*
X145306680Y-72904761D01*
X145306680Y-72904761D02*
X145354299Y-72952380D01*
X145354299Y-72952380D02*
X145306680Y-72999999D01*
X145306680Y-72999999D02*
X145259060Y-72952380D01*
X145259060Y-72952380D02*
X145354299Y-72952380D01*
X145354299Y-71952381D02*
X145354299Y-72523809D01*
X145354299Y-72238095D02*
X144354299Y-72238095D01*
X144354299Y-72238095D02*
X144497156Y-72333333D01*
X144497156Y-72333333D02*
X144592394Y-72428571D01*
X144592394Y-72428571D02*
X144640013Y-72523809D01*
X144687632Y-71095238D02*
X145354299Y-71095238D01*
X144306680Y-71333333D02*
X145020965Y-71571428D01*
X145020965Y-71571428D02*
X145020965Y-70952381D01*
X133847619Y-90054299D02*
X133847619Y-89054299D01*
X133847619Y-89530489D02*
X134419047Y-89530489D01*
X134419047Y-90054299D02*
X134419047Y-89054299D01*
X135419047Y-90054299D02*
X134847619Y-90054299D01*
X135133333Y-90054299D02*
X135133333Y-89054299D01*
X135133333Y-89054299D02*
X135038095Y-89197156D01*
X135038095Y-89197156D02*
X134942857Y-89292394D01*
X134942857Y-89292394D02*
X134847619Y-89340013D01*
X135847619Y-89959060D02*
X135895238Y-90006680D01*
X135895238Y-90006680D02*
X135847619Y-90054299D01*
X135847619Y-90054299D02*
X135800000Y-90006680D01*
X135800000Y-90006680D02*
X135847619Y-89959060D01*
X135847619Y-89959060D02*
X135847619Y-90054299D01*
X136276190Y-89149537D02*
X136323809Y-89101918D01*
X136323809Y-89101918D02*
X136419047Y-89054299D01*
X136419047Y-89054299D02*
X136657142Y-89054299D01*
X136657142Y-89054299D02*
X136752380Y-89101918D01*
X136752380Y-89101918D02*
X136799999Y-89149537D01*
X136799999Y-89149537D02*
X136847618Y-89244775D01*
X136847618Y-89244775D02*
X136847618Y-89340013D01*
X136847618Y-89340013D02*
X136799999Y-89482870D01*
X136799999Y-89482870D02*
X136228571Y-90054299D01*
X136228571Y-90054299D02*
X136847618Y-90054299D01*
X137704761Y-89054299D02*
X137514285Y-89054299D01*
X137514285Y-89054299D02*
X137419047Y-89101918D01*
X137419047Y-89101918D02*
X137371428Y-89149537D01*
X137371428Y-89149537D02*
X137276190Y-89292394D01*
X137276190Y-89292394D02*
X137228571Y-89482870D01*
X137228571Y-89482870D02*
X137228571Y-89863822D01*
X137228571Y-89863822D02*
X137276190Y-89959060D01*
X137276190Y-89959060D02*
X137323809Y-90006680D01*
X137323809Y-90006680D02*
X137419047Y-90054299D01*
X137419047Y-90054299D02*
X137609523Y-90054299D01*
X137609523Y-90054299D02*
X137704761Y-90006680D01*
X137704761Y-90006680D02*
X137752380Y-89959060D01*
X137752380Y-89959060D02*
X137799999Y-89863822D01*
X137799999Y-89863822D02*
X137799999Y-89625727D01*
X137799999Y-89625727D02*
X137752380Y-89530489D01*
X137752380Y-89530489D02*
X137704761Y-89482870D01*
X137704761Y-89482870D02*
X137609523Y-89435251D01*
X137609523Y-89435251D02*
X137419047Y-89435251D01*
X137419047Y-89435251D02*
X137323809Y-89482870D01*
X137323809Y-89482870D02*
X137276190Y-89530489D01*
X137276190Y-89530489D02*
X137228571Y-89625727D01*
X123347619Y-90054299D02*
X123347619Y-89054299D01*
X123347619Y-89530489D02*
X123919047Y-89530489D01*
X123919047Y-90054299D02*
X123919047Y-89054299D01*
X124347619Y-89149537D02*
X124395238Y-89101918D01*
X124395238Y-89101918D02*
X124490476Y-89054299D01*
X124490476Y-89054299D02*
X124728571Y-89054299D01*
X124728571Y-89054299D02*
X124823809Y-89101918D01*
X124823809Y-89101918D02*
X124871428Y-89149537D01*
X124871428Y-89149537D02*
X124919047Y-89244775D01*
X124919047Y-89244775D02*
X124919047Y-89340013D01*
X124919047Y-89340013D02*
X124871428Y-89482870D01*
X124871428Y-89482870D02*
X124300000Y-90054299D01*
X124300000Y-90054299D02*
X124919047Y-90054299D01*
X125347619Y-89959060D02*
X125395238Y-90006680D01*
X125395238Y-90006680D02*
X125347619Y-90054299D01*
X125347619Y-90054299D02*
X125300000Y-90006680D01*
X125300000Y-90006680D02*
X125347619Y-89959060D01*
X125347619Y-89959060D02*
X125347619Y-90054299D01*
X126347618Y-90054299D02*
X125776190Y-90054299D01*
X126061904Y-90054299D02*
X126061904Y-89054299D01*
X126061904Y-89054299D02*
X125966666Y-89197156D01*
X125966666Y-89197156D02*
X125871428Y-89292394D01*
X125871428Y-89292394D02*
X125776190Y-89340013D01*
X126680952Y-89054299D02*
X127299999Y-89054299D01*
X127299999Y-89054299D02*
X126966666Y-89435251D01*
X126966666Y-89435251D02*
X127109523Y-89435251D01*
X127109523Y-89435251D02*
X127204761Y-89482870D01*
X127204761Y-89482870D02*
X127252380Y-89530489D01*
X127252380Y-89530489D02*
X127299999Y-89625727D01*
X127299999Y-89625727D02*
X127299999Y-89863822D01*
X127299999Y-89863822D02*
X127252380Y-89959060D01*
X127252380Y-89959060D02*
X127204761Y-90006680D01*
X127204761Y-90006680D02*
X127109523Y-90054299D01*
X127109523Y-90054299D02*
X126823809Y-90054299D01*
X126823809Y-90054299D02*
X126728571Y-90006680D01*
X126728571Y-90006680D02*
X126680952Y-89959060D01*
X149554299Y-93252380D02*
X148554299Y-93252380D01*
X149030489Y-93252380D02*
X149030489Y-92680952D01*
X149554299Y-92680952D02*
X148554299Y-92680952D01*
X149554299Y-91680952D02*
X149554299Y-92252380D01*
X149554299Y-91966666D02*
X148554299Y-91966666D01*
X148554299Y-91966666D02*
X148697156Y-92061904D01*
X148697156Y-92061904D02*
X148792394Y-92157142D01*
X148792394Y-92157142D02*
X148840013Y-92252380D01*
X149459060Y-91252380D02*
X149506680Y-91204761D01*
X149506680Y-91204761D02*
X149554299Y-91252380D01*
X149554299Y-91252380D02*
X149506680Y-91299999D01*
X149506680Y-91299999D02*
X149459060Y-91252380D01*
X149459060Y-91252380D02*
X149554299Y-91252380D01*
X148649537Y-90823809D02*
X148601918Y-90776190D01*
X148601918Y-90776190D02*
X148554299Y-90680952D01*
X148554299Y-90680952D02*
X148554299Y-90442857D01*
X148554299Y-90442857D02*
X148601918Y-90347619D01*
X148601918Y-90347619D02*
X148649537Y-90300000D01*
X148649537Y-90300000D02*
X148744775Y-90252381D01*
X148744775Y-90252381D02*
X148840013Y-90252381D01*
X148840013Y-90252381D02*
X148982870Y-90300000D01*
X148982870Y-90300000D02*
X149554299Y-90871428D01*
X149554299Y-90871428D02*
X149554299Y-90252381D01*
X148554299Y-89919047D02*
X148554299Y-89252381D01*
X148554299Y-89252381D02*
X149554299Y-89680952D01*
X156247619Y-75154299D02*
X156247619Y-74154299D01*
X156247619Y-74630489D02*
X156819047Y-74630489D01*
X156819047Y-75154299D02*
X156819047Y-74154299D01*
X157247619Y-74249537D02*
X157295238Y-74201918D01*
X157295238Y-74201918D02*
X157390476Y-74154299D01*
X157390476Y-74154299D02*
X157628571Y-74154299D01*
X157628571Y-74154299D02*
X157723809Y-74201918D01*
X157723809Y-74201918D02*
X157771428Y-74249537D01*
X157771428Y-74249537D02*
X157819047Y-74344775D01*
X157819047Y-74344775D02*
X157819047Y-74440013D01*
X157819047Y-74440013D02*
X157771428Y-74582870D01*
X157771428Y-74582870D02*
X157200000Y-75154299D01*
X157200000Y-75154299D02*
X157819047Y-75154299D01*
X158247619Y-75059060D02*
X158295238Y-75106680D01*
X158295238Y-75106680D02*
X158247619Y-75154299D01*
X158247619Y-75154299D02*
X158200000Y-75106680D01*
X158200000Y-75106680D02*
X158247619Y-75059060D01*
X158247619Y-75059060D02*
X158247619Y-75154299D01*
X158628571Y-74154299D02*
X159247618Y-74154299D01*
X159247618Y-74154299D02*
X158914285Y-74535251D01*
X158914285Y-74535251D02*
X159057142Y-74535251D01*
X159057142Y-74535251D02*
X159152380Y-74582870D01*
X159152380Y-74582870D02*
X159199999Y-74630489D01*
X159199999Y-74630489D02*
X159247618Y-74725727D01*
X159247618Y-74725727D02*
X159247618Y-74963822D01*
X159247618Y-74963822D02*
X159199999Y-75059060D01*
X159199999Y-75059060D02*
X159152380Y-75106680D01*
X159152380Y-75106680D02*
X159057142Y-75154299D01*
X159057142Y-75154299D02*
X158771428Y-75154299D01*
X158771428Y-75154299D02*
X158676190Y-75106680D01*
X158676190Y-75106680D02*
X158628571Y-75059060D01*
X159723809Y-75154299D02*
X159914285Y-75154299D01*
X159914285Y-75154299D02*
X160009523Y-75106680D01*
X160009523Y-75106680D02*
X160057142Y-75059060D01*
X160057142Y-75059060D02*
X160152380Y-74916203D01*
X160152380Y-74916203D02*
X160199999Y-74725727D01*
X160199999Y-74725727D02*
X160199999Y-74344775D01*
X160199999Y-74344775D02*
X160152380Y-74249537D01*
X160152380Y-74249537D02*
X160104761Y-74201918D01*
X160104761Y-74201918D02*
X160009523Y-74154299D01*
X160009523Y-74154299D02*
X159819047Y-74154299D01*
X159819047Y-74154299D02*
X159723809Y-74201918D01*
X159723809Y-74201918D02*
X159676190Y-74249537D01*
X159676190Y-74249537D02*
X159628571Y-74344775D01*
X159628571Y-74344775D02*
X159628571Y-74582870D01*
X159628571Y-74582870D02*
X159676190Y-74678108D01*
X159676190Y-74678108D02*
X159723809Y-74725727D01*
X159723809Y-74725727D02*
X159819047Y-74773346D01*
X159819047Y-74773346D02*
X160009523Y-74773346D01*
X160009523Y-74773346D02*
X160104761Y-74725727D01*
X160104761Y-74725727D02*
X160152380Y-74678108D01*
X160152380Y-74678108D02*
X160199999Y-74582870D01*
X112823810Y-75154299D02*
X112823810Y-74154299D01*
X112823810Y-74630489D02*
X113395238Y-74630489D01*
X113395238Y-75154299D02*
X113395238Y-74154299D01*
X114395238Y-75154299D02*
X113823810Y-75154299D01*
X114109524Y-75154299D02*
X114109524Y-74154299D01*
X114109524Y-74154299D02*
X114014286Y-74297156D01*
X114014286Y-74297156D02*
X113919048Y-74392394D01*
X113919048Y-74392394D02*
X113823810Y-74440013D01*
X114823810Y-75059060D02*
X114871429Y-75106680D01*
X114871429Y-75106680D02*
X114823810Y-75154299D01*
X114823810Y-75154299D02*
X114776191Y-75106680D01*
X114776191Y-75106680D02*
X114823810Y-75059060D01*
X114823810Y-75059060D02*
X114823810Y-75154299D01*
X115823809Y-75154299D02*
X115252381Y-75154299D01*
X115538095Y-75154299D02*
X115538095Y-74154299D01*
X115538095Y-74154299D02*
X115442857Y-74297156D01*
X115442857Y-74297156D02*
X115347619Y-74392394D01*
X115347619Y-74392394D02*
X115252381Y-74440013D01*
X177247619Y-90154299D02*
X177247619Y-89154299D01*
X177247619Y-89630489D02*
X177819047Y-89630489D01*
X177819047Y-90154299D02*
X177819047Y-89154299D01*
X178819047Y-90154299D02*
X178247619Y-90154299D01*
X178533333Y-90154299D02*
X178533333Y-89154299D01*
X178533333Y-89154299D02*
X178438095Y-89297156D01*
X178438095Y-89297156D02*
X178342857Y-89392394D01*
X178342857Y-89392394D02*
X178247619Y-89440013D01*
X179247619Y-90059060D02*
X179295238Y-90106680D01*
X179295238Y-90106680D02*
X179247619Y-90154299D01*
X179247619Y-90154299D02*
X179200000Y-90106680D01*
X179200000Y-90106680D02*
X179247619Y-90059060D01*
X179247619Y-90059060D02*
X179247619Y-90154299D01*
X180152380Y-89487632D02*
X180152380Y-90154299D01*
X179914285Y-89106680D02*
X179676190Y-89820965D01*
X179676190Y-89820965D02*
X180295237Y-89820965D01*
X180866666Y-89154299D02*
X180961904Y-89154299D01*
X180961904Y-89154299D02*
X181057142Y-89201918D01*
X181057142Y-89201918D02*
X181104761Y-89249537D01*
X181104761Y-89249537D02*
X181152380Y-89344775D01*
X181152380Y-89344775D02*
X181199999Y-89535251D01*
X181199999Y-89535251D02*
X181199999Y-89773346D01*
X181199999Y-89773346D02*
X181152380Y-89963822D01*
X181152380Y-89963822D02*
X181104761Y-90059060D01*
X181104761Y-90059060D02*
X181057142Y-90106680D01*
X181057142Y-90106680D02*
X180961904Y-90154299D01*
X180961904Y-90154299D02*
X180866666Y-90154299D01*
X180866666Y-90154299D02*
X180771428Y-90106680D01*
X180771428Y-90106680D02*
X180723809Y-90059060D01*
X180723809Y-90059060D02*
X180676190Y-89963822D01*
X180676190Y-89963822D02*
X180628571Y-89773346D01*
X180628571Y-89773346D02*
X180628571Y-89535251D01*
X180628571Y-89535251D02*
X180676190Y-89344775D01*
X180676190Y-89344775D02*
X180723809Y-89249537D01*
X180723809Y-89249537D02*
X180771428Y-89201918D01*
X180771428Y-89201918D02*
X180866666Y-89154299D01*
X112847619Y-90054299D02*
X112847619Y-89054299D01*
X112847619Y-89530489D02*
X113419047Y-89530489D01*
X113419047Y-90054299D02*
X113419047Y-89054299D01*
X114419047Y-90054299D02*
X113847619Y-90054299D01*
X114133333Y-90054299D02*
X114133333Y-89054299D01*
X114133333Y-89054299D02*
X114038095Y-89197156D01*
X114038095Y-89197156D02*
X113942857Y-89292394D01*
X113942857Y-89292394D02*
X113847619Y-89340013D01*
X114847619Y-89959060D02*
X114895238Y-90006680D01*
X114895238Y-90006680D02*
X114847619Y-90054299D01*
X114847619Y-90054299D02*
X114800000Y-90006680D01*
X114800000Y-90006680D02*
X114847619Y-89959060D01*
X114847619Y-89959060D02*
X114847619Y-90054299D01*
X115847618Y-90054299D02*
X115276190Y-90054299D01*
X115561904Y-90054299D02*
X115561904Y-89054299D01*
X115561904Y-89054299D02*
X115466666Y-89197156D01*
X115466666Y-89197156D02*
X115371428Y-89292394D01*
X115371428Y-89292394D02*
X115276190Y-89340013D01*
X116180952Y-89054299D02*
X116799999Y-89054299D01*
X116799999Y-89054299D02*
X116466666Y-89435251D01*
X116466666Y-89435251D02*
X116609523Y-89435251D01*
X116609523Y-89435251D02*
X116704761Y-89482870D01*
X116704761Y-89482870D02*
X116752380Y-89530489D01*
X116752380Y-89530489D02*
X116799999Y-89625727D01*
X116799999Y-89625727D02*
X116799999Y-89863822D01*
X116799999Y-89863822D02*
X116752380Y-89959060D01*
X116752380Y-89959060D02*
X116704761Y-90006680D01*
X116704761Y-90006680D02*
X116609523Y-90054299D01*
X116609523Y-90054299D02*
X116323809Y-90054299D01*
X116323809Y-90054299D02*
X116228571Y-90006680D01*
X116228571Y-90006680D02*
X116180952Y-89959060D01*
X149654299Y-74852380D02*
X148654299Y-74852380D01*
X149130489Y-74852380D02*
X149130489Y-74280952D01*
X149654299Y-74280952D02*
X148654299Y-74280952D01*
X149654299Y-73280952D02*
X149654299Y-73852380D01*
X149654299Y-73566666D02*
X148654299Y-73566666D01*
X148654299Y-73566666D02*
X148797156Y-73661904D01*
X148797156Y-73661904D02*
X148892394Y-73757142D01*
X148892394Y-73757142D02*
X148940013Y-73852380D01*
X149559060Y-72852380D02*
X149606680Y-72804761D01*
X149606680Y-72804761D02*
X149654299Y-72852380D01*
X149654299Y-72852380D02*
X149606680Y-72899999D01*
X149606680Y-72899999D02*
X149559060Y-72852380D01*
X149559060Y-72852380D02*
X149654299Y-72852380D01*
X148654299Y-72471428D02*
X148654299Y-71852381D01*
X148654299Y-71852381D02*
X149035251Y-72185714D01*
X149035251Y-72185714D02*
X149035251Y-72042857D01*
X149035251Y-72042857D02*
X149082870Y-71947619D01*
X149082870Y-71947619D02*
X149130489Y-71900000D01*
X149130489Y-71900000D02*
X149225727Y-71852381D01*
X149225727Y-71852381D02*
X149463822Y-71852381D01*
X149463822Y-71852381D02*
X149559060Y-71900000D01*
X149559060Y-71900000D02*
X149606680Y-71947619D01*
X149606680Y-71947619D02*
X149654299Y-72042857D01*
X149654299Y-72042857D02*
X149654299Y-72328571D01*
X149654299Y-72328571D02*
X149606680Y-72423809D01*
X149606680Y-72423809D02*
X149559060Y-72471428D01*
X149654299Y-71376190D02*
X149654299Y-71185714D01*
X149654299Y-71185714D02*
X149606680Y-71090476D01*
X149606680Y-71090476D02*
X149559060Y-71042857D01*
X149559060Y-71042857D02*
X149416203Y-70947619D01*
X149416203Y-70947619D02*
X149225727Y-70900000D01*
X149225727Y-70900000D02*
X148844775Y-70900000D01*
X148844775Y-70900000D02*
X148749537Y-70947619D01*
X148749537Y-70947619D02*
X148701918Y-70995238D01*
X148701918Y-70995238D02*
X148654299Y-71090476D01*
X148654299Y-71090476D02*
X148654299Y-71280952D01*
X148654299Y-71280952D02*
X148701918Y-71376190D01*
X148701918Y-71376190D02*
X148749537Y-71423809D01*
X148749537Y-71423809D02*
X148844775Y-71471428D01*
X148844775Y-71471428D02*
X149082870Y-71471428D01*
X149082870Y-71471428D02*
X149178108Y-71423809D01*
X149178108Y-71423809D02*
X149225727Y-71376190D01*
X149225727Y-71376190D02*
X149273346Y-71280952D01*
X149273346Y-71280952D02*
X149273346Y-71090476D01*
X149273346Y-71090476D02*
X149225727Y-70995238D01*
X149225727Y-70995238D02*
X149178108Y-70947619D01*
X149178108Y-70947619D02*
X149082870Y-70900000D01*
X166747619Y-90154299D02*
X166747619Y-89154299D01*
X166747619Y-89630489D02*
X167319047Y-89630489D01*
X167319047Y-90154299D02*
X167319047Y-89154299D01*
X167747619Y-89249537D02*
X167795238Y-89201918D01*
X167795238Y-89201918D02*
X167890476Y-89154299D01*
X167890476Y-89154299D02*
X168128571Y-89154299D01*
X168128571Y-89154299D02*
X168223809Y-89201918D01*
X168223809Y-89201918D02*
X168271428Y-89249537D01*
X168271428Y-89249537D02*
X168319047Y-89344775D01*
X168319047Y-89344775D02*
X168319047Y-89440013D01*
X168319047Y-89440013D02*
X168271428Y-89582870D01*
X168271428Y-89582870D02*
X167700000Y-90154299D01*
X167700000Y-90154299D02*
X168319047Y-90154299D01*
X168747619Y-90059060D02*
X168795238Y-90106680D01*
X168795238Y-90106680D02*
X168747619Y-90154299D01*
X168747619Y-90154299D02*
X168700000Y-90106680D01*
X168700000Y-90106680D02*
X168747619Y-90059060D01*
X168747619Y-90059060D02*
X168747619Y-90154299D01*
X169652380Y-89487632D02*
X169652380Y-90154299D01*
X169414285Y-89106680D02*
X169176190Y-89820965D01*
X169176190Y-89820965D02*
X169795237Y-89820965D01*
X170366666Y-89154299D02*
X170461904Y-89154299D01*
X170461904Y-89154299D02*
X170557142Y-89201918D01*
X170557142Y-89201918D02*
X170604761Y-89249537D01*
X170604761Y-89249537D02*
X170652380Y-89344775D01*
X170652380Y-89344775D02*
X170699999Y-89535251D01*
X170699999Y-89535251D02*
X170699999Y-89773346D01*
X170699999Y-89773346D02*
X170652380Y-89963822D01*
X170652380Y-89963822D02*
X170604761Y-90059060D01*
X170604761Y-90059060D02*
X170557142Y-90106680D01*
X170557142Y-90106680D02*
X170461904Y-90154299D01*
X170461904Y-90154299D02*
X170366666Y-90154299D01*
X170366666Y-90154299D02*
X170271428Y-90106680D01*
X170271428Y-90106680D02*
X170223809Y-90059060D01*
X170223809Y-90059060D02*
X170176190Y-89963822D01*
X170176190Y-89963822D02*
X170128571Y-89773346D01*
X170128571Y-89773346D02*
X170128571Y-89535251D01*
X170128571Y-89535251D02*
X170176190Y-89344775D01*
X170176190Y-89344775D02*
X170223809Y-89249537D01*
X170223809Y-89249537D02*
X170271428Y-89201918D01*
X170271428Y-89201918D02*
X170366666Y-89154299D01*
X123323810Y-75154299D02*
X123323810Y-74154299D01*
X123323810Y-74630489D02*
X123895238Y-74630489D01*
X123895238Y-75154299D02*
X123895238Y-74154299D01*
X124323810Y-74249537D02*
X124371429Y-74201918D01*
X124371429Y-74201918D02*
X124466667Y-74154299D01*
X124466667Y-74154299D02*
X124704762Y-74154299D01*
X124704762Y-74154299D02*
X124800000Y-74201918D01*
X124800000Y-74201918D02*
X124847619Y-74249537D01*
X124847619Y-74249537D02*
X124895238Y-74344775D01*
X124895238Y-74344775D02*
X124895238Y-74440013D01*
X124895238Y-74440013D02*
X124847619Y-74582870D01*
X124847619Y-74582870D02*
X124276191Y-75154299D01*
X124276191Y-75154299D02*
X124895238Y-75154299D01*
X125323810Y-75059060D02*
X125371429Y-75106680D01*
X125371429Y-75106680D02*
X125323810Y-75154299D01*
X125323810Y-75154299D02*
X125276191Y-75106680D01*
X125276191Y-75106680D02*
X125323810Y-75059060D01*
X125323810Y-75059060D02*
X125323810Y-75154299D01*
X126323809Y-75154299D02*
X125752381Y-75154299D01*
X126038095Y-75154299D02*
X126038095Y-74154299D01*
X126038095Y-74154299D02*
X125942857Y-74297156D01*
X125942857Y-74297156D02*
X125847619Y-74392394D01*
X125847619Y-74392394D02*
X125752381Y-74440013D01*
X156147619Y-90154299D02*
X156147619Y-89154299D01*
X156147619Y-89630489D02*
X156719047Y-89630489D01*
X156719047Y-90154299D02*
X156719047Y-89154299D01*
X157147619Y-89249537D02*
X157195238Y-89201918D01*
X157195238Y-89201918D02*
X157290476Y-89154299D01*
X157290476Y-89154299D02*
X157528571Y-89154299D01*
X157528571Y-89154299D02*
X157623809Y-89201918D01*
X157623809Y-89201918D02*
X157671428Y-89249537D01*
X157671428Y-89249537D02*
X157719047Y-89344775D01*
X157719047Y-89344775D02*
X157719047Y-89440013D01*
X157719047Y-89440013D02*
X157671428Y-89582870D01*
X157671428Y-89582870D02*
X157100000Y-90154299D01*
X157100000Y-90154299D02*
X157719047Y-90154299D01*
X158147619Y-90059060D02*
X158195238Y-90106680D01*
X158195238Y-90106680D02*
X158147619Y-90154299D01*
X158147619Y-90154299D02*
X158100000Y-90106680D01*
X158100000Y-90106680D02*
X158147619Y-90059060D01*
X158147619Y-90059060D02*
X158147619Y-90154299D01*
X158576190Y-89249537D02*
X158623809Y-89201918D01*
X158623809Y-89201918D02*
X158719047Y-89154299D01*
X158719047Y-89154299D02*
X158957142Y-89154299D01*
X158957142Y-89154299D02*
X159052380Y-89201918D01*
X159052380Y-89201918D02*
X159099999Y-89249537D01*
X159099999Y-89249537D02*
X159147618Y-89344775D01*
X159147618Y-89344775D02*
X159147618Y-89440013D01*
X159147618Y-89440013D02*
X159099999Y-89582870D01*
X159099999Y-89582870D02*
X158528571Y-90154299D01*
X158528571Y-90154299D02*
X159147618Y-90154299D01*
X159480952Y-89154299D02*
X160147618Y-89154299D01*
X160147618Y-89154299D02*
X159719047Y-90154299D01*
X177247619Y-75054299D02*
X177247619Y-74054299D01*
X177247619Y-74530489D02*
X177819047Y-74530489D01*
X177819047Y-75054299D02*
X177819047Y-74054299D01*
X178819047Y-75054299D02*
X178247619Y-75054299D01*
X178533333Y-75054299D02*
X178533333Y-74054299D01*
X178533333Y-74054299D02*
X178438095Y-74197156D01*
X178438095Y-74197156D02*
X178342857Y-74292394D01*
X178342857Y-74292394D02*
X178247619Y-74340013D01*
X179247619Y-74959060D02*
X179295238Y-75006680D01*
X179295238Y-75006680D02*
X179247619Y-75054299D01*
X179247619Y-75054299D02*
X179200000Y-75006680D01*
X179200000Y-75006680D02*
X179247619Y-74959060D01*
X179247619Y-74959060D02*
X179247619Y-75054299D01*
X180199999Y-74054299D02*
X179723809Y-74054299D01*
X179723809Y-74054299D02*
X179676190Y-74530489D01*
X179676190Y-74530489D02*
X179723809Y-74482870D01*
X179723809Y-74482870D02*
X179819047Y-74435251D01*
X179819047Y-74435251D02*
X180057142Y-74435251D01*
X180057142Y-74435251D02*
X180152380Y-74482870D01*
X180152380Y-74482870D02*
X180199999Y-74530489D01*
X180199999Y-74530489D02*
X180247618Y-74625727D01*
X180247618Y-74625727D02*
X180247618Y-74863822D01*
X180247618Y-74863822D02*
X180199999Y-74959060D01*
X180199999Y-74959060D02*
X180152380Y-75006680D01*
X180152380Y-75006680D02*
X180057142Y-75054299D01*
X180057142Y-75054299D02*
X179819047Y-75054299D01*
X179819047Y-75054299D02*
X179723809Y-75006680D01*
X179723809Y-75006680D02*
X179676190Y-74959060D01*
X180628571Y-74149537D02*
X180676190Y-74101918D01*
X180676190Y-74101918D02*
X180771428Y-74054299D01*
X180771428Y-74054299D02*
X181009523Y-74054299D01*
X181009523Y-74054299D02*
X181104761Y-74101918D01*
X181104761Y-74101918D02*
X181152380Y-74149537D01*
X181152380Y-74149537D02*
X181199999Y-74244775D01*
X181199999Y-74244775D02*
X181199999Y-74340013D01*
X181199999Y-74340013D02*
X181152380Y-74482870D01*
X181152380Y-74482870D02*
X180580952Y-75054299D01*
X180580952Y-75054299D02*
X181199999Y-75054299D01*
X133847619Y-75154299D02*
X133847619Y-74154299D01*
X133847619Y-74630489D02*
X134419047Y-74630489D01*
X134419047Y-75154299D02*
X134419047Y-74154299D01*
X135419047Y-75154299D02*
X134847619Y-75154299D01*
X135133333Y-75154299D02*
X135133333Y-74154299D01*
X135133333Y-74154299D02*
X135038095Y-74297156D01*
X135038095Y-74297156D02*
X134942857Y-74392394D01*
X134942857Y-74392394D02*
X134847619Y-74440013D01*
X135847619Y-75059060D02*
X135895238Y-75106680D01*
X135895238Y-75106680D02*
X135847619Y-75154299D01*
X135847619Y-75154299D02*
X135800000Y-75106680D01*
X135800000Y-75106680D02*
X135847619Y-75059060D01*
X135847619Y-75059060D02*
X135847619Y-75154299D01*
X136847618Y-75154299D02*
X136276190Y-75154299D01*
X136561904Y-75154299D02*
X136561904Y-74154299D01*
X136561904Y-74154299D02*
X136466666Y-74297156D01*
X136466666Y-74297156D02*
X136371428Y-74392394D01*
X136371428Y-74392394D02*
X136276190Y-74440013D01*
X137704761Y-74487632D02*
X137704761Y-75154299D01*
X137466666Y-74106680D02*
X137228571Y-74820965D01*
X137228571Y-74820965D02*
X137847618Y-74820965D01*
X145454299Y-93252380D02*
X144454299Y-93252380D01*
X144930489Y-93252380D02*
X144930489Y-92680952D01*
X145454299Y-92680952D02*
X144454299Y-92680952D01*
X144549537Y-92252380D02*
X144501918Y-92204761D01*
X144501918Y-92204761D02*
X144454299Y-92109523D01*
X144454299Y-92109523D02*
X144454299Y-91871428D01*
X144454299Y-91871428D02*
X144501918Y-91776190D01*
X144501918Y-91776190D02*
X144549537Y-91728571D01*
X144549537Y-91728571D02*
X144644775Y-91680952D01*
X144644775Y-91680952D02*
X144740013Y-91680952D01*
X144740013Y-91680952D02*
X144882870Y-91728571D01*
X144882870Y-91728571D02*
X145454299Y-92299999D01*
X145454299Y-92299999D02*
X145454299Y-91680952D01*
X145359060Y-91252380D02*
X145406680Y-91204761D01*
X145406680Y-91204761D02*
X145454299Y-91252380D01*
X145454299Y-91252380D02*
X145406680Y-91299999D01*
X145406680Y-91299999D02*
X145359060Y-91252380D01*
X145359060Y-91252380D02*
X145454299Y-91252380D01*
X144549537Y-90823809D02*
X144501918Y-90776190D01*
X144501918Y-90776190D02*
X144454299Y-90680952D01*
X144454299Y-90680952D02*
X144454299Y-90442857D01*
X144454299Y-90442857D02*
X144501918Y-90347619D01*
X144501918Y-90347619D02*
X144549537Y-90300000D01*
X144549537Y-90300000D02*
X144644775Y-90252381D01*
X144644775Y-90252381D02*
X144740013Y-90252381D01*
X144740013Y-90252381D02*
X144882870Y-90300000D01*
X144882870Y-90300000D02*
X145454299Y-90871428D01*
X145454299Y-90871428D02*
X145454299Y-90252381D01*
X144454299Y-89395238D02*
X144454299Y-89585714D01*
X144454299Y-89585714D02*
X144501918Y-89680952D01*
X144501918Y-89680952D02*
X144549537Y-89728571D01*
X144549537Y-89728571D02*
X144692394Y-89823809D01*
X144692394Y-89823809D02*
X144882870Y-89871428D01*
X144882870Y-89871428D02*
X145263822Y-89871428D01*
X145263822Y-89871428D02*
X145359060Y-89823809D01*
X145359060Y-89823809D02*
X145406680Y-89776190D01*
X145406680Y-89776190D02*
X145454299Y-89680952D01*
X145454299Y-89680952D02*
X145454299Y-89490476D01*
X145454299Y-89490476D02*
X145406680Y-89395238D01*
X145406680Y-89395238D02*
X145359060Y-89347619D01*
X145359060Y-89347619D02*
X145263822Y-89300000D01*
X145263822Y-89300000D02*
X145025727Y-89300000D01*
X145025727Y-89300000D02*
X144930489Y-89347619D01*
X144930489Y-89347619D02*
X144882870Y-89395238D01*
X144882870Y-89395238D02*
X144835251Y-89490476D01*
X144835251Y-89490476D02*
X144835251Y-89680952D01*
X144835251Y-89680952D02*
X144882870Y-89776190D01*
X144882870Y-89776190D02*
X144930489Y-89823809D01*
X144930489Y-89823809D02*
X145025727Y-89871428D01*
D11*
X109388095Y-58654819D02*
X109388095Y-57654819D01*
X109388095Y-58131009D02*
X109959523Y-58131009D01*
X109959523Y-58654819D02*
X109959523Y-57654819D01*
X110959523Y-58654819D02*
X110388095Y-58654819D01*
X110673809Y-58654819D02*
X110673809Y-57654819D01*
X110673809Y-57654819D02*
X110578571Y-57797676D01*
X110578571Y-57797676D02*
X110483333Y-57892914D01*
X110483333Y-57892914D02*
X110388095Y-57940533D01*
X183088095Y-58554819D02*
X183088095Y-57554819D01*
X183088095Y-58031009D02*
X183659523Y-58031009D01*
X183659523Y-58554819D02*
X183659523Y-57554819D01*
X184088095Y-57650057D02*
X184135714Y-57602438D01*
X184135714Y-57602438D02*
X184230952Y-57554819D01*
X184230952Y-57554819D02*
X184469047Y-57554819D01*
X184469047Y-57554819D02*
X184564285Y-57602438D01*
X184564285Y-57602438D02*
X184611904Y-57650057D01*
X184611904Y-57650057D02*
X184659523Y-57745295D01*
X184659523Y-57745295D02*
X184659523Y-57840533D01*
X184659523Y-57840533D02*
X184611904Y-57983390D01*
X184611904Y-57983390D02*
X184040476Y-58554819D01*
X184040476Y-58554819D02*
X184659523Y-58554819D01*
X123239819Y-82433333D02*
X123954104Y-82433333D01*
X123954104Y-82433333D02*
X124096961Y-82480952D01*
X124096961Y-82480952D02*
X124192200Y-82576190D01*
X124192200Y-82576190D02*
X124239819Y-82719047D01*
X124239819Y-82719047D02*
X124239819Y-82814285D01*
X124239819Y-81433333D02*
X124239819Y-82004761D01*
X124239819Y-81719047D02*
X123239819Y-81719047D01*
X123239819Y-81719047D02*
X123382676Y-81814285D01*
X123382676Y-81814285D02*
X123477914Y-81909523D01*
X123477914Y-81909523D02*
X123525533Y-82004761D01*
X144288819Y-82433333D02*
X145003104Y-82433333D01*
X145003104Y-82433333D02*
X145145961Y-82480952D01*
X145145961Y-82480952D02*
X145241200Y-82576190D01*
X145241200Y-82576190D02*
X145288819Y-82719047D01*
X145288819Y-82719047D02*
X145288819Y-82814285D01*
X144384057Y-82004761D02*
X144336438Y-81957142D01*
X144336438Y-81957142D02*
X144288819Y-81861904D01*
X144288819Y-81861904D02*
X144288819Y-81623809D01*
X144288819Y-81623809D02*
X144336438Y-81528571D01*
X144336438Y-81528571D02*
X144384057Y-81480952D01*
X144384057Y-81480952D02*
X144479295Y-81433333D01*
X144479295Y-81433333D02*
X144574533Y-81433333D01*
X144574533Y-81433333D02*
X144717390Y-81480952D01*
X144717390Y-81480952D02*
X145288819Y-82052380D01*
X145288819Y-82052380D02*
X145288819Y-81433333D01*
X159137819Y-82433333D02*
X159852104Y-82433333D01*
X159852104Y-82433333D02*
X159994961Y-82480952D01*
X159994961Y-82480952D02*
X160090200Y-82576190D01*
X160090200Y-82576190D02*
X160137819Y-82719047D01*
X160137819Y-82719047D02*
X160137819Y-82814285D01*
X159137819Y-82052380D02*
X159137819Y-81433333D01*
X159137819Y-81433333D02*
X159518771Y-81766666D01*
X159518771Y-81766666D02*
X159518771Y-81623809D01*
X159518771Y-81623809D02*
X159566390Y-81528571D01*
X159566390Y-81528571D02*
X159614009Y-81480952D01*
X159614009Y-81480952D02*
X159709247Y-81433333D01*
X159709247Y-81433333D02*
X159947342Y-81433333D01*
X159947342Y-81433333D02*
X160042580Y-81480952D01*
X160042580Y-81480952D02*
X160090200Y-81528571D01*
X160090200Y-81528571D02*
X160137819Y-81623809D01*
X160137819Y-81623809D02*
X160137819Y-81909523D01*
X160137819Y-81909523D02*
X160090200Y-82004761D01*
X160090200Y-82004761D02*
X160042580Y-82052380D01*
X169662819Y-82433333D02*
X170377104Y-82433333D01*
X170377104Y-82433333D02*
X170519961Y-82480952D01*
X170519961Y-82480952D02*
X170615200Y-82576190D01*
X170615200Y-82576190D02*
X170662819Y-82719047D01*
X170662819Y-82719047D02*
X170662819Y-82814285D01*
X169996152Y-81528571D02*
X170662819Y-81528571D01*
X169615200Y-81766666D02*
X170329485Y-82004761D01*
X170329485Y-82004761D02*
X170329485Y-81385714D01*
X112714819Y-82433333D02*
X113429104Y-82433333D01*
X113429104Y-82433333D02*
X113571961Y-82480952D01*
X113571961Y-82480952D02*
X113667200Y-82576190D01*
X113667200Y-82576190D02*
X113714819Y-82719047D01*
X113714819Y-82719047D02*
X113714819Y-82814285D01*
X112714819Y-81480952D02*
X112714819Y-81957142D01*
X112714819Y-81957142D02*
X113191009Y-82004761D01*
X113191009Y-82004761D02*
X113143390Y-81957142D01*
X113143390Y-81957142D02*
X113095771Y-81861904D01*
X113095771Y-81861904D02*
X113095771Y-81623809D01*
X113095771Y-81623809D02*
X113143390Y-81528571D01*
X113143390Y-81528571D02*
X113191009Y-81480952D01*
X113191009Y-81480952D02*
X113286247Y-81433333D01*
X113286247Y-81433333D02*
X113524342Y-81433333D01*
X113524342Y-81433333D02*
X113619580Y-81480952D01*
X113619580Y-81480952D02*
X113667200Y-81528571D01*
X113667200Y-81528571D02*
X113714819Y-81623809D01*
X113714819Y-81623809D02*
X113714819Y-81861904D01*
X113714819Y-81861904D02*
X113667200Y-81957142D01*
X113667200Y-81957142D02*
X113619580Y-82004761D01*
X133763819Y-82433333D02*
X134478104Y-82433333D01*
X134478104Y-82433333D02*
X134620961Y-82480952D01*
X134620961Y-82480952D02*
X134716200Y-82576190D01*
X134716200Y-82576190D02*
X134763819Y-82719047D01*
X134763819Y-82719047D02*
X134763819Y-82814285D01*
X133763819Y-81528571D02*
X133763819Y-81719047D01*
X133763819Y-81719047D02*
X133811438Y-81814285D01*
X133811438Y-81814285D02*
X133859057Y-81861904D01*
X133859057Y-81861904D02*
X134001914Y-81957142D01*
X134001914Y-81957142D02*
X134192390Y-82004761D01*
X134192390Y-82004761D02*
X134573342Y-82004761D01*
X134573342Y-82004761D02*
X134668580Y-81957142D01*
X134668580Y-81957142D02*
X134716200Y-81909523D01*
X134716200Y-81909523D02*
X134763819Y-81814285D01*
X134763819Y-81814285D02*
X134763819Y-81623809D01*
X134763819Y-81623809D02*
X134716200Y-81528571D01*
X134716200Y-81528571D02*
X134668580Y-81480952D01*
X134668580Y-81480952D02*
X134573342Y-81433333D01*
X134573342Y-81433333D02*
X134335247Y-81433333D01*
X134335247Y-81433333D02*
X134240009Y-81480952D01*
X134240009Y-81480952D02*
X134192390Y-81528571D01*
X134192390Y-81528571D02*
X134144771Y-81623809D01*
X134144771Y-81623809D02*
X134144771Y-81814285D01*
X134144771Y-81814285D02*
X134192390Y-81909523D01*
X134192390Y-81909523D02*
X134240009Y-81957142D01*
X134240009Y-81957142D02*
X134335247Y-82004761D01*
X148612819Y-82433333D02*
X149327104Y-82433333D01*
X149327104Y-82433333D02*
X149469961Y-82480952D01*
X149469961Y-82480952D02*
X149565200Y-82576190D01*
X149565200Y-82576190D02*
X149612819Y-82719047D01*
X149612819Y-82719047D02*
X149612819Y-82814285D01*
X148612819Y-82052380D02*
X148612819Y-81385714D01*
X148612819Y-81385714D02*
X149612819Y-81814285D01*
X180186819Y-82433333D02*
X180901104Y-82433333D01*
X180901104Y-82433333D02*
X181043961Y-82480952D01*
X181043961Y-82480952D02*
X181139200Y-82576190D01*
X181139200Y-82576190D02*
X181186819Y-82719047D01*
X181186819Y-82719047D02*
X181186819Y-82814285D01*
X180615390Y-81814285D02*
X180567771Y-81909523D01*
X180567771Y-81909523D02*
X180520152Y-81957142D01*
X180520152Y-81957142D02*
X180424914Y-82004761D01*
X180424914Y-82004761D02*
X180377295Y-82004761D01*
X180377295Y-82004761D02*
X180282057Y-81957142D01*
X180282057Y-81957142D02*
X180234438Y-81909523D01*
X180234438Y-81909523D02*
X180186819Y-81814285D01*
X180186819Y-81814285D02*
X180186819Y-81623809D01*
X180186819Y-81623809D02*
X180234438Y-81528571D01*
X180234438Y-81528571D02*
X180282057Y-81480952D01*
X180282057Y-81480952D02*
X180377295Y-81433333D01*
X180377295Y-81433333D02*
X180424914Y-81433333D01*
X180424914Y-81433333D02*
X180520152Y-81480952D01*
X180520152Y-81480952D02*
X180567771Y-81528571D01*
X180567771Y-81528571D02*
X180615390Y-81623809D01*
X180615390Y-81623809D02*
X180615390Y-81814285D01*
X180615390Y-81814285D02*
X180663009Y-81909523D01*
X180663009Y-81909523D02*
X180710628Y-81957142D01*
X180710628Y-81957142D02*
X180805866Y-82004761D01*
X180805866Y-82004761D02*
X180996342Y-82004761D01*
X180996342Y-82004761D02*
X181091580Y-81957142D01*
X181091580Y-81957142D02*
X181139200Y-81909523D01*
X181139200Y-81909523D02*
X181186819Y-81814285D01*
X181186819Y-81814285D02*
X181186819Y-81623809D01*
X181186819Y-81623809D02*
X181139200Y-81528571D01*
X181139200Y-81528571D02*
X181091580Y-81480952D01*
X181091580Y-81480952D02*
X180996342Y-81433333D01*
X180996342Y-81433333D02*
X180805866Y-81433333D01*
X180805866Y-81433333D02*
X180710628Y-81480952D01*
X180710628Y-81480952D02*
X180663009Y-81528571D01*
X180663009Y-81528571D02*
X180615390Y-81623809D01*
D10*
X178561904Y-51454299D02*
X178085714Y-51454299D01*
X178085714Y-51454299D02*
X178038095Y-51930489D01*
X178038095Y-51930489D02*
X178085714Y-51882870D01*
X178085714Y-51882870D02*
X178180952Y-51835251D01*
X178180952Y-51835251D02*
X178419047Y-51835251D01*
X178419047Y-51835251D02*
X178514285Y-51882870D01*
X178514285Y-51882870D02*
X178561904Y-51930489D01*
X178561904Y-51930489D02*
X178609523Y-52025727D01*
X178609523Y-52025727D02*
X178609523Y-52263822D01*
X178609523Y-52263822D02*
X178561904Y-52359060D01*
X178561904Y-52359060D02*
X178514285Y-52406680D01*
X178514285Y-52406680D02*
X178419047Y-52454299D01*
X178419047Y-52454299D02*
X178180952Y-52454299D01*
X178180952Y-52454299D02*
X178085714Y-52406680D01*
X178085714Y-52406680D02*
X178038095Y-52359060D01*
X178990476Y-51549537D02*
X179038095Y-51501918D01*
X179038095Y-51501918D02*
X179133333Y-51454299D01*
X179133333Y-51454299D02*
X179371428Y-51454299D01*
X179371428Y-51454299D02*
X179466666Y-51501918D01*
X179466666Y-51501918D02*
X179514285Y-51549537D01*
X179514285Y-51549537D02*
X179561904Y-51644775D01*
X179561904Y-51644775D02*
X179561904Y-51740013D01*
X179561904Y-51740013D02*
X179514285Y-51882870D01*
X179514285Y-51882870D02*
X178942857Y-52454299D01*
X178942857Y-52454299D02*
X179561904Y-52454299D01*
X112445714Y-57994299D02*
X111874286Y-57994299D01*
X112160000Y-57994299D02*
X112160000Y-56994299D01*
X112160000Y-56994299D02*
X112064762Y-57137156D01*
X112064762Y-57137156D02*
X111969524Y-57232394D01*
X111969524Y-57232394D02*
X111874286Y-57280013D01*
X181561904Y-56994299D02*
X181085714Y-56994299D01*
X181085714Y-56994299D02*
X181038095Y-57470489D01*
X181038095Y-57470489D02*
X181085714Y-57422870D01*
X181085714Y-57422870D02*
X181180952Y-57375251D01*
X181180952Y-57375251D02*
X181419047Y-57375251D01*
X181419047Y-57375251D02*
X181514285Y-57422870D01*
X181514285Y-57422870D02*
X181561904Y-57470489D01*
X181561904Y-57470489D02*
X181609523Y-57565727D01*
X181609523Y-57565727D02*
X181609523Y-57803822D01*
X181609523Y-57803822D02*
X181561904Y-57899060D01*
X181561904Y-57899060D02*
X181514285Y-57946680D01*
X181514285Y-57946680D02*
X181419047Y-57994299D01*
X181419047Y-57994299D02*
X181180952Y-57994299D01*
X181180952Y-57994299D02*
X181085714Y-57946680D01*
X181085714Y-57946680D02*
X181038095Y-57899060D01*
X182561904Y-57994299D02*
X181990476Y-57994299D01*
X182276190Y-57994299D02*
X182276190Y-56994299D01*
X182276190Y-56994299D02*
X182180952Y-57137156D01*
X182180952Y-57137156D02*
X182085714Y-57232394D01*
X182085714Y-57232394D02*
X181990476Y-57280013D01*
X115014286Y-51549537D02*
X115061905Y-51501918D01*
X115061905Y-51501918D02*
X115157143Y-51454299D01*
X115157143Y-51454299D02*
X115395238Y-51454299D01*
X115395238Y-51454299D02*
X115490476Y-51501918D01*
X115490476Y-51501918D02*
X115538095Y-51549537D01*
X115538095Y-51549537D02*
X115585714Y-51644775D01*
X115585714Y-51644775D02*
X115585714Y-51740013D01*
X115585714Y-51740013D02*
X115538095Y-51882870D01*
X115538095Y-51882870D02*
X114966667Y-52454299D01*
X114966667Y-52454299D02*
X115585714Y-52454299D01*
X111874286Y-58949537D02*
X111921905Y-58901918D01*
X111921905Y-58901918D02*
X112017143Y-58854299D01*
X112017143Y-58854299D02*
X112255238Y-58854299D01*
X112255238Y-58854299D02*
X112350476Y-58901918D01*
X112350476Y-58901918D02*
X112398095Y-58949537D01*
X112398095Y-58949537D02*
X112445714Y-59044775D01*
X112445714Y-59044775D02*
X112445714Y-59140013D01*
X112445714Y-59140013D02*
X112398095Y-59282870D01*
X112398095Y-59282870D02*
X111826667Y-59854299D01*
X111826667Y-59854299D02*
X112445714Y-59854299D01*
X112445714Y-62354299D02*
X111874286Y-62354299D01*
X112160000Y-62354299D02*
X112160000Y-61354299D01*
X112160000Y-61354299D02*
X112064762Y-61497156D01*
X112064762Y-61497156D02*
X111969524Y-61592394D01*
X111969524Y-61592394D02*
X111874286Y-61640013D01*
X181561904Y-61354299D02*
X181085714Y-61354299D01*
X181085714Y-61354299D02*
X181038095Y-61830489D01*
X181038095Y-61830489D02*
X181085714Y-61782870D01*
X181085714Y-61782870D02*
X181180952Y-61735251D01*
X181180952Y-61735251D02*
X181419047Y-61735251D01*
X181419047Y-61735251D02*
X181514285Y-61782870D01*
X181514285Y-61782870D02*
X181561904Y-61830489D01*
X181561904Y-61830489D02*
X181609523Y-61925727D01*
X181609523Y-61925727D02*
X181609523Y-62163822D01*
X181609523Y-62163822D02*
X181561904Y-62259060D01*
X181561904Y-62259060D02*
X181514285Y-62306680D01*
X181514285Y-62306680D02*
X181419047Y-62354299D01*
X181419047Y-62354299D02*
X181180952Y-62354299D01*
X181180952Y-62354299D02*
X181085714Y-62306680D01*
X181085714Y-62306680D02*
X181038095Y-62259060D01*
X182561904Y-62354299D02*
X181990476Y-62354299D01*
X182276190Y-62354299D02*
X182276190Y-61354299D01*
X182276190Y-61354299D02*
X182180952Y-61497156D01*
X182180952Y-61497156D02*
X182085714Y-61592394D01*
X182085714Y-61592394D02*
X181990476Y-61640013D01*
X181561904Y-58754299D02*
X181085714Y-58754299D01*
X181085714Y-58754299D02*
X181038095Y-59230489D01*
X181038095Y-59230489D02*
X181085714Y-59182870D01*
X181085714Y-59182870D02*
X181180952Y-59135251D01*
X181180952Y-59135251D02*
X181419047Y-59135251D01*
X181419047Y-59135251D02*
X181514285Y-59182870D01*
X181514285Y-59182870D02*
X181561904Y-59230489D01*
X181561904Y-59230489D02*
X181609523Y-59325727D01*
X181609523Y-59325727D02*
X181609523Y-59563822D01*
X181609523Y-59563822D02*
X181561904Y-59659060D01*
X181561904Y-59659060D02*
X181514285Y-59706680D01*
X181514285Y-59706680D02*
X181419047Y-59754299D01*
X181419047Y-59754299D02*
X181180952Y-59754299D01*
X181180952Y-59754299D02*
X181085714Y-59706680D01*
X181085714Y-59706680D02*
X181038095Y-59659060D01*
X181990476Y-58849537D02*
X182038095Y-58801918D01*
X182038095Y-58801918D02*
X182133333Y-58754299D01*
X182133333Y-58754299D02*
X182371428Y-58754299D01*
X182371428Y-58754299D02*
X182466666Y-58801918D01*
X182466666Y-58801918D02*
X182514285Y-58849537D01*
X182514285Y-58849537D02*
X182561904Y-58944775D01*
X182561904Y-58944775D02*
X182561904Y-59040013D01*
X182561904Y-59040013D02*
X182514285Y-59182870D01*
X182514285Y-59182870D02*
X181942857Y-59754299D01*
X181942857Y-59754299D02*
X182561904Y-59754299D01*
D11*
X105688095Y-136640819D02*
X105688095Y-135640819D01*
X105688095Y-136117009D02*
X106259523Y-136117009D01*
X106259523Y-136640819D02*
X106259523Y-135640819D01*
X106640476Y-135640819D02*
X107259523Y-135640819D01*
X107259523Y-135640819D02*
X106926190Y-136021771D01*
X106926190Y-136021771D02*
X107069047Y-136021771D01*
X107069047Y-136021771D02*
X107164285Y-136069390D01*
X107164285Y-136069390D02*
X107211904Y-136117009D01*
X107211904Y-136117009D02*
X107259523Y-136212247D01*
X107259523Y-136212247D02*
X107259523Y-136450342D01*
X107259523Y-136450342D02*
X107211904Y-136545580D01*
X107211904Y-136545580D02*
X107164285Y-136593200D01*
X107164285Y-136593200D02*
X107069047Y-136640819D01*
X107069047Y-136640819D02*
X106783333Y-136640819D01*
X106783333Y-136640819D02*
X106688095Y-136593200D01*
X106688095Y-136593200D02*
X106640476Y-136545580D01*
X185688095Y-136640819D02*
X185688095Y-135640819D01*
X185688095Y-136117009D02*
X186259523Y-136117009D01*
X186259523Y-136640819D02*
X186259523Y-135640819D01*
X187164285Y-135974152D02*
X187164285Y-136640819D01*
X186926190Y-135593200D02*
X186688095Y-136307485D01*
X186688095Y-136307485D02*
X187307142Y-136307485D01*
D12*
X121895000Y-72990000D02*
X121895000Y-73940000D01*
X120945000Y-72990000D02*
X121895000Y-72990000D01*
X117975000Y-73360000D02*
X117975000Y-90840000D01*
X121895000Y-73940000D02*
X122585000Y-73940000D01*
X121895000Y-91210000D02*
X121895000Y-90260000D01*
X120945000Y-91210000D02*
X121895000Y-91210000D01*
X142944000Y-72990000D02*
X142944000Y-73940000D01*
X141994000Y-72990000D02*
X142944000Y-72990000D01*
X139024000Y-73360000D02*
X139024000Y-90840000D01*
X142944000Y-73940000D02*
X143634000Y-73940000D01*
X142944000Y-91210000D02*
X142944000Y-90260000D01*
X141994000Y-91210000D02*
X142944000Y-91210000D01*
X161573000Y-91210000D02*
X161573000Y-90260000D01*
X162523000Y-91210000D02*
X161573000Y-91210000D01*
X165493000Y-90840000D02*
X165493000Y-73360000D01*
X161573000Y-90260000D02*
X160883000Y-90260000D01*
X161573000Y-72990000D02*
X161573000Y-73940000D01*
X162523000Y-72990000D02*
X161573000Y-72990000D01*
X172098000Y-91210000D02*
X172098000Y-90260000D01*
X173048000Y-91210000D02*
X172098000Y-91210000D01*
X176018000Y-90840000D02*
X176018000Y-73360000D01*
X172098000Y-90260000D02*
X171408000Y-90260000D01*
X172098000Y-72990000D02*
X172098000Y-73940000D01*
X173048000Y-72990000D02*
X172098000Y-72990000D01*
X111370000Y-72990000D02*
X111370000Y-73940000D01*
X110420000Y-72990000D02*
X111370000Y-72990000D01*
X107450000Y-73360000D02*
X107450000Y-90840000D01*
X111370000Y-73940000D02*
X112060000Y-73940000D01*
X111370000Y-91210000D02*
X111370000Y-90260000D01*
X110420000Y-91210000D02*
X111370000Y-91210000D01*
X132419000Y-72990000D02*
X132419000Y-73940000D01*
X131469000Y-72990000D02*
X132419000Y-72990000D01*
X128499000Y-73360000D02*
X128499000Y-90840000D01*
X132419000Y-73940000D02*
X133109000Y-73940000D01*
X132419000Y-91210000D02*
X132419000Y-90260000D01*
X131469000Y-91210000D02*
X132419000Y-91210000D01*
X151048000Y-91210000D02*
X151048000Y-90260000D01*
X151998000Y-91210000D02*
X151048000Y-91210000D01*
X154968000Y-90840000D02*
X154968000Y-73360000D01*
X151048000Y-90260000D02*
X150358000Y-90260000D01*
X151048000Y-72990000D02*
X151048000Y-73940000D01*
X151998000Y-72990000D02*
X151048000Y-72990000D01*
X182622000Y-91210000D02*
X182622000Y-90260000D01*
X183572000Y-91210000D02*
X182622000Y-91210000D01*
X186542000Y-90840000D02*
X186542000Y-73360000D01*
X182622000Y-90260000D02*
X181932000Y-90260000D01*
X182622000Y-72990000D02*
X182622000Y-73940000D01*
X183572000Y-72990000D02*
X182622000Y-72990000D01*
M02*
