G04 #@! TF.GenerationSoftware,KiCad,Pcbnew,5.1.6-1.fc32*
G04 #@! TF.CreationDate,2020-09-21T20:32:52-03:00*
G04 #@! TF.ProjectId,pc104-adapter-bottom,70633130-342d-4616-9461-707465722d62,v2.0*
G04 #@! TF.SameCoordinates,Original*
G04 #@! TF.FileFunction,Legend,Bot*
G04 #@! TF.FilePolarity,Positive*
%FSLAX46Y46*%
G04 Gerber Fmt 4.6, Leading zero omitted, Abs format (unit mm)*
G04 Created by KiCad (PCBNEW 5.1.6-1.fc32) date 2020-09-21 20:32:52*
%MOMM*%
%LPD*%
G01*
G04 APERTURE LIST*
%ADD10C,0.160000*%
%ADD11C,0.010000*%
G04 APERTURE END LIST*
D10*
X159242857Y-88552380D02*
X159242857Y-87552380D01*
X158861904Y-87552380D01*
X158766666Y-87600000D01*
X158719047Y-87647619D01*
X158671428Y-87742857D01*
X158671428Y-87885714D01*
X158719047Y-87980952D01*
X158766666Y-88028571D01*
X158861904Y-88076190D01*
X159242857Y-88076190D01*
X157671428Y-88457142D02*
X157719047Y-88504761D01*
X157861904Y-88552380D01*
X157957142Y-88552380D01*
X158100000Y-88504761D01*
X158195238Y-88409523D01*
X158242857Y-88314285D01*
X158290476Y-88123809D01*
X158290476Y-87980952D01*
X158242857Y-87790476D01*
X158195238Y-87695238D01*
X158100000Y-87600000D01*
X157957142Y-87552380D01*
X157861904Y-87552380D01*
X157719047Y-87600000D01*
X157671428Y-87647619D01*
X157242857Y-88171428D02*
X156480952Y-88171428D01*
X155480952Y-88552380D02*
X156052380Y-88552380D01*
X155766666Y-88552380D02*
X155766666Y-87552380D01*
X155861904Y-87695238D01*
X155957142Y-87790476D01*
X156052380Y-87838095D01*
X154861904Y-87552380D02*
X154766666Y-87552380D01*
X154671428Y-87600000D01*
X154623809Y-87647619D01*
X154576190Y-87742857D01*
X154528571Y-87933333D01*
X154528571Y-88171428D01*
X154576190Y-88361904D01*
X154623809Y-88457142D01*
X154671428Y-88504761D01*
X154766666Y-88552380D01*
X154861904Y-88552380D01*
X154957142Y-88504761D01*
X155004761Y-88457142D01*
X155052380Y-88361904D01*
X155100000Y-88171428D01*
X155100000Y-87933333D01*
X155052380Y-87742857D01*
X155004761Y-87647619D01*
X154957142Y-87600000D01*
X154861904Y-87552380D01*
X153671428Y-87885714D02*
X153671428Y-88552380D01*
X153909523Y-87504761D02*
X154147619Y-88219047D01*
X153528571Y-88219047D01*
X152433333Y-88266666D02*
X151957142Y-88266666D01*
X152528571Y-88552380D02*
X152195238Y-87552380D01*
X151861904Y-88552380D01*
X151100000Y-88552380D02*
X151100000Y-87552380D01*
X151100000Y-88504761D02*
X151195238Y-88552380D01*
X151385714Y-88552380D01*
X151480952Y-88504761D01*
X151528571Y-88457142D01*
X151576190Y-88361904D01*
X151576190Y-88076190D01*
X151528571Y-87980952D01*
X151480952Y-87933333D01*
X151385714Y-87885714D01*
X151195238Y-87885714D01*
X151100000Y-87933333D01*
X150195238Y-88552380D02*
X150195238Y-88028571D01*
X150242857Y-87933333D01*
X150338095Y-87885714D01*
X150528571Y-87885714D01*
X150623809Y-87933333D01*
X150195238Y-88504761D02*
X150290476Y-88552380D01*
X150528571Y-88552380D01*
X150623809Y-88504761D01*
X150671428Y-88409523D01*
X150671428Y-88314285D01*
X150623809Y-88219047D01*
X150528571Y-88171428D01*
X150290476Y-88171428D01*
X150195238Y-88123809D01*
X149719047Y-87885714D02*
X149719047Y-88885714D01*
X149719047Y-87933333D02*
X149623809Y-87885714D01*
X149433333Y-87885714D01*
X149338095Y-87933333D01*
X149290476Y-87980952D01*
X149242857Y-88076190D01*
X149242857Y-88361904D01*
X149290476Y-88457142D01*
X149338095Y-88504761D01*
X149433333Y-88552380D01*
X149623809Y-88552380D01*
X149719047Y-88504761D01*
X148957142Y-87885714D02*
X148576190Y-87885714D01*
X148814285Y-87552380D02*
X148814285Y-88409523D01*
X148766666Y-88504761D01*
X148671428Y-88552380D01*
X148576190Y-88552380D01*
X147861904Y-88504761D02*
X147957142Y-88552380D01*
X148147619Y-88552380D01*
X148242857Y-88504761D01*
X148290476Y-88409523D01*
X148290476Y-88028571D01*
X148242857Y-87933333D01*
X148147619Y-87885714D01*
X147957142Y-87885714D01*
X147861904Y-87933333D01*
X147814285Y-88028571D01*
X147814285Y-88123809D01*
X148290476Y-88219047D01*
X147385714Y-88552380D02*
X147385714Y-87885714D01*
X147385714Y-88076190D02*
X147338095Y-87980952D01*
X147290476Y-87933333D01*
X147195238Y-87885714D01*
X147100000Y-87885714D01*
X145719047Y-88933333D02*
X145766666Y-88885714D01*
X145861904Y-88742857D01*
X145909523Y-88647619D01*
X145957142Y-88504761D01*
X146004761Y-88266666D01*
X146004761Y-88076190D01*
X145957142Y-87838095D01*
X145909523Y-87695238D01*
X145861904Y-87600000D01*
X145766666Y-87457142D01*
X145719047Y-87409523D01*
X145004761Y-88028571D02*
X144861904Y-88076190D01*
X144814285Y-88123809D01*
X144766666Y-88219047D01*
X144766666Y-88361904D01*
X144814285Y-88457142D01*
X144861904Y-88504761D01*
X144957142Y-88552380D01*
X145338095Y-88552380D01*
X145338095Y-87552380D01*
X145004761Y-87552380D01*
X144909523Y-87600000D01*
X144861904Y-87647619D01*
X144814285Y-87742857D01*
X144814285Y-87838095D01*
X144861904Y-87933333D01*
X144909523Y-87980952D01*
X145004761Y-88028571D01*
X145338095Y-88028571D01*
X144195238Y-88552380D02*
X144290476Y-88504761D01*
X144338095Y-88457142D01*
X144385714Y-88361904D01*
X144385714Y-88076190D01*
X144338095Y-87980952D01*
X144290476Y-87933333D01*
X144195238Y-87885714D01*
X144052380Y-87885714D01*
X143957142Y-87933333D01*
X143909523Y-87980952D01*
X143861904Y-88076190D01*
X143861904Y-88361904D01*
X143909523Y-88457142D01*
X143957142Y-88504761D01*
X144052380Y-88552380D01*
X144195238Y-88552380D01*
X143576190Y-87885714D02*
X143195238Y-87885714D01*
X143433333Y-87552380D02*
X143433333Y-88409523D01*
X143385714Y-88504761D01*
X143290476Y-88552380D01*
X143195238Y-88552380D01*
X143004761Y-87885714D02*
X142623809Y-87885714D01*
X142861904Y-87552380D02*
X142861904Y-88409523D01*
X142814285Y-88504761D01*
X142719047Y-88552380D01*
X142623809Y-88552380D01*
X142147619Y-88552380D02*
X142242857Y-88504761D01*
X142290476Y-88457142D01*
X142338095Y-88361904D01*
X142338095Y-88076190D01*
X142290476Y-87980952D01*
X142242857Y-87933333D01*
X142147619Y-87885714D01*
X142004761Y-87885714D01*
X141909523Y-87933333D01*
X141861904Y-87980952D01*
X141814285Y-88076190D01*
X141814285Y-88361904D01*
X141861904Y-88457142D01*
X141909523Y-88504761D01*
X142004761Y-88552380D01*
X142147619Y-88552380D01*
X141385714Y-88552380D02*
X141385714Y-87885714D01*
X141385714Y-87980952D02*
X141338095Y-87933333D01*
X141242857Y-87885714D01*
X141100000Y-87885714D01*
X141004761Y-87933333D01*
X140957142Y-88028571D01*
X140957142Y-88552380D01*
X140957142Y-88028571D02*
X140909523Y-87933333D01*
X140814285Y-87885714D01*
X140671428Y-87885714D01*
X140576190Y-87933333D01*
X140528571Y-88028571D01*
X140528571Y-88552380D01*
X140147619Y-88933333D02*
X140100000Y-88885714D01*
X140004761Y-88742857D01*
X139957142Y-88647619D01*
X139909523Y-88504761D01*
X139861904Y-88266666D01*
X139861904Y-88076190D01*
X139909523Y-87838095D01*
X139957142Y-87695238D01*
X140004761Y-87600000D01*
X140100000Y-87457142D01*
X140147619Y-87409523D01*
X138719047Y-87885714D02*
X138480952Y-88552380D01*
X138242857Y-87885714D01*
X137909523Y-87647619D02*
X137861904Y-87600000D01*
X137766666Y-87552380D01*
X137528571Y-87552380D01*
X137433333Y-87600000D01*
X137385714Y-87647619D01*
X137338095Y-87742857D01*
X137338095Y-87838095D01*
X137385714Y-87980952D01*
X137957142Y-88552380D01*
X137338095Y-88552380D01*
X136909523Y-88457142D02*
X136861904Y-88504761D01*
X136909523Y-88552380D01*
X136957142Y-88504761D01*
X136909523Y-88457142D01*
X136909523Y-88552380D01*
X136242857Y-87552380D02*
X136147619Y-87552380D01*
X136052380Y-87600000D01*
X136004761Y-87647619D01*
X135957142Y-87742857D01*
X135909523Y-87933333D01*
X135909523Y-88171428D01*
X135957142Y-88361904D01*
X136004761Y-88457142D01*
X136052380Y-88504761D01*
X136147619Y-88552380D01*
X136242857Y-88552380D01*
X136338095Y-88504761D01*
X136385714Y-88457142D01*
X136433333Y-88361904D01*
X136480952Y-88171428D01*
X136480952Y-87933333D01*
X136433333Y-87742857D01*
X136385714Y-87647619D01*
X136338095Y-87600000D01*
X136242857Y-87552380D01*
X180470000Y-52516000D02*
X113530000Y-52516000D01*
X180470000Y-63576000D02*
X180470000Y-52516000D01*
X113530000Y-63576000D02*
X180470000Y-63576000D01*
X113530000Y-52516000D02*
X113530000Y-63576000D01*
D11*
G36*
X146099036Y-91798576D02*
G01*
X146023487Y-92199322D01*
X145465959Y-92429154D01*
X145131535Y-92201748D01*
X145037878Y-92138431D01*
X144953218Y-92081896D01*
X144881505Y-92034727D01*
X144826689Y-91999502D01*
X144792720Y-91978805D01*
X144783470Y-91974342D01*
X144766805Y-91985820D01*
X144731194Y-92017551D01*
X144680629Y-92065483D01*
X144619100Y-92125562D01*
X144550601Y-92193733D01*
X144479121Y-92265945D01*
X144408653Y-92338142D01*
X144343189Y-92406273D01*
X144286720Y-92466283D01*
X144243237Y-92514119D01*
X144216732Y-92545727D01*
X144210395Y-92556305D01*
X144219514Y-92575806D01*
X144245080Y-92618531D01*
X144284403Y-92680298D01*
X144334797Y-92756931D01*
X144393573Y-92844248D01*
X144427632Y-92894052D01*
X144489711Y-92984993D01*
X144544874Y-93067059D01*
X144590446Y-93136163D01*
X144623750Y-93188222D01*
X144642110Y-93219150D01*
X144644869Y-93225650D01*
X144638615Y-93244121D01*
X144621566Y-93287172D01*
X144596297Y-93348749D01*
X144565378Y-93422799D01*
X144531382Y-93503270D01*
X144496882Y-93584107D01*
X144464449Y-93659258D01*
X144436657Y-93722671D01*
X144416077Y-93768293D01*
X144405281Y-93790069D01*
X144404644Y-93790926D01*
X144387693Y-93795084D01*
X144342549Y-93804361D01*
X144273890Y-93817844D01*
X144186398Y-93834621D01*
X144084750Y-93853781D01*
X144025444Y-93864830D01*
X143916828Y-93885510D01*
X143818723Y-93905189D01*
X143736091Y-93922789D01*
X143673896Y-93937233D01*
X143637101Y-93947446D01*
X143629704Y-93950686D01*
X143622460Y-93972617D01*
X143616615Y-94022147D01*
X143612165Y-94093485D01*
X143609107Y-94180839D01*
X143607435Y-94278417D01*
X143607147Y-94380426D01*
X143608239Y-94481075D01*
X143610706Y-94574572D01*
X143614544Y-94655125D01*
X143619750Y-94716942D01*
X143626319Y-94754230D01*
X143630259Y-94761993D01*
X143653812Y-94771298D01*
X143703718Y-94784600D01*
X143773377Y-94800337D01*
X143856187Y-94816946D01*
X143885095Y-94822319D01*
X144024469Y-94847848D01*
X144134564Y-94868408D01*
X144219018Y-94884815D01*
X144281470Y-94897887D01*
X144325556Y-94908441D01*
X144354915Y-94917294D01*
X144373185Y-94925263D01*
X144384002Y-94933165D01*
X144385515Y-94934727D01*
X144400623Y-94959886D01*
X144423671Y-95008850D01*
X144452356Y-95075621D01*
X144484378Y-95154205D01*
X144517435Y-95238607D01*
X144549227Y-95322830D01*
X144577451Y-95400879D01*
X144599807Y-95466759D01*
X144613993Y-95514473D01*
X144617707Y-95538027D01*
X144617398Y-95538852D01*
X144604811Y-95558104D01*
X144576256Y-95600463D01*
X144534733Y-95661521D01*
X144483244Y-95736868D01*
X144424789Y-95822096D01*
X144408142Y-95846315D01*
X144348785Y-95934123D01*
X144296553Y-96014238D01*
X144254292Y-96082062D01*
X144224847Y-96132993D01*
X144211063Y-96162431D01*
X144210395Y-96166048D01*
X144221976Y-96185057D01*
X144253976Y-96222714D01*
X144302282Y-96274973D01*
X144362780Y-96337786D01*
X144431356Y-96407106D01*
X144503896Y-96478885D01*
X144576288Y-96549077D01*
X144644416Y-96613635D01*
X144704168Y-96668510D01*
X144751429Y-96709656D01*
X144782087Y-96733026D01*
X144790568Y-96736842D01*
X144810309Y-96727855D01*
X144850726Y-96703616D01*
X144905237Y-96668209D01*
X144947177Y-96639711D01*
X145023171Y-96587418D01*
X145113166Y-96525845D01*
X145203436Y-96464370D01*
X145251968Y-96431469D01*
X145416238Y-96320359D01*
X145554131Y-96394916D01*
X145616951Y-96427578D01*
X145670371Y-96452966D01*
X145706516Y-96467446D01*
X145715716Y-96469460D01*
X145726779Y-96454584D01*
X145748606Y-96412547D01*
X145779566Y-96347227D01*
X145818030Y-96262500D01*
X145862368Y-96162245D01*
X145910953Y-96050339D01*
X145962154Y-95930659D01*
X146014341Y-95807084D01*
X146065887Y-95683491D01*
X146115160Y-95563757D01*
X146160533Y-95451759D01*
X146200375Y-95351377D01*
X146233058Y-95266486D01*
X146256951Y-95200965D01*
X146270426Y-95158690D01*
X146272594Y-95144172D01*
X146255417Y-95125653D01*
X146217810Y-95095590D01*
X146167634Y-95060232D01*
X146163422Y-95057434D01*
X146033736Y-94953625D01*
X145929166Y-94832515D01*
X145850619Y-94697976D01*
X145799001Y-94553882D01*
X145775218Y-94404105D01*
X145780177Y-94252517D01*
X145814783Y-94102992D01*
X145879943Y-93959400D01*
X145899114Y-93927984D01*
X145998826Y-93801125D01*
X146116623Y-93699255D01*
X146248429Y-93622904D01*
X146390167Y-93572602D01*
X146537758Y-93548879D01*
X146687127Y-93552265D01*
X146834197Y-93583288D01*
X146974889Y-93642480D01*
X147105127Y-93730369D01*
X147145414Y-93766042D01*
X147247945Y-93877706D01*
X147322659Y-93995257D01*
X147373910Y-94127020D01*
X147402454Y-94257507D01*
X147409500Y-94404216D01*
X147386004Y-94551653D01*
X147334351Y-94694834D01*
X147256929Y-94828777D01*
X147156125Y-94948498D01*
X147034324Y-95049014D01*
X147018316Y-95059609D01*
X146967602Y-95094306D01*
X146929050Y-95124370D01*
X146910619Y-95143565D01*
X146910351Y-95144172D01*
X146914308Y-95164936D01*
X146929993Y-95212062D01*
X146955778Y-95281673D01*
X146990031Y-95369893D01*
X147031123Y-95472844D01*
X147077424Y-95586650D01*
X147127304Y-95707435D01*
X147179133Y-95831321D01*
X147231281Y-95954432D01*
X147282118Y-96072891D01*
X147330013Y-96182823D01*
X147373338Y-96280349D01*
X147410462Y-96361593D01*
X147439756Y-96422679D01*
X147459588Y-96459730D01*
X147467574Y-96469460D01*
X147491979Y-96461883D01*
X147537642Y-96441560D01*
X147596690Y-96412125D01*
X147629160Y-96394916D01*
X147767053Y-96320359D01*
X147931323Y-96431469D01*
X148015179Y-96488390D01*
X148106987Y-96551030D01*
X148193020Y-96610011D01*
X148236113Y-96639711D01*
X148296723Y-96680410D01*
X148348045Y-96712663D01*
X148383385Y-96732384D01*
X148394863Y-96736554D01*
X148411570Y-96725307D01*
X148448546Y-96693911D01*
X148502205Y-96645624D01*
X148568962Y-96583708D01*
X148645234Y-96511421D01*
X148693473Y-96465008D01*
X148777867Y-96382087D01*
X148850803Y-96307920D01*
X148909331Y-96245680D01*
X148950503Y-96198541D01*
X148971372Y-96169673D01*
X148973374Y-96163815D01*
X148964083Y-96141532D01*
X148938409Y-96096477D01*
X148899200Y-96033211D01*
X148849303Y-95956295D01*
X148791567Y-95870292D01*
X148775149Y-95846315D01*
X148715323Y-95759170D01*
X148661650Y-95680710D01*
X148617130Y-95615345D01*
X148584765Y-95567484D01*
X148567555Y-95541535D01*
X148565893Y-95538852D01*
X148568379Y-95518172D01*
X148581577Y-95472704D01*
X148603186Y-95408444D01*
X148630904Y-95331387D01*
X148662430Y-95247529D01*
X148695463Y-95162866D01*
X148727701Y-95083392D01*
X148756843Y-95015104D01*
X148780588Y-94963997D01*
X148796635Y-94936067D01*
X148797775Y-94934727D01*
X148807588Y-94926745D01*
X148824161Y-94918851D01*
X148851132Y-94910229D01*
X148892139Y-94900062D01*
X148950820Y-94887531D01*
X149030813Y-94871821D01*
X149135755Y-94852113D01*
X149269285Y-94827592D01*
X149298196Y-94822319D01*
X149383882Y-94805764D01*
X149458582Y-94789569D01*
X149515694Y-94775296D01*
X149548617Y-94764508D01*
X149553031Y-94761993D01*
X149560306Y-94739696D01*
X149566219Y-94689869D01*
X149570766Y-94618304D01*
X149573945Y-94530793D01*
X149575749Y-94433128D01*
X149576177Y-94331101D01*
X149575223Y-94230503D01*
X149572884Y-94137127D01*
X149569156Y-94056765D01*
X149564034Y-93995209D01*
X149557516Y-93958250D01*
X149553586Y-93950686D01*
X149531708Y-93943056D01*
X149481891Y-93930642D01*
X149409097Y-93914522D01*
X149318289Y-93895773D01*
X149214431Y-93875471D01*
X149157846Y-93864830D01*
X149050486Y-93844760D01*
X148954746Y-93826580D01*
X148875306Y-93811199D01*
X148816846Y-93799531D01*
X148784045Y-93792488D01*
X148778646Y-93790926D01*
X148769522Y-93773322D01*
X148750235Y-93730918D01*
X148723355Y-93669772D01*
X148691454Y-93595943D01*
X148657102Y-93515489D01*
X148622871Y-93434468D01*
X148591331Y-93358937D01*
X148565054Y-93294955D01*
X148546611Y-93248580D01*
X148538571Y-93225869D01*
X148538422Y-93224876D01*
X148547535Y-93206961D01*
X148573086Y-93165733D01*
X148612388Y-93105291D01*
X148662757Y-93029731D01*
X148721506Y-92943152D01*
X148755658Y-92893421D01*
X148817890Y-92802236D01*
X148873164Y-92719449D01*
X148918782Y-92649249D01*
X148952048Y-92595824D01*
X148970264Y-92563361D01*
X148972895Y-92556083D01*
X148961586Y-92539145D01*
X148930319Y-92502978D01*
X148883090Y-92451635D01*
X148823892Y-92389167D01*
X148756719Y-92319626D01*
X148685566Y-92247065D01*
X148614426Y-92175535D01*
X148547293Y-92109087D01*
X148488161Y-92051774D01*
X148441025Y-92007647D01*
X148409877Y-91980759D01*
X148399457Y-91974342D01*
X148382491Y-91983365D01*
X148341911Y-92008715D01*
X148281663Y-92047810D01*
X148205693Y-92098071D01*
X148117946Y-92156917D01*
X148051756Y-92201748D01*
X147717332Y-92429154D01*
X147438567Y-92314238D01*
X147159803Y-92199322D01*
X147084254Y-91798576D01*
X147008706Y-91397829D01*
X146174585Y-91397829D01*
X146099036Y-91798576D01*
G37*
X146099036Y-91798576D02*
X146023487Y-92199322D01*
X145465959Y-92429154D01*
X145131535Y-92201748D01*
X145037878Y-92138431D01*
X144953218Y-92081896D01*
X144881505Y-92034727D01*
X144826689Y-91999502D01*
X144792720Y-91978805D01*
X144783470Y-91974342D01*
X144766805Y-91985820D01*
X144731194Y-92017551D01*
X144680629Y-92065483D01*
X144619100Y-92125562D01*
X144550601Y-92193733D01*
X144479121Y-92265945D01*
X144408653Y-92338142D01*
X144343189Y-92406273D01*
X144286720Y-92466283D01*
X144243237Y-92514119D01*
X144216732Y-92545727D01*
X144210395Y-92556305D01*
X144219514Y-92575806D01*
X144245080Y-92618531D01*
X144284403Y-92680298D01*
X144334797Y-92756931D01*
X144393573Y-92844248D01*
X144427632Y-92894052D01*
X144489711Y-92984993D01*
X144544874Y-93067059D01*
X144590446Y-93136163D01*
X144623750Y-93188222D01*
X144642110Y-93219150D01*
X144644869Y-93225650D01*
X144638615Y-93244121D01*
X144621566Y-93287172D01*
X144596297Y-93348749D01*
X144565378Y-93422799D01*
X144531382Y-93503270D01*
X144496882Y-93584107D01*
X144464449Y-93659258D01*
X144436657Y-93722671D01*
X144416077Y-93768293D01*
X144405281Y-93790069D01*
X144404644Y-93790926D01*
X144387693Y-93795084D01*
X144342549Y-93804361D01*
X144273890Y-93817844D01*
X144186398Y-93834621D01*
X144084750Y-93853781D01*
X144025444Y-93864830D01*
X143916828Y-93885510D01*
X143818723Y-93905189D01*
X143736091Y-93922789D01*
X143673896Y-93937233D01*
X143637101Y-93947446D01*
X143629704Y-93950686D01*
X143622460Y-93972617D01*
X143616615Y-94022147D01*
X143612165Y-94093485D01*
X143609107Y-94180839D01*
X143607435Y-94278417D01*
X143607147Y-94380426D01*
X143608239Y-94481075D01*
X143610706Y-94574572D01*
X143614544Y-94655125D01*
X143619750Y-94716942D01*
X143626319Y-94754230D01*
X143630259Y-94761993D01*
X143653812Y-94771298D01*
X143703718Y-94784600D01*
X143773377Y-94800337D01*
X143856187Y-94816946D01*
X143885095Y-94822319D01*
X144024469Y-94847848D01*
X144134564Y-94868408D01*
X144219018Y-94884815D01*
X144281470Y-94897887D01*
X144325556Y-94908441D01*
X144354915Y-94917294D01*
X144373185Y-94925263D01*
X144384002Y-94933165D01*
X144385515Y-94934727D01*
X144400623Y-94959886D01*
X144423671Y-95008850D01*
X144452356Y-95075621D01*
X144484378Y-95154205D01*
X144517435Y-95238607D01*
X144549227Y-95322830D01*
X144577451Y-95400879D01*
X144599807Y-95466759D01*
X144613993Y-95514473D01*
X144617707Y-95538027D01*
X144617398Y-95538852D01*
X144604811Y-95558104D01*
X144576256Y-95600463D01*
X144534733Y-95661521D01*
X144483244Y-95736868D01*
X144424789Y-95822096D01*
X144408142Y-95846315D01*
X144348785Y-95934123D01*
X144296553Y-96014238D01*
X144254292Y-96082062D01*
X144224847Y-96132993D01*
X144211063Y-96162431D01*
X144210395Y-96166048D01*
X144221976Y-96185057D01*
X144253976Y-96222714D01*
X144302282Y-96274973D01*
X144362780Y-96337786D01*
X144431356Y-96407106D01*
X144503896Y-96478885D01*
X144576288Y-96549077D01*
X144644416Y-96613635D01*
X144704168Y-96668510D01*
X144751429Y-96709656D01*
X144782087Y-96733026D01*
X144790568Y-96736842D01*
X144810309Y-96727855D01*
X144850726Y-96703616D01*
X144905237Y-96668209D01*
X144947177Y-96639711D01*
X145023171Y-96587418D01*
X145113166Y-96525845D01*
X145203436Y-96464370D01*
X145251968Y-96431469D01*
X145416238Y-96320359D01*
X145554131Y-96394916D01*
X145616951Y-96427578D01*
X145670371Y-96452966D01*
X145706516Y-96467446D01*
X145715716Y-96469460D01*
X145726779Y-96454584D01*
X145748606Y-96412547D01*
X145779566Y-96347227D01*
X145818030Y-96262500D01*
X145862368Y-96162245D01*
X145910953Y-96050339D01*
X145962154Y-95930659D01*
X146014341Y-95807084D01*
X146065887Y-95683491D01*
X146115160Y-95563757D01*
X146160533Y-95451759D01*
X146200375Y-95351377D01*
X146233058Y-95266486D01*
X146256951Y-95200965D01*
X146270426Y-95158690D01*
X146272594Y-95144172D01*
X146255417Y-95125653D01*
X146217810Y-95095590D01*
X146167634Y-95060232D01*
X146163422Y-95057434D01*
X146033736Y-94953625D01*
X145929166Y-94832515D01*
X145850619Y-94697976D01*
X145799001Y-94553882D01*
X145775218Y-94404105D01*
X145780177Y-94252517D01*
X145814783Y-94102992D01*
X145879943Y-93959400D01*
X145899114Y-93927984D01*
X145998826Y-93801125D01*
X146116623Y-93699255D01*
X146248429Y-93622904D01*
X146390167Y-93572602D01*
X146537758Y-93548879D01*
X146687127Y-93552265D01*
X146834197Y-93583288D01*
X146974889Y-93642480D01*
X147105127Y-93730369D01*
X147145414Y-93766042D01*
X147247945Y-93877706D01*
X147322659Y-93995257D01*
X147373910Y-94127020D01*
X147402454Y-94257507D01*
X147409500Y-94404216D01*
X147386004Y-94551653D01*
X147334351Y-94694834D01*
X147256929Y-94828777D01*
X147156125Y-94948498D01*
X147034324Y-95049014D01*
X147018316Y-95059609D01*
X146967602Y-95094306D01*
X146929050Y-95124370D01*
X146910619Y-95143565D01*
X146910351Y-95144172D01*
X146914308Y-95164936D01*
X146929993Y-95212062D01*
X146955778Y-95281673D01*
X146990031Y-95369893D01*
X147031123Y-95472844D01*
X147077424Y-95586650D01*
X147127304Y-95707435D01*
X147179133Y-95831321D01*
X147231281Y-95954432D01*
X147282118Y-96072891D01*
X147330013Y-96182823D01*
X147373338Y-96280349D01*
X147410462Y-96361593D01*
X147439756Y-96422679D01*
X147459588Y-96459730D01*
X147467574Y-96469460D01*
X147491979Y-96461883D01*
X147537642Y-96441560D01*
X147596690Y-96412125D01*
X147629160Y-96394916D01*
X147767053Y-96320359D01*
X147931323Y-96431469D01*
X148015179Y-96488390D01*
X148106987Y-96551030D01*
X148193020Y-96610011D01*
X148236113Y-96639711D01*
X148296723Y-96680410D01*
X148348045Y-96712663D01*
X148383385Y-96732384D01*
X148394863Y-96736554D01*
X148411570Y-96725307D01*
X148448546Y-96693911D01*
X148502205Y-96645624D01*
X148568962Y-96583708D01*
X148645234Y-96511421D01*
X148693473Y-96465008D01*
X148777867Y-96382087D01*
X148850803Y-96307920D01*
X148909331Y-96245680D01*
X148950503Y-96198541D01*
X148971372Y-96169673D01*
X148973374Y-96163815D01*
X148964083Y-96141532D01*
X148938409Y-96096477D01*
X148899200Y-96033211D01*
X148849303Y-95956295D01*
X148791567Y-95870292D01*
X148775149Y-95846315D01*
X148715323Y-95759170D01*
X148661650Y-95680710D01*
X148617130Y-95615345D01*
X148584765Y-95567484D01*
X148567555Y-95541535D01*
X148565893Y-95538852D01*
X148568379Y-95518172D01*
X148581577Y-95472704D01*
X148603186Y-95408444D01*
X148630904Y-95331387D01*
X148662430Y-95247529D01*
X148695463Y-95162866D01*
X148727701Y-95083392D01*
X148756843Y-95015104D01*
X148780588Y-94963997D01*
X148796635Y-94936067D01*
X148797775Y-94934727D01*
X148807588Y-94926745D01*
X148824161Y-94918851D01*
X148851132Y-94910229D01*
X148892139Y-94900062D01*
X148950820Y-94887531D01*
X149030813Y-94871821D01*
X149135755Y-94852113D01*
X149269285Y-94827592D01*
X149298196Y-94822319D01*
X149383882Y-94805764D01*
X149458582Y-94789569D01*
X149515694Y-94775296D01*
X149548617Y-94764508D01*
X149553031Y-94761993D01*
X149560306Y-94739696D01*
X149566219Y-94689869D01*
X149570766Y-94618304D01*
X149573945Y-94530793D01*
X149575749Y-94433128D01*
X149576177Y-94331101D01*
X149575223Y-94230503D01*
X149572884Y-94137127D01*
X149569156Y-94056765D01*
X149564034Y-93995209D01*
X149557516Y-93958250D01*
X149553586Y-93950686D01*
X149531708Y-93943056D01*
X149481891Y-93930642D01*
X149409097Y-93914522D01*
X149318289Y-93895773D01*
X149214431Y-93875471D01*
X149157846Y-93864830D01*
X149050486Y-93844760D01*
X148954746Y-93826580D01*
X148875306Y-93811199D01*
X148816846Y-93799531D01*
X148784045Y-93792488D01*
X148778646Y-93790926D01*
X148769522Y-93773322D01*
X148750235Y-93730918D01*
X148723355Y-93669772D01*
X148691454Y-93595943D01*
X148657102Y-93515489D01*
X148622871Y-93434468D01*
X148591331Y-93358937D01*
X148565054Y-93294955D01*
X148546611Y-93248580D01*
X148538571Y-93225869D01*
X148538422Y-93224876D01*
X148547535Y-93206961D01*
X148573086Y-93165733D01*
X148612388Y-93105291D01*
X148662757Y-93029731D01*
X148721506Y-92943152D01*
X148755658Y-92893421D01*
X148817890Y-92802236D01*
X148873164Y-92719449D01*
X148918782Y-92649249D01*
X148952048Y-92595824D01*
X148970264Y-92563361D01*
X148972895Y-92556083D01*
X148961586Y-92539145D01*
X148930319Y-92502978D01*
X148883090Y-92451635D01*
X148823892Y-92389167D01*
X148756719Y-92319626D01*
X148685566Y-92247065D01*
X148614426Y-92175535D01*
X148547293Y-92109087D01*
X148488161Y-92051774D01*
X148441025Y-92007647D01*
X148409877Y-91980759D01*
X148399457Y-91974342D01*
X148382491Y-91983365D01*
X148341911Y-92008715D01*
X148281663Y-92047810D01*
X148205693Y-92098071D01*
X148117946Y-92156917D01*
X148051756Y-92201748D01*
X147717332Y-92429154D01*
X147438567Y-92314238D01*
X147159803Y-92199322D01*
X147084254Y-91798576D01*
X147008706Y-91397829D01*
X146174585Y-91397829D01*
X146099036Y-91798576D01*
G36*
X144208612Y-97337645D02*
G01*
X144151135Y-97355206D01*
X144114128Y-97377395D01*
X144102073Y-97394942D01*
X144105391Y-97415742D01*
X144126921Y-97448419D01*
X144145126Y-97471562D01*
X144182656Y-97513402D01*
X144210852Y-97531005D01*
X144234889Y-97529856D01*
X144306192Y-97511710D01*
X144358558Y-97512534D01*
X144401082Y-97533098D01*
X144415358Y-97545134D01*
X144461053Y-97587483D01*
X144461053Y-98140526D01*
X144644869Y-98140526D01*
X144644869Y-97338421D01*
X144552961Y-97338421D01*
X144497781Y-97340603D01*
X144469312Y-97348351D01*
X144461057Y-97363468D01*
X144461053Y-97363916D01*
X144457155Y-97379749D01*
X144439526Y-97377684D01*
X144415099Y-97366261D01*
X144364650Y-97345005D01*
X144323684Y-97332216D01*
X144270972Y-97328938D01*
X144208612Y-97337645D01*
G37*
X144208612Y-97337645D02*
X144151135Y-97355206D01*
X144114128Y-97377395D01*
X144102073Y-97394942D01*
X144105391Y-97415742D01*
X144126921Y-97448419D01*
X144145126Y-97471562D01*
X144182656Y-97513402D01*
X144210852Y-97531005D01*
X144234889Y-97529856D01*
X144306192Y-97511710D01*
X144358558Y-97512534D01*
X144401082Y-97533098D01*
X144415358Y-97545134D01*
X144461053Y-97587483D01*
X144461053Y-98140526D01*
X144644869Y-98140526D01*
X144644869Y-97338421D01*
X144552961Y-97338421D01*
X144497781Y-97340603D01*
X144469312Y-97348351D01*
X144461057Y-97363468D01*
X144461053Y-97363916D01*
X144457155Y-97379749D01*
X144439526Y-97377684D01*
X144415099Y-97366261D01*
X144364650Y-97345005D01*
X144323684Y-97332216D01*
X144270972Y-97328938D01*
X144208612Y-97337645D01*
G36*
X147602043Y-97352226D02*
G01*
X147560454Y-97372090D01*
X147520175Y-97400784D01*
X147489490Y-97433809D01*
X147467139Y-97475931D01*
X147451864Y-97531915D01*
X147442408Y-97606528D01*
X147437513Y-97704535D01*
X147435919Y-97830702D01*
X147435894Y-97843914D01*
X147435527Y-98140526D01*
X147619343Y-98140526D01*
X147619343Y-97867081D01*
X147619473Y-97765777D01*
X147620379Y-97692353D01*
X147622827Y-97641271D01*
X147627586Y-97606990D01*
X147635426Y-97583971D01*
X147647115Y-97566673D01*
X147663398Y-97549581D01*
X147720366Y-97512857D01*
X147782555Y-97506042D01*
X147841801Y-97529261D01*
X147862405Y-97546543D01*
X147877530Y-97562791D01*
X147888390Y-97580191D01*
X147895690Y-97604212D01*
X147900137Y-97640322D01*
X147902436Y-97693988D01*
X147903296Y-97770680D01*
X147903422Y-97864043D01*
X147903422Y-98140526D01*
X148087237Y-98140526D01*
X148087237Y-97338421D01*
X147995329Y-97338421D01*
X147940149Y-97340603D01*
X147911680Y-97348351D01*
X147903425Y-97363468D01*
X147903422Y-97363916D01*
X147899592Y-97378720D01*
X147882699Y-97377040D01*
X147849112Y-97360773D01*
X147772937Y-97336840D01*
X147685800Y-97334178D01*
X147602043Y-97352226D01*
G37*
X147602043Y-97352226D02*
X147560454Y-97372090D01*
X147520175Y-97400784D01*
X147489490Y-97433809D01*
X147467139Y-97475931D01*
X147451864Y-97531915D01*
X147442408Y-97606528D01*
X147437513Y-97704535D01*
X147435919Y-97830702D01*
X147435894Y-97843914D01*
X147435527Y-98140526D01*
X147619343Y-98140526D01*
X147619343Y-97867081D01*
X147619473Y-97765777D01*
X147620379Y-97692353D01*
X147622827Y-97641271D01*
X147627586Y-97606990D01*
X147635426Y-97583971D01*
X147647115Y-97566673D01*
X147663398Y-97549581D01*
X147720366Y-97512857D01*
X147782555Y-97506042D01*
X147841801Y-97529261D01*
X147862405Y-97546543D01*
X147877530Y-97562791D01*
X147888390Y-97580191D01*
X147895690Y-97604212D01*
X147900137Y-97640322D01*
X147902436Y-97693988D01*
X147903296Y-97770680D01*
X147903422Y-97864043D01*
X147903422Y-98140526D01*
X148087237Y-98140526D01*
X148087237Y-97338421D01*
X147995329Y-97338421D01*
X147940149Y-97340603D01*
X147911680Y-97348351D01*
X147903425Y-97363468D01*
X147903422Y-97363916D01*
X147899592Y-97378720D01*
X147882699Y-97377040D01*
X147849112Y-97360773D01*
X147772937Y-97336840D01*
X147685800Y-97334178D01*
X147602043Y-97352226D01*
G36*
X143041216Y-97335554D02*
G01*
X142998426Y-97345949D01*
X142916391Y-97384013D01*
X142846243Y-97442149D01*
X142797695Y-97511852D01*
X142791025Y-97527502D01*
X142781876Y-97568496D01*
X142775471Y-97629138D01*
X142773290Y-97690430D01*
X142773290Y-97806316D01*
X143015593Y-97806316D01*
X143115529Y-97806693D01*
X143185931Y-97808987D01*
X143230687Y-97814938D01*
X143253685Y-97826285D01*
X143258811Y-97844771D01*
X143249952Y-97872136D01*
X143234083Y-97904155D01*
X143189816Y-97957592D01*
X143128301Y-97984215D01*
X143053115Y-97983347D01*
X142967947Y-97954371D01*
X142894341Y-97918611D01*
X142833266Y-97966904D01*
X142772190Y-98015197D01*
X142829649Y-98068285D01*
X142906359Y-98118445D01*
X143000698Y-98148688D01*
X143102173Y-98157151D01*
X143200289Y-98141974D01*
X143216119Y-98136824D01*
X143302353Y-98091791D01*
X143366499Y-98024652D01*
X143409909Y-97933405D01*
X143433936Y-97816044D01*
X143434216Y-97813529D01*
X143436367Y-97685627D01*
X143427671Y-97639997D01*
X143257895Y-97639997D01*
X143242303Y-97647013D01*
X143199971Y-97652388D01*
X143137566Y-97655457D01*
X143098019Y-97655921D01*
X143024272Y-97655630D01*
X142978160Y-97653783D01*
X142953900Y-97648912D01*
X142945706Y-97639555D01*
X142947794Y-97624245D01*
X142949545Y-97618322D01*
X142979440Y-97562668D01*
X143026458Y-97517815D01*
X143067951Y-97498105D01*
X143123074Y-97499295D01*
X143178932Y-97523875D01*
X143225788Y-97564570D01*
X143253906Y-97614108D01*
X143257895Y-97639997D01*
X143427671Y-97639997D01*
X143414926Y-97573133D01*
X143372389Y-97478727D01*
X143311253Y-97405088D01*
X143234015Y-97354893D01*
X143143170Y-97330822D01*
X143041216Y-97335554D01*
G37*
X143041216Y-97335554D02*
X142998426Y-97345949D01*
X142916391Y-97384013D01*
X142846243Y-97442149D01*
X142797695Y-97511852D01*
X142791025Y-97527502D01*
X142781876Y-97568496D01*
X142775471Y-97629138D01*
X142773290Y-97690430D01*
X142773290Y-97806316D01*
X143015593Y-97806316D01*
X143115529Y-97806693D01*
X143185931Y-97808987D01*
X143230687Y-97814938D01*
X143253685Y-97826285D01*
X143258811Y-97844771D01*
X143249952Y-97872136D01*
X143234083Y-97904155D01*
X143189816Y-97957592D01*
X143128301Y-97984215D01*
X143053115Y-97983347D01*
X142967947Y-97954371D01*
X142894341Y-97918611D01*
X142833266Y-97966904D01*
X142772190Y-98015197D01*
X142829649Y-98068285D01*
X142906359Y-98118445D01*
X143000698Y-98148688D01*
X143102173Y-98157151D01*
X143200289Y-98141974D01*
X143216119Y-98136824D01*
X143302353Y-98091791D01*
X143366499Y-98024652D01*
X143409909Y-97933405D01*
X143433936Y-97816044D01*
X143434216Y-97813529D01*
X143436367Y-97685627D01*
X143427671Y-97639997D01*
X143257895Y-97639997D01*
X143242303Y-97647013D01*
X143199971Y-97652388D01*
X143137566Y-97655457D01*
X143098019Y-97655921D01*
X143024272Y-97655630D01*
X142978160Y-97653783D01*
X142953900Y-97648912D01*
X142945706Y-97639555D01*
X142947794Y-97624245D01*
X142949545Y-97618322D01*
X142979440Y-97562668D01*
X143026458Y-97517815D01*
X143067951Y-97498105D01*
X143123074Y-97499295D01*
X143178932Y-97523875D01*
X143225788Y-97564570D01*
X143253906Y-97614108D01*
X143257895Y-97639997D01*
X143427671Y-97639997D01*
X143414926Y-97573133D01*
X143372389Y-97478727D01*
X143311253Y-97405088D01*
X143234015Y-97354893D01*
X143143170Y-97330822D01*
X143041216Y-97335554D01*
G36*
X143653424Y-97345419D02*
G01*
X143556605Y-97386549D01*
X143526110Y-97406571D01*
X143487135Y-97437340D01*
X143462669Y-97461533D01*
X143458422Y-97469413D01*
X143470416Y-97486899D01*
X143501113Y-97516570D01*
X143525688Y-97537279D01*
X143592954Y-97591336D01*
X143646070Y-97546642D01*
X143687116Y-97517789D01*
X143727137Y-97507829D01*
X143772941Y-97510261D01*
X143845676Y-97528345D01*
X143895744Y-97565881D01*
X143926171Y-97626562D01*
X143939983Y-97714081D01*
X143939987Y-97714136D01*
X143938792Y-97811958D01*
X143920228Y-97883730D01*
X143883196Y-97932595D01*
X143857950Y-97949143D01*
X143790903Y-97969749D01*
X143719291Y-97969762D01*
X143656985Y-97949768D01*
X143642237Y-97940000D01*
X143605250Y-97915047D01*
X143576332Y-97910958D01*
X143545144Y-97929530D01*
X143510664Y-97962887D01*
X143456088Y-98019196D01*
X143516682Y-98069142D01*
X143610302Y-98125513D01*
X143715875Y-98153293D01*
X143826202Y-98151282D01*
X143898657Y-98132862D01*
X143983344Y-98087310D01*
X144051073Y-98015650D01*
X144081843Y-97965066D01*
X144106764Y-97892488D01*
X144119234Y-97800569D01*
X144119330Y-97700948D01*
X144107130Y-97605267D01*
X144082710Y-97525169D01*
X144078864Y-97516956D01*
X144021907Y-97436413D01*
X143944791Y-97377771D01*
X143853610Y-97342247D01*
X143754457Y-97331057D01*
X143653424Y-97345419D01*
G37*
X143653424Y-97345419D02*
X143556605Y-97386549D01*
X143526110Y-97406571D01*
X143487135Y-97437340D01*
X143462669Y-97461533D01*
X143458422Y-97469413D01*
X143470416Y-97486899D01*
X143501113Y-97516570D01*
X143525688Y-97537279D01*
X143592954Y-97591336D01*
X143646070Y-97546642D01*
X143687116Y-97517789D01*
X143727137Y-97507829D01*
X143772941Y-97510261D01*
X143845676Y-97528345D01*
X143895744Y-97565881D01*
X143926171Y-97626562D01*
X143939983Y-97714081D01*
X143939987Y-97714136D01*
X143938792Y-97811958D01*
X143920228Y-97883730D01*
X143883196Y-97932595D01*
X143857950Y-97949143D01*
X143790903Y-97969749D01*
X143719291Y-97969762D01*
X143656985Y-97949768D01*
X143642237Y-97940000D01*
X143605250Y-97915047D01*
X143576332Y-97910958D01*
X143545144Y-97929530D01*
X143510664Y-97962887D01*
X143456088Y-98019196D01*
X143516682Y-98069142D01*
X143610302Y-98125513D01*
X143715875Y-98153293D01*
X143826202Y-98151282D01*
X143898657Y-98132862D01*
X143983344Y-98087310D01*
X144051073Y-98015650D01*
X144081843Y-97965066D01*
X144106764Y-97892488D01*
X144119234Y-97800569D01*
X144119330Y-97700948D01*
X144107130Y-97605267D01*
X144082710Y-97525169D01*
X144078864Y-97516956D01*
X144021907Y-97436413D01*
X143944791Y-97377771D01*
X143853610Y-97342247D01*
X143754457Y-97331057D01*
X143653424Y-97345419D01*
G36*
X145279869Y-97598533D02*
G01*
X145278290Y-97721089D01*
X145272519Y-97814179D01*
X145261009Y-97881651D01*
X145242210Y-97927355D01*
X145214574Y-97955139D01*
X145176552Y-97968854D01*
X145129474Y-97972358D01*
X145080168Y-97968432D01*
X145042717Y-97954089D01*
X145015572Y-97925478D01*
X144997185Y-97878751D01*
X144986007Y-97810058D01*
X144980489Y-97715550D01*
X144979079Y-97598533D01*
X144979079Y-97338421D01*
X144795264Y-97338421D01*
X144795264Y-98140526D01*
X144887172Y-98140526D01*
X144942578Y-98138281D01*
X144971109Y-98130396D01*
X144979079Y-98115428D01*
X144983880Y-98102097D01*
X145002986Y-98104917D01*
X145041496Y-98123783D01*
X145129761Y-98152887D01*
X145223377Y-98150825D01*
X145313079Y-98119221D01*
X145355796Y-98094257D01*
X145388379Y-98067226D01*
X145412183Y-98033405D01*
X145428561Y-97988068D01*
X145438869Y-97926489D01*
X145444459Y-97843943D01*
X145446688Y-97735705D01*
X145446974Y-97652004D01*
X145446974Y-97338421D01*
X145279869Y-97338421D01*
X145279869Y-97598533D01*
G37*
X145279869Y-97598533D02*
X145278290Y-97721089D01*
X145272519Y-97814179D01*
X145261009Y-97881651D01*
X145242210Y-97927355D01*
X145214574Y-97955139D01*
X145176552Y-97968854D01*
X145129474Y-97972358D01*
X145080168Y-97968432D01*
X145042717Y-97954089D01*
X145015572Y-97925478D01*
X144997185Y-97878751D01*
X144986007Y-97810058D01*
X144980489Y-97715550D01*
X144979079Y-97598533D01*
X144979079Y-97338421D01*
X144795264Y-97338421D01*
X144795264Y-98140526D01*
X144887172Y-98140526D01*
X144942578Y-98138281D01*
X144971109Y-98130396D01*
X144979079Y-98115428D01*
X144983880Y-98102097D01*
X145002986Y-98104917D01*
X145041496Y-98123783D01*
X145129761Y-98152887D01*
X145223377Y-98150825D01*
X145313079Y-98119221D01*
X145355796Y-98094257D01*
X145388379Y-98067226D01*
X145412183Y-98033405D01*
X145428561Y-97988068D01*
X145438869Y-97926489D01*
X145444459Y-97843943D01*
X145446688Y-97735705D01*
X145446974Y-97652004D01*
X145446974Y-97338421D01*
X145279869Y-97338421D01*
X145279869Y-97598533D01*
G36*
X145788331Y-97348310D02*
G01*
X145703808Y-97394340D01*
X145637679Y-97467006D01*
X145606522Y-97526106D01*
X145593145Y-97578305D01*
X145584478Y-97652719D01*
X145580763Y-97738442D01*
X145582246Y-97824569D01*
X145589169Y-97900193D01*
X145597255Y-97940584D01*
X145624535Y-97995840D01*
X145671780Y-98054530D01*
X145728718Y-98105852D01*
X145785076Y-98139005D01*
X145786450Y-98139531D01*
X145856384Y-98154018D01*
X145939263Y-98154377D01*
X146018023Y-98141188D01*
X146048434Y-98130617D01*
X146126761Y-98086201D01*
X146182857Y-98028007D01*
X146219714Y-97950965D01*
X146240320Y-97850001D01*
X146244982Y-97797116D01*
X146244387Y-97730663D01*
X146065264Y-97730663D01*
X146059230Y-97827630D01*
X146041862Y-97901523D01*
X146014260Y-97948736D01*
X145994596Y-97962237D01*
X145944213Y-97971651D01*
X145884327Y-97968864D01*
X145832551Y-97955316D01*
X145818973Y-97947862D01*
X145783151Y-97904451D01*
X145759507Y-97838014D01*
X145749442Y-97757161D01*
X145754358Y-97670502D01*
X145765345Y-97618349D01*
X145796891Y-97557951D01*
X145846689Y-97520197D01*
X145906663Y-97507143D01*
X145968736Y-97520849D01*
X146016418Y-97554372D01*
X146041475Y-97582031D01*
X146056100Y-97609294D01*
X146063071Y-97646190D01*
X146065167Y-97702750D01*
X146065264Y-97730663D01*
X146244387Y-97730663D01*
X146243718Y-97655994D01*
X146220735Y-97540271D01*
X146176028Y-97449941D01*
X146109595Y-97385000D01*
X146021435Y-97345445D01*
X146002505Y-97340858D01*
X145888734Y-97330090D01*
X145788331Y-97348310D01*
G37*
X145788331Y-97348310D02*
X145703808Y-97394340D01*
X145637679Y-97467006D01*
X145606522Y-97526106D01*
X145593145Y-97578305D01*
X145584478Y-97652719D01*
X145580763Y-97738442D01*
X145582246Y-97824569D01*
X145589169Y-97900193D01*
X145597255Y-97940584D01*
X145624535Y-97995840D01*
X145671780Y-98054530D01*
X145728718Y-98105852D01*
X145785076Y-98139005D01*
X145786450Y-98139531D01*
X145856384Y-98154018D01*
X145939263Y-98154377D01*
X146018023Y-98141188D01*
X146048434Y-98130617D01*
X146126761Y-98086201D01*
X146182857Y-98028007D01*
X146219714Y-97950965D01*
X146240320Y-97850001D01*
X146244982Y-97797116D01*
X146244387Y-97730663D01*
X146065264Y-97730663D01*
X146059230Y-97827630D01*
X146041862Y-97901523D01*
X146014260Y-97948736D01*
X145994596Y-97962237D01*
X145944213Y-97971651D01*
X145884327Y-97968864D01*
X145832551Y-97955316D01*
X145818973Y-97947862D01*
X145783151Y-97904451D01*
X145759507Y-97838014D01*
X145749442Y-97757161D01*
X145754358Y-97670502D01*
X145765345Y-97618349D01*
X145796891Y-97557951D01*
X145846689Y-97520197D01*
X145906663Y-97507143D01*
X145968736Y-97520849D01*
X146016418Y-97554372D01*
X146041475Y-97582031D01*
X146056100Y-97609294D01*
X146063071Y-97646190D01*
X146065167Y-97702750D01*
X146065264Y-97730663D01*
X146244387Y-97730663D01*
X146243718Y-97655994D01*
X146220735Y-97540271D01*
X146176028Y-97449941D01*
X146109595Y-97385000D01*
X146021435Y-97345445D01*
X146002505Y-97340858D01*
X145888734Y-97330090D01*
X145788331Y-97348310D01*
G36*
X146581372Y-97335547D02*
G01*
X146518092Y-97347548D01*
X146452443Y-97372648D01*
X146445428Y-97375848D01*
X146395644Y-97402026D01*
X146361166Y-97426353D01*
X146350022Y-97441937D01*
X146360634Y-97467353D01*
X146386412Y-97504853D01*
X146397854Y-97518852D01*
X146445008Y-97573954D01*
X146505799Y-97538086D01*
X146563653Y-97514192D01*
X146630500Y-97501420D01*
X146694606Y-97500613D01*
X146744236Y-97512615D01*
X146756146Y-97520105D01*
X146778828Y-97554450D01*
X146781584Y-97594013D01*
X146764612Y-97624920D01*
X146754573Y-97630913D01*
X146724490Y-97638357D01*
X146671611Y-97647106D01*
X146606425Y-97655467D01*
X146594400Y-97656778D01*
X146489703Y-97674888D01*
X146413768Y-97705651D01*
X146363408Y-97751907D01*
X146335436Y-97816497D01*
X146326722Y-97895387D01*
X146338760Y-97985065D01*
X146377849Y-98055486D01*
X146444145Y-98106777D01*
X146537806Y-98139067D01*
X146641777Y-98151807D01*
X146726562Y-98151654D01*
X146795335Y-98140083D01*
X146842303Y-98124109D01*
X146901650Y-98096275D01*
X146956494Y-98063973D01*
X146975987Y-98049755D01*
X147026119Y-98008835D01*
X146905197Y-97886477D01*
X146836457Y-97931967D01*
X146767512Y-97966133D01*
X146693889Y-97984004D01*
X146623117Y-97985889D01*
X146562726Y-97972101D01*
X146520243Y-97942949D01*
X146506526Y-97918352D01*
X146508583Y-97878904D01*
X146542670Y-97848737D01*
X146608692Y-97827906D01*
X146681026Y-97818279D01*
X146792348Y-97799910D01*
X146875048Y-97765254D01*
X146930235Y-97713297D01*
X146959012Y-97643023D01*
X146962999Y-97559707D01*
X146943307Y-97472681D01*
X146898411Y-97406902D01*
X146827909Y-97362068D01*
X146731399Y-97337879D01*
X146659900Y-97333137D01*
X146581372Y-97335547D01*
G37*
X146581372Y-97335547D02*
X146518092Y-97347548D01*
X146452443Y-97372648D01*
X146445428Y-97375848D01*
X146395644Y-97402026D01*
X146361166Y-97426353D01*
X146350022Y-97441937D01*
X146360634Y-97467353D01*
X146386412Y-97504853D01*
X146397854Y-97518852D01*
X146445008Y-97573954D01*
X146505799Y-97538086D01*
X146563653Y-97514192D01*
X146630500Y-97501420D01*
X146694606Y-97500613D01*
X146744236Y-97512615D01*
X146756146Y-97520105D01*
X146778828Y-97554450D01*
X146781584Y-97594013D01*
X146764612Y-97624920D01*
X146754573Y-97630913D01*
X146724490Y-97638357D01*
X146671611Y-97647106D01*
X146606425Y-97655467D01*
X146594400Y-97656778D01*
X146489703Y-97674888D01*
X146413768Y-97705651D01*
X146363408Y-97751907D01*
X146335436Y-97816497D01*
X146326722Y-97895387D01*
X146338760Y-97985065D01*
X146377849Y-98055486D01*
X146444145Y-98106777D01*
X146537806Y-98139067D01*
X146641777Y-98151807D01*
X146726562Y-98151654D01*
X146795335Y-98140083D01*
X146842303Y-98124109D01*
X146901650Y-98096275D01*
X146956494Y-98063973D01*
X146975987Y-98049755D01*
X147026119Y-98008835D01*
X146905197Y-97886477D01*
X146836457Y-97931967D01*
X146767512Y-97966133D01*
X146693889Y-97984004D01*
X146623117Y-97985889D01*
X146562726Y-97972101D01*
X146520243Y-97942949D01*
X146506526Y-97918352D01*
X146508583Y-97878904D01*
X146542670Y-97848737D01*
X146608692Y-97827906D01*
X146681026Y-97818279D01*
X146792348Y-97799910D01*
X146875048Y-97765254D01*
X146930235Y-97713297D01*
X146959012Y-97643023D01*
X146962999Y-97559707D01*
X146943307Y-97472681D01*
X146898411Y-97406902D01*
X146827909Y-97362068D01*
X146731399Y-97337879D01*
X146659900Y-97333137D01*
X146581372Y-97335547D01*
G36*
X148402982Y-97357027D02*
G01*
X148386330Y-97364866D01*
X148328695Y-97407086D01*
X148274195Y-97468700D01*
X148233501Y-97536543D01*
X148221926Y-97567734D01*
X148211366Y-97623449D01*
X148205069Y-97690781D01*
X148204304Y-97718585D01*
X148204211Y-97806316D01*
X148709150Y-97806316D01*
X148698387Y-97852270D01*
X148671967Y-97906620D01*
X148625778Y-97953591D01*
X148570828Y-97983848D01*
X148535811Y-97990131D01*
X148488323Y-97982506D01*
X148431665Y-97963383D01*
X148412418Y-97954584D01*
X148341241Y-97919036D01*
X148280498Y-97965367D01*
X148245448Y-97996703D01*
X148226798Y-98022567D01*
X148225853Y-98030158D01*
X148242515Y-98048556D01*
X148279030Y-98076515D01*
X148312172Y-98098327D01*
X148401607Y-98137537D01*
X148501871Y-98155285D01*
X148601246Y-98150670D01*
X148680461Y-98126551D01*
X148762120Y-98074884D01*
X148820151Y-98006856D01*
X148856454Y-97918843D01*
X148872928Y-97807216D01*
X148874389Y-97756138D01*
X148868543Y-97639091D01*
X148867825Y-97635686D01*
X148700511Y-97635686D01*
X148695903Y-97646662D01*
X148676964Y-97652715D01*
X148637902Y-97655310D01*
X148572923Y-97655910D01*
X148547903Y-97655921D01*
X148471779Y-97655014D01*
X148423504Y-97651720D01*
X148397540Y-97645181D01*
X148388352Y-97634537D01*
X148388027Y-97631119D01*
X148398513Y-97603956D01*
X148424758Y-97565903D01*
X148436041Y-97552579D01*
X148477928Y-97514896D01*
X148521591Y-97500080D01*
X148545115Y-97498842D01*
X148608757Y-97514329D01*
X148662127Y-97555930D01*
X148695981Y-97616353D01*
X148696581Y-97618322D01*
X148700511Y-97635686D01*
X148867825Y-97635686D01*
X148849101Y-97546928D01*
X148814078Y-97473190D01*
X148771244Y-97420848D01*
X148692052Y-97364092D01*
X148598960Y-97333762D01*
X148499945Y-97331021D01*
X148402982Y-97357027D01*
G37*
X148402982Y-97357027D02*
X148386330Y-97364866D01*
X148328695Y-97407086D01*
X148274195Y-97468700D01*
X148233501Y-97536543D01*
X148221926Y-97567734D01*
X148211366Y-97623449D01*
X148205069Y-97690781D01*
X148204304Y-97718585D01*
X148204211Y-97806316D01*
X148709150Y-97806316D01*
X148698387Y-97852270D01*
X148671967Y-97906620D01*
X148625778Y-97953591D01*
X148570828Y-97983848D01*
X148535811Y-97990131D01*
X148488323Y-97982506D01*
X148431665Y-97963383D01*
X148412418Y-97954584D01*
X148341241Y-97919036D01*
X148280498Y-97965367D01*
X148245448Y-97996703D01*
X148226798Y-98022567D01*
X148225853Y-98030158D01*
X148242515Y-98048556D01*
X148279030Y-98076515D01*
X148312172Y-98098327D01*
X148401607Y-98137537D01*
X148501871Y-98155285D01*
X148601246Y-98150670D01*
X148680461Y-98126551D01*
X148762120Y-98074884D01*
X148820151Y-98006856D01*
X148856454Y-97918843D01*
X148872928Y-97807216D01*
X148874389Y-97756138D01*
X148868543Y-97639091D01*
X148867825Y-97635686D01*
X148700511Y-97635686D01*
X148695903Y-97646662D01*
X148676964Y-97652715D01*
X148637902Y-97655310D01*
X148572923Y-97655910D01*
X148547903Y-97655921D01*
X148471779Y-97655014D01*
X148423504Y-97651720D01*
X148397540Y-97645181D01*
X148388352Y-97634537D01*
X148388027Y-97631119D01*
X148398513Y-97603956D01*
X148424758Y-97565903D01*
X148436041Y-97552579D01*
X148477928Y-97514896D01*
X148521591Y-97500080D01*
X148545115Y-97498842D01*
X148608757Y-97514329D01*
X148662127Y-97555930D01*
X148695981Y-97616353D01*
X148696581Y-97618322D01*
X148700511Y-97635686D01*
X148867825Y-97635686D01*
X148849101Y-97546928D01*
X148814078Y-97473190D01*
X148771244Y-97420848D01*
X148692052Y-97364092D01*
X148598960Y-97333762D01*
X148499945Y-97331021D01*
X148402982Y-97357027D01*
G36*
X149973216Y-97347104D02*
G01*
X149885795Y-97385754D01*
X149819430Y-97450290D01*
X149774024Y-97540812D01*
X149749482Y-97657418D01*
X149747723Y-97675624D01*
X149746344Y-97803984D01*
X149764216Y-97916496D01*
X149800250Y-98007688D01*
X149819545Y-98037022D01*
X149886755Y-98099106D01*
X149972350Y-98139316D01*
X150068110Y-98156003D01*
X150165813Y-98147517D01*
X150240083Y-98121380D01*
X150303953Y-98077335D01*
X150356154Y-98019587D01*
X150357057Y-98018236D01*
X150378256Y-97982593D01*
X150392033Y-97946752D01*
X150400376Y-97901519D01*
X150405273Y-97837701D01*
X150407431Y-97785368D01*
X150408329Y-97737910D01*
X150241257Y-97737910D01*
X150239624Y-97785154D01*
X150233696Y-97848046D01*
X150223239Y-97888407D01*
X150204381Y-97917122D01*
X150186719Y-97933896D01*
X150124106Y-97969016D01*
X150058592Y-97973710D01*
X149997579Y-97948440D01*
X149967072Y-97920124D01*
X149945089Y-97891589D01*
X149932231Y-97864284D01*
X149926588Y-97828750D01*
X149926249Y-97775524D01*
X149927988Y-97726506D01*
X149931729Y-97656482D01*
X149937659Y-97611064D01*
X149948347Y-97581440D01*
X149966361Y-97558797D01*
X149980637Y-97545855D01*
X150040349Y-97511860D01*
X150104766Y-97510165D01*
X150158781Y-97530301D01*
X150204860Y-97572352D01*
X150232311Y-97641428D01*
X150241257Y-97737910D01*
X150408329Y-97737910D01*
X150409401Y-97681299D01*
X150406036Y-97603468D01*
X150395955Y-97544930D01*
X150377774Y-97498737D01*
X150350110Y-97457942D01*
X150339854Y-97445828D01*
X150275722Y-97385474D01*
X150206934Y-97350220D01*
X150122811Y-97335450D01*
X150081791Y-97334243D01*
X149973216Y-97347104D01*
G37*
X149973216Y-97347104D02*
X149885795Y-97385754D01*
X149819430Y-97450290D01*
X149774024Y-97540812D01*
X149749482Y-97657418D01*
X149747723Y-97675624D01*
X149746344Y-97803984D01*
X149764216Y-97916496D01*
X149800250Y-98007688D01*
X149819545Y-98037022D01*
X149886755Y-98099106D01*
X149972350Y-98139316D01*
X150068110Y-98156003D01*
X150165813Y-98147517D01*
X150240083Y-98121380D01*
X150303953Y-98077335D01*
X150356154Y-98019587D01*
X150357057Y-98018236D01*
X150378256Y-97982593D01*
X150392033Y-97946752D01*
X150400376Y-97901519D01*
X150405273Y-97837701D01*
X150407431Y-97785368D01*
X150408329Y-97737910D01*
X150241257Y-97737910D01*
X150239624Y-97785154D01*
X150233696Y-97848046D01*
X150223239Y-97888407D01*
X150204381Y-97917122D01*
X150186719Y-97933896D01*
X150124106Y-97969016D01*
X150058592Y-97973710D01*
X149997579Y-97948440D01*
X149967072Y-97920124D01*
X149945089Y-97891589D01*
X149932231Y-97864284D01*
X149926588Y-97828750D01*
X149926249Y-97775524D01*
X149927988Y-97726506D01*
X149931729Y-97656482D01*
X149937659Y-97611064D01*
X149948347Y-97581440D01*
X149966361Y-97558797D01*
X149980637Y-97545855D01*
X150040349Y-97511860D01*
X150104766Y-97510165D01*
X150158781Y-97530301D01*
X150204860Y-97572352D01*
X150232311Y-97641428D01*
X150241257Y-97737910D01*
X150408329Y-97737910D01*
X150409401Y-97681299D01*
X150406036Y-97603468D01*
X150395955Y-97544930D01*
X150377774Y-97498737D01*
X150350110Y-97457942D01*
X150339854Y-97445828D01*
X150275722Y-97385474D01*
X150206934Y-97350220D01*
X150122811Y-97335450D01*
X150081791Y-97334243D01*
X149973216Y-97347104D01*
G36*
X143898807Y-98596078D02*
G01*
X143818932Y-98616845D01*
X143752038Y-98659705D01*
X143719649Y-98691723D01*
X143666555Y-98767413D01*
X143636127Y-98855216D01*
X143625673Y-98963150D01*
X143625620Y-98971875D01*
X143625527Y-99059605D01*
X144130466Y-99059605D01*
X144119702Y-99105559D01*
X144100268Y-99147178D01*
X144066255Y-99190544D01*
X144059140Y-99197467D01*
X143997997Y-99234935D01*
X143928271Y-99241289D01*
X143848013Y-99216638D01*
X143834408Y-99210000D01*
X143792681Y-99189819D01*
X143764732Y-99178321D01*
X143759855Y-99177258D01*
X143742832Y-99187583D01*
X143710367Y-99212845D01*
X143693886Y-99226650D01*
X143659736Y-99258361D01*
X143648522Y-99279299D01*
X143656305Y-99298560D01*
X143660465Y-99303827D01*
X143688643Y-99326878D01*
X143735138Y-99354892D01*
X143767566Y-99371246D01*
X143859615Y-99400059D01*
X143961524Y-99409395D01*
X144058037Y-99398332D01*
X144085066Y-99390412D01*
X144168724Y-99345581D01*
X144230734Y-99276598D01*
X144271455Y-99182794D01*
X144291245Y-99063498D01*
X144293418Y-99001118D01*
X144287074Y-98910298D01*
X144126843Y-98910298D01*
X144111345Y-98917012D01*
X144069688Y-98922280D01*
X144009124Y-98925389D01*
X143968093Y-98925921D01*
X143894289Y-98925408D01*
X143847707Y-98923006D01*
X143822152Y-98917422D01*
X143811431Y-98907361D01*
X143809343Y-98892763D01*
X143823669Y-98847796D01*
X143859738Y-98803353D01*
X143907185Y-98769242D01*
X143954651Y-98755288D01*
X144019121Y-98767666D01*
X144074930Y-98803452D01*
X144113626Y-98855033D01*
X144126843Y-98910298D01*
X144287074Y-98910298D01*
X144284179Y-98868866D01*
X144255664Y-98763498D01*
X144207271Y-98684178D01*
X144138396Y-98630071D01*
X144048435Y-98600343D01*
X143999700Y-98594618D01*
X143898807Y-98596078D01*
G37*
X143898807Y-98596078D02*
X143818932Y-98616845D01*
X143752038Y-98659705D01*
X143719649Y-98691723D01*
X143666555Y-98767413D01*
X143636127Y-98855216D01*
X143625673Y-98963150D01*
X143625620Y-98971875D01*
X143625527Y-99059605D01*
X144130466Y-99059605D01*
X144119702Y-99105559D01*
X144100268Y-99147178D01*
X144066255Y-99190544D01*
X144059140Y-99197467D01*
X143997997Y-99234935D01*
X143928271Y-99241289D01*
X143848013Y-99216638D01*
X143834408Y-99210000D01*
X143792681Y-99189819D01*
X143764732Y-99178321D01*
X143759855Y-99177258D01*
X143742832Y-99187583D01*
X143710367Y-99212845D01*
X143693886Y-99226650D01*
X143659736Y-99258361D01*
X143648522Y-99279299D01*
X143656305Y-99298560D01*
X143660465Y-99303827D01*
X143688643Y-99326878D01*
X143735138Y-99354892D01*
X143767566Y-99371246D01*
X143859615Y-99400059D01*
X143961524Y-99409395D01*
X144058037Y-99398332D01*
X144085066Y-99390412D01*
X144168724Y-99345581D01*
X144230734Y-99276598D01*
X144271455Y-99182794D01*
X144291245Y-99063498D01*
X144293418Y-99001118D01*
X144287074Y-98910298D01*
X144126843Y-98910298D01*
X144111345Y-98917012D01*
X144069688Y-98922280D01*
X144009124Y-98925389D01*
X143968093Y-98925921D01*
X143894289Y-98925408D01*
X143847707Y-98923006D01*
X143822152Y-98917422D01*
X143811431Y-98907361D01*
X143809343Y-98892763D01*
X143823669Y-98847796D01*
X143859738Y-98803353D01*
X143907185Y-98769242D01*
X143954651Y-98755288D01*
X144019121Y-98767666D01*
X144074930Y-98803452D01*
X144113626Y-98855033D01*
X144126843Y-98910298D01*
X144287074Y-98910298D01*
X144284179Y-98868866D01*
X144255664Y-98763498D01*
X144207271Y-98684178D01*
X144138396Y-98630071D01*
X144048435Y-98600343D01*
X143999700Y-98594618D01*
X143898807Y-98596078D01*
G36*
X144426833Y-98591447D02*
G01*
X144362592Y-98604112D01*
X144326020Y-98622864D01*
X144287547Y-98654017D01*
X144342283Y-98723127D01*
X144376031Y-98764979D01*
X144398947Y-98785398D01*
X144421721Y-98788517D01*
X144455044Y-98778472D01*
X144470686Y-98772789D01*
X144534458Y-98764404D01*
X144592860Y-98782378D01*
X144635736Y-98822982D01*
X144642701Y-98835929D01*
X144650287Y-98870224D01*
X144656141Y-98933427D01*
X144659989Y-99021060D01*
X144661557Y-99128640D01*
X144661579Y-99143944D01*
X144661579Y-99410526D01*
X144845395Y-99410526D01*
X144845395Y-98591710D01*
X144753487Y-98591710D01*
X144700493Y-98593094D01*
X144672885Y-98599252D01*
X144662676Y-98613194D01*
X144661579Y-98626344D01*
X144661579Y-98660978D01*
X144617550Y-98626344D01*
X144567063Y-98602716D01*
X144499240Y-98591033D01*
X144426833Y-98591447D01*
G37*
X144426833Y-98591447D02*
X144362592Y-98604112D01*
X144326020Y-98622864D01*
X144287547Y-98654017D01*
X144342283Y-98723127D01*
X144376031Y-98764979D01*
X144398947Y-98785398D01*
X144421721Y-98788517D01*
X144455044Y-98778472D01*
X144470686Y-98772789D01*
X144534458Y-98764404D01*
X144592860Y-98782378D01*
X144635736Y-98822982D01*
X144642701Y-98835929D01*
X144650287Y-98870224D01*
X144656141Y-98933427D01*
X144659989Y-99021060D01*
X144661557Y-99128640D01*
X144661579Y-99143944D01*
X144661579Y-99410526D01*
X144845395Y-99410526D01*
X144845395Y-98591710D01*
X144753487Y-98591710D01*
X144700493Y-98593094D01*
X144672885Y-98599252D01*
X144662676Y-98613194D01*
X144661579Y-98626344D01*
X144661579Y-98660978D01*
X144617550Y-98626344D01*
X144567063Y-98602716D01*
X144499240Y-98591033D01*
X144426833Y-98591447D01*
G36*
X145220008Y-98596673D02*
G01*
X145149573Y-98613780D01*
X145129213Y-98622844D01*
X145089747Y-98646583D01*
X145059459Y-98673321D01*
X145037048Y-98707699D01*
X145021214Y-98754360D01*
X145010657Y-98817946D01*
X145004076Y-98903099D01*
X145000172Y-99014462D01*
X144998690Y-99088849D01*
X144993235Y-99410526D01*
X145086420Y-99410526D01*
X145142953Y-99408156D01*
X145172078Y-99400055D01*
X145179606Y-99386451D01*
X145183580Y-99371741D01*
X145201348Y-99374554D01*
X145225560Y-99386348D01*
X145286172Y-99404427D01*
X145364071Y-99409299D01*
X145446005Y-99401330D01*
X145518719Y-99380889D01*
X145525241Y-99378051D01*
X145591698Y-99331365D01*
X145635509Y-99266464D01*
X145655668Y-99190600D01*
X145654128Y-99163344D01*
X145489655Y-99163344D01*
X145475163Y-99200024D01*
X145432195Y-99226309D01*
X145362871Y-99240417D01*
X145325823Y-99242290D01*
X145264081Y-99237494D01*
X145223040Y-99218858D01*
X145213027Y-99210000D01*
X145185900Y-99161806D01*
X145179606Y-99118092D01*
X145179606Y-99059605D01*
X145261070Y-99059605D01*
X145355766Y-99064432D01*
X145422187Y-99079613D01*
X145464154Y-99106200D01*
X145473551Y-99118052D01*
X145489655Y-99163344D01*
X145654128Y-99163344D01*
X145651171Y-99111026D01*
X145621015Y-99034995D01*
X145579869Y-98983612D01*
X145554948Y-98961397D01*
X145530552Y-98946798D01*
X145498809Y-98937897D01*
X145451848Y-98932775D01*
X145381796Y-98929515D01*
X145354010Y-98928577D01*
X145179606Y-98922879D01*
X145179862Y-98870091D01*
X145186616Y-98814603D01*
X145211036Y-98781052D01*
X145260370Y-98759618D01*
X145261694Y-98759236D01*
X145331640Y-98750808D01*
X145400086Y-98761816D01*
X145450953Y-98788585D01*
X145471363Y-98801803D01*
X145493346Y-98799974D01*
X145527174Y-98780824D01*
X145547039Y-98767308D01*
X145585894Y-98738432D01*
X145609962Y-98716786D01*
X145613824Y-98710589D01*
X145597921Y-98678519D01*
X145550935Y-98640219D01*
X145530527Y-98627297D01*
X145471857Y-98605041D01*
X145392788Y-98592432D01*
X145304959Y-98589600D01*
X145220008Y-98596673D01*
G37*
X145220008Y-98596673D02*
X145149573Y-98613780D01*
X145129213Y-98622844D01*
X145089747Y-98646583D01*
X145059459Y-98673321D01*
X145037048Y-98707699D01*
X145021214Y-98754360D01*
X145010657Y-98817946D01*
X145004076Y-98903099D01*
X145000172Y-99014462D01*
X144998690Y-99088849D01*
X144993235Y-99410526D01*
X145086420Y-99410526D01*
X145142953Y-99408156D01*
X145172078Y-99400055D01*
X145179606Y-99386451D01*
X145183580Y-99371741D01*
X145201348Y-99374554D01*
X145225560Y-99386348D01*
X145286172Y-99404427D01*
X145364071Y-99409299D01*
X145446005Y-99401330D01*
X145518719Y-99380889D01*
X145525241Y-99378051D01*
X145591698Y-99331365D01*
X145635509Y-99266464D01*
X145655668Y-99190600D01*
X145654128Y-99163344D01*
X145489655Y-99163344D01*
X145475163Y-99200024D01*
X145432195Y-99226309D01*
X145362871Y-99240417D01*
X145325823Y-99242290D01*
X145264081Y-99237494D01*
X145223040Y-99218858D01*
X145213027Y-99210000D01*
X145185900Y-99161806D01*
X145179606Y-99118092D01*
X145179606Y-99059605D01*
X145261070Y-99059605D01*
X145355766Y-99064432D01*
X145422187Y-99079613D01*
X145464154Y-99106200D01*
X145473551Y-99118052D01*
X145489655Y-99163344D01*
X145654128Y-99163344D01*
X145651171Y-99111026D01*
X145621015Y-99034995D01*
X145579869Y-98983612D01*
X145554948Y-98961397D01*
X145530552Y-98946798D01*
X145498809Y-98937897D01*
X145451848Y-98932775D01*
X145381796Y-98929515D01*
X145354010Y-98928577D01*
X145179606Y-98922879D01*
X145179862Y-98870091D01*
X145186616Y-98814603D01*
X145211036Y-98781052D01*
X145260370Y-98759618D01*
X145261694Y-98759236D01*
X145331640Y-98750808D01*
X145400086Y-98761816D01*
X145450953Y-98788585D01*
X145471363Y-98801803D01*
X145493346Y-98799974D01*
X145527174Y-98780824D01*
X145547039Y-98767308D01*
X145585894Y-98738432D01*
X145609962Y-98716786D01*
X145613824Y-98710589D01*
X145597921Y-98678519D01*
X145550935Y-98640219D01*
X145530527Y-98627297D01*
X145471857Y-98605041D01*
X145392788Y-98592432D01*
X145304959Y-98589600D01*
X145220008Y-98596673D01*
G36*
X146225870Y-98595104D02*
G01*
X146159780Y-98600066D01*
X146073374Y-98859079D01*
X145986969Y-99118092D01*
X145959876Y-99026184D01*
X145943572Y-98969384D01*
X145922125Y-98892625D01*
X145898965Y-98808251D01*
X145886720Y-98762993D01*
X145840656Y-98591710D01*
X145650613Y-98591710D01*
X145707418Y-98771349D01*
X145735393Y-98859704D01*
X145769187Y-98966281D01*
X145804480Y-99077454D01*
X145835987Y-99176579D01*
X145907750Y-99402171D01*
X146062714Y-99412253D01*
X146104730Y-99273528D01*
X146130641Y-99187351D01*
X146158917Y-99092347D01*
X146183631Y-99008441D01*
X146184606Y-99005102D01*
X146203065Y-98948248D01*
X146219351Y-98909456D01*
X146230758Y-98894787D01*
X146233102Y-98896483D01*
X146241329Y-98919225D01*
X146256962Y-98967940D01*
X146278096Y-99036502D01*
X146302830Y-99118785D01*
X146316213Y-99164046D01*
X146388689Y-99410526D01*
X146542505Y-99410526D01*
X146665469Y-99022006D01*
X146700012Y-98913022D01*
X146731479Y-98814048D01*
X146758384Y-98729736D01*
X146779241Y-98664734D01*
X146792562Y-98623692D01*
X146796612Y-98611701D01*
X146793406Y-98599423D01*
X146768235Y-98594046D01*
X146715854Y-98594584D01*
X146707655Y-98594990D01*
X146610518Y-98600066D01*
X146546900Y-98834013D01*
X146523516Y-98919333D01*
X146502619Y-98994335D01*
X146486049Y-99052507D01*
X146475646Y-99087337D01*
X146473724Y-99093016D01*
X146465759Y-99086486D01*
X146449696Y-99052654D01*
X146427379Y-98996127D01*
X146400655Y-98921510D01*
X146378063Y-98854107D01*
X146291959Y-98590143D01*
X146225870Y-98595104D01*
G37*
X146225870Y-98595104D02*
X146159780Y-98600066D01*
X146073374Y-98859079D01*
X145986969Y-99118092D01*
X145959876Y-99026184D01*
X145943572Y-98969384D01*
X145922125Y-98892625D01*
X145898965Y-98808251D01*
X145886720Y-98762993D01*
X145840656Y-98591710D01*
X145650613Y-98591710D01*
X145707418Y-98771349D01*
X145735393Y-98859704D01*
X145769187Y-98966281D01*
X145804480Y-99077454D01*
X145835987Y-99176579D01*
X145907750Y-99402171D01*
X146062714Y-99412253D01*
X146104730Y-99273528D01*
X146130641Y-99187351D01*
X146158917Y-99092347D01*
X146183631Y-99008441D01*
X146184606Y-99005102D01*
X146203065Y-98948248D01*
X146219351Y-98909456D01*
X146230758Y-98894787D01*
X146233102Y-98896483D01*
X146241329Y-98919225D01*
X146256962Y-98967940D01*
X146278096Y-99036502D01*
X146302830Y-99118785D01*
X146316213Y-99164046D01*
X146388689Y-99410526D01*
X146542505Y-99410526D01*
X146665469Y-99022006D01*
X146700012Y-98913022D01*
X146731479Y-98814048D01*
X146758384Y-98729736D01*
X146779241Y-98664734D01*
X146792562Y-98623692D01*
X146796612Y-98611701D01*
X146793406Y-98599423D01*
X146768235Y-98594046D01*
X146715854Y-98594584D01*
X146707655Y-98594990D01*
X146610518Y-98600066D01*
X146546900Y-98834013D01*
X146523516Y-98919333D01*
X146502619Y-98994335D01*
X146486049Y-99052507D01*
X146475646Y-99087337D01*
X146473724Y-99093016D01*
X146465759Y-99086486D01*
X146449696Y-99052654D01*
X146427379Y-98996127D01*
X146400655Y-98921510D01*
X146378063Y-98854107D01*
X146291959Y-98590143D01*
X146225870Y-98595104D01*
G36*
X146867369Y-99410526D02*
G01*
X146959277Y-99410526D01*
X147012623Y-99408962D01*
X147040407Y-99402485D01*
X147050410Y-99388418D01*
X147051185Y-99378906D01*
X147052872Y-99359832D01*
X147063510Y-99356174D01*
X147091465Y-99367932D01*
X147113205Y-99378906D01*
X147196668Y-99404911D01*
X147287396Y-99406416D01*
X147361158Y-99387021D01*
X147429846Y-99340165D01*
X147482206Y-99271004D01*
X147510878Y-99189427D01*
X147511608Y-99184866D01*
X147515868Y-99135101D01*
X147517986Y-99063659D01*
X147517816Y-99009626D01*
X147335280Y-99009626D01*
X147331051Y-99081441D01*
X147321432Y-99140634D01*
X147308410Y-99174060D01*
X147259144Y-99219740D01*
X147200650Y-99236115D01*
X147140329Y-99222873D01*
X147088783Y-99183373D01*
X147069262Y-99156807D01*
X147057848Y-99125106D01*
X147052502Y-99078832D01*
X147051185Y-99009328D01*
X147053542Y-98940499D01*
X147059767Y-98880026D01*
X147068592Y-98839556D01*
X147070063Y-98835929D01*
X147105653Y-98792802D01*
X147157600Y-98769124D01*
X147215722Y-98765301D01*
X147269840Y-98781738D01*
X147309774Y-98818840D01*
X147313917Y-98826222D01*
X147326884Y-98871239D01*
X147333948Y-98935967D01*
X147335280Y-99009626D01*
X147517816Y-99009626D01*
X147517729Y-98982230D01*
X147516528Y-98938405D01*
X147508355Y-98829988D01*
X147491370Y-98748588D01*
X147463113Y-98688412D01*
X147421128Y-98643666D01*
X147380368Y-98617400D01*
X147323419Y-98598935D01*
X147252589Y-98592602D01*
X147180059Y-98597760D01*
X147118014Y-98613769D01*
X147085232Y-98632920D01*
X147051185Y-98663732D01*
X147051185Y-98274210D01*
X146867369Y-98274210D01*
X146867369Y-99410526D01*
G37*
X146867369Y-99410526D02*
X146959277Y-99410526D01*
X147012623Y-99408962D01*
X147040407Y-99402485D01*
X147050410Y-99388418D01*
X147051185Y-99378906D01*
X147052872Y-99359832D01*
X147063510Y-99356174D01*
X147091465Y-99367932D01*
X147113205Y-99378906D01*
X147196668Y-99404911D01*
X147287396Y-99406416D01*
X147361158Y-99387021D01*
X147429846Y-99340165D01*
X147482206Y-99271004D01*
X147510878Y-99189427D01*
X147511608Y-99184866D01*
X147515868Y-99135101D01*
X147517986Y-99063659D01*
X147517816Y-99009626D01*
X147335280Y-99009626D01*
X147331051Y-99081441D01*
X147321432Y-99140634D01*
X147308410Y-99174060D01*
X147259144Y-99219740D01*
X147200650Y-99236115D01*
X147140329Y-99222873D01*
X147088783Y-99183373D01*
X147069262Y-99156807D01*
X147057848Y-99125106D01*
X147052502Y-99078832D01*
X147051185Y-99009328D01*
X147053542Y-98940499D01*
X147059767Y-98880026D01*
X147068592Y-98839556D01*
X147070063Y-98835929D01*
X147105653Y-98792802D01*
X147157600Y-98769124D01*
X147215722Y-98765301D01*
X147269840Y-98781738D01*
X147309774Y-98818840D01*
X147313917Y-98826222D01*
X147326884Y-98871239D01*
X147333948Y-98935967D01*
X147335280Y-99009626D01*
X147517816Y-99009626D01*
X147517729Y-98982230D01*
X147516528Y-98938405D01*
X147508355Y-98829988D01*
X147491370Y-98748588D01*
X147463113Y-98688412D01*
X147421128Y-98643666D01*
X147380368Y-98617400D01*
X147323419Y-98598935D01*
X147252589Y-98592602D01*
X147180059Y-98597760D01*
X147118014Y-98613769D01*
X147085232Y-98632920D01*
X147051185Y-98663732D01*
X147051185Y-98274210D01*
X146867369Y-98274210D01*
X146867369Y-99410526D01*
G36*
X147920119Y-98593486D02*
G01*
X147895112Y-98600982D01*
X147887050Y-98617451D01*
X147886711Y-98624886D01*
X147885264Y-98645594D01*
X147875302Y-98648845D01*
X147848388Y-98634648D01*
X147832402Y-98624948D01*
X147781967Y-98604175D01*
X147721728Y-98593904D01*
X147658566Y-98593114D01*
X147599363Y-98600786D01*
X147550998Y-98615898D01*
X147520354Y-98637432D01*
X147514311Y-98664366D01*
X147517361Y-98671660D01*
X147539594Y-98701937D01*
X147574070Y-98739175D01*
X147580306Y-98745195D01*
X147613167Y-98772875D01*
X147641520Y-98781818D01*
X147681173Y-98775576D01*
X147697058Y-98771429D01*
X147746491Y-98761467D01*
X147781248Y-98765947D01*
X147810600Y-98781746D01*
X147837487Y-98802949D01*
X147857290Y-98829614D01*
X147871052Y-98866827D01*
X147879816Y-98919673D01*
X147884626Y-98993237D01*
X147886526Y-99092605D01*
X147886711Y-99152601D01*
X147886711Y-99410526D01*
X148053816Y-99410526D01*
X148053816Y-98591710D01*
X147970264Y-98591710D01*
X147920119Y-98593486D01*
G37*
X147920119Y-98593486D02*
X147895112Y-98600982D01*
X147887050Y-98617451D01*
X147886711Y-98624886D01*
X147885264Y-98645594D01*
X147875302Y-98648845D01*
X147848388Y-98634648D01*
X147832402Y-98624948D01*
X147781967Y-98604175D01*
X147721728Y-98593904D01*
X147658566Y-98593114D01*
X147599363Y-98600786D01*
X147550998Y-98615898D01*
X147520354Y-98637432D01*
X147514311Y-98664366D01*
X147517361Y-98671660D01*
X147539594Y-98701937D01*
X147574070Y-98739175D01*
X147580306Y-98745195D01*
X147613167Y-98772875D01*
X147641520Y-98781818D01*
X147681173Y-98775576D01*
X147697058Y-98771429D01*
X147746491Y-98761467D01*
X147781248Y-98765947D01*
X147810600Y-98781746D01*
X147837487Y-98802949D01*
X147857290Y-98829614D01*
X147871052Y-98866827D01*
X147879816Y-98919673D01*
X147884626Y-98993237D01*
X147886526Y-99092605D01*
X147886711Y-99152601D01*
X147886711Y-99410526D01*
X148053816Y-99410526D01*
X148053816Y-98591710D01*
X147970264Y-98591710D01*
X147920119Y-98593486D01*
G36*
X148439543Y-98598184D02*
G01*
X148360930Y-98619160D01*
X148301084Y-98657180D01*
X148258853Y-98706978D01*
X148245725Y-98728230D01*
X148236032Y-98750492D01*
X148229256Y-98778970D01*
X148224877Y-98818871D01*
X148222376Y-98875401D01*
X148221232Y-98953767D01*
X148220928Y-99059176D01*
X148220922Y-99087142D01*
X148220922Y-99410526D01*
X148301132Y-99410526D01*
X148352294Y-99406943D01*
X148390123Y-99397866D01*
X148399601Y-99392268D01*
X148425512Y-99382606D01*
X148451976Y-99392268D01*
X148495548Y-99404330D01*
X148558840Y-99409185D01*
X148628990Y-99407078D01*
X148693140Y-99398256D01*
X148730593Y-99386937D01*
X148803067Y-99340412D01*
X148848360Y-99275846D01*
X148868722Y-99190000D01*
X148868912Y-99187796D01*
X148867125Y-99149713D01*
X148705527Y-99149713D01*
X148691399Y-99193030D01*
X148668388Y-99217408D01*
X148622196Y-99235845D01*
X148561225Y-99243205D01*
X148499051Y-99239583D01*
X148449249Y-99225074D01*
X148435297Y-99215765D01*
X148410915Y-99172753D01*
X148404737Y-99123857D01*
X148404737Y-99059605D01*
X148497182Y-99059605D01*
X148585005Y-99066366D01*
X148651582Y-99085520D01*
X148692998Y-99115376D01*
X148705527Y-99149713D01*
X148867125Y-99149713D01*
X148864510Y-99094004D01*
X148833576Y-99019847D01*
X148775419Y-98963767D01*
X148767380Y-98958665D01*
X148732837Y-98942055D01*
X148690082Y-98931996D01*
X148630314Y-98927107D01*
X148559310Y-98925983D01*
X148404737Y-98925921D01*
X148404737Y-98861125D01*
X148411294Y-98810850D01*
X148428025Y-98777169D01*
X148429984Y-98775376D01*
X148467217Y-98760642D01*
X148523420Y-98754931D01*
X148585533Y-98757737D01*
X148640490Y-98768556D01*
X148673101Y-98784782D01*
X148690772Y-98797780D01*
X148709431Y-98800262D01*
X148735181Y-98789613D01*
X148774127Y-98763218D01*
X148832370Y-98718465D01*
X148837716Y-98714273D01*
X148834977Y-98698760D01*
X148812124Y-98672960D01*
X148777391Y-98644289D01*
X148739010Y-98620166D01*
X148726952Y-98614470D01*
X148682966Y-98603103D01*
X148618513Y-98594995D01*
X148546503Y-98591743D01*
X148543136Y-98591736D01*
X148439543Y-98598184D01*
G37*
X148439543Y-98598184D02*
X148360930Y-98619160D01*
X148301084Y-98657180D01*
X148258853Y-98706978D01*
X148245725Y-98728230D01*
X148236032Y-98750492D01*
X148229256Y-98778970D01*
X148224877Y-98818871D01*
X148222376Y-98875401D01*
X148221232Y-98953767D01*
X148220928Y-99059176D01*
X148220922Y-99087142D01*
X148220922Y-99410526D01*
X148301132Y-99410526D01*
X148352294Y-99406943D01*
X148390123Y-99397866D01*
X148399601Y-99392268D01*
X148425512Y-99382606D01*
X148451976Y-99392268D01*
X148495548Y-99404330D01*
X148558840Y-99409185D01*
X148628990Y-99407078D01*
X148693140Y-99398256D01*
X148730593Y-99386937D01*
X148803067Y-99340412D01*
X148848360Y-99275846D01*
X148868722Y-99190000D01*
X148868912Y-99187796D01*
X148867125Y-99149713D01*
X148705527Y-99149713D01*
X148691399Y-99193030D01*
X148668388Y-99217408D01*
X148622196Y-99235845D01*
X148561225Y-99243205D01*
X148499051Y-99239583D01*
X148449249Y-99225074D01*
X148435297Y-99215765D01*
X148410915Y-99172753D01*
X148404737Y-99123857D01*
X148404737Y-99059605D01*
X148497182Y-99059605D01*
X148585005Y-99066366D01*
X148651582Y-99085520D01*
X148692998Y-99115376D01*
X148705527Y-99149713D01*
X148867125Y-99149713D01*
X148864510Y-99094004D01*
X148833576Y-99019847D01*
X148775419Y-98963767D01*
X148767380Y-98958665D01*
X148732837Y-98942055D01*
X148690082Y-98931996D01*
X148630314Y-98927107D01*
X148559310Y-98925983D01*
X148404737Y-98925921D01*
X148404737Y-98861125D01*
X148411294Y-98810850D01*
X148428025Y-98777169D01*
X148429984Y-98775376D01*
X148467217Y-98760642D01*
X148523420Y-98754931D01*
X148585533Y-98757737D01*
X148640490Y-98768556D01*
X148673101Y-98784782D01*
X148690772Y-98797780D01*
X148709431Y-98800262D01*
X148735181Y-98789613D01*
X148774127Y-98763218D01*
X148832370Y-98718465D01*
X148837716Y-98714273D01*
X148834977Y-98698760D01*
X148812124Y-98672960D01*
X148777391Y-98644289D01*
X148739010Y-98620166D01*
X148726952Y-98614470D01*
X148682966Y-98603103D01*
X148618513Y-98594995D01*
X148546503Y-98591743D01*
X148543136Y-98591736D01*
X148439543Y-98598184D01*
G36*
X149136640Y-97352468D02*
G01*
X149101408Y-97369874D01*
X149057960Y-97400206D01*
X149026294Y-97433283D01*
X149004606Y-97474817D01*
X148991097Y-97530522D01*
X148983962Y-97606111D01*
X148981400Y-97707296D01*
X148981250Y-97750797D01*
X148981688Y-97846135D01*
X148983504Y-97914271D01*
X148987455Y-97961418D01*
X148994298Y-97993790D01*
X149004789Y-98017600D01*
X149015704Y-98033843D01*
X149085381Y-98102952D01*
X149167434Y-98144521D01*
X149255950Y-98157023D01*
X149345019Y-98138934D01*
X149373237Y-98126142D01*
X149440790Y-98090931D01*
X149440790Y-98642700D01*
X149391488Y-98617205D01*
X149326527Y-98597480D01*
X149246680Y-98592427D01*
X149166948Y-98601756D01*
X149106735Y-98622714D01*
X149056792Y-98662627D01*
X149014119Y-98719741D01*
X149010910Y-98725605D01*
X148997378Y-98753227D01*
X148987495Y-98781068D01*
X148980691Y-98814794D01*
X148976399Y-98860071D01*
X148974049Y-98922562D01*
X148973072Y-99007935D01*
X148972895Y-99104010D01*
X148972895Y-99410526D01*
X149156711Y-99410526D01*
X149156711Y-98845339D01*
X149208125Y-98802077D01*
X149261534Y-98767472D01*
X149312112Y-98761180D01*
X149362970Y-98777372D01*
X149390075Y-98793227D01*
X149410249Y-98815810D01*
X149424597Y-98849940D01*
X149434224Y-98900434D01*
X149440237Y-98972111D01*
X149443740Y-99069788D01*
X149444974Y-99134802D01*
X149449145Y-99402171D01*
X149536875Y-99407222D01*
X149624606Y-99412273D01*
X149624606Y-97753101D01*
X149440790Y-97753101D01*
X149436104Y-97845600D01*
X149420312Y-97909809D01*
X149390817Y-97949759D01*
X149345020Y-97969480D01*
X149298750Y-97973421D01*
X149246372Y-97968892D01*
X149211610Y-97951069D01*
X149189872Y-97927519D01*
X149172760Y-97902189D01*
X149162573Y-97873969D01*
X149158040Y-97834431D01*
X149157891Y-97775142D01*
X149159416Y-97725498D01*
X149162919Y-97650710D01*
X149168133Y-97601611D01*
X149176913Y-97570467D01*
X149191114Y-97549545D01*
X149204516Y-97537452D01*
X149260513Y-97511081D01*
X149326789Y-97506822D01*
X149364844Y-97515906D01*
X149402523Y-97548196D01*
X149427481Y-97611006D01*
X149439578Y-97703894D01*
X149440790Y-97753101D01*
X149624606Y-97753101D01*
X149624606Y-97338421D01*
X149532698Y-97338421D01*
X149477517Y-97340603D01*
X149449048Y-97348351D01*
X149440794Y-97363468D01*
X149440790Y-97363916D01*
X149436960Y-97378720D01*
X149420067Y-97377039D01*
X149386481Y-97360772D01*
X149308222Y-97335887D01*
X149220173Y-97333271D01*
X149136640Y-97352468D01*
G37*
X149136640Y-97352468D02*
X149101408Y-97369874D01*
X149057960Y-97400206D01*
X149026294Y-97433283D01*
X149004606Y-97474817D01*
X148991097Y-97530522D01*
X148983962Y-97606111D01*
X148981400Y-97707296D01*
X148981250Y-97750797D01*
X148981688Y-97846135D01*
X148983504Y-97914271D01*
X148987455Y-97961418D01*
X148994298Y-97993790D01*
X149004789Y-98017600D01*
X149015704Y-98033843D01*
X149085381Y-98102952D01*
X149167434Y-98144521D01*
X149255950Y-98157023D01*
X149345019Y-98138934D01*
X149373237Y-98126142D01*
X149440790Y-98090931D01*
X149440790Y-98642700D01*
X149391488Y-98617205D01*
X149326527Y-98597480D01*
X149246680Y-98592427D01*
X149166948Y-98601756D01*
X149106735Y-98622714D01*
X149056792Y-98662627D01*
X149014119Y-98719741D01*
X149010910Y-98725605D01*
X148997378Y-98753227D01*
X148987495Y-98781068D01*
X148980691Y-98814794D01*
X148976399Y-98860071D01*
X148974049Y-98922562D01*
X148973072Y-99007935D01*
X148972895Y-99104010D01*
X148972895Y-99410526D01*
X149156711Y-99410526D01*
X149156711Y-98845339D01*
X149208125Y-98802077D01*
X149261534Y-98767472D01*
X149312112Y-98761180D01*
X149362970Y-98777372D01*
X149390075Y-98793227D01*
X149410249Y-98815810D01*
X149424597Y-98849940D01*
X149434224Y-98900434D01*
X149440237Y-98972111D01*
X149443740Y-99069788D01*
X149444974Y-99134802D01*
X149449145Y-99402171D01*
X149536875Y-99407222D01*
X149624606Y-99412273D01*
X149624606Y-97753101D01*
X149440790Y-97753101D01*
X149436104Y-97845600D01*
X149420312Y-97909809D01*
X149390817Y-97949759D01*
X149345020Y-97969480D01*
X149298750Y-97973421D01*
X149246372Y-97968892D01*
X149211610Y-97951069D01*
X149189872Y-97927519D01*
X149172760Y-97902189D01*
X149162573Y-97873969D01*
X149158040Y-97834431D01*
X149157891Y-97775142D01*
X149159416Y-97725498D01*
X149162919Y-97650710D01*
X149168133Y-97601611D01*
X149176913Y-97570467D01*
X149191114Y-97549545D01*
X149204516Y-97537452D01*
X149260513Y-97511081D01*
X149326789Y-97506822D01*
X149364844Y-97515906D01*
X149402523Y-97548196D01*
X149427481Y-97611006D01*
X149439578Y-97703894D01*
X149440790Y-97753101D01*
X149624606Y-97753101D01*
X149624606Y-97338421D01*
X149532698Y-97338421D01*
X149477517Y-97340603D01*
X149449048Y-97348351D01*
X149440794Y-97363468D01*
X149440790Y-97363916D01*
X149436960Y-97378720D01*
X149420067Y-97377039D01*
X149386481Y-97360772D01*
X149308222Y-97335887D01*
X149220173Y-97333271D01*
X149136640Y-97352468D01*
G36*
X154800401Y-85561525D02*
G01*
X154774892Y-85630789D01*
X154752049Y-85746661D01*
X154735852Y-85890195D01*
X154730440Y-86005916D01*
X154723026Y-86109987D01*
X154690399Y-86154616D01*
X154610424Y-86164970D01*
X154590417Y-86165132D01*
X154442525Y-86172695D01*
X154301784Y-86191415D01*
X154192150Y-86216793D01*
X154137578Y-86244332D01*
X154135334Y-86250575D01*
X154173970Y-86270538D01*
X154275577Y-86292362D01*
X154418700Y-86311514D01*
X154428238Y-86312488D01*
X154721143Y-86341904D01*
X154751096Y-86560202D01*
X154774224Y-86702783D01*
X154799456Y-86820594D01*
X154811136Y-86860045D01*
X154835384Y-86911491D01*
X154854167Y-86888976D01*
X154868700Y-86838878D01*
X154885866Y-86732579D01*
X154895814Y-86589860D01*
X154896756Y-86539794D01*
X154896268Y-86452449D01*
X154903741Y-86393790D01*
X154933506Y-86355394D01*
X154999889Y-86328837D01*
X155117221Y-86305693D01*
X155299830Y-86277540D01*
X155357962Y-86268639D01*
X155463997Y-86241015D01*
X155491504Y-86209126D01*
X155445667Y-86181376D01*
X155331672Y-86166167D01*
X155294209Y-86165314D01*
X155149940Y-86155998D01*
X155035220Y-86139327D01*
X154964182Y-86119319D01*
X154923000Y-86080647D01*
X154899603Y-86001343D01*
X154882034Y-85860559D01*
X154862911Y-85716548D01*
X154840646Y-85604399D01*
X154824593Y-85557815D01*
X154800401Y-85561525D01*
G37*
X154800401Y-85561525D02*
X154774892Y-85630789D01*
X154752049Y-85746661D01*
X154735852Y-85890195D01*
X154730440Y-86005916D01*
X154723026Y-86109987D01*
X154690399Y-86154616D01*
X154610424Y-86164970D01*
X154590417Y-86165132D01*
X154442525Y-86172695D01*
X154301784Y-86191415D01*
X154192150Y-86216793D01*
X154137578Y-86244332D01*
X154135334Y-86250575D01*
X154173970Y-86270538D01*
X154275577Y-86292362D01*
X154418700Y-86311514D01*
X154428238Y-86312488D01*
X154721143Y-86341904D01*
X154751096Y-86560202D01*
X154774224Y-86702783D01*
X154799456Y-86820594D01*
X154811136Y-86860045D01*
X154835384Y-86911491D01*
X154854167Y-86888976D01*
X154868700Y-86838878D01*
X154885866Y-86732579D01*
X154895814Y-86589860D01*
X154896756Y-86539794D01*
X154896268Y-86452449D01*
X154903741Y-86393790D01*
X154933506Y-86355394D01*
X154999889Y-86328837D01*
X155117221Y-86305693D01*
X155299830Y-86277540D01*
X155357962Y-86268639D01*
X155463997Y-86241015D01*
X155491504Y-86209126D01*
X155445667Y-86181376D01*
X155331672Y-86166167D01*
X155294209Y-86165314D01*
X155149940Y-86155998D01*
X155035220Y-86139327D01*
X154964182Y-86119319D01*
X154923000Y-86080647D01*
X154899603Y-86001343D01*
X154882034Y-85860559D01*
X154862911Y-85716548D01*
X154840646Y-85604399D01*
X154824593Y-85557815D01*
X154800401Y-85561525D01*
G36*
X153373334Y-79899333D02*
G01*
X154711019Y-79899333D01*
X155093995Y-79899876D01*
X155401650Y-79901790D01*
X155643325Y-79905500D01*
X155828359Y-79911431D01*
X155966095Y-79920009D01*
X156065872Y-79931658D01*
X156137032Y-79946804D01*
X156188914Y-79965873D01*
X156190681Y-79966705D01*
X156321311Y-80070426D01*
X156394441Y-80216380D01*
X156407643Y-80382493D01*
X156358489Y-80546688D01*
X156267644Y-80666600D01*
X156233892Y-80696500D01*
X156196911Y-80720001D01*
X156146441Y-80738097D01*
X156072222Y-80751780D01*
X155963994Y-80762045D01*
X155811497Y-80769884D01*
X155604469Y-80776292D01*
X155332653Y-80782261D01*
X155010423Y-80788333D01*
X154668088Y-80794843D01*
X154399447Y-80800977D01*
X154193541Y-80807773D01*
X154039409Y-80816273D01*
X153926092Y-80827514D01*
X153842629Y-80842536D01*
X153778061Y-80862379D01*
X153721426Y-80888082D01*
X153671306Y-80915333D01*
X153459487Y-81080063D01*
X153310136Y-81298774D01*
X153226280Y-81565153D01*
X153210948Y-81872888D01*
X153211071Y-81874877D01*
X153218681Y-82000133D01*
X153223269Y-82082139D01*
X153223946Y-82100724D01*
X153187496Y-82085566D01*
X153092132Y-82045499D01*
X152956940Y-81988546D01*
X152927613Y-81976177D01*
X152632500Y-81851687D01*
X152615606Y-79899333D01*
X151976334Y-79899333D01*
X151976334Y-80548444D01*
X151974582Y-80774796D01*
X151969751Y-80970543D01*
X151962481Y-81120363D01*
X151953409Y-81208932D01*
X151948112Y-81225777D01*
X151897579Y-81236248D01*
X151778781Y-81245246D01*
X151608119Y-81251954D01*
X151401991Y-81255553D01*
X151344862Y-81255878D01*
X151095865Y-81254097D01*
X150887809Y-81244801D01*
X150692359Y-81224794D01*
X150481183Y-81190881D01*
X150225949Y-81139864D01*
X150125207Y-81118294D01*
X149880804Y-81064794D01*
X149706084Y-81023670D01*
X149587873Y-80989895D01*
X149512993Y-80958444D01*
X149468271Y-80924290D01*
X149440530Y-80882407D01*
X149426707Y-80851833D01*
X149383319Y-80668629D01*
X149383698Y-80458183D01*
X149426204Y-80263760D01*
X149451167Y-80206665D01*
X149538655Y-80095818D01*
X149663409Y-79998849D01*
X149689520Y-79984415D01*
X149746934Y-79957963D01*
X149810092Y-79937613D01*
X149890409Y-79922575D01*
X149999301Y-79912056D01*
X150148187Y-79905264D01*
X150348481Y-79901408D01*
X150611602Y-79899695D01*
X150916314Y-79899333D01*
X151976334Y-79899333D01*
X152615606Y-79899333D01*
X152610110Y-79264333D01*
X151200239Y-79264333D01*
X150777151Y-79265027D01*
X150429169Y-79267909D01*
X150146737Y-79274173D01*
X149920302Y-79285018D01*
X149740307Y-79301639D01*
X149597198Y-79325234D01*
X149481420Y-79357000D01*
X149383418Y-79398132D01*
X149293637Y-79449827D01*
X149202522Y-79513283D01*
X149200476Y-79514786D01*
X149081051Y-79626619D01*
X148963009Y-79774854D01*
X148906528Y-79865439D01*
X148841718Y-79998982D01*
X148801357Y-80128650D01*
X148778096Y-80285649D01*
X148766455Y-80460250D01*
X148758595Y-80632661D01*
X148744711Y-80744223D01*
X148709598Y-80805224D01*
X148638049Y-80825952D01*
X148514855Y-80816696D01*
X148324812Y-80787743D01*
X148290239Y-80782434D01*
X147969645Y-80733643D01*
X147931243Y-80630672D01*
X147281000Y-80630672D01*
X147120417Y-80604135D01*
X146983475Y-80585861D01*
X146863564Y-80576674D01*
X146854000Y-80576484D01*
X146740291Y-80565305D01*
X146684389Y-80525333D01*
X146680970Y-80442352D01*
X146724708Y-80302147D01*
X146738150Y-80267251D01*
X146817608Y-80106107D01*
X146900843Y-80010116D01*
X146980227Y-79986062D01*
X147025527Y-80011593D01*
X147057278Y-80066755D01*
X147107343Y-80178508D01*
X147165444Y-80323749D01*
X147171265Y-80339134D01*
X147281000Y-80630672D01*
X147931243Y-80630672D01*
X147768274Y-80193690D01*
X147656410Y-79911750D01*
X147553711Y-79702113D01*
X147449863Y-79554687D01*
X147334550Y-79459379D01*
X147197460Y-79406095D01*
X147028276Y-79384745D01*
X146939624Y-79382866D01*
X146687306Y-79411542D01*
X146490510Y-79495796D01*
X146368815Y-79613341D01*
X146322669Y-79696866D01*
X146259408Y-79834194D01*
X146190729Y-79999514D01*
X146172046Y-80047500D01*
X146109360Y-80205563D01*
X146054902Y-80332957D01*
X146017661Y-80408999D01*
X146010262Y-80419756D01*
X145956725Y-80429436D01*
X145839995Y-80427315D01*
X145680605Y-80414178D01*
X145591615Y-80403760D01*
X145204974Y-80354176D01*
X145081102Y-80137338D01*
X144860487Y-79833737D01*
X144583384Y-79589572D01*
X144259673Y-79411845D01*
X143914642Y-79310309D01*
X143800520Y-79297232D01*
X143617280Y-79285602D01*
X143380465Y-79275976D01*
X143105621Y-79268912D01*
X142808291Y-79264970D01*
X142634059Y-79264333D01*
X141604667Y-79264333D01*
X141604667Y-79899333D01*
X142634150Y-79899333D01*
X143018206Y-79901213D01*
X143328279Y-79907996D01*
X143574992Y-79921393D01*
X143768968Y-79943115D01*
X143920832Y-79974874D01*
X144041205Y-80018383D01*
X144140713Y-80075352D01*
X144229977Y-80147493D01*
X144241666Y-80158340D01*
X144377500Y-80286029D01*
X144038834Y-80261480D01*
X143759110Y-80242513D01*
X143416211Y-80221337D01*
X143031564Y-80199133D01*
X142626592Y-80177080D01*
X142222719Y-80156361D01*
X141841372Y-80138154D01*
X141636417Y-80129103D01*
X140969667Y-80100742D01*
X140969667Y-79264333D01*
X137752334Y-79264333D01*
X137752334Y-79899333D01*
X140334667Y-79899333D01*
X140334667Y-80097984D01*
X138927084Y-80125095D01*
X138403366Y-80136631D01*
X137956191Y-80149879D01*
X137577445Y-80165427D01*
X137259012Y-80183865D01*
X136992776Y-80205782D01*
X136770623Y-80231766D01*
X136584436Y-80262406D01*
X136426101Y-80298291D01*
X136384970Y-80309553D01*
X136122500Y-80384301D01*
X136313000Y-80413846D01*
X136429451Y-80425528D01*
X136606707Y-80435640D01*
X136820909Y-80443117D01*
X137048200Y-80446893D01*
X137053834Y-80446931D01*
X137298878Y-80450641D01*
X137610268Y-80458643D01*
X137969833Y-80470220D01*
X138359401Y-80484653D01*
X138760801Y-80501222D01*
X139155861Y-80519210D01*
X139526409Y-80537898D01*
X139854274Y-80556568D01*
X139903012Y-80559597D01*
X140098534Y-80572953D01*
X140224142Y-80586062D01*
X140294478Y-80602990D01*
X140324185Y-80627802D01*
X140327906Y-80664563D01*
X140326345Y-80677127D01*
X140320677Y-80703213D01*
X140305831Y-80723802D01*
X140272593Y-80739651D01*
X140211752Y-80751520D01*
X140114096Y-80760168D01*
X139970411Y-80766351D01*
X139771486Y-80770830D01*
X139508108Y-80774363D01*
X139171065Y-80777708D01*
X139096417Y-80778399D01*
X137879334Y-80789631D01*
X137879334Y-81296333D01*
X140334667Y-81296333D01*
X140334667Y-82227666D01*
X137752334Y-82227666D01*
X137752334Y-82862666D01*
X140969667Y-82862666D01*
X140969667Y-80614795D01*
X141213084Y-80638777D01*
X141334142Y-80649981D01*
X141520884Y-80666375D01*
X141754597Y-80686355D01*
X142016571Y-80708321D01*
X142260834Y-80728447D01*
X142582928Y-80756173D01*
X142941679Y-80789389D01*
X143302874Y-80824785D01*
X143632298Y-80859051D01*
X143784777Y-80875901D01*
X144026964Y-80902943D01*
X144243351Y-80926211D01*
X144418395Y-80944103D01*
X144536555Y-80955020D01*
X144578527Y-80957666D01*
X144624244Y-80973302D01*
X144646591Y-81033278D01*
X144652662Y-81157199D01*
X144652667Y-81162571D01*
X144624057Y-81357460D01*
X144547991Y-81572923D01*
X144439111Y-81778355D01*
X144312063Y-81943148D01*
X144254577Y-81994593D01*
X144160145Y-82061912D01*
X144065988Y-82114962D01*
X143960783Y-82155418D01*
X143833205Y-82184956D01*
X143671931Y-82205250D01*
X143465635Y-82217975D01*
X143202994Y-82224806D01*
X142872683Y-82227418D01*
X142678845Y-82227666D01*
X141604667Y-82227666D01*
X141604667Y-82867502D01*
X142802954Y-82854501D01*
X144001242Y-82841500D01*
X144324189Y-82681804D01*
X144642495Y-82480102D01*
X144904503Y-82222007D01*
X145103061Y-81917617D01*
X145231014Y-81577026D01*
X145272717Y-81343101D01*
X145300723Y-81075149D01*
X145506793Y-81094949D01*
X145630186Y-81110017D01*
X145713544Y-81126201D01*
X145731784Y-81133671D01*
X145723234Y-81177156D01*
X145688277Y-81287220D01*
X145631207Y-81451540D01*
X145556321Y-81657794D01*
X145467914Y-81893656D01*
X145455686Y-81925761D01*
X145364616Y-82166371D01*
X145284959Y-82380534D01*
X145221354Y-82555470D01*
X145178440Y-82678402D01*
X145160856Y-82736551D01*
X145160667Y-82738464D01*
X145199512Y-82757482D01*
X145302158Y-82771493D01*
X145447773Y-82777865D01*
X145473638Y-82778000D01*
X145640648Y-82774625D01*
X145741637Y-82761832D01*
X145795079Y-82735616D01*
X145815391Y-82703916D01*
X145839435Y-82641026D01*
X145887826Y-82513695D01*
X145954965Y-82336678D01*
X146035257Y-82124731D01*
X146100445Y-81952500D01*
X146186164Y-81728467D01*
X146262846Y-81532793D01*
X146325062Y-81378957D01*
X146367384Y-81280437D01*
X146383108Y-81250649D01*
X146432038Y-81249162D01*
X146548386Y-81261844D01*
X146716493Y-81286544D01*
X146920699Y-81321106D01*
X146998783Y-81335316D01*
X147588065Y-81444500D01*
X147841175Y-82111250D01*
X148094286Y-82778000D01*
X148405476Y-82778000D01*
X148581160Y-82772911D01*
X148681439Y-82756654D01*
X148715017Y-82727739D01*
X148715091Y-82725083D01*
X148699900Y-82667701D01*
X148659423Y-82547925D01*
X148599454Y-82382116D01*
X148525786Y-82186638D01*
X148508983Y-82143000D01*
X148434694Y-81947600D01*
X148374304Y-81782595D01*
X148333092Y-81662890D01*
X148316336Y-81603387D01*
X148316568Y-81599685D01*
X148363746Y-81601276D01*
X148481148Y-81623660D01*
X148657730Y-81663879D01*
X148882448Y-81718975D01*
X149144257Y-81785991D01*
X149432114Y-81861970D01*
X149734976Y-81943954D01*
X150041798Y-82028986D01*
X150341536Y-82114109D01*
X150623147Y-82196365D01*
X150875586Y-82272797D01*
X151087809Y-82340448D01*
X151108500Y-82347318D01*
X151390055Y-82441731D01*
X151601419Y-82514541D01*
X151752857Y-82570510D01*
X151854636Y-82614400D01*
X151917022Y-82650972D01*
X151950280Y-82684989D01*
X151964677Y-82721211D01*
X151968562Y-82746250D01*
X151980713Y-82810542D01*
X152012229Y-82845358D01*
X152084026Y-82859721D01*
X152217018Y-82862654D01*
X152238401Y-82862666D01*
X152398895Y-82876188D01*
X152580357Y-82919509D01*
X152793318Y-82996759D01*
X153048309Y-83112069D01*
X153355858Y-83269570D01*
X153563834Y-83382635D01*
X154182103Y-83753197D01*
X154716882Y-84135714D01*
X155168556Y-84530604D01*
X155537512Y-84938292D01*
X155824138Y-85359198D01*
X156028820Y-85793744D01*
X156142839Y-86194583D01*
X156190930Y-86434654D01*
X156304115Y-86182444D01*
X156441036Y-85779873D01*
X156493641Y-85370963D01*
X156461962Y-84956731D01*
X156346030Y-84538195D01*
X156246622Y-84307061D01*
X156148141Y-84119479D01*
X156042086Y-83956955D01*
X155909793Y-83794358D01*
X155732599Y-83606559D01*
X155707759Y-83581464D01*
X155537271Y-83417454D01*
X155358746Y-83258310D01*
X155195660Y-83124333D01*
X155091444Y-83048495D01*
X154841055Y-82883833D01*
X155927528Y-82872535D01*
X157014000Y-82861237D01*
X157014000Y-82227666D01*
X155585250Y-82227042D01*
X155160852Y-82225919D01*
X154814889Y-82222811D01*
X154541148Y-82217505D01*
X154333416Y-82209783D01*
X154185480Y-82199431D01*
X154091126Y-82186232D01*
X154050667Y-82173791D01*
X153963085Y-82101544D01*
X153881657Y-81990193D01*
X153868450Y-81965232D01*
X153820629Y-81842125D01*
X153817713Y-81731047D01*
X153838362Y-81637369D01*
X153864580Y-81549248D01*
X153896753Y-81478995D01*
X153944167Y-81424373D01*
X154016107Y-81383143D01*
X154121860Y-81353070D01*
X154270710Y-81331915D01*
X154471944Y-81317442D01*
X154734847Y-81307412D01*
X155068705Y-81299590D01*
X155255218Y-81295993D01*
X155615947Y-81288778D01*
X155902839Y-81280873D01*
X156126710Y-81270280D01*
X156298380Y-81255000D01*
X156428667Y-81233035D01*
X156528389Y-81202385D01*
X156608365Y-81161052D01*
X156679412Y-81107038D01*
X156752349Y-81038342D01*
X156775720Y-81015068D01*
X156938686Y-80797423D01*
X157037059Y-80546625D01*
X157070832Y-80280096D01*
X157040002Y-80015256D01*
X156944564Y-79769526D01*
X156784514Y-79560328D01*
X156776087Y-79552329D01*
X156701983Y-79485133D01*
X156631143Y-79430263D01*
X156554338Y-79386382D01*
X156462338Y-79352152D01*
X156345912Y-79326235D01*
X156195829Y-79307294D01*
X156002861Y-79293991D01*
X155757776Y-79284989D01*
X155451345Y-79278951D01*
X155074337Y-79274538D01*
X154844417Y-79272416D01*
X153373334Y-79259333D01*
X153373334Y-79899333D01*
G37*
X153373334Y-79899333D02*
X154711019Y-79899333D01*
X155093995Y-79899876D01*
X155401650Y-79901790D01*
X155643325Y-79905500D01*
X155828359Y-79911431D01*
X155966095Y-79920009D01*
X156065872Y-79931658D01*
X156137032Y-79946804D01*
X156188914Y-79965873D01*
X156190681Y-79966705D01*
X156321311Y-80070426D01*
X156394441Y-80216380D01*
X156407643Y-80382493D01*
X156358489Y-80546688D01*
X156267644Y-80666600D01*
X156233892Y-80696500D01*
X156196911Y-80720001D01*
X156146441Y-80738097D01*
X156072222Y-80751780D01*
X155963994Y-80762045D01*
X155811497Y-80769884D01*
X155604469Y-80776292D01*
X155332653Y-80782261D01*
X155010423Y-80788333D01*
X154668088Y-80794843D01*
X154399447Y-80800977D01*
X154193541Y-80807773D01*
X154039409Y-80816273D01*
X153926092Y-80827514D01*
X153842629Y-80842536D01*
X153778061Y-80862379D01*
X153721426Y-80888082D01*
X153671306Y-80915333D01*
X153459487Y-81080063D01*
X153310136Y-81298774D01*
X153226280Y-81565153D01*
X153210948Y-81872888D01*
X153211071Y-81874877D01*
X153218681Y-82000133D01*
X153223269Y-82082139D01*
X153223946Y-82100724D01*
X153187496Y-82085566D01*
X153092132Y-82045499D01*
X152956940Y-81988546D01*
X152927613Y-81976177D01*
X152632500Y-81851687D01*
X152615606Y-79899333D01*
X151976334Y-79899333D01*
X151976334Y-80548444D01*
X151974582Y-80774796D01*
X151969751Y-80970543D01*
X151962481Y-81120363D01*
X151953409Y-81208932D01*
X151948112Y-81225777D01*
X151897579Y-81236248D01*
X151778781Y-81245246D01*
X151608119Y-81251954D01*
X151401991Y-81255553D01*
X151344862Y-81255878D01*
X151095865Y-81254097D01*
X150887809Y-81244801D01*
X150692359Y-81224794D01*
X150481183Y-81190881D01*
X150225949Y-81139864D01*
X150125207Y-81118294D01*
X149880804Y-81064794D01*
X149706084Y-81023670D01*
X149587873Y-80989895D01*
X149512993Y-80958444D01*
X149468271Y-80924290D01*
X149440530Y-80882407D01*
X149426707Y-80851833D01*
X149383319Y-80668629D01*
X149383698Y-80458183D01*
X149426204Y-80263760D01*
X149451167Y-80206665D01*
X149538655Y-80095818D01*
X149663409Y-79998849D01*
X149689520Y-79984415D01*
X149746934Y-79957963D01*
X149810092Y-79937613D01*
X149890409Y-79922575D01*
X149999301Y-79912056D01*
X150148187Y-79905264D01*
X150348481Y-79901408D01*
X150611602Y-79899695D01*
X150916314Y-79899333D01*
X151976334Y-79899333D01*
X152615606Y-79899333D01*
X152610110Y-79264333D01*
X151200239Y-79264333D01*
X150777151Y-79265027D01*
X150429169Y-79267909D01*
X150146737Y-79274173D01*
X149920302Y-79285018D01*
X149740307Y-79301639D01*
X149597198Y-79325234D01*
X149481420Y-79357000D01*
X149383418Y-79398132D01*
X149293637Y-79449827D01*
X149202522Y-79513283D01*
X149200476Y-79514786D01*
X149081051Y-79626619D01*
X148963009Y-79774854D01*
X148906528Y-79865439D01*
X148841718Y-79998982D01*
X148801357Y-80128650D01*
X148778096Y-80285649D01*
X148766455Y-80460250D01*
X148758595Y-80632661D01*
X148744711Y-80744223D01*
X148709598Y-80805224D01*
X148638049Y-80825952D01*
X148514855Y-80816696D01*
X148324812Y-80787743D01*
X148290239Y-80782434D01*
X147969645Y-80733643D01*
X147931243Y-80630672D01*
X147281000Y-80630672D01*
X147120417Y-80604135D01*
X146983475Y-80585861D01*
X146863564Y-80576674D01*
X146854000Y-80576484D01*
X146740291Y-80565305D01*
X146684389Y-80525333D01*
X146680970Y-80442352D01*
X146724708Y-80302147D01*
X146738150Y-80267251D01*
X146817608Y-80106107D01*
X146900843Y-80010116D01*
X146980227Y-79986062D01*
X147025527Y-80011593D01*
X147057278Y-80066755D01*
X147107343Y-80178508D01*
X147165444Y-80323749D01*
X147171265Y-80339134D01*
X147281000Y-80630672D01*
X147931243Y-80630672D01*
X147768274Y-80193690D01*
X147656410Y-79911750D01*
X147553711Y-79702113D01*
X147449863Y-79554687D01*
X147334550Y-79459379D01*
X147197460Y-79406095D01*
X147028276Y-79384745D01*
X146939624Y-79382866D01*
X146687306Y-79411542D01*
X146490510Y-79495796D01*
X146368815Y-79613341D01*
X146322669Y-79696866D01*
X146259408Y-79834194D01*
X146190729Y-79999514D01*
X146172046Y-80047500D01*
X146109360Y-80205563D01*
X146054902Y-80332957D01*
X146017661Y-80408999D01*
X146010262Y-80419756D01*
X145956725Y-80429436D01*
X145839995Y-80427315D01*
X145680605Y-80414178D01*
X145591615Y-80403760D01*
X145204974Y-80354176D01*
X145081102Y-80137338D01*
X144860487Y-79833737D01*
X144583384Y-79589572D01*
X144259673Y-79411845D01*
X143914642Y-79310309D01*
X143800520Y-79297232D01*
X143617280Y-79285602D01*
X143380465Y-79275976D01*
X143105621Y-79268912D01*
X142808291Y-79264970D01*
X142634059Y-79264333D01*
X141604667Y-79264333D01*
X141604667Y-79899333D01*
X142634150Y-79899333D01*
X143018206Y-79901213D01*
X143328279Y-79907996D01*
X143574992Y-79921393D01*
X143768968Y-79943115D01*
X143920832Y-79974874D01*
X144041205Y-80018383D01*
X144140713Y-80075352D01*
X144229977Y-80147493D01*
X144241666Y-80158340D01*
X144377500Y-80286029D01*
X144038834Y-80261480D01*
X143759110Y-80242513D01*
X143416211Y-80221337D01*
X143031564Y-80199133D01*
X142626592Y-80177080D01*
X142222719Y-80156361D01*
X141841372Y-80138154D01*
X141636417Y-80129103D01*
X140969667Y-80100742D01*
X140969667Y-79264333D01*
X137752334Y-79264333D01*
X137752334Y-79899333D01*
X140334667Y-79899333D01*
X140334667Y-80097984D01*
X138927084Y-80125095D01*
X138403366Y-80136631D01*
X137956191Y-80149879D01*
X137577445Y-80165427D01*
X137259012Y-80183865D01*
X136992776Y-80205782D01*
X136770623Y-80231766D01*
X136584436Y-80262406D01*
X136426101Y-80298291D01*
X136384970Y-80309553D01*
X136122500Y-80384301D01*
X136313000Y-80413846D01*
X136429451Y-80425528D01*
X136606707Y-80435640D01*
X136820909Y-80443117D01*
X137048200Y-80446893D01*
X137053834Y-80446931D01*
X137298878Y-80450641D01*
X137610268Y-80458643D01*
X137969833Y-80470220D01*
X138359401Y-80484653D01*
X138760801Y-80501222D01*
X139155861Y-80519210D01*
X139526409Y-80537898D01*
X139854274Y-80556568D01*
X139903012Y-80559597D01*
X140098534Y-80572953D01*
X140224142Y-80586062D01*
X140294478Y-80602990D01*
X140324185Y-80627802D01*
X140327906Y-80664563D01*
X140326345Y-80677127D01*
X140320677Y-80703213D01*
X140305831Y-80723802D01*
X140272593Y-80739651D01*
X140211752Y-80751520D01*
X140114096Y-80760168D01*
X139970411Y-80766351D01*
X139771486Y-80770830D01*
X139508108Y-80774363D01*
X139171065Y-80777708D01*
X139096417Y-80778399D01*
X137879334Y-80789631D01*
X137879334Y-81296333D01*
X140334667Y-81296333D01*
X140334667Y-82227666D01*
X137752334Y-82227666D01*
X137752334Y-82862666D01*
X140969667Y-82862666D01*
X140969667Y-80614795D01*
X141213084Y-80638777D01*
X141334142Y-80649981D01*
X141520884Y-80666375D01*
X141754597Y-80686355D01*
X142016571Y-80708321D01*
X142260834Y-80728447D01*
X142582928Y-80756173D01*
X142941679Y-80789389D01*
X143302874Y-80824785D01*
X143632298Y-80859051D01*
X143784777Y-80875901D01*
X144026964Y-80902943D01*
X144243351Y-80926211D01*
X144418395Y-80944103D01*
X144536555Y-80955020D01*
X144578527Y-80957666D01*
X144624244Y-80973302D01*
X144646591Y-81033278D01*
X144652662Y-81157199D01*
X144652667Y-81162571D01*
X144624057Y-81357460D01*
X144547991Y-81572923D01*
X144439111Y-81778355D01*
X144312063Y-81943148D01*
X144254577Y-81994593D01*
X144160145Y-82061912D01*
X144065988Y-82114962D01*
X143960783Y-82155418D01*
X143833205Y-82184956D01*
X143671931Y-82205250D01*
X143465635Y-82217975D01*
X143202994Y-82224806D01*
X142872683Y-82227418D01*
X142678845Y-82227666D01*
X141604667Y-82227666D01*
X141604667Y-82867502D01*
X142802954Y-82854501D01*
X144001242Y-82841500D01*
X144324189Y-82681804D01*
X144642495Y-82480102D01*
X144904503Y-82222007D01*
X145103061Y-81917617D01*
X145231014Y-81577026D01*
X145272717Y-81343101D01*
X145300723Y-81075149D01*
X145506793Y-81094949D01*
X145630186Y-81110017D01*
X145713544Y-81126201D01*
X145731784Y-81133671D01*
X145723234Y-81177156D01*
X145688277Y-81287220D01*
X145631207Y-81451540D01*
X145556321Y-81657794D01*
X145467914Y-81893656D01*
X145455686Y-81925761D01*
X145364616Y-82166371D01*
X145284959Y-82380534D01*
X145221354Y-82555470D01*
X145178440Y-82678402D01*
X145160856Y-82736551D01*
X145160667Y-82738464D01*
X145199512Y-82757482D01*
X145302158Y-82771493D01*
X145447773Y-82777865D01*
X145473638Y-82778000D01*
X145640648Y-82774625D01*
X145741637Y-82761832D01*
X145795079Y-82735616D01*
X145815391Y-82703916D01*
X145839435Y-82641026D01*
X145887826Y-82513695D01*
X145954965Y-82336678D01*
X146035257Y-82124731D01*
X146100445Y-81952500D01*
X146186164Y-81728467D01*
X146262846Y-81532793D01*
X146325062Y-81378957D01*
X146367384Y-81280437D01*
X146383108Y-81250649D01*
X146432038Y-81249162D01*
X146548386Y-81261844D01*
X146716493Y-81286544D01*
X146920699Y-81321106D01*
X146998783Y-81335316D01*
X147588065Y-81444500D01*
X147841175Y-82111250D01*
X148094286Y-82778000D01*
X148405476Y-82778000D01*
X148581160Y-82772911D01*
X148681439Y-82756654D01*
X148715017Y-82727739D01*
X148715091Y-82725083D01*
X148699900Y-82667701D01*
X148659423Y-82547925D01*
X148599454Y-82382116D01*
X148525786Y-82186638D01*
X148508983Y-82143000D01*
X148434694Y-81947600D01*
X148374304Y-81782595D01*
X148333092Y-81662890D01*
X148316336Y-81603387D01*
X148316568Y-81599685D01*
X148363746Y-81601276D01*
X148481148Y-81623660D01*
X148657730Y-81663879D01*
X148882448Y-81718975D01*
X149144257Y-81785991D01*
X149432114Y-81861970D01*
X149734976Y-81943954D01*
X150041798Y-82028986D01*
X150341536Y-82114109D01*
X150623147Y-82196365D01*
X150875586Y-82272797D01*
X151087809Y-82340448D01*
X151108500Y-82347318D01*
X151390055Y-82441731D01*
X151601419Y-82514541D01*
X151752857Y-82570510D01*
X151854636Y-82614400D01*
X151917022Y-82650972D01*
X151950280Y-82684989D01*
X151964677Y-82721211D01*
X151968562Y-82746250D01*
X151980713Y-82810542D01*
X152012229Y-82845358D01*
X152084026Y-82859721D01*
X152217018Y-82862654D01*
X152238401Y-82862666D01*
X152398895Y-82876188D01*
X152580357Y-82919509D01*
X152793318Y-82996759D01*
X153048309Y-83112069D01*
X153355858Y-83269570D01*
X153563834Y-83382635D01*
X154182103Y-83753197D01*
X154716882Y-84135714D01*
X155168556Y-84530604D01*
X155537512Y-84938292D01*
X155824138Y-85359198D01*
X156028820Y-85793744D01*
X156142839Y-86194583D01*
X156190930Y-86434654D01*
X156304115Y-86182444D01*
X156441036Y-85779873D01*
X156493641Y-85370963D01*
X156461962Y-84956731D01*
X156346030Y-84538195D01*
X156246622Y-84307061D01*
X156148141Y-84119479D01*
X156042086Y-83956955D01*
X155909793Y-83794358D01*
X155732599Y-83606559D01*
X155707759Y-83581464D01*
X155537271Y-83417454D01*
X155358746Y-83258310D01*
X155195660Y-83124333D01*
X155091444Y-83048495D01*
X154841055Y-82883833D01*
X155927528Y-82872535D01*
X157014000Y-82861237D01*
X157014000Y-82227666D01*
X155585250Y-82227042D01*
X155160852Y-82225919D01*
X154814889Y-82222811D01*
X154541148Y-82217505D01*
X154333416Y-82209783D01*
X154185480Y-82199431D01*
X154091126Y-82186232D01*
X154050667Y-82173791D01*
X153963085Y-82101544D01*
X153881657Y-81990193D01*
X153868450Y-81965232D01*
X153820629Y-81842125D01*
X153817713Y-81731047D01*
X153838362Y-81637369D01*
X153864580Y-81549248D01*
X153896753Y-81478995D01*
X153944167Y-81424373D01*
X154016107Y-81383143D01*
X154121860Y-81353070D01*
X154270710Y-81331915D01*
X154471944Y-81317442D01*
X154734847Y-81307412D01*
X155068705Y-81299590D01*
X155255218Y-81295993D01*
X155615947Y-81288778D01*
X155902839Y-81280873D01*
X156126710Y-81270280D01*
X156298380Y-81255000D01*
X156428667Y-81233035D01*
X156528389Y-81202385D01*
X156608365Y-81161052D01*
X156679412Y-81107038D01*
X156752349Y-81038342D01*
X156775720Y-81015068D01*
X156938686Y-80797423D01*
X157037059Y-80546625D01*
X157070832Y-80280096D01*
X157040002Y-80015256D01*
X156944564Y-79769526D01*
X156784514Y-79560328D01*
X156776087Y-79552329D01*
X156701983Y-79485133D01*
X156631143Y-79430263D01*
X156554338Y-79386382D01*
X156462338Y-79352152D01*
X156345912Y-79326235D01*
X156195829Y-79307294D01*
X156002861Y-79293991D01*
X155757776Y-79284989D01*
X155451345Y-79278951D01*
X155074337Y-79274538D01*
X154844417Y-79272416D01*
X153373334Y-79259333D01*
X153373334Y-79899333D01*
G36*
X145457000Y-85570131D02*
G01*
X144663250Y-85581649D01*
X143869500Y-85593166D01*
X143856705Y-85815416D01*
X143843909Y-86037666D01*
X144855066Y-86037666D01*
X145139507Y-86036532D01*
X145395362Y-86033346D01*
X145610599Y-86028436D01*
X145773188Y-86022128D01*
X145871095Y-86014750D01*
X145894445Y-86009444D01*
X145901792Y-85961342D01*
X145908427Y-85839664D01*
X145914090Y-85655496D01*
X145918522Y-85419928D01*
X145921463Y-85144048D01*
X145922654Y-84838943D01*
X145922667Y-84802944D01*
X145922667Y-83624666D01*
X145457000Y-83624666D01*
X145457000Y-85570131D01*
G37*
X145457000Y-85570131D02*
X144663250Y-85581649D01*
X143869500Y-85593166D01*
X143856705Y-85815416D01*
X143843909Y-86037666D01*
X144855066Y-86037666D01*
X145139507Y-86036532D01*
X145395362Y-86033346D01*
X145610599Y-86028436D01*
X145773188Y-86022128D01*
X145871095Y-86014750D01*
X145894445Y-86009444D01*
X145901792Y-85961342D01*
X145908427Y-85839664D01*
X145914090Y-85655496D01*
X145918522Y-85419928D01*
X145921463Y-85144048D01*
X145922654Y-84838943D01*
X145922667Y-84802944D01*
X145922667Y-83624666D01*
X145457000Y-83624666D01*
X145457000Y-85570131D01*
G36*
X142031848Y-83612789D02*
G01*
X141975021Y-83656416D01*
X141940482Y-83706373D01*
X141870134Y-83816691D01*
X141770345Y-83976842D01*
X141647480Y-84176297D01*
X141507906Y-84404526D01*
X141357989Y-84651001D01*
X141204094Y-84905194D01*
X141052589Y-85156574D01*
X140909838Y-85394614D01*
X140782208Y-85608784D01*
X140676066Y-85788556D01*
X140597777Y-85923401D01*
X140553707Y-86002790D01*
X140546334Y-86019317D01*
X140584757Y-86029102D01*
X140684412Y-86035759D01*
X140794069Y-86037666D01*
X141041805Y-86037666D01*
X141228526Y-85730750D01*
X141415247Y-85423833D01*
X142867289Y-85400699D01*
X143053762Y-85708599D01*
X143240235Y-86016500D01*
X143480785Y-86029195D01*
X143610575Y-86032790D01*
X143697914Y-86028974D01*
X143721334Y-86021430D01*
X143700243Y-85979049D01*
X143641213Y-85875054D01*
X143550608Y-85719977D01*
X143434793Y-85524355D01*
X143300130Y-85298722D01*
X143159222Y-85064000D01*
X142671364Y-85064000D01*
X142155654Y-85064000D01*
X141959582Y-85061469D01*
X141800160Y-85054566D01*
X141693037Y-85044325D01*
X141653862Y-85031779D01*
X141654056Y-85030870D01*
X141693534Y-84952543D01*
X141760917Y-84832374D01*
X141845404Y-84688144D01*
X141936199Y-84537637D01*
X142022502Y-84398635D01*
X142093515Y-84288919D01*
X142138439Y-84226273D01*
X142147599Y-84218144D01*
X142181341Y-84252409D01*
X142243651Y-84341959D01*
X142321705Y-84468218D01*
X142330221Y-84482727D01*
X142423695Y-84642568D01*
X142514930Y-84798242D01*
X142577819Y-84905250D01*
X142671364Y-85064000D01*
X143159222Y-85064000D01*
X143152985Y-85053612D01*
X142999720Y-84799562D01*
X142846701Y-84547105D01*
X142700292Y-84306777D01*
X142566855Y-84089112D01*
X142452756Y-83904645D01*
X142364359Y-83763912D01*
X142308027Y-83677447D01*
X142292646Y-83656416D01*
X142201193Y-83596637D01*
X142133834Y-83582333D01*
X142031848Y-83612789D01*
G37*
X142031848Y-83612789D02*
X141975021Y-83656416D01*
X141940482Y-83706373D01*
X141870134Y-83816691D01*
X141770345Y-83976842D01*
X141647480Y-84176297D01*
X141507906Y-84404526D01*
X141357989Y-84651001D01*
X141204094Y-84905194D01*
X141052589Y-85156574D01*
X140909838Y-85394614D01*
X140782208Y-85608784D01*
X140676066Y-85788556D01*
X140597777Y-85923401D01*
X140553707Y-86002790D01*
X140546334Y-86019317D01*
X140584757Y-86029102D01*
X140684412Y-86035759D01*
X140794069Y-86037666D01*
X141041805Y-86037666D01*
X141228526Y-85730750D01*
X141415247Y-85423833D01*
X142867289Y-85400699D01*
X143053762Y-85708599D01*
X143240235Y-86016500D01*
X143480785Y-86029195D01*
X143610575Y-86032790D01*
X143697914Y-86028974D01*
X143721334Y-86021430D01*
X143700243Y-85979049D01*
X143641213Y-85875054D01*
X143550608Y-85719977D01*
X143434793Y-85524355D01*
X143300130Y-85298722D01*
X143159222Y-85064000D01*
X142671364Y-85064000D01*
X142155654Y-85064000D01*
X141959582Y-85061469D01*
X141800160Y-85054566D01*
X141693037Y-85044325D01*
X141653862Y-85031779D01*
X141654056Y-85030870D01*
X141693534Y-84952543D01*
X141760917Y-84832374D01*
X141845404Y-84688144D01*
X141936199Y-84537637D01*
X142022502Y-84398635D01*
X142093515Y-84288919D01*
X142138439Y-84226273D01*
X142147599Y-84218144D01*
X142181341Y-84252409D01*
X142243651Y-84341959D01*
X142321705Y-84468218D01*
X142330221Y-84482727D01*
X142423695Y-84642568D01*
X142514930Y-84798242D01*
X142577819Y-84905250D01*
X142671364Y-85064000D01*
X143159222Y-85064000D01*
X143152985Y-85053612D01*
X142999720Y-84799562D01*
X142846701Y-84547105D01*
X142700292Y-84306777D01*
X142566855Y-84089112D01*
X142452756Y-83904645D01*
X142364359Y-83763912D01*
X142308027Y-83677447D01*
X142292646Y-83656416D01*
X142201193Y-83596637D01*
X142133834Y-83582333D01*
X142031848Y-83612789D01*
G36*
X138943314Y-83625180D02*
G01*
X138691008Y-83627271D01*
X138499867Y-83631761D01*
X138358139Y-83639473D01*
X138254075Y-83651228D01*
X138175925Y-83667850D01*
X138111939Y-83690160D01*
X138071691Y-83708434D01*
X137900122Y-83826446D01*
X137796173Y-83986519D01*
X137753942Y-84198836D01*
X137752334Y-84259242D01*
X137759784Y-84401079D01*
X137792188Y-84497556D01*
X137864627Y-84587400D01*
X137889917Y-84612543D01*
X138027500Y-84746500D01*
X137863816Y-84905204D01*
X137774834Y-84995670D01*
X137727467Y-85068096D01*
X137710880Y-85153875D01*
X137714241Y-85284398D01*
X137717096Y-85330338D01*
X137757580Y-85572921D01*
X137848984Y-85755716D01*
X137999126Y-85891808D01*
X138079583Y-85937197D01*
X138139146Y-85962608D01*
X138210693Y-85982389D01*
X138305718Y-85997437D01*
X138435713Y-86008651D01*
X138612170Y-86016927D01*
X138846584Y-86023162D01*
X139150446Y-86028254D01*
X139265750Y-86029808D01*
X140292334Y-86043117D01*
X140292334Y-84979333D01*
X139869000Y-84979333D01*
X139869000Y-85623936D01*
X139130301Y-85607826D01*
X138859334Y-85601095D01*
X138659329Y-85593355D01*
X138516584Y-85582940D01*
X138417398Y-85568184D01*
X138348069Y-85547422D01*
X138294895Y-85518986D01*
X138273051Y-85503588D01*
X138167771Y-85385427D01*
X138143458Y-85254886D01*
X138201184Y-85123610D01*
X138234509Y-85085976D01*
X138274504Y-85048123D01*
X138316243Y-85020491D01*
X138372854Y-85001470D01*
X138457464Y-84989453D01*
X138583201Y-84982832D01*
X138763191Y-84979999D01*
X139010563Y-84979344D01*
X139105076Y-84979333D01*
X139869000Y-84979333D01*
X140292334Y-84979333D01*
X140292334Y-84598333D01*
X139869000Y-84598333D01*
X139088234Y-84598333D01*
X138813085Y-84597951D01*
X138610229Y-84595891D01*
X138467292Y-84590775D01*
X138371901Y-84581230D01*
X138311682Y-84565881D01*
X138274261Y-84543352D01*
X138247266Y-84512269D01*
X138241568Y-84504247D01*
X138180932Y-84356046D01*
X138201752Y-84209910D01*
X138235676Y-84151341D01*
X138263002Y-84122217D01*
X138304488Y-84100490D01*
X138372308Y-84084791D01*
X138478632Y-84073748D01*
X138635633Y-84065989D01*
X138855483Y-84060144D01*
X139082342Y-84055965D01*
X139869000Y-84042764D01*
X139869000Y-84598333D01*
X140292334Y-84598333D01*
X140292334Y-83624666D01*
X139268533Y-83624666D01*
X138943314Y-83625180D01*
G37*
X138943314Y-83625180D02*
X138691008Y-83627271D01*
X138499867Y-83631761D01*
X138358139Y-83639473D01*
X138254075Y-83651228D01*
X138175925Y-83667850D01*
X138111939Y-83690160D01*
X138071691Y-83708434D01*
X137900122Y-83826446D01*
X137796173Y-83986519D01*
X137753942Y-84198836D01*
X137752334Y-84259242D01*
X137759784Y-84401079D01*
X137792188Y-84497556D01*
X137864627Y-84587400D01*
X137889917Y-84612543D01*
X138027500Y-84746500D01*
X137863816Y-84905204D01*
X137774834Y-84995670D01*
X137727467Y-85068096D01*
X137710880Y-85153875D01*
X137714241Y-85284398D01*
X137717096Y-85330338D01*
X137757580Y-85572921D01*
X137848984Y-85755716D01*
X137999126Y-85891808D01*
X138079583Y-85937197D01*
X138139146Y-85962608D01*
X138210693Y-85982389D01*
X138305718Y-85997437D01*
X138435713Y-86008651D01*
X138612170Y-86016927D01*
X138846584Y-86023162D01*
X139150446Y-86028254D01*
X139265750Y-86029808D01*
X140292334Y-86043117D01*
X140292334Y-84979333D01*
X139869000Y-84979333D01*
X139869000Y-85623936D01*
X139130301Y-85607826D01*
X138859334Y-85601095D01*
X138659329Y-85593355D01*
X138516584Y-85582940D01*
X138417398Y-85568184D01*
X138348069Y-85547422D01*
X138294895Y-85518986D01*
X138273051Y-85503588D01*
X138167771Y-85385427D01*
X138143458Y-85254886D01*
X138201184Y-85123610D01*
X138234509Y-85085976D01*
X138274504Y-85048123D01*
X138316243Y-85020491D01*
X138372854Y-85001470D01*
X138457464Y-84989453D01*
X138583201Y-84982832D01*
X138763191Y-84979999D01*
X139010563Y-84979344D01*
X139105076Y-84979333D01*
X139869000Y-84979333D01*
X140292334Y-84979333D01*
X140292334Y-84598333D01*
X139869000Y-84598333D01*
X139088234Y-84598333D01*
X138813085Y-84597951D01*
X138610229Y-84595891D01*
X138467292Y-84590775D01*
X138371901Y-84581230D01*
X138311682Y-84565881D01*
X138274261Y-84543352D01*
X138247266Y-84512269D01*
X138241568Y-84504247D01*
X138180932Y-84356046D01*
X138201752Y-84209910D01*
X138235676Y-84151341D01*
X138263002Y-84122217D01*
X138304488Y-84100490D01*
X138372308Y-84084791D01*
X138478632Y-84073748D01*
X138635633Y-84065989D01*
X138855483Y-84060144D01*
X139082342Y-84055965D01*
X139869000Y-84042764D01*
X139869000Y-84598333D01*
X140292334Y-84598333D01*
X140292334Y-83624666D01*
X139268533Y-83624666D01*
X138943314Y-83625180D01*
G36*
X143749199Y-83927194D02*
G01*
X143722281Y-84054849D01*
X143700400Y-84222128D01*
X143674354Y-84459757D01*
X143419076Y-84486439D01*
X143274580Y-84505584D01*
X143161912Y-84527834D01*
X143114483Y-84544073D01*
X143118193Y-84568266D01*
X143187457Y-84593774D01*
X143303329Y-84616617D01*
X143446863Y-84632814D01*
X143562584Y-84638227D01*
X143662217Y-84644087D01*
X143708749Y-84673585D01*
X143723755Y-84750750D01*
X143726342Y-84820583D01*
X143736576Y-84975629D01*
X143755659Y-85105800D01*
X143779654Y-85193234D01*
X143804622Y-85220070D01*
X143812664Y-85212166D01*
X143830942Y-85150077D01*
X143852134Y-85031506D01*
X143868483Y-84908329D01*
X143898266Y-84646824D01*
X144074383Y-84620313D01*
X144270417Y-84589640D01*
X144392740Y-84566597D01*
X144451605Y-84547930D01*
X144457263Y-84530384D01*
X144419968Y-84510703D01*
X144419834Y-84510650D01*
X144328801Y-84490585D01*
X144192663Y-84477132D01*
X144116281Y-84474308D01*
X144014023Y-84472598D01*
X143946032Y-84460916D01*
X143902645Y-84424434D01*
X143874203Y-84348324D01*
X143851044Y-84217759D01*
X143824734Y-84026833D01*
X143801560Y-83911404D01*
X143776004Y-83878785D01*
X143749199Y-83927194D01*
G37*
X143749199Y-83927194D02*
X143722281Y-84054849D01*
X143700400Y-84222128D01*
X143674354Y-84459757D01*
X143419076Y-84486439D01*
X143274580Y-84505584D01*
X143161912Y-84527834D01*
X143114483Y-84544073D01*
X143118193Y-84568266D01*
X143187457Y-84593774D01*
X143303329Y-84616617D01*
X143446863Y-84632814D01*
X143562584Y-84638227D01*
X143662217Y-84644087D01*
X143708749Y-84673585D01*
X143723755Y-84750750D01*
X143726342Y-84820583D01*
X143736576Y-84975629D01*
X143755659Y-85105800D01*
X143779654Y-85193234D01*
X143804622Y-85220070D01*
X143812664Y-85212166D01*
X143830942Y-85150077D01*
X143852134Y-85031506D01*
X143868483Y-84908329D01*
X143898266Y-84646824D01*
X144074383Y-84620313D01*
X144270417Y-84589640D01*
X144392740Y-84566597D01*
X144451605Y-84547930D01*
X144457263Y-84530384D01*
X144419968Y-84510703D01*
X144419834Y-84510650D01*
X144328801Y-84490585D01*
X144192663Y-84477132D01*
X144116281Y-84474308D01*
X144014023Y-84472598D01*
X143946032Y-84460916D01*
X143902645Y-84424434D01*
X143874203Y-84348324D01*
X143851044Y-84217759D01*
X143824734Y-84026833D01*
X143801560Y-83911404D01*
X143776004Y-83878785D01*
X143749199Y-83927194D01*
G36*
X148162591Y-83794000D02*
G01*
X148143905Y-83899209D01*
X148131000Y-84044915D01*
X148128220Y-84117151D01*
X148124000Y-84334469D01*
X147858063Y-84362949D01*
X147673603Y-84388229D01*
X147562415Y-84415745D01*
X147527599Y-84443715D01*
X147572250Y-84470353D01*
X147644488Y-84485965D01*
X147800208Y-84504697D01*
X147953901Y-84513169D01*
X147959220Y-84513200D01*
X148111939Y-84513666D01*
X148139400Y-84776396D01*
X148163836Y-84948126D01*
X148192276Y-85048777D01*
X148222018Y-85074638D01*
X148250362Y-85021995D01*
X148265754Y-84950102D01*
X148284196Y-84802906D01*
X148292799Y-84664444D01*
X148292868Y-84656718D01*
X148297430Y-84582051D01*
X148323947Y-84539607D01*
X148392670Y-84516107D01*
X148523852Y-84498270D01*
X148536750Y-84496792D01*
X148713461Y-84470465D01*
X148819499Y-84441156D01*
X148850833Y-84411157D01*
X148803432Y-84382763D01*
X148757123Y-84371474D01*
X148616661Y-84352488D01*
X148466065Y-84344338D01*
X148462829Y-84344333D01*
X148304241Y-84344333D01*
X148275254Y-84122083D01*
X148253229Y-83972081D01*
X148229870Y-83840947D01*
X148219504Y-83794000D01*
X148192742Y-83688166D01*
X148162591Y-83794000D01*
G37*
X148162591Y-83794000D02*
X148143905Y-83899209D01*
X148131000Y-84044915D01*
X148128220Y-84117151D01*
X148124000Y-84334469D01*
X147858063Y-84362949D01*
X147673603Y-84388229D01*
X147562415Y-84415745D01*
X147527599Y-84443715D01*
X147572250Y-84470353D01*
X147644488Y-84485965D01*
X147800208Y-84504697D01*
X147953901Y-84513169D01*
X147959220Y-84513200D01*
X148111939Y-84513666D01*
X148139400Y-84776396D01*
X148163836Y-84948126D01*
X148192276Y-85048777D01*
X148222018Y-85074638D01*
X148250362Y-85021995D01*
X148265754Y-84950102D01*
X148284196Y-84802906D01*
X148292799Y-84664444D01*
X148292868Y-84656718D01*
X148297430Y-84582051D01*
X148323947Y-84539607D01*
X148392670Y-84516107D01*
X148523852Y-84498270D01*
X148536750Y-84496792D01*
X148713461Y-84470465D01*
X148819499Y-84441156D01*
X148850833Y-84411157D01*
X148803432Y-84382763D01*
X148757123Y-84371474D01*
X148616661Y-84352488D01*
X148466065Y-84344338D01*
X148462829Y-84344333D01*
X148304241Y-84344333D01*
X148275254Y-84122083D01*
X148253229Y-83972081D01*
X148229870Y-83840947D01*
X148219504Y-83794000D01*
X148192742Y-83688166D01*
X148162591Y-83794000D01*
G36*
X143083378Y-77190000D02*
G01*
X143064438Y-77294496D01*
X143051256Y-77440472D01*
X143048220Y-77518083D01*
X143042484Y-77647757D01*
X143024834Y-77713902D01*
X142985008Y-77737638D01*
X142940251Y-77740333D01*
X142839319Y-77749432D01*
X142696714Y-77772649D01*
X142612168Y-77789886D01*
X142489479Y-77819300D01*
X142440734Y-77839865D01*
X142456584Y-77857925D01*
X142493667Y-77870333D01*
X142599038Y-77889507D01*
X142744678Y-77902679D01*
X142815720Y-77905446D01*
X143031939Y-77909666D01*
X143059400Y-78172396D01*
X143084426Y-78351817D01*
X143112143Y-78449531D01*
X143140508Y-78464872D01*
X143167475Y-78397175D01*
X143191002Y-78245774D01*
X143194061Y-78216277D01*
X143223307Y-77919474D01*
X143461737Y-77892228D01*
X143636456Y-77866035D01*
X143740771Y-77836712D01*
X143770551Y-77806652D01*
X143721666Y-77778247D01*
X143677123Y-77767474D01*
X143536872Y-77748525D01*
X143386090Y-77740341D01*
X143382182Y-77740333D01*
X143285925Y-77736276D01*
X143235478Y-77709344D01*
X143210270Y-77637390D01*
X143195370Y-77539250D01*
X143172509Y-77387250D01*
X143148341Y-77247861D01*
X143141054Y-77211166D01*
X143114315Y-77084166D01*
X143083378Y-77190000D01*
G37*
X143083378Y-77190000D02*
X143064438Y-77294496D01*
X143051256Y-77440472D01*
X143048220Y-77518083D01*
X143042484Y-77647757D01*
X143024834Y-77713902D01*
X142985008Y-77737638D01*
X142940251Y-77740333D01*
X142839319Y-77749432D01*
X142696714Y-77772649D01*
X142612168Y-77789886D01*
X142489479Y-77819300D01*
X142440734Y-77839865D01*
X142456584Y-77857925D01*
X142493667Y-77870333D01*
X142599038Y-77889507D01*
X142744678Y-77902679D01*
X142815720Y-77905446D01*
X143031939Y-77909666D01*
X143059400Y-78172396D01*
X143084426Y-78351817D01*
X143112143Y-78449531D01*
X143140508Y-78464872D01*
X143167475Y-78397175D01*
X143191002Y-78245774D01*
X143194061Y-78216277D01*
X143223307Y-77919474D01*
X143461737Y-77892228D01*
X143636456Y-77866035D01*
X143740771Y-77836712D01*
X143770551Y-77806652D01*
X143721666Y-77778247D01*
X143677123Y-77767474D01*
X143536872Y-77748525D01*
X143386090Y-77740341D01*
X143382182Y-77740333D01*
X143285925Y-77736276D01*
X143235478Y-77709344D01*
X143210270Y-77637390D01*
X143195370Y-77539250D01*
X143172509Y-77387250D01*
X143148341Y-77247861D01*
X143141054Y-77211166D01*
X143114315Y-77084166D01*
X143083378Y-77190000D01*
G36*
X150263165Y-75185649D02*
G01*
X150239867Y-75295603D01*
X150221121Y-75432618D01*
X150205788Y-75568709D01*
X150183849Y-75655456D01*
X150138253Y-75706806D01*
X150051948Y-75736709D01*
X149907882Y-75759111D01*
X149805931Y-75772238D01*
X149677413Y-75796359D01*
X149631705Y-75823130D01*
X149667081Y-75850530D01*
X149781814Y-75876534D01*
X149908901Y-75892874D01*
X150075443Y-75917155D01*
X150174893Y-75956769D01*
X150224824Y-76026447D01*
X150242810Y-76140922D01*
X150244239Y-76174000D01*
X150256394Y-76310158D01*
X150278586Y-76428000D01*
X150302726Y-76497227D01*
X150323245Y-76490124D01*
X150337866Y-76456287D01*
X150358948Y-76359565D01*
X150367667Y-76236793D01*
X150388327Y-76043293D01*
X150450270Y-75923574D01*
X150553445Y-75877731D01*
X150567703Y-75877200D01*
X150705343Y-75869634D01*
X150835715Y-75851166D01*
X150935581Y-75826549D01*
X150981701Y-75800538D01*
X150981248Y-75792592D01*
X150932082Y-75772133D01*
X150822647Y-75749672D01*
X150683022Y-75730832D01*
X150539145Y-75708754D01*
X150433223Y-75679955D01*
X150389169Y-75651754D01*
X150376301Y-75584935D01*
X150359173Y-75464050D01*
X150346452Y-75358511D01*
X150326635Y-75232046D01*
X150303030Y-75152015D01*
X150284878Y-75135673D01*
X150263165Y-75185649D01*
G37*
X150263165Y-75185649D02*
X150239867Y-75295603D01*
X150221121Y-75432618D01*
X150205788Y-75568709D01*
X150183849Y-75655456D01*
X150138253Y-75706806D01*
X150051948Y-75736709D01*
X149907882Y-75759111D01*
X149805931Y-75772238D01*
X149677413Y-75796359D01*
X149631705Y-75823130D01*
X149667081Y-75850530D01*
X149781814Y-75876534D01*
X149908901Y-75892874D01*
X150075443Y-75917155D01*
X150174893Y-75956769D01*
X150224824Y-76026447D01*
X150242810Y-76140922D01*
X150244239Y-76174000D01*
X150256394Y-76310158D01*
X150278586Y-76428000D01*
X150302726Y-76497227D01*
X150323245Y-76490124D01*
X150337866Y-76456287D01*
X150358948Y-76359565D01*
X150367667Y-76236793D01*
X150388327Y-76043293D01*
X150450270Y-75923574D01*
X150553445Y-75877731D01*
X150567703Y-75877200D01*
X150705343Y-75869634D01*
X150835715Y-75851166D01*
X150935581Y-75826549D01*
X150981701Y-75800538D01*
X150981248Y-75792592D01*
X150932082Y-75772133D01*
X150822647Y-75749672D01*
X150683022Y-75730832D01*
X150539145Y-75708754D01*
X150433223Y-75679955D01*
X150389169Y-75651754D01*
X150376301Y-75584935D01*
X150359173Y-75464050D01*
X150346452Y-75358511D01*
X150326635Y-75232046D01*
X150303030Y-75152015D01*
X150284878Y-75135673D01*
X150263165Y-75185649D01*
D10*
X147333333Y-51452380D02*
X147333333Y-52166666D01*
X147380952Y-52309523D01*
X147476190Y-52404761D01*
X147619047Y-52452380D01*
X147714285Y-52452380D01*
X146809523Y-52452380D02*
X146619047Y-52452380D01*
X146523809Y-52404761D01*
X146476190Y-52357142D01*
X146380952Y-52214285D01*
X146333333Y-52023809D01*
X146333333Y-51642857D01*
X146380952Y-51547619D01*
X146428571Y-51500000D01*
X146523809Y-51452380D01*
X146714285Y-51452380D01*
X146809523Y-51500000D01*
X146857142Y-51547619D01*
X146904761Y-51642857D01*
X146904761Y-51880952D01*
X146857142Y-51976190D01*
X146809523Y-52023809D01*
X146714285Y-52071428D01*
X146523809Y-52071428D01*
X146428571Y-52023809D01*
X146380952Y-51976190D01*
X146333333Y-51880952D01*
X147809523Y-64052380D02*
X147809523Y-64766666D01*
X147857142Y-64909523D01*
X147952380Y-65004761D01*
X148095238Y-65052380D01*
X148190476Y-65052380D01*
X146809523Y-65052380D02*
X147380952Y-65052380D01*
X147095238Y-65052380D02*
X147095238Y-64052380D01*
X147190476Y-64195238D01*
X147285714Y-64290476D01*
X147380952Y-64338095D01*
X146190476Y-64052380D02*
X146095238Y-64052380D01*
X146000000Y-64100000D01*
X145952380Y-64147619D01*
X145904761Y-64242857D01*
X145857142Y-64433333D01*
X145857142Y-64671428D01*
X145904761Y-64861904D01*
X145952380Y-64957142D01*
X146000000Y-65004761D01*
X146095238Y-65052380D01*
X146190476Y-65052380D01*
X146285714Y-65004761D01*
X146333333Y-64957142D01*
X146380952Y-64861904D01*
X146428571Y-64671428D01*
X146428571Y-64433333D01*
X146380952Y-64242857D01*
X146333333Y-64147619D01*
X146285714Y-64100000D01*
X146190476Y-64052380D01*
M02*
