M48
INCH,TZ
T1C0.0157
T2C0.0402
T3C0.1260
%
G90
G05
T1
X41457Y-38189
X43362Y-33855
X43365Y-34359
X44364Y-34863
X44658Y-33099
X47373Y-30844
X47492Y-29338
X47505Y-31401
X47511Y-30292
X48138Y-26909
X48494Y-34076
X48506Y-31365
X48511Y-32366
X48563Y-26705
X48604Y-26225
X49096Y-33259
X52643Y-34876
X52649Y-34371
X54733Y-29027
X55104Y-30052
X55453Y-30315
X55753Y-32311
X55796Y-34126
X55980Y-27843
X55981Y-26737
X56293Y-28961
X56677Y-28774
X56790Y-34376
X56884Y-27120
X57340Y-25075
X59452Y-28970
X59683Y-28642
X60028Y-27285
X60142Y-30234
X60542Y-30334
X60829Y-29744
X61719Y-26812
X62030Y-26486
X62600Y-25204
X62846Y-31556
X62899Y-25473
X63096Y-33307
X63099Y-35276
X63100Y-34624
X63660Y-26240
X64093Y-33398
X66551Y-25730
X66840Y-33465
X67192Y-31277
X67241Y-33370
X67509Y-28063
X68245Y-30806
X68404Y-29775
X68969Y-29170
X69363Y-29179
X70982Y-34434
X71379Y-32302
X71380Y-33485
X71386Y-32901
X71388Y-34416
X71389Y-33911
X72386Y-31914
X73740Y-38189
T2
X45374Y-23353
X45374Y-24353
X46374Y-23353
X46374Y-24353
X47374Y-23353
X47374Y-24353
X48374Y-23353
X48374Y-24353
X49374Y-23353
X49374Y-24353
X50374Y-23353
X50374Y-24353
X51374Y-23353
X51374Y-24353
X52374Y-23353
X52374Y-24353
X53374Y-23353
X53374Y-24353
X54374Y-23353
X54374Y-24353
X55374Y-23353
X55374Y-24353
X56374Y-23353
X56374Y-24353
X57374Y-23353
X57374Y-24353
X58374Y-23353
X58374Y-24353
X59374Y-23353
X59374Y-24353
X60374Y-23353
X60374Y-24353
X61374Y-23353
X61374Y-24353
X62374Y-23353
X62374Y-24353
X63374Y-23353
X63374Y-24353
X64374Y-23353
X64374Y-24353
X65374Y-23353
X65374Y-24353
X66374Y-23353
X66374Y-24353
X67374Y-23353
X67374Y-24353
X68374Y-23353
X68374Y-24353
X69374Y-23353
X69374Y-24353
X70374Y-23353
X70374Y-24353
X45374Y-21353
X45374Y-22353
X46374Y-21353
X46374Y-22353
X47374Y-21353
X47374Y-22353
X48374Y-21353
X48374Y-22353
X49374Y-21353
X49374Y-22353
X50374Y-21353
X50374Y-22353
X51374Y-21353
X51374Y-22353
X52374Y-21353
X52374Y-22353
X53374Y-21353
X53374Y-22353
X54374Y-21353
X54374Y-22353
X55374Y-21353
X55374Y-22353
X56374Y-21353
X56374Y-22353
X57374Y-21353
X57374Y-22353
X58374Y-21353
X58374Y-22353
X59374Y-21353
X59374Y-22353
X60374Y-21353
X60374Y-22353
X61374Y-21353
X61374Y-22353
X62374Y-21353
X62374Y-22353
X63374Y-21353
X63374Y-22353
X64374Y-21353
X64374Y-22353
X65374Y-21353
X65374Y-22353
X66374Y-21353
X66374Y-22353
X67374Y-21353
X67374Y-22353
X68374Y-21353
X68374Y-22353
X69374Y-21353
X69374Y-22353
X70374Y-21353
X70374Y-22353
T3
X41878Y-55093
X43374Y-21353
X73398Y-55093
X72370Y-21353
T0
M30
