G04 #@! TF.GenerationSoftware,KiCad,Pcbnew,7.0.9-1.fc38*
G04 #@! TF.CreationDate,2023-11-17T02:46:57-03:00*
G04 #@! TF.ProjectId,pc104-adapter-bottom,70633130-342d-4616-9461-707465722d62,v2.1*
G04 #@! TF.SameCoordinates,Original*
G04 #@! TF.FileFunction,Soldermask,Top*
G04 #@! TF.FilePolarity,Negative*
%FSLAX46Y46*%
G04 Gerber Fmt 4.6, Leading zero omitted, Abs format (unit mm)*
G04 Created by KiCad (PCBNEW 7.0.9-1.fc38) date 2023-11-17 02:46:57*
%MOMM*%
%LPD*%
G01*
G04 APERTURE LIST*
G04 Aperture macros list*
%AMRoundRect*
0 Rectangle with rounded corners*
0 $1 Rounding radius*
0 $2 $3 $4 $5 $6 $7 $8 $9 X,Y pos of 4 corners*
0 Add a 4 corners polygon primitive as box body*
4,1,4,$2,$3,$4,$5,$6,$7,$8,$9,$2,$3,0*
0 Add four circle primitives for the rounded corners*
1,1,$1+$1,$2,$3*
1,1,$1+$1,$4,$5*
1,1,$1+$1,$6,$7*
1,1,$1+$1,$8,$9*
0 Add four rect primitives between the rounded corners*
20,1,$1+$1,$2,$3,$4,$5,0*
20,1,$1+$1,$4,$5,$6,$7,0*
20,1,$1+$1,$6,$7,$8,$9,0*
20,1,$1+$1,$8,$9,$2,$3,0*%
G04 Aperture macros list end*
%ADD10C,0.100000*%
%ADD11C,5.600000*%
%ADD12RoundRect,0.250000X-0.450000X0.200000X-0.450000X-0.200000X0.450000X-0.200000X0.450000X0.200000X0*%
%ADD13RoundRect,0.300001X-1.249999X0.799999X-1.249999X-0.799999X1.249999X-0.799999X1.249999X0.799999X0*%
%ADD14RoundRect,0.250000X0.450000X-0.200000X0.450000X0.200000X-0.450000X0.200000X-0.450000X-0.200000X0*%
%ADD15RoundRect,0.300001X1.249999X-0.799999X1.249999X0.799999X-1.249999X0.799999X-1.249999X-0.799999X0*%
G04 APERTURE END LIST*
D10*
X116111000Y-54236000D02*
G75*
G03*
X116111000Y-54236000I-861000J0D01*
G01*
X116111000Y-56776000D02*
G75*
G03*
X116111000Y-56776000I-861000J0D01*
G01*
X118651000Y-54236000D02*
G75*
G03*
X118651000Y-54236000I-861000J0D01*
G01*
X118651000Y-56776000D02*
G75*
G03*
X118651000Y-56776000I-861000J0D01*
G01*
X121191000Y-54236000D02*
G75*
G03*
X121191000Y-54236000I-861000J0D01*
G01*
X121191000Y-56776000D02*
G75*
G03*
X121191000Y-56776000I-861000J0D01*
G01*
X123731000Y-54236000D02*
G75*
G03*
X123731000Y-54236000I-861000J0D01*
G01*
X123731000Y-56776000D02*
G75*
G03*
X123731000Y-56776000I-861000J0D01*
G01*
X126271000Y-54236000D02*
G75*
G03*
X126271000Y-54236000I-861000J0D01*
G01*
X126271000Y-56776000D02*
G75*
G03*
X126271000Y-56776000I-861000J0D01*
G01*
X128811000Y-54236000D02*
G75*
G03*
X128811000Y-54236000I-861000J0D01*
G01*
X128811000Y-56776000D02*
G75*
G03*
X128811000Y-56776000I-861000J0D01*
G01*
X131351000Y-54236000D02*
G75*
G03*
X131351000Y-54236000I-861000J0D01*
G01*
X131351000Y-56776000D02*
G75*
G03*
X131351000Y-56776000I-861000J0D01*
G01*
X133891000Y-54236000D02*
G75*
G03*
X133891000Y-54236000I-861000J0D01*
G01*
X133891000Y-56776000D02*
G75*
G03*
X133891000Y-56776000I-861000J0D01*
G01*
X136431000Y-54236000D02*
G75*
G03*
X136431000Y-54236000I-861000J0D01*
G01*
X136431000Y-56776000D02*
G75*
G03*
X136431000Y-56776000I-861000J0D01*
G01*
X138971000Y-54236000D02*
G75*
G03*
X138971000Y-54236000I-861000J0D01*
G01*
X138971000Y-56776000D02*
G75*
G03*
X138971000Y-56776000I-861000J0D01*
G01*
X141511000Y-54236000D02*
G75*
G03*
X141511000Y-54236000I-861000J0D01*
G01*
X141511000Y-56776000D02*
G75*
G03*
X141511000Y-56776000I-861000J0D01*
G01*
X144051000Y-54236000D02*
G75*
G03*
X144051000Y-54236000I-861000J0D01*
G01*
X144051000Y-56776000D02*
G75*
G03*
X144051000Y-56776000I-861000J0D01*
G01*
X146591000Y-54236000D02*
G75*
G03*
X146591000Y-54236000I-861000J0D01*
G01*
X146591000Y-56776000D02*
G75*
G03*
X146591000Y-56776000I-861000J0D01*
G01*
X149131000Y-54236000D02*
G75*
G03*
X149131000Y-54236000I-861000J0D01*
G01*
X149131000Y-56776000D02*
G75*
G03*
X149131000Y-56776000I-861000J0D01*
G01*
X151671000Y-54236000D02*
G75*
G03*
X151671000Y-54236000I-861000J0D01*
G01*
X151671000Y-56776000D02*
G75*
G03*
X151671000Y-56776000I-861000J0D01*
G01*
X154211000Y-54236000D02*
G75*
G03*
X154211000Y-54236000I-861000J0D01*
G01*
X154211000Y-56776000D02*
G75*
G03*
X154211000Y-56776000I-861000J0D01*
G01*
X156751000Y-54236000D02*
G75*
G03*
X156751000Y-54236000I-861000J0D01*
G01*
X156751000Y-56776000D02*
G75*
G03*
X156751000Y-56776000I-861000J0D01*
G01*
X159291000Y-54236000D02*
G75*
G03*
X159291000Y-54236000I-861000J0D01*
G01*
X159291000Y-56776000D02*
G75*
G03*
X159291000Y-56776000I-861000J0D01*
G01*
X161831000Y-54236000D02*
G75*
G03*
X161831000Y-54236000I-861000J0D01*
G01*
X161831000Y-56776000D02*
G75*
G03*
X161831000Y-56776000I-861000J0D01*
G01*
X164371000Y-54236000D02*
G75*
G03*
X164371000Y-54236000I-861000J0D01*
G01*
X164371000Y-56776000D02*
G75*
G03*
X164371000Y-56776000I-861000J0D01*
G01*
X166911000Y-54236000D02*
G75*
G03*
X166911000Y-54236000I-861000J0D01*
G01*
X166911000Y-56776000D02*
G75*
G03*
X166911000Y-56776000I-861000J0D01*
G01*
X169451000Y-54236000D02*
G75*
G03*
X169451000Y-54236000I-861000J0D01*
G01*
X169451000Y-56776000D02*
G75*
G03*
X169451000Y-56776000I-861000J0D01*
G01*
X171991000Y-54236000D02*
G75*
G03*
X171991000Y-54236000I-861000J0D01*
G01*
X171991000Y-56776000D02*
G75*
G03*
X171991000Y-56776000I-861000J0D01*
G01*
X174531000Y-54236000D02*
G75*
G03*
X174531000Y-54236000I-861000J0D01*
G01*
X174531000Y-56776000D02*
G75*
G03*
X174531000Y-56776000I-861000J0D01*
G01*
X177071000Y-54236000D02*
G75*
G03*
X177071000Y-54236000I-861000J0D01*
G01*
X177071000Y-56776000D02*
G75*
G03*
X177071000Y-56776000I-861000J0D01*
G01*
X179611000Y-54236000D02*
G75*
G03*
X179611000Y-54236000I-861000J0D01*
G01*
X179611000Y-56776000D02*
G75*
G03*
X179611000Y-56776000I-861000J0D01*
G01*
X116111000Y-59316000D02*
G75*
G03*
X116111000Y-59316000I-861000J0D01*
G01*
X116111000Y-61856000D02*
G75*
G03*
X116111000Y-61856000I-861000J0D01*
G01*
X118651000Y-59316000D02*
G75*
G03*
X118651000Y-59316000I-861000J0D01*
G01*
X118651000Y-61856000D02*
G75*
G03*
X118651000Y-61856000I-861000J0D01*
G01*
X121191000Y-59316000D02*
G75*
G03*
X121191000Y-59316000I-861000J0D01*
G01*
X121191000Y-61856000D02*
G75*
G03*
X121191000Y-61856000I-861000J0D01*
G01*
X123731000Y-59316000D02*
G75*
G03*
X123731000Y-59316000I-861000J0D01*
G01*
X123731000Y-61856000D02*
G75*
G03*
X123731000Y-61856000I-861000J0D01*
G01*
X126271000Y-59316000D02*
G75*
G03*
X126271000Y-59316000I-861000J0D01*
G01*
X126271000Y-61856000D02*
G75*
G03*
X126271000Y-61856000I-861000J0D01*
G01*
X128811000Y-59316000D02*
G75*
G03*
X128811000Y-59316000I-861000J0D01*
G01*
X128811000Y-61856000D02*
G75*
G03*
X128811000Y-61856000I-861000J0D01*
G01*
X131351000Y-59316000D02*
G75*
G03*
X131351000Y-59316000I-861000J0D01*
G01*
X131351000Y-61856000D02*
G75*
G03*
X131351000Y-61856000I-861000J0D01*
G01*
X133891000Y-59316000D02*
G75*
G03*
X133891000Y-59316000I-861000J0D01*
G01*
X133891000Y-61856000D02*
G75*
G03*
X133891000Y-61856000I-861000J0D01*
G01*
X136431000Y-59316000D02*
G75*
G03*
X136431000Y-59316000I-861000J0D01*
G01*
X136431000Y-61856000D02*
G75*
G03*
X136431000Y-61856000I-861000J0D01*
G01*
X138971000Y-59316000D02*
G75*
G03*
X138971000Y-59316000I-861000J0D01*
G01*
X138971000Y-61856000D02*
G75*
G03*
X138971000Y-61856000I-861000J0D01*
G01*
X141511000Y-59316000D02*
G75*
G03*
X141511000Y-59316000I-861000J0D01*
G01*
X141511000Y-61856000D02*
G75*
G03*
X141511000Y-61856000I-861000J0D01*
G01*
X144051000Y-59316000D02*
G75*
G03*
X144051000Y-59316000I-861000J0D01*
G01*
X144051000Y-61856000D02*
G75*
G03*
X144051000Y-61856000I-861000J0D01*
G01*
X146591000Y-59316000D02*
G75*
G03*
X146591000Y-59316000I-861000J0D01*
G01*
X146591000Y-61856000D02*
G75*
G03*
X146591000Y-61856000I-861000J0D01*
G01*
X149131000Y-59316000D02*
G75*
G03*
X149131000Y-59316000I-861000J0D01*
G01*
X149131000Y-61856000D02*
G75*
G03*
X149131000Y-61856000I-861000J0D01*
G01*
X151671000Y-59316000D02*
G75*
G03*
X151671000Y-59316000I-861000J0D01*
G01*
X151671000Y-61856000D02*
G75*
G03*
X151671000Y-61856000I-861000J0D01*
G01*
X154211000Y-59316000D02*
G75*
G03*
X154211000Y-59316000I-861000J0D01*
G01*
X154211000Y-61856000D02*
G75*
G03*
X154211000Y-61856000I-861000J0D01*
G01*
X156751000Y-59316000D02*
G75*
G03*
X156751000Y-59316000I-861000J0D01*
G01*
X156751000Y-61856000D02*
G75*
G03*
X156751000Y-61856000I-861000J0D01*
G01*
X159291000Y-59316000D02*
G75*
G03*
X159291000Y-59316000I-861000J0D01*
G01*
X159291000Y-61856000D02*
G75*
G03*
X159291000Y-61856000I-861000J0D01*
G01*
X161831000Y-59316000D02*
G75*
G03*
X161831000Y-59316000I-861000J0D01*
G01*
X161831000Y-61856000D02*
G75*
G03*
X161831000Y-61856000I-861000J0D01*
G01*
X164371000Y-59316000D02*
G75*
G03*
X164371000Y-59316000I-861000J0D01*
G01*
X164371000Y-61856000D02*
G75*
G03*
X164371000Y-61856000I-861000J0D01*
G01*
X166911000Y-59316000D02*
G75*
G03*
X166911000Y-59316000I-861000J0D01*
G01*
X166911000Y-61856000D02*
G75*
G03*
X166911000Y-61856000I-861000J0D01*
G01*
X169451000Y-59316000D02*
G75*
G03*
X169451000Y-59316000I-861000J0D01*
G01*
X169451000Y-61856000D02*
G75*
G03*
X169451000Y-61856000I-861000J0D01*
G01*
X171991000Y-59316000D02*
G75*
G03*
X171991000Y-59316000I-861000J0D01*
G01*
X171991000Y-61856000D02*
G75*
G03*
X171991000Y-61856000I-861000J0D01*
G01*
X174531000Y-59316000D02*
G75*
G03*
X174531000Y-59316000I-861000J0D01*
G01*
X174531000Y-61856000D02*
G75*
G03*
X174531000Y-61856000I-861000J0D01*
G01*
X177071000Y-59316000D02*
G75*
G03*
X177071000Y-59316000I-861000J0D01*
G01*
X177071000Y-61856000D02*
G75*
G03*
X177071000Y-61856000I-861000J0D01*
G01*
X179611000Y-59316000D02*
G75*
G03*
X179611000Y-59316000I-861000J0D01*
G01*
X179611000Y-61856000D02*
G75*
G03*
X179611000Y-61856000I-861000J0D01*
G01*
D11*
X110150000Y-54234000D03*
X183840000Y-54236000D03*
D12*
X121935000Y-74600000D03*
X121935000Y-75850000D03*
X121935000Y-77100000D03*
X121935000Y-78350000D03*
X121935000Y-79600000D03*
X121935000Y-80850000D03*
X121935000Y-82100000D03*
X121935000Y-83350000D03*
X121935000Y-84600000D03*
X121935000Y-85850000D03*
X121935000Y-87100000D03*
X121935000Y-88350000D03*
X121935000Y-89600000D03*
D13*
X119185000Y-72050000D03*
X119185000Y-92150000D03*
D12*
X142984000Y-74600000D03*
X142984000Y-75850000D03*
X142984000Y-77100000D03*
X142984000Y-78350000D03*
X142984000Y-79600000D03*
X142984000Y-80850000D03*
X142984000Y-82100000D03*
X142984000Y-83350000D03*
X142984000Y-84600000D03*
X142984000Y-85850000D03*
X142984000Y-87100000D03*
X142984000Y-88350000D03*
X142984000Y-89600000D03*
D13*
X140234000Y-72050000D03*
X140234000Y-92150000D03*
D14*
X161533000Y-89600000D03*
X161533000Y-88350000D03*
X161533000Y-87100000D03*
X161533000Y-85850000D03*
X161533000Y-84600000D03*
X161533000Y-83350000D03*
X161533000Y-82100000D03*
X161533000Y-80850000D03*
X161533000Y-79600000D03*
X161533000Y-78350000D03*
X161533000Y-77100000D03*
X161533000Y-75850000D03*
X161533000Y-74600000D03*
D15*
X164283000Y-92150000D03*
X164283000Y-72050000D03*
D14*
X172058000Y-89600000D03*
X172058000Y-88350000D03*
X172058000Y-87100000D03*
X172058000Y-85850000D03*
X172058000Y-84600000D03*
X172058000Y-83350000D03*
X172058000Y-82100000D03*
X172058000Y-80850000D03*
X172058000Y-79600000D03*
X172058000Y-78350000D03*
X172058000Y-77100000D03*
X172058000Y-75850000D03*
X172058000Y-74600000D03*
D15*
X174808000Y-92150000D03*
X174808000Y-72050000D03*
D12*
X111410000Y-74600000D03*
X111410000Y-75850000D03*
X111410000Y-77100000D03*
X111410000Y-78350000D03*
X111410000Y-79600000D03*
X111410000Y-80850000D03*
X111410000Y-82100000D03*
X111410000Y-83350000D03*
X111410000Y-84600000D03*
X111410000Y-85850000D03*
X111410000Y-87100000D03*
X111410000Y-88350000D03*
X111410000Y-89600000D03*
D13*
X108660000Y-72050000D03*
X108660000Y-92150000D03*
D12*
X132459000Y-74600000D03*
X132459000Y-75850000D03*
X132459000Y-77100000D03*
X132459000Y-78350000D03*
X132459000Y-79600000D03*
X132459000Y-80850000D03*
X132459000Y-82100000D03*
X132459000Y-83350000D03*
X132459000Y-84600000D03*
X132459000Y-85850000D03*
X132459000Y-87100000D03*
X132459000Y-88350000D03*
X132459000Y-89600000D03*
D13*
X129709000Y-72050000D03*
X129709000Y-92150000D03*
D14*
X151008000Y-89600000D03*
X151008000Y-88350000D03*
X151008000Y-87100000D03*
X151008000Y-85850000D03*
X151008000Y-84600000D03*
X151008000Y-83350000D03*
X151008000Y-82100000D03*
X151008000Y-80850000D03*
X151008000Y-79600000D03*
X151008000Y-78350000D03*
X151008000Y-77100000D03*
X151008000Y-75850000D03*
X151008000Y-74600000D03*
D15*
X153758000Y-92150000D03*
X153758000Y-72050000D03*
D14*
X182582000Y-89600000D03*
X182582000Y-88350000D03*
X182582000Y-87100000D03*
X182582000Y-85850000D03*
X182582000Y-84600000D03*
X182582000Y-83350000D03*
X182582000Y-82100000D03*
X182582000Y-80850000D03*
X182582000Y-79600000D03*
X182582000Y-78350000D03*
X182582000Y-77100000D03*
X182582000Y-75850000D03*
X182582000Y-74600000D03*
D15*
X185332000Y-92150000D03*
X185332000Y-72050000D03*
D11*
X106450000Y-139936000D03*
X186450000Y-139936000D03*
M02*
