G04 #@! TF.GenerationSoftware,KiCad,Pcbnew,7.0.9-1.fc38*
G04 #@! TF.CreationDate,2023-11-17T02:46:57-03:00*
G04 #@! TF.ProjectId,pc104-adapter-bottom,70633130-342d-4616-9461-707465722d62,v2.1*
G04 #@! TF.SameCoordinates,Original*
G04 #@! TF.FileFunction,Soldermask,Bot*
G04 #@! TF.FilePolarity,Negative*
%FSLAX46Y46*%
G04 Gerber Fmt 4.6, Leading zero omitted, Abs format (unit mm)*
G04 Created by KiCad (PCBNEW 7.0.9-1.fc38) date 2023-11-17 02:46:57*
%MOMM*%
%LPD*%
G01*
G04 APERTURE LIST*
%ADD10C,0.100000*%
%ADD11C,5.600000*%
G04 APERTURE END LIST*
D10*
X116111000Y-54236000D02*
G75*
G03*
X116111000Y-54236000I-861000J0D01*
G01*
X116111000Y-56776000D02*
G75*
G03*
X116111000Y-56776000I-861000J0D01*
G01*
X118651000Y-54236000D02*
G75*
G03*
X118651000Y-54236000I-861000J0D01*
G01*
X118651000Y-56776000D02*
G75*
G03*
X118651000Y-56776000I-861000J0D01*
G01*
X121191000Y-54236000D02*
G75*
G03*
X121191000Y-54236000I-861000J0D01*
G01*
X121191000Y-56776000D02*
G75*
G03*
X121191000Y-56776000I-861000J0D01*
G01*
X123731000Y-54236000D02*
G75*
G03*
X123731000Y-54236000I-861000J0D01*
G01*
X123731000Y-56776000D02*
G75*
G03*
X123731000Y-56776000I-861000J0D01*
G01*
X126271000Y-54236000D02*
G75*
G03*
X126271000Y-54236000I-861000J0D01*
G01*
X126271000Y-56776000D02*
G75*
G03*
X126271000Y-56776000I-861000J0D01*
G01*
X128811000Y-54236000D02*
G75*
G03*
X128811000Y-54236000I-861000J0D01*
G01*
X128811000Y-56776000D02*
G75*
G03*
X128811000Y-56776000I-861000J0D01*
G01*
X131351000Y-54236000D02*
G75*
G03*
X131351000Y-54236000I-861000J0D01*
G01*
X131351000Y-56776000D02*
G75*
G03*
X131351000Y-56776000I-861000J0D01*
G01*
X133891000Y-54236000D02*
G75*
G03*
X133891000Y-54236000I-861000J0D01*
G01*
X133891000Y-56776000D02*
G75*
G03*
X133891000Y-56776000I-861000J0D01*
G01*
X136431000Y-54236000D02*
G75*
G03*
X136431000Y-54236000I-861000J0D01*
G01*
X136431000Y-56776000D02*
G75*
G03*
X136431000Y-56776000I-861000J0D01*
G01*
X138971000Y-54236000D02*
G75*
G03*
X138971000Y-54236000I-861000J0D01*
G01*
X138971000Y-56776000D02*
G75*
G03*
X138971000Y-56776000I-861000J0D01*
G01*
X141511000Y-54236000D02*
G75*
G03*
X141511000Y-54236000I-861000J0D01*
G01*
X141511000Y-56776000D02*
G75*
G03*
X141511000Y-56776000I-861000J0D01*
G01*
X144051000Y-54236000D02*
G75*
G03*
X144051000Y-54236000I-861000J0D01*
G01*
X144051000Y-56776000D02*
G75*
G03*
X144051000Y-56776000I-861000J0D01*
G01*
X146591000Y-54236000D02*
G75*
G03*
X146591000Y-54236000I-861000J0D01*
G01*
X146591000Y-56776000D02*
G75*
G03*
X146591000Y-56776000I-861000J0D01*
G01*
X149131000Y-54236000D02*
G75*
G03*
X149131000Y-54236000I-861000J0D01*
G01*
X149131000Y-56776000D02*
G75*
G03*
X149131000Y-56776000I-861000J0D01*
G01*
X151671000Y-54236000D02*
G75*
G03*
X151671000Y-54236000I-861000J0D01*
G01*
X151671000Y-56776000D02*
G75*
G03*
X151671000Y-56776000I-861000J0D01*
G01*
X154211000Y-54236000D02*
G75*
G03*
X154211000Y-54236000I-861000J0D01*
G01*
X154211000Y-56776000D02*
G75*
G03*
X154211000Y-56776000I-861000J0D01*
G01*
X156751000Y-54236000D02*
G75*
G03*
X156751000Y-54236000I-861000J0D01*
G01*
X156751000Y-56776000D02*
G75*
G03*
X156751000Y-56776000I-861000J0D01*
G01*
X159291000Y-54236000D02*
G75*
G03*
X159291000Y-54236000I-861000J0D01*
G01*
X159291000Y-56776000D02*
G75*
G03*
X159291000Y-56776000I-861000J0D01*
G01*
X161831000Y-54236000D02*
G75*
G03*
X161831000Y-54236000I-861000J0D01*
G01*
X161831000Y-56776000D02*
G75*
G03*
X161831000Y-56776000I-861000J0D01*
G01*
X164371000Y-54236000D02*
G75*
G03*
X164371000Y-54236000I-861000J0D01*
G01*
X164371000Y-56776000D02*
G75*
G03*
X164371000Y-56776000I-861000J0D01*
G01*
X166911000Y-54236000D02*
G75*
G03*
X166911000Y-54236000I-861000J0D01*
G01*
X166911000Y-56776000D02*
G75*
G03*
X166911000Y-56776000I-861000J0D01*
G01*
X169451000Y-54236000D02*
G75*
G03*
X169451000Y-54236000I-861000J0D01*
G01*
X169451000Y-56776000D02*
G75*
G03*
X169451000Y-56776000I-861000J0D01*
G01*
X171991000Y-54236000D02*
G75*
G03*
X171991000Y-54236000I-861000J0D01*
G01*
X171991000Y-56776000D02*
G75*
G03*
X171991000Y-56776000I-861000J0D01*
G01*
X174531000Y-54236000D02*
G75*
G03*
X174531000Y-54236000I-861000J0D01*
G01*
X174531000Y-56776000D02*
G75*
G03*
X174531000Y-56776000I-861000J0D01*
G01*
X177071000Y-54236000D02*
G75*
G03*
X177071000Y-54236000I-861000J0D01*
G01*
X177071000Y-56776000D02*
G75*
G03*
X177071000Y-56776000I-861000J0D01*
G01*
X179611000Y-54236000D02*
G75*
G03*
X179611000Y-54236000I-861000J0D01*
G01*
X179611000Y-56776000D02*
G75*
G03*
X179611000Y-56776000I-861000J0D01*
G01*
X116111000Y-59316000D02*
G75*
G03*
X116111000Y-59316000I-861000J0D01*
G01*
X116111000Y-61856000D02*
G75*
G03*
X116111000Y-61856000I-861000J0D01*
G01*
X118651000Y-59316000D02*
G75*
G03*
X118651000Y-59316000I-861000J0D01*
G01*
X118651000Y-61856000D02*
G75*
G03*
X118651000Y-61856000I-861000J0D01*
G01*
X121191000Y-59316000D02*
G75*
G03*
X121191000Y-59316000I-861000J0D01*
G01*
X121191000Y-61856000D02*
G75*
G03*
X121191000Y-61856000I-861000J0D01*
G01*
X123731000Y-59316000D02*
G75*
G03*
X123731000Y-59316000I-861000J0D01*
G01*
X123731000Y-61856000D02*
G75*
G03*
X123731000Y-61856000I-861000J0D01*
G01*
X126271000Y-59316000D02*
G75*
G03*
X126271000Y-59316000I-861000J0D01*
G01*
X126271000Y-61856000D02*
G75*
G03*
X126271000Y-61856000I-861000J0D01*
G01*
X128811000Y-59316000D02*
G75*
G03*
X128811000Y-59316000I-861000J0D01*
G01*
X128811000Y-61856000D02*
G75*
G03*
X128811000Y-61856000I-861000J0D01*
G01*
X131351000Y-59316000D02*
G75*
G03*
X131351000Y-59316000I-861000J0D01*
G01*
X131351000Y-61856000D02*
G75*
G03*
X131351000Y-61856000I-861000J0D01*
G01*
X133891000Y-59316000D02*
G75*
G03*
X133891000Y-59316000I-861000J0D01*
G01*
X133891000Y-61856000D02*
G75*
G03*
X133891000Y-61856000I-861000J0D01*
G01*
X136431000Y-59316000D02*
G75*
G03*
X136431000Y-59316000I-861000J0D01*
G01*
X136431000Y-61856000D02*
G75*
G03*
X136431000Y-61856000I-861000J0D01*
G01*
X138971000Y-59316000D02*
G75*
G03*
X138971000Y-59316000I-861000J0D01*
G01*
X138971000Y-61856000D02*
G75*
G03*
X138971000Y-61856000I-861000J0D01*
G01*
X141511000Y-59316000D02*
G75*
G03*
X141511000Y-59316000I-861000J0D01*
G01*
X141511000Y-61856000D02*
G75*
G03*
X141511000Y-61856000I-861000J0D01*
G01*
X144051000Y-59316000D02*
G75*
G03*
X144051000Y-59316000I-861000J0D01*
G01*
X144051000Y-61856000D02*
G75*
G03*
X144051000Y-61856000I-861000J0D01*
G01*
X146591000Y-59316000D02*
G75*
G03*
X146591000Y-59316000I-861000J0D01*
G01*
X146591000Y-61856000D02*
G75*
G03*
X146591000Y-61856000I-861000J0D01*
G01*
X149131000Y-59316000D02*
G75*
G03*
X149131000Y-59316000I-861000J0D01*
G01*
X149131000Y-61856000D02*
G75*
G03*
X149131000Y-61856000I-861000J0D01*
G01*
X151671000Y-59316000D02*
G75*
G03*
X151671000Y-59316000I-861000J0D01*
G01*
X151671000Y-61856000D02*
G75*
G03*
X151671000Y-61856000I-861000J0D01*
G01*
X154211000Y-59316000D02*
G75*
G03*
X154211000Y-59316000I-861000J0D01*
G01*
X154211000Y-61856000D02*
G75*
G03*
X154211000Y-61856000I-861000J0D01*
G01*
X156751000Y-59316000D02*
G75*
G03*
X156751000Y-59316000I-861000J0D01*
G01*
X156751000Y-61856000D02*
G75*
G03*
X156751000Y-61856000I-861000J0D01*
G01*
X159291000Y-59316000D02*
G75*
G03*
X159291000Y-59316000I-861000J0D01*
G01*
X159291000Y-61856000D02*
G75*
G03*
X159291000Y-61856000I-861000J0D01*
G01*
X161831000Y-59316000D02*
G75*
G03*
X161831000Y-59316000I-861000J0D01*
G01*
X161831000Y-61856000D02*
G75*
G03*
X161831000Y-61856000I-861000J0D01*
G01*
X164371000Y-59316000D02*
G75*
G03*
X164371000Y-59316000I-861000J0D01*
G01*
X164371000Y-61856000D02*
G75*
G03*
X164371000Y-61856000I-861000J0D01*
G01*
X166911000Y-59316000D02*
G75*
G03*
X166911000Y-59316000I-861000J0D01*
G01*
X166911000Y-61856000D02*
G75*
G03*
X166911000Y-61856000I-861000J0D01*
G01*
X169451000Y-59316000D02*
G75*
G03*
X169451000Y-59316000I-861000J0D01*
G01*
X169451000Y-61856000D02*
G75*
G03*
X169451000Y-61856000I-861000J0D01*
G01*
X171991000Y-59316000D02*
G75*
G03*
X171991000Y-59316000I-861000J0D01*
G01*
X171991000Y-61856000D02*
G75*
G03*
X171991000Y-61856000I-861000J0D01*
G01*
X174531000Y-59316000D02*
G75*
G03*
X174531000Y-59316000I-861000J0D01*
G01*
X174531000Y-61856000D02*
G75*
G03*
X174531000Y-61856000I-861000J0D01*
G01*
X177071000Y-59316000D02*
G75*
G03*
X177071000Y-59316000I-861000J0D01*
G01*
X177071000Y-61856000D02*
G75*
G03*
X177071000Y-61856000I-861000J0D01*
G01*
X179611000Y-59316000D02*
G75*
G03*
X179611000Y-59316000I-861000J0D01*
G01*
X179611000Y-61856000D02*
G75*
G03*
X179611000Y-61856000I-861000J0D01*
G01*
D11*
X110150000Y-54234000D03*
X183840000Y-54236000D03*
X106450000Y-139936000D03*
X186450000Y-139936000D03*
M02*
