%TF.GenerationSoftware,KiCad,Pcbnew,5.1.6-1.fc32*%
%TF.CreationDate,2020-07-10T21:29:07-03:00*%
%TF.ProjectId,pc104-adapter-bottom,70633130-342d-4616-9461-707465722d62,rev?*%
%TF.SameCoordinates,Original*%
%TF.FileFunction,Paste,Top*%
%TF.FilePolarity,Positive*%
%FSLAX46Y46*%
G04 Gerber Fmt 4.6, Leading zero omitted, Abs format (unit mm)*
G04 Created by KiCad (PCBNEW 5.1.6-1.fc32) date 2020-07-10 21:29:07*
%MOMM*%
%LPD*%
G01*
G04 APERTURE LIST*
G04 APERTURE END LIST*
%TO.C,J8*%
G36*
G01*
X180100000Y-98950000D02*
X180100000Y-96450000D01*
G75*
G02*
X180350000Y-96200000I250000J0D01*
G01*
X181950000Y-96200000D01*
G75*
G02*
X182200000Y-96450000I0J-250000D01*
G01*
X182200000Y-98950000D01*
G75*
G02*
X181950000Y-99200000I-250000J0D01*
G01*
X180350000Y-99200000D01*
G75*
G02*
X180100000Y-98950000I0J250000D01*
G01*
G37*
G36*
G01*
X160000000Y-98950000D02*
X160000000Y-96450000D01*
G75*
G02*
X160250000Y-96200000I250000J0D01*
G01*
X161850000Y-96200000D01*
G75*
G02*
X162100000Y-96450000I0J-250000D01*
G01*
X162100000Y-98950000D01*
G75*
G02*
X161850000Y-99200000I-250000J0D01*
G01*
X160250000Y-99200000D01*
G75*
G02*
X160000000Y-98950000I0J250000D01*
G01*
G37*
G36*
G01*
X178200000Y-95400000D02*
X178200000Y-94500000D01*
G75*
G02*
X178400000Y-94300000I200000J0D01*
G01*
X178800000Y-94300000D01*
G75*
G02*
X179000000Y-94500000I0J-200000D01*
G01*
X179000000Y-95400000D01*
G75*
G02*
X178800000Y-95600000I-200000J0D01*
G01*
X178400000Y-95600000D01*
G75*
G02*
X178200000Y-95400000I0J200000D01*
G01*
G37*
G36*
G01*
X176950000Y-95400000D02*
X176950000Y-94500000D01*
G75*
G02*
X177150000Y-94300000I200000J0D01*
G01*
X177550000Y-94300000D01*
G75*
G02*
X177750000Y-94500000I0J-200000D01*
G01*
X177750000Y-95400000D01*
G75*
G02*
X177550000Y-95600000I-200000J0D01*
G01*
X177150000Y-95600000D01*
G75*
G02*
X176950000Y-95400000I0J200000D01*
G01*
G37*
G36*
G01*
X175700000Y-95400000D02*
X175700000Y-94500000D01*
G75*
G02*
X175900000Y-94300000I200000J0D01*
G01*
X176300000Y-94300000D01*
G75*
G02*
X176500000Y-94500000I0J-200000D01*
G01*
X176500000Y-95400000D01*
G75*
G02*
X176300000Y-95600000I-200000J0D01*
G01*
X175900000Y-95600000D01*
G75*
G02*
X175700000Y-95400000I0J200000D01*
G01*
G37*
G36*
G01*
X174450000Y-95400000D02*
X174450000Y-94500000D01*
G75*
G02*
X174650000Y-94300000I200000J0D01*
G01*
X175050000Y-94300000D01*
G75*
G02*
X175250000Y-94500000I0J-200000D01*
G01*
X175250000Y-95400000D01*
G75*
G02*
X175050000Y-95600000I-200000J0D01*
G01*
X174650000Y-95600000D01*
G75*
G02*
X174450000Y-95400000I0J200000D01*
G01*
G37*
G36*
G01*
X173200000Y-95400000D02*
X173200000Y-94500000D01*
G75*
G02*
X173400000Y-94300000I200000J0D01*
G01*
X173800000Y-94300000D01*
G75*
G02*
X174000000Y-94500000I0J-200000D01*
G01*
X174000000Y-95400000D01*
G75*
G02*
X173800000Y-95600000I-200000J0D01*
G01*
X173400000Y-95600000D01*
G75*
G02*
X173200000Y-95400000I0J200000D01*
G01*
G37*
G36*
G01*
X171950000Y-95400000D02*
X171950000Y-94500000D01*
G75*
G02*
X172150000Y-94300000I200000J0D01*
G01*
X172550000Y-94300000D01*
G75*
G02*
X172750000Y-94500000I0J-200000D01*
G01*
X172750000Y-95400000D01*
G75*
G02*
X172550000Y-95600000I-200000J0D01*
G01*
X172150000Y-95600000D01*
G75*
G02*
X171950000Y-95400000I0J200000D01*
G01*
G37*
G36*
G01*
X170700000Y-95400000D02*
X170700000Y-94500000D01*
G75*
G02*
X170900000Y-94300000I200000J0D01*
G01*
X171300000Y-94300000D01*
G75*
G02*
X171500000Y-94500000I0J-200000D01*
G01*
X171500000Y-95400000D01*
G75*
G02*
X171300000Y-95600000I-200000J0D01*
G01*
X170900000Y-95600000D01*
G75*
G02*
X170700000Y-95400000I0J200000D01*
G01*
G37*
G36*
G01*
X169450000Y-95400000D02*
X169450000Y-94500000D01*
G75*
G02*
X169650000Y-94300000I200000J0D01*
G01*
X170050000Y-94300000D01*
G75*
G02*
X170250000Y-94500000I0J-200000D01*
G01*
X170250000Y-95400000D01*
G75*
G02*
X170050000Y-95600000I-200000J0D01*
G01*
X169650000Y-95600000D01*
G75*
G02*
X169450000Y-95400000I0J200000D01*
G01*
G37*
G36*
G01*
X168200000Y-95400000D02*
X168200000Y-94500000D01*
G75*
G02*
X168400000Y-94300000I200000J0D01*
G01*
X168800000Y-94300000D01*
G75*
G02*
X169000000Y-94500000I0J-200000D01*
G01*
X169000000Y-95400000D01*
G75*
G02*
X168800000Y-95600000I-200000J0D01*
G01*
X168400000Y-95600000D01*
G75*
G02*
X168200000Y-95400000I0J200000D01*
G01*
G37*
G36*
G01*
X166950000Y-95400000D02*
X166950000Y-94500000D01*
G75*
G02*
X167150000Y-94300000I200000J0D01*
G01*
X167550000Y-94300000D01*
G75*
G02*
X167750000Y-94500000I0J-200000D01*
G01*
X167750000Y-95400000D01*
G75*
G02*
X167550000Y-95600000I-200000J0D01*
G01*
X167150000Y-95600000D01*
G75*
G02*
X166950000Y-95400000I0J200000D01*
G01*
G37*
G36*
G01*
X165700000Y-95400000D02*
X165700000Y-94500000D01*
G75*
G02*
X165900000Y-94300000I200000J0D01*
G01*
X166300000Y-94300000D01*
G75*
G02*
X166500000Y-94500000I0J-200000D01*
G01*
X166500000Y-95400000D01*
G75*
G02*
X166300000Y-95600000I-200000J0D01*
G01*
X165900000Y-95600000D01*
G75*
G02*
X165700000Y-95400000I0J200000D01*
G01*
G37*
G36*
G01*
X164450000Y-95400000D02*
X164450000Y-94500000D01*
G75*
G02*
X164650000Y-94300000I200000J0D01*
G01*
X165050000Y-94300000D01*
G75*
G02*
X165250000Y-94500000I0J-200000D01*
G01*
X165250000Y-95400000D01*
G75*
G02*
X165050000Y-95600000I-200000J0D01*
G01*
X164650000Y-95600000D01*
G75*
G02*
X164450000Y-95400000I0J200000D01*
G01*
G37*
G36*
G01*
X163200000Y-95400000D02*
X163200000Y-94500000D01*
G75*
G02*
X163400000Y-94300000I200000J0D01*
G01*
X163800000Y-94300000D01*
G75*
G02*
X164000000Y-94500000I0J-200000D01*
G01*
X164000000Y-95400000D01*
G75*
G02*
X163800000Y-95600000I-200000J0D01*
G01*
X163400000Y-95600000D01*
G75*
G02*
X163200000Y-95400000I0J200000D01*
G01*
G37*
%TD*%
%TO.C,J7*%
G36*
G01*
X156900000Y-98950000D02*
X156900000Y-96450000D01*
G75*
G02*
X157150000Y-96200000I250000J0D01*
G01*
X158750000Y-96200000D01*
G75*
G02*
X159000000Y-96450000I0J-250000D01*
G01*
X159000000Y-98950000D01*
G75*
G02*
X158750000Y-99200000I-250000J0D01*
G01*
X157150000Y-99200000D01*
G75*
G02*
X156900000Y-98950000I0J250000D01*
G01*
G37*
G36*
G01*
X136800000Y-98950000D02*
X136800000Y-96450000D01*
G75*
G02*
X137050000Y-96200000I250000J0D01*
G01*
X138650000Y-96200000D01*
G75*
G02*
X138900000Y-96450000I0J-250000D01*
G01*
X138900000Y-98950000D01*
G75*
G02*
X138650000Y-99200000I-250000J0D01*
G01*
X137050000Y-99200000D01*
G75*
G02*
X136800000Y-98950000I0J250000D01*
G01*
G37*
G36*
G01*
X155000000Y-95400000D02*
X155000000Y-94500000D01*
G75*
G02*
X155200000Y-94300000I200000J0D01*
G01*
X155600000Y-94300000D01*
G75*
G02*
X155800000Y-94500000I0J-200000D01*
G01*
X155800000Y-95400000D01*
G75*
G02*
X155600000Y-95600000I-200000J0D01*
G01*
X155200000Y-95600000D01*
G75*
G02*
X155000000Y-95400000I0J200000D01*
G01*
G37*
G36*
G01*
X153750000Y-95400000D02*
X153750000Y-94500000D01*
G75*
G02*
X153950000Y-94300000I200000J0D01*
G01*
X154350000Y-94300000D01*
G75*
G02*
X154550000Y-94500000I0J-200000D01*
G01*
X154550000Y-95400000D01*
G75*
G02*
X154350000Y-95600000I-200000J0D01*
G01*
X153950000Y-95600000D01*
G75*
G02*
X153750000Y-95400000I0J200000D01*
G01*
G37*
G36*
G01*
X152500000Y-95400000D02*
X152500000Y-94500000D01*
G75*
G02*
X152700000Y-94300000I200000J0D01*
G01*
X153100000Y-94300000D01*
G75*
G02*
X153300000Y-94500000I0J-200000D01*
G01*
X153300000Y-95400000D01*
G75*
G02*
X153100000Y-95600000I-200000J0D01*
G01*
X152700000Y-95600000D01*
G75*
G02*
X152500000Y-95400000I0J200000D01*
G01*
G37*
G36*
G01*
X151250000Y-95400000D02*
X151250000Y-94500000D01*
G75*
G02*
X151450000Y-94300000I200000J0D01*
G01*
X151850000Y-94300000D01*
G75*
G02*
X152050000Y-94500000I0J-200000D01*
G01*
X152050000Y-95400000D01*
G75*
G02*
X151850000Y-95600000I-200000J0D01*
G01*
X151450000Y-95600000D01*
G75*
G02*
X151250000Y-95400000I0J200000D01*
G01*
G37*
G36*
G01*
X150000000Y-95400000D02*
X150000000Y-94500000D01*
G75*
G02*
X150200000Y-94300000I200000J0D01*
G01*
X150600000Y-94300000D01*
G75*
G02*
X150800000Y-94500000I0J-200000D01*
G01*
X150800000Y-95400000D01*
G75*
G02*
X150600000Y-95600000I-200000J0D01*
G01*
X150200000Y-95600000D01*
G75*
G02*
X150000000Y-95400000I0J200000D01*
G01*
G37*
G36*
G01*
X148750000Y-95400000D02*
X148750000Y-94500000D01*
G75*
G02*
X148950000Y-94300000I200000J0D01*
G01*
X149350000Y-94300000D01*
G75*
G02*
X149550000Y-94500000I0J-200000D01*
G01*
X149550000Y-95400000D01*
G75*
G02*
X149350000Y-95600000I-200000J0D01*
G01*
X148950000Y-95600000D01*
G75*
G02*
X148750000Y-95400000I0J200000D01*
G01*
G37*
G36*
G01*
X147500000Y-95400000D02*
X147500000Y-94500000D01*
G75*
G02*
X147700000Y-94300000I200000J0D01*
G01*
X148100000Y-94300000D01*
G75*
G02*
X148300000Y-94500000I0J-200000D01*
G01*
X148300000Y-95400000D01*
G75*
G02*
X148100000Y-95600000I-200000J0D01*
G01*
X147700000Y-95600000D01*
G75*
G02*
X147500000Y-95400000I0J200000D01*
G01*
G37*
G36*
G01*
X146250000Y-95400000D02*
X146250000Y-94500000D01*
G75*
G02*
X146450000Y-94300000I200000J0D01*
G01*
X146850000Y-94300000D01*
G75*
G02*
X147050000Y-94500000I0J-200000D01*
G01*
X147050000Y-95400000D01*
G75*
G02*
X146850000Y-95600000I-200000J0D01*
G01*
X146450000Y-95600000D01*
G75*
G02*
X146250000Y-95400000I0J200000D01*
G01*
G37*
G36*
G01*
X145000000Y-95400000D02*
X145000000Y-94500000D01*
G75*
G02*
X145200000Y-94300000I200000J0D01*
G01*
X145600000Y-94300000D01*
G75*
G02*
X145800000Y-94500000I0J-200000D01*
G01*
X145800000Y-95400000D01*
G75*
G02*
X145600000Y-95600000I-200000J0D01*
G01*
X145200000Y-95600000D01*
G75*
G02*
X145000000Y-95400000I0J200000D01*
G01*
G37*
G36*
G01*
X143750000Y-95400000D02*
X143750000Y-94500000D01*
G75*
G02*
X143950000Y-94300000I200000J0D01*
G01*
X144350000Y-94300000D01*
G75*
G02*
X144550000Y-94500000I0J-200000D01*
G01*
X144550000Y-95400000D01*
G75*
G02*
X144350000Y-95600000I-200000J0D01*
G01*
X143950000Y-95600000D01*
G75*
G02*
X143750000Y-95400000I0J200000D01*
G01*
G37*
G36*
G01*
X142500000Y-95400000D02*
X142500000Y-94500000D01*
G75*
G02*
X142700000Y-94300000I200000J0D01*
G01*
X143100000Y-94300000D01*
G75*
G02*
X143300000Y-94500000I0J-200000D01*
G01*
X143300000Y-95400000D01*
G75*
G02*
X143100000Y-95600000I-200000J0D01*
G01*
X142700000Y-95600000D01*
G75*
G02*
X142500000Y-95400000I0J200000D01*
G01*
G37*
G36*
G01*
X141250000Y-95400000D02*
X141250000Y-94500000D01*
G75*
G02*
X141450000Y-94300000I200000J0D01*
G01*
X141850000Y-94300000D01*
G75*
G02*
X142050000Y-94500000I0J-200000D01*
G01*
X142050000Y-95400000D01*
G75*
G02*
X141850000Y-95600000I-200000J0D01*
G01*
X141450000Y-95600000D01*
G75*
G02*
X141250000Y-95400000I0J200000D01*
G01*
G37*
G36*
G01*
X140000000Y-95400000D02*
X140000000Y-94500000D01*
G75*
G02*
X140200000Y-94300000I200000J0D01*
G01*
X140600000Y-94300000D01*
G75*
G02*
X140800000Y-94500000I0J-200000D01*
G01*
X140800000Y-95400000D01*
G75*
G02*
X140600000Y-95600000I-200000J0D01*
G01*
X140200000Y-95600000D01*
G75*
G02*
X140000000Y-95400000I0J200000D01*
G01*
G37*
%TD*%
%TO.C,J6*%
G36*
G01*
X133700000Y-98950000D02*
X133700000Y-96450000D01*
G75*
G02*
X133950000Y-96200000I250000J0D01*
G01*
X135550000Y-96200000D01*
G75*
G02*
X135800000Y-96450000I0J-250000D01*
G01*
X135800000Y-98950000D01*
G75*
G02*
X135550000Y-99200000I-250000J0D01*
G01*
X133950000Y-99200000D01*
G75*
G02*
X133700000Y-98950000I0J250000D01*
G01*
G37*
G36*
G01*
X113600000Y-98950000D02*
X113600000Y-96450000D01*
G75*
G02*
X113850000Y-96200000I250000J0D01*
G01*
X115450000Y-96200000D01*
G75*
G02*
X115700000Y-96450000I0J-250000D01*
G01*
X115700000Y-98950000D01*
G75*
G02*
X115450000Y-99200000I-250000J0D01*
G01*
X113850000Y-99200000D01*
G75*
G02*
X113600000Y-98950000I0J250000D01*
G01*
G37*
G36*
G01*
X131800000Y-95400000D02*
X131800000Y-94500000D01*
G75*
G02*
X132000000Y-94300000I200000J0D01*
G01*
X132400000Y-94300000D01*
G75*
G02*
X132600000Y-94500000I0J-200000D01*
G01*
X132600000Y-95400000D01*
G75*
G02*
X132400000Y-95600000I-200000J0D01*
G01*
X132000000Y-95600000D01*
G75*
G02*
X131800000Y-95400000I0J200000D01*
G01*
G37*
G36*
G01*
X130550000Y-95400000D02*
X130550000Y-94500000D01*
G75*
G02*
X130750000Y-94300000I200000J0D01*
G01*
X131150000Y-94300000D01*
G75*
G02*
X131350000Y-94500000I0J-200000D01*
G01*
X131350000Y-95400000D01*
G75*
G02*
X131150000Y-95600000I-200000J0D01*
G01*
X130750000Y-95600000D01*
G75*
G02*
X130550000Y-95400000I0J200000D01*
G01*
G37*
G36*
G01*
X129300000Y-95400000D02*
X129300000Y-94500000D01*
G75*
G02*
X129500000Y-94300000I200000J0D01*
G01*
X129900000Y-94300000D01*
G75*
G02*
X130100000Y-94500000I0J-200000D01*
G01*
X130100000Y-95400000D01*
G75*
G02*
X129900000Y-95600000I-200000J0D01*
G01*
X129500000Y-95600000D01*
G75*
G02*
X129300000Y-95400000I0J200000D01*
G01*
G37*
G36*
G01*
X128050000Y-95400000D02*
X128050000Y-94500000D01*
G75*
G02*
X128250000Y-94300000I200000J0D01*
G01*
X128650000Y-94300000D01*
G75*
G02*
X128850000Y-94500000I0J-200000D01*
G01*
X128850000Y-95400000D01*
G75*
G02*
X128650000Y-95600000I-200000J0D01*
G01*
X128250000Y-95600000D01*
G75*
G02*
X128050000Y-95400000I0J200000D01*
G01*
G37*
G36*
G01*
X126800000Y-95400000D02*
X126800000Y-94500000D01*
G75*
G02*
X127000000Y-94300000I200000J0D01*
G01*
X127400000Y-94300000D01*
G75*
G02*
X127600000Y-94500000I0J-200000D01*
G01*
X127600000Y-95400000D01*
G75*
G02*
X127400000Y-95600000I-200000J0D01*
G01*
X127000000Y-95600000D01*
G75*
G02*
X126800000Y-95400000I0J200000D01*
G01*
G37*
G36*
G01*
X125550000Y-95400000D02*
X125550000Y-94500000D01*
G75*
G02*
X125750000Y-94300000I200000J0D01*
G01*
X126150000Y-94300000D01*
G75*
G02*
X126350000Y-94500000I0J-200000D01*
G01*
X126350000Y-95400000D01*
G75*
G02*
X126150000Y-95600000I-200000J0D01*
G01*
X125750000Y-95600000D01*
G75*
G02*
X125550000Y-95400000I0J200000D01*
G01*
G37*
G36*
G01*
X124300000Y-95400000D02*
X124300000Y-94500000D01*
G75*
G02*
X124500000Y-94300000I200000J0D01*
G01*
X124900000Y-94300000D01*
G75*
G02*
X125100000Y-94500000I0J-200000D01*
G01*
X125100000Y-95400000D01*
G75*
G02*
X124900000Y-95600000I-200000J0D01*
G01*
X124500000Y-95600000D01*
G75*
G02*
X124300000Y-95400000I0J200000D01*
G01*
G37*
G36*
G01*
X123050000Y-95400000D02*
X123050000Y-94500000D01*
G75*
G02*
X123250000Y-94300000I200000J0D01*
G01*
X123650000Y-94300000D01*
G75*
G02*
X123850000Y-94500000I0J-200000D01*
G01*
X123850000Y-95400000D01*
G75*
G02*
X123650000Y-95600000I-200000J0D01*
G01*
X123250000Y-95600000D01*
G75*
G02*
X123050000Y-95400000I0J200000D01*
G01*
G37*
G36*
G01*
X121800000Y-95400000D02*
X121800000Y-94500000D01*
G75*
G02*
X122000000Y-94300000I200000J0D01*
G01*
X122400000Y-94300000D01*
G75*
G02*
X122600000Y-94500000I0J-200000D01*
G01*
X122600000Y-95400000D01*
G75*
G02*
X122400000Y-95600000I-200000J0D01*
G01*
X122000000Y-95600000D01*
G75*
G02*
X121800000Y-95400000I0J200000D01*
G01*
G37*
G36*
G01*
X120550000Y-95400000D02*
X120550000Y-94500000D01*
G75*
G02*
X120750000Y-94300000I200000J0D01*
G01*
X121150000Y-94300000D01*
G75*
G02*
X121350000Y-94500000I0J-200000D01*
G01*
X121350000Y-95400000D01*
G75*
G02*
X121150000Y-95600000I-200000J0D01*
G01*
X120750000Y-95600000D01*
G75*
G02*
X120550000Y-95400000I0J200000D01*
G01*
G37*
G36*
G01*
X119300000Y-95400000D02*
X119300000Y-94500000D01*
G75*
G02*
X119500000Y-94300000I200000J0D01*
G01*
X119900000Y-94300000D01*
G75*
G02*
X120100000Y-94500000I0J-200000D01*
G01*
X120100000Y-95400000D01*
G75*
G02*
X119900000Y-95600000I-200000J0D01*
G01*
X119500000Y-95600000D01*
G75*
G02*
X119300000Y-95400000I0J200000D01*
G01*
G37*
G36*
G01*
X118050000Y-95400000D02*
X118050000Y-94500000D01*
G75*
G02*
X118250000Y-94300000I200000J0D01*
G01*
X118650000Y-94300000D01*
G75*
G02*
X118850000Y-94500000I0J-200000D01*
G01*
X118850000Y-95400000D01*
G75*
G02*
X118650000Y-95600000I-200000J0D01*
G01*
X118250000Y-95600000D01*
G75*
G02*
X118050000Y-95400000I0J200000D01*
G01*
G37*
G36*
G01*
X116800000Y-95400000D02*
X116800000Y-94500000D01*
G75*
G02*
X117000000Y-94300000I200000J0D01*
G01*
X117400000Y-94300000D01*
G75*
G02*
X117600000Y-94500000I0J-200000D01*
G01*
X117600000Y-95400000D01*
G75*
G02*
X117400000Y-95600000I-200000J0D01*
G01*
X117000000Y-95600000D01*
G75*
G02*
X116800000Y-95400000I0J200000D01*
G01*
G37*
%TD*%
%TO.C,J5*%
G36*
G01*
X110500000Y-98950000D02*
X110500000Y-96450000D01*
G75*
G02*
X110750000Y-96200000I250000J0D01*
G01*
X112350000Y-96200000D01*
G75*
G02*
X112600000Y-96450000I0J-250000D01*
G01*
X112600000Y-98950000D01*
G75*
G02*
X112350000Y-99200000I-250000J0D01*
G01*
X110750000Y-99200000D01*
G75*
G02*
X110500000Y-98950000I0J250000D01*
G01*
G37*
G36*
G01*
X90400000Y-98950000D02*
X90400000Y-96450000D01*
G75*
G02*
X90650000Y-96200000I250000J0D01*
G01*
X92250000Y-96200000D01*
G75*
G02*
X92500000Y-96450000I0J-250000D01*
G01*
X92500000Y-98950000D01*
G75*
G02*
X92250000Y-99200000I-250000J0D01*
G01*
X90650000Y-99200000D01*
G75*
G02*
X90400000Y-98950000I0J250000D01*
G01*
G37*
G36*
G01*
X108600000Y-95400000D02*
X108600000Y-94500000D01*
G75*
G02*
X108800000Y-94300000I200000J0D01*
G01*
X109200000Y-94300000D01*
G75*
G02*
X109400000Y-94500000I0J-200000D01*
G01*
X109400000Y-95400000D01*
G75*
G02*
X109200000Y-95600000I-200000J0D01*
G01*
X108800000Y-95600000D01*
G75*
G02*
X108600000Y-95400000I0J200000D01*
G01*
G37*
G36*
G01*
X107350000Y-95400000D02*
X107350000Y-94500000D01*
G75*
G02*
X107550000Y-94300000I200000J0D01*
G01*
X107950000Y-94300000D01*
G75*
G02*
X108150000Y-94500000I0J-200000D01*
G01*
X108150000Y-95400000D01*
G75*
G02*
X107950000Y-95600000I-200000J0D01*
G01*
X107550000Y-95600000D01*
G75*
G02*
X107350000Y-95400000I0J200000D01*
G01*
G37*
G36*
G01*
X106100000Y-95400000D02*
X106100000Y-94500000D01*
G75*
G02*
X106300000Y-94300000I200000J0D01*
G01*
X106700000Y-94300000D01*
G75*
G02*
X106900000Y-94500000I0J-200000D01*
G01*
X106900000Y-95400000D01*
G75*
G02*
X106700000Y-95600000I-200000J0D01*
G01*
X106300000Y-95600000D01*
G75*
G02*
X106100000Y-95400000I0J200000D01*
G01*
G37*
G36*
G01*
X104850000Y-95400000D02*
X104850000Y-94500000D01*
G75*
G02*
X105050000Y-94300000I200000J0D01*
G01*
X105450000Y-94300000D01*
G75*
G02*
X105650000Y-94500000I0J-200000D01*
G01*
X105650000Y-95400000D01*
G75*
G02*
X105450000Y-95600000I-200000J0D01*
G01*
X105050000Y-95600000D01*
G75*
G02*
X104850000Y-95400000I0J200000D01*
G01*
G37*
G36*
G01*
X103600000Y-95400000D02*
X103600000Y-94500000D01*
G75*
G02*
X103800000Y-94300000I200000J0D01*
G01*
X104200000Y-94300000D01*
G75*
G02*
X104400000Y-94500000I0J-200000D01*
G01*
X104400000Y-95400000D01*
G75*
G02*
X104200000Y-95600000I-200000J0D01*
G01*
X103800000Y-95600000D01*
G75*
G02*
X103600000Y-95400000I0J200000D01*
G01*
G37*
G36*
G01*
X102350000Y-95400000D02*
X102350000Y-94500000D01*
G75*
G02*
X102550000Y-94300000I200000J0D01*
G01*
X102950000Y-94300000D01*
G75*
G02*
X103150000Y-94500000I0J-200000D01*
G01*
X103150000Y-95400000D01*
G75*
G02*
X102950000Y-95600000I-200000J0D01*
G01*
X102550000Y-95600000D01*
G75*
G02*
X102350000Y-95400000I0J200000D01*
G01*
G37*
G36*
G01*
X101100000Y-95400000D02*
X101100000Y-94500000D01*
G75*
G02*
X101300000Y-94300000I200000J0D01*
G01*
X101700000Y-94300000D01*
G75*
G02*
X101900000Y-94500000I0J-200000D01*
G01*
X101900000Y-95400000D01*
G75*
G02*
X101700000Y-95600000I-200000J0D01*
G01*
X101300000Y-95600000D01*
G75*
G02*
X101100000Y-95400000I0J200000D01*
G01*
G37*
G36*
G01*
X99850000Y-95400000D02*
X99850000Y-94500000D01*
G75*
G02*
X100050000Y-94300000I200000J0D01*
G01*
X100450000Y-94300000D01*
G75*
G02*
X100650000Y-94500000I0J-200000D01*
G01*
X100650000Y-95400000D01*
G75*
G02*
X100450000Y-95600000I-200000J0D01*
G01*
X100050000Y-95600000D01*
G75*
G02*
X99850000Y-95400000I0J200000D01*
G01*
G37*
G36*
G01*
X98600000Y-95400000D02*
X98600000Y-94500000D01*
G75*
G02*
X98800000Y-94300000I200000J0D01*
G01*
X99200000Y-94300000D01*
G75*
G02*
X99400000Y-94500000I0J-200000D01*
G01*
X99400000Y-95400000D01*
G75*
G02*
X99200000Y-95600000I-200000J0D01*
G01*
X98800000Y-95600000D01*
G75*
G02*
X98600000Y-95400000I0J200000D01*
G01*
G37*
G36*
G01*
X97350000Y-95400000D02*
X97350000Y-94500000D01*
G75*
G02*
X97550000Y-94300000I200000J0D01*
G01*
X97950000Y-94300000D01*
G75*
G02*
X98150000Y-94500000I0J-200000D01*
G01*
X98150000Y-95400000D01*
G75*
G02*
X97950000Y-95600000I-200000J0D01*
G01*
X97550000Y-95600000D01*
G75*
G02*
X97350000Y-95400000I0J200000D01*
G01*
G37*
G36*
G01*
X96100000Y-95400000D02*
X96100000Y-94500000D01*
G75*
G02*
X96300000Y-94300000I200000J0D01*
G01*
X96700000Y-94300000D01*
G75*
G02*
X96900000Y-94500000I0J-200000D01*
G01*
X96900000Y-95400000D01*
G75*
G02*
X96700000Y-95600000I-200000J0D01*
G01*
X96300000Y-95600000D01*
G75*
G02*
X96100000Y-95400000I0J200000D01*
G01*
G37*
G36*
G01*
X94850000Y-95400000D02*
X94850000Y-94500000D01*
G75*
G02*
X95050000Y-94300000I200000J0D01*
G01*
X95450000Y-94300000D01*
G75*
G02*
X95650000Y-94500000I0J-200000D01*
G01*
X95650000Y-95400000D01*
G75*
G02*
X95450000Y-95600000I-200000J0D01*
G01*
X95050000Y-95600000D01*
G75*
G02*
X94850000Y-95400000I0J200000D01*
G01*
G37*
G36*
G01*
X93600000Y-95400000D02*
X93600000Y-94500000D01*
G75*
G02*
X93800000Y-94300000I200000J0D01*
G01*
X94200000Y-94300000D01*
G75*
G02*
X94400000Y-94500000I0J-200000D01*
G01*
X94400000Y-95400000D01*
G75*
G02*
X94200000Y-95600000I-200000J0D01*
G01*
X93800000Y-95600000D01*
G75*
G02*
X93600000Y-95400000I0J200000D01*
G01*
G37*
%TD*%
%TO.C,J4*%
G36*
G01*
X180100000Y-108950000D02*
X180100000Y-106450000D01*
G75*
G02*
X180350000Y-106200000I250000J0D01*
G01*
X181950000Y-106200000D01*
G75*
G02*
X182200000Y-106450000I0J-250000D01*
G01*
X182200000Y-108950000D01*
G75*
G02*
X181950000Y-109200000I-250000J0D01*
G01*
X180350000Y-109200000D01*
G75*
G02*
X180100000Y-108950000I0J250000D01*
G01*
G37*
G36*
G01*
X160000000Y-108950000D02*
X160000000Y-106450000D01*
G75*
G02*
X160250000Y-106200000I250000J0D01*
G01*
X161850000Y-106200000D01*
G75*
G02*
X162100000Y-106450000I0J-250000D01*
G01*
X162100000Y-108950000D01*
G75*
G02*
X161850000Y-109200000I-250000J0D01*
G01*
X160250000Y-109200000D01*
G75*
G02*
X160000000Y-108950000I0J250000D01*
G01*
G37*
G36*
G01*
X178200000Y-105400000D02*
X178200000Y-104500000D01*
G75*
G02*
X178400000Y-104300000I200000J0D01*
G01*
X178800000Y-104300000D01*
G75*
G02*
X179000000Y-104500000I0J-200000D01*
G01*
X179000000Y-105400000D01*
G75*
G02*
X178800000Y-105600000I-200000J0D01*
G01*
X178400000Y-105600000D01*
G75*
G02*
X178200000Y-105400000I0J200000D01*
G01*
G37*
G36*
G01*
X176950000Y-105400000D02*
X176950000Y-104500000D01*
G75*
G02*
X177150000Y-104300000I200000J0D01*
G01*
X177550000Y-104300000D01*
G75*
G02*
X177750000Y-104500000I0J-200000D01*
G01*
X177750000Y-105400000D01*
G75*
G02*
X177550000Y-105600000I-200000J0D01*
G01*
X177150000Y-105600000D01*
G75*
G02*
X176950000Y-105400000I0J200000D01*
G01*
G37*
G36*
G01*
X175700000Y-105400000D02*
X175700000Y-104500000D01*
G75*
G02*
X175900000Y-104300000I200000J0D01*
G01*
X176300000Y-104300000D01*
G75*
G02*
X176500000Y-104500000I0J-200000D01*
G01*
X176500000Y-105400000D01*
G75*
G02*
X176300000Y-105600000I-200000J0D01*
G01*
X175900000Y-105600000D01*
G75*
G02*
X175700000Y-105400000I0J200000D01*
G01*
G37*
G36*
G01*
X174450000Y-105400000D02*
X174450000Y-104500000D01*
G75*
G02*
X174650000Y-104300000I200000J0D01*
G01*
X175050000Y-104300000D01*
G75*
G02*
X175250000Y-104500000I0J-200000D01*
G01*
X175250000Y-105400000D01*
G75*
G02*
X175050000Y-105600000I-200000J0D01*
G01*
X174650000Y-105600000D01*
G75*
G02*
X174450000Y-105400000I0J200000D01*
G01*
G37*
G36*
G01*
X173200000Y-105400000D02*
X173200000Y-104500000D01*
G75*
G02*
X173400000Y-104300000I200000J0D01*
G01*
X173800000Y-104300000D01*
G75*
G02*
X174000000Y-104500000I0J-200000D01*
G01*
X174000000Y-105400000D01*
G75*
G02*
X173800000Y-105600000I-200000J0D01*
G01*
X173400000Y-105600000D01*
G75*
G02*
X173200000Y-105400000I0J200000D01*
G01*
G37*
G36*
G01*
X171950000Y-105400000D02*
X171950000Y-104500000D01*
G75*
G02*
X172150000Y-104300000I200000J0D01*
G01*
X172550000Y-104300000D01*
G75*
G02*
X172750000Y-104500000I0J-200000D01*
G01*
X172750000Y-105400000D01*
G75*
G02*
X172550000Y-105600000I-200000J0D01*
G01*
X172150000Y-105600000D01*
G75*
G02*
X171950000Y-105400000I0J200000D01*
G01*
G37*
G36*
G01*
X170700000Y-105400000D02*
X170700000Y-104500000D01*
G75*
G02*
X170900000Y-104300000I200000J0D01*
G01*
X171300000Y-104300000D01*
G75*
G02*
X171500000Y-104500000I0J-200000D01*
G01*
X171500000Y-105400000D01*
G75*
G02*
X171300000Y-105600000I-200000J0D01*
G01*
X170900000Y-105600000D01*
G75*
G02*
X170700000Y-105400000I0J200000D01*
G01*
G37*
G36*
G01*
X169450000Y-105400000D02*
X169450000Y-104500000D01*
G75*
G02*
X169650000Y-104300000I200000J0D01*
G01*
X170050000Y-104300000D01*
G75*
G02*
X170250000Y-104500000I0J-200000D01*
G01*
X170250000Y-105400000D01*
G75*
G02*
X170050000Y-105600000I-200000J0D01*
G01*
X169650000Y-105600000D01*
G75*
G02*
X169450000Y-105400000I0J200000D01*
G01*
G37*
G36*
G01*
X168200000Y-105400000D02*
X168200000Y-104500000D01*
G75*
G02*
X168400000Y-104300000I200000J0D01*
G01*
X168800000Y-104300000D01*
G75*
G02*
X169000000Y-104500000I0J-200000D01*
G01*
X169000000Y-105400000D01*
G75*
G02*
X168800000Y-105600000I-200000J0D01*
G01*
X168400000Y-105600000D01*
G75*
G02*
X168200000Y-105400000I0J200000D01*
G01*
G37*
G36*
G01*
X166950000Y-105400000D02*
X166950000Y-104500000D01*
G75*
G02*
X167150000Y-104300000I200000J0D01*
G01*
X167550000Y-104300000D01*
G75*
G02*
X167750000Y-104500000I0J-200000D01*
G01*
X167750000Y-105400000D01*
G75*
G02*
X167550000Y-105600000I-200000J0D01*
G01*
X167150000Y-105600000D01*
G75*
G02*
X166950000Y-105400000I0J200000D01*
G01*
G37*
G36*
G01*
X165700000Y-105400000D02*
X165700000Y-104500000D01*
G75*
G02*
X165900000Y-104300000I200000J0D01*
G01*
X166300000Y-104300000D01*
G75*
G02*
X166500000Y-104500000I0J-200000D01*
G01*
X166500000Y-105400000D01*
G75*
G02*
X166300000Y-105600000I-200000J0D01*
G01*
X165900000Y-105600000D01*
G75*
G02*
X165700000Y-105400000I0J200000D01*
G01*
G37*
G36*
G01*
X164450000Y-105400000D02*
X164450000Y-104500000D01*
G75*
G02*
X164650000Y-104300000I200000J0D01*
G01*
X165050000Y-104300000D01*
G75*
G02*
X165250000Y-104500000I0J-200000D01*
G01*
X165250000Y-105400000D01*
G75*
G02*
X165050000Y-105600000I-200000J0D01*
G01*
X164650000Y-105600000D01*
G75*
G02*
X164450000Y-105400000I0J200000D01*
G01*
G37*
G36*
G01*
X163200000Y-105400000D02*
X163200000Y-104500000D01*
G75*
G02*
X163400000Y-104300000I200000J0D01*
G01*
X163800000Y-104300000D01*
G75*
G02*
X164000000Y-104500000I0J-200000D01*
G01*
X164000000Y-105400000D01*
G75*
G02*
X163800000Y-105600000I-200000J0D01*
G01*
X163400000Y-105600000D01*
G75*
G02*
X163200000Y-105400000I0J200000D01*
G01*
G37*
%TD*%
%TO.C,J3*%
G36*
G01*
X156900000Y-108950000D02*
X156900000Y-106450000D01*
G75*
G02*
X157150000Y-106200000I250000J0D01*
G01*
X158750000Y-106200000D01*
G75*
G02*
X159000000Y-106450000I0J-250000D01*
G01*
X159000000Y-108950000D01*
G75*
G02*
X158750000Y-109200000I-250000J0D01*
G01*
X157150000Y-109200000D01*
G75*
G02*
X156900000Y-108950000I0J250000D01*
G01*
G37*
G36*
G01*
X136800000Y-108950000D02*
X136800000Y-106450000D01*
G75*
G02*
X137050000Y-106200000I250000J0D01*
G01*
X138650000Y-106200000D01*
G75*
G02*
X138900000Y-106450000I0J-250000D01*
G01*
X138900000Y-108950000D01*
G75*
G02*
X138650000Y-109200000I-250000J0D01*
G01*
X137050000Y-109200000D01*
G75*
G02*
X136800000Y-108950000I0J250000D01*
G01*
G37*
G36*
G01*
X155000000Y-105400000D02*
X155000000Y-104500000D01*
G75*
G02*
X155200000Y-104300000I200000J0D01*
G01*
X155600000Y-104300000D01*
G75*
G02*
X155800000Y-104500000I0J-200000D01*
G01*
X155800000Y-105400000D01*
G75*
G02*
X155600000Y-105600000I-200000J0D01*
G01*
X155200000Y-105600000D01*
G75*
G02*
X155000000Y-105400000I0J200000D01*
G01*
G37*
G36*
G01*
X153750000Y-105400000D02*
X153750000Y-104500000D01*
G75*
G02*
X153950000Y-104300000I200000J0D01*
G01*
X154350000Y-104300000D01*
G75*
G02*
X154550000Y-104500000I0J-200000D01*
G01*
X154550000Y-105400000D01*
G75*
G02*
X154350000Y-105600000I-200000J0D01*
G01*
X153950000Y-105600000D01*
G75*
G02*
X153750000Y-105400000I0J200000D01*
G01*
G37*
G36*
G01*
X152500000Y-105400000D02*
X152500000Y-104500000D01*
G75*
G02*
X152700000Y-104300000I200000J0D01*
G01*
X153100000Y-104300000D01*
G75*
G02*
X153300000Y-104500000I0J-200000D01*
G01*
X153300000Y-105400000D01*
G75*
G02*
X153100000Y-105600000I-200000J0D01*
G01*
X152700000Y-105600000D01*
G75*
G02*
X152500000Y-105400000I0J200000D01*
G01*
G37*
G36*
G01*
X151250000Y-105400000D02*
X151250000Y-104500000D01*
G75*
G02*
X151450000Y-104300000I200000J0D01*
G01*
X151850000Y-104300000D01*
G75*
G02*
X152050000Y-104500000I0J-200000D01*
G01*
X152050000Y-105400000D01*
G75*
G02*
X151850000Y-105600000I-200000J0D01*
G01*
X151450000Y-105600000D01*
G75*
G02*
X151250000Y-105400000I0J200000D01*
G01*
G37*
G36*
G01*
X150000000Y-105400000D02*
X150000000Y-104500000D01*
G75*
G02*
X150200000Y-104300000I200000J0D01*
G01*
X150600000Y-104300000D01*
G75*
G02*
X150800000Y-104500000I0J-200000D01*
G01*
X150800000Y-105400000D01*
G75*
G02*
X150600000Y-105600000I-200000J0D01*
G01*
X150200000Y-105600000D01*
G75*
G02*
X150000000Y-105400000I0J200000D01*
G01*
G37*
G36*
G01*
X148750000Y-105400000D02*
X148750000Y-104500000D01*
G75*
G02*
X148950000Y-104300000I200000J0D01*
G01*
X149350000Y-104300000D01*
G75*
G02*
X149550000Y-104500000I0J-200000D01*
G01*
X149550000Y-105400000D01*
G75*
G02*
X149350000Y-105600000I-200000J0D01*
G01*
X148950000Y-105600000D01*
G75*
G02*
X148750000Y-105400000I0J200000D01*
G01*
G37*
G36*
G01*
X147500000Y-105400000D02*
X147500000Y-104500000D01*
G75*
G02*
X147700000Y-104300000I200000J0D01*
G01*
X148100000Y-104300000D01*
G75*
G02*
X148300000Y-104500000I0J-200000D01*
G01*
X148300000Y-105400000D01*
G75*
G02*
X148100000Y-105600000I-200000J0D01*
G01*
X147700000Y-105600000D01*
G75*
G02*
X147500000Y-105400000I0J200000D01*
G01*
G37*
G36*
G01*
X146250000Y-105400000D02*
X146250000Y-104500000D01*
G75*
G02*
X146450000Y-104300000I200000J0D01*
G01*
X146850000Y-104300000D01*
G75*
G02*
X147050000Y-104500000I0J-200000D01*
G01*
X147050000Y-105400000D01*
G75*
G02*
X146850000Y-105600000I-200000J0D01*
G01*
X146450000Y-105600000D01*
G75*
G02*
X146250000Y-105400000I0J200000D01*
G01*
G37*
G36*
G01*
X145000000Y-105400000D02*
X145000000Y-104500000D01*
G75*
G02*
X145200000Y-104300000I200000J0D01*
G01*
X145600000Y-104300000D01*
G75*
G02*
X145800000Y-104500000I0J-200000D01*
G01*
X145800000Y-105400000D01*
G75*
G02*
X145600000Y-105600000I-200000J0D01*
G01*
X145200000Y-105600000D01*
G75*
G02*
X145000000Y-105400000I0J200000D01*
G01*
G37*
G36*
G01*
X143750000Y-105400000D02*
X143750000Y-104500000D01*
G75*
G02*
X143950000Y-104300000I200000J0D01*
G01*
X144350000Y-104300000D01*
G75*
G02*
X144550000Y-104500000I0J-200000D01*
G01*
X144550000Y-105400000D01*
G75*
G02*
X144350000Y-105600000I-200000J0D01*
G01*
X143950000Y-105600000D01*
G75*
G02*
X143750000Y-105400000I0J200000D01*
G01*
G37*
G36*
G01*
X142500000Y-105400000D02*
X142500000Y-104500000D01*
G75*
G02*
X142700000Y-104300000I200000J0D01*
G01*
X143100000Y-104300000D01*
G75*
G02*
X143300000Y-104500000I0J-200000D01*
G01*
X143300000Y-105400000D01*
G75*
G02*
X143100000Y-105600000I-200000J0D01*
G01*
X142700000Y-105600000D01*
G75*
G02*
X142500000Y-105400000I0J200000D01*
G01*
G37*
G36*
G01*
X141250000Y-105400000D02*
X141250000Y-104500000D01*
G75*
G02*
X141450000Y-104300000I200000J0D01*
G01*
X141850000Y-104300000D01*
G75*
G02*
X142050000Y-104500000I0J-200000D01*
G01*
X142050000Y-105400000D01*
G75*
G02*
X141850000Y-105600000I-200000J0D01*
G01*
X141450000Y-105600000D01*
G75*
G02*
X141250000Y-105400000I0J200000D01*
G01*
G37*
G36*
G01*
X140000000Y-105400000D02*
X140000000Y-104500000D01*
G75*
G02*
X140200000Y-104300000I200000J0D01*
G01*
X140600000Y-104300000D01*
G75*
G02*
X140800000Y-104500000I0J-200000D01*
G01*
X140800000Y-105400000D01*
G75*
G02*
X140600000Y-105600000I-200000J0D01*
G01*
X140200000Y-105600000D01*
G75*
G02*
X140000000Y-105400000I0J200000D01*
G01*
G37*
%TD*%
%TO.C,J2*%
G36*
G01*
X133700000Y-108950000D02*
X133700000Y-106450000D01*
G75*
G02*
X133950000Y-106200000I250000J0D01*
G01*
X135550000Y-106200000D01*
G75*
G02*
X135800000Y-106450000I0J-250000D01*
G01*
X135800000Y-108950000D01*
G75*
G02*
X135550000Y-109200000I-250000J0D01*
G01*
X133950000Y-109200000D01*
G75*
G02*
X133700000Y-108950000I0J250000D01*
G01*
G37*
G36*
G01*
X113600000Y-108950000D02*
X113600000Y-106450000D01*
G75*
G02*
X113850000Y-106200000I250000J0D01*
G01*
X115450000Y-106200000D01*
G75*
G02*
X115700000Y-106450000I0J-250000D01*
G01*
X115700000Y-108950000D01*
G75*
G02*
X115450000Y-109200000I-250000J0D01*
G01*
X113850000Y-109200000D01*
G75*
G02*
X113600000Y-108950000I0J250000D01*
G01*
G37*
G36*
G01*
X131800000Y-105400000D02*
X131800000Y-104500000D01*
G75*
G02*
X132000000Y-104300000I200000J0D01*
G01*
X132400000Y-104300000D01*
G75*
G02*
X132600000Y-104500000I0J-200000D01*
G01*
X132600000Y-105400000D01*
G75*
G02*
X132400000Y-105600000I-200000J0D01*
G01*
X132000000Y-105600000D01*
G75*
G02*
X131800000Y-105400000I0J200000D01*
G01*
G37*
G36*
G01*
X130550000Y-105400000D02*
X130550000Y-104500000D01*
G75*
G02*
X130750000Y-104300000I200000J0D01*
G01*
X131150000Y-104300000D01*
G75*
G02*
X131350000Y-104500000I0J-200000D01*
G01*
X131350000Y-105400000D01*
G75*
G02*
X131150000Y-105600000I-200000J0D01*
G01*
X130750000Y-105600000D01*
G75*
G02*
X130550000Y-105400000I0J200000D01*
G01*
G37*
G36*
G01*
X129300000Y-105400000D02*
X129300000Y-104500000D01*
G75*
G02*
X129500000Y-104300000I200000J0D01*
G01*
X129900000Y-104300000D01*
G75*
G02*
X130100000Y-104500000I0J-200000D01*
G01*
X130100000Y-105400000D01*
G75*
G02*
X129900000Y-105600000I-200000J0D01*
G01*
X129500000Y-105600000D01*
G75*
G02*
X129300000Y-105400000I0J200000D01*
G01*
G37*
G36*
G01*
X128050000Y-105400000D02*
X128050000Y-104500000D01*
G75*
G02*
X128250000Y-104300000I200000J0D01*
G01*
X128650000Y-104300000D01*
G75*
G02*
X128850000Y-104500000I0J-200000D01*
G01*
X128850000Y-105400000D01*
G75*
G02*
X128650000Y-105600000I-200000J0D01*
G01*
X128250000Y-105600000D01*
G75*
G02*
X128050000Y-105400000I0J200000D01*
G01*
G37*
G36*
G01*
X126800000Y-105400000D02*
X126800000Y-104500000D01*
G75*
G02*
X127000000Y-104300000I200000J0D01*
G01*
X127400000Y-104300000D01*
G75*
G02*
X127600000Y-104500000I0J-200000D01*
G01*
X127600000Y-105400000D01*
G75*
G02*
X127400000Y-105600000I-200000J0D01*
G01*
X127000000Y-105600000D01*
G75*
G02*
X126800000Y-105400000I0J200000D01*
G01*
G37*
G36*
G01*
X125550000Y-105400000D02*
X125550000Y-104500000D01*
G75*
G02*
X125750000Y-104300000I200000J0D01*
G01*
X126150000Y-104300000D01*
G75*
G02*
X126350000Y-104500000I0J-200000D01*
G01*
X126350000Y-105400000D01*
G75*
G02*
X126150000Y-105600000I-200000J0D01*
G01*
X125750000Y-105600000D01*
G75*
G02*
X125550000Y-105400000I0J200000D01*
G01*
G37*
G36*
G01*
X124300000Y-105400000D02*
X124300000Y-104500000D01*
G75*
G02*
X124500000Y-104300000I200000J0D01*
G01*
X124900000Y-104300000D01*
G75*
G02*
X125100000Y-104500000I0J-200000D01*
G01*
X125100000Y-105400000D01*
G75*
G02*
X124900000Y-105600000I-200000J0D01*
G01*
X124500000Y-105600000D01*
G75*
G02*
X124300000Y-105400000I0J200000D01*
G01*
G37*
G36*
G01*
X123050000Y-105400000D02*
X123050000Y-104500000D01*
G75*
G02*
X123250000Y-104300000I200000J0D01*
G01*
X123650000Y-104300000D01*
G75*
G02*
X123850000Y-104500000I0J-200000D01*
G01*
X123850000Y-105400000D01*
G75*
G02*
X123650000Y-105600000I-200000J0D01*
G01*
X123250000Y-105600000D01*
G75*
G02*
X123050000Y-105400000I0J200000D01*
G01*
G37*
G36*
G01*
X121800000Y-105400000D02*
X121800000Y-104500000D01*
G75*
G02*
X122000000Y-104300000I200000J0D01*
G01*
X122400000Y-104300000D01*
G75*
G02*
X122600000Y-104500000I0J-200000D01*
G01*
X122600000Y-105400000D01*
G75*
G02*
X122400000Y-105600000I-200000J0D01*
G01*
X122000000Y-105600000D01*
G75*
G02*
X121800000Y-105400000I0J200000D01*
G01*
G37*
G36*
G01*
X120550000Y-105400000D02*
X120550000Y-104500000D01*
G75*
G02*
X120750000Y-104300000I200000J0D01*
G01*
X121150000Y-104300000D01*
G75*
G02*
X121350000Y-104500000I0J-200000D01*
G01*
X121350000Y-105400000D01*
G75*
G02*
X121150000Y-105600000I-200000J0D01*
G01*
X120750000Y-105600000D01*
G75*
G02*
X120550000Y-105400000I0J200000D01*
G01*
G37*
G36*
G01*
X119300000Y-105400000D02*
X119300000Y-104500000D01*
G75*
G02*
X119500000Y-104300000I200000J0D01*
G01*
X119900000Y-104300000D01*
G75*
G02*
X120100000Y-104500000I0J-200000D01*
G01*
X120100000Y-105400000D01*
G75*
G02*
X119900000Y-105600000I-200000J0D01*
G01*
X119500000Y-105600000D01*
G75*
G02*
X119300000Y-105400000I0J200000D01*
G01*
G37*
G36*
G01*
X118050000Y-105400000D02*
X118050000Y-104500000D01*
G75*
G02*
X118250000Y-104300000I200000J0D01*
G01*
X118650000Y-104300000D01*
G75*
G02*
X118850000Y-104500000I0J-200000D01*
G01*
X118850000Y-105400000D01*
G75*
G02*
X118650000Y-105600000I-200000J0D01*
G01*
X118250000Y-105600000D01*
G75*
G02*
X118050000Y-105400000I0J200000D01*
G01*
G37*
G36*
G01*
X116800000Y-105400000D02*
X116800000Y-104500000D01*
G75*
G02*
X117000000Y-104300000I200000J0D01*
G01*
X117400000Y-104300000D01*
G75*
G02*
X117600000Y-104500000I0J-200000D01*
G01*
X117600000Y-105400000D01*
G75*
G02*
X117400000Y-105600000I-200000J0D01*
G01*
X117000000Y-105600000D01*
G75*
G02*
X116800000Y-105400000I0J200000D01*
G01*
G37*
%TD*%
%TO.C,J1*%
G36*
G01*
X110500000Y-108950000D02*
X110500000Y-106450000D01*
G75*
G02*
X110750000Y-106200000I250000J0D01*
G01*
X112350000Y-106200000D01*
G75*
G02*
X112600000Y-106450000I0J-250000D01*
G01*
X112600000Y-108950000D01*
G75*
G02*
X112350000Y-109200000I-250000J0D01*
G01*
X110750000Y-109200000D01*
G75*
G02*
X110500000Y-108950000I0J250000D01*
G01*
G37*
G36*
G01*
X90400000Y-108950000D02*
X90400000Y-106450000D01*
G75*
G02*
X90650000Y-106200000I250000J0D01*
G01*
X92250000Y-106200000D01*
G75*
G02*
X92500000Y-106450000I0J-250000D01*
G01*
X92500000Y-108950000D01*
G75*
G02*
X92250000Y-109200000I-250000J0D01*
G01*
X90650000Y-109200000D01*
G75*
G02*
X90400000Y-108950000I0J250000D01*
G01*
G37*
G36*
G01*
X108600000Y-105400000D02*
X108600000Y-104500000D01*
G75*
G02*
X108800000Y-104300000I200000J0D01*
G01*
X109200000Y-104300000D01*
G75*
G02*
X109400000Y-104500000I0J-200000D01*
G01*
X109400000Y-105400000D01*
G75*
G02*
X109200000Y-105600000I-200000J0D01*
G01*
X108800000Y-105600000D01*
G75*
G02*
X108600000Y-105400000I0J200000D01*
G01*
G37*
G36*
G01*
X107350000Y-105400000D02*
X107350000Y-104500000D01*
G75*
G02*
X107550000Y-104300000I200000J0D01*
G01*
X107950000Y-104300000D01*
G75*
G02*
X108150000Y-104500000I0J-200000D01*
G01*
X108150000Y-105400000D01*
G75*
G02*
X107950000Y-105600000I-200000J0D01*
G01*
X107550000Y-105600000D01*
G75*
G02*
X107350000Y-105400000I0J200000D01*
G01*
G37*
G36*
G01*
X106100000Y-105400000D02*
X106100000Y-104500000D01*
G75*
G02*
X106300000Y-104300000I200000J0D01*
G01*
X106700000Y-104300000D01*
G75*
G02*
X106900000Y-104500000I0J-200000D01*
G01*
X106900000Y-105400000D01*
G75*
G02*
X106700000Y-105600000I-200000J0D01*
G01*
X106300000Y-105600000D01*
G75*
G02*
X106100000Y-105400000I0J200000D01*
G01*
G37*
G36*
G01*
X104850000Y-105400000D02*
X104850000Y-104500000D01*
G75*
G02*
X105050000Y-104300000I200000J0D01*
G01*
X105450000Y-104300000D01*
G75*
G02*
X105650000Y-104500000I0J-200000D01*
G01*
X105650000Y-105400000D01*
G75*
G02*
X105450000Y-105600000I-200000J0D01*
G01*
X105050000Y-105600000D01*
G75*
G02*
X104850000Y-105400000I0J200000D01*
G01*
G37*
G36*
G01*
X103600000Y-105400000D02*
X103600000Y-104500000D01*
G75*
G02*
X103800000Y-104300000I200000J0D01*
G01*
X104200000Y-104300000D01*
G75*
G02*
X104400000Y-104500000I0J-200000D01*
G01*
X104400000Y-105400000D01*
G75*
G02*
X104200000Y-105600000I-200000J0D01*
G01*
X103800000Y-105600000D01*
G75*
G02*
X103600000Y-105400000I0J200000D01*
G01*
G37*
G36*
G01*
X102350000Y-105400000D02*
X102350000Y-104500000D01*
G75*
G02*
X102550000Y-104300000I200000J0D01*
G01*
X102950000Y-104300000D01*
G75*
G02*
X103150000Y-104500000I0J-200000D01*
G01*
X103150000Y-105400000D01*
G75*
G02*
X102950000Y-105600000I-200000J0D01*
G01*
X102550000Y-105600000D01*
G75*
G02*
X102350000Y-105400000I0J200000D01*
G01*
G37*
G36*
G01*
X101100000Y-105400000D02*
X101100000Y-104500000D01*
G75*
G02*
X101300000Y-104300000I200000J0D01*
G01*
X101700000Y-104300000D01*
G75*
G02*
X101900000Y-104500000I0J-200000D01*
G01*
X101900000Y-105400000D01*
G75*
G02*
X101700000Y-105600000I-200000J0D01*
G01*
X101300000Y-105600000D01*
G75*
G02*
X101100000Y-105400000I0J200000D01*
G01*
G37*
G36*
G01*
X99850000Y-105400000D02*
X99850000Y-104500000D01*
G75*
G02*
X100050000Y-104300000I200000J0D01*
G01*
X100450000Y-104300000D01*
G75*
G02*
X100650000Y-104500000I0J-200000D01*
G01*
X100650000Y-105400000D01*
G75*
G02*
X100450000Y-105600000I-200000J0D01*
G01*
X100050000Y-105600000D01*
G75*
G02*
X99850000Y-105400000I0J200000D01*
G01*
G37*
G36*
G01*
X98600000Y-105400000D02*
X98600000Y-104500000D01*
G75*
G02*
X98800000Y-104300000I200000J0D01*
G01*
X99200000Y-104300000D01*
G75*
G02*
X99400000Y-104500000I0J-200000D01*
G01*
X99400000Y-105400000D01*
G75*
G02*
X99200000Y-105600000I-200000J0D01*
G01*
X98800000Y-105600000D01*
G75*
G02*
X98600000Y-105400000I0J200000D01*
G01*
G37*
G36*
G01*
X97350000Y-105400000D02*
X97350000Y-104500000D01*
G75*
G02*
X97550000Y-104300000I200000J0D01*
G01*
X97950000Y-104300000D01*
G75*
G02*
X98150000Y-104500000I0J-200000D01*
G01*
X98150000Y-105400000D01*
G75*
G02*
X97950000Y-105600000I-200000J0D01*
G01*
X97550000Y-105600000D01*
G75*
G02*
X97350000Y-105400000I0J200000D01*
G01*
G37*
G36*
G01*
X96100000Y-105400000D02*
X96100000Y-104500000D01*
G75*
G02*
X96300000Y-104300000I200000J0D01*
G01*
X96700000Y-104300000D01*
G75*
G02*
X96900000Y-104500000I0J-200000D01*
G01*
X96900000Y-105400000D01*
G75*
G02*
X96700000Y-105600000I-200000J0D01*
G01*
X96300000Y-105600000D01*
G75*
G02*
X96100000Y-105400000I0J200000D01*
G01*
G37*
G36*
G01*
X94850000Y-105400000D02*
X94850000Y-104500000D01*
G75*
G02*
X95050000Y-104300000I200000J0D01*
G01*
X95450000Y-104300000D01*
G75*
G02*
X95650000Y-104500000I0J-200000D01*
G01*
X95650000Y-105400000D01*
G75*
G02*
X95450000Y-105600000I-200000J0D01*
G01*
X95050000Y-105600000D01*
G75*
G02*
X94850000Y-105400000I0J200000D01*
G01*
G37*
G36*
G01*
X93600000Y-105400000D02*
X93600000Y-104500000D01*
G75*
G02*
X93800000Y-104300000I200000J0D01*
G01*
X94200000Y-104300000D01*
G75*
G02*
X94400000Y-104500000I0J-200000D01*
G01*
X94400000Y-105400000D01*
G75*
G02*
X94200000Y-105600000I-200000J0D01*
G01*
X93800000Y-105600000D01*
G75*
G02*
X93600000Y-105400000I0J200000D01*
G01*
G37*
%TD*%
M02*
