M48
; DRILL file {KiCad 5.1.6-1.fc32} date Fri Jul 10 21:29:00 2020
; FORMAT={-:-/ absolute / inch / decimal}
; #@! TF.CreationDate,2020-07-10T21:29:00-03:00
; #@! TF.GenerationSoftware,Kicad,Pcbnew,5.1.6-1.fc32
; #@! TF.FileFunction,Plated,1,4,PTH
FMAT,2
INCH
T1C0.0157
T2C0.0402
T3C0.1260
%
G90
G05
T1
X3.7008Y-4.2126
X3.75Y-4.2126
X3.7992Y-4.2126
X3.8484Y-4.2126
X3.8976Y-4.2126
X3.9469Y-4.2126
X3.9961Y-4.2126
X4.0453Y-4.2126
X4.0945Y-4.2126
X4.1437Y-4.2126
X4.1929Y-4.2126
X4.2421Y-4.2126
X4.2913Y-4.2126
X4.6142Y-4.2126
X4.6634Y-4.2126
X4.7126Y-4.2126
X4.7618Y-4.2126
X4.811Y-4.2126
X4.8602Y-4.2126
X4.9094Y-4.2126
X4.9587Y-4.2126
X5.0079Y-4.2126
X5.0571Y-4.2126
X5.1063Y-4.2126
X5.1555Y-4.2126
X5.2047Y-4.2126
X5.5276Y-4.2126
X5.5768Y-4.2126
X5.626Y-4.2126
X5.6752Y-4.2126
X5.7244Y-4.2126
X5.7736Y-4.2126
X5.8228Y-4.2126
X5.872Y-4.2126
X5.9213Y-4.2126
X5.9705Y-4.2126
X6.0197Y-4.2126
X6.0689Y-4.2126
X6.1181Y-4.2126
X6.4409Y-4.2126
X6.4902Y-4.2126
X6.5394Y-4.2126
X6.5886Y-4.2126
X6.6378Y-4.2126
X6.687Y-4.2126
X6.7362Y-4.2126
X6.7854Y-4.2126
X6.8346Y-4.2126
X6.8839Y-4.2126
X6.9331Y-4.2126
X6.9823Y-4.2126
X7.0315Y-4.2126
T2
X4.1161Y-3.3668
X4.1161Y-3.4668
X4.2161Y-3.3668
X4.2161Y-3.4668
X4.3161Y-3.3668
X4.3161Y-3.4668
X4.4161Y-3.3668
X4.4161Y-3.4668
X4.5161Y-3.3668
X4.5161Y-3.4668
X4.6161Y-3.3668
X4.6161Y-3.4668
X4.7161Y-3.3668
X4.7161Y-3.4668
X4.8161Y-3.3668
X4.8161Y-3.4668
X4.9161Y-3.3668
X4.9161Y-3.4668
X5.0161Y-3.3668
X5.0161Y-3.4668
X5.1161Y-3.3668
X5.1161Y-3.4668
X5.2161Y-3.3668
X5.2161Y-3.4668
X5.3161Y-3.3668
X5.3161Y-3.4668
X5.4161Y-3.3668
X5.4161Y-3.4668
X5.5161Y-3.3668
X5.5161Y-3.4668
X5.6161Y-3.3668
X5.6161Y-3.4668
X5.7161Y-3.3668
X5.7161Y-3.4668
X5.8161Y-3.3668
X5.8161Y-3.4668
X5.9161Y-3.3668
X5.9161Y-3.4668
X6.0161Y-3.3668
X6.0161Y-3.4668
X6.1161Y-3.3668
X6.1161Y-3.4668
X6.2161Y-3.3668
X6.2161Y-3.4668
X6.3161Y-3.3668
X6.3161Y-3.4668
X6.4161Y-3.3668
X6.4161Y-3.4668
X6.5161Y-3.3668
X6.5161Y-3.4668
X6.6161Y-3.3668
X6.6161Y-3.4668
X4.1161Y-3.1668
X4.1161Y-3.2668
X4.2161Y-3.1668
X4.2161Y-3.2668
X4.3161Y-3.1668
X4.3161Y-3.2668
X4.4161Y-3.1668
X4.4161Y-3.2668
X4.5161Y-3.1668
X4.5161Y-3.2668
X4.6161Y-3.1668
X4.6161Y-3.2668
X4.7161Y-3.1668
X4.7161Y-3.2668
X4.8161Y-3.1668
X4.8161Y-3.2668
X4.9161Y-3.1668
X4.9161Y-3.2668
X5.0161Y-3.1668
X5.0161Y-3.2668
X5.1161Y-3.1668
X5.1161Y-3.2668
X5.2161Y-3.1668
X5.2161Y-3.2668
X5.3161Y-3.1668
X5.3161Y-3.2668
X5.4161Y-3.1668
X5.4161Y-3.2668
X5.5161Y-3.1668
X5.5161Y-3.2668
X5.6161Y-3.1668
X5.6161Y-3.2668
X5.7161Y-3.1668
X5.7161Y-3.2668
X5.8161Y-3.1668
X5.8161Y-3.2668
X5.9161Y-3.1668
X5.9161Y-3.2668
X6.0161Y-3.1668
X6.0161Y-3.2668
X6.1161Y-3.1668
X6.1161Y-3.2668
X6.2161Y-3.1668
X6.2161Y-3.2668
X6.3161Y-3.1668
X6.3161Y-3.2668
X6.4161Y-3.1668
X6.4161Y-3.2668
X6.5161Y-3.1668
X6.5161Y-3.2668
X6.6161Y-3.1668
X6.6161Y-3.2668
T3
X3.9157Y-3.1668
X6.8165Y-3.1668
T0
M30
