G04 #@! TF.GenerationSoftware,KiCad,Pcbnew,5.1.6-1.fc32*
G04 #@! TF.CreationDate,2020-09-21T20:32:52-03:00*
G04 #@! TF.ProjectId,pc104-adapter-bottom,70633130-342d-4616-9461-707465722d62,v2.0*
G04 #@! TF.SameCoordinates,Original*
G04 #@! TF.FileFunction,Copper,L4,Bot*
G04 #@! TF.FilePolarity,Positive*
%FSLAX46Y46*%
G04 Gerber Fmt 4.6, Leading zero omitted, Abs format (unit mm)*
G04 Created by KiCad (PCBNEW 5.1.6-1.fc32) date 2020-09-21 20:32:52*
%MOMM*%
%LPD*%
G01*
G04 APERTURE LIST*
G04 #@! TA.AperFunction,ComponentPad*
%ADD10C,5.500000*%
G04 #@! TD*
G04 #@! TA.AperFunction,ViaPad*
%ADD11C,1.620000*%
G04 #@! TD*
G04 #@! TA.AperFunction,ViaPad*
%ADD12C,0.800000*%
G04 #@! TD*
G04 #@! TA.AperFunction,Conductor*
%ADD13C,0.250000*%
G04 #@! TD*
G04 #@! TA.AperFunction,Conductor*
%ADD14C,0.254000*%
G04 #@! TD*
G04 APERTURE END LIST*
D10*
X106370000Y-139936000D03*
X186430000Y-139936000D03*
D11*
X178750000Y-54236000D03*
X178750000Y-56776000D03*
X176210000Y-54236000D03*
X176210000Y-56776000D03*
X173670000Y-54236000D03*
X173670000Y-56776000D03*
X171130000Y-54236000D03*
X171130000Y-56776000D03*
X168590000Y-54236000D03*
X168590000Y-56776000D03*
X166050000Y-54236000D03*
X166050000Y-56776000D03*
X163510000Y-54236000D03*
X163510000Y-56776000D03*
X160970000Y-54236000D03*
X160970000Y-56776000D03*
X158430000Y-54236000D03*
X158430000Y-56776000D03*
X155890000Y-54236000D03*
X155890000Y-56776000D03*
X153350000Y-54236000D03*
X153350000Y-56776000D03*
X150810000Y-54236000D03*
X150810000Y-56776000D03*
X148270000Y-54236000D03*
X148270000Y-56776000D03*
X145730000Y-54236000D03*
X145730000Y-56776000D03*
X143190000Y-54236000D03*
X143190000Y-56776000D03*
X140650000Y-54236000D03*
X140650000Y-56776000D03*
X138110000Y-54236000D03*
X138110000Y-56776000D03*
X135570000Y-54236000D03*
X135570000Y-56776000D03*
X133030000Y-54236000D03*
X133030000Y-56776000D03*
X130490000Y-54236000D03*
X130490000Y-56776000D03*
X127950000Y-54236000D03*
X127950000Y-56776000D03*
X125410000Y-54236000D03*
X125410000Y-56776000D03*
X122870000Y-54236000D03*
X122870000Y-56776000D03*
X120330000Y-54236000D03*
X120330000Y-56776000D03*
X117790000Y-54236000D03*
X117790000Y-56776000D03*
X115250000Y-54236000D03*
X115250000Y-56776000D03*
X178750000Y-59316000D03*
X178750000Y-61856000D03*
X176210000Y-59316000D03*
X176210000Y-61856000D03*
X173670000Y-59316000D03*
X173670000Y-61856000D03*
X171130000Y-59316000D03*
X171130000Y-61856000D03*
X168590000Y-59316000D03*
X168590000Y-61856000D03*
X166050000Y-59316000D03*
X166050000Y-61856000D03*
X163510000Y-59316000D03*
X163510000Y-61856000D03*
X160970000Y-59316000D03*
X160970000Y-61856000D03*
X158430000Y-59316000D03*
X158430000Y-61856000D03*
X155890000Y-59316000D03*
X155890000Y-61856000D03*
X153350000Y-59316000D03*
X153350000Y-61856000D03*
X150810000Y-59316000D03*
X150810000Y-61856000D03*
X148270000Y-59316000D03*
X148270000Y-61856000D03*
X145730000Y-59316000D03*
X145730000Y-61856000D03*
X143190000Y-59316000D03*
X143190000Y-61856000D03*
X140650000Y-59316000D03*
X140650000Y-61856000D03*
X138110000Y-59316000D03*
X138110000Y-61856000D03*
X135570000Y-59316000D03*
X135570000Y-61856000D03*
X133030000Y-59316000D03*
X133030000Y-61856000D03*
X130490000Y-59316000D03*
X130490000Y-61856000D03*
X127950000Y-59316000D03*
X127950000Y-61856000D03*
X125410000Y-59316000D03*
X125410000Y-61856000D03*
X122870000Y-59316000D03*
X122870000Y-61856000D03*
X120330000Y-59316000D03*
X120330000Y-61856000D03*
X117790000Y-59316000D03*
X117790000Y-61856000D03*
X115250000Y-59316000D03*
X115250000Y-61856000D03*
D10*
X183820000Y-54236000D03*
X110170000Y-54236000D03*
D12*
X105300000Y-97000000D03*
X187300000Y-97000000D03*
X124703500Y-84477500D03*
X123174400Y-86552800D03*
X123455300Y-66611700D03*
X123218700Y-82209300D03*
X120326900Y-78344800D03*
X120663000Y-79758000D03*
X123204600Y-79668300D03*
X123350200Y-67831500D03*
X120679100Y-76940700D03*
X120630600Y-74519500D03*
X122269500Y-68349700D03*
X144245500Y-87315600D03*
X141722400Y-86679700D03*
X145643600Y-63691300D03*
X144485100Y-68885000D03*
X141611600Y-82068800D03*
X139021400Y-73728800D03*
X143960200Y-73086100D03*
X140851600Y-76999400D03*
X139963900Y-76332500D03*
X142188600Y-70721400D03*
X142984000Y-73561300D03*
X161695400Y-66650400D03*
X159762600Y-64700800D03*
X159003100Y-64018500D03*
X159628200Y-80152200D03*
X157557400Y-67273300D03*
X160263700Y-84600000D03*
X162795400Y-84831600D03*
X156766800Y-68102100D03*
X160273100Y-87945400D03*
X160271400Y-89600000D03*
X175181100Y-74090600D03*
X176182900Y-74114600D03*
X173746900Y-75628900D03*
X173342300Y-78247000D03*
X170667300Y-79443800D03*
X171472700Y-71279200D03*
X169038800Y-65355100D03*
X170791600Y-84760400D03*
X169774600Y-85001300D03*
X112684100Y-88553000D03*
X110148200Y-87272500D03*
X110138600Y-85992800D03*
X113432200Y-84071800D03*
X133714000Y-88585500D03*
X133728900Y-87303500D03*
X142191000Y-67910800D03*
X151008000Y-73584900D03*
X151595500Y-72751100D03*
X154506900Y-75548800D03*
X152761900Y-76793600D03*
X153776900Y-77049000D03*
X152472300Y-69302800D03*
X183861500Y-81061000D03*
X181303800Y-82046600D03*
X181320500Y-83569800D03*
X181304600Y-85051800D03*
X181328100Y-86134400D03*
X181325400Y-87415500D03*
X180294200Y-87462400D03*
D13*
X123204600Y-79668300D02*
X121465400Y-77929100D01*
X121465400Y-77929100D02*
X121465400Y-57911400D01*
X121465400Y-57911400D02*
X120330000Y-56776000D01*
X115250000Y-54236000D02*
X116654600Y-55640600D01*
X116654600Y-55640600D02*
X116654600Y-70543500D01*
X116654600Y-70543500D02*
X120630600Y-74519500D01*
X163510000Y-56776000D02*
X162182700Y-58103300D01*
X162182700Y-58103300D02*
X162182700Y-66163100D01*
X162182700Y-66163100D02*
X161695400Y-66650400D01*
X159762600Y-64700800D02*
X159762600Y-55568600D01*
X159762600Y-55568600D02*
X158430000Y-54236000D01*
X159628200Y-80152200D02*
X159628200Y-67593000D01*
X159628200Y-67593000D02*
X157294600Y-65259400D01*
X157294600Y-65259400D02*
X157294600Y-58180600D01*
X157294600Y-58180600D02*
X155890000Y-56776000D01*
X176210000Y-56776000D02*
X174805400Y-58180600D01*
X174805400Y-58180600D02*
X174805400Y-73440600D01*
X174805400Y-73440600D02*
X174455800Y-73790200D01*
X174455800Y-73790200D02*
X174455800Y-74391000D01*
X174455800Y-74391000D02*
X174543200Y-74478400D01*
X174543200Y-74478400D02*
X174543200Y-77046100D01*
X174543200Y-77046100D02*
X173342300Y-78247000D01*
X170667300Y-79443800D02*
X172301100Y-77810000D01*
X172301100Y-77810000D02*
X172301100Y-58144900D01*
X172301100Y-58144900D02*
X173670000Y-56776000D01*
D14*
G36*
X181325493Y-51921101D02*
G01*
X181439070Y-52034678D01*
X180995497Y-52340859D01*
X180680046Y-52928306D01*
X180485260Y-53566008D01*
X180418628Y-54229457D01*
X180482708Y-54893158D01*
X180675038Y-55531605D01*
X180988228Y-56120262D01*
X180995497Y-56131141D01*
X181439072Y-56437323D01*
X183640395Y-54236000D01*
X183626253Y-54221858D01*
X183805858Y-54042253D01*
X183820000Y-54056395D01*
X183834143Y-54042253D01*
X184013748Y-54221858D01*
X183999605Y-54236000D01*
X184013748Y-54250143D01*
X183834143Y-54429748D01*
X183820000Y-54415605D01*
X181618677Y-56616928D01*
X181924859Y-57060503D01*
X182512306Y-57375954D01*
X183150008Y-57570740D01*
X183813457Y-57637372D01*
X184477158Y-57573292D01*
X185115605Y-57380962D01*
X185704262Y-57067772D01*
X185715141Y-57060503D01*
X186021322Y-56616930D01*
X186134899Y-56730507D01*
X186210000Y-56655406D01*
X186210001Y-64070877D01*
X186213010Y-64101427D01*
X186212954Y-64109424D01*
X186213921Y-64119290D01*
X186240441Y-64371615D01*
X186253379Y-64434646D01*
X186265439Y-64497864D01*
X186268305Y-64507354D01*
X186343331Y-64749724D01*
X186368266Y-64809041D01*
X186392373Y-64868709D01*
X186397027Y-64877462D01*
X186517700Y-65100643D01*
X186553670Y-65153971D01*
X186588922Y-65207841D01*
X186595188Y-65215523D01*
X186756913Y-65411014D01*
X186802531Y-65456314D01*
X186847596Y-65502333D01*
X186855234Y-65508652D01*
X187051849Y-65669007D01*
X187105393Y-65704582D01*
X187158547Y-65740977D01*
X187167267Y-65745691D01*
X187391285Y-65864803D01*
X187450748Y-65889312D01*
X187509925Y-65914675D01*
X187519395Y-65917607D01*
X187762282Y-65990939D01*
X187825379Y-66003432D01*
X187888353Y-66016818D01*
X187898212Y-66017854D01*
X188150717Y-66042612D01*
X188333937Y-66060577D01*
X188443536Y-66093667D01*
X188544615Y-66147411D01*
X188633336Y-66219770D01*
X188706309Y-66307979D01*
X188760761Y-66408687D01*
X188794614Y-66518046D01*
X188810005Y-66664485D01*
X188814126Y-96873000D01*
X103980000Y-96873000D01*
X103980000Y-88451061D01*
X111649100Y-88451061D01*
X111649100Y-88654939D01*
X111688874Y-88854898D01*
X111766895Y-89043256D01*
X111880163Y-89212774D01*
X112024326Y-89356937D01*
X112193844Y-89470205D01*
X112382202Y-89548226D01*
X112582161Y-89588000D01*
X112786039Y-89588000D01*
X112985998Y-89548226D01*
X113174356Y-89470205D01*
X113343874Y-89356937D01*
X113488037Y-89212774D01*
X113601305Y-89043256D01*
X113679326Y-88854898D01*
X113719100Y-88654939D01*
X113719100Y-88483561D01*
X132679000Y-88483561D01*
X132679000Y-88687439D01*
X132718774Y-88887398D01*
X132796795Y-89075756D01*
X132910063Y-89245274D01*
X133054226Y-89389437D01*
X133223744Y-89502705D01*
X133412102Y-89580726D01*
X133612061Y-89620500D01*
X133815939Y-89620500D01*
X134015898Y-89580726D01*
X134204256Y-89502705D01*
X134211206Y-89498061D01*
X159236400Y-89498061D01*
X159236400Y-89701939D01*
X159276174Y-89901898D01*
X159354195Y-90090256D01*
X159467463Y-90259774D01*
X159611626Y-90403937D01*
X159781144Y-90517205D01*
X159969502Y-90595226D01*
X160169461Y-90635000D01*
X160373339Y-90635000D01*
X160573298Y-90595226D01*
X160761656Y-90517205D01*
X160931174Y-90403937D01*
X161075337Y-90259774D01*
X161188605Y-90090256D01*
X161266626Y-89901898D01*
X161306400Y-89701939D01*
X161306400Y-89498061D01*
X161266626Y-89298102D01*
X161188605Y-89109744D01*
X161075337Y-88940226D01*
X160931174Y-88796063D01*
X160897059Y-88773268D01*
X160932874Y-88749337D01*
X161077037Y-88605174D01*
X161190305Y-88435656D01*
X161268326Y-88247298D01*
X161308100Y-88047339D01*
X161308100Y-87843461D01*
X161268326Y-87643502D01*
X161190305Y-87455144D01*
X161127041Y-87360461D01*
X179259200Y-87360461D01*
X179259200Y-87564339D01*
X179298974Y-87764298D01*
X179376995Y-87952656D01*
X179490263Y-88122174D01*
X179634426Y-88266337D01*
X179803944Y-88379605D01*
X179992302Y-88457626D01*
X180192261Y-88497400D01*
X180396139Y-88497400D01*
X180596098Y-88457626D01*
X180784456Y-88379605D01*
X180847183Y-88337692D01*
X181023502Y-88410726D01*
X181223461Y-88450500D01*
X181427339Y-88450500D01*
X181627298Y-88410726D01*
X181815656Y-88332705D01*
X181985174Y-88219437D01*
X182129337Y-88075274D01*
X182242605Y-87905756D01*
X182320626Y-87717398D01*
X182360400Y-87517439D01*
X182360400Y-87313561D01*
X182320626Y-87113602D01*
X182242605Y-86925244D01*
X182143532Y-86776970D01*
X182245305Y-86624656D01*
X182323326Y-86436298D01*
X182363100Y-86236339D01*
X182363100Y-86032461D01*
X182323326Y-85832502D01*
X182245305Y-85644144D01*
X182199449Y-85575515D01*
X182221805Y-85542056D01*
X182299826Y-85353698D01*
X182339600Y-85153739D01*
X182339600Y-84949861D01*
X182299826Y-84749902D01*
X182221805Y-84561544D01*
X182108537Y-84392026D01*
X182035261Y-84318750D01*
X182124437Y-84229574D01*
X182237705Y-84060056D01*
X182315726Y-83871698D01*
X182355500Y-83671739D01*
X182355500Y-83467861D01*
X182315726Y-83267902D01*
X182237705Y-83079544D01*
X182124437Y-82910026D01*
X182014261Y-82799850D01*
X182107737Y-82706374D01*
X182221005Y-82536856D01*
X182299026Y-82348498D01*
X182338800Y-82148539D01*
X182338800Y-81944661D01*
X182299026Y-81744702D01*
X182221005Y-81556344D01*
X182107737Y-81386826D01*
X181963574Y-81242663D01*
X181794056Y-81129395D01*
X181605698Y-81051374D01*
X181405739Y-81011600D01*
X181201861Y-81011600D01*
X181001902Y-81051374D01*
X180813544Y-81129395D01*
X180644026Y-81242663D01*
X180499863Y-81386826D01*
X180386595Y-81556344D01*
X180308574Y-81744702D01*
X180268800Y-81944661D01*
X180268800Y-82148539D01*
X180308574Y-82348498D01*
X180386595Y-82536856D01*
X180499863Y-82706374D01*
X180610039Y-82816550D01*
X180516563Y-82910026D01*
X180403295Y-83079544D01*
X180325274Y-83267902D01*
X180285500Y-83467861D01*
X180285500Y-83671739D01*
X180325274Y-83871698D01*
X180403295Y-84060056D01*
X180516563Y-84229574D01*
X180589839Y-84302850D01*
X180500663Y-84392026D01*
X180387395Y-84561544D01*
X180309374Y-84749902D01*
X180269600Y-84949861D01*
X180269600Y-85153739D01*
X180309374Y-85353698D01*
X180387395Y-85542056D01*
X180433251Y-85610685D01*
X180410895Y-85644144D01*
X180332874Y-85832502D01*
X180293100Y-86032461D01*
X180293100Y-86236339D01*
X180331104Y-86427400D01*
X180192261Y-86427400D01*
X179992302Y-86467174D01*
X179803944Y-86545195D01*
X179634426Y-86658463D01*
X179490263Y-86802626D01*
X179376995Y-86972144D01*
X179298974Y-87160502D01*
X179259200Y-87360461D01*
X161127041Y-87360461D01*
X161077037Y-87285626D01*
X160932874Y-87141463D01*
X160763356Y-87028195D01*
X160574998Y-86950174D01*
X160375039Y-86910400D01*
X160171161Y-86910400D01*
X159971202Y-86950174D01*
X159782844Y-87028195D01*
X159613326Y-87141463D01*
X159469163Y-87285626D01*
X159355895Y-87455144D01*
X159277874Y-87643502D01*
X159238100Y-87843461D01*
X159238100Y-88047339D01*
X159277874Y-88247298D01*
X159355895Y-88435656D01*
X159469163Y-88605174D01*
X159613326Y-88749337D01*
X159647441Y-88772132D01*
X159611626Y-88796063D01*
X159467463Y-88940226D01*
X159354195Y-89109744D01*
X159276174Y-89298102D01*
X159236400Y-89498061D01*
X134211206Y-89498061D01*
X134373774Y-89389437D01*
X134517937Y-89245274D01*
X134631205Y-89075756D01*
X134709226Y-88887398D01*
X134749000Y-88687439D01*
X134749000Y-88483561D01*
X134709226Y-88283602D01*
X134631205Y-88095244D01*
X134537931Y-87955650D01*
X134646105Y-87793756D01*
X134724126Y-87605398D01*
X134763900Y-87405439D01*
X134763900Y-87201561D01*
X134724126Y-87001602D01*
X134646105Y-86813244D01*
X134532837Y-86643726D01*
X134466872Y-86577761D01*
X140687400Y-86577761D01*
X140687400Y-86781639D01*
X140727174Y-86981598D01*
X140805195Y-87169956D01*
X140918463Y-87339474D01*
X141062626Y-87483637D01*
X141232144Y-87596905D01*
X141420502Y-87674926D01*
X141620461Y-87714700D01*
X141824339Y-87714700D01*
X142024298Y-87674926D01*
X142212656Y-87596905D01*
X142382174Y-87483637D01*
X142526337Y-87339474D01*
X142610402Y-87213661D01*
X143210500Y-87213661D01*
X143210500Y-87417539D01*
X143250274Y-87617498D01*
X143328295Y-87805856D01*
X143441563Y-87975374D01*
X143585726Y-88119537D01*
X143755244Y-88232805D01*
X143943602Y-88310826D01*
X144143561Y-88350600D01*
X144347439Y-88350600D01*
X144547398Y-88310826D01*
X144735756Y-88232805D01*
X144905274Y-88119537D01*
X145049437Y-87975374D01*
X145162705Y-87805856D01*
X145240726Y-87617498D01*
X145280500Y-87417539D01*
X145280500Y-87213661D01*
X145240726Y-87013702D01*
X145162705Y-86825344D01*
X145049437Y-86655826D01*
X144905274Y-86511663D01*
X144735756Y-86398395D01*
X144547398Y-86320374D01*
X144347439Y-86280600D01*
X144143561Y-86280600D01*
X143943602Y-86320374D01*
X143755244Y-86398395D01*
X143585726Y-86511663D01*
X143441563Y-86655826D01*
X143328295Y-86825344D01*
X143250274Y-87013702D01*
X143210500Y-87213661D01*
X142610402Y-87213661D01*
X142639605Y-87169956D01*
X142717626Y-86981598D01*
X142757400Y-86781639D01*
X142757400Y-86577761D01*
X142717626Y-86377802D01*
X142639605Y-86189444D01*
X142526337Y-86019926D01*
X142382174Y-85875763D01*
X142212656Y-85762495D01*
X142024298Y-85684474D01*
X141824339Y-85644700D01*
X141620461Y-85644700D01*
X141420502Y-85684474D01*
X141232144Y-85762495D01*
X141062626Y-85875763D01*
X140918463Y-86019926D01*
X140805195Y-86189444D01*
X140727174Y-86377802D01*
X140687400Y-86577761D01*
X134466872Y-86577761D01*
X134388674Y-86499563D01*
X134219156Y-86386295D01*
X134030798Y-86308274D01*
X133830839Y-86268500D01*
X133626961Y-86268500D01*
X133427002Y-86308274D01*
X133238644Y-86386295D01*
X133069126Y-86499563D01*
X132924963Y-86643726D01*
X132811695Y-86813244D01*
X132733674Y-87001602D01*
X132693900Y-87201561D01*
X132693900Y-87405439D01*
X132733674Y-87605398D01*
X132811695Y-87793756D01*
X132904969Y-87933350D01*
X132796795Y-88095244D01*
X132718774Y-88283602D01*
X132679000Y-88483561D01*
X113719100Y-88483561D01*
X113719100Y-88451061D01*
X113679326Y-88251102D01*
X113601305Y-88062744D01*
X113488037Y-87893226D01*
X113343874Y-87749063D01*
X113174356Y-87635795D01*
X112985998Y-87557774D01*
X112786039Y-87518000D01*
X112582161Y-87518000D01*
X112382202Y-87557774D01*
X112193844Y-87635795D01*
X112024326Y-87749063D01*
X111880163Y-87893226D01*
X111766895Y-88062744D01*
X111688874Y-88251102D01*
X111649100Y-88451061D01*
X103980000Y-88451061D01*
X103980000Y-85890861D01*
X109103600Y-85890861D01*
X109103600Y-86094739D01*
X109143374Y-86294698D01*
X109221395Y-86483056D01*
X109326150Y-86639834D01*
X109230995Y-86782244D01*
X109152974Y-86970602D01*
X109113200Y-87170561D01*
X109113200Y-87374439D01*
X109152974Y-87574398D01*
X109230995Y-87762756D01*
X109344263Y-87932274D01*
X109488426Y-88076437D01*
X109657944Y-88189705D01*
X109846302Y-88267726D01*
X110046261Y-88307500D01*
X110250139Y-88307500D01*
X110450098Y-88267726D01*
X110638456Y-88189705D01*
X110807974Y-88076437D01*
X110952137Y-87932274D01*
X111065405Y-87762756D01*
X111143426Y-87574398D01*
X111183200Y-87374439D01*
X111183200Y-87170561D01*
X111143426Y-86970602D01*
X111065405Y-86782244D01*
X110960650Y-86625466D01*
X111055805Y-86483056D01*
X111069140Y-86450861D01*
X122139400Y-86450861D01*
X122139400Y-86654739D01*
X122179174Y-86854698D01*
X122257195Y-87043056D01*
X122370463Y-87212574D01*
X122514626Y-87356737D01*
X122684144Y-87470005D01*
X122872502Y-87548026D01*
X123072461Y-87587800D01*
X123276339Y-87587800D01*
X123476298Y-87548026D01*
X123664656Y-87470005D01*
X123834174Y-87356737D01*
X123978337Y-87212574D01*
X124091605Y-87043056D01*
X124169626Y-86854698D01*
X124209400Y-86654739D01*
X124209400Y-86450861D01*
X124169626Y-86250902D01*
X124091605Y-86062544D01*
X123978337Y-85893026D01*
X123834174Y-85748863D01*
X123664656Y-85635595D01*
X123476298Y-85557574D01*
X123276339Y-85517800D01*
X123072461Y-85517800D01*
X122872502Y-85557574D01*
X122684144Y-85635595D01*
X122514626Y-85748863D01*
X122370463Y-85893026D01*
X122257195Y-86062544D01*
X122179174Y-86250902D01*
X122139400Y-86450861D01*
X111069140Y-86450861D01*
X111133826Y-86294698D01*
X111173600Y-86094739D01*
X111173600Y-85890861D01*
X111133826Y-85690902D01*
X111055805Y-85502544D01*
X110942537Y-85333026D01*
X110798374Y-85188863D01*
X110628856Y-85075595D01*
X110440498Y-84997574D01*
X110240539Y-84957800D01*
X110036661Y-84957800D01*
X109836702Y-84997574D01*
X109648344Y-85075595D01*
X109478826Y-85188863D01*
X109334663Y-85333026D01*
X109221395Y-85502544D01*
X109143374Y-85690902D01*
X109103600Y-85890861D01*
X103980000Y-85890861D01*
X103980000Y-83969861D01*
X112397200Y-83969861D01*
X112397200Y-84173739D01*
X112436974Y-84373698D01*
X112514995Y-84562056D01*
X112628263Y-84731574D01*
X112772426Y-84875737D01*
X112941944Y-84989005D01*
X113130302Y-85067026D01*
X113330261Y-85106800D01*
X113534139Y-85106800D01*
X113734098Y-85067026D01*
X113922456Y-84989005D01*
X114091974Y-84875737D01*
X114236137Y-84731574D01*
X114349405Y-84562056D01*
X114426654Y-84375561D01*
X123668500Y-84375561D01*
X123668500Y-84579439D01*
X123708274Y-84779398D01*
X123786295Y-84967756D01*
X123899563Y-85137274D01*
X124043726Y-85281437D01*
X124213244Y-85394705D01*
X124401602Y-85472726D01*
X124601561Y-85512500D01*
X124805439Y-85512500D01*
X125005398Y-85472726D01*
X125193756Y-85394705D01*
X125363274Y-85281437D01*
X125507437Y-85137274D01*
X125620705Y-84967756D01*
X125698726Y-84779398D01*
X125738500Y-84579439D01*
X125738500Y-84498061D01*
X159228700Y-84498061D01*
X159228700Y-84701939D01*
X159268474Y-84901898D01*
X159346495Y-85090256D01*
X159459763Y-85259774D01*
X159603926Y-85403937D01*
X159773444Y-85517205D01*
X159961802Y-85595226D01*
X160161761Y-85635000D01*
X160365639Y-85635000D01*
X160565598Y-85595226D01*
X160753956Y-85517205D01*
X160923474Y-85403937D01*
X161067637Y-85259774D01*
X161180905Y-85090256D01*
X161258926Y-84901898D01*
X161293185Y-84729661D01*
X161760400Y-84729661D01*
X161760400Y-84933539D01*
X161800174Y-85133498D01*
X161878195Y-85321856D01*
X161991463Y-85491374D01*
X162135626Y-85635537D01*
X162305144Y-85748805D01*
X162493502Y-85826826D01*
X162693461Y-85866600D01*
X162897339Y-85866600D01*
X163097298Y-85826826D01*
X163285656Y-85748805D01*
X163455174Y-85635537D01*
X163599337Y-85491374D01*
X163712605Y-85321856D01*
X163790626Y-85133498D01*
X163830400Y-84933539D01*
X163830400Y-84899361D01*
X168739600Y-84899361D01*
X168739600Y-85103239D01*
X168779374Y-85303198D01*
X168857395Y-85491556D01*
X168970663Y-85661074D01*
X169114826Y-85805237D01*
X169284344Y-85918505D01*
X169472702Y-85996526D01*
X169672661Y-86036300D01*
X169876539Y-86036300D01*
X170076498Y-85996526D01*
X170264856Y-85918505D01*
X170434374Y-85805237D01*
X170485659Y-85753952D01*
X170489702Y-85755626D01*
X170689661Y-85795400D01*
X170893539Y-85795400D01*
X171093498Y-85755626D01*
X171281856Y-85677605D01*
X171451374Y-85564337D01*
X171595537Y-85420174D01*
X171708805Y-85250656D01*
X171786826Y-85062298D01*
X171826600Y-84862339D01*
X171826600Y-84658461D01*
X171786826Y-84458502D01*
X171708805Y-84270144D01*
X171595537Y-84100626D01*
X171451374Y-83956463D01*
X171281856Y-83843195D01*
X171093498Y-83765174D01*
X170893539Y-83725400D01*
X170689661Y-83725400D01*
X170489702Y-83765174D01*
X170301344Y-83843195D01*
X170131826Y-83956463D01*
X170080541Y-84007748D01*
X170076498Y-84006074D01*
X169876539Y-83966300D01*
X169672661Y-83966300D01*
X169472702Y-84006074D01*
X169284344Y-84084095D01*
X169114826Y-84197363D01*
X168970663Y-84341526D01*
X168857395Y-84511044D01*
X168779374Y-84699402D01*
X168739600Y-84899361D01*
X163830400Y-84899361D01*
X163830400Y-84729661D01*
X163790626Y-84529702D01*
X163712605Y-84341344D01*
X163599337Y-84171826D01*
X163455174Y-84027663D01*
X163285656Y-83914395D01*
X163097298Y-83836374D01*
X162897339Y-83796600D01*
X162693461Y-83796600D01*
X162493502Y-83836374D01*
X162305144Y-83914395D01*
X162135626Y-84027663D01*
X161991463Y-84171826D01*
X161878195Y-84341344D01*
X161800174Y-84529702D01*
X161760400Y-84729661D01*
X161293185Y-84729661D01*
X161298700Y-84701939D01*
X161298700Y-84498061D01*
X161258926Y-84298102D01*
X161180905Y-84109744D01*
X161067637Y-83940226D01*
X160923474Y-83796063D01*
X160753956Y-83682795D01*
X160565598Y-83604774D01*
X160365639Y-83565000D01*
X160161761Y-83565000D01*
X159961802Y-83604774D01*
X159773444Y-83682795D01*
X159603926Y-83796063D01*
X159459763Y-83940226D01*
X159346495Y-84109744D01*
X159268474Y-84298102D01*
X159228700Y-84498061D01*
X125738500Y-84498061D01*
X125738500Y-84375561D01*
X125698726Y-84175602D01*
X125620705Y-83987244D01*
X125507437Y-83817726D01*
X125363274Y-83673563D01*
X125193756Y-83560295D01*
X125005398Y-83482274D01*
X124805439Y-83442500D01*
X124601561Y-83442500D01*
X124401602Y-83482274D01*
X124213244Y-83560295D01*
X124043726Y-83673563D01*
X123899563Y-83817726D01*
X123786295Y-83987244D01*
X123708274Y-84175602D01*
X123668500Y-84375561D01*
X114426654Y-84375561D01*
X114427426Y-84373698D01*
X114467200Y-84173739D01*
X114467200Y-83969861D01*
X114427426Y-83769902D01*
X114349405Y-83581544D01*
X114236137Y-83412026D01*
X114091974Y-83267863D01*
X113922456Y-83154595D01*
X113734098Y-83076574D01*
X113534139Y-83036800D01*
X113330261Y-83036800D01*
X113130302Y-83076574D01*
X112941944Y-83154595D01*
X112772426Y-83267863D01*
X112628263Y-83412026D01*
X112514995Y-83581544D01*
X112436974Y-83769902D01*
X112397200Y-83969861D01*
X103980000Y-83969861D01*
X103980000Y-82107361D01*
X122183700Y-82107361D01*
X122183700Y-82311239D01*
X122223474Y-82511198D01*
X122301495Y-82699556D01*
X122414763Y-82869074D01*
X122558926Y-83013237D01*
X122728444Y-83126505D01*
X122916802Y-83204526D01*
X123116761Y-83244300D01*
X123320639Y-83244300D01*
X123520598Y-83204526D01*
X123708956Y-83126505D01*
X123878474Y-83013237D01*
X124022637Y-82869074D01*
X124135905Y-82699556D01*
X124213926Y-82511198D01*
X124253700Y-82311239D01*
X124253700Y-82107361D01*
X124225754Y-81966861D01*
X140576600Y-81966861D01*
X140576600Y-82170739D01*
X140616374Y-82370698D01*
X140694395Y-82559056D01*
X140807663Y-82728574D01*
X140951826Y-82872737D01*
X141121344Y-82986005D01*
X141309702Y-83064026D01*
X141509661Y-83103800D01*
X141713539Y-83103800D01*
X141913498Y-83064026D01*
X142101856Y-82986005D01*
X142271374Y-82872737D01*
X142415537Y-82728574D01*
X142528805Y-82559056D01*
X142606826Y-82370698D01*
X142646600Y-82170739D01*
X142646600Y-81966861D01*
X142606826Y-81766902D01*
X142528805Y-81578544D01*
X142415537Y-81409026D01*
X142271374Y-81264863D01*
X142101856Y-81151595D01*
X141913498Y-81073574D01*
X141713539Y-81033800D01*
X141509661Y-81033800D01*
X141309702Y-81073574D01*
X141121344Y-81151595D01*
X140951826Y-81264863D01*
X140807663Y-81409026D01*
X140694395Y-81578544D01*
X140616374Y-81766902D01*
X140576600Y-81966861D01*
X124225754Y-81966861D01*
X124213926Y-81907402D01*
X124135905Y-81719044D01*
X124022637Y-81549526D01*
X123878474Y-81405363D01*
X123708956Y-81292095D01*
X123520598Y-81214074D01*
X123320639Y-81174300D01*
X123116761Y-81174300D01*
X122916802Y-81214074D01*
X122728444Y-81292095D01*
X122558926Y-81405363D01*
X122414763Y-81549526D01*
X122301495Y-81719044D01*
X122223474Y-81907402D01*
X122183700Y-82107361D01*
X103980000Y-82107361D01*
X103980000Y-66870729D01*
X103998386Y-66683215D01*
X104042757Y-66536252D01*
X104114829Y-66400703D01*
X104211852Y-66281742D01*
X104330144Y-66183882D01*
X104465181Y-66110868D01*
X104611833Y-66065471D01*
X104797092Y-66046000D01*
X105604877Y-66046000D01*
X105635576Y-66042976D01*
X105644820Y-66043041D01*
X105654686Y-66042074D01*
X105945831Y-66011474D01*
X106008868Y-65998534D01*
X106072080Y-65986476D01*
X106081570Y-65983611D01*
X106361226Y-65897043D01*
X106420521Y-65872117D01*
X106480215Y-65847999D01*
X106488967Y-65843345D01*
X106746483Y-65704106D01*
X106799825Y-65668127D01*
X106853678Y-65632886D01*
X106861360Y-65626621D01*
X107086927Y-65440016D01*
X107132246Y-65394379D01*
X107178248Y-65349331D01*
X107184566Y-65341692D01*
X107369592Y-65114828D01*
X107405177Y-65061268D01*
X107441560Y-65008132D01*
X107446275Y-64999412D01*
X107583712Y-64740931D01*
X107608225Y-64681456D01*
X107633584Y-64622289D01*
X107636516Y-64612819D01*
X107721130Y-64332565D01*
X107733622Y-64269475D01*
X107747009Y-64206494D01*
X107748045Y-64196635D01*
X107776612Y-63905283D01*
X107776612Y-63905277D01*
X107780000Y-63870877D01*
X107780000Y-56655406D01*
X107855101Y-56730507D01*
X107968678Y-56616930D01*
X108274859Y-57060503D01*
X108862306Y-57375954D01*
X109500008Y-57570740D01*
X110163457Y-57637372D01*
X110827158Y-57573292D01*
X111465605Y-57380962D01*
X112054262Y-57067772D01*
X112065141Y-57060503D01*
X112371323Y-56616928D01*
X110170000Y-54415605D01*
X110155858Y-54429748D01*
X109976253Y-54250143D01*
X109990395Y-54236000D01*
X109976253Y-54221858D01*
X110155858Y-54042253D01*
X110170000Y-54056395D01*
X110184143Y-54042253D01*
X110363748Y-54221858D01*
X110349605Y-54236000D01*
X112550928Y-56437323D01*
X112994503Y-56131141D01*
X113309954Y-55543694D01*
X113504740Y-54905992D01*
X113571372Y-54242543D01*
X113557000Y-54093680D01*
X113805000Y-54093680D01*
X113805000Y-54378320D01*
X113860530Y-54657491D01*
X113969457Y-54920464D01*
X114127595Y-55157134D01*
X114328866Y-55358405D01*
X114549757Y-55506000D01*
X114328866Y-55653595D01*
X114127595Y-55854866D01*
X113969457Y-56091536D01*
X113860530Y-56354509D01*
X113805000Y-56633680D01*
X113805000Y-56918320D01*
X113860530Y-57197491D01*
X113969457Y-57460464D01*
X114127595Y-57697134D01*
X114328866Y-57898405D01*
X114549757Y-58046000D01*
X114328866Y-58193595D01*
X114127595Y-58394866D01*
X113969457Y-58631536D01*
X113860530Y-58894509D01*
X113805000Y-59173680D01*
X113805000Y-59458320D01*
X113860530Y-59737491D01*
X113969457Y-60000464D01*
X114127595Y-60237134D01*
X114328866Y-60438405D01*
X114549757Y-60586000D01*
X114328866Y-60733595D01*
X114127595Y-60934866D01*
X113969457Y-61171536D01*
X113860530Y-61434509D01*
X113805000Y-61713680D01*
X113805000Y-61998320D01*
X113860530Y-62277491D01*
X113969457Y-62540464D01*
X114127595Y-62777134D01*
X114328866Y-62978405D01*
X114565536Y-63136543D01*
X114828509Y-63245470D01*
X115107680Y-63301000D01*
X115392320Y-63301000D01*
X115671491Y-63245470D01*
X115894601Y-63153055D01*
X115894601Y-70506168D01*
X115890924Y-70543500D01*
X115905598Y-70692485D01*
X115949054Y-70835746D01*
X116019626Y-70967776D01*
X116090801Y-71054502D01*
X116114600Y-71083501D01*
X116143598Y-71107299D01*
X119595600Y-74559302D01*
X119595600Y-74621439D01*
X119635374Y-74821398D01*
X119713395Y-75009756D01*
X119826663Y-75179274D01*
X119970826Y-75323437D01*
X120140344Y-75436705D01*
X120328702Y-75514726D01*
X120528661Y-75554500D01*
X120705400Y-75554500D01*
X120705400Y-75905700D01*
X120577161Y-75905700D01*
X120377202Y-75945474D01*
X120188844Y-76023495D01*
X120019326Y-76136763D01*
X119875163Y-76280926D01*
X119761895Y-76450444D01*
X119683874Y-76638802D01*
X119644100Y-76838761D01*
X119644100Y-77042639D01*
X119683874Y-77242598D01*
X119761895Y-77430956D01*
X119783414Y-77463162D01*
X119667126Y-77540863D01*
X119522963Y-77685026D01*
X119409695Y-77854544D01*
X119331674Y-78042902D01*
X119291900Y-78242861D01*
X119291900Y-78446739D01*
X119331674Y-78646698D01*
X119409695Y-78835056D01*
X119522963Y-79004574D01*
X119667126Y-79148737D01*
X119776487Y-79221810D01*
X119745795Y-79267744D01*
X119667774Y-79456102D01*
X119628000Y-79656061D01*
X119628000Y-79859939D01*
X119667774Y-80059898D01*
X119745795Y-80248256D01*
X119859063Y-80417774D01*
X120003226Y-80561937D01*
X120172744Y-80675205D01*
X120361102Y-80753226D01*
X120561061Y-80793000D01*
X120764939Y-80793000D01*
X120964898Y-80753226D01*
X121153256Y-80675205D01*
X121322774Y-80561937D01*
X121466937Y-80417774D01*
X121580205Y-80248256D01*
X121658226Y-80059898D01*
X121698000Y-79859939D01*
X121698000Y-79656061D01*
X121658226Y-79456102D01*
X121580205Y-79267744D01*
X121466937Y-79098226D01*
X121322774Y-78954063D01*
X121213413Y-78880990D01*
X121244105Y-78835056D01*
X121259467Y-78797968D01*
X122169600Y-79708102D01*
X122169600Y-79770239D01*
X122209374Y-79970198D01*
X122287395Y-80158556D01*
X122400663Y-80328074D01*
X122544826Y-80472237D01*
X122714344Y-80585505D01*
X122902702Y-80663526D01*
X123102661Y-80703300D01*
X123306539Y-80703300D01*
X123506498Y-80663526D01*
X123694856Y-80585505D01*
X123864374Y-80472237D01*
X124008537Y-80328074D01*
X124121805Y-80158556D01*
X124199826Y-79970198D01*
X124239600Y-79770239D01*
X124239600Y-79566361D01*
X124199826Y-79366402D01*
X124121805Y-79178044D01*
X124008537Y-79008526D01*
X123864374Y-78864363D01*
X123694856Y-78751095D01*
X123506498Y-78673074D01*
X123306539Y-78633300D01*
X123244402Y-78633300D01*
X122225400Y-77614299D01*
X122225400Y-76230561D01*
X138928900Y-76230561D01*
X138928900Y-76434439D01*
X138968674Y-76634398D01*
X139046695Y-76822756D01*
X139159963Y-76992274D01*
X139304126Y-77136437D01*
X139473644Y-77249705D01*
X139662002Y-77327726D01*
X139861961Y-77367500D01*
X139883796Y-77367500D01*
X139934395Y-77489656D01*
X140047663Y-77659174D01*
X140191826Y-77803337D01*
X140361344Y-77916605D01*
X140549702Y-77994626D01*
X140749661Y-78034400D01*
X140953539Y-78034400D01*
X141153498Y-77994626D01*
X141341856Y-77916605D01*
X141511374Y-77803337D01*
X141655537Y-77659174D01*
X141768805Y-77489656D01*
X141846826Y-77301298D01*
X141886600Y-77101339D01*
X141886600Y-76897461D01*
X141846826Y-76697502D01*
X141844407Y-76691661D01*
X151726900Y-76691661D01*
X151726900Y-76895539D01*
X151766674Y-77095498D01*
X151844695Y-77283856D01*
X151957963Y-77453374D01*
X152102126Y-77597537D01*
X152271644Y-77710805D01*
X152460002Y-77788826D01*
X152659961Y-77828600D01*
X152863839Y-77828600D01*
X153054804Y-77790615D01*
X153117126Y-77852937D01*
X153286644Y-77966205D01*
X153475002Y-78044226D01*
X153674961Y-78084000D01*
X153878839Y-78084000D01*
X154078798Y-78044226D01*
X154267156Y-77966205D01*
X154436674Y-77852937D01*
X154580837Y-77708774D01*
X154694105Y-77539256D01*
X154772126Y-77350898D01*
X154811900Y-77150939D01*
X154811900Y-76947061D01*
X154772126Y-76747102D01*
X154697203Y-76566223D01*
X154808798Y-76544026D01*
X154997156Y-76466005D01*
X155166674Y-76352737D01*
X155310837Y-76208574D01*
X155424105Y-76039056D01*
X155502126Y-75850698D01*
X155541900Y-75650739D01*
X155541900Y-75446861D01*
X155502126Y-75246902D01*
X155424105Y-75058544D01*
X155310837Y-74889026D01*
X155166674Y-74744863D01*
X154997156Y-74631595D01*
X154808798Y-74553574D01*
X154608839Y-74513800D01*
X154404961Y-74513800D01*
X154205002Y-74553574D01*
X154016644Y-74631595D01*
X153847126Y-74744863D01*
X153702963Y-74889026D01*
X153589695Y-75058544D01*
X153511674Y-75246902D01*
X153471900Y-75446861D01*
X153471900Y-75650739D01*
X153511674Y-75850698D01*
X153586597Y-76031577D01*
X153483996Y-76051985D01*
X153421674Y-75989663D01*
X153252156Y-75876395D01*
X153063798Y-75798374D01*
X152863839Y-75758600D01*
X152659961Y-75758600D01*
X152460002Y-75798374D01*
X152271644Y-75876395D01*
X152102126Y-75989663D01*
X151957963Y-76133826D01*
X151844695Y-76303344D01*
X151766674Y-76491702D01*
X151726900Y-76691661D01*
X141844407Y-76691661D01*
X141768805Y-76509144D01*
X141655537Y-76339626D01*
X141511374Y-76195463D01*
X141341856Y-76082195D01*
X141153498Y-76004174D01*
X140953539Y-75964400D01*
X140931704Y-75964400D01*
X140881105Y-75842244D01*
X140767837Y-75672726D01*
X140623674Y-75528563D01*
X140454156Y-75415295D01*
X140265798Y-75337274D01*
X140065839Y-75297500D01*
X139861961Y-75297500D01*
X139662002Y-75337274D01*
X139473644Y-75415295D01*
X139304126Y-75528563D01*
X139159963Y-75672726D01*
X139046695Y-75842244D01*
X138968674Y-76030602D01*
X138928900Y-76230561D01*
X122225400Y-76230561D01*
X122225400Y-73626861D01*
X137986400Y-73626861D01*
X137986400Y-73830739D01*
X138026174Y-74030698D01*
X138104195Y-74219056D01*
X138217463Y-74388574D01*
X138361626Y-74532737D01*
X138531144Y-74646005D01*
X138719502Y-74724026D01*
X138919461Y-74763800D01*
X139123339Y-74763800D01*
X139323298Y-74724026D01*
X139511656Y-74646005D01*
X139681174Y-74532737D01*
X139825337Y-74388574D01*
X139938605Y-74219056D01*
X140016626Y-74030698D01*
X140056400Y-73830739D01*
X140056400Y-73626861D01*
X140023083Y-73459361D01*
X141949000Y-73459361D01*
X141949000Y-73663239D01*
X141988774Y-73863198D01*
X142066795Y-74051556D01*
X142180063Y-74221074D01*
X142324226Y-74365237D01*
X142493744Y-74478505D01*
X142682102Y-74556526D01*
X142882061Y-74596300D01*
X143085939Y-74596300D01*
X143285898Y-74556526D01*
X143474256Y-74478505D01*
X143643774Y-74365237D01*
X143787937Y-74221074D01*
X143855151Y-74120481D01*
X143858261Y-74121100D01*
X144062139Y-74121100D01*
X144262098Y-74081326D01*
X144450456Y-74003305D01*
X144619974Y-73890037D01*
X144764137Y-73745874D01*
X144877405Y-73576356D01*
X144916090Y-73482961D01*
X149973000Y-73482961D01*
X149973000Y-73686839D01*
X150012774Y-73886798D01*
X150090795Y-74075156D01*
X150204063Y-74244674D01*
X150348226Y-74388837D01*
X150517744Y-74502105D01*
X150706102Y-74580126D01*
X150906061Y-74619900D01*
X151109939Y-74619900D01*
X151309898Y-74580126D01*
X151498256Y-74502105D01*
X151667774Y-74388837D01*
X151811937Y-74244674D01*
X151925205Y-74075156D01*
X152003226Y-73886798D01*
X152043000Y-73686839D01*
X152043000Y-73686015D01*
X152085756Y-73668305D01*
X152255274Y-73555037D01*
X152399437Y-73410874D01*
X152512705Y-73241356D01*
X152590726Y-73052998D01*
X152630500Y-72853039D01*
X152630500Y-72649161D01*
X152590726Y-72449202D01*
X152512705Y-72260844D01*
X152399437Y-72091326D01*
X152255274Y-71947163D01*
X152085756Y-71833895D01*
X151897398Y-71755874D01*
X151697439Y-71716100D01*
X151493561Y-71716100D01*
X151293602Y-71755874D01*
X151105244Y-71833895D01*
X150935726Y-71947163D01*
X150791563Y-72091326D01*
X150678295Y-72260844D01*
X150600274Y-72449202D01*
X150560500Y-72649161D01*
X150560500Y-72649985D01*
X150517744Y-72667695D01*
X150348226Y-72780963D01*
X150204063Y-72925126D01*
X150090795Y-73094644D01*
X150012774Y-73283002D01*
X149973000Y-73482961D01*
X144916090Y-73482961D01*
X144955426Y-73387998D01*
X144995200Y-73188039D01*
X144995200Y-72984161D01*
X144955426Y-72784202D01*
X144877405Y-72595844D01*
X144764137Y-72426326D01*
X144619974Y-72282163D01*
X144450456Y-72168895D01*
X144262098Y-72090874D01*
X144062139Y-72051100D01*
X143858261Y-72051100D01*
X143658302Y-72090874D01*
X143469944Y-72168895D01*
X143300426Y-72282163D01*
X143156263Y-72426326D01*
X143089049Y-72526919D01*
X143085939Y-72526300D01*
X142882061Y-72526300D01*
X142682102Y-72566074D01*
X142493744Y-72644095D01*
X142324226Y-72757363D01*
X142180063Y-72901526D01*
X142066795Y-73071044D01*
X141988774Y-73259402D01*
X141949000Y-73459361D01*
X140023083Y-73459361D01*
X140016626Y-73426902D01*
X139938605Y-73238544D01*
X139825337Y-73069026D01*
X139681174Y-72924863D01*
X139511656Y-72811595D01*
X139323298Y-72733574D01*
X139123339Y-72693800D01*
X138919461Y-72693800D01*
X138719502Y-72733574D01*
X138531144Y-72811595D01*
X138361626Y-72924863D01*
X138217463Y-73069026D01*
X138104195Y-73238544D01*
X138026174Y-73426902D01*
X137986400Y-73626861D01*
X122225400Y-73626861D01*
X122225400Y-70619461D01*
X141153600Y-70619461D01*
X141153600Y-70823339D01*
X141193374Y-71023298D01*
X141271395Y-71211656D01*
X141384663Y-71381174D01*
X141528826Y-71525337D01*
X141698344Y-71638605D01*
X141886702Y-71716626D01*
X142086661Y-71756400D01*
X142290539Y-71756400D01*
X142490498Y-71716626D01*
X142678856Y-71638605D01*
X142848374Y-71525337D01*
X142992537Y-71381174D01*
X143105805Y-71211656D01*
X143183826Y-71023298D01*
X143223600Y-70823339D01*
X143223600Y-70619461D01*
X143183826Y-70419502D01*
X143105805Y-70231144D01*
X142992537Y-70061626D01*
X142848374Y-69917463D01*
X142678856Y-69804195D01*
X142490498Y-69726174D01*
X142290539Y-69686400D01*
X142086661Y-69686400D01*
X141886702Y-69726174D01*
X141698344Y-69804195D01*
X141528826Y-69917463D01*
X141384663Y-70061626D01*
X141271395Y-70231144D01*
X141193374Y-70419502D01*
X141153600Y-70619461D01*
X122225400Y-70619461D01*
X122225400Y-69384700D01*
X122371439Y-69384700D01*
X122571398Y-69344926D01*
X122759756Y-69266905D01*
X122929274Y-69153637D01*
X123073437Y-69009474D01*
X123178271Y-68852578D01*
X123248261Y-68866500D01*
X123452139Y-68866500D01*
X123652098Y-68826726D01*
X123840456Y-68748705D01*
X124009974Y-68635437D01*
X124154137Y-68491274D01*
X124267405Y-68321756D01*
X124345426Y-68133398D01*
X124385200Y-67933439D01*
X124385200Y-67808861D01*
X141156000Y-67808861D01*
X141156000Y-68012739D01*
X141195774Y-68212698D01*
X141273795Y-68401056D01*
X141387063Y-68570574D01*
X141531226Y-68714737D01*
X141700744Y-68828005D01*
X141889102Y-68906026D01*
X142089061Y-68945800D01*
X142292939Y-68945800D01*
X142492898Y-68906026D01*
X142681256Y-68828005D01*
X142748519Y-68783061D01*
X143450100Y-68783061D01*
X143450100Y-68986939D01*
X143489874Y-69186898D01*
X143567895Y-69375256D01*
X143681163Y-69544774D01*
X143825326Y-69688937D01*
X143994844Y-69802205D01*
X144183202Y-69880226D01*
X144383161Y-69920000D01*
X144587039Y-69920000D01*
X144786998Y-69880226D01*
X144975356Y-69802205D01*
X145144874Y-69688937D01*
X145289037Y-69544774D01*
X145402305Y-69375256D01*
X145474542Y-69200861D01*
X151437300Y-69200861D01*
X151437300Y-69404739D01*
X151477074Y-69604698D01*
X151555095Y-69793056D01*
X151668363Y-69962574D01*
X151812526Y-70106737D01*
X151982044Y-70220005D01*
X152170402Y-70298026D01*
X152370361Y-70337800D01*
X152574239Y-70337800D01*
X152774198Y-70298026D01*
X152962556Y-70220005D01*
X153132074Y-70106737D01*
X153276237Y-69962574D01*
X153389505Y-69793056D01*
X153467526Y-69604698D01*
X153507300Y-69404739D01*
X153507300Y-69200861D01*
X153467526Y-69000902D01*
X153389505Y-68812544D01*
X153276237Y-68643026D01*
X153132074Y-68498863D01*
X152962556Y-68385595D01*
X152774198Y-68307574D01*
X152574239Y-68267800D01*
X152370361Y-68267800D01*
X152170402Y-68307574D01*
X151982044Y-68385595D01*
X151812526Y-68498863D01*
X151668363Y-68643026D01*
X151555095Y-68812544D01*
X151477074Y-69000902D01*
X151437300Y-69200861D01*
X145474542Y-69200861D01*
X145480326Y-69186898D01*
X145520100Y-68986939D01*
X145520100Y-68783061D01*
X145480326Y-68583102D01*
X145402305Y-68394744D01*
X145289037Y-68225226D01*
X145144874Y-68081063D01*
X144975356Y-67967795D01*
X144786998Y-67889774D01*
X144587039Y-67850000D01*
X144383161Y-67850000D01*
X144183202Y-67889774D01*
X143994844Y-67967795D01*
X143825326Y-68081063D01*
X143681163Y-68225226D01*
X143567895Y-68394744D01*
X143489874Y-68583102D01*
X143450100Y-68783061D01*
X142748519Y-68783061D01*
X142850774Y-68714737D01*
X142994937Y-68570574D01*
X143108205Y-68401056D01*
X143186226Y-68212698D01*
X143226000Y-68012739D01*
X143226000Y-67808861D01*
X143186226Y-67608902D01*
X143108205Y-67420544D01*
X142994937Y-67251026D01*
X142850774Y-67106863D01*
X142681256Y-66993595D01*
X142492898Y-66915574D01*
X142292939Y-66875800D01*
X142089061Y-66875800D01*
X141889102Y-66915574D01*
X141700744Y-66993595D01*
X141531226Y-67106863D01*
X141387063Y-67251026D01*
X141273795Y-67420544D01*
X141195774Y-67608902D01*
X141156000Y-67808861D01*
X124385200Y-67808861D01*
X124385200Y-67729561D01*
X124345426Y-67529602D01*
X124267405Y-67341244D01*
X124236187Y-67294524D01*
X124259237Y-67271474D01*
X124372505Y-67101956D01*
X124450526Y-66913598D01*
X124490300Y-66713639D01*
X124490300Y-66509761D01*
X124450526Y-66309802D01*
X124372505Y-66121444D01*
X124259237Y-65951926D01*
X124115074Y-65807763D01*
X123945556Y-65694495D01*
X123757198Y-65616474D01*
X123557239Y-65576700D01*
X123353361Y-65576700D01*
X123153402Y-65616474D01*
X122965044Y-65694495D01*
X122795526Y-65807763D01*
X122651363Y-65951926D01*
X122538095Y-66121444D01*
X122460074Y-66309802D01*
X122420300Y-66509761D01*
X122420300Y-66713639D01*
X122460074Y-66913598D01*
X122538095Y-67101956D01*
X122569313Y-67148676D01*
X122546263Y-67171726D01*
X122441429Y-67328622D01*
X122371439Y-67314700D01*
X122225400Y-67314700D01*
X122225400Y-63153055D01*
X122448509Y-63245470D01*
X122727680Y-63301000D01*
X123012320Y-63301000D01*
X123291491Y-63245470D01*
X123554464Y-63136543D01*
X123791134Y-62978405D01*
X123992405Y-62777134D01*
X124140000Y-62556243D01*
X124287595Y-62777134D01*
X124488866Y-62978405D01*
X124725536Y-63136543D01*
X124988509Y-63245470D01*
X125267680Y-63301000D01*
X125552320Y-63301000D01*
X125831491Y-63245470D01*
X126094464Y-63136543D01*
X126331134Y-62978405D01*
X126532405Y-62777134D01*
X126680000Y-62556243D01*
X126827595Y-62777134D01*
X127028866Y-62978405D01*
X127265536Y-63136543D01*
X127528509Y-63245470D01*
X127807680Y-63301000D01*
X128092320Y-63301000D01*
X128371491Y-63245470D01*
X128634464Y-63136543D01*
X128871134Y-62978405D01*
X129072405Y-62777134D01*
X129220000Y-62556243D01*
X129367595Y-62777134D01*
X129568866Y-62978405D01*
X129805536Y-63136543D01*
X130068509Y-63245470D01*
X130347680Y-63301000D01*
X130632320Y-63301000D01*
X130911491Y-63245470D01*
X131174464Y-63136543D01*
X131411134Y-62978405D01*
X131612405Y-62777134D01*
X131760000Y-62556243D01*
X131907595Y-62777134D01*
X132108866Y-62978405D01*
X132345536Y-63136543D01*
X132608509Y-63245470D01*
X132887680Y-63301000D01*
X133172320Y-63301000D01*
X133451491Y-63245470D01*
X133714464Y-63136543D01*
X133951134Y-62978405D01*
X134152405Y-62777134D01*
X134300000Y-62556243D01*
X134447595Y-62777134D01*
X134648866Y-62978405D01*
X134885536Y-63136543D01*
X135148509Y-63245470D01*
X135427680Y-63301000D01*
X135712320Y-63301000D01*
X135991491Y-63245470D01*
X136254464Y-63136543D01*
X136491134Y-62978405D01*
X136692405Y-62777134D01*
X136840000Y-62556243D01*
X136987595Y-62777134D01*
X137188866Y-62978405D01*
X137425536Y-63136543D01*
X137688509Y-63245470D01*
X137967680Y-63301000D01*
X138252320Y-63301000D01*
X138531491Y-63245470D01*
X138794464Y-63136543D01*
X139031134Y-62978405D01*
X139232405Y-62777134D01*
X139380000Y-62556243D01*
X139527595Y-62777134D01*
X139728866Y-62978405D01*
X139965536Y-63136543D01*
X140228509Y-63245470D01*
X140507680Y-63301000D01*
X140792320Y-63301000D01*
X141071491Y-63245470D01*
X141334464Y-63136543D01*
X141571134Y-62978405D01*
X141772405Y-62777134D01*
X141920000Y-62556243D01*
X142067595Y-62777134D01*
X142268866Y-62978405D01*
X142505536Y-63136543D01*
X142768509Y-63245470D01*
X143047680Y-63301000D01*
X143332320Y-63301000D01*
X143611491Y-63245470D01*
X143874464Y-63136543D01*
X144111134Y-62978405D01*
X144312405Y-62777134D01*
X144460000Y-62556243D01*
X144607595Y-62777134D01*
X144808866Y-62978405D01*
X144859171Y-63012018D01*
X144839663Y-63031526D01*
X144726395Y-63201044D01*
X144648374Y-63389402D01*
X144608600Y-63589361D01*
X144608600Y-63793239D01*
X144648374Y-63993198D01*
X144726395Y-64181556D01*
X144839663Y-64351074D01*
X144983826Y-64495237D01*
X145153344Y-64608505D01*
X145341702Y-64686526D01*
X145541661Y-64726300D01*
X145745539Y-64726300D01*
X145945498Y-64686526D01*
X146133856Y-64608505D01*
X146303374Y-64495237D01*
X146447537Y-64351074D01*
X146560805Y-64181556D01*
X146638826Y-63993198D01*
X146678600Y-63793239D01*
X146678600Y-63589361D01*
X146638826Y-63389402D01*
X146560805Y-63201044D01*
X146485840Y-63088851D01*
X146651134Y-62978405D01*
X146852405Y-62777134D01*
X147000000Y-62556243D01*
X147147595Y-62777134D01*
X147348866Y-62978405D01*
X147585536Y-63136543D01*
X147848509Y-63245470D01*
X148127680Y-63301000D01*
X148412320Y-63301000D01*
X148691491Y-63245470D01*
X148954464Y-63136543D01*
X149191134Y-62978405D01*
X149392405Y-62777134D01*
X149540000Y-62556243D01*
X149687595Y-62777134D01*
X149888866Y-62978405D01*
X150125536Y-63136543D01*
X150388509Y-63245470D01*
X150667680Y-63301000D01*
X150952320Y-63301000D01*
X151231491Y-63245470D01*
X151494464Y-63136543D01*
X151731134Y-62978405D01*
X151932405Y-62777134D01*
X152080000Y-62556243D01*
X152227595Y-62777134D01*
X152428866Y-62978405D01*
X152665536Y-63136543D01*
X152928509Y-63245470D01*
X153207680Y-63301000D01*
X153492320Y-63301000D01*
X153771491Y-63245470D01*
X154034464Y-63136543D01*
X154271134Y-62978405D01*
X154472405Y-62777134D01*
X154620000Y-62556243D01*
X154767595Y-62777134D01*
X154968866Y-62978405D01*
X155205536Y-63136543D01*
X155468509Y-63245470D01*
X155747680Y-63301000D01*
X156032320Y-63301000D01*
X156311491Y-63245470D01*
X156534600Y-63153055D01*
X156534600Y-65222077D01*
X156530924Y-65259400D01*
X156534600Y-65296722D01*
X156534600Y-65296732D01*
X156545597Y-65408385D01*
X156588413Y-65549534D01*
X156589054Y-65551646D01*
X156659626Y-65683676D01*
X156695072Y-65726867D01*
X156754599Y-65799401D01*
X156783603Y-65823204D01*
X157243461Y-66283062D01*
X157067144Y-66356095D01*
X156897626Y-66469363D01*
X156753463Y-66613526D01*
X156640195Y-66783044D01*
X156562174Y-66971402D01*
X156538124Y-67092309D01*
X156464902Y-67106874D01*
X156276544Y-67184895D01*
X156107026Y-67298163D01*
X155962863Y-67442326D01*
X155849595Y-67611844D01*
X155771574Y-67800202D01*
X155731800Y-68000161D01*
X155731800Y-68204039D01*
X155771574Y-68403998D01*
X155849595Y-68592356D01*
X155962863Y-68761874D01*
X156107026Y-68906037D01*
X156276544Y-69019305D01*
X156464902Y-69097326D01*
X156664861Y-69137100D01*
X156868739Y-69137100D01*
X157068698Y-69097326D01*
X157257056Y-69019305D01*
X157426574Y-68906037D01*
X157570737Y-68761874D01*
X157684005Y-68592356D01*
X157762026Y-68403998D01*
X157786076Y-68283091D01*
X157859298Y-68268526D01*
X158047656Y-68190505D01*
X158217174Y-68077237D01*
X158361337Y-67933074D01*
X158474605Y-67763556D01*
X158547638Y-67587240D01*
X158868201Y-67907803D01*
X158868200Y-79448489D01*
X158824263Y-79492426D01*
X158710995Y-79661944D01*
X158632974Y-79850302D01*
X158593200Y-80050261D01*
X158593200Y-80254139D01*
X158632974Y-80454098D01*
X158710995Y-80642456D01*
X158824263Y-80811974D01*
X158968426Y-80956137D01*
X159137944Y-81069405D01*
X159326302Y-81147426D01*
X159526261Y-81187200D01*
X159730139Y-81187200D01*
X159930098Y-81147426D01*
X160118456Y-81069405D01*
X160283597Y-80959061D01*
X182826500Y-80959061D01*
X182826500Y-81162939D01*
X182866274Y-81362898D01*
X182944295Y-81551256D01*
X183057563Y-81720774D01*
X183201726Y-81864937D01*
X183371244Y-81978205D01*
X183559602Y-82056226D01*
X183759561Y-82096000D01*
X183963439Y-82096000D01*
X184163398Y-82056226D01*
X184351756Y-81978205D01*
X184521274Y-81864937D01*
X184665437Y-81720774D01*
X184778705Y-81551256D01*
X184856726Y-81362898D01*
X184896500Y-81162939D01*
X184896500Y-80959061D01*
X184856726Y-80759102D01*
X184778705Y-80570744D01*
X184665437Y-80401226D01*
X184521274Y-80257063D01*
X184351756Y-80143795D01*
X184163398Y-80065774D01*
X183963439Y-80026000D01*
X183759561Y-80026000D01*
X183559602Y-80065774D01*
X183371244Y-80143795D01*
X183201726Y-80257063D01*
X183057563Y-80401226D01*
X182944295Y-80570744D01*
X182866274Y-80759102D01*
X182826500Y-80959061D01*
X160283597Y-80959061D01*
X160287974Y-80956137D01*
X160432137Y-80811974D01*
X160545405Y-80642456D01*
X160623426Y-80454098D01*
X160663200Y-80254139D01*
X160663200Y-80050261D01*
X160623426Y-79850302D01*
X160545405Y-79661944D01*
X160432137Y-79492426D01*
X160388200Y-79448489D01*
X160388200Y-67630325D01*
X160391876Y-67593000D01*
X160388200Y-67555675D01*
X160388200Y-67555667D01*
X160377203Y-67444014D01*
X160333746Y-67300753D01*
X160263174Y-67168724D01*
X160168201Y-67052999D01*
X160139203Y-67029201D01*
X158054600Y-64944599D01*
X158054600Y-64433204D01*
X158085895Y-64508756D01*
X158199163Y-64678274D01*
X158343326Y-64822437D01*
X158512844Y-64935705D01*
X158701202Y-65013726D01*
X158778294Y-65029060D01*
X158845395Y-65191056D01*
X158958663Y-65360574D01*
X159102826Y-65504737D01*
X159272344Y-65618005D01*
X159460702Y-65696026D01*
X159660661Y-65735800D01*
X159864539Y-65735800D01*
X160064498Y-65696026D01*
X160252856Y-65618005D01*
X160422374Y-65504737D01*
X160566537Y-65360574D01*
X160679805Y-65191056D01*
X160757826Y-65002698D01*
X160797600Y-64802739D01*
X160797600Y-64598861D01*
X160757826Y-64398902D01*
X160679805Y-64210544D01*
X160566537Y-64041026D01*
X160522600Y-63997089D01*
X160522600Y-63234738D01*
X160548509Y-63245470D01*
X160827680Y-63301000D01*
X161112320Y-63301000D01*
X161391491Y-63245470D01*
X161422701Y-63232543D01*
X161422701Y-65649366D01*
X161393502Y-65655174D01*
X161205144Y-65733195D01*
X161035626Y-65846463D01*
X160891463Y-65990626D01*
X160778195Y-66160144D01*
X160700174Y-66348502D01*
X160660400Y-66548461D01*
X160660400Y-66752339D01*
X160700174Y-66952298D01*
X160778195Y-67140656D01*
X160891463Y-67310174D01*
X161035626Y-67454337D01*
X161205144Y-67567605D01*
X161393502Y-67645626D01*
X161593461Y-67685400D01*
X161797339Y-67685400D01*
X161997298Y-67645626D01*
X162185656Y-67567605D01*
X162355174Y-67454337D01*
X162499337Y-67310174D01*
X162612605Y-67140656D01*
X162690626Y-66952298D01*
X162730400Y-66752339D01*
X162730400Y-66693720D01*
X162817674Y-66587376D01*
X162888246Y-66455347D01*
X162931703Y-66312086D01*
X162942700Y-66200433D01*
X162942700Y-66200424D01*
X162946376Y-66163101D01*
X162942700Y-66125778D01*
X162942700Y-65253161D01*
X168003800Y-65253161D01*
X168003800Y-65457039D01*
X168043574Y-65656998D01*
X168121595Y-65845356D01*
X168234863Y-66014874D01*
X168379026Y-66159037D01*
X168548544Y-66272305D01*
X168736902Y-66350326D01*
X168936861Y-66390100D01*
X169140739Y-66390100D01*
X169340698Y-66350326D01*
X169529056Y-66272305D01*
X169698574Y-66159037D01*
X169842737Y-66014874D01*
X169956005Y-65845356D01*
X170034026Y-65656998D01*
X170073800Y-65457039D01*
X170073800Y-65253161D01*
X170034026Y-65053202D01*
X169956005Y-64864844D01*
X169842737Y-64695326D01*
X169698574Y-64551163D01*
X169529056Y-64437895D01*
X169340698Y-64359874D01*
X169140739Y-64320100D01*
X168936861Y-64320100D01*
X168736902Y-64359874D01*
X168548544Y-64437895D01*
X168379026Y-64551163D01*
X168234863Y-64695326D01*
X168121595Y-64864844D01*
X168043574Y-65053202D01*
X168003800Y-65253161D01*
X162942700Y-65253161D01*
X162942700Y-63185074D01*
X163088509Y-63245470D01*
X163367680Y-63301000D01*
X163652320Y-63301000D01*
X163931491Y-63245470D01*
X164194464Y-63136543D01*
X164431134Y-62978405D01*
X164632405Y-62777134D01*
X164780000Y-62556243D01*
X164927595Y-62777134D01*
X165128866Y-62978405D01*
X165365536Y-63136543D01*
X165628509Y-63245470D01*
X165907680Y-63301000D01*
X166192320Y-63301000D01*
X166471491Y-63245470D01*
X166734464Y-63136543D01*
X166971134Y-62978405D01*
X167172405Y-62777134D01*
X167320000Y-62556243D01*
X167467595Y-62777134D01*
X167668866Y-62978405D01*
X167905536Y-63136543D01*
X168168509Y-63245470D01*
X168447680Y-63301000D01*
X168732320Y-63301000D01*
X169011491Y-63245470D01*
X169274464Y-63136543D01*
X169511134Y-62978405D01*
X169712405Y-62777134D01*
X169860000Y-62556243D01*
X170007595Y-62777134D01*
X170208866Y-62978405D01*
X170445536Y-63136543D01*
X170708509Y-63245470D01*
X170987680Y-63301000D01*
X171272320Y-63301000D01*
X171541101Y-63247537D01*
X171541100Y-70244200D01*
X171370761Y-70244200D01*
X171170802Y-70283974D01*
X170982444Y-70361995D01*
X170812926Y-70475263D01*
X170668763Y-70619426D01*
X170555495Y-70788944D01*
X170477474Y-70977302D01*
X170437700Y-71177261D01*
X170437700Y-71381139D01*
X170477474Y-71581098D01*
X170555495Y-71769456D01*
X170668763Y-71938974D01*
X170812926Y-72083137D01*
X170982444Y-72196405D01*
X171170802Y-72274426D01*
X171370761Y-72314200D01*
X171541100Y-72314200D01*
X171541100Y-77495198D01*
X170627499Y-78408800D01*
X170565361Y-78408800D01*
X170365402Y-78448574D01*
X170177044Y-78526595D01*
X170007526Y-78639863D01*
X169863363Y-78784026D01*
X169750095Y-78953544D01*
X169672074Y-79141902D01*
X169632300Y-79341861D01*
X169632300Y-79545739D01*
X169672074Y-79745698D01*
X169750095Y-79934056D01*
X169863363Y-80103574D01*
X170007526Y-80247737D01*
X170177044Y-80361005D01*
X170365402Y-80439026D01*
X170565361Y-80478800D01*
X170769239Y-80478800D01*
X170969198Y-80439026D01*
X171157556Y-80361005D01*
X171327074Y-80247737D01*
X171471237Y-80103574D01*
X171584505Y-79934056D01*
X171662526Y-79745698D01*
X171702300Y-79545739D01*
X171702300Y-79483601D01*
X172434528Y-78751374D01*
X172538363Y-78906774D01*
X172682526Y-79050937D01*
X172852044Y-79164205D01*
X173040402Y-79242226D01*
X173240361Y-79282000D01*
X173444239Y-79282000D01*
X173644198Y-79242226D01*
X173832556Y-79164205D01*
X174002074Y-79050937D01*
X174146237Y-78906774D01*
X174259505Y-78737256D01*
X174337526Y-78548898D01*
X174377300Y-78348939D01*
X174377300Y-78286801D01*
X175054203Y-77609899D01*
X175083201Y-77586101D01*
X175139292Y-77517754D01*
X175178174Y-77470377D01*
X175248746Y-77338347D01*
X175265275Y-77283856D01*
X175292203Y-77195086D01*
X175303200Y-77083433D01*
X175303200Y-77083424D01*
X175306876Y-77046101D01*
X175303200Y-77008778D01*
X175303200Y-75121590D01*
X175482998Y-75085826D01*
X175662324Y-75011546D01*
X175692644Y-75031805D01*
X175881002Y-75109826D01*
X176080961Y-75149600D01*
X176284839Y-75149600D01*
X176484798Y-75109826D01*
X176673156Y-75031805D01*
X176842674Y-74918537D01*
X176986837Y-74774374D01*
X177100105Y-74604856D01*
X177178126Y-74416498D01*
X177217900Y-74216539D01*
X177217900Y-74012661D01*
X177178126Y-73812702D01*
X177100105Y-73624344D01*
X176986837Y-73454826D01*
X176842674Y-73310663D01*
X176673156Y-73197395D01*
X176484798Y-73119374D01*
X176284839Y-73079600D01*
X176080961Y-73079600D01*
X175881002Y-73119374D01*
X175701676Y-73193654D01*
X175671356Y-73173395D01*
X175565400Y-73129506D01*
X175565400Y-63153055D01*
X175788509Y-63245470D01*
X176067680Y-63301000D01*
X176352320Y-63301000D01*
X176631491Y-63245470D01*
X176894464Y-63136543D01*
X177131134Y-62978405D01*
X177332405Y-62777134D01*
X177480000Y-62556243D01*
X177627595Y-62777134D01*
X177828866Y-62978405D01*
X178065536Y-63136543D01*
X178328509Y-63245470D01*
X178607680Y-63301000D01*
X178892320Y-63301000D01*
X179171491Y-63245470D01*
X179434464Y-63136543D01*
X179671134Y-62978405D01*
X179872405Y-62777134D01*
X180030543Y-62540464D01*
X180139470Y-62277491D01*
X180195000Y-61998320D01*
X180195000Y-61713680D01*
X180139470Y-61434509D01*
X180030543Y-61171536D01*
X179872405Y-60934866D01*
X179671134Y-60733595D01*
X179450243Y-60586000D01*
X179671134Y-60438405D01*
X179872405Y-60237134D01*
X180030543Y-60000464D01*
X180139470Y-59737491D01*
X180195000Y-59458320D01*
X180195000Y-59173680D01*
X180139470Y-58894509D01*
X180030543Y-58631536D01*
X179872405Y-58394866D01*
X179671134Y-58193595D01*
X179450243Y-58046000D01*
X179671134Y-57898405D01*
X179872405Y-57697134D01*
X180030543Y-57460464D01*
X180139470Y-57197491D01*
X180195000Y-56918320D01*
X180195000Y-56633680D01*
X180139470Y-56354509D01*
X180030543Y-56091536D01*
X179872405Y-55854866D01*
X179671134Y-55653595D01*
X179450243Y-55506000D01*
X179671134Y-55358405D01*
X179872405Y-55157134D01*
X180030543Y-54920464D01*
X180139470Y-54657491D01*
X180195000Y-54378320D01*
X180195000Y-54093680D01*
X180139470Y-53814509D01*
X180030543Y-53551536D01*
X179872405Y-53314866D01*
X179671134Y-53113595D01*
X179434464Y-52955457D01*
X179171491Y-52846530D01*
X178892320Y-52791000D01*
X178607680Y-52791000D01*
X178328509Y-52846530D01*
X178065536Y-52955457D01*
X177828866Y-53113595D01*
X177627595Y-53314866D01*
X177480000Y-53535757D01*
X177332405Y-53314866D01*
X177131134Y-53113595D01*
X176894464Y-52955457D01*
X176631491Y-52846530D01*
X176352320Y-52791000D01*
X176067680Y-52791000D01*
X175788509Y-52846530D01*
X175525536Y-52955457D01*
X175288866Y-53113595D01*
X175087595Y-53314866D01*
X174940000Y-53535757D01*
X174792405Y-53314866D01*
X174591134Y-53113595D01*
X174354464Y-52955457D01*
X174091491Y-52846530D01*
X173812320Y-52791000D01*
X173527680Y-52791000D01*
X173248509Y-52846530D01*
X172985536Y-52955457D01*
X172748866Y-53113595D01*
X172547595Y-53314866D01*
X172400000Y-53535757D01*
X172252405Y-53314866D01*
X172051134Y-53113595D01*
X171814464Y-52955457D01*
X171551491Y-52846530D01*
X171272320Y-52791000D01*
X170987680Y-52791000D01*
X170708509Y-52846530D01*
X170445536Y-52955457D01*
X170208866Y-53113595D01*
X170007595Y-53314866D01*
X169860000Y-53535757D01*
X169712405Y-53314866D01*
X169511134Y-53113595D01*
X169274464Y-52955457D01*
X169011491Y-52846530D01*
X168732320Y-52791000D01*
X168447680Y-52791000D01*
X168168509Y-52846530D01*
X167905536Y-52955457D01*
X167668866Y-53113595D01*
X167467595Y-53314866D01*
X167320000Y-53535757D01*
X167172405Y-53314866D01*
X166971134Y-53113595D01*
X166734464Y-52955457D01*
X166471491Y-52846530D01*
X166192320Y-52791000D01*
X165907680Y-52791000D01*
X165628509Y-52846530D01*
X165365536Y-52955457D01*
X165128866Y-53113595D01*
X164927595Y-53314866D01*
X164780000Y-53535757D01*
X164632405Y-53314866D01*
X164431134Y-53113595D01*
X164194464Y-52955457D01*
X163931491Y-52846530D01*
X163652320Y-52791000D01*
X163367680Y-52791000D01*
X163088509Y-52846530D01*
X162825536Y-52955457D01*
X162588866Y-53113595D01*
X162387595Y-53314866D01*
X162240000Y-53535757D01*
X162092405Y-53314866D01*
X161891134Y-53113595D01*
X161654464Y-52955457D01*
X161391491Y-52846530D01*
X161112320Y-52791000D01*
X160827680Y-52791000D01*
X160548509Y-52846530D01*
X160285536Y-52955457D01*
X160048866Y-53113595D01*
X159847595Y-53314866D01*
X159700000Y-53535757D01*
X159552405Y-53314866D01*
X159351134Y-53113595D01*
X159114464Y-52955457D01*
X158851491Y-52846530D01*
X158572320Y-52791000D01*
X158287680Y-52791000D01*
X158008509Y-52846530D01*
X157745536Y-52955457D01*
X157508866Y-53113595D01*
X157307595Y-53314866D01*
X157160000Y-53535757D01*
X157012405Y-53314866D01*
X156811134Y-53113595D01*
X156574464Y-52955457D01*
X156311491Y-52846530D01*
X156032320Y-52791000D01*
X155747680Y-52791000D01*
X155468509Y-52846530D01*
X155205536Y-52955457D01*
X154968866Y-53113595D01*
X154767595Y-53314866D01*
X154620000Y-53535757D01*
X154472405Y-53314866D01*
X154271134Y-53113595D01*
X154034464Y-52955457D01*
X153771491Y-52846530D01*
X153492320Y-52791000D01*
X153207680Y-52791000D01*
X152928509Y-52846530D01*
X152665536Y-52955457D01*
X152428866Y-53113595D01*
X152227595Y-53314866D01*
X152080000Y-53535757D01*
X151932405Y-53314866D01*
X151731134Y-53113595D01*
X151494464Y-52955457D01*
X151231491Y-52846530D01*
X150952320Y-52791000D01*
X150667680Y-52791000D01*
X150388509Y-52846530D01*
X150125536Y-52955457D01*
X149888866Y-53113595D01*
X149687595Y-53314866D01*
X149540000Y-53535757D01*
X149392405Y-53314866D01*
X149191134Y-53113595D01*
X148954464Y-52955457D01*
X148691491Y-52846530D01*
X148412320Y-52791000D01*
X148127680Y-52791000D01*
X147848509Y-52846530D01*
X147585536Y-52955457D01*
X147348866Y-53113595D01*
X147147595Y-53314866D01*
X147000000Y-53535757D01*
X146852405Y-53314866D01*
X146651134Y-53113595D01*
X146414464Y-52955457D01*
X146151491Y-52846530D01*
X145872320Y-52791000D01*
X145587680Y-52791000D01*
X145308509Y-52846530D01*
X145045536Y-52955457D01*
X144808866Y-53113595D01*
X144607595Y-53314866D01*
X144460000Y-53535757D01*
X144312405Y-53314866D01*
X144111134Y-53113595D01*
X143874464Y-52955457D01*
X143611491Y-52846530D01*
X143332320Y-52791000D01*
X143047680Y-52791000D01*
X142768509Y-52846530D01*
X142505536Y-52955457D01*
X142268866Y-53113595D01*
X142067595Y-53314866D01*
X141920000Y-53535757D01*
X141772405Y-53314866D01*
X141571134Y-53113595D01*
X141334464Y-52955457D01*
X141071491Y-52846530D01*
X140792320Y-52791000D01*
X140507680Y-52791000D01*
X140228509Y-52846530D01*
X139965536Y-52955457D01*
X139728866Y-53113595D01*
X139527595Y-53314866D01*
X139380000Y-53535757D01*
X139232405Y-53314866D01*
X139031134Y-53113595D01*
X138794464Y-52955457D01*
X138531491Y-52846530D01*
X138252320Y-52791000D01*
X137967680Y-52791000D01*
X137688509Y-52846530D01*
X137425536Y-52955457D01*
X137188866Y-53113595D01*
X136987595Y-53314866D01*
X136840000Y-53535757D01*
X136692405Y-53314866D01*
X136491134Y-53113595D01*
X136254464Y-52955457D01*
X135991491Y-52846530D01*
X135712320Y-52791000D01*
X135427680Y-52791000D01*
X135148509Y-52846530D01*
X134885536Y-52955457D01*
X134648866Y-53113595D01*
X134447595Y-53314866D01*
X134300000Y-53535757D01*
X134152405Y-53314866D01*
X133951134Y-53113595D01*
X133714464Y-52955457D01*
X133451491Y-52846530D01*
X133172320Y-52791000D01*
X132887680Y-52791000D01*
X132608509Y-52846530D01*
X132345536Y-52955457D01*
X132108866Y-53113595D01*
X131907595Y-53314866D01*
X131760000Y-53535757D01*
X131612405Y-53314866D01*
X131411134Y-53113595D01*
X131174464Y-52955457D01*
X130911491Y-52846530D01*
X130632320Y-52791000D01*
X130347680Y-52791000D01*
X130068509Y-52846530D01*
X129805536Y-52955457D01*
X129568866Y-53113595D01*
X129367595Y-53314866D01*
X129220000Y-53535757D01*
X129072405Y-53314866D01*
X128871134Y-53113595D01*
X128634464Y-52955457D01*
X128371491Y-52846530D01*
X128092320Y-52791000D01*
X127807680Y-52791000D01*
X127528509Y-52846530D01*
X127265536Y-52955457D01*
X127028866Y-53113595D01*
X126827595Y-53314866D01*
X126680000Y-53535757D01*
X126532405Y-53314866D01*
X126331134Y-53113595D01*
X126094464Y-52955457D01*
X125831491Y-52846530D01*
X125552320Y-52791000D01*
X125267680Y-52791000D01*
X124988509Y-52846530D01*
X124725536Y-52955457D01*
X124488866Y-53113595D01*
X124287595Y-53314866D01*
X124140000Y-53535757D01*
X123992405Y-53314866D01*
X123791134Y-53113595D01*
X123554464Y-52955457D01*
X123291491Y-52846530D01*
X123012320Y-52791000D01*
X122727680Y-52791000D01*
X122448509Y-52846530D01*
X122185536Y-52955457D01*
X121948866Y-53113595D01*
X121747595Y-53314866D01*
X121600000Y-53535757D01*
X121452405Y-53314866D01*
X121251134Y-53113595D01*
X121014464Y-52955457D01*
X120751491Y-52846530D01*
X120472320Y-52791000D01*
X120187680Y-52791000D01*
X119908509Y-52846530D01*
X119645536Y-52955457D01*
X119408866Y-53113595D01*
X119207595Y-53314866D01*
X119060000Y-53535757D01*
X118912405Y-53314866D01*
X118711134Y-53113595D01*
X118474464Y-52955457D01*
X118211491Y-52846530D01*
X117932320Y-52791000D01*
X117647680Y-52791000D01*
X117368509Y-52846530D01*
X117105536Y-52955457D01*
X116868866Y-53113595D01*
X116667595Y-53314866D01*
X116520000Y-53535757D01*
X116372405Y-53314866D01*
X116171134Y-53113595D01*
X115934464Y-52955457D01*
X115671491Y-52846530D01*
X115392320Y-52791000D01*
X115107680Y-52791000D01*
X114828509Y-52846530D01*
X114565536Y-52955457D01*
X114328866Y-53113595D01*
X114127595Y-53314866D01*
X113969457Y-53551536D01*
X113860530Y-53814509D01*
X113805000Y-54093680D01*
X113557000Y-54093680D01*
X113507292Y-53578842D01*
X113314962Y-52940395D01*
X113001772Y-52351738D01*
X112994503Y-52340859D01*
X112550930Y-52034678D01*
X112664507Y-51921101D01*
X112589406Y-51846000D01*
X181400594Y-51846000D01*
X181325493Y-51921101D01*
G37*
X181325493Y-51921101D02*
X181439070Y-52034678D01*
X180995497Y-52340859D01*
X180680046Y-52928306D01*
X180485260Y-53566008D01*
X180418628Y-54229457D01*
X180482708Y-54893158D01*
X180675038Y-55531605D01*
X180988228Y-56120262D01*
X180995497Y-56131141D01*
X181439072Y-56437323D01*
X183640395Y-54236000D01*
X183626253Y-54221858D01*
X183805858Y-54042253D01*
X183820000Y-54056395D01*
X183834143Y-54042253D01*
X184013748Y-54221858D01*
X183999605Y-54236000D01*
X184013748Y-54250143D01*
X183834143Y-54429748D01*
X183820000Y-54415605D01*
X181618677Y-56616928D01*
X181924859Y-57060503D01*
X182512306Y-57375954D01*
X183150008Y-57570740D01*
X183813457Y-57637372D01*
X184477158Y-57573292D01*
X185115605Y-57380962D01*
X185704262Y-57067772D01*
X185715141Y-57060503D01*
X186021322Y-56616930D01*
X186134899Y-56730507D01*
X186210000Y-56655406D01*
X186210001Y-64070877D01*
X186213010Y-64101427D01*
X186212954Y-64109424D01*
X186213921Y-64119290D01*
X186240441Y-64371615D01*
X186253379Y-64434646D01*
X186265439Y-64497864D01*
X186268305Y-64507354D01*
X186343331Y-64749724D01*
X186368266Y-64809041D01*
X186392373Y-64868709D01*
X186397027Y-64877462D01*
X186517700Y-65100643D01*
X186553670Y-65153971D01*
X186588922Y-65207841D01*
X186595188Y-65215523D01*
X186756913Y-65411014D01*
X186802531Y-65456314D01*
X186847596Y-65502333D01*
X186855234Y-65508652D01*
X187051849Y-65669007D01*
X187105393Y-65704582D01*
X187158547Y-65740977D01*
X187167267Y-65745691D01*
X187391285Y-65864803D01*
X187450748Y-65889312D01*
X187509925Y-65914675D01*
X187519395Y-65917607D01*
X187762282Y-65990939D01*
X187825379Y-66003432D01*
X187888353Y-66016818D01*
X187898212Y-66017854D01*
X188150717Y-66042612D01*
X188333937Y-66060577D01*
X188443536Y-66093667D01*
X188544615Y-66147411D01*
X188633336Y-66219770D01*
X188706309Y-66307979D01*
X188760761Y-66408687D01*
X188794614Y-66518046D01*
X188810005Y-66664485D01*
X188814126Y-96873000D01*
X103980000Y-96873000D01*
X103980000Y-88451061D01*
X111649100Y-88451061D01*
X111649100Y-88654939D01*
X111688874Y-88854898D01*
X111766895Y-89043256D01*
X111880163Y-89212774D01*
X112024326Y-89356937D01*
X112193844Y-89470205D01*
X112382202Y-89548226D01*
X112582161Y-89588000D01*
X112786039Y-89588000D01*
X112985998Y-89548226D01*
X113174356Y-89470205D01*
X113343874Y-89356937D01*
X113488037Y-89212774D01*
X113601305Y-89043256D01*
X113679326Y-88854898D01*
X113719100Y-88654939D01*
X113719100Y-88483561D01*
X132679000Y-88483561D01*
X132679000Y-88687439D01*
X132718774Y-88887398D01*
X132796795Y-89075756D01*
X132910063Y-89245274D01*
X133054226Y-89389437D01*
X133223744Y-89502705D01*
X133412102Y-89580726D01*
X133612061Y-89620500D01*
X133815939Y-89620500D01*
X134015898Y-89580726D01*
X134204256Y-89502705D01*
X134211206Y-89498061D01*
X159236400Y-89498061D01*
X159236400Y-89701939D01*
X159276174Y-89901898D01*
X159354195Y-90090256D01*
X159467463Y-90259774D01*
X159611626Y-90403937D01*
X159781144Y-90517205D01*
X159969502Y-90595226D01*
X160169461Y-90635000D01*
X160373339Y-90635000D01*
X160573298Y-90595226D01*
X160761656Y-90517205D01*
X160931174Y-90403937D01*
X161075337Y-90259774D01*
X161188605Y-90090256D01*
X161266626Y-89901898D01*
X161306400Y-89701939D01*
X161306400Y-89498061D01*
X161266626Y-89298102D01*
X161188605Y-89109744D01*
X161075337Y-88940226D01*
X160931174Y-88796063D01*
X160897059Y-88773268D01*
X160932874Y-88749337D01*
X161077037Y-88605174D01*
X161190305Y-88435656D01*
X161268326Y-88247298D01*
X161308100Y-88047339D01*
X161308100Y-87843461D01*
X161268326Y-87643502D01*
X161190305Y-87455144D01*
X161127041Y-87360461D01*
X179259200Y-87360461D01*
X179259200Y-87564339D01*
X179298974Y-87764298D01*
X179376995Y-87952656D01*
X179490263Y-88122174D01*
X179634426Y-88266337D01*
X179803944Y-88379605D01*
X179992302Y-88457626D01*
X180192261Y-88497400D01*
X180396139Y-88497400D01*
X180596098Y-88457626D01*
X180784456Y-88379605D01*
X180847183Y-88337692D01*
X181023502Y-88410726D01*
X181223461Y-88450500D01*
X181427339Y-88450500D01*
X181627298Y-88410726D01*
X181815656Y-88332705D01*
X181985174Y-88219437D01*
X182129337Y-88075274D01*
X182242605Y-87905756D01*
X182320626Y-87717398D01*
X182360400Y-87517439D01*
X182360400Y-87313561D01*
X182320626Y-87113602D01*
X182242605Y-86925244D01*
X182143532Y-86776970D01*
X182245305Y-86624656D01*
X182323326Y-86436298D01*
X182363100Y-86236339D01*
X182363100Y-86032461D01*
X182323326Y-85832502D01*
X182245305Y-85644144D01*
X182199449Y-85575515D01*
X182221805Y-85542056D01*
X182299826Y-85353698D01*
X182339600Y-85153739D01*
X182339600Y-84949861D01*
X182299826Y-84749902D01*
X182221805Y-84561544D01*
X182108537Y-84392026D01*
X182035261Y-84318750D01*
X182124437Y-84229574D01*
X182237705Y-84060056D01*
X182315726Y-83871698D01*
X182355500Y-83671739D01*
X182355500Y-83467861D01*
X182315726Y-83267902D01*
X182237705Y-83079544D01*
X182124437Y-82910026D01*
X182014261Y-82799850D01*
X182107737Y-82706374D01*
X182221005Y-82536856D01*
X182299026Y-82348498D01*
X182338800Y-82148539D01*
X182338800Y-81944661D01*
X182299026Y-81744702D01*
X182221005Y-81556344D01*
X182107737Y-81386826D01*
X181963574Y-81242663D01*
X181794056Y-81129395D01*
X181605698Y-81051374D01*
X181405739Y-81011600D01*
X181201861Y-81011600D01*
X181001902Y-81051374D01*
X180813544Y-81129395D01*
X180644026Y-81242663D01*
X180499863Y-81386826D01*
X180386595Y-81556344D01*
X180308574Y-81744702D01*
X180268800Y-81944661D01*
X180268800Y-82148539D01*
X180308574Y-82348498D01*
X180386595Y-82536856D01*
X180499863Y-82706374D01*
X180610039Y-82816550D01*
X180516563Y-82910026D01*
X180403295Y-83079544D01*
X180325274Y-83267902D01*
X180285500Y-83467861D01*
X180285500Y-83671739D01*
X180325274Y-83871698D01*
X180403295Y-84060056D01*
X180516563Y-84229574D01*
X180589839Y-84302850D01*
X180500663Y-84392026D01*
X180387395Y-84561544D01*
X180309374Y-84749902D01*
X180269600Y-84949861D01*
X180269600Y-85153739D01*
X180309374Y-85353698D01*
X180387395Y-85542056D01*
X180433251Y-85610685D01*
X180410895Y-85644144D01*
X180332874Y-85832502D01*
X180293100Y-86032461D01*
X180293100Y-86236339D01*
X180331104Y-86427400D01*
X180192261Y-86427400D01*
X179992302Y-86467174D01*
X179803944Y-86545195D01*
X179634426Y-86658463D01*
X179490263Y-86802626D01*
X179376995Y-86972144D01*
X179298974Y-87160502D01*
X179259200Y-87360461D01*
X161127041Y-87360461D01*
X161077037Y-87285626D01*
X160932874Y-87141463D01*
X160763356Y-87028195D01*
X160574998Y-86950174D01*
X160375039Y-86910400D01*
X160171161Y-86910400D01*
X159971202Y-86950174D01*
X159782844Y-87028195D01*
X159613326Y-87141463D01*
X159469163Y-87285626D01*
X159355895Y-87455144D01*
X159277874Y-87643502D01*
X159238100Y-87843461D01*
X159238100Y-88047339D01*
X159277874Y-88247298D01*
X159355895Y-88435656D01*
X159469163Y-88605174D01*
X159613326Y-88749337D01*
X159647441Y-88772132D01*
X159611626Y-88796063D01*
X159467463Y-88940226D01*
X159354195Y-89109744D01*
X159276174Y-89298102D01*
X159236400Y-89498061D01*
X134211206Y-89498061D01*
X134373774Y-89389437D01*
X134517937Y-89245274D01*
X134631205Y-89075756D01*
X134709226Y-88887398D01*
X134749000Y-88687439D01*
X134749000Y-88483561D01*
X134709226Y-88283602D01*
X134631205Y-88095244D01*
X134537931Y-87955650D01*
X134646105Y-87793756D01*
X134724126Y-87605398D01*
X134763900Y-87405439D01*
X134763900Y-87201561D01*
X134724126Y-87001602D01*
X134646105Y-86813244D01*
X134532837Y-86643726D01*
X134466872Y-86577761D01*
X140687400Y-86577761D01*
X140687400Y-86781639D01*
X140727174Y-86981598D01*
X140805195Y-87169956D01*
X140918463Y-87339474D01*
X141062626Y-87483637D01*
X141232144Y-87596905D01*
X141420502Y-87674926D01*
X141620461Y-87714700D01*
X141824339Y-87714700D01*
X142024298Y-87674926D01*
X142212656Y-87596905D01*
X142382174Y-87483637D01*
X142526337Y-87339474D01*
X142610402Y-87213661D01*
X143210500Y-87213661D01*
X143210500Y-87417539D01*
X143250274Y-87617498D01*
X143328295Y-87805856D01*
X143441563Y-87975374D01*
X143585726Y-88119537D01*
X143755244Y-88232805D01*
X143943602Y-88310826D01*
X144143561Y-88350600D01*
X144347439Y-88350600D01*
X144547398Y-88310826D01*
X144735756Y-88232805D01*
X144905274Y-88119537D01*
X145049437Y-87975374D01*
X145162705Y-87805856D01*
X145240726Y-87617498D01*
X145280500Y-87417539D01*
X145280500Y-87213661D01*
X145240726Y-87013702D01*
X145162705Y-86825344D01*
X145049437Y-86655826D01*
X144905274Y-86511663D01*
X144735756Y-86398395D01*
X144547398Y-86320374D01*
X144347439Y-86280600D01*
X144143561Y-86280600D01*
X143943602Y-86320374D01*
X143755244Y-86398395D01*
X143585726Y-86511663D01*
X143441563Y-86655826D01*
X143328295Y-86825344D01*
X143250274Y-87013702D01*
X143210500Y-87213661D01*
X142610402Y-87213661D01*
X142639605Y-87169956D01*
X142717626Y-86981598D01*
X142757400Y-86781639D01*
X142757400Y-86577761D01*
X142717626Y-86377802D01*
X142639605Y-86189444D01*
X142526337Y-86019926D01*
X142382174Y-85875763D01*
X142212656Y-85762495D01*
X142024298Y-85684474D01*
X141824339Y-85644700D01*
X141620461Y-85644700D01*
X141420502Y-85684474D01*
X141232144Y-85762495D01*
X141062626Y-85875763D01*
X140918463Y-86019926D01*
X140805195Y-86189444D01*
X140727174Y-86377802D01*
X140687400Y-86577761D01*
X134466872Y-86577761D01*
X134388674Y-86499563D01*
X134219156Y-86386295D01*
X134030798Y-86308274D01*
X133830839Y-86268500D01*
X133626961Y-86268500D01*
X133427002Y-86308274D01*
X133238644Y-86386295D01*
X133069126Y-86499563D01*
X132924963Y-86643726D01*
X132811695Y-86813244D01*
X132733674Y-87001602D01*
X132693900Y-87201561D01*
X132693900Y-87405439D01*
X132733674Y-87605398D01*
X132811695Y-87793756D01*
X132904969Y-87933350D01*
X132796795Y-88095244D01*
X132718774Y-88283602D01*
X132679000Y-88483561D01*
X113719100Y-88483561D01*
X113719100Y-88451061D01*
X113679326Y-88251102D01*
X113601305Y-88062744D01*
X113488037Y-87893226D01*
X113343874Y-87749063D01*
X113174356Y-87635795D01*
X112985998Y-87557774D01*
X112786039Y-87518000D01*
X112582161Y-87518000D01*
X112382202Y-87557774D01*
X112193844Y-87635795D01*
X112024326Y-87749063D01*
X111880163Y-87893226D01*
X111766895Y-88062744D01*
X111688874Y-88251102D01*
X111649100Y-88451061D01*
X103980000Y-88451061D01*
X103980000Y-85890861D01*
X109103600Y-85890861D01*
X109103600Y-86094739D01*
X109143374Y-86294698D01*
X109221395Y-86483056D01*
X109326150Y-86639834D01*
X109230995Y-86782244D01*
X109152974Y-86970602D01*
X109113200Y-87170561D01*
X109113200Y-87374439D01*
X109152974Y-87574398D01*
X109230995Y-87762756D01*
X109344263Y-87932274D01*
X109488426Y-88076437D01*
X109657944Y-88189705D01*
X109846302Y-88267726D01*
X110046261Y-88307500D01*
X110250139Y-88307500D01*
X110450098Y-88267726D01*
X110638456Y-88189705D01*
X110807974Y-88076437D01*
X110952137Y-87932274D01*
X111065405Y-87762756D01*
X111143426Y-87574398D01*
X111183200Y-87374439D01*
X111183200Y-87170561D01*
X111143426Y-86970602D01*
X111065405Y-86782244D01*
X110960650Y-86625466D01*
X111055805Y-86483056D01*
X111069140Y-86450861D01*
X122139400Y-86450861D01*
X122139400Y-86654739D01*
X122179174Y-86854698D01*
X122257195Y-87043056D01*
X122370463Y-87212574D01*
X122514626Y-87356737D01*
X122684144Y-87470005D01*
X122872502Y-87548026D01*
X123072461Y-87587800D01*
X123276339Y-87587800D01*
X123476298Y-87548026D01*
X123664656Y-87470005D01*
X123834174Y-87356737D01*
X123978337Y-87212574D01*
X124091605Y-87043056D01*
X124169626Y-86854698D01*
X124209400Y-86654739D01*
X124209400Y-86450861D01*
X124169626Y-86250902D01*
X124091605Y-86062544D01*
X123978337Y-85893026D01*
X123834174Y-85748863D01*
X123664656Y-85635595D01*
X123476298Y-85557574D01*
X123276339Y-85517800D01*
X123072461Y-85517800D01*
X122872502Y-85557574D01*
X122684144Y-85635595D01*
X122514626Y-85748863D01*
X122370463Y-85893026D01*
X122257195Y-86062544D01*
X122179174Y-86250902D01*
X122139400Y-86450861D01*
X111069140Y-86450861D01*
X111133826Y-86294698D01*
X111173600Y-86094739D01*
X111173600Y-85890861D01*
X111133826Y-85690902D01*
X111055805Y-85502544D01*
X110942537Y-85333026D01*
X110798374Y-85188863D01*
X110628856Y-85075595D01*
X110440498Y-84997574D01*
X110240539Y-84957800D01*
X110036661Y-84957800D01*
X109836702Y-84997574D01*
X109648344Y-85075595D01*
X109478826Y-85188863D01*
X109334663Y-85333026D01*
X109221395Y-85502544D01*
X109143374Y-85690902D01*
X109103600Y-85890861D01*
X103980000Y-85890861D01*
X103980000Y-83969861D01*
X112397200Y-83969861D01*
X112397200Y-84173739D01*
X112436974Y-84373698D01*
X112514995Y-84562056D01*
X112628263Y-84731574D01*
X112772426Y-84875737D01*
X112941944Y-84989005D01*
X113130302Y-85067026D01*
X113330261Y-85106800D01*
X113534139Y-85106800D01*
X113734098Y-85067026D01*
X113922456Y-84989005D01*
X114091974Y-84875737D01*
X114236137Y-84731574D01*
X114349405Y-84562056D01*
X114426654Y-84375561D01*
X123668500Y-84375561D01*
X123668500Y-84579439D01*
X123708274Y-84779398D01*
X123786295Y-84967756D01*
X123899563Y-85137274D01*
X124043726Y-85281437D01*
X124213244Y-85394705D01*
X124401602Y-85472726D01*
X124601561Y-85512500D01*
X124805439Y-85512500D01*
X125005398Y-85472726D01*
X125193756Y-85394705D01*
X125363274Y-85281437D01*
X125507437Y-85137274D01*
X125620705Y-84967756D01*
X125698726Y-84779398D01*
X125738500Y-84579439D01*
X125738500Y-84498061D01*
X159228700Y-84498061D01*
X159228700Y-84701939D01*
X159268474Y-84901898D01*
X159346495Y-85090256D01*
X159459763Y-85259774D01*
X159603926Y-85403937D01*
X159773444Y-85517205D01*
X159961802Y-85595226D01*
X160161761Y-85635000D01*
X160365639Y-85635000D01*
X160565598Y-85595226D01*
X160753956Y-85517205D01*
X160923474Y-85403937D01*
X161067637Y-85259774D01*
X161180905Y-85090256D01*
X161258926Y-84901898D01*
X161293185Y-84729661D01*
X161760400Y-84729661D01*
X161760400Y-84933539D01*
X161800174Y-85133498D01*
X161878195Y-85321856D01*
X161991463Y-85491374D01*
X162135626Y-85635537D01*
X162305144Y-85748805D01*
X162493502Y-85826826D01*
X162693461Y-85866600D01*
X162897339Y-85866600D01*
X163097298Y-85826826D01*
X163285656Y-85748805D01*
X163455174Y-85635537D01*
X163599337Y-85491374D01*
X163712605Y-85321856D01*
X163790626Y-85133498D01*
X163830400Y-84933539D01*
X163830400Y-84899361D01*
X168739600Y-84899361D01*
X168739600Y-85103239D01*
X168779374Y-85303198D01*
X168857395Y-85491556D01*
X168970663Y-85661074D01*
X169114826Y-85805237D01*
X169284344Y-85918505D01*
X169472702Y-85996526D01*
X169672661Y-86036300D01*
X169876539Y-86036300D01*
X170076498Y-85996526D01*
X170264856Y-85918505D01*
X170434374Y-85805237D01*
X170485659Y-85753952D01*
X170489702Y-85755626D01*
X170689661Y-85795400D01*
X170893539Y-85795400D01*
X171093498Y-85755626D01*
X171281856Y-85677605D01*
X171451374Y-85564337D01*
X171595537Y-85420174D01*
X171708805Y-85250656D01*
X171786826Y-85062298D01*
X171826600Y-84862339D01*
X171826600Y-84658461D01*
X171786826Y-84458502D01*
X171708805Y-84270144D01*
X171595537Y-84100626D01*
X171451374Y-83956463D01*
X171281856Y-83843195D01*
X171093498Y-83765174D01*
X170893539Y-83725400D01*
X170689661Y-83725400D01*
X170489702Y-83765174D01*
X170301344Y-83843195D01*
X170131826Y-83956463D01*
X170080541Y-84007748D01*
X170076498Y-84006074D01*
X169876539Y-83966300D01*
X169672661Y-83966300D01*
X169472702Y-84006074D01*
X169284344Y-84084095D01*
X169114826Y-84197363D01*
X168970663Y-84341526D01*
X168857395Y-84511044D01*
X168779374Y-84699402D01*
X168739600Y-84899361D01*
X163830400Y-84899361D01*
X163830400Y-84729661D01*
X163790626Y-84529702D01*
X163712605Y-84341344D01*
X163599337Y-84171826D01*
X163455174Y-84027663D01*
X163285656Y-83914395D01*
X163097298Y-83836374D01*
X162897339Y-83796600D01*
X162693461Y-83796600D01*
X162493502Y-83836374D01*
X162305144Y-83914395D01*
X162135626Y-84027663D01*
X161991463Y-84171826D01*
X161878195Y-84341344D01*
X161800174Y-84529702D01*
X161760400Y-84729661D01*
X161293185Y-84729661D01*
X161298700Y-84701939D01*
X161298700Y-84498061D01*
X161258926Y-84298102D01*
X161180905Y-84109744D01*
X161067637Y-83940226D01*
X160923474Y-83796063D01*
X160753956Y-83682795D01*
X160565598Y-83604774D01*
X160365639Y-83565000D01*
X160161761Y-83565000D01*
X159961802Y-83604774D01*
X159773444Y-83682795D01*
X159603926Y-83796063D01*
X159459763Y-83940226D01*
X159346495Y-84109744D01*
X159268474Y-84298102D01*
X159228700Y-84498061D01*
X125738500Y-84498061D01*
X125738500Y-84375561D01*
X125698726Y-84175602D01*
X125620705Y-83987244D01*
X125507437Y-83817726D01*
X125363274Y-83673563D01*
X125193756Y-83560295D01*
X125005398Y-83482274D01*
X124805439Y-83442500D01*
X124601561Y-83442500D01*
X124401602Y-83482274D01*
X124213244Y-83560295D01*
X124043726Y-83673563D01*
X123899563Y-83817726D01*
X123786295Y-83987244D01*
X123708274Y-84175602D01*
X123668500Y-84375561D01*
X114426654Y-84375561D01*
X114427426Y-84373698D01*
X114467200Y-84173739D01*
X114467200Y-83969861D01*
X114427426Y-83769902D01*
X114349405Y-83581544D01*
X114236137Y-83412026D01*
X114091974Y-83267863D01*
X113922456Y-83154595D01*
X113734098Y-83076574D01*
X113534139Y-83036800D01*
X113330261Y-83036800D01*
X113130302Y-83076574D01*
X112941944Y-83154595D01*
X112772426Y-83267863D01*
X112628263Y-83412026D01*
X112514995Y-83581544D01*
X112436974Y-83769902D01*
X112397200Y-83969861D01*
X103980000Y-83969861D01*
X103980000Y-82107361D01*
X122183700Y-82107361D01*
X122183700Y-82311239D01*
X122223474Y-82511198D01*
X122301495Y-82699556D01*
X122414763Y-82869074D01*
X122558926Y-83013237D01*
X122728444Y-83126505D01*
X122916802Y-83204526D01*
X123116761Y-83244300D01*
X123320639Y-83244300D01*
X123520598Y-83204526D01*
X123708956Y-83126505D01*
X123878474Y-83013237D01*
X124022637Y-82869074D01*
X124135905Y-82699556D01*
X124213926Y-82511198D01*
X124253700Y-82311239D01*
X124253700Y-82107361D01*
X124225754Y-81966861D01*
X140576600Y-81966861D01*
X140576600Y-82170739D01*
X140616374Y-82370698D01*
X140694395Y-82559056D01*
X140807663Y-82728574D01*
X140951826Y-82872737D01*
X141121344Y-82986005D01*
X141309702Y-83064026D01*
X141509661Y-83103800D01*
X141713539Y-83103800D01*
X141913498Y-83064026D01*
X142101856Y-82986005D01*
X142271374Y-82872737D01*
X142415537Y-82728574D01*
X142528805Y-82559056D01*
X142606826Y-82370698D01*
X142646600Y-82170739D01*
X142646600Y-81966861D01*
X142606826Y-81766902D01*
X142528805Y-81578544D01*
X142415537Y-81409026D01*
X142271374Y-81264863D01*
X142101856Y-81151595D01*
X141913498Y-81073574D01*
X141713539Y-81033800D01*
X141509661Y-81033800D01*
X141309702Y-81073574D01*
X141121344Y-81151595D01*
X140951826Y-81264863D01*
X140807663Y-81409026D01*
X140694395Y-81578544D01*
X140616374Y-81766902D01*
X140576600Y-81966861D01*
X124225754Y-81966861D01*
X124213926Y-81907402D01*
X124135905Y-81719044D01*
X124022637Y-81549526D01*
X123878474Y-81405363D01*
X123708956Y-81292095D01*
X123520598Y-81214074D01*
X123320639Y-81174300D01*
X123116761Y-81174300D01*
X122916802Y-81214074D01*
X122728444Y-81292095D01*
X122558926Y-81405363D01*
X122414763Y-81549526D01*
X122301495Y-81719044D01*
X122223474Y-81907402D01*
X122183700Y-82107361D01*
X103980000Y-82107361D01*
X103980000Y-66870729D01*
X103998386Y-66683215D01*
X104042757Y-66536252D01*
X104114829Y-66400703D01*
X104211852Y-66281742D01*
X104330144Y-66183882D01*
X104465181Y-66110868D01*
X104611833Y-66065471D01*
X104797092Y-66046000D01*
X105604877Y-66046000D01*
X105635576Y-66042976D01*
X105644820Y-66043041D01*
X105654686Y-66042074D01*
X105945831Y-66011474D01*
X106008868Y-65998534D01*
X106072080Y-65986476D01*
X106081570Y-65983611D01*
X106361226Y-65897043D01*
X106420521Y-65872117D01*
X106480215Y-65847999D01*
X106488967Y-65843345D01*
X106746483Y-65704106D01*
X106799825Y-65668127D01*
X106853678Y-65632886D01*
X106861360Y-65626621D01*
X107086927Y-65440016D01*
X107132246Y-65394379D01*
X107178248Y-65349331D01*
X107184566Y-65341692D01*
X107369592Y-65114828D01*
X107405177Y-65061268D01*
X107441560Y-65008132D01*
X107446275Y-64999412D01*
X107583712Y-64740931D01*
X107608225Y-64681456D01*
X107633584Y-64622289D01*
X107636516Y-64612819D01*
X107721130Y-64332565D01*
X107733622Y-64269475D01*
X107747009Y-64206494D01*
X107748045Y-64196635D01*
X107776612Y-63905283D01*
X107776612Y-63905277D01*
X107780000Y-63870877D01*
X107780000Y-56655406D01*
X107855101Y-56730507D01*
X107968678Y-56616930D01*
X108274859Y-57060503D01*
X108862306Y-57375954D01*
X109500008Y-57570740D01*
X110163457Y-57637372D01*
X110827158Y-57573292D01*
X111465605Y-57380962D01*
X112054262Y-57067772D01*
X112065141Y-57060503D01*
X112371323Y-56616928D01*
X110170000Y-54415605D01*
X110155858Y-54429748D01*
X109976253Y-54250143D01*
X109990395Y-54236000D01*
X109976253Y-54221858D01*
X110155858Y-54042253D01*
X110170000Y-54056395D01*
X110184143Y-54042253D01*
X110363748Y-54221858D01*
X110349605Y-54236000D01*
X112550928Y-56437323D01*
X112994503Y-56131141D01*
X113309954Y-55543694D01*
X113504740Y-54905992D01*
X113571372Y-54242543D01*
X113557000Y-54093680D01*
X113805000Y-54093680D01*
X113805000Y-54378320D01*
X113860530Y-54657491D01*
X113969457Y-54920464D01*
X114127595Y-55157134D01*
X114328866Y-55358405D01*
X114549757Y-55506000D01*
X114328866Y-55653595D01*
X114127595Y-55854866D01*
X113969457Y-56091536D01*
X113860530Y-56354509D01*
X113805000Y-56633680D01*
X113805000Y-56918320D01*
X113860530Y-57197491D01*
X113969457Y-57460464D01*
X114127595Y-57697134D01*
X114328866Y-57898405D01*
X114549757Y-58046000D01*
X114328866Y-58193595D01*
X114127595Y-58394866D01*
X113969457Y-58631536D01*
X113860530Y-58894509D01*
X113805000Y-59173680D01*
X113805000Y-59458320D01*
X113860530Y-59737491D01*
X113969457Y-60000464D01*
X114127595Y-60237134D01*
X114328866Y-60438405D01*
X114549757Y-60586000D01*
X114328866Y-60733595D01*
X114127595Y-60934866D01*
X113969457Y-61171536D01*
X113860530Y-61434509D01*
X113805000Y-61713680D01*
X113805000Y-61998320D01*
X113860530Y-62277491D01*
X113969457Y-62540464D01*
X114127595Y-62777134D01*
X114328866Y-62978405D01*
X114565536Y-63136543D01*
X114828509Y-63245470D01*
X115107680Y-63301000D01*
X115392320Y-63301000D01*
X115671491Y-63245470D01*
X115894601Y-63153055D01*
X115894601Y-70506168D01*
X115890924Y-70543500D01*
X115905598Y-70692485D01*
X115949054Y-70835746D01*
X116019626Y-70967776D01*
X116090801Y-71054502D01*
X116114600Y-71083501D01*
X116143598Y-71107299D01*
X119595600Y-74559302D01*
X119595600Y-74621439D01*
X119635374Y-74821398D01*
X119713395Y-75009756D01*
X119826663Y-75179274D01*
X119970826Y-75323437D01*
X120140344Y-75436705D01*
X120328702Y-75514726D01*
X120528661Y-75554500D01*
X120705400Y-75554500D01*
X120705400Y-75905700D01*
X120577161Y-75905700D01*
X120377202Y-75945474D01*
X120188844Y-76023495D01*
X120019326Y-76136763D01*
X119875163Y-76280926D01*
X119761895Y-76450444D01*
X119683874Y-76638802D01*
X119644100Y-76838761D01*
X119644100Y-77042639D01*
X119683874Y-77242598D01*
X119761895Y-77430956D01*
X119783414Y-77463162D01*
X119667126Y-77540863D01*
X119522963Y-77685026D01*
X119409695Y-77854544D01*
X119331674Y-78042902D01*
X119291900Y-78242861D01*
X119291900Y-78446739D01*
X119331674Y-78646698D01*
X119409695Y-78835056D01*
X119522963Y-79004574D01*
X119667126Y-79148737D01*
X119776487Y-79221810D01*
X119745795Y-79267744D01*
X119667774Y-79456102D01*
X119628000Y-79656061D01*
X119628000Y-79859939D01*
X119667774Y-80059898D01*
X119745795Y-80248256D01*
X119859063Y-80417774D01*
X120003226Y-80561937D01*
X120172744Y-80675205D01*
X120361102Y-80753226D01*
X120561061Y-80793000D01*
X120764939Y-80793000D01*
X120964898Y-80753226D01*
X121153256Y-80675205D01*
X121322774Y-80561937D01*
X121466937Y-80417774D01*
X121580205Y-80248256D01*
X121658226Y-80059898D01*
X121698000Y-79859939D01*
X121698000Y-79656061D01*
X121658226Y-79456102D01*
X121580205Y-79267744D01*
X121466937Y-79098226D01*
X121322774Y-78954063D01*
X121213413Y-78880990D01*
X121244105Y-78835056D01*
X121259467Y-78797968D01*
X122169600Y-79708102D01*
X122169600Y-79770239D01*
X122209374Y-79970198D01*
X122287395Y-80158556D01*
X122400663Y-80328074D01*
X122544826Y-80472237D01*
X122714344Y-80585505D01*
X122902702Y-80663526D01*
X123102661Y-80703300D01*
X123306539Y-80703300D01*
X123506498Y-80663526D01*
X123694856Y-80585505D01*
X123864374Y-80472237D01*
X124008537Y-80328074D01*
X124121805Y-80158556D01*
X124199826Y-79970198D01*
X124239600Y-79770239D01*
X124239600Y-79566361D01*
X124199826Y-79366402D01*
X124121805Y-79178044D01*
X124008537Y-79008526D01*
X123864374Y-78864363D01*
X123694856Y-78751095D01*
X123506498Y-78673074D01*
X123306539Y-78633300D01*
X123244402Y-78633300D01*
X122225400Y-77614299D01*
X122225400Y-76230561D01*
X138928900Y-76230561D01*
X138928900Y-76434439D01*
X138968674Y-76634398D01*
X139046695Y-76822756D01*
X139159963Y-76992274D01*
X139304126Y-77136437D01*
X139473644Y-77249705D01*
X139662002Y-77327726D01*
X139861961Y-77367500D01*
X139883796Y-77367500D01*
X139934395Y-77489656D01*
X140047663Y-77659174D01*
X140191826Y-77803337D01*
X140361344Y-77916605D01*
X140549702Y-77994626D01*
X140749661Y-78034400D01*
X140953539Y-78034400D01*
X141153498Y-77994626D01*
X141341856Y-77916605D01*
X141511374Y-77803337D01*
X141655537Y-77659174D01*
X141768805Y-77489656D01*
X141846826Y-77301298D01*
X141886600Y-77101339D01*
X141886600Y-76897461D01*
X141846826Y-76697502D01*
X141844407Y-76691661D01*
X151726900Y-76691661D01*
X151726900Y-76895539D01*
X151766674Y-77095498D01*
X151844695Y-77283856D01*
X151957963Y-77453374D01*
X152102126Y-77597537D01*
X152271644Y-77710805D01*
X152460002Y-77788826D01*
X152659961Y-77828600D01*
X152863839Y-77828600D01*
X153054804Y-77790615D01*
X153117126Y-77852937D01*
X153286644Y-77966205D01*
X153475002Y-78044226D01*
X153674961Y-78084000D01*
X153878839Y-78084000D01*
X154078798Y-78044226D01*
X154267156Y-77966205D01*
X154436674Y-77852937D01*
X154580837Y-77708774D01*
X154694105Y-77539256D01*
X154772126Y-77350898D01*
X154811900Y-77150939D01*
X154811900Y-76947061D01*
X154772126Y-76747102D01*
X154697203Y-76566223D01*
X154808798Y-76544026D01*
X154997156Y-76466005D01*
X155166674Y-76352737D01*
X155310837Y-76208574D01*
X155424105Y-76039056D01*
X155502126Y-75850698D01*
X155541900Y-75650739D01*
X155541900Y-75446861D01*
X155502126Y-75246902D01*
X155424105Y-75058544D01*
X155310837Y-74889026D01*
X155166674Y-74744863D01*
X154997156Y-74631595D01*
X154808798Y-74553574D01*
X154608839Y-74513800D01*
X154404961Y-74513800D01*
X154205002Y-74553574D01*
X154016644Y-74631595D01*
X153847126Y-74744863D01*
X153702963Y-74889026D01*
X153589695Y-75058544D01*
X153511674Y-75246902D01*
X153471900Y-75446861D01*
X153471900Y-75650739D01*
X153511674Y-75850698D01*
X153586597Y-76031577D01*
X153483996Y-76051985D01*
X153421674Y-75989663D01*
X153252156Y-75876395D01*
X153063798Y-75798374D01*
X152863839Y-75758600D01*
X152659961Y-75758600D01*
X152460002Y-75798374D01*
X152271644Y-75876395D01*
X152102126Y-75989663D01*
X151957963Y-76133826D01*
X151844695Y-76303344D01*
X151766674Y-76491702D01*
X151726900Y-76691661D01*
X141844407Y-76691661D01*
X141768805Y-76509144D01*
X141655537Y-76339626D01*
X141511374Y-76195463D01*
X141341856Y-76082195D01*
X141153498Y-76004174D01*
X140953539Y-75964400D01*
X140931704Y-75964400D01*
X140881105Y-75842244D01*
X140767837Y-75672726D01*
X140623674Y-75528563D01*
X140454156Y-75415295D01*
X140265798Y-75337274D01*
X140065839Y-75297500D01*
X139861961Y-75297500D01*
X139662002Y-75337274D01*
X139473644Y-75415295D01*
X139304126Y-75528563D01*
X139159963Y-75672726D01*
X139046695Y-75842244D01*
X138968674Y-76030602D01*
X138928900Y-76230561D01*
X122225400Y-76230561D01*
X122225400Y-73626861D01*
X137986400Y-73626861D01*
X137986400Y-73830739D01*
X138026174Y-74030698D01*
X138104195Y-74219056D01*
X138217463Y-74388574D01*
X138361626Y-74532737D01*
X138531144Y-74646005D01*
X138719502Y-74724026D01*
X138919461Y-74763800D01*
X139123339Y-74763800D01*
X139323298Y-74724026D01*
X139511656Y-74646005D01*
X139681174Y-74532737D01*
X139825337Y-74388574D01*
X139938605Y-74219056D01*
X140016626Y-74030698D01*
X140056400Y-73830739D01*
X140056400Y-73626861D01*
X140023083Y-73459361D01*
X141949000Y-73459361D01*
X141949000Y-73663239D01*
X141988774Y-73863198D01*
X142066795Y-74051556D01*
X142180063Y-74221074D01*
X142324226Y-74365237D01*
X142493744Y-74478505D01*
X142682102Y-74556526D01*
X142882061Y-74596300D01*
X143085939Y-74596300D01*
X143285898Y-74556526D01*
X143474256Y-74478505D01*
X143643774Y-74365237D01*
X143787937Y-74221074D01*
X143855151Y-74120481D01*
X143858261Y-74121100D01*
X144062139Y-74121100D01*
X144262098Y-74081326D01*
X144450456Y-74003305D01*
X144619974Y-73890037D01*
X144764137Y-73745874D01*
X144877405Y-73576356D01*
X144916090Y-73482961D01*
X149973000Y-73482961D01*
X149973000Y-73686839D01*
X150012774Y-73886798D01*
X150090795Y-74075156D01*
X150204063Y-74244674D01*
X150348226Y-74388837D01*
X150517744Y-74502105D01*
X150706102Y-74580126D01*
X150906061Y-74619900D01*
X151109939Y-74619900D01*
X151309898Y-74580126D01*
X151498256Y-74502105D01*
X151667774Y-74388837D01*
X151811937Y-74244674D01*
X151925205Y-74075156D01*
X152003226Y-73886798D01*
X152043000Y-73686839D01*
X152043000Y-73686015D01*
X152085756Y-73668305D01*
X152255274Y-73555037D01*
X152399437Y-73410874D01*
X152512705Y-73241356D01*
X152590726Y-73052998D01*
X152630500Y-72853039D01*
X152630500Y-72649161D01*
X152590726Y-72449202D01*
X152512705Y-72260844D01*
X152399437Y-72091326D01*
X152255274Y-71947163D01*
X152085756Y-71833895D01*
X151897398Y-71755874D01*
X151697439Y-71716100D01*
X151493561Y-71716100D01*
X151293602Y-71755874D01*
X151105244Y-71833895D01*
X150935726Y-71947163D01*
X150791563Y-72091326D01*
X150678295Y-72260844D01*
X150600274Y-72449202D01*
X150560500Y-72649161D01*
X150560500Y-72649985D01*
X150517744Y-72667695D01*
X150348226Y-72780963D01*
X150204063Y-72925126D01*
X150090795Y-73094644D01*
X150012774Y-73283002D01*
X149973000Y-73482961D01*
X144916090Y-73482961D01*
X144955426Y-73387998D01*
X144995200Y-73188039D01*
X144995200Y-72984161D01*
X144955426Y-72784202D01*
X144877405Y-72595844D01*
X144764137Y-72426326D01*
X144619974Y-72282163D01*
X144450456Y-72168895D01*
X144262098Y-72090874D01*
X144062139Y-72051100D01*
X143858261Y-72051100D01*
X143658302Y-72090874D01*
X143469944Y-72168895D01*
X143300426Y-72282163D01*
X143156263Y-72426326D01*
X143089049Y-72526919D01*
X143085939Y-72526300D01*
X142882061Y-72526300D01*
X142682102Y-72566074D01*
X142493744Y-72644095D01*
X142324226Y-72757363D01*
X142180063Y-72901526D01*
X142066795Y-73071044D01*
X141988774Y-73259402D01*
X141949000Y-73459361D01*
X140023083Y-73459361D01*
X140016626Y-73426902D01*
X139938605Y-73238544D01*
X139825337Y-73069026D01*
X139681174Y-72924863D01*
X139511656Y-72811595D01*
X139323298Y-72733574D01*
X139123339Y-72693800D01*
X138919461Y-72693800D01*
X138719502Y-72733574D01*
X138531144Y-72811595D01*
X138361626Y-72924863D01*
X138217463Y-73069026D01*
X138104195Y-73238544D01*
X138026174Y-73426902D01*
X137986400Y-73626861D01*
X122225400Y-73626861D01*
X122225400Y-70619461D01*
X141153600Y-70619461D01*
X141153600Y-70823339D01*
X141193374Y-71023298D01*
X141271395Y-71211656D01*
X141384663Y-71381174D01*
X141528826Y-71525337D01*
X141698344Y-71638605D01*
X141886702Y-71716626D01*
X142086661Y-71756400D01*
X142290539Y-71756400D01*
X142490498Y-71716626D01*
X142678856Y-71638605D01*
X142848374Y-71525337D01*
X142992537Y-71381174D01*
X143105805Y-71211656D01*
X143183826Y-71023298D01*
X143223600Y-70823339D01*
X143223600Y-70619461D01*
X143183826Y-70419502D01*
X143105805Y-70231144D01*
X142992537Y-70061626D01*
X142848374Y-69917463D01*
X142678856Y-69804195D01*
X142490498Y-69726174D01*
X142290539Y-69686400D01*
X142086661Y-69686400D01*
X141886702Y-69726174D01*
X141698344Y-69804195D01*
X141528826Y-69917463D01*
X141384663Y-70061626D01*
X141271395Y-70231144D01*
X141193374Y-70419502D01*
X141153600Y-70619461D01*
X122225400Y-70619461D01*
X122225400Y-69384700D01*
X122371439Y-69384700D01*
X122571398Y-69344926D01*
X122759756Y-69266905D01*
X122929274Y-69153637D01*
X123073437Y-69009474D01*
X123178271Y-68852578D01*
X123248261Y-68866500D01*
X123452139Y-68866500D01*
X123652098Y-68826726D01*
X123840456Y-68748705D01*
X124009974Y-68635437D01*
X124154137Y-68491274D01*
X124267405Y-68321756D01*
X124345426Y-68133398D01*
X124385200Y-67933439D01*
X124385200Y-67808861D01*
X141156000Y-67808861D01*
X141156000Y-68012739D01*
X141195774Y-68212698D01*
X141273795Y-68401056D01*
X141387063Y-68570574D01*
X141531226Y-68714737D01*
X141700744Y-68828005D01*
X141889102Y-68906026D01*
X142089061Y-68945800D01*
X142292939Y-68945800D01*
X142492898Y-68906026D01*
X142681256Y-68828005D01*
X142748519Y-68783061D01*
X143450100Y-68783061D01*
X143450100Y-68986939D01*
X143489874Y-69186898D01*
X143567895Y-69375256D01*
X143681163Y-69544774D01*
X143825326Y-69688937D01*
X143994844Y-69802205D01*
X144183202Y-69880226D01*
X144383161Y-69920000D01*
X144587039Y-69920000D01*
X144786998Y-69880226D01*
X144975356Y-69802205D01*
X145144874Y-69688937D01*
X145289037Y-69544774D01*
X145402305Y-69375256D01*
X145474542Y-69200861D01*
X151437300Y-69200861D01*
X151437300Y-69404739D01*
X151477074Y-69604698D01*
X151555095Y-69793056D01*
X151668363Y-69962574D01*
X151812526Y-70106737D01*
X151982044Y-70220005D01*
X152170402Y-70298026D01*
X152370361Y-70337800D01*
X152574239Y-70337800D01*
X152774198Y-70298026D01*
X152962556Y-70220005D01*
X153132074Y-70106737D01*
X153276237Y-69962574D01*
X153389505Y-69793056D01*
X153467526Y-69604698D01*
X153507300Y-69404739D01*
X153507300Y-69200861D01*
X153467526Y-69000902D01*
X153389505Y-68812544D01*
X153276237Y-68643026D01*
X153132074Y-68498863D01*
X152962556Y-68385595D01*
X152774198Y-68307574D01*
X152574239Y-68267800D01*
X152370361Y-68267800D01*
X152170402Y-68307574D01*
X151982044Y-68385595D01*
X151812526Y-68498863D01*
X151668363Y-68643026D01*
X151555095Y-68812544D01*
X151477074Y-69000902D01*
X151437300Y-69200861D01*
X145474542Y-69200861D01*
X145480326Y-69186898D01*
X145520100Y-68986939D01*
X145520100Y-68783061D01*
X145480326Y-68583102D01*
X145402305Y-68394744D01*
X145289037Y-68225226D01*
X145144874Y-68081063D01*
X144975356Y-67967795D01*
X144786998Y-67889774D01*
X144587039Y-67850000D01*
X144383161Y-67850000D01*
X144183202Y-67889774D01*
X143994844Y-67967795D01*
X143825326Y-68081063D01*
X143681163Y-68225226D01*
X143567895Y-68394744D01*
X143489874Y-68583102D01*
X143450100Y-68783061D01*
X142748519Y-68783061D01*
X142850774Y-68714737D01*
X142994937Y-68570574D01*
X143108205Y-68401056D01*
X143186226Y-68212698D01*
X143226000Y-68012739D01*
X143226000Y-67808861D01*
X143186226Y-67608902D01*
X143108205Y-67420544D01*
X142994937Y-67251026D01*
X142850774Y-67106863D01*
X142681256Y-66993595D01*
X142492898Y-66915574D01*
X142292939Y-66875800D01*
X142089061Y-66875800D01*
X141889102Y-66915574D01*
X141700744Y-66993595D01*
X141531226Y-67106863D01*
X141387063Y-67251026D01*
X141273795Y-67420544D01*
X141195774Y-67608902D01*
X141156000Y-67808861D01*
X124385200Y-67808861D01*
X124385200Y-67729561D01*
X124345426Y-67529602D01*
X124267405Y-67341244D01*
X124236187Y-67294524D01*
X124259237Y-67271474D01*
X124372505Y-67101956D01*
X124450526Y-66913598D01*
X124490300Y-66713639D01*
X124490300Y-66509761D01*
X124450526Y-66309802D01*
X124372505Y-66121444D01*
X124259237Y-65951926D01*
X124115074Y-65807763D01*
X123945556Y-65694495D01*
X123757198Y-65616474D01*
X123557239Y-65576700D01*
X123353361Y-65576700D01*
X123153402Y-65616474D01*
X122965044Y-65694495D01*
X122795526Y-65807763D01*
X122651363Y-65951926D01*
X122538095Y-66121444D01*
X122460074Y-66309802D01*
X122420300Y-66509761D01*
X122420300Y-66713639D01*
X122460074Y-66913598D01*
X122538095Y-67101956D01*
X122569313Y-67148676D01*
X122546263Y-67171726D01*
X122441429Y-67328622D01*
X122371439Y-67314700D01*
X122225400Y-67314700D01*
X122225400Y-63153055D01*
X122448509Y-63245470D01*
X122727680Y-63301000D01*
X123012320Y-63301000D01*
X123291491Y-63245470D01*
X123554464Y-63136543D01*
X123791134Y-62978405D01*
X123992405Y-62777134D01*
X124140000Y-62556243D01*
X124287595Y-62777134D01*
X124488866Y-62978405D01*
X124725536Y-63136543D01*
X124988509Y-63245470D01*
X125267680Y-63301000D01*
X125552320Y-63301000D01*
X125831491Y-63245470D01*
X126094464Y-63136543D01*
X126331134Y-62978405D01*
X126532405Y-62777134D01*
X126680000Y-62556243D01*
X126827595Y-62777134D01*
X127028866Y-62978405D01*
X127265536Y-63136543D01*
X127528509Y-63245470D01*
X127807680Y-63301000D01*
X128092320Y-63301000D01*
X128371491Y-63245470D01*
X128634464Y-63136543D01*
X128871134Y-62978405D01*
X129072405Y-62777134D01*
X129220000Y-62556243D01*
X129367595Y-62777134D01*
X129568866Y-62978405D01*
X129805536Y-63136543D01*
X130068509Y-63245470D01*
X130347680Y-63301000D01*
X130632320Y-63301000D01*
X130911491Y-63245470D01*
X131174464Y-63136543D01*
X131411134Y-62978405D01*
X131612405Y-62777134D01*
X131760000Y-62556243D01*
X131907595Y-62777134D01*
X132108866Y-62978405D01*
X132345536Y-63136543D01*
X132608509Y-63245470D01*
X132887680Y-63301000D01*
X133172320Y-63301000D01*
X133451491Y-63245470D01*
X133714464Y-63136543D01*
X133951134Y-62978405D01*
X134152405Y-62777134D01*
X134300000Y-62556243D01*
X134447595Y-62777134D01*
X134648866Y-62978405D01*
X134885536Y-63136543D01*
X135148509Y-63245470D01*
X135427680Y-63301000D01*
X135712320Y-63301000D01*
X135991491Y-63245470D01*
X136254464Y-63136543D01*
X136491134Y-62978405D01*
X136692405Y-62777134D01*
X136840000Y-62556243D01*
X136987595Y-62777134D01*
X137188866Y-62978405D01*
X137425536Y-63136543D01*
X137688509Y-63245470D01*
X137967680Y-63301000D01*
X138252320Y-63301000D01*
X138531491Y-63245470D01*
X138794464Y-63136543D01*
X139031134Y-62978405D01*
X139232405Y-62777134D01*
X139380000Y-62556243D01*
X139527595Y-62777134D01*
X139728866Y-62978405D01*
X139965536Y-63136543D01*
X140228509Y-63245470D01*
X140507680Y-63301000D01*
X140792320Y-63301000D01*
X141071491Y-63245470D01*
X141334464Y-63136543D01*
X141571134Y-62978405D01*
X141772405Y-62777134D01*
X141920000Y-62556243D01*
X142067595Y-62777134D01*
X142268866Y-62978405D01*
X142505536Y-63136543D01*
X142768509Y-63245470D01*
X143047680Y-63301000D01*
X143332320Y-63301000D01*
X143611491Y-63245470D01*
X143874464Y-63136543D01*
X144111134Y-62978405D01*
X144312405Y-62777134D01*
X144460000Y-62556243D01*
X144607595Y-62777134D01*
X144808866Y-62978405D01*
X144859171Y-63012018D01*
X144839663Y-63031526D01*
X144726395Y-63201044D01*
X144648374Y-63389402D01*
X144608600Y-63589361D01*
X144608600Y-63793239D01*
X144648374Y-63993198D01*
X144726395Y-64181556D01*
X144839663Y-64351074D01*
X144983826Y-64495237D01*
X145153344Y-64608505D01*
X145341702Y-64686526D01*
X145541661Y-64726300D01*
X145745539Y-64726300D01*
X145945498Y-64686526D01*
X146133856Y-64608505D01*
X146303374Y-64495237D01*
X146447537Y-64351074D01*
X146560805Y-64181556D01*
X146638826Y-63993198D01*
X146678600Y-63793239D01*
X146678600Y-63589361D01*
X146638826Y-63389402D01*
X146560805Y-63201044D01*
X146485840Y-63088851D01*
X146651134Y-62978405D01*
X146852405Y-62777134D01*
X147000000Y-62556243D01*
X147147595Y-62777134D01*
X147348866Y-62978405D01*
X147585536Y-63136543D01*
X147848509Y-63245470D01*
X148127680Y-63301000D01*
X148412320Y-63301000D01*
X148691491Y-63245470D01*
X148954464Y-63136543D01*
X149191134Y-62978405D01*
X149392405Y-62777134D01*
X149540000Y-62556243D01*
X149687595Y-62777134D01*
X149888866Y-62978405D01*
X150125536Y-63136543D01*
X150388509Y-63245470D01*
X150667680Y-63301000D01*
X150952320Y-63301000D01*
X151231491Y-63245470D01*
X151494464Y-63136543D01*
X151731134Y-62978405D01*
X151932405Y-62777134D01*
X152080000Y-62556243D01*
X152227595Y-62777134D01*
X152428866Y-62978405D01*
X152665536Y-63136543D01*
X152928509Y-63245470D01*
X153207680Y-63301000D01*
X153492320Y-63301000D01*
X153771491Y-63245470D01*
X154034464Y-63136543D01*
X154271134Y-62978405D01*
X154472405Y-62777134D01*
X154620000Y-62556243D01*
X154767595Y-62777134D01*
X154968866Y-62978405D01*
X155205536Y-63136543D01*
X155468509Y-63245470D01*
X155747680Y-63301000D01*
X156032320Y-63301000D01*
X156311491Y-63245470D01*
X156534600Y-63153055D01*
X156534600Y-65222077D01*
X156530924Y-65259400D01*
X156534600Y-65296722D01*
X156534600Y-65296732D01*
X156545597Y-65408385D01*
X156588413Y-65549534D01*
X156589054Y-65551646D01*
X156659626Y-65683676D01*
X156695072Y-65726867D01*
X156754599Y-65799401D01*
X156783603Y-65823204D01*
X157243461Y-66283062D01*
X157067144Y-66356095D01*
X156897626Y-66469363D01*
X156753463Y-66613526D01*
X156640195Y-66783044D01*
X156562174Y-66971402D01*
X156538124Y-67092309D01*
X156464902Y-67106874D01*
X156276544Y-67184895D01*
X156107026Y-67298163D01*
X155962863Y-67442326D01*
X155849595Y-67611844D01*
X155771574Y-67800202D01*
X155731800Y-68000161D01*
X155731800Y-68204039D01*
X155771574Y-68403998D01*
X155849595Y-68592356D01*
X155962863Y-68761874D01*
X156107026Y-68906037D01*
X156276544Y-69019305D01*
X156464902Y-69097326D01*
X156664861Y-69137100D01*
X156868739Y-69137100D01*
X157068698Y-69097326D01*
X157257056Y-69019305D01*
X157426574Y-68906037D01*
X157570737Y-68761874D01*
X157684005Y-68592356D01*
X157762026Y-68403998D01*
X157786076Y-68283091D01*
X157859298Y-68268526D01*
X158047656Y-68190505D01*
X158217174Y-68077237D01*
X158361337Y-67933074D01*
X158474605Y-67763556D01*
X158547638Y-67587240D01*
X158868201Y-67907803D01*
X158868200Y-79448489D01*
X158824263Y-79492426D01*
X158710995Y-79661944D01*
X158632974Y-79850302D01*
X158593200Y-80050261D01*
X158593200Y-80254139D01*
X158632974Y-80454098D01*
X158710995Y-80642456D01*
X158824263Y-80811974D01*
X158968426Y-80956137D01*
X159137944Y-81069405D01*
X159326302Y-81147426D01*
X159526261Y-81187200D01*
X159730139Y-81187200D01*
X159930098Y-81147426D01*
X160118456Y-81069405D01*
X160283597Y-80959061D01*
X182826500Y-80959061D01*
X182826500Y-81162939D01*
X182866274Y-81362898D01*
X182944295Y-81551256D01*
X183057563Y-81720774D01*
X183201726Y-81864937D01*
X183371244Y-81978205D01*
X183559602Y-82056226D01*
X183759561Y-82096000D01*
X183963439Y-82096000D01*
X184163398Y-82056226D01*
X184351756Y-81978205D01*
X184521274Y-81864937D01*
X184665437Y-81720774D01*
X184778705Y-81551256D01*
X184856726Y-81362898D01*
X184896500Y-81162939D01*
X184896500Y-80959061D01*
X184856726Y-80759102D01*
X184778705Y-80570744D01*
X184665437Y-80401226D01*
X184521274Y-80257063D01*
X184351756Y-80143795D01*
X184163398Y-80065774D01*
X183963439Y-80026000D01*
X183759561Y-80026000D01*
X183559602Y-80065774D01*
X183371244Y-80143795D01*
X183201726Y-80257063D01*
X183057563Y-80401226D01*
X182944295Y-80570744D01*
X182866274Y-80759102D01*
X182826500Y-80959061D01*
X160283597Y-80959061D01*
X160287974Y-80956137D01*
X160432137Y-80811974D01*
X160545405Y-80642456D01*
X160623426Y-80454098D01*
X160663200Y-80254139D01*
X160663200Y-80050261D01*
X160623426Y-79850302D01*
X160545405Y-79661944D01*
X160432137Y-79492426D01*
X160388200Y-79448489D01*
X160388200Y-67630325D01*
X160391876Y-67593000D01*
X160388200Y-67555675D01*
X160388200Y-67555667D01*
X160377203Y-67444014D01*
X160333746Y-67300753D01*
X160263174Y-67168724D01*
X160168201Y-67052999D01*
X160139203Y-67029201D01*
X158054600Y-64944599D01*
X158054600Y-64433204D01*
X158085895Y-64508756D01*
X158199163Y-64678274D01*
X158343326Y-64822437D01*
X158512844Y-64935705D01*
X158701202Y-65013726D01*
X158778294Y-65029060D01*
X158845395Y-65191056D01*
X158958663Y-65360574D01*
X159102826Y-65504737D01*
X159272344Y-65618005D01*
X159460702Y-65696026D01*
X159660661Y-65735800D01*
X159864539Y-65735800D01*
X160064498Y-65696026D01*
X160252856Y-65618005D01*
X160422374Y-65504737D01*
X160566537Y-65360574D01*
X160679805Y-65191056D01*
X160757826Y-65002698D01*
X160797600Y-64802739D01*
X160797600Y-64598861D01*
X160757826Y-64398902D01*
X160679805Y-64210544D01*
X160566537Y-64041026D01*
X160522600Y-63997089D01*
X160522600Y-63234738D01*
X160548509Y-63245470D01*
X160827680Y-63301000D01*
X161112320Y-63301000D01*
X161391491Y-63245470D01*
X161422701Y-63232543D01*
X161422701Y-65649366D01*
X161393502Y-65655174D01*
X161205144Y-65733195D01*
X161035626Y-65846463D01*
X160891463Y-65990626D01*
X160778195Y-66160144D01*
X160700174Y-66348502D01*
X160660400Y-66548461D01*
X160660400Y-66752339D01*
X160700174Y-66952298D01*
X160778195Y-67140656D01*
X160891463Y-67310174D01*
X161035626Y-67454337D01*
X161205144Y-67567605D01*
X161393502Y-67645626D01*
X161593461Y-67685400D01*
X161797339Y-67685400D01*
X161997298Y-67645626D01*
X162185656Y-67567605D01*
X162355174Y-67454337D01*
X162499337Y-67310174D01*
X162612605Y-67140656D01*
X162690626Y-66952298D01*
X162730400Y-66752339D01*
X162730400Y-66693720D01*
X162817674Y-66587376D01*
X162888246Y-66455347D01*
X162931703Y-66312086D01*
X162942700Y-66200433D01*
X162942700Y-66200424D01*
X162946376Y-66163101D01*
X162942700Y-66125778D01*
X162942700Y-65253161D01*
X168003800Y-65253161D01*
X168003800Y-65457039D01*
X168043574Y-65656998D01*
X168121595Y-65845356D01*
X168234863Y-66014874D01*
X168379026Y-66159037D01*
X168548544Y-66272305D01*
X168736902Y-66350326D01*
X168936861Y-66390100D01*
X169140739Y-66390100D01*
X169340698Y-66350326D01*
X169529056Y-66272305D01*
X169698574Y-66159037D01*
X169842737Y-66014874D01*
X169956005Y-65845356D01*
X170034026Y-65656998D01*
X170073800Y-65457039D01*
X170073800Y-65253161D01*
X170034026Y-65053202D01*
X169956005Y-64864844D01*
X169842737Y-64695326D01*
X169698574Y-64551163D01*
X169529056Y-64437895D01*
X169340698Y-64359874D01*
X169140739Y-64320100D01*
X168936861Y-64320100D01*
X168736902Y-64359874D01*
X168548544Y-64437895D01*
X168379026Y-64551163D01*
X168234863Y-64695326D01*
X168121595Y-64864844D01*
X168043574Y-65053202D01*
X168003800Y-65253161D01*
X162942700Y-65253161D01*
X162942700Y-63185074D01*
X163088509Y-63245470D01*
X163367680Y-63301000D01*
X163652320Y-63301000D01*
X163931491Y-63245470D01*
X164194464Y-63136543D01*
X164431134Y-62978405D01*
X164632405Y-62777134D01*
X164780000Y-62556243D01*
X164927595Y-62777134D01*
X165128866Y-62978405D01*
X165365536Y-63136543D01*
X165628509Y-63245470D01*
X165907680Y-63301000D01*
X166192320Y-63301000D01*
X166471491Y-63245470D01*
X166734464Y-63136543D01*
X166971134Y-62978405D01*
X167172405Y-62777134D01*
X167320000Y-62556243D01*
X167467595Y-62777134D01*
X167668866Y-62978405D01*
X167905536Y-63136543D01*
X168168509Y-63245470D01*
X168447680Y-63301000D01*
X168732320Y-63301000D01*
X169011491Y-63245470D01*
X169274464Y-63136543D01*
X169511134Y-62978405D01*
X169712405Y-62777134D01*
X169860000Y-62556243D01*
X170007595Y-62777134D01*
X170208866Y-62978405D01*
X170445536Y-63136543D01*
X170708509Y-63245470D01*
X170987680Y-63301000D01*
X171272320Y-63301000D01*
X171541101Y-63247537D01*
X171541100Y-70244200D01*
X171370761Y-70244200D01*
X171170802Y-70283974D01*
X170982444Y-70361995D01*
X170812926Y-70475263D01*
X170668763Y-70619426D01*
X170555495Y-70788944D01*
X170477474Y-70977302D01*
X170437700Y-71177261D01*
X170437700Y-71381139D01*
X170477474Y-71581098D01*
X170555495Y-71769456D01*
X170668763Y-71938974D01*
X170812926Y-72083137D01*
X170982444Y-72196405D01*
X171170802Y-72274426D01*
X171370761Y-72314200D01*
X171541100Y-72314200D01*
X171541100Y-77495198D01*
X170627499Y-78408800D01*
X170565361Y-78408800D01*
X170365402Y-78448574D01*
X170177044Y-78526595D01*
X170007526Y-78639863D01*
X169863363Y-78784026D01*
X169750095Y-78953544D01*
X169672074Y-79141902D01*
X169632300Y-79341861D01*
X169632300Y-79545739D01*
X169672074Y-79745698D01*
X169750095Y-79934056D01*
X169863363Y-80103574D01*
X170007526Y-80247737D01*
X170177044Y-80361005D01*
X170365402Y-80439026D01*
X170565361Y-80478800D01*
X170769239Y-80478800D01*
X170969198Y-80439026D01*
X171157556Y-80361005D01*
X171327074Y-80247737D01*
X171471237Y-80103574D01*
X171584505Y-79934056D01*
X171662526Y-79745698D01*
X171702300Y-79545739D01*
X171702300Y-79483601D01*
X172434528Y-78751374D01*
X172538363Y-78906774D01*
X172682526Y-79050937D01*
X172852044Y-79164205D01*
X173040402Y-79242226D01*
X173240361Y-79282000D01*
X173444239Y-79282000D01*
X173644198Y-79242226D01*
X173832556Y-79164205D01*
X174002074Y-79050937D01*
X174146237Y-78906774D01*
X174259505Y-78737256D01*
X174337526Y-78548898D01*
X174377300Y-78348939D01*
X174377300Y-78286801D01*
X175054203Y-77609899D01*
X175083201Y-77586101D01*
X175139292Y-77517754D01*
X175178174Y-77470377D01*
X175248746Y-77338347D01*
X175265275Y-77283856D01*
X175292203Y-77195086D01*
X175303200Y-77083433D01*
X175303200Y-77083424D01*
X175306876Y-77046101D01*
X175303200Y-77008778D01*
X175303200Y-75121590D01*
X175482998Y-75085826D01*
X175662324Y-75011546D01*
X175692644Y-75031805D01*
X175881002Y-75109826D01*
X176080961Y-75149600D01*
X176284839Y-75149600D01*
X176484798Y-75109826D01*
X176673156Y-75031805D01*
X176842674Y-74918537D01*
X176986837Y-74774374D01*
X177100105Y-74604856D01*
X177178126Y-74416498D01*
X177217900Y-74216539D01*
X177217900Y-74012661D01*
X177178126Y-73812702D01*
X177100105Y-73624344D01*
X176986837Y-73454826D01*
X176842674Y-73310663D01*
X176673156Y-73197395D01*
X176484798Y-73119374D01*
X176284839Y-73079600D01*
X176080961Y-73079600D01*
X175881002Y-73119374D01*
X175701676Y-73193654D01*
X175671356Y-73173395D01*
X175565400Y-73129506D01*
X175565400Y-63153055D01*
X175788509Y-63245470D01*
X176067680Y-63301000D01*
X176352320Y-63301000D01*
X176631491Y-63245470D01*
X176894464Y-63136543D01*
X177131134Y-62978405D01*
X177332405Y-62777134D01*
X177480000Y-62556243D01*
X177627595Y-62777134D01*
X177828866Y-62978405D01*
X178065536Y-63136543D01*
X178328509Y-63245470D01*
X178607680Y-63301000D01*
X178892320Y-63301000D01*
X179171491Y-63245470D01*
X179434464Y-63136543D01*
X179671134Y-62978405D01*
X179872405Y-62777134D01*
X180030543Y-62540464D01*
X180139470Y-62277491D01*
X180195000Y-61998320D01*
X180195000Y-61713680D01*
X180139470Y-61434509D01*
X180030543Y-61171536D01*
X179872405Y-60934866D01*
X179671134Y-60733595D01*
X179450243Y-60586000D01*
X179671134Y-60438405D01*
X179872405Y-60237134D01*
X180030543Y-60000464D01*
X180139470Y-59737491D01*
X180195000Y-59458320D01*
X180195000Y-59173680D01*
X180139470Y-58894509D01*
X180030543Y-58631536D01*
X179872405Y-58394866D01*
X179671134Y-58193595D01*
X179450243Y-58046000D01*
X179671134Y-57898405D01*
X179872405Y-57697134D01*
X180030543Y-57460464D01*
X180139470Y-57197491D01*
X180195000Y-56918320D01*
X180195000Y-56633680D01*
X180139470Y-56354509D01*
X180030543Y-56091536D01*
X179872405Y-55854866D01*
X179671134Y-55653595D01*
X179450243Y-55506000D01*
X179671134Y-55358405D01*
X179872405Y-55157134D01*
X180030543Y-54920464D01*
X180139470Y-54657491D01*
X180195000Y-54378320D01*
X180195000Y-54093680D01*
X180139470Y-53814509D01*
X180030543Y-53551536D01*
X179872405Y-53314866D01*
X179671134Y-53113595D01*
X179434464Y-52955457D01*
X179171491Y-52846530D01*
X178892320Y-52791000D01*
X178607680Y-52791000D01*
X178328509Y-52846530D01*
X178065536Y-52955457D01*
X177828866Y-53113595D01*
X177627595Y-53314866D01*
X177480000Y-53535757D01*
X177332405Y-53314866D01*
X177131134Y-53113595D01*
X176894464Y-52955457D01*
X176631491Y-52846530D01*
X176352320Y-52791000D01*
X176067680Y-52791000D01*
X175788509Y-52846530D01*
X175525536Y-52955457D01*
X175288866Y-53113595D01*
X175087595Y-53314866D01*
X174940000Y-53535757D01*
X174792405Y-53314866D01*
X174591134Y-53113595D01*
X174354464Y-52955457D01*
X174091491Y-52846530D01*
X173812320Y-52791000D01*
X173527680Y-52791000D01*
X173248509Y-52846530D01*
X172985536Y-52955457D01*
X172748866Y-53113595D01*
X172547595Y-53314866D01*
X172400000Y-53535757D01*
X172252405Y-53314866D01*
X172051134Y-53113595D01*
X171814464Y-52955457D01*
X171551491Y-52846530D01*
X171272320Y-52791000D01*
X170987680Y-52791000D01*
X170708509Y-52846530D01*
X170445536Y-52955457D01*
X170208866Y-53113595D01*
X170007595Y-53314866D01*
X169860000Y-53535757D01*
X169712405Y-53314866D01*
X169511134Y-53113595D01*
X169274464Y-52955457D01*
X169011491Y-52846530D01*
X168732320Y-52791000D01*
X168447680Y-52791000D01*
X168168509Y-52846530D01*
X167905536Y-52955457D01*
X167668866Y-53113595D01*
X167467595Y-53314866D01*
X167320000Y-53535757D01*
X167172405Y-53314866D01*
X166971134Y-53113595D01*
X166734464Y-52955457D01*
X166471491Y-52846530D01*
X166192320Y-52791000D01*
X165907680Y-52791000D01*
X165628509Y-52846530D01*
X165365536Y-52955457D01*
X165128866Y-53113595D01*
X164927595Y-53314866D01*
X164780000Y-53535757D01*
X164632405Y-53314866D01*
X164431134Y-53113595D01*
X164194464Y-52955457D01*
X163931491Y-52846530D01*
X163652320Y-52791000D01*
X163367680Y-52791000D01*
X163088509Y-52846530D01*
X162825536Y-52955457D01*
X162588866Y-53113595D01*
X162387595Y-53314866D01*
X162240000Y-53535757D01*
X162092405Y-53314866D01*
X161891134Y-53113595D01*
X161654464Y-52955457D01*
X161391491Y-52846530D01*
X161112320Y-52791000D01*
X160827680Y-52791000D01*
X160548509Y-52846530D01*
X160285536Y-52955457D01*
X160048866Y-53113595D01*
X159847595Y-53314866D01*
X159700000Y-53535757D01*
X159552405Y-53314866D01*
X159351134Y-53113595D01*
X159114464Y-52955457D01*
X158851491Y-52846530D01*
X158572320Y-52791000D01*
X158287680Y-52791000D01*
X158008509Y-52846530D01*
X157745536Y-52955457D01*
X157508866Y-53113595D01*
X157307595Y-53314866D01*
X157160000Y-53535757D01*
X157012405Y-53314866D01*
X156811134Y-53113595D01*
X156574464Y-52955457D01*
X156311491Y-52846530D01*
X156032320Y-52791000D01*
X155747680Y-52791000D01*
X155468509Y-52846530D01*
X155205536Y-52955457D01*
X154968866Y-53113595D01*
X154767595Y-53314866D01*
X154620000Y-53535757D01*
X154472405Y-53314866D01*
X154271134Y-53113595D01*
X154034464Y-52955457D01*
X153771491Y-52846530D01*
X153492320Y-52791000D01*
X153207680Y-52791000D01*
X152928509Y-52846530D01*
X152665536Y-52955457D01*
X152428866Y-53113595D01*
X152227595Y-53314866D01*
X152080000Y-53535757D01*
X151932405Y-53314866D01*
X151731134Y-53113595D01*
X151494464Y-52955457D01*
X151231491Y-52846530D01*
X150952320Y-52791000D01*
X150667680Y-52791000D01*
X150388509Y-52846530D01*
X150125536Y-52955457D01*
X149888866Y-53113595D01*
X149687595Y-53314866D01*
X149540000Y-53535757D01*
X149392405Y-53314866D01*
X149191134Y-53113595D01*
X148954464Y-52955457D01*
X148691491Y-52846530D01*
X148412320Y-52791000D01*
X148127680Y-52791000D01*
X147848509Y-52846530D01*
X147585536Y-52955457D01*
X147348866Y-53113595D01*
X147147595Y-53314866D01*
X147000000Y-53535757D01*
X146852405Y-53314866D01*
X146651134Y-53113595D01*
X146414464Y-52955457D01*
X146151491Y-52846530D01*
X145872320Y-52791000D01*
X145587680Y-52791000D01*
X145308509Y-52846530D01*
X145045536Y-52955457D01*
X144808866Y-53113595D01*
X144607595Y-53314866D01*
X144460000Y-53535757D01*
X144312405Y-53314866D01*
X144111134Y-53113595D01*
X143874464Y-52955457D01*
X143611491Y-52846530D01*
X143332320Y-52791000D01*
X143047680Y-52791000D01*
X142768509Y-52846530D01*
X142505536Y-52955457D01*
X142268866Y-53113595D01*
X142067595Y-53314866D01*
X141920000Y-53535757D01*
X141772405Y-53314866D01*
X141571134Y-53113595D01*
X141334464Y-52955457D01*
X141071491Y-52846530D01*
X140792320Y-52791000D01*
X140507680Y-52791000D01*
X140228509Y-52846530D01*
X139965536Y-52955457D01*
X139728866Y-53113595D01*
X139527595Y-53314866D01*
X139380000Y-53535757D01*
X139232405Y-53314866D01*
X139031134Y-53113595D01*
X138794464Y-52955457D01*
X138531491Y-52846530D01*
X138252320Y-52791000D01*
X137967680Y-52791000D01*
X137688509Y-52846530D01*
X137425536Y-52955457D01*
X137188866Y-53113595D01*
X136987595Y-53314866D01*
X136840000Y-53535757D01*
X136692405Y-53314866D01*
X136491134Y-53113595D01*
X136254464Y-52955457D01*
X135991491Y-52846530D01*
X135712320Y-52791000D01*
X135427680Y-52791000D01*
X135148509Y-52846530D01*
X134885536Y-52955457D01*
X134648866Y-53113595D01*
X134447595Y-53314866D01*
X134300000Y-53535757D01*
X134152405Y-53314866D01*
X133951134Y-53113595D01*
X133714464Y-52955457D01*
X133451491Y-52846530D01*
X133172320Y-52791000D01*
X132887680Y-52791000D01*
X132608509Y-52846530D01*
X132345536Y-52955457D01*
X132108866Y-53113595D01*
X131907595Y-53314866D01*
X131760000Y-53535757D01*
X131612405Y-53314866D01*
X131411134Y-53113595D01*
X131174464Y-52955457D01*
X130911491Y-52846530D01*
X130632320Y-52791000D01*
X130347680Y-52791000D01*
X130068509Y-52846530D01*
X129805536Y-52955457D01*
X129568866Y-53113595D01*
X129367595Y-53314866D01*
X129220000Y-53535757D01*
X129072405Y-53314866D01*
X128871134Y-53113595D01*
X128634464Y-52955457D01*
X128371491Y-52846530D01*
X128092320Y-52791000D01*
X127807680Y-52791000D01*
X127528509Y-52846530D01*
X127265536Y-52955457D01*
X127028866Y-53113595D01*
X126827595Y-53314866D01*
X126680000Y-53535757D01*
X126532405Y-53314866D01*
X126331134Y-53113595D01*
X126094464Y-52955457D01*
X125831491Y-52846530D01*
X125552320Y-52791000D01*
X125267680Y-52791000D01*
X124988509Y-52846530D01*
X124725536Y-52955457D01*
X124488866Y-53113595D01*
X124287595Y-53314866D01*
X124140000Y-53535757D01*
X123992405Y-53314866D01*
X123791134Y-53113595D01*
X123554464Y-52955457D01*
X123291491Y-52846530D01*
X123012320Y-52791000D01*
X122727680Y-52791000D01*
X122448509Y-52846530D01*
X122185536Y-52955457D01*
X121948866Y-53113595D01*
X121747595Y-53314866D01*
X121600000Y-53535757D01*
X121452405Y-53314866D01*
X121251134Y-53113595D01*
X121014464Y-52955457D01*
X120751491Y-52846530D01*
X120472320Y-52791000D01*
X120187680Y-52791000D01*
X119908509Y-52846530D01*
X119645536Y-52955457D01*
X119408866Y-53113595D01*
X119207595Y-53314866D01*
X119060000Y-53535757D01*
X118912405Y-53314866D01*
X118711134Y-53113595D01*
X118474464Y-52955457D01*
X118211491Y-52846530D01*
X117932320Y-52791000D01*
X117647680Y-52791000D01*
X117368509Y-52846530D01*
X117105536Y-52955457D01*
X116868866Y-53113595D01*
X116667595Y-53314866D01*
X116520000Y-53535757D01*
X116372405Y-53314866D01*
X116171134Y-53113595D01*
X115934464Y-52955457D01*
X115671491Y-52846530D01*
X115392320Y-52791000D01*
X115107680Y-52791000D01*
X114828509Y-52846530D01*
X114565536Y-52955457D01*
X114328866Y-53113595D01*
X114127595Y-53314866D01*
X113969457Y-53551536D01*
X113860530Y-53814509D01*
X113805000Y-54093680D01*
X113557000Y-54093680D01*
X113507292Y-53578842D01*
X113314962Y-52940395D01*
X113001772Y-52351738D01*
X112994503Y-52340859D01*
X112550930Y-52034678D01*
X112664507Y-51921101D01*
X112589406Y-51846000D01*
X181400594Y-51846000D01*
X181325493Y-51921101D01*
M02*
