G04 #@! TF.GenerationSoftware,KiCad,Pcbnew,7.0.9-1.fc38*
G04 #@! TF.CreationDate,2023-11-17T02:46:57-03:00*
G04 #@! TF.ProjectId,pc104-adapter-bottom,70633130-342d-4616-9461-707465722d62,v2.1*
G04 #@! TF.SameCoordinates,Original*
G04 #@! TF.FileFunction,Legend,Bot*
G04 #@! TF.FilePolarity,Positive*
%FSLAX46Y46*%
G04 Gerber Fmt 4.6, Leading zero omitted, Abs format (unit mm)*
G04 Created by KiCad (PCBNEW 7.0.9-1.fc38) date 2023-11-17 02:46:57*
%MOMM*%
%LPD*%
G01*
G04 APERTURE LIST*
%ADD10C,0.160000*%
%ADD11C,0.010000*%
G04 APERTURE END LIST*
D10*
X180470000Y-63576000D02*
X180470000Y-52516000D01*
X113530000Y-52516000D02*
X113530000Y-63576000D01*
X113530000Y-63576000D02*
X180470000Y-63576000D01*
X180470000Y-52516000D02*
X113530000Y-52516000D01*
X158642858Y-88554299D02*
X158642858Y-87554299D01*
X158642858Y-87554299D02*
X158261906Y-87554299D01*
X158261906Y-87554299D02*
X158166668Y-87601918D01*
X158166668Y-87601918D02*
X158119049Y-87649537D01*
X158119049Y-87649537D02*
X158071430Y-87744775D01*
X158071430Y-87744775D02*
X158071430Y-87887632D01*
X158071430Y-87887632D02*
X158119049Y-87982870D01*
X158119049Y-87982870D02*
X158166668Y-88030489D01*
X158166668Y-88030489D02*
X158261906Y-88078108D01*
X158261906Y-88078108D02*
X158642858Y-88078108D01*
X157071430Y-88459060D02*
X157119049Y-88506680D01*
X157119049Y-88506680D02*
X157261906Y-88554299D01*
X157261906Y-88554299D02*
X157357144Y-88554299D01*
X157357144Y-88554299D02*
X157500001Y-88506680D01*
X157500001Y-88506680D02*
X157595239Y-88411441D01*
X157595239Y-88411441D02*
X157642858Y-88316203D01*
X157642858Y-88316203D02*
X157690477Y-88125727D01*
X157690477Y-88125727D02*
X157690477Y-87982870D01*
X157690477Y-87982870D02*
X157642858Y-87792394D01*
X157642858Y-87792394D02*
X157595239Y-87697156D01*
X157595239Y-87697156D02*
X157500001Y-87601918D01*
X157500001Y-87601918D02*
X157357144Y-87554299D01*
X157357144Y-87554299D02*
X157261906Y-87554299D01*
X157261906Y-87554299D02*
X157119049Y-87601918D01*
X157119049Y-87601918D02*
X157071430Y-87649537D01*
X156642858Y-88173346D02*
X155880954Y-88173346D01*
X154880954Y-88554299D02*
X155452382Y-88554299D01*
X155166668Y-88554299D02*
X155166668Y-87554299D01*
X155166668Y-87554299D02*
X155261906Y-87697156D01*
X155261906Y-87697156D02*
X155357144Y-87792394D01*
X155357144Y-87792394D02*
X155452382Y-87840013D01*
X154261906Y-87554299D02*
X154166668Y-87554299D01*
X154166668Y-87554299D02*
X154071430Y-87601918D01*
X154071430Y-87601918D02*
X154023811Y-87649537D01*
X154023811Y-87649537D02*
X153976192Y-87744775D01*
X153976192Y-87744775D02*
X153928573Y-87935251D01*
X153928573Y-87935251D02*
X153928573Y-88173346D01*
X153928573Y-88173346D02*
X153976192Y-88363822D01*
X153976192Y-88363822D02*
X154023811Y-88459060D01*
X154023811Y-88459060D02*
X154071430Y-88506680D01*
X154071430Y-88506680D02*
X154166668Y-88554299D01*
X154166668Y-88554299D02*
X154261906Y-88554299D01*
X154261906Y-88554299D02*
X154357144Y-88506680D01*
X154357144Y-88506680D02*
X154404763Y-88459060D01*
X154404763Y-88459060D02*
X154452382Y-88363822D01*
X154452382Y-88363822D02*
X154500001Y-88173346D01*
X154500001Y-88173346D02*
X154500001Y-87935251D01*
X154500001Y-87935251D02*
X154452382Y-87744775D01*
X154452382Y-87744775D02*
X154404763Y-87649537D01*
X154404763Y-87649537D02*
X154357144Y-87601918D01*
X154357144Y-87601918D02*
X154261906Y-87554299D01*
X153071430Y-87887632D02*
X153071430Y-88554299D01*
X153309525Y-87506680D02*
X153547620Y-88220965D01*
X153547620Y-88220965D02*
X152928573Y-88220965D01*
X151833334Y-88268584D02*
X151357144Y-88268584D01*
X151928572Y-88554299D02*
X151595239Y-87554299D01*
X151595239Y-87554299D02*
X151261906Y-88554299D01*
X150500001Y-88554299D02*
X150500001Y-87554299D01*
X150500001Y-88506680D02*
X150595239Y-88554299D01*
X150595239Y-88554299D02*
X150785715Y-88554299D01*
X150785715Y-88554299D02*
X150880953Y-88506680D01*
X150880953Y-88506680D02*
X150928572Y-88459060D01*
X150928572Y-88459060D02*
X150976191Y-88363822D01*
X150976191Y-88363822D02*
X150976191Y-88078108D01*
X150976191Y-88078108D02*
X150928572Y-87982870D01*
X150928572Y-87982870D02*
X150880953Y-87935251D01*
X150880953Y-87935251D02*
X150785715Y-87887632D01*
X150785715Y-87887632D02*
X150595239Y-87887632D01*
X150595239Y-87887632D02*
X150500001Y-87935251D01*
X149595239Y-88554299D02*
X149595239Y-88030489D01*
X149595239Y-88030489D02*
X149642858Y-87935251D01*
X149642858Y-87935251D02*
X149738096Y-87887632D01*
X149738096Y-87887632D02*
X149928572Y-87887632D01*
X149928572Y-87887632D02*
X150023810Y-87935251D01*
X149595239Y-88506680D02*
X149690477Y-88554299D01*
X149690477Y-88554299D02*
X149928572Y-88554299D01*
X149928572Y-88554299D02*
X150023810Y-88506680D01*
X150023810Y-88506680D02*
X150071429Y-88411441D01*
X150071429Y-88411441D02*
X150071429Y-88316203D01*
X150071429Y-88316203D02*
X150023810Y-88220965D01*
X150023810Y-88220965D02*
X149928572Y-88173346D01*
X149928572Y-88173346D02*
X149690477Y-88173346D01*
X149690477Y-88173346D02*
X149595239Y-88125727D01*
X149119048Y-87887632D02*
X149119048Y-88887632D01*
X149119048Y-87935251D02*
X149023810Y-87887632D01*
X149023810Y-87887632D02*
X148833334Y-87887632D01*
X148833334Y-87887632D02*
X148738096Y-87935251D01*
X148738096Y-87935251D02*
X148690477Y-87982870D01*
X148690477Y-87982870D02*
X148642858Y-88078108D01*
X148642858Y-88078108D02*
X148642858Y-88363822D01*
X148642858Y-88363822D02*
X148690477Y-88459060D01*
X148690477Y-88459060D02*
X148738096Y-88506680D01*
X148738096Y-88506680D02*
X148833334Y-88554299D01*
X148833334Y-88554299D02*
X149023810Y-88554299D01*
X149023810Y-88554299D02*
X149119048Y-88506680D01*
X148357143Y-87887632D02*
X147976191Y-87887632D01*
X148214286Y-87554299D02*
X148214286Y-88411441D01*
X148214286Y-88411441D02*
X148166667Y-88506680D01*
X148166667Y-88506680D02*
X148071429Y-88554299D01*
X148071429Y-88554299D02*
X147976191Y-88554299D01*
X147261905Y-88506680D02*
X147357143Y-88554299D01*
X147357143Y-88554299D02*
X147547619Y-88554299D01*
X147547619Y-88554299D02*
X147642857Y-88506680D01*
X147642857Y-88506680D02*
X147690476Y-88411441D01*
X147690476Y-88411441D02*
X147690476Y-88030489D01*
X147690476Y-88030489D02*
X147642857Y-87935251D01*
X147642857Y-87935251D02*
X147547619Y-87887632D01*
X147547619Y-87887632D02*
X147357143Y-87887632D01*
X147357143Y-87887632D02*
X147261905Y-87935251D01*
X147261905Y-87935251D02*
X147214286Y-88030489D01*
X147214286Y-88030489D02*
X147214286Y-88125727D01*
X147214286Y-88125727D02*
X147690476Y-88220965D01*
X146785714Y-88554299D02*
X146785714Y-87887632D01*
X146785714Y-88078108D02*
X146738095Y-87982870D01*
X146738095Y-87982870D02*
X146690476Y-87935251D01*
X146690476Y-87935251D02*
X146595238Y-87887632D01*
X146595238Y-87887632D02*
X146500000Y-87887632D01*
X145119047Y-88935251D02*
X145166666Y-88887632D01*
X145166666Y-88887632D02*
X145261904Y-88744775D01*
X145261904Y-88744775D02*
X145309523Y-88649537D01*
X145309523Y-88649537D02*
X145357142Y-88506680D01*
X145357142Y-88506680D02*
X145404761Y-88268584D01*
X145404761Y-88268584D02*
X145404761Y-88078108D01*
X145404761Y-88078108D02*
X145357142Y-87840013D01*
X145357142Y-87840013D02*
X145309523Y-87697156D01*
X145309523Y-87697156D02*
X145261904Y-87601918D01*
X145261904Y-87601918D02*
X145166666Y-87459060D01*
X145166666Y-87459060D02*
X145119047Y-87411441D01*
X144404761Y-88030489D02*
X144261904Y-88078108D01*
X144261904Y-88078108D02*
X144214285Y-88125727D01*
X144214285Y-88125727D02*
X144166666Y-88220965D01*
X144166666Y-88220965D02*
X144166666Y-88363822D01*
X144166666Y-88363822D02*
X144214285Y-88459060D01*
X144214285Y-88459060D02*
X144261904Y-88506680D01*
X144261904Y-88506680D02*
X144357142Y-88554299D01*
X144357142Y-88554299D02*
X144738094Y-88554299D01*
X144738094Y-88554299D02*
X144738094Y-87554299D01*
X144738094Y-87554299D02*
X144404761Y-87554299D01*
X144404761Y-87554299D02*
X144309523Y-87601918D01*
X144309523Y-87601918D02*
X144261904Y-87649537D01*
X144261904Y-87649537D02*
X144214285Y-87744775D01*
X144214285Y-87744775D02*
X144214285Y-87840013D01*
X144214285Y-87840013D02*
X144261904Y-87935251D01*
X144261904Y-87935251D02*
X144309523Y-87982870D01*
X144309523Y-87982870D02*
X144404761Y-88030489D01*
X144404761Y-88030489D02*
X144738094Y-88030489D01*
X143595237Y-88554299D02*
X143690475Y-88506680D01*
X143690475Y-88506680D02*
X143738094Y-88459060D01*
X143738094Y-88459060D02*
X143785713Y-88363822D01*
X143785713Y-88363822D02*
X143785713Y-88078108D01*
X143785713Y-88078108D02*
X143738094Y-87982870D01*
X143738094Y-87982870D02*
X143690475Y-87935251D01*
X143690475Y-87935251D02*
X143595237Y-87887632D01*
X143595237Y-87887632D02*
X143452380Y-87887632D01*
X143452380Y-87887632D02*
X143357142Y-87935251D01*
X143357142Y-87935251D02*
X143309523Y-87982870D01*
X143309523Y-87982870D02*
X143261904Y-88078108D01*
X143261904Y-88078108D02*
X143261904Y-88363822D01*
X143261904Y-88363822D02*
X143309523Y-88459060D01*
X143309523Y-88459060D02*
X143357142Y-88506680D01*
X143357142Y-88506680D02*
X143452380Y-88554299D01*
X143452380Y-88554299D02*
X143595237Y-88554299D01*
X142976189Y-87887632D02*
X142595237Y-87887632D01*
X142833332Y-87554299D02*
X142833332Y-88411441D01*
X142833332Y-88411441D02*
X142785713Y-88506680D01*
X142785713Y-88506680D02*
X142690475Y-88554299D01*
X142690475Y-88554299D02*
X142595237Y-88554299D01*
X142404760Y-87887632D02*
X142023808Y-87887632D01*
X142261903Y-87554299D02*
X142261903Y-88411441D01*
X142261903Y-88411441D02*
X142214284Y-88506680D01*
X142214284Y-88506680D02*
X142119046Y-88554299D01*
X142119046Y-88554299D02*
X142023808Y-88554299D01*
X141547617Y-88554299D02*
X141642855Y-88506680D01*
X141642855Y-88506680D02*
X141690474Y-88459060D01*
X141690474Y-88459060D02*
X141738093Y-88363822D01*
X141738093Y-88363822D02*
X141738093Y-88078108D01*
X141738093Y-88078108D02*
X141690474Y-87982870D01*
X141690474Y-87982870D02*
X141642855Y-87935251D01*
X141642855Y-87935251D02*
X141547617Y-87887632D01*
X141547617Y-87887632D02*
X141404760Y-87887632D01*
X141404760Y-87887632D02*
X141309522Y-87935251D01*
X141309522Y-87935251D02*
X141261903Y-87982870D01*
X141261903Y-87982870D02*
X141214284Y-88078108D01*
X141214284Y-88078108D02*
X141214284Y-88363822D01*
X141214284Y-88363822D02*
X141261903Y-88459060D01*
X141261903Y-88459060D02*
X141309522Y-88506680D01*
X141309522Y-88506680D02*
X141404760Y-88554299D01*
X141404760Y-88554299D02*
X141547617Y-88554299D01*
X140785712Y-88554299D02*
X140785712Y-87887632D01*
X140785712Y-87982870D02*
X140738093Y-87935251D01*
X140738093Y-87935251D02*
X140642855Y-87887632D01*
X140642855Y-87887632D02*
X140499998Y-87887632D01*
X140499998Y-87887632D02*
X140404760Y-87935251D01*
X140404760Y-87935251D02*
X140357141Y-88030489D01*
X140357141Y-88030489D02*
X140357141Y-88554299D01*
X140357141Y-88030489D02*
X140309522Y-87935251D01*
X140309522Y-87935251D02*
X140214284Y-87887632D01*
X140214284Y-87887632D02*
X140071427Y-87887632D01*
X140071427Y-87887632D02*
X139976188Y-87935251D01*
X139976188Y-87935251D02*
X139928569Y-88030489D01*
X139928569Y-88030489D02*
X139928569Y-88554299D01*
X139547617Y-88935251D02*
X139499998Y-88887632D01*
X139499998Y-88887632D02*
X139404760Y-88744775D01*
X139404760Y-88744775D02*
X139357141Y-88649537D01*
X139357141Y-88649537D02*
X139309522Y-88506680D01*
X139309522Y-88506680D02*
X139261903Y-88268584D01*
X139261903Y-88268584D02*
X139261903Y-88078108D01*
X139261903Y-88078108D02*
X139309522Y-87840013D01*
X139309522Y-87840013D02*
X139357141Y-87697156D01*
X139357141Y-87697156D02*
X139404760Y-87601918D01*
X139404760Y-87601918D02*
X139499998Y-87459060D01*
X139499998Y-87459060D02*
X139547617Y-87411441D01*
X138119045Y-87887632D02*
X137880950Y-88554299D01*
X137880950Y-88554299D02*
X137642855Y-87887632D01*
X137309521Y-87649537D02*
X137261902Y-87601918D01*
X137261902Y-87601918D02*
X137166664Y-87554299D01*
X137166664Y-87554299D02*
X136928569Y-87554299D01*
X136928569Y-87554299D02*
X136833331Y-87601918D01*
X136833331Y-87601918D02*
X136785712Y-87649537D01*
X136785712Y-87649537D02*
X136738093Y-87744775D01*
X136738093Y-87744775D02*
X136738093Y-87840013D01*
X136738093Y-87840013D02*
X136785712Y-87982870D01*
X136785712Y-87982870D02*
X137357140Y-88554299D01*
X137357140Y-88554299D02*
X136738093Y-88554299D01*
X136309521Y-88459060D02*
X136261902Y-88506680D01*
X136261902Y-88506680D02*
X136309521Y-88554299D01*
X136309521Y-88554299D02*
X136357140Y-88506680D01*
X136357140Y-88506680D02*
X136309521Y-88459060D01*
X136309521Y-88459060D02*
X136309521Y-88554299D01*
X135309522Y-88554299D02*
X135880950Y-88554299D01*
X135595236Y-88554299D02*
X135595236Y-87554299D01*
X135595236Y-87554299D02*
X135690474Y-87697156D01*
X135690474Y-87697156D02*
X135785712Y-87792394D01*
X135785712Y-87792394D02*
X135880950Y-87840013D01*
X147333333Y-51454299D02*
X147333333Y-52168584D01*
X147333333Y-52168584D02*
X147380952Y-52311441D01*
X147380952Y-52311441D02*
X147476190Y-52406680D01*
X147476190Y-52406680D02*
X147619047Y-52454299D01*
X147619047Y-52454299D02*
X147714285Y-52454299D01*
X146809523Y-52454299D02*
X146619047Y-52454299D01*
X146619047Y-52454299D02*
X146523809Y-52406680D01*
X146523809Y-52406680D02*
X146476190Y-52359060D01*
X146476190Y-52359060D02*
X146380952Y-52216203D01*
X146380952Y-52216203D02*
X146333333Y-52025727D01*
X146333333Y-52025727D02*
X146333333Y-51644775D01*
X146333333Y-51644775D02*
X146380952Y-51549537D01*
X146380952Y-51549537D02*
X146428571Y-51501918D01*
X146428571Y-51501918D02*
X146523809Y-51454299D01*
X146523809Y-51454299D02*
X146714285Y-51454299D01*
X146714285Y-51454299D02*
X146809523Y-51501918D01*
X146809523Y-51501918D02*
X146857142Y-51549537D01*
X146857142Y-51549537D02*
X146904761Y-51644775D01*
X146904761Y-51644775D02*
X146904761Y-51882870D01*
X146904761Y-51882870D02*
X146857142Y-51978108D01*
X146857142Y-51978108D02*
X146809523Y-52025727D01*
X146809523Y-52025727D02*
X146714285Y-52073346D01*
X146714285Y-52073346D02*
X146523809Y-52073346D01*
X146523809Y-52073346D02*
X146428571Y-52025727D01*
X146428571Y-52025727D02*
X146380952Y-51978108D01*
X146380952Y-51978108D02*
X146333333Y-51882870D01*
X147809523Y-64054299D02*
X147809523Y-64768584D01*
X147809523Y-64768584D02*
X147857142Y-64911441D01*
X147857142Y-64911441D02*
X147952380Y-65006680D01*
X147952380Y-65006680D02*
X148095237Y-65054299D01*
X148095237Y-65054299D02*
X148190475Y-65054299D01*
X146809523Y-65054299D02*
X147380951Y-65054299D01*
X147095237Y-65054299D02*
X147095237Y-64054299D01*
X147095237Y-64054299D02*
X147190475Y-64197156D01*
X147190475Y-64197156D02*
X147285713Y-64292394D01*
X147285713Y-64292394D02*
X147380951Y-64340013D01*
X146190475Y-64054299D02*
X146095237Y-64054299D01*
X146095237Y-64054299D02*
X145999999Y-64101918D01*
X145999999Y-64101918D02*
X145952380Y-64149537D01*
X145952380Y-64149537D02*
X145904761Y-64244775D01*
X145904761Y-64244775D02*
X145857142Y-64435251D01*
X145857142Y-64435251D02*
X145857142Y-64673346D01*
X145857142Y-64673346D02*
X145904761Y-64863822D01*
X145904761Y-64863822D02*
X145952380Y-64959060D01*
X145952380Y-64959060D02*
X145999999Y-65006680D01*
X145999999Y-65006680D02*
X146095237Y-65054299D01*
X146095237Y-65054299D02*
X146190475Y-65054299D01*
X146190475Y-65054299D02*
X146285713Y-65006680D01*
X146285713Y-65006680D02*
X146333332Y-64959060D01*
X146333332Y-64959060D02*
X146380951Y-64863822D01*
X146380951Y-64863822D02*
X146428570Y-64673346D01*
X146428570Y-64673346D02*
X146428570Y-64435251D01*
X146428570Y-64435251D02*
X146380951Y-64244775D01*
X146380951Y-64244775D02*
X146333332Y-64149537D01*
X146333332Y-64149537D02*
X146285713Y-64101918D01*
X146285713Y-64101918D02*
X146190475Y-64054299D01*
D11*
X144723684Y-97332216D02*
X144764650Y-97345005D01*
X144815099Y-97366261D01*
X144839526Y-97377684D01*
X144857155Y-97379749D01*
X144861053Y-97363916D01*
X144861057Y-97363468D01*
X144869312Y-97348351D01*
X144897781Y-97340603D01*
X144952961Y-97338421D01*
X145044869Y-97338421D01*
X145044869Y-98140526D01*
X144861053Y-98140526D01*
X144861053Y-97587483D01*
X144815358Y-97545134D01*
X144801082Y-97533098D01*
X144758558Y-97512534D01*
X144706192Y-97511710D01*
X144634889Y-97529856D01*
X144610852Y-97531005D01*
X144582656Y-97513402D01*
X144545126Y-97471562D01*
X144526921Y-97448419D01*
X144505391Y-97415742D01*
X144502073Y-97394942D01*
X144514128Y-97377395D01*
X144551135Y-97355206D01*
X144608612Y-97337645D01*
X144670972Y-97328938D01*
X144723684Y-97332216D01*
G36*
X144723684Y-97332216D02*
G01*
X144764650Y-97345005D01*
X144815099Y-97366261D01*
X144839526Y-97377684D01*
X144857155Y-97379749D01*
X144861053Y-97363916D01*
X144861057Y-97363468D01*
X144869312Y-97348351D01*
X144897781Y-97340603D01*
X144952961Y-97338421D01*
X145044869Y-97338421D01*
X145044869Y-98140526D01*
X144861053Y-98140526D01*
X144861053Y-97587483D01*
X144815358Y-97545134D01*
X144801082Y-97533098D01*
X144758558Y-97512534D01*
X144706192Y-97511710D01*
X144634889Y-97529856D01*
X144610852Y-97531005D01*
X144582656Y-97513402D01*
X144545126Y-97471562D01*
X144526921Y-97448419D01*
X144505391Y-97415742D01*
X144502073Y-97394942D01*
X144514128Y-97377395D01*
X144551135Y-97355206D01*
X144608612Y-97337645D01*
X144670972Y-97328938D01*
X144723684Y-97332216D01*
G37*
X144967063Y-98602716D02*
X145017550Y-98626344D01*
X145061579Y-98660978D01*
X145061579Y-98626344D01*
X145062676Y-98613194D01*
X145072885Y-98599252D01*
X145100493Y-98593094D01*
X145153487Y-98591710D01*
X145245395Y-98591710D01*
X145245395Y-99410526D01*
X145061579Y-99410526D01*
X145061579Y-99143944D01*
X145061557Y-99128640D01*
X145059989Y-99021060D01*
X145056141Y-98933427D01*
X145050287Y-98870224D01*
X145042701Y-98835929D01*
X145035736Y-98822982D01*
X144992860Y-98782378D01*
X144934458Y-98764404D01*
X144870686Y-98772789D01*
X144855044Y-98778472D01*
X144821721Y-98788517D01*
X144798947Y-98785398D01*
X144776031Y-98764979D01*
X144742283Y-98723127D01*
X144687547Y-98654017D01*
X144726020Y-98622864D01*
X144762592Y-98604112D01*
X144826833Y-98591447D01*
X144899240Y-98591033D01*
X144967063Y-98602716D01*
G36*
X144967063Y-98602716D02*
G01*
X145017550Y-98626344D01*
X145061579Y-98660978D01*
X145061579Y-98626344D01*
X145062676Y-98613194D01*
X145072885Y-98599252D01*
X145100493Y-98593094D01*
X145153487Y-98591710D01*
X145245395Y-98591710D01*
X145245395Y-99410526D01*
X145061579Y-99410526D01*
X145061579Y-99143944D01*
X145061557Y-99128640D01*
X145059989Y-99021060D01*
X145056141Y-98933427D01*
X145050287Y-98870224D01*
X145042701Y-98835929D01*
X145035736Y-98822982D01*
X144992860Y-98782378D01*
X144934458Y-98764404D01*
X144870686Y-98772789D01*
X144855044Y-98778472D01*
X144821721Y-98788517D01*
X144798947Y-98785398D01*
X144776031Y-98764979D01*
X144742283Y-98723127D01*
X144687547Y-98654017D01*
X144726020Y-98622864D01*
X144762592Y-98604112D01*
X144826833Y-98591447D01*
X144899240Y-98591033D01*
X144967063Y-98602716D01*
G37*
X148453816Y-99410526D02*
X148286711Y-99410526D01*
X148286711Y-99152601D01*
X148286526Y-99092605D01*
X148284626Y-98993237D01*
X148279816Y-98919673D01*
X148271052Y-98866827D01*
X148257290Y-98829614D01*
X148237487Y-98802949D01*
X148210600Y-98781746D01*
X148181248Y-98765947D01*
X148146491Y-98761467D01*
X148097058Y-98771429D01*
X148081173Y-98775576D01*
X148041520Y-98781818D01*
X148013167Y-98772875D01*
X147980306Y-98745195D01*
X147974070Y-98739175D01*
X147939594Y-98701937D01*
X147917361Y-98671660D01*
X147914311Y-98664366D01*
X147920354Y-98637432D01*
X147950998Y-98615898D01*
X147999363Y-98600786D01*
X148058566Y-98593114D01*
X148121728Y-98593904D01*
X148181967Y-98604175D01*
X148232402Y-98624948D01*
X148248388Y-98634648D01*
X148275302Y-98648845D01*
X148285264Y-98645594D01*
X148286711Y-98624886D01*
X148287050Y-98617451D01*
X148295112Y-98600982D01*
X148320119Y-98593486D01*
X148370264Y-98591710D01*
X148453816Y-98591710D01*
X148453816Y-99410526D01*
G36*
X148453816Y-99410526D02*
G01*
X148286711Y-99410526D01*
X148286711Y-99152601D01*
X148286526Y-99092605D01*
X148284626Y-98993237D01*
X148279816Y-98919673D01*
X148271052Y-98866827D01*
X148257290Y-98829614D01*
X148237487Y-98802949D01*
X148210600Y-98781746D01*
X148181248Y-98765947D01*
X148146491Y-98761467D01*
X148097058Y-98771429D01*
X148081173Y-98775576D01*
X148041520Y-98781818D01*
X148013167Y-98772875D01*
X147980306Y-98745195D01*
X147974070Y-98739175D01*
X147939594Y-98701937D01*
X147917361Y-98671660D01*
X147914311Y-98664366D01*
X147920354Y-98637432D01*
X147950998Y-98615898D01*
X147999363Y-98600786D01*
X148058566Y-98593114D01*
X148121728Y-98593904D01*
X148181967Y-98604175D01*
X148232402Y-98624948D01*
X148248388Y-98634648D01*
X148275302Y-98648845D01*
X148285264Y-98645594D01*
X148286711Y-98624886D01*
X148287050Y-98617451D01*
X148295112Y-98600982D01*
X148320119Y-98593486D01*
X148370264Y-98591710D01*
X148453816Y-98591710D01*
X148453816Y-99410526D01*
G37*
X145379079Y-97598533D02*
X145380489Y-97715550D01*
X145386007Y-97810058D01*
X145397185Y-97878751D01*
X145415572Y-97925478D01*
X145442717Y-97954089D01*
X145480168Y-97968432D01*
X145529474Y-97972358D01*
X145576552Y-97968854D01*
X145614574Y-97955139D01*
X145642210Y-97927355D01*
X145661009Y-97881651D01*
X145672519Y-97814179D01*
X145678290Y-97721089D01*
X145679869Y-97598533D01*
X145679869Y-97338421D01*
X145846974Y-97338421D01*
X145846974Y-97652004D01*
X145846688Y-97735705D01*
X145844459Y-97843943D01*
X145838869Y-97926489D01*
X145828561Y-97988068D01*
X145812183Y-98033405D01*
X145788379Y-98067226D01*
X145755796Y-98094257D01*
X145713079Y-98119221D01*
X145623377Y-98150825D01*
X145529761Y-98152887D01*
X145441496Y-98123783D01*
X145402986Y-98104917D01*
X145383880Y-98102097D01*
X145379079Y-98115428D01*
X145371109Y-98130396D01*
X145342578Y-98138281D01*
X145287172Y-98140526D01*
X145195264Y-98140526D01*
X145195264Y-97338421D01*
X145379079Y-97338421D01*
X145379079Y-97598533D01*
G36*
X145379079Y-97598533D02*
G01*
X145380489Y-97715550D01*
X145386007Y-97810058D01*
X145397185Y-97878751D01*
X145415572Y-97925478D01*
X145442717Y-97954089D01*
X145480168Y-97968432D01*
X145529474Y-97972358D01*
X145576552Y-97968854D01*
X145614574Y-97955139D01*
X145642210Y-97927355D01*
X145661009Y-97881651D01*
X145672519Y-97814179D01*
X145678290Y-97721089D01*
X145679869Y-97598533D01*
X145679869Y-97338421D01*
X145846974Y-97338421D01*
X145846974Y-97652004D01*
X145846688Y-97735705D01*
X145844459Y-97843943D01*
X145838869Y-97926489D01*
X145828561Y-97988068D01*
X145812183Y-98033405D01*
X145788379Y-98067226D01*
X145755796Y-98094257D01*
X145713079Y-98119221D01*
X145623377Y-98150825D01*
X145529761Y-98152887D01*
X145441496Y-98123783D01*
X145402986Y-98104917D01*
X145383880Y-98102097D01*
X145379079Y-98115428D01*
X145371109Y-98130396D01*
X145342578Y-98138281D01*
X145287172Y-98140526D01*
X145195264Y-98140526D01*
X145195264Y-97338421D01*
X145379079Y-97338421D01*
X145379079Y-97598533D01*
G37*
X148172937Y-97336840D02*
X148249112Y-97360773D01*
X148282699Y-97377040D01*
X148299592Y-97378720D01*
X148303422Y-97363916D01*
X148303425Y-97363468D01*
X148311680Y-97348351D01*
X148340149Y-97340603D01*
X148395329Y-97338421D01*
X148487237Y-97338421D01*
X148487237Y-98140526D01*
X148303422Y-98140526D01*
X148303422Y-97864043D01*
X148303296Y-97770680D01*
X148302436Y-97693988D01*
X148300137Y-97640322D01*
X148295690Y-97604212D01*
X148288390Y-97580191D01*
X148277530Y-97562791D01*
X148262405Y-97546543D01*
X148241801Y-97529261D01*
X148182555Y-97506042D01*
X148120366Y-97512857D01*
X148063398Y-97549581D01*
X148047115Y-97566673D01*
X148035426Y-97583971D01*
X148027586Y-97606990D01*
X148022827Y-97641271D01*
X148020379Y-97692353D01*
X148019473Y-97765777D01*
X148019343Y-97867081D01*
X148019343Y-98140526D01*
X147835527Y-98140526D01*
X147835894Y-97843914D01*
X147835919Y-97830702D01*
X147837513Y-97704535D01*
X147842408Y-97606528D01*
X147851864Y-97531915D01*
X147867139Y-97475931D01*
X147889490Y-97433809D01*
X147920175Y-97400784D01*
X147960454Y-97372090D01*
X148002043Y-97352226D01*
X148085800Y-97334178D01*
X148172937Y-97336840D01*
G36*
X148172937Y-97336840D02*
G01*
X148249112Y-97360773D01*
X148282699Y-97377040D01*
X148299592Y-97378720D01*
X148303422Y-97363916D01*
X148303425Y-97363468D01*
X148311680Y-97348351D01*
X148340149Y-97340603D01*
X148395329Y-97338421D01*
X148487237Y-97338421D01*
X148487237Y-98140526D01*
X148303422Y-98140526D01*
X148303422Y-97864043D01*
X148303296Y-97770680D01*
X148302436Y-97693988D01*
X148300137Y-97640322D01*
X148295690Y-97604212D01*
X148288390Y-97580191D01*
X148277530Y-97562791D01*
X148262405Y-97546543D01*
X148241801Y-97529261D01*
X148182555Y-97506042D01*
X148120366Y-97512857D01*
X148063398Y-97549581D01*
X148047115Y-97566673D01*
X148035426Y-97583971D01*
X148027586Y-97606990D01*
X148022827Y-97641271D01*
X148020379Y-97692353D01*
X148019473Y-97765777D01*
X148019343Y-97867081D01*
X148019343Y-98140526D01*
X147835527Y-98140526D01*
X147835894Y-97843914D01*
X147835919Y-97830702D01*
X147837513Y-97704535D01*
X147842408Y-97606528D01*
X147851864Y-97531915D01*
X147867139Y-97475931D01*
X147889490Y-97433809D01*
X147920175Y-97400784D01*
X147960454Y-97372090D01*
X148002043Y-97352226D01*
X148085800Y-97334178D01*
X148172937Y-97336840D01*
G37*
X144253610Y-97342247D02*
X144344791Y-97377771D01*
X144421907Y-97436413D01*
X144478864Y-97516956D01*
X144482710Y-97525169D01*
X144507130Y-97605267D01*
X144519330Y-97700948D01*
X144519234Y-97800569D01*
X144506764Y-97892488D01*
X144481843Y-97965066D01*
X144451073Y-98015650D01*
X144383344Y-98087310D01*
X144298657Y-98132862D01*
X144226202Y-98151282D01*
X144115875Y-98153293D01*
X144010302Y-98125513D01*
X143916682Y-98069142D01*
X143856088Y-98019196D01*
X143910664Y-97962887D01*
X143945144Y-97929530D01*
X143976332Y-97910958D01*
X144005250Y-97915047D01*
X144042237Y-97940000D01*
X144056985Y-97949768D01*
X144119291Y-97969762D01*
X144190903Y-97969749D01*
X144257950Y-97949143D01*
X144283196Y-97932595D01*
X144320228Y-97883730D01*
X144338792Y-97811958D01*
X144339987Y-97714136D01*
X144339983Y-97714081D01*
X144326171Y-97626562D01*
X144295744Y-97565881D01*
X144245676Y-97528345D01*
X144172941Y-97510261D01*
X144127137Y-97507829D01*
X144087116Y-97517789D01*
X144046070Y-97546642D01*
X143992954Y-97591336D01*
X143925688Y-97537279D01*
X143901113Y-97516570D01*
X143870416Y-97486899D01*
X143858422Y-97469413D01*
X143862669Y-97461533D01*
X143887135Y-97437340D01*
X143926110Y-97406571D01*
X143956605Y-97386549D01*
X144053424Y-97345419D01*
X144154457Y-97331057D01*
X144253610Y-97342247D01*
G36*
X144253610Y-97342247D02*
G01*
X144344791Y-97377771D01*
X144421907Y-97436413D01*
X144478864Y-97516956D01*
X144482710Y-97525169D01*
X144507130Y-97605267D01*
X144519330Y-97700948D01*
X144519234Y-97800569D01*
X144506764Y-97892488D01*
X144481843Y-97965066D01*
X144451073Y-98015650D01*
X144383344Y-98087310D01*
X144298657Y-98132862D01*
X144226202Y-98151282D01*
X144115875Y-98153293D01*
X144010302Y-98125513D01*
X143916682Y-98069142D01*
X143856088Y-98019196D01*
X143910664Y-97962887D01*
X143945144Y-97929530D01*
X143976332Y-97910958D01*
X144005250Y-97915047D01*
X144042237Y-97940000D01*
X144056985Y-97949768D01*
X144119291Y-97969762D01*
X144190903Y-97969749D01*
X144257950Y-97949143D01*
X144283196Y-97932595D01*
X144320228Y-97883730D01*
X144338792Y-97811958D01*
X144339987Y-97714136D01*
X144339983Y-97714081D01*
X144326171Y-97626562D01*
X144295744Y-97565881D01*
X144245676Y-97528345D01*
X144172941Y-97510261D01*
X144127137Y-97507829D01*
X144087116Y-97517789D01*
X144046070Y-97546642D01*
X143992954Y-97591336D01*
X143925688Y-97537279D01*
X143901113Y-97516570D01*
X143870416Y-97486899D01*
X143858422Y-97469413D01*
X143862669Y-97461533D01*
X143887135Y-97437340D01*
X143926110Y-97406571D01*
X143956605Y-97386549D01*
X144053424Y-97345419D01*
X144154457Y-97331057D01*
X144253610Y-97342247D01*
G37*
X146644982Y-97797116D02*
X146640320Y-97850001D01*
X146619714Y-97950965D01*
X146582857Y-98028007D01*
X146526761Y-98086201D01*
X146448434Y-98130617D01*
X146418023Y-98141188D01*
X146339263Y-98154377D01*
X146256384Y-98154018D01*
X146186450Y-98139531D01*
X146185076Y-98139005D01*
X146128718Y-98105852D01*
X146071780Y-98054530D01*
X146024535Y-97995840D01*
X145997255Y-97940584D01*
X145989169Y-97900193D01*
X145982246Y-97824569D01*
X145981085Y-97757161D01*
X146149442Y-97757161D01*
X146159507Y-97838014D01*
X146183151Y-97904451D01*
X146218973Y-97947862D01*
X146232551Y-97955316D01*
X146284327Y-97968864D01*
X146344213Y-97971651D01*
X146394596Y-97962237D01*
X146414260Y-97948736D01*
X146441862Y-97901523D01*
X146459230Y-97827630D01*
X146465264Y-97730663D01*
X146465167Y-97702750D01*
X146463071Y-97646190D01*
X146456100Y-97609294D01*
X146441475Y-97582031D01*
X146416418Y-97554372D01*
X146368736Y-97520849D01*
X146306663Y-97507143D01*
X146246689Y-97520197D01*
X146196891Y-97557951D01*
X146165345Y-97618349D01*
X146154358Y-97670502D01*
X146149442Y-97757161D01*
X145981085Y-97757161D01*
X145980763Y-97738442D01*
X145984478Y-97652719D01*
X145993145Y-97578305D01*
X146006522Y-97526106D01*
X146037679Y-97467006D01*
X146103808Y-97394340D01*
X146188331Y-97348310D01*
X146288734Y-97330090D01*
X146402505Y-97340858D01*
X146421435Y-97345445D01*
X146509595Y-97385000D01*
X146576028Y-97449941D01*
X146620735Y-97540271D01*
X146643718Y-97655994D01*
X146644387Y-97730663D01*
X146644982Y-97797116D01*
G36*
X146644982Y-97797116D02*
G01*
X146640320Y-97850001D01*
X146619714Y-97950965D01*
X146582857Y-98028007D01*
X146526761Y-98086201D01*
X146448434Y-98130617D01*
X146418023Y-98141188D01*
X146339263Y-98154377D01*
X146256384Y-98154018D01*
X146186450Y-98139531D01*
X146185076Y-98139005D01*
X146128718Y-98105852D01*
X146071780Y-98054530D01*
X146024535Y-97995840D01*
X145997255Y-97940584D01*
X145989169Y-97900193D01*
X145982246Y-97824569D01*
X145981085Y-97757161D01*
X146149442Y-97757161D01*
X146159507Y-97838014D01*
X146183151Y-97904451D01*
X146218973Y-97947862D01*
X146232551Y-97955316D01*
X146284327Y-97968864D01*
X146344213Y-97971651D01*
X146394596Y-97962237D01*
X146414260Y-97948736D01*
X146441862Y-97901523D01*
X146459230Y-97827630D01*
X146465264Y-97730663D01*
X146465167Y-97702750D01*
X146463071Y-97646190D01*
X146456100Y-97609294D01*
X146441475Y-97582031D01*
X146416418Y-97554372D01*
X146368736Y-97520849D01*
X146306663Y-97507143D01*
X146246689Y-97520197D01*
X146196891Y-97557951D01*
X146165345Y-97618349D01*
X146154358Y-97670502D01*
X146149442Y-97757161D01*
X145981085Y-97757161D01*
X145980763Y-97738442D01*
X145984478Y-97652719D01*
X145993145Y-97578305D01*
X146006522Y-97526106D01*
X146037679Y-97467006D01*
X146103808Y-97394340D01*
X146188331Y-97348310D01*
X146288734Y-97330090D01*
X146402505Y-97340858D01*
X146421435Y-97345445D01*
X146509595Y-97385000D01*
X146576028Y-97449941D01*
X146620735Y-97540271D01*
X146643718Y-97655994D01*
X146644387Y-97730663D01*
X146644982Y-97797116D01*
G37*
X146778063Y-98854107D02*
X146800655Y-98921510D01*
X146827379Y-98996127D01*
X146849696Y-99052654D01*
X146865759Y-99086486D01*
X146873724Y-99093016D01*
X146875646Y-99087337D01*
X146886049Y-99052507D01*
X146902619Y-98994335D01*
X146923516Y-98919333D01*
X146946900Y-98834013D01*
X147010518Y-98600066D01*
X147107655Y-98594990D01*
X147115854Y-98594584D01*
X147168235Y-98594046D01*
X147193406Y-98599423D01*
X147196612Y-98611701D01*
X147192562Y-98623692D01*
X147179241Y-98664734D01*
X147158384Y-98729736D01*
X147131479Y-98814048D01*
X147100012Y-98913022D01*
X147065469Y-99022006D01*
X146942505Y-99410526D01*
X146788689Y-99410526D01*
X146716213Y-99164046D01*
X146702830Y-99118785D01*
X146678096Y-99036502D01*
X146656962Y-98967940D01*
X146641329Y-98919225D01*
X146633102Y-98896483D01*
X146630758Y-98894787D01*
X146619351Y-98909456D01*
X146603065Y-98948248D01*
X146584606Y-99005102D01*
X146583631Y-99008441D01*
X146558917Y-99092347D01*
X146530641Y-99187351D01*
X146504730Y-99273528D01*
X146462714Y-99412253D01*
X146307750Y-99402171D01*
X146235987Y-99176579D01*
X146204480Y-99077454D01*
X146169187Y-98966281D01*
X146135393Y-98859704D01*
X146107418Y-98771349D01*
X146050613Y-98591710D01*
X146240656Y-98591710D01*
X146286720Y-98762993D01*
X146298965Y-98808251D01*
X146322125Y-98892625D01*
X146343572Y-98969384D01*
X146359876Y-99026184D01*
X146386969Y-99118092D01*
X146473374Y-98859079D01*
X146559780Y-98600066D01*
X146625870Y-98595104D01*
X146691959Y-98590143D01*
X146778063Y-98854107D01*
G36*
X146778063Y-98854107D02*
G01*
X146800655Y-98921510D01*
X146827379Y-98996127D01*
X146849696Y-99052654D01*
X146865759Y-99086486D01*
X146873724Y-99093016D01*
X146875646Y-99087337D01*
X146886049Y-99052507D01*
X146902619Y-98994335D01*
X146923516Y-98919333D01*
X146946900Y-98834013D01*
X147010518Y-98600066D01*
X147107655Y-98594990D01*
X147115854Y-98594584D01*
X147168235Y-98594046D01*
X147193406Y-98599423D01*
X147196612Y-98611701D01*
X147192562Y-98623692D01*
X147179241Y-98664734D01*
X147158384Y-98729736D01*
X147131479Y-98814048D01*
X147100012Y-98913022D01*
X147065469Y-99022006D01*
X146942505Y-99410526D01*
X146788689Y-99410526D01*
X146716213Y-99164046D01*
X146702830Y-99118785D01*
X146678096Y-99036502D01*
X146656962Y-98967940D01*
X146641329Y-98919225D01*
X146633102Y-98896483D01*
X146630758Y-98894787D01*
X146619351Y-98909456D01*
X146603065Y-98948248D01*
X146584606Y-99005102D01*
X146583631Y-99008441D01*
X146558917Y-99092347D01*
X146530641Y-99187351D01*
X146504730Y-99273528D01*
X146462714Y-99412253D01*
X146307750Y-99402171D01*
X146235987Y-99176579D01*
X146204480Y-99077454D01*
X146169187Y-98966281D01*
X146135393Y-98859704D01*
X146107418Y-98771349D01*
X146050613Y-98591710D01*
X146240656Y-98591710D01*
X146286720Y-98762993D01*
X146298965Y-98808251D01*
X146322125Y-98892625D01*
X146343572Y-98969384D01*
X146359876Y-99026184D01*
X146386969Y-99118092D01*
X146473374Y-98859079D01*
X146559780Y-98600066D01*
X146625870Y-98595104D01*
X146691959Y-98590143D01*
X146778063Y-98854107D01*
G37*
X150807431Y-97785368D02*
X150805273Y-97837701D01*
X150800376Y-97901519D01*
X150792033Y-97946752D01*
X150778256Y-97982593D01*
X150757057Y-98018236D01*
X150756154Y-98019587D01*
X150703953Y-98077335D01*
X150640083Y-98121380D01*
X150565813Y-98147517D01*
X150468110Y-98156003D01*
X150372350Y-98139316D01*
X150286755Y-98099106D01*
X150219545Y-98037022D01*
X150200250Y-98007688D01*
X150164216Y-97916496D01*
X150146344Y-97803984D01*
X150146650Y-97775524D01*
X150326249Y-97775524D01*
X150326588Y-97828750D01*
X150332231Y-97864284D01*
X150345089Y-97891589D01*
X150367072Y-97920124D01*
X150397579Y-97948440D01*
X150458592Y-97973710D01*
X150524106Y-97969016D01*
X150586719Y-97933896D01*
X150604381Y-97917122D01*
X150623239Y-97888407D01*
X150633696Y-97848046D01*
X150639624Y-97785154D01*
X150641257Y-97737910D01*
X150632311Y-97641428D01*
X150604860Y-97572352D01*
X150558781Y-97530301D01*
X150504766Y-97510165D01*
X150440349Y-97511860D01*
X150380637Y-97545855D01*
X150366361Y-97558797D01*
X150348347Y-97581440D01*
X150337659Y-97611064D01*
X150331729Y-97656482D01*
X150327988Y-97726506D01*
X150326249Y-97775524D01*
X150146650Y-97775524D01*
X150147723Y-97675624D01*
X150149482Y-97657418D01*
X150174024Y-97540812D01*
X150219430Y-97450290D01*
X150285795Y-97385754D01*
X150373216Y-97347104D01*
X150481791Y-97334243D01*
X150522811Y-97335450D01*
X150606934Y-97350220D01*
X150675722Y-97385474D01*
X150739854Y-97445828D01*
X150750110Y-97457942D01*
X150777774Y-97498737D01*
X150795955Y-97544930D01*
X150806036Y-97603468D01*
X150809401Y-97681299D01*
X150808329Y-97737910D01*
X150807431Y-97785368D01*
G36*
X150807431Y-97785368D02*
G01*
X150805273Y-97837701D01*
X150800376Y-97901519D01*
X150792033Y-97946752D01*
X150778256Y-97982593D01*
X150757057Y-98018236D01*
X150756154Y-98019587D01*
X150703953Y-98077335D01*
X150640083Y-98121380D01*
X150565813Y-98147517D01*
X150468110Y-98156003D01*
X150372350Y-98139316D01*
X150286755Y-98099106D01*
X150219545Y-98037022D01*
X150200250Y-98007688D01*
X150164216Y-97916496D01*
X150146344Y-97803984D01*
X150146650Y-97775524D01*
X150326249Y-97775524D01*
X150326588Y-97828750D01*
X150332231Y-97864284D01*
X150345089Y-97891589D01*
X150367072Y-97920124D01*
X150397579Y-97948440D01*
X150458592Y-97973710D01*
X150524106Y-97969016D01*
X150586719Y-97933896D01*
X150604381Y-97917122D01*
X150623239Y-97888407D01*
X150633696Y-97848046D01*
X150639624Y-97785154D01*
X150641257Y-97737910D01*
X150632311Y-97641428D01*
X150604860Y-97572352D01*
X150558781Y-97530301D01*
X150504766Y-97510165D01*
X150440349Y-97511860D01*
X150380637Y-97545855D01*
X150366361Y-97558797D01*
X150348347Y-97581440D01*
X150337659Y-97611064D01*
X150331729Y-97656482D01*
X150327988Y-97726506D01*
X150326249Y-97775524D01*
X150146650Y-97775524D01*
X150147723Y-97675624D01*
X150149482Y-97657418D01*
X150174024Y-97540812D01*
X150219430Y-97450290D01*
X150285795Y-97385754D01*
X150373216Y-97347104D01*
X150481791Y-97334243D01*
X150522811Y-97335450D01*
X150606934Y-97350220D01*
X150675722Y-97385474D01*
X150739854Y-97445828D01*
X150750110Y-97457942D01*
X150777774Y-97498737D01*
X150795955Y-97544930D01*
X150806036Y-97603468D01*
X150809401Y-97681299D01*
X150808329Y-97737910D01*
X150807431Y-97785368D01*
G37*
X147917986Y-99063659D02*
X147915868Y-99135101D01*
X147911608Y-99184866D01*
X147910878Y-99189427D01*
X147882206Y-99271004D01*
X147829846Y-99340165D01*
X147761158Y-99387021D01*
X147687396Y-99406416D01*
X147596668Y-99404911D01*
X147513205Y-99378906D01*
X147491465Y-99367932D01*
X147463510Y-99356174D01*
X147452872Y-99359832D01*
X147451185Y-99378906D01*
X147450410Y-99388418D01*
X147440407Y-99402485D01*
X147412623Y-99408962D01*
X147359277Y-99410526D01*
X147267369Y-99410526D01*
X147267369Y-99009328D01*
X147451185Y-99009328D01*
X147452502Y-99078832D01*
X147457848Y-99125106D01*
X147469262Y-99156807D01*
X147488783Y-99183373D01*
X147540329Y-99222873D01*
X147600650Y-99236115D01*
X147659144Y-99219740D01*
X147708410Y-99174060D01*
X147721432Y-99140634D01*
X147731051Y-99081441D01*
X147735280Y-99009626D01*
X147733948Y-98935967D01*
X147726884Y-98871239D01*
X147713917Y-98826222D01*
X147709774Y-98818840D01*
X147669840Y-98781738D01*
X147615722Y-98765301D01*
X147557600Y-98769124D01*
X147505653Y-98792802D01*
X147470063Y-98835929D01*
X147468592Y-98839556D01*
X147459767Y-98880026D01*
X147453542Y-98940499D01*
X147451185Y-99009328D01*
X147267369Y-99009328D01*
X147267369Y-98274210D01*
X147451185Y-98274210D01*
X147451185Y-98663732D01*
X147485232Y-98632920D01*
X147518014Y-98613769D01*
X147580059Y-98597760D01*
X147652589Y-98592602D01*
X147723419Y-98598935D01*
X147780368Y-98617400D01*
X147821128Y-98643666D01*
X147863113Y-98688412D01*
X147891370Y-98748588D01*
X147908355Y-98829988D01*
X147916528Y-98938405D01*
X147917729Y-98982230D01*
X147917816Y-99009626D01*
X147917986Y-99063659D01*
G36*
X147917986Y-99063659D02*
G01*
X147915868Y-99135101D01*
X147911608Y-99184866D01*
X147910878Y-99189427D01*
X147882206Y-99271004D01*
X147829846Y-99340165D01*
X147761158Y-99387021D01*
X147687396Y-99406416D01*
X147596668Y-99404911D01*
X147513205Y-99378906D01*
X147491465Y-99367932D01*
X147463510Y-99356174D01*
X147452872Y-99359832D01*
X147451185Y-99378906D01*
X147450410Y-99388418D01*
X147440407Y-99402485D01*
X147412623Y-99408962D01*
X147359277Y-99410526D01*
X147267369Y-99410526D01*
X147267369Y-99009328D01*
X147451185Y-99009328D01*
X147452502Y-99078832D01*
X147457848Y-99125106D01*
X147469262Y-99156807D01*
X147488783Y-99183373D01*
X147540329Y-99222873D01*
X147600650Y-99236115D01*
X147659144Y-99219740D01*
X147708410Y-99174060D01*
X147721432Y-99140634D01*
X147731051Y-99081441D01*
X147735280Y-99009626D01*
X147733948Y-98935967D01*
X147726884Y-98871239D01*
X147713917Y-98826222D01*
X147709774Y-98818840D01*
X147669840Y-98781738D01*
X147615722Y-98765301D01*
X147557600Y-98769124D01*
X147505653Y-98792802D01*
X147470063Y-98835929D01*
X147468592Y-98839556D01*
X147459767Y-98880026D01*
X147453542Y-98940499D01*
X147451185Y-99009328D01*
X147267369Y-99009328D01*
X147267369Y-98274210D01*
X147451185Y-98274210D01*
X147451185Y-98663732D01*
X147485232Y-98632920D01*
X147518014Y-98613769D01*
X147580059Y-98597760D01*
X147652589Y-98592602D01*
X147723419Y-98598935D01*
X147780368Y-98617400D01*
X147821128Y-98643666D01*
X147863113Y-98688412D01*
X147891370Y-98748588D01*
X147908355Y-98829988D01*
X147916528Y-98938405D01*
X147917729Y-98982230D01*
X147917816Y-99009626D01*
X147917986Y-99063659D01*
G37*
X143836367Y-97685627D02*
X143834216Y-97813529D01*
X143833936Y-97816044D01*
X143809909Y-97933405D01*
X143766499Y-98024652D01*
X143702353Y-98091791D01*
X143616119Y-98136824D01*
X143600289Y-98141974D01*
X143502173Y-98157151D01*
X143400698Y-98148688D01*
X143306359Y-98118445D01*
X143229649Y-98068285D01*
X143172190Y-98015197D01*
X143233266Y-97966904D01*
X143294341Y-97918611D01*
X143367947Y-97954371D01*
X143453115Y-97983347D01*
X143528301Y-97984215D01*
X143589816Y-97957592D01*
X143634083Y-97904155D01*
X143649952Y-97872136D01*
X143658811Y-97844771D01*
X143653685Y-97826285D01*
X143630687Y-97814938D01*
X143585931Y-97808987D01*
X143515529Y-97806693D01*
X143415593Y-97806316D01*
X143173290Y-97806316D01*
X143173290Y-97690430D01*
X143175100Y-97639555D01*
X143345706Y-97639555D01*
X143353900Y-97648912D01*
X143378160Y-97653783D01*
X143424272Y-97655630D01*
X143498019Y-97655921D01*
X143537566Y-97655457D01*
X143599971Y-97652388D01*
X143642303Y-97647013D01*
X143657895Y-97639997D01*
X143653906Y-97614108D01*
X143625788Y-97564570D01*
X143578932Y-97523875D01*
X143523074Y-97499295D01*
X143467951Y-97498105D01*
X143426458Y-97517815D01*
X143379440Y-97562668D01*
X143349545Y-97618322D01*
X143347794Y-97624245D01*
X143345706Y-97639555D01*
X143175100Y-97639555D01*
X143175471Y-97629138D01*
X143181876Y-97568496D01*
X143191025Y-97527502D01*
X143197695Y-97511852D01*
X143246243Y-97442149D01*
X143316391Y-97384013D01*
X143398426Y-97345949D01*
X143441216Y-97335554D01*
X143543170Y-97330822D01*
X143634015Y-97354893D01*
X143711253Y-97405088D01*
X143772389Y-97478727D01*
X143814926Y-97573133D01*
X143827671Y-97639997D01*
X143836367Y-97685627D01*
G36*
X143836367Y-97685627D02*
G01*
X143834216Y-97813529D01*
X143833936Y-97816044D01*
X143809909Y-97933405D01*
X143766499Y-98024652D01*
X143702353Y-98091791D01*
X143616119Y-98136824D01*
X143600289Y-98141974D01*
X143502173Y-98157151D01*
X143400698Y-98148688D01*
X143306359Y-98118445D01*
X143229649Y-98068285D01*
X143172190Y-98015197D01*
X143233266Y-97966904D01*
X143294341Y-97918611D01*
X143367947Y-97954371D01*
X143453115Y-97983347D01*
X143528301Y-97984215D01*
X143589816Y-97957592D01*
X143634083Y-97904155D01*
X143649952Y-97872136D01*
X143658811Y-97844771D01*
X143653685Y-97826285D01*
X143630687Y-97814938D01*
X143585931Y-97808987D01*
X143515529Y-97806693D01*
X143415593Y-97806316D01*
X143173290Y-97806316D01*
X143173290Y-97690430D01*
X143175100Y-97639555D01*
X143345706Y-97639555D01*
X143353900Y-97648912D01*
X143378160Y-97653783D01*
X143424272Y-97655630D01*
X143498019Y-97655921D01*
X143537566Y-97655457D01*
X143599971Y-97652388D01*
X143642303Y-97647013D01*
X143657895Y-97639997D01*
X143653906Y-97614108D01*
X143625788Y-97564570D01*
X143578932Y-97523875D01*
X143523074Y-97499295D01*
X143467951Y-97498105D01*
X143426458Y-97517815D01*
X143379440Y-97562668D01*
X143349545Y-97618322D01*
X143347794Y-97624245D01*
X143345706Y-97639555D01*
X143175100Y-97639555D01*
X143175471Y-97629138D01*
X143181876Y-97568496D01*
X143191025Y-97527502D01*
X143197695Y-97511852D01*
X143246243Y-97442149D01*
X143316391Y-97384013D01*
X143398426Y-97345949D01*
X143441216Y-97335554D01*
X143543170Y-97330822D01*
X143634015Y-97354893D01*
X143711253Y-97405088D01*
X143772389Y-97478727D01*
X143814926Y-97573133D01*
X143827671Y-97639997D01*
X143836367Y-97685627D01*
G37*
X147131399Y-97337879D02*
X147227909Y-97362068D01*
X147298411Y-97406902D01*
X147343307Y-97472681D01*
X147362999Y-97559707D01*
X147359012Y-97643023D01*
X147330235Y-97713297D01*
X147275048Y-97765254D01*
X147192348Y-97799910D01*
X147081026Y-97818279D01*
X147008692Y-97827906D01*
X146942670Y-97848737D01*
X146908583Y-97878904D01*
X146906526Y-97918352D01*
X146920243Y-97942949D01*
X146962726Y-97972101D01*
X147023117Y-97985889D01*
X147093889Y-97984004D01*
X147167512Y-97966133D01*
X147236457Y-97931967D01*
X147305197Y-97886477D01*
X147426119Y-98008835D01*
X147375987Y-98049755D01*
X147356494Y-98063973D01*
X147301650Y-98096275D01*
X147242303Y-98124109D01*
X147195335Y-98140083D01*
X147126562Y-98151654D01*
X147041777Y-98151807D01*
X146937806Y-98139067D01*
X146844145Y-98106777D01*
X146777849Y-98055486D01*
X146738760Y-97985065D01*
X146726722Y-97895387D01*
X146735436Y-97816497D01*
X146763408Y-97751907D01*
X146813768Y-97705651D01*
X146889703Y-97674888D01*
X146994400Y-97656778D01*
X147006425Y-97655467D01*
X147071611Y-97647106D01*
X147124490Y-97638357D01*
X147154573Y-97630913D01*
X147164612Y-97624920D01*
X147181584Y-97594013D01*
X147178828Y-97554450D01*
X147156146Y-97520105D01*
X147144236Y-97512615D01*
X147094606Y-97500613D01*
X147030500Y-97501420D01*
X146963653Y-97514192D01*
X146905799Y-97538086D01*
X146845008Y-97573954D01*
X146797854Y-97518852D01*
X146786412Y-97504853D01*
X146760634Y-97467353D01*
X146750022Y-97441937D01*
X146761166Y-97426353D01*
X146795644Y-97402026D01*
X146845428Y-97375848D01*
X146852443Y-97372648D01*
X146918092Y-97347548D01*
X146981372Y-97335547D01*
X147059900Y-97333137D01*
X147131399Y-97337879D01*
G36*
X147131399Y-97337879D02*
G01*
X147227909Y-97362068D01*
X147298411Y-97406902D01*
X147343307Y-97472681D01*
X147362999Y-97559707D01*
X147359012Y-97643023D01*
X147330235Y-97713297D01*
X147275048Y-97765254D01*
X147192348Y-97799910D01*
X147081026Y-97818279D01*
X147008692Y-97827906D01*
X146942670Y-97848737D01*
X146908583Y-97878904D01*
X146906526Y-97918352D01*
X146920243Y-97942949D01*
X146962726Y-97972101D01*
X147023117Y-97985889D01*
X147093889Y-97984004D01*
X147167512Y-97966133D01*
X147236457Y-97931967D01*
X147305197Y-97886477D01*
X147426119Y-98008835D01*
X147375987Y-98049755D01*
X147356494Y-98063973D01*
X147301650Y-98096275D01*
X147242303Y-98124109D01*
X147195335Y-98140083D01*
X147126562Y-98151654D01*
X147041777Y-98151807D01*
X146937806Y-98139067D01*
X146844145Y-98106777D01*
X146777849Y-98055486D01*
X146738760Y-97985065D01*
X146726722Y-97895387D01*
X146735436Y-97816497D01*
X146763408Y-97751907D01*
X146813768Y-97705651D01*
X146889703Y-97674888D01*
X146994400Y-97656778D01*
X147006425Y-97655467D01*
X147071611Y-97647106D01*
X147124490Y-97638357D01*
X147154573Y-97630913D01*
X147164612Y-97624920D01*
X147181584Y-97594013D01*
X147178828Y-97554450D01*
X147156146Y-97520105D01*
X147144236Y-97512615D01*
X147094606Y-97500613D01*
X147030500Y-97501420D01*
X146963653Y-97514192D01*
X146905799Y-97538086D01*
X146845008Y-97573954D01*
X146797854Y-97518852D01*
X146786412Y-97504853D01*
X146760634Y-97467353D01*
X146750022Y-97441937D01*
X146761166Y-97426353D01*
X146795644Y-97402026D01*
X146845428Y-97375848D01*
X146852443Y-97372648D01*
X146918092Y-97347548D01*
X146981372Y-97335547D01*
X147059900Y-97333137D01*
X147131399Y-97337879D01*
G37*
X144693418Y-99001118D02*
X144691245Y-99063498D01*
X144671455Y-99182794D01*
X144630734Y-99276598D01*
X144568724Y-99345581D01*
X144485066Y-99390412D01*
X144458037Y-99398332D01*
X144361524Y-99409395D01*
X144259615Y-99400059D01*
X144167566Y-99371246D01*
X144135138Y-99354892D01*
X144088643Y-99326878D01*
X144060465Y-99303827D01*
X144056305Y-99298560D01*
X144048522Y-99279299D01*
X144059736Y-99258361D01*
X144093886Y-99226650D01*
X144110367Y-99212845D01*
X144142832Y-99187583D01*
X144159855Y-99177258D01*
X144164732Y-99178321D01*
X144192681Y-99189819D01*
X144234408Y-99210000D01*
X144248013Y-99216638D01*
X144328271Y-99241289D01*
X144397997Y-99234935D01*
X144459140Y-99197467D01*
X144466255Y-99190544D01*
X144500268Y-99147178D01*
X144519702Y-99105559D01*
X144530466Y-99059605D01*
X144025527Y-99059605D01*
X144025620Y-98971875D01*
X144025673Y-98963150D01*
X144032490Y-98892763D01*
X144209343Y-98892763D01*
X144211431Y-98907361D01*
X144222152Y-98917422D01*
X144247707Y-98923006D01*
X144294289Y-98925408D01*
X144368093Y-98925921D01*
X144409124Y-98925389D01*
X144469688Y-98922280D01*
X144511345Y-98917012D01*
X144526843Y-98910298D01*
X144513626Y-98855033D01*
X144474930Y-98803452D01*
X144419121Y-98767666D01*
X144354651Y-98755288D01*
X144307185Y-98769242D01*
X144259738Y-98803353D01*
X144223669Y-98847796D01*
X144209343Y-98892763D01*
X144032490Y-98892763D01*
X144036127Y-98855216D01*
X144066555Y-98767413D01*
X144119649Y-98691723D01*
X144152038Y-98659705D01*
X144218932Y-98616845D01*
X144298807Y-98596078D01*
X144399700Y-98594618D01*
X144448435Y-98600343D01*
X144538396Y-98630071D01*
X144607271Y-98684178D01*
X144655664Y-98763498D01*
X144684179Y-98868866D01*
X144687074Y-98910298D01*
X144693418Y-99001118D01*
G36*
X144693418Y-99001118D02*
G01*
X144691245Y-99063498D01*
X144671455Y-99182794D01*
X144630734Y-99276598D01*
X144568724Y-99345581D01*
X144485066Y-99390412D01*
X144458037Y-99398332D01*
X144361524Y-99409395D01*
X144259615Y-99400059D01*
X144167566Y-99371246D01*
X144135138Y-99354892D01*
X144088643Y-99326878D01*
X144060465Y-99303827D01*
X144056305Y-99298560D01*
X144048522Y-99279299D01*
X144059736Y-99258361D01*
X144093886Y-99226650D01*
X144110367Y-99212845D01*
X144142832Y-99187583D01*
X144159855Y-99177258D01*
X144164732Y-99178321D01*
X144192681Y-99189819D01*
X144234408Y-99210000D01*
X144248013Y-99216638D01*
X144328271Y-99241289D01*
X144397997Y-99234935D01*
X144459140Y-99197467D01*
X144466255Y-99190544D01*
X144500268Y-99147178D01*
X144519702Y-99105559D01*
X144530466Y-99059605D01*
X144025527Y-99059605D01*
X144025620Y-98971875D01*
X144025673Y-98963150D01*
X144032490Y-98892763D01*
X144209343Y-98892763D01*
X144211431Y-98907361D01*
X144222152Y-98917422D01*
X144247707Y-98923006D01*
X144294289Y-98925408D01*
X144368093Y-98925921D01*
X144409124Y-98925389D01*
X144469688Y-98922280D01*
X144511345Y-98917012D01*
X144526843Y-98910298D01*
X144513626Y-98855033D01*
X144474930Y-98803452D01*
X144419121Y-98767666D01*
X144354651Y-98755288D01*
X144307185Y-98769242D01*
X144259738Y-98803353D01*
X144223669Y-98847796D01*
X144209343Y-98892763D01*
X144032490Y-98892763D01*
X144036127Y-98855216D01*
X144066555Y-98767413D01*
X144119649Y-98691723D01*
X144152038Y-98659705D01*
X144218932Y-98616845D01*
X144298807Y-98596078D01*
X144399700Y-98594618D01*
X144448435Y-98600343D01*
X144538396Y-98630071D01*
X144607271Y-98684178D01*
X144655664Y-98763498D01*
X144684179Y-98868866D01*
X144687074Y-98910298D01*
X144693418Y-99001118D01*
G37*
X149268543Y-97639091D02*
X149274389Y-97756138D01*
X149272928Y-97807216D01*
X149256454Y-97918843D01*
X149220151Y-98006856D01*
X149162120Y-98074884D01*
X149080461Y-98126551D01*
X149001246Y-98150670D01*
X148901871Y-98155285D01*
X148801607Y-98137537D01*
X148712172Y-98098327D01*
X148679030Y-98076515D01*
X148642515Y-98048556D01*
X148625853Y-98030158D01*
X148626798Y-98022567D01*
X148645448Y-97996703D01*
X148680498Y-97965367D01*
X148741241Y-97919036D01*
X148812418Y-97954584D01*
X148831665Y-97963383D01*
X148888323Y-97982506D01*
X148935811Y-97990131D01*
X148970828Y-97983848D01*
X149025778Y-97953591D01*
X149071967Y-97906620D01*
X149098387Y-97852270D01*
X149109150Y-97806316D01*
X148604211Y-97806316D01*
X148604304Y-97718585D01*
X148605069Y-97690781D01*
X148610649Y-97631119D01*
X148788027Y-97631119D01*
X148788352Y-97634537D01*
X148797540Y-97645181D01*
X148823504Y-97651720D01*
X148871779Y-97655014D01*
X148947903Y-97655921D01*
X148972923Y-97655910D01*
X149037902Y-97655310D01*
X149076964Y-97652715D01*
X149095903Y-97646662D01*
X149100511Y-97635686D01*
X149096581Y-97618322D01*
X149095981Y-97616353D01*
X149062127Y-97555930D01*
X149008757Y-97514329D01*
X148945115Y-97498842D01*
X148921591Y-97500080D01*
X148877928Y-97514896D01*
X148836041Y-97552579D01*
X148824758Y-97565903D01*
X148798513Y-97603956D01*
X148788027Y-97631119D01*
X148610649Y-97631119D01*
X148611366Y-97623449D01*
X148621926Y-97567734D01*
X148633501Y-97536543D01*
X148674195Y-97468700D01*
X148728695Y-97407086D01*
X148786330Y-97364866D01*
X148802982Y-97357027D01*
X148899945Y-97331021D01*
X148998960Y-97333762D01*
X149092052Y-97364092D01*
X149171244Y-97420848D01*
X149214078Y-97473190D01*
X149249101Y-97546928D01*
X149267825Y-97635686D01*
X149268543Y-97639091D01*
G36*
X149268543Y-97639091D02*
G01*
X149274389Y-97756138D01*
X149272928Y-97807216D01*
X149256454Y-97918843D01*
X149220151Y-98006856D01*
X149162120Y-98074884D01*
X149080461Y-98126551D01*
X149001246Y-98150670D01*
X148901871Y-98155285D01*
X148801607Y-98137537D01*
X148712172Y-98098327D01*
X148679030Y-98076515D01*
X148642515Y-98048556D01*
X148625853Y-98030158D01*
X148626798Y-98022567D01*
X148645448Y-97996703D01*
X148680498Y-97965367D01*
X148741241Y-97919036D01*
X148812418Y-97954584D01*
X148831665Y-97963383D01*
X148888323Y-97982506D01*
X148935811Y-97990131D01*
X148970828Y-97983848D01*
X149025778Y-97953591D01*
X149071967Y-97906620D01*
X149098387Y-97852270D01*
X149109150Y-97806316D01*
X148604211Y-97806316D01*
X148604304Y-97718585D01*
X148605069Y-97690781D01*
X148610649Y-97631119D01*
X148788027Y-97631119D01*
X148788352Y-97634537D01*
X148797540Y-97645181D01*
X148823504Y-97651720D01*
X148871779Y-97655014D01*
X148947903Y-97655921D01*
X148972923Y-97655910D01*
X149037902Y-97655310D01*
X149076964Y-97652715D01*
X149095903Y-97646662D01*
X149100511Y-97635686D01*
X149096581Y-97618322D01*
X149095981Y-97616353D01*
X149062127Y-97555930D01*
X149008757Y-97514329D01*
X148945115Y-97498842D01*
X148921591Y-97500080D01*
X148877928Y-97514896D01*
X148836041Y-97552579D01*
X148824758Y-97565903D01*
X148798513Y-97603956D01*
X148788027Y-97631119D01*
X148610649Y-97631119D01*
X148611366Y-97623449D01*
X148621926Y-97567734D01*
X148633501Y-97536543D01*
X148674195Y-97468700D01*
X148728695Y-97407086D01*
X148786330Y-97364866D01*
X148802982Y-97357027D01*
X148899945Y-97331021D01*
X148998960Y-97333762D01*
X149092052Y-97364092D01*
X149171244Y-97420848D01*
X149214078Y-97473190D01*
X149249101Y-97546928D01*
X149267825Y-97635686D01*
X149268543Y-97639091D01*
G37*
X146055668Y-99190600D02*
X146035509Y-99266464D01*
X145991698Y-99331365D01*
X145925241Y-99378051D01*
X145918719Y-99380889D01*
X145846005Y-99401330D01*
X145764071Y-99409299D01*
X145686172Y-99404427D01*
X145625560Y-99386348D01*
X145601348Y-99374554D01*
X145583580Y-99371741D01*
X145579606Y-99386451D01*
X145572078Y-99400055D01*
X145542953Y-99408156D01*
X145486420Y-99410526D01*
X145393235Y-99410526D01*
X145398194Y-99118092D01*
X145579606Y-99118092D01*
X145585900Y-99161806D01*
X145613027Y-99210000D01*
X145623040Y-99218858D01*
X145664081Y-99237494D01*
X145725823Y-99242290D01*
X145762871Y-99240417D01*
X145832195Y-99226309D01*
X145875163Y-99200024D01*
X145889655Y-99163344D01*
X145873551Y-99118052D01*
X145864154Y-99106200D01*
X145822187Y-99079613D01*
X145755766Y-99064432D01*
X145661070Y-99059605D01*
X145579606Y-99059605D01*
X145579606Y-99118092D01*
X145398194Y-99118092D01*
X145398690Y-99088849D01*
X145400172Y-99014462D01*
X145404076Y-98903099D01*
X145410657Y-98817946D01*
X145421214Y-98754360D01*
X145437048Y-98707699D01*
X145459459Y-98673321D01*
X145489747Y-98646583D01*
X145529213Y-98622844D01*
X145549573Y-98613780D01*
X145620008Y-98596673D01*
X145704959Y-98589600D01*
X145792788Y-98592432D01*
X145871857Y-98605041D01*
X145930527Y-98627297D01*
X145950935Y-98640219D01*
X145997921Y-98678519D01*
X146013824Y-98710589D01*
X146009962Y-98716786D01*
X145985894Y-98738432D01*
X145947039Y-98767308D01*
X145927174Y-98780824D01*
X145893346Y-98799974D01*
X145871363Y-98801803D01*
X145850953Y-98788585D01*
X145800086Y-98761816D01*
X145731640Y-98750808D01*
X145661694Y-98759236D01*
X145660370Y-98759618D01*
X145611036Y-98781052D01*
X145586616Y-98814603D01*
X145579862Y-98870091D01*
X145579606Y-98922879D01*
X145754010Y-98928577D01*
X145781796Y-98929515D01*
X145851848Y-98932775D01*
X145898809Y-98937897D01*
X145930552Y-98946798D01*
X145954948Y-98961397D01*
X145979869Y-98983612D01*
X146021015Y-99034995D01*
X146051171Y-99111026D01*
X146054128Y-99163344D01*
X146055668Y-99190600D01*
G36*
X146055668Y-99190600D02*
G01*
X146035509Y-99266464D01*
X145991698Y-99331365D01*
X145925241Y-99378051D01*
X145918719Y-99380889D01*
X145846005Y-99401330D01*
X145764071Y-99409299D01*
X145686172Y-99404427D01*
X145625560Y-99386348D01*
X145601348Y-99374554D01*
X145583580Y-99371741D01*
X145579606Y-99386451D01*
X145572078Y-99400055D01*
X145542953Y-99408156D01*
X145486420Y-99410526D01*
X145393235Y-99410526D01*
X145398194Y-99118092D01*
X145579606Y-99118092D01*
X145585900Y-99161806D01*
X145613027Y-99210000D01*
X145623040Y-99218858D01*
X145664081Y-99237494D01*
X145725823Y-99242290D01*
X145762871Y-99240417D01*
X145832195Y-99226309D01*
X145875163Y-99200024D01*
X145889655Y-99163344D01*
X145873551Y-99118052D01*
X145864154Y-99106200D01*
X145822187Y-99079613D01*
X145755766Y-99064432D01*
X145661070Y-99059605D01*
X145579606Y-99059605D01*
X145579606Y-99118092D01*
X145398194Y-99118092D01*
X145398690Y-99088849D01*
X145400172Y-99014462D01*
X145404076Y-98903099D01*
X145410657Y-98817946D01*
X145421214Y-98754360D01*
X145437048Y-98707699D01*
X145459459Y-98673321D01*
X145489747Y-98646583D01*
X145529213Y-98622844D01*
X145549573Y-98613780D01*
X145620008Y-98596673D01*
X145704959Y-98589600D01*
X145792788Y-98592432D01*
X145871857Y-98605041D01*
X145930527Y-98627297D01*
X145950935Y-98640219D01*
X145997921Y-98678519D01*
X146013824Y-98710589D01*
X146009962Y-98716786D01*
X145985894Y-98738432D01*
X145947039Y-98767308D01*
X145927174Y-98780824D01*
X145893346Y-98799974D01*
X145871363Y-98801803D01*
X145850953Y-98788585D01*
X145800086Y-98761816D01*
X145731640Y-98750808D01*
X145661694Y-98759236D01*
X145660370Y-98759618D01*
X145611036Y-98781052D01*
X145586616Y-98814603D01*
X145579862Y-98870091D01*
X145579606Y-98922879D01*
X145754010Y-98928577D01*
X145781796Y-98929515D01*
X145851848Y-98932775D01*
X145898809Y-98937897D01*
X145930552Y-98946798D01*
X145954948Y-98961397D01*
X145979869Y-98983612D01*
X146021015Y-99034995D01*
X146051171Y-99111026D01*
X146054128Y-99163344D01*
X146055668Y-99190600D01*
G37*
X149268912Y-99187796D02*
X149268722Y-99190000D01*
X149248360Y-99275846D01*
X149203067Y-99340412D01*
X149130593Y-99386937D01*
X149093140Y-99398256D01*
X149028990Y-99407078D01*
X148958840Y-99409185D01*
X148895548Y-99404330D01*
X148851976Y-99392268D01*
X148825512Y-99382606D01*
X148799601Y-99392268D01*
X148790123Y-99397866D01*
X148752294Y-99406943D01*
X148701132Y-99410526D01*
X148620922Y-99410526D01*
X148620922Y-99123857D01*
X148804737Y-99123857D01*
X148810915Y-99172753D01*
X148835297Y-99215765D01*
X148849249Y-99225074D01*
X148899051Y-99239583D01*
X148961225Y-99243205D01*
X149022196Y-99235845D01*
X149068388Y-99217408D01*
X149091399Y-99193030D01*
X149105527Y-99149713D01*
X149092998Y-99115376D01*
X149051582Y-99085520D01*
X148985005Y-99066366D01*
X148897182Y-99059605D01*
X148804737Y-99059605D01*
X148804737Y-99123857D01*
X148620922Y-99123857D01*
X148620922Y-99087142D01*
X148620928Y-99059176D01*
X148621232Y-98953767D01*
X148622376Y-98875401D01*
X148624877Y-98818871D01*
X148629256Y-98778970D01*
X148636032Y-98750492D01*
X148645725Y-98728230D01*
X148658853Y-98706978D01*
X148701084Y-98657180D01*
X148760930Y-98619160D01*
X148839543Y-98598184D01*
X148943136Y-98591736D01*
X148946503Y-98591743D01*
X149018513Y-98594995D01*
X149082966Y-98603103D01*
X149126952Y-98614470D01*
X149139010Y-98620166D01*
X149177391Y-98644289D01*
X149212124Y-98672960D01*
X149234977Y-98698760D01*
X149237716Y-98714273D01*
X149232370Y-98718465D01*
X149174127Y-98763218D01*
X149135181Y-98789613D01*
X149109431Y-98800262D01*
X149090772Y-98797780D01*
X149073101Y-98784782D01*
X149040490Y-98768556D01*
X148985533Y-98757737D01*
X148923420Y-98754931D01*
X148867217Y-98760642D01*
X148829984Y-98775376D01*
X148828025Y-98777169D01*
X148811294Y-98810850D01*
X148804737Y-98861125D01*
X148804737Y-98925921D01*
X148959310Y-98925983D01*
X149030314Y-98927107D01*
X149090082Y-98931996D01*
X149132837Y-98942055D01*
X149167380Y-98958665D01*
X149175419Y-98963767D01*
X149233576Y-99019847D01*
X149264510Y-99094004D01*
X149267125Y-99149713D01*
X149268912Y-99187796D01*
G36*
X149268912Y-99187796D02*
G01*
X149268722Y-99190000D01*
X149248360Y-99275846D01*
X149203067Y-99340412D01*
X149130593Y-99386937D01*
X149093140Y-99398256D01*
X149028990Y-99407078D01*
X148958840Y-99409185D01*
X148895548Y-99404330D01*
X148851976Y-99392268D01*
X148825512Y-99382606D01*
X148799601Y-99392268D01*
X148790123Y-99397866D01*
X148752294Y-99406943D01*
X148701132Y-99410526D01*
X148620922Y-99410526D01*
X148620922Y-99123857D01*
X148804737Y-99123857D01*
X148810915Y-99172753D01*
X148835297Y-99215765D01*
X148849249Y-99225074D01*
X148899051Y-99239583D01*
X148961225Y-99243205D01*
X149022196Y-99235845D01*
X149068388Y-99217408D01*
X149091399Y-99193030D01*
X149105527Y-99149713D01*
X149092998Y-99115376D01*
X149051582Y-99085520D01*
X148985005Y-99066366D01*
X148897182Y-99059605D01*
X148804737Y-99059605D01*
X148804737Y-99123857D01*
X148620922Y-99123857D01*
X148620922Y-99087142D01*
X148620928Y-99059176D01*
X148621232Y-98953767D01*
X148622376Y-98875401D01*
X148624877Y-98818871D01*
X148629256Y-98778970D01*
X148636032Y-98750492D01*
X148645725Y-98728230D01*
X148658853Y-98706978D01*
X148701084Y-98657180D01*
X148760930Y-98619160D01*
X148839543Y-98598184D01*
X148943136Y-98591736D01*
X148946503Y-98591743D01*
X149018513Y-98594995D01*
X149082966Y-98603103D01*
X149126952Y-98614470D01*
X149139010Y-98620166D01*
X149177391Y-98644289D01*
X149212124Y-98672960D01*
X149234977Y-98698760D01*
X149237716Y-98714273D01*
X149232370Y-98718465D01*
X149174127Y-98763218D01*
X149135181Y-98789613D01*
X149109431Y-98800262D01*
X149090772Y-98797780D01*
X149073101Y-98784782D01*
X149040490Y-98768556D01*
X148985533Y-98757737D01*
X148923420Y-98754931D01*
X148867217Y-98760642D01*
X148829984Y-98775376D01*
X148828025Y-98777169D01*
X148811294Y-98810850D01*
X148804737Y-98861125D01*
X148804737Y-98925921D01*
X148959310Y-98925983D01*
X149030314Y-98927107D01*
X149090082Y-98931996D01*
X149132837Y-98942055D01*
X149167380Y-98958665D01*
X149175419Y-98963767D01*
X149233576Y-99019847D01*
X149264510Y-99094004D01*
X149267125Y-99149713D01*
X149268912Y-99187796D01*
G37*
X150024606Y-99412273D02*
X149936875Y-99407222D01*
X149849145Y-99402171D01*
X149844974Y-99134802D01*
X149843740Y-99069788D01*
X149840237Y-98972111D01*
X149834224Y-98900434D01*
X149824597Y-98849940D01*
X149810249Y-98815810D01*
X149790075Y-98793227D01*
X149762970Y-98777372D01*
X149712112Y-98761180D01*
X149661534Y-98767472D01*
X149608125Y-98802077D01*
X149556711Y-98845339D01*
X149556711Y-99410526D01*
X149372895Y-99410526D01*
X149372895Y-99104010D01*
X149373072Y-99007935D01*
X149374049Y-98922562D01*
X149376399Y-98860071D01*
X149380691Y-98814794D01*
X149387495Y-98781068D01*
X149397378Y-98753227D01*
X149410910Y-98725605D01*
X149414119Y-98719741D01*
X149456792Y-98662627D01*
X149506735Y-98622714D01*
X149566948Y-98601756D01*
X149646680Y-98592427D01*
X149726527Y-98597480D01*
X149791488Y-98617205D01*
X149840790Y-98642700D01*
X149840790Y-98090931D01*
X149773237Y-98126142D01*
X149745019Y-98138934D01*
X149655950Y-98157023D01*
X149567434Y-98144521D01*
X149485381Y-98102952D01*
X149415704Y-98033843D01*
X149404789Y-98017600D01*
X149394298Y-97993790D01*
X149387455Y-97961418D01*
X149383504Y-97914271D01*
X149381688Y-97846135D01*
X149381362Y-97775142D01*
X149557891Y-97775142D01*
X149558040Y-97834431D01*
X149562573Y-97873969D01*
X149572760Y-97902189D01*
X149589872Y-97927519D01*
X149611610Y-97951069D01*
X149646372Y-97968892D01*
X149698750Y-97973421D01*
X149745020Y-97969480D01*
X149790817Y-97949759D01*
X149820312Y-97909809D01*
X149836104Y-97845600D01*
X149840790Y-97753101D01*
X149839578Y-97703894D01*
X149827481Y-97611006D01*
X149802523Y-97548196D01*
X149764844Y-97515906D01*
X149726789Y-97506822D01*
X149660513Y-97511081D01*
X149604516Y-97537452D01*
X149591114Y-97549545D01*
X149576913Y-97570467D01*
X149568133Y-97601611D01*
X149562919Y-97650710D01*
X149559416Y-97725498D01*
X149557891Y-97775142D01*
X149381362Y-97775142D01*
X149381250Y-97750797D01*
X149381400Y-97707296D01*
X149383962Y-97606111D01*
X149391097Y-97530522D01*
X149404606Y-97474817D01*
X149426294Y-97433283D01*
X149457960Y-97400206D01*
X149501408Y-97369874D01*
X149536640Y-97352468D01*
X149620173Y-97333271D01*
X149708222Y-97335887D01*
X149786481Y-97360772D01*
X149820067Y-97377039D01*
X149836960Y-97378720D01*
X149840790Y-97363916D01*
X149840794Y-97363468D01*
X149849048Y-97348351D01*
X149877517Y-97340603D01*
X149932698Y-97338421D01*
X150024606Y-97338421D01*
X150024606Y-97753101D01*
X150024606Y-99412273D01*
G36*
X150024606Y-99412273D02*
G01*
X149936875Y-99407222D01*
X149849145Y-99402171D01*
X149844974Y-99134802D01*
X149843740Y-99069788D01*
X149840237Y-98972111D01*
X149834224Y-98900434D01*
X149824597Y-98849940D01*
X149810249Y-98815810D01*
X149790075Y-98793227D01*
X149762970Y-98777372D01*
X149712112Y-98761180D01*
X149661534Y-98767472D01*
X149608125Y-98802077D01*
X149556711Y-98845339D01*
X149556711Y-99410526D01*
X149372895Y-99410526D01*
X149372895Y-99104010D01*
X149373072Y-99007935D01*
X149374049Y-98922562D01*
X149376399Y-98860071D01*
X149380691Y-98814794D01*
X149387495Y-98781068D01*
X149397378Y-98753227D01*
X149410910Y-98725605D01*
X149414119Y-98719741D01*
X149456792Y-98662627D01*
X149506735Y-98622714D01*
X149566948Y-98601756D01*
X149646680Y-98592427D01*
X149726527Y-98597480D01*
X149791488Y-98617205D01*
X149840790Y-98642700D01*
X149840790Y-98090931D01*
X149773237Y-98126142D01*
X149745019Y-98138934D01*
X149655950Y-98157023D01*
X149567434Y-98144521D01*
X149485381Y-98102952D01*
X149415704Y-98033843D01*
X149404789Y-98017600D01*
X149394298Y-97993790D01*
X149387455Y-97961418D01*
X149383504Y-97914271D01*
X149381688Y-97846135D01*
X149381362Y-97775142D01*
X149557891Y-97775142D01*
X149558040Y-97834431D01*
X149562573Y-97873969D01*
X149572760Y-97902189D01*
X149589872Y-97927519D01*
X149611610Y-97951069D01*
X149646372Y-97968892D01*
X149698750Y-97973421D01*
X149745020Y-97969480D01*
X149790817Y-97949759D01*
X149820312Y-97909809D01*
X149836104Y-97845600D01*
X149840790Y-97753101D01*
X149839578Y-97703894D01*
X149827481Y-97611006D01*
X149802523Y-97548196D01*
X149764844Y-97515906D01*
X149726789Y-97506822D01*
X149660513Y-97511081D01*
X149604516Y-97537452D01*
X149591114Y-97549545D01*
X149576913Y-97570467D01*
X149568133Y-97601611D01*
X149562919Y-97650710D01*
X149559416Y-97725498D01*
X149557891Y-97775142D01*
X149381362Y-97775142D01*
X149381250Y-97750797D01*
X149381400Y-97707296D01*
X149383962Y-97606111D01*
X149391097Y-97530522D01*
X149404606Y-97474817D01*
X149426294Y-97433283D01*
X149457960Y-97400206D01*
X149501408Y-97369874D01*
X149536640Y-97352468D01*
X149620173Y-97333271D01*
X149708222Y-97335887D01*
X149786481Y-97360772D01*
X149820067Y-97377039D01*
X149836960Y-97378720D01*
X149840790Y-97363916D01*
X149840794Y-97363468D01*
X149849048Y-97348351D01*
X149877517Y-97340603D01*
X149932698Y-97338421D01*
X150024606Y-97338421D01*
X150024606Y-97753101D01*
X150024606Y-99412273D01*
G37*
X147484254Y-91798576D02*
X147559803Y-92199322D01*
X147838567Y-92314238D01*
X148117332Y-92429154D01*
X148451756Y-92201748D01*
X148517946Y-92156917D01*
X148605693Y-92098071D01*
X148681663Y-92047810D01*
X148741911Y-92008715D01*
X148782491Y-91983365D01*
X148799457Y-91974342D01*
X148809877Y-91980759D01*
X148841025Y-92007647D01*
X148888161Y-92051774D01*
X148947293Y-92109087D01*
X149014426Y-92175535D01*
X149085566Y-92247065D01*
X149156719Y-92319626D01*
X149223892Y-92389167D01*
X149283090Y-92451635D01*
X149330319Y-92502978D01*
X149361586Y-92539145D01*
X149372895Y-92556083D01*
X149370264Y-92563361D01*
X149352048Y-92595824D01*
X149318782Y-92649249D01*
X149273164Y-92719449D01*
X149217890Y-92802236D01*
X149155658Y-92893421D01*
X149121506Y-92943152D01*
X149062757Y-93029731D01*
X149012388Y-93105291D01*
X148973086Y-93165733D01*
X148947535Y-93206961D01*
X148938422Y-93224876D01*
X148938571Y-93225869D01*
X148946611Y-93248580D01*
X148965054Y-93294955D01*
X148991331Y-93358937D01*
X149022871Y-93434468D01*
X149057102Y-93515489D01*
X149091454Y-93595943D01*
X149123355Y-93669772D01*
X149150235Y-93730918D01*
X149169522Y-93773322D01*
X149178646Y-93790926D01*
X149184045Y-93792488D01*
X149216846Y-93799531D01*
X149275306Y-93811199D01*
X149354746Y-93826580D01*
X149450486Y-93844760D01*
X149557846Y-93864830D01*
X149614431Y-93875471D01*
X149718289Y-93895773D01*
X149809097Y-93914522D01*
X149881891Y-93930642D01*
X149931708Y-93943056D01*
X149953586Y-93950686D01*
X149957516Y-93958250D01*
X149964034Y-93995209D01*
X149969156Y-94056765D01*
X149972884Y-94137127D01*
X149975223Y-94230503D01*
X149976177Y-94331101D01*
X149975749Y-94433128D01*
X149973945Y-94530793D01*
X149970766Y-94618304D01*
X149966219Y-94689869D01*
X149960306Y-94739696D01*
X149953031Y-94761993D01*
X149948617Y-94764508D01*
X149915694Y-94775296D01*
X149858582Y-94789569D01*
X149783882Y-94805764D01*
X149698196Y-94822319D01*
X149669285Y-94827592D01*
X149535755Y-94852113D01*
X149430813Y-94871821D01*
X149350820Y-94887531D01*
X149292139Y-94900062D01*
X149251132Y-94910229D01*
X149224161Y-94918851D01*
X149207588Y-94926745D01*
X149197775Y-94934727D01*
X149196635Y-94936067D01*
X149180588Y-94963997D01*
X149156843Y-95015104D01*
X149127701Y-95083392D01*
X149095463Y-95162866D01*
X149062430Y-95247529D01*
X149030904Y-95331387D01*
X149003186Y-95408444D01*
X148981577Y-95472704D01*
X148968379Y-95518172D01*
X148965893Y-95538852D01*
X148967555Y-95541535D01*
X148984765Y-95567484D01*
X149017130Y-95615345D01*
X149061650Y-95680710D01*
X149115323Y-95759170D01*
X149175149Y-95846315D01*
X149191567Y-95870292D01*
X149249303Y-95956295D01*
X149299200Y-96033211D01*
X149338409Y-96096477D01*
X149364083Y-96141532D01*
X149373374Y-96163815D01*
X149371372Y-96169673D01*
X149350503Y-96198541D01*
X149309331Y-96245680D01*
X149250803Y-96307920D01*
X149177867Y-96382087D01*
X149093473Y-96465008D01*
X149045234Y-96511421D01*
X148968962Y-96583708D01*
X148902205Y-96645624D01*
X148848546Y-96693911D01*
X148811570Y-96725307D01*
X148794863Y-96736554D01*
X148783385Y-96732384D01*
X148748045Y-96712663D01*
X148696723Y-96680410D01*
X148636113Y-96639711D01*
X148593020Y-96610011D01*
X148506987Y-96551030D01*
X148415179Y-96488390D01*
X148331323Y-96431469D01*
X148167053Y-96320359D01*
X148029160Y-96394916D01*
X147996690Y-96412125D01*
X147937642Y-96441560D01*
X147891979Y-96461883D01*
X147867574Y-96469460D01*
X147859588Y-96459730D01*
X147839756Y-96422679D01*
X147810462Y-96361593D01*
X147773338Y-96280349D01*
X147730013Y-96182823D01*
X147682118Y-96072891D01*
X147631281Y-95954432D01*
X147579133Y-95831321D01*
X147527304Y-95707435D01*
X147477424Y-95586650D01*
X147431123Y-95472844D01*
X147390031Y-95369893D01*
X147355778Y-95281673D01*
X147329993Y-95212062D01*
X147314308Y-95164936D01*
X147310351Y-95144172D01*
X147310619Y-95143565D01*
X147329050Y-95124370D01*
X147367602Y-95094306D01*
X147418316Y-95059609D01*
X147434324Y-95049014D01*
X147556125Y-94948498D01*
X147656929Y-94828777D01*
X147734351Y-94694834D01*
X147786004Y-94551653D01*
X147809500Y-94404216D01*
X147802454Y-94257507D01*
X147773910Y-94127020D01*
X147722659Y-93995257D01*
X147647945Y-93877706D01*
X147545414Y-93766042D01*
X147505127Y-93730369D01*
X147374889Y-93642480D01*
X147234197Y-93583288D01*
X147087127Y-93552265D01*
X146937758Y-93548879D01*
X146790167Y-93572602D01*
X146648429Y-93622904D01*
X146516623Y-93699255D01*
X146398826Y-93801125D01*
X146299114Y-93927984D01*
X146279943Y-93959400D01*
X146214783Y-94102992D01*
X146180177Y-94252517D01*
X146175218Y-94404105D01*
X146199001Y-94553882D01*
X146250619Y-94697976D01*
X146329166Y-94832515D01*
X146433736Y-94953625D01*
X146563422Y-95057434D01*
X146567634Y-95060232D01*
X146617810Y-95095590D01*
X146655417Y-95125653D01*
X146672594Y-95144172D01*
X146670426Y-95158690D01*
X146656951Y-95200965D01*
X146633058Y-95266486D01*
X146600375Y-95351377D01*
X146560533Y-95451759D01*
X146515160Y-95563757D01*
X146465887Y-95683491D01*
X146414341Y-95807084D01*
X146362154Y-95930659D01*
X146310953Y-96050339D01*
X146262368Y-96162245D01*
X146218030Y-96262500D01*
X146179566Y-96347227D01*
X146148606Y-96412547D01*
X146126779Y-96454584D01*
X146115716Y-96469460D01*
X146106516Y-96467446D01*
X146070371Y-96452966D01*
X146016951Y-96427578D01*
X145954131Y-96394916D01*
X145816238Y-96320359D01*
X145651968Y-96431469D01*
X145603436Y-96464370D01*
X145513166Y-96525845D01*
X145423171Y-96587418D01*
X145347177Y-96639711D01*
X145305237Y-96668209D01*
X145250726Y-96703616D01*
X145210309Y-96727855D01*
X145190568Y-96736842D01*
X145182087Y-96733026D01*
X145151429Y-96709656D01*
X145104168Y-96668510D01*
X145044416Y-96613635D01*
X144976288Y-96549077D01*
X144903896Y-96478885D01*
X144831356Y-96407106D01*
X144762780Y-96337786D01*
X144702282Y-96274973D01*
X144653976Y-96222714D01*
X144621976Y-96185057D01*
X144610395Y-96166048D01*
X144611063Y-96162431D01*
X144624847Y-96132993D01*
X144654292Y-96082062D01*
X144696553Y-96014238D01*
X144748785Y-95934123D01*
X144808142Y-95846315D01*
X144824789Y-95822096D01*
X144883244Y-95736868D01*
X144934733Y-95661521D01*
X144976256Y-95600463D01*
X145004811Y-95558104D01*
X145017398Y-95538852D01*
X145017707Y-95538027D01*
X145013993Y-95514473D01*
X144999807Y-95466759D01*
X144977451Y-95400879D01*
X144949227Y-95322830D01*
X144917435Y-95238607D01*
X144884378Y-95154205D01*
X144852356Y-95075621D01*
X144823671Y-95008850D01*
X144800623Y-94959886D01*
X144785515Y-94934727D01*
X144784002Y-94933165D01*
X144773185Y-94925263D01*
X144754915Y-94917294D01*
X144725556Y-94908441D01*
X144681470Y-94897887D01*
X144619018Y-94884815D01*
X144534564Y-94868408D01*
X144424469Y-94847848D01*
X144285095Y-94822319D01*
X144256187Y-94816946D01*
X144173377Y-94800337D01*
X144103718Y-94784600D01*
X144053812Y-94771298D01*
X144030259Y-94761993D01*
X144026319Y-94754230D01*
X144019750Y-94716942D01*
X144014544Y-94655125D01*
X144010706Y-94574572D01*
X144008239Y-94481075D01*
X144007147Y-94380426D01*
X144007435Y-94278417D01*
X144009107Y-94180839D01*
X144012165Y-94093485D01*
X144016615Y-94022147D01*
X144022460Y-93972617D01*
X144029704Y-93950686D01*
X144037101Y-93947446D01*
X144073896Y-93937233D01*
X144136091Y-93922789D01*
X144218723Y-93905189D01*
X144316828Y-93885510D01*
X144425444Y-93864830D01*
X144484750Y-93853781D01*
X144586398Y-93834621D01*
X144673890Y-93817844D01*
X144742549Y-93804361D01*
X144787693Y-93795084D01*
X144804644Y-93790926D01*
X144805281Y-93790069D01*
X144816077Y-93768293D01*
X144836657Y-93722671D01*
X144864449Y-93659258D01*
X144896882Y-93584107D01*
X144931382Y-93503270D01*
X144965378Y-93422799D01*
X144996297Y-93348749D01*
X145021566Y-93287172D01*
X145038615Y-93244121D01*
X145044869Y-93225650D01*
X145042110Y-93219150D01*
X145023750Y-93188222D01*
X144990446Y-93136163D01*
X144944874Y-93067059D01*
X144889711Y-92984993D01*
X144827632Y-92894052D01*
X144793573Y-92844248D01*
X144734797Y-92756931D01*
X144684403Y-92680298D01*
X144645080Y-92618531D01*
X144619514Y-92575806D01*
X144610395Y-92556305D01*
X144616732Y-92545727D01*
X144643237Y-92514119D01*
X144686720Y-92466283D01*
X144743189Y-92406273D01*
X144808653Y-92338142D01*
X144879121Y-92265945D01*
X144950601Y-92193733D01*
X145019100Y-92125562D01*
X145080629Y-92065483D01*
X145131194Y-92017551D01*
X145166805Y-91985820D01*
X145183470Y-91974342D01*
X145192720Y-91978805D01*
X145226689Y-91999502D01*
X145281505Y-92034727D01*
X145353218Y-92081896D01*
X145437878Y-92138431D01*
X145531535Y-92201748D01*
X145865959Y-92429154D01*
X146423487Y-92199322D01*
X146499036Y-91798576D01*
X146574585Y-91397829D01*
X147408706Y-91397829D01*
X147484254Y-91798576D01*
G36*
X147484254Y-91798576D02*
G01*
X147559803Y-92199322D01*
X147838567Y-92314238D01*
X148117332Y-92429154D01*
X148451756Y-92201748D01*
X148517946Y-92156917D01*
X148605693Y-92098071D01*
X148681663Y-92047810D01*
X148741911Y-92008715D01*
X148782491Y-91983365D01*
X148799457Y-91974342D01*
X148809877Y-91980759D01*
X148841025Y-92007647D01*
X148888161Y-92051774D01*
X148947293Y-92109087D01*
X149014426Y-92175535D01*
X149085566Y-92247065D01*
X149156719Y-92319626D01*
X149223892Y-92389167D01*
X149283090Y-92451635D01*
X149330319Y-92502978D01*
X149361586Y-92539145D01*
X149372895Y-92556083D01*
X149370264Y-92563361D01*
X149352048Y-92595824D01*
X149318782Y-92649249D01*
X149273164Y-92719449D01*
X149217890Y-92802236D01*
X149155658Y-92893421D01*
X149121506Y-92943152D01*
X149062757Y-93029731D01*
X149012388Y-93105291D01*
X148973086Y-93165733D01*
X148947535Y-93206961D01*
X148938422Y-93224876D01*
X148938571Y-93225869D01*
X148946611Y-93248580D01*
X148965054Y-93294955D01*
X148991331Y-93358937D01*
X149022871Y-93434468D01*
X149057102Y-93515489D01*
X149091454Y-93595943D01*
X149123355Y-93669772D01*
X149150235Y-93730918D01*
X149169522Y-93773322D01*
X149178646Y-93790926D01*
X149184045Y-93792488D01*
X149216846Y-93799531D01*
X149275306Y-93811199D01*
X149354746Y-93826580D01*
X149450486Y-93844760D01*
X149557846Y-93864830D01*
X149614431Y-93875471D01*
X149718289Y-93895773D01*
X149809097Y-93914522D01*
X149881891Y-93930642D01*
X149931708Y-93943056D01*
X149953586Y-93950686D01*
X149957516Y-93958250D01*
X149964034Y-93995209D01*
X149969156Y-94056765D01*
X149972884Y-94137127D01*
X149975223Y-94230503D01*
X149976177Y-94331101D01*
X149975749Y-94433128D01*
X149973945Y-94530793D01*
X149970766Y-94618304D01*
X149966219Y-94689869D01*
X149960306Y-94739696D01*
X149953031Y-94761993D01*
X149948617Y-94764508D01*
X149915694Y-94775296D01*
X149858582Y-94789569D01*
X149783882Y-94805764D01*
X149698196Y-94822319D01*
X149669285Y-94827592D01*
X149535755Y-94852113D01*
X149430813Y-94871821D01*
X149350820Y-94887531D01*
X149292139Y-94900062D01*
X149251132Y-94910229D01*
X149224161Y-94918851D01*
X149207588Y-94926745D01*
X149197775Y-94934727D01*
X149196635Y-94936067D01*
X149180588Y-94963997D01*
X149156843Y-95015104D01*
X149127701Y-95083392D01*
X149095463Y-95162866D01*
X149062430Y-95247529D01*
X149030904Y-95331387D01*
X149003186Y-95408444D01*
X148981577Y-95472704D01*
X148968379Y-95518172D01*
X148965893Y-95538852D01*
X148967555Y-95541535D01*
X148984765Y-95567484D01*
X149017130Y-95615345D01*
X149061650Y-95680710D01*
X149115323Y-95759170D01*
X149175149Y-95846315D01*
X149191567Y-95870292D01*
X149249303Y-95956295D01*
X149299200Y-96033211D01*
X149338409Y-96096477D01*
X149364083Y-96141532D01*
X149373374Y-96163815D01*
X149371372Y-96169673D01*
X149350503Y-96198541D01*
X149309331Y-96245680D01*
X149250803Y-96307920D01*
X149177867Y-96382087D01*
X149093473Y-96465008D01*
X149045234Y-96511421D01*
X148968962Y-96583708D01*
X148902205Y-96645624D01*
X148848546Y-96693911D01*
X148811570Y-96725307D01*
X148794863Y-96736554D01*
X148783385Y-96732384D01*
X148748045Y-96712663D01*
X148696723Y-96680410D01*
X148636113Y-96639711D01*
X148593020Y-96610011D01*
X148506987Y-96551030D01*
X148415179Y-96488390D01*
X148331323Y-96431469D01*
X148167053Y-96320359D01*
X148029160Y-96394916D01*
X147996690Y-96412125D01*
X147937642Y-96441560D01*
X147891979Y-96461883D01*
X147867574Y-96469460D01*
X147859588Y-96459730D01*
X147839756Y-96422679D01*
X147810462Y-96361593D01*
X147773338Y-96280349D01*
X147730013Y-96182823D01*
X147682118Y-96072891D01*
X147631281Y-95954432D01*
X147579133Y-95831321D01*
X147527304Y-95707435D01*
X147477424Y-95586650D01*
X147431123Y-95472844D01*
X147390031Y-95369893D01*
X147355778Y-95281673D01*
X147329993Y-95212062D01*
X147314308Y-95164936D01*
X147310351Y-95144172D01*
X147310619Y-95143565D01*
X147329050Y-95124370D01*
X147367602Y-95094306D01*
X147418316Y-95059609D01*
X147434324Y-95049014D01*
X147556125Y-94948498D01*
X147656929Y-94828777D01*
X147734351Y-94694834D01*
X147786004Y-94551653D01*
X147809500Y-94404216D01*
X147802454Y-94257507D01*
X147773910Y-94127020D01*
X147722659Y-93995257D01*
X147647945Y-93877706D01*
X147545414Y-93766042D01*
X147505127Y-93730369D01*
X147374889Y-93642480D01*
X147234197Y-93583288D01*
X147087127Y-93552265D01*
X146937758Y-93548879D01*
X146790167Y-93572602D01*
X146648429Y-93622904D01*
X146516623Y-93699255D01*
X146398826Y-93801125D01*
X146299114Y-93927984D01*
X146279943Y-93959400D01*
X146214783Y-94102992D01*
X146180177Y-94252517D01*
X146175218Y-94404105D01*
X146199001Y-94553882D01*
X146250619Y-94697976D01*
X146329166Y-94832515D01*
X146433736Y-94953625D01*
X146563422Y-95057434D01*
X146567634Y-95060232D01*
X146617810Y-95095590D01*
X146655417Y-95125653D01*
X146672594Y-95144172D01*
X146670426Y-95158690D01*
X146656951Y-95200965D01*
X146633058Y-95266486D01*
X146600375Y-95351377D01*
X146560533Y-95451759D01*
X146515160Y-95563757D01*
X146465887Y-95683491D01*
X146414341Y-95807084D01*
X146362154Y-95930659D01*
X146310953Y-96050339D01*
X146262368Y-96162245D01*
X146218030Y-96262500D01*
X146179566Y-96347227D01*
X146148606Y-96412547D01*
X146126779Y-96454584D01*
X146115716Y-96469460D01*
X146106516Y-96467446D01*
X146070371Y-96452966D01*
X146016951Y-96427578D01*
X145954131Y-96394916D01*
X145816238Y-96320359D01*
X145651968Y-96431469D01*
X145603436Y-96464370D01*
X145513166Y-96525845D01*
X145423171Y-96587418D01*
X145347177Y-96639711D01*
X145305237Y-96668209D01*
X145250726Y-96703616D01*
X145210309Y-96727855D01*
X145190568Y-96736842D01*
X145182087Y-96733026D01*
X145151429Y-96709656D01*
X145104168Y-96668510D01*
X145044416Y-96613635D01*
X144976288Y-96549077D01*
X144903896Y-96478885D01*
X144831356Y-96407106D01*
X144762780Y-96337786D01*
X144702282Y-96274973D01*
X144653976Y-96222714D01*
X144621976Y-96185057D01*
X144610395Y-96166048D01*
X144611063Y-96162431D01*
X144624847Y-96132993D01*
X144654292Y-96082062D01*
X144696553Y-96014238D01*
X144748785Y-95934123D01*
X144808142Y-95846315D01*
X144824789Y-95822096D01*
X144883244Y-95736868D01*
X144934733Y-95661521D01*
X144976256Y-95600463D01*
X145004811Y-95558104D01*
X145017398Y-95538852D01*
X145017707Y-95538027D01*
X145013993Y-95514473D01*
X144999807Y-95466759D01*
X144977451Y-95400879D01*
X144949227Y-95322830D01*
X144917435Y-95238607D01*
X144884378Y-95154205D01*
X144852356Y-95075621D01*
X144823671Y-95008850D01*
X144800623Y-94959886D01*
X144785515Y-94934727D01*
X144784002Y-94933165D01*
X144773185Y-94925263D01*
X144754915Y-94917294D01*
X144725556Y-94908441D01*
X144681470Y-94897887D01*
X144619018Y-94884815D01*
X144534564Y-94868408D01*
X144424469Y-94847848D01*
X144285095Y-94822319D01*
X144256187Y-94816946D01*
X144173377Y-94800337D01*
X144103718Y-94784600D01*
X144053812Y-94771298D01*
X144030259Y-94761993D01*
X144026319Y-94754230D01*
X144019750Y-94716942D01*
X144014544Y-94655125D01*
X144010706Y-94574572D01*
X144008239Y-94481075D01*
X144007147Y-94380426D01*
X144007435Y-94278417D01*
X144009107Y-94180839D01*
X144012165Y-94093485D01*
X144016615Y-94022147D01*
X144022460Y-93972617D01*
X144029704Y-93950686D01*
X144037101Y-93947446D01*
X144073896Y-93937233D01*
X144136091Y-93922789D01*
X144218723Y-93905189D01*
X144316828Y-93885510D01*
X144425444Y-93864830D01*
X144484750Y-93853781D01*
X144586398Y-93834621D01*
X144673890Y-93817844D01*
X144742549Y-93804361D01*
X144787693Y-93795084D01*
X144804644Y-93790926D01*
X144805281Y-93790069D01*
X144816077Y-93768293D01*
X144836657Y-93722671D01*
X144864449Y-93659258D01*
X144896882Y-93584107D01*
X144931382Y-93503270D01*
X144965378Y-93422799D01*
X144996297Y-93348749D01*
X145021566Y-93287172D01*
X145038615Y-93244121D01*
X145044869Y-93225650D01*
X145042110Y-93219150D01*
X145023750Y-93188222D01*
X144990446Y-93136163D01*
X144944874Y-93067059D01*
X144889711Y-92984993D01*
X144827632Y-92894052D01*
X144793573Y-92844248D01*
X144734797Y-92756931D01*
X144684403Y-92680298D01*
X144645080Y-92618531D01*
X144619514Y-92575806D01*
X144610395Y-92556305D01*
X144616732Y-92545727D01*
X144643237Y-92514119D01*
X144686720Y-92466283D01*
X144743189Y-92406273D01*
X144808653Y-92338142D01*
X144879121Y-92265945D01*
X144950601Y-92193733D01*
X145019100Y-92125562D01*
X145080629Y-92065483D01*
X145131194Y-92017551D01*
X145166805Y-91985820D01*
X145183470Y-91974342D01*
X145192720Y-91978805D01*
X145226689Y-91999502D01*
X145281505Y-92034727D01*
X145353218Y-92081896D01*
X145437878Y-92138431D01*
X145531535Y-92201748D01*
X145865959Y-92429154D01*
X146423487Y-92199322D01*
X146499036Y-91798576D01*
X146574585Y-91397829D01*
X147408706Y-91397829D01*
X147484254Y-91798576D01*
G37*
G36*
X142480000Y-79900000D02*
G01*
X142480000Y-81360000D01*
X140940000Y-81360000D01*
X140926781Y-81359999D01*
X140537008Y-81359795D01*
X140219633Y-81358976D01*
X139967279Y-81357206D01*
X139772571Y-81354150D01*
X139628134Y-81349471D01*
X139526592Y-81342835D01*
X139460570Y-81333905D01*
X139422692Y-81322347D01*
X139405583Y-81307823D01*
X139401868Y-81290000D01*
X139408537Y-81225851D01*
X139426756Y-81105176D01*
X139452164Y-80960000D01*
X139500594Y-80700000D01*
X140650297Y-80689386D01*
X141800000Y-80678773D01*
X141800000Y-80459386D01*
X141800000Y-80240000D01*
X140660000Y-80240000D01*
X139520000Y-80240000D01*
X139520000Y-79900000D01*
X139520000Y-79560000D01*
X140660000Y-79560000D01*
X141800000Y-79560000D01*
X141800000Y-79340613D01*
X141800000Y-79121226D01*
X140651682Y-79110613D01*
X139503364Y-79100000D01*
X139437414Y-78770000D01*
X139371463Y-78440000D01*
X140925732Y-78440000D01*
X142480000Y-78440000D01*
X142480000Y-79900000D01*
G37*
G36*
X138017863Y-78441258D02*
G01*
X138125220Y-78471013D01*
X138257570Y-78535685D01*
X138383853Y-78617878D01*
X138473009Y-78700196D01*
X138481643Y-78711363D01*
X138535573Y-78794444D01*
X138576371Y-78890586D01*
X138605456Y-79010923D01*
X138624245Y-79166590D01*
X138634156Y-79368720D01*
X138636606Y-79628449D01*
X138633013Y-79956909D01*
X138627349Y-80244550D01*
X138619099Y-80479915D01*
X138605802Y-80658942D01*
X138584728Y-80793750D01*
X138553149Y-80896457D01*
X138508334Y-80979182D01*
X138447555Y-81054045D01*
X138368081Y-81133163D01*
X138357492Y-81142901D01*
X138230910Y-81233954D01*
X138094510Y-81301407D01*
X138076131Y-81307263D01*
X137994058Y-81323814D01*
X137872156Y-81336663D01*
X137702396Y-81346171D01*
X137476746Y-81352698D01*
X137187179Y-81356602D01*
X136825664Y-81358244D01*
X135711328Y-81360000D01*
X135732787Y-81270000D01*
X135747277Y-81204206D01*
X135773355Y-81077297D01*
X135802328Y-80930000D01*
X135850409Y-80680000D01*
X136825205Y-80680000D01*
X136841850Y-80679999D01*
X137143358Y-80679629D01*
X137375506Y-80678046D01*
X137548441Y-80674481D01*
X137672307Y-80668165D01*
X137757251Y-80658329D01*
X137813418Y-80644202D01*
X137850952Y-80625015D01*
X137880000Y-80600000D01*
X137889128Y-80590529D01*
X137911440Y-80560680D01*
X137928512Y-80519244D01*
X137941042Y-80456447D01*
X137949729Y-80362517D01*
X137955270Y-80227680D01*
X137958363Y-80042164D01*
X137959708Y-79796195D01*
X137960000Y-79480000D01*
X137960248Y-79289114D01*
X137962106Y-78999670D01*
X137966075Y-78779054D01*
X137972503Y-78620068D01*
X137981735Y-78515510D01*
X137994119Y-78458180D01*
X138010000Y-78440878D01*
X138017863Y-78441258D01*
G37*
G36*
X155120000Y-78780000D02*
G01*
X155120000Y-79120000D01*
X153681408Y-79120000D01*
X153317918Y-79120146D01*
X153009791Y-79120876D01*
X152766154Y-79122602D01*
X152579090Y-79125740D01*
X152440682Y-79130702D01*
X152343014Y-79137903D01*
X152278169Y-79147756D01*
X152238231Y-79160676D01*
X152215283Y-79177076D01*
X152201408Y-79197370D01*
X152198747Y-79202640D01*
X152171294Y-79299453D01*
X152160000Y-79420000D01*
X152160086Y-79429492D01*
X152173060Y-79550044D01*
X152201408Y-79642629D01*
X152205039Y-79649081D01*
X152221707Y-79669351D01*
X152250440Y-79685345D01*
X152299729Y-79697569D01*
X152378067Y-79706526D01*
X152493944Y-79712723D01*
X152655854Y-79716664D01*
X152872287Y-79718854D01*
X153151736Y-79719797D01*
X153502693Y-79720000D01*
X153696518Y-79720151D01*
X154046144Y-79721806D01*
X154327774Y-79726099D01*
X154549522Y-79734029D01*
X154719500Y-79746596D01*
X154845821Y-79764801D01*
X154936597Y-79789642D01*
X154999940Y-79822120D01*
X155043964Y-79863234D01*
X155076781Y-79913984D01*
X155083060Y-79931168D01*
X155098343Y-80029241D01*
X155109985Y-80193196D01*
X155117399Y-80412687D01*
X155120000Y-80677370D01*
X155120000Y-81360000D01*
X154780000Y-81360000D01*
X154440000Y-81360000D01*
X154440000Y-80880000D01*
X154440000Y-80400000D01*
X153290000Y-80399121D01*
X153204688Y-80399037D01*
X152882998Y-80398136D01*
X152629123Y-80395939D01*
X152433169Y-80391879D01*
X152285247Y-80385389D01*
X152175464Y-80375901D01*
X152093930Y-80362849D01*
X152030754Y-80345665D01*
X151976043Y-80323782D01*
X151819105Y-80221373D01*
X151667127Y-80043184D01*
X151556581Y-79814792D01*
X151496016Y-79549982D01*
X151489347Y-79425210D01*
X151520154Y-79176622D01*
X151602624Y-78942566D01*
X151728117Y-78738947D01*
X151887994Y-78581670D01*
X152073616Y-78486638D01*
X152157740Y-78472463D01*
X152313269Y-78460620D01*
X152540712Y-78451511D01*
X152842081Y-78445076D01*
X153219387Y-78441259D01*
X153674641Y-78440000D01*
X155120000Y-78440000D01*
X155120000Y-78780000D01*
G37*
G36*
X149213558Y-78440527D02*
G01*
X149482804Y-78444358D01*
X149725934Y-78450841D01*
X149929490Y-78459967D01*
X150080009Y-78471729D01*
X150164032Y-78486118D01*
X150193654Y-78496570D01*
X150373979Y-78587242D01*
X150511505Y-78718866D01*
X150627531Y-78910965D01*
X150740000Y-79140000D01*
X150753297Y-80250000D01*
X150766593Y-81360000D01*
X150423297Y-81360000D01*
X150080000Y-81360000D01*
X150080000Y-80342603D01*
X150079128Y-80124174D01*
X150075517Y-79854899D01*
X150069485Y-79618266D01*
X150061445Y-79426113D01*
X150051810Y-79290279D01*
X150040991Y-79222603D01*
X150001981Y-79120000D01*
X148962398Y-79120000D01*
X148706444Y-79119753D01*
X148432104Y-79120250D01*
X148222515Y-79124504D01*
X148069004Y-79135586D01*
X147962901Y-79156565D01*
X147895533Y-79190511D01*
X147858231Y-79240495D01*
X147842322Y-79309586D01*
X147839136Y-79400854D01*
X147840000Y-79517370D01*
X147840000Y-79760000D01*
X148590000Y-79760149D01*
X148879419Y-79761500D01*
X149111563Y-79768009D01*
X149285144Y-79783391D01*
X149411070Y-79811360D01*
X149500248Y-79855635D01*
X149563584Y-79919929D01*
X149611987Y-80007960D01*
X149656363Y-80123443D01*
X149688913Y-80215680D01*
X149728103Y-80326526D01*
X149750643Y-80390000D01*
X149750525Y-80397210D01*
X149724344Y-80411928D01*
X149655507Y-80423085D01*
X149536547Y-80431077D01*
X149360000Y-80436297D01*
X149118399Y-80439140D01*
X148804280Y-80440000D01*
X147840000Y-80440000D01*
X147840000Y-80900000D01*
X147840000Y-81360000D01*
X147500000Y-81360000D01*
X147160000Y-81360000D01*
X147160000Y-80307260D01*
X147160253Y-80121251D01*
X147162383Y-79813941D01*
X147167090Y-79571381D01*
X147174867Y-79383507D01*
X147186204Y-79240252D01*
X147201593Y-79131552D01*
X147221526Y-79047340D01*
X147278953Y-78904639D01*
X147404670Y-78716976D01*
X147564307Y-78570516D01*
X147740000Y-78484647D01*
X147803470Y-78473686D01*
X147946731Y-78461435D01*
X148144642Y-78451885D01*
X148383740Y-78445027D01*
X148650566Y-78440853D01*
X148931659Y-78439356D01*
X149213558Y-78440527D01*
G37*
G36*
X133499814Y-78441609D02*
G01*
X133769404Y-78443403D01*
X133977802Y-78447064D01*
X134135248Y-78453197D01*
X134251984Y-78462411D01*
X134338251Y-78475311D01*
X134404291Y-78492505D01*
X134460344Y-78514599D01*
X134522789Y-78547191D01*
X134693939Y-78679802D01*
X134833317Y-78849120D01*
X134917595Y-79028906D01*
X134925888Y-79076868D01*
X134937117Y-79209329D01*
X134946464Y-79404983D01*
X134953585Y-79653719D01*
X134958137Y-79945428D01*
X134959777Y-80270000D01*
X134960000Y-81360000D01*
X134620000Y-81360000D01*
X134280000Y-81360000D01*
X134280000Y-80287999D01*
X134278919Y-79943048D01*
X134275402Y-79662603D01*
X134269200Y-79450675D01*
X134260065Y-79301464D01*
X134247748Y-79209172D01*
X134232000Y-79167999D01*
X134182536Y-79153161D01*
X134064788Y-79140136D01*
X133893054Y-79129985D01*
X133680728Y-79122709D01*
X133441202Y-79118309D01*
X133187872Y-79116783D01*
X132934129Y-79118132D01*
X132693367Y-79122356D01*
X132478980Y-79129454D01*
X132304361Y-79139428D01*
X132182903Y-79152276D01*
X132128000Y-79168000D01*
X132105891Y-79217382D01*
X132087017Y-79332633D01*
X132080000Y-79488000D01*
X132080000Y-79760000D01*
X132822630Y-79760000D01*
X132907928Y-79760032D01*
X133186760Y-79761980D01*
X133399648Y-79770273D01*
X133557730Y-79789495D01*
X133672142Y-79824230D01*
X133754023Y-79879064D01*
X133814510Y-79958581D01*
X133864740Y-80067364D01*
X133915850Y-80210000D01*
X133994755Y-80440000D01*
X133037378Y-80440000D01*
X132080000Y-80440000D01*
X132080000Y-80900000D01*
X132080000Y-81360000D01*
X131740000Y-81360000D01*
X131400000Y-81360000D01*
X131400000Y-80274640D01*
X131400009Y-80245458D01*
X131402093Y-79852330D01*
X131407925Y-79536387D01*
X131417604Y-79295066D01*
X131431231Y-79125807D01*
X131448906Y-79026048D01*
X131452060Y-79015953D01*
X131536044Y-78849435D01*
X131667331Y-78689732D01*
X131822968Y-78560250D01*
X131980000Y-78484401D01*
X132003484Y-78479348D01*
X132122932Y-78466115D01*
X132312013Y-78455406D01*
X132563021Y-78447487D01*
X132868252Y-78442629D01*
X133220000Y-78441101D01*
X133499814Y-78441609D01*
G37*
G36*
X144669428Y-78440328D02*
G01*
X145006860Y-78442820D01*
X145279574Y-78449061D01*
X145496848Y-78460570D01*
X145667960Y-78478864D01*
X145802191Y-78505463D01*
X145908818Y-78541885D01*
X145997120Y-78589649D01*
X146076376Y-78650273D01*
X146155864Y-78725275D01*
X146234742Y-78811298D01*
X146313650Y-78925399D01*
X146370476Y-79055834D01*
X146407972Y-79215251D01*
X146428890Y-79416295D01*
X146435985Y-79671612D01*
X146432008Y-79993850D01*
X146427007Y-80169814D01*
X146415879Y-80411374D01*
X146400517Y-80590248D01*
X146379858Y-80717307D01*
X146352840Y-80803423D01*
X146307285Y-80888565D01*
X146167135Y-81062145D01*
X145989939Y-81206828D01*
X145803013Y-81298041D01*
X145762693Y-81308462D01*
X145665931Y-81324014D01*
X145529879Y-81336127D01*
X145346398Y-81345153D01*
X145107351Y-81351442D01*
X144804597Y-81355345D01*
X144430000Y-81357213D01*
X144160284Y-81357695D01*
X143876087Y-81357461D01*
X143657024Y-81355824D01*
X143494710Y-81352311D01*
X143380762Y-81346446D01*
X143306799Y-81337756D01*
X143264436Y-81325768D01*
X143245290Y-81310007D01*
X143240978Y-81290000D01*
X143244408Y-81245937D01*
X143260603Y-81145552D01*
X143292087Y-80990759D01*
X143341086Y-80770000D01*
X143361525Y-80680000D01*
X144480763Y-80680000D01*
X144718454Y-80679890D01*
X144997353Y-80679053D01*
X145212166Y-80676853D01*
X145372263Y-80672663D01*
X145487016Y-80665859D01*
X145565795Y-80655816D01*
X145617972Y-80641908D01*
X145652916Y-80623511D01*
X145680000Y-80600000D01*
X145685677Y-80594202D01*
X145714725Y-80556481D01*
X145735080Y-80505314D01*
X145748264Y-80427391D01*
X145755799Y-80309405D01*
X145759204Y-80138044D01*
X145760000Y-79900000D01*
X145759985Y-79855991D01*
X145758866Y-79629752D01*
X145754890Y-79468021D01*
X145746537Y-79357490D01*
X145732285Y-79284849D01*
X145710613Y-79236789D01*
X145680000Y-79200000D01*
X145661492Y-79183018D01*
X145629908Y-79163143D01*
X145583920Y-79147946D01*
X145514159Y-79136802D01*
X145411253Y-79129086D01*
X145265831Y-79124173D01*
X145068523Y-79121438D01*
X144809957Y-79120255D01*
X144480763Y-79120000D01*
X143361525Y-79120000D01*
X143341086Y-79030000D01*
X143304868Y-78868115D01*
X143268355Y-78694715D01*
X143247800Y-78579196D01*
X143240978Y-78510000D01*
X143242836Y-78495477D01*
X143256803Y-78478356D01*
X143291679Y-78465154D01*
X143355905Y-78455367D01*
X143457923Y-78448490D01*
X143606174Y-78444019D01*
X143809099Y-78441450D01*
X144075141Y-78440278D01*
X144412740Y-78440000D01*
X144669428Y-78440328D01*
G37*
G36*
X157289238Y-78440878D02*
G01*
X157629598Y-78441299D01*
X157971464Y-78443079D01*
X158248771Y-78447548D01*
X158469940Y-78456078D01*
X158643393Y-78470043D01*
X158777550Y-78490815D01*
X158880833Y-78519767D01*
X158961664Y-78558271D01*
X159028463Y-78607702D01*
X159089652Y-78669432D01*
X159153652Y-78744834D01*
X159202642Y-78810365D01*
X159313490Y-79037515D01*
X159361064Y-79285269D01*
X159345737Y-79535768D01*
X159267883Y-79771155D01*
X159127879Y-79973571D01*
X159108041Y-79994365D01*
X159041809Y-80059862D01*
X158976709Y-80111391D01*
X158902601Y-80150844D01*
X158809344Y-80180115D01*
X158686797Y-80201096D01*
X158524821Y-80215682D01*
X158313275Y-80225766D01*
X158042018Y-80233241D01*
X157700910Y-80240000D01*
X156621820Y-80260000D01*
X156583755Y-80368388D01*
X156567652Y-80438025D01*
X156591988Y-80578388D01*
X156638285Y-80680000D01*
X157932331Y-80680000D01*
X159226376Y-80680000D01*
X159293188Y-80990913D01*
X159301289Y-81028836D01*
X159331161Y-81173068D01*
X159352104Y-81281256D01*
X159360000Y-81332355D01*
X159325370Y-81338749D01*
X159219341Y-81344394D01*
X159050758Y-81348786D01*
X158828577Y-81351806D01*
X158561754Y-81353335D01*
X158259243Y-81353253D01*
X157930000Y-81351441D01*
X157618145Y-81348824D01*
X157299208Y-81345543D01*
X157044640Y-81341720D01*
X156845809Y-81336838D01*
X156694086Y-81330382D01*
X156580840Y-81321835D01*
X156497438Y-81310684D01*
X156435252Y-81296410D01*
X156385650Y-81278500D01*
X156340000Y-81256437D01*
X156309448Y-81239393D01*
X156133080Y-81091046D01*
X155997586Y-80886021D01*
X155913809Y-80640000D01*
X155910973Y-80626173D01*
X155889481Y-80477728D01*
X155896578Y-80348602D01*
X155934388Y-80192660D01*
X156028334Y-79962984D01*
X156178717Y-79767955D01*
X156378346Y-79635186D01*
X156412307Y-79620889D01*
X156474807Y-79601225D01*
X156553498Y-79586371D01*
X156659013Y-79575659D01*
X156801986Y-79568421D01*
X156993052Y-79563990D01*
X157242845Y-79561698D01*
X157562000Y-79560878D01*
X157838961Y-79559891D01*
X158125399Y-79556380D01*
X158342156Y-79550099D01*
X158494998Y-79540784D01*
X158589691Y-79528172D01*
X158632000Y-79512000D01*
X158661449Y-79459971D01*
X158678384Y-79352449D01*
X158666559Y-79241129D01*
X158626590Y-79165468D01*
X158598295Y-79155614D01*
X158492726Y-79142317D01*
X158311053Y-79131204D01*
X158052310Y-79122236D01*
X157715528Y-79115371D01*
X157299740Y-79110570D01*
X156026301Y-79100000D01*
X155973384Y-78860000D01*
X155949003Y-78749919D01*
X155919371Y-78617421D01*
X155899471Y-78530000D01*
X155878476Y-78440000D01*
X157289238Y-78440878D01*
G37*
G36*
X130626008Y-79304394D02*
G01*
X130634191Y-79541596D01*
X130638010Y-79840399D01*
X130639122Y-80210000D01*
X130639145Y-80240000D01*
X130640000Y-81360000D01*
X129174641Y-81360000D01*
X128972835Y-81359802D01*
X128564211Y-81357801D01*
X128229571Y-81353547D01*
X127964743Y-81346913D01*
X127765551Y-81337776D01*
X127627823Y-81326011D01*
X127547384Y-81311494D01*
X127536881Y-81308262D01*
X127331109Y-81205283D01*
X127171902Y-81050125D01*
X127063136Y-80857693D01*
X127008684Y-80642895D01*
X127012189Y-80434448D01*
X127682180Y-80434448D01*
X127690477Y-80549586D01*
X127728000Y-80631999D01*
X127728820Y-80632770D01*
X127771791Y-80648217D01*
X127865804Y-80660308D01*
X128016646Y-80669288D01*
X128230103Y-80675401D01*
X128511959Y-80678891D01*
X128868000Y-80680000D01*
X129960000Y-80680000D01*
X129960000Y-80460000D01*
X129960000Y-80240000D01*
X128868000Y-80240000D01*
X128850459Y-80240002D01*
X128497850Y-80241212D01*
X128219168Y-80244812D01*
X128008627Y-80251048D01*
X127860443Y-80260162D01*
X127768830Y-80272398D01*
X127728000Y-80288000D01*
X127703109Y-80328332D01*
X127682180Y-80434448D01*
X127012189Y-80434448D01*
X127012421Y-80420635D01*
X127078221Y-80205820D01*
X127209960Y-80013355D01*
X127329190Y-79886710D01*
X127226810Y-79752483D01*
X127141256Y-79607435D01*
X127077832Y-79391243D01*
X127074819Y-79314448D01*
X127722180Y-79314448D01*
X127730477Y-79429586D01*
X127768000Y-79511999D01*
X127807547Y-79527397D01*
X127898492Y-79539796D01*
X128046211Y-79549008D01*
X128256502Y-79555280D01*
X128535166Y-79558861D01*
X128888000Y-79560000D01*
X129960000Y-79560000D01*
X129960000Y-79340000D01*
X129960000Y-79120000D01*
X128888000Y-79120000D01*
X128543049Y-79121081D01*
X128262604Y-79124598D01*
X128050676Y-79130800D01*
X127901465Y-79139935D01*
X127809173Y-79152252D01*
X127768000Y-79168000D01*
X127743109Y-79208332D01*
X127722180Y-79314448D01*
X127074819Y-79314448D01*
X127068932Y-79164399D01*
X127112527Y-78945856D01*
X127206591Y-78754567D01*
X127349095Y-78609486D01*
X127402582Y-78574094D01*
X127477905Y-78533349D01*
X127562974Y-78501738D01*
X127667822Y-78478120D01*
X127802486Y-78461354D01*
X127977000Y-78450300D01*
X128201401Y-78443817D01*
X128485722Y-78440764D01*
X128840001Y-78439999D01*
X129177086Y-78440619D01*
X129465087Y-78443421D01*
X129692698Y-78449678D01*
X129869993Y-78460659D01*
X130007048Y-78477635D01*
X130113937Y-78501875D01*
X130200735Y-78534650D01*
X130277515Y-78577228D01*
X130354354Y-78630880D01*
X130392387Y-78659873D01*
X130461582Y-78720570D01*
X130516463Y-78787696D01*
X130558687Y-78870446D01*
X130589914Y-78978015D01*
X130611802Y-79119599D01*
X130611833Y-79120000D01*
X130626008Y-79304394D01*
G37*
G36*
X159446584Y-75952531D02*
G01*
X160018625Y-76041042D01*
X160575407Y-76188931D01*
X161101131Y-76392989D01*
X161580000Y-76650003D01*
X161600117Y-76662730D01*
X161810674Y-76805985D01*
X162038336Y-76975751D01*
X162261759Y-77154971D01*
X162459603Y-77326590D01*
X162610525Y-77473552D01*
X162801049Y-77677693D01*
X163410525Y-77720589D01*
X163492943Y-77726569D01*
X164165180Y-77790534D01*
X164762613Y-77876493D01*
X165287252Y-77984854D01*
X165741107Y-78116023D01*
X166126188Y-78270407D01*
X166231899Y-78322922D01*
X166534895Y-78511006D01*
X166761140Y-78717748D01*
X166911166Y-78942063D01*
X166985506Y-79182867D01*
X166984692Y-79439077D01*
X166909257Y-79709609D01*
X166759733Y-79993378D01*
X166536653Y-80289303D01*
X166240548Y-80596298D01*
X165871952Y-80913280D01*
X165431396Y-81239165D01*
X164919413Y-81572869D01*
X164336537Y-81913309D01*
X163893073Y-82159701D01*
X163764893Y-82549850D01*
X163549778Y-83095680D01*
X163255651Y-83641265D01*
X162900502Y-84143313D01*
X162489833Y-84597079D01*
X162029140Y-84997815D01*
X161523925Y-85340774D01*
X160979686Y-85621211D01*
X160401921Y-85834377D01*
X159796131Y-85975528D01*
X159679636Y-85992345D01*
X159390663Y-86018326D01*
X159070818Y-86030454D01*
X158747497Y-86028611D01*
X158448093Y-86012674D01*
X158200000Y-85982525D01*
X157900000Y-85930071D01*
X158114867Y-85925035D01*
X158331708Y-85911360D01*
X158633339Y-85874305D01*
X158952576Y-85819826D01*
X159258145Y-85753375D01*
X159518773Y-85680401D01*
X159655733Y-85633341D01*
X160218578Y-85388719D01*
X160743528Y-85076294D01*
X161224962Y-84700901D01*
X161657253Y-84267373D01*
X162034780Y-83780544D01*
X162351917Y-83245249D01*
X162430509Y-83087717D01*
X162495466Y-82949857D01*
X162536454Y-82853589D01*
X162546869Y-82813535D01*
X162543236Y-82812811D01*
X162486451Y-82827016D01*
X162373165Y-82865366D01*
X162217534Y-82922867D01*
X162033719Y-82994527D01*
X161677116Y-83132641D01*
X160824855Y-83433704D01*
X159907986Y-83720870D01*
X158936688Y-83991695D01*
X157921139Y-84243734D01*
X156871517Y-84474544D01*
X155798001Y-84681679D01*
X154710770Y-84862696D01*
X153620000Y-85015149D01*
X153510050Y-85028857D01*
X153196508Y-85066404D01*
X152877856Y-85102552D01*
X152564662Y-85136281D01*
X152267492Y-85166568D01*
X151996912Y-85192392D01*
X151763490Y-85212730D01*
X151577793Y-85226560D01*
X151450388Y-85232862D01*
X151391840Y-85230613D01*
X151392141Y-85223717D01*
X151445584Y-85199420D01*
X151554134Y-85163883D01*
X151703404Y-85122114D01*
X151749104Y-85110092D01*
X152115475Y-85011417D01*
X152544103Y-84892614D01*
X153022726Y-84757287D01*
X153539082Y-84609041D01*
X154080906Y-84451480D01*
X154635938Y-84288209D01*
X155191913Y-84122832D01*
X155736570Y-83958954D01*
X156257645Y-83800178D01*
X156742876Y-83650110D01*
X157180000Y-83512354D01*
X157289065Y-83477485D01*
X158299298Y-83144888D01*
X159246393Y-82815218D01*
X160128729Y-82489211D01*
X160944688Y-82167607D01*
X161692650Y-81851143D01*
X162370995Y-81540559D01*
X162978105Y-81236591D01*
X163512360Y-80939979D01*
X163972139Y-80651461D01*
X164355825Y-80371774D01*
X164661797Y-80101658D01*
X164719243Y-80043544D01*
X164888863Y-79852773D01*
X165000290Y-79686367D01*
X165061383Y-79530609D01*
X165080000Y-79371786D01*
X165079826Y-79359562D01*
X165036737Y-79170966D01*
X164923786Y-78978448D01*
X164749716Y-78789000D01*
X164523270Y-78609615D01*
X164253190Y-78447286D01*
X163948221Y-78309005D01*
X163617105Y-78201765D01*
X163444986Y-78159077D01*
X163283833Y-78127473D01*
X163190251Y-78122568D01*
X163160000Y-78143825D01*
X163160085Y-78145080D01*
X163183234Y-78193907D01*
X163235015Y-78273825D01*
X163254229Y-78302009D01*
X163346223Y-78457605D01*
X163447671Y-78655868D01*
X163551878Y-78880602D01*
X163652150Y-79115609D01*
X163741793Y-79344691D01*
X163814112Y-79551650D01*
X163862413Y-79720288D01*
X163880000Y-79834409D01*
X163869761Y-79873179D01*
X163796355Y-79960826D01*
X163650000Y-80071918D01*
X163505993Y-80166197D01*
X163341159Y-80269167D01*
X163180784Y-80365181D01*
X163040528Y-80445092D01*
X162936055Y-80499748D01*
X162883024Y-80520000D01*
X162864675Y-80491946D01*
X162842033Y-80403667D01*
X162822739Y-80276096D01*
X162781451Y-80020572D01*
X162669692Y-79602372D01*
X162505722Y-79167791D01*
X162296954Y-78735569D01*
X162050800Y-78324446D01*
X161865029Y-78073207D01*
X161617038Y-77786729D01*
X161340713Y-77505515D01*
X161057717Y-77251514D01*
X160789711Y-77046673D01*
X160446431Y-76832824D01*
X159912184Y-76570421D01*
X159352704Y-76372389D01*
X158779705Y-76241891D01*
X158204899Y-76182091D01*
X157640000Y-76196150D01*
X157541872Y-76204927D01*
X157394326Y-76216332D01*
X157290447Y-76221974D01*
X157248201Y-76220726D01*
X157251361Y-76214641D01*
X157308099Y-76191683D01*
X157420259Y-76158586D01*
X157572059Y-76119181D01*
X157747716Y-76077301D01*
X157931447Y-76036775D01*
X158107469Y-76001436D01*
X158260000Y-75975115D01*
X158319916Y-75966494D01*
X158875082Y-75926611D01*
X159446584Y-75952531D01*
G37*
M02*
