M48
; DRILL file {KiCad 5.1.6-1.fc32} date Sun Jun 21 11:50:32 2020
; FORMAT={-:-/ absolute / metric / decimal}
; #@! TF.CreationDate,2020-06-21T11:50:32-03:00
; #@! TF.GenerationSoftware,Kicad,Pcbnew,5.1.6-1.fc32
; #@! TF.FileFunction,Plated,1,4,PTH
FMAT,2
METRIC
T1C0.400
T2C1.020
T3C3.200
%
G90
G05
T1
X94.0Y-107.0
X95.25Y-107.0
X96.5Y-107.0
X97.75Y-107.0
X99.0Y-107.0
X100.25Y-107.0
X101.5Y-107.0
X102.75Y-107.0
X104.0Y-107.0
X105.25Y-107.0
X106.5Y-107.0
X107.75Y-107.0
X109.0Y-107.0
X117.2Y-107.0
X118.45Y-107.0
X119.7Y-107.0
X120.95Y-107.0
X122.2Y-107.0
X123.45Y-107.0
X124.7Y-107.0
X125.95Y-107.0
X127.2Y-107.0
X128.45Y-107.0
X129.7Y-107.0
X130.95Y-107.0
X132.2Y-107.0
X140.4Y-107.0
X141.65Y-107.0
X142.9Y-107.0
X144.15Y-107.0
X145.4Y-107.0
X146.65Y-107.0
X147.9Y-107.0
X149.15Y-107.0
X150.4Y-107.0
X151.65Y-107.0
X152.9Y-107.0
X154.15Y-107.0
X155.4Y-107.0
X163.6Y-107.0
X164.85Y-107.0
X166.1Y-107.0
X167.35Y-107.0
X168.6Y-107.0
X169.85Y-107.0
X171.1Y-107.0
X172.35Y-107.0
X173.6Y-107.0
X174.85Y-107.0
X176.1Y-107.0
X177.35Y-107.0
X178.6Y-107.0
T2
X104.55Y-85.516
X104.55Y-88.056
X107.09Y-85.516
X107.09Y-88.056
X109.63Y-85.516
X109.63Y-88.056
X112.17Y-85.516
X112.17Y-88.056
X114.71Y-85.516
X114.71Y-88.056
X117.25Y-85.516
X117.25Y-88.056
X119.79Y-85.516
X119.79Y-88.056
X122.33Y-85.516
X122.33Y-88.056
X124.87Y-85.516
X124.87Y-88.056
X127.41Y-85.516
X127.41Y-88.056
X129.95Y-85.516
X129.95Y-88.056
X132.49Y-85.516
X132.49Y-88.056
X135.03Y-85.516
X135.03Y-88.056
X137.57Y-85.516
X137.57Y-88.056
X140.11Y-85.516
X140.11Y-88.056
X142.65Y-85.516
X142.65Y-88.056
X145.19Y-85.516
X145.19Y-88.056
X147.73Y-85.516
X147.73Y-88.056
X150.27Y-85.516
X150.27Y-88.056
X152.81Y-85.516
X152.81Y-88.056
X155.35Y-85.516
X155.35Y-88.056
X157.89Y-85.516
X157.89Y-88.056
X160.43Y-85.516
X160.43Y-88.056
X162.97Y-85.516
X162.97Y-88.056
X165.51Y-85.516
X165.51Y-88.056
X168.05Y-85.516
X168.05Y-88.056
X104.55Y-80.436
X104.55Y-82.976
X107.09Y-80.436
X107.09Y-82.976
X109.63Y-80.436
X109.63Y-82.976
X112.17Y-80.436
X112.17Y-82.976
X114.71Y-80.436
X114.71Y-82.976
X117.25Y-80.436
X117.25Y-82.976
X119.79Y-80.436
X119.79Y-82.976
X122.33Y-80.436
X122.33Y-82.976
X124.87Y-80.436
X124.87Y-82.976
X127.41Y-80.436
X127.41Y-82.976
X129.95Y-80.436
X129.95Y-82.976
X132.49Y-80.436
X132.49Y-82.976
X135.03Y-80.436
X135.03Y-82.976
X137.57Y-80.436
X137.57Y-82.976
X140.11Y-80.436
X140.11Y-82.976
X142.65Y-80.436
X142.65Y-82.976
X145.19Y-80.436
X145.19Y-82.976
X147.73Y-80.436
X147.73Y-82.976
X150.27Y-80.436
X150.27Y-82.976
X152.81Y-80.436
X152.81Y-82.976
X155.35Y-80.436
X155.35Y-82.976
X157.89Y-80.436
X157.89Y-82.976
X160.43Y-80.436
X160.43Y-82.976
X162.97Y-80.436
X162.97Y-82.976
X165.51Y-80.436
X165.51Y-82.976
X168.05Y-80.436
X168.05Y-82.976
T3
X99.46Y-80.436
X173.14Y-80.436
T0
M30
