%TF.GenerationSoftware,KiCad,Pcbnew,5.1.6-1.fc32*%
%TF.CreationDate,2020-06-21T11:50:06-03:00*%
%TF.ProjectId,pc104-adapter,70633130-342d-4616-9461-707465722e6b,rev?*%
%TF.SameCoordinates,Original*%
%TF.FileFunction,Legend,Top*%
%TF.FilePolarity,Positive*%
%FSLAX46Y46*%
G04 Gerber Fmt 4.6, Leading zero omitted, Abs format (unit mm)*
G04 Created by KiCad (PCBNEW 5.1.6-1.fc32) date 2020-06-21 11:50:06*
%MOMM*%
%LPD*%
G01*
G04 APERTURE LIST*
%ADD10C,0.010000*%
%ADD11C,0.200000*%
%ADD12C,0.120000*%
%ADD13C,0.160000*%
%ADD14C,0.150000*%
G04 APERTURE END LIST*
D10*
%TO.C,REF\u002A\u002A*%
G36*
X136855814Y-99768931D02*
G01*
X136939635Y-100213555D01*
X137248920Y-100341053D01*
X137558206Y-100468551D01*
X137929246Y-100216246D01*
X138033157Y-100145996D01*
X138127087Y-100083272D01*
X138206652Y-100030938D01*
X138267470Y-99991857D01*
X138305157Y-99968893D01*
X138315421Y-99963942D01*
X138333910Y-99976676D01*
X138373420Y-100011882D01*
X138429522Y-100065062D01*
X138497787Y-100131718D01*
X138573786Y-100207354D01*
X138653092Y-100287472D01*
X138731275Y-100367574D01*
X138803907Y-100443164D01*
X138866559Y-100509745D01*
X138914803Y-100562818D01*
X138944210Y-100597887D01*
X138951241Y-100609623D01*
X138941123Y-100631260D01*
X138912759Y-100678662D01*
X138869129Y-100747193D01*
X138813218Y-100832215D01*
X138748006Y-100929093D01*
X138710219Y-100984350D01*
X138641343Y-101085248D01*
X138580140Y-101176299D01*
X138529578Y-101252970D01*
X138492628Y-101310728D01*
X138472258Y-101345043D01*
X138469197Y-101352254D01*
X138476136Y-101372748D01*
X138495051Y-101420513D01*
X138523087Y-101488832D01*
X138557391Y-101570989D01*
X138595109Y-101660270D01*
X138633387Y-101749958D01*
X138669370Y-101833338D01*
X138700206Y-101903694D01*
X138723039Y-101954310D01*
X138735017Y-101978471D01*
X138735724Y-101979422D01*
X138754531Y-101984036D01*
X138804618Y-101994328D01*
X138880793Y-102009287D01*
X138977865Y-102027901D01*
X139090643Y-102049159D01*
X139156442Y-102061418D01*
X139276950Y-102084362D01*
X139385797Y-102106195D01*
X139477476Y-102125722D01*
X139546481Y-102141748D01*
X139587304Y-102153079D01*
X139595511Y-102156674D01*
X139603548Y-102181006D01*
X139610033Y-102235959D01*
X139614970Y-102315108D01*
X139618364Y-102412026D01*
X139620218Y-102520287D01*
X139620538Y-102633465D01*
X139619327Y-102745135D01*
X139616590Y-102848868D01*
X139612331Y-102938241D01*
X139606555Y-103006826D01*
X139599267Y-103048197D01*
X139594895Y-103056810D01*
X139568764Y-103067133D01*
X139513393Y-103081892D01*
X139436107Y-103099352D01*
X139344230Y-103117780D01*
X139312158Y-103123741D01*
X139157524Y-103152066D01*
X139035375Y-103174876D01*
X138941673Y-103193080D01*
X138872384Y-103207583D01*
X138823471Y-103219292D01*
X138790897Y-103229115D01*
X138770628Y-103237956D01*
X138758626Y-103246724D01*
X138756947Y-103248457D01*
X138740184Y-103276371D01*
X138714614Y-103330695D01*
X138682788Y-103404777D01*
X138647260Y-103491965D01*
X138610583Y-103585608D01*
X138575311Y-103679052D01*
X138543996Y-103765647D01*
X138519193Y-103838740D01*
X138503454Y-103891678D01*
X138499332Y-103917811D01*
X138499676Y-103918726D01*
X138513641Y-103940086D01*
X138545322Y-103987084D01*
X138591391Y-104054827D01*
X138648518Y-104138423D01*
X138713373Y-104232982D01*
X138731843Y-104259854D01*
X138797699Y-104357275D01*
X138855650Y-104446163D01*
X138902538Y-104521412D01*
X138935207Y-104577920D01*
X138950500Y-104610581D01*
X138951241Y-104614593D01*
X138938392Y-104635684D01*
X138902888Y-104677464D01*
X138849293Y-104735445D01*
X138782171Y-104805135D01*
X138706087Y-104882045D01*
X138625604Y-104961683D01*
X138545287Y-105039561D01*
X138469699Y-105111186D01*
X138403405Y-105172070D01*
X138350969Y-105217721D01*
X138316955Y-105243650D01*
X138307545Y-105247883D01*
X138285643Y-105237912D01*
X138240800Y-105211020D01*
X138180321Y-105171736D01*
X138133789Y-105140117D01*
X138049475Y-105082098D01*
X137949626Y-105013784D01*
X137849473Y-104945579D01*
X137795627Y-104909075D01*
X137613371Y-104785800D01*
X137460381Y-104868520D01*
X137390682Y-104904759D01*
X137331414Y-104932926D01*
X137291311Y-104948991D01*
X137281103Y-104951226D01*
X137268829Y-104934722D01*
X137244613Y-104888082D01*
X137210263Y-104815609D01*
X137167588Y-104721606D01*
X137118394Y-104610374D01*
X137064490Y-104486215D01*
X137007684Y-104353432D01*
X136949782Y-104216327D01*
X136892593Y-104079202D01*
X136837924Y-103946358D01*
X136787584Y-103822098D01*
X136743380Y-103710725D01*
X136707119Y-103616539D01*
X136680609Y-103543844D01*
X136665658Y-103496941D01*
X136663254Y-103480833D01*
X136682311Y-103460286D01*
X136724036Y-103426933D01*
X136779706Y-103387702D01*
X136784378Y-103384599D01*
X136928264Y-103269423D01*
X137044283Y-103135053D01*
X137131430Y-102985784D01*
X137188699Y-102825913D01*
X137215086Y-102659737D01*
X137209585Y-102491552D01*
X137171190Y-102325655D01*
X137098895Y-102166342D01*
X137077626Y-102131487D01*
X136966996Y-101990737D01*
X136836302Y-101877714D01*
X136690064Y-101793003D01*
X136532808Y-101737194D01*
X136369057Y-101710874D01*
X136203333Y-101714630D01*
X136040162Y-101749050D01*
X135884065Y-101814723D01*
X135739567Y-101912235D01*
X135694869Y-101951813D01*
X135581112Y-102075703D01*
X135498218Y-102206124D01*
X135441356Y-102352315D01*
X135409687Y-102497088D01*
X135401869Y-102659860D01*
X135427938Y-102823440D01*
X135485245Y-102982298D01*
X135571144Y-103130906D01*
X135682986Y-103263735D01*
X135818123Y-103375256D01*
X135835883Y-103387011D01*
X135892150Y-103425508D01*
X135934923Y-103458863D01*
X135955372Y-103480160D01*
X135955669Y-103480833D01*
X135951279Y-103503871D01*
X135933876Y-103556157D01*
X135905268Y-103633390D01*
X135867265Y-103731268D01*
X135821674Y-103845491D01*
X135770303Y-103971758D01*
X135714962Y-104105767D01*
X135657458Y-104243218D01*
X135599601Y-104379808D01*
X135543198Y-104511237D01*
X135490058Y-104633205D01*
X135441990Y-104741409D01*
X135400801Y-104831549D01*
X135368301Y-104899323D01*
X135346297Y-104940430D01*
X135337436Y-104951226D01*
X135310360Y-104942819D01*
X135259697Y-104920272D01*
X135194183Y-104887613D01*
X135158159Y-104868520D01*
X135005168Y-104785800D01*
X134822912Y-104909075D01*
X134729875Y-104972228D01*
X134628015Y-105041727D01*
X134532562Y-105107165D01*
X134484750Y-105140117D01*
X134417505Y-105185273D01*
X134360564Y-105221057D01*
X134321354Y-105242938D01*
X134308619Y-105247563D01*
X134290083Y-105235085D01*
X134249059Y-105200252D01*
X134189525Y-105146678D01*
X134115458Y-105077983D01*
X134030835Y-104997781D01*
X133977315Y-104946286D01*
X133883681Y-104854286D01*
X133802759Y-104771999D01*
X133737823Y-104702945D01*
X133692142Y-104650644D01*
X133668989Y-104618616D01*
X133666768Y-104612116D01*
X133677076Y-104587394D01*
X133705561Y-104537405D01*
X133749063Y-104467212D01*
X133804423Y-104381875D01*
X133868480Y-104286456D01*
X133886697Y-104259854D01*
X133953073Y-104163167D01*
X134012622Y-104076117D01*
X134062016Y-104003595D01*
X134097925Y-103950493D01*
X134117019Y-103921703D01*
X134118864Y-103918726D01*
X134116105Y-103895782D01*
X134101462Y-103845336D01*
X134077487Y-103774041D01*
X134046734Y-103688547D01*
X134011756Y-103595507D01*
X133975107Y-103501574D01*
X133939339Y-103413399D01*
X133907006Y-103337634D01*
X133880662Y-103280931D01*
X133862858Y-103249943D01*
X133861593Y-103248457D01*
X133850706Y-103239601D01*
X133832318Y-103230843D01*
X133802394Y-103221277D01*
X133756897Y-103209996D01*
X133691791Y-103196093D01*
X133603039Y-103178663D01*
X133486607Y-103156798D01*
X133338458Y-103129591D01*
X133306382Y-103123741D01*
X133211314Y-103105374D01*
X133128435Y-103087405D01*
X133065070Y-103071569D01*
X133028542Y-103059600D01*
X133023644Y-103056810D01*
X133015573Y-103032072D01*
X133009013Y-102976790D01*
X133003967Y-102897389D01*
X133000441Y-102800296D01*
X132998439Y-102691938D01*
X132997964Y-102578740D01*
X132999023Y-102467128D01*
X133001618Y-102363529D01*
X133005754Y-102274368D01*
X133011437Y-102206072D01*
X133018669Y-102165066D01*
X133023029Y-102156674D01*
X133047302Y-102148208D01*
X133102574Y-102134435D01*
X133183338Y-102116550D01*
X133284088Y-102095748D01*
X133399317Y-102073223D01*
X133462098Y-102061418D01*
X133581213Y-102039151D01*
X133687435Y-102018979D01*
X133775573Y-102001915D01*
X133840434Y-101988969D01*
X133876826Y-101981155D01*
X133882816Y-101979422D01*
X133892939Y-101959890D01*
X133914338Y-101912843D01*
X133944161Y-101845003D01*
X133979555Y-101763091D01*
X134017668Y-101673828D01*
X134055647Y-101583935D01*
X134090640Y-101500135D01*
X134119794Y-101429147D01*
X134140257Y-101377694D01*
X134149177Y-101352497D01*
X134149343Y-101351396D01*
X134139231Y-101331519D01*
X134110883Y-101285777D01*
X134067277Y-101218717D01*
X134011394Y-101134884D01*
X133946213Y-101038826D01*
X133908321Y-100983650D01*
X133839275Y-100882481D01*
X133777950Y-100790630D01*
X133727337Y-100712744D01*
X133690429Y-100653469D01*
X133670218Y-100617451D01*
X133667299Y-100609377D01*
X133679847Y-100590584D01*
X133714537Y-100550457D01*
X133766937Y-100493493D01*
X133832616Y-100424185D01*
X133907144Y-100347031D01*
X133986087Y-100266525D01*
X134065017Y-100187163D01*
X134139500Y-100113440D01*
X134205106Y-100049852D01*
X134257404Y-100000894D01*
X134291961Y-99971061D01*
X134303522Y-99963942D01*
X134322346Y-99973953D01*
X134367369Y-100002078D01*
X134434213Y-100045454D01*
X134518501Y-100101218D01*
X134615856Y-100166506D01*
X134689293Y-100216246D01*
X135060333Y-100468551D01*
X135678905Y-100213555D01*
X135762725Y-99768931D01*
X135846546Y-99324307D01*
X136771994Y-99324307D01*
X136855814Y-99768931D01*
G37*
X136855814Y-99768931D02*
X136939635Y-100213555D01*
X137248920Y-100341053D01*
X137558206Y-100468551D01*
X137929246Y-100216246D01*
X138033157Y-100145996D01*
X138127087Y-100083272D01*
X138206652Y-100030938D01*
X138267470Y-99991857D01*
X138305157Y-99968893D01*
X138315421Y-99963942D01*
X138333910Y-99976676D01*
X138373420Y-100011882D01*
X138429522Y-100065062D01*
X138497787Y-100131718D01*
X138573786Y-100207354D01*
X138653092Y-100287472D01*
X138731275Y-100367574D01*
X138803907Y-100443164D01*
X138866559Y-100509745D01*
X138914803Y-100562818D01*
X138944210Y-100597887D01*
X138951241Y-100609623D01*
X138941123Y-100631260D01*
X138912759Y-100678662D01*
X138869129Y-100747193D01*
X138813218Y-100832215D01*
X138748006Y-100929093D01*
X138710219Y-100984350D01*
X138641343Y-101085248D01*
X138580140Y-101176299D01*
X138529578Y-101252970D01*
X138492628Y-101310728D01*
X138472258Y-101345043D01*
X138469197Y-101352254D01*
X138476136Y-101372748D01*
X138495051Y-101420513D01*
X138523087Y-101488832D01*
X138557391Y-101570989D01*
X138595109Y-101660270D01*
X138633387Y-101749958D01*
X138669370Y-101833338D01*
X138700206Y-101903694D01*
X138723039Y-101954310D01*
X138735017Y-101978471D01*
X138735724Y-101979422D01*
X138754531Y-101984036D01*
X138804618Y-101994328D01*
X138880793Y-102009287D01*
X138977865Y-102027901D01*
X139090643Y-102049159D01*
X139156442Y-102061418D01*
X139276950Y-102084362D01*
X139385797Y-102106195D01*
X139477476Y-102125722D01*
X139546481Y-102141748D01*
X139587304Y-102153079D01*
X139595511Y-102156674D01*
X139603548Y-102181006D01*
X139610033Y-102235959D01*
X139614970Y-102315108D01*
X139618364Y-102412026D01*
X139620218Y-102520287D01*
X139620538Y-102633465D01*
X139619327Y-102745135D01*
X139616590Y-102848868D01*
X139612331Y-102938241D01*
X139606555Y-103006826D01*
X139599267Y-103048197D01*
X139594895Y-103056810D01*
X139568764Y-103067133D01*
X139513393Y-103081892D01*
X139436107Y-103099352D01*
X139344230Y-103117780D01*
X139312158Y-103123741D01*
X139157524Y-103152066D01*
X139035375Y-103174876D01*
X138941673Y-103193080D01*
X138872384Y-103207583D01*
X138823471Y-103219292D01*
X138790897Y-103229115D01*
X138770628Y-103237956D01*
X138758626Y-103246724D01*
X138756947Y-103248457D01*
X138740184Y-103276371D01*
X138714614Y-103330695D01*
X138682788Y-103404777D01*
X138647260Y-103491965D01*
X138610583Y-103585608D01*
X138575311Y-103679052D01*
X138543996Y-103765647D01*
X138519193Y-103838740D01*
X138503454Y-103891678D01*
X138499332Y-103917811D01*
X138499676Y-103918726D01*
X138513641Y-103940086D01*
X138545322Y-103987084D01*
X138591391Y-104054827D01*
X138648518Y-104138423D01*
X138713373Y-104232982D01*
X138731843Y-104259854D01*
X138797699Y-104357275D01*
X138855650Y-104446163D01*
X138902538Y-104521412D01*
X138935207Y-104577920D01*
X138950500Y-104610581D01*
X138951241Y-104614593D01*
X138938392Y-104635684D01*
X138902888Y-104677464D01*
X138849293Y-104735445D01*
X138782171Y-104805135D01*
X138706087Y-104882045D01*
X138625604Y-104961683D01*
X138545287Y-105039561D01*
X138469699Y-105111186D01*
X138403405Y-105172070D01*
X138350969Y-105217721D01*
X138316955Y-105243650D01*
X138307545Y-105247883D01*
X138285643Y-105237912D01*
X138240800Y-105211020D01*
X138180321Y-105171736D01*
X138133789Y-105140117D01*
X138049475Y-105082098D01*
X137949626Y-105013784D01*
X137849473Y-104945579D01*
X137795627Y-104909075D01*
X137613371Y-104785800D01*
X137460381Y-104868520D01*
X137390682Y-104904759D01*
X137331414Y-104932926D01*
X137291311Y-104948991D01*
X137281103Y-104951226D01*
X137268829Y-104934722D01*
X137244613Y-104888082D01*
X137210263Y-104815609D01*
X137167588Y-104721606D01*
X137118394Y-104610374D01*
X137064490Y-104486215D01*
X137007684Y-104353432D01*
X136949782Y-104216327D01*
X136892593Y-104079202D01*
X136837924Y-103946358D01*
X136787584Y-103822098D01*
X136743380Y-103710725D01*
X136707119Y-103616539D01*
X136680609Y-103543844D01*
X136665658Y-103496941D01*
X136663254Y-103480833D01*
X136682311Y-103460286D01*
X136724036Y-103426933D01*
X136779706Y-103387702D01*
X136784378Y-103384599D01*
X136928264Y-103269423D01*
X137044283Y-103135053D01*
X137131430Y-102985784D01*
X137188699Y-102825913D01*
X137215086Y-102659737D01*
X137209585Y-102491552D01*
X137171190Y-102325655D01*
X137098895Y-102166342D01*
X137077626Y-102131487D01*
X136966996Y-101990737D01*
X136836302Y-101877714D01*
X136690064Y-101793003D01*
X136532808Y-101737194D01*
X136369057Y-101710874D01*
X136203333Y-101714630D01*
X136040162Y-101749050D01*
X135884065Y-101814723D01*
X135739567Y-101912235D01*
X135694869Y-101951813D01*
X135581112Y-102075703D01*
X135498218Y-102206124D01*
X135441356Y-102352315D01*
X135409687Y-102497088D01*
X135401869Y-102659860D01*
X135427938Y-102823440D01*
X135485245Y-102982298D01*
X135571144Y-103130906D01*
X135682986Y-103263735D01*
X135818123Y-103375256D01*
X135835883Y-103387011D01*
X135892150Y-103425508D01*
X135934923Y-103458863D01*
X135955372Y-103480160D01*
X135955669Y-103480833D01*
X135951279Y-103503871D01*
X135933876Y-103556157D01*
X135905268Y-103633390D01*
X135867265Y-103731268D01*
X135821674Y-103845491D01*
X135770303Y-103971758D01*
X135714962Y-104105767D01*
X135657458Y-104243218D01*
X135599601Y-104379808D01*
X135543198Y-104511237D01*
X135490058Y-104633205D01*
X135441990Y-104741409D01*
X135400801Y-104831549D01*
X135368301Y-104899323D01*
X135346297Y-104940430D01*
X135337436Y-104951226D01*
X135310360Y-104942819D01*
X135259697Y-104920272D01*
X135194183Y-104887613D01*
X135158159Y-104868520D01*
X135005168Y-104785800D01*
X134822912Y-104909075D01*
X134729875Y-104972228D01*
X134628015Y-105041727D01*
X134532562Y-105107165D01*
X134484750Y-105140117D01*
X134417505Y-105185273D01*
X134360564Y-105221057D01*
X134321354Y-105242938D01*
X134308619Y-105247563D01*
X134290083Y-105235085D01*
X134249059Y-105200252D01*
X134189525Y-105146678D01*
X134115458Y-105077983D01*
X134030835Y-104997781D01*
X133977315Y-104946286D01*
X133883681Y-104854286D01*
X133802759Y-104771999D01*
X133737823Y-104702945D01*
X133692142Y-104650644D01*
X133668989Y-104618616D01*
X133666768Y-104612116D01*
X133677076Y-104587394D01*
X133705561Y-104537405D01*
X133749063Y-104467212D01*
X133804423Y-104381875D01*
X133868480Y-104286456D01*
X133886697Y-104259854D01*
X133953073Y-104163167D01*
X134012622Y-104076117D01*
X134062016Y-104003595D01*
X134097925Y-103950493D01*
X134117019Y-103921703D01*
X134118864Y-103918726D01*
X134116105Y-103895782D01*
X134101462Y-103845336D01*
X134077487Y-103774041D01*
X134046734Y-103688547D01*
X134011756Y-103595507D01*
X133975107Y-103501574D01*
X133939339Y-103413399D01*
X133907006Y-103337634D01*
X133880662Y-103280931D01*
X133862858Y-103249943D01*
X133861593Y-103248457D01*
X133850706Y-103239601D01*
X133832318Y-103230843D01*
X133802394Y-103221277D01*
X133756897Y-103209996D01*
X133691791Y-103196093D01*
X133603039Y-103178663D01*
X133486607Y-103156798D01*
X133338458Y-103129591D01*
X133306382Y-103123741D01*
X133211314Y-103105374D01*
X133128435Y-103087405D01*
X133065070Y-103071569D01*
X133028542Y-103059600D01*
X133023644Y-103056810D01*
X133015573Y-103032072D01*
X133009013Y-102976790D01*
X133003967Y-102897389D01*
X133000441Y-102800296D01*
X132998439Y-102691938D01*
X132997964Y-102578740D01*
X132999023Y-102467128D01*
X133001618Y-102363529D01*
X133005754Y-102274368D01*
X133011437Y-102206072D01*
X133018669Y-102165066D01*
X133023029Y-102156674D01*
X133047302Y-102148208D01*
X133102574Y-102134435D01*
X133183338Y-102116550D01*
X133284088Y-102095748D01*
X133399317Y-102073223D01*
X133462098Y-102061418D01*
X133581213Y-102039151D01*
X133687435Y-102018979D01*
X133775573Y-102001915D01*
X133840434Y-101988969D01*
X133876826Y-101981155D01*
X133882816Y-101979422D01*
X133892939Y-101959890D01*
X133914338Y-101912843D01*
X133944161Y-101845003D01*
X133979555Y-101763091D01*
X134017668Y-101673828D01*
X134055647Y-101583935D01*
X134090640Y-101500135D01*
X134119794Y-101429147D01*
X134140257Y-101377694D01*
X134149177Y-101352497D01*
X134149343Y-101351396D01*
X134139231Y-101331519D01*
X134110883Y-101285777D01*
X134067277Y-101218717D01*
X134011394Y-101134884D01*
X133946213Y-101038826D01*
X133908321Y-100983650D01*
X133839275Y-100882481D01*
X133777950Y-100790630D01*
X133727337Y-100712744D01*
X133690429Y-100653469D01*
X133670218Y-100617451D01*
X133667299Y-100609377D01*
X133679847Y-100590584D01*
X133714537Y-100550457D01*
X133766937Y-100493493D01*
X133832616Y-100424185D01*
X133907144Y-100347031D01*
X133986087Y-100266525D01*
X134065017Y-100187163D01*
X134139500Y-100113440D01*
X134205106Y-100049852D01*
X134257404Y-100000894D01*
X134291961Y-99971061D01*
X134303522Y-99963942D01*
X134322346Y-99973953D01*
X134367369Y-100002078D01*
X134434213Y-100045454D01*
X134518501Y-100101218D01*
X134615856Y-100166506D01*
X134689293Y-100216246D01*
X135060333Y-100468551D01*
X135678905Y-100213555D01*
X135762725Y-99768931D01*
X135846546Y-99324307D01*
X136771994Y-99324307D01*
X136855814Y-99768931D01*
D11*
%TO.C,J10*%
X102830000Y-83796000D02*
X102830000Y-89776000D01*
X102830000Y-89776000D02*
X169770000Y-89776000D01*
X169770000Y-89776000D02*
X169770000Y-83796000D01*
X169770000Y-83796000D02*
X102830000Y-83796000D01*
%TO.C,J9*%
X102830000Y-78716000D02*
X102830000Y-84696000D01*
X102830000Y-84696000D02*
X169770000Y-84696000D01*
X169770000Y-84696000D02*
X169770000Y-78716000D01*
X169770000Y-78716000D02*
X102830000Y-78716000D01*
D12*
%TO.C,J8*%
X161990000Y-95940000D02*
X161990000Y-94990000D01*
X161990000Y-94990000D02*
X162940000Y-94990000D01*
X162940000Y-94990000D02*
X162940000Y-94300000D01*
X180210000Y-95940000D02*
X180210000Y-94990000D01*
X180210000Y-94990000D02*
X179260000Y-94990000D01*
X162360000Y-98910000D02*
X179840000Y-98910000D01*
%TO.C,J7*%
X138790000Y-95940000D02*
X138790000Y-94990000D01*
X138790000Y-94990000D02*
X139740000Y-94990000D01*
X139740000Y-94990000D02*
X139740000Y-94300000D01*
X157010000Y-95940000D02*
X157010000Y-94990000D01*
X157010000Y-94990000D02*
X156060000Y-94990000D01*
X139160000Y-98910000D02*
X156640000Y-98910000D01*
%TO.C,J6*%
X115590000Y-95940000D02*
X115590000Y-94990000D01*
X115590000Y-94990000D02*
X116540000Y-94990000D01*
X116540000Y-94990000D02*
X116540000Y-94300000D01*
X133810000Y-95940000D02*
X133810000Y-94990000D01*
X133810000Y-94990000D02*
X132860000Y-94990000D01*
X115960000Y-98910000D02*
X133440000Y-98910000D01*
%TO.C,J5*%
X92390000Y-95940000D02*
X92390000Y-94990000D01*
X92390000Y-94990000D02*
X93340000Y-94990000D01*
X93340000Y-94990000D02*
X93340000Y-94300000D01*
X110610000Y-95940000D02*
X110610000Y-94990000D01*
X110610000Y-94990000D02*
X109660000Y-94990000D01*
X92760000Y-98910000D02*
X110240000Y-98910000D01*
%TO.C,J4*%
X161990000Y-105940000D02*
X161990000Y-104990000D01*
X161990000Y-104990000D02*
X162940000Y-104990000D01*
X162940000Y-104990000D02*
X162940000Y-104300000D01*
X180210000Y-105940000D02*
X180210000Y-104990000D01*
X180210000Y-104990000D02*
X179260000Y-104990000D01*
X162360000Y-108910000D02*
X179840000Y-108910000D01*
%TO.C,J3*%
X138790000Y-105940000D02*
X138790000Y-104990000D01*
X138790000Y-104990000D02*
X139740000Y-104990000D01*
X139740000Y-104990000D02*
X139740000Y-104300000D01*
X157010000Y-105940000D02*
X157010000Y-104990000D01*
X157010000Y-104990000D02*
X156060000Y-104990000D01*
X139160000Y-108910000D02*
X156640000Y-108910000D01*
%TO.C,J2*%
X115590000Y-105940000D02*
X115590000Y-104990000D01*
X115590000Y-104990000D02*
X116540000Y-104990000D01*
X116540000Y-104990000D02*
X116540000Y-104300000D01*
X133810000Y-105940000D02*
X133810000Y-104990000D01*
X133810000Y-104990000D02*
X132860000Y-104990000D01*
X115960000Y-108910000D02*
X133440000Y-108910000D01*
%TO.C,J1*%
X92390000Y-105940000D02*
X92390000Y-104990000D01*
X92390000Y-104990000D02*
X93340000Y-104990000D01*
X93340000Y-104990000D02*
X93340000Y-104300000D01*
X110610000Y-105940000D02*
X110610000Y-104990000D01*
X110610000Y-104990000D02*
X109660000Y-104990000D01*
X92760000Y-108910000D02*
X110240000Y-108910000D01*
%TO.C,J10*%
D13*
X135490476Y-90252380D02*
X135490476Y-90966666D01*
X135442857Y-91109523D01*
X135347619Y-91204761D01*
X135204761Y-91252380D01*
X135109523Y-91252380D01*
X136490476Y-91252380D02*
X135919047Y-91252380D01*
X136204761Y-91252380D02*
X136204761Y-90252380D01*
X136109523Y-90395238D01*
X136014285Y-90490476D01*
X135919047Y-90538095D01*
X137109523Y-90252380D02*
X137204761Y-90252380D01*
X137300000Y-90300000D01*
X137347619Y-90347619D01*
X137395238Y-90442857D01*
X137442857Y-90633333D01*
X137442857Y-90871428D01*
X137395238Y-91061904D01*
X137347619Y-91157142D01*
X137300000Y-91204761D01*
X137204761Y-91252380D01*
X137109523Y-91252380D01*
X137014285Y-91204761D01*
X136966666Y-91157142D01*
X136919047Y-91061904D01*
X136871428Y-90871428D01*
X136871428Y-90633333D01*
X136919047Y-90442857D01*
X136966666Y-90347619D01*
X137014285Y-90300000D01*
X137109523Y-90252380D01*
X170861904Y-84952380D02*
X170385714Y-84952380D01*
X170338095Y-85428571D01*
X170385714Y-85380952D01*
X170480952Y-85333333D01*
X170719047Y-85333333D01*
X170814285Y-85380952D01*
X170861904Y-85428571D01*
X170909523Y-85523809D01*
X170909523Y-85761904D01*
X170861904Y-85857142D01*
X170814285Y-85904761D01*
X170719047Y-85952380D01*
X170480952Y-85952380D01*
X170385714Y-85904761D01*
X170338095Y-85857142D01*
X171290476Y-85047619D02*
X171338095Y-85000000D01*
X171433333Y-84952380D01*
X171671428Y-84952380D01*
X171766666Y-85000000D01*
X171814285Y-85047619D01*
X171861904Y-85142857D01*
X171861904Y-85238095D01*
X171814285Y-85380952D01*
X171242857Y-85952380D01*
X171861904Y-85952380D01*
X170861904Y-87552380D02*
X170385714Y-87552380D01*
X170338095Y-88028571D01*
X170385714Y-87980952D01*
X170480952Y-87933333D01*
X170719047Y-87933333D01*
X170814285Y-87980952D01*
X170861904Y-88028571D01*
X170909523Y-88123809D01*
X170909523Y-88361904D01*
X170861904Y-88457142D01*
X170814285Y-88504761D01*
X170719047Y-88552380D01*
X170480952Y-88552380D01*
X170385714Y-88504761D01*
X170338095Y-88457142D01*
X171861904Y-88552380D02*
X171290476Y-88552380D01*
X171576190Y-88552380D02*
X171576190Y-87552380D01*
X171480952Y-87695238D01*
X171385714Y-87790476D01*
X171290476Y-87838095D01*
X101174285Y-85147619D02*
X101221904Y-85100000D01*
X101317142Y-85052380D01*
X101555238Y-85052380D01*
X101650476Y-85100000D01*
X101698095Y-85147619D01*
X101745714Y-85242857D01*
X101745714Y-85338095D01*
X101698095Y-85480952D01*
X101126666Y-86052380D01*
X101745714Y-86052380D01*
X101745714Y-88552380D02*
X101174285Y-88552380D01*
X101460000Y-88552380D02*
X101460000Y-87552380D01*
X101364761Y-87695238D01*
X101269523Y-87790476D01*
X101174285Y-87838095D01*
%TO.C,J9*%
X135966666Y-77652380D02*
X135966666Y-78366666D01*
X135919047Y-78509523D01*
X135823809Y-78604761D01*
X135680952Y-78652380D01*
X135585714Y-78652380D01*
X136490476Y-78652380D02*
X136680952Y-78652380D01*
X136776190Y-78604761D01*
X136823809Y-78557142D01*
X136919047Y-78414285D01*
X136966666Y-78223809D01*
X136966666Y-77842857D01*
X136919047Y-77747619D01*
X136871428Y-77700000D01*
X136776190Y-77652380D01*
X136585714Y-77652380D01*
X136490476Y-77700000D01*
X136442857Y-77747619D01*
X136395238Y-77842857D01*
X136395238Y-78080952D01*
X136442857Y-78176190D01*
X136490476Y-78223809D01*
X136585714Y-78271428D01*
X136776190Y-78271428D01*
X136871428Y-78223809D01*
X136919047Y-78176190D01*
X136966666Y-78080952D01*
X167861904Y-77652380D02*
X167385714Y-77652380D01*
X167338095Y-78128571D01*
X167385714Y-78080952D01*
X167480952Y-78033333D01*
X167719047Y-78033333D01*
X167814285Y-78080952D01*
X167861904Y-78128571D01*
X167909523Y-78223809D01*
X167909523Y-78461904D01*
X167861904Y-78557142D01*
X167814285Y-78604761D01*
X167719047Y-78652380D01*
X167480952Y-78652380D01*
X167385714Y-78604761D01*
X167338095Y-78557142D01*
X168290476Y-77747619D02*
X168338095Y-77700000D01*
X168433333Y-77652380D01*
X168671428Y-77652380D01*
X168766666Y-77700000D01*
X168814285Y-77747619D01*
X168861904Y-77842857D01*
X168861904Y-77938095D01*
X168814285Y-78080952D01*
X168242857Y-78652380D01*
X168861904Y-78652380D01*
X170861904Y-82452380D02*
X170385714Y-82452380D01*
X170338095Y-82928571D01*
X170385714Y-82880952D01*
X170480952Y-82833333D01*
X170719047Y-82833333D01*
X170814285Y-82880952D01*
X170861904Y-82928571D01*
X170909523Y-83023809D01*
X170909523Y-83261904D01*
X170861904Y-83357142D01*
X170814285Y-83404761D01*
X170719047Y-83452380D01*
X170480952Y-83452380D01*
X170385714Y-83404761D01*
X170338095Y-83357142D01*
X171861904Y-83452380D02*
X171290476Y-83452380D01*
X171576190Y-83452380D02*
X171576190Y-82452380D01*
X171480952Y-82595238D01*
X171385714Y-82690476D01*
X171290476Y-82738095D01*
X104314285Y-77747619D02*
X104361904Y-77700000D01*
X104457142Y-77652380D01*
X104695238Y-77652380D01*
X104790476Y-77700000D01*
X104838095Y-77747619D01*
X104885714Y-77842857D01*
X104885714Y-77938095D01*
X104838095Y-78080952D01*
X104266666Y-78652380D01*
X104885714Y-78652380D01*
X101745714Y-83452380D02*
X101174285Y-83452380D01*
X101460000Y-83452380D02*
X101460000Y-82452380D01*
X101364761Y-82595238D01*
X101269523Y-82690476D01*
X101174285Y-82738095D01*
%TO.C,J8*%
D14*
X170766666Y-92552380D02*
X170766666Y-93266666D01*
X170719047Y-93409523D01*
X170623809Y-93504761D01*
X170480952Y-93552380D01*
X170385714Y-93552380D01*
X171385714Y-92980952D02*
X171290476Y-92933333D01*
X171242857Y-92885714D01*
X171195238Y-92790476D01*
X171195238Y-92742857D01*
X171242857Y-92647619D01*
X171290476Y-92600000D01*
X171385714Y-92552380D01*
X171576190Y-92552380D01*
X171671428Y-92600000D01*
X171719047Y-92647619D01*
X171766666Y-92742857D01*
X171766666Y-92790476D01*
X171719047Y-92885714D01*
X171671428Y-92933333D01*
X171576190Y-92980952D01*
X171385714Y-92980952D01*
X171290476Y-93028571D01*
X171242857Y-93076190D01*
X171195238Y-93171428D01*
X171195238Y-93361904D01*
X171242857Y-93457142D01*
X171290476Y-93504761D01*
X171385714Y-93552380D01*
X171576190Y-93552380D01*
X171671428Y-93504761D01*
X171719047Y-93457142D01*
X171766666Y-93361904D01*
X171766666Y-93171428D01*
X171719047Y-93076190D01*
X171671428Y-93028571D01*
X171576190Y-92980952D01*
%TO.C,J7*%
X147566666Y-92552380D02*
X147566666Y-93266666D01*
X147519047Y-93409523D01*
X147423809Y-93504761D01*
X147280952Y-93552380D01*
X147185714Y-93552380D01*
X147947619Y-92552380D02*
X148614285Y-92552380D01*
X148185714Y-93552380D01*
%TO.C,J6*%
X124366666Y-92552380D02*
X124366666Y-93266666D01*
X124319047Y-93409523D01*
X124223809Y-93504761D01*
X124080952Y-93552380D01*
X123985714Y-93552380D01*
X125271428Y-92552380D02*
X125080952Y-92552380D01*
X124985714Y-92600000D01*
X124938095Y-92647619D01*
X124842857Y-92790476D01*
X124795238Y-92980952D01*
X124795238Y-93361904D01*
X124842857Y-93457142D01*
X124890476Y-93504761D01*
X124985714Y-93552380D01*
X125176190Y-93552380D01*
X125271428Y-93504761D01*
X125319047Y-93457142D01*
X125366666Y-93361904D01*
X125366666Y-93123809D01*
X125319047Y-93028571D01*
X125271428Y-92980952D01*
X125176190Y-92933333D01*
X124985714Y-92933333D01*
X124890476Y-92980952D01*
X124842857Y-93028571D01*
X124795238Y-93123809D01*
%TO.C,J5*%
X101166666Y-92552380D02*
X101166666Y-93266666D01*
X101119047Y-93409523D01*
X101023809Y-93504761D01*
X100880952Y-93552380D01*
X100785714Y-93552380D01*
X102119047Y-92552380D02*
X101642857Y-92552380D01*
X101595238Y-93028571D01*
X101642857Y-92980952D01*
X101738095Y-92933333D01*
X101976190Y-92933333D01*
X102071428Y-92980952D01*
X102119047Y-93028571D01*
X102166666Y-93123809D01*
X102166666Y-93361904D01*
X102119047Y-93457142D01*
X102071428Y-93504761D01*
X101976190Y-93552380D01*
X101738095Y-93552380D01*
X101642857Y-93504761D01*
X101595238Y-93457142D01*
%TO.C,J4*%
X170766666Y-102552380D02*
X170766666Y-103266666D01*
X170719047Y-103409523D01*
X170623809Y-103504761D01*
X170480952Y-103552380D01*
X170385714Y-103552380D01*
X171671428Y-102885714D02*
X171671428Y-103552380D01*
X171433333Y-102504761D02*
X171195238Y-103219047D01*
X171814285Y-103219047D01*
%TO.C,J3*%
X147566666Y-102552380D02*
X147566666Y-103266666D01*
X147519047Y-103409523D01*
X147423809Y-103504761D01*
X147280952Y-103552380D01*
X147185714Y-103552380D01*
X147947619Y-102552380D02*
X148566666Y-102552380D01*
X148233333Y-102933333D01*
X148376190Y-102933333D01*
X148471428Y-102980952D01*
X148519047Y-103028571D01*
X148566666Y-103123809D01*
X148566666Y-103361904D01*
X148519047Y-103457142D01*
X148471428Y-103504761D01*
X148376190Y-103552380D01*
X148090476Y-103552380D01*
X147995238Y-103504761D01*
X147947619Y-103457142D01*
%TO.C,J2*%
X124366666Y-102552380D02*
X124366666Y-103266666D01*
X124319047Y-103409523D01*
X124223809Y-103504761D01*
X124080952Y-103552380D01*
X123985714Y-103552380D01*
X124795238Y-102647619D02*
X124842857Y-102600000D01*
X124938095Y-102552380D01*
X125176190Y-102552380D01*
X125271428Y-102600000D01*
X125319047Y-102647619D01*
X125366666Y-102742857D01*
X125366666Y-102838095D01*
X125319047Y-102980952D01*
X124747619Y-103552380D01*
X125366666Y-103552380D01*
%TO.C,J1*%
X101166666Y-102552380D02*
X101166666Y-103266666D01*
X101119047Y-103409523D01*
X101023809Y-103504761D01*
X100880952Y-103552380D01*
X100785714Y-103552380D01*
X102166666Y-103552380D02*
X101595238Y-103552380D01*
X101880952Y-103552380D02*
X101880952Y-102552380D01*
X101785714Y-102695238D01*
X101690476Y-102790476D01*
X101595238Y-102838095D01*
%TO.C,H2*%
X172378095Y-84752380D02*
X172378095Y-83752380D01*
X172378095Y-84228571D02*
X172949523Y-84228571D01*
X172949523Y-84752380D02*
X172949523Y-83752380D01*
X173378095Y-83847619D02*
X173425714Y-83800000D01*
X173520952Y-83752380D01*
X173759047Y-83752380D01*
X173854285Y-83800000D01*
X173901904Y-83847619D01*
X173949523Y-83942857D01*
X173949523Y-84038095D01*
X173901904Y-84180952D01*
X173330476Y-84752380D01*
X173949523Y-84752380D01*
%TO.C,H1*%
X98698095Y-84852380D02*
X98698095Y-83852380D01*
X98698095Y-84328571D02*
X99269523Y-84328571D01*
X99269523Y-84852380D02*
X99269523Y-83852380D01*
X100269523Y-84852380D02*
X99698095Y-84852380D01*
X99983809Y-84852380D02*
X99983809Y-83852380D01*
X99888571Y-83995238D01*
X99793333Y-84090476D01*
X99698095Y-84138095D01*
%TD*%
M02*
